M48
;DRILL file {brdgerber.py (2021-02-10 18:50:57) date 2021-02-10 18:50:57}
;FORMAT={-:-/ absolute / inch / decimal}
FMAT,2
INCH,TZ
T2C00000.10000
T3C00000.02500
T1C00000.03200
%
G90
G05
M72
T2
X-0000.43946Y00001.54554
X00000.08946Y00001.54554
X00000.08946Y00002.07446
X-0000.43946Y00002.07446
T0
T3
X00000.78500Y00001.57500
X00001.00000Y00002.31500
X00000.90000Y00002.32500
X00000.69000Y00001.20000
X00000.70500Y00001.48000
X00000.75500Y00001.52000
T0
T1
X00000.28500Y00002.33500
X00000.18500Y00002.33500
X00000.08500Y00002.33500
X-0000.01500Y00002.33500
X-0000.11500Y00002.33500
X-0000.21500Y00002.33500
X-0000.31500Y00002.33500
X-0000.14500Y00001.26500
X-0000.04500Y00001.26500
X00001.28500Y00002.09500
X00001.28500Y00001.99500
X00001.28500Y00001.89500
T0
M30
