G04 ( created by brdgerber.py ( brdgerber.py v0.1 2014-03-12 ) ) date 2021-02-10 18:50:50 EST*
G04 Gerber Fmt 3.4, Leading zero omitted, Abs format*
%MOIN*%
%FSLAX34Y34*%
G01*
G70*
G90*
G04 APERTURE LIST*
%ADD26C,0.0400*%
%ADD15C,0.0550*%
%ADD23C,0.0200*%
%ADD19C,0.0012*%
%ADD18R,0.0472X0.0275*%
%ADD20C,0.1500*%
%ADD24C,0.0100*%
%ADD27R,0.1575X0.0945*%
%ADD11C,0.0050*%
%ADD22R,0.0709X0.0629*%
%ADD28C,0.0047*%
%ADD12C,0.0060*%
%ADD25C,0.0059*%
%ADD13C,0.0020*%
%ADD29C,0.0472*%
%ADD16C,0.0120*%
%ADD14R,0.0550X0.0550*%
%ADD10R,0.0260X0.0800*%
%ADD21C,0.0000*%
%ADD17R,0.0629X0.0709*%
G04 APERTURE END LIST*
G54D26*
D14*
X02850Y23350D03*
D15*
X01850Y23350D03*
D15*
X00850Y23350D03*
D15*
X-00150Y23350D03*
D15*
X-01150Y23350D03*
D15*
X-02150Y23350D03*
D15*
X-03150Y23350D03*
D20*
G01X-04395Y15455D02*
G01X-04395Y15455D01*
D20*
G01X00895Y15455D02*
G01X00895Y15455D01*
D20*
G01X00895Y20745D02*
G01X00895Y20745D01*
D20*
G01X-04395Y20745D02*
G01X-04395Y20745D01*
D14*
X-01450Y12650D03*
D15*
X-00450Y12650D03*
D14*
X12850Y20950D03*
D15*
X12850Y19950D03*
D15*
X12850Y18950D03*
G36*
G01X11851Y11798D02*
G01X11272Y15509D01*
G01X11219Y15486D01*
G01X11103Y15453D01*
G01X08239Y15447D01*
G01X08163Y15378D01*
G01X08039Y15296D01*
G01X08030Y15273D01*
G01X08035Y15225D01*
G01X08029Y15125D01*
G01X08009Y15042D01*
G01X07970Y14955D01*
G01X07927Y14893D01*
G01X07863Y14828D01*
G01X07804Y14785D01*
G01X07724Y14746D01*
G01X07641Y14723D01*
G01X07551Y14714D01*
G01X07530Y14701D01*
G01X07470Y14555D01*
G01X07427Y14493D01*
G01X07363Y14428D01*
G01X07304Y14385D01*
G01X07224Y14346D01*
G01X07140Y14323D01*
G01X07055Y14315D01*
G01X06975Y14274D01*
G01X06902Y14256D01*
G01X-00116Y12245D01*
G01X-00047Y12318D01*
G01X-00379Y12650D01*
G01X-00521Y12650D01*
G01X-00450Y12721D01*
G01X-00784Y13055D01*
G01X-00721Y13101D01*
G01X-00633Y13142D01*
G01X-00543Y13166D01*
G01X-00089Y15279D01*
G01X-03437Y15167D01*
G01X-03472Y15069D01*
G01X-03520Y14970D01*
G01X-03583Y14871D01*
G01X-03662Y14776D01*
G01X-03769Y14676D01*
G01X-03882Y14597D01*
G01X-03982Y14545D01*
G01X-04087Y14504D01*
G01X-04188Y14477D01*
G01X-04291Y14461D01*
G01X-04399Y14455D01*
G01X-04536Y14466D01*
G01X-04635Y14485D01*
G01X-04742Y14518D01*
G01X-04839Y14559D01*
G01X-04929Y14611D01*
G01X-05032Y14685D01*
G01X-05133Y14780D01*
G01X-05204Y14868D01*
G01X-05267Y14966D01*
G01X-05316Y15066D01*
G01X-05350Y15162D01*
G01X-05376Y15268D01*
G01X-05391Y15377D01*
G01X-05390Y15541D01*
G01X-05376Y15652D01*
G01X-05358Y20477D01*
G01X-05382Y20586D01*
G01X-05393Y20702D01*
G01X-05388Y20864D01*
G01X-05371Y20962D01*
G01X-05340Y21070D01*
G01X-05302Y21165D01*
G01X-05253Y21258D01*
G01X-05176Y21368D01*
G01X-05095Y21457D01*
G01X-05005Y21536D01*
G01X-04888Y21614D01*
G01X-04798Y21659D01*
G01X-04693Y21699D01*
G01X-04592Y21725D01*
G01X-04490Y21740D01*
G01X-03672Y23298D01*
G01X-03671Y23414D01*
G01X-03650Y23511D01*
G01X-03625Y23573D01*
G01X-03574Y23659D01*
G01X-03553Y23682D01*
G01X-03484Y23755D01*
G01X-03421Y23801D01*
G01X-03333Y23842D01*
G01X-03243Y23866D01*
G01X-03136Y23875D01*
G01X-03048Y23864D01*
G01X-02960Y23839D01*
G01X-02869Y23793D01*
G01X-02816Y23754D01*
G01X-03150Y23421D01*
G01X-03484Y23755D01*
G01X-03553Y23682D01*
G01X-03221Y23350D01*
G01X-03150Y23279D01*
G01X-02816Y22945D01*
G01X-02879Y22899D01*
G01X-02967Y22858D01*
G01X-03057Y22834D01*
G01X-03164Y22825D01*
G01X-03252Y22836D01*
G01X-03340Y22861D01*
G01X-03431Y22907D01*
G01X-03484Y22946D01*
G01X-03150Y23279D01*
G01X-03221Y23350D01*
G01X-03553Y23018D01*
G01X-03580Y23049D01*
G01X-03627Y23131D01*
G01X-03654Y23203D01*
G01X-03672Y23298D01*
G01X-04490Y21740D01*
G01X-04324Y21742D01*
G01X-04218Y21728D01*
G01X-04110Y21703D01*
G01X-04013Y21669D01*
G01X-03913Y21621D01*
G01X-03738Y21499D01*
G01X-03638Y21399D01*
G01X-03562Y21298D01*
G01X-03498Y21187D01*
G01X-03454Y21084D01*
G01X-03423Y20981D01*
G01X-03404Y20884D01*
G01X-03396Y20695D01*
G01X-03408Y20584D01*
G01X-03429Y20482D01*
G01X-03508Y20283D01*
G01X-03579Y20166D01*
G01X-03657Y20069D01*
G01X-03815Y19930D01*
G01X-03922Y19863D01*
G01X-04022Y19816D01*
G01X-04120Y19783D01*
G01X-04226Y19759D01*
G01X-04436Y19745D01*
G01X-04549Y19757D01*
G01X-04649Y19778D01*
G01X-04751Y19810D01*
G01X-04865Y19861D01*
G01X-04973Y19929D01*
G01X-05071Y20009D01*
G01X-05164Y20106D01*
G01X-05280Y20280D01*
G01X-05326Y20380D01*
G01X-05358Y20477D01*
G01X-05376Y15652D01*
G01X-05350Y15751D01*
G01X-05313Y15850D01*
G01X-05256Y15963D01*
G01X-05185Y16068D01*
G01X-05095Y16168D01*
G01X-04997Y16253D01*
G01X-04902Y16317D01*
G01X-04802Y16368D01*
G01X-04702Y16407D01*
G01X-04601Y16434D01*
G01X-04500Y16450D01*
G01X-04305Y16452D01*
G01X-04097Y16410D01*
G01X-04002Y16375D01*
G01X-03901Y16325D01*
G01X-03805Y16263D01*
G01X-03718Y16191D01*
G01X-03600Y16062D01*
G01X-03533Y15964D01*
G01X-03487Y15874D01*
G01X-03446Y15770D01*
G01X-03417Y15667D01*
G01X-03401Y15568D01*
G01X-03398Y15380D01*
G01X-03437Y15167D01*
G01X-00089Y15279D01*
G01X-00103Y15390D01*
G01X-00098Y15579D01*
G01X-00081Y15677D01*
G01X-00050Y15784D01*
G01X-00012Y15878D01*
G01X00046Y15984D01*
G01X00128Y16098D01*
G01X00252Y16222D01*
G01X00366Y16304D01*
G01X00472Y16362D01*
G01X00566Y16400D01*
G01X00673Y16431D01*
G01X00772Y16448D01*
G01X00961Y16453D01*
G01X01071Y16439D01*
G01X01176Y16415D01*
G01X01271Y16382D01*
G01X01385Y16327D01*
G01X01497Y16254D01*
G01X01584Y16180D01*
G01X01678Y16076D01*
G01X01739Y15990D01*
G01X01790Y15901D01*
G01X01834Y15798D01*
G01X01865Y15696D01*
G01X01884Y15597D01*
G01X01895Y15457D01*
G01X01885Y15321D01*
G01X01867Y15222D01*
G01X01835Y15116D01*
G01X01796Y15021D01*
G01X01729Y14904D01*
G01X01662Y14814D01*
G01X01573Y14721D01*
G01X01487Y14650D01*
G01X01375Y14578D01*
G01X01282Y14534D01*
G01X01182Y14498D01*
G01X01075Y14473D01*
G01X00888Y14455D01*
G01X00753Y14466D01*
G01X00654Y14485D01*
G01X00547Y14518D01*
G01X00449Y14560D01*
G01X00360Y14611D01*
G01X00272Y14674D01*
G01X00170Y14766D01*
G01X00095Y14854D01*
G01X00022Y14966D01*
G01X-00032Y15079D01*
G01X-00065Y15174D01*
G01X-00089Y15279D01*
G01X-00543Y13166D01*
G01X-00436Y13175D01*
G01X-00348Y13164D01*
G01X-00260Y13139D01*
G01X-00169Y13093D01*
G01X-00116Y13054D01*
G01X-00450Y12721D01*
G01X-00521Y12650D01*
G01X-00856Y12315D01*
G01X-00872Y12332D01*
G01X-00896Y12335D01*
G01X-00918Y12326D01*
G01X-00975Y12226D01*
G01X-01026Y12175D01*
G01X-01100Y12137D01*
G01X-01177Y12125D01*
G01X-01723Y12125D01*
G01X-01800Y12137D01*
G01X-01874Y12175D01*
G01X-01925Y12226D01*
G01X-01963Y12300D01*
G01X-01975Y12375D01*
G01X-01975Y12925D01*
G01X-01963Y13000D01*
G01X-01925Y13074D01*
G01X-01874Y13125D01*
G01X-01800Y13163D01*
G01X-01723Y13175D01*
G01X-01177Y13175D01*
G01X-01100Y13163D01*
G01X-01026Y13125D01*
G01X-00975Y13074D01*
G01X-00919Y12974D01*
G01X-00897Y12965D01*
G01X-00873Y12968D01*
G01X-00856Y12985D01*
G01X-00521Y12650D01*
G01X-00379Y12650D01*
G01X-00047Y12982D01*
G01X-00020Y12951D01*
G01X00027Y12869D01*
G01X00054Y12797D01*
G01X00072Y12702D01*
G01X00071Y12588D01*
G01X00050Y12490D01*
G01X00025Y12427D01*
G01X-00026Y12341D01*
G01X-00047Y12318D01*
G01X-00116Y12245D01*
G01X-00179Y12199D01*
G01X-00267Y12158D01*
G01X-00357Y12134D01*
G01X-00464Y12125D01*
G01X-00552Y12136D01*
G01X-00640Y12161D01*
G01X-00731Y12207D01*
G01X-00784Y12246D01*
G01X-00450Y12579D01*
G01X-00116Y12245D01*
G01X06902Y14256D01*
G01X04285Y14250D01*
G01X04220Y14260D01*
G01X04151Y14284D01*
G01X04087Y14324D01*
G01X-01455Y19860D01*
G01X-01520Y19962D01*
G01X-01546Y20051D01*
G01X-01548Y20487D01*
G01X-01558Y20517D01*
G01X-02412Y21369D01*
G01X-02450Y21420D01*
G01X-02491Y21525D01*
G01X-02500Y22952D01*
G01X-02580Y23048D01*
G01X-02607Y23096D01*
G01X-02639Y23120D01*
G01X-02679Y23112D01*
G01X-02726Y23041D01*
G01X-02747Y23018D01*
G01X-03079Y23350D01*
G01X-02747Y23682D01*
G01X-02721Y23653D01*
G01X-02693Y23604D01*
G01X-02661Y23580D01*
G01X-02621Y23588D01*
G01X-02574Y23659D01*
G01X-02485Y23754D01*
G01X-02421Y23801D01*
G01X-02333Y23842D01*
G01X-02243Y23866D01*
G01X-02136Y23875D01*
G01X-02048Y23864D01*
G01X-01960Y23839D01*
G01X-01869Y23793D01*
G01X-01802Y23744D01*
G01X-01721Y23653D01*
G01X-01693Y23604D01*
G01X-01661Y23580D01*
G01X-01621Y23588D01*
G01X-01574Y23659D01*
G01X-01485Y23754D01*
G01X-01421Y23801D01*
G01X-01333Y23842D01*
G01X-01243Y23866D01*
G01X-01136Y23875D01*
G01X-01048Y23864D01*
G01X-00960Y23839D01*
G01X-00869Y23793D01*
G01X-00802Y23744D01*
G01X-00721Y23653D01*
G01X-00693Y23604D01*
G01X-00661Y23580D01*
G01X-00621Y23588D01*
G01X-00574Y23659D01*
G01X-00485Y23754D01*
G01X-00421Y23801D01*
G01X-00333Y23842D01*
G01X-00243Y23866D01*
G01X-00119Y23878D01*
G01X00543Y24531D01*
G01X00603Y24567D01*
G01X00673Y24591D01*
G01X00747Y24600D01*
G01X09335Y24597D01*
G01X09421Y24578D01*
G01X09481Y24549D01*
G01X09540Y24505D01*
G01X10277Y23763D01*
G01X10320Y23690D01*
G01X10344Y23606D01*
G01X10351Y23493D01*
G01X10405Y23419D01*
G01X10447Y23341D01*
G01X10473Y23262D01*
G01X10485Y23175D01*
G01X10479Y23075D01*
G01X10459Y22992D01*
G01X10421Y22907D01*
G01X10377Y22843D01*
G01X10313Y22778D01*
G01X10254Y22735D01*
G01X10174Y22696D01*
G01X10090Y22673D01*
G01X09986Y22664D01*
G01X09903Y22675D01*
G01X09809Y22703D01*
G01X09741Y22739D01*
G01X09671Y22792D01*
G01X09618Y22849D01*
G01X09573Y22918D01*
G01X09520Y23053D01*
G01X09500Y23067D01*
G01X09475Y23070D01*
G01X09452Y23060D01*
G01X09377Y22943D01*
G01X09313Y22878D01*
G01X09254Y22835D01*
G01X09174Y22796D01*
G01X09090Y22773D01*
G01X08986Y22764D01*
G01X08903Y22775D01*
G01X08809Y22803D01*
G01X08741Y22839D01*
G01X08671Y22892D01*
G01X08618Y22949D01*
G01X08574Y23017D01*
G01X08537Y23102D01*
G01X08507Y23250D01*
G01X08152Y23601D01*
G01X03425Y23602D01*
G01X03396Y23592D01*
G01X03377Y23567D01*
G01X03375Y23075D01*
G01X03363Y23000D01*
G01X03325Y22926D01*
G01X03274Y22875D01*
G01X03200Y22837D01*
G01X03123Y22825D01*
G01X02577Y22825D01*
G01X02500Y22837D01*
G01X02426Y22875D01*
G01X02375Y22926D01*
G01X02319Y23026D01*
G01X02297Y23035D01*
G01X02273Y23032D01*
G01X02186Y22947D01*
G01X02121Y22899D01*
G01X02033Y22858D01*
G01X01943Y22834D01*
G01X01836Y22825D01*
G01X01748Y22836D01*
G01X01660Y22861D01*
G01X01569Y22907D01*
G01X01502Y22956D01*
G01X01420Y23049D01*
G01X01393Y23096D01*
G01X01361Y23120D01*
G01X01321Y23112D01*
G01X01274Y23041D01*
G01X01186Y22947D01*
G01X01121Y22899D01*
G01X01033Y22858D01*
G01X00943Y22834D01*
G01X00836Y22825D01*
G01X00748Y22836D01*
G01X00660Y22861D01*
G01X00569Y22907D01*
G01X00502Y22956D01*
G01X00420Y23049D01*
G01X00393Y23096D01*
G01X00361Y23120D01*
G01X00321Y23112D01*
G01X00274Y23041D01*
G01X00186Y22947D01*
G01X00121Y22899D01*
G01X00033Y22858D01*
G01X-00057Y22834D01*
G01X-00164Y22825D01*
G01X-00252Y22836D01*
G01X-00340Y22861D01*
G01X-00431Y22907D01*
G01X-00498Y22956D01*
G01X-00580Y23049D01*
G01X-00607Y23096D01*
G01X-00639Y23120D01*
G01X-00679Y23112D01*
G01X-00726Y23041D01*
G01X-00798Y22961D01*
G01X-00804Y22717D01*
G01X-00794Y22687D01*
G01X-00518Y22407D01*
G01X-00485Y22350D01*
G01X-00459Y22278D01*
G01X-00450Y22215D01*
G01X-00450Y20792D01*
G01X-00170Y20510D01*
G01X-00149Y20497D01*
G01X-00123Y20496D01*
G01X-00101Y20508D01*
G01X-00087Y20530D01*
G01X-00105Y20780D01*
G01X-00094Y20892D01*
G01X-00074Y20992D01*
G01X-00042Y21094D01*
G01X00003Y21197D01*
G01X00060Y21296D01*
G01X00123Y21381D01*
G01X00238Y21499D01*
G01X00316Y21560D01*
G01X00446Y21638D01*
G01X00540Y21679D01*
G01X00647Y21713D01*
G01X00748Y21733D01*
G01X00883Y21744D01*
G01X01023Y21736D01*
G01X01124Y21718D01*
G01X01230Y21687D01*
G01X01324Y21648D01*
G01X01417Y21597D01*
G01X01518Y21526D01*
G01X01619Y21434D01*
G01X01693Y21347D01*
G01X01759Y21246D01*
G01X01810Y21146D01*
G01X01848Y21046D01*
G01X01875Y20943D01*
G01X01890Y20843D01*
G01X01892Y20673D01*
G01X01878Y20567D01*
G01X01852Y20457D01*
G01X01818Y20362D01*
G01X01764Y20250D01*
G01X01693Y20142D01*
G01X01600Y20037D01*
G01X01500Y19949D01*
G01X01414Y19891D01*
G01X01311Y19836D01*
G01X01206Y19795D01*
G01X01105Y19766D01*
G01X01003Y19750D01*
G01X00854Y19745D01*
G01X00682Y19763D01*
G01X00661Y19749D01*
G01X00648Y19727D01*
G01X00649Y19702D01*
G01X00662Y19680D01*
G01X04102Y16251D01*
G01X06866Y16250D01*
G01X06916Y16242D01*
G01X07017Y16206D01*
G01X07072Y16168D01*
G01X07339Y15909D01*
G01X07378Y15911D01*
G01X07404Y15940D01*
G01X07449Y16023D01*
G01X07504Y16090D01*
G01X07569Y16147D01*
G01X07659Y16196D01*
G01X07778Y16291D01*
G01X07836Y16316D01*
G01X07947Y16347D01*
G01X10853Y16347D01*
G01X12398Y17887D01*
G01X12404Y18668D01*
G01X12346Y18803D01*
G01X12328Y18898D01*
G01X12329Y19012D01*
G01X12350Y19111D01*
G01X12375Y19173D01*
G01X12426Y19259D01*
G01X12515Y19354D01*
G01X12591Y19406D01*
G01X12618Y19440D01*
G01X12618Y19462D01*
G01X12591Y19496D01*
G01X12502Y19556D01*
G01X12420Y19649D01*
G01X12373Y19731D01*
G01X12346Y19803D01*
G01X12328Y19899D01*
G01X12329Y20015D01*
G01X12350Y20111D01*
G01X12375Y20173D01*
G01X12426Y20259D01*
G01X12515Y20354D01*
G01X12530Y20382D01*
G01X12520Y20421D01*
G01X12426Y20475D01*
G01X12375Y20526D01*
G01X12337Y20600D01*
G01X12325Y20675D01*
G01X12325Y21225D01*
G01X12338Y21301D01*
G01X12375Y21374D01*
G01X12426Y21425D01*
G01X12500Y21463D01*
G01X12577Y21475D01*
G01X13123Y21475D01*
G01X13200Y21463D01*
G01X13274Y21425D01*
G01X13325Y21374D01*
G01X13362Y21301D01*
G01X13375Y21225D01*
G01X13375Y20675D01*
G01X13363Y20600D01*
G01X13325Y20526D01*
G01X13274Y20475D01*
G01X13180Y20422D01*
G01X13169Y20384D01*
G01X13190Y20350D01*
G01X13279Y20253D01*
G01X13326Y20171D01*
G01X13354Y20097D01*
G01X13372Y20002D01*
G01X13371Y19889D01*
G01X13350Y19790D01*
G01X13325Y19727D01*
G01X13274Y19641D01*
G01X13186Y19547D01*
G01X13109Y19494D01*
G01X13082Y19460D01*
G01X13082Y19438D01*
G01X13109Y19404D01*
G01X13198Y19344D01*
G01X13280Y19251D01*
G01X13327Y19169D01*
G01X13354Y19097D01*
G01X13372Y19002D01*
G01X13371Y18888D01*
G01X13350Y18790D01*
G01X13301Y18686D01*
G01X13292Y17626D01*
G01X13264Y17526D01*
G01X13233Y17467D01*
G01X13175Y17388D01*
G01X11349Y15567D01*
G01X11272Y15509D01*
G01X11851Y11798D01*
G01X14149Y14097D01*
G01X14154Y22140D01*
G01X14146Y22461D01*
G01X11851Y24751D01*
G01X-03440Y24750D01*
G01X-03475Y24735D01*
G01X-05749Y22448D01*
G01X-05754Y14101D01*
G01X-03456Y11804D01*
G01X11836Y11796D01*
G01X11851Y11798D01*
G01X11851Y11798D01*
G37*
D26*
G01X07850Y15750D02*
G01X08000Y15900D01*
D29*
X07850Y15750D03*
D26*
G01X08000Y15900D02*
G01X11050Y15900D01*
D23*
G01X06250Y12650D02*
G01X-00450Y12650D01*
D29*
X10000Y23150D03*
D23*
G01X10000Y23150D02*
G01X10000Y23550D01*
D23*
G01X10000Y23550D02*
G01X09300Y24250D01*
D23*
G01X09300Y24250D02*
G01X00750Y24250D01*
D23*
G01X00750Y24250D02*
G01X-00150Y23350D01*
D29*
X09000Y23250D03*
D23*
G01X09000Y23250D02*
G01X08300Y23950D01*
D23*
G01X08300Y23950D02*
G01X01450Y23950D01*
D23*
G01X01450Y23950D02*
G01X00850Y23350D01*
D23*
G01X-01150Y22550D02*
G01X-01150Y23350D01*
D26*
G01X11050Y15900D02*
G01X12850Y17700D01*
D26*
G01X12850Y17700D02*
G01X12850Y18950D01*
D29*
X06900Y12000D03*
D23*
G01X06900Y12000D02*
G01X06250Y12650D01*
D23*
G01X-03150Y23350D02*
G01X-03150Y15600D01*
D23*
G01X-03150Y15600D02*
G01X-00450Y12900D01*
D23*
G01X-00450Y12900D02*
G01X-00450Y12650D01*
D29*
X07050Y14800D03*
D23*
G01X07050Y14800D02*
G01X06850Y14600D01*
D23*
G01X06850Y14600D02*
G01X04300Y14600D01*
D23*
G01X04300Y14600D02*
G01X-01200Y20100D01*
D23*
G01X-01200Y20100D02*
G01X-01200Y20650D01*
D23*
G01X-01200Y20650D02*
G01X-02150Y21600D01*
D23*
G01X-02150Y21600D02*
G01X-02150Y23350D01*
D29*
X07550Y15200D03*
D23*
G01X07550Y15200D02*
G01X06850Y15900D01*
D23*
G01X06850Y15900D02*
G01X03950Y15900D01*
D23*
G01X03950Y15900D02*
G01X-00800Y20650D01*
D23*
G01X-00800Y20650D02*
G01X-00800Y22200D01*
D23*
G01X-00800Y22200D02*
G01X-01150Y22550D01*
D24*
G01X-02816Y23754D02*
G01X-02816Y23754D01*
G01X-02869Y23793D01*
G01X-02960Y23839D01*
G01X-03048Y23864D01*
G01X-03136Y23875D01*
G01X-03243Y23866D01*
G01X-03333Y23842D01*
G01X-03421Y23801D01*
G01X-03484Y23755D01*
G01X-03150Y23421D01*
G01X-02816Y23754D01*
D24*
G01X-03221Y23350D02*
G01X-03221Y23350D01*
G01X-03553Y23682D01*
G01X-03574Y23659D01*
G01X-03625Y23573D01*
G01X-03650Y23511D01*
G01X-03671Y23414D01*
G01X-03672Y23298D01*
G01X-03654Y23203D01*
G01X-03627Y23131D01*
G01X-03580Y23049D01*
G01X-03553Y23018D01*
G01X-03553Y23018D01*
G01X-03221Y23350D01*
D24*
G01X-03057Y22834D02*
G01X-03057Y22834D01*
G01X-02967Y22858D01*
G01X-02879Y22899D01*
G01X-02816Y22945D01*
G01X-03150Y23279D01*
G01X-03484Y22946D01*
G01X-03431Y22907D01*
G01X-03340Y22861D01*
G01X-03252Y22836D01*
G01X-03164Y22825D01*
G01X-03164Y22825D01*
G01X-03057Y22834D01*
D24*
G01X-04226Y19759D02*
G01X-04226Y19759D01*
G01X-04120Y19783D01*
G01X-04022Y19816D01*
G01X-03922Y19863D01*
G01X-03815Y19930D01*
G01X-03657Y20069D01*
G01X-03579Y20166D01*
G01X-03508Y20283D01*
G01X-03429Y20482D01*
G01X-03408Y20584D01*
G01X-03396Y20695D01*
G01X-03404Y20884D01*
G01X-03423Y20981D01*
G01X-03454Y21084D01*
G01X-03498Y21187D01*
G01X-03562Y21298D01*
G01X-03638Y21399D01*
G01X-03738Y21499D01*
G01X-03913Y21621D01*
G01X-04013Y21669D01*
G01X-04110Y21703D01*
G01X-04218Y21728D01*
G01X-04324Y21742D01*
G01X-04490Y21740D01*
G01X-04592Y21725D01*
G01X-04693Y21699D01*
G01X-04798Y21659D01*
G01X-04888Y21614D01*
G01X-05005Y21536D01*
G01X-05095Y21457D01*
G01X-05176Y21368D01*
G01X-05253Y21258D01*
G01X-05302Y21165D01*
G01X-05340Y21070D01*
G01X-05371Y20962D01*
G01X-05388Y20864D01*
G01X-05393Y20702D01*
G01X-05382Y20586D01*
G01X-05358Y20477D01*
G01X-05326Y20380D01*
G01X-05280Y20280D01*
G01X-05164Y20106D01*
G01X-05071Y20009D01*
G01X-04973Y19929D01*
G01X-04865Y19861D01*
G01X-04751Y19810D01*
G01X-04649Y19778D01*
G01X-04549Y19757D01*
G01X-04436Y19745D01*
G01X-04436Y19745D01*
G01X-04226Y19759D01*
D24*
G01X01075Y14473D02*
G01X01075Y14473D01*
G01X01182Y14498D01*
G01X01282Y14534D01*
G01X01375Y14578D01*
G01X01487Y14650D01*
G01X01573Y14721D01*
G01X01662Y14814D01*
G01X01729Y14904D01*
G01X01796Y15021D01*
G01X01835Y15116D01*
G01X01867Y15222D01*
G01X01885Y15321D01*
G01X01895Y15457D01*
G01X01884Y15597D01*
G01X01865Y15696D01*
G01X01834Y15798D01*
G01X01790Y15901D01*
G01X01739Y15990D01*
G01X01678Y16076D01*
G01X01584Y16180D01*
G01X01497Y16254D01*
G01X01385Y16327D01*
G01X01271Y16382D01*
G01X01176Y16415D01*
G01X01071Y16439D01*
G01X00961Y16453D01*
G01X00772Y16448D01*
G01X00673Y16431D01*
G01X00566Y16400D01*
G01X00472Y16362D01*
G01X00366Y16304D01*
G01X00252Y16222D01*
G01X00128Y16098D01*
G01X00046Y15984D01*
G01X-00012Y15878D01*
G01X-00050Y15784D01*
G01X-00081Y15677D01*
G01X-00098Y15579D01*
G01X-00103Y15390D01*
G01X-00089Y15279D01*
G01X-00065Y15174D01*
G01X-00032Y15079D01*
G01X00022Y14966D01*
G01X00095Y14854D01*
G01X00170Y14766D01*
G01X00272Y14674D01*
G01X00360Y14611D01*
G01X00449Y14560D01*
G01X00547Y14518D01*
G01X00654Y14485D01*
G01X00753Y14466D01*
G01X00888Y14455D01*
G01X00888Y14455D01*
G01X01075Y14473D01*
D24*
G01X-04291Y14461D02*
G01X-04291Y14461D01*
G01X-04188Y14477D01*
G01X-04087Y14504D01*
G01X-03982Y14545D01*
G01X-03882Y14597D01*
G01X-03769Y14676D01*
G01X-03662Y14776D01*
G01X-03583Y14871D01*
G01X-03520Y14970D01*
G01X-03472Y15069D01*
G01X-03437Y15167D01*
G01X-03398Y15380D01*
G01X-03401Y15568D01*
G01X-03417Y15667D01*
G01X-03446Y15770D01*
G01X-03487Y15874D01*
G01X-03533Y15964D01*
G01X-03600Y16062D01*
G01X-03718Y16191D01*
G01X-03805Y16263D01*
G01X-03901Y16325D01*
G01X-04002Y16375D01*
G01X-04097Y16410D01*
G01X-04305Y16452D01*
G01X-04500Y16450D01*
G01X-04601Y16434D01*
G01X-04702Y16407D01*
G01X-04802Y16368D01*
G01X-04902Y16317D01*
G01X-04997Y16253D01*
G01X-05095Y16168D01*
G01X-05185Y16068D01*
G01X-05256Y15963D01*
G01X-05313Y15850D01*
G01X-05350Y15751D01*
G01X-05376Y15652D01*
G01X-05390Y15541D01*
G01X-05391Y15377D01*
G01X-05376Y15268D01*
G01X-05350Y15162D01*
G01X-05316Y15066D01*
G01X-05267Y14966D01*
G01X-05204Y14868D01*
G01X-05133Y14780D01*
G01X-05032Y14685D01*
G01X-04929Y14611D01*
G01X-04839Y14559D01*
G01X-04742Y14518D01*
G01X-04635Y14485D01*
G01X-04536Y14466D01*
G01X-04399Y14455D01*
G01X-04399Y14455D01*
G01X-04291Y14461D01*
D24*
G01X06902Y14256D02*
G01X06902Y14256D01*
G01X06975Y14274D01*
G01X07055Y14315D01*
G01X07140Y14323D01*
G01X07224Y14346D01*
G01X07304Y14385D01*
G01X07363Y14428D01*
G01X07427Y14493D01*
G01X07470Y14555D01*
G01X07530Y14701D01*
G01X07551Y14714D01*
G01X07641Y14723D01*
G01X07724Y14746D01*
G01X07804Y14785D01*
G01X07863Y14828D01*
G01X07927Y14893D01*
G01X07970Y14955D01*
G01X08009Y15042D01*
G01X08029Y15125D01*
G01X08035Y15225D01*
G01X08030Y15273D01*
G01X08039Y15296D01*
G01X08163Y15378D01*
G01X08239Y15447D01*
G01X11103Y15453D01*
G01X11219Y15486D01*
G01X11272Y15509D01*
G01X11349Y15567D01*
G01X13175Y17388D01*
G01X13233Y17467D01*
G01X13264Y17526D01*
G01X13292Y17626D01*
G01X13301Y18686D01*
G01X13350Y18790D01*
G01X13371Y18888D01*
G01X13372Y19002D01*
G01X13354Y19097D01*
G01X13327Y19169D01*
G01X13280Y19251D01*
G01X13198Y19344D01*
G01X13109Y19404D01*
G01X13082Y19438D01*
G01X13082Y19460D01*
G01X13109Y19494D01*
G01X13186Y19547D01*
G01X13274Y19641D01*
G01X13325Y19727D01*
G01X13350Y19790D01*
G01X13371Y19889D01*
G01X13372Y20002D01*
G01X13354Y20097D01*
G01X13326Y20171D01*
G01X13279Y20253D01*
G01X13190Y20350D01*
G01X13169Y20384D01*
G01X13180Y20422D01*
G01X13274Y20475D01*
G01X13325Y20526D01*
G01X13363Y20600D01*
G01X13375Y20675D01*
G01X13375Y21225D01*
G01X13362Y21301D01*
G01X13325Y21374D01*
G01X13274Y21425D01*
G01X13200Y21463D01*
G01X13123Y21475D01*
G01X12577Y21475D01*
G01X12500Y21463D01*
G01X12426Y21425D01*
G01X12375Y21374D01*
G01X12338Y21301D01*
G01X12325Y21225D01*
G01X12325Y20675D01*
G01X12337Y20600D01*
G01X12375Y20526D01*
G01X12426Y20475D01*
G01X12520Y20421D01*
G01X12530Y20382D01*
G01X12515Y20354D01*
G01X12426Y20259D01*
G01X12375Y20173D01*
G01X12350Y20111D01*
G01X12329Y20015D01*
G01X12328Y19899D01*
G01X12346Y19803D01*
G01X12373Y19731D01*
G01X12420Y19649D01*
G01X12502Y19556D01*
G01X12591Y19496D01*
G01X12618Y19462D01*
G01X12618Y19440D01*
G01X12591Y19406D01*
G01X12515Y19354D01*
G01X12426Y19259D01*
G01X12375Y19173D01*
G01X12350Y19111D01*
G01X12329Y19012D01*
G01X12328Y18898D01*
G01X12346Y18803D01*
G01X12404Y18668D01*
G01X12398Y17887D01*
G01X10853Y16347D01*
G01X07947Y16347D01*
G01X07836Y16316D01*
G01X07778Y16291D01*
G01X07659Y16196D01*
G01X07569Y16147D01*
G01X07504Y16090D01*
G01X07449Y16023D01*
G01X07404Y15940D01*
G01X07378Y15911D01*
G01X07339Y15909D01*
G01X07072Y16168D01*
G01X07017Y16206D01*
G01X06916Y16242D01*
G01X06866Y16250D01*
G01X04102Y16251D01*
G01X00662Y19680D01*
G01X00649Y19702D01*
G01X00648Y19727D01*
G01X00661Y19749D01*
G01X00682Y19763D01*
G01X00854Y19745D01*
G01X01003Y19750D01*
G01X01105Y19766D01*
G01X01206Y19795D01*
G01X01311Y19836D01*
G01X01414Y19891D01*
G01X01500Y19949D01*
G01X01600Y20037D01*
G01X01693Y20142D01*
G01X01764Y20250D01*
G01X01818Y20362D01*
G01X01852Y20457D01*
G01X01878Y20567D01*
G01X01892Y20673D01*
G01X01890Y20843D01*
G01X01875Y20943D01*
G01X01848Y21046D01*
G01X01810Y21146D01*
G01X01759Y21246D01*
G01X01693Y21347D01*
G01X01619Y21434D01*
G01X01518Y21526D01*
G01X01417Y21597D01*
G01X01324Y21648D01*
G01X01230Y21687D01*
G01X01124Y21718D01*
G01X01023Y21736D01*
G01X00883Y21744D01*
G01X00748Y21733D01*
G01X00647Y21713D01*
G01X00540Y21679D01*
G01X00446Y21638D01*
G01X00316Y21560D01*
G01X00238Y21499D01*
G01X00123Y21381D01*
G01X00060Y21296D01*
G01X00003Y21197D01*
G01X-00042Y21094D01*
G01X-00074Y20992D01*
G01X-00094Y20892D01*
G01X-00105Y20780D01*
G01X-00087Y20530D01*
G01X-00101Y20508D01*
G01X-00123Y20496D01*
G01X-00149Y20497D01*
G01X-00170Y20510D01*
G01X-00450Y20792D01*
G01X-00450Y22215D01*
G01X-00459Y22278D01*
G01X-00485Y22350D01*
G01X-00518Y22407D01*
G01X-00794Y22687D01*
G01X-00804Y22717D01*
G01X-00798Y22961D01*
G01X-00726Y23041D01*
G01X-00679Y23112D01*
G01X-00639Y23120D01*
G01X-00607Y23096D01*
G01X-00580Y23049D01*
G01X-00498Y22956D01*
G01X-00431Y22907D01*
G01X-00340Y22861D01*
G01X-00252Y22836D01*
G01X-00164Y22825D01*
G01X-00057Y22834D01*
G01X00033Y22858D01*
G01X00121Y22899D01*
G01X00186Y22947D01*
G01X00274Y23041D01*
G01X00321Y23112D01*
G01X00361Y23120D01*
G01X00393Y23096D01*
G01X00420Y23049D01*
G01X00502Y22956D01*
G01X00569Y22907D01*
G01X00660Y22861D01*
G01X00748Y22836D01*
G01X00836Y22825D01*
G01X00943Y22834D01*
G01X01033Y22858D01*
G01X01121Y22899D01*
G01X01186Y22947D01*
G01X01274Y23041D01*
G01X01321Y23112D01*
G01X01361Y23120D01*
G01X01393Y23096D01*
G01X01420Y23049D01*
G01X01502Y22956D01*
G01X01569Y22907D01*
G01X01660Y22861D01*
G01X01748Y22836D01*
G01X01836Y22825D01*
G01X01943Y22834D01*
G01X02033Y22858D01*
G01X02121Y22899D01*
G01X02186Y22947D01*
G01X02273Y23032D01*
G01X02297Y23035D01*
G01X02319Y23026D01*
G01X02375Y22926D01*
G01X02426Y22875D01*
G01X02500Y22837D01*
G01X02577Y22825D01*
G01X03123Y22825D01*
G01X03200Y22837D01*
G01X03274Y22875D01*
G01X03325Y22926D01*
G01X03363Y23000D01*
G01X03375Y23075D01*
G01X03377Y23567D01*
G01X03396Y23592D01*
G01X03425Y23602D01*
G01X08152Y23601D01*
G01X08507Y23250D01*
G01X08537Y23102D01*
G01X08574Y23017D01*
G01X08618Y22949D01*
G01X08671Y22892D01*
G01X08741Y22839D01*
G01X08809Y22803D01*
G01X08903Y22775D01*
G01X08986Y22764D01*
G01X09090Y22773D01*
G01X09174Y22796D01*
G01X09254Y22835D01*
G01X09313Y22878D01*
G01X09377Y22943D01*
G01X09452Y23060D01*
G01X09475Y23070D01*
G01X09500Y23067D01*
G01X09520Y23053D01*
G01X09573Y22918D01*
G01X09618Y22849D01*
G01X09671Y22792D01*
G01X09741Y22739D01*
G01X09809Y22703D01*
G01X09903Y22675D01*
G01X09986Y22664D01*
G01X10090Y22673D01*
G01X10174Y22696D01*
G01X10254Y22735D01*
G01X10313Y22778D01*
G01X10377Y22843D01*
G01X10421Y22907D01*
G01X10459Y22992D01*
G01X10479Y23075D01*
G01X10485Y23175D01*
G01X10473Y23262D01*
G01X10447Y23341D01*
G01X10405Y23419D01*
G01X10351Y23493D01*
G01X10344Y23606D01*
G01X10320Y23690D01*
G01X10277Y23763D01*
G01X09540Y24505D01*
G01X09481Y24549D01*
G01X09421Y24578D01*
G01X09335Y24597D01*
G01X00747Y24600D01*
G01X00673Y24591D01*
G01X00603Y24567D01*
G01X00543Y24531D01*
G01X-00119Y23878D01*
G01X-00243Y23866D01*
G01X-00333Y23842D01*
G01X-00421Y23801D01*
G01X-00485Y23754D01*
G01X-00574Y23659D01*
G01X-00621Y23588D01*
G01X-00661Y23580D01*
G01X-00693Y23604D01*
G01X-00721Y23653D01*
G01X-00802Y23744D01*
G01X-00869Y23793D01*
G01X-00960Y23839D01*
G01X-01048Y23864D01*
G01X-01136Y23875D01*
G01X-01243Y23866D01*
G01X-01333Y23842D01*
G01X-01421Y23801D01*
G01X-01485Y23754D01*
G01X-01574Y23659D01*
G01X-01621Y23588D01*
G01X-01661Y23580D01*
G01X-01693Y23604D01*
G01X-01721Y23653D01*
G01X-01802Y23744D01*
G01X-01869Y23793D01*
G01X-01960Y23839D01*
G01X-02048Y23864D01*
G01X-02136Y23875D01*
G01X-02243Y23866D01*
G01X-02333Y23842D01*
G01X-02421Y23801D01*
G01X-02485Y23754D01*
G01X-02574Y23659D01*
G01X-02621Y23588D01*
G01X-02661Y23580D01*
G01X-02693Y23604D01*
G01X-02721Y23653D01*
G01X-02747Y23682D01*
G01X-03079Y23350D01*
G01X-02747Y23018D01*
G01X-02726Y23041D01*
G01X-02679Y23112D01*
G01X-02639Y23120D01*
G01X-02607Y23096D01*
G01X-02580Y23048D01*
G01X-02500Y22952D01*
G01X-02491Y21525D01*
G01X-02450Y21420D01*
G01X-02412Y21369D01*
G01X-01558Y20517D01*
G01X-01548Y20487D01*
G01X-01546Y20051D01*
G01X-01520Y19962D01*
G01X-01455Y19860D01*
G01X04087Y14324D01*
G01X04151Y14284D01*
G01X04220Y14260D01*
G01X04285Y14250D01*
G01X04285Y14250D01*
G01X06902Y14256D01*
D24*
G01X-00116Y13054D02*
G01X-00116Y13054D01*
G01X-00169Y13093D01*
G01X-00260Y13139D01*
G01X-00348Y13164D01*
G01X-00436Y13175D01*
G01X-00543Y13166D01*
G01X-00633Y13142D01*
G01X-00721Y13101D01*
G01X-00784Y13055D01*
G01X-00450Y12721D01*
G01X-00450Y12721D01*
G01X-00116Y13054D01*
D24*
G01X-00026Y12341D02*
G01X-00026Y12341D01*
G01X00025Y12427D01*
G01X00050Y12490D01*
G01X00071Y12588D01*
G01X00072Y12702D01*
G01X00054Y12797D01*
G01X00027Y12869D01*
G01X-00020Y12951D01*
G01X-00047Y12982D01*
G01X-00379Y12650D01*
G01X-00047Y12318D01*
G01X-00047Y12318D01*
G01X-00026Y12341D01*
D24*
G01X-01177Y12125D02*
G01X-01177Y12125D01*
G01X-01100Y12137D01*
G01X-01026Y12175D01*
G01X-00975Y12226D01*
G01X-00918Y12326D01*
G01X-00896Y12335D01*
G01X-00872Y12332D01*
G01X-00856Y12315D01*
G01X-00521Y12650D01*
G01X-00856Y12985D01*
G01X-00873Y12968D01*
G01X-00897Y12965D01*
G01X-00919Y12974D01*
G01X-00975Y13074D01*
G01X-01026Y13125D01*
G01X-01100Y13163D01*
G01X-01177Y13175D01*
G01X-01723Y13175D01*
G01X-01800Y13163D01*
G01X-01874Y13125D01*
G01X-01925Y13074D01*
G01X-01963Y13000D01*
G01X-01975Y12925D01*
G01X-01975Y12375D01*
G01X-01963Y12300D01*
G01X-01925Y12226D01*
G01X-01874Y12175D01*
G01X-01800Y12137D01*
G01X-01723Y12125D01*
G01X-01723Y12125D01*
G01X-01177Y12125D01*
D24*
G01X-00357Y12134D02*
G01X-00357Y12134D01*
G01X-00267Y12158D01*
G01X-00179Y12199D01*
G01X-00116Y12245D01*
G01X-00450Y12579D01*
G01X-00784Y12246D01*
G01X-00731Y12207D01*
G01X-00640Y12161D01*
G01X-00552Y12136D01*
G01X-00464Y12125D01*
G01X-00464Y12125D01*
G01X-00357Y12134D01*
D24*
G01X-03456Y11804D02*
G01X-03456Y11804D01*
G01X-05754Y14101D01*
G01X-05749Y22448D01*
G01X-03475Y24735D01*
G01X-03440Y24750D01*
G01X11851Y24751D01*
G01X14146Y22461D01*
G01X14154Y22140D01*
G01X14149Y14097D01*
G01X11851Y11798D01*
G01X11836Y11796D01*
G01X11836Y11796D01*
G01X-03456Y11804D01*
M02*
