G04 ( created by brdgerber.py ( brdgerber.py v0.1 2014-03-12 ) ) date 2021-02-10 18:50:51 EST*
G04 Gerber Fmt 3.4, Leading zero omitted, Abs format*
%MOIN*%
%FSLAX34Y34*%
G01*
G70*
G90*
G04 APERTURE LIST*
%ADD14R,0.0550X0.0550*%
%ADD25C,0.0059*%
%ADD27R,0.1575X0.0945*%
%ADD28C,0.0047*%
%ADD21C,0.0000*%
%ADD17R,0.0629X0.0709*%
%ADD24C,0.0100*%
%ADD11C,0.0050*%
%ADD13C,0.0020*%
%ADD22R,0.0709X0.0629*%
%ADD26C,0.0400*%
%ADD10R,0.0260X0.0800*%
%ADD23C,0.0200*%
%ADD15C,0.0550*%
%ADD12C,0.0060*%
%ADD19C,0.0012*%
%ADD16C,0.0120*%
%ADD29C,0.0472*%
%ADD20C,0.1500*%
%ADD18R,0.0472X0.0275*%
G04 APERTURE END LIST*
G54D14*
D10*
X10350Y22400D03*
D10*
X09850Y22400D03*
D10*
X09350Y22400D03*
D10*
X08850Y22400D03*
D10*
X08350Y22400D03*
D10*
X07850Y22400D03*
D10*
X07350Y22400D03*
D10*
X06850Y22400D03*
D10*
X06850Y16800D03*
D10*
X07350Y16800D03*
D10*
X07850Y16800D03*
D10*
X08350Y16800D03*
D10*
X08850Y16800D03*
D10*
X09350Y16800D03*
D10*
X09850Y16800D03*
D10*
X10350Y16800D03*
D10*
X06350Y22400D03*
D10*
X05850Y22400D03*
D10*
X06350Y16800D03*
D10*
X05850Y16800D03*
D14*
X02850Y23350D03*
D15*
X01850Y23350D03*
D15*
X00850Y23350D03*
D15*
X-00150Y23350D03*
D15*
X-01150Y23350D03*
D15*
X-02150Y23350D03*
D15*
X-03150Y23350D03*
D17*
X07441Y13550D03*
D17*
X08559Y13550D03*
D18*
X11178Y12550D03*
D18*
X09722Y12550D03*
D20*
G01X-04395Y15455D02*
G01X-04395Y15455D01*
D20*
G01X00895Y15455D02*
G01X00895Y15455D01*
D20*
G01X00895Y20745D02*
G01X00895Y20745D01*
D20*
G01X-04395Y20745D02*
G01X-04395Y20745D01*
D14*
X-01450Y12650D03*
D15*
X-00450Y12650D03*
D22*
X09650Y14809D03*
D22*
X09650Y13691D03*
D22*
X11201Y14759D03*
D22*
X11201Y13641D03*
D22*
X04200Y17759D03*
D22*
X04200Y16641D03*
D14*
X12850Y20950D03*
D15*
X12850Y19950D03*
D15*
X12850Y18950D03*
D18*
X08678Y12550D03*
D18*
X07222Y12550D03*
D26*
G01X07850Y16800D02*
G01X07850Y15750D01*
D27*
X05875Y13750D03*
D27*
X02725Y13750D03*
D29*
X07850Y15750D03*
D23*
G01X11200Y14750D02*
G01X10950Y14750D01*
D23*
G01X10350Y16800D02*
G01X10700Y16800D01*
D23*
G01X10700Y16800D02*
G01X11200Y16300D01*
D23*
G01X11200Y16300D02*
G01X11200Y14750D01*
D23*
G01X07200Y12550D02*
G01X07100Y12550D01*
D23*
G01X07100Y12550D02*
G01X05900Y13750D01*
D23*
G01X08700Y12550D02*
G01X09700Y12550D01*
D23*
G01X09650Y13700D02*
G01X09650Y12600D01*
D23*
G01X09650Y12600D02*
G01X09700Y12550D01*
D23*
G01X11200Y12550D02*
G01X11200Y13650D01*
D23*
G01X08850Y16800D02*
G01X08850Y16150D01*
D23*
G01X08850Y16150D02*
G01X09650Y15350D01*
D23*
G01X09650Y15350D02*
G01X09650Y14800D01*
D23*
G01X09350Y16800D02*
G01X09350Y16200D01*
D23*
G01X09350Y16200D02*
G01X10350Y15200D01*
D23*
G01X10350Y15200D02*
G01X10350Y14500D01*
D23*
G01X10350Y14500D02*
G01X11200Y13650D01*
D23*
G01X07450Y13550D02*
G01X07450Y13300D01*
D23*
G01X07450Y13300D02*
G01X07900Y12850D01*
D23*
G01X07900Y12850D02*
G01X07900Y12250D01*
D23*
G01X07900Y12250D02*
G01X07700Y12050D01*
D23*
G01X08550Y13550D02*
G01X08550Y14350D01*
D23*
G01X08550Y14350D02*
G01X08750Y14550D01*
D23*
G01X08750Y14550D02*
G01X08750Y15600D01*
D23*
G01X08750Y15600D02*
G01X08350Y16000D01*
D23*
G01X08350Y16000D02*
G01X08350Y16800D01*
D26*
G01X-01450Y12650D02*
G01X-01450Y12400D01*
D26*
G01X-01450Y12400D02*
G01X-01050Y12000D01*
D26*
G01X05850Y19750D02*
G01X10350Y19750D01*
D26*
G01X05850Y16800D02*
G01X05850Y22400D01*
D26*
G01X05550Y13750D02*
G01X05900Y13750D01*
D26*
G01X06350Y16800D02*
G01X06350Y14200D01*
D26*
G01X06350Y14200D02*
G01X05900Y13750D01*
D26*
G01X10350Y22400D02*
G01X10350Y16800D01*
D26*
G01X02750Y13750D02*
G01X03550Y13750D01*
D26*
G01X03550Y13750D02*
G01X05850Y16050D01*
D26*
G01X05850Y16050D02*
G01X05850Y16800D01*
D23*
G01X09350Y22400D02*
G01X09350Y22900D01*
D23*
G01X09350Y22900D02*
G01X09600Y23150D01*
D23*
G01X09600Y23150D02*
G01X10000Y23150D01*
D29*
X10000Y23150D03*
D23*
G01X08850Y22400D02*
G01X08850Y23100D01*
D23*
G01X08850Y23100D02*
G01X09000Y23250D01*
D29*
X09000Y23250D03*
D26*
G01X08350Y22400D02*
G01X08350Y23450D01*
D26*
G01X08350Y23450D02*
G01X08700Y23800D01*
D26*
G01X08700Y23800D02*
G01X10450Y23800D01*
D26*
G01X10450Y23800D02*
G01X11400Y22850D01*
D26*
G01X11400Y22850D02*
G01X11400Y21400D01*
D26*
G01X11400Y21400D02*
G01X12850Y19950D01*
D26*
G01X07850Y22400D02*
G01X07850Y24000D01*
D26*
G01X07850Y24000D02*
G01X08200Y24350D01*
D26*
G01X08200Y24350D02*
G01X10950Y24350D01*
D26*
G01X10950Y24350D02*
G01X12850Y22450D01*
D26*
G01X12850Y22450D02*
G01X12850Y20950D01*
D26*
G01X-00450Y12650D02*
G01X01650Y12650D01*
D26*
G01X01650Y12650D02*
G01X02750Y13750D01*
D26*
G01X-01050Y12000D02*
G01X04150Y12000D01*
D26*
G01X04150Y12000D02*
G01X05900Y13750D01*
D23*
G01X07700Y12050D02*
G01X06950Y12050D01*
D23*
G01X06950Y12050D02*
G01X06900Y12000D01*
D29*
X06900Y12000D03*
D23*
G01X-01450Y12650D02*
G01X-01400Y12650D01*
D26*
G01X06350Y23150D02*
G01X06250Y23250D01*
D26*
G01X06250Y23250D02*
G01X05600Y23250D01*
D26*
G01X03400Y21050D02*
G01X03400Y17450D01*
D26*
G01X05600Y23250D02*
G01X03400Y21050D01*
D26*
G01X03400Y17450D02*
G01X04200Y16650D01*
D23*
G01X04200Y17750D02*
G01X05800Y17750D01*
D23*
G01X05800Y17750D02*
G01X05850Y17800D01*
D23*
G01X07350Y22400D02*
G01X07350Y23650D01*
D23*
G01X07350Y23650D02*
G01X06850Y24150D01*
D23*
G01X06850Y24150D02*
G01X03650Y24150D01*
D23*
G01X03650Y24150D02*
G01X02850Y23350D01*
D23*
G01X03300Y22850D02*
G01X02350Y22850D01*
D23*
G01X02350Y22850D02*
G01X01850Y23350D01*
D26*
G01X06350Y22400D02*
G01X06350Y23150D01*
D26*
G01X-01450Y12650D02*
G01X-01450Y12850D01*
D26*
G01X-01450Y12850D02*
G01X-00500Y13800D01*
D26*
G01X-00500Y13800D02*
G01X01000Y13800D01*
D26*
G01X01000Y13800D02*
G01X02800Y15600D01*
D26*
G01X02800Y15600D02*
G01X03150Y15600D01*
D26*
G01X03150Y15600D02*
G01X04200Y16650D01*
D23*
G01X06850Y22400D02*
G01X06850Y23350D01*
D23*
G01X06850Y23350D02*
G01X06500Y23700D01*
D23*
G01X06500Y23700D02*
G01X04350Y23700D01*
D23*
G01X04350Y23700D02*
G01X03500Y22850D01*
D23*
G01X03500Y22850D02*
G01X03250Y22850D01*
D23*
G01X06850Y16800D02*
G01X06850Y15000D01*
D23*
G01X06850Y15000D02*
G01X07050Y14800D01*
D29*
X07050Y14800D03*
D23*
G01X07350Y16800D02*
G01X07350Y15400D01*
D23*
G01X07350Y15400D02*
G01X07550Y15200D01*
D29*
X07550Y15200D03*
M02*
