<?xml version="1.0" encoding="UTF-8" standalone="no"?>
<!-- Created with Inkscape (http://www.inkscape.org/) -->

<svg
   xmlns:dc="http://purl.org/dc/elements/1.1/"
   xmlns:cc="http://creativecommons.org/ns#"
   xmlns:rdf="http://www.w3.org/1999/02/22-rdf-syntax-ns#"
   xmlns:svg="http://www.w3.org/2000/svg"
   xmlns="http://www.w3.org/2000/svg"
   xmlns:sodipodi="http://sodipodi.sourceforge.net/DTD/sodipodi-0.dtd"
   xmlns:inkscape="http://www.inkscape.org/namespaces/inkscape"
   width="210mm"
   height="297mm"
   viewBox="0 0 210 297"
   version="1.1"
   id="svg855"
   sodipodi:docname="seg16-digi_face.svg"
   inkscape:version="0.92.5 (0.92.5+68)">
  <defs
     id="defs849" />
  <sodipodi:namedview
     id="base"
     pagecolor="#ffffff"
     bordercolor="#666666"
     borderopacity="1.0"
     inkscape:pageopacity="0.0"
     inkscape:pageshadow="2"
     inkscape:zoom="7.919596"
     inkscape:cx="107.4084"
     inkscape:cy="71.310181"
     inkscape:document-units="mm"
     inkscape:current-layer="layer1"
     showgrid="false"
     inkscape:window-width="1571"
     inkscape:window-height="983"
     inkscape:window-x="245"
     inkscape:window-y="-8"
     inkscape:window-maximized="0" />
  <metadata
     id="metadata852">
    <rdf:RDF>
      <cc:Work
         rdf:about="">
        <dc:format>image/svg+xml</dc:format>
        <dc:type
           rdf:resource="http://purl.org/dc/dcmitype/StillImage" />
        <dc:title></dc:title>
      </cc:Work>
    </rdf:RDF>
  </metadata>
  <g
     inkscape:label="Layer 1"
     inkscape:groupmode="layer"
     id="layer1">
    <path
       inkscape:connector-curvature="0"
       style="opacity:0.92000002;vector-effect:none;fill:none;fill-opacity:0.16019419;fill-rule:nonzero;stroke:#000000;stroke-width:0.09535789;stroke-linecap:round;stroke-linejoin:round;stroke-miterlimit:4;stroke-dasharray:none;stroke-dashoffset:0;stroke-opacity:1"
       d="M 13.724738,160.96538 H 115.62938 V 292.63019 H 13.724738 Z"
       id="rect1426" />
    <path
       style="fill:none;fill-rule:evenodd;stroke:#000000;stroke-width:0.097321;stroke-miterlimit:4;stroke-dasharray:none;stroke-opacity:1"
       d="m 102.44949,167.91205 c -6.393941,0.11424 -12.788976,0.0249 -19.183409,0.0538 -1.341523,1.16708 -2.822884,2.17067 -4.093751,3.41938 1.196626,1.19547 2.342015,3.16716 4.334831,2.73144 5.06237,0 10.124741,0 15.187113,0 1.860446,-1.64287 3.817126,-3.176 5.623626,-4.8798 -0.50567,-0.53832 -1.01604,-1.39376 -1.86841,-1.32486 z m -32.979554,0.0286 c -6.550585,0.0559 -13.108278,0.007 -19.661582,0.0249 -0.505979,0.74947 -2.39384,1.41284 -2.019326,2.21714 1.191697,1.31124 2.383391,2.62248 3.575088,3.93368 5.928333,0 11.856663,0 17.784996,0 1.216843,-1.17091 2.591272,-2.17518 3.727286,-3.4303 -1.00368,-1.0259 -1.691775,-2.86479 -3.406462,-2.74436 z m 36.779044,5.29666 c -1.55217,1.47792 -3.3184,2.86933 -4.68419,4.45825 -2.720126,14.24227 -5.440257,28.48452 -8.160378,42.72682 0.775073,0.87733 1.549004,1.7887 2.324787,2.64493 1.660301,-1.62864 4.267366,-2.86255 4.438041,-5.48466 2.77401,-14.33087 5.54805,-28.66171 8.32206,-42.99259 -0.64504,-0.53946 -0.84902,-1.50457 -1.64227,-1.87656 -0.19936,0.17473 -0.3987,0.3491 -0.59805,0.52381 z m -49.00989,50.03708 c -4.930495,0.12669 -9.862778,0.0178 -14.794036,0.0544 -1.107476,1.11825 -2.627553,2.08611 -3.467767,3.28318 0.962733,1.00017 1.589238,2.96995 3.311555,2.62176 4.484128,0 8.968257,0 13.452386,0 1.937197,-1.20037 4.009276,-2.178 5.881785,-3.48343 -1.280868,-1.05283 -2.562874,-2.57856 -4.383923,-2.47599 z m 31.86995,0.002 c -4.778013,0.11992 -9.557595,0.0178 -14.336302,0.0523 -1.874767,0.9995 -3.749538,1.99899 -5.624309,2.99845 1.587744,1.26006 3.125684,3.32531 5.422642,2.9065 4.505412,0 9.010822,0 13.516235,0 1.281605,-1.25875 2.776528,-2.29551 3.945936,-3.6687 -0.860777,-0.86213 -1.505762,-2.34995 -2.924202,-2.2887 z m -57.888766,9.61795 c -2.860976,15.23556 -5.831751,30.51354 -8.62412,45.72263 0.567889,0.38046 0.927432,1.47856 1.641416,1.2906 1.897985,-1.62608 3.795973,-3.25219 5.693957,-4.87827 2.650835,-14.30154 5.301669,-28.60313 7.952503,-42.90467 -0.799451,-0.97063 -1.598901,-1.94131 -2.398353,-2.91195 -1.421802,1.22723 -2.843601,2.45444 -4.265403,3.68166 z m 18.041111,45.7737 c -5.719291,0.0559 -11.438896,0.0107 -17.15833,0.0249 -1.794409,1.64763 -3.746361,3.22343 -5.442439,4.91659 0.643729,0.94668 1.822515,1.26337 2.885287,0.98835 6.221712,0 12.443424,0 18.665141,0 1.169676,-1.2802 2.849224,-2.33827 3.706172,-3.74432 -0.755871,-0.83152 -1.31358,-2.29066 -2.655831,-2.1865 z m 9.368625,3.02774 c 0.893045,0.93459 1.516175,2.34358 2.673496,2.90311 6.707576,-0.004 13.422507,0.007 20.125493,-0.007 0.528175,-0.78458 1.830675,-1.07401 1.941298,-2.07819 -1.233982,-1.22834 -2.306214,-2.82106 -3.641418,-3.8213 -5.719232,0 -11.438463,0 -17.157697,0 -1.313722,1.0006 -2.627447,2.00122 -3.941172,3.00186 z"
       id="path5502"
       inkscape:connector-curvature="0" />
    <path
       style="fill:none;fill-rule:evenodd;stroke:#000000;stroke-width:0.097321;stroke-miterlimit:4;stroke-dasharray:none;stroke-opacity:1"
       d="m 41.817706,174.53357 c -2.735748,15.2872 -5.4715,30.57441 -8.207252,45.86161 0.85644,0.91412 1.71288,1.8282 2.569323,2.74233 1.391632,-1.42486 3.576856,-2.31981 4.229208,-4.30649 2.518494,-14.01108 5.036987,-28.02217 7.55548,-42.03325 -1.338248,-1.4654 -2.676493,-2.9308 -4.014737,-4.3962 -0.710675,0.71066 -1.421347,1.42134 -2.132022,2.132 z M 71.087,177.76093 c -1.830828,10.21399 -4.3752,20.31382 -5.709583,30.59813 0.336545,3.81518 0.67307,7.63038 1.009605,11.44555 2.174317,-4.72485 4.977435,-9.21329 6.404042,-14.24086 1.810575,-9.66109 3.621156,-19.32221 5.431731,-28.98328 -0.926826,-0.92683 -1.853653,-1.85366 -2.78048,-2.78048 -1.45177,1.32031 -2.903541,2.64062 -4.355315,3.96094 z m -22.023151,12.12935 c 3.542241,9.98527 7.084483,19.97059 10.626724,29.9559 1.204964,1.00376 2.409932,2.00756 3.614895,3.01137 -0.708702,-6.75538 -0.392257,-13.73376 -2.924333,-20.15059 -2.018906,-6.18199 -4.037808,-12.36393 -6.056713,-18.54589 -1.233577,-1.34551 -2.467149,-2.69102 -3.700725,-4.03653 -0.519947,3.25525 -1.039897,6.51049 -1.559848,9.76574 z m 42.006923,-4.06994 c -4.752971,6.93793 -10.30101,13.36024 -14.399782,20.72898 -2.632852,5.34072 -5.265704,10.68143 -7.898559,16.02215 2.931209,-1.61668 6.296281,-3.06725 7.942698,-6.18115 6.295793,-8.78655 12.591583,-17.57316 18.887375,-26.35972 0.610317,-3.17126 1.220634,-6.34249 1.830947,-9.51371 -2.120891,1.76782 -4.241785,3.53563 -6.362679,5.30345 z m -0.531986,47.05088 c -2.409932,14.29522 -4.819863,28.59043 -7.229791,42.88563 1.233657,1.29729 2.32506,2.72843 3.636692,3.95138 1.277369,-0.89637 2.999985,-1.91402 2.828926,-3.72657 2.55113,-14.76634 5.10226,-29.5327 7.653387,-44.29904 -0.856436,-0.91321 -1.71288,-1.82639 -2.569319,-2.7396 -1.439963,1.30939 -2.879929,2.61881 -4.319895,3.9282 z m -21.592659,11.9938 c 3.049113,7.95256 5.363301,16.21143 8.924798,23.93914 0.936041,1.20249 1.872081,2.405 2.808122,3.60753 0.429161,-3.37471 1.473806,-6.73669 1.295978,-10.14742 -3.70495,-10.09036 -7.409898,-20.18069 -11.114849,-30.27105 -1.125043,-0.92886 -2.250086,-1.85775 -3.375129,-2.78661 0.487025,5.21948 0.97405,10.43895 1.46108,15.65841 z M 56.363804,232.67098 c -6.891032,9.70171 -13.782067,19.40344 -20.673099,29.10515 -0.487253,3.16667 -0.974507,6.33338 -1.461763,9.50008 3.470843,-2.88848 6.957555,-5.92103 9.186882,-9.89651 4.823201,-6.98702 10.258441,-13.65326 13.675633,-21.4919 1.722132,-3.52838 3.444263,-7.05676 5.166396,-10.58513 -1.964686,1.12276 -3.929368,2.24553 -5.894049,3.36831 z m 1.976717,12.76692 c -1.764879,9.95009 -3.529754,19.90019 -5.294628,29.85032 0.881641,1.00059 1.763286,2.00122 2.644929,3.00186 1.469269,-1.25671 3.249528,-2.3309 4.5241,-3.70189 1.654498,-10.91748 3.944829,-21.75759 5.131146,-32.72816 -0.304197,-3.12888 -0.608402,-6.25772 -0.912602,-9.38661 -2.030981,4.32151 -4.061965,8.64298 -6.092945,12.96448 z"
       id="path5578"
       inkscape:connector-curvature="0" />
    <path
       inkscape:connector-curvature="0"
       style="opacity:0.95;vector-effect:none;fill:none;fill-opacity:1;fill-rule:nonzero;stroke:#000000;stroke-width:0.1;stroke-linecap:round;stroke-linejoin:round;stroke-miterlimit:4;stroke-dasharray:none;stroke-dashoffset:0;stroke-opacity:1"
       d="m 23.312246,168.47054 a 2.1369278,2.1369278 0 0 1 -2.136928,2.13692 2.1369278,2.1369278 0 0 1 -2.136928,-2.13692 2.1369278,2.1369278 0 0 1 2.136928,-2.13693 2.1369278,2.1369278 0 0 1 2.136928,2.13693 z"
       id="path1409" />
    <path
       inkscape:connector-curvature="0"
       id="path1409-23"
       d="m 106.02571,168.47054 a 2.1369281,2.1369281 0 0 0 2.13693,2.13692 2.1369281,2.1369281 0 0 0 2.13693,-2.13692 2.1369281,2.1369281 0 0 0 -2.13693,-2.13693 2.1369281,2.1369281 0 0 0 -2.13693,2.13693 z"
       style="opacity:0.95;vector-effect:none;fill:none;fill-opacity:1;fill-rule:nonzero;stroke:#000000;stroke-width:0.1;stroke-linecap:round;stroke-linejoin:round;stroke-miterlimit:4;stroke-dasharray:none;stroke-dashoffset:0;stroke-opacity:1" />
    <path
       inkscape:connector-curvature="0"
       id="path1409-23-5"
       d="m 106.02571,285.12503 a 2.1369283,2.1369283 0 0 1 2.13693,-2.13693 2.1369283,2.1369283 0 0 1 2.13693,2.13693 2.1369283,2.1369283 0 0 1 -2.13693,2.13693 2.1369283,2.1369283 0 0 1 -2.13693,-2.13693 z"
       style="opacity:0.95;vector-effect:none;fill:none;fill-opacity:1;fill-rule:nonzero;stroke:#000000;stroke-width:0.1;stroke-linecap:round;stroke-linejoin:round;stroke-miterlimit:4;stroke-dasharray:none;stroke-dashoffset:0;stroke-opacity:1" />
    <path
       inkscape:connector-curvature="0"
       id="path1409-23-5-5"
       d="m 23.312237,285.12503 a 2.1369283,2.1369283 0 0 0 -2.136929,-2.13693 2.1369283,2.1369283 0 0 0 -2.136928,2.13693 2.1369283,2.1369283 0 0 0 2.136928,2.13693 2.1369283,2.1369283 0 0 0 2.136929,-2.13693 z"
       style="opacity:0.95;vector-effect:none;fill:none;fill-opacity:1;fill-rule:nonzero;stroke:#000000;stroke-width:0.1;stroke-linecap:round;stroke-linejoin:round;stroke-miterlimit:4;stroke-dasharray:none;stroke-dashoffset:0;stroke-opacity:1" />
  </g>
</svg>
