<?xml version="1.0" encoding="UTF-8" standalone="no"?>
<!-- Created with Inkscape (http://www.inkscape.org/) -->

<svg
   xmlns:dc="http://purl.org/dc/elements/1.1/"
   xmlns:cc="http://creativecommons.org/ns#"
   xmlns:rdf="http://www.w3.org/1999/02/22-rdf-syntax-ns#"
   xmlns:svg="http://www.w3.org/2000/svg"
   xmlns="http://www.w3.org/2000/svg"
   xmlns:sodipodi="http://sodipodi.sourceforge.net/DTD/sodipodi-0.dtd"
   xmlns:inkscape="http://www.inkscape.org/namespaces/inkscape"
   width="210mm"
   height="297mm"
   viewBox="0 0 210 297"
   version="1.1"
   id="svg855"
   sodipodi:docname="seg16-digi_frame.svg"
   inkscape:version="0.92.5 (0.92.5+68)">
  <defs
     id="defs849" />
  <sodipodi:namedview
     id="base"
     pagecolor="#ffffff"
     bordercolor="#666666"
     borderopacity="1.0"
     inkscape:pageopacity="0.0"
     inkscape:pageshadow="2"
     inkscape:zoom="0.70000001"
     inkscape:cx="210.92182"
     inkscape:cy="363.39335"
     inkscape:document-units="mm"
     inkscape:current-layer="layer1"
     showgrid="false"
     inkscape:window-width="1571"
     inkscape:window-height="983"
     inkscape:window-x="1989"
     inkscape:window-y="43"
     inkscape:window-maximized="0" />
  <metadata
     id="metadata852">
    <rdf:RDF>
      <cc:Work
         rdf:about="">
        <dc:format>image/svg+xml</dc:format>
        <dc:type
           rdf:resource="http://purl.org/dc/dcmitype/StillImage" />
        <dc:title></dc:title>
      </cc:Work>
    </rdf:RDF>
  </metadata>
  <g
     inkscape:label="Layer 1"
     inkscape:groupmode="layer"
     id="layer1">
    <path
       inkscape:connector-curvature="0"
       style="opacity:0.92000002;vector-effect:none;fill:none;fill-opacity:0.16019419;fill-rule:nonzero;stroke:#000000;stroke-width:0.09535789;stroke-linecap:round;stroke-linejoin:round;stroke-miterlimit:4;stroke-dasharray:none;stroke-dashoffset:0;stroke-opacity:1"
       d="M 13.724738,160.96538 H 115.62938 V 292.63019 H 13.724738 Z"
       id="rect1426" />
    <path
       inkscape:connector-curvature="0"
       style="opacity:0.95;vector-effect:none;fill:none;fill-opacity:1;fill-rule:nonzero;stroke:#000000;stroke-width:0.1;stroke-linecap:round;stroke-linejoin:round;stroke-miterlimit:4;stroke-dasharray:none;stroke-dashoffset:0;stroke-opacity:1"
       d="m 23.312246,168.47054 a 2.1369278,2.1369278 0 0 1 -2.136928,2.13692 2.1369278,2.1369278 0 0 1 -2.136928,-2.13692 2.1369278,2.1369278 0 0 1 2.136928,-2.13693 2.1369278,2.1369278 0 0 1 2.136928,2.13693 z"
       id="path1409" />
    <path
       inkscape:connector-curvature="0"
       id="path1409-23"
       d="m 106.02571,168.47054 a 2.1369281,2.1369281 0 0 0 2.13693,2.13692 2.1369281,2.1369281 0 0 0 2.13693,-2.13692 2.1369281,2.1369281 0 0 0 -2.13693,-2.13693 2.1369281,2.1369281 0 0 0 -2.13693,2.13693 z"
       style="opacity:0.95;vector-effect:none;fill:none;fill-opacity:1;fill-rule:nonzero;stroke:#000000;stroke-width:0.1;stroke-linecap:round;stroke-linejoin:round;stroke-miterlimit:4;stroke-dasharray:none;stroke-dashoffset:0;stroke-opacity:1" />
    <path
       inkscape:connector-curvature="0"
       id="path1409-23-5"
       d="m 106.02571,285.12503 a 2.1369283,2.1369283 0 0 1 2.13693,-2.13693 2.1369283,2.1369283 0 0 1 2.13693,2.13693 2.1369283,2.1369283 0 0 1 -2.13693,2.13693 2.1369283,2.1369283 0 0 1 -2.13693,-2.13693 z"
       style="opacity:0.95;vector-effect:none;fill:none;fill-opacity:1;fill-rule:nonzero;stroke:#000000;stroke-width:0.1;stroke-linecap:round;stroke-linejoin:round;stroke-miterlimit:4;stroke-dasharray:none;stroke-dashoffset:0;stroke-opacity:1" />
    <path
       inkscape:connector-curvature="0"
       id="path1409-23-5-5"
       d="m 23.312237,285.12503 a 2.1369283,2.1369283 0 0 0 -2.136929,-2.13693 2.1369283,2.1369283 0 0 0 -2.136928,2.13693 2.1369283,2.1369283 0 0 0 2.136928,2.13693 2.1369283,2.1369283 0 0 0 2.136929,-2.13693 z"
       style="opacity:0.95;vector-effect:none;fill:none;fill-opacity:1;fill-rule:nonzero;stroke:#000000;stroke-width:0.1;stroke-linecap:round;stroke-linejoin:round;stroke-miterlimit:4;stroke-dasharray:none;stroke-dashoffset:0;stroke-opacity:1" />
  </g>
</svg>
