<?xml version="1.0" encoding="UTF-8" standalone="no"?>
<!-- Created with Inkscape (http://www.inkscape.org/) -->

<svg
   xmlns:dc="http://purl.org/dc/elements/1.1/"
   xmlns:cc="http://creativecommons.org/ns#"
   xmlns:rdf="http://www.w3.org/1999/02/22-rdf-syntax-ns#"
   xmlns:svg="http://www.w3.org/2000/svg"
   xmlns="http://www.w3.org/2000/svg"
   xmlns:sodipodi="http://sodipodi.sourceforge.net/DTD/sodipodi-0.dtd"
   xmlns:inkscape="http://www.inkscape.org/namespaces/inkscape"
   width="210mm"
   height="297mm"
   viewBox="0 0 210 297"
   version="1.1"
   id="svg855"
   sodipodi:docname="seg16-digi_inset.1.svg"
   inkscape:version="0.92.5 (0.92.5+68)">
  <defs
     id="defs849" />
  <sodipodi:namedview
     id="base"
     pagecolor="#ffffff"
     bordercolor="#666666"
     borderopacity="1.0"
     inkscape:pageopacity="0.0"
     inkscape:pageshadow="2"
     inkscape:zoom="0.35"
     inkscape:cx="-118.57143"
     inkscape:cy="560"
     inkscape:document-units="mm"
     inkscape:current-layer="layer1"
     showgrid="false"
     inkscape:window-width="1422"
     inkscape:window-height="856"
     inkscape:window-x="99"
     inkscape:window-y="139"
     inkscape:window-maximized="0" />
  <metadata
     id="metadata852">
    <rdf:RDF>
      <cc:Work
         rdf:about="">
        <dc:format>image/svg+xml</dc:format>
        <dc:type
           rdf:resource="http://purl.org/dc/dcmitype/StillImage" />
        <dc:title></dc:title>
      </cc:Work>
    </rdf:RDF>
  </metadata>
  <g
     inkscape:label="Layer 1"
     inkscape:groupmode="layer"
     id="layer1">
    <path
       style="fill:#ff4a00;fill-rule:evenodd;stroke-width:0.28222433"
       d="m 157.42383,-32.023438 c -18.33377,0.327347 -36.67067,0.07481 -55.00586,0.154297 -3.846628,3.346477 -8.094235,6.224152 -11.738282,9.804688 3.431165,3.427791 6.715413,9.081339 12.429552,7.832031 14.51567,0 29.03134,0 43.54701,0 5.33459,-4.710732 10.94509,-9.106738 16.125,-13.992187 -1.44993,-1.5436 -2.91337,-3.99642 -5.35742,-3.798829 z m -94.564455,0.08594 c -18.782933,0.160238 -37.586228,0.02224 -56.3769531,0.06836 -1.4508253,2.148985 -6.86401375,4.051206 -5.79014846,6.35742 3.41702866,3.759766 6.83405726,7.519533 10.25108556,11.279299 16.998698,0 33.997396,0 50.996094,0 3.489132,-3.357531 7.430129,-6.23707 10.6875,-9.835937 -2.877923,-2.941635 -4.850947,-8.214436 -9.767578,-7.869141 z M 168.31836,-16.75 c -4.45062,4.237737 -9.51506,8.2274375 -13.4313,12.7834436 -7.79959,40.8378104 -15.59919,81.6756214 -23.39878,122.5134364 2.22242,2.51561 4.44157,5.12894 6.66602,7.58398 4.76069,-4.66986 12.23609,-8.20799 12.72547,-15.72652 7.95414,-41.091813 15.90828,-82.183623 23.86242,-123.275434 -1.84955,-1.546834 -2.43448,-4.314235 -4.70899,-5.380859 -0.57161,0.500651 -1.14323,1.001302 -1.71484,1.501953 z M 27.789062,126.72461 c -14.137538,0.36275 -28.2801948,0.0539 -42.419921,0.15625 -3.175536,3.20649 -7.534153,5.98163 -9.94336,9.41406 2.760511,2.86785 4.556937,8.51599 9.495443,7.51758 12.8576388,0 25.715278,0 38.572917,0 5.554659,-3.44193 11.496063,-6.24509 16.865234,-9.98828 -3.672722,-3.01886 -7.348694,-7.39361 -12.570313,-7.09961 z m 91.382818,0.006 c -13.70031,0.34354 -27.405123,0.0555 -41.107427,0.15039 -5.375651,2.86588 -10.751302,5.73177 -16.126953,8.59766 4.552636,3.61308 8.96248,9.53487 15.548698,8.33398 12.918663,0 25.837322,0 38.755992,0 3.67483,-3.60936 7.96132,-6.58203 11.31445,-10.51953 -2.46817,-2.47207 -4.31758,-6.73814 -8.38476,-6.5625 z m -165.988286,27.57812 c -8.20347,43.68598 -16.721765,87.49348 -24.728516,131.10352 1.628344,1.09091 2.659282,4.23966 4.70654,3.70064 5.442221,-4.66259 10.884442,-9.32517 16.326663,-13.98775 7.600912,-41.00781 15.201823,-82.01563 22.802735,-123.02344 -2.292318,-2.7832 -4.584636,-5.5664 -6.876954,-8.34961 -4.076822,3.51888 -8.153645,7.03776 -12.230468,10.55664 z m 51.7304685,131.25 c -16.3993045,0.1605 -32.7995035,0.0356 -49.1992185,0.0742 -5.145226,4.72436 -10.742182,9.24274 -15.605469,14.09766 1.845809,2.71441 5.22582,3.62248 8.273177,2.83398 17.839931,0 35.679861,0 53.5197918,0 3.3538876,-3.67088 8.1697682,-6.70477 10.6269532,-10.73633 -2.167358,-2.38429 -3.766505,-6.56822 -7.6152345,-6.26953 z m 26.8632815,8.68164 c 2.560678,2.67981 4.34743,6.71987 7.665885,8.32422 19.233086,-0.0104 38.487247,0.0208 57.707162,-0.0156 1.514472,-2.24965 5.249219,-3.07955 5.566409,-5.95899 -3.538279,-3.522 -6.612756,-8.08898 -10.441279,-10.95703 -16.399132,0 -32.798264,0 -49.197396,0 -3.766927,2.86914 -7.533854,5.73828 -11.300781,8.60742 z"
       id="path5502"
       inkscape:connector-curvature="0" />
    <path
       style="fill:#141414;fill-rule:evenodd;stroke-width:0.28222433"
       d="m -16.429688,-13.037109 c -7.844401,43.833984 -15.688802,87.667968 -23.533203,131.501949 2.45573,2.6211 4.911459,5.24219 7.367188,7.86328 3.990316,-4.08566 10.256163,-6.65176 12.126688,-12.34827 C -13.247573,73.804923 -6.0261301,33.63 1.1953125,-6.5449219 -2.6419271,-10.746745 -6.4791667,-14.948568 -10.316406,-19.150391 c -2.037761,2.037761 -4.075521,4.075521 -6.113282,6.113282 z m 83.925782,9.2539059 C 62.24643,25.504083 54.950788,54.463962 51.124622,83.952901 c 0.96497,10.939528 1.929939,21.879059 2.894909,32.818579 6.234571,-13.54789 14.272131,-26.417883 18.362734,-40.833768 5.191589,-27.701894 10.383177,-55.403787 15.574766,-83.1056808 -2.657552,-2.657552 -5.315104,-5.3151042 -7.972656,-7.9726562 -4.16276,3.785807 -8.325521,7.5716146 -12.488281,11.3574219 z M 4.3476562,30.996094 c 10.1569008,28.63151 20.3138018,57.263021 30.4707028,85.894526 3.455078,2.87826 6.910157,5.75652 10.365235,8.63477 C 43.151475,106.15521 44.058849,86.145624 36.798452,67.746213 31.009515,50.020262 25.220578,32.29431 19.431641,14.568359 15.894531,10.710286 12.357422,6.8522135 8.8203125,2.9941406 7.3294271,12.328125 5.8385417,21.662109 4.3476562,30.996094 Z M 124.79688,19.326172 C 111.16838,39.219696 95.260118,57.634858 83.507438,78.763741 75.958083,94.07752 68.408729,109.3913 60.859375,124.70508 c 8.404844,-4.63565 18.053741,-8.79489 22.774621,-17.72357 18.052344,-25.194359 36.104684,-50.388716 54.157024,-75.583072 1.75,-9.093099 3.5,-18.186198 5.25,-27.2792974 -6.08138,5.0690104 -12.16276,10.1380204 -18.24414,15.2070314 z m -1.5254,134.912108 c -6.91015,40.98958 -13.82031,81.97917 -20.73046,122.96875 3.53735,3.7198 6.6668,7.82338 10.42773,11.33008 3.66269,-2.57029 8.60206,-5.48819 8.11157,-10.6855 7.31502,-42.34051 14.63005,-84.68102 21.94507,-127.02153 -2.45573,-2.61849 -4.91146,-5.23698 -7.36719,-7.85547 -4.1289,3.75456 -8.25781,7.50911 -12.38672,11.26367 z m -61.914058,34.39063 c 8.742922,22.80284 15.378551,46.4841 25.590664,68.64218 2.683972,3.44805 5.367943,6.8961 8.051914,10.34414 1.230565,-9.67657 4.225942,-19.3165 3.716046,-29.09634 -10.623448,-28.93273 -21.246895,-57.86546 -31.870343,-86.79819 -3.225911,-2.66341 -6.451823,-5.32682 -9.677734,-7.99023 1.396484,14.96614 2.792969,29.93229 4.189453,44.89844 z M 25.279297,153.66406 c -19.7591147,27.81836 -39.518229,55.63672 -59.277344,83.45508 -1.397135,9.08008 -2.794271,18.16016 -4.191406,27.24024 9.952169,-8.28233 19.949856,-16.97769 26.342152,-28.37692 13.8298863,-20.03434 29.414703,-39.14892 39.213051,-61.62511 4.937979,-10.11717 9.875958,-20.23433 14.813938,-30.35149 -5.633464,3.2194 -11.266928,6.4388 -16.900391,9.6582 z m 5.667969,36.60742 c -5.060547,28.5306 -10.121094,57.0612 -15.181641,85.5918 2.527995,2.86914 5.05599,5.73828 7.583984,8.60742 4.212932,-3.60344 9.317587,-6.68354 12.972251,-10.61463 4.744055,-31.3044 11.311269,-62.38704 14.712871,-93.84369 -0.872254,-8.97158 -1.744508,-17.94315 -2.616762,-26.91472 -5.823568,12.39127 -11.647136,24.78255 -17.470703,37.17382 z"
       id="path5578"
       inkscape:connector-curvature="0" />
  </g>
</svg>
