<?xml version="1.0" encoding="UTF-8" standalone="no"?>
<!-- Created with Inkscape (http://www.inkscape.org/) -->

<svg
   xmlns:dc="http://purl.org/dc/elements/1.1/"
   xmlns:cc="http://creativecommons.org/ns#"
   xmlns:rdf="http://www.w3.org/1999/02/22-rdf-syntax-ns#"
   xmlns:svg="http://www.w3.org/2000/svg"
   xmlns="http://www.w3.org/2000/svg"
   xmlns:sodipodi="http://sodipodi.sourceforge.net/DTD/sodipodi-0.dtd"
   xmlns:inkscape="http://www.inkscape.org/namespaces/inkscape"
   width="210mm"
   height="297mm"
   viewBox="0 0 210 297"
   version="1.1"
   id="svg855"
   sodipodi:docname="seg16-digi_inset.svg"
   inkscape:version="0.92.5 (0.92.5+68)">
  <defs
     id="defs849" />
  <sodipodi:namedview
     id="base"
     pagecolor="#ffffff"
     bordercolor="#666666"
     borderopacity="1.0"
     inkscape:pageopacity="0.0"
     inkscape:pageshadow="2"
     inkscape:zoom="0.35"
     inkscape:cx="-118.57143"
     inkscape:cy="560"
     inkscape:document-units="mm"
     inkscape:current-layer="layer1"
     showgrid="false"
     inkscape:window-width="1422"
     inkscape:window-height="856"
     inkscape:window-x="204"
     inkscape:window-y="139"
     inkscape:window-maximized="0" />
  <metadata
     id="metadata852">
    <rdf:RDF>
      <cc:Work
         rdf:about="">
        <dc:format>image/svg+xml</dc:format>
        <dc:type
           rdf:resource="http://purl.org/dc/dcmitype/StillImage" />
        <dc:title></dc:title>
      </cc:Work>
    </rdf:RDF>
  </metadata>
  <g
     inkscape:label="Layer 1"
     inkscape:groupmode="layer"
     id="layer1">
    <path
       style="fill:#ff4a00;fill-rule:evenodd;stroke-width:0.28222433"
       d="m 157.34766,-33.611328 c -18.47377,0.362595 -37.01298,0.04952 -55.51172,0.154297 -4.564456,3.735026 -9.128909,7.470052 -13.693362,11.205078 3.540908,3.120047 6.34662,7.566973 10.515495,9.607422 16.196657,0 32.393317,0 48.589977,0 5.87298,-5.166209 12.34436,-10.320584 17.8457,-15.494141 -2.28643,-2.094122 -4.14607,-5.777511 -7.74609,-5.472656 z m -159.6406288,7.175781 c 4.1783855,4.597005 8.3567709,9.194011 12.5351568,13.791016 17.440755,0 34.88151,0 52.322265,0 4.154297,-3.738933 8.308594,-7.477865 12.462891,-11.216797 -3.143351,-3.091672 -5.421767,-7.58882 -9.300651,-9.595703 -19.943403,0 -39.886806,0 -59.8302086,0 -2.7298177,2.340495 -5.45963544,4.680989 -8.1894532,7.021484 z M 153.52734,-5.3027344 C 145.61263,36.134766 137.69792,77.572266 129.7832,119.00977 c 2.76042,3.15494 5.52084,6.30989 8.28125,9.46484 4.4083,-4.54004 10.35115,-7.88943 13.53415,-13.41796 8.29005,-42.830083 16.5801,-85.660163 24.87015,-128.490244 -2.06576,-2.442057 -4.13151,-4.884114 -6.19727,-7.326172 -5.58138,5.152344 -11.16276,10.304688 -16.74414,15.4570316 z M -27.076172,135.875 c 2.58138,3.17513 5.162761,6.35026 7.744141,9.52539 14.4238279,0 28.847656,0 43.271484,0 6.317862,-3.79995 13.47371,-7.56039 19.273438,-11.38477 -4.264785,-2.88169 -7.71149,-7.80503 -12.945052,-8.72265 -15.171311,0 -30.34262197,0 -45.513933,0 -3.943359,3.52734 -7.886719,7.05469 -11.830078,10.58203 z m 86.070313,-0.62305 c 4.544591,3.28472 8.443495,7.85987 13.517448,10.14844 14.789756,0 29.579511,0 44.369271,0 4.22492,-4.01757 9.29393,-8.02001 13,-12.04687 -2.85363,-2.55258 -4.85276,-6.62779 -8.42565,-8.06055 -14.59445,0 -29.188891,0 -43.783335,0 -6.225911,3.31966 -12.451823,6.63932 -18.677734,9.95898 z M -48.269531,153.4707 c -8.373047,44.19336 -16.746094,88.38672 -25.119141,132.58008 2.389962,1.41071 3.605275,4.99504 6.59375,5.11719 5.912109,-5.06641 11.824219,-10.13281 17.736328,-15.19922 7.68099,-41.43555 15.361979,-82.87109 23.042969,-124.30664 -2.792318,-3.39063 -5.584635,-6.78125 -8.376953,-10.17188 -4.625651,3.99349 -9.251302,7.98698 -13.876953,11.98047 z m -13.908203,145.94532 c 2.142317,2.42373 4.718775,5.94398 8.443229,4.73632 18.765668,0 37.531337,0 56.297005,0 4.0206456,-4.0268 8.888599,-8.03236 12.386719,-12.07226 -2.645034,-2.58468 -4.418861,-6.57251 -7.8299481,-8.03516 -17.3353299,0 -34.6706599,0 -52.0059899,0 -5.763672,5.1237 -11.527344,10.2474 -17.291015,15.3711 z m 91.634765,-5.40625 c 3.024784,3.24275 5.532171,7.5816 8.878776,10.14257 19.829471,0 39.658941,0 59.488412,0 2.520181,-2.32617 5.040361,-4.65234 7.560551,-6.97851 -3.95834,-4.3763 -7.916671,-8.75261 -11.875004,-13.12891 -16.990235,0 -33.980469,0 -50.970704,0 -4.360677,3.32162 -8.721354,6.64323 -13.082031,9.96485 z"
       id="path5502"
       inkscape:connector-curvature="0" />
    <path
       style="fill:#141414;fill-rule:evenodd;stroke-width:0.28222433"
       d="m -17.90625,-13.810547 c -7.920573,44.259766 -15.841146,88.519531 -23.761719,132.779297 2.998698,3.20052 5.997396,6.40104 8.996094,9.60156 4.340479,-4.01466 9.500861,-7.55994 13.328001,-11.86847 C -11.929119,75.455522 -4.5143642,34.209206 2.9003906,-7.0371094 -1.4876302,-11.842448 -5.875651,-16.647786 -10.263672,-21.453125 c -2.547526,2.547526 -5.095052,5.095052 -7.642578,7.642578 z m 83.943359,9.2128908 C 60.610609,24.392469 54.089353,53.237127 49.384412,82.32204 c 1.189571,13.478591 2.379142,26.95718 3.568713,40.43577 6.708695,-14.27475 14.224842,-28.19266 20.277188,-42.74276 5.481172,-29.238741 10.962343,-58.477481 16.443515,-87.7162219 -3.210286,-3.2102861 -6.420573,-6.4205731 -9.630859,-9.6308591 -4.66862,4.244791 -9.33724,8.4895831 -14.00586,12.7343748 z M 2.7128906,31.136719 C 12.965495,60.033854 23.218099,88.93099 33.470703,117.82812 c 4.556641,3.79688 9.113281,7.59376 13.669922,11.39063 C 45.480149,112.79308 45.114587,96.173148 42.439063,79.900195 35.238672,57.849479 28.038281,35.798763 20.837891,13.748047 16.482422,8.9973958 12.126953,4.2467448 7.7714844,-0.50390625 6.0852865,10.042969 4.3990885,20.589844 2.7128906,31.136719 Z M 123.61133,18.25 C 110.67086,36.64263 96.689044,54.343228 84.469559,73.220748 75.336477,91.748076 66.203395,110.27541 57.070312,128.80273 64.661918,124.16146 72.981288,120.47008 79.915647,114.89409 99.705483,87.277047 119.49532,59.660008 139.28516,32.042969 141.33594,21.38151 143.38672,10.720052 145.4375,0.05859375 138.16211,6.1223958 130.88672,12.186198 123.61133,18.25 Z M 59.792969,188.98047 c 8.392006,22.55604 15.656556,45.60455 24.797634,67.84145 3.817455,4.90571 7.63491,9.81143 11.452366,14.71714 1.517467,-10.58012 3.745531,-21.22913 4.819561,-31.76627 -10.893628,-29.66905 -21.787259,-59.33811 -32.680889,-89.00717 -4.317709,-3.56575 -8.635417,-7.13151 -12.953125,-10.69726 1.521484,16.30404 3.042968,32.60807 4.564453,48.91211 z M 24.183594,152.46289 c -19.8977867,28.01367 -39.795573,56.02734 -59.69336,84.04102 -1.636718,10.63867 -3.273437,21.27734 -4.910156,31.91601 9.383002,-8.62822 20.297562,-15.97083 26.873047,-27.18164 11.5649454,-16.78109 23.923827,-33.0688 34.63566,-50.40325 8.256863,-16.92027 16.513727,-33.84054 24.77059,-50.76081 -7.22526,4.12956 -14.450521,8.25911 -21.675781,12.38867 z m 97.611326,0.97266 c -6.98372,41.42968 -13.96745,82.85937 -20.95117,124.28906 4.02919,4.15861 8.00388,9.43034 12.06641,12.9082 3.47925,-3.26483 9.5414,-5.31839 9.46435,-10.94701 7.45003,-43.12183 14.90007,-86.24366 22.3501,-129.36549 -2.99284,-3.19075 -5.98568,-6.38151 -8.97852,-9.57226 -4.65039,4.22916 -9.30078,8.45833 -13.95117,12.6875 z m -92.376951,36.36133 c -5.117188,28.847 -10.234375,57.69401 -15.351563,86.54101 3.027995,3.43359 6.05599,6.86719 9.083985,10.30078 4.854166,-3.79948 9.708333,-7.59896 14.5625,-11.39844 4.913557,-31.22453 10.831545,-62.33164 15.073812,-93.62824 -1.115099,-11.47353 -2.230198,-22.94706 -3.345297,-34.42058 -6.674479,14.20182 -13.348958,28.40364 -20.023437,42.60547 z"
       id="path5578"
       inkscape:connector-curvature="0" />
  </g>
</svg>
