<?xml version="1.0" encoding="UTF-8" standalone="no"?>
<!-- Created with Inkscape (http://www.inkscape.org/) -->

<svg
   xmlns:dc="http://purl.org/dc/elements/1.1/"
   xmlns:cc="http://creativecommons.org/ns#"
   xmlns:rdf="http://www.w3.org/1999/02/22-rdf-syntax-ns#"
   xmlns:svg="http://www.w3.org/2000/svg"
   xmlns="http://www.w3.org/2000/svg"
   xmlns:sodipodi="http://sodipodi.sourceforge.net/DTD/sodipodi-0.dtd"
   xmlns:inkscape="http://www.inkscape.org/namespaces/inkscape"
   width="210mm"
   height="297mm"
   viewBox="0 0 210 297"
   version="1.1"
   id="svg855"
   sodipodi:docname="seg16-digi_face.svg"
   inkscape:version="0.92.5 (0.92.5+68)">
  <defs
     id="defs849" />
  <sodipodi:namedview
     id="base"
     pagecolor="#ffffff"
     bordercolor="#666666"
     borderopacity="1.0"
     inkscape:pageopacity="0.0"
     inkscape:pageshadow="2"
     inkscape:zoom="0.49497475"
     inkscape:cx="408.41518"
     inkscape:cy="410.66093"
     inkscape:document-units="mm"
     inkscape:current-layer="layer1"
     showgrid="false"
     inkscape:window-width="1571"
     inkscape:window-height="983"
     inkscape:window-x="245"
     inkscape:window-y="-8"
     inkscape:window-maximized="0" />
  <metadata
     id="metadata852">
    <rdf:RDF>
      <cc:Work
         rdf:about="">
        <dc:format>image/svg+xml</dc:format>
        <dc:type
           rdf:resource="http://purl.org/dc/dcmitype/StillImage" />
        <dc:title></dc:title>
      </cc:Work>
    </rdf:RDF>
  </metadata>
  <g
     inkscape:label="Layer 1"
     inkscape:groupmode="layer"
     id="layer1">
    <path
       style="fill:#ff4a00;fill-rule:evenodd;stroke-width:0.10113575"
       d="m 105.70746,166.81268 c -6.569952,0.11738 -13.141026,0.0256 -19.711482,0.0552 -1.378451,1.1992 -2.90059,2.23042 -4.206441,3.5135 1.229566,1.22838 2.406484,3.25435 4.454158,2.80663 5.201724,0 10.403449,0 15.605175,0 1.91166,-1.68809 3.9222,-3.26342 5.77843,-5.01412 -0.51959,-0.55314 -1.04401,-1.43213 -1.91984,-1.36133 z m -33.8874,0.0293 c -6.730906,0.0574 -13.469115,0.007 -20.202815,0.0256 -0.519907,0.7701 -2.459736,1.45173 -2.074912,2.27818 1.224501,1.34733 2.448999,2.69466 3.673501,4.04196 6.091525,0 12.183046,0 18.274571,0 1.25034,-1.20315 2.662603,-2.23506 3.829889,-3.52473 -1.031309,-1.05414 -1.738346,-2.94365 -3.500234,-2.8199 z m 37.79148,5.44246 c -1.59489,1.51861 -3.40975,2.94833 -4.81314,4.58099 -2.795,14.63431 -5.590008,29.26862 -8.385008,43.90297 0.796409,0.90148 1.591645,1.83795 2.388782,2.71774 1.706006,-1.67347 4.384836,-2.94134 4.560206,-5.63564 2.85038,-14.72536 5.70077,-29.45069 8.55115,-44.17606 -0.66279,-0.55431 -0.8724,-1.54599 -1.68748,-1.92822 -0.20484,0.17954 -0.40967,0.35871 -0.61451,0.53822 z m -50.359009,51.41448 c -5.06622,0.13018 -10.134276,0.0183 -15.201278,0.0559 -1.137963,1.14903 -2.699883,2.14353 -3.563227,3.37356 0.989235,1.0277 1.632986,3.0517 3.402714,2.69393 4.607565,0 9.215131,0 13.822696,0 1.990524,-1.23342 4.119642,-2.23795 6.043696,-3.57932 -1.316127,-1.08182 -2.633423,-2.64954 -4.504601,-2.54415 z m 32.747249,0.002 c -4.90954,0.12323 -9.820692,0.0183 -14.730944,0.0538 -1.926375,1.02701 -3.852754,2.05401 -5.779133,3.08099 1.631451,1.29475 3.211727,3.41685 5.571914,2.9865 4.629435,0 9.258867,0 13.888303,0 1.316884,-1.2934 2.852958,-2.35869 4.054558,-3.76969 -0.884473,-0.88586 -1.547213,-2.41463 -3.004698,-2.3517 z m -59.482297,9.88271 c -2.939731,15.65496 -5.992284,31.3535 -8.861521,46.98126 0.583522,0.39093 0.952962,1.51927 1.686601,1.32612 1.950231,-1.67084 3.900466,-3.34171 5.850697,-5.01255 2.723805,-14.69523 5.44761,-29.3905 8.171415,-44.08573 -0.821458,-0.99735 -1.642915,-1.99474 -2.464373,-2.9921 -1.460941,1.261 -2.921878,2.522 -4.382819,3.783 z m 18.537737,47.03373 c -5.876729,0.0574 -11.75378,0.011 -17.630656,0.0256 -1.843804,1.69299 -3.849488,3.31216 -5.592255,5.05193 0.661449,0.97274 1.872684,1.29815 2.964712,1.01556 6.39298,0 12.78596,0 19.178944,0 1.201874,-1.31545 2.927656,-2.40264 3.808194,-3.84739 -0.776678,-0.85441 -1.349739,-2.35372 -2.728939,-2.24669 z m 9.626519,3.11109 c 0.917628,0.96031 1.557912,2.40809 2.747091,2.98303 6.892219,-0.004 13.791994,0.007 20.679497,-0.007 0.542714,-0.80618 1.881069,-1.10358 1.994736,-2.13541 -1.26795,-1.26214 -2.369697,-2.89871 -3.741657,-3.92649 -5.876667,0 -11.753334,0 -17.630005,0 -1.349885,1.02815 -2.699773,2.05632 -4.049662,3.0845 z"
       id="path5502"
       inkscape:connector-curvature="0" />
    <path
       style="fill:#141414;fill-rule:evenodd;stroke-width:0.10113575"
       d="m 43.406635,173.61648 c -2.811056,15.70802 -5.622116,31.41604 -8.433176,47.12406 0.880015,0.93928 1.76003,1.87853 2.640049,2.81782 1.42994,-1.46409 3.675318,-2.38367 4.345628,-4.42504 2.587821,-14.39677 5.175642,-28.79355 7.763463,-43.19032 -1.375087,-1.50574 -2.75017,-3.01148 -4.125252,-4.51722 -0.730239,0.73023 -1.460474,1.46047 -2.190712,2.1907 z m 30.075003,3.31619 c -1.881226,10.49516 -4.495638,20.87301 -5.866753,31.44043 0.34581,3.92019 0.691598,7.84042 1.037397,11.76061 2.234171,-4.85491 5.114451,-9.4669 6.580329,-14.63288 1.860416,-9.92703 3.720837,-19.85409 5.581253,-29.78111 -0.95234,-0.95234 -1.90468,-1.90468 -2.85702,-2.85702 -1.491734,1.35666 -2.983468,2.71331 -4.475206,4.06997 z m -22.629392,12.46325 c 3.63975,10.26014 7.279501,20.52032 10.919251,30.7805 1.238133,1.0314 2.476271,2.06283 3.714404,3.09427 -0.728212,-6.94133 -0.403055,-14.11182 -3.004833,-20.70528 -2.074481,-6.35217 -4.148958,-12.70429 -6.223439,-19.05642 -1.267533,-1.38255 -2.535063,-2.76509 -3.802596,-4.14764 -0.53426,3.34485 -1.068523,6.68971 -1.602787,10.03457 z m 43.163267,-4.18198 c -4.883808,7.12891 -10.584571,13.72801 -14.796172,21.2996 -2.705327,5.48773 -5.410655,10.97546 -8.115986,16.46319 3.011898,-1.66118 6.469602,-3.15168 8.16134,-6.35129 6.469101,-9.02843 12.938198,-18.05691 19.407298,-27.08534 0.627117,-3.25856 1.254234,-6.51708 1.881347,-9.7756 -2.179273,1.81648 -4.35855,3.63296 -6.537827,5.44944 z m -0.54663,48.34607 c -2.476271,14.68873 -4.952542,29.37745 -7.428809,44.06617 1.267617,1.333 2.389063,2.80353 3.736801,4.06014 1.312532,-0.92104 3.082567,-1.9667 2.906799,-3.82914 2.621356,-15.17283 5.242712,-30.34566 7.864066,-45.51849 -0.880013,-0.93834 -1.760032,-1.87667 -2.640047,-2.81501 -1.479601,1.34543 -2.959206,2.6909 -4.43881,4.03633 z m -22.18705,12.32397 c 3.133047,8.17146 5.510939,16.65768 9.170475,24.59812 0.961807,1.23558 1.923615,2.4712 2.885422,3.70683 0.440975,-3.46761 1.514376,-6.92213 1.331653,-10.42675 -3.806937,-10.36812 -7.613873,-20.73621 -11.420813,-31.10434 -1.156012,-0.95442 -2.312024,-1.90888 -3.468037,-2.86331 0.500432,5.36315 1.000864,10.7263 1.5013,16.08945 z M 58.35315,233.35425 c -7.080724,9.96878 -14.161452,19.93757 -21.242177,29.90635 -0.500666,3.25384 -1.001332,6.50772 -1.502001,9.7616 3.566386,-2.968 7.149078,-6.08403 9.439773,-10.16895 4.955972,-7.17934 10.54083,-14.0291 14.052089,-22.08351 1.769538,-3.62551 3.539075,-7.25101 5.308613,-10.87651 -2.018768,1.15367 -4.037533,2.30735 -6.056297,3.46102 z m 2.031131,13.11837 c -1.813461,10.22399 -3.626919,20.448 -5.440376,30.67202 0.905911,1.02814 1.811826,2.05632 2.717738,3.0845 1.509714,-1.29131 3.338979,-2.39507 4.648637,-3.8038 1.700042,-11.21801 4.05342,-22.35652 5.272393,-33.62908 -0.312571,-3.21501 -0.62515,-6.42998 -0.937724,-9.64499 -2.086888,4.44046 -4.17378,8.88089 -6.260668,13.32135 z"
       id="path5578"
       inkscape:connector-curvature="0" />
    <path
       inkscape:connector-curvature="0"
       style="opacity:0.95;vector-effect:none;fill:none;fill-opacity:1;fill-rule:nonzero;stroke:#000000;stroke-width:0.22614418;stroke-linecap:round;stroke-linejoin:round;stroke-miterlimit:4;stroke-dasharray:none;stroke-dashoffset:0;stroke-opacity:1"
       d="m 23.312246,168.47054 a 2.1369278,2.1369278 0 0 1 -2.136928,2.13692 2.1369278,2.1369278 0 0 1 -2.136928,-2.13692 2.1369278,2.1369278 0 0 1 2.136928,-2.13693 2.1369278,2.1369278 0 0 1 2.136928,2.13693 z"
       id="path1409" />
    <path
       inkscape:connector-curvature="0"
       style="opacity:0.95;vector-effect:none;fill:none;fill-opacity:1;fill-rule:nonzero;stroke:#000000;stroke-width:0.33983344;stroke-linecap:round;stroke-linejoin:round;stroke-miterlimit:4;stroke-dasharray:none;stroke-dashoffset:0;stroke-opacity:1"
       d="M 13.727059,160.9677 H 125.79876 V 292.62787 H 13.727059 Z"
       id="rect1426" />
    <path
       inkscape:connector-curvature="0"
       id="path1409-23"
       d="m 116.21357,168.47054 a 2.1369281,2.1369281 0 0 0 2.13693,2.13692 2.1369281,2.1369281 0 0 0 2.13693,-2.13692 2.1369281,2.1369281 0 0 0 -2.13693,-2.13693 2.1369281,2.1369281 0 0 0 -2.13693,2.13693 z"
       style="opacity:0.95;vector-effect:none;fill:none;fill-opacity:1;fill-rule:nonzero;stroke:#000000;stroke-width:0.22614418;stroke-linecap:round;stroke-linejoin:round;stroke-miterlimit:4;stroke-dasharray:none;stroke-dashoffset:0;stroke-opacity:1" />
    <path
       inkscape:connector-curvature="0"
       id="path1409-23-5"
       d="m 116.21357,285.12503 a 2.1369283,2.1369283 0 0 1 2.13693,-2.13693 2.1369283,2.1369283 0 0 1 2.13693,2.13693 2.1369283,2.1369283 0 0 1 -2.13693,2.13693 2.1369283,2.1369283 0 0 1 -2.13693,-2.13693 z"
       style="opacity:0.95;vector-effect:none;fill:none;fill-opacity:1;fill-rule:nonzero;stroke:#000000;stroke-width:0.22614418;stroke-linecap:round;stroke-linejoin:round;stroke-miterlimit:4;stroke-dasharray:none;stroke-dashoffset:0;stroke-opacity:1" />
    <path
       inkscape:connector-curvature="0"
       id="path1409-23-5-5"
       d="m 23.312237,285.12503 a 2.1369283,2.1369283 0 0 0 -2.136929,-2.13693 2.1369283,2.1369283 0 0 0 -2.136928,2.13693 2.1369283,2.1369283 0 0 0 2.136928,2.13693 2.1369283,2.1369283 0 0 0 2.136929,-2.13693 z"
       style="opacity:0.95;vector-effect:none;fill:none;fill-opacity:1;fill-rule:nonzero;stroke:#000000;stroke-width:0.22614418;stroke-linecap:round;stroke-linejoin:round;stroke-miterlimit:4;stroke-dasharray:none;stroke-dashoffset:0;stroke-opacity:1" />
    <path
       style="fill:#ff4a00;fill-rule:evenodd;stroke-width:0.10113575"
       d="m 121.84534,20.51581 c -6.56995,0.117379 -13.14102,0.0256 -19.71148,0.05522 -1.37845,1.199201 -2.900587,2.230415 -4.206438,3.5135 1.229566,1.228382 2.406488,3.254353 4.454158,2.806632 5.20172,0 10.40345,0 15.60517,0 1.91167,-1.688096 3.9222,-3.263421 5.77843,-5.01412 -0.51958,-0.553143 -1.04401,-1.43213 -1.91984,-1.361337 z m -33.887396,0.02925 c -6.730906,0.05741 -13.469115,0.0073 -20.202816,0.0256 -0.519907,0.770093 -2.459735,1.45173 -2.074912,2.278172 1.224502,1.347332 2.449,2.694665 3.673501,4.04196 6.091525,0 12.183047,0 18.274572,0 1.25034,-1.20315 2.662603,-2.235059 3.829889,-3.524726 -1.031309,-1.054141 -1.738346,-2.943647 -3.500234,-2.819905 z m 37.791476,5.442461 c -1.59489,1.51861 -3.40974,2.948327 -4.81314,4.580988 -2.795,14.634314 -5.59,29.268627 -8.385,43.902977 0.79641,0.901476 1.59164,1.837946 2.38878,2.717739 1.70601,-1.67347 4.38483,-2.941344 4.5602,-5.635643 2.85039,-14.725364 5.70077,-29.450692 8.55116,-44.176056 -0.66279,-0.554313 -0.8724,-1.545998 -1.68748,-1.928229 -0.20485,0.179542 -0.40968,0.358718 -0.61452,0.538224 z M 75.390414,77.402009 c -5.06622,0.130178 -10.134275,0.01828 -15.201278,0.05595 -1.137963,1.149032 -2.699883,2.143534 -3.563227,3.37356 0.989236,1.027704 1.632987,3.051701 3.402714,2.693934 4.607566,0 9.215131,0 13.822697,0 1.990524,-1.233428 4.119642,-2.237948 6.043696,-3.57932 -1.316127,-1.081823 -2.633424,-2.649542 -4.504602,-2.544157 z m 32.747246,0.0021 c -4.90954,0.12323 -9.820687,0.01828 -14.73094,0.05375 -1.926375,1.027009 -3.852754,2.054018 -5.779133,3.080991 1.631451,1.29475 3.211727,3.416855 5.571914,2.986503 4.629436,0 9.258869,0 13.888299,0 1.31689,-1.293397 2.85296,-2.358691 4.05456,-3.769686 -0.88447,-0.885862 -1.54721,-2.414638 -3.0047,-2.351707 z m -59.482294,9.882705 c -2.939731,15.654966 -5.992284,31.353506 -8.861521,46.981266 0.583522,0.39093 0.952962,1.51927 1.686601,1.32612 1.950231,-1.67084 3.900466,-3.34171 5.850697,-5.01255 2.723805,-14.69523 5.44761,-29.3905 8.171415,-44.085734 -0.821458,-0.997354 -1.642915,-1.994744 -2.464372,-2.992098 -1.460942,1.260999 -2.921879,2.521998 -4.38282,3.782996 z m 18.537738,47.033736 c -5.87673,0.0574 -11.753781,0.011 -17.630657,0.0256 -1.843804,1.69299 -3.849488,3.31216 -5.592256,5.05193 0.66145,0.97274 1.872685,1.29815 2.964713,1.01556 6.39298,0 12.78596,0 19.178944,0 1.201874,-1.31545 2.927656,-2.40264 3.808194,-3.84739 -0.776678,-0.85441 -1.349738,-2.35372 -2.728938,-2.24669 z m 9.626519,3.11109 c 0.917628,0.96031 1.557912,2.40809 2.74709,2.98302 6.892221,-0.004 13.791995,0.007 20.679497,-0.007 0.54272,-0.80618 1.88107,-1.10358 1.99474,-2.13541 -1.26795,-1.26214 -2.3697,-2.89871 -3.74166,-3.92649 -5.876667,0 -11.753334,0 -17.630005,0 -1.349885,1.02814 -2.699773,2.05632 -4.049662,3.0845 z"
       id="path5502-8"
       inkscape:connector-curvature="0" />
    <path
       style="fill:#141414;fill-rule:evenodd;stroke-width:0.10113575"
       d="m 59.544518,27.319609 c -2.811056,15.708018 -5.622116,31.416036 -8.433176,47.124054 0.880015,0.939286 1.76003,1.878535 2.640049,2.817821 1.42994,-1.464089 3.675319,-2.383666 4.345628,-4.425032 2.587821,-14.396777 5.175642,-28.793554 7.763463,-43.190331 -1.375086,-1.505739 -2.750169,-3.011477 -4.125252,-4.517216 -0.730238,0.730234 -1.460473,1.460469 -2.190712,2.190704 z m 30.075005,3.316187 c -1.881227,10.495159 -4.495639,20.873012 -5.866755,31.440426 0.345811,3.920194 0.691599,7.840424 1.037398,11.760618 2.234171,-4.854909 5.114452,-9.466906 6.580329,-14.632887 1.860417,-9.927023 3.720837,-19.854084 5.581253,-29.781107 -0.95234,-0.95234 -1.90468,-1.904681 -2.85702,-2.857021 -1.491734,1.356657 -2.983468,2.713314 -4.475205,4.069971 z M 66.99013,43.099041 c 3.63975,10.260146 7.2795,20.520327 10.919251,30.780509 1.238133,1.031397 2.47627,2.062831 3.714404,3.094265 C 80.895572,70.032489 81.22073,62.862001 78.618951,56.268534 76.544471,49.916369 74.469993,43.564242 72.395512,37.212114 71.127979,35.829568 69.86045,34.447022 68.592916,33.064475 68.058657,36.409331 67.524393,39.754186 66.99013,43.099041 Z m 43.16327,-4.181974 c -4.88381,7.128912 -10.584574,13.728011 -14.796174,21.299598 -2.705328,5.48773 -5.410656,10.975461 -8.115987,16.463191 3.011898,-1.661183 6.469602,-3.151674 8.16134,-6.351287 6.469101,-9.028436 12.938201,-18.056909 19.407301,-27.085346 0.62711,-3.258558 1.25423,-6.517079 1.88135,-9.775601 -2.17928,1.816482 -4.35856,3.632964 -6.53783,5.449445 z m -0.54663,48.346073 c -2.47627,14.68872 -4.95254,29.37745 -7.42881,44.06617 1.26762,1.333 2.38906,2.80353 3.7368,4.06014 1.31253,-0.92104 3.08257,-1.9667 2.9068,-3.82915 2.62135,-15.17282 5.24271,-30.34565 7.86407,-45.518484 -0.88002,-0.938335 -1.76004,-1.87667 -2.64005,-2.815005 -1.4796,1.345431 -2.95921,2.690898 -4.43881,4.036329 z M 87.419717,99.587103 c 3.133047,8.171467 5.510939,16.657687 9.170476,24.598127 0.961807,1.23558 1.923614,2.4712 2.885421,3.70682 0.440975,-3.4676 1.514376,-6.92212 1.331656,-10.42674 -3.806939,-10.36812 -7.613876,-20.736214 -11.420816,-31.104341 -1.156012,-0.954424 -2.312024,-1.908885 -3.468037,-2.86331 0.500432,5.363148 1.000864,10.726296 1.5013,16.089444 z M 74.491034,87.05738 c -7.080725,9.968783 -14.161453,19.93757 -21.242177,29.90635 -0.500666,3.25384 -1.001332,6.50772 -1.502002,9.76159 3.566387,-2.968 7.149078,-6.08402 9.439774,-10.16894 4.955972,-7.17934 10.54083,-14.0291 14.052089,-22.083516 1.769538,-3.625504 3.539075,-7.251008 5.308613,-10.876511 -2.018768,1.153675 -4.037533,2.307351 -6.056297,3.461027 z m 2.031131,13.11837 c -1.813461,10.22398 -3.626919,20.448 -5.440377,30.67202 0.905912,1.02814 1.811827,2.05632 2.717739,3.0845 1.509713,-1.29131 3.338979,-2.39508 4.648637,-3.8038 1.700042,-11.21801 4.05342,-22.35652 5.272393,-33.629086 -0.312571,-3.215007 -0.62515,-6.429978 -0.937725,-9.644985 -2.086887,4.440463 -4.173779,8.88089 -6.260667,13.321351 z"
       id="path5578-9"
       inkscape:connector-curvature="0" />
  </g>
</svg>
