<?xml version="1.0" standalone="no"?>
<!DOCTYPE svg PUBLIC "-//W3C//DTD SVG 1.1//EN" "http://www.w3.org/Graphics/SVG/1.1/DTD/svg11.dtd">
<svg width="173" height="126" viewBox="28 -145 173 126" xmlns="http://www.w3.org/2000/svg" version="1.1">
<title>OpenSCAD Model</title>
<path d="
M 45,-111 L 47.4486,-111 L 47.4353,-111.03 L 47.4353,-112.97 L 48.2246,-114.743 L 49.6667,-116.041
 L 51.5122,-116.641 L 53.4421,-116.438 L 55.1226,-115.468 L 56.2632,-113.898 L 56.6667,-112 L 56.4541,-111
 L 59,-111 L 59,-108 L 73,-108 L 73,-143 L 61,-143 L 60.6985,-142.698
 L 58.5772,-144.82 L 48.6777,-134.92 L 50.799,-132.799 L 40.8995,-122.9 L 38.7782,-125.021 L 28.8787,-115.121
 L 31,-113 L 31,-108 L 45,-108 z
M 95.75,-111 L 98.1986,-111 L 98.1853,-111.03 L 98.1853,-112.97 L 98.9746,-114.743 L 100.417,-116.041
 L 102.262,-116.641 L 104.192,-116.438 L 105.873,-115.468 L 107.013,-113.898 L 107.417,-112 L 107.204,-111
 L 109.75,-111 L 109.75,-108 L 123.75,-108 L 123.75,-143 L 111.75,-143 L 111.448,-142.698
 L 109.327,-144.82 L 99.4277,-134.92 L 101.549,-132.799 L 91.6495,-122.9 L 89.5282,-125.021 L 79.6287,-115.121
 L 81.75,-113 L 81.75,-108 L 95.75,-108 z
M 173,-111 L 175.449,-111 L 175.435,-111.03 L 175.435,-112.97 L 176.225,-114.743 L 177.667,-116.041
 L 179.512,-116.641 L 181.442,-116.438 L 183.123,-115.468 L 184.263,-113.898 L 184.667,-112 L 184.454,-111
 L 187,-111 L 187,-108 L 201,-108 L 201,-143 L 189,-143 L 188.698,-142.698
 L 186.577,-144.82 L 176.678,-134.92 L 178.799,-132.799 L 168.899,-122.9 L 166.778,-125.021 L 156.879,-115.121
 L 159,-113 L 159,-108 L 173,-108 z
M 153.322,-116.08 L 151.201,-118.201 L 161.101,-128.1 L 163.222,-125.979 L 173.121,-135.879 L 171,-138
 L 171,-143 L 157,-143 L 157,-140 L 154.551,-140 L 154.565,-139.97 L 154.565,-138.03
 L 153.775,-136.257 L 152.333,-134.959 L 150.488,-134.359 L 148.558,-134.562 L 146.877,-135.532 L 145.737,-137.102
 L 145.333,-139 L 145.546,-140 L 143,-140 L 143,-143 L 129,-143 L 129,-108
 L 141,-108 L 141.302,-108.302 L 143.423,-106.18 z
M 66,-68.31 L 129.97,-68.31 L 129.97,-64.31 L 139.962,-64.31 L 139.962,-105.69 L 129.97,-105.69
 L 129.97,-101.69 L 66,-101.69 L 66,-105.69 L 28.015,-105.69 L 28.015,-87.375 L 34.015,-87.375
 L 34.015,-82.625 L 28.015,-82.625 L 28.015,-64.31 L 66,-64.31 z
M 57.625,-101.69 L 57.625,-103.69 L 62.375,-103.69 L 62.375,-101.69 z
M 29.64,-101.69 L 29.64,-103.69 L 34.39,-103.69 L 34.39,-101.69 z
M 117,-92.345 L 117,-95.345 L 131,-95.345 L 131,-92.345 z
M 89,-92.345 L 89,-95.345 L 103,-95.345 L 103,-92.345 z
M 107.704,-79.4567 L 105.757,-80.7574 L 104.457,-82.7039 L 104.398,-83 L 94.0075,-83 L 94.0075,-87
 L 104.398,-87 L 104.457,-87.2961 L 105.757,-89.2426 L 107.704,-90.5433 L 110,-91 L 112.296,-90.5433
 L 114.243,-89.2426 L 115.543,-87.2961 L 115.602,-87 L 125.992,-87 L 125.992,-83 L 115.602,-83
 L 115.543,-82.7039 L 114.243,-80.7574 L 112.296,-79.4567 L 110,-79 z
M 57.7039,-79.4567 L 55.7574,-80.7574 L 54.4567,-82.7039 L 54.3978,-83 L 44.0075,-83 L 44.0075,-87
 L 54.3978,-87 L 54.4567,-87.2961 L 55.7574,-89.2426 L 57.7039,-90.5433 L 60,-91 L 62.2961,-90.5433
 L 64.2426,-89.2426 L 65.5433,-87.2961 L 65.6022,-87 L 75.9925,-87 L 75.9925,-83 L 65.6022,-83
 L 65.5433,-82.7039 L 64.2426,-80.7574 L 62.2961,-79.4567 L 60,-79 z
M 85.985,-82.625 L 85.985,-87.375 L 91.985,-87.375 L 91.985,-82.625 z
M 89,-74.655 L 89,-77.655 L 103,-77.655 L 103,-74.655 z
M 117,-74.655 L 117,-77.655 L 131,-77.655 L 131,-74.655 z
M 57.625,-66.31 L 57.625,-68.31 L 62.375,-68.31 L 62.375,-66.31 z
M 29.64,-66.31 L 29.64,-68.31 L 34.39,-68.31 L 34.39,-66.31 z
M 196.985,-82.5 L 195.217,-83.2322 L 194.485,-85 L 195.217,-86.7678 L 196.985,-87.5 L 196.985,-102.69
 L 151.015,-102.69 L 151.015,-87.5 L 152.783,-86.7678 L 153.515,-85 L 152.783,-83.2322 L 151.015,-82.5
 L 151.015,-67.31 L 196.985,-67.31 z
M 175.353,-98.0818 L 174.834,-98.4286 L 174.487,-98.9477 L 174.365,-99.56 L 174.487,-100.172 L 174.834,-100.691
 L 175.353,-101.038 L 175.965,-101.16 L 176.577,-101.038 L 177.096,-100.691 L 177.443,-100.172 L 177.565,-99.56
 L 177.443,-98.9477 L 177.096,-98.4286 L 176.577,-98.0818 L 175.965,-97.96 z
M 193.323,-98.0818 L 192.804,-98.4286 L 192.457,-98.9477 L 192.335,-99.56 L 192.457,-100.172 L 192.804,-100.691
 L 193.323,-101.038 L 193.935,-101.16 L 194.547,-101.038 L 195.066,-100.691 L 195.413,-100.172 L 195.535,-99.56
 L 195.413,-98.9477 L 195.066,-98.4286 L 194.547,-98.0818 L 193.935,-97.96 z
M 184.338,-98.0818 L 183.819,-98.4286 L 183.472,-98.9477 L 183.35,-99.56 L 183.472,-100.172 L 183.819,-100.691
 L 184.338,-101.038 L 184.95,-101.16 L 185.562,-101.038 L 186.081,-100.691 L 186.428,-100.172 L 186.55,-99.56
 L 186.428,-98.9477 L 186.081,-98.4286 L 185.562,-98.0818 L 184.95,-97.96 z
M 153,-92.345 L 153,-95.345 L 167,-95.345 L 167,-92.345 z
M 181,-92.345 L 181,-95.345 L 195,-95.345 L 195,-92.345 z
M 171.423,-88.1118 L 170.904,-88.4586 L 170.557,-88.9777 L 170.435,-89.59 L 170.557,-90.2023 L 170.904,-90.7214
 L 171.423,-91.0682 L 172.035,-91.19 L 172.647,-91.0682 L 173.166,-90.7214 L 173.513,-90.2023 L 173.635,-89.59
 L 173.513,-88.9777 L 173.166,-88.4586 L 172.647,-88.1118 L 172.035,-87.99 z
M 153.453,-88.1118 L 152.934,-88.4586 L 152.587,-88.9777 L 152.465,-89.59 L 152.587,-90.2023 L 152.934,-90.7214
 L 153.453,-91.0682 L 154.065,-91.19 L 154.677,-91.0682 L 155.196,-90.7214 L 155.543,-90.2023 L 155.665,-89.59
 L 155.543,-88.9777 L 155.196,-88.4586 L 154.677,-88.1118 L 154.065,-87.99 z
M 162.438,-88.1118 L 161.919,-88.4586 L 161.572,-88.9777 L 161.45,-89.59 L 161.572,-90.2023 L 161.919,-90.7214
 L 162.438,-91.0682 L 163.05,-91.19 L 163.662,-91.0682 L 164.181,-90.7214 L 164.528,-90.2023 L 164.65,-89.59
 L 164.528,-88.9777 L 164.181,-88.4586 L 163.662,-88.1118 L 163.05,-87.99 z
M 162.438,-78.7018 L 161.919,-79.0486 L 161.572,-79.5677 L 161.45,-80.18 L 161.572,-80.7923 L 161.919,-81.3114
 L 162.438,-81.6582 L 163.05,-81.78 L 163.662,-81.6582 L 164.181,-81.3114 L 164.528,-80.7923 L 164.65,-80.18
 L 164.528,-79.5677 L 164.181,-79.0486 L 163.662,-78.7018 L 163.05,-78.58 z
M 171.423,-78.7018 L 170.904,-79.0486 L 170.557,-79.5677 L 170.435,-80.18 L 170.557,-80.7923 L 170.904,-81.3114
 L 171.423,-81.6582 L 172.035,-81.78 L 172.647,-81.6582 L 173.166,-81.3114 L 173.513,-80.7923 L 173.635,-80.18
 L 173.513,-79.5677 L 173.166,-79.0486 L 172.647,-78.7018 L 172.035,-78.58 z
M 153.453,-78.7018 L 152.934,-79.0486 L 152.587,-79.5677 L 152.465,-80.18 L 152.587,-80.7923 L 152.934,-81.3114
 L 153.453,-81.6582 L 154.065,-81.78 L 154.677,-81.6582 L 155.196,-81.3114 L 155.543,-80.7923 L 155.665,-80.18
 L 155.543,-79.5677 L 155.196,-79.0486 L 154.677,-78.7018 L 154.065,-78.58 z
M 181,-74.655 L 181,-77.655 L 195,-77.655 L 195,-74.655 z
M 153,-74.655 L 153,-77.655 L 167,-77.655 L 167,-74.655 z
M 184.338,-68.7318 L 183.819,-69.0786 L 183.472,-69.5977 L 183.35,-70.21 L 183.472,-70.8223 L 183.819,-71.3414
 L 184.338,-71.6882 L 184.95,-71.81 L 185.562,-71.6882 L 186.081,-71.3414 L 186.428,-70.8223 L 186.55,-70.21
 L 186.428,-69.5977 L 186.081,-69.0786 L 185.562,-68.7318 L 184.95,-68.61 z
M 175.353,-68.7318 L 174.834,-69.0786 L 174.487,-69.5977 L 174.365,-70.21 L 174.487,-70.8223 L 174.834,-71.3414
 L 175.353,-71.6882 L 175.965,-71.81 L 176.577,-71.6882 L 177.096,-71.3414 L 177.443,-70.8223 L 177.565,-70.21
 L 177.443,-69.5977 L 177.096,-69.0786 L 176.577,-68.7318 L 175.965,-68.61 z
M 193.323,-68.7318 L 192.804,-69.0786 L 192.457,-69.5977 L 192.335,-70.21 L 192.457,-70.8223 L 192.804,-71.3414
 L 193.323,-71.6882 L 193.935,-71.81 L 194.547,-71.6882 L 195.066,-71.3414 L 195.413,-70.8223 L 195.535,-70.21
 L 195.413,-69.5977 L 195.066,-69.0786 L 194.547,-68.7318 L 193.935,-68.61 z
M 66,-23.31 L 129.97,-23.31 L 129.97,-19.31 L 139.962,-19.31 L 139.962,-60.69 L 129.97,-60.69
 L 129.97,-56.69 L 66,-56.69 L 66,-60.69 L 28.015,-60.69 L 28.015,-42.375 L 34.015,-42.375
 L 34.015,-37.625 L 28.015,-37.625 L 28.015,-19.31 L 66,-19.31 z
M 57.625,-56.69 L 57.625,-58.69 L 62.375,-58.69 L 62.375,-56.69 z
M 29.64,-56.69 L 29.64,-58.69 L 34.39,-58.69 L 34.39,-56.69 z
M 89,-47.345 L 89,-50.345 L 103,-50.345 L 103,-47.345 z
M 117,-47.345 L 117,-50.345 L 131,-50.345 L 131,-47.345 z
M 107.704,-34.4567 L 105.757,-35.7574 L 104.457,-37.7039 L 104.398,-38 L 94.0075,-38 L 94.0075,-42
 L 104.398,-42 L 104.457,-42.2961 L 105.757,-44.2426 L 107.704,-45.5433 L 110,-46 L 112.296,-45.5433
 L 114.243,-44.2426 L 115.543,-42.2961 L 115.602,-42 L 125.992,-42 L 125.992,-38 L 115.602,-38
 L 115.543,-37.7039 L 114.243,-35.7574 L 112.296,-34.4567 L 110,-34 z
M 57.7039,-34.4567 L 55.7574,-35.7574 L 54.4567,-37.7039 L 54.3978,-38 L 44.0075,-38 L 44.0075,-42
 L 54.3978,-42 L 54.4567,-42.2961 L 55.7574,-44.2426 L 57.7039,-45.5433 L 60,-46 L 62.2961,-45.5433
 L 64.2426,-44.2426 L 65.5433,-42.2961 L 65.6022,-42 L 75.9925,-42 L 75.9925,-38 L 65.6022,-38
 L 65.5433,-37.7039 L 64.2426,-35.7574 L 62.2961,-34.4567 L 60,-34 z
M 85.985,-37.625 L 85.985,-42.375 L 91.985,-42.375 L 91.985,-37.625 z
M 89,-29.655 L 89,-32.655 L 103,-32.655 L 103,-29.655 z
M 117,-29.655 L 117,-32.655 L 131,-32.655 L 131,-29.655 z
M 29.64,-21.31 L 29.64,-23.31 L 34.39,-23.31 L 34.39,-21.31 z
M 57.625,-21.31 L 57.625,-23.31 L 62.375,-23.31 L 62.375,-21.31 z
M 196.985,-37.5 L 195.217,-38.2322 L 194.485,-40 L 195.217,-41.7678 L 196.985,-42.5 L 196.985,-57.69
 L 151.015,-57.69 L 151.015,-42.5 L 152.783,-41.7678 L 153.515,-40 L 152.783,-38.2322 L 151.015,-37.5
 L 151.015,-22.31 L 196.985,-22.31 z
M 193.323,-53.0818 L 192.804,-53.4286 L 192.457,-53.9477 L 192.335,-54.56 L 192.457,-55.1723 L 192.804,-55.6913
 L 193.323,-56.0382 L 193.935,-56.16 L 194.547,-56.0382 L 195.066,-55.6913 L 195.413,-55.1723 L 195.535,-54.56
 L 195.413,-53.9477 L 195.066,-53.4286 L 194.547,-53.0818 L 193.935,-52.96 z
M 184.338,-53.0818 L 183.819,-53.4286 L 183.472,-53.9477 L 183.35,-54.56 L 183.472,-55.1723 L 183.819,-55.6913
 L 184.338,-56.0382 L 184.95,-56.16 L 185.562,-56.0382 L 186.081,-55.6913 L 186.428,-55.1723 L 186.55,-54.56
 L 186.428,-53.9477 L 186.081,-53.4286 L 185.562,-53.0818 L 184.95,-52.96 z
M 175.353,-53.0818 L 174.834,-53.4286 L 174.487,-53.9477 L 174.365,-54.56 L 174.487,-55.1723 L 174.834,-55.6913
 L 175.353,-56.0382 L 175.965,-56.16 L 176.577,-56.0382 L 177.096,-55.6913 L 177.443,-55.1723 L 177.565,-54.56
 L 177.443,-53.9477 L 177.096,-53.4286 L 176.577,-53.0818 L 175.965,-52.96 z
M 153,-47.345 L 153,-50.345 L 167,-50.345 L 167,-47.345 z
M 181,-47.345 L 181,-50.345 L 195,-50.345 L 195,-47.345 z
M 171.423,-43.1118 L 170.904,-43.4586 L 170.557,-43.9777 L 170.435,-44.59 L 170.557,-45.2023 L 170.904,-45.7214
 L 171.423,-46.0682 L 172.035,-46.19 L 172.647,-46.0682 L 173.166,-45.7214 L 173.513,-45.2023 L 173.635,-44.59
 L 173.513,-43.9777 L 173.166,-43.4586 L 172.647,-43.1118 L 172.035,-42.99 z
M 153.453,-43.1118 L 152.934,-43.4586 L 152.587,-43.9777 L 152.465,-44.59 L 152.587,-45.2023 L 152.934,-45.7214
 L 153.453,-46.0682 L 154.065,-46.19 L 154.677,-46.0682 L 155.196,-45.7214 L 155.543,-45.2023 L 155.665,-44.59
 L 155.543,-43.9777 L 155.196,-43.4586 L 154.677,-43.1118 L 154.065,-42.99 z
M 162.438,-43.1118 L 161.919,-43.4586 L 161.572,-43.9777 L 161.45,-44.59 L 161.572,-45.2023 L 161.919,-45.7214
 L 162.438,-46.0682 L 163.05,-46.19 L 163.662,-46.0682 L 164.181,-45.7214 L 164.528,-45.2023 L 164.65,-44.59
 L 164.528,-43.9777 L 164.181,-43.4586 L 163.662,-43.1118 L 163.05,-42.99 z
M 162.438,-33.7018 L 161.919,-34.0486 L 161.572,-34.5677 L 161.45,-35.18 L 161.572,-35.7923 L 161.919,-36.3114
 L 162.438,-36.6582 L 163.05,-36.78 L 163.662,-36.6582 L 164.181,-36.3114 L 164.528,-35.7923 L 164.65,-35.18
 L 164.528,-34.5677 L 164.181,-34.0486 L 163.662,-33.7018 L 163.05,-33.58 z
M 153.453,-33.7018 L 152.934,-34.0486 L 152.587,-34.5677 L 152.465,-35.18 L 152.587,-35.7923 L 152.934,-36.3114
 L 153.453,-36.6582 L 154.065,-36.78 L 154.677,-36.6582 L 155.196,-36.3114 L 155.543,-35.7923 L 155.665,-35.18
 L 155.543,-34.5677 L 155.196,-34.0486 L 154.677,-33.7018 L 154.065,-33.58 z
M 171.423,-33.7018 L 170.904,-34.0486 L 170.557,-34.5677 L 170.435,-35.18 L 170.557,-35.7923 L 170.904,-36.3114
 L 171.423,-36.6582 L 172.035,-36.78 L 172.647,-36.6582 L 173.166,-36.3114 L 173.513,-35.7923 L 173.635,-35.18
 L 173.513,-34.5677 L 173.166,-34.0486 L 172.647,-33.7018 L 172.035,-33.58 z
M 181,-29.655 L 181,-32.655 L 195,-32.655 L 195,-29.655 z
M 153,-29.655 L 153,-32.655 L 167,-32.655 L 167,-29.655 z
M 175.353,-23.7318 L 174.834,-24.0786 L 174.487,-24.5977 L 174.365,-25.21 L 174.487,-25.8223 L 174.834,-26.3414
 L 175.353,-26.6882 L 175.965,-26.81 L 176.577,-26.6882 L 177.096,-26.3414 L 177.443,-25.8223 L 177.565,-25.21
 L 177.443,-24.5977 L 177.096,-24.0786 L 176.577,-23.7318 L 175.965,-23.61 z
M 184.338,-23.7318 L 183.819,-24.0786 L 183.472,-24.5977 L 183.35,-25.21 L 183.472,-25.8223 L 183.819,-26.3414
 L 184.338,-26.6882 L 184.95,-26.81 L 185.562,-26.6882 L 186.081,-26.3414 L 186.428,-25.8223 L 186.55,-25.21
 L 186.428,-24.5977 L 186.081,-24.0786 L 185.562,-23.7318 L 184.95,-23.61 z
M 193.323,-23.7318 L 192.804,-24.0786 L 192.457,-24.5977 L 192.335,-25.21 L 192.457,-25.8223 L 192.804,-26.3414
 L 193.323,-26.6882 L 193.935,-26.81 L 194.547,-26.6882 L 195.066,-26.3414 L 195.413,-25.8223 L 195.535,-25.21
 L 195.413,-24.5977 L 195.066,-24.0786 L 194.547,-23.7318 L 193.935,-23.61 z
" stroke="black" fill="none" stroke-width="0.5"/></svg>
