<?xml version="1.0" standalone="no"?>
<!DOCTYPE svg PUBLIC "-//W3C//DTD SVG 1.1//EN" "http://www.w3.org/Graphics/SVG/1.1/DTD/svg11.dtd">
<svg width="76" height="33" viewBox="-18 -17 76 33" xmlns="http://www.w3.org/2000/svg" version="1.1">
<title>OpenSCAD Model</title>
<path d="
M 0.119293,15.7962 L 0.238129,15.785 L 0.356018,15.7663 L 0.472504,15.7403 L 0.587128,15.707 L 0.699432,15.6666
 L 0.808975,15.6192 L 0.915329,15.565 L 1.01807,15.5042 L 1.11679,15.4371 L 1.21111,15.364 L 1.30063,15.285
 L 1.38504,15.2006 L 1.46397,15.1111 L 14.6342,-0.282486 L 14.6342,-0.289124 L 14.8419,-0.496811 L 15.2365,-0.944473
 L 15.6023,-1.41605 L 15.9378,-1.90965 L 16.2416,-2.42336 L 16.5125,-2.95511 L 16.7495,-3.50282 L 16.9517,-4.06435
 L 17.1182,-4.63745 L 17.2484,-5.21988 L 17.3418,-5.80934 L 17.3979,-6.4035 L 17.4167,-7 L 17.3979,-7.5965
 L 17.3418,-8.19066 L 17.2484,-8.78012 L 17.1182,-9.36255 L 16.9517,-9.93565 L 16.7495,-10.4972 L 16.5125,-11.0449
 L 16.2416,-11.5766 L 15.9378,-12.0903 L 15.6023,-12.584 L 15.2365,-13.0555 L 14.8419,-13.5032 L 14.4199,-13.9252
 L 13.9722,-14.3199 L 13.5006,-14.6857 L 13.007,-15.0211 L 12.4933,-15.3249 L 11.9616,-15.5959 L 11.4138,-15.8329
 L 10.8523,-16.035 L 10.2792,-16.2015 L 9.69678,-16.3317 L 9.10733,-16.4251 L 8.51317,-16.4812 L 7.91666,-16.5
 L 7.32014,-16.4812 L 6.726,-16.4251 L 6.13654,-16.3317 L 5.55411,-16.2015 L 4.981,-16.035 L 4.41948,-15.8329
 L 3.87175,-15.5959 L 3.34,-15.3249 L 2.82631,-15.0211 L 2.3327,-14.6857 L 1.86113,-14.3199 L 1.41347,-13.9252
 L 0.991455,-13.5032 L 0.596786,-13.0555 L 0.231003,-12.584 L 0,-12.244 L -0.231003,-12.584 L -0.596786,-13.0555
 L -0.991455,-13.5032 L -1.41347,-13.9252 L -1.86113,-14.3199 L -2.3327,-14.6857 L -2.82631,-15.0211 L -3.34,-15.3249
 L -3.87175,-15.5959 L -4.41948,-15.8329 L -4.981,-16.035 L -5.55411,-16.2015 L -6.13654,-16.3317 L -6.726,-16.4251
 L -7.32014,-16.4812 L -7.91666,-16.5 L -8.51317,-16.4812 L -9.10733,-16.4251 L -9.69678,-16.3317 L -10.2792,-16.2015
 L -10.8523,-16.035 L -11.4138,-15.8329 L -11.9616,-15.5959 L -12.4933,-15.3249 L -13.007,-15.0211 L -13.5006,-14.6857
 L -13.9722,-14.3199 L -14.4199,-13.9252 L -14.8419,-13.5032 L -15.2365,-13.0555 L -15.6023,-12.584 L -15.9378,-12.0903
 L -16.2416,-11.5766 L -16.5125,-11.0449 L -16.7495,-10.4972 L -16.9517,-9.93565 L -17.1182,-9.36255 L -17.2484,-8.78012
 L -17.3418,-8.19066 L -17.3979,-7.5965 L -17.4167,-7 L -17.3979,-6.4035 L -17.3418,-5.80934 L -17.2484,-5.21988
 L -17.1182,-4.63745 L -16.9517,-4.06435 L -16.7495,-3.50282 L -16.5125,-2.95511 L -16.2416,-2.42336 L -15.9378,-1.90965
 L -15.6023,-1.41605 L -15.2365,-0.944473 L -14.8419,-0.496811 L -14.6342,-0.289124 L -14.6342,-0.282486 L -1.46397,15.1111
 L -1.38504,15.2006 L -1.30063,15.285 L -1.21111,15.364 L -1.11679,15.4371 L -1.01807,15.5042 L -0.915329,15.565
 L -0.808975,15.6192 L -0.699432,15.6666 L -0.587128,15.707 L -0.472504,15.7403 L -0.356018,15.7663 L -0.238129,15.785
 L -0.119293,15.7962 L 0,15.8 z
M -10.0628,-11.002 L -10.1253,-11.0079 L -10.1874,-11.0177 L -10.2487,-11.0314 L -10.309,-11.0489 L -10.3681,-11.0702
 L -10.4258,-11.0952 L -10.4818,-11.1237 L -10.5358,-11.1557 L -10.5878,-11.191 L -10.6374,-11.2295 L -10.6845,-11.271
 L -10.729,-11.3154 L -10.7705,-11.3626 L -10.809,-11.4122 L -10.8443,-11.4642 L -10.8763,-11.5182 L -10.9048,-11.5742
 L -10.9298,-11.6319 L -10.951,-11.691 L -10.9686,-11.7513 L -10.9823,-11.8126 L -10.9921,-11.8747 L -10.998,-11.9372
 L -11,-12 L -10.998,-12.0628 L -10.9921,-12.1253 L -10.9823,-12.1874 L -10.9686,-12.2487 L -10.951,-12.309
 L -10.9298,-12.3681 L -10.9048,-12.4258 L -10.8763,-12.4818 L -10.8443,-12.5358 L -10.809,-12.5878 L -10.7705,-12.6374
 L -10.729,-12.6845 L -10.6845,-12.729 L -10.6374,-12.7705 L -10.5878,-12.809 L -10.5358,-12.8443 L -10.4818,-12.8763
 L -10.4258,-12.9048 L -10.3681,-12.9298 L -10.309,-12.951 L -10.2487,-12.9686 L -10.1874,-12.9823 L -10.1253,-12.9921
 L -10.0628,-12.998 L -10,-13 L -9.93719,-12.998 L -9.87466,-12.9921 L -9.81261,-12.9823 L -9.7513,-12.9686
 L -9.69098,-12.951 L -9.63187,-12.9298 L -9.57422,-12.9048 L -9.51823,-12.8763 L -9.46417,-12.8443 L -9.4122,-12.809
 L -9.36256,-12.7705 L -9.31544,-12.729 L -9.27103,-12.6845 L -9.22948,-12.6374 L -9.19098,-12.5878 L -9.15567,-12.5358
 L -9.12369,-12.4818 L -9.09517,-12.4258 L -9.07022,-12.3681 L -9.04893,-12.309 L -9.0314,-12.2487 L -9.0177,-12.1874
 L -9.00787,-12.1253 L -9.00197,-12.0628 L -9,-12 L -9.00197,-11.9372 L -9.00787,-11.8747 L -9.0177,-11.8126
 L -9.0314,-11.7513 L -9.04893,-11.691 L -9.07022,-11.6319 L -9.09517,-11.5742 L -9.12369,-11.5182 L -9.15567,-11.4642
 L -9.19098,-11.4122 L -9.22948,-11.3626 L -9.27103,-11.3154 L -9.31544,-11.271 L -9.36256,-11.2295 L -9.4122,-11.191
 L -9.46417,-11.1557 L -9.51823,-11.1237 L -9.57422,-11.0952 L -9.63187,-11.0702 L -9.69098,-11.0489 L -9.7513,-11.0314
 L -9.81261,-11.0177 L -9.87466,-11.0079 L -9.93719,-11.002 L -10,-11 z
M 9.93719,-11.002 L 9.87466,-11.0079 L 9.81261,-11.0177 L 9.7513,-11.0314 L 9.69098,-11.0489 L 9.63187,-11.0702
 L 9.57422,-11.0952 L 9.51823,-11.1237 L 9.46417,-11.1557 L 9.4122,-11.191 L 9.36256,-11.2295 L 9.31544,-11.271
 L 9.27103,-11.3154 L 9.22948,-11.3626 L 9.19098,-11.4122 L 9.15567,-11.4642 L 9.12369,-11.5182 L 9.09517,-11.5742
 L 9.07022,-11.6319 L 9.04893,-11.691 L 9.0314,-11.7513 L 9.0177,-11.8126 L 9.00787,-11.8747 L 9.00197,-11.9372
 L 9,-12 L 9.00197,-12.0628 L 9.00787,-12.1253 L 9.0177,-12.1874 L 9.0314,-12.2487 L 9.04893,-12.309
 L 9.07022,-12.3681 L 9.09517,-12.4258 L 9.12369,-12.4818 L 9.15567,-12.5358 L 9.19098,-12.5878 L 9.22948,-12.6374
 L 9.27103,-12.6845 L 9.31544,-12.729 L 9.36256,-12.7705 L 9.4122,-12.809 L 9.46417,-12.8443 L 9.51823,-12.8763
 L 9.57422,-12.9048 L 9.63187,-12.9298 L 9.69098,-12.951 L 9.7513,-12.9686 L 9.81261,-12.9823 L 9.87466,-12.9921
 L 9.93719,-12.998 L 10,-13 L 10.0628,-12.998 L 10.1253,-12.9921 L 10.1874,-12.9823 L 10.2487,-12.9686
 L 10.309,-12.951 L 10.3681,-12.9298 L 10.4258,-12.9048 L 10.4818,-12.8763 L 10.5358,-12.8443 L 10.5878,-12.809
 L 10.6374,-12.7705 L 10.6845,-12.729 L 10.729,-12.6845 L 10.7705,-12.6374 L 10.809,-12.5878 L 10.8443,-12.5358
 L 10.8763,-12.4818 L 10.9048,-12.4258 L 10.9298,-12.3681 L 10.951,-12.309 L 10.9686,-12.2487 L 10.9823,-12.1874
 L 10.9921,-12.1253 L 10.998,-12.0628 L 11,-12 L 10.998,-11.9372 L 10.9921,-11.8747 L 10.9823,-11.8126
 L 10.9686,-11.7513 L 10.951,-11.691 L 10.9298,-11.6319 L 10.9048,-11.5742 L 10.8763,-11.5182 L 10.8443,-11.4642
 L 10.809,-11.4122 L 10.7705,-11.3626 L 10.729,-11.3154 L 10.6845,-11.271 L 10.6374,-11.2295 L 10.5878,-11.191
 L 10.5358,-11.1557 L 10.4818,-11.1237 L 10.4258,-11.0952 L 10.3681,-11.0702 L 10.309,-11.0489 L 10.2487,-11.0314
 L 10.1874,-11.0177 L 10.1253,-11.0079 L 10.0628,-11.002 L 10,-11 z
M -0.25116,3.9921 L -0.501328,3.96844 L -0.749512,3.92914 L -0.994751,3.87433 L -1.23605,3.80421 L -1.47249,3.7191
 L -1.70311,3.61929 L -1.927,3.50522 L -2.1433,3.3773 L -2.35114,3.23605 L -2.54968,3.08205 L -2.73817,2.91586
 L -2.91586,2.73817 L -3.08205,2.54968 L -3.23605,2.35114 L -3.3773,2.1433 L -3.50522,1.927 L -3.61929,1.70311
 L -3.7191,1.47249 L -3.80421,1.23605 L -3.87433,0.994751 L -3.92914,0.749512 L -3.96844,0.501328 L -3.9921,0.25116
 L -4,-0 L -3.9921,-0.25116 L -3.96844,-0.501328 L -3.92914,-0.749512 L -3.87433,-0.994751 L -3.80421,-1.23605
 L -3.7191,-1.47249 L -3.61929,-1.70311 L -3.50522,-1.927 L -3.3773,-2.1433 L -3.23605,-2.35114 L -3.08205,-2.54968
 L -2.91586,-2.73817 L -2.73817,-2.91586 L -2.54968,-3.08205 L -2.35114,-3.23605 L -2.1433,-3.3773 L -1.927,-3.50522
 L -1.70311,-3.61929 L -1.47249,-3.7191 L -1.23605,-3.80421 L -0.994751,-3.87433 L -0.749512,-3.92914 L -0.501328,-3.96844
 L -0.25116,-3.9921 L 0,-4 L 0.25116,-3.9921 L 0.501328,-3.96844 L 0.749512,-3.92914 L 0.994751,-3.87433
 L 1.23605,-3.80421 L 1.47249,-3.7191 L 1.70311,-3.61929 L 1.927,-3.50522 L 2.1433,-3.3773 L 2.35114,-3.23605
 L 2.54968,-3.08205 L 2.73817,-2.91586 L 2.91586,-2.73817 L 3.08205,-2.54968 L 3.23605,-2.35114 L 3.3773,-2.1433
 L 3.50522,-1.927 L 3.61929,-1.70311 L 3.7191,-1.47249 L 3.80421,-1.23605 L 3.87433,-0.994751 L 3.92914,-0.749512
 L 3.96844,-0.501328 L 3.9921,-0.25116 L 4,-0 L 3.9921,0.25116 L 3.96844,0.501328 L 3.92914,0.749512
 L 3.87433,0.994751 L 3.80421,1.23605 L 3.7191,1.47249 L 3.61929,1.70311 L 3.50522,1.927 L 3.3773,2.1433
 L 3.23605,2.35114 L 3.08205,2.54968 L 2.91586,2.73817 L 2.73817,2.91586 L 2.54968,3.08205 L 2.35114,3.23605
 L 2.1433,3.3773 L 1.927,3.50522 L 1.70311,3.61929 L 1.47249,3.7191 L 1.23605,3.80421 L 0.994751,3.87433
 L 0.749512,3.92914 L 0.501328,3.96844 L 0.25116,3.9921 L 0,4 z
M -10.0628,0.998016 L -10.1253,0.992111 L -10.1874,0.982285 L -10.2487,0.968582 L -10.309,0.95105 L -10.3681,0.929764
 L -10.4258,0.904816 L -10.4818,0.876297 L -10.5358,0.844315 L -10.5878,0.809006 L -10.6374,0.770508 L -10.6845,0.728958
 L -10.729,0.68454 L -10.7705,0.637421 L -10.809,0.587784 L -10.8443,0.535812 L -10.8763,0.48175 L -10.9048,0.425766
 L -10.9298,0.368118 L -10.951,0.309006 L -10.9686,0.248688 L -10.9823,0.187378 L -10.9921,0.12532 L -10.998,0.0627899
 L -11,-0 L -10.998,-0.0627899 L -10.9921,-0.12532 L -10.9823,-0.187378 L -10.9686,-0.248688 L -10.951,-0.309006
 L -10.9298,-0.368118 L -10.9048,-0.425766 L -10.8763,-0.48175 L -10.8443,-0.535812 L -10.809,-0.587784 L -10.7705,-0.637421
 L -10.729,-0.68454 L -10.6845,-0.728958 L -10.6374,-0.770508 L -10.5878,-0.809006 L -10.5358,-0.844315 L -10.4818,-0.876297
 L -10.4258,-0.904816 L -10.3681,-0.929764 L -10.309,-0.95105 L -10.2487,-0.968582 L -10.1874,-0.982285 L -10.1253,-0.992111
 L -10.0628,-0.998016 L -10,-1 L -9.93719,-0.998016 L -9.87466,-0.992111 L -9.81261,-0.982285 L -9.7513,-0.968582
 L -9.69098,-0.95105 L -9.63187,-0.929764 L -9.57422,-0.904816 L -9.51823,-0.876297 L -9.46417,-0.844315 L -9.4122,-0.809006
 L -9.36256,-0.770508 L -9.31544,-0.728958 L -9.27103,-0.68454 L -9.22948,-0.637421 L -9.19098,-0.587784 L -9.15567,-0.535812
 L -9.12369,-0.48175 L -9.09517,-0.425766 L -9.07022,-0.368118 L -9.04893,-0.309006 L -9.0314,-0.248688 L -9.0177,-0.187378
 L -9.00787,-0.12532 L -9.00197,-0.0627899 L -9,-0 L -9.00197,0.0627899 L -9.00787,0.12532 L -9.0177,0.187378
 L -9.0314,0.248688 L -9.04893,0.309006 L -9.07022,0.368118 L -9.09517,0.425766 L -9.12369,0.48175 L -9.15567,0.535812
 L -9.19098,0.587784 L -9.22948,0.637421 L -9.27103,0.68454 L -9.31544,0.728958 L -9.36256,0.770508 L -9.4122,0.809006
 L -9.46417,0.844315 L -9.51823,0.876297 L -9.57422,0.904816 L -9.63187,0.929764 L -9.69098,0.95105 L -9.7513,0.968582
 L -9.81261,0.982285 L -9.87466,0.992111 L -9.93719,0.998016 L -10,1 z
M 9.93719,0.998016 L 9.87466,0.992111 L 9.81261,0.982285 L 9.7513,0.968582 L 9.69098,0.95105 L 9.63187,0.929764
 L 9.57422,0.904816 L 9.51823,0.876297 L 9.46417,0.844315 L 9.4122,0.809006 L 9.36256,0.770508 L 9.31544,0.728958
 L 9.27103,0.68454 L 9.22948,0.637421 L 9.19098,0.587784 L 9.15567,0.535812 L 9.12369,0.48175 L 9.09517,0.425766
 L 9.07022,0.368118 L 9.04893,0.309006 L 9.0314,0.248688 L 9.0177,0.187378 L 9.00787,0.12532 L 9.00197,0.0627899
 L 9,-0 L 9.00197,-0.0627899 L 9.00787,-0.12532 L 9.0177,-0.187378 L 9.0314,-0.248688 L 9.04893,-0.309006
 L 9.07022,-0.368118 L 9.09517,-0.425766 L 9.12369,-0.48175 L 9.15567,-0.535812 L 9.19098,-0.587784 L 9.22948,-0.637421
 L 9.27103,-0.68454 L 9.31544,-0.728958 L 9.36256,-0.770508 L 9.4122,-0.809006 L 9.46417,-0.844315 L 9.51823,-0.876297
 L 9.57422,-0.904816 L 9.63187,-0.929764 L 9.69098,-0.95105 L 9.7513,-0.968582 L 9.81261,-0.982285 L 9.87466,-0.992111
 L 9.93719,-0.998016 L 10,-1 L 10.0628,-0.998016 L 10.1253,-0.992111 L 10.1874,-0.982285 L 10.2487,-0.968582
 L 10.309,-0.95105 L 10.3681,-0.929764 L 10.4258,-0.904816 L 10.4818,-0.876297 L 10.5358,-0.844315 L 10.5878,-0.809006
 L 10.6374,-0.770508 L 10.6845,-0.728958 L 10.729,-0.68454 L 10.7705,-0.637421 L 10.809,-0.587784 L 10.8443,-0.535812
 L 10.8763,-0.48175 L 10.9048,-0.425766 L 10.9298,-0.368118 L 10.951,-0.309006 L 10.9686,-0.248688 L 10.9823,-0.187378
 L 10.9921,-0.12532 L 10.998,-0.0627899 L 11,-0 L 10.998,0.0627899 L 10.9921,0.12532 L 10.9823,0.187378
 L 10.9686,0.248688 L 10.951,0.309006 L 10.9298,0.368118 L 10.9048,0.425766 L 10.8763,0.48175 L 10.8443,0.535812
 L 10.809,0.587784 L 10.7705,0.637421 L 10.729,0.68454 L 10.6845,0.728958 L 10.6374,0.770508 L 10.5878,0.809006
 L 10.5358,0.844315 L 10.4818,0.876297 L 10.4258,0.904816 L 10.3681,0.929764 L 10.309,0.95105 L 10.2487,0.968582
 L 10.1874,0.982285 L 10.1253,0.992111 L 10.0628,0.998016 L 10,1 z
M 40.1193,15.7962 L 40.2381,15.785 L 40.356,15.7663 L 40.4725,15.7403 L 40.5871,15.707 L 40.6994,15.6666
 L 40.809,15.6192 L 40.9153,15.565 L 41.0181,15.5042 L 41.1168,15.4371 L 41.2111,15.364 L 41.3006,15.285
 L 41.385,15.2006 L 41.464,15.1111 L 54.6342,-0.282486 L 54.6342,-0.289124 L 54.8419,-0.496811 L 55.2365,-0.944473
 L 55.6023,-1.41605 L 55.9378,-1.90965 L 56.2416,-2.42336 L 56.5125,-2.95511 L 56.7495,-3.50282 L 56.9517,-4.06435
 L 57.1182,-4.63745 L 57.2484,-5.21988 L 57.3418,-5.80934 L 57.3979,-6.4035 L 57.4167,-7 L 57.3979,-7.5965
 L 57.3418,-8.19066 L 57.2484,-8.78012 L 57.1182,-9.36255 L 56.9517,-9.93565 L 56.7495,-10.4972 L 56.5125,-11.0449
 L 56.2416,-11.5766 L 55.9378,-12.0903 L 55.6023,-12.584 L 55.2365,-13.0555 L 54.8419,-13.5032 L 54.4199,-13.9252
 L 53.9722,-14.3199 L 53.5006,-14.6857 L 53.007,-15.0211 L 52.4933,-15.3249 L 51.9616,-15.5959 L 51.4138,-15.8329
 L 50.8523,-16.035 L 50.2792,-16.2015 L 49.6968,-16.3317 L 49.1073,-16.4251 L 48.5132,-16.4812 L 47.9167,-16.5
 L 47.3201,-16.4812 L 46.726,-16.4251 L 46.1365,-16.3317 L 45.5541,-16.2015 L 44.981,-16.035 L 44.4195,-15.8329
 L 43.8717,-15.5959 L 43.34,-15.3249 L 42.8263,-15.0211 L 42.3327,-14.6857 L 41.8611,-14.3199 L 41.4135,-13.9252
 L 40.9915,-13.5032 L 40.5968,-13.0555 L 40.231,-12.584 L 40.174,-12.5 L 48,-12.5 L 48,2.5
 L 46,2.5 L 46,6 L 34,6 L 34,2.5 L 32,2.5 L 32,-12.5
 L 39.826,-12.5 L 39.769,-12.584 L 39.4032,-13.0555 L 39.0085,-13.5032 L 38.5865,-13.9252 L 38.1389,-14.3199
 L 37.6673,-14.6857 L 37.1737,-15.0211 L 36.66,-15.3249 L 36.1283,-15.5959 L 35.5805,-15.8329 L 35.019,-16.035
 L 34.4459,-16.2015 L 33.8635,-16.3317 L 33.274,-16.4251 L 32.6799,-16.4812 L 32.0833,-16.5 L 31.4868,-16.4812
 L 30.8927,-16.4251 L 30.3032,-16.3317 L 29.7208,-16.2015 L 29.1477,-16.035 L 28.5862,-15.8329 L 28.0384,-15.5959
 L 27.5067,-15.3249 L 26.993,-15.0211 L 26.4994,-14.6857 L 26.0278,-14.3199 L 25.5801,-13.9252 L 25.1581,-13.5032
 L 24.7635,-13.0555 L 24.3977,-12.584 L 24.0622,-12.0903 L 23.7584,-11.5766 L 23.4875,-11.0449 L 23.2505,-10.4972
 L 23.0483,-9.93565 L 22.8818,-9.36255 L 22.7516,-8.78012 L 22.6582,-8.19066 L 22.6021,-7.5965 L 22.5833,-7
 L 22.6021,-6.4035 L 22.6582,-5.80934 L 22.7516,-5.21988 L 22.8818,-4.63745 L 23.0483,-4.06435 L 23.2505,-3.50282
 L 23.4875,-2.95511 L 23.7584,-2.42336 L 24.0622,-1.90965 L 24.3977,-1.41605 L 24.7635,-0.944473 L 25.1581,-0.496811
 L 25.3658,-0.289124 L 25.3658,-0.282486 L 38.536,15.1111 L 38.615,15.2006 L 38.6994,15.285 L 38.7889,15.364
 L 38.8832,15.4371 L 38.9819,15.5042 L 39.0847,15.565 L 39.191,15.6192 L 39.3006,15.6666 L 39.4129,15.707
 L 39.5275,15.7403 L 39.644,15.7663 L 39.7619,15.785 L 39.8807,15.7962 L 40,15.8 z
M 29.9372,-11.002 L 29.8747,-11.0079 L 29.8126,-11.0177 L 29.7513,-11.0314 L 29.691,-11.0489 L 29.6319,-11.0702
 L 29.5742,-11.0952 L 29.5182,-11.1237 L 29.4642,-11.1557 L 29.4122,-11.191 L 29.3626,-11.2295 L 29.3155,-11.271
 L 29.271,-11.3154 L 29.2295,-11.3626 L 29.191,-11.4122 L 29.1557,-11.4642 L 29.1237,-11.5182 L 29.0952,-11.5742
 L 29.0702,-11.6319 L 29.049,-11.691 L 29.0314,-11.7513 L 29.0177,-11.8126 L 29.0079,-11.8747 L 29.002,-11.9372
 L 29,-12 L 29.002,-12.0628 L 29.0079,-12.1253 L 29.0177,-12.1874 L 29.0314,-12.2487 L 29.049,-12.309
 L 29.0702,-12.3681 L 29.0952,-12.4258 L 29.1237,-12.4818 L 29.1557,-12.5358 L 29.191,-12.5878 L 29.2295,-12.6374
 L 29.271,-12.6845 L 29.3155,-12.729 L 29.3626,-12.7705 L 29.4122,-12.809 L 29.4642,-12.8443 L 29.5182,-12.8763
 L 29.5742,-12.9048 L 29.6319,-12.9298 L 29.691,-12.951 L 29.7513,-12.9686 L 29.8126,-12.9823 L 29.8747,-12.9921
 L 29.9372,-12.998 L 30,-13 L 30.0628,-12.998 L 30.1253,-12.9921 L 30.1874,-12.9823 L 30.2487,-12.9686
 L 30.309,-12.951 L 30.3681,-12.9298 L 30.4258,-12.9048 L 30.4818,-12.8763 L 30.5358,-12.8443 L 30.5878,-12.809
 L 30.6374,-12.7705 L 30.6846,-12.729 L 30.729,-12.6845 L 30.7705,-12.6374 L 30.809,-12.5878 L 30.8443,-12.5358
 L 30.8763,-12.4818 L 30.9048,-12.4258 L 30.9298,-12.3681 L 30.9511,-12.309 L 30.9686,-12.2487 L 30.9823,-12.1874
 L 30.9921,-12.1253 L 30.998,-12.0628 L 31,-12 L 30.998,-11.9372 L 30.9921,-11.8747 L 30.9823,-11.8126
 L 30.9686,-11.7513 L 30.9511,-11.691 L 30.9298,-11.6319 L 30.9048,-11.5742 L 30.8763,-11.5182 L 30.8443,-11.4642
 L 30.809,-11.4122 L 30.7705,-11.3626 L 30.729,-11.3154 L 30.6846,-11.271 L 30.6374,-11.2295 L 30.5878,-11.191
 L 30.5358,-11.1557 L 30.4818,-11.1237 L 30.4258,-11.0952 L 30.3681,-11.0702 L 30.309,-11.0489 L 30.2487,-11.0314
 L 30.1874,-11.0177 L 30.1253,-11.0079 L 30.0628,-11.002 L 30,-11 z
M 49.9372,-11.002 L 49.8747,-11.0079 L 49.8126,-11.0177 L 49.7513,-11.0314 L 49.691,-11.0489 L 49.6319,-11.0702
 L 49.5742,-11.0952 L 49.5182,-11.1237 L 49.4642,-11.1557 L 49.4122,-11.191 L 49.3626,-11.2295 L 49.3154,-11.271
 L 49.271,-11.3154 L 49.2295,-11.3626 L 49.191,-11.4122 L 49.1557,-11.4642 L 49.1237,-11.5182 L 49.0952,-11.5742
 L 49.0702,-11.6319 L 49.0489,-11.691 L 49.0314,-11.7513 L 49.0177,-11.8126 L 49.0079,-11.8747 L 49.002,-11.9372
 L 49,-12 L 49.002,-12.0628 L 49.0079,-12.1253 L 49.0177,-12.1874 L 49.0314,-12.2487 L 49.0489,-12.309
 L 49.0702,-12.3681 L 49.0952,-12.4258 L 49.1237,-12.4818 L 49.1557,-12.5358 L 49.191,-12.5878 L 49.2295,-12.6374
 L 49.271,-12.6845 L 49.3154,-12.729 L 49.3626,-12.7705 L 49.4122,-12.809 L 49.4642,-12.8443 L 49.5182,-12.8763
 L 49.5742,-12.9048 L 49.6319,-12.9298 L 49.691,-12.951 L 49.7513,-12.9686 L 49.8126,-12.9823 L 49.8747,-12.9921
 L 49.9372,-12.998 L 50,-13 L 50.0628,-12.998 L 50.1253,-12.9921 L 50.1874,-12.9823 L 50.2487,-12.9686
 L 50.309,-12.951 L 50.3681,-12.9298 L 50.4258,-12.9048 L 50.4818,-12.8763 L 50.5358,-12.8443 L 50.5878,-12.809
 L 50.6374,-12.7705 L 50.6845,-12.729 L 50.729,-12.6845 L 50.7705,-12.6374 L 50.809,-12.5878 L 50.8443,-12.5358
 L 50.8763,-12.4818 L 50.9048,-12.4258 L 50.9298,-12.3681 L 50.951,-12.309 L 50.9686,-12.2487 L 50.9823,-12.1874
 L 50.9921,-12.1253 L 50.998,-12.0628 L 51,-12 L 50.998,-11.9372 L 50.9921,-11.8747 L 50.9823,-11.8126
 L 50.9686,-11.7513 L 50.951,-11.691 L 50.9298,-11.6319 L 50.9048,-11.5742 L 50.8763,-11.5182 L 50.8443,-11.4642
 L 50.809,-11.4122 L 50.7705,-11.3626 L 50.729,-11.3154 L 50.6845,-11.271 L 50.6374,-11.2295 L 50.5878,-11.191
 L 50.5358,-11.1557 L 50.4818,-11.1237 L 50.4258,-11.0952 L 50.3681,-11.0702 L 50.309,-11.0489 L 50.2487,-11.0314
 L 50.1874,-11.0177 L 50.1253,-11.0079 L 50.0628,-11.002 L 50,-11 z
M 29.9372,0.998016 L 29.8747,0.992111 L 29.8126,0.982285 L 29.7513,0.968582 L 29.691,0.95105 L 29.6319,0.929764
 L 29.5742,0.904816 L 29.5182,0.876297 L 29.4642,0.844315 L 29.4122,0.809006 L 29.3626,0.770508 L 29.3155,0.728958
 L 29.271,0.68454 L 29.2295,0.637421 L 29.191,0.587784 L 29.1557,0.535812 L 29.1237,0.48175 L 29.0952,0.425766
 L 29.0702,0.368118 L 29.049,0.309006 L 29.0314,0.248688 L 29.0177,0.187378 L 29.0079,0.12532 L 29.002,0.0627899
 L 29,-0 L 29.002,-0.0627899 L 29.0079,-0.12532 L 29.0177,-0.187378 L 29.0314,-0.248688 L 29.049,-0.309006
 L 29.0702,-0.368118 L 29.0952,-0.425766 L 29.1237,-0.48175 L 29.1557,-0.535812 L 29.191,-0.587784 L 29.2295,-0.637421
 L 29.271,-0.68454 L 29.3155,-0.728958 L 29.3626,-0.770508 L 29.4122,-0.809006 L 29.4642,-0.844315 L 29.5182,-0.876297
 L 29.5742,-0.904816 L 29.6319,-0.929764 L 29.691,-0.95105 L 29.7513,-0.968582 L 29.8126,-0.982285 L 29.8747,-0.992111
 L 29.9372,-0.998016 L 30,-1 L 30.0628,-0.998016 L 30.1253,-0.992111 L 30.1874,-0.982285 L 30.2487,-0.968582
 L 30.309,-0.95105 L 30.3681,-0.929764 L 30.4258,-0.904816 L 30.4818,-0.876297 L 30.5358,-0.844315 L 30.5878,-0.809006
 L 30.6374,-0.770508 L 30.6846,-0.728958 L 30.729,-0.68454 L 30.7705,-0.637421 L 30.809,-0.587784 L 30.8443,-0.535812
 L 30.8763,-0.48175 L 30.9048,-0.425766 L 30.9298,-0.368118 L 30.9511,-0.309006 L 30.9686,-0.248688 L 30.9823,-0.187378
 L 30.9921,-0.12532 L 30.998,-0.0627899 L 31,-0 L 30.998,0.0627899 L 30.9921,0.12532 L 30.9823,0.187378
 L 30.9686,0.248688 L 30.9511,0.309006 L 30.9298,0.368118 L 30.9048,0.425766 L 30.8763,0.48175 L 30.8443,0.535812
 L 30.809,0.587784 L 30.7705,0.637421 L 30.729,0.68454 L 30.6846,0.728958 L 30.6374,0.770508 L 30.5878,0.809006
 L 30.5358,0.844315 L 30.4818,0.876297 L 30.4258,0.904816 L 30.3681,0.929764 L 30.309,0.95105 L 30.2487,0.968582
 L 30.1874,0.982285 L 30.1253,0.992111 L 30.0628,0.998016 L 30,1 z
M 49.9372,0.998016 L 49.8747,0.992111 L 49.8126,0.982285 L 49.7513,0.968582 L 49.691,0.95105 L 49.6319,0.929764
 L 49.5742,0.904816 L 49.5182,0.876297 L 49.4642,0.844315 L 49.4122,0.809006 L 49.3626,0.770508 L 49.3154,0.728958
 L 49.271,0.68454 L 49.2295,0.637421 L 49.191,0.587784 L 49.1557,0.535812 L 49.1237,0.48175 L 49.0952,0.425766
 L 49.0702,0.368118 L 49.0489,0.309006 L 49.0314,0.248688 L 49.0177,0.187378 L 49.0079,0.12532 L 49.002,0.0627899
 L 49,-0 L 49.002,-0.0627899 L 49.0079,-0.12532 L 49.0177,-0.187378 L 49.0314,-0.248688 L 49.0489,-0.309006
 L 49.0702,-0.368118 L 49.0952,-0.425766 L 49.1237,-0.48175 L 49.1557,-0.535812 L 49.191,-0.587784 L 49.2295,-0.637421
 L 49.271,-0.68454 L 49.3154,-0.728958 L 49.3626,-0.770508 L 49.4122,-0.809006 L 49.4642,-0.844315 L 49.5182,-0.876297
 L 49.5742,-0.904816 L 49.6319,-0.929764 L 49.691,-0.95105 L 49.7513,-0.968582 L 49.8126,-0.982285 L 49.8747,-0.992111
 L 49.9372,-0.998016 L 50,-1 L 50.0628,-0.998016 L 50.1253,-0.992111 L 50.1874,-0.982285 L 50.2487,-0.968582
 L 50.309,-0.95105 L 50.3681,-0.929764 L 50.4258,-0.904816 L 50.4818,-0.876297 L 50.5358,-0.844315 L 50.5878,-0.809006
 L 50.6374,-0.770508 L 50.6845,-0.728958 L 50.729,-0.68454 L 50.7705,-0.637421 L 50.809,-0.587784 L 50.8443,-0.535812
 L 50.8763,-0.48175 L 50.9048,-0.425766 L 50.9298,-0.368118 L 50.951,-0.309006 L 50.9686,-0.248688 L 50.9823,-0.187378
 L 50.9921,-0.12532 L 50.998,-0.0627899 L 51,-0 L 50.998,0.0627899 L 50.9921,0.12532 L 50.9823,0.187378
 L 50.9686,0.248688 L 50.951,0.309006 L 50.9298,0.368118 L 50.9048,0.425766 L 50.8763,0.48175 L 50.8443,0.535812
 L 50.809,0.587784 L 50.7705,0.637421 L 50.729,0.68454 L 50.6845,0.728958 L 50.6374,0.770508 L 50.5878,0.809006
 L 50.5358,0.844315 L 50.4818,0.876297 L 50.4258,0.904816 L 50.3681,0.929764 L 50.309,0.95105 L 50.2487,0.968582
 L 50.1874,0.982285 L 50.1253,0.992111 L 50.0628,0.998016 L 50,1 z
" stroke="black" fill="none" stroke-width="0.5"/></svg>
