<?xml version="1.0" standalone="no"?>
<!DOCTYPE svg PUBLIC "-//W3C//DTD SVG 1.1//EN" "http://www.w3.org/Graphics/SVG/1.1/DTD/svg11.dtd">
<svg width="267" height="157" viewBox="-36 -116 267 157" xmlns="http://www.w3.org/2000/svg" version="1.1">
<title>OpenSCAD Model</title>
<path d="
M 6.69887,-44.3832 L 11.0473,-45.4997 L 15.2216,-47.1524 L 19.1558,-49.3153 L 22.7879,-51.9542 L 26.0606,-55.0275
 L 28.9223,-58.4867 L 31.328,-62.2773 L 33.2395,-66.3396 L 34.6268,-70.6093 L 35.4681,-75.0193 L 35.75,-79.5
 L 35.4681,-83.9807 L 34.6268,-88.3907 L 33.2395,-92.6604 L 31.328,-96.7227 L 28.9223,-100.513 L 26.0606,-103.973
 L 22.7879,-107.046 L 19.1558,-109.685 L 15.2216,-111.848 L 11.0473,-113.5 L 6.69887,-114.617 L 2.24475,-115.179
 L -2.24475,-115.179 L -6.69887,-114.617 L -11.0473,-113.5 L -15.2216,-111.848 L -19.1558,-109.685 L -22.2791,-107.416
 L -22.2791,-106.02 L -14.1131,-97.8536 L -13.8729,-97.5634 L -13.6711,-97.2453 L -13.5107,-96.9044 L -13.3942,-96.5461
 L -13.3237,-96.176 L -13.3,-95.8 L -13.3237,-95.424 L -13.3942,-95.0539 L -13.5107,-94.6956 L -13.6711,-94.3547
 L -13.8729,-94.0366 L -14.1131,-93.7464 L -14.3877,-93.4884 L -14.6925,-93.267 L -15.0227,-93.0855 L -15.3729,-92.9468
 L -15.7379,-92.8531 L -16.1116,-92.8059 L -16.4884,-92.8059 L -16.8621,-92.8531 L -17.2271,-92.9468 L -17.5773,-93.0855
 L -17.9075,-93.267 L -18.2123,-93.4884 L -18.4869,-93.7464 L -26.5196,-101.779 L -27.8752,-101.779 L -28.9223,-100.513
 L -31.328,-96.7227 L -33.2395,-92.6604 L -34.6268,-88.3907 L -35.4681,-83.9807 L -35.75,-79.5 L -35.4681,-75.0193
 L -34.6268,-70.6093 L -33.2395,-66.3396 L -31.328,-62.2773 L -28.9223,-58.4867 L -26.0606,-55.0275 L -22.7879,-51.9542
 L -19.1558,-49.3153 L -15.2216,-47.1524 L -11.0473,-45.4997 L -6.69887,-44.3832 L -2.24475,-43.8206 L 2.24475,-43.8206
 z
M -0.0627899,-98.502 L -0.187378,-98.5177 L -0.309006,-98.5489 L -0.425766,-98.5952 L -0.535812,-98.6557 L -0.637421,-98.7295
 L -0.728958,-98.8154 L -0.809006,-98.9122 L -0.876297,-99.0182 L -0.929764,-99.1319 L -0.968582,-99.2513 L -0.992111,-99.3747
 L -1,-99.5 L -0.992111,-99.6253 L -0.968582,-99.7487 L -0.929764,-99.8681 L -0.876297,-99.9818 L -0.809006,-100.088
 L -0.728958,-100.185 L -0.637421,-100.271 L -0.535812,-100.344 L -0.425766,-100.405 L -0.309006,-100.451 L -0.187378,-100.482
 L -0.0627899,-100.498 L 0.0627899,-100.498 L 0.187378,-100.482 L 0.309006,-100.451 L 0.425766,-100.405 L 0.535812,-100.344
 L 0.637421,-100.271 L 0.728958,-100.185 L 0.809006,-100.088 L 0.876297,-99.9818 L 0.929764,-99.8681 L 0.968582,-99.7487
 L 0.992111,-99.6253 L 1,-99.5 L 0.992111,-99.3747 L 0.968582,-99.2513 L 0.929764,-99.1319 L 0.876297,-99.0182
 L 0.809006,-98.9122 L 0.728958,-98.8154 L 0.637421,-98.7295 L 0.535812,-98.6557 L 0.425766,-98.5952 L 0.309006,-98.5489
 L 0.187378,-98.5177 L 0.0627899,-98.502 z
M -30,-70.3333 L -30,-88.6667 L -27,-88.6667 L -27,-70.3333 z
M 27,-70.3333 L 27,-88.6667 L 30,-88.6667 L 30,-70.3333 z
M 19.9372,-78.502 L 19.8126,-78.5177 L 19.691,-78.549 L 19.5742,-78.5952 L 19.4642,-78.6557 L 19.3626,-78.7295
 L 19.271,-78.8155 L 19.191,-78.9122 L 19.1237,-79.0182 L 19.0702,-79.1319 L 19.0314,-79.2513 L 19.0079,-79.3747
 L 19,-79.5 L 19.0079,-79.6253 L 19.0314,-79.7487 L 19.0702,-79.8681 L 19.1237,-79.9818 L 19.191,-80.0878
 L 19.271,-80.1845 L 19.3626,-80.2705 L 19.4642,-80.3443 L 19.5742,-80.4048 L 19.691,-80.451 L 19.8126,-80.4823
 L 19.9372,-80.498 L 20.0628,-80.498 L 20.1874,-80.4823 L 20.309,-80.451 L 20.4258,-80.4048 L 20.5358,-80.3443
 L 20.6374,-80.2705 L 20.729,-80.1845 L 20.809,-80.0878 L 20.8763,-79.9818 L 20.9298,-79.8681 L 20.9686,-79.7487
 L 20.9921,-79.6253 L 21,-79.5 L 20.9921,-79.3747 L 20.9686,-79.2513 L 20.9298,-79.1319 L 20.8763,-79.0182
 L 20.809,-78.9122 L 20.729,-78.8155 L 20.6374,-78.7295 L 20.5358,-78.6557 L 20.4258,-78.5952 L 20.309,-78.549
 L 20.1874,-78.5177 L 20.0628,-78.502 z
M -20.0628,-78.502 L -20.1874,-78.5177 L -20.309,-78.549 L -20.4258,-78.5952 L -20.5358,-78.6557 L -20.6374,-78.7295
 L -20.729,-78.8155 L -20.809,-78.9122 L -20.8763,-79.0182 L -20.9298,-79.1319 L -20.9686,-79.2513 L -20.9921,-79.3747
 L -21,-79.5 L -20.9921,-79.6253 L -20.9686,-79.7487 L -20.9298,-79.8681 L -20.8763,-79.9818 L -20.809,-80.0878
 L -20.729,-80.1845 L -20.6374,-80.2705 L -20.5358,-80.3443 L -20.4258,-80.4048 L -20.309,-80.451 L -20.1874,-80.4823
 L -20.0628,-80.498 L -19.9372,-80.498 L -19.8126,-80.4823 L -19.691,-80.451 L -19.5742,-80.4048 L -19.4642,-80.3443
 L -19.3626,-80.2705 L -19.271,-80.1845 L -19.191,-80.0878 L -19.1237,-79.9818 L -19.0702,-79.8681 L -19.0314,-79.7487
 L -19.0079,-79.6253 L -19,-79.5 L -19.0079,-79.3747 L -19.0314,-79.2513 L -19.0702,-79.1319 L -19.1237,-79.0182
 L -19.191,-78.9122 L -19.271,-78.8155 L -19.3626,-78.7295 L -19.4642,-78.6557 L -19.5742,-78.5952 L -19.691,-78.549
 L -19.8126,-78.5177 L -19.9372,-78.502 z
M -0.0627899,-78.502 L -0.187378,-78.5177 L -0.309006,-78.549 L -0.425766,-78.5952 L -0.535812,-78.6557 L -0.637421,-78.7295
 L -0.728958,-78.8155 L -0.809006,-78.9122 L -0.876297,-79.0182 L -0.929764,-79.1319 L -0.968582,-79.2513 L -0.992111,-79.3747
 L -1,-79.5 L -0.992111,-79.6253 L -0.968582,-79.7487 L -0.929764,-79.8681 L -0.876297,-79.9818 L -0.809006,-80.0878
 L -0.728958,-80.1845 L -0.637421,-80.2705 L -0.535812,-80.3443 L -0.425766,-80.4048 L -0.309006,-80.451 L -0.187378,-80.4823
 L -0.0627899,-80.498 L 0.0627899,-80.498 L 0.187378,-80.4823 L 0.309006,-80.451 L 0.425766,-80.4048 L 0.535812,-80.3443
 L 0.637421,-80.2705 L 0.728958,-80.1845 L 0.809006,-80.0878 L 0.876297,-79.9818 L 0.929764,-79.8681 L 0.968582,-79.7487
 L 0.992111,-79.6253 L 1,-79.5 L 0.992111,-79.3747 L 0.968582,-79.2513 L 0.929764,-79.1319 L 0.876297,-79.0182
 L 0.809006,-78.9122 L 0.728958,-78.8155 L 0.637421,-78.7295 L 0.535812,-78.6557 L 0.425766,-78.5952 L 0.309006,-78.549
 L 0.187378,-78.5177 L 0.0627899,-78.502 z
M -0.0627899,-58.502 L -0.187378,-58.5177 L -0.309006,-58.549 L -0.425766,-58.5952 L -0.535812,-58.6557 L -0.637421,-58.7295
 L -0.728958,-58.8155 L -0.809006,-58.9122 L -0.876297,-59.0182 L -0.929764,-59.1319 L -0.968582,-59.2513 L -0.992111,-59.3747
 L -1,-59.5 L -0.992111,-59.6253 L -0.968582,-59.7487 L -0.929764,-59.8681 L -0.876297,-59.9818 L -0.809006,-60.0878
 L -0.728958,-60.1846 L -0.637421,-60.2705 L -0.535812,-60.3443 L -0.425766,-60.4048 L -0.309006,-60.4511 L -0.187378,-60.4823
 L -0.0627899,-60.498 L 0.0627899,-60.498 L 0.187378,-60.4823 L 0.309006,-60.4511 L 0.425766,-60.4048 L 0.535812,-60.3443
 L 0.637421,-60.2705 L 0.728958,-60.1846 L 0.809006,-60.0878 L 0.876297,-59.9818 L 0.929764,-59.8681 L 0.968582,-59.7487
 L 0.992111,-59.6253 L 1,-59.5 L 0.992111,-59.3747 L 0.968582,-59.2513 L 0.929764,-59.1319 L 0.876297,-59.0182
 L 0.809006,-58.9122 L 0.728958,-58.8155 L 0.637421,-58.7295 L 0.535812,-58.6557 L 0.425766,-58.5952 L 0.309006,-58.549
 L 0.187378,-58.5177 L 0.0627899,-58.502 z
M 219.167,-95 L 225,-95 L 225,-105 L 219.167,-105 L 219.167,-108 L 200.833,-108
 L 200.833,-105 L 195,-105 L 195,-95 L 200.833,-95 L 200.833,-92 L 219.167,-92
 z
M 112.624,-77.1063 L 113.354,-77.2937 L 114.055,-77.571 L 114.715,-77.934 L 115.325,-78.3769 L 115.874,-78.8927
 L 116.354,-79.4733 L 116.758,-80.1095 L 117.079,-80.7913 L 117.311,-81.5079 L 117.453,-82.248 L 117.5,-83
 L 117.5,-97 L 117.453,-97.752 L 117.311,-98.4921 L 117.079,-99.2087 L 116.758,-99.8905 L 116.354,-100.527
 L 115.874,-101.107 L 115.325,-101.623 L 114.715,-102.066 L 114.055,-102.429 L 113.354,-102.706 L 112.624,-102.894
 L 111.877,-102.988 L 48.1233,-102.988 L 47.3757,-102.894 L 46.6459,-102.706 L 45.9453,-102.429 L 45.285,-102.066
 L 44.6755,-101.623 L 44.1262,-101.107 L 43.6459,-100.527 L 43.2422,-99.8905 L 42.9214,-99.2087 L 42.6885,-98.4921
 L 42.5473,-97.752 L 42.5,-97 L 42.5,-83 L 42.5473,-82.248 L 42.6885,-81.5079 L 42.9214,-80.7913
 L 43.2422,-80.1095 L 43.6459,-79.4733 L 44.1262,-78.8927 L 44.6755,-78.3769 L 45.285,-77.934 L 45.9453,-77.571
 L 46.6459,-77.2937 L 47.3757,-77.1063 L 48.1233,-77.0118 L 111.877,-77.0118 z
M 79.9372,-98.502 L 79.8126,-98.5177 L 79.691,-98.5489 L 79.5742,-98.5952 L 79.4642,-98.6557 L 79.3626,-98.7295
 L 79.271,-98.8154 L 79.191,-98.9122 L 79.1237,-99.0182 L 79.0702,-99.1319 L 79.0314,-99.2513 L 79.0079,-99.3747
 L 79,-99.5 L 79.0079,-99.6253 L 79.0314,-99.7487 L 79.0702,-99.8681 L 79.1237,-99.9818 L 79.191,-100.088
 L 79.271,-100.185 L 79.3626,-100.271 L 79.4642,-100.344 L 79.5742,-100.405 L 79.691,-100.451 L 79.8126,-100.482
 L 79.9372,-100.498 L 80.0628,-100.498 L 80.1874,-100.482 L 80.309,-100.451 L 80.4258,-100.405 L 80.5358,-100.344
 L 80.6374,-100.271 L 80.729,-100.185 L 80.809,-100.088 L 80.8763,-99.9818 L 80.9298,-99.8681 L 80.9686,-99.7487
 L 80.9921,-99.6253 L 81,-99.5 L 80.9921,-99.3747 L 80.9686,-99.2513 L 80.9298,-99.1319 L 80.8763,-99.0182
 L 80.809,-98.9122 L 80.729,-98.8154 L 80.6374,-98.7295 L 80.5358,-98.6557 L 80.4258,-98.5952 L 80.309,-98.5489
 L 80.1874,-98.5177 L 80.0628,-98.502 z
M 46.9372,-95.502 L 46.8126,-95.5177 L 46.691,-95.5489 L 46.5742,-95.5952 L 46.4642,-95.6557 L 46.3626,-95.7295
 L 46.271,-95.8154 L 46.191,-95.9122 L 46.1237,-96.0182 L 46.0702,-96.1319 L 46.0314,-96.2513 L 46.0079,-96.3747
 L 46,-96.5 L 46.0079,-96.6253 L 46.0314,-96.7487 L 46.0702,-96.8681 L 46.1237,-96.9818 L 46.191,-97.0878
 L 46.271,-97.1845 L 46.3626,-97.2705 L 46.4642,-97.3443 L 46.5742,-97.4048 L 46.691,-97.451 L 46.8126,-97.4823
 L 46.9372,-97.498 L 47.0628,-97.498 L 47.1874,-97.4823 L 47.309,-97.451 L 47.4258,-97.4048 L 47.5358,-97.3443
 L 47.6374,-97.2705 L 47.729,-97.1845 L 47.809,-97.0878 L 47.8763,-96.9818 L 47.9298,-96.8681 L 47.9686,-96.7487
 L 47.9921,-96.6253 L 48,-96.5 L 47.9921,-96.3747 L 47.9686,-96.2513 L 47.9298,-96.1319 L 47.8763,-96.0182
 L 47.809,-95.9122 L 47.729,-95.8154 L 47.6374,-95.7295 L 47.5358,-95.6557 L 47.4258,-95.5952 L 47.309,-95.5489
 L 47.1874,-95.5177 L 47.0628,-95.502 z
M 112.937,-95.502 L 112.813,-95.5177 L 112.691,-95.5489 L 112.574,-95.5952 L 112.464,-95.6557 L 112.363,-95.7295
 L 112.271,-95.8154 L 112.191,-95.9122 L 112.124,-96.0182 L 112.07,-96.1319 L 112.031,-96.2513 L 112.008,-96.3747
 L 112,-96.5 L 112.008,-96.6253 L 112.031,-96.7487 L 112.07,-96.8681 L 112.124,-96.9818 L 112.191,-97.0878
 L 112.271,-97.1845 L 112.363,-97.2705 L 112.464,-97.3443 L 112.574,-97.4048 L 112.691,-97.451 L 112.813,-97.4823
 L 112.937,-97.498 L 113.063,-97.498 L 113.187,-97.4823 L 113.309,-97.451 L 113.426,-97.4048 L 113.536,-97.3443
 L 113.637,-97.2705 L 113.729,-97.1845 L 113.809,-97.0878 L 113.876,-96.9818 L 113.93,-96.8681 L 113.969,-96.7487
 L 113.992,-96.6253 L 114,-96.5 L 113.992,-96.3747 L 113.969,-96.2513 L 113.93,-96.1319 L 113.876,-96.0182
 L 113.809,-95.9122 L 113.729,-95.8154 L 113.637,-95.7295 L 113.536,-95.6557 L 113.426,-95.5952 L 113.309,-95.5489
 L 113.187,-95.5177 L 113.063,-95.502 z
M 79.6233,-84.0118 L 78.8757,-84.1063 L 78.1459,-84.2937 L 77.4453,-84.571 L 76.785,-84.934 L 76.1755,-85.3769
 L 75.6262,-85.8927 L 75.1459,-86.4733 L 74.7422,-87.1095 L 74.4214,-87.7913 L 74.1885,-88.5079 L 74.0473,-89.248
 L 74,-90 L 74.0473,-90.752 L 74.1885,-91.4921 L 74.4214,-92.2087 L 74.7422,-92.8905 L 75.1459,-93.5267
 L 75.6262,-94.1073 L 76.1755,-94.6231 L 76.785,-95.066 L 77.4453,-95.429 L 78.1459,-95.7063 L 78.8757,-95.8937
 L 79.6233,-95.9882 L 80.3767,-95.9882 L 81.1243,-95.8937 L 81.8541,-95.7063 L 82.5547,-95.429 L 83.215,-95.066
 L 83.8245,-94.6231 L 84.3738,-94.1073 L 84.8541,-93.5267 L 85.2578,-92.8905 L 85.5786,-92.2087 L 85.8115,-91.4921
 L 85.9527,-90.752 L 86,-90 L 85.9527,-89.248 L 85.8115,-88.5079 L 85.5786,-87.7913 L 85.2578,-87.1095
 L 84.8541,-86.4733 L 84.3738,-85.8927 L 83.8245,-85.3769 L 83.215,-84.934 L 82.5547,-84.571 L 81.8541,-84.2937
 L 81.1243,-84.1063 L 80.3767,-84.0118 z
M 89.4372,-89.002 L 89.3126,-89.0177 L 89.191,-89.049 L 89.0742,-89.0952 L 88.9642,-89.1557 L 88.8626,-89.2295
 L 88.771,-89.3155 L 88.691,-89.4122 L 88.6237,-89.5182 L 88.5702,-89.6319 L 88.5314,-89.7513 L 88.5079,-89.8747
 L 88.5,-90 L 88.5079,-90.1253 L 88.5314,-90.2487 L 88.5702,-90.3681 L 88.6237,-90.4818 L 88.691,-90.5878
 L 88.771,-90.6845 L 88.8626,-90.7705 L 88.9642,-90.8443 L 89.0742,-90.9048 L 89.191,-90.951 L 89.3126,-90.9823
 L 89.4372,-90.998 L 89.5628,-90.998 L 89.6874,-90.9823 L 89.809,-90.951 L 89.9258,-90.9048 L 90.0358,-90.8443
 L 90.1374,-90.7705 L 90.229,-90.6845 L 90.309,-90.5878 L 90.3763,-90.4818 L 90.4298,-90.3681 L 90.4686,-90.2487
 L 90.4921,-90.1253 L 90.5,-90 L 90.4921,-89.8747 L 90.4686,-89.7513 L 90.4298,-89.6319 L 90.3763,-89.5182
 L 90.309,-89.4122 L 90.229,-89.3155 L 90.1374,-89.2295 L 90.0358,-89.1557 L 89.9258,-89.0952 L 89.809,-89.049
 L 89.6874,-89.0177 L 89.5628,-89.002 z
M 70.4372,-89.002 L 70.3126,-89.0177 L 70.191,-89.049 L 70.0742,-89.0952 L 69.9642,-89.1557 L 69.8626,-89.2295
 L 69.771,-89.3155 L 69.691,-89.4122 L 69.6237,-89.5182 L 69.5702,-89.6319 L 69.5314,-89.7513 L 69.5079,-89.8747
 L 69.5,-90 L 69.5079,-90.1253 L 69.5314,-90.2487 L 69.5702,-90.3681 L 69.6237,-90.4818 L 69.691,-90.5878
 L 69.771,-90.6845 L 69.8626,-90.7705 L 69.9642,-90.8443 L 70.0742,-90.9048 L 70.191,-90.951 L 70.3126,-90.9823
 L 70.4372,-90.998 L 70.5628,-90.998 L 70.6874,-90.9823 L 70.809,-90.951 L 70.9258,-90.9048 L 71.0358,-90.8443
 L 71.1374,-90.7705 L 71.229,-90.6845 L 71.309,-90.5878 L 71.3763,-90.4818 L 71.4298,-90.3681 L 71.4686,-90.2487
 L 71.4921,-90.1253 L 71.5,-90 L 71.4921,-89.8747 L 71.4686,-89.7513 L 71.4298,-89.6319 L 71.3763,-89.5182
 L 71.309,-89.4122 L 71.229,-89.3155 L 71.1374,-89.2295 L 71.0358,-89.1557 L 70.9258,-89.0952 L 70.809,-89.049
 L 70.6874,-89.0177 L 70.5628,-89.002 z
M 46.9372,-82.502 L 46.8126,-82.5177 L 46.691,-82.549 L 46.5742,-82.5952 L 46.4642,-82.6557 L 46.3626,-82.7295
 L 46.271,-82.8155 L 46.191,-82.9122 L 46.1237,-83.0182 L 46.0702,-83.1319 L 46.0314,-83.2513 L 46.0079,-83.3747
 L 46,-83.5 L 46.0079,-83.6253 L 46.0314,-83.7487 L 46.0702,-83.8681 L 46.1237,-83.9818 L 46.191,-84.0878
 L 46.271,-84.1846 L 46.3626,-84.2705 L 46.4642,-84.3443 L 46.5742,-84.4048 L 46.691,-84.4511 L 46.8126,-84.4823
 L 46.9372,-84.498 L 47.0628,-84.498 L 47.1874,-84.4823 L 47.309,-84.4511 L 47.4258,-84.4048 L 47.5358,-84.3443
 L 47.6374,-84.2705 L 47.729,-84.1846 L 47.809,-84.0878 L 47.8763,-83.9818 L 47.9298,-83.8681 L 47.9686,-83.7487
 L 47.9921,-83.6253 L 48,-83.5 L 47.9921,-83.3747 L 47.9686,-83.2513 L 47.9298,-83.1319 L 47.8763,-83.0182
 L 47.809,-82.9122 L 47.729,-82.8155 L 47.6374,-82.7295 L 47.5358,-82.6557 L 47.4258,-82.5952 L 47.309,-82.549
 L 47.1874,-82.5177 L 47.0628,-82.502 z
M 112.937,-82.502 L 112.813,-82.5177 L 112.691,-82.549 L 112.574,-82.5952 L 112.464,-82.6557 L 112.363,-82.7295
 L 112.271,-82.8155 L 112.191,-82.9122 L 112.124,-83.0182 L 112.07,-83.1319 L 112.031,-83.2513 L 112.008,-83.3747
 L 112,-83.5 L 112.008,-83.6253 L 112.031,-83.7487 L 112.07,-83.8681 L 112.124,-83.9818 L 112.191,-84.0878
 L 112.271,-84.1846 L 112.363,-84.2705 L 112.464,-84.3443 L 112.574,-84.4048 L 112.691,-84.4511 L 112.813,-84.4823
 L 112.937,-84.498 L 113.063,-84.498 L 113.187,-84.4823 L 113.309,-84.4511 L 113.426,-84.4048 L 113.536,-84.3443
 L 113.637,-84.2705 L 113.729,-84.1846 L 113.809,-84.0878 L 113.876,-83.9818 L 113.93,-83.8681 L 113.969,-83.7487
 L 113.992,-83.6253 L 114,-83.5 L 113.992,-83.3747 L 113.969,-83.2513 L 113.93,-83.1319 L 113.876,-83.0182
 L 113.809,-82.9122 L 113.729,-82.8155 L 113.637,-82.7295 L 113.536,-82.6557 L 113.426,-82.5952 L 113.309,-82.549
 L 113.187,-82.5177 L 113.063,-82.502 z
M 79.9372,-79.502 L 79.8126,-79.5177 L 79.691,-79.549 L 79.5742,-79.5952 L 79.4642,-79.6557 L 79.3626,-79.7295
 L 79.271,-79.8155 L 79.191,-79.9122 L 79.1237,-80.0182 L 79.0702,-80.1319 L 79.0314,-80.2513 L 79.0079,-80.3747
 L 79,-80.5 L 79.0079,-80.6253 L 79.0314,-80.7487 L 79.0702,-80.8681 L 79.1237,-80.9818 L 79.191,-81.0878
 L 79.271,-81.1846 L 79.3626,-81.2705 L 79.4642,-81.3443 L 79.5742,-81.4048 L 79.691,-81.4511 L 79.8126,-81.4823
 L 79.9372,-81.498 L 80.0628,-81.498 L 80.1874,-81.4823 L 80.309,-81.4511 L 80.4258,-81.4048 L 80.5358,-81.3443
 L 80.6374,-81.2705 L 80.729,-81.1846 L 80.809,-81.0878 L 80.8763,-80.9818 L 80.9298,-80.8681 L 80.9686,-80.7487
 L 80.9921,-80.6253 L 81,-80.5 L 80.9921,-80.3747 L 80.9686,-80.2513 L 80.9298,-80.1319 L 80.8763,-80.0182
 L 80.809,-79.9122 L 80.729,-79.8155 L 80.6374,-79.7295 L 80.5358,-79.6557 L 80.4258,-79.5952 L 80.309,-79.549
 L 80.1874,-79.5177 L 80.0628,-79.502 z
M 155.75,-74.5709 L 156.236,-74.6958 L 156.703,-74.8807 L 157.143,-75.1227 L 157.55,-75.418 L 157.916,-75.7618
 L 158.236,-76.1489 L 158.505,-76.573 L 158.719,-77.0275 L 158.874,-77.5052 L 158.968,-77.9987 L 159,-78.5
 L 159,-91.5 L 158.968,-92.0013 L 158.874,-92.4948 L 158.719,-92.9725 L 158.505,-93.427 L 158.236,-93.8511
 L 157.916,-94.2382 L 157.55,-94.582 L 157.143,-94.8773 L 156.703,-95.1193 L 156.236,-95.3042 L 155.75,-95.4291
 L 155.251,-95.4921 L 154.749,-95.4921 L 154.25,-95.4291 L 153.764,-95.3042 L 153.297,-95.1193 L 152.857,-94.8773
 L 152.45,-94.582 L 152.084,-94.2382 L 151.764,-93.8511 L 151.495,-93.427 L 151.281,-92.9725 L 151.126,-92.4948
 L 151.032,-92.0013 L 151,-91.5 L 151,-78.5 L 151.032,-77.9987 L 151.126,-77.5052 L 151.281,-77.0275
 L 151.495,-76.573 L 151.764,-76.1489 L 152.084,-75.7618 L 152.45,-75.418 L 152.857,-75.1227 L 153.297,-74.8807
 L 153.764,-74.6958 L 154.25,-74.5709 L 154.749,-74.5079 L 155.251,-74.5079 z
M 154.937,-90.502 L 154.813,-90.5177 L 154.691,-90.5489 L 154.574,-90.5952 L 154.464,-90.6557 L 154.363,-90.7295
 L 154.271,-90.8154 L 154.191,-90.9122 L 154.124,-91.0182 L 154.07,-91.1319 L 154.031,-91.2513 L 154.008,-91.3747
 L 154,-91.5 L 154.008,-91.6253 L 154.031,-91.7487 L 154.07,-91.8681 L 154.124,-91.9818 L 154.191,-92.0878
 L 154.271,-92.1845 L 154.363,-92.2705 L 154.464,-92.3443 L 154.574,-92.4048 L 154.691,-92.451 L 154.813,-92.4823
 L 154.937,-92.498 L 155.063,-92.498 L 155.187,-92.4823 L 155.309,-92.451 L 155.426,-92.4048 L 155.536,-92.3443
 L 155.637,-92.2705 L 155.729,-92.1845 L 155.809,-92.0878 L 155.876,-91.9818 L 155.93,-91.8681 L 155.969,-91.7487
 L 155.992,-91.6253 L 156,-91.5 L 155.992,-91.3747 L 155.969,-91.2513 L 155.93,-91.1319 L 155.876,-91.0182
 L 155.809,-90.9122 L 155.729,-90.8154 L 155.637,-90.7295 L 155.536,-90.6557 L 155.426,-90.5952 L 155.309,-90.5489
 L 155.187,-90.5177 L 155.063,-90.502 z
M 154.937,-77.502 L 154.813,-77.5177 L 154.691,-77.549 L 154.574,-77.5952 L 154.464,-77.6557 L 154.363,-77.7295
 L 154.271,-77.8155 L 154.191,-77.9122 L 154.124,-78.0182 L 154.07,-78.1319 L 154.031,-78.2513 L 154.008,-78.3747
 L 154,-78.5 L 154.008,-78.6253 L 154.031,-78.7487 L 154.07,-78.8681 L 154.124,-78.9818 L 154.191,-79.0878
 L 154.271,-79.1846 L 154.363,-79.2705 L 154.464,-79.3443 L 154.574,-79.4048 L 154.691,-79.4511 L 154.813,-79.4823
 L 154.937,-79.498 L 155.063,-79.498 L 155.187,-79.4823 L 155.309,-79.4511 L 155.426,-79.4048 L 155.536,-79.3443
 L 155.637,-79.2705 L 155.729,-79.1846 L 155.809,-79.0878 L 155.876,-78.9818 L 155.93,-78.8681 L 155.969,-78.7487
 L 155.992,-78.6253 L 156,-78.5 L 155.992,-78.3747 L 155.969,-78.2513 L 155.93,-78.1319 L 155.876,-78.0182
 L 155.809,-77.9122 L 155.729,-77.8155 L 155.637,-77.7295 L 155.536,-77.6557 L 155.426,-77.5952 L 155.309,-77.549
 L 155.187,-77.5177 L 155.063,-77.502 z
M 175.75,-74.5709 L 176.236,-74.6958 L 176.703,-74.8807 L 177.143,-75.1227 L 177.55,-75.418 L 177.916,-75.7618
 L 178.236,-76.1489 L 178.505,-76.573 L 178.719,-77.0275 L 178.874,-77.5052 L 178.968,-77.9987 L 179,-78.5
 L 179,-91.5 L 178.968,-92.0013 L 178.874,-92.4948 L 178.719,-92.9725 L 178.505,-93.427 L 178.236,-93.8511
 L 177.916,-94.2382 L 177.55,-94.582 L 177.143,-94.8773 L 176.703,-95.1193 L 176.236,-95.3042 L 175.75,-95.4291
 L 175.251,-95.4921 L 174.749,-95.4921 L 174.25,-95.4291 L 173.764,-95.3042 L 173.297,-95.1193 L 172.857,-94.8773
 L 172.45,-94.582 L 172.084,-94.2382 L 171.764,-93.8511 L 171.495,-93.427 L 171.281,-92.9725 L 171.126,-92.4948
 L 171.032,-92.0013 L 171,-91.5 L 171,-78.5 L 171.032,-77.9987 L 171.126,-77.5052 L 171.281,-77.0275
 L 171.495,-76.573 L 171.764,-76.1489 L 172.084,-75.7618 L 172.45,-75.418 L 172.857,-75.1227 L 173.297,-74.8807
 L 173.764,-74.6958 L 174.25,-74.5709 L 174.749,-74.5079 L 175.251,-74.5079 z
M 174.937,-90.502 L 174.813,-90.5177 L 174.691,-90.5489 L 174.574,-90.5952 L 174.464,-90.6557 L 174.363,-90.7295
 L 174.271,-90.8154 L 174.191,-90.9122 L 174.124,-91.0182 L 174.07,-91.1319 L 174.031,-91.2513 L 174.008,-91.3747
 L 174,-91.5 L 174.008,-91.6253 L 174.031,-91.7487 L 174.07,-91.8681 L 174.124,-91.9818 L 174.191,-92.0878
 L 174.271,-92.1845 L 174.363,-92.2705 L 174.464,-92.3443 L 174.574,-92.4048 L 174.691,-92.451 L 174.813,-92.4823
 L 174.937,-92.498 L 175.063,-92.498 L 175.187,-92.4823 L 175.309,-92.451 L 175.426,-92.4048 L 175.536,-92.3443
 L 175.637,-92.2705 L 175.729,-92.1845 L 175.809,-92.0878 L 175.876,-91.9818 L 175.93,-91.8681 L 175.969,-91.7487
 L 175.992,-91.6253 L 176,-91.5 L 175.992,-91.3747 L 175.969,-91.2513 L 175.93,-91.1319 L 175.876,-91.0182
 L 175.809,-90.9122 L 175.729,-90.8154 L 175.637,-90.7295 L 175.536,-90.6557 L 175.426,-90.5952 L 175.309,-90.5489
 L 175.187,-90.5177 L 175.063,-90.502 z
M 174.937,-77.502 L 174.813,-77.5177 L 174.691,-77.549 L 174.574,-77.5952 L 174.464,-77.6557 L 174.363,-77.7295
 L 174.271,-77.8155 L 174.191,-77.9122 L 174.124,-78.0182 L 174.07,-78.1319 L 174.031,-78.2513 L 174.008,-78.3747
 L 174,-78.5 L 174.008,-78.6253 L 174.031,-78.7487 L 174.07,-78.8681 L 174.124,-78.9818 L 174.191,-79.0878
 L 174.271,-79.1846 L 174.363,-79.2705 L 174.464,-79.3443 L 174.574,-79.4048 L 174.691,-79.4511 L 174.813,-79.4823
 L 174.937,-79.498 L 175.063,-79.498 L 175.187,-79.4823 L 175.309,-79.4511 L 175.426,-79.4048 L 175.536,-79.3443
 L 175.637,-79.2705 L 175.729,-79.1846 L 175.809,-79.0878 L 175.876,-78.9818 L 175.93,-78.8681 L 175.969,-78.7487
 L 175.992,-78.6253 L 176,-78.5 L 175.992,-78.3747 L 175.969,-78.2513 L 175.93,-78.1319 L 175.876,-78.0182
 L 175.809,-77.9122 L 175.729,-77.8155 L 175.637,-77.7295 L 175.536,-77.6557 L 175.426,-77.5952 L 175.309,-77.549
 L 175.187,-77.5177 L 175.063,-77.502 z
M 185.75,-74.5709 L 186.236,-74.6958 L 186.703,-74.8807 L 187.143,-75.1227 L 187.55,-75.418 L 187.916,-75.7618
 L 188.236,-76.1489 L 188.505,-76.573 L 188.719,-77.0275 L 188.874,-77.5052 L 188.968,-77.9987 L 189,-78.5
 L 189,-91.5 L 188.968,-92.0013 L 188.874,-92.4948 L 188.719,-92.9725 L 188.505,-93.427 L 188.236,-93.8511
 L 187.916,-94.2382 L 187.55,-94.582 L 187.143,-94.8773 L 186.703,-95.1193 L 186.236,-95.3042 L 185.75,-95.4291
 L 185.251,-95.4921 L 184.749,-95.4921 L 184.25,-95.4291 L 183.764,-95.3042 L 183.297,-95.1193 L 182.857,-94.8773
 L 182.45,-94.582 L 182.084,-94.2382 L 181.764,-93.8511 L 181.495,-93.427 L 181.281,-92.9725 L 181.126,-92.4948
 L 181.032,-92.0013 L 181,-91.5 L 181,-78.5 L 181.032,-77.9987 L 181.126,-77.5052 L 181.281,-77.0275
 L 181.495,-76.573 L 181.764,-76.1489 L 182.084,-75.7618 L 182.45,-75.418 L 182.857,-75.1227 L 183.297,-74.8807
 L 183.764,-74.6958 L 184.25,-74.5709 L 184.749,-74.5079 L 185.251,-74.5079 z
M 184.937,-90.502 L 184.813,-90.5177 L 184.691,-90.5489 L 184.574,-90.5952 L 184.464,-90.6557 L 184.363,-90.7295
 L 184.271,-90.8154 L 184.191,-90.9122 L 184.124,-91.0182 L 184.07,-91.1319 L 184.031,-91.2513 L 184.008,-91.3747
 L 184,-91.5 L 184.008,-91.6253 L 184.031,-91.7487 L 184.07,-91.8681 L 184.124,-91.9818 L 184.191,-92.0878
 L 184.271,-92.1845 L 184.363,-92.2705 L 184.464,-92.3443 L 184.574,-92.4048 L 184.691,-92.451 L 184.813,-92.4823
 L 184.937,-92.498 L 185.063,-92.498 L 185.187,-92.4823 L 185.309,-92.451 L 185.426,-92.4048 L 185.536,-92.3443
 L 185.637,-92.2705 L 185.729,-92.1845 L 185.809,-92.0878 L 185.876,-91.9818 L 185.93,-91.8681 L 185.969,-91.7487
 L 185.992,-91.6253 L 186,-91.5 L 185.992,-91.3747 L 185.969,-91.2513 L 185.93,-91.1319 L 185.876,-91.0182
 L 185.809,-90.9122 L 185.729,-90.8154 L 185.637,-90.7295 L 185.536,-90.6557 L 185.426,-90.5952 L 185.309,-90.5489
 L 185.187,-90.5177 L 185.063,-90.502 z
M 184.937,-77.502 L 184.813,-77.5177 L 184.691,-77.549 L 184.574,-77.5952 L 184.464,-77.6557 L 184.363,-77.7295
 L 184.271,-77.8155 L 184.191,-77.9122 L 184.124,-78.0182 L 184.07,-78.1319 L 184.031,-78.2513 L 184.008,-78.3747
 L 184,-78.5 L 184.008,-78.6253 L 184.031,-78.7487 L 184.07,-78.8681 L 184.124,-78.9818 L 184.191,-79.0878
 L 184.271,-79.1846 L 184.363,-79.2705 L 184.464,-79.3443 L 184.574,-79.4048 L 184.691,-79.4511 L 184.813,-79.4823
 L 184.937,-79.498 L 185.063,-79.498 L 185.187,-79.4823 L 185.309,-79.4511 L 185.426,-79.4048 L 185.536,-79.3443
 L 185.637,-79.2705 L 185.729,-79.1846 L 185.809,-79.0878 L 185.876,-78.9818 L 185.93,-78.8681 L 185.969,-78.7487
 L 185.992,-78.6253 L 186,-78.5 L 185.992,-78.3747 L 185.969,-78.2513 L 185.93,-78.1319 L 185.876,-78.0182
 L 185.809,-77.9122 L 185.729,-77.8155 L 185.637,-77.7295 L 185.536,-77.6557 L 185.426,-77.5952 L 185.309,-77.549
 L 185.187,-77.5177 L 185.063,-77.502 z
M 165.75,-74.5709 L 166.236,-74.6958 L 166.703,-74.8807 L 167.143,-75.1227 L 167.55,-75.418 L 167.916,-75.7618
 L 168.236,-76.1489 L 168.505,-76.573 L 168.719,-77.0275 L 168.874,-77.5052 L 168.968,-77.9987 L 169,-78.5
 L 169,-91.5 L 168.968,-92.0013 L 168.874,-92.4948 L 168.719,-92.9725 L 168.505,-93.427 L 168.236,-93.8511
 L 167.916,-94.2382 L 167.55,-94.582 L 167.143,-94.8773 L 166.703,-95.1193 L 166.236,-95.3042 L 165.75,-95.4291
 L 165.251,-95.4921 L 164.749,-95.4921 L 164.25,-95.4291 L 163.764,-95.3042 L 163.297,-95.1193 L 162.857,-94.8773
 L 162.45,-94.582 L 162.084,-94.2382 L 161.764,-93.8511 L 161.495,-93.427 L 161.281,-92.9725 L 161.126,-92.4948
 L 161.032,-92.0013 L 161,-91.5 L 161,-78.5 L 161.032,-77.9987 L 161.126,-77.5052 L 161.281,-77.0275
 L 161.495,-76.573 L 161.764,-76.1489 L 162.084,-75.7618 L 162.45,-75.418 L 162.857,-75.1227 L 163.297,-74.8807
 L 163.764,-74.6958 L 164.25,-74.5709 L 164.749,-74.5079 L 165.251,-74.5079 z
M 164.937,-90.502 L 164.813,-90.5177 L 164.691,-90.5489 L 164.574,-90.5952 L 164.464,-90.6557 L 164.363,-90.7295
 L 164.271,-90.8154 L 164.191,-90.9122 L 164.124,-91.0182 L 164.07,-91.1319 L 164.031,-91.2513 L 164.008,-91.3747
 L 164,-91.5 L 164.008,-91.6253 L 164.031,-91.7487 L 164.07,-91.8681 L 164.124,-91.9818 L 164.191,-92.0878
 L 164.271,-92.1845 L 164.363,-92.2705 L 164.464,-92.3443 L 164.574,-92.4048 L 164.691,-92.451 L 164.813,-92.4823
 L 164.937,-92.498 L 165.063,-92.498 L 165.187,-92.4823 L 165.309,-92.451 L 165.426,-92.4048 L 165.536,-92.3443
 L 165.637,-92.2705 L 165.729,-92.1845 L 165.809,-92.0878 L 165.876,-91.9818 L 165.93,-91.8681 L 165.969,-91.7487
 L 165.992,-91.6253 L 166,-91.5 L 165.992,-91.3747 L 165.969,-91.2513 L 165.93,-91.1319 L 165.876,-91.0182
 L 165.809,-90.9122 L 165.729,-90.8154 L 165.637,-90.7295 L 165.536,-90.6557 L 165.426,-90.5952 L 165.309,-90.5489
 L 165.187,-90.5177 L 165.063,-90.502 z
M 164.937,-77.502 L 164.813,-77.5177 L 164.691,-77.549 L 164.574,-77.5952 L 164.464,-77.6557 L 164.363,-77.7295
 L 164.271,-77.8155 L 164.191,-77.9122 L 164.124,-78.0182 L 164.07,-78.1319 L 164.031,-78.2513 L 164.008,-78.3747
 L 164,-78.5 L 164.008,-78.6253 L 164.031,-78.7487 L 164.07,-78.8681 L 164.124,-78.9818 L 164.191,-79.0878
 L 164.271,-79.1846 L 164.363,-79.2705 L 164.464,-79.3443 L 164.574,-79.4048 L 164.691,-79.4511 L 164.813,-79.4823
 L 164.937,-79.498 L 165.063,-79.498 L 165.187,-79.4823 L 165.309,-79.4511 L 165.426,-79.4048 L 165.536,-79.3443
 L 165.637,-79.2705 L 165.729,-79.1846 L 165.809,-79.0878 L 165.876,-78.9818 L 165.93,-78.8681 L 165.969,-78.7487
 L 165.992,-78.6253 L 166,-78.5 L 165.992,-78.3747 L 165.969,-78.2513 L 165.93,-78.1319 L 165.876,-78.0182
 L 165.809,-77.9122 L 165.729,-77.8155 L 165.637,-77.7295 L 165.536,-77.6557 L 165.426,-77.5952 L 165.309,-77.549
 L 165.187,-77.5177 L 165.063,-77.502 z
M 137.436,-67.2303 L 139.017,-67.6363 L 140.535,-68.2373 L 141.966,-69.0237 L 143.286,-69.9833 L 144.477,-71.1009
 L 145.517,-72.3588 L 146.392,-73.7372 L 147.087,-75.2144 L 147.592,-76.767 L 147.897,-78.3707 L 148,-80
 L 147.897,-81.6293 L 147.592,-83.233 L 147.087,-84.7856 L 146.392,-86.2628 L 145.517,-87.6412 L 144.477,-88.8991
 L 143.286,-90.0167 L 141.966,-90.9763 L 140.535,-91.7627 L 139.017,-92.3637 L 137.436,-92.7697 L 135.816,-92.9743
 L 134.184,-92.9743 L 132.564,-92.7697 L 130.983,-92.3637 L 129.465,-91.7627 L 128.034,-90.9763 L 126.714,-90.0167
 L 125.523,-88.8991 L 124.483,-87.6412 L 123.608,-86.2628 L 122.913,-84.7856 L 122.408,-83.233 L 122.103,-81.6293
 L 122,-80 L 122.103,-78.3707 L 122.408,-76.767 L 122.913,-75.2144 L 123.608,-73.7372 L 124.483,-72.3588
 L 125.523,-71.1009 L 126.714,-69.9833 L 128.034,-69.0237 L 129.465,-68.2373 L 130.983,-67.6363 L 132.564,-67.2303
 L 134.184,-67.0257 L 135.816,-67.0257 z
M 134.937,-88.502 L 134.813,-88.5177 L 134.691,-88.5489 L 134.574,-88.5952 L 134.464,-88.6557 L 134.363,-88.7295
 L 134.271,-88.8154 L 134.191,-88.9122 L 134.124,-89.0182 L 134.07,-89.1319 L 134.031,-89.2513 L 134.008,-89.3747
 L 134,-89.5 L 134.008,-89.6253 L 134.031,-89.7487 L 134.07,-89.8681 L 134.124,-89.9818 L 134.191,-90.0878
 L 134.271,-90.1845 L 134.363,-90.2705 L 134.464,-90.3443 L 134.574,-90.4048 L 134.691,-90.451 L 134.813,-90.4823
 L 134.937,-90.498 L 135.063,-90.498 L 135.187,-90.4823 L 135.309,-90.451 L 135.426,-90.4048 L 135.536,-90.3443
 L 135.637,-90.2705 L 135.729,-90.1845 L 135.809,-90.0878 L 135.876,-89.9818 L 135.93,-89.8681 L 135.969,-89.7487
 L 135.992,-89.6253 L 136,-89.5 L 135.992,-89.3747 L 135.969,-89.2513 L 135.93,-89.1319 L 135.876,-89.0182
 L 135.809,-88.9122 L 135.729,-88.8154 L 135.637,-88.7295 L 135.536,-88.6557 L 135.426,-88.5952 L 135.309,-88.5489
 L 135.187,-88.5177 L 135.063,-88.502 z
M 134.623,-74.0118 L 133.876,-74.1063 L 133.146,-74.2937 L 132.445,-74.571 L 131.785,-74.934 L 131.175,-75.3769
 L 130.626,-75.8927 L 130.146,-76.4733 L 129.742,-77.1095 L 129.421,-77.7913 L 129.189,-78.5079 L 129.047,-79.248
 L 129,-80 L 129.047,-80.752 L 129.189,-81.4921 L 129.421,-82.2087 L 129.742,-82.8905 L 130.146,-83.5267
 L 130.626,-84.1073 L 131.175,-84.6231 L 131.785,-85.066 L 132.445,-85.429 L 133.146,-85.7063 L 133.876,-85.8937
 L 134.623,-85.9882 L 135.377,-85.9882 L 136.124,-85.8937 L 136.854,-85.7063 L 137.555,-85.429 L 138.215,-85.066
 L 138.825,-84.6231 L 139.374,-84.1073 L 139.854,-83.5267 L 140.258,-82.8905 L 140.579,-82.2087 L 140.811,-81.4921
 L 140.953,-80.752 L 141,-80 L 140.953,-79.248 L 140.811,-78.5079 L 140.579,-77.7913 L 140.258,-77.1095
 L 139.854,-76.4733 L 139.374,-75.8927 L 138.825,-75.3769 L 138.215,-74.934 L 137.555,-74.571 L 136.854,-74.2937
 L 136.124,-74.1063 L 135.377,-74.0118 z
M 125.437,-79.002 L 125.313,-79.0177 L 125.191,-79.049 L 125.074,-79.0952 L 124.964,-79.1557 L 124.863,-79.2295
 L 124.771,-79.3155 L 124.691,-79.4122 L 124.624,-79.5182 L 124.57,-79.6319 L 124.531,-79.7513 L 124.508,-79.8747
 L 124.5,-80 L 124.508,-80.1253 L 124.531,-80.2487 L 124.57,-80.3681 L 124.624,-80.4818 L 124.691,-80.5878
 L 124.771,-80.6845 L 124.863,-80.7705 L 124.964,-80.8443 L 125.074,-80.9048 L 125.191,-80.951 L 125.313,-80.9823
 L 125.437,-80.998 L 125.563,-80.998 L 125.687,-80.9823 L 125.809,-80.951 L 125.926,-80.9048 L 126.036,-80.8443
 L 126.137,-80.7705 L 126.229,-80.6845 L 126.309,-80.5878 L 126.376,-80.4818 L 126.43,-80.3681 L 126.469,-80.2487
 L 126.492,-80.1253 L 126.5,-80 L 126.492,-79.8747 L 126.469,-79.7513 L 126.43,-79.6319 L 126.376,-79.5182
 L 126.309,-79.4122 L 126.229,-79.3155 L 126.137,-79.2295 L 126.036,-79.1557 L 125.926,-79.0952 L 125.809,-79.049
 L 125.687,-79.0177 L 125.563,-79.002 z
M 144.437,-79.002 L 144.313,-79.0177 L 144.191,-79.049 L 144.074,-79.0952 L 143.964,-79.1557 L 143.863,-79.2295
 L 143.771,-79.3155 L 143.691,-79.4122 L 143.624,-79.5182 L 143.57,-79.6319 L 143.531,-79.7513 L 143.508,-79.8747
 L 143.5,-80 L 143.508,-80.1253 L 143.531,-80.2487 L 143.57,-80.3681 L 143.624,-80.4818 L 143.691,-80.5878
 L 143.771,-80.6845 L 143.863,-80.7705 L 143.964,-80.8443 L 144.074,-80.9048 L 144.191,-80.951 L 144.313,-80.9823
 L 144.437,-80.998 L 144.563,-80.998 L 144.687,-80.9823 L 144.809,-80.951 L 144.926,-80.9048 L 145.036,-80.8443
 L 145.137,-80.7705 L 145.229,-80.6845 L 145.309,-80.5878 L 145.376,-80.4818 L 145.43,-80.3681 L 145.469,-80.2487
 L 145.492,-80.1253 L 145.5,-80 L 145.492,-79.8747 L 145.469,-79.7513 L 145.43,-79.6319 L 145.376,-79.5182
 L 145.309,-79.4122 L 145.229,-79.3155 L 145.137,-79.2295 L 145.036,-79.1557 L 144.926,-79.0952 L 144.809,-79.049
 L 144.687,-79.0177 L 144.563,-79.002 z
M 134.937,-69.502 L 134.813,-69.5177 L 134.691,-69.549 L 134.574,-69.5952 L 134.464,-69.6557 L 134.363,-69.7295
 L 134.271,-69.8155 L 134.191,-69.9122 L 134.124,-70.0182 L 134.07,-70.1319 L 134.031,-70.2513 L 134.008,-70.3747
 L 134,-70.5 L 134.008,-70.6253 L 134.031,-70.7487 L 134.07,-70.8681 L 134.124,-70.9818 L 134.191,-71.0878
 L 134.271,-71.1846 L 134.363,-71.2705 L 134.464,-71.3443 L 134.574,-71.4048 L 134.691,-71.4511 L 134.813,-71.4823
 L 134.937,-71.498 L 135.063,-71.498 L 135.187,-71.4823 L 135.309,-71.4511 L 135.426,-71.4048 L 135.536,-71.3443
 L 135.637,-71.2705 L 135.729,-71.1846 L 135.809,-71.0878 L 135.876,-70.9818 L 135.93,-70.8681 L 135.969,-70.7487
 L 135.992,-70.6253 L 136,-70.5 L 135.992,-70.3747 L 135.969,-70.2513 L 135.93,-70.1319 L 135.876,-70.0182
 L 135.809,-69.9122 L 135.729,-69.8155 L 135.637,-69.7295 L 135.536,-69.6557 L 135.426,-69.5952 L 135.309,-69.549
 L 135.187,-69.5177 L 135.063,-69.502 z
M 219.167,-75 L 225,-75 L 225,-85 L 219.167,-85 L 219.167,-88 L 200.833,-88
 L 200.833,-85 L 195,-85 L 195,-75 L 200.833,-75 L 200.833,-72 L 219.167,-72
 z
M 112.624,-47.1063 L 113.354,-47.2937 L 114.055,-47.571 L 114.715,-47.934 L 115.325,-48.3769 L 115.874,-48.8927
 L 116.354,-49.4733 L 116.758,-50.1095 L 117.079,-50.7913 L 117.311,-51.5079 L 117.453,-52.248 L 117.5,-53
 L 117.5,-67 L 117.453,-67.752 L 117.311,-68.4921 L 117.079,-69.2087 L 116.758,-69.8905 L 116.354,-70.5267
 L 115.874,-71.1073 L 115.325,-71.6231 L 114.715,-72.066 L 114.055,-72.429 L 113.354,-72.7063 L 112.624,-72.8937
 L 111.877,-72.9882 L 48.1233,-72.9882 L 47.3757,-72.8937 L 46.6459,-72.7063 L 45.9453,-72.429 L 45.285,-72.066
 L 44.6755,-71.6231 L 44.1262,-71.1073 L 43.6459,-70.5267 L 43.2422,-69.8905 L 42.9214,-69.2087 L 42.6885,-68.4921
 L 42.5473,-67.752 L 42.5,-67 L 42.5,-53 L 42.5473,-52.248 L 42.6885,-51.5079 L 42.9214,-50.7913
 L 43.2422,-50.1095 L 43.6459,-49.4733 L 44.1262,-48.8927 L 44.6755,-48.3769 L 45.285,-47.934 L 45.9453,-47.571
 L 46.6459,-47.2937 L 47.3757,-47.1063 L 48.1233,-47.0118 L 111.877,-47.0118 z
M 79.9372,-68.502 L 79.8126,-68.5177 L 79.691,-68.5489 L 79.5742,-68.5952 L 79.4642,-68.6557 L 79.3626,-68.7295
 L 79.271,-68.8154 L 79.191,-68.9122 L 79.1237,-69.0182 L 79.0702,-69.1319 L 79.0314,-69.2513 L 79.0079,-69.3747
 L 79,-69.5 L 79.0079,-69.6253 L 79.0314,-69.7487 L 79.0702,-69.8681 L 79.1237,-69.9818 L 79.191,-70.0878
 L 79.271,-70.1845 L 79.3626,-70.2705 L 79.4642,-70.3443 L 79.5742,-70.4048 L 79.691,-70.451 L 79.8126,-70.4823
 L 79.9372,-70.498 L 80.0628,-70.498 L 80.1874,-70.4823 L 80.309,-70.451 L 80.4258,-70.4048 L 80.5358,-70.3443
 L 80.6374,-70.2705 L 80.729,-70.1845 L 80.809,-70.0878 L 80.8763,-69.9818 L 80.9298,-69.8681 L 80.9686,-69.7487
 L 80.9921,-69.6253 L 81,-69.5 L 80.9921,-69.3747 L 80.9686,-69.2513 L 80.9298,-69.1319 L 80.8763,-69.0182
 L 80.809,-68.9122 L 80.729,-68.8154 L 80.6374,-68.7295 L 80.5358,-68.6557 L 80.4258,-68.5952 L 80.309,-68.5489
 L 80.1874,-68.5177 L 80.0628,-68.502 z
M 46.9372,-65.502 L 46.8126,-65.5177 L 46.691,-65.5489 L 46.5742,-65.5952 L 46.4642,-65.6557 L 46.3626,-65.7295
 L 46.271,-65.8154 L 46.191,-65.9122 L 46.1237,-66.0182 L 46.0702,-66.1319 L 46.0314,-66.2513 L 46.0079,-66.3747
 L 46,-66.5 L 46.0079,-66.6253 L 46.0314,-66.7487 L 46.0702,-66.8681 L 46.1237,-66.9818 L 46.191,-67.0878
 L 46.271,-67.1845 L 46.3626,-67.2705 L 46.4642,-67.3443 L 46.5742,-67.4048 L 46.691,-67.451 L 46.8126,-67.4823
 L 46.9372,-67.498 L 47.0628,-67.498 L 47.1874,-67.4823 L 47.309,-67.451 L 47.4258,-67.4048 L 47.5358,-67.3443
 L 47.6374,-67.2705 L 47.729,-67.1845 L 47.809,-67.0878 L 47.8763,-66.9818 L 47.9298,-66.8681 L 47.9686,-66.7487
 L 47.9921,-66.6253 L 48,-66.5 L 47.9921,-66.3747 L 47.9686,-66.2513 L 47.9298,-66.1319 L 47.8763,-66.0182
 L 47.809,-65.9122 L 47.729,-65.8154 L 47.6374,-65.7295 L 47.5358,-65.6557 L 47.4258,-65.5952 L 47.309,-65.5489
 L 47.1874,-65.5177 L 47.0628,-65.502 z
M 112.937,-65.502 L 112.813,-65.5177 L 112.691,-65.5489 L 112.574,-65.5952 L 112.464,-65.6557 L 112.363,-65.7295
 L 112.271,-65.8154 L 112.191,-65.9122 L 112.124,-66.0182 L 112.07,-66.1319 L 112.031,-66.2513 L 112.008,-66.3747
 L 112,-66.5 L 112.008,-66.6253 L 112.031,-66.7487 L 112.07,-66.8681 L 112.124,-66.9818 L 112.191,-67.0878
 L 112.271,-67.1845 L 112.363,-67.2705 L 112.464,-67.3443 L 112.574,-67.4048 L 112.691,-67.451 L 112.813,-67.4823
 L 112.937,-67.498 L 113.063,-67.498 L 113.187,-67.4823 L 113.309,-67.451 L 113.426,-67.4048 L 113.536,-67.3443
 L 113.637,-67.2705 L 113.729,-67.1845 L 113.809,-67.0878 L 113.876,-66.9818 L 113.93,-66.8681 L 113.969,-66.7487
 L 113.992,-66.6253 L 114,-66.5 L 113.992,-66.3747 L 113.969,-66.2513 L 113.93,-66.1319 L 113.876,-66.0182
 L 113.809,-65.9122 L 113.729,-65.8154 L 113.637,-65.7295 L 113.536,-65.6557 L 113.426,-65.5952 L 113.309,-65.5489
 L 113.187,-65.5177 L 113.063,-65.502 z
M 79.6233,-54.0118 L 78.8757,-54.1063 L 78.1459,-54.2937 L 77.4453,-54.571 L 76.785,-54.934 L 76.1755,-55.3769
 L 75.6262,-55.8927 L 75.1459,-56.4733 L 74.7422,-57.1095 L 74.4214,-57.7913 L 74.1885,-58.5079 L 74.0473,-59.248
 L 74,-60 L 74.0473,-60.752 L 74.1885,-61.4921 L 74.4214,-62.2087 L 74.7422,-62.8905 L 75.1459,-63.5267
 L 75.6262,-64.1073 L 76.1755,-64.6231 L 76.785,-65.066 L 77.4453,-65.429 L 78.1459,-65.7063 L 78.8757,-65.8937
 L 79.6233,-65.9882 L 80.3767,-65.9882 L 81.1243,-65.8937 L 81.8541,-65.7063 L 82.5547,-65.429 L 83.215,-65.066
 L 83.8245,-64.6231 L 84.3738,-64.1073 L 84.8541,-63.5267 L 85.2578,-62.8905 L 85.5786,-62.2087 L 85.8115,-61.4921
 L 85.9527,-60.752 L 86,-60 L 85.9527,-59.248 L 85.8115,-58.5079 L 85.5786,-57.7913 L 85.2578,-57.1095
 L 84.8541,-56.4733 L 84.3738,-55.8927 L 83.8245,-55.3769 L 83.215,-54.934 L 82.5547,-54.571 L 81.8541,-54.2937
 L 81.1243,-54.1063 L 80.3767,-54.0118 z
M 89.4372,-59.002 L 89.3126,-59.0177 L 89.191,-59.049 L 89.0742,-59.0952 L 88.9642,-59.1557 L 88.8626,-59.2295
 L 88.771,-59.3155 L 88.691,-59.4122 L 88.6237,-59.5182 L 88.5702,-59.6319 L 88.5314,-59.7513 L 88.5079,-59.8747
 L 88.5,-60 L 88.5079,-60.1253 L 88.5314,-60.2487 L 88.5702,-60.3681 L 88.6237,-60.4818 L 88.691,-60.5878
 L 88.771,-60.6845 L 88.8626,-60.7705 L 88.9642,-60.8443 L 89.0742,-60.9048 L 89.191,-60.951 L 89.3126,-60.9823
 L 89.4372,-60.998 L 89.5628,-60.998 L 89.6874,-60.9823 L 89.809,-60.951 L 89.9258,-60.9048 L 90.0358,-60.8443
 L 90.1374,-60.7705 L 90.229,-60.6845 L 90.309,-60.5878 L 90.3763,-60.4818 L 90.4298,-60.3681 L 90.4686,-60.2487
 L 90.4921,-60.1253 L 90.5,-60 L 90.4921,-59.8747 L 90.4686,-59.7513 L 90.4298,-59.6319 L 90.3763,-59.5182
 L 90.309,-59.4122 L 90.229,-59.3155 L 90.1374,-59.2295 L 90.0358,-59.1557 L 89.9258,-59.0952 L 89.809,-59.049
 L 89.6874,-59.0177 L 89.5628,-59.002 z
M 70.4372,-59.002 L 70.3126,-59.0177 L 70.191,-59.049 L 70.0742,-59.0952 L 69.9642,-59.1557 L 69.8626,-59.2295
 L 69.771,-59.3155 L 69.691,-59.4122 L 69.6237,-59.5182 L 69.5702,-59.6319 L 69.5314,-59.7513 L 69.5079,-59.8747
 L 69.5,-60 L 69.5079,-60.1253 L 69.5314,-60.2487 L 69.5702,-60.3681 L 69.6237,-60.4818 L 69.691,-60.5878
 L 69.771,-60.6845 L 69.8626,-60.7705 L 69.9642,-60.8443 L 70.0742,-60.9048 L 70.191,-60.951 L 70.3126,-60.9823
 L 70.4372,-60.998 L 70.5628,-60.998 L 70.6874,-60.9823 L 70.809,-60.951 L 70.9258,-60.9048 L 71.0358,-60.8443
 L 71.1374,-60.7705 L 71.229,-60.6845 L 71.309,-60.5878 L 71.3763,-60.4818 L 71.4298,-60.3681 L 71.4686,-60.2487
 L 71.4921,-60.1253 L 71.5,-60 L 71.4921,-59.8747 L 71.4686,-59.7513 L 71.4298,-59.6319 L 71.3763,-59.5182
 L 71.309,-59.4122 L 71.229,-59.3155 L 71.1374,-59.2295 L 71.0358,-59.1557 L 70.9258,-59.0952 L 70.809,-59.049
 L 70.6874,-59.0177 L 70.5628,-59.002 z
M 46.9372,-52.502 L 46.8126,-52.5177 L 46.691,-52.549 L 46.5742,-52.5952 L 46.4642,-52.6557 L 46.3626,-52.7295
 L 46.271,-52.8155 L 46.191,-52.9122 L 46.1237,-53.0182 L 46.0702,-53.1319 L 46.0314,-53.2513 L 46.0079,-53.3747
 L 46,-53.5 L 46.0079,-53.6253 L 46.0314,-53.7487 L 46.0702,-53.8681 L 46.1237,-53.9818 L 46.191,-54.0878
 L 46.271,-54.1846 L 46.3626,-54.2705 L 46.4642,-54.3443 L 46.5742,-54.4048 L 46.691,-54.4511 L 46.8126,-54.4823
 L 46.9372,-54.498 L 47.0628,-54.498 L 47.1874,-54.4823 L 47.309,-54.4511 L 47.4258,-54.4048 L 47.5358,-54.3443
 L 47.6374,-54.2705 L 47.729,-54.1846 L 47.809,-54.0878 L 47.8763,-53.9818 L 47.9298,-53.8681 L 47.9686,-53.7487
 L 47.9921,-53.6253 L 48,-53.5 L 47.9921,-53.3747 L 47.9686,-53.2513 L 47.9298,-53.1319 L 47.8763,-53.0182
 L 47.809,-52.9122 L 47.729,-52.8155 L 47.6374,-52.7295 L 47.5358,-52.6557 L 47.4258,-52.5952 L 47.309,-52.549
 L 47.1874,-52.5177 L 47.0628,-52.502 z
M 112.937,-52.502 L 112.813,-52.5177 L 112.691,-52.549 L 112.574,-52.5952 L 112.464,-52.6557 L 112.363,-52.7295
 L 112.271,-52.8155 L 112.191,-52.9122 L 112.124,-53.0182 L 112.07,-53.1319 L 112.031,-53.2513 L 112.008,-53.3747
 L 112,-53.5 L 112.008,-53.6253 L 112.031,-53.7487 L 112.07,-53.8681 L 112.124,-53.9818 L 112.191,-54.0878
 L 112.271,-54.1846 L 112.363,-54.2705 L 112.464,-54.3443 L 112.574,-54.4048 L 112.691,-54.4511 L 112.813,-54.4823
 L 112.937,-54.498 L 113.063,-54.498 L 113.187,-54.4823 L 113.309,-54.4511 L 113.426,-54.4048 L 113.536,-54.3443
 L 113.637,-54.2705 L 113.729,-54.1846 L 113.809,-54.0878 L 113.876,-53.9818 L 113.93,-53.8681 L 113.969,-53.7487
 L 113.992,-53.6253 L 114,-53.5 L 113.992,-53.3747 L 113.969,-53.2513 L 113.93,-53.1319 L 113.876,-53.0182
 L 113.809,-52.9122 L 113.729,-52.8155 L 113.637,-52.7295 L 113.536,-52.6557 L 113.426,-52.5952 L 113.309,-52.549
 L 113.187,-52.5177 L 113.063,-52.502 z
M 79.9372,-49.502 L 79.8126,-49.5177 L 79.691,-49.549 L 79.5742,-49.5952 L 79.4642,-49.6557 L 79.3626,-49.7295
 L 79.271,-49.8155 L 79.191,-49.9122 L 79.1237,-50.0182 L 79.0702,-50.1319 L 79.0314,-50.2513 L 79.0079,-50.3747
 L 79,-50.5 L 79.0079,-50.6253 L 79.0314,-50.7487 L 79.0702,-50.8681 L 79.1237,-50.9818 L 79.191,-51.0878
 L 79.271,-51.1846 L 79.3626,-51.2705 L 79.4642,-51.3443 L 79.5742,-51.4048 L 79.691,-51.4511 L 79.8126,-51.4823
 L 79.9372,-51.498 L 80.0628,-51.498 L 80.1874,-51.4823 L 80.309,-51.4511 L 80.4258,-51.4048 L 80.5358,-51.3443
 L 80.6374,-51.2705 L 80.729,-51.1846 L 80.809,-51.0878 L 80.8763,-50.9818 L 80.9298,-50.8681 L 80.9686,-50.7487
 L 80.9921,-50.6253 L 81,-50.5 L 80.9921,-50.3747 L 80.9686,-50.2513 L 80.9298,-50.1319 L 80.8763,-50.0182
 L 80.809,-49.9122 L 80.729,-49.8155 L 80.6374,-49.7295 L 80.5358,-49.6557 L 80.4258,-49.5952 L 80.309,-49.549
 L 80.1874,-49.5177 L 80.0628,-49.502 z
M 185.75,-44.5709 L 186.236,-44.6958 L 186.703,-44.8807 L 187.143,-45.1227 L 187.55,-45.418 L 187.916,-45.7618
 L 188.236,-46.1489 L 188.505,-46.573 L 188.719,-47.0275 L 188.874,-47.5052 L 188.968,-47.9987 L 189,-48.5
 L 189,-61.5 L 188.968,-62.0013 L 188.874,-62.4948 L 188.719,-62.9725 L 188.505,-63.427 L 188.236,-63.8511
 L 187.916,-64.2382 L 187.55,-64.582 L 187.143,-64.8773 L 186.703,-65.1193 L 186.236,-65.3042 L 185.75,-65.4291
 L 185.251,-65.4921 L 184.749,-65.4921 L 184.25,-65.4291 L 183.764,-65.3042 L 183.297,-65.1193 L 182.857,-64.8773
 L 182.45,-64.582 L 182.084,-64.2382 L 181.764,-63.8511 L 181.495,-63.427 L 181.281,-62.9725 L 181.126,-62.4948
 L 181.032,-62.0013 L 181,-61.5 L 181,-48.5 L 181.032,-47.9987 L 181.126,-47.5052 L 181.281,-47.0275
 L 181.495,-46.573 L 181.764,-46.1489 L 182.084,-45.7618 L 182.45,-45.418 L 182.857,-45.1227 L 183.297,-44.8807
 L 183.764,-44.6958 L 184.25,-44.5709 L 184.749,-44.5079 L 185.251,-44.5079 z
M 184.937,-60.502 L 184.813,-60.5177 L 184.691,-60.5489 L 184.574,-60.5952 L 184.464,-60.6557 L 184.363,-60.7295
 L 184.271,-60.8154 L 184.191,-60.9122 L 184.124,-61.0182 L 184.07,-61.1319 L 184.031,-61.2513 L 184.008,-61.3747
 L 184,-61.5 L 184.008,-61.6253 L 184.031,-61.7487 L 184.07,-61.8681 L 184.124,-61.9818 L 184.191,-62.0878
 L 184.271,-62.1845 L 184.363,-62.2705 L 184.464,-62.3443 L 184.574,-62.4048 L 184.691,-62.451 L 184.813,-62.4823
 L 184.937,-62.498 L 185.063,-62.498 L 185.187,-62.4823 L 185.309,-62.451 L 185.426,-62.4048 L 185.536,-62.3443
 L 185.637,-62.2705 L 185.729,-62.1845 L 185.809,-62.0878 L 185.876,-61.9818 L 185.93,-61.8681 L 185.969,-61.7487
 L 185.992,-61.6253 L 186,-61.5 L 185.992,-61.3747 L 185.969,-61.2513 L 185.93,-61.1319 L 185.876,-61.0182
 L 185.809,-60.9122 L 185.729,-60.8154 L 185.637,-60.7295 L 185.536,-60.6557 L 185.426,-60.5952 L 185.309,-60.5489
 L 185.187,-60.5177 L 185.063,-60.502 z
M 184.937,-47.502 L 184.813,-47.5177 L 184.691,-47.549 L 184.574,-47.5952 L 184.464,-47.6557 L 184.363,-47.7295
 L 184.271,-47.8155 L 184.191,-47.9122 L 184.124,-48.0182 L 184.07,-48.1319 L 184.031,-48.2513 L 184.008,-48.3747
 L 184,-48.5 L 184.008,-48.6253 L 184.031,-48.7487 L 184.07,-48.8681 L 184.124,-48.9818 L 184.191,-49.0878
 L 184.271,-49.1846 L 184.363,-49.2705 L 184.464,-49.3443 L 184.574,-49.4048 L 184.691,-49.4511 L 184.813,-49.4823
 L 184.937,-49.498 L 185.063,-49.498 L 185.187,-49.4823 L 185.309,-49.4511 L 185.426,-49.4048 L 185.536,-49.3443
 L 185.637,-49.2705 L 185.729,-49.1846 L 185.809,-49.0878 L 185.876,-48.9818 L 185.93,-48.8681 L 185.969,-48.7487
 L 185.992,-48.6253 L 186,-48.5 L 185.992,-48.3747 L 185.969,-48.2513 L 185.93,-48.1319 L 185.876,-48.0182
 L 185.809,-47.9122 L 185.729,-47.8155 L 185.637,-47.7295 L 185.536,-47.6557 L 185.426,-47.5952 L 185.309,-47.549
 L 185.187,-47.5177 L 185.063,-47.502 z
M 175.75,-44.5709 L 176.236,-44.6958 L 176.703,-44.8807 L 177.143,-45.1227 L 177.55,-45.418 L 177.916,-45.7618
 L 178.236,-46.1489 L 178.505,-46.573 L 178.719,-47.0275 L 178.874,-47.5052 L 178.968,-47.9987 L 179,-48.5
 L 179,-61.5 L 178.968,-62.0013 L 178.874,-62.4948 L 178.719,-62.9725 L 178.505,-63.427 L 178.236,-63.8511
 L 177.916,-64.2382 L 177.55,-64.582 L 177.143,-64.8773 L 176.703,-65.1193 L 176.236,-65.3042 L 175.75,-65.4291
 L 175.251,-65.4921 L 174.749,-65.4921 L 174.25,-65.4291 L 173.764,-65.3042 L 173.297,-65.1193 L 172.857,-64.8773
 L 172.45,-64.582 L 172.084,-64.2382 L 171.764,-63.8511 L 171.495,-63.427 L 171.281,-62.9725 L 171.126,-62.4948
 L 171.032,-62.0013 L 171,-61.5 L 171,-48.5 L 171.032,-47.9987 L 171.126,-47.5052 L 171.281,-47.0275
 L 171.495,-46.573 L 171.764,-46.1489 L 172.084,-45.7618 L 172.45,-45.418 L 172.857,-45.1227 L 173.297,-44.8807
 L 173.764,-44.6958 L 174.25,-44.5709 L 174.749,-44.5079 L 175.251,-44.5079 z
M 174.937,-60.502 L 174.813,-60.5177 L 174.691,-60.5489 L 174.574,-60.5952 L 174.464,-60.6557 L 174.363,-60.7295
 L 174.271,-60.8154 L 174.191,-60.9122 L 174.124,-61.0182 L 174.07,-61.1319 L 174.031,-61.2513 L 174.008,-61.3747
 L 174,-61.5 L 174.008,-61.6253 L 174.031,-61.7487 L 174.07,-61.8681 L 174.124,-61.9818 L 174.191,-62.0878
 L 174.271,-62.1845 L 174.363,-62.2705 L 174.464,-62.3443 L 174.574,-62.4048 L 174.691,-62.451 L 174.813,-62.4823
 L 174.937,-62.498 L 175.063,-62.498 L 175.187,-62.4823 L 175.309,-62.451 L 175.426,-62.4048 L 175.536,-62.3443
 L 175.637,-62.2705 L 175.729,-62.1845 L 175.809,-62.0878 L 175.876,-61.9818 L 175.93,-61.8681 L 175.969,-61.7487
 L 175.992,-61.6253 L 176,-61.5 L 175.992,-61.3747 L 175.969,-61.2513 L 175.93,-61.1319 L 175.876,-61.0182
 L 175.809,-60.9122 L 175.729,-60.8154 L 175.637,-60.7295 L 175.536,-60.6557 L 175.426,-60.5952 L 175.309,-60.5489
 L 175.187,-60.5177 L 175.063,-60.502 z
M 174.937,-47.502 L 174.813,-47.5177 L 174.691,-47.549 L 174.574,-47.5952 L 174.464,-47.6557 L 174.363,-47.7295
 L 174.271,-47.8155 L 174.191,-47.9122 L 174.124,-48.0182 L 174.07,-48.1319 L 174.031,-48.2513 L 174.008,-48.3747
 L 174,-48.5 L 174.008,-48.6253 L 174.031,-48.7487 L 174.07,-48.8681 L 174.124,-48.9818 L 174.191,-49.0878
 L 174.271,-49.1846 L 174.363,-49.2705 L 174.464,-49.3443 L 174.574,-49.4048 L 174.691,-49.4511 L 174.813,-49.4823
 L 174.937,-49.498 L 175.063,-49.498 L 175.187,-49.4823 L 175.309,-49.4511 L 175.426,-49.4048 L 175.536,-49.3443
 L 175.637,-49.2705 L 175.729,-49.1846 L 175.809,-49.0878 L 175.876,-48.9818 L 175.93,-48.8681 L 175.969,-48.7487
 L 175.992,-48.6253 L 176,-48.5 L 175.992,-48.3747 L 175.969,-48.2513 L 175.93,-48.1319 L 175.876,-48.0182
 L 175.809,-47.9122 L 175.729,-47.8155 L 175.637,-47.7295 L 175.536,-47.6557 L 175.426,-47.5952 L 175.309,-47.549
 L 175.187,-47.5177 L 175.063,-47.502 z
M 165.75,-44.5709 L 166.236,-44.6958 L 166.703,-44.8807 L 167.143,-45.1227 L 167.55,-45.418 L 167.916,-45.7618
 L 168.236,-46.1489 L 168.505,-46.573 L 168.719,-47.0275 L 168.874,-47.5052 L 168.968,-47.9987 L 169,-48.5
 L 169,-61.5 L 168.968,-62.0013 L 168.874,-62.4948 L 168.719,-62.9725 L 168.505,-63.427 L 168.236,-63.8511
 L 167.916,-64.2382 L 167.55,-64.582 L 167.143,-64.8773 L 166.703,-65.1193 L 166.236,-65.3042 L 165.75,-65.4291
 L 165.251,-65.4921 L 164.749,-65.4921 L 164.25,-65.4291 L 163.764,-65.3042 L 163.297,-65.1193 L 162.857,-64.8773
 L 162.45,-64.582 L 162.084,-64.2382 L 161.764,-63.8511 L 161.495,-63.427 L 161.281,-62.9725 L 161.126,-62.4948
 L 161.032,-62.0013 L 161,-61.5 L 161,-48.5 L 161.032,-47.9987 L 161.126,-47.5052 L 161.281,-47.0275
 L 161.495,-46.573 L 161.764,-46.1489 L 162.084,-45.7618 L 162.45,-45.418 L 162.857,-45.1227 L 163.297,-44.8807
 L 163.764,-44.6958 L 164.25,-44.5709 L 164.749,-44.5079 L 165.251,-44.5079 z
M 164.937,-60.502 L 164.813,-60.5177 L 164.691,-60.5489 L 164.574,-60.5952 L 164.464,-60.6557 L 164.363,-60.7295
 L 164.271,-60.8154 L 164.191,-60.9122 L 164.124,-61.0182 L 164.07,-61.1319 L 164.031,-61.2513 L 164.008,-61.3747
 L 164,-61.5 L 164.008,-61.6253 L 164.031,-61.7487 L 164.07,-61.8681 L 164.124,-61.9818 L 164.191,-62.0878
 L 164.271,-62.1845 L 164.363,-62.2705 L 164.464,-62.3443 L 164.574,-62.4048 L 164.691,-62.451 L 164.813,-62.4823
 L 164.937,-62.498 L 165.063,-62.498 L 165.187,-62.4823 L 165.309,-62.451 L 165.426,-62.4048 L 165.536,-62.3443
 L 165.637,-62.2705 L 165.729,-62.1845 L 165.809,-62.0878 L 165.876,-61.9818 L 165.93,-61.8681 L 165.969,-61.7487
 L 165.992,-61.6253 L 166,-61.5 L 165.992,-61.3747 L 165.969,-61.2513 L 165.93,-61.1319 L 165.876,-61.0182
 L 165.809,-60.9122 L 165.729,-60.8154 L 165.637,-60.7295 L 165.536,-60.6557 L 165.426,-60.5952 L 165.309,-60.5489
 L 165.187,-60.5177 L 165.063,-60.502 z
M 164.937,-47.502 L 164.813,-47.5177 L 164.691,-47.549 L 164.574,-47.5952 L 164.464,-47.6557 L 164.363,-47.7295
 L 164.271,-47.8155 L 164.191,-47.9122 L 164.124,-48.0182 L 164.07,-48.1319 L 164.031,-48.2513 L 164.008,-48.3747
 L 164,-48.5 L 164.008,-48.6253 L 164.031,-48.7487 L 164.07,-48.8681 L 164.124,-48.9818 L 164.191,-49.0878
 L 164.271,-49.1846 L 164.363,-49.2705 L 164.464,-49.3443 L 164.574,-49.4048 L 164.691,-49.4511 L 164.813,-49.4823
 L 164.937,-49.498 L 165.063,-49.498 L 165.187,-49.4823 L 165.309,-49.4511 L 165.426,-49.4048 L 165.536,-49.3443
 L 165.637,-49.2705 L 165.729,-49.1846 L 165.809,-49.0878 L 165.876,-48.9818 L 165.93,-48.8681 L 165.969,-48.7487
 L 165.992,-48.6253 L 166,-48.5 L 165.992,-48.3747 L 165.969,-48.2513 L 165.93,-48.1319 L 165.876,-48.0182
 L 165.809,-47.9122 L 165.729,-47.8155 L 165.637,-47.7295 L 165.536,-47.6557 L 165.426,-47.5952 L 165.309,-47.549
 L 165.187,-47.5177 L 165.063,-47.502 z
M 155.75,-44.5709 L 156.236,-44.6958 L 156.703,-44.8807 L 157.143,-45.1227 L 157.55,-45.418 L 157.916,-45.7618
 L 158.236,-46.1489 L 158.505,-46.573 L 158.719,-47.0275 L 158.874,-47.5052 L 158.968,-47.9987 L 159,-48.5
 L 159,-61.5 L 158.968,-62.0013 L 158.874,-62.4948 L 158.719,-62.9725 L 158.505,-63.427 L 158.236,-63.8511
 L 157.916,-64.2382 L 157.55,-64.582 L 157.143,-64.8773 L 156.703,-65.1193 L 156.236,-65.3042 L 155.75,-65.4291
 L 155.251,-65.4921 L 154.749,-65.4921 L 154.25,-65.4291 L 153.764,-65.3042 L 153.297,-65.1193 L 152.857,-64.8773
 L 152.45,-64.582 L 152.084,-64.2382 L 151.764,-63.8511 L 151.495,-63.427 L 151.281,-62.9725 L 151.126,-62.4948
 L 151.032,-62.0013 L 151,-61.5 L 151,-48.5 L 151.032,-47.9987 L 151.126,-47.5052 L 151.281,-47.0275
 L 151.495,-46.573 L 151.764,-46.1489 L 152.084,-45.7618 L 152.45,-45.418 L 152.857,-45.1227 L 153.297,-44.8807
 L 153.764,-44.6958 L 154.25,-44.5709 L 154.749,-44.5079 L 155.251,-44.5079 z
M 154.937,-60.502 L 154.813,-60.5177 L 154.691,-60.5489 L 154.574,-60.5952 L 154.464,-60.6557 L 154.363,-60.7295
 L 154.271,-60.8154 L 154.191,-60.9122 L 154.124,-61.0182 L 154.07,-61.1319 L 154.031,-61.2513 L 154.008,-61.3747
 L 154,-61.5 L 154.008,-61.6253 L 154.031,-61.7487 L 154.07,-61.8681 L 154.124,-61.9818 L 154.191,-62.0878
 L 154.271,-62.1845 L 154.363,-62.2705 L 154.464,-62.3443 L 154.574,-62.4048 L 154.691,-62.451 L 154.813,-62.4823
 L 154.937,-62.498 L 155.063,-62.498 L 155.187,-62.4823 L 155.309,-62.451 L 155.426,-62.4048 L 155.536,-62.3443
 L 155.637,-62.2705 L 155.729,-62.1845 L 155.809,-62.0878 L 155.876,-61.9818 L 155.93,-61.8681 L 155.969,-61.7487
 L 155.992,-61.6253 L 156,-61.5 L 155.992,-61.3747 L 155.969,-61.2513 L 155.93,-61.1319 L 155.876,-61.0182
 L 155.809,-60.9122 L 155.729,-60.8154 L 155.637,-60.7295 L 155.536,-60.6557 L 155.426,-60.5952 L 155.309,-60.5489
 L 155.187,-60.5177 L 155.063,-60.502 z
M 154.937,-47.502 L 154.813,-47.5177 L 154.691,-47.549 L 154.574,-47.5952 L 154.464,-47.6557 L 154.363,-47.7295
 L 154.271,-47.8155 L 154.191,-47.9122 L 154.124,-48.0182 L 154.07,-48.1319 L 154.031,-48.2513 L 154.008,-48.3747
 L 154,-48.5 L 154.008,-48.6253 L 154.031,-48.7487 L 154.07,-48.8681 L 154.124,-48.9818 L 154.191,-49.0878
 L 154.271,-49.1846 L 154.363,-49.2705 L 154.464,-49.3443 L 154.574,-49.4048 L 154.691,-49.4511 L 154.813,-49.4823
 L 154.937,-49.498 L 155.063,-49.498 L 155.187,-49.4823 L 155.309,-49.4511 L 155.426,-49.4048 L 155.536,-49.3443
 L 155.637,-49.2705 L 155.729,-49.1846 L 155.809,-49.0878 L 155.876,-48.9818 L 155.93,-48.8681 L 155.969,-48.7487
 L 155.992,-48.6253 L 156,-48.5 L 155.992,-48.3747 L 155.969,-48.2513 L 155.93,-48.1319 L 155.876,-48.0182
 L 155.809,-47.9122 L 155.729,-47.8155 L 155.637,-47.7295 L 155.536,-47.6557 L 155.426,-47.5952 L 155.309,-47.549
 L 155.187,-47.5177 L 155.063,-47.502 z
M 220.925,-44.6451 L 220.148,-47.5429 L 225.783,-49.0527 L 225,-51.9747 L 225,-60 L 219.167,-60
 L 219.167,-63 L 200.833,-63 L 200.833,-60 L 195,-60 L 195,-51.1571 L 194.217,-50.9473
 L 196.805,-41.2881 L 202.44,-42.7979 L 203.216,-39.9001 z
M 137.436,-37.2303 L 139.017,-37.6363 L 140.535,-38.2373 L 141.966,-39.0237 L 143.286,-39.9833 L 144.477,-41.1009
 L 145.517,-42.3588 L 146.392,-43.7372 L 147.087,-45.2144 L 147.592,-46.767 L 147.897,-48.3707 L 148,-50
 L 147.897,-51.6293 L 147.592,-53.233 L 147.087,-54.7856 L 146.392,-56.2628 L 145.517,-57.6412 L 144.477,-58.8991
 L 143.286,-60.0167 L 141.966,-60.9763 L 140.535,-61.7627 L 139.017,-62.3637 L 137.436,-62.7697 L 135.816,-62.9743
 L 134.184,-62.9743 L 132.564,-62.7697 L 130.983,-62.3637 L 129.465,-61.7627 L 128.034,-60.9763 L 126.714,-60.0167
 L 125.523,-58.8991 L 124.483,-57.6412 L 123.608,-56.2628 L 122.913,-54.7856 L 122.408,-53.233 L 122.103,-51.6293
 L 122,-50 L 122.103,-48.3707 L 122.408,-46.767 L 122.913,-45.2144 L 123.608,-43.7372 L 124.483,-42.3588
 L 125.523,-41.1009 L 126.714,-39.9833 L 128.034,-39.0237 L 129.465,-38.2373 L 130.983,-37.6363 L 132.564,-37.2303
 L 134.184,-37.0257 L 135.816,-37.0257 z
M 134.937,-58.502 L 134.813,-58.5177 L 134.691,-58.5489 L 134.574,-58.5952 L 134.464,-58.6557 L 134.363,-58.7295
 L 134.271,-58.8154 L 134.191,-58.9122 L 134.124,-59.0182 L 134.07,-59.1319 L 134.031,-59.2513 L 134.008,-59.3747
 L 134,-59.5 L 134.008,-59.6253 L 134.031,-59.7487 L 134.07,-59.8681 L 134.124,-59.9818 L 134.191,-60.0878
 L 134.271,-60.1845 L 134.363,-60.2705 L 134.464,-60.3443 L 134.574,-60.4048 L 134.691,-60.451 L 134.813,-60.4823
 L 134.937,-60.498 L 135.063,-60.498 L 135.187,-60.4823 L 135.309,-60.451 L 135.426,-60.4048 L 135.536,-60.3443
 L 135.637,-60.2705 L 135.729,-60.1845 L 135.809,-60.0878 L 135.876,-59.9818 L 135.93,-59.8681 L 135.969,-59.7487
 L 135.992,-59.6253 L 136,-59.5 L 135.992,-59.3747 L 135.969,-59.2513 L 135.93,-59.1319 L 135.876,-59.0182
 L 135.809,-58.9122 L 135.729,-58.8154 L 135.637,-58.7295 L 135.536,-58.6557 L 135.426,-58.5952 L 135.309,-58.5489
 L 135.187,-58.5177 L 135.063,-58.502 z
M 134.623,-44.0118 L 133.876,-44.1063 L 133.146,-44.2937 L 132.445,-44.571 L 131.785,-44.934 L 131.175,-45.3769
 L 130.626,-45.8927 L 130.146,-46.4733 L 129.742,-47.1095 L 129.421,-47.7913 L 129.189,-48.5079 L 129.047,-49.248
 L 129,-50 L 129.047,-50.752 L 129.189,-51.4921 L 129.421,-52.2087 L 129.742,-52.8905 L 130.146,-53.5267
 L 130.626,-54.1073 L 131.175,-54.6231 L 131.785,-55.066 L 132.445,-55.429 L 133.146,-55.7063 L 133.876,-55.8937
 L 134.623,-55.9882 L 135.377,-55.9882 L 136.124,-55.8937 L 136.854,-55.7063 L 137.555,-55.429 L 138.215,-55.066
 L 138.825,-54.6231 L 139.374,-54.1073 L 139.854,-53.5267 L 140.258,-52.8905 L 140.579,-52.2087 L 140.811,-51.4921
 L 140.953,-50.752 L 141,-50 L 140.953,-49.248 L 140.811,-48.5079 L 140.579,-47.7913 L 140.258,-47.1095
 L 139.854,-46.4733 L 139.374,-45.8927 L 138.825,-45.3769 L 138.215,-44.934 L 137.555,-44.571 L 136.854,-44.2937
 L 136.124,-44.1063 L 135.377,-44.0118 z
M 125.437,-49.002 L 125.313,-49.0177 L 125.191,-49.049 L 125.074,-49.0952 L 124.964,-49.1557 L 124.863,-49.2295
 L 124.771,-49.3155 L 124.691,-49.4122 L 124.624,-49.5182 L 124.57,-49.6319 L 124.531,-49.7513 L 124.508,-49.8747
 L 124.5,-50 L 124.508,-50.1253 L 124.531,-50.2487 L 124.57,-50.3681 L 124.624,-50.4818 L 124.691,-50.5878
 L 124.771,-50.6845 L 124.863,-50.7705 L 124.964,-50.8443 L 125.074,-50.9048 L 125.191,-50.951 L 125.313,-50.9823
 L 125.437,-50.998 L 125.563,-50.998 L 125.687,-50.9823 L 125.809,-50.951 L 125.926,-50.9048 L 126.036,-50.8443
 L 126.137,-50.7705 L 126.229,-50.6845 L 126.309,-50.5878 L 126.376,-50.4818 L 126.43,-50.3681 L 126.469,-50.2487
 L 126.492,-50.1253 L 126.5,-50 L 126.492,-49.8747 L 126.469,-49.7513 L 126.43,-49.6319 L 126.376,-49.5182
 L 126.309,-49.4122 L 126.229,-49.3155 L 126.137,-49.2295 L 126.036,-49.1557 L 125.926,-49.0952 L 125.809,-49.049
 L 125.687,-49.0177 L 125.563,-49.002 z
M 144.437,-49.002 L 144.313,-49.0177 L 144.191,-49.049 L 144.074,-49.0952 L 143.964,-49.1557 L 143.863,-49.2295
 L 143.771,-49.3155 L 143.691,-49.4122 L 143.624,-49.5182 L 143.57,-49.6319 L 143.531,-49.7513 L 143.508,-49.8747
 L 143.5,-50 L 143.508,-50.1253 L 143.531,-50.2487 L 143.57,-50.3681 L 143.624,-50.4818 L 143.691,-50.5878
 L 143.771,-50.6845 L 143.863,-50.7705 L 143.964,-50.8443 L 144.074,-50.9048 L 144.191,-50.951 L 144.313,-50.9823
 L 144.437,-50.998 L 144.563,-50.998 L 144.687,-50.9823 L 144.809,-50.951 L 144.926,-50.9048 L 145.036,-50.8443
 L 145.137,-50.7705 L 145.229,-50.6845 L 145.309,-50.5878 L 145.376,-50.4818 L 145.43,-50.3681 L 145.469,-50.2487
 L 145.492,-50.1253 L 145.5,-50 L 145.492,-49.8747 L 145.469,-49.7513 L 145.43,-49.6319 L 145.376,-49.5182
 L 145.309,-49.4122 L 145.229,-49.3155 L 145.137,-49.2295 L 145.036,-49.1557 L 144.926,-49.0952 L 144.809,-49.049
 L 144.687,-49.0177 L 144.563,-49.002 z
M 134.937,-39.502 L 134.813,-39.5177 L 134.691,-39.549 L 134.574,-39.5952 L 134.464,-39.6557 L 134.363,-39.7295
 L 134.271,-39.8155 L 134.191,-39.9122 L 134.124,-40.0182 L 134.07,-40.1319 L 134.031,-40.2513 L 134.008,-40.3747
 L 134,-40.5 L 134.008,-40.6253 L 134.031,-40.7487 L 134.07,-40.8681 L 134.124,-40.9818 L 134.191,-41.0878
 L 134.271,-41.1846 L 134.363,-41.2705 L 134.464,-41.3443 L 134.574,-41.4048 L 134.691,-41.4511 L 134.813,-41.4823
 L 134.937,-41.498 L 135.063,-41.498 L 135.187,-41.4823 L 135.309,-41.4511 L 135.426,-41.4048 L 135.536,-41.3443
 L 135.637,-41.2705 L 135.729,-41.1846 L 135.809,-41.0878 L 135.876,-40.9818 L 135.93,-40.8681 L 135.969,-40.7487
 L 135.992,-40.6253 L 136,-40.5 L 135.992,-40.3747 L 135.969,-40.2513 L 135.93,-40.1319 L 135.876,-40.0182
 L 135.809,-39.9122 L 135.729,-39.8155 L 135.637,-39.7295 L 135.536,-39.6557 L 135.426,-39.5952 L 135.309,-39.549
 L 135.187,-39.5177 L 135.063,-39.502 z
M 12.2495,40.9291 L 12.7361,40.8042 L 13.2031,40.6193 L 13.6433,40.3773 L 14.0497,40.082 L 14.4159,39.7382
 L 14.7361,39.3511 L 15.0052,38.927 L 15.2191,38.4725 L 15.3743,37.9948 L 15.4684,37.5013 L 15.5,37
 L 15.5,-37 L 15.4684,-37.5013 L 15.3743,-37.9948 L 15.2191,-38.4725 L 15.0052,-38.927 L 14.7361,-39.3511
 L 14.4159,-39.7382 L 14.0497,-40.082 L 13.6433,-40.3773 L 13.2031,-40.6193 L 12.7361,-40.8042 L 12.2495,-40.9291
 L 11.7512,-40.9921 L -11.7512,-40.9921 L -12.2495,-40.9291 L -12.7361,-40.8042 L -13.2031,-40.6193 L -13.6433,-40.3773
 L -14.0497,-40.082 L -14.4159,-39.7382 L -14.7361,-39.3511 L -15.0052,-38.927 L -15.2191,-38.4725 L -15.3743,-37.9948
 L -15.4684,-37.5013 L -15.5,-37 L -15.5,37 L -15.4684,37.5013 L -15.3743,37.9948 L -15.2191,38.4725
 L -15.0052,38.927 L -14.7361,39.3511 L -14.4159,39.7382 L -14.0497,40.082 L -13.6433,40.3773 L -13.2031,40.6193
 L -12.7361,40.8042 L -12.2495,40.9291 L -11.7512,40.9921 L 11.7512,40.9921 z
M -11.5628,-28.002 L -11.6874,-28.0177 L -11.809,-28.0489 L -11.9258,-28.0952 L -12.0358,-28.1557 L -12.1374,-28.2295
 L -12.229,-28.3154 L -12.309,-28.4122 L -12.3763,-28.5182 L -12.4298,-28.6319 L -12.4686,-28.7513 L -12.4921,-28.8747
 L -12.5,-29 L -12.4921,-29.1253 L -12.4686,-29.2487 L -12.4298,-29.3681 L -12.3763,-29.4818 L -12.309,-29.5878
 L -12.229,-29.6845 L -12.1374,-29.7705 L -12.0358,-29.8443 L -11.9258,-29.9048 L -11.809,-29.951 L -11.6874,-29.9823
 L -11.5628,-29.998 L -11.4372,-29.998 L -11.3126,-29.9823 L -11.191,-29.951 L -11.0742,-29.9048 L -10.9642,-29.8443
 L -10.8626,-29.7705 L -10.771,-29.6845 L -10.691,-29.5878 L -10.6237,-29.4818 L -10.5702,-29.3681 L -10.5314,-29.2487
 L -10.5079,-29.1253 L -10.5,-29 L -10.5079,-28.8747 L -10.5314,-28.7513 L -10.5702,-28.6319 L -10.6237,-28.5182
 L -10.691,-28.4122 L -10.771,-28.3154 L -10.8626,-28.2295 L -10.9642,-28.1557 L -11.0742,-28.0952 L -11.191,-28.0489
 L -11.3126,-28.0177 L -11.4372,-28.002 z
M 11.4372,-28.002 L 11.3126,-28.0177 L 11.191,-28.0489 L 11.0742,-28.0952 L 10.9642,-28.1557 L 10.8626,-28.2295
 L 10.771,-28.3154 L 10.691,-28.4122 L 10.6237,-28.5182 L 10.5702,-28.6319 L 10.5314,-28.7513 L 10.5079,-28.8747
 L 10.5,-29 L 10.5079,-29.1253 L 10.5314,-29.2487 L 10.5702,-29.3681 L 10.6237,-29.4818 L 10.691,-29.5878
 L 10.771,-29.6845 L 10.8626,-29.7705 L 10.9642,-29.8443 L 11.0742,-29.9048 L 11.191,-29.951 L 11.3126,-29.9823
 L 11.4372,-29.998 L 11.5628,-29.998 L 11.6874,-29.9823 L 11.809,-29.951 L 11.9258,-29.9048 L 12.0358,-29.8443
 L 12.1374,-29.7705 L 12.229,-29.6845 L 12.309,-29.5878 L 12.3763,-29.4818 L 12.4298,-29.3681 L 12.4686,-29.2487
 L 12.4921,-29.1253 L 12.5,-29 L 12.4921,-28.8747 L 12.4686,-28.7513 L 12.4298,-28.6319 L 12.3763,-28.5182
 L 12.309,-28.4122 L 12.229,-28.3154 L 12.1374,-28.2295 L 12.0358,-28.1557 L 11.9258,-28.0952 L 11.809,-28.0489
 L 11.6874,-28.0177 L 11.5628,-28.002 z
M -0.0627899,-8.50197 L -0.187378,-8.5177 L -0.309006,-8.54893 L -0.425766,-8.59517 L -0.535812,-8.65567 L -0.637421,-8.72948
 L -0.728958,-8.81544 L -0.809006,-8.9122 L -0.876297,-9.01823 L -0.929764,-9.13187 L -0.968582,-9.2513 L -0.992111,-9.37466
 L -1,-9.5 L -0.992111,-9.62532 L -0.968582,-9.74869 L -0.929764,-9.86812 L -0.876297,-9.98175 L -0.809006,-10.0878
 L -0.728958,-10.1845 L -0.637421,-10.2705 L -0.535812,-10.3443 L -0.425766,-10.4048 L -0.309006,-10.451 L -0.187378,-10.4823
 L -0.0627899,-10.498 L 0.0627899,-10.498 L 0.187378,-10.4823 L 0.309006,-10.451 L 0.425766,-10.4048 L 0.535812,-10.3443
 L 0.637421,-10.2705 L 0.728958,-10.1845 L 0.809006,-10.0878 L 0.876297,-9.98175 L 0.929764,-9.86812 L 0.968582,-9.74869
 L 0.992111,-9.62532 L 1,-9.5 L 0.992111,-9.37466 L 0.968582,-9.2513 L 0.929764,-9.13187 L 0.876297,-9.01823
 L 0.809006,-8.9122 L 0.728958,-8.81544 L 0.637421,-8.72948 L 0.535812,-8.65567 L 0.425766,-8.59517 L 0.309006,-8.54893
 L 0.187378,-8.5177 L 0.0627899,-8.50197 z
M 9.43719,0.998016 L 9.31261,0.982285 L 9.19098,0.95105 L 9.07422,0.904816 L 8.96417,0.844315 L 8.86256,0.770508
 L 8.77103,0.68454 L 8.69098,0.587784 L 8.62369,0.48175 L 8.57022,0.368118 L 8.5314,0.248688 L 8.50787,0.12532
 L 8.5,-0 L 8.50787,-0.12532 L 8.5314,-0.248688 L 8.57022,-0.368118 L 8.62369,-0.48175 L 8.69098,-0.587784
 L 8.77103,-0.68454 L 8.86256,-0.770508 L 8.96417,-0.844315 L 9.07422,-0.904816 L 9.19098,-0.95105 L 9.31261,-0.982285
 L 9.43719,-0.998016 L 9.56279,-0.998016 L 9.68738,-0.982285 L 9.80901,-0.95105 L 9.92577,-0.904816 L 10.0358,-0.844315
 L 10.1374,-0.770508 L 10.229,-0.68454 L 10.309,-0.587784 L 10.3763,-0.48175 L 10.4298,-0.368118 L 10.4686,-0.248688
 L 10.4921,-0.12532 L 10.5,-0 L 10.4921,0.12532 L 10.4686,0.248688 L 10.4298,0.368118 L 10.3763,0.48175
 L 10.309,0.587784 L 10.229,0.68454 L 10.1374,0.770508 L 10.0358,0.844315 L 9.92577,0.904816 L 9.80901,0.95105
 L 9.68738,0.982285 L 9.56279,0.998016 z
M -9.56279,0.998016 L -9.68738,0.982285 L -9.80901,0.95105 L -9.92577,0.904816 L -10.0358,0.844315 L -10.1374,0.770508
 L -10.229,0.68454 L -10.309,0.587784 L -10.3763,0.48175 L -10.4298,0.368118 L -10.4686,0.248688 L -10.4921,0.12532
 L -10.5,-0 L -10.4921,-0.12532 L -10.4686,-0.248688 L -10.4298,-0.368118 L -10.3763,-0.48175 L -10.309,-0.587784
 L -10.229,-0.68454 L -10.1374,-0.770508 L -10.0358,-0.844315 L -9.92577,-0.904816 L -9.80901,-0.95105 L -9.68738,-0.982285
 L -9.56279,-0.998016 L -9.43719,-0.998016 L -9.31261,-0.982285 L -9.19098,-0.95105 L -9.07422,-0.904816 L -8.96417,-0.844315
 L -8.86256,-0.770508 L -8.77103,-0.68454 L -8.69098,-0.587784 L -8.62369,-0.48175 L -8.57022,-0.368118 L -8.5314,-0.248688
 L -8.50787,-0.12532 L -8.5,-0 L -8.50787,0.12532 L -8.5314,0.248688 L -8.57022,0.368118 L -8.62369,0.48175
 L -8.69098,0.587784 L -8.77103,0.68454 L -8.86256,0.770508 L -8.96417,0.844315 L -9.07422,0.904816 L -9.19098,0.95105
 L -9.31261,0.982285 L -9.43719,0.998016 z
M -0.0627899,10.498 L -0.187378,10.4823 L -0.309006,10.451 L -0.425766,10.4048 L -0.535812,10.3443 L -0.637421,10.2705
 L -0.728958,10.1845 L -0.809006,10.0878 L -0.876297,9.98175 L -0.929764,9.86812 L -0.968582,9.74869 L -0.992111,9.62532
 L -1,9.5 L -0.992111,9.37466 L -0.968582,9.2513 L -0.929764,9.13187 L -0.876297,9.01823 L -0.809006,8.9122
 L -0.728958,8.81544 L -0.637421,8.72948 L -0.535812,8.65567 L -0.425766,8.59517 L -0.309006,8.54893 L -0.187378,8.5177
 L -0.0627899,8.50197 L 0.0627899,8.50197 L 0.187378,8.5177 L 0.309006,8.54893 L 0.425766,8.59517 L 0.535812,8.65567
 L 0.637421,8.72948 L 0.728958,8.81544 L 0.809006,8.9122 L 0.876297,9.01823 L 0.929764,9.13187 L 0.968582,9.2513
 L 0.992111,9.37466 L 1,9.5 L 0.992111,9.62532 L 0.968582,9.74869 L 0.929764,9.86812 L 0.876297,9.98175
 L 0.809006,10.0878 L 0.728958,10.1845 L 0.637421,10.2705 L 0.535812,10.3443 L 0.425766,10.4048 L 0.309006,10.451
 L 0.187378,10.4823 L 0.0627899,10.498 z
M -7.5,36 L -7.5,26 L -4.5,26 L -4.5,36 z
M 4.5,36 L 4.5,26 L 7.5,26 L 7.5,36 z
M 11.4372,29.998 L 11.3126,29.9823 L 11.191,29.951 L 11.0742,29.9048 L 10.9642,29.8443 L 10.8626,29.7705
 L 10.771,29.6845 L 10.691,29.5878 L 10.6237,29.4818 L 10.5702,29.3681 L 10.5314,29.2487 L 10.5079,29.1253
 L 10.5,29 L 10.5079,28.8747 L 10.5314,28.7513 L 10.5702,28.6319 L 10.6237,28.5182 L 10.691,28.4122
 L 10.771,28.3154 L 10.8626,28.2295 L 10.9642,28.1557 L 11.0742,28.0952 L 11.191,28.0489 L 11.3126,28.0177
 L 11.4372,28.002 L 11.5628,28.002 L 11.6874,28.0177 L 11.809,28.0489 L 11.9258,28.0952 L 12.0358,28.1557
 L 12.1374,28.2295 L 12.229,28.3154 L 12.309,28.4122 L 12.3763,28.5182 L 12.4298,28.6319 L 12.4686,28.7513
 L 12.4921,28.8747 L 12.5,29 L 12.4921,29.1253 L 12.4686,29.2487 L 12.4298,29.3681 L 12.3763,29.4818
 L 12.309,29.5878 L 12.229,29.6845 L 12.1374,29.7705 L 12.0358,29.8443 L 11.9258,29.9048 L 11.809,29.951
 L 11.6874,29.9823 L 11.5628,29.998 z
M -11.5628,29.998 L -11.6874,29.9823 L -11.809,29.951 L -11.9258,29.9048 L -12.0358,29.8443 L -12.1374,29.7705
 L -12.229,29.6845 L -12.309,29.5878 L -12.3763,29.4818 L -12.4298,29.3681 L -12.4686,29.2487 L -12.4921,29.1253
 L -12.5,29 L -12.4921,28.8747 L -12.4686,28.7513 L -12.4298,28.6319 L -12.3763,28.5182 L -12.309,28.4122
 L -12.229,28.3154 L -12.1374,28.2295 L -12.0358,28.1557 L -11.9258,28.0952 L -11.809,28.0489 L -11.6874,28.0177
 L -11.5628,28.002 L -11.4372,28.002 L -11.3126,28.0177 L -11.191,28.0489 L -11.0742,28.0952 L -10.9642,28.1557
 L -10.8626,28.2295 L -10.771,28.3154 L -10.691,28.4122 L -10.6237,28.5182 L -10.5702,28.6319 L -10.5314,28.7513
 L -10.5079,28.8747 L -10.5,29 L -10.5079,29.1253 L -10.5314,29.2487 L -10.5702,29.3681 L -10.6237,29.4818
 L -10.691,29.5878 L -10.771,29.6845 L -10.8626,29.7705 L -10.9642,29.8443 L -11.0742,29.9048 L -11.191,29.951
 L -11.3126,29.9823 L -11.4372,29.998 z
M 79.1358,40.0282 L 84.0924,38.7555 L 88.8505,36.8717 L 93.3349,34.4064 L 97.475,31.3984 L 101.205,27.8953
 L 104.467,23.9522 L 107.209,19.6315 L 109.388,15.0011 L 110.97,10.1341 L 111.929,5.10732 L 112.25,-0
 L 111.929,-5.10732 L 110.97,-10.1341 L 109.388,-15.0011 L 107.209,-19.6315 L 104.467,-23.9522 L 101.205,-27.8953
 L 97.475,-31.3984 L 93.3349,-34.4064 L 88.8505,-36.8717 L 84.0924,-38.7555 L 79.1358,-40.0282 L 74.0587,-40.6696
 L 68.9413,-40.6696 L 63.8642,-40.0282 L 58.9076,-38.7555 L 54.1495,-36.8717 L 49.6651,-34.4064 L 45.6854,-31.515
 L 45.6854,-30.0551 L 57.3869,-18.3536 L 57.6271,-18.0634 L 57.8289,-17.7453 L 57.9893,-17.4044 L 58.1058,-17.0461
 L 58.1763,-16.676 L 58.2,-16.3 L 58.1763,-15.924 L 58.1058,-15.5539 L 57.9893,-15.1956 L 57.8289,-14.8547
 L 57.6271,-14.5366 L 57.3869,-14.2464 L 57.1123,-13.9884 L 56.8075,-13.767 L 56.4773,-13.5855 L 56.1271,-13.4468
 L 55.7621,-13.3531 L 55.3884,-13.3059 L 55.0116,-13.3059 L 54.6379,-13.3531 L 54.2729,-13.4468 L 53.9227,-13.5855
 L 53.5925,-13.767 L 53.2877,-13.9884 L 53.0131,-14.2464 L 41.4449,-25.8146 L 40.0732,-25.8146 L 38.5326,-23.9522
 L 35.7905,-19.6315 L 33.6116,-15.0011 L 32.0302,-10.1341 L 31.0713,-5.10732 L 30.75,-0 L 31.0713,5.10732
 L 32.0302,10.1341 L 33.6116,15.0011 L 35.7905,19.6315 L 38.5326,23.9522 L 41.7945,27.8953 L 45.525,31.3984
 L 49.6651,34.4064 L 54.1495,36.8717 L 58.9076,38.7555 L 63.8642,40.0282 L 68.9413,40.6696 L 74.0587,40.6696
 z
M 71.4372,-19.002 L 71.3126,-19.0177 L 71.191,-19.0489 L 71.0742,-19.0952 L 70.9642,-19.1557 L 70.8626,-19.2295
 L 70.771,-19.3154 L 70.691,-19.4122 L 70.6237,-19.5182 L 70.5702,-19.6319 L 70.5314,-19.7513 L 70.5079,-19.8747
 L 70.5,-20 L 70.5079,-20.1253 L 70.5314,-20.2487 L 70.5702,-20.3681 L 70.6237,-20.4818 L 70.691,-20.5878
 L 70.771,-20.6845 L 70.8626,-20.7705 L 70.9642,-20.8443 L 71.0742,-20.9048 L 71.191,-20.951 L 71.3126,-20.9823
 L 71.4372,-20.998 L 71.5628,-20.998 L 71.6874,-20.9823 L 71.809,-20.951 L 71.9258,-20.9048 L 72.0358,-20.8443
 L 72.1374,-20.7705 L 72.229,-20.6845 L 72.309,-20.5878 L 72.3763,-20.4818 L 72.4298,-20.3681 L 72.4686,-20.2487
 L 72.4921,-20.1253 L 72.5,-20 L 72.4921,-19.8747 L 72.4686,-19.7513 L 72.4298,-19.6319 L 72.3763,-19.5182
 L 72.309,-19.4122 L 72.229,-19.3154 L 72.1374,-19.2295 L 72.0358,-19.1557 L 71.9258,-19.0952 L 71.809,-19.0489
 L 71.6874,-19.0177 L 71.5628,-19.002 z
M 76,2.5 L 76,-7.5 L 79,-7.5 L 79,2.5 z
M 64,2.5 L 64,-7.5 L 67,-7.5 L 67,2.5 z
M 91.4372,0.998016 L 91.3126,0.982285 L 91.191,0.95105 L 91.0742,0.904816 L 90.9642,0.844315 L 90.8626,0.770508
 L 90.771,0.68454 L 90.691,0.587784 L 90.6237,0.48175 L 90.5702,0.368118 L 90.5314,0.248688 L 90.5079,0.12532
 L 90.5,-0 L 90.5079,-0.12532 L 90.5314,-0.248688 L 90.5702,-0.368118 L 90.6237,-0.48175 L 90.691,-0.587784
 L 90.771,-0.68454 L 90.8626,-0.770508 L 90.9642,-0.844315 L 91.0742,-0.904816 L 91.191,-0.95105 L 91.3126,-0.982285
 L 91.4372,-0.998016 L 91.5628,-0.998016 L 91.6874,-0.982285 L 91.809,-0.95105 L 91.9258,-0.904816 L 92.0358,-0.844315
 L 92.1374,-0.770508 L 92.229,-0.68454 L 92.309,-0.587784 L 92.3763,-0.48175 L 92.4298,-0.368118 L 92.4686,-0.248688
 L 92.4921,-0.12532 L 92.5,-0 L 92.4921,0.12532 L 92.4686,0.248688 L 92.4298,0.368118 L 92.3763,0.48175
 L 92.309,0.587784 L 92.229,0.68454 L 92.1374,0.770508 L 92.0358,0.844315 L 91.9258,0.904816 L 91.809,0.95105
 L 91.6874,0.982285 L 91.5628,0.998016 z
M 71.4372,0.998016 L 71.3126,0.982285 L 71.191,0.95105 L 71.0742,0.904816 L 70.9642,0.844315 L 70.8626,0.770508
 L 70.771,0.68454 L 70.691,0.587784 L 70.6237,0.48175 L 70.5702,0.368118 L 70.5314,0.248688 L 70.5079,0.12532
 L 70.5,-0 L 70.5079,-0.12532 L 70.5314,-0.248688 L 70.5702,-0.368118 L 70.6237,-0.48175 L 70.691,-0.587784
 L 70.771,-0.68454 L 70.8626,-0.770508 L 70.9642,-0.844315 L 71.0742,-0.904816 L 71.191,-0.95105 L 71.3126,-0.982285
 L 71.4372,-0.998016 L 71.5628,-0.998016 L 71.6874,-0.982285 L 71.809,-0.95105 L 71.9258,-0.904816 L 72.0358,-0.844315
 L 72.1374,-0.770508 L 72.229,-0.68454 L 72.309,-0.587784 L 72.3763,-0.48175 L 72.4298,-0.368118 L 72.4686,-0.248688
 L 72.4921,-0.12532 L 72.5,-0 L 72.4921,0.12532 L 72.4686,0.248688 L 72.4298,0.368118 L 72.3763,0.48175
 L 72.309,0.587784 L 72.229,0.68454 L 72.1374,0.770508 L 72.0358,0.844315 L 71.9258,0.904816 L 71.809,0.95105
 L 71.6874,0.982285 L 71.5628,0.998016 z
M 51.4372,0.998016 L 51.3126,0.982285 L 51.191,0.95105 L 51.0742,0.904816 L 50.9642,0.844315 L 50.8626,0.770508
 L 50.771,0.68454 L 50.691,0.587784 L 50.6237,0.48175 L 50.5702,0.368118 L 50.5314,0.248688 L 50.5079,0.12532
 L 50.5,-0 L 50.5079,-0.12532 L 50.5314,-0.248688 L 50.5702,-0.368118 L 50.6237,-0.48175 L 50.691,-0.587784
 L 50.771,-0.68454 L 50.8626,-0.770508 L 50.9642,-0.844315 L 51.0742,-0.904816 L 51.191,-0.95105 L 51.3126,-0.982285
 L 51.4372,-0.998016 L 51.5628,-0.998016 L 51.6874,-0.982285 L 51.809,-0.95105 L 51.9258,-0.904816 L 52.0358,-0.844315
 L 52.1374,-0.770508 L 52.229,-0.68454 L 52.309,-0.587784 L 52.3763,-0.48175 L 52.4298,-0.368118 L 52.4686,-0.248688
 L 52.4921,-0.12532 L 52.5,-0 L 52.4921,0.12532 L 52.4686,0.248688 L 52.4298,0.368118 L 52.3763,0.48175
 L 52.309,0.587784 L 52.229,0.68454 L 52.1374,0.770508 L 52.0358,0.844315 L 51.9258,0.904816 L 51.809,0.95105
 L 51.6874,0.982285 L 51.5628,0.998016 z
M 71.4372,20.998 L 71.3126,20.9823 L 71.191,20.951 L 71.0742,20.9048 L 70.9642,20.8443 L 70.8626,20.7705
 L 70.771,20.6845 L 70.691,20.5878 L 70.6237,20.4818 L 70.5702,20.3681 L 70.5314,20.2487 L 70.5079,20.1253
 L 70.5,20 L 70.5079,19.8747 L 70.5314,19.7513 L 70.5702,19.6319 L 70.6237,19.5182 L 70.691,19.4122
 L 70.771,19.3154 L 70.8626,19.2295 L 70.9642,19.1557 L 71.0742,19.0952 L 71.191,19.0489 L 71.3126,19.0177
 L 71.4372,19.002 L 71.5628,19.002 L 71.6874,19.0177 L 71.809,19.0489 L 71.9258,19.0952 L 72.0358,19.1557
 L 72.1374,19.2295 L 72.229,19.3154 L 72.309,19.4122 L 72.3763,19.5182 L 72.4298,19.6319 L 72.4686,19.7513
 L 72.4921,19.8747 L 72.5,20 L 72.4921,20.1253 L 72.4686,20.2487 L 72.4298,20.3681 L 72.3763,20.4818
 L 72.309,20.5878 L 72.229,20.6845 L 72.1374,20.7705 L 72.0358,20.8443 L 71.9258,20.9048 L 71.809,20.951
 L 71.6874,20.9823 L 71.5628,20.998 z
M 167.636,40.0282 L 172.592,38.7555 L 177.35,36.8717 L 181.835,34.4064 L 185.975,31.3984 L 189.705,27.8953
 L 192.967,23.9522 L 195.709,19.6315 L 197.888,15.0011 L 199.47,10.1341 L 200.429,5.10732 L 200.75,-0
 L 200.429,-5.10732 L 199.47,-10.1341 L 197.888,-15.0011 L 195.709,-19.6315 L 192.967,-23.9522 L 189.705,-27.8953
 L 185.975,-31.3984 L 181.835,-34.4064 L 177.35,-36.8717 L 172.592,-38.7555 L 167.636,-40.0282 L 162.559,-40.6696
 L 157.441,-40.6696 L 152.364,-40.0282 L 147.408,-38.7555 L 142.65,-36.8717 L 138.165,-34.4064 L 134.185,-31.515
 L 134.185,-30.0551 L 145.887,-18.3536 L 146.127,-18.0634 L 146.329,-17.7453 L 146.489,-17.4044 L 146.606,-17.0461
 L 146.676,-16.676 L 146.7,-16.3 L 146.676,-15.924 L 146.606,-15.5539 L 146.489,-15.1956 L 146.329,-14.8547
 L 146.127,-14.5366 L 145.887,-14.2464 L 145.612,-13.9884 L 145.307,-13.767 L 144.977,-13.5855 L 144.627,-13.4468
 L 144.262,-13.3531 L 143.888,-13.3059 L 143.512,-13.3059 L 143.138,-13.3531 L 142.773,-13.4468 L 142.423,-13.5855
 L 142.093,-13.767 L 141.788,-13.9884 L 141.513,-14.2464 L 129.945,-25.8146 L 128.573,-25.8146 L 127.033,-23.9522
 L 124.291,-19.6315 L 122.112,-15.0011 L 120.53,-10.1341 L 119.571,-5.10732 L 119.25,-0 L 119.571,5.10732
 L 120.53,10.1341 L 122.112,15.0011 L 124.291,19.6315 L 127.033,23.9522 L 130.295,27.8953 L 134.025,31.3984
 L 138.165,34.4064 L 142.65,36.8717 L 147.408,38.7555 L 152.364,40.0282 L 157.441,40.6696 L 162.559,40.6696
 z
M 159.937,-19.002 L 159.813,-19.0177 L 159.691,-19.0489 L 159.574,-19.0952 L 159.464,-19.1557 L 159.363,-19.2295
 L 159.271,-19.3154 L 159.191,-19.4122 L 159.124,-19.5182 L 159.07,-19.6319 L 159.031,-19.7513 L 159.008,-19.8747
 L 159,-20 L 159.008,-20.1253 L 159.031,-20.2487 L 159.07,-20.3681 L 159.124,-20.4818 L 159.191,-20.5878
 L 159.271,-20.6845 L 159.363,-20.7705 L 159.464,-20.8443 L 159.574,-20.9048 L 159.691,-20.951 L 159.813,-20.9823
 L 159.937,-20.998 L 160.063,-20.998 L 160.187,-20.9823 L 160.309,-20.951 L 160.426,-20.9048 L 160.536,-20.8443
 L 160.637,-20.7705 L 160.729,-20.6845 L 160.809,-20.5878 L 160.876,-20.4818 L 160.93,-20.3681 L 160.969,-20.2487
 L 160.992,-20.1253 L 161,-20 L 160.992,-19.8747 L 160.969,-19.7513 L 160.93,-19.6319 L 160.876,-19.5182
 L 160.809,-19.4122 L 160.729,-19.3154 L 160.637,-19.2295 L 160.536,-19.1557 L 160.426,-19.0952 L 160.309,-19.0489
 L 160.187,-19.0177 L 160.063,-19.002 z
M 187,9.16666 L 187,-9.16666 L 190,-9.16666 L 190,9.16666 z
M 130,9.16666 L 130,-9.16666 L 133,-9.16666 L 133,9.16666 z
M 179.937,0.998016 L 179.813,0.982285 L 179.691,0.95105 L 179.574,0.904816 L 179.464,0.844315 L 179.363,0.770508
 L 179.271,0.68454 L 179.191,0.587784 L 179.124,0.48175 L 179.07,0.368118 L 179.031,0.248688 L 179.008,0.12532
 L 179,-0 L 179.008,-0.12532 L 179.031,-0.248688 L 179.07,-0.368118 L 179.124,-0.48175 L 179.191,-0.587784
 L 179.271,-0.68454 L 179.363,-0.770508 L 179.464,-0.844315 L 179.574,-0.904816 L 179.691,-0.95105 L 179.813,-0.982285
 L 179.937,-0.998016 L 180.063,-0.998016 L 180.187,-0.982285 L 180.309,-0.95105 L 180.426,-0.904816 L 180.536,-0.844315
 L 180.637,-0.770508 L 180.729,-0.68454 L 180.809,-0.587784 L 180.876,-0.48175 L 180.93,-0.368118 L 180.969,-0.248688
 L 180.992,-0.12532 L 181,-0 L 180.992,0.12532 L 180.969,0.248688 L 180.93,0.368118 L 180.876,0.48175
 L 180.809,0.587784 L 180.729,0.68454 L 180.637,0.770508 L 180.536,0.844315 L 180.426,0.904816 L 180.309,0.95105
 L 180.187,0.982285 L 180.063,0.998016 z
M 139.937,0.998016 L 139.813,0.982285 L 139.691,0.95105 L 139.574,0.904816 L 139.464,0.844315 L 139.363,0.770508
 L 139.271,0.68454 L 139.191,0.587784 L 139.124,0.48175 L 139.07,0.368118 L 139.031,0.248688 L 139.008,0.12532
 L 139,-0 L 139.008,-0.12532 L 139.031,-0.248688 L 139.07,-0.368118 L 139.124,-0.48175 L 139.191,-0.587784
 L 139.271,-0.68454 L 139.363,-0.770508 L 139.464,-0.844315 L 139.574,-0.904816 L 139.691,-0.95105 L 139.813,-0.982285
 L 139.937,-0.998016 L 140.063,-0.998016 L 140.187,-0.982285 L 140.309,-0.95105 L 140.426,-0.904816 L 140.536,-0.844315
 L 140.637,-0.770508 L 140.729,-0.68454 L 140.809,-0.587784 L 140.876,-0.48175 L 140.93,-0.368118 L 140.969,-0.248688
 L 140.992,-0.12532 L 141,-0 L 140.992,0.12532 L 140.969,0.248688 L 140.93,0.368118 L 140.876,0.48175
 L 140.809,0.587784 L 140.729,0.68454 L 140.637,0.770508 L 140.536,0.844315 L 140.426,0.904816 L 140.309,0.95105
 L 140.187,0.982285 L 140.063,0.998016 z
M 159.937,0.998016 L 159.813,0.982285 L 159.691,0.95105 L 159.574,0.904816 L 159.464,0.844315 L 159.363,0.770508
 L 159.271,0.68454 L 159.191,0.587784 L 159.124,0.48175 L 159.07,0.368118 L 159.031,0.248688 L 159.008,0.12532
 L 159,-0 L 159.008,-0.12532 L 159.031,-0.248688 L 159.07,-0.368118 L 159.124,-0.48175 L 159.191,-0.587784
 L 159.271,-0.68454 L 159.363,-0.770508 L 159.464,-0.844315 L 159.574,-0.904816 L 159.691,-0.95105 L 159.813,-0.982285
 L 159.937,-0.998016 L 160.063,-0.998016 L 160.187,-0.982285 L 160.309,-0.95105 L 160.426,-0.904816 L 160.536,-0.844315
 L 160.637,-0.770508 L 160.729,-0.68454 L 160.809,-0.587784 L 160.876,-0.48175 L 160.93,-0.368118 L 160.969,-0.248688
 L 160.992,-0.12532 L 161,-0 L 160.992,0.12532 L 160.969,0.248688 L 160.93,0.368118 L 160.876,0.48175
 L 160.809,0.587784 L 160.729,0.68454 L 160.637,0.770508 L 160.536,0.844315 L 160.426,0.904816 L 160.309,0.95105
 L 160.187,0.982285 L 160.063,0.998016 z
M 159.937,20.998 L 159.813,20.9823 L 159.691,20.951 L 159.574,20.9048 L 159.464,20.8443 L 159.363,20.7705
 L 159.271,20.6845 L 159.191,20.5878 L 159.124,20.4818 L 159.07,20.3681 L 159.031,20.2487 L 159.008,20.1253
 L 159,20 L 159.008,19.8747 L 159.031,19.7513 L 159.07,19.6319 L 159.124,19.5182 L 159.191,19.4122
 L 159.271,19.3154 L 159.363,19.2295 L 159.464,19.1557 L 159.574,19.0952 L 159.691,19.0489 L 159.813,19.0177
 L 159.937,19.002 L 160.063,19.002 L 160.187,19.0177 L 160.309,19.0489 L 160.426,19.0952 L 160.536,19.1557
 L 160.637,19.2295 L 160.729,19.3154 L 160.809,19.4122 L 160.876,19.5182 L 160.93,19.6319 L 160.969,19.7513
 L 160.992,19.8747 L 161,20 L 160.992,20.1253 L 160.969,20.2487 L 160.93,20.3681 L 160.876,20.4818
 L 160.809,20.5878 L 160.729,20.6845 L 160.637,20.7705 L 160.536,20.8443 L 160.426,20.9048 L 160.309,20.951
 L 160.187,20.9823 L 160.063,20.998 z
M 225.925,-19.6451 L 225.148,-22.5429 L 230.783,-24.0527 L 230,-26.9747 L 230,-35 L 224.167,-35
 L 224.167,-38 L 205.833,-38 L 205.833,-35 L 200,-35 L 200,-26.1571 L 199.217,-25.9473
 L 201.805,-16.2881 L 207.44,-17.7979 L 208.216,-14.9001 z
M 212.5,2.5 L 217.5,2.5 L 217.5,-2.5 L 220.5,-2.5 L 220.5,-12.5 L 209.571,-12.5
 L 202.5,-5.42892 L 202.5,5.5 L 212.5,5.5 z
M 212.5,22.5 L 217.5,22.5 L 217.5,17.5 L 220.5,17.5 L 220.5,7.5 L 209.571,7.5
 L 202.5,14.5711 L 202.5,25.5 L 212.5,25.5 z
" stroke="black" fill="none" stroke-width="0.5"/></svg>
