<?xml version="1.0" standalone="no"?>
<!DOCTYPE svg PUBLIC "-//W3C//DTD SVG 1.1//EN" "http://www.w3.org/Graphics/SVG/1.1/DTD/svg11.dtd">
<svg width="192" height="122" viewBox="0 -122 192 122" xmlns="http://www.w3.org/2000/svg" version="1.1">
<title>OpenSCAD Model</title>
<path d="
M 101.271,-63.4683 L 107,-66.0192 L 112.074,-69.7057 L 116.271,-74.3665 L 119.406,-79.7979 L 121.344,-85.7626
 L 122,-92 L 121.344,-98.2374 L 119.406,-104.202 L 116.271,-109.634 L 112.074,-114.294 L 107,-117.981
 L 101.271,-120.532 L 95.1358,-121.836 L 88.8642,-121.836 L 82.7295,-120.532 L 77,-117.981 L 71.9261,-114.294
 L 67.7295,-109.634 L 64.5936,-104.202 L 62.6556,-98.2374 L 62,-92 L 62.6556,-85.7626 L 64.5936,-79.7979
 L 67.7295,-74.3665 L 71.9261,-69.7057 L 77,-66.0192 L 82.7295,-63.4683 L 88.8642,-62.1644 L 95.1358,-62.1644
 z
M 100,-104.5 L 100,-109.5 L 104,-109.5 L 104,-104.5 z
M 80,-104.5 L 80,-109.5 L 84,-109.5 L 84,-104.5 z
M 108.687,-105.098 L 111.285,-106.598 L 114.285,-101.402 L 111.687,-99.9019 z
M 69.7154,-101.402 L 72.7154,-106.598 L 75.3135,-105.098 L 72.3135,-99.9019 z
M 90.0589,-84.7556 L 88.25,-85.5048 L 86.6967,-86.6967 L 85.5048,-88.25 L 84.7556,-90.0589 L 84.5,-92
 L 84.7556,-93.9411 L 85.5048,-95.75 L 86.6967,-97.3033 L 88.25,-98.4952 L 90.0589,-99.2444 L 92,-99.5
 L 93.9411,-99.2444 L 95.75,-98.4952 L 97.3033,-97.3033 L 98.4952,-95.75 L 99.2444,-93.9411 L 99.5,-92
 L 99.2444,-90.0589 L 98.4952,-88.25 L 97.3033,-86.6967 L 95.75,-85.5048 L 93.9411,-84.7556 L 92,-84.5
 z
M 102,-86 L 102,-98 L 112,-98 L 112,-86 z
M 72,-86 L 72,-98 L 82,-98 L 82,-86 z
M 100,-74.5 L 100,-79.5 L 104,-79.5 L 104,-74.5 z
M 80,-74.5 L 80,-79.5 L 84,-79.5 L 84,-74.5 z
M 89,-68 L 89,-71 L 95,-71 L 95,-68 z
M 39.2705,-63.4683 L 45,-66.0192 L 50.0739,-69.7057 L 54.2705,-74.3665 L 57.4064,-79.7979 L 59.3444,-85.7626
 L 60,-92 L 59.3444,-98.2374 L 57.4064,-104.202 L 54.2705,-109.634 L 50.0739,-114.294 L 45,-117.981
 L 39.2705,-120.532 L 33.1358,-121.836 L 26.8642,-121.836 L 20.7295,-120.532 L 15,-117.981 L 9.92609,-114.294
 L 5.72949,-109.634 L 2.59364,-104.202 L 0.655579,-98.2374 L 0,-92 L 0.655579,-85.7626 L 2.59364,-79.7979
 L 5.72949,-74.3665 L 9.92609,-69.7057 L 15,-66.0192 L 20.7295,-63.4683 L 26.8642,-62.1644 L 33.1358,-62.1644
 z
M 18,-104.5 L 18,-109.5 L 22,-109.5 L 22,-104.5 z
M 38,-104.5 L 38,-109.5 L 42,-109.5 L 42,-104.5 z
M 7.71539,-101.402 L 10.7154,-106.598 L 13.3135,-105.098 L 10.3135,-99.9019 z
M 46.6865,-105.098 L 49.2846,-106.598 L 52.2846,-101.402 L 49.6865,-99.9019 z
M 28.0589,-84.7556 L 26.25,-85.5048 L 24.6967,-86.6967 L 23.5048,-88.25 L 22.7556,-90.0589 L 22.5,-92
 L 22.7556,-93.9411 L 23.5048,-95.75 L 24.6967,-97.3033 L 26.25,-98.4952 L 28.0589,-99.2444 L 30,-99.5
 L 31.9411,-99.2444 L 33.75,-98.4952 L 35.3033,-97.3033 L 36.4952,-95.75 L 37.2444,-93.9411 L 37.5,-92
 L 37.2444,-90.0589 L 36.4952,-88.25 L 35.3033,-86.6967 L 33.75,-85.5048 L 31.9411,-84.7556 L 30,-84.5
 z
M 40,-86 L 40,-98 L 50,-98 L 50,-86 z
M 10,-86 L 10,-98 L 20,-98 L 20,-86 z
M 38,-74.5 L 38,-79.5 L 42,-79.5 L 42,-74.5 z
M 18,-74.5 L 18,-79.5 L 22,-79.5 L 22,-74.5 z
M 27,-68 L 27,-71 L 33,-71 L 33,-68 z
M 190,-94 L 190,-100 L 128,-100 L 128,-94 L 137,-94 L 137,-76
 L 128,-76 L 128,-70 L 190,-70 L 190,-76 L 187,-76 L 187,-94
 z
M 168,-2 L 168,-5 L 186,-5 L 186,-2 L 192,-2 L 192,-64
 L 186,-64 L 186,-55 L 168,-55 L 168,-64 L 162,-64 L 162,-2
 z
M 133,-2 L 133,-5 L 151,-5 L 151,-2 L 157,-2 L 157,-64
 L 151,-64 L 151,-55 L 133,-55 L 133,-64 L 127,-64 L 127,-2
 z
M 39.2705,-1.46831 L 45,-4.01924 L 50.0739,-7.70566 L 54.2705,-12.3665 L 57.4064,-17.7979 L 59.3444,-23.7626
 L 60,-30 L 59.3444,-36.2374 L 57.4064,-42.2021 L 54.2705,-47.6335 L 50.0739,-52.2943 L 45,-55.9808
 L 39.2705,-58.5317 L 33.1358,-59.8356 L 26.8642,-59.8356 L 20.7295,-58.5317 L 15,-55.9808 L 9.92609,-52.2943
 L 5.72949,-47.6335 L 2.59364,-42.2021 L 0.655579,-36.2374 L 0,-30 L 0.655579,-23.7626 L 2.59364,-17.7979
 L 5.72949,-12.3665 L 9.92609,-7.70566 L 15,-4.01924 L 20.7295,-1.46831 L 26.8642,-0.164352 L 33.1358,-0.164352
 z
M 38,-42.5 L 38,-47.5 L 42,-47.5 L 42,-42.5 z
M 18,-42.5 L 18,-47.5 L 22,-47.5 L 22,-42.5 z
M 7.71539,-39.4019 L 10.7154,-44.5981 L 13.3135,-43.0981 L 10.3135,-37.9019 z
M 46.6865,-43.0981 L 49.2846,-44.5981 L 52.2846,-39.4019 L 49.6865,-37.9019 z
M 29.0189,-26.9804 L 27.4314,-28.1338 L 26.825,-30 L 27.4314,-31.8662 L 29.0189,-33.0196 L 30.9811,-33.0196
 L 32.5686,-31.8662 L 33.175,-30 L 32.5686,-28.1338 L 30.9811,-26.9804 z
M 18,-12.5 L 18,-17.5 L 22,-17.5 L 22,-12.5 z
M 38,-12.5 L 38,-17.5 L 42,-17.5 L 42,-12.5 z
M 27,-6 L 27,-9 L 33,-9 L 33,-6 z
M 101.271,-1.46831 L 107,-4.01924 L 112.074,-7.70566 L 116.271,-12.3665 L 119.406,-17.7979 L 121.344,-23.7626
 L 122,-30 L 121.344,-36.2374 L 119.406,-42.2021 L 116.271,-47.6335 L 112.074,-52.2943 L 107,-55.9808
 L 101.271,-58.5317 L 95.1358,-59.8356 L 88.8642,-59.8356 L 82.7295,-58.5317 L 77,-55.9808 L 71.9261,-52.2943
 L 67.7295,-47.6335 L 64.5936,-42.2021 L 62.6556,-36.2374 L 62,-30 L 62.6556,-23.7626 L 64.5936,-17.7979
 L 67.7295,-12.3665 L 71.9261,-7.70566 L 77,-4.01924 L 82.7295,-1.46831 L 88.8642,-0.164352 L 95.1358,-0.164352
 z
M 100,-42.5 L 100,-47.5 L 104,-47.5 L 104,-42.5 z
M 80,-42.5 L 80,-47.5 L 84,-47.5 L 84,-42.5 z
M 108.687,-43.0981 L 111.285,-44.5981 L 114.285,-39.4019 L 111.687,-37.9019 z
M 69.7154,-39.4019 L 72.7154,-44.5981 L 75.3135,-43.0981 L 72.3135,-37.9019 z
M 90.0589,-22.7556 L 88.25,-23.5048 L 86.6967,-24.6967 L 85.5048,-26.25 L 84.7556,-28.0589 L 84.5,-30
 L 84.7556,-31.9411 L 85.5048,-33.75 L 86.6967,-35.3033 L 88.25,-36.4952 L 90.0589,-37.2444 L 92,-37.5
 L 93.9411,-37.2444 L 95.75,-36.4952 L 97.3033,-35.3033 L 98.4952,-33.75 L 99.2444,-31.9411 L 99.5,-30
 L 99.2444,-28.0589 L 98.4952,-26.25 L 97.3033,-24.6967 L 95.75,-23.5048 L 93.9411,-22.7556 L 92,-22.5
 z
M 72,-24 L 72,-36 L 82,-36 L 82,-31.5 L 78.25,-31.5 L 78.25,-33
 L 75.75,-33 L 75.75,-27 L 78.25,-27 L 78.25,-28.5 L 82,-28.5 L 82,-24
 z
M 102,-24 L 102,-28.5 L 105.75,-28.5 L 105.75,-27 L 108.25,-27 L 108.25,-33
 L 105.75,-33 L 105.75,-31.5 L 102,-31.5 L 102,-36 L 112,-36 L 112,-24
 z
M 80,-12.5 L 80,-17.5 L 84,-17.5 L 84,-12.5 z
M 100,-12.5 L 100,-17.5 L 104,-17.5 L 104,-12.5 z
M 89,-6 L 89,-9 L 95,-9 L 95,-6 z
" stroke="black" fill="none" stroke-width="0.5"/></svg>
