G04 ( created by brdgerber.py ( brdgerber.py v0.1 2014-03-12 ) ) date 2020-11-07 22:23:14 EST*
G04 Gerber Fmt 3.4, Leading zero omitted, Abs format*
%MOIN*%
%FSLAX34Y34*%
G01*
G70*
G90*
G04 APERTURE LIST*
%ADD18C,0.1500*%
%ADD10C,0.0000*%
%ADD19R,0.0629X0.0709*%
%ADD16C,0.0120*%
%ADD14R,0.0550X0.0550*%
%ADD13C,0.0050*%
%ADD12C,0.0020*%
%ADD17R,0.0275X0.0472*%
%ADD11C,0.0060*%
%ADD15C,0.0550*%
%ADD20C,0.0200*%
%ADD21R,0.0709X0.0629*%
G04 APERTURE END LIST*
G54D18*
G36*
G01X12800Y05366D02*
G01X12616Y05182D01*
G01X13182Y04616D01*
G01X13366Y04800D01*
G01X12800Y05366D01*
G37*
G36*
G01X12446Y05012D02*
G01X12263Y04828D01*
G01X12828Y04263D01*
G01X13012Y04447D01*
G01X12446Y05012D01*
G37*
G36*
G01X12093Y04659D02*
G01X11909Y04475D01*
G01X12475Y03909D01*
G01X12659Y04093D01*
G01X12093Y04659D01*
G37*
G36*
G01X11739Y04305D02*
G01X11555Y04121D01*
G01X12121Y03556D01*
G01X12305Y03739D01*
G01X11739Y04305D01*
G37*
G36*
G01X11386Y03952D02*
G01X11202Y03768D01*
G01X11768Y03202D01*
G01X11951Y03386D01*
G01X11386Y03952D01*
G37*
G36*
G01X11032Y03598D02*
G01X10848Y03414D01*
G01X11414Y02849D01*
G01X11598Y03032D01*
G01X11032Y03598D01*
G37*
G36*
G01X10679Y03245D02*
G01X10495Y03061D01*
G01X11061Y02495D01*
G01X11244Y02679D01*
G01X10679Y03245D01*
G37*
G36*
G01X10325Y02891D02*
G01X10141Y02707D01*
G01X10707Y02141D01*
G01X10891Y02325D01*
G01X10325Y02891D01*
G37*
G36*
G01X13125Y00091D02*
G01X12941Y-00093D01*
G01X13507Y-00659D01*
G01X13691Y-00475D01*
G01X13125Y00091D01*
G37*
G36*
G01X13479Y00444D02*
G01X13295Y00261D01*
G01X13861Y-00305D01*
G01X14045Y-00121D01*
G01X13479Y00444D01*
G37*
G36*
G01X13832Y00798D02*
G01X13649Y00614D01*
G01X14214Y00048D01*
G01X14398Y00232D01*
G01X13832Y00798D01*
G37*
G36*
G01X14186Y01151D02*
G01X14002Y00968D01*
G01X14568Y00402D01*
G01X14752Y00586D01*
G01X14186Y01151D01*
G37*
G36*
G01X14539Y01505D02*
G01X14356Y01321D01*
G01X14921Y00755D01*
G01X15105Y00939D01*
G01X14539Y01505D01*
G37*
G36*
G01X14893Y01859D02*
G01X14709Y01675D01*
G01X15275Y01109D01*
G01X15459Y01293D01*
G01X14893Y01859D01*
G37*
G36*
G01X15247Y02212D02*
G01X15063Y02028D01*
G01X15628Y01463D01*
G01X15812Y01646D01*
G01X15247Y02212D01*
G37*
G36*
G01X15600Y02566D02*
G01X15416Y02382D01*
G01X15982Y01816D01*
G01X16166Y02000D01*
G01X15600Y02566D01*
G37*
G36*
G01X09972Y02537D02*
G01X09788Y02354D01*
G01X10353Y01788D01*
G01X10537Y01972D01*
G01X09972Y02537D01*
G37*
G36*
G01X09618Y02184D02*
G01X09434Y02000D01*
G01X10000Y01434D01*
G01X10184Y01618D01*
G01X09618Y02184D01*
G37*
G36*
G01X12772Y-00263D02*
G01X12588Y-00447D01*
G01X13154Y-01012D01*
G01X13337Y-00828D01*
G01X12772Y-00263D01*
G37*
G36*
G01X12418Y-00616D02*
G01X12234Y-00800D01*
G01X12800Y-01366D01*
G01X12984Y-01182D01*
G01X12418Y-00616D01*
G37*
D14*
X09500Y07700D03*
D15*
X10500Y07700D03*
D15*
X11500Y07700D03*
D15*
X12500Y07700D03*
D15*
X13500Y07700D03*
D15*
X14500Y07700D03*
D15*
X15500Y07700D03*
D17*
X17950Y03378D03*
D17*
X17950Y01922D03*
D18*
G01X15745Y-00795D02*
G01X15745Y-00795D01*
D18*
G01X15745Y04495D02*
G01X15745Y04495D01*
D18*
G01X10455Y04495D02*
G01X10455Y04495D01*
D18*
G01X10455Y-00795D02*
G01X10455Y-00795D01*
D14*
X07650Y02850D03*
D15*
X07650Y01850D03*
D19*
X15791Y00650D03*
D19*
X16909Y00650D03*
G36*
G01X16622Y02126D02*
G01X17067Y01682D01*
G01X17568Y02183D01*
G01X17124Y02628D01*
G01X16622Y02126D01*
G37*
G36*
G01X15832Y02917D02*
G01X16276Y02472D01*
G01X16778Y02974D01*
G01X16333Y03418D01*
G01X15832Y02917D01*
G37*
D14*
X11100Y-04550D03*
D15*
X12100Y-04550D03*
D15*
X13100Y-04550D03*
D17*
X17950Y00528D03*
D17*
X17950Y-00928D03*
D21*
X14650Y-03109D03*
D21*
X14650Y-01991D03*
D19*
X08609Y00350D03*
D19*
X07491Y00350D03*
D20*
G01X17850Y-00150D02*
G01X18200Y-00150D01*
D20*
G01X14500Y02150D02*
G01X14500Y02700D01*
D20*
G01X07650Y03750D02*
G01X07650Y07550D01*
D20*
G01X11700Y01250D02*
G01X11700Y02700D01*
D20*
G01X11700Y02700D02*
G01X11200Y03200D01*
D20*
G01X06950Y00500D02*
G01X07100Y00350D01*
D20*
G01X06950Y00950D02*
G01X06950Y00500D01*
D20*
G01X11500Y01050D02*
G01X11700Y01250D01*
D20*
G01X18750Y00400D02*
G01X18750Y03700D01*
D20*
G01X18750Y03700D02*
G01X15500Y06950D01*
D20*
G01X16350Y-02050D02*
G01X17300Y-01100D01*
D20*
G01X17300Y-01100D02*
G01X17300Y-00700D01*
D20*
G01X18200Y-00150D02*
G01X18750Y00400D01*
D20*
G01X13750Y-03300D02*
G01X13750Y-01350D01*
D20*
G01X08250Y03150D02*
G01X07650Y03750D01*
D20*
G01X07650Y01850D02*
G01X09750Y01850D01*
D20*
G01X09750Y01850D02*
G01X09800Y01800D01*
D20*
G01X10500Y02500D02*
G01X10450Y02500D01*
D20*
G01X12600Y-05000D02*
G01X12850Y-05250D01*
D20*
G01X12600Y-03150D02*
G01X12600Y-05000D01*
D20*
G01X08700Y07950D02*
G01X09100Y08350D01*
D20*
G01X10500Y02500D02*
G01X10500Y02550D01*
D20*
G01X10500Y02550D02*
G01X09800Y03250D01*
D20*
G01X09800Y03250D02*
G01X08700Y03250D01*
D20*
G01X08700Y03250D02*
G01X08100Y03850D01*
D20*
G01X08100Y03850D02*
G01X08100Y07350D01*
D20*
G01X08100Y07350D02*
G01X08750Y08000D01*
D20*
G01X07500Y00350D02*
G01X07500Y-00150D01*
D20*
G01X12850Y-05250D02*
G01X14200Y-05250D01*
D20*
G01X07650Y02850D02*
G01X07500Y02850D01*
D20*
G01X08900Y03650D02*
G01X08500Y04050D01*
D20*
G01X08500Y04050D02*
G01X08500Y06700D01*
D20*
G01X07500Y02850D02*
G01X06950Y02300D01*
D20*
G01X09100Y07700D02*
G01X08500Y07100D01*
D20*
G01X14000Y08200D02*
G01X13500Y07700D01*
D20*
G01X14750Y-01050D02*
G01X14750Y00450D01*
D20*
G01X14750Y00450D02*
G01X14400Y00800D01*
D20*
G01X10300Y03400D02*
G01X10850Y02850D01*
D20*
G01X10200Y03400D02*
G01X10300Y03400D01*
D20*
G01X14650Y-01150D02*
G01X14750Y-01050D01*
D20*
G01X14650Y-02000D02*
G01X14650Y-01150D01*
D20*
G01X13650Y00050D02*
G01X13650Y00100D01*
D20*
G01X13650Y00100D02*
G01X13300Y00450D01*
D20*
G01X13300Y00450D02*
G01X13300Y02250D01*
D20*
G01X13300Y02250D02*
G01X14300Y03250D01*
D20*
G01X12100Y-04550D02*
G01X12100Y-01500D01*
D20*
G01X12000Y03200D02*
G01X11600Y03600D01*
D20*
G01X08500Y07100D02*
G01X08500Y06650D01*
D20*
G01X13100Y-04550D02*
G01X13100Y-03950D01*
D20*
G01X13050Y-02350D02*
G01X13050Y-02700D01*
D20*
G01X13050Y-02700D02*
G01X12600Y-03150D01*
D20*
G01X13300Y-00300D02*
G01X13300Y-00250D01*
D20*
G01X13300Y-00250D02*
G01X12900Y00150D01*
D20*
G01X12900Y00150D02*
G01X12900Y02500D01*
D20*
G01X12900Y02500D02*
G01X13950Y03550D01*
D20*
G01X08250Y03000D02*
G01X08250Y03150D01*
D20*
G01X13100Y-03950D02*
G01X13750Y-03300D01*
D20*
G01X12150Y00350D02*
G01X12150Y-00300D01*
D20*
G01X12150Y-00300D02*
G01X12600Y-00750D01*
D20*
G01X12600Y-00750D02*
G01X12600Y-01000D01*
D20*
G01X12150Y00350D02*
G01X12150Y00450D01*
D20*
G01X12150Y00450D02*
G01X12350Y00650D01*
D20*
G01X12350Y00650D02*
G01X12350Y03250D01*
D20*
G01X12350Y03250D02*
G01X13400Y04300D01*
D20*
G01X13400Y04300D02*
G01X13400Y04600D01*
D20*
G01X13400Y04600D02*
G01X13000Y05000D01*
D20*
G01X14250Y-00850D02*
G01X14250Y00150D01*
D20*
G01X13750Y-01350D02*
G01X14250Y-00850D01*
D20*
G01X14250Y00150D02*
G01X14000Y00400D01*
D20*
G01X13300Y-02100D02*
G01X13050Y-02350D01*
D20*
G01X11850Y00850D02*
G01X12000Y01000D01*
D20*
G01X07100Y00350D02*
G01X07500Y00350D01*
D20*
G01X17150Y02150D02*
G01X17700Y02700D01*
D20*
G01X12000Y01000D02*
G01X12000Y03200D01*
D20*
G01X08600Y00350D02*
G01X08600Y00600D01*
D20*
G01X06950Y02300D02*
G01X06950Y00900D01*
D20*
G01X09050Y08950D02*
G01X13800Y08950D01*
D20*
G01X17700Y02700D02*
G01X18750Y02700D01*
D20*
G01X15100Y01500D02*
G01X15100Y01550D01*
D20*
G01X15100Y01550D02*
G01X14500Y02150D01*
D20*
G01X14950Y08200D02*
G01X14000Y08200D01*
D20*
G01X12600Y-05000D02*
G01X12600Y-05050D01*
D20*
G01X08600Y00600D02*
G01X09800Y01800D01*
D20*
G01X16650Y01700D02*
G01X17100Y02150D01*
D20*
G01X16350Y01700D02*
G01X16650Y01700D01*
D20*
G01X15000Y08150D02*
G01X14950Y08200D01*
D20*
G01X17950Y01900D02*
G01X17950Y00550D01*
D20*
G01X14750Y01150D02*
G01X14750Y01000D01*
D20*
G01X14750Y01000D02*
G01X15100Y00650D01*
D20*
G01X15100Y00650D02*
G01X15800Y00650D01*
D20*
G01X16900Y00650D02*
G01X17850Y00650D01*
D20*
G01X17850Y00650D02*
G01X17950Y00550D01*
D20*
G01X15500Y07700D02*
G01X15500Y07450D01*
D20*
G01X15500Y06950D02*
G01X15500Y07700D01*
D20*
G01X15000Y06500D02*
G01X15000Y08150D01*
D20*
G01X14500Y02700D02*
G01X14750Y02950D01*
D20*
G01X17300Y-00700D02*
G01X17850Y-00150D01*
D20*
G01X17100Y02150D02*
G01X17150Y02150D01*
D20*
G01X13000Y05000D02*
G01X13000Y05050D01*
D20*
G01X13000Y05050D02*
G01X12900Y05150D01*
D20*
G01X12900Y05150D02*
G01X12900Y07050D01*
D20*
G01X12900Y07050D02*
G01X13000Y07150D01*
D20*
G01X13000Y07150D02*
G01X13000Y08200D01*
D20*
G01X13000Y08200D02*
G01X13750Y08950D01*
D20*
G01X13750Y08950D02*
G01X15050Y08950D01*
D20*
G01X15050Y08950D02*
G01X15500Y08500D01*
D20*
G01X15500Y08500D02*
G01X15500Y07700D01*
D20*
G01X15800Y02200D02*
G01X15850Y02200D01*
D20*
G01X15850Y02200D02*
G01X16350Y01700D01*
D20*
G01X07650Y07550D02*
G01X09050Y08950D01*
D20*
G01X11850Y-01250D02*
G01X11850Y00850D01*
D20*
G01X12100Y-01500D02*
G01X11850Y-01250D01*
D20*
G01X17950Y-01500D02*
G01X17950Y-00950D01*
D20*
G01X12600Y-05050D02*
G01X12350Y-05300D01*
D20*
G01X10550Y-05300D02*
G01X08400Y-03150D01*
D20*
G01X12350Y-05300D02*
G01X10550Y-05300D01*
D20*
G01X08400Y-03150D02*
G01X08400Y-00600D01*
D20*
G01X14200Y-05250D02*
G01X17950Y-01500D01*
D20*
G01X13300Y-02100D02*
G01X13300Y-01400D01*
D20*
G01X11100Y-02950D02*
G01X11500Y-02550D01*
D20*
G01X11100Y-04550D02*
G01X11100Y-02950D01*
D20*
G01X11500Y-02550D02*
G01X11500Y01050D01*
D20*
G01X09450Y01800D02*
G01X08250Y03000D01*
D20*
G01X09800Y01800D02*
G01X09450Y01800D01*
D20*
G01X13400Y-01100D02*
G01X12950Y-00650D01*
D20*
G01X13400Y-01300D02*
G01X13400Y-01100D01*
D20*
G01X13300Y-01400D02*
G01X13400Y-01300D01*
D20*
G01X10850Y01450D02*
G01X10150Y02150D01*
D20*
G01X09500Y07700D02*
G01X09100Y07700D01*
D20*
G01X07500Y-00150D02*
G01X07950Y-00600D01*
D20*
G01X14650Y-03100D02*
G01X15300Y-03100D01*
D20*
G01X15300Y-03100D02*
G01X16350Y-02050D01*
D20*
G01X07950Y-00600D02*
G01X09100Y-00600D01*
D20*
G01X09100Y-00600D02*
G01X10850Y01150D01*
D20*
G01X10850Y01150D02*
G01X10850Y01450D01*
D20*
G01X08900Y03650D02*
G01X09950Y03650D01*
D20*
G01X09950Y03650D02*
G01X10200Y03400D01*
D20*
G01X09100Y08350D02*
G01X09850Y08350D01*
D20*
G01X09850Y08350D02*
G01X10500Y07700D01*
D20*
G01X11500Y07700D02*
G01X11450Y07700D01*
D20*
G01X11450Y07700D02*
G01X10600Y06850D01*
D20*
G01X10600Y06850D02*
G01X10600Y05900D01*
D20*
G01X10600Y05900D02*
G01X11500Y05000D01*
D20*
G01X11500Y05000D02*
G01X11500Y04400D01*
D20*
G01X11500Y04400D02*
G01X11950Y03950D01*
D20*
G01X12500Y07700D02*
G01X12400Y07700D01*
D20*
G01X12400Y07700D02*
G01X11850Y07150D01*
D20*
G01X11850Y07150D02*
G01X11850Y04750D01*
D20*
G01X11850Y04750D02*
G01X12300Y04300D01*
D20*
G01X14500Y07700D02*
G01X14500Y06700D01*
D20*
G01X14500Y06700D02*
G01X13900Y06100D01*
D20*
G01X13900Y06100D02*
G01X13900Y04850D01*
D20*
G01X13900Y04850D02*
G01X13950Y04800D01*
D20*
G01X13950Y04800D02*
G01X13950Y03550D01*
D20*
G01X14300Y03250D02*
G01X14300Y05800D01*
D20*
G01X14300Y05800D02*
G01X15000Y06500D01*
D20*
G01X14750Y02950D02*
G01X16300Y02950D01*
D20*
G01X16300Y02950D02*
G01X16300Y03150D01*
D20*
G01X16300Y03150D02*
G01X16550Y03400D01*
D20*
G01X16550Y03400D02*
G01X17950Y03400D01*
M02*
