G04 ( created by brdgerber.py ( brdgerber.py v0.1 2014-03-12 ) ) date 2020-11-07 22:23:13 EST*
G04 Gerber Fmt 3.4, Leading zero omitted, Abs format*
%MOIN*%
%FSLAX34Y34*%
G01*
G70*
G90*
G04 APERTURE LIST*
%ADD13C,0.1500*%
%ADD10R,0.0550X0.0550*%
%ADD14R,0.0629X0.0709*%
%ADD12R,0.0275X0.0472*%
%ADD11C,0.0550*%
%ADD15R,0.0709X0.0629*%
G04 APERTURE END LIST*
G54D13*
G36*
G01X12800Y05366D02*
G01X12616Y05182D01*
G01X13182Y04616D01*
G01X13366Y04800D01*
G01X12800Y05366D01*
G37*
G36*
G01X12446Y05012D02*
G01X12263Y04828D01*
G01X12828Y04263D01*
G01X13012Y04447D01*
G01X12446Y05012D01*
G37*
G36*
G01X12093Y04659D02*
G01X11909Y04475D01*
G01X12475Y03909D01*
G01X12659Y04093D01*
G01X12093Y04659D01*
G37*
G36*
G01X11739Y04305D02*
G01X11555Y04121D01*
G01X12121Y03556D01*
G01X12305Y03739D01*
G01X11739Y04305D01*
G37*
G36*
G01X11386Y03952D02*
G01X11202Y03768D01*
G01X11768Y03202D01*
G01X11951Y03386D01*
G01X11386Y03952D01*
G37*
G36*
G01X11032Y03598D02*
G01X10848Y03414D01*
G01X11414Y02849D01*
G01X11598Y03032D01*
G01X11032Y03598D01*
G37*
G36*
G01X10679Y03245D02*
G01X10495Y03061D01*
G01X11061Y02495D01*
G01X11244Y02679D01*
G01X10679Y03245D01*
G37*
G36*
G01X10325Y02891D02*
G01X10141Y02707D01*
G01X10707Y02141D01*
G01X10891Y02325D01*
G01X10325Y02891D01*
G37*
G36*
G01X13125Y00091D02*
G01X12941Y-00093D01*
G01X13507Y-00659D01*
G01X13691Y-00475D01*
G01X13125Y00091D01*
G37*
G36*
G01X13479Y00444D02*
G01X13295Y00261D01*
G01X13861Y-00305D01*
G01X14045Y-00121D01*
G01X13479Y00444D01*
G37*
G36*
G01X13832Y00798D02*
G01X13649Y00614D01*
G01X14214Y00048D01*
G01X14398Y00232D01*
G01X13832Y00798D01*
G37*
G36*
G01X14186Y01151D02*
G01X14002Y00968D01*
G01X14568Y00402D01*
G01X14752Y00586D01*
G01X14186Y01151D01*
G37*
G36*
G01X14539Y01505D02*
G01X14356Y01321D01*
G01X14921Y00755D01*
G01X15105Y00939D01*
G01X14539Y01505D01*
G37*
G36*
G01X14893Y01859D02*
G01X14709Y01675D01*
G01X15275Y01109D01*
G01X15459Y01293D01*
G01X14893Y01859D01*
G37*
G36*
G01X15247Y02212D02*
G01X15063Y02028D01*
G01X15628Y01463D01*
G01X15812Y01646D01*
G01X15247Y02212D01*
G37*
G36*
G01X15600Y02566D02*
G01X15416Y02382D01*
G01X15982Y01816D01*
G01X16166Y02000D01*
G01X15600Y02566D01*
G37*
G36*
G01X09972Y02537D02*
G01X09788Y02354D01*
G01X10353Y01788D01*
G01X10537Y01972D01*
G01X09972Y02537D01*
G37*
G36*
G01X09618Y02184D02*
G01X09434Y02000D01*
G01X10000Y01434D01*
G01X10184Y01618D01*
G01X09618Y02184D01*
G37*
G36*
G01X12772Y-00263D02*
G01X12588Y-00447D01*
G01X13154Y-01012D01*
G01X13337Y-00828D01*
G01X12772Y-00263D01*
G37*
G36*
G01X12418Y-00616D02*
G01X12234Y-00800D01*
G01X12800Y-01366D01*
G01X12984Y-01182D01*
G01X12418Y-00616D01*
G37*
D10*
X09500Y07700D03*
D11*
X10500Y07700D03*
D11*
X11500Y07700D03*
D11*
X12500Y07700D03*
D11*
X13500Y07700D03*
D11*
X14500Y07700D03*
D11*
X15500Y07700D03*
D12*
X17950Y03378D03*
D12*
X17950Y01922D03*
D13*
G01X15745Y-00795D02*
G01X15745Y-00795D01*
D13*
G01X15745Y04495D02*
G01X15745Y04495D01*
D13*
G01X10455Y04495D02*
G01X10455Y04495D01*
D13*
G01X10455Y-00795D02*
G01X10455Y-00795D01*
D10*
X07650Y02850D03*
D11*
X07650Y01850D03*
D14*
X15791Y00650D03*
D14*
X16909Y00650D03*
G36*
G01X16622Y02126D02*
G01X17067Y01682D01*
G01X17568Y02183D01*
G01X17124Y02628D01*
G01X16622Y02126D01*
G37*
G36*
G01X15832Y02917D02*
G01X16276Y02472D01*
G01X16778Y02974D01*
G01X16333Y03418D01*
G01X15832Y02917D01*
G37*
D10*
X11100Y-04550D03*
D11*
X12100Y-04550D03*
D11*
X13100Y-04550D03*
D12*
X17950Y00528D03*
D12*
X17950Y-00928D03*
D15*
X14650Y-03109D03*
D15*
X14650Y-01991D03*
D14*
X08609Y00350D03*
D14*
X07491Y00350D03*
M02*
