G04 ( created by brdgerber.py ( brdgerber.py v0.1 2014-03-12 ) ) date 2020-11-07 22:23:13 EST*
G04 Gerber Fmt 3.4, Leading zero omitted, Abs format*
%MOIN*%
%FSLAX34Y34*%
G01*
G70*
G90*
G04 APERTURE LIST*
%ADD18C,0.1500*%
%ADD10C,0.0000*%
%ADD19R,0.0629X0.0709*%
%ADD16C,0.0120*%
%ADD14R,0.0550X0.0550*%
%ADD13C,0.0050*%
%ADD12C,0.0020*%
%ADD17R,0.0275X0.0472*%
%ADD11C,0.0060*%
%ADD15C,0.0550*%
%ADD20C,0.0200*%
%ADD21R,0.0709X0.0629*%
G04 APERTURE END LIST*
G54D18*
D20*
G01X19500Y07050D02*
G01X19500Y-03250D01*
D20*
G01X09000Y09550D02*
G01X09000Y09550D01*
G01X08969Y09550D01*
G01X08939Y09549D01*
G01X08908Y09548D01*
G01X08877Y09547D01*
G01X08847Y09545D01*
G01X08816Y09543D01*
G01X08786Y09541D01*
G01X08755Y09538D01*
G01X08724Y09535D01*
G01X08694Y09531D01*
G01X08664Y09527D01*
G01X08633Y09523D01*
G01X08603Y09518D01*
G01X08573Y09513D01*
G01X08542Y09508D01*
G01X08512Y09502D01*
G01X08482Y09496D01*
G01X08452Y09489D01*
G01X08422Y09482D01*
G01X08393Y09475D01*
G01X08363Y09467D01*
G01X08333Y09459D01*
G01X08304Y09451D01*
G01X08274Y09442D01*
G01X08245Y09433D01*
G01X08216Y09424D01*
G01X08187Y09414D01*
G01X08158Y09404D01*
G01X08129Y09393D01*
G01X08100Y09382D01*
G01X08072Y09371D01*
G01X08043Y09360D01*
G01X08015Y09348D01*
G01X07987Y09336D01*
G01X07959Y09323D01*
G01X07931Y09310D01*
G01X07903Y09297D01*
G01X07876Y09283D01*
G01X07849Y09269D01*
G01X07822Y09255D01*
G01X07795Y09240D01*
G01X07768Y09225D01*
G01X07741Y09210D01*
G01X07715Y09194D01*
G01X07689Y09178D01*
G01X07663Y09162D01*
G01X07637Y09146D01*
G01X07611Y09129D01*
G01X07586Y09111D01*
G01X07560Y09094D01*
G01X07536Y09076D01*
G01X07511Y09058D01*
G01X07486Y09040D01*
G01X07462Y09021D01*
G01X07438Y09002D01*
G01X07414Y08983D01*
G01X07390Y08963D01*
G01X07367Y08943D01*
G01X07344Y08923D01*
G01X07321Y08902D01*
G01X07298Y08882D01*
G01X07276Y08861D01*
G01X07254Y08839D01*
G01X07232Y08818D01*
G01X07211Y08796D01*
G01X07189Y08774D01*
G01X07168Y08752D01*
G01X07148Y08729D01*
G01X07127Y08706D01*
G01X07107Y08683D01*
G01X07087Y08660D01*
G01X07067Y08636D01*
G01X07048Y08612D01*
G01X07029Y08588D01*
G01X07010Y08564D01*
G01X06992Y08539D01*
G01X06974Y08514D01*
G01X06956Y08490D01*
G01X06939Y08464D01*
G01X06921Y08439D01*
G01X06904Y08413D01*
G01X06888Y08387D01*
G01X06872Y08361D01*
G01X06856Y08335D01*
G01X06840Y08309D01*
G01X06825Y08282D01*
G01X06810Y08255D01*
G01X06795Y08228D01*
G01X06781Y08201D01*
G01X06767Y08174D01*
G01X06753Y08147D01*
G01X06740Y08119D01*
G01X06727Y08091D01*
G01X06714Y08063D01*
G01X06702Y08035D01*
G01X06690Y08007D01*
G01X06679Y07978D01*
G01X06668Y07950D01*
G01X06657Y07921D01*
G01X06646Y07892D01*
G01X06636Y07863D01*
G01X06626Y07834D01*
G01X06617Y07805D01*
G01X06608Y07776D01*
G01X06599Y07746D01*
G01X06591Y07717D01*
G01X06583Y07687D01*
G01X06575Y07657D01*
G01X06568Y07628D01*
G01X06561Y07598D01*
G01X06554Y07568D01*
G01X06548Y07538D01*
G01X06542Y07508D01*
G01X06537Y07477D01*
G01X06532Y07447D01*
G01X06527Y07417D01*
G01X06523Y07386D01*
G01X06519Y07356D01*
G01X06515Y07326D01*
G01X06512Y07295D01*
G01X06509Y07264D01*
G01X06507Y07234D01*
G01X06505Y07203D01*
G01X06503Y07173D01*
G01X06502Y07142D01*
G01X06501Y07111D01*
G01X06500Y07081D01*
G01X06500Y07050D01*
D20*
G01X17000Y-05750D02*
G01X17000Y-05750D01*
G01X17031Y-05750D01*
G01X17061Y-05749D01*
G01X17092Y-05748D01*
G01X17123Y-05747D01*
G01X17153Y-05745D01*
G01X17184Y-05743D01*
G01X17214Y-05741D01*
G01X17245Y-05738D01*
G01X17276Y-05735D01*
G01X17306Y-05731D01*
G01X17336Y-05727D01*
G01X17367Y-05723D01*
G01X17397Y-05718D01*
G01X17427Y-05713D01*
G01X17458Y-05708D01*
G01X17488Y-05702D01*
G01X17518Y-05696D01*
G01X17548Y-05689D01*
G01X17578Y-05682D01*
G01X17607Y-05675D01*
G01X17637Y-05667D01*
G01X17667Y-05659D01*
G01X17696Y-05651D01*
G01X17726Y-05642D01*
G01X17755Y-05633D01*
G01X17784Y-05624D01*
G01X17813Y-05614D01*
G01X17842Y-05604D01*
G01X17871Y-05593D01*
G01X17900Y-05582D01*
G01X17928Y-05571D01*
G01X17957Y-05560D01*
G01X17985Y-05548D01*
G01X18013Y-05536D01*
G01X18041Y-05523D01*
G01X18069Y-05510D01*
G01X18097Y-05497D01*
G01X18124Y-05483D01*
G01X18151Y-05469D01*
G01X18178Y-05455D01*
G01X18205Y-05440D01*
G01X18232Y-05425D01*
G01X18259Y-05410D01*
G01X18285Y-05394D01*
G01X18311Y-05378D01*
G01X18337Y-05362D01*
G01X18363Y-05346D01*
G01X18389Y-05329D01*
G01X18414Y-05311D01*
G01X18440Y-05294D01*
G01X18464Y-05276D01*
G01X18489Y-05258D01*
G01X18514Y-05240D01*
G01X18538Y-05221D01*
G01X18562Y-05202D01*
G01X18586Y-05183D01*
G01X18610Y-05163D01*
G01X18633Y-05143D01*
G01X18656Y-05123D01*
G01X18679Y-05102D01*
G01X18702Y-05082D01*
G01X18724Y-05061D01*
G01X18746Y-05039D01*
G01X18768Y-05018D01*
G01X18789Y-04996D01*
G01X18811Y-04974D01*
G01X18832Y-04952D01*
G01X18852Y-04929D01*
G01X18873Y-04906D01*
G01X18893Y-04883D01*
G01X18913Y-04860D01*
G01X18933Y-04836D01*
G01X18952Y-04812D01*
G01X18971Y-04788D01*
G01X18990Y-04764D01*
G01X19008Y-04739D01*
G01X19026Y-04714D01*
G01X19044Y-04690D01*
G01X19061Y-04664D01*
G01X19079Y-04639D01*
G01X19096Y-04613D01*
G01X19112Y-04587D01*
G01X19128Y-04561D01*
G01X19144Y-04535D01*
G01X19160Y-04509D01*
G01X19175Y-04482D01*
G01X19190Y-04455D01*
G01X19205Y-04428D01*
G01X19219Y-04401D01*
G01X19233Y-04374D01*
G01X19247Y-04347D01*
G01X19260Y-04319D01*
G01X19273Y-04291D01*
G01X19286Y-04263D01*
G01X19298Y-04235D01*
G01X19310Y-04207D01*
G01X19321Y-04178D01*
G01X19332Y-04150D01*
G01X19343Y-04121D01*
G01X19354Y-04092D01*
G01X19364Y-04063D01*
G01X19374Y-04034D01*
G01X19383Y-04005D01*
G01X19392Y-03976D01*
G01X19401Y-03946D01*
G01X19409Y-03917D01*
G01X19417Y-03887D01*
G01X19425Y-03857D01*
G01X19432Y-03828D01*
G01X19439Y-03798D01*
G01X19446Y-03768D01*
G01X19452Y-03738D01*
G01X19458Y-03708D01*
G01X19463Y-03677D01*
G01X19468Y-03647D01*
G01X19473Y-03617D01*
G01X19477Y-03586D01*
G01X19481Y-03556D01*
G01X19485Y-03526D01*
G01X19488Y-03495D01*
G01X19491Y-03464D01*
G01X19493Y-03434D01*
G01X19495Y-03403D01*
G01X19497Y-03373D01*
G01X19498Y-03342D01*
G01X19499Y-03311D01*
G01X19500Y-03281D01*
G01X19500Y-03250D01*
D20*
G01X19500Y07050D02*
G01X19500Y07050D01*
G01X19500Y07081D01*
G01X19499Y07111D01*
G01X19498Y07142D01*
G01X19497Y07173D01*
G01X19495Y07203D01*
G01X19493Y07234D01*
G01X19491Y07264D01*
G01X19488Y07295D01*
G01X19485Y07326D01*
G01X19481Y07356D01*
G01X19477Y07386D01*
G01X19473Y07417D01*
G01X19468Y07447D01*
G01X19463Y07477D01*
G01X19458Y07508D01*
G01X19452Y07538D01*
G01X19446Y07568D01*
G01X19439Y07598D01*
G01X19432Y07628D01*
G01X19425Y07657D01*
G01X19417Y07687D01*
G01X19409Y07717D01*
G01X19401Y07746D01*
G01X19392Y07776D01*
G01X19383Y07805D01*
G01X19374Y07834D01*
G01X19364Y07863D01*
G01X19354Y07892D01*
G01X19343Y07921D01*
G01X19332Y07950D01*
G01X19321Y07978D01*
G01X19310Y08007D01*
G01X19298Y08035D01*
G01X19286Y08063D01*
G01X19273Y08091D01*
G01X19260Y08119D01*
G01X19247Y08147D01*
G01X19233Y08174D01*
G01X19219Y08201D01*
G01X19205Y08228D01*
G01X19190Y08255D01*
G01X19175Y08282D01*
G01X19160Y08309D01*
G01X19144Y08335D01*
G01X19128Y08361D01*
G01X19112Y08387D01*
G01X19096Y08413D01*
G01X19079Y08439D01*
G01X19061Y08464D01*
G01X19044Y08490D01*
G01X19026Y08514D01*
G01X19008Y08539D01*
G01X18990Y08564D01*
G01X18971Y08588D01*
G01X18952Y08612D01*
G01X18933Y08636D01*
G01X18913Y08660D01*
G01X18893Y08683D01*
G01X18873Y08706D01*
G01X18852Y08729D01*
G01X18832Y08752D01*
G01X18811Y08774D01*
G01X18789Y08796D01*
G01X18768Y08818D01*
G01X18746Y08839D01*
G01X18724Y08861D01*
G01X18702Y08882D01*
G01X18679Y08902D01*
G01X18656Y08923D01*
G01X18633Y08943D01*
G01X18610Y08963D01*
G01X18586Y08983D01*
G01X18562Y09002D01*
G01X18538Y09021D01*
G01X18514Y09040D01*
G01X18489Y09058D01*
G01X18464Y09076D01*
G01X18440Y09094D01*
G01X18414Y09111D01*
G01X18389Y09129D01*
G01X18363Y09146D01*
G01X18337Y09162D01*
G01X18311Y09178D01*
G01X18285Y09194D01*
G01X18259Y09210D01*
G01X18232Y09225D01*
G01X18205Y09240D01*
G01X18178Y09255D01*
G01X18151Y09269D01*
G01X18124Y09283D01*
G01X18097Y09297D01*
G01X18069Y09310D01*
G01X18041Y09323D01*
G01X18013Y09336D01*
G01X17985Y09348D01*
G01X17957Y09360D01*
G01X17928Y09371D01*
G01X17900Y09382D01*
G01X17871Y09393D01*
G01X17842Y09404D01*
G01X17813Y09414D01*
G01X17784Y09424D01*
G01X17755Y09433D01*
G01X17726Y09442D01*
G01X17696Y09451D01*
G01X17667Y09459D01*
G01X17637Y09467D01*
G01X17607Y09475D01*
G01X17578Y09482D01*
G01X17548Y09489D01*
G01X17518Y09496D01*
G01X17488Y09502D01*
G01X17458Y09508D01*
G01X17427Y09513D01*
G01X17397Y09518D01*
G01X17367Y09523D01*
G01X17336Y09527D01*
G01X17306Y09531D01*
G01X17276Y09535D01*
G01X17245Y09538D01*
G01X17214Y09541D01*
G01X17184Y09543D01*
G01X17153Y09545D01*
G01X17123Y09547D01*
G01X17092Y09548D01*
G01X17061Y09549D01*
G01X17031Y09550D01*
G01X17000Y09550D01*
D20*
G01X06500Y-03250D02*
G01X06500Y-03250D01*
G01X06500Y-03281D01*
G01X06501Y-03311D01*
G01X06502Y-03342D01*
G01X06503Y-03373D01*
G01X06505Y-03403D01*
G01X06507Y-03434D01*
G01X06509Y-03464D01*
G01X06512Y-03495D01*
G01X06515Y-03526D01*
G01X06519Y-03556D01*
G01X06523Y-03586D01*
G01X06527Y-03617D01*
G01X06532Y-03647D01*
G01X06537Y-03677D01*
G01X06542Y-03708D01*
G01X06548Y-03738D01*
G01X06554Y-03768D01*
G01X06561Y-03798D01*
G01X06568Y-03828D01*
G01X06575Y-03857D01*
G01X06583Y-03887D01*
G01X06591Y-03917D01*
G01X06599Y-03946D01*
G01X06608Y-03976D01*
G01X06617Y-04005D01*
G01X06626Y-04034D01*
G01X06636Y-04063D01*
G01X06646Y-04092D01*
G01X06657Y-04121D01*
G01X06668Y-04150D01*
G01X06679Y-04178D01*
G01X06690Y-04207D01*
G01X06702Y-04235D01*
G01X06714Y-04263D01*
G01X06727Y-04291D01*
G01X06740Y-04319D01*
G01X06753Y-04347D01*
G01X06767Y-04374D01*
G01X06781Y-04401D01*
G01X06795Y-04428D01*
G01X06810Y-04455D01*
G01X06825Y-04482D01*
G01X06840Y-04509D01*
G01X06856Y-04535D01*
G01X06872Y-04561D01*
G01X06888Y-04587D01*
G01X06904Y-04613D01*
G01X06921Y-04639D01*
G01X06939Y-04664D01*
G01X06956Y-04690D01*
G01X06974Y-04714D01*
G01X06992Y-04739D01*
G01X07010Y-04764D01*
G01X07029Y-04788D01*
G01X07048Y-04812D01*
G01X07067Y-04836D01*
G01X07087Y-04860D01*
G01X07107Y-04883D01*
G01X07127Y-04906D01*
G01X07148Y-04929D01*
G01X07168Y-04952D01*
G01X07189Y-04974D01*
G01X07211Y-04996D01*
G01X07232Y-05018D01*
G01X07254Y-05039D01*
G01X07276Y-05061D01*
G01X07298Y-05082D01*
G01X07321Y-05102D01*
G01X07344Y-05123D01*
G01X07367Y-05143D01*
G01X07390Y-05163D01*
G01X07414Y-05183D01*
G01X07438Y-05202D01*
G01X07462Y-05221D01*
G01X07486Y-05240D01*
G01X07511Y-05258D01*
G01X07536Y-05276D01*
G01X07560Y-05294D01*
G01X07586Y-05311D01*
G01X07611Y-05329D01*
G01X07637Y-05346D01*
G01X07663Y-05362D01*
G01X07689Y-05378D01*
G01X07715Y-05394D01*
G01X07741Y-05410D01*
G01X07768Y-05425D01*
G01X07795Y-05440D01*
G01X07822Y-05455D01*
G01X07849Y-05469D01*
G01X07876Y-05483D01*
G01X07903Y-05497D01*
G01X07931Y-05510D01*
G01X07959Y-05523D01*
G01X07987Y-05536D01*
G01X08015Y-05548D01*
G01X08043Y-05560D01*
G01X08072Y-05571D01*
G01X08100Y-05582D01*
G01X08129Y-05593D01*
G01X08158Y-05604D01*
G01X08187Y-05614D01*
G01X08216Y-05624D01*
G01X08245Y-05633D01*
G01X08274Y-05642D01*
G01X08304Y-05651D01*
G01X08333Y-05659D01*
G01X08363Y-05667D01*
G01X08393Y-05675D01*
G01X08422Y-05682D01*
G01X08452Y-05689D01*
G01X08482Y-05696D01*
G01X08512Y-05702D01*
G01X08542Y-05708D01*
G01X08573Y-05713D01*
G01X08603Y-05718D01*
G01X08633Y-05723D01*
G01X08664Y-05727D01*
G01X08694Y-05731D01*
G01X08724Y-05735D01*
G01X08755Y-05738D01*
G01X08786Y-05741D01*
G01X08816Y-05743D01*
G01X08847Y-05745D01*
G01X08877Y-05747D01*
G01X08908Y-05748D01*
G01X08939Y-05749D01*
G01X08969Y-05750D01*
G01X09000Y-05750D01*
D20*
G01X09000Y09550D02*
G01X17000Y09550D01*
D20*
G01X06500Y07050D02*
G01X06500Y-03250D01*
D20*
G01X09000Y-05750D02*
G01X17000Y-05750D01*
M02*
