<?xml version="1.0" standalone="no"?>
<!DOCTYPE svg PUBLIC "-//W3C//DTD SVG 1.1//EN" "http://www.w3.org/Graphics/SVG/1.1/DTD/svg11.dtd">
<svg width="112" height="88" viewBox="4 -92 112 88" xmlns="http://www.w3.org/2000/svg" version="1.1">
<title>OpenSCAD Model</title>
<path d="
M 77,-50 L 79.4353,-50 L 79.4353,-50.9703 L 80.2246,-52.743 L 81.6667,-54.0415 L 83.5122,-54.6411
 L 85.4421,-54.4383 L 87.1226,-53.468 L 88.2632,-51.8981 L 88.6667,-50 L 91,-50 L 91,-47
 L 105,-47 L 105,-89.6985 L 92.6985,-89.6985 L 90.5772,-91.8198 L 80.6777,-81.9203 L 82.799,-79.799
 L 72.8995,-69.8995 L 70.7782,-72.0208 L 60.8787,-62.1213 L 63,-60 L 63,-47 L 77,-47
 z
M 22,-50 L 24.4353,-50 L 24.4353,-50.9703 L 25.2246,-52.743 L 26.6667,-54.0415 L 28.5122,-54.6411
 L 30.4421,-54.4383 L 32.1226,-53.468 L 33.2632,-51.8981 L 33.6667,-50 L 36,-50 L 36,-47
 L 50,-47 L 50,-89.6985 L 37.6985,-89.6985 L 35.5772,-91.8198 L 25.6777,-81.9203 L 27.799,-79.799
 L 17.8995,-69.8995 L 15.7782,-72.0208 L 5.87869,-62.1213 L 8,-60 L 8,-47 L 22,-47
 z
M 14.0113,-8.31001 L 30.0038,-8.31001 L 30.0038,-4.31001 L 42,-4.31001 L 42,-8.31001 L 105.97,-8.31001
 L 105.97,-4.31001 L 115.962,-4.31001 L 115.962,-45.69 L 105.97,-45.69 L 105.97,-41.69 L 42,-41.69
 L 42,-45.69 L 30.0038,-45.69 L 30.0038,-41.69 L 14.0113,-41.69 L 14.0113,-45.69 L 4.01501,-45.69
 L 4.01501,-27.375 L 10.015,-27.375 L 10.015,-22.625 L 4.01501,-22.625 L 4.01501,-4.31001 L 14.0113,-4.31001
 z
M 5.64001,-41.69 L 5.64001,-43.69 L 10.39,-43.69 L 10.39,-41.69 z
M 33.625,-41.69 L 33.625,-43.69 L 38.375,-43.69 L 38.375,-41.69 z
M 76,-32.345 L 76,-35.345 L 90,-35.345 L 90,-32.345 z
M 48,-32.345 L 48,-35.345 L 62,-35.345 L 62,-32.345 z
M 66.7039,-19.4567 L 64.7574,-20.7574 L 63.5094,-22.625 L 61.985,-22.625 L 61.985,-23 L 53.0075,-23
 L 53.0075,-27 L 61.985,-27 L 61.985,-27.375 L 63.5094,-27.375 L 64.7574,-29.2426 L 66.7039,-30.5433
 L 69,-31 L 71.2961,-30.5433 L 73.2426,-29.2426 L 74.5433,-27.2961 L 74.6022,-27 L 84.9925,-27
 L 84.9925,-23 L 74.6022,-23 L 74.5433,-22.7039 L 73.2426,-20.7574 L 71.2961,-19.4567 L 69,-19
 z
M 48,-14.655 L 48,-17.655 L 62,-17.655 L 62,-14.655 z
M 76,-14.655 L 76,-17.655 L 90,-17.655 L 90,-14.655 z
M 33.625,-6.31001 L 33.625,-8.31001 L 38.375,-8.31001 L 38.375,-6.31001 z
M 5.64001,-6.31001 L 5.64001,-8.31001 L 10.39,-8.31001 L 10.39,-6.31001 z
" stroke="black" fill="none" stroke-width="0.5"/></svg>
