G04 ( created by brdgerber.py ( brdgerber.py v0.1 2014-03-12 ) ) date 2020-12-15 20:12:19 EST*
G04 Gerber Fmt 3.4, Leading zero omitted, Abs format*
%MOIN*%
%FSLAX34Y34*%
G01*
G70*
G90*
G04 APERTURE LIST*
%ADD16C,0.0031*%
%ADD26C,0.0471*%
%ADD27C,0.0200*%
%ADD23R,0.0275X0.0590*%
%ADD12C,0.0050*%
%ADD17R,0.2000X0.2000*%
%ADD24C,0.0000*%
%ADD15C,0.0039*%
%ADD11C,0.0060*%
%ADD14C,0.0047*%
%ADD20R,0.0800X0.0600*%
%ADD25C,0.0059*%
%ADD22R,0.0393X0.0314*%
%ADD21C,0.0354*%
%ADD13R,0.0394X0.0315*%
%ADD19R,0.0600X0.0800*%
%ADD10R,0.0236X0.0551*%
%ADD18R,0.3000X0.3000*%
G04 APERTURE END LIST*
G54D16*
D12*
G01X-28150Y-17000D02*
G01X-27150Y-16000D01*
D12*
G01X-27150Y-16000D02*
G01X-27150Y-12000D01*
D12*
G01X-27150Y-12000D02*
G01X-28150Y-11000D01*
D12*
G01X-28150Y-11000D02*
G01X-34650Y-11000D01*
D12*
G01X-34650Y-11000D02*
G01X-35650Y-12000D01*
D12*
G01X-35650Y-12000D02*
G01X-35650Y-16000D01*
D12*
G01X-35650Y-16000D02*
G01X-34650Y-17000D01*
D12*
G01X-34641Y-16995D02*
G01X-34548Y-16946D01*
G01X-34453Y-16898D01*
G01X-34359Y-16851D01*
G01X-34263Y-16806D01*
G01X-34167Y-16762D01*
G01X-34070Y-16720D01*
G01X-33972Y-16680D01*
G01X-33874Y-16641D01*
G01X-33775Y-16603D01*
G01X-33676Y-16567D01*
G01X-33576Y-16533D01*
G01X-33475Y-16500D01*
G01X-33374Y-16468D01*
G01X-33273Y-16438D01*
G01X-33171Y-16410D01*
G01X-33069Y-16384D01*
G01X-32966Y-16359D01*
G01X-32863Y-16335D01*
G01X-32760Y-16313D01*
G01X-32656Y-16293D01*
G01X-32552Y-16274D01*
G01X-32448Y-16257D01*
G01X-32343Y-16242D01*
G01X-32238Y-16228D01*
G01X-32133Y-16216D01*
G01X-32028Y-16205D01*
G01X-31923Y-16196D01*
G01X-31817Y-16189D01*
G01X-31712Y-16183D01*
G01X-31606Y-16179D01*
G01X-31501Y-16177D01*
G01X-31395Y-16176D01*
G01X-31289Y-16177D01*
G01X-31184Y-16180D01*
G01X-31078Y-16184D01*
G01X-30972Y-16190D01*
G01X-30867Y-16197D01*
G01X-30762Y-16206D01*
G01X-30656Y-16217D01*
G01X-30552Y-16229D01*
G01X-30447Y-16243D01*
G01X-30342Y-16259D01*
G01X-30238Y-16276D01*
G01X-30134Y-16295D01*
G01X-30030Y-16315D01*
G01X-29927Y-16337D01*
G01X-29824Y-16361D01*
G01X-29721Y-16386D01*
G01X-29619Y-16413D01*
G01X-29517Y-16441D01*
G01X-29416Y-16471D01*
G01X-29315Y-16503D01*
G01X-29214Y-16536D01*
G01X-29115Y-16570D01*
G01X-29015Y-16607D01*
G01X-28917Y-16644D01*
G01X-28818Y-16684D01*
G01X-28721Y-16724D01*
G01X-28624Y-16767D01*
G01X-28528Y-16810D01*
G01X-28432Y-16856D01*
G01X-28337Y-16902D01*
G01X-28243Y-16950D01*
G01X-28150Y-17000D01*
M02*
