G04 ( created by brdgerber.py ( brdgerber.py v0.1 2014-03-12 ) ) date 2020-12-15 20:12:25 EST*
G04 Gerber Fmt 3.4, Leading zero omitted, Abs format*
%MOIN*%
%FSLAX34Y34*%
G01*
G70*
G90*
G04 APERTURE LIST*
%ADD15C,0.0039*%
%ADD16C,0.0031*%
%ADD19R,0.0600X0.0800*%
%ADD26C,0.0471*%
%ADD23R,0.0275X0.0590*%
%ADD20R,0.0800X0.0600*%
%ADD12C,0.0050*%
%ADD24C,0.0000*%
%ADD10R,0.0236X0.0551*%
%ADD22R,0.0393X0.0314*%
%ADD21C,0.0354*%
%ADD17R,0.2000X0.2000*%
%ADD14C,0.0047*%
%ADD13R,0.0394X0.0315*%
%ADD25C,0.0059*%
%ADD27C,0.0200*%
%ADD11C,0.0060*%
%ADD18R,0.3000X0.3000*%
G04 APERTURE END LIST*
G54D15*
D12*
G01X-31402Y-09640D02*
G01X-31351Y-09636D01*
D12*
G01X-31351Y-09636D02*
G01X-31300Y-09632D01*
D12*
G01X-31300Y-09632D02*
G01X-31249Y-09628D01*
D12*
G01X-31249Y-09628D02*
G01X-31199Y-09625D01*
D12*
G01X-31199Y-09625D02*
G01X-31149Y-09621D01*
D12*
G01X-31149Y-09621D02*
G01X-31099Y-09617D01*
D12*
G01X-31099Y-09617D02*
G01X-31050Y-09613D01*
D12*
G01X-31050Y-09613D02*
G01X-31050Y-09613D01*
D12*
G01X-31050Y-09613D02*
G01X-31001Y-09609D01*
D12*
G01X-31001Y-09609D02*
G01X-30952Y-09605D01*
D12*
G01X-30952Y-09605D02*
G01X-30903Y-09601D01*
D12*
G01X-30903Y-09601D02*
G01X-30855Y-09597D01*
D12*
G01X-30855Y-09597D02*
G01X-30806Y-09594D01*
D12*
G01X-30806Y-09594D02*
G01X-30758Y-09590D01*
D12*
G01X-30758Y-09590D02*
G01X-30710Y-09586D01*
D12*
G01X-30710Y-09586D02*
G01X-30662Y-09583D01*
D12*
G01X-30662Y-09583D02*
G01X-30614Y-09580D01*
D12*
G01X-30614Y-09580D02*
G01X-30566Y-09577D01*
D12*
G01X-30566Y-09577D02*
G01X-30518Y-09574D01*
D12*
G01X-30518Y-09574D02*
G01X-30470Y-09571D01*
D12*
G01X-30470Y-09571D02*
G01X-30423Y-09568D01*
D12*
G01X-30423Y-09568D02*
G01X-30375Y-09566D01*
D12*
G01X-30375Y-09566D02*
G01X-30327Y-09563D01*
D12*
G01X-30327Y-09563D02*
G01X-30279Y-09561D01*
D12*
G01X-30279Y-09561D02*
G01X-30231Y-09560D01*
D12*
G01X-30231Y-09560D02*
G01X-30183Y-09558D01*
D12*
G01X-30183Y-09558D02*
G01X-30135Y-09557D01*
D12*
G01X-30135Y-09557D02*
G01X-30087Y-09556D01*
D12*
G01X-30087Y-09556D02*
G01X-30038Y-09555D01*
D12*
G01X-30038Y-09555D02*
G01X-29989Y-09555D01*
D12*
G01X-29989Y-09555D02*
G01X-29941Y-09555D01*
D12*
G01X-29941Y-09555D02*
G01X-29892Y-09555D01*
D12*
G01X-29892Y-09555D02*
G01X-29843Y-09556D01*
D12*
G01X-29843Y-09556D02*
G01X-29793Y-09557D01*
D12*
G01X-29793Y-09557D02*
G01X-29743Y-09559D01*
D12*
G01X-29743Y-09559D02*
G01X-29694Y-09561D01*
D12*
G01X-29694Y-09561D02*
G01X-29643Y-09563D01*
D12*
G01X-29643Y-09563D02*
G01X-29593Y-09566D01*
D12*
G01X-29593Y-09566D02*
G01X-29542Y-09569D01*
D12*
G01X-29542Y-09569D02*
G01X-29491Y-09572D01*
D12*
G01X-29491Y-09572D02*
G01X-29439Y-09576D01*
D12*
G01X-29439Y-09576D02*
G01X-29387Y-09581D01*
D12*
G01X-29387Y-09581D02*
G01X-29335Y-09586D01*
D12*
G01X-29335Y-09586D02*
G01X-29282Y-09592D01*
D12*
G01X-29282Y-09592D02*
G01X-29228Y-09598D01*
D12*
G01X-29228Y-09598D02*
G01X-29175Y-09604D01*
D12*
G01X-29175Y-09604D02*
G01X-29120Y-09611D01*
D12*
G01X-29120Y-09611D02*
G01X-29066Y-09619D01*
D12*
G01X-29066Y-09619D02*
G01X-29011Y-09628D01*
D12*
G01X-29011Y-09628D02*
G01X-28955Y-09636D01*
D12*
G01X-28955Y-09636D02*
G01X-28900Y-09646D01*
D12*
G01X-28900Y-09646D02*
G01X-28849Y-09642D01*
D12*
G01X-28849Y-09642D02*
G01X-28797Y-09639D01*
D12*
G01X-28797Y-09639D02*
G01X-28744Y-09637D01*
D12*
G01X-28744Y-09637D02*
G01X-28692Y-09635D01*
D12*
G01X-28692Y-09635D02*
G01X-28639Y-09633D01*
D12*
G01X-28639Y-09633D02*
G01X-28587Y-09633D01*
D12*
G01X-28587Y-09633D02*
G01X-28535Y-09633D01*
D12*
G01X-28535Y-09633D02*
G01X-28482Y-09633D01*
D12*
G01X-28482Y-09633D02*
G01X-28430Y-09634D01*
D12*
G01X-28430Y-09634D02*
G01X-28378Y-09635D01*
D12*
G01X-28378Y-09635D02*
G01X-28326Y-09637D01*
D12*
G01X-28326Y-09637D02*
G01X-28274Y-09640D01*
D12*
G01X-28274Y-09640D02*
G01X-28222Y-09643D01*
D12*
G01X-28222Y-09643D02*
G01X-28170Y-09646D01*
D12*
G01X-28170Y-09646D02*
G01X-28118Y-09650D01*
D12*
G01X-28118Y-09650D02*
G01X-28066Y-09655D01*
D12*
G01X-28066Y-09655D02*
G01X-28014Y-09659D01*
D12*
G01X-28014Y-09659D02*
G01X-27962Y-09665D01*
D12*
G01X-27962Y-09665D02*
G01X-27910Y-09671D01*
D12*
G01X-27910Y-09671D02*
G01X-27859Y-09677D01*
D12*
G01X-27859Y-09677D02*
G01X-27807Y-09684D01*
D12*
G01X-27807Y-09684D02*
G01X-27755Y-09691D01*
D12*
G01X-27755Y-09691D02*
G01X-27704Y-09698D01*
D12*
G01X-27704Y-09698D02*
G01X-27652Y-09706D01*
D12*
G01X-27652Y-09706D02*
G01X-27601Y-09715D01*
D12*
G01X-27601Y-09715D02*
G01X-27550Y-09724D01*
D12*
G01X-27550Y-09724D02*
G01X-27498Y-09733D01*
D12*
G01X-27498Y-09733D02*
G01X-27447Y-09742D01*
D12*
G01X-27447Y-09742D02*
G01X-27396Y-09752D01*
D12*
G01X-27396Y-09752D02*
G01X-27344Y-09762D01*
D12*
G01X-27344Y-09762D02*
G01X-27293Y-09773D01*
D12*
G01X-27293Y-09773D02*
G01X-27242Y-09784D01*
D12*
G01X-27242Y-09784D02*
G01X-27191Y-09795D01*
D12*
G01X-27191Y-09795D02*
G01X-27140Y-09807D01*
D12*
G01X-27140Y-09807D02*
G01X-27089Y-09819D01*
D12*
G01X-27089Y-09819D02*
G01X-27038Y-09831D01*
D12*
G01X-27038Y-09831D02*
G01X-26987Y-09844D01*
D12*
G01X-26987Y-09844D02*
G01X-26937Y-09856D01*
D12*
G01X-26937Y-09856D02*
G01X-26886Y-09870D01*
D12*
G01X-26886Y-09870D02*
G01X-26835Y-09883D01*
D12*
G01X-26835Y-09883D02*
G01X-26784Y-09897D01*
D12*
G01X-26784Y-09897D02*
G01X-26734Y-09911D01*
D12*
G01X-26734Y-09911D02*
G01X-26683Y-09925D01*
D12*
G01X-26683Y-09925D02*
G01X-26633Y-09939D01*
D12*
G01X-26633Y-09939D02*
G01X-26582Y-09954D01*
D12*
G01X-26582Y-09954D02*
G01X-26532Y-09969D01*
D12*
G01X-26532Y-09969D02*
G01X-26482Y-09984D01*
D12*
G01X-26482Y-09984D02*
G01X-26431Y-09999D01*
D12*
G01X-26431Y-09999D02*
G01X-26381Y-10014D01*
D12*
G01X-26381Y-10014D02*
G01X-26331Y-10030D01*
D12*
G01X-26331Y-10030D02*
G01X-26281Y-10046D01*
D12*
G01X-26281Y-10046D02*
G01X-26231Y-10062D01*
D12*
G01X-26231Y-10062D02*
G01X-26181Y-10078D01*
D12*
G01X-26181Y-10078D02*
G01X-26131Y-10094D01*
D12*
G01X-26131Y-10094D02*
G01X-26081Y-10111D01*
D12*
G01X-26081Y-10111D02*
G01X-26031Y-10127D01*
D12*
G01X-26031Y-10127D02*
G01X-25982Y-10144D01*
D12*
G01X-25982Y-10144D02*
G01X-25932Y-10161D01*
D12*
G01X-25932Y-10161D02*
G01X-25882Y-10178D01*
D12*
G01X-25882Y-10178D02*
G01X-25833Y-10195D01*
D12*
G01X-25833Y-10195D02*
G01X-25783Y-10212D01*
D12*
G01X-25783Y-10212D02*
G01X-25734Y-10229D01*
D12*
G01X-25734Y-10229D02*
G01X-25684Y-10247D01*
D12*
G01X-25684Y-10247D02*
G01X-25635Y-10264D01*
D12*
G01X-25635Y-10264D02*
G01X-25586Y-10281D01*
D12*
G01X-25586Y-10281D02*
G01X-25536Y-10299D01*
D12*
G01X-25536Y-10299D02*
G01X-25487Y-10316D01*
D12*
G01X-25487Y-10316D02*
G01X-25438Y-10334D01*
D12*
G01X-25438Y-10334D02*
G01X-25389Y-10351D01*
D12*
G01X-25389Y-10351D02*
G01X-25340Y-10369D01*
D12*
G01X-25340Y-10369D02*
G01X-25291Y-10387D01*
D12*
G01X-25291Y-10387D02*
G01X-25242Y-10404D01*
D12*
G01X-25242Y-10404D02*
G01X-25194Y-10422D01*
D12*
G01X-25194Y-10422D02*
G01X-25145Y-10439D01*
D12*
G01X-25145Y-10439D02*
G01X-25145Y-10439D01*
D12*
G01X-25145Y-10439D02*
G01X-25096Y-10457D01*
D12*
G01X-25096Y-10457D02*
G01X-25096Y-10457D01*
D12*
G01X-25096Y-10457D02*
G01X-25048Y-10474D01*
D12*
G01X-25048Y-10474D02*
G01X-24999Y-10492D01*
D12*
G01X-24999Y-10492D02*
G01X-24950Y-10513D01*
D12*
G01X-24950Y-10513D02*
G01X-24901Y-10535D01*
D12*
G01X-24901Y-10535D02*
G01X-24854Y-10558D01*
D12*
G01X-24854Y-10558D02*
G01X-24806Y-10581D01*
D12*
G01X-24806Y-10581D02*
G01X-24760Y-10606D01*
D12*
G01X-24760Y-10606D02*
G01X-24713Y-10631D01*
D12*
G01X-24713Y-10631D02*
G01X-24667Y-10657D01*
D12*
G01X-24667Y-10657D02*
G01X-24622Y-10684D01*
D12*
G01X-24622Y-10684D02*
G01X-24577Y-10712D01*
D12*
G01X-24577Y-10712D02*
G01X-24533Y-10740D01*
D12*
G01X-24533Y-10740D02*
G01X-24489Y-10770D01*
D12*
G01X-24489Y-10770D02*
G01X-24446Y-10799D01*
D12*
G01X-24446Y-10799D02*
G01X-24403Y-10830D01*
D12*
G01X-24403Y-10830D02*
G01X-24361Y-10862D01*
D12*
G01X-24361Y-10862D02*
G01X-24319Y-10894D01*
D12*
G01X-24319Y-10894D02*
G01X-24278Y-10927D01*
D12*
G01X-24278Y-10927D02*
G01X-24238Y-10960D01*
D12*
G01X-24238Y-10960D02*
G01X-24198Y-10994D01*
D12*
G01X-24198Y-10994D02*
G01X-24159Y-11029D01*
D12*
G01X-24159Y-11029D02*
G01X-24120Y-11065D01*
D12*
G01X-24120Y-11065D02*
G01X-24083Y-11101D01*
D12*
G01X-24083Y-11101D02*
G01X-24045Y-11138D01*
D12*
G01X-24045Y-11138D02*
G01X-24009Y-11175D01*
D12*
G01X-24009Y-11175D02*
G01X-23973Y-11213D01*
D12*
G01X-23973Y-11213D02*
G01X-23937Y-11252D01*
D12*
G01X-23937Y-11252D02*
G01X-23903Y-11291D01*
D12*
G01X-23903Y-11291D02*
G01X-23869Y-11331D01*
D12*
G01X-23869Y-11331D02*
G01X-23836Y-11371D01*
D12*
G01X-23836Y-11371D02*
G01X-23803Y-11412D01*
D12*
G01X-23803Y-11412D02*
G01X-23772Y-11454D01*
D12*
G01X-23772Y-11454D02*
G01X-23741Y-11496D01*
D12*
G01X-23741Y-11496D02*
G01X-23710Y-11538D01*
D12*
G01X-23710Y-11538D02*
G01X-23681Y-11581D01*
D12*
G01X-23681Y-11581D02*
G01X-23652Y-11625D01*
D12*
G01X-23652Y-11625D02*
G01X-23624Y-11669D01*
D12*
G01X-23624Y-11669D02*
G01X-23597Y-11713D01*
D12*
G01X-23597Y-11713D02*
G01X-23571Y-11758D01*
D12*
G01X-23571Y-11758D02*
G01X-23545Y-11804D01*
D12*
G01X-23545Y-11804D02*
G01X-23521Y-11850D01*
D12*
G01X-23521Y-11850D02*
G01X-23497Y-11896D01*
D12*
G01X-23497Y-11896D02*
G01X-23474Y-11943D01*
D12*
G01X-23474Y-11943D02*
G01X-23452Y-11990D01*
D12*
G01X-23452Y-11990D02*
G01X-23430Y-12037D01*
D12*
G01X-23430Y-12037D02*
G01X-23410Y-12085D01*
D12*
G01X-23410Y-12085D02*
G01X-23390Y-12134D01*
D12*
G01X-23390Y-12134D02*
G01X-23372Y-12182D01*
D12*
G01X-23372Y-12182D02*
G01X-23354Y-12231D01*
D12*
G01X-23354Y-12231D02*
G01X-23337Y-12280D01*
D12*
G01X-23337Y-12280D02*
G01X-23322Y-12330D01*
D12*
G01X-23322Y-12330D02*
G01X-23307Y-12380D01*
D12*
G01X-23307Y-12380D02*
G01X-23293Y-12430D01*
D12*
G01X-23293Y-12430D02*
G01X-23280Y-12481D01*
D12*
G01X-23280Y-12481D02*
G01X-23268Y-12532D01*
D12*
G01X-23268Y-12532D02*
G01X-23257Y-12583D01*
D12*
G01X-23257Y-12583D02*
G01X-23247Y-12634D01*
D12*
G01X-23247Y-12634D02*
G01X-23238Y-12686D01*
D12*
G01X-23238Y-12686D02*
G01X-23230Y-12738D01*
D12*
G01X-23230Y-12738D02*
G01X-23223Y-12790D01*
D12*
G01X-23223Y-12790D02*
G01X-23217Y-12842D01*
D12*
G01X-23217Y-12842D02*
G01X-23212Y-12894D01*
D12*
G01X-23212Y-12894D02*
G01X-23209Y-12947D01*
D12*
G01X-23209Y-12947D02*
G01X-23206Y-13000D01*
D12*
G01X-23206Y-13000D02*
G01X-23204Y-13053D01*
D12*
G01X-23204Y-13053D02*
G01X-23204Y-13106D01*
D12*
G01X-23204Y-13106D02*
G01X-23204Y-13159D01*
D12*
G01X-23204Y-13159D02*
G01X-23206Y-13213D01*
D12*
G01X-23206Y-13213D02*
G01X-23209Y-13266D01*
D12*
G01X-23209Y-13266D02*
G01X-23213Y-13319D01*
D12*
G01X-23213Y-13319D02*
G01X-23209Y-13378D01*
D12*
G01X-23209Y-13378D02*
G01X-23210Y-13438D01*
D12*
G01X-23210Y-13438D02*
G01X-23216Y-13497D01*
D12*
G01X-23216Y-13497D02*
G01X-23225Y-13556D01*
D12*
G01X-23225Y-13556D02*
G01X-23237Y-13614D01*
D12*
G01X-23237Y-13614D02*
G01X-23251Y-13671D01*
D12*
G01X-23251Y-13671D02*
G01X-23266Y-13727D01*
D12*
G01X-23266Y-13727D02*
G01X-23282Y-13781D01*
D12*
G01X-23282Y-13781D02*
G01X-23297Y-13833D01*
D12*
G01X-23297Y-13833D02*
G01X-23310Y-13883D01*
D12*
G01X-23310Y-13883D02*
G01X-23322Y-13930D01*
D12*
G01X-23322Y-13930D02*
G01X-23331Y-13975D01*
D12*
G01X-23331Y-13975D02*
G01X-23336Y-14017D01*
D12*
G01X-23336Y-14017D02*
G01X-23337Y-14058D01*
D12*
G01X-23337Y-14058D02*
G01X-23360Y-14145D01*
D12*
G01X-23360Y-14145D02*
G01X-23381Y-14223D01*
D12*
G01X-23381Y-14223D02*
G01X-23400Y-14295D01*
D12*
G01X-23400Y-14295D02*
G01X-23418Y-14360D01*
D12*
G01X-23418Y-14360D02*
G01X-23433Y-14419D01*
D12*
G01X-23433Y-14419D02*
G01X-23447Y-14473D01*
D12*
G01X-23447Y-14473D02*
G01X-23460Y-14521D01*
D12*
G01X-23460Y-14521D02*
G01X-23472Y-14565D01*
D12*
G01X-23472Y-14565D02*
G01X-23472Y-14565D01*
D12*
G01X-23472Y-14565D02*
G01X-23482Y-14605D01*
D12*
G01X-23482Y-14605D02*
G01X-23492Y-14642D01*
D12*
G01X-23492Y-14642D02*
G01X-23501Y-14675D01*
D12*
G01X-23501Y-14675D02*
G01X-23509Y-14705D01*
D12*
G01X-23509Y-14705D02*
G01X-23516Y-14733D01*
D12*
G01X-23516Y-14733D02*
G01X-23523Y-14760D01*
D12*
G01X-23523Y-14760D02*
G01X-23530Y-14785D01*
D12*
G01X-23530Y-14785D02*
G01X-23537Y-14809D01*
D12*
G01X-23537Y-14809D02*
G01X-23544Y-14832D01*
D12*
G01X-23544Y-14832D02*
G01X-23551Y-14855D01*
D12*
G01X-23551Y-14855D02*
G01X-23559Y-14879D01*
D12*
G01X-23559Y-14879D02*
G01X-23567Y-14904D01*
D12*
G01X-23567Y-14904D02*
G01X-23575Y-14930D01*
D12*
G01X-23575Y-14930D02*
G01X-23584Y-14957D01*
D12*
G01X-23584Y-14957D02*
G01X-23595Y-14987D01*
D12*
G01X-23595Y-14987D02*
G01X-23606Y-15019D01*
D12*
G01X-23606Y-15019D02*
G01X-23618Y-15055D01*
D12*
G01X-23618Y-15055D02*
G01X-23632Y-15094D01*
D12*
G01X-23632Y-15094D02*
G01X-23647Y-15136D01*
D12*
G01X-23647Y-15136D02*
G01X-23664Y-15184D01*
D12*
G01X-23664Y-15184D02*
G01X-23683Y-15236D01*
D12*
G01X-23683Y-15236D02*
G01X-23703Y-15294D01*
D12*
G01X-23703Y-15294D02*
G01X-23725Y-15357D01*
D12*
G01X-23725Y-15357D02*
G01X-23750Y-15426D01*
D12*
G01X-23750Y-15426D02*
G01X-23777Y-15503D01*
D12*
G01X-23777Y-15503D02*
G01X-23806Y-15586D01*
D12*
G01X-23806Y-15586D02*
G01X-23806Y-15586D01*
D12*
G01X-23806Y-15586D02*
G01X-23838Y-15677D01*
D12*
G01X-23838Y-15677D02*
G01X-23838Y-15677D01*
D12*
G01X-23838Y-15677D02*
G01X-23873Y-15776D01*
D12*
G01X-23873Y-15776D02*
G01X-23911Y-15884D01*
D12*
G01X-23911Y-15884D02*
G01X-23932Y-15934D01*
D12*
G01X-23932Y-15934D02*
G01X-23955Y-15982D01*
D12*
G01X-23955Y-15982D02*
G01X-23978Y-16030D01*
D12*
G01X-23978Y-16030D02*
G01X-24003Y-16077D01*
D12*
G01X-24003Y-16077D02*
G01X-24029Y-16123D01*
D12*
G01X-24029Y-16123D02*
G01X-24055Y-16168D01*
D12*
G01X-24055Y-16168D02*
G01X-24083Y-16212D01*
D12*
G01X-24083Y-16212D02*
G01X-24111Y-16255D01*
D12*
G01X-24111Y-16255D02*
G01X-24141Y-16298D01*
D12*
G01X-24141Y-16298D02*
G01X-24171Y-16340D01*
D12*
G01X-24171Y-16340D02*
G01X-24202Y-16381D01*
D12*
G01X-24202Y-16381D02*
G01X-24234Y-16422D01*
D12*
G01X-24234Y-16422D02*
G01X-24266Y-16462D01*
D12*
G01X-24266Y-16462D02*
G01X-24300Y-16502D01*
D12*
G01X-24300Y-16502D02*
G01X-24334Y-16541D01*
D12*
G01X-24334Y-16541D02*
G01X-24368Y-16579D01*
D12*
G01X-24368Y-16579D02*
G01X-24403Y-16617D01*
D12*
G01X-24403Y-16617D02*
G01X-24439Y-16654D01*
D12*
G01X-24439Y-16654D02*
G01X-24475Y-16691D01*
D12*
G01X-24475Y-16691D02*
G01X-24512Y-16728D01*
D12*
G01X-24512Y-16728D02*
G01X-24549Y-16764D01*
D12*
G01X-24549Y-16764D02*
G01X-24586Y-16800D01*
D12*
G01X-24586Y-16800D02*
G01X-24624Y-16835D01*
D12*
G01X-24624Y-16835D02*
G01X-24662Y-16870D01*
D12*
G01X-24662Y-16870D02*
G01X-24701Y-16905D01*
D12*
G01X-24701Y-16905D02*
G01X-24739Y-16940D01*
D12*
G01X-24739Y-16940D02*
G01X-24778Y-16974D01*
D12*
G01X-24778Y-16974D02*
G01X-24818Y-17009D01*
D12*
G01X-24818Y-17009D02*
G01X-24857Y-17043D01*
D12*
G01X-24857Y-17043D02*
G01X-24896Y-17077D01*
D12*
G01X-24896Y-17077D02*
G01X-24936Y-17111D01*
D12*
G01X-24936Y-17111D02*
G01X-24975Y-17145D01*
D12*
G01X-24975Y-17145D02*
G01X-25015Y-17178D01*
D12*
G01X-25015Y-17178D02*
G01X-25015Y-17178D01*
D12*
G01X-25015Y-17178D02*
G01X-25054Y-17212D01*
D12*
G01X-25054Y-17212D02*
G01X-25094Y-17246D01*
D12*
G01X-25094Y-17246D02*
G01X-25133Y-17280D01*
D12*
G01X-25133Y-17280D02*
G01X-25172Y-17314D01*
D12*
G01X-25172Y-17314D02*
G01X-25211Y-17349D01*
D12*
G01X-25211Y-17349D02*
G01X-25250Y-17383D01*
D12*
G01X-25250Y-17383D02*
G01X-25288Y-17417D01*
D12*
G01X-25288Y-17417D02*
G01X-25326Y-17452D01*
D12*
G01X-25326Y-17452D02*
G01X-25364Y-17487D01*
D12*
G01X-25364Y-17487D02*
G01X-25402Y-17522D01*
D12*
G01X-25402Y-17522D02*
G01X-25439Y-17558D01*
D12*
G01X-25439Y-17558D02*
G01X-25476Y-17594D01*
D12*
G01X-25476Y-17594D02*
G01X-25512Y-17630D01*
D12*
G01X-25512Y-17630D02*
G01X-25548Y-17667D01*
D12*
G01X-25548Y-17667D02*
G01X-25583Y-17704D01*
D12*
G01X-25583Y-17704D02*
G01X-25617Y-17742D01*
D12*
G01X-25617Y-17742D02*
G01X-25651Y-17780D01*
D12*
G01X-25651Y-17780D02*
G01X-25685Y-17818D01*
D12*
G01X-25685Y-17818D02*
G01X-25717Y-17857D01*
D12*
G01X-25717Y-17857D02*
G01X-25749Y-17897D01*
D12*
G01X-25749Y-17897D02*
G01X-25780Y-17937D01*
D12*
G01X-25780Y-17937D02*
G01X-25811Y-17978D01*
D12*
G01X-25811Y-17978D02*
G01X-25840Y-18019D01*
D12*
G01X-25840Y-18019D02*
G01X-25869Y-18062D01*
D12*
G01X-25869Y-18062D02*
G01X-25897Y-18105D01*
D12*
G01X-25897Y-18105D02*
G01X-25924Y-18148D01*
D12*
G01X-25924Y-18148D02*
G01X-25950Y-18193D01*
D12*
G01X-25950Y-18193D02*
G01X-25974Y-18238D01*
D12*
G01X-25974Y-18238D02*
G01X-25998Y-18284D01*
D12*
G01X-25998Y-18284D02*
G01X-26021Y-18331D01*
D12*
G01X-26021Y-18331D02*
G01X-26043Y-18379D01*
D12*
G01X-26043Y-18379D02*
G01X-26063Y-18428D01*
D12*
G01X-26063Y-18428D02*
G01X-26083Y-18478D01*
D12*
G01X-26083Y-18478D02*
G01X-26101Y-18529D01*
D12*
G01X-26101Y-18529D02*
G01X-26124Y-18577D01*
D12*
G01X-26124Y-18577D02*
G01X-26146Y-18624D01*
D12*
G01X-26146Y-18624D02*
G01X-26167Y-18672D01*
D12*
G01X-26167Y-18672D02*
G01X-26188Y-18720D01*
D12*
G01X-26188Y-18720D02*
G01X-26208Y-18768D01*
D12*
G01X-26208Y-18768D02*
G01X-26227Y-18816D01*
D12*
G01X-26227Y-18816D02*
G01X-26246Y-18864D01*
D12*
G01X-26246Y-18864D02*
G01X-26265Y-18912D01*
D12*
G01X-26265Y-18912D02*
G01X-26283Y-18961D01*
D12*
G01X-26283Y-18961D02*
G01X-26301Y-19009D01*
D12*
G01X-26301Y-19009D02*
G01X-26318Y-19058D01*
D12*
G01X-26318Y-19058D02*
G01X-26334Y-19107D01*
D12*
G01X-26334Y-19107D02*
G01X-26350Y-19156D01*
D12*
G01X-26350Y-19156D02*
G01X-26366Y-19205D01*
D12*
G01X-26366Y-19205D02*
G01X-26382Y-19255D01*
D12*
G01X-26382Y-19255D02*
G01X-26396Y-19304D01*
D12*
G01X-26396Y-19304D02*
G01X-26411Y-19354D01*
D12*
G01X-26411Y-19354D02*
G01X-26425Y-19404D01*
D12*
G01X-26425Y-19404D02*
G01X-26439Y-19453D01*
D12*
G01X-26439Y-19453D02*
G01X-26453Y-19503D01*
D12*
G01X-26453Y-19503D02*
G01X-26466Y-19553D01*
D12*
G01X-26466Y-19553D02*
G01X-26479Y-19603D01*
D12*
G01X-26479Y-19603D02*
G01X-26491Y-19653D01*
D12*
G01X-26491Y-19653D02*
G01X-26503Y-19704D01*
D12*
G01X-26503Y-19704D02*
G01X-26515Y-19754D01*
D12*
G01X-26515Y-19754D02*
G01X-26527Y-19804D01*
D12*
G01X-26527Y-19804D02*
G01X-26539Y-19855D01*
D12*
G01X-26539Y-19855D02*
G01X-26550Y-19905D01*
D12*
G01X-26550Y-19905D02*
G01X-26561Y-19956D01*
D12*
G01X-26561Y-19956D02*
G01X-26572Y-20007D01*
D12*
G01X-26572Y-20007D02*
G01X-26583Y-20057D01*
D12*
G01X-26583Y-20057D02*
G01X-26593Y-20108D01*
D12*
G01X-26593Y-20108D02*
G01X-26604Y-20159D01*
D12*
G01X-26604Y-20159D02*
G01X-26614Y-20210D01*
D12*
G01X-26614Y-20210D02*
G01X-26624Y-20261D01*
D12*
G01X-26624Y-20261D02*
G01X-26634Y-20312D01*
D12*
G01X-26634Y-20312D02*
G01X-26644Y-20363D01*
D12*
G01X-26644Y-20363D02*
G01X-26654Y-20414D01*
D12*
G01X-26654Y-20414D02*
G01X-26654Y-20414D01*
D12*
G01X-26654Y-20414D02*
G01X-26664Y-20465D01*
D12*
G01X-26664Y-20465D02*
G01X-26674Y-20516D01*
D12*
G01X-26674Y-20516D02*
G01X-26683Y-20567D01*
D12*
G01X-26683Y-20567D02*
G01X-26693Y-20618D01*
D12*
G01X-26693Y-20618D02*
G01X-26703Y-20669D01*
D12*
G01X-26703Y-20669D02*
G01X-26713Y-20720D01*
D12*
G01X-26713Y-20720D02*
G01X-26722Y-20771D01*
D12*
G01X-26722Y-20771D02*
G01X-26732Y-20823D01*
D12*
G01X-26732Y-20823D02*
G01X-26742Y-20874D01*
D12*
G01X-26742Y-20874D02*
G01X-26752Y-20925D01*
D12*
G01X-26752Y-20925D02*
G01X-26762Y-20976D01*
D12*
G01X-26762Y-20976D02*
G01X-26772Y-21027D01*
D12*
G01X-26772Y-21027D02*
G01X-26783Y-21078D01*
D12*
G01X-26783Y-21078D02*
G01X-26793Y-21129D01*
D12*
G01X-26793Y-21129D02*
G01X-26804Y-21180D01*
D12*
G01X-26804Y-21180D02*
G01X-26814Y-21231D01*
D12*
G01X-26814Y-21231D02*
G01X-26825Y-21281D01*
D12*
G01X-26825Y-21281D02*
G01X-26837Y-21332D01*
D12*
G01X-26837Y-21332D02*
G01X-26848Y-21383D01*
D12*
G01X-26848Y-21383D02*
G01X-26859Y-21434D01*
D12*
G01X-26859Y-21434D02*
G01X-26871Y-21484D01*
D12*
G01X-26871Y-21484D02*
G01X-26883Y-21535D01*
D12*
G01X-26883Y-21535D02*
G01X-26896Y-21585D01*
D12*
G01X-26896Y-21585D02*
G01X-26908Y-21636D01*
D12*
G01X-26908Y-21636D02*
G01X-26921Y-21686D01*
D12*
G01X-26921Y-21686D02*
G01X-26934Y-21736D01*
D12*
G01X-26934Y-21736D02*
G01X-26948Y-21786D01*
D12*
G01X-26948Y-21786D02*
G01X-26962Y-21837D01*
D12*
G01X-26962Y-21837D02*
G01X-26976Y-21887D01*
D12*
G01X-26976Y-21887D02*
G01X-26991Y-21936D01*
D12*
G01X-26991Y-21936D02*
G01X-27006Y-21986D01*
D12*
G01X-27006Y-21986D02*
G01X-27021Y-22036D01*
D12*
G01X-27021Y-22036D02*
G01X-27037Y-22085D01*
D12*
G01X-27037Y-22085D02*
G01X-27053Y-22135D01*
D12*
G01X-27053Y-22135D02*
G01X-27070Y-22184D01*
D12*
G01X-27070Y-22184D02*
G01X-27087Y-22233D01*
D12*
G01X-27087Y-22233D02*
G01X-27105Y-22282D01*
D12*
G01X-27105Y-22282D02*
G01X-27123Y-22331D01*
D12*
G01X-27123Y-22331D02*
G01X-27142Y-22380D01*
D12*
G01X-27142Y-22380D02*
G01X-27161Y-22429D01*
D12*
G01X-27161Y-22429D02*
G01X-27180Y-22477D01*
D12*
G01X-27180Y-22477D02*
G01X-27201Y-22526D01*
D12*
G01X-27201Y-22526D02*
G01X-27222Y-22574D01*
D12*
G01X-27222Y-22574D02*
G01X-27243Y-22622D01*
D12*
G01X-27243Y-22622D02*
G01X-27265Y-22670D01*
D12*
G01X-27265Y-22670D02*
G01X-27288Y-22717D01*
D12*
G01X-27288Y-22717D02*
G01X-27309Y-22764D01*
D12*
G01X-27309Y-22764D02*
G01X-27330Y-22810D01*
D12*
G01X-27330Y-22810D02*
G01X-27351Y-22856D01*
D12*
G01X-27351Y-22856D02*
G01X-27373Y-22903D01*
D12*
G01X-27373Y-22903D02*
G01X-27395Y-22949D01*
D12*
G01X-27395Y-22949D02*
G01X-27417Y-22995D01*
D12*
G01X-27417Y-22995D02*
G01X-27440Y-23042D01*
D12*
G01X-27440Y-23042D02*
G01X-27462Y-23088D01*
D12*
G01X-27462Y-23088D02*
G01X-27485Y-23134D01*
D12*
G01X-27485Y-23134D02*
G01X-27508Y-23180D01*
D12*
G01X-27508Y-23180D02*
G01X-27532Y-23227D01*
D12*
G01X-27532Y-23227D02*
G01X-27555Y-23273D01*
D12*
G01X-27555Y-23273D02*
G01X-27579Y-23319D01*
D12*
G01X-27579Y-23319D02*
G01X-27603Y-23365D01*
D12*
G01X-27603Y-23365D02*
G01X-27627Y-23411D01*
D12*
G01X-27627Y-23411D02*
G01X-27652Y-23457D01*
D12*
G01X-27652Y-23457D02*
G01X-27677Y-23503D01*
D12*
G01X-27677Y-23503D02*
G01X-27702Y-23549D01*
D12*
G01X-27702Y-23549D02*
G01X-27727Y-23594D01*
D12*
G01X-27727Y-23594D02*
G01X-27753Y-23640D01*
D12*
G01X-27753Y-23640D02*
G01X-27779Y-23685D01*
D12*
G01X-27779Y-23685D02*
G01X-27805Y-23731D01*
D12*
G01X-27805Y-23731D02*
G01X-27831Y-23776D01*
D12*
G01X-27831Y-23776D02*
G01X-27857Y-23821D01*
D12*
G01X-27857Y-23821D02*
G01X-27884Y-23866D01*
D12*
G01X-27884Y-23866D02*
G01X-27911Y-23911D01*
D12*
G01X-27911Y-23911D02*
G01X-27939Y-23955D01*
D12*
G01X-27939Y-23955D02*
G01X-27967Y-24000D01*
D12*
G01X-27967Y-24000D02*
G01X-27994Y-24044D01*
D12*
G01X-27994Y-24044D02*
G01X-28023Y-24088D01*
D12*
G01X-28023Y-24088D02*
G01X-28051Y-24132D01*
D12*
G01X-28051Y-24132D02*
G01X-28080Y-24176D01*
D12*
G01X-28080Y-24176D02*
G01X-28109Y-24220D01*
D12*
G01X-28109Y-24220D02*
G01X-28138Y-24263D01*
D12*
G01X-28138Y-24263D02*
G01X-28168Y-24306D01*
D12*
G01X-28168Y-24306D02*
G01X-28198Y-24349D01*
D12*
G01X-28198Y-24349D02*
G01X-28228Y-24392D01*
D12*
G01X-28228Y-24392D02*
G01X-28259Y-24434D01*
D12*
G01X-28259Y-24434D02*
G01X-28289Y-24477D01*
D12*
G01X-28289Y-24477D02*
G01X-28320Y-24519D01*
D12*
G01X-28320Y-24519D02*
G01X-28352Y-24560D01*
D12*
G01X-28352Y-24560D02*
G01X-28384Y-24602D01*
D12*
G01X-28384Y-24602D02*
G01X-28416Y-24643D01*
D12*
G01X-28416Y-24643D02*
G01X-28448Y-24684D01*
D12*
G01X-28448Y-24684D02*
G01X-28480Y-24725D01*
D12*
G01X-28480Y-24725D02*
G01X-28513Y-24765D01*
D12*
G01X-28513Y-24765D02*
G01X-28547Y-24805D01*
D12*
G01X-28547Y-24805D02*
G01X-28580Y-24845D01*
D12*
G01X-28580Y-24845D02*
G01X-28614Y-24884D01*
D12*
G01X-28614Y-24884D02*
G01X-28648Y-24924D01*
D12*
G01X-28648Y-24924D02*
G01X-28683Y-24962D01*
D12*
G01X-28683Y-24962D02*
G01X-28718Y-25001D01*
D12*
G01X-28718Y-25001D02*
G01X-28753Y-25039D01*
D12*
G01X-28753Y-25039D02*
G01X-28788Y-25077D01*
D12*
G01X-28788Y-25077D02*
G01X-28824Y-25114D01*
D12*
G01X-28824Y-25114D02*
G01X-28860Y-25151D01*
D12*
G01X-28860Y-25151D02*
G01X-28897Y-25188D01*
D12*
G01X-28897Y-25188D02*
G01X-28934Y-25224D01*
D12*
G01X-28934Y-25224D02*
G01X-28971Y-25260D01*
D12*
G01X-28971Y-25260D02*
G01X-29008Y-25296D01*
D12*
G01X-29008Y-25296D02*
G01X-29046Y-25331D01*
D12*
G01X-29046Y-25331D02*
G01X-29084Y-25366D01*
D12*
G01X-29084Y-25366D02*
G01X-29123Y-25400D01*
D12*
G01X-29123Y-25400D02*
G01X-29162Y-25434D01*
D12*
G01X-29162Y-25434D02*
G01X-29201Y-25467D01*
D12*
G01X-29201Y-25467D02*
G01X-29241Y-25500D01*
D12*
G01X-29241Y-25500D02*
G01X-29281Y-25533D01*
D12*
G01X-29281Y-25533D02*
G01X-29321Y-25565D01*
D12*
G01X-29321Y-25565D02*
G01X-29362Y-25597D01*
D12*
G01X-29362Y-25597D02*
G01X-29403Y-25628D01*
D12*
G01X-29403Y-25628D02*
G01X-29444Y-25659D01*
D12*
G01X-29444Y-25659D02*
G01X-29486Y-25689D01*
D12*
G01X-29486Y-25689D02*
G01X-29528Y-25719D01*
D12*
G01X-29528Y-25719D02*
G01X-29571Y-25748D01*
D12*
G01X-29571Y-25748D02*
G01X-29613Y-25777D01*
D12*
G01X-29613Y-25777D02*
G01X-29657Y-25805D01*
D12*
G01X-29657Y-25805D02*
G01X-29700Y-25833D01*
D12*
G01X-29700Y-25833D02*
G01X-29744Y-25860D01*
D12*
G01X-29744Y-25860D02*
G01X-29789Y-25886D01*
D12*
G01X-29789Y-25886D02*
G01X-29834Y-25913D01*
D12*
G01X-29834Y-25913D02*
G01X-29879Y-25938D01*
D12*
G01X-29879Y-25938D02*
G01X-29924Y-25963D01*
D12*
G01X-29924Y-25963D02*
G01X-29970Y-25988D01*
D12*
G01X-29970Y-25988D02*
G01X-30017Y-26012D01*
D12*
G01X-30017Y-26012D02*
G01X-30063Y-26035D01*
D12*
G01X-30063Y-26035D02*
G01X-30111Y-26058D01*
D12*
G01X-30111Y-26058D02*
G01X-30158Y-26080D01*
D12*
G01X-30158Y-26080D02*
G01X-30206Y-26101D01*
D12*
G01X-30206Y-26101D02*
G01X-30254Y-26122D01*
D12*
G01X-30254Y-26122D02*
G01X-30304Y-26143D01*
D12*
G01X-30304Y-26143D02*
G01X-30353Y-26158D01*
D12*
G01X-30353Y-26158D02*
G01X-30402Y-26173D01*
D12*
G01X-30402Y-26173D02*
G01X-30451Y-26188D01*
D12*
G01X-30451Y-26188D02*
G01X-30502Y-26203D01*
D12*
G01X-30502Y-26203D02*
G01X-30552Y-26217D01*
D12*
G01X-30552Y-26217D02*
G01X-30604Y-26230D01*
D12*
G01X-30604Y-26230D02*
G01X-30655Y-26242D01*
D12*
G01X-30655Y-26242D02*
G01X-30707Y-26253D01*
D12*
G01X-30707Y-26253D02*
G01X-30758Y-26262D01*
D12*
G01X-30758Y-26262D02*
G01X-30810Y-26269D01*
D12*
G01X-30810Y-26269D02*
G01X-30862Y-26275D01*
D12*
G01X-30862Y-26275D02*
G01X-30914Y-26278D01*
D12*
G01X-30914Y-26278D02*
G01X-30965Y-26278D01*
D12*
G01X-30965Y-26278D02*
G01X-31016Y-26276D01*
D12*
G01X-31016Y-26276D02*
G01X-31067Y-26270D01*
D12*
G01X-31067Y-26270D02*
G01X-31115Y-26262D01*
D12*
G01X-31115Y-26262D02*
G01X-31165Y-26265D01*
D12*
G01X-31165Y-26265D02*
G01X-31216Y-26267D01*
D12*
G01X-31216Y-26267D02*
G01X-31267Y-26266D01*
D12*
G01X-31267Y-26266D02*
G01X-31318Y-26262D01*
D12*
G01X-31318Y-26262D02*
G01X-31369Y-26257D01*
D12*
G01X-31369Y-26257D02*
G01X-31420Y-26249D01*
D12*
G01X-31420Y-26249D02*
G01X-31470Y-26240D01*
D12*
G01X-31470Y-26240D02*
G01X-31520Y-26229D01*
D12*
G01X-31520Y-26229D02*
G01X-31570Y-26216D01*
D12*
G01X-31570Y-26216D02*
G01X-31620Y-26201D01*
D12*
G01X-31620Y-26201D02*
G01X-31669Y-26185D01*
D12*
G01X-31669Y-26185D02*
G01X-31718Y-26167D01*
D12*
G01X-31718Y-26167D02*
G01X-31767Y-26148D01*
D12*
G01X-31767Y-26148D02*
G01X-31816Y-26128D01*
D12*
G01X-31816Y-26128D02*
G01X-31864Y-26106D01*
D12*
G01X-31864Y-26106D02*
G01X-31913Y-26083D01*
D12*
G01X-31913Y-26083D02*
G01X-31961Y-26060D01*
D12*
G01X-31961Y-26060D02*
G01X-32008Y-26035D01*
D12*
G01X-32008Y-26035D02*
G01X-32056Y-26010D01*
D12*
G01X-32056Y-26010D02*
G01X-32103Y-25984D01*
D12*
G01X-32103Y-25984D02*
G01X-32150Y-25957D01*
D12*
G01X-32150Y-25957D02*
G01X-32197Y-25930D01*
D12*
G01X-32197Y-25930D02*
G01X-32243Y-25902D01*
D12*
G01X-32243Y-25902D02*
G01X-32289Y-25874D01*
D12*
G01X-32289Y-25874D02*
G01X-32335Y-25846D01*
D12*
G01X-32335Y-25846D02*
G01X-32381Y-25818D01*
D12*
G01X-32381Y-25818D02*
G01X-32426Y-25789D01*
D12*
G01X-32426Y-25789D02*
G01X-32471Y-25761D01*
D12*
G01X-32471Y-25761D02*
G01X-32516Y-25733D01*
D12*
G01X-32516Y-25733D02*
G01X-32561Y-25705D01*
D12*
G01X-32561Y-25705D02*
G01X-32605Y-25677D01*
D12*
G01X-32605Y-25677D02*
G01X-32649Y-25649D01*
D12*
G01X-32649Y-25649D02*
G01X-32693Y-25623D01*
D12*
G01X-32693Y-25623D02*
G01X-32736Y-25596D01*
D12*
G01X-32736Y-25596D02*
G01X-32780Y-25570D01*
D12*
G01X-32780Y-25570D02*
G01X-32821Y-25537D01*
D12*
G01X-32821Y-25537D02*
G01X-32862Y-25504D01*
D12*
G01X-32862Y-25504D02*
G01X-32903Y-25471D01*
D12*
G01X-32903Y-25471D02*
G01X-32943Y-25438D01*
D12*
G01X-32943Y-25438D02*
G01X-32983Y-25405D01*
D12*
G01X-32983Y-25405D02*
G01X-33023Y-25371D01*
D12*
G01X-33023Y-25371D02*
G01X-33063Y-25337D01*
D12*
G01X-33063Y-25337D02*
G01X-33103Y-25303D01*
D12*
G01X-33103Y-25303D02*
G01X-33142Y-25269D01*
D12*
G01X-33142Y-25269D02*
G01X-33181Y-25234D01*
D12*
G01X-33181Y-25234D02*
G01X-33221Y-25200D01*
D12*
G01X-33221Y-25200D02*
G01X-33260Y-25165D01*
D12*
G01X-33260Y-25165D02*
G01X-33298Y-25130D01*
D12*
G01X-33298Y-25130D02*
G01X-33337Y-25095D01*
D12*
G01X-33337Y-25095D02*
G01X-33376Y-25059D01*
D12*
G01X-33376Y-25059D02*
G01X-33414Y-25024D01*
D12*
G01X-33414Y-25024D02*
G01X-33452Y-24988D01*
D12*
G01X-33452Y-24988D02*
G01X-33490Y-24952D01*
D12*
G01X-33490Y-24952D02*
G01X-33528Y-24916D01*
D12*
G01X-33528Y-24916D02*
G01X-33565Y-24880D01*
D12*
G01X-33565Y-24880D02*
G01X-33603Y-24843D01*
D12*
G01X-33603Y-24843D02*
G01X-33640Y-24807D01*
D12*
G01X-33640Y-24807D02*
G01X-33677Y-24770D01*
D12*
G01X-33677Y-24770D02*
G01X-33714Y-24733D01*
D12*
G01X-33714Y-24733D02*
G01X-33751Y-24696D01*
D12*
G01X-33751Y-24696D02*
G01X-33788Y-24658D01*
D12*
G01X-33788Y-24658D02*
G01X-33824Y-24621D01*
D12*
G01X-33824Y-24621D02*
G01X-33860Y-24583D01*
D12*
G01X-33860Y-24583D02*
G01X-33896Y-24545D01*
D12*
G01X-33896Y-24545D02*
G01X-33932Y-24507D01*
D12*
G01X-33932Y-24507D02*
G01X-33968Y-24469D01*
D12*
G01X-33968Y-24469D02*
G01X-34003Y-24431D01*
D12*
G01X-34003Y-24431D02*
G01X-34039Y-24392D01*
D12*
G01X-34039Y-24392D02*
G01X-34074Y-24353D01*
D12*
G01X-34074Y-24353D02*
G01X-34109Y-24314D01*
D12*
G01X-34109Y-24314D02*
G01X-34143Y-24275D01*
D12*
G01X-34143Y-24275D02*
G01X-34178Y-24236D01*
D12*
G01X-34178Y-24236D02*
G01X-34212Y-24197D01*
D12*
G01X-34212Y-24197D02*
G01X-34246Y-24157D01*
D12*
G01X-34246Y-24157D02*
G01X-34280Y-24117D01*
D12*
G01X-34280Y-24117D02*
G01X-34314Y-24078D01*
D12*
G01X-34314Y-24078D02*
G01X-34348Y-24038D01*
D12*
G01X-34348Y-24038D02*
G01X-34381Y-23997D01*
D12*
G01X-34381Y-23997D02*
G01X-34414Y-23957D01*
D12*
G01X-34414Y-23957D02*
G01X-34447Y-23916D01*
D12*
G01X-34447Y-23916D02*
G01X-34480Y-23876D01*
D12*
G01X-34480Y-23876D02*
G01X-34513Y-23835D01*
D12*
G01X-34513Y-23835D02*
G01X-34545Y-23794D01*
D12*
G01X-34545Y-23794D02*
G01X-34577Y-23753D01*
D12*
G01X-34577Y-23753D02*
G01X-34609Y-23711D01*
D12*
G01X-34609Y-23711D02*
G01X-34641Y-23670D01*
D12*
G01X-34641Y-23670D02*
G01X-34673Y-23628D01*
D12*
G01X-34673Y-23628D02*
G01X-34704Y-23587D01*
D12*
G01X-34704Y-23587D02*
G01X-34735Y-23545D01*
D12*
G01X-34735Y-23545D02*
G01X-34766Y-23503D01*
D12*
G01X-34766Y-23503D02*
G01X-34797Y-23460D01*
D12*
G01X-34797Y-23460D02*
G01X-34827Y-23418D01*
D12*
G01X-34827Y-23418D02*
G01X-34858Y-23375D01*
D12*
G01X-34858Y-23375D02*
G01X-34888Y-23333D01*
D12*
G01X-34888Y-23333D02*
G01X-34918Y-23290D01*
D12*
G01X-34918Y-23290D02*
G01X-34948Y-23247D01*
D12*
G01X-34948Y-23247D02*
G01X-34977Y-23204D01*
D12*
G01X-34977Y-23204D02*
G01X-35007Y-23161D01*
D12*
G01X-35007Y-23161D02*
G01X-35036Y-23117D01*
D12*
G01X-35036Y-23117D02*
G01X-35064Y-23074D01*
D12*
G01X-35064Y-23074D02*
G01X-35093Y-23030D01*
D12*
G01X-35093Y-23030D02*
G01X-35122Y-22986D01*
D12*
G01X-35122Y-22986D02*
G01X-35150Y-22942D01*
D12*
G01X-35150Y-22942D02*
G01X-35178Y-22898D01*
D12*
G01X-35178Y-22898D02*
G01X-35206Y-22854D01*
D12*
G01X-35206Y-22854D02*
G01X-35233Y-22810D01*
D12*
G01X-35233Y-22810D02*
G01X-35261Y-22765D01*
D12*
G01X-35261Y-22765D02*
G01X-35288Y-22721D01*
D12*
G01X-35288Y-22721D02*
G01X-35315Y-22676D01*
D12*
G01X-35315Y-22676D02*
G01X-35341Y-22631D01*
D12*
G01X-35341Y-22631D02*
G01X-35368Y-22586D01*
D12*
G01X-35368Y-22586D02*
G01X-35394Y-22541D01*
D12*
G01X-35394Y-22541D02*
G01X-35420Y-22495D01*
D12*
G01X-35420Y-22495D02*
G01X-35446Y-22450D01*
D12*
G01X-35446Y-22450D02*
G01X-35471Y-22405D01*
D12*
G01X-35471Y-22405D02*
G01X-35497Y-22359D01*
D12*
G01X-35497Y-22359D02*
G01X-35522Y-22313D01*
D12*
G01X-35522Y-22313D02*
G01X-35547Y-22267D01*
D12*
G01X-35547Y-22267D02*
G01X-35571Y-22221D01*
D12*
G01X-35571Y-22221D02*
G01X-35596Y-22175D01*
D12*
G01X-35596Y-22175D02*
G01X-35620Y-22129D01*
D12*
G01X-35620Y-22129D02*
G01X-35644Y-22082D01*
D12*
G01X-35644Y-22082D02*
G01X-35668Y-22036D01*
D12*
G01X-35668Y-22036D02*
G01X-35691Y-21989D01*
D12*
G01X-35691Y-21989D02*
G01X-35714Y-21942D01*
D12*
G01X-35714Y-21942D02*
G01X-35737Y-21895D01*
D12*
G01X-35737Y-21895D02*
G01X-35760Y-21848D01*
D12*
G01X-35760Y-21848D02*
G01X-35783Y-21801D01*
D12*
G01X-35783Y-21801D02*
G01X-35805Y-21754D01*
D12*
G01X-35805Y-21754D02*
G01X-35827Y-21707D01*
D12*
G01X-35827Y-21707D02*
G01X-35849Y-21659D01*
D12*
G01X-35849Y-21659D02*
G01X-35870Y-21612D01*
D12*
G01X-35870Y-21612D02*
G01X-35892Y-21564D01*
D12*
G01X-35892Y-21564D02*
G01X-35913Y-21516D01*
D12*
G01X-35913Y-21516D02*
G01X-35933Y-21468D01*
D12*
G01X-35933Y-21468D02*
G01X-35954Y-21420D01*
D12*
G01X-35954Y-21420D02*
G01X-35974Y-21372D01*
D12*
G01X-35974Y-21372D02*
G01X-35994Y-21324D01*
D12*
G01X-35994Y-21324D02*
G01X-36014Y-21276D01*
D12*
G01X-36014Y-21276D02*
G01X-36034Y-21227D01*
D12*
G01X-36034Y-21227D02*
G01X-36053Y-21179D01*
D12*
G01X-36053Y-21179D02*
G01X-36072Y-21130D01*
D12*
G01X-36072Y-21130D02*
G01X-36091Y-21082D01*
D12*
G01X-36091Y-21082D02*
G01X-36110Y-21033D01*
D12*
G01X-36110Y-21033D02*
G01X-36128Y-20984D01*
D12*
G01X-36128Y-20984D02*
G01X-36146Y-20935D01*
D12*
G01X-36146Y-20935D02*
G01X-36164Y-20886D01*
D12*
G01X-36164Y-20886D02*
G01X-36181Y-20836D01*
D12*
G01X-36181Y-20836D02*
G01X-36199Y-20787D01*
D12*
G01X-36199Y-20787D02*
G01X-36216Y-20738D01*
D12*
G01X-36216Y-20738D02*
G01X-36233Y-20688D01*
D12*
G01X-36233Y-20688D02*
G01X-36249Y-20638D01*
D12*
G01X-36249Y-20638D02*
G01X-36265Y-20589D01*
D12*
G01X-36265Y-20589D02*
G01X-36281Y-20539D01*
D12*
G01X-36281Y-20539D02*
G01X-36297Y-20489D01*
D12*
G01X-36297Y-20489D02*
G01X-36313Y-20439D01*
D12*
G01X-36313Y-20439D02*
G01X-36328Y-20389D01*
D12*
G01X-36328Y-20389D02*
G01X-36343Y-20339D01*
D12*
G01X-36343Y-20339D02*
G01X-36357Y-20289D01*
D12*
G01X-36357Y-20289D02*
G01X-36372Y-20238D01*
D12*
G01X-36372Y-20238D02*
G01X-36386Y-20188D01*
D12*
G01X-36386Y-20188D02*
G01X-36400Y-20137D01*
D12*
G01X-36400Y-20137D02*
G01X-36413Y-20087D01*
D12*
G01X-36413Y-20087D02*
G01X-36427Y-20036D01*
D12*
G01X-36427Y-20036D02*
G01X-36440Y-19985D01*
D12*
G01X-36440Y-19985D02*
G01X-36453Y-19935D01*
D12*
G01X-36453Y-19935D02*
G01X-36465Y-19884D01*
D12*
G01X-36465Y-19884D02*
G01X-36477Y-19833D01*
D12*
G01X-36477Y-19833D02*
G01X-36489Y-19782D01*
D12*
G01X-36489Y-19782D02*
G01X-36501Y-19730D01*
D12*
G01X-36501Y-19730D02*
G01X-36512Y-19679D01*
D12*
G01X-36512Y-19679D02*
G01X-36523Y-19628D01*
D12*
G01X-36523Y-19628D02*
G01X-36534Y-19576D01*
D12*
G01X-36534Y-19576D02*
G01X-36542Y-19525D01*
D12*
G01X-36542Y-19525D02*
G01X-36551Y-19474D01*
D12*
G01X-36551Y-19474D02*
G01X-36559Y-19423D01*
D12*
G01X-36559Y-19423D02*
G01X-36569Y-19373D01*
D12*
G01X-36569Y-19373D02*
G01X-36579Y-19322D01*
D12*
G01X-36579Y-19322D02*
G01X-36589Y-19272D01*
D12*
G01X-36589Y-19272D02*
G01X-36600Y-19221D01*
D12*
G01X-36600Y-19221D02*
G01X-36612Y-19171D01*
D12*
G01X-36612Y-19171D02*
G01X-36624Y-19121D01*
D12*
G01X-36624Y-19121D02*
G01X-36637Y-19071D01*
D12*
G01X-36637Y-19071D02*
G01X-36650Y-19021D01*
D12*
G01X-36650Y-19021D02*
G01X-36664Y-18972D01*
D12*
G01X-36664Y-18972D02*
G01X-36679Y-18922D01*
D12*
G01X-36679Y-18922D02*
G01X-36694Y-18873D01*
D12*
G01X-36694Y-18873D02*
G01X-36710Y-18825D01*
D12*
G01X-36710Y-18825D02*
G01X-36727Y-18776D01*
D12*
G01X-36727Y-18776D02*
G01X-36744Y-18728D01*
D12*
G01X-36744Y-18728D02*
G01X-36762Y-18680D01*
D12*
G01X-36762Y-18680D02*
G01X-36781Y-18633D01*
D12*
G01X-36781Y-18633D02*
G01X-36801Y-18586D01*
D12*
G01X-36801Y-18586D02*
G01X-36821Y-18539D01*
D12*
G01X-36821Y-18539D02*
G01X-36842Y-18492D01*
D12*
G01X-36842Y-18492D02*
G01X-36864Y-18447D01*
D12*
G01X-36864Y-18447D02*
G01X-36887Y-18401D01*
D12*
G01X-36887Y-18401D02*
G01X-36910Y-18356D01*
D12*
G01X-36910Y-18356D02*
G01X-36934Y-18311D01*
D12*
G01X-36934Y-18311D02*
G01X-36959Y-18267D01*
D12*
G01X-36959Y-18267D02*
G01X-36985Y-18224D01*
D12*
G01X-36985Y-18224D02*
G01X-37012Y-18181D01*
D12*
G01X-37012Y-18181D02*
G01X-37039Y-18138D01*
D12*
G01X-37039Y-18138D02*
G01X-37068Y-18096D01*
D12*
G01X-37068Y-18096D02*
G01X-37097Y-18055D01*
D12*
G01X-37097Y-18055D02*
G01X-37128Y-18014D01*
D12*
G01X-37128Y-18014D02*
G01X-37159Y-17974D01*
D12*
G01X-37159Y-17974D02*
G01X-37191Y-17935D01*
D12*
G01X-37191Y-17935D02*
G01X-37224Y-17896D01*
D12*
G01X-37224Y-17896D02*
G01X-37258Y-17858D01*
D12*
G01X-37258Y-17858D02*
G01X-37293Y-17821D01*
D12*
G01X-37293Y-17821D02*
G01X-37329Y-17784D01*
D12*
G01X-37329Y-17784D02*
G01X-37366Y-17748D01*
D12*
G01X-37366Y-17748D02*
G01X-37404Y-17713D01*
D12*
G01X-37404Y-17713D02*
G01X-37443Y-17678D01*
D12*
G01X-37443Y-17678D02*
G01X-37483Y-17645D01*
D12*
G01X-37483Y-17645D02*
G01X-37524Y-17612D01*
D12*
G01X-37524Y-17612D02*
G01X-37570Y-17577D01*
D12*
G01X-37570Y-17577D02*
G01X-37586Y-17528D01*
D12*
G01X-37586Y-17528D02*
G01X-37609Y-17488D01*
D12*
G01X-37609Y-17488D02*
G01X-37640Y-17452D01*
D12*
G01X-37640Y-17452D02*
G01X-37677Y-17418D01*
D12*
G01X-37677Y-17418D02*
G01X-37719Y-17386D01*
D12*
G01X-37719Y-17386D02*
G01X-37764Y-17355D01*
D12*
G01X-37764Y-17355D02*
G01X-37810Y-17324D01*
D12*
G01X-37810Y-17324D02*
G01X-37857Y-17292D01*
D12*
G01X-37857Y-17292D02*
G01X-37902Y-17258D01*
D12*
G01X-37902Y-17258D02*
G01X-37943Y-17220D01*
D12*
G01X-37943Y-17220D02*
G01X-37980Y-17179D01*
D12*
G01X-37980Y-17179D02*
G01X-38010Y-17132D01*
D12*
G01X-38010Y-17132D02*
G01X-38032Y-17079D01*
D12*
G01X-38032Y-17079D02*
G01X-38042Y-17025D01*
D12*
G01X-38042Y-17025D02*
G01X-38075Y-16989D01*
D12*
G01X-38075Y-16989D02*
G01X-38109Y-16950D01*
D12*
G01X-38109Y-16950D02*
G01X-38143Y-16910D01*
D12*
G01X-38143Y-16910D02*
G01X-38176Y-16870D01*
D12*
G01X-38176Y-16870D02*
G01X-38209Y-16829D01*
D12*
G01X-38209Y-16829D02*
G01X-38242Y-16788D01*
D12*
G01X-38242Y-16788D02*
G01X-38274Y-16747D01*
D12*
G01X-38274Y-16747D02*
G01X-38306Y-16705D01*
D12*
G01X-38306Y-16705D02*
G01X-38337Y-16663D01*
D12*
G01X-38337Y-16663D02*
G01X-38368Y-16620D01*
D12*
G01X-38368Y-16620D02*
G01X-38399Y-16577D01*
D12*
G01X-38399Y-16577D02*
G01X-38429Y-16534D01*
D12*
G01X-38429Y-16534D02*
G01X-38459Y-16491D01*
D12*
G01X-38459Y-16491D02*
G01X-38489Y-16447D01*
D12*
G01X-38489Y-16447D02*
G01X-38518Y-16403D01*
D12*
G01X-38518Y-16403D02*
G01X-38548Y-16359D01*
D12*
G01X-38548Y-16359D02*
G01X-38577Y-16315D01*
D12*
G01X-38577Y-16315D02*
G01X-38606Y-16271D01*
D12*
G01X-38606Y-16271D02*
G01X-38635Y-16227D01*
D12*
G01X-38635Y-16227D02*
G01X-38663Y-16182D01*
D12*
G01X-38663Y-16182D02*
G01X-38692Y-16138D01*
D12*
G01X-38692Y-16138D02*
G01X-38721Y-16093D01*
D12*
G01X-38721Y-16093D02*
G01X-38749Y-16049D01*
D12*
G01X-38749Y-16049D02*
G01X-38778Y-16005D01*
D12*
G01X-38778Y-16005D02*
G01X-38806Y-15960D01*
D12*
G01X-38806Y-15960D02*
G01X-38835Y-15916D01*
D12*
G01X-38835Y-15916D02*
G01X-38863Y-15872D01*
D12*
G01X-38863Y-15872D02*
G01X-38892Y-15829D01*
D12*
G01X-38892Y-15829D02*
G01X-38921Y-15785D01*
D12*
G01X-38921Y-15785D02*
G01X-38950Y-15740D01*
D12*
G01X-38950Y-15740D02*
G01X-38973Y-15679D01*
D12*
G01X-38973Y-15679D02*
G01X-38996Y-15619D01*
D12*
G01X-38996Y-15619D02*
G01X-39018Y-15560D01*
D12*
G01X-39018Y-15560D02*
G01X-39018Y-15560D01*
D12*
G01X-39018Y-15560D02*
G01X-39041Y-15501D01*
D12*
G01X-39041Y-15501D02*
G01X-39063Y-15443D01*
D12*
G01X-39063Y-15443D02*
G01X-39085Y-15385D01*
D12*
G01X-39085Y-15385D02*
G01X-39107Y-15327D01*
D12*
G01X-39107Y-15327D02*
G01X-39129Y-15270D01*
D12*
G01X-39129Y-15270D02*
G01X-39129Y-15270D01*
D12*
G01X-39129Y-15270D02*
G01X-39151Y-15213D01*
D12*
G01X-39151Y-15213D02*
G01X-39173Y-15157D01*
D12*
G01X-39173Y-15157D02*
G01X-39194Y-15101D01*
D12*
G01X-39194Y-15101D02*
G01X-39215Y-15046D01*
D12*
G01X-39215Y-15046D02*
G01X-39237Y-14991D01*
D12*
G01X-39237Y-14991D02*
G01X-39258Y-14936D01*
D12*
G01X-39258Y-14936D02*
G01X-39278Y-14881D01*
D12*
G01X-39278Y-14881D02*
G01X-39299Y-14827D01*
D12*
G01X-39299Y-14827D02*
G01X-39319Y-14774D01*
D12*
G01X-39319Y-14774D02*
G01X-39339Y-14720D01*
D12*
G01X-39339Y-14720D02*
G01X-39359Y-14667D01*
D12*
G01X-39359Y-14667D02*
G01X-39378Y-14615D01*
D12*
G01X-39378Y-14615D02*
G01X-39397Y-14562D01*
D12*
G01X-39397Y-14562D02*
G01X-39416Y-14510D01*
D12*
G01X-39416Y-14510D02*
G01X-39435Y-14459D01*
D12*
G01X-39435Y-14459D02*
G01X-39453Y-14407D01*
D12*
G01X-39453Y-14407D02*
G01X-39471Y-14356D01*
D12*
G01X-39471Y-14356D02*
G01X-39489Y-14305D01*
D12*
G01X-39489Y-14305D02*
G01X-39506Y-14255D01*
D12*
G01X-39506Y-14255D02*
G01X-39523Y-14204D01*
D12*
G01X-39523Y-14204D02*
G01X-39539Y-14154D01*
D12*
G01X-39539Y-14154D02*
G01X-39555Y-14105D01*
D12*
G01X-39555Y-14105D02*
G01X-39571Y-14055D01*
D12*
G01X-39571Y-14055D02*
G01X-39586Y-14006D01*
D12*
G01X-39586Y-14006D02*
G01X-39601Y-13957D01*
D12*
G01X-39601Y-13957D02*
G01X-39616Y-13908D01*
D12*
G01X-39616Y-13908D02*
G01X-39630Y-13859D01*
D12*
G01X-39630Y-13859D02*
G01X-39643Y-13811D01*
D12*
G01X-39643Y-13811D02*
G01X-39656Y-13763D01*
D12*
G01X-39656Y-13763D02*
G01X-39669Y-13715D01*
D12*
G01X-39669Y-13715D02*
G01X-39681Y-13667D01*
D12*
G01X-39681Y-13667D02*
G01X-39692Y-13620D01*
D12*
G01X-39692Y-13620D02*
G01X-39703Y-13572D01*
D12*
G01X-39703Y-13572D02*
G01X-39714Y-13525D01*
D12*
G01X-39714Y-13525D02*
G01X-39724Y-13478D01*
D12*
G01X-39724Y-13478D02*
G01X-39733Y-13431D01*
D12*
G01X-39733Y-13431D02*
G01X-39742Y-13385D01*
D12*
G01X-39742Y-13385D02*
G01X-39750Y-13338D01*
D12*
G01X-39750Y-13338D02*
G01X-39757Y-13292D01*
D12*
G01X-39757Y-13292D02*
G01X-39764Y-13245D01*
D12*
G01X-39764Y-13245D02*
G01X-39771Y-13199D01*
D12*
G01X-39771Y-13199D02*
G01X-39776Y-13153D01*
D12*
G01X-39776Y-13153D02*
G01X-39781Y-13107D01*
D12*
G01X-39781Y-13107D02*
G01X-39786Y-13061D01*
D12*
G01X-39786Y-13061D02*
G01X-39790Y-13016D01*
D12*
G01X-39790Y-13016D02*
G01X-39793Y-12970D01*
D12*
G01X-39793Y-12970D02*
G01X-39795Y-12924D01*
D12*
G01X-39795Y-12924D02*
G01X-39797Y-12879D01*
D12*
G01X-39797Y-12879D02*
G01X-39797Y-12834D01*
D12*
G01X-39797Y-12834D02*
G01X-39798Y-12788D01*
D12*
G01X-39798Y-12788D02*
G01X-39797Y-12743D01*
D12*
G01X-39797Y-12743D02*
G01X-39796Y-12698D01*
D12*
G01X-39796Y-12698D02*
G01X-39794Y-12653D01*
D12*
G01X-39794Y-12653D02*
G01X-39791Y-12608D01*
D12*
G01X-39791Y-12608D02*
G01X-39787Y-12564D01*
D12*
G01X-39787Y-12564D02*
G01X-39793Y-12515D01*
D12*
G01X-39793Y-12515D02*
G01X-39798Y-12464D01*
D12*
G01X-39798Y-12464D02*
G01X-39803Y-12412D01*
D12*
G01X-39803Y-12412D02*
G01X-39806Y-12361D01*
D12*
G01X-39806Y-12361D02*
G01X-39809Y-12309D01*
D12*
G01X-39809Y-12309D02*
G01X-39810Y-12258D01*
D12*
G01X-39810Y-12258D02*
G01X-39811Y-12206D01*
D12*
G01X-39811Y-12206D02*
G01X-39811Y-12154D01*
D12*
G01X-39811Y-12154D02*
G01X-39810Y-12102D01*
D12*
G01X-39810Y-12102D02*
G01X-39808Y-12050D01*
D12*
G01X-39808Y-12050D02*
G01X-39805Y-11998D01*
D12*
G01X-39805Y-11998D02*
G01X-39801Y-11947D01*
D12*
G01X-39801Y-11947D02*
G01X-39796Y-11895D01*
D12*
G01X-39796Y-11895D02*
G01X-39790Y-11843D01*
D12*
G01X-39790Y-11843D02*
G01X-39784Y-11791D01*
D12*
G01X-39784Y-11791D02*
G01X-39776Y-11739D01*
D12*
G01X-39776Y-11739D02*
G01X-39768Y-11688D01*
D12*
G01X-39768Y-11688D02*
G01X-39759Y-11636D01*
D12*
G01X-39759Y-11636D02*
G01X-39749Y-11585D01*
D12*
G01X-39749Y-11585D02*
G01X-39738Y-11534D01*
D12*
G01X-39738Y-11534D02*
G01X-39726Y-11483D01*
D12*
G01X-39726Y-11483D02*
G01X-39713Y-11432D01*
D12*
G01X-39713Y-11432D02*
G01X-39699Y-11381D01*
D12*
G01X-39699Y-11381D02*
G01X-39685Y-11331D01*
D12*
G01X-39685Y-11331D02*
G01X-39669Y-11281D01*
D12*
G01X-39669Y-11281D02*
G01X-39653Y-11231D01*
D12*
G01X-39653Y-11231D02*
G01X-39636Y-11182D01*
D12*
G01X-39636Y-11182D02*
G01X-39618Y-11133D01*
D12*
G01X-39618Y-11133D02*
G01X-39599Y-11085D01*
D12*
G01X-39599Y-11085D02*
G01X-39579Y-11036D01*
D12*
G01X-39579Y-11036D02*
G01X-39558Y-10988D01*
D12*
G01X-39558Y-10988D02*
G01X-39537Y-10941D01*
D12*
G01X-39537Y-10941D02*
G01X-39514Y-10894D01*
D12*
G01X-39514Y-10894D02*
G01X-39491Y-10848D01*
D12*
G01X-39491Y-10848D02*
G01X-39467Y-10802D01*
D12*
G01X-39467Y-10802D02*
G01X-39442Y-10756D01*
D12*
G01X-39442Y-10756D02*
G01X-39416Y-10711D01*
D12*
G01X-39416Y-10711D02*
G01X-39389Y-10667D01*
D12*
G01X-39389Y-10667D02*
G01X-39362Y-10623D01*
D12*
G01X-39362Y-10623D02*
G01X-39333Y-10580D01*
D12*
G01X-39333Y-10580D02*
G01X-39304Y-10538D01*
D12*
G01X-39304Y-10538D02*
G01X-39274Y-10496D01*
D12*
G01X-39274Y-10496D02*
G01X-39243Y-10454D01*
D12*
G01X-39243Y-10454D02*
G01X-39211Y-10414D01*
D12*
G01X-39211Y-10414D02*
G01X-39179Y-10374D01*
D12*
G01X-39179Y-10374D02*
G01X-39145Y-10335D01*
D12*
G01X-39145Y-10335D02*
G01X-39111Y-10297D01*
D12*
G01X-39111Y-10297D02*
G01X-39076Y-10259D01*
D12*
G01X-39076Y-10259D02*
G01X-39039Y-10222D01*
D12*
G01X-39039Y-10222D02*
G01X-38998Y-10194D01*
D12*
G01X-38998Y-10194D02*
G01X-38957Y-10166D01*
D12*
G01X-38957Y-10166D02*
G01X-38917Y-10136D01*
D12*
G01X-38917Y-10136D02*
G01X-38877Y-10106D01*
D12*
G01X-38877Y-10106D02*
G01X-38836Y-10075D01*
D12*
G01X-38836Y-10075D02*
G01X-38796Y-10043D01*
D12*
G01X-38796Y-10043D02*
G01X-38755Y-10010D01*
D12*
G01X-38755Y-10010D02*
G01X-38714Y-09977D01*
D12*
G01X-38714Y-09977D02*
G01X-38673Y-09943D01*
D12*
G01X-38673Y-09943D02*
G01X-38632Y-09909D01*
D12*
G01X-38632Y-09909D02*
G01X-38590Y-09874D01*
D12*
G01X-38590Y-09874D02*
G01X-38549Y-09840D01*
D12*
G01X-38549Y-09840D02*
G01X-38507Y-09805D01*
D12*
G01X-38507Y-09805D02*
G01X-38465Y-09771D01*
D12*
G01X-38465Y-09771D02*
G01X-38422Y-09736D01*
D12*
G01X-38422Y-09736D02*
G01X-38380Y-09702D01*
D12*
G01X-38380Y-09702D02*
G01X-38337Y-09669D01*
D12*
G01X-38337Y-09669D02*
G01X-38294Y-09636D01*
D12*
G01X-38294Y-09636D02*
G01X-38250Y-09603D01*
D12*
G01X-38250Y-09603D02*
G01X-38207Y-09571D01*
D12*
G01X-38207Y-09571D02*
G01X-38162Y-09541D01*
D12*
G01X-38162Y-09541D02*
G01X-38118Y-09511D01*
D12*
G01X-38118Y-09511D02*
G01X-38073Y-09482D01*
D12*
G01X-38073Y-09482D02*
G01X-38028Y-09454D01*
D12*
G01X-38028Y-09454D02*
G01X-37983Y-09428D01*
D12*
G01X-37983Y-09428D02*
G01X-37937Y-09403D01*
D12*
G01X-37937Y-09403D02*
G01X-37890Y-09379D01*
D12*
G01X-37890Y-09379D02*
G01X-37844Y-09357D01*
D12*
G01X-37844Y-09357D02*
G01X-37796Y-09337D01*
D12*
G01X-37796Y-09337D02*
G01X-37749Y-09319D01*
D12*
G01X-37749Y-09319D02*
G01X-37700Y-09302D01*
D12*
G01X-37700Y-09302D02*
G01X-37652Y-09288D01*
D12*
G01X-37652Y-09288D02*
G01X-37603Y-09276D01*
D12*
G01X-37603Y-09276D02*
G01X-37553Y-09266D01*
D12*
G01X-37553Y-09266D02*
G01X-37503Y-09259D01*
D12*
G01X-37503Y-09259D02*
G01X-37452Y-09254D01*
D12*
G01X-37452Y-09254D02*
G01X-37401Y-09252D01*
D12*
G01X-37401Y-09252D02*
G01X-37349Y-09253D01*
D12*
G01X-37349Y-09253D02*
G01X-37296Y-09256D01*
D12*
G01X-37296Y-09256D02*
G01X-37243Y-09263D01*
D12*
G01X-37243Y-09263D02*
G01X-37190Y-09272D01*
D12*
G01X-37190Y-09272D02*
G01X-37140Y-09284D01*
D12*
G01X-37140Y-09284D02*
G01X-37098Y-09263D01*
D12*
G01X-37098Y-09263D02*
G01X-37050Y-09242D01*
D12*
G01X-37050Y-09242D02*
G01X-37002Y-09221D01*
D12*
G01X-37002Y-09221D02*
G01X-36954Y-09202D01*
D12*
G01X-36954Y-09202D02*
G01X-36905Y-09184D01*
D12*
G01X-36905Y-09184D02*
G01X-36856Y-09167D01*
D12*
G01X-36856Y-09167D02*
G01X-36806Y-09152D01*
D12*
G01X-36806Y-09152D02*
G01X-36757Y-09138D01*
D12*
G01X-36757Y-09138D02*
G01X-36707Y-09124D01*
D12*
G01X-36707Y-09124D02*
G01X-36656Y-09112D01*
D12*
G01X-36656Y-09112D02*
G01X-36606Y-09101D01*
D12*
G01X-36606Y-09101D02*
G01X-36555Y-09091D01*
D12*
G01X-36555Y-09091D02*
G01X-36504Y-09082D01*
D12*
G01X-36504Y-09082D02*
G01X-36453Y-09073D01*
D12*
G01X-36453Y-09073D02*
G01X-36402Y-09066D01*
D12*
G01X-36402Y-09066D02*
G01X-36350Y-09060D01*
D12*
G01X-36350Y-09060D02*
G01X-36298Y-09054D01*
D12*
G01X-36298Y-09054D02*
G01X-36246Y-09049D01*
D12*
G01X-36246Y-09049D02*
G01X-36194Y-09046D01*
D12*
G01X-36194Y-09046D02*
G01X-36142Y-09042D01*
D12*
G01X-36142Y-09042D02*
G01X-36090Y-09040D01*
D12*
G01X-36090Y-09040D02*
G01X-36037Y-09038D01*
D12*
G01X-36037Y-09038D02*
G01X-35985Y-09038D01*
D12*
G01X-35985Y-09038D02*
G01X-35932Y-09037D01*
D12*
G01X-35932Y-09037D02*
G01X-35880Y-09038D01*
D12*
G01X-35880Y-09038D02*
G01X-35827Y-09039D01*
D12*
G01X-35827Y-09039D02*
G01X-35774Y-09040D01*
D12*
G01X-35774Y-09040D02*
G01X-35722Y-09042D01*
D12*
G01X-35722Y-09042D02*
G01X-35669Y-09045D01*
D12*
G01X-35669Y-09045D02*
G01X-35616Y-09048D01*
D12*
G01X-35616Y-09048D02*
G01X-35563Y-09052D01*
D12*
G01X-35563Y-09052D02*
G01X-35511Y-09056D01*
D12*
G01X-35511Y-09056D02*
G01X-35458Y-09060D01*
D12*
G01X-35458Y-09060D02*
G01X-35406Y-09065D01*
D12*
G01X-35406Y-09065D02*
G01X-35353Y-09070D01*
D12*
G01X-35353Y-09070D02*
G01X-35301Y-09075D01*
D12*
G01X-35301Y-09075D02*
G01X-35249Y-09081D01*
D12*
G01X-35249Y-09081D02*
G01X-35196Y-09087D01*
D12*
G01X-35196Y-09087D02*
G01X-35144Y-09093D01*
D12*
G01X-35144Y-09093D02*
G01X-35093Y-09100D01*
D12*
G01X-35093Y-09100D02*
G01X-35041Y-09106D01*
D12*
G01X-35041Y-09106D02*
G01X-34989Y-09113D01*
D12*
G01X-34989Y-09113D02*
G01X-34938Y-09120D01*
D12*
G01X-34938Y-09120D02*
G01X-34887Y-09127D01*
D12*
G01X-34887Y-09127D02*
G01X-34836Y-09134D01*
D12*
G01X-34836Y-09134D02*
G01X-34786Y-09141D01*
D12*
G01X-34786Y-09141D02*
G01X-34735Y-09148D01*
D12*
G01X-34735Y-09148D02*
G01X-34685Y-09155D01*
D12*
G01X-34685Y-09155D02*
G01X-34636Y-09162D01*
D12*
G01X-34636Y-09162D02*
G01X-34578Y-09164D01*
D12*
G01X-34578Y-09164D02*
G01X-34521Y-09172D01*
D12*
G01X-34521Y-09172D02*
G01X-34467Y-09185D01*
D12*
G01X-34467Y-09185D02*
G01X-34415Y-09201D01*
D12*
G01X-34415Y-09201D02*
G01X-34365Y-09222D01*
D12*
G01X-34365Y-09222D02*
G01X-34317Y-09244D01*
D12*
G01X-34317Y-09244D02*
G01X-34269Y-09269D01*
D12*
G01X-34269Y-09269D02*
G01X-34223Y-09294D01*
D12*
G01X-34223Y-09294D02*
G01X-34177Y-09319D01*
D12*
G01X-34177Y-09319D02*
G01X-34131Y-09343D01*
D12*
G01X-34131Y-09343D02*
G01X-34086Y-09367D01*
D12*
G01X-34086Y-09367D02*
G01X-34039Y-09387D01*
D12*
G01X-34039Y-09387D02*
G01X-33992Y-09405D01*
D12*
G01X-33992Y-09405D02*
G01X-33944Y-09420D01*
D12*
G01X-33944Y-09420D02*
G01X-33895Y-09430D01*
D12*
G01X-33895Y-09430D02*
G01X-33843Y-09434D01*
D12*
G01X-33843Y-09434D02*
G01X-33790Y-09433D01*
D12*
G01X-33790Y-09433D02*
G01X-33730Y-09425D01*
D12*
G01X-33730Y-09425D02*
G01X-33677Y-09440D01*
D12*
G01X-33677Y-09440D02*
G01X-33628Y-09456D01*
D12*
G01X-33628Y-09456D02*
G01X-33578Y-09474D01*
D12*
G01X-33578Y-09474D02*
G01X-33529Y-09493D01*
D12*
G01X-33529Y-09493D02*
G01X-33481Y-09513D01*
D12*
G01X-33481Y-09513D02*
G01X-33432Y-09533D01*
D12*
G01X-33432Y-09533D02*
G01X-33384Y-09554D01*
D12*
G01X-33384Y-09554D02*
G01X-33336Y-09574D01*
D12*
G01X-33336Y-09574D02*
G01X-33288Y-09594D01*
D12*
G01X-33288Y-09594D02*
G01X-33240Y-09613D01*
D12*
G01X-33240Y-09613D02*
G01X-33193Y-09631D01*
D12*
G01X-33193Y-09631D02*
G01X-33145Y-09648D01*
D12*
G01X-33145Y-09648D02*
G01X-33097Y-09663D01*
D12*
G01X-33097Y-09663D02*
G01X-33050Y-09677D01*
D12*
G01X-33050Y-09677D02*
G01X-33002Y-09688D01*
D12*
G01X-33002Y-09688D02*
G01X-32954Y-09696D01*
D12*
G01X-32954Y-09696D02*
G01X-32906Y-09702D01*
D12*
G01X-32906Y-09702D02*
G01X-32857Y-09704D01*
D12*
G01X-32857Y-09704D02*
G01X-32809Y-09703D01*
D12*
G01X-32809Y-09703D02*
G01X-32760Y-09698D01*
D12*
G01X-32760Y-09698D02*
G01X-32710Y-09689D01*
D12*
G01X-32710Y-09689D02*
G01X-32658Y-09676D01*
D12*
G01X-32658Y-09676D02*
G01X-32592Y-09677D01*
D12*
G01X-32592Y-09677D02*
G01X-32529Y-09678D01*
D12*
G01X-32529Y-09678D02*
G01X-32467Y-09679D01*
D12*
G01X-32467Y-09679D02*
G01X-32405Y-09679D01*
D12*
G01X-32405Y-09679D02*
G01X-32345Y-09679D01*
D12*
G01X-32345Y-09679D02*
G01X-32285Y-09679D01*
D12*
G01X-32285Y-09679D02*
G01X-32225Y-09678D01*
D12*
G01X-32225Y-09678D02*
G01X-32166Y-09677D01*
D12*
G01X-32166Y-09677D02*
G01X-32108Y-09676D01*
D12*
G01X-32108Y-09676D02*
G01X-32051Y-09674D01*
D12*
G01X-32051Y-09674D02*
G01X-31994Y-09672D01*
D12*
G01X-31994Y-09672D02*
G01X-31937Y-09670D01*
D12*
G01X-31937Y-09670D02*
G01X-31882Y-09668D01*
D12*
G01X-31882Y-09668D02*
G01X-31827Y-09666D01*
D12*
G01X-31827Y-09666D02*
G01X-31772Y-09663D01*
D12*
G01X-31772Y-09663D02*
G01X-31718Y-09660D01*
D12*
G01X-31718Y-09660D02*
G01X-31664Y-09657D01*
D12*
G01X-31664Y-09657D02*
G01X-31611Y-09654D01*
D12*
G01X-31611Y-09654D02*
G01X-31558Y-09650D01*
D12*
G01X-31558Y-09650D02*
G01X-31505Y-09647D01*
D12*
G01X-31505Y-09647D02*
G01X-31453Y-09644D01*
D12*
G01X-31453Y-09644D02*
G01X-31402Y-09640D01*
M02*
