G04 ( created by brdgerber.py ( brdgerber.py v0.1 2014-03-12 ) ) date 2020-12-15 20:12:20 EST*
G04 Gerber Fmt 3.4, Leading zero omitted, Abs format*
%MOIN*%
%FSLAX34Y34*%
G01*
G70*
G90*
G04 APERTURE LIST*
%ADD17R,0.2000X0.2000*%
%ADD27C,0.0200*%
%ADD14C,0.0047*%
%ADD26C,0.0471*%
%ADD12C,0.0050*%
%ADD13R,0.0394X0.0315*%
%ADD10R,0.0236X0.0551*%
%ADD18R,0.3000X0.3000*%
%ADD21C,0.0354*%
%ADD20R,0.0800X0.0600*%
%ADD15C,0.0039*%
%ADD19R,0.0600X0.0800*%
%ADD23R,0.0275X0.0590*%
%ADD16C,0.0031*%
%ADD24C,0.0000*%
%ADD25C,0.0059*%
%ADD22R,0.0393X0.0314*%
%ADD11C,0.0060*%
G04 APERTURE END LIST*
G54D17*
D12*
G01X-38500Y-13050D02*
G01X-38500Y-13100D01*
D12*
G01X-38500Y-13100D02*
G01X-36400Y-13100D01*
D12*
G01X-36400Y-11600D02*
G01X-38500Y-11600D01*
D12*
G01X-38500Y-11600D02*
G01X-38500Y-13050D01*
D12*
G01X-38500Y-12150D02*
G01X-38300Y-12150D01*
D12*
G01X-38300Y-12150D02*
G01X-38300Y-12550D01*
D12*
G01X-38300Y-12550D02*
G01X-38500Y-12550D01*
D12*
G01X-36400Y-11600D02*
G01X-36400Y-13100D01*
D11*
G01X-38521Y-12182D02*
G01X-38521Y-11946D01*
G01X-38543Y-11904D01*
G01X-38586Y-11882D01*
G01X-38671Y-11882D01*
G01X-38714Y-11904D01*
D11*
G01X-38521Y-12161D02*
G01X-38564Y-12182D01*
G01X-38671Y-12182D01*
G01X-38714Y-12161D01*
G01X-38736Y-12118D01*
G01X-38736Y-12075D01*
G01X-38714Y-12032D01*
G01X-38671Y-12011D01*
G01X-38564Y-12011D01*
G01X-38521Y-11989D01*
D11*
G01X-38371Y-11882D02*
G01X-38200Y-11882D01*
D11*
G01X-38307Y-11732D02*
G01X-38307Y-12118D01*
G01X-38286Y-12161D01*
G01X-38243Y-12182D01*
G01X-38200Y-12182D01*
D11*
G01X-38114Y-11882D02*
G01X-37943Y-11882D01*
D11*
G01X-38050Y-11732D02*
G01X-38050Y-12118D01*
G01X-38029Y-12161D01*
G01X-37986Y-12182D01*
G01X-37943Y-12182D01*
D11*
G01X-37793Y-12182D02*
G01X-37793Y-11882D01*
D11*
G01X-37793Y-11732D02*
G01X-37814Y-11754D01*
G01X-37793Y-11775D01*
G01X-37771Y-11754D01*
G01X-37793Y-11732D01*
G01X-37793Y-11775D01*
D11*
G01X-37579Y-11882D02*
G01X-37579Y-12182D01*
D11*
G01X-37579Y-11925D02*
G01X-37557Y-11904D01*
G01X-37514Y-11882D01*
G01X-37450Y-11882D01*
G01X-37407Y-11904D01*
G01X-37386Y-11946D01*
G01X-37386Y-12182D01*
D11*
G01X-37214Y-11882D02*
G01X-37107Y-12182D01*
D11*
G01X-37000Y-11882D02*
G01X-37107Y-12182D01*
G01X-37150Y-12289D01*
G01X-37171Y-12311D01*
G01X-37214Y-12332D01*
D11*
G01X-36593Y-12182D02*
G01X-36850Y-12182D01*
D11*
G01X-36721Y-12182D02*
G01X-36721Y-11732D01*
G01X-36764Y-11796D01*
G01X-36807Y-11839D01*
G01X-36850Y-11861D01*
D11*
G01X-36443Y-11732D02*
G01X-36164Y-11732D01*
G01X-36314Y-11904D01*
G01X-36250Y-11904D01*
G01X-36207Y-11925D01*
G01X-36186Y-11946D01*
G01X-36164Y-11989D01*
G01X-36164Y-12096D01*
G01X-36186Y-12139D01*
G01X-36207Y-12161D01*
G01X-36250Y-12182D01*
G01X-36379Y-12182D01*
G01X-36421Y-12161D01*
G01X-36443Y-12139D01*
D11*
G01X-38125Y-12542D02*
G01X-38008Y-12892D01*
G01X-37892Y-12542D01*
D11*
G01X-37792Y-12792D02*
G01X-37625Y-12792D01*
D11*
G01X-37825Y-12892D02*
G01X-37708Y-12542D01*
G01X-37592Y-12892D01*
D11*
G01X-37308Y-12892D02*
G01X-37475Y-12892D01*
G01X-37475Y-12542D01*
D11*
G01X-37142Y-12542D02*
G01X-37142Y-12625D01*
D11*
G01X-37225Y-12592D02*
G01X-37142Y-12625D01*
G01X-37058Y-12592D01*
D11*
G01X-37192Y-12692D02*
G01X-37142Y-12625D01*
G01X-37092Y-12692D01*
D11*
G01X-36875Y-12542D02*
G01X-36875Y-12625D01*
D11*
G01X-36958Y-12592D02*
G01X-36875Y-12625D01*
G01X-36792Y-12592D01*
D11*
G01X-36925Y-12692D02*
G01X-36875Y-12625D01*
G01X-36825Y-12692D01*
D16*
G01X-34125Y-10937D02*
G01X-34125Y-10937D01*
G01X-34125Y-10935D01*
G01X-34125Y-10934D01*
G01X-34126Y-10932D01*
G01X-34126Y-10931D01*
G01X-34126Y-10929D01*
G01X-34126Y-10928D01*
G01X-34126Y-10926D01*
G01X-34127Y-10925D01*
G01X-34127Y-10923D01*
G01X-34127Y-10922D01*
G01X-34128Y-10920D01*
G01X-34128Y-10919D01*
G01X-34129Y-10917D01*
G01X-34129Y-10916D01*
G01X-34130Y-10914D01*
G01X-34130Y-10913D01*
G01X-34131Y-10912D01*
G01X-34131Y-10910D01*
G01X-34132Y-10909D01*
G01X-34133Y-10907D01*
G01X-34134Y-10906D01*
G01X-34134Y-10905D01*
G01X-34135Y-10903D01*
G01X-34136Y-10902D01*
G01X-34137Y-10901D01*
G01X-34138Y-10900D01*
G01X-34139Y-10898D01*
G01X-34140Y-10897D01*
G01X-34141Y-10896D01*
G01X-34142Y-10895D01*
G01X-34143Y-10894D01*
G01X-34144Y-10893D01*
G01X-34145Y-10892D01*
G01X-34146Y-10891D01*
G01X-34147Y-10890D01*
G01X-34148Y-10889D01*
G01X-34149Y-10888D01*
G01X-34151Y-10887D01*
G01X-34152Y-10886D01*
G01X-34153Y-10885D01*
G01X-34154Y-10884D01*
G01X-34156Y-10883D01*
G01X-34157Y-10883D01*
G01X-34158Y-10882D01*
G01X-34160Y-10881D01*
G01X-34161Y-10880D01*
G01X-34163Y-10880D01*
G01X-34164Y-10879D01*
G01X-34165Y-10879D01*
G01X-34167Y-10878D01*
G01X-34168Y-10878D01*
G01X-34170Y-10877D01*
G01X-34171Y-10877D01*
G01X-34173Y-10876D01*
G01X-34174Y-10876D01*
G01X-34176Y-10876D01*
G01X-34177Y-10875D01*
G01X-34179Y-10875D01*
G01X-34180Y-10875D01*
G01X-34182Y-10875D01*
G01X-34183Y-10875D01*
G01X-34185Y-10874D01*
G01X-34186Y-10874D01*
G01X-34188Y-10874D01*
G01X-34190Y-10874D01*
G01X-34191Y-10874D01*
G01X-34193Y-10875D01*
G01X-34194Y-10875D01*
G01X-34196Y-10875D01*
G01X-34197Y-10875D01*
G01X-34199Y-10875D01*
G01X-34200Y-10876D01*
G01X-34202Y-10876D01*
G01X-34203Y-10876D01*
G01X-34205Y-10877D01*
G01X-34206Y-10877D01*
G01X-34208Y-10878D01*
G01X-34209Y-10878D01*
G01X-34211Y-10879D01*
G01X-34212Y-10879D01*
G01X-34213Y-10880D01*
G01X-34215Y-10880D01*
G01X-34216Y-10881D01*
G01X-34218Y-10882D01*
G01X-34219Y-10883D01*
G01X-34220Y-10883D01*
G01X-34222Y-10884D01*
G01X-34223Y-10885D01*
G01X-34224Y-10886D01*
G01X-34225Y-10887D01*
G01X-34227Y-10888D01*
G01X-34228Y-10889D01*
G01X-34229Y-10890D01*
G01X-34230Y-10891D01*
G01X-34231Y-10892D01*
G01X-34232Y-10893D01*
G01X-34233Y-10894D01*
G01X-34234Y-10895D01*
G01X-34235Y-10896D01*
G01X-34236Y-10897D01*
G01X-34237Y-10898D01*
G01X-34238Y-10900D01*
G01X-34239Y-10901D01*
G01X-34240Y-10902D01*
G01X-34241Y-10903D01*
G01X-34242Y-10905D01*
G01X-34242Y-10906D01*
G01X-34243Y-10907D01*
G01X-34244Y-10909D01*
G01X-34245Y-10910D01*
G01X-34245Y-10912D01*
G01X-34246Y-10913D01*
G01X-34246Y-10914D01*
G01X-34247Y-10916D01*
G01X-34247Y-10917D01*
G01X-34248Y-10919D01*
G01X-34248Y-10920D01*
G01X-34249Y-10922D01*
G01X-34249Y-10923D01*
G01X-34249Y-10925D01*
G01X-34250Y-10926D01*
G01X-34250Y-10928D01*
G01X-34250Y-10929D01*
G01X-34250Y-10931D01*
G01X-34250Y-10932D01*
G01X-34251Y-10934D01*
G01X-34251Y-10935D01*
G01X-34251Y-10937D01*
G01X-34251Y-10939D01*
G01X-34251Y-10940D01*
G01X-34250Y-10942D01*
G01X-34250Y-10943D01*
G01X-34250Y-10945D01*
G01X-34250Y-10946D01*
G01X-34250Y-10948D01*
G01X-34249Y-10949D01*
G01X-34249Y-10951D01*
G01X-34249Y-10952D01*
G01X-34248Y-10954D01*
G01X-34248Y-10955D01*
G01X-34247Y-10957D01*
G01X-34247Y-10958D01*
G01X-34246Y-10960D01*
G01X-34246Y-10961D01*
G01X-34245Y-10962D01*
G01X-34245Y-10964D01*
G01X-34244Y-10965D01*
G01X-34243Y-10967D01*
G01X-34242Y-10968D01*
G01X-34242Y-10969D01*
G01X-34241Y-10971D01*
G01X-34240Y-10972D01*
G01X-34239Y-10973D01*
G01X-34238Y-10974D01*
G01X-34237Y-10976D01*
G01X-34236Y-10977D01*
G01X-34235Y-10978D01*
G01X-34234Y-10979D01*
G01X-34233Y-10980D01*
G01X-34232Y-10981D01*
G01X-34231Y-10982D01*
G01X-34230Y-10983D01*
G01X-34229Y-10984D01*
G01X-34228Y-10985D01*
G01X-34227Y-10986D01*
G01X-34225Y-10987D01*
G01X-34224Y-10988D01*
G01X-34223Y-10989D01*
G01X-34222Y-10990D01*
G01X-34220Y-10991D01*
G01X-34219Y-10991D01*
G01X-34218Y-10992D01*
G01X-34216Y-10993D01*
G01X-34215Y-10994D01*
G01X-34213Y-10994D01*
G01X-34212Y-10995D01*
G01X-34211Y-10995D01*
G01X-34209Y-10996D01*
G01X-34208Y-10996D01*
G01X-34206Y-10997D01*
G01X-34205Y-10997D01*
G01X-34203Y-10998D01*
G01X-34202Y-10998D01*
G01X-34200Y-10998D01*
G01X-34199Y-10999D01*
G01X-34197Y-10999D01*
G01X-34196Y-10999D01*
G01X-34194Y-10999D01*
G01X-34193Y-10999D01*
G01X-34191Y-11000D01*
G01X-34190Y-11000D01*
G01X-34188Y-11000D01*
G01X-34186Y-11000D01*
G01X-34185Y-11000D01*
G01X-34183Y-10999D01*
G01X-34182Y-10999D01*
G01X-34180Y-10999D01*
G01X-34179Y-10999D01*
G01X-34177Y-10999D01*
G01X-34176Y-10998D01*
G01X-34174Y-10998D01*
G01X-34173Y-10998D01*
G01X-34171Y-10997D01*
G01X-34170Y-10997D01*
G01X-34168Y-10996D01*
G01X-34167Y-10996D01*
G01X-34165Y-10995D01*
G01X-34164Y-10995D01*
G01X-34163Y-10994D01*
G01X-34161Y-10994D01*
G01X-34160Y-10993D01*
G01X-34158Y-10992D01*
G01X-34157Y-10991D01*
G01X-34156Y-10991D01*
G01X-34154Y-10990D01*
G01X-34153Y-10989D01*
G01X-34152Y-10988D01*
G01X-34151Y-10987D01*
G01X-34149Y-10986D01*
G01X-34148Y-10985D01*
G01X-34147Y-10984D01*
G01X-34146Y-10983D01*
G01X-34145Y-10982D01*
G01X-34144Y-10981D01*
G01X-34143Y-10980D01*
G01X-34142Y-10979D01*
G01X-34141Y-10978D01*
G01X-34140Y-10977D01*
G01X-34139Y-10976D01*
G01X-34138Y-10974D01*
G01X-34137Y-10973D01*
G01X-34136Y-10972D01*
G01X-34135Y-10971D01*
G01X-34134Y-10969D01*
G01X-34134Y-10968D01*
G01X-34133Y-10967D01*
G01X-34132Y-10965D01*
G01X-34131Y-10964D01*
G01X-34131Y-10962D01*
G01X-34130Y-10961D01*
G01X-34130Y-10960D01*
G01X-34129Y-10958D01*
G01X-34129Y-10957D01*
G01X-34128Y-10955D01*
G01X-34128Y-10954D01*
G01X-34127Y-10952D01*
G01X-34127Y-10951D01*
G01X-34127Y-10949D01*
G01X-34126Y-10948D01*
G01X-34126Y-10946D01*
G01X-34126Y-10945D01*
G01X-34126Y-10943D01*
G01X-34126Y-10942D01*
G01X-34125Y-10940D01*
G01X-34125Y-10939D01*
G01X-34125Y-10937D01*
D16*
G01X-33850Y-11900D02*
G01X-34250Y-11900D01*
D16*
G01X-33850Y-10875D02*
G01X-34250Y-10875D01*
D16*
G01X-34250Y-11900D02*
G01X-34250Y-10875D01*
D16*
G01X-33850Y-10875D02*
G01X-33850Y-11900D01*
D14*
G01X-34654Y-12294D02*
G01X-34611Y-12308D01*
G01X-34540Y-12308D01*
G01X-34511Y-12294D01*
G01X-34497Y-12280D01*
G01X-34482Y-12251D01*
G01X-34482Y-12223D01*
G01X-34497Y-12194D01*
G01X-34511Y-12180D01*
G01X-34540Y-12166D01*
G01X-34597Y-12151D01*
G01X-34625Y-12137D01*
G01X-34640Y-12123D01*
G01X-34654Y-12094D01*
G01X-34654Y-12066D01*
G01X-34640Y-12037D01*
G01X-34625Y-12023D01*
G01X-34597Y-12008D01*
G01X-34525Y-12008D01*
G01X-34482Y-12023D01*
D14*
G01X-34297Y-12008D02*
G01X-34240Y-12008D01*
G01X-34211Y-12023D01*
G01X-34182Y-12051D01*
G01X-34168Y-12108D01*
G01X-34168Y-12208D01*
G01X-34182Y-12266D01*
G01X-34211Y-12294D01*
G01X-34240Y-12308D01*
G01X-34297Y-12308D01*
G01X-34325Y-12294D01*
G01X-34354Y-12266D01*
G01X-34368Y-12208D01*
G01X-34368Y-12108D01*
G01X-34354Y-12051D01*
G01X-34325Y-12023D01*
G01X-34297Y-12008D01*
D14*
G01X-34082Y-12008D02*
G01X-33911Y-12008D01*
D14*
G01X-33997Y-12308D02*
G01X-33997Y-12008D01*
D14*
G01X-33825Y-12037D02*
G01X-33811Y-12023D01*
G01X-33782Y-12008D01*
G01X-33711Y-12008D01*
G01X-33682Y-12023D01*
G01X-33668Y-12037D01*
G01X-33654Y-12066D01*
G01X-33654Y-12094D01*
G01X-33668Y-12137D01*
G01X-33840Y-12308D01*
G01X-33654Y-12308D01*
D14*
G01X-33554Y-12008D02*
G01X-33368Y-12008D01*
G01X-33468Y-12123D01*
G01X-33425Y-12123D01*
G01X-33397Y-12137D01*
G01X-33382Y-12151D01*
G01X-33368Y-12180D01*
G01X-33368Y-12251D01*
G01X-33382Y-12280D01*
G01X-33397Y-12294D01*
G01X-33425Y-12308D01*
G01X-33511Y-12308D01*
G01X-33540Y-12294D01*
G01X-33554Y-12280D01*
D15*
G01X-34167Y-11655D02*
G01X-33970Y-11589D01*
G01X-34167Y-11523D01*
D15*
G01X-34027Y-11467D02*
G01X-34027Y-11373D01*
D15*
G01X-33970Y-11486D02*
G01X-34167Y-11420D01*
G01X-33970Y-11355D01*
D15*
G01X-33970Y-11195D02*
G01X-33970Y-11289D01*
G01X-34167Y-11289D01*
D12*
G01X-30350Y-11250D02*
G01X-30350Y-10350D01*
D12*
G01X-30350Y-10350D02*
G01X-31000Y-10350D01*
D12*
G01X-31700Y-11250D02*
G01X-32350Y-11250D01*
D12*
G01X-32350Y-11250D02*
G01X-32350Y-10350D01*
D12*
G01X-32350Y-10350D02*
G01X-31700Y-10350D01*
D12*
G01X-31000Y-11250D02*
G01X-30350Y-11250D01*
D12*
G01X-31821Y-10893D02*
G01X-31807Y-10907D01*
G01X-31821Y-10921D01*
G01X-31836Y-10907D01*
G01X-31821Y-10893D01*
G01X-31821Y-10921D01*
D12*
G01X-31521Y-10921D02*
G01X-31693Y-10921D01*
D12*
G01X-31607Y-10921D02*
G01X-31607Y-10621D01*
G01X-31636Y-10664D01*
G01X-31664Y-10693D01*
G01X-31693Y-10707D01*
D12*
G01X-31393Y-10921D02*
G01X-31393Y-10721D01*
D12*
G01X-31393Y-10750D02*
G01X-31379Y-10736D01*
G01X-31350Y-10721D01*
G01X-31307Y-10721D01*
G01X-31279Y-10736D01*
G01X-31264Y-10764D01*
G01X-31264Y-10921D01*
D12*
G01X-31264Y-10764D02*
G01X-31250Y-10736D01*
G01X-31221Y-10721D01*
G01X-31179Y-10721D01*
G01X-31150Y-10736D01*
G01X-31136Y-10764D01*
G01X-31136Y-10921D01*
D12*
G01X-30893Y-10764D02*
G01X-30993Y-10764D01*
D12*
G01X-30993Y-10921D02*
G01X-30993Y-10621D01*
G01X-30850Y-10621D01*
D12*
G01X-29500Y-20000D02*
G01X-30400Y-20000D01*
D12*
G01X-30400Y-20000D02*
G01X-30400Y-20650D01*
D12*
G01X-29500Y-21350D02*
G01X-29500Y-22000D01*
D12*
G01X-29500Y-22000D02*
G01X-30400Y-22000D01*
D12*
G01X-30400Y-22000D02*
G01X-30400Y-21350D01*
D12*
G01X-29500Y-20650D02*
G01X-29500Y-20000D01*
D12*
G01X-29829Y-21621D02*
G01X-29829Y-21793D01*
D12*
G01X-29829Y-21707D02*
G01X-30129Y-21707D01*
G01X-30086Y-21736D01*
G01X-30057Y-21764D01*
G01X-30043Y-21793D01*
D12*
G01X-30029Y-21493D02*
G01X-29829Y-21493D01*
D12*
G01X-30000Y-21493D02*
G01X-30014Y-21479D01*
G01X-30029Y-21450D01*
G01X-30029Y-21407D01*
G01X-30014Y-21379D01*
G01X-29986Y-21364D01*
G01X-29829Y-21364D01*
D12*
G01X-30029Y-21093D02*
G01X-29829Y-21093D01*
D12*
G01X-30143Y-21164D02*
G01X-29929Y-21236D01*
G01X-29929Y-21050D01*
D12*
G01X-29829Y-20779D02*
G01X-29829Y-20950D01*
D12*
G01X-29829Y-20864D02*
G01X-30129Y-20864D01*
G01X-30086Y-20893D01*
G01X-30057Y-20921D01*
G01X-30043Y-20950D01*
D12*
G01X-30029Y-20521D02*
G01X-29829Y-20521D01*
D12*
G01X-30143Y-20593D02*
G01X-29929Y-20664D01*
G01X-29929Y-20479D01*
D12*
G01X-30000Y-20321D02*
G01X-30014Y-20350D01*
G01X-30029Y-20364D01*
G01X-30057Y-20379D01*
G01X-30071Y-20379D01*
G01X-30100Y-20364D01*
G01X-30114Y-20350D01*
G01X-30129Y-20321D01*
G01X-30129Y-20264D01*
G01X-30114Y-20236D01*
G01X-30100Y-20221D01*
G01X-30071Y-20207D01*
G01X-30057Y-20207D01*
G01X-30029Y-20221D01*
G01X-30014Y-20236D01*
G01X-30000Y-20264D01*
G01X-30000Y-20321D01*
G01X-29986Y-20350D01*
G01X-29971Y-20364D01*
G01X-29943Y-20379D01*
G01X-29886Y-20379D01*
G01X-29857Y-20364D01*
G01X-29843Y-20350D01*
G01X-29829Y-20321D01*
G01X-29829Y-20264D01*
G01X-29843Y-20236D01*
G01X-29857Y-20221D01*
G01X-29886Y-20207D01*
G01X-29943Y-20207D01*
G01X-29971Y-20221D01*
G01X-29986Y-20236D01*
G01X-30000Y-20264D01*
D11*
G01X-32181Y-23810D02*
G01X-29819Y-23810D01*
D11*
G01X-29819Y-23810D02*
G01X-29819Y-24990D01*
D11*
G01X-29819Y-24990D02*
G01X-30410Y-24990D01*
D11*
G01X-30410Y-24990D02*
G01X-31000Y-24990D01*
D11*
G01X-31000Y-24990D02*
G01X-32181Y-24990D01*
D11*
G01X-32181Y-24990D02*
G01X-32181Y-23810D01*
D11*
G01X-30410Y-24990D02*
G01X-30410Y-25384D01*
D11*
G01X-31000Y-24990D02*
G01X-31000Y-25384D01*
D11*
G01X-31000Y-25384D02*
G01X-30410Y-25384D01*
D11*
G01X-31000Y-25384D02*
G01X-31000Y-24990D01*
D11*
G01X-31000Y-24990D02*
G01X-30410Y-24990D01*
D11*
G01X-30410Y-24990D02*
G01X-30410Y-25384D01*
D11*
G01X-30410Y-25384D02*
G01X-31000Y-25384D01*
D25*
G01X-24645Y-15525D02*
G01X-24644Y-15525D01*
G01X-24643Y-15524D01*
G01X-24642Y-15524D01*
G01X-24641Y-15523D01*
G01X-24640Y-15523D01*
G01X-24639Y-15523D01*
G01X-24638Y-15522D01*
G01X-24637Y-15522D01*
G01X-24636Y-15521D01*
G01X-24635Y-15521D01*
G01X-24634Y-15520D01*
G01X-24634Y-15520D01*
G01X-24633Y-15520D01*
G01X-24632Y-15519D01*
G01X-24631Y-15519D01*
G01X-24630Y-15518D01*
G01X-24629Y-15518D01*
G01X-24628Y-15517D01*
G01X-24627Y-15517D01*
G01X-24626Y-15517D01*
G01X-24625Y-15516D01*
G01X-24624Y-15516D01*
G01X-24623Y-15515D01*
G01X-24622Y-15515D01*
G01X-24621Y-15514D01*
G01X-24620Y-15514D01*
G01X-24619Y-15513D01*
G01X-24619Y-15513D01*
G01X-24618Y-15512D01*
G01X-24617Y-15512D01*
G01X-24616Y-15512D01*
G01X-24615Y-15511D01*
G01X-24614Y-15511D01*
G01X-24613Y-15510D01*
G01X-24612Y-15510D01*
G01X-24611Y-15509D01*
G01X-24610Y-15509D01*
G01X-24609Y-15508D01*
G01X-24608Y-15508D01*
G01X-24607Y-15507D01*
G01X-24607Y-15507D01*
G01X-24606Y-15506D01*
G01X-24605Y-15506D01*
G01X-24604Y-15505D01*
G01X-24603Y-15505D01*
G01X-24602Y-15504D01*
G01X-24601Y-15504D01*
G01X-24600Y-15503D01*
G01X-24599Y-15503D01*
G01X-24598Y-15502D01*
G01X-24597Y-15502D01*
G01X-24597Y-15501D01*
G01X-24596Y-15501D01*
G01X-24595Y-15500D01*
G01X-24594Y-15499D01*
G01X-24593Y-15499D01*
G01X-24592Y-15498D01*
G01X-24591Y-15498D01*
G01X-24590Y-15497D01*
G01X-24589Y-15497D01*
G01X-24588Y-15496D01*
G01X-24588Y-15496D01*
G01X-24587Y-15495D01*
G01X-24586Y-15495D01*
D25*
G01X-24585Y-15494D02*
G01X-24437Y-15615D01*
D25*
G01X-24437Y-15615D02*
G01X-24335Y-15513D01*
D25*
G01X-24335Y-15513D02*
G01X-24456Y-15365D01*
D25*
G01X-24456Y-15365D02*
G01X-24455Y-15363D01*
G01X-24454Y-15361D01*
G01X-24453Y-15360D01*
G01X-24452Y-15358D01*
G01X-24451Y-15356D01*
G01X-24449Y-15354D01*
G01X-24448Y-15352D01*
G01X-24447Y-15351D01*
G01X-24446Y-15349D01*
G01X-24445Y-15347D01*
G01X-24444Y-15345D01*
G01X-24443Y-15343D01*
G01X-24442Y-15341D01*
G01X-24441Y-15340D01*
G01X-24440Y-15338D01*
G01X-24439Y-15336D01*
G01X-24438Y-15334D01*
G01X-24437Y-15332D01*
G01X-24437Y-15330D01*
G01X-24436Y-15328D01*
G01X-24435Y-15326D01*
G01X-24434Y-15324D01*
G01X-24433Y-15323D01*
G01X-24432Y-15321D01*
G01X-24431Y-15319D01*
G01X-24430Y-15317D01*
G01X-24429Y-15315D01*
G01X-24429Y-15313D01*
G01X-24428Y-15311D01*
G01X-24427Y-15309D01*
G01X-24426Y-15307D01*
G01X-24425Y-15305D01*
G01X-24424Y-15303D01*
G01X-24424Y-15301D01*
G01X-24423Y-15299D01*
G01X-24422Y-15297D01*
G01X-24421Y-15296D01*
G01X-24421Y-15294D01*
G01X-24420Y-15292D01*
G01X-24419Y-15290D01*
G01X-24418Y-15288D01*
G01X-24418Y-15286D01*
G01X-24417Y-15284D01*
G01X-24416Y-15282D01*
G01X-24416Y-15280D01*
G01X-24415Y-15278D01*
G01X-24414Y-15276D01*
G01X-24414Y-15274D01*
G01X-24413Y-15272D01*
G01X-24412Y-15270D01*
G01X-24412Y-15268D01*
G01X-24411Y-15266D01*
G01X-24411Y-15264D01*
G01X-24410Y-15262D01*
G01X-24409Y-15260D01*
G01X-24409Y-15258D01*
G01X-24408Y-15256D01*
G01X-24408Y-15254D01*
G01X-24407Y-15251D01*
G01X-24407Y-15249D01*
G01X-24406Y-15247D01*
G01X-24406Y-15245D01*
G01X-24405Y-15243D01*
G01X-24405Y-15241D01*
D25*
G01X-24405Y-15241D02*
G01X-24214Y-15221D01*
D25*
G01X-24214Y-15221D02*
G01X-24214Y-15079D01*
D25*
G01X-24214Y-15079D02*
G01X-24405Y-15059D01*
D25*
G01X-24405Y-15059D02*
G01X-24405Y-15057D01*
G01X-24406Y-15055D01*
G01X-24406Y-15053D01*
G01X-24407Y-15051D01*
G01X-24407Y-15049D01*
G01X-24408Y-15047D01*
G01X-24409Y-15045D01*
G01X-24409Y-15043D01*
G01X-24410Y-15041D01*
G01X-24410Y-15039D01*
G01X-24411Y-15037D01*
G01X-24411Y-15035D01*
G01X-24412Y-15033D01*
G01X-24413Y-15031D01*
G01X-24413Y-15029D01*
G01X-24414Y-15027D01*
G01X-24415Y-15025D01*
G01X-24415Y-15023D01*
G01X-24416Y-15021D01*
G01X-24417Y-15019D01*
G01X-24417Y-15017D01*
G01X-24418Y-15015D01*
G01X-24419Y-15013D01*
G01X-24419Y-15011D01*
G01X-24420Y-15009D01*
G01X-24421Y-15007D01*
G01X-24422Y-15005D01*
G01X-24422Y-15003D01*
G01X-24423Y-15001D01*
G01X-24424Y-14999D01*
G01X-24425Y-14997D01*
G01X-24425Y-14995D01*
G01X-24426Y-14993D01*
G01X-24427Y-14991D01*
G01X-24428Y-14989D01*
G01X-24429Y-14987D01*
G01X-24430Y-14985D01*
G01X-24430Y-14983D01*
G01X-24431Y-14982D01*
G01X-24432Y-14980D01*
G01X-24433Y-14978D01*
G01X-24434Y-14976D01*
G01X-24435Y-14974D01*
G01X-24436Y-14972D01*
G01X-24437Y-14970D01*
G01X-24438Y-14968D01*
G01X-24439Y-14966D01*
G01X-24440Y-14965D01*
G01X-24441Y-14963D01*
G01X-24441Y-14961D01*
G01X-24442Y-14959D01*
G01X-24443Y-14957D01*
G01X-24444Y-14955D01*
G01X-24445Y-14953D01*
G01X-24447Y-14952D01*
G01X-24448Y-14950D01*
G01X-24449Y-14948D01*
G01X-24450Y-14946D01*
G01X-24451Y-14944D01*
G01X-24452Y-14943D01*
G01X-24453Y-14941D01*
G01X-24454Y-14939D01*
G01X-24455Y-14937D01*
G01X-24456Y-14935D01*
D25*
G01X-24456Y-14935D02*
G01X-24335Y-14787D01*
D25*
G01X-24335Y-14787D02*
G01X-24437Y-14685D01*
D25*
G01X-24437Y-14685D02*
G01X-24585Y-14806D01*
D25*
G01X-24585Y-14806D02*
G01X-24587Y-14805D01*
G01X-24589Y-14804D01*
G01X-24590Y-14803D01*
G01X-24592Y-14802D01*
G01X-24594Y-14801D01*
G01X-24596Y-14799D01*
G01X-24598Y-14798D01*
G01X-24599Y-14797D01*
G01X-24601Y-14796D01*
G01X-24603Y-14795D01*
G01X-24605Y-14794D01*
G01X-24607Y-14793D01*
G01X-24609Y-14792D01*
G01X-24610Y-14791D01*
G01X-24612Y-14790D01*
G01X-24614Y-14789D01*
G01X-24616Y-14788D01*
G01X-24618Y-14787D01*
G01X-24620Y-14787D01*
G01X-24622Y-14786D01*
G01X-24624Y-14785D01*
G01X-24626Y-14784D01*
G01X-24627Y-14783D01*
G01X-24629Y-14782D01*
G01X-24631Y-14781D01*
G01X-24633Y-14780D01*
G01X-24635Y-14779D01*
G01X-24637Y-14779D01*
G01X-24639Y-14778D01*
G01X-24641Y-14777D01*
G01X-24643Y-14776D01*
G01X-24645Y-14775D01*
G01X-24647Y-14774D01*
G01X-24649Y-14774D01*
G01X-24651Y-14773D01*
G01X-24653Y-14772D01*
G01X-24654Y-14771D01*
G01X-24656Y-14771D01*
G01X-24658Y-14770D01*
G01X-24660Y-14769D01*
G01X-24662Y-14768D01*
G01X-24664Y-14768D01*
G01X-24666Y-14767D01*
G01X-24668Y-14766D01*
G01X-24670Y-14766D01*
G01X-24672Y-14765D01*
G01X-24674Y-14764D01*
G01X-24676Y-14764D01*
G01X-24678Y-14763D01*
G01X-24680Y-14762D01*
G01X-24682Y-14762D01*
G01X-24684Y-14761D01*
G01X-24686Y-14761D01*
G01X-24688Y-14760D01*
G01X-24690Y-14759D01*
G01X-24692Y-14759D01*
G01X-24694Y-14758D01*
G01X-24696Y-14758D01*
G01X-24699Y-14757D01*
G01X-24701Y-14757D01*
G01X-24703Y-14756D01*
G01X-24705Y-14756D01*
G01X-24707Y-14755D01*
G01X-24709Y-14755D01*
D25*
G01X-24709Y-14755D02*
G01X-24729Y-14564D01*
D25*
G01X-24729Y-14564D02*
G01X-24871Y-14564D01*
D25*
G01X-24871Y-14564D02*
G01X-24891Y-14755D01*
D25*
G01X-24891Y-14755D02*
G01X-24893Y-14755D01*
G01X-24895Y-14756D01*
G01X-24897Y-14756D01*
G01X-24899Y-14757D01*
G01X-24901Y-14757D01*
G01X-24903Y-14758D01*
G01X-24905Y-14759D01*
G01X-24907Y-14759D01*
G01X-24909Y-14760D01*
G01X-24911Y-14760D01*
G01X-24913Y-14761D01*
G01X-24915Y-14761D01*
G01X-24917Y-14762D01*
G01X-24919Y-14763D01*
G01X-24921Y-14763D01*
G01X-24923Y-14764D01*
G01X-24925Y-14765D01*
G01X-24927Y-14765D01*
G01X-24929Y-14766D01*
G01X-24931Y-14767D01*
G01X-24933Y-14767D01*
G01X-24935Y-14768D01*
G01X-24937Y-14769D01*
G01X-24939Y-14769D01*
G01X-24941Y-14770D01*
G01X-24943Y-14771D01*
G01X-24945Y-14772D01*
G01X-24947Y-14772D01*
G01X-24949Y-14773D01*
G01X-24951Y-14774D01*
G01X-24953Y-14775D01*
G01X-24955Y-14775D01*
G01X-24957Y-14776D01*
G01X-24959Y-14777D01*
G01X-24961Y-14778D01*
G01X-24963Y-14779D01*
G01X-24965Y-14780D01*
G01X-24967Y-14780D01*
G01X-24968Y-14781D01*
G01X-24970Y-14782D01*
G01X-24972Y-14783D01*
G01X-24974Y-14784D01*
G01X-24976Y-14785D01*
G01X-24978Y-14786D01*
G01X-24980Y-14787D01*
G01X-24982Y-14788D01*
G01X-24984Y-14789D01*
G01X-24985Y-14790D01*
G01X-24987Y-14791D01*
G01X-24989Y-14791D01*
G01X-24991Y-14792D01*
G01X-24993Y-14793D01*
G01X-24995Y-14794D01*
G01X-24997Y-14795D01*
G01X-24998Y-14797D01*
G01X-25000Y-14798D01*
G01X-25002Y-14799D01*
G01X-25004Y-14800D01*
G01X-25006Y-14801D01*
G01X-25007Y-14802D01*
G01X-25009Y-14803D01*
G01X-25011Y-14804D01*
G01X-25013Y-14805D01*
G01X-25015Y-14806D01*
D25*
G01X-25015Y-14806D02*
G01X-25163Y-14685D01*
D25*
G01X-25163Y-14685D02*
G01X-25265Y-14787D01*
D25*
G01X-25265Y-14787D02*
G01X-25144Y-14935D01*
D25*
G01X-25144Y-14935D02*
G01X-25145Y-14937D01*
G01X-25146Y-14939D01*
G01X-25147Y-14940D01*
G01X-25148Y-14942D01*
G01X-25149Y-14944D01*
G01X-25151Y-14946D01*
G01X-25152Y-14948D01*
G01X-25153Y-14949D01*
G01X-25154Y-14951D01*
G01X-25155Y-14953D01*
G01X-25156Y-14955D01*
G01X-25157Y-14957D01*
G01X-25158Y-14959D01*
G01X-25159Y-14960D01*
G01X-25160Y-14962D01*
G01X-25161Y-14964D01*
G01X-25162Y-14966D01*
G01X-25163Y-14968D01*
G01X-25163Y-14970D01*
G01X-25164Y-14972D01*
G01X-25165Y-14974D01*
G01X-25166Y-14976D01*
G01X-25167Y-14977D01*
G01X-25168Y-14979D01*
G01X-25169Y-14981D01*
G01X-25170Y-14983D01*
G01X-25171Y-14985D01*
G01X-25171Y-14987D01*
G01X-25172Y-14989D01*
G01X-25173Y-14991D01*
G01X-25174Y-14993D01*
G01X-25175Y-14995D01*
G01X-25176Y-14997D01*
G01X-25176Y-14999D01*
G01X-25177Y-15001D01*
G01X-25178Y-15003D01*
G01X-25179Y-15004D01*
G01X-25179Y-15006D01*
G01X-25180Y-15008D01*
G01X-25181Y-15010D01*
G01X-25182Y-15012D01*
G01X-25182Y-15014D01*
G01X-25183Y-15016D01*
G01X-25184Y-15018D01*
G01X-25184Y-15020D01*
G01X-25185Y-15022D01*
G01X-25186Y-15024D01*
G01X-25186Y-15026D01*
G01X-25187Y-15028D01*
G01X-25188Y-15030D01*
G01X-25188Y-15032D01*
G01X-25189Y-15034D01*
G01X-25189Y-15036D01*
G01X-25190Y-15038D01*
G01X-25191Y-15040D01*
G01X-25191Y-15042D01*
G01X-25192Y-15044D01*
G01X-25192Y-15046D01*
G01X-25193Y-15049D01*
G01X-25193Y-15051D01*
G01X-25194Y-15053D01*
G01X-25194Y-15055D01*
G01X-25195Y-15057D01*
G01X-25195Y-15059D01*
D25*
G01X-25195Y-15059D02*
G01X-25386Y-15079D01*
D25*
G01X-25386Y-15079D02*
G01X-25386Y-15221D01*
D25*
G01X-25386Y-15221D02*
G01X-25195Y-15241D01*
D25*
G01X-25195Y-15241D02*
G01X-25195Y-15243D01*
G01X-25194Y-15245D01*
G01X-25194Y-15247D01*
G01X-25193Y-15249D01*
G01X-25193Y-15251D01*
G01X-25192Y-15253D01*
G01X-25191Y-15255D01*
G01X-25191Y-15257D01*
G01X-25190Y-15259D01*
G01X-25190Y-15261D01*
G01X-25189Y-15263D01*
G01X-25189Y-15265D01*
G01X-25188Y-15267D01*
G01X-25187Y-15269D01*
G01X-25187Y-15271D01*
G01X-25186Y-15273D01*
G01X-25185Y-15275D01*
G01X-25185Y-15277D01*
G01X-25184Y-15279D01*
G01X-25183Y-15281D01*
G01X-25183Y-15283D01*
G01X-25182Y-15285D01*
G01X-25181Y-15287D01*
G01X-25181Y-15289D01*
G01X-25180Y-15291D01*
G01X-25179Y-15293D01*
G01X-25178Y-15295D01*
G01X-25178Y-15297D01*
G01X-25177Y-15299D01*
G01X-25176Y-15301D01*
G01X-25175Y-15303D01*
G01X-25175Y-15305D01*
G01X-25174Y-15307D01*
G01X-25173Y-15309D01*
G01X-25172Y-15311D01*
G01X-25171Y-15313D01*
G01X-25170Y-15315D01*
G01X-25170Y-15317D01*
G01X-25169Y-15318D01*
G01X-25168Y-15320D01*
G01X-25167Y-15322D01*
G01X-25166Y-15324D01*
G01X-25165Y-15326D01*
G01X-25164Y-15328D01*
G01X-25163Y-15330D01*
G01X-25162Y-15332D01*
G01X-25161Y-15334D01*
G01X-25160Y-15335D01*
G01X-25159Y-15337D01*
G01X-25159Y-15339D01*
G01X-25158Y-15341D01*
G01X-25157Y-15343D01*
G01X-25156Y-15345D01*
G01X-25155Y-15347D01*
G01X-25153Y-15348D01*
G01X-25152Y-15350D01*
G01X-25151Y-15352D01*
G01X-25150Y-15354D01*
G01X-25149Y-15356D01*
G01X-25148Y-15357D01*
G01X-25147Y-15359D01*
G01X-25146Y-15361D01*
G01X-25145Y-15363D01*
G01X-25144Y-15365D01*
D25*
G01X-25144Y-15365D02*
G01X-25265Y-15513D01*
D25*
G01X-25265Y-15513D02*
G01X-25163Y-15615D01*
D25*
G01X-25163Y-15615D02*
G01X-25015Y-15494D01*
D25*
G01X-25015Y-15494D02*
G01X-25014Y-15495D01*
G01X-25013Y-15495D01*
G01X-25012Y-15496D01*
G01X-25011Y-15496D01*
G01X-25011Y-15497D01*
G01X-25010Y-15497D01*
G01X-25009Y-15498D01*
G01X-25008Y-15498D01*
G01X-25007Y-15499D01*
G01X-25006Y-15499D01*
G01X-25005Y-15500D01*
G01X-25004Y-15500D01*
G01X-25003Y-15501D01*
G01X-25003Y-15501D01*
G01X-25002Y-15502D01*
G01X-25001Y-15503D01*
G01X-25000Y-15503D01*
G01X-24999Y-15504D01*
G01X-24998Y-15504D01*
G01X-24997Y-15505D01*
G01X-24996Y-15505D01*
G01X-24995Y-15506D01*
G01X-24994Y-15506D01*
G01X-24993Y-15507D01*
G01X-24993Y-15507D01*
G01X-24992Y-15508D01*
G01X-24991Y-15508D01*
G01X-24990Y-15509D01*
G01X-24989Y-15509D01*
G01X-24988Y-15510D01*
G01X-24987Y-15510D01*
G01X-24986Y-15510D01*
G01X-24985Y-15511D01*
G01X-24984Y-15511D01*
G01X-24983Y-15512D01*
G01X-24982Y-15512D01*
G01X-24981Y-15513D01*
G01X-24981Y-15513D01*
G01X-24980Y-15514D01*
G01X-24979Y-15514D01*
G01X-24978Y-15515D01*
G01X-24977Y-15515D01*
G01X-24976Y-15516D01*
G01X-24975Y-15516D01*
G01X-24974Y-15516D01*
G01X-24973Y-15517D01*
G01X-24972Y-15517D01*
G01X-24971Y-15518D01*
G01X-24970Y-15518D01*
G01X-24969Y-15519D01*
G01X-24968Y-15519D01*
G01X-24967Y-15520D01*
G01X-24966Y-15520D01*
G01X-24965Y-15520D01*
G01X-24965Y-15521D01*
G01X-24964Y-15521D01*
G01X-24963Y-15522D01*
G01X-24962Y-15522D01*
G01X-24961Y-15522D01*
G01X-24960Y-15523D01*
G01X-24959Y-15523D01*
G01X-24958Y-15524D01*
G01X-24957Y-15524D01*
G01X-24956Y-15524D01*
D25*
G01X-24955Y-15525D02*
G01X-24870Y-15320D01*
D25*
G01X-24870Y-15320D02*
G01X-24873Y-15319D01*
G01X-24876Y-15317D01*
G01X-24879Y-15316D01*
G01X-24882Y-15314D01*
G01X-24885Y-15313D01*
G01X-24888Y-15311D01*
G01X-24891Y-15310D01*
G01X-24894Y-15308D01*
G01X-24897Y-15306D01*
G01X-24900Y-15304D01*
G01X-24903Y-15302D01*
G01X-24906Y-15301D01*
G01X-24908Y-15299D01*
G01X-24911Y-15297D01*
G01X-24914Y-15294D01*
G01X-24916Y-15292D01*
G01X-24919Y-15290D01*
G01X-24921Y-15288D01*
G01X-24924Y-15286D01*
G01X-24926Y-15283D01*
G01X-24929Y-15281D01*
G01X-24931Y-15279D01*
G01X-24934Y-15276D01*
G01X-24936Y-15274D01*
G01X-24938Y-15271D01*
G01X-24940Y-15269D01*
G01X-24943Y-15266D01*
G01X-24945Y-15263D01*
G01X-24947Y-15261D01*
G01X-24949Y-15258D01*
G01X-24951Y-15255D01*
G01X-24953Y-15252D01*
G01X-24955Y-15250D01*
G01X-24956Y-15247D01*
G01X-24958Y-15244D01*
G01X-24960Y-15241D01*
G01X-24961Y-15238D01*
G01X-24963Y-15235D01*
G01X-24965Y-15232D01*
G01X-24966Y-15229D01*
G01X-24967Y-15226D01*
G01X-24969Y-15223D01*
G01X-24970Y-15220D01*
G01X-24971Y-15217D01*
G01X-24973Y-15213D01*
G01X-24974Y-15210D01*
G01X-24975Y-15207D01*
G01X-24976Y-15204D01*
G01X-24977Y-15200D01*
G01X-24978Y-15197D01*
G01X-24979Y-15194D01*
G01X-24979Y-15191D01*
G01X-24980Y-15187D01*
G01X-24981Y-15184D01*
G01X-24981Y-15181D01*
G01X-24982Y-15177D01*
G01X-24982Y-15174D01*
G01X-24983Y-15171D01*
G01X-24983Y-15167D01*
G01X-24983Y-15164D01*
G01X-24984Y-15161D01*
G01X-24984Y-15157D01*
G01X-24984Y-15154D01*
G01X-24984Y-15150D01*
D25*
G01X-24984Y-15150D02*
G01X-24984Y-15138D01*
G01X-24982Y-15125D01*
G01X-24980Y-15113D01*
G01X-24977Y-15101D01*
G01X-24974Y-15089D01*
G01X-24969Y-15078D01*
G01X-24964Y-15066D01*
G01X-24958Y-15055D01*
G01X-24951Y-15045D01*
G01X-24944Y-15035D01*
G01X-24936Y-15026D01*
G01X-24927Y-15017D01*
G01X-24918Y-15009D01*
G01X-24908Y-15001D01*
G01X-24898Y-14994D01*
G01X-24887Y-14988D01*
G01X-24876Y-14982D01*
G01X-24864Y-14978D01*
G01X-24852Y-14974D01*
G01X-24840Y-14970D01*
G01X-24828Y-14968D01*
G01X-24816Y-14967D01*
G01X-24804Y-14966D01*
G01X-24791Y-14966D01*
G01X-24779Y-14967D01*
G01X-24766Y-14969D01*
G01X-24754Y-14972D01*
G01X-24742Y-14975D01*
G01X-24731Y-14980D01*
G01X-24719Y-14985D01*
G01X-24708Y-14990D01*
G01X-24698Y-14997D01*
G01X-24688Y-15004D01*
G01X-24678Y-15012D01*
G01X-24669Y-15021D01*
G01X-24661Y-15030D01*
G01X-24653Y-15039D01*
G01X-24646Y-15050D01*
G01X-24639Y-15060D01*
G01X-24634Y-15071D01*
G01X-24629Y-15083D01*
G01X-24625Y-15094D01*
G01X-24621Y-15106D01*
G01X-24619Y-15118D01*
G01X-24617Y-15131D01*
G01X-24616Y-15143D01*
G01X-24616Y-15155D01*
G01X-24617Y-15168D01*
G01X-24618Y-15180D01*
G01X-24621Y-15192D01*
G01X-24624Y-15204D01*
G01X-24628Y-15216D01*
G01X-24633Y-15227D01*
G01X-24639Y-15238D01*
G01X-24645Y-15249D01*
G01X-24652Y-15259D01*
G01X-24660Y-15269D01*
G01X-24668Y-15278D01*
G01X-24677Y-15287D01*
G01X-24687Y-15295D01*
G01X-24697Y-15302D01*
G01X-24707Y-15309D01*
G01X-24718Y-15315D01*
G01X-24729Y-15320D01*
D25*
G01X-24730Y-15320D02*
G01X-24645Y-15525D01*
D12*
G01X-42257Y-106181D02*
G01X-42257Y-106048D01*
D12*
G01X-42257Y-106086D02*
G01X-42248Y-106067D01*
G01X-42238Y-106057D01*
G01X-42219Y-106048D01*
G01X-42200Y-106048D01*
D12*
G01X-42057Y-106171D02*
G01X-42076Y-106181D01*
G01X-42114Y-106181D01*
G01X-42133Y-106171D01*
G01X-42143Y-106152D01*
G01X-42143Y-106076D01*
G01X-42133Y-106057D01*
G01X-42114Y-106048D01*
G01X-42076Y-106048D01*
G01X-42057Y-106057D01*
G01X-42048Y-106076D01*
G01X-42048Y-106095D01*
G01X-42143Y-106114D01*
D12*
G01X-41990Y-106048D02*
G01X-41914Y-106048D01*
D12*
G01X-41962Y-106181D02*
G01X-41962Y-106010D01*
G01X-41952Y-105990D01*
G01X-41933Y-105981D01*
G01X-41914Y-105981D01*
D12*
G01X-42290Y-106848D02*
G01X-42243Y-106981D01*
G01X-42195Y-106848D01*
D12*
G01X-42033Y-106981D02*
G01X-42033Y-106876D01*
G01X-42043Y-106857D01*
G01X-42062Y-106848D01*
G01X-42100Y-106848D01*
G01X-42119Y-106857D01*
D12*
G01X-42033Y-106971D02*
G01X-42052Y-106981D01*
G01X-42100Y-106981D01*
G01X-42119Y-106971D01*
G01X-42129Y-106952D01*
G01X-42129Y-106933D01*
G01X-42119Y-106914D01*
G01X-42100Y-106905D01*
G01X-42052Y-106905D01*
G01X-42033Y-106895D01*
D12*
G01X-41910Y-106981D02*
G01X-41929Y-106971D01*
G01X-41938Y-106952D01*
G01X-41938Y-106781D01*
D11*
G01X-32889Y-20850D02*
G01X-32889Y-23250D01*
D11*
G01X-32889Y-23250D02*
G01X-34738Y-23250D01*
D11*
G01X-34738Y-23250D02*
G01X-34738Y-20850D01*
D11*
G01X-34738Y-20850D02*
G01X-32889Y-20850D01*
D11*
G01X-29211Y-22250D02*
G01X-29211Y-19850D01*
D11*
G01X-29211Y-19850D02*
G01X-27362Y-19850D01*
D11*
G01X-27362Y-19850D02*
G01X-27362Y-22250D01*
D11*
G01X-27362Y-22250D02*
G01X-29211Y-22250D01*
D12*
G01X-38200Y-14550D02*
G01X-38200Y-15450D01*
D12*
G01X-38200Y-15450D02*
G01X-37550Y-15450D01*
D12*
G01X-36850Y-14550D02*
G01X-36200Y-14550D01*
D12*
G01X-36200Y-14550D02*
G01X-36200Y-15450D01*
D12*
G01X-36200Y-15450D02*
G01X-36850Y-15450D01*
D12*
G01X-37550Y-14550D02*
G01X-38200Y-14550D01*
D12*
G01X-37250Y-15093D02*
G01X-37264Y-15107D01*
G01X-37307Y-15121D01*
G01X-37336Y-15121D01*
G01X-37379Y-15107D01*
G01X-37407Y-15079D01*
G01X-37421Y-15050D01*
G01X-37436Y-14993D01*
G01X-37436Y-14950D01*
G01X-37421Y-14893D01*
G01X-37407Y-14864D01*
G01X-37379Y-14836D01*
G01X-37336Y-14821D01*
G01X-37307Y-14821D01*
G01X-37264Y-14836D01*
G01X-37250Y-14850D01*
D12*
G01X-37136Y-14850D02*
G01X-37121Y-14836D01*
G01X-37093Y-14821D01*
G01X-37021Y-14821D01*
G01X-36993Y-14836D01*
G01X-36979Y-14850D01*
G01X-36964Y-14879D01*
G01X-36964Y-14907D01*
G01X-36979Y-14950D01*
G01X-37150Y-15121D01*
G01X-36964Y-15121D01*
M02*
