G04 ( created by brdgerber.py ( brdgerber.py v0.1 2014-03-12 ) ) date 2020-12-15 20:12:18 EST*
G04 Gerber Fmt 3.4, Leading zero omitted, Abs format*
%MOIN*%
%FSLAX34Y34*%
G01*
G70*
G90*
G04 APERTURE LIST*
%ADD20R,0.0800X0.0600*%
%ADD16C,0.0031*%
%ADD22R,0.0393X0.0314*%
%ADD15C,0.0039*%
%ADD10R,0.0236X0.0551*%
%ADD24C,0.0000*%
%ADD14C,0.0047*%
%ADD11C,0.0060*%
%ADD21C,0.0354*%
%ADD17R,0.2000X0.2000*%
%ADD26C,0.0471*%
%ADD25C,0.0059*%
%ADD12C,0.0050*%
%ADD19R,0.0600X0.0800*%
%ADD23R,0.0275X0.0590*%
%ADD13R,0.0394X0.0315*%
%ADD18R,0.3000X0.3000*%
%ADD27C,0.0200*%
G04 APERTURE END LIST*
G54D20*
D17*
X-26650Y-14000D03*
D17*
X-36150Y-14000D03*
D18*
X-31400Y-14000D03*
D21*
X-31590Y-24400D03*
D21*
X-30410Y-24400D03*
D26*
G01X-34050Y-21657D02*
G01X-34050Y-21657D01*
D26*
G01X-34050Y-22443D02*
G01X-34050Y-22443D01*
D26*
G01X-28050Y-21443D02*
G01X-28050Y-21443D01*
D26*
G01X-28050Y-20657D02*
G01X-28050Y-20657D01*
D27*
G01X-31400Y-14000D02*
G01X-31400Y-20100D01*
D27*
G01X-31400Y-20100D02*
G01X-33750Y-22450D01*
D27*
G01X-33750Y-22450D02*
G01X-34050Y-22450D01*
D27*
G01X-36150Y-14000D02*
G01X-36150Y-18550D01*
D27*
G01X-36150Y-18550D02*
G01X-35050Y-19650D01*
D27*
G01X-35050Y-19650D02*
G01X-35050Y-20650D01*
D27*
G01X-35050Y-20650D02*
G01X-34050Y-21650D01*
D27*
G01X-34050Y-21650D02*
G01X-34050Y-21750D01*
D27*
G01X-34050Y-21750D02*
G01X-34650Y-22350D01*
D27*
G01X-34650Y-22350D02*
G01X-34650Y-22700D01*
D27*
G01X-34650Y-22700D02*
G01X-34300Y-23050D01*
D27*
G01X-34300Y-23050D02*
G01X-33350Y-23050D01*
D27*
G01X-33350Y-23050D02*
G01X-30700Y-20400D01*
D27*
G01X-30700Y-20400D02*
G01X-29250Y-20400D01*
D27*
G01X-29250Y-20400D02*
G01X-26650Y-17800D01*
D27*
G01X-26650Y-17800D02*
G01X-26650Y-14000D01*
M02*
