G04 ( created by brdgerber.py ( brdgerber.py v0.1 2014-03-12 ) ) date 2020-12-15 20:12:19 EST*
G04 Gerber Fmt 3.4, Leading zero omitted, Abs format*
%MOIN*%
%FSLAX34Y34*%
G01*
G70*
G90*
G04 APERTURE LIST*
%ADD18R,0.3000X0.3000*%
%ADD20R,0.0800X0.0600*%
%ADD19R,0.0600X0.0800*%
%ADD22R,0.0393X0.0314*%
%ADD13R,0.0394X0.0315*%
%ADD26C,0.0471*%
%ADD15C,0.0039*%
%ADD21C,0.0354*%
%ADD12C,0.0050*%
%ADD24C,0.0000*%
%ADD23R,0.0275X0.0590*%
%ADD17R,0.2000X0.2000*%
%ADD14C,0.0047*%
%ADD25C,0.0059*%
%ADD16C,0.0031*%
%ADD27C,0.0200*%
%ADD10R,0.0236X0.0551*%
%ADD11C,0.0060*%
G04 APERTURE END LIST*
G54D18*
D10*
X-38200Y-11300D03*
D10*
X-38200Y-13400D03*
D10*
X-37700Y-11300D03*
D10*
X-37200Y-11300D03*
D10*
X-36700Y-11300D03*
D10*
X-37700Y-13400D03*
D10*
X-37200Y-13400D03*
D10*
X-36700Y-13400D03*
D13*
X-33617Y-11400D03*
D13*
X-34483Y-11775D03*
D13*
X-34483Y-11025D03*
D19*
X-30700Y-10800D03*
D19*
X-32000Y-10800D03*
D20*
X-29950Y-20350D03*
D20*
X-29950Y-21650D03*
D21*
X-31590Y-24400D03*
D21*
X-30410Y-24400D03*
D22*
X-32456Y-24833D03*
D22*
X-32456Y-23967D03*
D22*
X-29544Y-23967D03*
D22*
X-29544Y-24833D03*
D23*
X-31885Y-23662D03*
D23*
X-30705Y-23662D03*
D23*
X-30115Y-23662D03*
D26*
G01X-34050Y-21657D02*
G01X-34050Y-21657D01*
D26*
G01X-34050Y-22443D02*
G01X-34050Y-22443D01*
D26*
G01X-28050Y-21443D02*
G01X-28050Y-21443D01*
D26*
G01X-28050Y-20657D02*
G01X-28050Y-20657D01*
D19*
X-37850Y-15000D03*
D19*
X-36550Y-15000D03*
D27*
G01X-34050Y-21650D02*
G01X-32000Y-21650D01*
D27*
G01X-32000Y-21650D02*
G01X-30700Y-22950D01*
D27*
G01X-30700Y-22950D02*
G01X-30700Y-23650D01*
D27*
G01X-30100Y-23650D02*
G01X-30100Y-21800D01*
D27*
G01X-30100Y-21800D02*
G01X-29950Y-21650D01*
D27*
G01X-29950Y-21650D02*
G01X-28250Y-21650D01*
D27*
G01X-28250Y-21650D02*
G01X-28050Y-21450D01*
D27*
G01X-28050Y-20650D02*
G01X-29650Y-20650D01*
D27*
G01X-29650Y-20650D02*
G01X-29950Y-20350D01*
D27*
G01X-36700Y-13400D02*
G01X-36700Y-14850D01*
D27*
G01X-36700Y-14850D02*
G01X-36550Y-15000D01*
D27*
G01X-37850Y-15000D02*
G01X-37900Y-15000D01*
D27*
G01X-37900Y-15000D02*
G01X-38800Y-14100D01*
D27*
G01X-38800Y-14100D02*
G01X-38800Y-11900D01*
D27*
G01X-38800Y-11900D02*
G01X-38200Y-11300D01*
D27*
G01X-36700Y-11300D02*
G01X-36000Y-11300D01*
D27*
G01X-36000Y-11300D02*
G01X-35500Y-11800D01*
D27*
G01X-35500Y-11800D02*
G01X-34500Y-11800D01*
D27*
G01X-33600Y-11400D02*
G01X-32600Y-11400D01*
D27*
G01X-32600Y-11400D02*
G01X-32000Y-10800D01*
D27*
G01X-34500Y-11050D02*
G01X-34400Y-11050D01*
D27*
G01X-34400Y-11050D02*
G01X-34050Y-11400D01*
D27*
G01X-34050Y-11400D02*
G01X-34050Y-12400D01*
D27*
G01X-34050Y-12400D02*
G01X-35050Y-13400D01*
D27*
G01X-35050Y-13400D02*
G01X-36700Y-13400D01*
D27*
G01X-32000Y-17450D02*
G01X-29950Y-19500D01*
D27*
G01X-29950Y-19500D02*
G01X-29950Y-20350D01*
D27*
G01X-32000Y-10800D02*
G01X-32000Y-17450D01*
D27*
G01X-31450Y-10050D02*
G01X-30700Y-10800D01*
D27*
G01X-33150Y-10050D02*
G01X-31450Y-10050D01*
D27*
G01X-38200Y-11300D02*
G01X-38200Y-10700D01*
D27*
G01X-38200Y-10700D02*
G01X-37800Y-10300D01*
D27*
G01X-37800Y-10300D02*
G01X-33400Y-10300D01*
D27*
G01X-33400Y-10300D02*
G01X-33150Y-10050D01*
D27*
G01X-28050Y-21450D02*
G01X-27700Y-21450D01*
D27*
G01X-27700Y-21450D02*
G01X-27250Y-21000D01*
D27*
G01X-27250Y-21000D02*
G01X-27250Y-14250D01*
D27*
G01X-27250Y-14250D02*
G01X-30700Y-10800D01*
D27*
G01X-36550Y-15000D02*
G01X-36550Y-17400D01*
D27*
G01X-36550Y-17400D02*
G01X-35050Y-18900D01*
D27*
G01X-35050Y-18900D02*
G01X-35050Y-21450D01*
D27*
G01X-35050Y-21450D02*
G01X-34050Y-22450D01*
M02*
