<?xml version="1.0" standalone="no"?>
<!DOCTYPE svg PUBLIC "-//W3C//DTD SVG 1.1//EN" "http://www.w3.org/Graphics/SVG/1.1/DTD/svg11.dtd">
<svg width="154" height="67" viewBox="0 -67 154 67" xmlns="http://www.w3.org/2000/svg" version="1.1">
<title>OpenSCAD Model</title>
<path d="
M 63,-55 L 94,-55 L 94,-67 L 50,-67 L 50,-55 L 57,-55
 L 57,-52 L 63,-52 z
M 63.1173,-63.5761 L 62.7929,-63.7929 L 62.5761,-64.1173 L 62.5,-64.5 L 62.5761,-64.8827 L 62.7929,-65.2071
 L 63.1173,-65.4239 L 63.5,-65.5 L 63.8827,-65.4239 L 64.2071,-65.2071 L 64.4239,-64.8827 L 64.5,-64.5
 L 64.4239,-64.1173 L 64.2071,-63.7929 L 63.8827,-63.5761 L 63.5,-63.5 z
M 87.2716,-61.8451 L 86.8661,-62.1161 L 86.5951,-62.5216 L 86.5,-63 L 86.5951,-63.4783 L 86.8661,-63.8839
 L 87.2716,-64.1548 L 87.75,-64.25 L 88.2283,-64.1548 L 88.6339,-63.8839 L 88.9048,-63.4783 L 89,-63
 L 88.9048,-62.5216 L 88.6339,-62.1161 L 88.2283,-61.8451 L 87.75,-61.75 z
M 77.7717,-61.8451 L 77.3661,-62.1161 L 77.0952,-62.5216 L 77,-63 L 77.0952,-63.4783 L 77.3661,-63.8839
 L 77.7717,-64.1548 L 78.25,-64.25 L 78.7284,-64.1548 L 79.1339,-63.8839 L 79.4049,-63.4783 L 79.5,-63
 L 79.4049,-62.5216 L 79.1339,-62.1161 L 78.7284,-61.8451 L 78.25,-61.75 z
M 65.5,-58 L 65.5,-64 L 68.5,-64 L 68.5,-58 z
M 51.5,-58 L 51.5,-64 L 54.5,-64 L 54.5,-58 z
M 59.0433,-58.6903 L 58.2322,-59.2322 L 57.6903,-60.0433 L 57.5,-61 L 57.6903,-61.9567 L 58.2322,-62.7678
 L 59.0433,-63.3097 L 60,-63.5 L 60.9567,-63.3097 L 61.7678,-62.7678 L 62.3097,-61.9567 L 62.5,-61
 L 62.3097,-60.0433 L 61.7678,-59.2322 L 60.9567,-58.6903 L 60,-58.5 z
M 56.1173,-56.5761 L 55.7929,-56.7929 L 55.5761,-57.1173 L 55.5,-57.5 L 55.5761,-57.8827 L 55.7929,-58.2071
 L 56.1173,-58.4239 L 56.5,-58.5 L 56.8827,-58.4239 L 57.2071,-58.2071 L 57.4239,-57.8827 L 57.5,-57.5
 L 57.4239,-57.1173 L 57.2071,-56.7929 L 56.8827,-56.5761 L 56.5,-56.5 z
M 151,-27 L 154,-27 L 154,-33 L 151,-33 L 151,-64 L 139,-64
 L 139,-20 L 151,-20 z
M 142.522,-56.5951 L 142.116,-56.8661 L 141.845,-57.2716 L 141.75,-57.75 L 141.845,-58.2283 L 142.116,-58.6339
 L 142.522,-58.9048 L 143,-59 L 143.478,-58.9048 L 143.884,-58.6339 L 144.155,-58.2283 L 144.25,-57.75
 L 144.155,-57.2716 L 143.884,-56.8661 L 143.478,-56.5951 L 143,-56.5 z
M 142.522,-47.0952 L 142.116,-47.3661 L 141.845,-47.7717 L 141.75,-48.25 L 141.845,-48.7284 L 142.116,-49.1339
 L 142.522,-49.4049 L 143,-49.5 L 143.478,-49.4049 L 143.884,-49.1339 L 144.155,-48.7284 L 144.25,-48.25
 L 144.155,-47.7717 L 143.884,-47.3661 L 143.478,-47.0952 L 143,-47 z
M 142,-35.5 L 142,-38.5 L 148,-38.5 L 148,-35.5 z
M 141.117,-32.5761 L 140.793,-32.7929 L 140.576,-33.1173 L 140.5,-33.5 L 140.576,-33.8827 L 140.793,-34.2071
 L 141.117,-34.4239 L 141.5,-34.5 L 141.883,-34.4239 L 142.207,-34.2071 L 142.424,-33.8827 L 142.5,-33.5
 L 142.424,-33.1173 L 142.207,-32.7929 L 141.883,-32.5761 L 141.5,-32.5 z
M 144.043,-27.6903 L 143.232,-28.2322 L 142.69,-29.0433 L 142.5,-30 L 142.69,-30.9567 L 143.232,-31.7678
 L 144.043,-32.3097 L 145,-32.5 L 145.957,-32.3097 L 146.768,-31.7678 L 147.31,-30.9567 L 147.5,-30
 L 147.31,-29.0433 L 146.768,-28.2322 L 145.957,-27.6903 L 145,-27.5 z
M 148.117,-25.5761 L 147.793,-25.7929 L 147.576,-26.1173 L 147.5,-26.5 L 147.576,-26.8827 L 147.793,-27.2071
 L 148.117,-27.4239 L 148.5,-27.5 L 148.883,-27.4239 L 149.207,-27.2071 L 149.424,-26.8827 L 149.5,-26.5
 L 149.424,-26.1173 L 149.207,-25.7929 L 148.883,-25.5761 L 148.5,-25.5 z
M 142,-21.5 L 142,-24.5 L 148,-24.5 L 148,-21.5 z
M 24.5,-40 L 33,-40 L 33,-43 L 36,-43 L 36,-49 L 33,-49
 L 33,-52 L 31,-52 L 10,-42 L 10,-40 L 18.5,-40 L 18.5,-37
 L 24.5,-37 z
M 104.5,-40 L 113,-40 L 113,-43 L 116,-43 L 116,-49 L 113,-49
 L 113,-52 L 111,-52 L 90,-42 L 90,-40 L 98.5,-40 L 98.5,-37
 L 104.5,-37 z
M 55.5,-50.5 L 44.5,-50.5 L 44.5,-39.5 L 55.5,-39.5 z
M 46.1173,-40.5761 L 45.7929,-40.7929 L 45.5761,-41.1173 L 45.5,-41.5 L 45.5761,-41.8827 L 45.7929,-42.2071
 L 46.1173,-42.4239 L 46.5,-42.5 L 46.8827,-42.4239 L 47.053,-42.3101 L 45.5,-45 L 47.75,-48.8971
 L 52.25,-48.8971 L 52.5109,-48.4452 L 52.5,-48.5 L 52.5761,-48.8827 L 52.7929,-49.2071 L 53.1173,-49.4239
 L 53.5,-49.5 L 53.8827,-49.4239 L 54.2071,-49.2071 L 54.4239,-48.8827 L 54.5,-48.5 L 54.4239,-48.1173
 L 54.2071,-47.7929 L 53.8827,-47.5761 L 53.5,-47.5 L 53.1173,-47.5761 L 52.947,-47.6899 L 54.5,-45
 L 52.25,-41.1029 L 47.75,-41.1029 L 47.4891,-41.5548 L 47.5,-41.5 L 47.4239,-41.1173 L 47.2071,-40.7929
 L 46.8827,-40.5761 L 46.5,-40.5 z
M 85.5,-50.5 L 74.5,-50.5 L 74.5,-39.5 L 85.5,-39.5 z
M 76.1173,-47.5761 L 75.7929,-47.7929 L 75.5761,-48.1173 L 75.5,-48.5 L 75.5761,-48.8827 L 75.7929,-49.2071
 L 76.1173,-49.4239 L 76.5,-49.5 L 76.8827,-49.4239 L 77.2071,-49.2071 L 77.4239,-48.8827 L 77.5,-48.5
 L 77.4239,-48.1173 L 77.2071,-47.7929 L 76.8827,-47.5761 L 76.5,-47.5 z
M 79.0433,-42.6903 L 78.2322,-43.2322 L 77.6903,-44.0433 L 77.5,-45 L 77.6903,-45.9567 L 78.2322,-46.7678
 L 79.0433,-47.3097 L 80,-47.5 L 80.9567,-47.3097 L 81.7678,-46.7678 L 82.3097,-45.9567 L 82.5,-45
 L 82.3097,-44.0433 L 81.7678,-43.2322 L 80.9567,-42.6903 L 80,-42.5 z
M 83.1173,-40.5761 L 82.7929,-40.7929 L 82.5761,-41.1173 L 82.5,-41.5 L 82.5761,-41.8827 L 82.7929,-42.2071
 L 83.1173,-42.4239 L 83.5,-42.5 L 83.8827,-42.4239 L 84.2071,-42.2071 L 84.4239,-41.8827 L 84.5,-41.5
 L 84.4239,-41.1173 L 84.2071,-40.7929 L 83.8827,-40.5761 L 83.5,-40.5 z
M 70.5,-50.5 L 59.5,-50.5 L 59.5,-39.5 L 70.5,-39.5 z
M 61.1173,-40.5761 L 60.7929,-40.7929 L 60.5761,-41.1173 L 60.5,-41.5 L 60.5761,-41.8827 L 60.7929,-42.2071
 L 61.1173,-42.4239 L 61.5,-42.5 L 61.8827,-42.4239 L 62.053,-42.3101 L 60.5,-45 L 62.75,-48.8971
 L 67.25,-48.8971 L 67.5109,-48.4452 L 67.5,-48.5 L 67.5761,-48.8827 L 67.7929,-49.2071 L 68.1173,-49.4239
 L 68.5,-49.5 L 68.8827,-49.4239 L 69.2071,-49.2071 L 69.4239,-48.8827 L 69.5,-48.5 L 69.4239,-48.1173
 L 69.2071,-47.7929 L 68.8827,-47.5761 L 68.5,-47.5 L 68.1173,-47.5761 L 67.947,-47.6899 L 69.5,-45
 L 67.25,-41.1029 L 62.75,-41.1029 L 62.4891,-41.5548 L 62.5,-41.5 L 62.4239,-41.1173 L 62.2071,-40.7929
 L 61.8827,-40.5761 L 61.5,-40.5 z
M 136,-7 L 139,-7 L 139,-13 L 136,-13 L 136,-44 L 124,-44
 L 124,-0 L 136,-0 z
M 127.522,-36.5951 L 127.116,-36.8661 L 126.845,-37.2716 L 126.75,-37.75 L 126.845,-38.2283 L 127.116,-38.6339
 L 127.522,-38.9048 L 128,-39 L 128.478,-38.9048 L 128.884,-38.6339 L 129.155,-38.2283 L 129.25,-37.75
 L 129.155,-37.2716 L 128.884,-36.8661 L 128.478,-36.5951 L 128,-36.5 z
M 127.522,-27.0952 L 127.116,-27.3661 L 126.845,-27.7717 L 126.75,-28.25 L 126.845,-28.7284 L 127.116,-29.1339
 L 127.522,-29.4049 L 128,-29.5 L 128.478,-29.4049 L 128.884,-29.1339 L 129.155,-28.7284 L 129.25,-28.25
 L 129.155,-27.7717 L 128.884,-27.3661 L 128.478,-27.0952 L 128,-27 z
M 127,-15.5 L 127,-18.5 L 133,-18.5 L 133,-15.5 z
M 126.117,-12.5761 L 125.793,-12.7929 L 125.576,-13.1173 L 125.5,-13.5 L 125.576,-13.8827 L 125.793,-14.2071
 L 126.117,-14.4239 L 126.5,-14.5 L 126.883,-14.4239 L 127.207,-14.2071 L 127.424,-13.8827 L 127.5,-13.5
 L 127.424,-13.1173 L 127.207,-12.7929 L 126.883,-12.5761 L 126.5,-12.5 z
M 129.043,-7.69031 L 128.232,-8.23224 L 127.69,-9.04332 L 127.5,-10 L 127.69,-10.9567 L 128.232,-11.7678
 L 129.043,-12.3097 L 130,-12.5 L 130.957,-12.3097 L 131.768,-11.7678 L 132.31,-10.9567 L 132.5,-10
 L 132.31,-9.0433 L 131.768,-8.23224 L 130.957,-7.69031 L 130,-7.5 z
M 133.117,-5.57613 L 132.793,-5.79291 L 132.576,-6.11732 L 132.5,-6.5 L 132.576,-6.88269 L 132.793,-7.20711
 L 133.117,-7.42389 L 133.5,-7.5 L 133.883,-7.42389 L 134.207,-7.20711 L 134.424,-6.88269 L 134.5,-6.5
 L 134.424,-6.11732 L 134.207,-5.79291 L 133.883,-5.57613 L 133.5,-5.5 z
M 127,-1.5 L 127,-4.5 L 133,-4.5 L 133,-1.5 z
M 108.5,-25 L 117,-25 L 117,-27 L 96,-37 L 94,-37 L 94,-34
 L 91,-34 L 91,-28 L 94,-28 L 94,-25 L 102.5,-25 L 102.5,-22
 L 108.5,-22 z
M 24.5,-25 L 33,-25 L 33,-28 L 36,-28 L 36,-34 L 33,-34
 L 33,-37 L 31,-37 L 10,-27 L 10,-25 L 18.5,-25 L 18.5,-22
 L 24.5,-22 z
M 53,-25 L 84,-25 L 84,-37 L 40,-37 L 40,-25 L 47,-25
 L 47,-22 L 53,-22 z
M 53.1173,-33.5761 L 52.7929,-33.7929 L 52.5761,-34.1173 L 52.5,-34.5 L 52.5761,-34.8827 L 52.7929,-35.2071
 L 53.1173,-35.4239 L 53.5,-35.5 L 53.8827,-35.4239 L 54.2071,-35.2071 L 54.4239,-34.8827 L 54.5,-34.5
 L 54.4239,-34.1173 L 54.2071,-33.7929 L 53.8827,-33.5761 L 53.5,-33.5 z
M 67.7717,-31.8451 L 67.3661,-32.1161 L 67.0952,-32.5216 L 67,-33 L 67.0952,-33.4783 L 67.3661,-33.8839
 L 67.7717,-34.1548 L 68.25,-34.25 L 68.7284,-34.1548 L 69.1339,-33.8839 L 69.4049,-33.4783 L 69.5,-33
 L 69.4049,-32.5216 L 69.1339,-32.1161 L 68.7284,-31.8451 L 68.25,-31.75 z
M 77.2716,-31.8451 L 76.8661,-32.1161 L 76.5951,-32.5216 L 76.5,-33 L 76.5951,-33.4783 L 76.8661,-33.8839
 L 77.2716,-34.1548 L 77.75,-34.25 L 78.2283,-34.1548 L 78.6339,-33.8839 L 78.9048,-33.4783 L 79,-33
 L 78.9048,-32.5216 L 78.6339,-32.1161 L 78.2283,-31.8451 L 77.75,-31.75 z
M 41.5,-28 L 41.5,-34 L 44.5,-34 L 44.5,-28 z
M 55.5,-28 L 55.5,-34 L 58.5,-34 L 58.5,-28 z
M 49.0433,-28.6903 L 48.2322,-29.2322 L 47.6903,-30.0433 L 47.5,-31 L 47.6903,-31.9567 L 48.2322,-32.7678
 L 49.0433,-33.3097 L 50,-33.5 L 50.9567,-33.3097 L 51.7678,-32.7678 L 52.3097,-31.9567 L 52.5,-31
 L 52.3097,-30.0433 L 51.7678,-29.2322 L 50.9567,-28.6903 L 50,-28.5 z
M 46.1173,-26.5761 L 45.7929,-26.7929 L 45.5761,-27.1173 L 45.5,-27.5 L 45.5761,-27.8827 L 45.7929,-28.2071
 L 46.1173,-28.4239 L 46.5,-28.5 L 46.8827,-28.4239 L 47.2071,-28.2071 L 47.4239,-27.8827 L 47.5,-27.5
 L 47.4239,-27.1173 L 47.2071,-26.7929 L 46.8827,-26.5761 L 46.5,-26.5 z
M 119.5,-20 L 0.5,-20 L 0.5,-0 L 119.5,-0 z
M 102.5,-15.5 L 102.5,-18.5 L 108.5,-18.5 L 108.5,-15.5 z
M 11.5,-15.5 L 11.5,-18.5 L 17.5,-18.5 L 17.5,-15.5 z
M 26,-7 L 26,-13 L 29,-13 L 29,-7 z
M 91,-7 L 91,-13 L 94,-13 L 94,-7 z
M 11.5,-1.5 L 11.5,-4.5 L 17.5,-4.5 L 17.5,-1.5 z
M 102.5,-1.5 L 102.5,-4.5 L 108.5,-4.5 L 108.5,-1.5 z
M 150.5,-15.5 L 139.5,-15.5 L 139.5,-4.5 L 150.5,-4.5 z
M 141.117,-12.5761 L 140.793,-12.7929 L 140.576,-13.1173 L 140.5,-13.5 L 140.576,-13.8827 L 140.793,-14.2071
 L 141.117,-14.4239 L 141.5,-14.5 L 141.883,-14.4239 L 142.207,-14.2071 L 142.424,-13.8827 L 142.5,-13.5
 L 142.424,-13.1173 L 142.207,-12.7929 L 141.883,-12.5761 L 141.5,-12.5 z
M 144.043,-7.69031 L 143.232,-8.23224 L 142.69,-9.0433 L 142.5,-10 L 142.69,-10.9567 L 143.232,-11.7678
 L 144.043,-12.3097 L 145,-12.5 L 145.957,-12.3097 L 146.768,-11.7678 L 147.31,-10.9567 L 147.5,-10
 L 147.31,-9.0433 L 146.768,-8.23224 L 145.957,-7.69031 L 145,-7.5 z
M 148.117,-5.57613 L 147.793,-5.79291 L 147.576,-6.11732 L 147.5,-6.5 L 147.576,-6.88269 L 147.793,-7.20711
 L 148.117,-7.42389 L 148.5,-7.5 L 148.883,-7.42389 L 149.207,-7.20711 L 149.424,-6.88269 L 149.5,-6.5
 L 149.424,-6.11732 L 149.207,-5.79291 L 148.883,-5.57613 L 148.5,-5.5 z
" stroke="black" fill="none" stroke-width="0.5"/></svg>
