<?xml version="1.0" standalone="no"?>
<!DOCTYPE svg PUBLIC "-//W3C//DTD SVG 1.1//EN" "http://www.w3.org/Graphics/SVG/1.1/DTD/svg11.dtd">
<svg width="206" height="112" viewBox="28 -134 206 112" xmlns="http://www.w3.org/2000/svg" version="1.1">
<title>OpenSCAD Model</title>
<path d="
M 153,-105 L 167,-105 L 167,-102 L 181,-102 L 181,-132.397 L 177.803,-131.073
 L 176.655,-133.844 L 163.721,-128.487 L 164.869,-125.715 L 151.934,-120.358 L 150.786,-123.129 L 137.852,-117.772
 L 139,-115 L 139,-102 L 153,-102 z
M 53,-105 L 67,-105 L 67,-102 L 81,-102 L 81,-132.397 L 77.8029,-131.073
 L 76.6549,-133.844 L 63.7206,-128.487 L 64.8686,-125.715 L 51.9343,-120.358 L 50.7863,-123.129 L 37.852,-117.772
 L 39,-115 L 39,-102 L 53,-102 z
M 103,-105 L 117,-105 L 117,-102 L 131,-102 L 131,-132.397 L 127.803,-131.073
 L 126.655,-133.844 L 113.721,-128.487 L 114.869,-125.715 L 101.934,-120.358 L 100.786,-123.129 L 87.852,-117.772
 L 89,-115 L 89,-102 L 103,-102 z
M 209,-103 L 223,-103 L 223,-100 L 230,-100 L 230,-106.667 L 233,-106.667
 L 233,-113.333 L 230,-113.333 L 230,-120 L 223,-120 L 223,-117 L 209,-117
 L 209,-120 L 190,-120 L 190,-100 L 209,-100 z
M 193.197,-110.811 L 192.572,-111.265 L 192.333,-112 L 192.572,-112.735 L 193.197,-113.189 L 193.97,-113.189
 L 194.595,-112.735 L 194.833,-112 L 194.595,-111.265 L 193.97,-110.811 z
M 202.697,-110.811 L 202.072,-111.265 L 201.833,-112 L 202.072,-112.735 L 202.697,-113.189 L 203.47,-113.189
 L 204.095,-112.735 L 204.333,-112 L 204.095,-111.265 L 203.47,-110.811 z
M 186.073,-60.1971 L 188.844,-61.3451 L 183.487,-74.2794 L 180.715,-73.1314 L 175.358,-86.0657 L 178.129,-87.2137
 L 172.772,-100.148 L 170,-99 L 157,-99 L 157,-85 L 160,-85 L 160,-71
 L 157,-71 L 157,-57 L 187.397,-57 z
M 152.985,-97.69 L 97.015,-97.69 L 97.015,-62.31 L 152.985,-62.31 z
M 149.135,-93.1743 L 148.335,-94.56 L 149.135,-95.9456 L 150.735,-95.9456 L 151.535,-94.56 L 150.735,-93.1743
 z
M 121.165,-93.1743 L 120.365,-94.56 L 121.165,-95.9456 L 122.765,-95.9456 L 123.565,-94.56 L 122.765,-93.1743
 z
M 104,-87.345 L 104,-90.345 L 118,-90.345 L 118,-87.345 z
M 132,-87.345 L 132,-90.345 L 146,-90.345 L 146,-87.345 z
M 99.265,-83.2044 L 98.465,-84.59 L 99.265,-85.9756 L 100.865,-85.9756 L 101.665,-84.59 L 100.865,-83.2044
 z
M 127.235,-83.2044 L 126.435,-84.59 L 127.235,-85.9756 L 128.835,-85.9756 L 129.635,-84.59 L 128.835,-83.2044
 z
M 99.265,-73.7944 L 98.465,-75.18 L 99.265,-76.5656 L 100.865,-76.5656 L 101.665,-75.18 L 100.865,-73.7944
 z
M 127.235,-73.7944 L 126.435,-75.18 L 127.235,-76.5656 L 128.835,-76.5656 L 129.635,-75.18 L 128.835,-73.7944
 z
M 104,-69.655 L 104,-72.655 L 118,-72.655 L 118,-69.655 z
M 132,-69.655 L 132,-72.655 L 146,-72.655 L 146,-69.655 z
M 121.165,-63.8244 L 120.365,-65.21 L 121.165,-66.5957 L 122.765,-66.5957 L 123.565,-65.21 L 122.765,-63.8244
 z
M 149.135,-63.8244 L 148.335,-65.21 L 149.135,-66.5957 L 150.735,-66.5957 L 151.535,-65.21 L 150.735,-63.8244
 z
M 91.985,-97.69 L 28.015,-97.69 L 28.015,-62.31 L 91.985,-62.31 z
M 58,-93.69 L 58,-95.69 L 62,-95.69 L 62,-93.69 z
M 85.985,-93.69 L 85.985,-95.69 L 89.985,-95.69 L 89.985,-93.69 z
M 30.015,-93.69 L 30.015,-95.69 L 34.015,-95.69 L 34.015,-93.69 z
M 67,-87.345 L 67,-90.345 L 81,-90.345 L 81,-87.345 z
M 39,-87.345 L 39,-90.345 L 53,-90.345 L 53,-87.345 z
M 57.5898,-74.5054 L 55.9363,-75.5857 L 54.7232,-77.1443 L 54.4294,-78 L 44.0075,-78 L 44.0075,-82
 L 54.4294,-82 L 54.7232,-82.8557 L 55.9363,-84.4143 L 57.5898,-85.4946 L 59.5045,-85.9795 L 61.4729,-85.8164
 L 63.2817,-85.023 L 64.7348,-83.6853 L 65.6469,-82 L 75.9925,-82 L 75.9925,-78 L 65.6469,-78
 L 64.7348,-76.3147 L 63.2817,-74.977 L 61.4729,-74.1836 L 59.5045,-74.0205 z
M 67,-69.655 L 67,-72.655 L 81,-72.655 L 81,-69.655 z
M 39,-69.655 L 39,-72.655 L 53,-72.655 L 53,-69.655 z
M 58,-64.31 L 58,-66.31 L 62,-66.31 L 62,-64.31 z
M 85.985,-64.31 L 85.985,-66.31 L 89.985,-66.31 L 89.985,-64.31 z
M 30.015,-64.31 L 30.015,-66.31 L 34.015,-66.31 L 34.015,-64.31 z
M 209,-78 L 223,-78 L 223,-75 L 230,-75 L 230,-81.6667 L 227,-81.6667
 L 227,-88.3333 L 230,-88.3333 L 230,-95 L 223,-95 L 223,-92 L 209,-92
 L 209,-95 L 190,-95 L 190,-75 L 209,-75 z
M 207.399,-83.2322 L 206.667,-85 L 207.399,-86.7678 L 209.167,-87.5 L 210.934,-86.7678 L 211.667,-85
 L 210.934,-83.2322 L 209.167,-82.5 z
M 194.066,-83.2322 L 193.333,-85 L 194.066,-86.7678 L 195.833,-87.5 L 197.601,-86.7678 L 198.333,-85
 L 197.601,-83.2322 L 195.833,-82.5 z
M 225,-50 L 225,-70 L 215,-70 L 215,-56 L 209,-50 L 195,-50
 L 195,-40 L 215,-40 z
M 220.265,-65.7387 L 219.811,-66.3637 L 219.811,-67.1363 L 220.265,-67.7613 L 221,-68 L 221.735,-67.7613
 L 222.189,-67.1363 L 222.189,-66.3637 L 221.735,-65.7387 L 221,-65.5 z
M 220.265,-56.2387 L 219.811,-56.8637 L 219.811,-57.6363 L 220.265,-58.2613 L 221,-58.5 L 221.735,-58.2613
 L 222.189,-57.6363 L 222.189,-56.8637 L 221.735,-56.2387 L 221,-56 z
M 204.227,-42.6224 L 202.977,-43.5305 L 202.5,-45 L 202.977,-46.4695 L 204.227,-47.3777 L 205.773,-47.3777
 L 207.023,-46.4695 L 207.5,-45 L 207.023,-43.5305 L 205.773,-42.6224 z
M 212,-65 L 192,-65 L 192,-55 L 212,-55 z
M 205.739,-61.2653 L 205.739,-62.7347 L 207.136,-63.1888 L 208,-62 L 207.136,-60.8112 z
M 196.239,-61.2653 L 196.239,-62.7347 L 197.636,-63.1888 L 198.5,-62 L 197.636,-60.8112 z
M 152.985,-57.69 L 97.015,-57.69 L 97.015,-22.31 L 152.985,-22.31 z
M 149.135,-53.1743 L 148.335,-54.56 L 149.135,-55.9456 L 150.735,-55.9456 L 151.535,-54.56 L 150.735,-53.1743
 z
M 121.165,-53.1743 L 120.365,-54.56 L 121.165,-55.9456 L 122.765,-55.9456 L 123.565,-54.56 L 122.765,-53.1743
 z
M 104,-47.345 L 104,-50.345 L 118,-50.345 L 118,-47.345 z
M 132,-47.345 L 132,-50.345 L 146,-50.345 L 146,-47.345 z
M 127.235,-43.2044 L 126.435,-44.59 L 127.235,-45.9756 L 128.835,-45.9756 L 129.635,-44.59 L 128.835,-43.2044
 z
M 99.265,-43.2044 L 98.465,-44.59 L 99.265,-45.9756 L 100.865,-45.9756 L 101.665,-44.59 L 100.865,-43.2044
 z
M 127.235,-33.7944 L 126.435,-35.18 L 127.235,-36.5656 L 128.835,-36.5656 L 129.635,-35.18 L 128.835,-33.7944
 z
M 99.265,-33.7944 L 98.465,-35.18 L 99.265,-36.5656 L 100.865,-36.5656 L 101.665,-35.18 L 100.865,-33.7944
 z
M 104,-29.655 L 104,-32.655 L 118,-32.655 L 118,-29.655 z
M 132,-29.655 L 132,-32.655 L 146,-32.655 L 146,-29.655 z
M 149.135,-23.8244 L 148.335,-25.21 L 149.135,-26.5957 L 150.735,-26.5957 L 151.535,-25.21 L 150.735,-23.8244
 z
M 121.165,-23.8244 L 120.365,-25.21 L 121.165,-26.5957 L 122.765,-26.5957 L 123.565,-25.21 L 122.765,-23.8244
 z
M 91.985,-57.69 L 28.015,-57.69 L 28.015,-22.31 L 91.985,-22.31 z
M 30.015,-53.69 L 30.015,-55.69 L 34.015,-55.69 L 34.015,-53.69 z
M 85.985,-53.69 L 85.985,-55.69 L 89.985,-55.69 L 89.985,-53.69 z
M 58,-53.69 L 58,-55.69 L 62,-55.69 L 62,-53.69 z
M 67,-47.345 L 67,-50.345 L 81,-50.345 L 81,-47.345 z
M 39,-47.345 L 39,-50.345 L 53,-50.345 L 53,-47.345 z
M 57.5898,-34.5054 L 55.9363,-35.5857 L 54.7232,-37.1443 L 54.4294,-38 L 44.0075,-38 L 44.0075,-42
 L 54.4294,-42 L 54.7232,-42.8557 L 55.9363,-44.4143 L 57.5898,-45.4946 L 59.5045,-45.9795 L 61.4729,-45.8164
 L 63.2817,-45.023 L 64.7348,-43.6853 L 65.6469,-42 L 75.9925,-42 L 75.9925,-38 L 65.6469,-38
 L 64.7348,-36.3147 L 63.2817,-34.977 L 61.4729,-34.1836 L 59.5045,-34.0205 z
M 67,-29.655 L 67,-32.655 L 81,-32.655 L 81,-29.655 z
M 39,-29.655 L 39,-32.655 L 53,-32.655 L 53,-29.655 z
M 58,-24.31 L 58,-26.31 L 62,-26.31 L 62,-24.31 z
M 85.985,-24.31 L 85.985,-26.31 L 89.985,-26.31 L 89.985,-24.31 z
M 30.015,-24.31 L 30.015,-26.31 L 34.015,-26.31 L 34.015,-24.31 z
M 170,-38 L 176,-44 L 190,-44 L 190,-54 L 170,-54 L 160,-44
 L 160,-24 L 170,-24 z
M 179.227,-46.6223 L 177.977,-47.5305 L 177.5,-49 L 177.977,-50.4695 L 179.227,-51.3776 L 180.773,-51.3776
 L 182.023,-50.4695 L 182.5,-49 L 182.023,-47.5305 L 180.773,-46.6223 z
M 163.265,-35.7387 L 162.811,-36.3637 L 162.811,-37.1363 L 163.265,-37.7613 L 164,-38 L 164.735,-37.7613
 L 165.189,-37.1363 L 165.189,-36.3637 L 164.735,-35.7387 L 164,-35.5 z
M 163.265,-26.2387 L 162.811,-26.8637 L 162.811,-27.6363 L 163.265,-28.2613 L 164,-28.5 L 164.735,-28.2613
 L 165.189,-27.6363 L 165.189,-26.8637 L 164.735,-26.2387 L 164,-26 z
M 224,-30 L 231,-30 L 231,-37 L 234,-37 L 234,-51 L 231,-51
 L 210,-30 L 210,-27 L 224,-27 z
M 195,-37 L 175,-37 L 175,-27 L 195,-27 z
M 179.239,-33.2653 L 179.239,-34.7347 L 180.636,-35.1888 L 181.5,-34 L 180.636,-32.8112 z
M 188.739,-33.2653 L 188.739,-34.7347 L 190.136,-35.1888 L 191,-34 L 190.136,-32.8112 z
" stroke="black" fill="lightgray" stroke-width="0.5"/></svg>
