G04 ( created by brdgerber.py ( brdgerber.py v0.1 2014-03-12 ) ) date 2021-04-12 03:42:30 EDT*
G04 Gerber Fmt 3.4, Leading zero omitted, Abs format*
%MOIN*%
%FSLAX34Y34*%
G01*
G70*
G90*
G04 APERTURE LIST*
%ADD39R,0.0600X0.0800*%
%ADD16C,0.0100*%
%ADD13C,0.0050*%
%ADD35R,0.0800X0.0600*%
%ADD31C,0.0047*%
%ADD22R,0.0260X0.0800*%
%ADD41C,0.0150*%
%ADD34C,0.1500*%
%ADD36C,0.0471*%
%ADD28C,0.0000*%
%ADD33R,0.0787X0.0177*%
%ADD25R,0.0472X0.0275*%
%ADD27R,0.0709X0.0629*%
%ADD21R,0.0629X0.0709*%
%ADD29C,0.0059*%
%ADD26C,0.0012*%
%ADD20C,0.0472*%
%ADD12R,0.0866X0.0236*%
%ADD38C,0.1200*%
%ADD10C,0.0400*%
%ADD32R,0.0177X0.0787*%
%ADD40C,0.1600*%
%ADD19C,0.0120*%
%ADD30R,0.0945X0.1575*%
%ADD23C,0.0020*%
%ADD14C,0.0080*%
%ADD18C,0.0550*%
%ADD11C,0.0200*%
%ADD37R,0.0760X0.2100*%
%ADD15C,0.0060*%
%ADD24C,0.0160*%
%ADD17R,0.0550X0.0550*%
G04 APERTURE END LIST*
G54D39*
D10*
G01X-03550Y19150D02*
G01X-03600Y19150D01*
D17*
X23600Y24950D03*
D18*
X24600Y24950D03*
D10*
G01X03000Y21950D02*
G01X02450Y21400D01*
D20*
X13100Y20600D03*
D20*
X09700Y24350D03*
D11*
G01X13100Y18900D02*
G01X13050Y18850D01*
D17*
X15450Y13800D03*
D18*
X16450Y13800D03*
D18*
X17450Y13800D03*
D18*
X18450Y13800D03*
D11*
G01X13100Y20600D02*
G01X13100Y18900D01*
D11*
G01X14150Y14950D02*
G01X14450Y14650D01*
D11*
G01X08450Y15300D02*
G01X08450Y14800D01*
D10*
G01X02450Y21400D02*
G01X01450Y21400D01*
D20*
X07700Y16050D03*
D10*
G01X-00950Y21500D02*
G01X-00950Y20700D01*
D10*
G01X04200Y21950D02*
G01X03000Y21950D01*
D17*
X25450Y16000D03*
D18*
X25450Y15000D03*
D18*
X25450Y14000D03*
D10*
G01X-00550Y21900D02*
G01X-00950Y21500D01*
D11*
G01X07700Y16050D02*
G01X08450Y15300D01*
D17*
X15700Y25050D03*
D18*
X16700Y25050D03*
D18*
X17700Y25050D03*
D10*
G01X00950Y21900D02*
G01X-00550Y21900D01*
D10*
G01X07950Y22600D02*
G01X09700Y24350D01*
D24*
G01X24750Y23350D02*
G01X24750Y23650D01*
D17*
X04500Y23650D03*
D18*
X05500Y23650D03*
D17*
X-03600Y20150D03*
D18*
X-03600Y19150D03*
D18*
X-03600Y18150D03*
D20*
X13050Y18300D03*
D10*
G01X-03600Y18150D02*
G01X-02850Y18150D01*
D20*
X09750Y16800D03*
D20*
X08450Y14800D03*
D11*
G01X13050Y18850D02*
G01X13050Y18300D01*
D17*
X25450Y19850D03*
D18*
X25450Y18850D03*
D18*
X25450Y17850D03*
D10*
G01X09350Y17200D02*
G01X09750Y16800D01*
D10*
G01X05850Y17200D02*
G01X09350Y17200D01*
D10*
G01X-02850Y18150D02*
G01X-01250Y16550D01*
D10*
G01X05200Y16550D02*
G01X05850Y17200D01*
D34*
G01X05740Y19200D02*
G01X05740Y19200D01*
D34*
G01X02000Y22940D02*
G01X02000Y22940D01*
D34*
G01X-01740Y19200D02*
G01X-01740Y19200D01*
D34*
G01X02000Y15460D02*
G01X02000Y15460D01*
D24*
G01X23850Y22450D02*
G01X24750Y23350D01*
D10*
G01X04800Y21350D02*
G01X04200Y21950D01*
D10*
G01X-01300Y20350D02*
G01X-02350Y20350D01*
D10*
G01X03600Y23050D02*
G01X04050Y22600D01*
D24*
G01X23850Y21300D02*
G01X23850Y22450D01*
D24*
G01X23550Y21000D02*
G01X23850Y21300D01*
D24*
G01X23550Y20000D02*
G01X23550Y21000D01*
D24*
G01X22200Y18650D02*
G01X23550Y20000D01*
D10*
G01X01450Y21400D02*
G01X00950Y21900D01*
D10*
G01X-01250Y16550D02*
G01X05200Y16550D01*
D10*
G01X-02350Y20350D02*
G01X-03550Y19150D01*
D36*
G01X24750Y23650D02*
G01X24750Y23650D01*
D36*
G01X25750Y23650D02*
G01X25750Y23650D01*
D36*
G01X24750Y22650D02*
G01X24750Y22650D01*
D36*
G01X25750Y22650D02*
G01X25750Y22650D01*
D36*
G01X24750Y21650D02*
G01X24750Y21650D01*
D36*
G01X25750Y21650D02*
G01X25750Y21650D01*
D20*
X11500Y24350D03*
D11*
G01X11500Y24350D02*
G01X11550Y24400D01*
D11*
G01X11550Y24400D02*
G01X16050Y24400D01*
D11*
G01X16050Y24400D02*
G01X16700Y25050D01*
D10*
G01X-00950Y20700D02*
G01X-01300Y20350D01*
D10*
G01X03600Y23200D02*
G01X03600Y23050D01*
D10*
G01X-03600Y20450D02*
G01X00100Y24150D01*
D10*
G01X00100Y24150D02*
G01X02650Y24150D01*
D10*
G01X-03600Y20150D02*
G01X-03600Y20450D01*
D10*
G01X02650Y24150D02*
G01X03600Y23200D01*
D38*
G01X00330Y17530D02*
G01X00330Y17530D01*
D38*
G01X03670Y17530D02*
G01X03670Y17530D01*
D38*
G01X03670Y20870D02*
G01X03670Y20870D01*
D38*
G01X00330Y20870D02*
G01X00330Y20870D01*
D24*
G01X19350Y14550D02*
G01X19350Y15100D01*
D24*
G01X19500Y14400D02*
G01X19350Y14550D01*
D20*
X19500Y14400D03*
D11*
G01X22750Y24100D02*
G01X23600Y24950D01*
D40*
X02000Y11000D03*
D40*
X11000Y11000D03*
D20*
X24500Y16650D03*
D24*
G01X24500Y16650D02*
G01X24750Y16900D01*
D24*
G01X24750Y16900D02*
G01X24750Y21650D01*
D24*
G01X20250Y18000D02*
G01X23100Y20850D01*
D24*
G01X23100Y20850D02*
G01X23100Y22600D01*
D24*
G01X24200Y22100D02*
G01X24750Y22650D01*
D24*
G01X24200Y20600D02*
G01X24200Y22100D01*
D24*
G01X23900Y20300D02*
G01X24200Y20600D01*
D24*
G01X23900Y16150D02*
G01X23900Y20300D01*
D24*
G01X22850Y15100D02*
G01X23900Y16150D01*
D24*
G01X19350Y15100D02*
G01X22850Y15100D01*
D11*
G01X22750Y23700D02*
G01X22750Y24100D01*
D24*
G01X21650Y18650D02*
G01X22200Y18650D01*
D20*
X10350Y24350D03*
D10*
G01X10350Y24350D02*
G01X10400Y24300D01*
D10*
G01X10400Y24300D02*
G01X10400Y22050D01*
D10*
G01X10400Y22050D02*
G01X09700Y21350D01*
D10*
G01X09700Y21350D02*
G01X04800Y21350D01*
D10*
G01X04050Y22600D02*
G01X07950Y22600D01*
D20*
X01950Y20700D03*
D11*
G01X01950Y20700D02*
G01X02150Y20700D01*
D11*
G01X02150Y20700D02*
G01X03000Y19850D01*
D11*
G01X03000Y19850D02*
G01X04500Y19850D01*
D11*
G01X04500Y19850D02*
G01X05500Y20850D01*
D11*
G01X05500Y20850D02*
G01X10350Y20850D01*
D11*
G01X10350Y20850D02*
G01X11000Y21500D01*
D11*
G01X11000Y21500D02*
G01X17450Y21500D01*
D11*
G01X17450Y21500D02*
G01X19650Y23700D01*
D11*
G01X19650Y23700D02*
G01X22750Y23700D01*
D20*
X03500Y24150D03*
D11*
G01X03500Y24150D02*
G01X03750Y24400D01*
D11*
G01X03750Y24400D02*
G01X04750Y24400D01*
D11*
G01X04750Y24400D02*
G01X05500Y23650D01*
D20*
X14100Y18000D03*
D11*
G01X14100Y18000D02*
G01X14300Y18200D01*
D11*
G01X14300Y18200D02*
G01X16200Y18200D01*
D20*
X16200Y18200D03*
D20*
X18900Y14700D03*
D24*
G01X18900Y14700D02*
G01X18900Y15150D01*
D24*
G01X18900Y15150D02*
G01X19500Y15750D01*
D24*
G01X19500Y15750D02*
G01X20150Y15750D01*
D24*
G01X20150Y15750D02*
G01X21350Y16950D01*
D24*
G01X21350Y16950D02*
G01X21350Y18350D01*
D24*
G01X21350Y18350D02*
G01X21650Y18650D01*
D20*
X18400Y15100D03*
D24*
G01X18400Y15100D02*
G01X17450Y14150D01*
D24*
G01X17450Y14150D02*
G01X17450Y13800D01*
D20*
X17400Y17950D03*
D11*
G01X17400Y17950D02*
G01X17450Y17900D01*
D20*
X10150Y25000D03*
D11*
G01X10150Y25000D02*
G01X10650Y25000D01*
D11*
G01X10650Y25000D02*
G01X10950Y24700D01*
D11*
G01X10950Y24700D02*
G01X10950Y23900D01*
D11*
G01X10950Y23900D02*
G01X11200Y23650D01*
D11*
G01X11200Y23650D02*
G01X13900Y23650D01*
D11*
G01X13900Y23650D02*
G01X14000Y23750D01*
D20*
X14000Y23750D03*
D20*
X17300Y19050D03*
D11*
G01X17300Y19050D02*
G01X17300Y18800D01*
D11*
G01X17300Y18800D02*
G01X16650Y18150D01*
D11*
G01X16650Y18150D02*
G01X16650Y15000D01*
D11*
G01X16650Y15000D02*
G01X15450Y13800D01*
D20*
X14450Y13900D03*
D11*
G01X14450Y14650D02*
G01X14450Y13900D01*
D20*
X09950Y15700D03*
D11*
G01X09950Y15700D02*
G01X10200Y15700D01*
D11*
G01X10200Y15700D02*
G01X10950Y14950D01*
D11*
G01X10950Y14950D02*
G01X14150Y14950D01*
D20*
X07150Y14000D03*
D11*
G01X07150Y14000D02*
G01X08000Y13150D01*
D24*
G01X18900Y19800D02*
G01X18900Y19400D01*
D11*
G01X22800Y13150D02*
G01X23750Y14100D01*
D20*
X23750Y14100D03*
D20*
X23900Y12850D03*
D11*
G01X23900Y12850D02*
G01X24500Y13450D01*
D11*
G01X24500Y13450D02*
G01X24500Y15050D01*
D11*
G01X24500Y15050D02*
G01X25450Y16000D01*
D20*
X06000Y20350D03*
D11*
G01X06000Y20350D02*
G01X06050Y20300D01*
D11*
G01X06050Y20300D02*
G01X11800Y20300D01*
D11*
G01X11800Y20300D02*
G01X12600Y21100D01*
D11*
G01X12600Y21100D02*
G01X14050Y21100D01*
D11*
G01X14050Y21100D02*
G01X14800Y20350D01*
D20*
X14800Y20350D03*
D20*
X13050Y23150D03*
D11*
G01X13050Y23150D02*
G01X13150Y23250D01*
D11*
G01X13150Y23250D02*
G01X14450Y23250D01*
D11*
G01X14450Y23250D02*
G01X15100Y23900D01*
D20*
X15100Y23900D03*
D20*
X17200Y16000D03*
D24*
G01X17200Y16000D02*
G01X17200Y16900D01*
D24*
G01X17200Y16900D02*
G01X17450Y17150D01*
D24*
G01X17450Y17150D02*
G01X17450Y17900D01*
D20*
X18450Y16600D03*
D24*
G01X18450Y16600D02*
G01X18050Y16200D01*
D24*
G01X18050Y16200D02*
G01X18050Y16100D01*
D24*
G01X18050Y16100D02*
G01X17400Y15450D01*
D24*
G01X17400Y15450D02*
G01X16650Y15450D01*
D20*
X08950Y15550D03*
D24*
G01X08950Y15550D02*
G01X09550Y16150D01*
D24*
G01X09550Y16150D02*
G01X12050Y16150D01*
D24*
G01X12050Y16150D02*
G01X13500Y17600D01*
D24*
G01X13500Y17600D02*
G01X13500Y18200D01*
D24*
G01X13500Y18200D02*
G01X14900Y19600D01*
D24*
G01X14900Y19600D02*
G01X17650Y19600D01*
D20*
X17950Y17100D03*
D24*
G01X17900Y17150D02*
G01X17950Y17100D01*
D20*
X18900Y17900D03*
D24*
G01X18900Y17900D02*
G01X18900Y19400D01*
D24*
G01X17650Y19600D02*
G01X17650Y20950D01*
D24*
G01X17650Y20950D02*
G01X19150Y22450D01*
D24*
G01X19150Y22450D02*
G01X19150Y22500D01*
D20*
X19150Y22500D03*
D24*
G01X17650Y19600D02*
G01X17650Y19300D01*
D24*
G01X17650Y19300D02*
G01X17800Y19150D01*
D24*
G01X17800Y19150D02*
G01X17800Y18200D01*
D24*
G01X17800Y18200D02*
G01X17900Y18100D01*
D24*
G01X17900Y18100D02*
G01X17900Y17150D01*
D20*
X18350Y17550D03*
D24*
G01X18350Y17550D02*
G01X18350Y18100D01*
D24*
G01X18350Y18100D02*
G01X18100Y18350D01*
D24*
G01X18100Y18350D02*
G01X18100Y19550D01*
D24*
G01X18100Y19550D02*
G01X18100Y19950D01*
D20*
X18100Y19950D03*
D20*
X16850Y22000D03*
D24*
G01X16850Y22000D02*
G01X16850Y22100D01*
D24*
G01X16850Y22100D02*
G01X16700Y22250D01*
D24*
G01X16700Y22250D02*
G01X16700Y25050D01*
D20*
X19100Y20000D03*
D24*
G01X19100Y20000D02*
G01X18900Y19800D01*
D20*
X19750Y19650D03*
D24*
G01X19750Y19650D02*
G01X19600Y19500D01*
D24*
G01X19600Y19500D02*
G01X19600Y16850D01*
D24*
G01X19600Y16850D02*
G01X18400Y15650D01*
D24*
G01X18400Y15650D02*
G01X18150Y15650D01*
D24*
G01X18150Y15650D02*
G01X16950Y14450D01*
D24*
G01X16950Y14450D02*
G01X16950Y13450D01*
D24*
G01X16950Y13450D02*
G01X17100Y13300D01*
D24*
G01X17100Y13300D02*
G01X17950Y13300D01*
D24*
G01X17950Y13300D02*
G01X18450Y13800D01*
D11*
G01X08000Y13150D02*
G01X16700Y13150D01*
D11*
G01X16700Y13150D02*
G01X17100Y12750D01*
D11*
G01X17100Y12750D02*
G01X22400Y12750D01*
D11*
G01X22400Y12750D02*
G01X22800Y13150D01*
D11*
G01X26350Y22250D02*
G01X25750Y21650D01*
D20*
X18850Y24900D03*
D11*
G01X18850Y24900D02*
G01X18850Y25000D01*
D11*
G01X18850Y25000D02*
G01X18250Y25600D01*
D11*
G01X18250Y25600D02*
G01X14900Y25600D01*
D11*
G01X14900Y25600D02*
G01X14300Y25000D01*
D20*
X14300Y25000D03*
D20*
X20250Y16800D03*
D24*
G01X20250Y16800D02*
G01X20250Y18000D01*
D24*
G01X23100Y22600D02*
G01X23100Y23000D01*
D24*
G01X23100Y23000D02*
G01X23400Y23300D01*
D20*
X23400Y23300D03*
D20*
X05000Y14700D03*
D24*
G01X05000Y14700D02*
G01X05700Y14000D01*
D24*
G01X05700Y14000D02*
G01X07150Y14000D01*
D11*
G01X26350Y22250D02*
G01X26350Y22900D01*
D11*
G01X26350Y22900D02*
G01X26100Y23150D01*
D11*
G01X26100Y23150D02*
G01X25450Y23150D01*
D11*
G01X25450Y23150D02*
G01X25250Y23350D01*
D11*
G01X25250Y23350D02*
G01X25250Y24300D01*
D11*
G01X25250Y24300D02*
G01X24600Y24950D01*
D40*
X02000Y27000D03*
D40*
X21000Y27000D03*
D40*
X11000Y27000D03*
D40*
X21000Y11000D03*
M02*
