<?xml version="1.0" standalone="no"?>
<!DOCTYPE svg PUBLIC "-//W3C//DTD SVG 1.1//EN" "http://www.w3.org/Graphics/SVG/1.1/DTD/svg11.dtd">
<svg width="187" height="126" viewBox="28 -145 187 126" xmlns="http://www.w3.org/2000/svg" version="1.1">
<title>OpenSCAD Model</title>
<path d="
M 45,-111 L 47.4486,-111 L 47.4353,-111.03 L 47.4353,-112.97 L 48.2246,-114.743 L 49.6667,-116.041
 L 51.5122,-116.641 L 53.4421,-116.438 L 55.1226,-115.468 L 56.2632,-113.898 L 56.6667,-112 L 56.4541,-111
 L 59,-111 L 59,-108 L 73,-108 L 73,-143 L 61,-143 L 60.6985,-142.698
 L 58.5772,-144.82 L 48.6777,-134.92 L 50.799,-132.799 L 40.8995,-122.9 L 38.7782,-125.021 L 28.8787,-115.121
 L 31,-113 L 31,-108 L 45,-108 z
M 148,-111 L 150.449,-111 L 150.435,-111.03 L 150.435,-112.97 L 151.225,-114.743 L 152.667,-116.041
 L 154.512,-116.641 L 156.442,-116.438 L 158.123,-115.468 L 159.263,-113.898 L 159.667,-112 L 159.454,-111
 L 162,-111 L 162,-108 L 176,-108 L 176,-143 L 164,-143 L 163.698,-142.698
 L 161.577,-144.82 L 151.678,-134.92 L 153.799,-132.799 L 143.899,-122.9 L 141.778,-125.021 L 131.879,-115.121
 L 134,-113 L 134,-108 L 148,-108 z
M 95.75,-111 L 98.1986,-111 L 98.1853,-111.03 L 98.1853,-112.97 L 98.9746,-114.743 L 100.417,-116.041
 L 102.262,-116.641 L 104.192,-116.438 L 105.873,-115.468 L 107.013,-113.898 L 107.417,-112 L 107.204,-111
 L 109.75,-111 L 109.75,-108 L 123.75,-108 L 123.75,-143 L 111.75,-143 L 111.448,-142.698
 L 109.327,-144.82 L 99.4277,-134.92 L 101.549,-132.799 L 91.6495,-122.9 L 89.5282,-125.021 L 79.6287,-115.121
 L 81.75,-113 L 81.75,-108 L 95.75,-108 z
M 203,-115 L 183,-115 L 183,-105 L 203,-105 z
M 187.772,-110.845 L 187.366,-111.116 L 187.095,-111.522 L 187,-112 L 187.095,-112.478 L 187.366,-112.884
 L 187.772,-113.155 L 188.25,-113.25 L 188.728,-113.155 L 189.134,-112.884 L 189.405,-112.478 L 189.5,-112
 L 189.405,-111.522 L 189.134,-111.116 L 188.728,-110.845 L 188.25,-110.75 z
M 197.272,-110.845 L 196.866,-111.116 L 196.595,-111.522 L 196.5,-112 L 196.595,-112.478 L 196.866,-112.884
 L 197.272,-113.155 L 197.75,-113.25 L 198.228,-113.155 L 198.634,-112.884 L 198.905,-112.478 L 199,-112
 L 198.905,-111.522 L 198.634,-111.116 L 198.228,-110.845 L 197.75,-110.75 z
M 123.97,-105.69 L 28.015,-105.69 L 28.015,-64.31 L 123.97,-64.31 z
M 57.625,-101.69 L 57.625,-103.69 L 62.375,-103.69 L 62.375,-101.69 z
M 85.61,-101.69 L 85.61,-103.69 L 90.36,-103.69 L 90.36,-101.69 z
M 29.64,-101.69 L 29.64,-103.69 L 34.39,-103.69 L 34.39,-101.69 z
M 69,-92.345 L 69,-95.345 L 83,-95.345 L 83,-92.345 z
M 97,-92.345 L 97,-95.345 L 111,-95.345 L 111,-92.345 z
M 57.7039,-79.4567 L 55.7574,-80.7574 L 54.4567,-82.7039 L 54.3978,-83 L 44.0075,-83 L 44.0075,-87
 L 54.3978,-87 L 54.4567,-87.2961 L 55.7574,-89.2426 L 57.7039,-90.5433 L 60,-91 L 62.2961,-90.5433
 L 64.2426,-89.2426 L 65.5433,-87.2961 L 65.6022,-87 L 75.9925,-87 L 75.9925,-83 L 65.6022,-83
 L 65.5433,-82.7039 L 64.2426,-80.7574 L 62.2961,-79.4567 L 60,-79 z
M 97,-74.655 L 97,-77.655 L 111,-77.655 L 111,-74.655 z
M 69,-74.655 L 69,-77.655 L 83,-77.655 L 83,-74.655 z
M 57.625,-66.31 L 57.625,-68.31 L 62.375,-68.31 L 62.375,-66.31 z
M 29.64,-66.31 L 29.64,-68.31 L 34.39,-68.31 L 34.39,-66.31 z
M 85.61,-66.31 L 85.61,-68.31 L 90.36,-68.31 L 90.36,-66.31 z
M 173.235,-102.69 L 127.265,-102.69 L 127.265,-67.31 L 173.235,-67.31 z
M 151.603,-98.0818 L 151.084,-98.4286 L 150.737,-98.9477 L 150.615,-99.56 L 150.737,-100.172 L 151.084,-100.691
 L 151.603,-101.038 L 152.215,-101.16 L 152.827,-101.038 L 153.346,-100.691 L 153.693,-100.172 L 153.815,-99.56
 L 153.693,-98.9477 L 153.346,-98.4286 L 152.827,-98.0818 L 152.215,-97.96 z
M 160.588,-98.0818 L 160.069,-98.4286 L 159.722,-98.9477 L 159.6,-99.56 L 159.722,-100.172 L 160.069,-100.691
 L 160.588,-101.038 L 161.2,-101.16 L 161.812,-101.038 L 162.331,-100.691 L 162.678,-100.172 L 162.8,-99.56
 L 162.678,-98.9477 L 162.331,-98.4286 L 161.812,-98.0818 L 161.2,-97.96 z
M 169.573,-98.0818 L 169.054,-98.4286 L 168.707,-98.9477 L 168.585,-99.56 L 168.707,-100.172 L 169.054,-100.691
 L 169.573,-101.038 L 170.185,-101.16 L 170.797,-101.038 L 171.316,-100.691 L 171.663,-100.172 L 171.785,-99.56
 L 171.663,-98.9477 L 171.316,-98.4286 L 170.797,-98.0818 L 170.185,-97.96 z
M 129.25,-92.345 L 129.25,-95.345 L 143.25,-95.345 L 143.25,-92.345 z
M 157.25,-92.345 L 157.25,-95.345 L 171.25,-95.345 L 171.25,-92.345 z
M 138.688,-88.1118 L 138.169,-88.4586 L 137.822,-88.9777 L 137.7,-89.59 L 137.822,-90.2023 L 138.169,-90.7214
 L 138.688,-91.0682 L 139.3,-91.19 L 139.912,-91.0682 L 140.431,-90.7214 L 140.778,-90.2023 L 140.9,-89.59
 L 140.778,-88.9777 L 140.431,-88.4586 L 139.912,-88.1118 L 139.3,-87.99 z
M 147.673,-88.1118 L 147.154,-88.4586 L 146.807,-88.9777 L 146.685,-89.59 L 146.807,-90.2023 L 147.154,-90.7214
 L 147.673,-91.0682 L 148.285,-91.19 L 148.897,-91.0682 L 149.416,-90.7214 L 149.763,-90.2023 L 149.885,-89.59
 L 149.763,-88.9777 L 149.416,-88.4586 L 148.897,-88.1118 L 148.285,-87.99 z
M 129.703,-88.1118 L 129.184,-88.4586 L 128.837,-88.9777 L 128.715,-89.59 L 128.837,-90.2023 L 129.184,-90.7214
 L 129.703,-91.0682 L 130.315,-91.19 L 130.927,-91.0682 L 131.446,-90.7214 L 131.793,-90.2023 L 131.915,-89.59
 L 131.793,-88.9777 L 131.446,-88.4586 L 130.927,-88.1118 L 130.315,-87.99 z
M 147.673,-78.7018 L 147.154,-79.0486 L 146.807,-79.5677 L 146.685,-80.18 L 146.807,-80.7923 L 147.154,-81.3114
 L 147.673,-81.6582 L 148.285,-81.78 L 148.897,-81.6582 L 149.416,-81.3114 L 149.763,-80.7923 L 149.885,-80.18
 L 149.763,-79.5677 L 149.416,-79.0486 L 148.897,-78.7018 L 148.285,-78.58 z
M 129.703,-78.7018 L 129.184,-79.0486 L 128.837,-79.5677 L 128.715,-80.18 L 128.837,-80.7923 L 129.184,-81.3114
 L 129.703,-81.6582 L 130.315,-81.78 L 130.927,-81.6582 L 131.446,-81.3114 L 131.793,-80.7923 L 131.915,-80.18
 L 131.793,-79.5677 L 131.446,-79.0486 L 130.927,-78.7018 L 130.315,-78.58 z
M 138.688,-78.7018 L 138.169,-79.0486 L 137.822,-79.5677 L 137.7,-80.18 L 137.822,-80.7923 L 138.169,-81.3114
 L 138.688,-81.6582 L 139.3,-81.78 L 139.912,-81.6582 L 140.431,-81.3114 L 140.778,-80.7923 L 140.9,-80.18
 L 140.778,-79.5677 L 140.431,-79.0486 L 139.912,-78.7018 L 139.3,-78.58 z
M 129.25,-74.655 L 129.25,-77.655 L 143.25,-77.655 L 143.25,-74.655 z
M 157.25,-74.655 L 157.25,-77.655 L 171.25,-77.655 L 171.25,-74.655 z
M 151.603,-68.7318 L 151.084,-69.0786 L 150.737,-69.5977 L 150.615,-70.21 L 150.737,-70.8223 L 151.084,-71.3414
 L 151.603,-71.6882 L 152.215,-71.81 L 152.827,-71.6882 L 153.346,-71.3414 L 153.693,-70.8223 L 153.815,-70.21
 L 153.693,-69.5977 L 153.346,-69.0786 L 152.827,-68.7318 L 152.215,-68.61 z
M 160.588,-68.7318 L 160.069,-69.0786 L 159.722,-69.5977 L 159.6,-70.21 L 159.722,-70.8223 L 160.069,-71.3414
 L 160.588,-71.6882 L 161.2,-71.81 L 161.812,-71.6882 L 162.331,-71.3414 L 162.678,-70.8223 L 162.8,-70.21
 L 162.678,-69.5977 L 162.331,-69.0786 L 161.812,-68.7318 L 161.2,-68.61 z
M 169.573,-68.7318 L 169.054,-69.0786 L 168.707,-69.5977 L 168.585,-70.21 L 168.707,-70.8223 L 169.054,-71.3414
 L 169.573,-71.6882 L 170.185,-71.81 L 170.797,-71.6882 L 171.316,-71.3414 L 171.663,-70.8223 L 171.785,-70.21
 L 171.663,-69.5977 L 171.316,-69.0786 L 170.797,-68.7318 L 170.185,-68.61 z
M 203,-95 L 183,-95 L 183,-85 L 203,-85 z
M 197.272,-90.8451 L 196.866,-91.1161 L 196.595,-91.5216 L 196.5,-92 L 196.595,-92.4783 L 196.866,-92.8839
 L 197.272,-93.1548 L 197.75,-93.25 L 198.228,-93.1548 L 198.634,-92.8839 L 198.905,-92.4783 L 199,-92
 L 198.905,-91.5216 L 198.634,-91.1161 L 198.228,-90.8451 L 197.75,-90.75 z
M 187.772,-90.8451 L 187.366,-91.1161 L 187.095,-91.5216 L 187,-92 L 187.095,-92.4783 L 187.366,-92.8839
 L 187.772,-93.1548 L 188.25,-93.25 L 188.728,-93.1548 L 189.134,-92.8839 L 189.405,-92.4783 L 189.5,-92
 L 189.405,-91.5216 L 189.134,-91.1161 L 188.728,-90.8451 L 188.25,-90.75 z
M 212.5,-29 L 212.5,-41 L 212.198,-41.3015 L 214.32,-43.4228 L 204.42,-53.3223 L 202.299,-51.201
 L 192.4,-61.1005 L 194.521,-63.2218 L 184.621,-73.1213 L 182.5,-71 L 177.5,-71 L 177.5,-57
 L 180.5,-57 L 180.5,-54.5514 L 180.53,-54.5647 L 182.47,-54.5647 L 184.243,-53.7754 L 185.541,-52.3333
 L 186.141,-50.4878 L 185.938,-48.5579 L 184.968,-46.8774 L 183.398,-45.7368 L 181.5,-45.3333 L 180.5,-45.5459
 L 180.5,-43 L 177.5,-43 L 177.5,-29 z
M 123.97,-60.69 L 28.015,-60.69 L 28.015,-19.31 L 123.97,-19.31 z
M 29.64,-56.69 L 29.64,-58.69 L 34.39,-58.69 L 34.39,-56.69 z
M 85.61,-56.69 L 85.61,-58.69 L 90.36,-58.69 L 90.36,-56.69 z
M 57.625,-56.69 L 57.625,-58.69 L 62.375,-58.69 L 62.375,-56.69 z
M 97,-47.345 L 97,-50.345 L 111,-50.345 L 111,-47.345 z
M 69,-47.345 L 69,-50.345 L 83,-50.345 L 83,-47.345 z
M 57.7039,-34.4567 L 55.7574,-35.7574 L 54.4567,-37.7039 L 54.3978,-38 L 44.0075,-38 L 44.0075,-42
 L 54.3978,-42 L 54.4567,-42.2961 L 55.7574,-44.2426 L 57.7039,-45.5433 L 60,-46 L 62.2961,-45.5433
 L 64.2426,-44.2426 L 65.5433,-42.2961 L 65.6022,-42 L 75.9925,-42 L 75.9925,-38 L 65.6022,-38
 L 65.5433,-37.7039 L 64.2426,-35.7574 L 62.2961,-34.4567 L 60,-34 z
M 97,-29.655 L 97,-32.655 L 111,-32.655 L 111,-29.655 z
M 69,-29.655 L 69,-32.655 L 83,-32.655 L 83,-29.655 z
M 29.64,-21.31 L 29.64,-23.31 L 34.39,-23.31 L 34.39,-21.31 z
M 85.61,-21.31 L 85.61,-23.31 L 90.36,-23.31 L 90.36,-21.31 z
M 57.625,-21.31 L 57.625,-23.31 L 62.375,-23.31 L 62.375,-21.31 z
M 173.235,-57.69 L 127.265,-57.69 L 127.265,-22.31 L 173.235,-22.31 z
M 169.573,-53.0818 L 169.054,-53.4286 L 168.707,-53.9477 L 168.585,-54.56 L 168.707,-55.1723 L 169.054,-55.6913
 L 169.573,-56.0382 L 170.185,-56.16 L 170.797,-56.0382 L 171.316,-55.6913 L 171.663,-55.1723 L 171.785,-54.56
 L 171.663,-53.9477 L 171.316,-53.4286 L 170.797,-53.0818 L 170.185,-52.96 z
M 160.588,-53.0818 L 160.069,-53.4286 L 159.722,-53.9477 L 159.6,-54.56 L 159.722,-55.1723 L 160.069,-55.6913
 L 160.588,-56.0382 L 161.2,-56.16 L 161.812,-56.0382 L 162.331,-55.6913 L 162.678,-55.1723 L 162.8,-54.56
 L 162.678,-53.9477 L 162.331,-53.4286 L 161.812,-53.0818 L 161.2,-52.96 z
M 151.603,-53.0818 L 151.084,-53.4286 L 150.737,-53.9477 L 150.615,-54.56 L 150.737,-55.1723 L 151.084,-55.6913
 L 151.603,-56.0382 L 152.215,-56.16 L 152.827,-56.0382 L 153.346,-55.6913 L 153.693,-55.1723 L 153.815,-54.56
 L 153.693,-53.9477 L 153.346,-53.4286 L 152.827,-53.0818 L 152.215,-52.96 z
M 157.25,-47.345 L 157.25,-50.345 L 171.25,-50.345 L 171.25,-47.345 z
M 129.25,-47.345 L 129.25,-50.345 L 143.25,-50.345 L 143.25,-47.345 z
M 138.688,-43.1118 L 138.169,-43.4586 L 137.822,-43.9777 L 137.7,-44.59 L 137.822,-45.2023 L 138.169,-45.7214
 L 138.688,-46.0682 L 139.3,-46.19 L 139.912,-46.0682 L 140.431,-45.7214 L 140.778,-45.2023 L 140.9,-44.59
 L 140.778,-43.9777 L 140.431,-43.4586 L 139.912,-43.1118 L 139.3,-42.99 z
M 129.703,-43.1118 L 129.184,-43.4586 L 128.837,-43.9777 L 128.715,-44.59 L 128.837,-45.2023 L 129.184,-45.7214
 L 129.703,-46.0682 L 130.315,-46.19 L 130.927,-46.0682 L 131.446,-45.7214 L 131.793,-45.2023 L 131.915,-44.59
 L 131.793,-43.9777 L 131.446,-43.4586 L 130.927,-43.1118 L 130.315,-42.99 z
M 147.673,-43.1118 L 147.154,-43.4586 L 146.807,-43.9777 L 146.685,-44.59 L 146.807,-45.2023 L 147.154,-45.7214
 L 147.673,-46.0682 L 148.285,-46.19 L 148.897,-46.0682 L 149.416,-45.7214 L 149.763,-45.2023 L 149.885,-44.59
 L 149.763,-43.9777 L 149.416,-43.4586 L 148.897,-43.1118 L 148.285,-42.99 z
M 138.688,-33.7018 L 138.169,-34.0486 L 137.822,-34.5677 L 137.7,-35.18 L 137.822,-35.7923 L 138.169,-36.3114
 L 138.688,-36.6582 L 139.3,-36.78 L 139.912,-36.6582 L 140.431,-36.3114 L 140.778,-35.7923 L 140.9,-35.18
 L 140.778,-34.5677 L 140.431,-34.0486 L 139.912,-33.7018 L 139.3,-33.58 z
M 129.703,-33.7018 L 129.184,-34.0486 L 128.837,-34.5677 L 128.715,-35.18 L 128.837,-35.7923 L 129.184,-36.3114
 L 129.703,-36.6582 L 130.315,-36.78 L 130.927,-36.6582 L 131.446,-36.3114 L 131.793,-35.7923 L 131.915,-35.18
 L 131.793,-34.5677 L 131.446,-34.0486 L 130.927,-33.7018 L 130.315,-33.58 z
M 147.673,-33.7018 L 147.154,-34.0486 L 146.807,-34.5677 L 146.685,-35.18 L 146.807,-35.7923 L 147.154,-36.3114
 L 147.673,-36.6582 L 148.285,-36.78 L 148.897,-36.6582 L 149.416,-36.3114 L 149.763,-35.7923 L 149.885,-35.18
 L 149.763,-34.5677 L 149.416,-34.0486 L 148.897,-33.7018 L 148.285,-33.58 z
M 129.25,-29.655 L 129.25,-32.655 L 143.25,-32.655 L 143.25,-29.655 z
M 157.25,-29.655 L 157.25,-32.655 L 171.25,-32.655 L 171.25,-29.655 z
M 160.588,-23.7318 L 160.069,-24.0786 L 159.722,-24.5977 L 159.6,-25.21 L 159.722,-25.8223 L 160.069,-26.3414
 L 160.588,-26.6882 L 161.2,-26.81 L 161.812,-26.6882 L 162.331,-26.3414 L 162.678,-25.8223 L 162.8,-25.21
 L 162.678,-24.5977 L 162.331,-24.0786 L 161.812,-23.7318 L 161.2,-23.61 z
M 151.603,-23.7318 L 151.084,-24.0786 L 150.737,-24.5977 L 150.615,-25.21 L 150.737,-25.8223 L 151.084,-26.3414
 L 151.603,-26.6882 L 152.215,-26.81 L 152.827,-26.6882 L 153.346,-26.3414 L 153.693,-25.8223 L 153.815,-25.21
 L 153.693,-24.5977 L 153.346,-24.0786 L 152.827,-23.7318 L 152.215,-23.61 z
M 169.573,-23.7318 L 169.054,-24.0786 L 168.707,-24.5977 L 168.585,-25.21 L 168.707,-25.8223 L 169.054,-26.3414
 L 169.573,-26.6882 L 170.185,-26.81 L 170.797,-26.6882 L 171.316,-26.3414 L 171.663,-25.8223 L 171.785,-25.21
 L 171.663,-24.5977 L 171.316,-24.0786 L 170.797,-23.7318 L 170.185,-23.61 z
" stroke="black" fill="none" stroke-width="0.5"/></svg>
