solid Onshape
  facet normal 0 1 0
    outer loop
      vertex -1219.2 0 609.6
      vertex 1219.2 0 609.6
      vertex -1219.2 0 -609.6
    endloop
  endfacet
  facet normal 0 1 0
    outer loop
      vertex 1219.2 0 609.6
      vertex 1219.2 0 -609.6
      vertex -1219.2 0 -609.6
    endloop
  endfacet
  facet normal 0 -1 0
    outer loop
      vertex 1219.2 -19.05 609.6
      vertex -1219.2 -19.05 609.6
      vertex 1219.2 -19.05 -609.6
    endloop
  endfacet
  facet normal 0 -1 0
    outer loop
      vertex -1219.2 -19.05 609.6
      vertex -1219.2 -19.05 -609.6
      vertex 1219.2 -19.05 -609.6
    endloop
  endfacet
  facet normal 0 0 -1
    outer loop
      vertex 1219.2 -19.05 -609.6
      vertex -1219.2 -19.05 -609.6
      vertex 1219.2 0 -609.6
    endloop
  endfacet
  facet normal 0 0 -1
    outer loop
      vertex -1219.2 -19.05 -609.6
      vertex -1219.2 0 -609.6
      vertex 1219.2 0 -609.6
    endloop
  endfacet
  facet normal -1 0 0
    outer loop
      vertex -1219.2 -19.05 -609.6
      vertex -1219.2 -19.05 609.6
      vertex -1219.2 0 -609.6
    endloop
  endfacet
  facet normal -1 0 0
    outer loop
      vertex -1219.2 -19.05 609.6
      vertex -1219.2 0 609.6
      vertex -1219.2 0 -609.6
    endloop
  endfacet
  facet normal 1 0 0
    outer loop
      vertex 1219.2 -19.05 609.6
      vertex 1219.2 -19.05 -609.6
      vertex 1219.2 0 609.6
    endloop
  endfacet
  facet normal 1 0 0
    outer loop
      vertex 1219.2 -19.05 -609.6
      vertex 1219.2 0 -609.6
      vertex 1219.2 0 609.6
    endloop
  endfacet
  facet normal 0 0 1
    outer loop
      vertex -1219.2 -19.05 609.6
      vertex 1219.2 -19.05 609.6
      vertex -1219.2 0 609.6
    endloop
  endfacet
  facet normal 0 0 1
    outer loop
      vertex 1219.2 -19.05 609.6
      vertex 1219.2 0 609.6
      vertex -1219.2 0 609.6
    endloop
  endfacet
endsolid Onshape
