solid Onshape
  facet normal -1 0 0
    outer loop
      vertex 0 229.319 -2.41272
      vertex 0 191.219 -2.41272
      vertex 0 229.319 1775.59
    endloop
  endfacet
  facet normal -1 0 0
    outer loop
      vertex 0 191.219 -2.41272
      vertex 0 191.219 1775.59
      vertex 0 229.319 1775.59
    endloop
  endfacet
  facet normal 1 0 0
    outer loop
      vertex 88.9 191.219 -2.41272
      vertex 88.9 229.319 -2.41272
      vertex 88.9 191.219 1775.59
    endloop
  endfacet
  facet normal 1 0 0
    outer loop
      vertex 88.9 229.319 -2.41272
      vertex 88.9 229.319 1775.59
      vertex 88.9 191.219 1775.59
    endloop
  endfacet
  facet normal 0 0 1
    outer loop
      vertex 88.9 191.219 1775.59
      vertex 88.9 229.319 1775.59
      vertex 0 191.219 1775.59
    endloop
  endfacet
  facet normal 0 0 1
    outer loop
      vertex 88.9 229.319 1775.59
      vertex 0 229.319 1775.59
      vertex 0 191.219 1775.59
    endloop
  endfacet
  facet normal 0 1 0
    outer loop
      vertex 88.9 229.319 1775.59
      vertex 88.9 229.319 -2.41272
      vertex 0 229.319 1775.59
    endloop
  endfacet
  facet normal 0 1 0
    outer loop
      vertex 88.9 229.319 -2.41272
      vertex 0 229.319 -2.41272
      vertex 0 229.319 1775.59
    endloop
  endfacet
  facet normal 0 -1 0
    outer loop
      vertex 88.9 191.219 -2.41272
      vertex 88.9 191.219 1775.59
      vertex 0 191.219 -2.41272
    endloop
  endfacet
  facet normal 0 -1 0
    outer loop
      vertex 88.9 191.219 1775.59
      vertex 0 191.219 1775.59
      vertex 0 191.219 -2.41272
    endloop
  endfacet
  facet normal 0 0 -1
    outer loop
      vertex 88.9 229.319 -2.41272
      vertex 88.9 191.219 -2.41272
      vertex 0 229.319 -2.41272
    endloop
  endfacet
  facet normal 0 0 -1
    outer loop
      vertex 88.9 191.219 -2.41272
      vertex 0 191.219 -2.41272
      vertex 0 229.319 -2.41272
    endloop
  endfacet
endsolid Onshape
