solid Onshape
  facet normal -1 0 0
    outer loop
      vertex 0 -95.25 19.05
      vertex 0 95.25 19.05
      vertex 0 -95.25 -19.05
    endloop
  endfacet
  facet normal -1 0 0
    outer loop
      vertex 0 95.25 19.05
      vertex 0 95.25 -19.05
      vertex 0 -95.25 -19.05
    endloop
  endfacet
  facet normal 1 0 0
    outer loop
      vertex 3048 95.25 19.05
      vertex 3048 -95.25 19.05
      vertex 3048 95.25 -19.05
    endloop
  endfacet
  facet normal 1 0 0
    outer loop
      vertex 3048 -95.25 19.05
      vertex 3048 -95.25 -19.05
      vertex 3048 95.25 -19.05
    endloop
  endfacet
  facet normal 0 0 -1
    outer loop
      vertex 3048 95.25 -19.05
      vertex 3048 -95.25 -19.05
      vertex 0 95.25 -19.05
    endloop
  endfacet
  facet normal 0 0 -1
    outer loop
      vertex 3048 -95.25 -19.05
      vertex 0 -95.25 -19.05
      vertex 0 95.25 -19.05
    endloop
  endfacet
  facet normal 0 -1 0
    outer loop
      vertex 3048 -95.25 -19.05
      vertex 3048 -95.25 19.05
      vertex 0 -95.25 -19.05
    endloop
  endfacet
  facet normal 0 -1 0
    outer loop
      vertex 3048 -95.25 19.05
      vertex 0 -95.25 19.05
      vertex 0 -95.25 -19.05
    endloop
  endfacet
  facet normal 0 1 0
    outer loop
      vertex 3048 95.25 19.05
      vertex 3048 95.25 -19.05
      vertex 0 95.25 19.05
    endloop
  endfacet
  facet normal 0 1 0
    outer loop
      vertex 3048 95.25 -19.05
      vertex 0 95.25 -19.05
      vertex 0 95.25 19.05
    endloop
  endfacet
  facet normal 0 0 1
    outer loop
      vertex 3048 -95.25 19.05
      vertex 3048 95.25 19.05
      vertex 0 -95.25 19.05
    endloop
  endfacet
  facet normal 0 0 1
    outer loop
      vertex 3048 95.25 19.05
      vertex 0 95.25 19.05
      vertex 0 -95.25 19.05
    endloop
  endfacet
endsolid Onshape
