<?xml version="1.0" standalone="no"?>
<!DOCTYPE svg PUBLIC "-//W3C//DTD SVG 1.1//EN" "http://www.w3.org/Graphics/SVG/1.1/DTD/svg11.dtd">
<svg width="195" height="116" viewBox="28 -138 195 116" xmlns="http://www.w3.org/2000/svg" version="1.1">
<title>OpenSCAD Model</title>
<path d="
M 45,-104 L 47.4486,-104 L 47.4353,-104.03 L 47.4353,-105.97 L 48.2246,-107.743 L 49.6667,-109.041
 L 51.5122,-109.641 L 53.4421,-109.438 L 55.1226,-108.468 L 56.2632,-106.898 L 56.6667,-105 L 56.4541,-104
 L 59,-104 L 59,-101 L 73,-101 L 73,-136 L 61,-136 L 60.6985,-135.698
 L 58.5772,-137.82 L 48.6777,-127.92 L 50.799,-125.799 L 40.8995,-115.9 L 38.7782,-118.021 L 28.8787,-108.121
 L 31,-106 L 31,-101 L 45,-101 z
M 93,-104 L 95.4486,-104 L 95.4353,-104.03 L 95.4353,-105.97 L 96.2246,-107.743 L 97.6667,-109.041
 L 99.5122,-109.641 L 101.442,-109.438 L 103.123,-108.468 L 104.263,-106.898 L 104.667,-105 L 104.454,-104
 L 107,-104 L 107,-101 L 121,-101 L 121,-136 L 109,-136 L 108.698,-135.698
 L 106.577,-137.82 L 96.6777,-127.92 L 98.799,-125.799 L 88.8995,-115.9 L 86.7782,-118.021 L 76.8787,-108.121
 L 79,-106 L 79,-101 L 93,-101 z
M 140,-104 L 142.449,-104 L 142.435,-104.03 L 142.435,-105.97 L 143.225,-107.743 L 144.667,-109.041
 L 146.512,-109.641 L 148.442,-109.438 L 150.123,-108.468 L 151.263,-106.898 L 151.667,-105 L 151.454,-104
 L 154,-104 L 154,-101 L 168,-101 L 168,-136 L 156,-136 L 155.698,-135.698
 L 153.577,-137.82 L 143.678,-127.92 L 145.799,-125.799 L 135.899,-115.9 L 133.778,-118.021 L 123.879,-108.121
 L 126,-106 L 126,-101 L 140,-101 z
M 200,-115 L 180,-115 L 180,-105 L 200,-105 z
M 184.772,-110.845 L 184.366,-111.116 L 184.095,-111.522 L 184,-112 L 184.095,-112.478 L 184.366,-112.884
 L 184.772,-113.155 L 185.25,-113.25 L 185.728,-113.155 L 186.134,-112.884 L 186.405,-112.478 L 186.5,-112
 L 186.405,-111.522 L 186.134,-111.116 L 185.728,-110.845 L 185.25,-110.75 z
M 194.272,-110.845 L 193.866,-111.116 L 193.595,-111.522 L 193.5,-112 L 193.595,-112.478 L 193.866,-112.884
 L 194.272,-113.155 L 194.75,-113.25 L 195.228,-113.155 L 195.634,-112.884 L 195.905,-112.478 L 196,-112
 L 195.905,-111.522 L 195.634,-111.116 L 195.228,-110.845 L 194.75,-110.75 z
M 123.97,-97.69 L 28.015,-97.69 L 28.015,-62.31 L 123.97,-62.31 z
M 57.625,-93.69 L 57.625,-95.69 L 62.375,-95.69 L 62.375,-93.69 z
M 85.61,-93.69 L 85.61,-95.69 L 90.36,-95.69 L 90.36,-93.69 z
M 29.64,-93.69 L 29.64,-95.69 L 34.39,-95.69 L 34.39,-93.69 z
M 97,-87.345 L 97,-90.345 L 111,-90.345 L 111,-87.345 z
M 69,-87.345 L 69,-90.345 L 83,-90.345 L 83,-87.345 z
M 57.7039,-74.4567 L 55.7574,-75.7574 L 54.4567,-77.7039 L 54.3978,-78 L 44.0075,-78 L 44.0075,-82
 L 54.3978,-82 L 54.4567,-82.2961 L 55.7574,-84.2426 L 57.7039,-85.5433 L 60,-86 L 62.2961,-85.5433
 L 64.2426,-84.2426 L 65.5433,-82.2961 L 65.6022,-82 L 75.9925,-82 L 75.9925,-78 L 65.6022,-78
 L 65.5433,-77.7039 L 64.2426,-75.7574 L 62.2961,-74.4567 L 60,-74 z
M 97,-69.655 L 97,-72.655 L 111,-72.655 L 111,-69.655 z
M 69,-69.655 L 69,-72.655 L 83,-72.655 L 83,-69.655 z
M 57.625,-64.31 L 57.625,-66.31 L 62.375,-66.31 L 62.375,-64.31 z
M 85.61,-64.31 L 85.61,-66.31 L 90.36,-66.31 L 90.36,-64.31 z
M 29.64,-64.31 L 29.64,-66.31 L 34.39,-66.31 L 34.39,-64.31 z
M 177.985,-97.69 L 132.015,-97.69 L 132.015,-62.31 L 177.985,-62.31 z
M 156.353,-93.0818 L 155.834,-93.4286 L 155.487,-93.9477 L 155.365,-94.56 L 155.487,-95.1723 L 155.834,-95.6913
 L 156.353,-96.0382 L 156.965,-96.16 L 157.577,-96.0382 L 158.096,-95.6913 L 158.443,-95.1723 L 158.565,-94.56
 L 158.443,-93.9477 L 158.096,-93.4286 L 157.577,-93.0818 L 156.965,-92.96 z
M 160.338,-93.0818 L 159.819,-93.4286 L 159.472,-93.9477 L 159.35,-94.56 L 159.472,-95.1723 L 159.819,-95.6913
 L 160.338,-96.0382 L 160.95,-96.16 L 161.562,-96.0382 L 162.081,-95.6913 L 162.428,-95.1723 L 162.55,-94.56
 L 162.428,-93.9477 L 162.081,-93.4286 L 161.562,-93.0818 L 160.95,-92.96 z
M 174.323,-93.0818 L 173.804,-93.4286 L 173.457,-93.9477 L 173.335,-94.56 L 173.457,-95.1723 L 173.804,-95.6913
 L 174.323,-96.0382 L 174.935,-96.16 L 175.547,-96.0382 L 176.066,-95.6913 L 176.413,-95.1723 L 176.535,-94.56
 L 176.413,-93.9477 L 176.066,-93.4286 L 175.547,-93.0818 L 174.935,-92.96 z
M 134,-87.345 L 134,-90.345 L 148,-90.345 L 148,-87.345 z
M 162,-87.345 L 162,-90.345 L 176,-90.345 L 176,-87.345 z
M 138.438,-83.1118 L 137.919,-83.4586 L 137.572,-83.9777 L 137.45,-84.59 L 137.572,-85.2023 L 137.919,-85.7214
 L 138.438,-86.0682 L 139.05,-86.19 L 139.662,-86.0682 L 140.181,-85.7214 L 140.528,-85.2023 L 140.65,-84.59
 L 140.528,-83.9777 L 140.181,-83.4586 L 139.662,-83.1118 L 139.05,-82.99 z
M 152.423,-83.1118 L 151.904,-83.4586 L 151.557,-83.9777 L 151.435,-84.59 L 151.557,-85.2023 L 151.904,-85.7214
 L 152.423,-86.0682 L 153.035,-86.19 L 153.647,-86.0682 L 154.166,-85.7214 L 154.513,-85.2023 L 154.635,-84.59
 L 154.513,-83.9777 L 154.166,-83.4586 L 153.647,-83.1118 L 153.035,-82.99 z
M 134.453,-83.1118 L 133.934,-83.4586 L 133.587,-83.9777 L 133.465,-84.59 L 133.587,-85.2023 L 133.934,-85.7214
 L 134.453,-86.0682 L 135.065,-86.19 L 135.677,-86.0682 L 136.196,-85.7214 L 136.543,-85.2023 L 136.665,-84.59
 L 136.543,-83.9777 L 136.196,-83.4586 L 135.677,-83.1118 L 135.065,-82.99 z
M 152.423,-73.7018 L 151.904,-74.0486 L 151.557,-74.5677 L 151.435,-75.18 L 151.557,-75.7923 L 151.904,-76.3114
 L 152.423,-76.6582 L 153.035,-76.78 L 153.647,-76.6582 L 154.166,-76.3114 L 154.513,-75.7923 L 154.635,-75.18
 L 154.513,-74.5677 L 154.166,-74.0486 L 153.647,-73.7018 L 153.035,-73.58 z
M 138.438,-73.7018 L 137.919,-74.0486 L 137.572,-74.5677 L 137.45,-75.18 L 137.572,-75.7923 L 137.919,-76.3114
 L 138.438,-76.6582 L 139.05,-76.78 L 139.662,-76.6582 L 140.181,-76.3114 L 140.528,-75.7923 L 140.65,-75.18
 L 140.528,-74.5677 L 140.181,-74.0486 L 139.662,-73.7018 L 139.05,-73.58 z
M 134.453,-73.7018 L 133.934,-74.0486 L 133.587,-74.5677 L 133.465,-75.18 L 133.587,-75.7923 L 133.934,-76.3114
 L 134.453,-76.6582 L 135.065,-76.78 L 135.677,-76.6582 L 136.196,-76.3114 L 136.543,-75.7923 L 136.665,-75.18
 L 136.543,-74.5677 L 136.196,-74.0486 L 135.677,-73.7018 L 135.065,-73.58 z
M 134,-69.655 L 134,-72.655 L 148,-72.655 L 148,-69.655 z
M 162,-69.655 L 162,-72.655 L 176,-72.655 L 176,-69.655 z
M 174.323,-63.7318 L 173.804,-64.0786 L 173.457,-64.5977 L 173.335,-65.21 L 173.457,-65.8223 L 173.804,-66.3414
 L 174.323,-66.6882 L 174.935,-66.81 L 175.547,-66.6882 L 176.066,-66.3414 L 176.413,-65.8223 L 176.535,-65.21
 L 176.413,-64.5977 L 176.066,-64.0786 L 175.547,-63.7318 L 174.935,-63.61 z
M 156.353,-63.7318 L 155.834,-64.0786 L 155.487,-64.5977 L 155.365,-65.21 L 155.487,-65.8223 L 155.834,-66.3414
 L 156.353,-66.6882 L 156.965,-66.81 L 157.577,-66.6882 L 158.096,-66.3414 L 158.443,-65.8223 L 158.565,-65.21
 L 158.443,-64.5977 L 158.096,-64.0786 L 157.577,-63.7318 L 156.965,-63.61 z
M 160.338,-63.7318 L 159.819,-64.0786 L 159.472,-64.5977 L 159.35,-65.21 L 159.472,-65.8223 L 159.819,-66.3414
 L 160.338,-66.6882 L 160.95,-66.81 L 161.562,-66.6882 L 162.081,-66.3414 L 162.428,-65.8223 L 162.55,-65.21
 L 162.428,-64.5977 L 162.081,-64.0786 L 161.562,-63.7318 L 160.95,-63.61 z
M 200,-95 L 180,-95 L 180,-85 L 200,-85 z
M 194.272,-90.8451 L 193.866,-91.1161 L 193.595,-91.5216 L 193.5,-92 L 193.595,-92.4783 L 193.866,-92.8839
 L 194.272,-93.1548 L 194.75,-93.25 L 195.228,-93.1548 L 195.634,-92.8839 L 195.905,-92.4783 L 196,-92
 L 195.905,-91.5216 L 195.634,-91.1161 L 195.228,-90.8451 L 194.75,-90.75 z
M 184.772,-90.8451 L 184.366,-91.1161 L 184.095,-91.5216 L 184,-92 L 184.095,-92.4783 L 184.366,-92.8839
 L 184.772,-93.1548 L 185.25,-93.25 L 185.728,-93.1548 L 186.134,-92.8839 L 186.405,-92.4783 L 186.5,-92
 L 186.405,-91.5216 L 186.134,-91.1161 L 185.728,-90.8451 L 185.25,-90.75 z
M 221,-29 L 221,-41 L 220.698,-41.3015 L 222.82,-43.4228 L 212.92,-53.3223 L 210.799,-51.201
 L 200.9,-61.1005 L 203.021,-63.2218 L 193.121,-73.1213 L 191,-71 L 186,-71 L 186,-57
 L 189,-57 L 189,-54.5514 L 189.03,-54.5647 L 190.97,-54.5647 L 192.743,-53.7754 L 194.041,-52.3333
 L 194.641,-50.4878 L 194.438,-48.5579 L 193.468,-46.8774 L 191.898,-45.7368 L 190,-45.3333 L 189,-45.5459
 L 189,-43 L 186,-43 L 186,-29 z
M 123.97,-57.69 L 28.015,-57.69 L 28.015,-22.31 L 123.97,-22.31 z
M 29.64,-53.69 L 29.64,-55.69 L 34.39,-55.69 L 34.39,-53.69 z
M 85.61,-53.69 L 85.61,-55.69 L 90.36,-55.69 L 90.36,-53.69 z
M 57.625,-53.69 L 57.625,-55.69 L 62.375,-55.69 L 62.375,-53.69 z
M 97,-47.345 L 97,-50.345 L 111,-50.345 L 111,-47.345 z
M 69,-47.345 L 69,-50.345 L 83,-50.345 L 83,-47.345 z
M 57.7039,-34.4567 L 55.7574,-35.7574 L 54.4567,-37.7039 L 54.3978,-38 L 44.0075,-38 L 44.0075,-42
 L 54.3978,-42 L 54.4567,-42.2961 L 55.7574,-44.2426 L 57.7039,-45.5433 L 60,-46 L 62.2961,-45.5433
 L 64.2426,-44.2426 L 65.5433,-42.2961 L 65.6022,-42 L 75.9925,-42 L 75.9925,-38 L 65.6022,-38
 L 65.5433,-37.7039 L 64.2426,-35.7574 L 62.2961,-34.4567 L 60,-34 z
M 97,-29.655 L 97,-32.655 L 111,-32.655 L 111,-29.655 z
M 69,-29.655 L 69,-32.655 L 83,-32.655 L 83,-29.655 z
M 29.64,-24.31 L 29.64,-26.31 L 34.39,-26.31 L 34.39,-24.31 z
M 85.61,-24.31 L 85.61,-26.31 L 90.36,-26.31 L 90.36,-24.31 z
M 57.625,-24.31 L 57.625,-26.31 L 62.375,-26.31 L 62.375,-24.31 z
M 177.985,-57.69 L 132.015,-57.69 L 132.015,-22.31 L 177.985,-22.31 z
M 156.353,-53.0818 L 155.834,-53.4286 L 155.487,-53.9477 L 155.365,-54.56 L 155.487,-55.1723 L 155.834,-55.6913
 L 156.353,-56.0382 L 156.965,-56.16 L 157.577,-56.0382 L 158.096,-55.6913 L 158.443,-55.1723 L 158.565,-54.56
 L 158.443,-53.9477 L 158.096,-53.4286 L 157.577,-53.0818 L 156.965,-52.96 z
M 160.338,-53.0818 L 159.819,-53.4286 L 159.472,-53.9477 L 159.35,-54.56 L 159.472,-55.1723 L 159.819,-55.6913
 L 160.338,-56.0382 L 160.95,-56.16 L 161.562,-56.0382 L 162.081,-55.6913 L 162.428,-55.1723 L 162.55,-54.56
 L 162.428,-53.9477 L 162.081,-53.4286 L 161.562,-53.0818 L 160.95,-52.96 z
M 174.323,-53.0818 L 173.804,-53.4286 L 173.457,-53.9477 L 173.335,-54.56 L 173.457,-55.1723 L 173.804,-55.6913
 L 174.323,-56.0382 L 174.935,-56.16 L 175.547,-56.0382 L 176.066,-55.6913 L 176.413,-55.1723 L 176.535,-54.56
 L 176.413,-53.9477 L 176.066,-53.4286 L 175.547,-53.0818 L 174.935,-52.96 z
M 134,-47.345 L 134,-50.345 L 148,-50.345 L 148,-47.345 z
M 162,-47.345 L 162,-50.345 L 176,-50.345 L 176,-47.345 z
M 152.423,-43.1118 L 151.904,-43.4586 L 151.557,-43.9777 L 151.435,-44.59 L 151.557,-45.2023 L 151.904,-45.7214
 L 152.423,-46.0682 L 153.035,-46.19 L 153.647,-46.0682 L 154.166,-45.7214 L 154.513,-45.2023 L 154.635,-44.59
 L 154.513,-43.9777 L 154.166,-43.4586 L 153.647,-43.1118 L 153.035,-42.99 z
M 134.453,-43.1118 L 133.934,-43.4586 L 133.587,-43.9777 L 133.465,-44.59 L 133.587,-45.2023 L 133.934,-45.7214
 L 134.453,-46.0682 L 135.065,-46.19 L 135.677,-46.0682 L 136.196,-45.7214 L 136.543,-45.2023 L 136.665,-44.59
 L 136.543,-43.9777 L 136.196,-43.4586 L 135.677,-43.1118 L 135.065,-42.99 z
M 138.438,-43.1118 L 137.919,-43.4586 L 137.572,-43.9777 L 137.45,-44.59 L 137.572,-45.2023 L 137.919,-45.7214
 L 138.438,-46.0682 L 139.05,-46.19 L 139.662,-46.0682 L 140.181,-45.7214 L 140.528,-45.2023 L 140.65,-44.59
 L 140.528,-43.9777 L 140.181,-43.4586 L 139.662,-43.1118 L 139.05,-42.99 z
M 138.438,-33.7018 L 137.919,-34.0486 L 137.572,-34.5677 L 137.45,-35.18 L 137.572,-35.7923 L 137.919,-36.3114
 L 138.438,-36.6582 L 139.05,-36.78 L 139.662,-36.6582 L 140.181,-36.3114 L 140.528,-35.7923 L 140.65,-35.18
 L 140.528,-34.5677 L 140.181,-34.0486 L 139.662,-33.7018 L 139.05,-33.58 z
M 134.453,-33.7018 L 133.934,-34.0486 L 133.587,-34.5677 L 133.465,-35.18 L 133.587,-35.7923 L 133.934,-36.3114
 L 134.453,-36.6582 L 135.065,-36.78 L 135.677,-36.6582 L 136.196,-36.3114 L 136.543,-35.7923 L 136.665,-35.18
 L 136.543,-34.5677 L 136.196,-34.0486 L 135.677,-33.7018 L 135.065,-33.58 z
M 152.423,-33.7018 L 151.904,-34.0486 L 151.557,-34.5677 L 151.435,-35.18 L 151.557,-35.7923 L 151.904,-36.3114
 L 152.423,-36.6582 L 153.035,-36.78 L 153.647,-36.6582 L 154.166,-36.3114 L 154.513,-35.7923 L 154.635,-35.18
 L 154.513,-34.5677 L 154.166,-34.0486 L 153.647,-33.7018 L 153.035,-33.58 z
M 162,-29.655 L 162,-32.655 L 176,-32.655 L 176,-29.655 z
M 134,-29.655 L 134,-32.655 L 148,-32.655 L 148,-29.655 z
M 156.353,-23.7318 L 155.834,-24.0786 L 155.487,-24.5977 L 155.365,-25.21 L 155.487,-25.8223 L 155.834,-26.3414
 L 156.353,-26.6882 L 156.965,-26.81 L 157.577,-26.6882 L 158.096,-26.3414 L 158.443,-25.8223 L 158.565,-25.21
 L 158.443,-24.5977 L 158.096,-24.0786 L 157.577,-23.7318 L 156.965,-23.61 z
M 160.338,-23.7318 L 159.819,-24.0786 L 159.472,-24.5977 L 159.35,-25.21 L 159.472,-25.8223 L 159.819,-26.3414
 L 160.338,-26.6882 L 160.95,-26.81 L 161.562,-26.6882 L 162.081,-26.3414 L 162.428,-25.8223 L 162.55,-25.21
 L 162.428,-24.5977 L 162.081,-24.0786 L 161.562,-23.7318 L 160.95,-23.61 z
M 174.323,-23.7318 L 173.804,-24.0786 L 173.457,-24.5977 L 173.335,-25.21 L 173.457,-25.8223 L 173.804,-26.3414
 L 174.323,-26.6882 L 174.935,-26.81 L 175.547,-26.6882 L 176.066,-26.3414 L 176.413,-25.8223 L 176.535,-25.21
 L 176.413,-24.5977 L 176.066,-24.0786 L 175.547,-23.7318 L 174.935,-23.61 z
" stroke="black" fill="none" stroke-width="0.5"/></svg>
