<?xml version="1.0" standalone="no"?>
<!DOCTYPE svg PUBLIC "-//W3C//DTD SVG 1.1//EN" "http://www.w3.org/Graphics/SVG/1.1/DTD/svg11.dtd">
<svg width="190" height="120" viewBox="0 -120 190 120" xmlns="http://www.w3.org/2000/svg" version="1.1">
<title>OpenSCAD Model</title>
<path d="
M 145,-119.5 L 45,-119.5 L 45,-99.5 L 20,-89.5 L 0,-89.5 L 0,-30.5
 L 20,-30.5 L 45,-20.5 L 45,-0.5 L 145,-0.5 z
M 91,-108 L 91,-111 L 97,-111 L 97,-108 z
M 51.5,-104.5 L 51.5,-110.5 L 54.5,-110.5 L 54.5,-104.5 z
M 65.5,-104.5 L 65.5,-110.5 L 68.5,-110.5 L 68.5,-104.5 z
M 78.5,-101.5 L 78.5,-107.5 L 81.5,-107.5 L 81.5,-101.5 z
M 91,-98 L 91,-101 L 97,-101 L 97,-98 z
M 57,-93 L 57,-96 L 63,-96 L 63,-93 z
M 75,-27.5 L 75,-30.5 L 45,-30.5 L 35,-35.04 L 35,-41.85 L 30,-41.85
 L 28.266,-42.4134 L 27.1944,-43.8884 L 27.1944,-45.7116 L 28.266,-47.1866 L 30,-47.75 L 35,-47.75
 L 35,-51.0527 L 32.0269,-51.0527 L 30.1263,-51.4711 L 28.36,-52.2883 L 26.8107,-53.466 L 25.5508,-54.9493
 L 24.6392,-56.6687 L 24.1186,-58.544 L 24.0132,-60.4872 L 24.328,-62.4077 L 25.0484,-64.2157 L 26.1405,-65.8265
 L 27.5534,-67.1648 L 29.221,-68.1682 L 31.0653,-68.7896 L 33,-69 L 35,-69 L 35,-72.25
 L 30,-72.25 L 28.266,-72.8134 L 27.1944,-74.2884 L 27.1944,-76.1116 L 28.266,-77.5866 L 30,-78.15
 L 35,-78.15 L 35,-84.96 L 45,-89.5 L 75,-89.5 L 75,-92.5 L 125,-92.5
 L 125,-27.5 z
M 115.5,-80 L 124,-80 L 124,-82 L 103,-92 L 101,-92 L 101,-89
 L 98,-89 L 98,-83 L 101,-83 L 101,-80 L 109.5,-80 L 109.5,-77
 L 115.5,-77 z
M 63,-74 L 94,-74 L 94,-86 L 50,-86 L 50,-74 L 57,-74
 L 57,-71 L 63,-71 z
M 63.1173,-82.5761 L 62.7929,-82.7929 L 62.5761,-83.1173 L 62.5,-83.5 L 62.5761,-83.8827 L 62.7929,-84.2071
 L 63.1173,-84.4239 L 63.5,-84.5 L 63.8827,-84.4239 L 64.2071,-84.2071 L 64.4239,-83.8827 L 64.5,-83.5
 L 64.4239,-83.1173 L 64.2071,-82.7929 L 63.8827,-82.5761 L 63.5,-82.5 z
M 87.2716,-80.8451 L 86.8661,-81.1161 L 86.5951,-81.5216 L 86.5,-82 L 86.5951,-82.4783 L 86.8661,-82.8839
 L 87.2716,-83.1548 L 87.75,-83.25 L 88.2283,-83.1548 L 88.6339,-82.8839 L 88.9048,-82.4783 L 89,-82
 L 88.9048,-81.5216 L 88.6339,-81.1161 L 88.2283,-80.8451 L 87.75,-80.75 z
M 77.7717,-80.8451 L 77.3661,-81.1161 L 77.0952,-81.5216 L 77,-82 L 77.0952,-82.4783 L 77.3661,-82.8839
 L 77.7717,-83.1548 L 78.25,-83.25 L 78.7284,-83.1548 L 79.1339,-82.8839 L 79.4049,-82.4783 L 79.5,-82
 L 79.4049,-81.5216 L 79.1339,-81.1161 L 78.7284,-80.8451 L 78.25,-80.75 z
M 65.5,-77 L 65.5,-83 L 68.5,-83 L 68.5,-77 z
M 51.5,-77 L 51.5,-83 L 54.5,-83 L 54.5,-77 z
M 59.0433,-77.6903 L 58.2322,-78.2322 L 57.6903,-79.0433 L 57.5,-80 L 57.6903,-80.9567 L 58.2322,-81.7678
 L 59.0433,-82.3097 L 60,-82.5 L 60.9567,-82.3097 L 61.7678,-81.7678 L 62.3097,-80.9567 L 62.5,-80
 L 62.3097,-79.0433 L 61.7678,-78.2322 L 60.9567,-77.6903 L 60,-77.5 z
M 56.1173,-75.5761 L 55.7929,-75.7929 L 55.5761,-76.1173 L 55.5,-76.5 L 55.5761,-76.8827 L 55.7929,-77.2071
 L 56.1173,-77.4239 L 56.5,-77.5 L 56.8827,-77.4239 L 57.2071,-77.2071 L 57.4239,-76.8827 L 57.5,-76.5
 L 57.4239,-76.1173 L 57.2071,-75.7929 L 56.8827,-75.5761 L 56.5,-75.5 z
M 45.476,-63.3709 L 48.4304,-62.8499 L 49.4723,-68.7588 L 46.5179,-69.2797 L 47.9939,-77.6506 L 45.0395,-78.1715
 L 45.5604,-81.1259 L 39.6516,-82.1678 L 39.1306,-79.2134 L 36.1762,-79.7343 L 35.8289,-77.7647 L 42.0304,-55.3473
 L 44,-55 z
M 119.5,-75.5 L 108.5,-75.5 L 108.5,-64.5 L 119.5,-64.5 z
M 110.117,-72.5761 L 109.793,-72.7929 L 109.576,-73.1173 L 109.5,-73.5 L 109.576,-73.8827 L 109.793,-74.2071
 L 110.117,-74.4239 L 110.5,-74.5 L 110.883,-74.4239 L 111.207,-74.2071 L 111.424,-73.8827 L 111.5,-73.5
 L 111.424,-73.1173 L 111.207,-72.7929 L 110.883,-72.5761 L 110.5,-72.5 z
M 113.043,-67.6903 L 112.232,-68.2322 L 111.69,-69.0433 L 111.5,-70 L 111.69,-70.9567 L 112.232,-71.7678
 L 113.043,-72.3097 L 114,-72.5 L 114.957,-72.3097 L 115.768,-71.7678 L 116.31,-70.9567 L 116.5,-70
 L 116.31,-69.0433 L 115.768,-68.2322 L 114.957,-67.6903 L 114,-67.5 z
M 117.117,-65.5761 L 116.793,-65.7929 L 116.576,-66.1173 L 116.5,-66.5 L 116.576,-66.8827 L 116.793,-67.2071
 L 117.117,-67.4239 L 117.5,-67.5 L 117.883,-67.4239 L 118.207,-67.2071 L 118.424,-66.8827 L 118.5,-66.5
 L 118.424,-66.1173 L 118.207,-65.7929 L 117.883,-65.5761 L 117.5,-65.5 z
M 106.5,-75.5 L 95.5,-75.5 L 95.5,-64.5 L 106.5,-64.5 z
M 97.1173,-72.5761 L 96.7929,-72.7929 L 96.5761,-73.1173 L 96.5,-73.5 L 96.5761,-73.8827 L 96.7929,-74.2071
 L 97.1173,-74.4239 L 97.5,-74.5 L 97.8827,-74.4239 L 98.2071,-74.2071 L 98.4239,-73.8827 L 98.5,-73.5
 L 98.4239,-73.1173 L 98.2071,-72.7929 L 97.8827,-72.5761 L 97.5,-72.5 z
M 100.043,-67.6903 L 99.2322,-68.2322 L 98.6903,-69.0433 L 98.5,-70 L 98.6903,-70.9567 L 99.2322,-71.7678
 L 100.043,-72.3097 L 101,-72.5 L 101.957,-72.3097 L 102.768,-71.7678 L 103.31,-70.9567 L 103.5,-70
 L 103.31,-69.0433 L 102.768,-68.2322 L 101.957,-67.6903 L 101,-67.5 z
M 104.117,-65.5761 L 103.793,-65.7929 L 103.576,-66.1173 L 103.5,-66.5 L 103.576,-66.8827 L 103.793,-67.2071
 L 104.117,-67.4239 L 104.5,-67.5 L 104.883,-67.4239 L 105.207,-67.2071 L 105.424,-66.8827 L 105.5,-66.5
 L 105.424,-66.1173 L 105.207,-65.7929 L 104.883,-65.5761 L 104.5,-65.5 z
M 94,-69 L 87,-69 L 87,-72 L 81,-72 L 81,-69 L 50,-69
 L 50,-57 L 94,-57 z
M 87.1173,-65.5761 L 86.7929,-65.7929 L 86.5761,-66.1173 L 86.5,-66.5 L 86.5761,-66.8827 L 86.7929,-67.2071
 L 87.1173,-67.4239 L 87.5,-67.5 L 87.8827,-67.4239 L 88.2071,-67.2071 L 88.4239,-66.8827 L 88.5,-66.5
 L 88.4239,-66.1173 L 88.2071,-65.7929 L 87.8827,-65.5761 L 87.5,-65.5 z
M 75.5,-60 L 75.5,-66 L 78.5,-66 L 78.5,-60 z
M 89.5,-60 L 89.5,-66 L 92.5,-66 L 92.5,-60 z
M 83.0433,-60.6903 L 82.2322,-61.2322 L 81.6903,-62.0433 L 81.5,-63 L 81.6903,-63.9567 L 82.2322,-64.7678
 L 83.0433,-65.3097 L 84,-65.5 L 84.9567,-65.3097 L 85.7678,-64.7678 L 86.3097,-63.9567 L 86.5,-63
 L 86.3097,-62.0433 L 85.7678,-61.2322 L 84.9567,-60.6903 L 84,-60.5 z
M 65.2716,-59.8452 L 64.8661,-60.1161 L 64.5951,-60.5217 L 64.5,-61 L 64.5951,-61.4784 L 64.8661,-61.8839
 L 65.2716,-62.1549 L 65.75,-62.25 L 66.2283,-62.1549 L 66.6339,-61.8839 L 66.9048,-61.4784 L 67,-61
 L 66.9048,-60.5217 L 66.6339,-60.1161 L 66.2283,-59.8452 L 65.75,-59.75 z
M 55.7717,-59.8452 L 55.3661,-60.1161 L 55.0952,-60.5217 L 55,-61 L 55.0952,-61.4784 L 55.3661,-61.8839
 L 55.7717,-62.1549 L 56.25,-62.25 L 56.7284,-62.1549 L 57.1339,-61.8839 L 57.4049,-61.4784 L 57.5,-61
 L 57.4049,-60.5217 L 57.1339,-60.1161 L 56.7284,-59.8452 L 56.25,-59.75 z
M 80.1173,-58.5761 L 79.7929,-58.7929 L 79.5761,-59.1173 L 79.5,-59.5 L 79.5761,-59.8827 L 79.7929,-60.2071
 L 80.1173,-60.4239 L 80.5,-60.5 L 80.8827,-60.4239 L 81.2071,-60.2071 L 81.4239,-59.8827 L 81.5,-59.5
 L 81.4239,-59.1173 L 81.2071,-58.7929 L 80.8827,-58.5761 L 80.5,-58.5 z
M 106.5,-63.5 L 95.5,-63.5 L 95.5,-52.5 L 106.5,-52.5 z
M 97.1173,-53.5761 L 96.7929,-53.7929 L 96.5761,-54.1173 L 96.5,-54.5 L 96.5761,-54.8827 L 96.7929,-55.2071
 L 97.1173,-55.4239 L 97.5,-55.5 L 97.8827,-55.4239 L 98.053,-55.3101 L 96.5,-58 L 98.75,-61.8971
 L 103.25,-61.8971 L 103.511,-61.4452 L 103.5,-61.5 L 103.576,-61.8827 L 103.793,-62.2071 L 104.117,-62.4239
 L 104.5,-62.5 L 104.883,-62.4239 L 105.207,-62.2071 L 105.424,-61.8827 L 105.5,-61.5 L 105.424,-61.1173
 L 105.207,-60.7929 L 104.883,-60.5761 L 104.5,-60.5 L 104.117,-60.5761 L 103.947,-60.6899 L 105.5,-58
 L 103.25,-54.1029 L 98.75,-54.1029 L 98.4891,-54.5548 L 98.5,-54.5 L 98.4239,-54.1173 L 98.2071,-53.7929
 L 97.8827,-53.5761 L 97.5,-53.5 z
M 119.5,-63.5 L 108.5,-63.5 L 108.5,-52.5 L 119.5,-52.5 z
M 110.117,-53.5761 L 109.793,-53.7929 L 109.576,-54.1173 L 109.5,-54.5 L 109.576,-54.8827 L 109.793,-55.2071
 L 110.117,-55.4239 L 110.5,-55.5 L 110.883,-55.4239 L 111.053,-55.3101 L 109.5,-58 L 111.75,-61.8971
 L 116.25,-61.8971 L 116.511,-61.4452 L 116.5,-61.5 L 116.576,-61.8827 L 116.793,-62.2071 L 117.117,-62.4239
 L 117.5,-62.5 L 117.883,-62.4239 L 118.207,-62.2071 L 118.424,-61.8827 L 118.5,-61.5 L 118.424,-61.1173
 L 118.207,-60.7929 L 117.883,-60.5761 L 117.5,-60.5 L 117.117,-60.5761 L 116.947,-60.6899 L 118.5,-58
 L 116.25,-54.1029 L 111.75,-54.1029 L 111.489,-54.5548 L 111.5,-54.5 L 111.424,-54.1173 L 111.207,-53.7929
 L 110.883,-53.5761 L 110.5,-53.5 z
M 49.5,-44 L 58,-44 L 58,-47 L 61,-47 L 61,-53 L 58,-53
 L 58,-56 L 56,-56 L 35,-46 L 35,-44 L 43.5,-44 L 43.5,-41
 L 49.5,-41 z
M 82.2797,-44.4821 L 90.6506,-43.0061 L 91.1715,-45.9605 L 94.1259,-45.4396 L 95.1678,-51.3484 L 92.2134,-51.8694
 L 92.7343,-54.8238 L 90.7647,-55.1711 L 68.3473,-48.9696 L 68,-47 L 76.3709,-45.524 L 75.8499,-42.5696
 L 81.7588,-41.5277 z
M 75,-41 L 75,-43 L 66.5,-43 L 66.5,-46 L 60.5,-46 L 60.5,-43
 L 52,-43 L 52,-40 L 49,-40 L 49,-34 L 52,-34 L 52,-31
 L 54,-31 z
M 107,-39 L 107,-41 L 98.5,-41 L 98.5,-44 L 92.5,-44 L 92.5,-41
 L 84,-41 L 84,-38 L 81,-38 L 81,-32 L 84,-32 L 84,-29
 L 86,-29 z
M 57,-24 L 57,-27 L 63,-27 L 63,-24 z
M 91,-19 L 91,-22 L 97,-22 L 97,-19 z
M 78.5,-12.5 L 78.5,-18.5 L 81.5,-18.5 L 81.5,-12.5 z
M 65.5,-9.5 L 65.5,-15.5 L 68.5,-15.5 L 68.5,-9.5 z
M 51.5,-9.5 L 51.5,-15.5 L 54.5,-15.5 L 54.5,-9.5 z
M 91,-9 L 91,-12 L 97,-12 L 97,-9 z
M 190,-25.5 L 190,-84.5 L 170,-109.5 L 150,-109.5 L 150,-102.5 L 147,-102.5
 L 147,-96.5 L 150,-96.5 L 150,-89.5 L 170,-89.5 L 170,-20.5 L 150,-20.5
 L 150,-13.5 L 147,-13.5 L 147,-7.5 L 150,-7.5 L 150,-0.5 L 170,-0.5
 z
M 153,-103 L 153,-106 L 159,-106 L 159,-103 z
M 153,-93 L 153,-96 L 159,-96 L 159,-93 z
M 153,-14 L 153,-17 L 159,-17 L 159,-14 z
M 153,-4 L 153,-7 L 159,-7 L 159,-4 z
M 162,-58.5 L 165,-58.5 L 165,-64.5 L 162,-64.5 L 162,-73 L 159,-73
 L 159,-76 L 153,-76 L 153,-73 L 150,-73 L 150,-71 L 160,-50
 L 162,-50 z
M 159,-27 L 162,-27 L 162,-29 L 152,-50 L 150,-50 L 150,-41.5
 L 147,-41.5 L 147,-35.5 L 150,-35.5 L 150,-27 L 153,-27 L 153,-24
 L 159,-24 z
" stroke="black" fill="none" stroke-width="0.5"/></svg>
