<?xml version="1.0" encoding="UTF-8" standalone="no"?>
<!-- Created with Inkscape (http://www.inkscape.org/) -->

<svg
   xmlns:dc="http://purl.org/dc/elements/1.1/"
   xmlns:cc="http://creativecommons.org/ns#"
   xmlns:rdf="http://www.w3.org/1999/02/22-rdf-syntax-ns#"
   xmlns:svg="http://www.w3.org/2000/svg"
   xmlns="http://www.w3.org/2000/svg"
   xmlns:sodipodi="http://sodipodi.sourceforge.net/DTD/sodipodi-0.dtd"
   xmlns:inkscape="http://www.inkscape.org/namespaces/inkscape"
   width="210mm"
   height="297mm"
   viewBox="0 0 744.09448819 1052.3622047"
   id="svg4169"
   version="1.1"
   inkscape:version="0.91 r13725"
   sodipodi:docname="gear.svg">
  <defs
     id="defs4171" />
  <sodipodi:namedview
     id="base"
     pagecolor="#ffffff"
     bordercolor="#666666"
     borderopacity="1.0"
     inkscape:pageopacity="0.0"
     inkscape:pageshadow="2"
     inkscape:zoom="0.35"
     inkscape:cx="-133.57143"
     inkscape:cy="520"
     inkscape:document-units="px"
     inkscape:current-layer="layer1"
     showgrid="false"
     inkscape:window-width="1920"
     inkscape:window-height="1055"
     inkscape:window-x="1440"
     inkscape:window-y="0"
     inkscape:window-maximized="1" />
  <metadata
     id="metadata4174">
    <rdf:RDF>
      <cc:Work
         rdf:about="">
        <dc:format>image/svg+xml</dc:format>
        <dc:type
           rdf:resource="http://purl.org/dc/dcmitype/StillImage" />
        <dc:title></dc:title>
      </cc:Work>
    </rdf:RDF>
  </metadata>
  <g
     inkscape:label="Layer 1"
     inkscape:groupmode="layer"
     id="layer1">
    <g
       id="g4154"
       transform="translate(201.46166,545.63792)">
      <path
         id="path4146"
         d="m 24.758529,-20.203466 0.1963,-0.4737 0.1709,-0.4668 0.1347,-0.4228 0.1026,-0.377 0.0761,-0.3291 0.0645,-0.3486 0.041,-0.1143 0.0508,-0.0566 1.1455,-0.0723 0.0576,0.0498 0.0547,0.1084 0.1084,0.3379 0.1162,0.3174 0.1494,0.3613 0.1865,0.4024 0.2276,0.4414 0.2539,0.4453 0.5068,-0.0322 0.4981,-0.0948 0.1347,-0.4951 0.1114,-0.4834 0.08,-0.4365 0.0557,-0.3867 0.0332,-0.3369 0.0205,-0.3535 0.0264,-0.1182 0.043,-0.0625 1.1279,-0.2158 0.0635,0.042 0.0683,0.1006 0.1485,0.3212 0.1552,0.3008 0.1934,0.3399 0.2363,0.3759 0.2803,0.4092 0.3086,0.4102 0.498,-0.0947 0.4825,-0.1573 0.0722,-0.5078 0.0488,-0.4941 0.0254,-0.4434 0.0069,-0.3906 -0.0098,-0.3379 -0.0234,-0.3535 0.0117,-0.1211 0.0342,-0.0664 1.0927,-0.3555 0.0674,0.0342 0.0801,0.0908 0.1885,0.2998 0.1914,0.2793 0.2344,0.3125 0.2812,0.3438 0.3301,0.3701 0.3574,0.3691 0.4824,-0.1572 0.459,-0.2158 0.0078,-0.5127 -0.0127,-0.4971 -0.0312,-0.4424 -0.043,-0.3886 -0.0508,-0.334 -0.0683,-0.3477 -0.0039,-0.1211 0.0263,-0.0713 1.0391,-0.4892 0.0713,0.0254 0.0918,0.08 0.2246,0.2745 0.2246,0.2529 0.2715,0.2803 0.3223,0.3056 0.374,0.3262 0.4004,0.3213 0.459,-0.2158 0.4277,-0.2725 -0.0557,-0.5098 -0.0762,-0.4912 -0.0849,-0.4345 -0.0918,-0.3799 -0.0928,-0.3252 -0.1113,-0.3369 -0.0186,-0.1202 0.0176,-0.0732 0.9688,-0.6152 0.0742,0.0156 0.1006,0.0684 0.2568,0.2441 0.2549,0.2217 0.3047,0.2451 0.3584,0.2627 0.4111,0.2764 0.4375,0.2685 0.4287,-0.2715 0.3906,-0.3242 -0.1191,-0.498 -0.1367,-0.4776 -0.1397,-0.4219 -0.1377,-0.3652 -0.1328,-0.3105 -0.1533,-0.3203 -0.0332,-0.1163 0.0078,-0.0761 0.8848,-0.7315 0.0752,0.0069 0.1084,0.0546 0.2861,0.21 0.2803,0.1885 0.333,0.2041 0.3877,0.2158 0.4433,0.2236 0.4678,0.211 0.3906,-0.3233 0.3477,-0.3701 -0.1816,-0.4795 -0.1954,-0.457 -0.1904,-0.4004 -0.1836,-0.3447 -0.1709,-0.292 -0.1914,-0.2988 -0.0478,-0.1114 -0.002,-0.0752 0.7861,-0.8369 0.0762,-0.0029 0.1143,0.04 0.3095,0.1729 0.3018,0.1523 0.3564,0.1602 0.4112,0.166 0.4687,0.166 0.4903,0.1514 0.3466,-0.3701 0.2989,-0.4102 -0.2403,-0.4541 -0.2509,-0.4287 -0.2403,-0.3731 -0.2246,-0.3193 -0.206,-0.2685 -0.2276,-0.2715 -0.0615,-0.1045 -0.0107,-0.0752 0.6748,-0.9287 0.0752,-0.0127 0.1181,0.0263 0.3291,0.1319 0.3184,0.1133 0.373,0.1152 0.4297,0.1123 0.4854,0.1064 0.5049,0.0879 0.2988,-0.4101 0.2441,-0.4444 -0.2949,-0.4199 -0.3027,-0.3935 -0.2852,-0.3409 -0.2627,-0.289 -0.2383,-0.2402 -0.2597,-0.2413 -0.0743,-0.0957 -0.0205,-0.0732 0.5538,-1.0059 0.0722,-0.0224 0.1211,0.0117 0.3428,0.0898 0.3301,0.0723 0.3847,0.0674 0.4405,0.0576 0.4941,0.0449 0.5127,0.0244 0.2441,-0.4453 0.1875,-0.4717 -0.3457,-0.3789 -0.3496,-0.3525 -0.3252,-0.3027 -0.2968,-0.2539 -0.2666,-0.208 -0.2881,-0.2071 -0.085,-0.0859 -0.0293,-0.0694 0.4219,-1.0673 0.0693,-0.0313 0.1211,-0.0039 0.3516,0.0459 0.3369,0.0303 0.3906,0.0185 0.4434,0.003 0.4961,-0.0186 0.5117,-0.04 0.1865,-0.4717 0.127,-0.49122 -0.3907,-0.33301 -0.3906,-0.30664 -0.3603,-0.25879 -0.3272,-0.21386 -0.29,-0.17383 -0.3116,-0.16895 -0.0957,-0.07422 -0.038,-0.0664 0.2861,-1.11133 0.0644,-0.03906 0.1192,-0.01953 0.3555,0.002 0.3378,-0.0127 0.3897,-0.03027 0.4404,-0.05273 0.4893,-0.08008 0.5029,-0.10449 0.126,-0.49122 0.0635,-0.50292 -0.4287,-0.28223 -0.4258,-0.25488 -0.3907,-0.21094 -0.3505,-0.17188 -0.3096,-0.13574 -0.3311,-0.12891 -0.1035,-0.0625 -0.0459,-0.05957 0.1436,-1.13964 0.0595,-0.04688 0.1163,-0.03418 0.3525,-0.04199 0.333,-0.05469 0.3828,-0.0791 0.4307,-0.1084 0.4756,-0.14062 0.4863,-0.16602 0.0635,-0.50293 0,-0.50781 -0.461,-0.22559 -0.455,-0.19922 -0.4131,-0.161128 -0.3701,-0.126954 -0.3243,-0.0957 -0.3437,-0.08594 -0.1113,-0.04883 -0.0528,-0.05371 0,-1.148438 0.0528,-0.05371 0.1113,-0.04883 0.3437,-0.08594 0.3243,-0.0957 0.3701,-0.126954 0.4131,-0.161128 0.455,-0.19922 0.461,-0.22559 0,-0.50781 -0.0635,-0.50293 -0.4863,-0.16602 -0.4756,-0.14062 -0.4307,-0.1084 -0.3828,-0.0791 -0.333,-0.05469 -0.3525,-0.04199 -0.1163,-0.03418 -0.0595,-0.04688 -0.1436,-1.13964 0.0459,-0.05957 0.1035,-0.0625 0.3311,-0.12891 0.3096,-0.13574 0.3505,-0.17188 0.3907,-0.21094 0.4258,-0.25488 0.4287,-0.28223 -0.0635,-0.50292 -0.126,-0.49122 -0.5029,-0.10449 -0.4893,-0.08008 -0.4404,-0.05273 -0.3897,-0.03027 -0.3378,-0.0127 -0.3555,0.002 -0.1192,-0.01953 -0.0644,-0.03906 -0.2861,-1.11133 0.038,-0.0664 0.0957,-0.07422 0.3116,-0.16895 0.29,-0.17383 0.3272,-0.21386 0.3603,-0.25879 0.3906,-0.30664 0.3907,-0.33301 -0.127,-0.49122 -0.1865,-0.4717 -0.5117,-0.04 -0.4961,-0.0186 -0.4434,0.003 -0.3906,0.0185 -0.3369,0.0303 -0.3516,0.0459 -0.1211,-0.0039 -0.0693,-0.0313 -0.4219,-1.0673 0.0293,-0.0694 0.085,-0.0859 0.2881,-0.2071 0.2666,-0.208 0.2968,-0.2539 0.3252,-0.3027 0.3496,-0.3525 0.3457,-0.3789 -0.1875,-0.4717 -0.2441,-0.4453 -0.5127,0.0244 -0.4941,0.0449 -0.4405,0.0576 -0.3847,0.0674 -0.3301,0.0723 -0.3428,0.0898 -0.1211,0.0117 -0.0722,-0.0224 -0.5538,-1.0059 0.0205,-0.0732 0.0743,-0.0957 0.2597,-0.2413 0.2383,-0.2402 0.2627,-0.289 0.2852,-0.3409 0.3027,-0.3935 0.2949,-0.4199 -0.2441,-0.4444 -0.2988,-0.4101 -0.5049,0.0879 -0.4854,0.1064 -0.4297,0.1123 -0.373,0.1152 -0.3184,0.1133 -0.3291,0.1319 -0.1181,0.0263 -0.0752,-0.0127 -0.6748,-0.9287 0.0107,-0.0752 0.0615,-0.1045 0.2276,-0.2715 0.206,-0.2685 0.2246,-0.3193 0.2403,-0.3731 0.2509,-0.4287 0.2403,-0.4541 -0.2989,-0.4102 -0.3466,-0.3701 -0.4903,0.1514 -0.4687,0.166 -0.4112,0.166 -0.3564,0.1602 -0.3018,0.1523 -0.3095,0.1729 -0.1143,0.04 -0.0762,-0.0029 -0.7861,-0.8369 0.002,-0.0752 0.0478,-0.1114 0.1914,-0.2988 0.1709,-0.292 0.1836,-0.3447 0.1904,-0.4004 0.1954,-0.457 0.1816,-0.4795 -0.3477,-0.3701 -0.3906,-0.3233 -0.4678,0.211 -0.4433,0.2236 -0.3877,0.2158 -0.333,0.2041 -0.2803,0.1885 -0.2861,0.21 -0.1084,0.0546 -0.0752,0.0069 -0.8848,-0.7315 -0.0078,-0.0761 0.0332,-0.1163 0.1533,-0.3203 0.1328,-0.3105 0.1377,-0.3652 0.1397,-0.4219 0.1367,-0.4776 0.1191,-0.498 -0.3906,-0.3242 -0.4287,-0.2715 -0.4375,0.2685 -0.4111,0.2764 -0.3584,0.2627 -0.3047,0.2451 -0.2549,0.2217 -0.2568,0.2441 -0.1006,0.0684 -0.0742,0.0156 -0.9688,-0.6152 -0.0176,-0.0732 0.0186,-0.1202 0.1113,-0.3369 0.0928,-0.3252 0.0918,-0.3799 0.0849,-0.4345 0.0762,-0.4912 0.0557,-0.5098 -0.4277,-0.2725 -0.459,-0.2158 -0.4004,0.3213 -0.374,0.3262 -0.3223,0.3056 -0.2715,0.2803 -0.2246,0.2529 -0.2246,0.2745 -0.0918,0.08 -0.0713,0.0254 -1.0391,-0.4892 -0.0263,-0.0713 0.0039,-0.1211 0.0683,-0.3477 0.0508,-0.334 0.043,-0.3886 0.0312,-0.4424 0.0127,-0.4971 -0.0078,-0.5127 -0.459,-0.2158 -0.4824,-0.1572 -0.3574,0.3691 -0.3301,0.3701 -0.2812,0.3438 -0.2344,0.3125 -0.1914,0.2793 -0.1885,0.2998 -0.0801,0.0908 -0.0674,0.0342 -1.0927,-0.3555 -0.0342,-0.0664 -0.0117,-0.1211 0.0234,-0.3535 0.0098,-0.3379 -0.0069,-0.3906 -0.0254,-0.4434 -0.0488,-0.4941 -0.0722,-0.5078 -0.4825,-0.1573 -0.498,-0.0947 -0.3086,0.4102 -0.2803,0.4092 -0.2363,0.3759 -0.1934,0.3399 -0.1552,0.3008 -0.1485,0.3212 -0.0683,0.1006 -0.0635,0.042 -1.1279,-0.2158 -0.043,-0.0625 -0.0264,-0.1182 -0.0205,-0.3535 -0.0332,-0.3369 -0.0557,-0.3867 -0.08,-0.4365 -0.1114,-0.4834 -0.1347,-0.4951 -0.4981,-0.0948 -0.5068,-0.0322 -0.2539,0.4453 -0.2276,0.4414 -0.1865,0.4024 -0.1494,0.3613 -0.1162,0.3174 -0.1084,0.3379 -0.0547,0.1084 -0.0576,0.0498 -1.1455,-0.0723 -0.0508,-0.0566 -0.041,-0.1143 -0.0645,-0.3486 -0.0761,-0.3291 -0.1026,-0.377 -0.1347,-0.4228 -0.1709,-0.4668 -0.1963,-0.4737 -0.5059,-0.0322 -0.5068,0.0322 -0.1963,0.4737 -0.1699,0.4668 -0.1348,0.4228 -0.1035,0.377 -0.0752,0.3291 -0.0645,0.3486 -0.041,0.1143 -0.0508,0.0566 -1.1455,0.0723 -0.0576,-0.0498 -0.0557,-0.1084 -0.1074,-0.3379 -0.1162,-0.3174 -0.1494,-0.3613 -0.1865,-0.4024 -0.2276,-0.4414 -0.2539,-0.4453 -0.5068,0.0322 -0.4981,0.0948 -0.1357,0.4951 -0.1103,0.4834 -0.0811,0.4365 -0.0547,0.3867 -0.0332,0.3369 -0.0205,0.3535 -0.0264,0.1182 -0.0439,0.0625 -1.127,0.2158 -0.0634,-0.042 -0.0684,-0.1006 -0.1494,-0.3212 -0.1543,-0.3008 -0.1943,-0.3399 -0.2354,-0.3759 -0.2812,-0.4092 -0.3077,-0.4102 -0.498,0.0947 -0.4834,0.1573 -0.0713,0.5078 -0.0498,0.4941 -0.0254,0.4434 -0.0059,0.3906 0.0088,0.3379 0.0244,0.3535 -0.0117,0.1211 -0.0351,0.0664 -1.0918,0.3555 -0.0674,-0.0342 -0.0811,-0.0908 -0.1875,-0.2998 -0.1914,-0.2793 -0.2353,-0.3125 -0.2803,-0.3438 -0.3301,-0.3701 -0.3574,-0.3691 -0.4824,0.1572 -0.459,0.2158 -0.0078,0.5127 0.0127,0.4971 0.0303,0.4424 0.0429,0.3886 0.0518,0.334 0.0683,0.3477 0.003,0.1211 -0.0264,0.0713 -1.0381,0.4892 -0.0722,-0.0254 -0.0909,-0.08 -0.2246,-0.2745 -0.2246,-0.2529 -0.2714998,-0.2803 -0.3222,-0.3056 -0.3741,-0.3262 -0.4003,-0.3213 -0.459,0.2158 -0.4287,0.2725 0.0566,0.5098 0.0752,0.4912 0.0859,0.4345 0.0909,0.3799 0.0927,0.3252 0.1114,0.3369 0.0195,0.1202 -0.0176,0.0732 -0.9697,0.6152 -0.0742,-0.0156 -0.0997,-0.0684 -0.2578,-0.2441 -0.2539,-0.2217 -0.3056,-0.2451 -0.3575,-0.2627 -0.4121,-0.2764 -0.4375,-0.2685 -0.4277,0.2715 -0.3916,0.3242 0.1201,0.498 0.1367,0.4776 0.1387,0.4219 0.1387,0.3652 0.1328,0.3105 0.1523,0.3203 0.0342,0.1163 -0.0078,0.0761 -0.8848,0.7315 -0.0761,-0.0069 -0.1075,-0.0546 -0.2861,-0.21 -0.2803,-0.1885 -0.333,-0.2041 -0.3877,-0.2158 -0.4433,-0.2236 -0.4678,-0.211 -0.3906,0.3233 -0.3477,0.3701 0.1817,0.4795 0.1943,0.457 0.1914,0.4004 0.1836,0.3447 0.1699,0.292 0.1924,0.2988 0.0479,0.1114 9e-4,0.0752 -0.7851,0.8369 -0.0762,0.0029 -0.1143,-0.04 -0.3095,-0.1729 -0.30179995,-0.1523 -0.3564,-0.1602 -0.4121,-0.166 -0.4678,-0.166 -0.4902,-0.1514 -0.34770005,0.3701 -0.2979,0.4102 0.2403,0.4541 0.251,0.4287 0.23920005,0.3731 0.2256,0.3193 0.2051,0.2685 0.2275,0.2715 0.0615,0.1045 0.0118,0.0752 -0.6748,0.9287 -0.0752,0.0127 -0.1182,-0.0263 -0.32910005,-0.1319 -0.3184,-0.1133 -0.374,-0.1152 -0.4287,-0.1123 -0.4854,-0.1064 -0.5048,-0.0879 -0.2989,0.4101 -0.2441,0.4444 0.2949,0.4199 0.3028,0.3935 0.2841,0.3409 0.2637,0.289 0.2373,0.2402 0.2608,0.2413 0.0732,0.0957 0.0205,0.0732 -0.5527,1.0059 -0.0723,0.0224 -0.1211,-0.0117 -0.3428,-0.0898 -0.33,-0.0723 -0.3858,-0.0674 -0.4394,-0.0576 -0.4952,-0.0449 -0.5117,-0.0244 -0.2451,0.4453 -0.1865,0.4717 0.3457,0.3789 0.3496,0.3525 0.3252,0.3027 0.2969,0.2539 0.2656,0.208 0.2881,0.2071 0.0859,0.0859 0.0293,0.0694 -0.4228,1.0673 -0.0694,0.0313 -0.1211,0.0039 -0.3515,-0.0459 -0.336,-0.0303 -0.3906,-0.0185 -0.4443,-0.003 -0.4961,0.0186 -0.5108,0.04 -0.1875,0.4717 -0.1259,0.49122 0.3906,0.33301 0.3906,0.30664 0.3604,0.25879 0.3271,0.21386 0.29,0.17383 0.3116,0.16895 0.0957,0.07422 0.0381,0.0664 -0.2862,1.11133 -0.0644,0.03906 -0.1201,0.01953 -0.3545,-0.002 -0.3379,0.0127 -0.3897,0.03027 -0.4404,0.05273 -0.4902,0.08008 -0.502,0.10449 -0.126,0.49122 -0.0644,0.50292 0.4297,0.28223 0.4257,0.25488 0.3897,0.21094 0.3516,0.17188 0.3095,0.13574 0.3301,0.12891 0.1045,0.0625 0.0459,0.05957 -0.1436,1.13964 -0.0595,0.04688 -0.1162,0.03418 -0.3526,0.04199 -0.334,0.05469 -0.3818,0.0791 -0.4307,0.1084 -0.4765,0.14062 -0.4854,0.16602 -0.0635,0.50293 0,0.50781 0.461,0.22559 0.4551,0.19922 0.413,0.161128 0.3702,0.126954 0.3242,0.0957 0.3437,0.08594 0.1114,0.04883 0.0527,0.05371 0,1.148438 -0.0527,0.05371 -0.1114,0.04883 -0.3437,0.08594 -0.3242,0.0957 -0.3702,0.126954 -0.413,0.161128 -0.4551,0.19922 -0.461,0.22559 0,0.50781 0.0635,0.50293 0.4854,0.16602 0.4765,0.14062 0.4307,0.1084 0.3818,0.0791 0.334,0.05469 0.3526,0.04199 0.1162,0.03418 0.0595,0.04688 0.1436,1.13964 -0.0459,0.05957 -0.1045,0.0625 -0.3301,0.12891 -0.3095,0.13574 -0.3516,0.17188 -0.3897,0.21094 -0.4257,0.25488 -0.4297,0.28223 0.0644,0.50292 0.126,0.49122 0.502,0.10449 0.4902,0.08008 0.4404,0.05273 0.3897,0.03027 0.3379,0.0127 0.3545,-0.002 0.1201,0.01953 0.0644,0.03906 0.2862,1.11133 -0.0381,0.0664 -0.0957,0.07422 -0.3116,0.16895 -0.29,0.17383 -0.3271,0.21386 -0.3604,0.25879 -0.3906,0.30664 -0.3906,0.33301 0.1259,0.49122 0.1875,0.4717 0.5108,0.04 0.4961,0.0186 0.4443,-0.003 0.3906,-0.0185 0.336,-0.0303 0.3515,-0.0459 0.1211,0.0039 0.0694,0.0313 0.4228,1.0673 -0.0293,0.0694 -0.0859,0.0859 -0.2881,0.2071 -0.2656,0.208 -0.2969,0.2539 -0.3252,0.3027 -0.3496,0.3525 -0.3457,0.3789 0.1865,0.4717 0.2451,0.4453 0.5117,-0.0244 0.4952,-0.0449 0.4394,-0.0576 0.3858,-0.0674 0.33,-0.0723 0.3428,-0.0898 0.1211,-0.0117 0.0723,0.0224 0.5527,1.0059 -0.0205,0.0732 -0.0732,0.0957 -0.2608,0.2413 -0.2373,0.2402 -0.2637,0.289 -0.2841,0.3409 -0.3028,0.3935 -0.2949,0.4199 0.2441,0.4444 0.2989,0.4101 0.5048,-0.0879 0.4854,-0.1064 0.4287,-0.1123 0.374,-0.1152 0.3184,-0.1133 0.32910005,-0.1319 0.1182,-0.0263 0.0752,0.0127 0.6748,0.9287 -0.0118,0.0752 -0.0615,0.1045 -0.2275,0.2715 -0.2051,0.2685 -0.2256,0.3193 -0.23920005,0.3731 -0.251,0.4287 -0.2403,0.4541 0.2979,0.4102 0.34770005,0.3701 0.4902,-0.1514 0.4678,-0.166 0.4121,-0.166 0.3564,-0.1602 0.30179995,-0.1523 0.3095,-0.1729 0.1143,-0.04 0.0762,0.0029 0.7851,0.8369 -9e-4,0.0752 -0.0479,0.1114 -0.1924,0.2988 -0.1699,0.292 -0.1836,0.3447 -0.1914,0.4004 -0.1943,0.457 -0.1817,0.4795 0.3477,0.3701 0.3906,0.3233 0.4678,-0.211 0.4433,-0.2236 0.3877,-0.2158 0.333,-0.2041 0.2803,-0.1885 0.2861,-0.21 0.1075,-0.0546 0.0761,-0.0069 0.8848,0.7315 0.0078,0.0761 -0.0342,0.1163 -0.1523,0.3203 -0.1328,0.3105 -0.1387,0.3652 -0.1387,0.4219 -0.1367,0.4776 -0.1201,0.498 0.3916,0.3242 0.4277,0.2715 0.4375,-0.2685 0.4121,-0.2764 0.3575,-0.2627 0.3056,-0.2451 0.2539,-0.2217 0.2578,-0.2441 0.0997,-0.0684 0.0742,-0.0156 0.9697,0.6152 0.0176,0.0732 -0.0195,0.1202 -0.1114,0.3369 -0.0927,0.3252 -0.0909,0.3799 -0.0859,0.4345 -0.0752,0.4912 -0.0566,0.5098 0.4287,0.2725 0.459,0.2158 0.4003,-0.3213 0.3741,-0.3262 0.3222,-0.3056 0.2714998,-0.2803 0.2246,-0.2529 0.2246,-0.2745 0.0909,-0.08 0.0722,-0.0254 1.0381,0.4892 0.0264,0.0713 -0.003,0.1211 -0.0683,0.3477 -0.0518,0.334 -0.0429,0.3886 -0.0303,0.4424 -0.0127,0.4971 0.0078,0.5127 0.459,0.2158 0.4824,0.1572 0.3574,-0.3691 0.3301,-0.3701 0.2803,-0.3438 0.2353,-0.3125 0.1914,-0.2793 0.1875,-0.2998 0.0811,-0.0908 0.0674,-0.0342 1.0918,0.3555 0.0351,0.0664 0.0117,0.1211 -0.0244,0.3535 -0.0088,0.3379 0.0059,0.3906 0.0254,0.4434 0.0498,0.4941 0.0713,0.5078 0.4834,0.1573 0.498,0.0947 0.3077,-0.4102 0.2812,-0.4092 0.2354,-0.3759 0.1943,-0.3399 0.1543,-0.3008 0.1494,-0.3212 0.0684,-0.1006 0.0634,-0.042 1.127,0.2158 0.0439,0.0625 0.0264,0.1182 0.0205,0.3535 0.0332,0.3369 0.0547,0.3867 0.0811,0.4365 0.1103,0.4834 0.1357,0.4951 0.4981,0.0948 0.5068,0.0322 0.2539,-0.4453 0.2276,-0.4414 0.1865,-0.4024 0.1494,-0.3613 0.1162,-0.3174 0.1074,-0.3379 0.0557,-0.1084 0.0576,-0.0498 1.1455,0.0723 0.0508,0.0566 0.041,0.1143 0.0645,0.3486 0.0752,0.3291 0.1035,0.377 0.1348,0.4228 0.1699,0.4668 0.1963,0.4737 0.5068,0.0322 z"
         style="fill:#d3d3d3;stroke:#000000;stroke-width:0.5"
         inkscape:connector-curvature="0" />
      <path
         id="path4144"
         d="m 23.887429,-50.802136 -0.5059,-0.13086 -0.4687,-0.23242 -0.4092,-0.32422 -0.333,-0.40234 -0.2422,-0.463868 -0.1406,-0.50293 -0.0332,-0.521484 0.0761,-0.517578 0.1827,-0.48926 0.2802,-0.4414 0.3653,-0.37403 0.4355,-0.28906 0.4854,-0.19238 0.5156,-0.08692 0.5224,0.02149 0.5059,0.13086 0.4688,0.23242 0.4091,0.32422 0.333,0.40234 0.2422,0.463868 0.1407,0.50293 0.0332,0.521484 -0.0772,0.517578 -0.1816,0.48926 -0.2803,0.4414 -0.3652,0.37403 -0.4356,0.28906 -0.4863,0.19238 -0.5147,0.08692 z"
         style="fill:#d3d3d3;stroke:#000000;stroke-width:0.5"
         inkscape:connector-curvature="0" />
    </g>
  </g>
</svg>
