999
DXF generated by OpenJsCad
  0
SECTION
  2
HEADER
  0
ENDSEC
  0
SECTION
  2
TABLES
  0
TABLE
  2
LTYPE
  70
1
  0
LTYPE
  2
CONTINUOUS
  3
Solid Line
  72
65
  73
0
  40
0.0
  0
ENDTAB
  0
TABLE
  2
LAYER
  70
1
  0
LAYER
  2
OpenJsCad
  62
7
  6
continuous
  0
ENDTAB
  0
TABLE
  2
STYLE
  70
0
  0
ENDTAB
  0
TABLE
  2
VIEW
  70
0
  0
ENDTAB
  0
ENDSEC
  0
SECTION
  2
BLOCKS
  0
ENDSEC
  0
SECTION
  2
ENTITIES
  0
LWPOLYLINE
  8
OpenJsCad
  90
951
  70
1
 10
32.748117364019485
 20
-4.64745570100272
 30
0.0
 10
32.8431914362944
 20
-4.149059960333618
 30
0.0
 10
32.875050271339475
 20
-3.6426782780369176
 30
0.0
 10
32.42930509428326
 20
-3.3886181525076093
 30
0.0
 10
31.9879788771919
 20
-3.1610109782768334
 30
0.0
 10
31.585455556411056
 20
-2.9743219346218654
 30
0.0
 10
31.224303727435515
 20
-2.824862915510605
 30
0.0
 10
30.906849615638723
 20
-2.7088060325904433
 30
0.0
 10
30.568926247618787
 20
-2.601079703137022
 30
0.0
 10
30.461113419145942
 20
-2.5458509734266292
 30
0.0
 10
30.411505366194678
 20
-2.4884945627574395
 30
0.0
 10
30.48359263316379
 20
-1.3427002652516933
 30
0.0
 10
30.539998176214418
 20
-1.2920136646967326
 30
0.0
 10
30.65388286361362
 20
-1.250732960431759
 30
0.0
 10
31.002643294152445
 20
-1.1862091136716153
 30
0.0
 10
31.332139969874437
 20
-1.1108549242781784
 30
0.0
 10
31.709176190958082
 20
-1.007838760706962
 30
0.0
 10
32.131923836638755
 20
-0.8730713653002693
 30
0.0
 10
32.59829680781843
 20
-0.7025717834663727
 30
0.0
 10
33.07236932806915
 20
-0.5063816822966929
 30
0.0
 10
33.10422816311418
 20
-8.881784197001252e-16
 30
0.0
 10
33.07236932806921
 20
0.5063816822966989
 30
0.0
 10
32.59829680781939
 20
0.702571783465981
 30
0.0
 10
32.13192383663877
 20
0.8730713653002173
 30
0.0
 10
31.709176190957866
 20
1.0078387607061468
 30
0.0
 10
31.332139969874056
 20
1.1108549242773027
 30
0.0
 10
31.002643294153952
 20
1.1862091136713524
 30
0.0
 10
30.65388286361326
 20
1.250732960429859
 30
0.0
 10
30.5399981762148
 20
1.2920136646982483
 30
0.0
 10
30.483592633163454
 20
1.3427002652505706
 30
0.0
 10
30.411505366195158
 20
2.4884945627563684
 30
0.0
 10
30.461113419145374
 20
2.545850973428085
 30
0.0
 10
30.568926247619387
 20
2.6010797031351824
 30
0.0
 10
30.906849615637267
 20
2.7088060325899934
 30
0.0
 10
31.224303727436006
 20
2.8248629155097835
 30
0.0
 10
31.585455556411375
 20
2.9743219346210834
 30
0.0
 10
31.987978877191896
 20
3.16101097827678
 30
0.0
 10
32.42930509428236
 20
3.3886181525071004
 30
0.0
 10
32.87505027133944
 20
3.6426782780369185
 30
0.0
 10
32.8431914362944
 20
4.149059960333609
 30
0.0
 10
32.74811736401948
 20
4.6474557010027375
 30
0.0
 10
32.2531939074176
 20
4.782681742718273
 30
0.0
 10
31.769129162500942
 20
4.893384851898931
 30
0.0
 10
31.33282417482957
 20
4.974105236724129
 30
0.0
 10
30.945849648074507
 20
5.029053918316791
 30
0.0
 10
30.60950676783897
 20
5.062517033603573
 30
0.0
 10
30.25540943510653
 20
5.082820818059107
 30
0.0
 10
30.137248918334144
 20
5.109502475519282
 30
0.0
 10
30.07493543429167
 20
5.152719907985319
 30
0.0
 10
29.8598104926489
 20
6.280444344955166
 30
0.0
 10
29.90183870686927
 20
6.343566020884286
 30
0.0
 10
30.001879403708795
 20
6.411871785973982
 30
0.0
 10
30.323636455826446
 20
6.561101689555369
 30
0.0
 10
30.62404156272098
 20
6.7160309796288455
 30
0.0
 10
30.96361341950349
 20
6.909575796266354
 30
0.0
 10
31.339564382159367
 20
7.145242290429975
 30
0.0
 10
31.748883867081602
 20
7.426367555953171
 30
0.0
 10
32.159272033227516
 20
7.734291025895357
 30
0.0
 10
32.0641979609526
 20
8.232686766564477
 30
0.0
 10
31.907408026362127
 20
8.715236567048503
 30
0.0
 10
31.3994388719717
 20
8.78736595385231
 30
0.0
 10
30.905316343512613
 20
8.836526736216777
 30
0.0
 10
30.462334804142312
 20
8.861927101772533
 30
0.0
 10
30.071524791170297
 20
8.867941727853232
 30
0.0
 10
29.733640034562136
 20
8.858986035714778
 30
0.0
 10
29.379790126102638
 20
8.834749555057583
 30
0.0
 10
29.2592172418915
 20
8.846411380032546
 30
0.0
 10
29.19197853772552
 20
8.881478079685467
 30
0.0
 10
28.837208570247395
 20
9.973347768078424
 30
0.0
 10
28.870994135693223
 20
10.041239242728485
 30
0.0
 10
28.961684999347685
 20
10.121544820481429
 30
0.0
 10
29.262201434644872
 20
10.309924853464288
 30
0.0
 10
29.540819968646154
 20
10.501283223236722
 30
0.0
 10
29.853456602203945
 20
10.735861520023995
 30
0.0
 10
30.196906235471886
 20
11.01678886330224
 30
0.0
 10
30.567763775433058
 20
11.34699870674492
 30
0.0
 10
30.936322864133757
 20
11.703929384033934
 30
0.0
 10
30.779532929543244
 20
12.186479184517946
 30
0.0
 10
30.563499803567368
 20
12.645572946201936
 30
0.0
 10
30.050495928399226
 20
12.653468154576121
 30
0.0
 10
29.554108223845994
 20
12.640311315219284
 30
0.0
 10
29.111436216276985
 20
12.609991082567335
 30
0.0
 10
28.72295402445117
 20
12.566976798889817
 30
0.0
 10
28.38885603592467
 20
12.515743535941022
 30
0.0
 10
28.040833976174202
 20
12.447349013949232
 30
0.0
 10
27.919750230935072
 20
12.443807092492694
 30
0.0
 10
27.848646701176737
 20
12.470170036531139
 30
0.0
 10
27.35982664217969
 20
13.508965539109914
 30
0.0
 10
27.384836740301377
 20
13.580556123369282
 30
0.0
 10
27.46474752167485
 20
13.671595046852085
 30
0.0
 10
27.73928401644712
 20
13.896154343583499
 30
0.0
 10
27.991721996835302
 20
14.12092395725163
 30
0.0
 10
28.2724929406971
 20
14.39283629431805
 30
0.0
 10
28.578024838693597
 20
14.714594094689563
 30
0.0
 10
28.904571788748964
 20
15.088680909562834
 30
0.0
 10
29.225489403009004
 20
15.488989784197747
 30
0.0
 10
29.009456277033145
 20
15.948083545881724
 30
0.0
 10
28.737586931120568
 20
16.376481085894646
 30
0.0
 10
28.22763871273975
 20
16.32001760368677
 30
0.0
 10
27.736814162720826
 20
16.244750633824804
 30
0.0
 10
27.301432888951908
 20
16.15918797114651
 30
0.0
 10
26.9214051145054
 20
16.067823138659854
 30
0.0
 10
26.59636281892009
 20
15.975120284062688
 30
0.0
 10
26.259657123659217
 20
15.86364634320502
 30
0.0
 10
26.139972080386443
 20
15.84495653353419
 30
0.0
 10
26.066125070175236
 20
15.862199962582219
 30
0.0
 10
25.4509639039966
 20
16.831538853724783
 30
0.0
 10
25.466804110606457
 20
16.905699521313547
 30
0.0
 10
25.534674568940293
 20
17.00603605231887
 30
0.0
 10
25.778901518664934
 20
17.263233178544162
 30
0.0
 10
26.00117784769016
 20
17.517869285029587
 30
0.0
 10
26.24565517634683
 20
17.82282744238706
 30
0.0
 10
26.50845091852457
 20
18.180341387131186
 30
0.0
 10
26.785537438202066
 20
18.592405600895862
 30
0.0
 10
27.053752515537756
 20
19.02977956279077
 30
0.0
 10
26.781883169625125
 20
19.458177102803667
 30
0.0
 10
26.458465145767683
 20
19.849122336027193
 30
0.0
 10
25.95961477220636
 20
19.729190626081333
 30
0.0
 10
25.482093973079905
 20
19.59300053079126
 30
0.0
 10
25.060869655882584
 20
19.45354481238971
 30
0.0
 10
24.695289563835995
 20
19.315270309080937
 30
0.0
 10
24.384429072364103
 20
19.182559842230397
 30
0.0
 10
24.06434979154533
 20
19.029764493145482
 30
0.0
 10
23.947950954867693
 20
18.99622154472362
 30
0.0
 10
23.87252507566871
 20
19.004073519604418
 30
0.0
 10
23.140724261378594
 20
19.888668745942475
 30
0.0
 10
23.147144766955908
 20
19.964229938831323
 30
0.0
 10
23.201904544578333
 20
20.07228171032707
 30
0.0
 10
23.41197034436408
 20
20.358060513723554
 30
0.0
 10
23.600579591536174
 20
20.638547349514756
 30
0.0
 10
23.804907751471127
 20
20.971741954848586
 30
0.0
 10
24.020822891989397
 20
21.35937383548823
 30
0.0
 10
24.244079161350243
 20
21.80291694933802
 30
0.0
 10
24.45536178976807
 20
22.270458349839302
 30
0.0
 10
24.1319437659106
 20
22.661403583062803
 30
0.0
 10
23.76207755954509
 20
23.00873106962967
 30
0.0
 10
23.28219219919309
 20
22.827222526655376
 30
0.0
 10
22.82550593921843
 20
22.63225710509595
 30
0.0
 10
22.425081537702113
 20
22.441107630957138
 30
0.0
 10
22.07971454449398
 20
22.258104128344613
 30
0.0
 10
21.78793831278508
 20
22.087478972580325
 30
0.0
 10
21.48953328787301
 20
21.89577188919875
 30
0.0
 10
21.378256336978215
 20
21.84790479436006
 30
0.0
 10
21.30244109996366
 20
21.846241484739206
 30
0.0
 10
20.46554157356003
 20
22.63214245112183
 30
0.0
 10
20.46244112289642
 20
22.70791252416084
 30
0.0
 10
20.50322662540243
 20
22.82197549516352
 30
0.0
 10
20.675818412099428
 20
23.131829073285655
 30
0.0
 10
20.827786096920793
 20
23.433743193427492
 30
0.0
 10
20.98874271099212
 20
23.78991956877075
 30
0.0
 10
21.154372139103504
 20
24.20155619898817
 30
0.0
 10
21.320277273413048
 20
24.669583273057846
 30
0.0
 10
21.471295399648717
 20
25.15991870498389
 30
0.0
 10
21.101429193283177
 20
25.507246191550713
 30
0.0
 10
20.69094781543136
 20
25.805478369514343
 30
0.0
 10
20.237595547091065
 20
25.56525549166231
 30
0.0
 10
19.808946041399153
 20
25.314589464998214
 30
0.0
 10
19.435636487577696
 20
25.074760776516477
 30
0.0
 10
19.11592923700315
 20
24.84991434915739
 30
0.0
 10
18.847838750529963
 20
24.644065365112287
 30
0.0
 10
18.575814007025976
 20
24.41646988265924
 30
0.0
 10
18.471413845903268
 20
24.355033534083738
 30
0.0
 10
18.396404902650684
 20
24.343881171347572
 30
0.0
 10
17.467605069604474
 20
25.01869375006043
 30
0.0
 10
17.45503255865902
 20
25.093477763934924
 30
0.0
 10
17.481200574310012
 20
25.211753093253915
 30
0.0
 10
17.613596472340724
 20
25.540794870077153
 30
0.0
 10
17.726525973640626
 20
25.85937490854024
 30
0.0
 10
17.841572659893608
 20
26.23291593968431
 30
0.0
 10
17.954304300574556
 20
26.662065563921168
 30
0.0
 10
18.060241876757818
 20
27.14719553166683
 30
0.0
 10
18.14861385474674
 20
27.65259211234397
 30
0.0
 10
17.738132476894897
 20
27.950824290307562
 30
0.0
 10
17.293509464095205
 20
28.19525786006625
 30
0.0
 10
16.873839923857837
 20
27.90010910562236
 30
0.0
 10
16.47998723121623
 20
27.59769562683471
 30
0.0
 10
16.13967983975772
 20
27.312969965694123
 30
0.0
 10
15.85067430614218
 20
27.049826576064675
 30
0.0
 10
15.610497512025876
 20
26.812000125185364
 30
0.0
 10
15.369143042634743
 20
26.552105560378074
 30
0.0
 10
15.273266124190652
 20
26.4780688459831
 30
0.0
 10
15.200246410543306
 20
26.457603309554067
 30
0.0
 10
14.19419399905978
 20
27.01068530311736
 30
0.0
 10
14.17234770384055
 20
27.083303869254735
 30
0.0
 10
14.183485547397694
 20
27.203926284292418
 30
0.0
 10
14.273597594360696
 20
27.546967074436232
 30
0.0
 10
14.345707946442822
 20
27.87718883370351
 30
0.0
 10
14.413030349909688
 20
28.262203555444657
 30
0.0
 10
14.471086357844047
 20
28.70209822776518
 30
0.0
 10
14.515385677040571
 20
29.19668029979288
 30
0.0
 10
14.539717827899025
 20
29.709167623234595
 30
0.0
 10
14.095094815099293
 20
29.953601192993208
 30
0.0
 10
13.62334213786842
 20
30.140381291134222
 30
0.0
 10
13.243973765081991
 20
29.79496133226942
 30
0.0
 10
12.891129177729848
 20
29.445569642571765
 30
0.0
 10
12.58919079948736
 20
29.120437302535368
 30
0.0
 10
12.335444772739477
 20
28.823146879084263
 30
0.0
 10
12.126969402497942
 20
28.557093626571742
 30
0.0
 10
11.920091511380127
 20
28.26899867195072
 30
0.0
 10
11.834249871892613
 20
28.18352919494966
 30
0.0
 10
11.764370952354586
 20
28.154073238562773
 30
0.0
 10
10.69693200994942
 20
28.576702213542838
 30
0.0
 10
10.666156459582364
 20
28.64601009377488
 30
0.0
 10
10.66208848059934
 20
28.767077306989773
 30
0.0
 10
10.708495555683697
 20
29.118707152270957
 30
0.0
 10
10.738649535219077
 20
29.455362837933865
 30
0.0
 10
10.7571859413807
 20
29.84577933811358
 30
0.0
 10
10.759650738642366
 20
30.289481656754937
 30
0.0
 10
10.741613174125296
 20
30.785715978339795
 30
0.0
 10
10.701521765298892
 20
31.297211813310263
 30
0.0
 10
10.229769088068025
 20
31.48399191145127
 30
0.0
 10
9.738326567937362
 20
31.61017290425003
 30
0.0
 10
9.405242228464358
 20
31.219929220059438
 30
0.0
 10
9.09897031632336
 20
30.82906943511478
 30
0.0
 10
8.840162699891026
 20
30.4686579474096
 30
0.0
 10
8.625677906433145
 20
30.14190893770734
 30
0.0
 10
8.452191741192232
 20
29.851824702286255
 30
0.0
 10
8.283053016273525
 20
29.540072787385448
 30
0.0
 10
8.20860042967662
 20
29.444518452487603
 30
0.0
 10
8.142964336552671
 20
29.40653661417122
 30
0.0
 10
7.030973013004705
 20
29.692047459166307
 30
0.0
 10
6.9917535563035385
 20
29.756951626819234
 30
0.0
 10
6.972543909239
 20
29.876554335936888
 30
0.0
 10
6.974514145148388
 20
30.231227823641866
 30
0.0
 10
6.962236205866633
 20
30.569008174429147
 30
0.0
 10
6.931694284524733
 20
30.95866935161609
 30
0.0
 10
6.878528999788491
 20
31.399181865958383
 30
0.0
 10
6.798439014725379
 20
31.88924252541299
 30
0.0
 10
6.694556311680778
 20
32.391680277041964
 30
0.0
 10
6.203113791550103
 20
32.51786126984065
 30
0.0
 10
5.699731770635613
 20
32.58145320766381
 30
0.0
 10
5.418184403484475
 20
32.15254017416739
 30
0.0
 10
5.163315257567058
 20
31.72637638627262
 30
0.0
 10
4.951719953660193
 20
31.336369655359157
 30
0.0
 10
4.779878946812148
 20
30.98531508647915
 30
0.0
 10
4.644117967033319
 20
30.675774669830005
 30
0.0
 10
4.515385827044267
 20
30.34528230857897
 30
0.0
 10
4.45349645510442
 20
30.24115006472708
 30
0.0
 10
4.393138308792213
 20
30.19524134076069
 30
0.0
 10
3.2541313715452223
 20
30.33913137918932
 30
0.0
 10
3.2070865227706857
 20
30.398608256767375
 30
0.0
 10
3.1730381552341287
 20
30.514860255617812
 30
0.0
 10
3.1305404801712955
 20
30.86698397297381
 30
0.0
 10
3.076024252509365
 20
31.200561990973345
 30
0.0
 10
2.996885668008363
 20
31.583322655630965
 30
0.0
 10
2.8889287495739056
 20
32.0136982201736
 30
0.0
 10
2.7480494108726345
 20
32.48985666815031
 30
0.0
 10
2.5820137058933628
 20
32.97531259295283
 30
0.0
 10
2.0786316849788675
 20
33.038904530775895
 30
0.0
 10
1.571248798456214
 20
33.038904530775945
 30
0.0
 10
1.3456785737951675
 20
32.578086362732215
 30
0.0
 10
1.1462316327838955
 20
32.12333942940035
 30
0.0
 10
0.9851856257460189
 20
31.709888094403837
 30
0.0
 10
0.8586984408386452
 20
31.340064306607157
 30
0.0
 10
0.7628036782726902
 20
31.01594934601099
 30
0.0
 10
0.676508305961773
 20
30.671928600373224
 30
0.0
 10
0.6281581810453952
 20
30.56086067525841
 30
0.0
 10
0.5740298655684833
 20
30.50774907364351
 30
0.0
 10
-0.5740298655673856
 20
30.50774907364392
 30
0.0
 10
-0.6281581810468854
 20
30.560860675257935
 30
0.0
 10
-0.6765083059599014
 20
30.671928600373704
 30
0.0
 10
-0.7628036782723343
 20
31.015949346009503
 30
0.0
 10
-0.8586984408377959
 20
31.34006430660759
 30
0.0
 10
-0.9851856257452197
 20
31.709888094404107
 30
0.0
 10
-1.1462316327838444
 20
32.12333942940034
 30
0.0
 10
-1.3456785737947177
 20
32.578086362731284
 30
0.0
 10
-1.571248798456218
 20
33.0389045307759
 30
0.0
 10
-2.0786316849788578
 20
33.038904530775895
 30
0.0
 10
-2.5820137058933588
 20
32.97531259295285
 30
0.0
 10
-2.7480494108722975
 20
32.48985666815129
 30
0.0
 10
-2.888928749573848
 20
32.013698220173616
 30
0.0
 10
-2.996885668007529
 20
31.5833226556308
 30
0.0
 10
-3.07602425250846
 20
31.200561990973018
 30
0.0
 10
-3.1305404801711214
 20
30.86698397297533
 30
0.0
 10
-3.173038155232204
 20
30.51486025561757
 30
0.0
 10
-3.2070865227722165
 20
30.398608256767663
 30
0.0
 10
-3.2541313715440747
 20
30.339131379189052
 30
0.0
 10
-4.393138308791168
 20
30.195241340761232
 30
0.0
 10
-4.453496455105832
 20
30.241150064726423
 30
0.0
 10
-4.515385827042463
 20
30.345282308579684
 30
0.0
 10
-4.644117967032772
 20
30.675774669828577
 30
0.0
 10
-4.779878946811353
 20
30.98531508647969
 30
0.0
 10
-4.951719953659427
 20
31.33636965535953
 30
0.0
 10
-5.163315257566999
 20
31.72637638627262
 30
0.0
 10
-5.418184403483904
 20
32.152540174166525
 30
0.0
 10
-5.699731770635595
 20
32.5814532076637
 30
0.0
 10
-6.203113791550093
 20
32.517861269840616
 30
0.0
 10
-6.694556311680793
 20
32.39168027704202
 30
0.0
 10
-6.798439014725174
 20
31.889242525414
 30
0.0
 10
-6.878528999788443
 20
31.39918186595841
 30
0.0
 10
-6.931694284523891
 20
30.95866935161603
 30
0.0
 10
-6.9622362058657
 20
30.56900817442894
 30
0.0
 10
-6.974514145148412
 20
30.231227823643398
 30
0.0
 10
-6.972543909237066
 20
29.87655433593689
 30
0.0
 10
-6.991753556305099
 20
29.75695162681933
 30
0.0
 10
-7.030973013003541
 20
29.692047459166186
 30
0.0
 10
-8.142964336551708
 20
29.406536614171888
 30
0.0
 10
-8.208600429677944
 20
29.444518452486776
 30
0.0
 10
-8.283053016271833
 20
29.54007278738638
 30
0.0
 10
-8.452191741191516
 20
29.851824702284905
 30
0.0
 10
-8.625677906432431
 20
30.141908937707974
 30
0.0
 10
-8.84016269989032
 20
30.468657947410062
 30
0.0
 10
-9.098970316323308
 20
30.829069435114786
 30
0.0
 10
-9.40524222846369
 20
31.21992922005865
 30
0.0
 10
-9.738326567937364
 20
31.610172904250035
 30
0.0
 10
-10.229769088068045
 20
31.483991911451337
 30
0.0
 10
-10.701521765298908
 20
31.29721181331029
 30
0.0
 10
-10.74161317412522
 20
30.785715978340825
 30
0.0
 10
-10.759650738642321
 20
30.289481656754965
 30
0.0
 10
-10.757185941379857
 20
29.845779338113626
 30
0.0
 10
-10.738649535218125
 20
29.455362837933773
 30
0.0
 10
-10.708495555683912
 20
29.118707152272467
 30
0.0
 10
-10.662088480597424
 20
28.767077306990014
 30
0.0
 10
-10.666156459583926
 20
28.646010093774777
 30
0.0
 10
-10.696932009948247
 20
28.576702213542866
 30
0.0
 10
-11.764370952353717
 20
28.154073238563562
 30
0.0
 10
-11.834249871893823
 20
28.183529194948672
 30
0.0
 10
-11.920091511378564
 20
28.268998671951856
 30
0.0
 10
-12.126969402497064
 20
28.557093626570495
 30
0.0
 10
-12.335444772738848
 20
28.82314687908498
 30
0.0
 10
-12.589190799486715
 20
29.120437302535915
 30
0.0
 10
-12.891129177729796
 20
29.445569642571776
 30
0.0
 10
-13.243973765081229
 20
29.794961332268723
 30
0.0
 10
-13.623342137868404
 20
30.140381291134176
 30
0.0
 10
-14.095094815099273
 20
29.953601192993155
 30
0.0
 10
-14.539717827899064
 20
29.709167623234638
 30
0.0
 10
-14.515385677040635
 20
29.19668029979391
 30
0.0
 10
-14.471086357844014
 20
28.70209822776521
 30
0.0
 10
-14.413030349908865
 20
28.262203555444803
 30
0.0
 10
-14.345707946441875
 20
27.877188833703535
 30
0.0
 10
-14.273597594361108
 20
27.546967074437703
 30
0.0
 10
-14.18348554739583
 20
27.203926284292898
 30
0.0
 10
-14.17234770384209
 20
27.083303869254436
 30
0.0
 10
-14.194193999058628
 20
27.010685303117526
 30
0.0
 10
-15.200246410542547
 20
26.45760330955495
 30
0.0
 10
-15.273266124191734
 20
26.47806884598196
 30
0.0
 10
-15.369143042633342
 20
26.552105560379395
 30
0.0
 10
-15.610497512024855
 20
26.812000125184227
 30
0.0
 10
-15.850674306141652
 20
27.049826576065463
 30
0.0
 10
-16.139679839757154
 20
27.31296996569474
 30
0.0
 10
-16.47998723121619
 20
27.597695626834724
 30
0.0
 10
-16.873839923857
 20
27.900109105621755
 30
0.0
 10
-17.29350946409519
 20
28.19525786006622
 30
0.0
 10
-17.73813247689491
 20
27.950824290307597
 30
0.0
 10
-18.14861385474677
 20
27.652592112344017
 30
0.0
 10
-18.060241876758003
 20
27.14719553166785
 30
0.0
 10
-17.954304300574517
 20
26.66206556392121
 30
0.0
 10
-17.8415726598928
 20
26.232915939684567
 30
0.0
 10
-17.72652597363968
 20
25.859374908540392
 30
0.0
 10
-17.61359647234131
 20
25.54079487007857
 30
0.0
 10
-17.481200574308215
 20
25.211753093254632
 30
0.0
 10
-17.455032558660506
 20
25.093477763934438
 30
0.0
 10
-17.467605069603344
 20
25.01869375006075
 30
0.0
 10
-18.396404902650037
 20
24.343881171348553
 30
0.0
 10
-18.471413845904188
 20
24.355033534082477
 30
0.0
 10
-18.575814007024746
 20
24.41646988266073
 30
0.0
 10
-18.8478387505288
 20
24.644065365111295
 30
0.0
 10
-19.115929237002717
 20
24.849914349158247
 30
0.0
 10
-19.435636487577206
 20
25.07476077651717
 30
0.0
 10
-19.808946041399103
 20
25.314589464998242
 30
0.0
 10
-20.237595547090155
 20
25.565255491661826
 30
0.0
 10
-20.690947815431347
 20
25.805478369514333
 30
0.0
 10
-21.101429193283188
 20
25.507246191550728
 30
0.0
 10
-21.471295399648756
 20
25.159918704983934
 30
0.0
 10
-21.320277273413353
 20
24.669583273058834
 30
0.0
 10
-21.15437213910347
 20
24.20155619898821
 30
0.0
 10
-20.988742710991353
 20
23.789919568771104
 30
0.0
 10
-20.827786096919873
 20
23.43374319342776
 30
0.0
 10
-20.675818412100185
 20
23.131829073286983
 30
0.0
 10
-20.50322662540073
 20
22.821975495164455
 30
0.0
 10
-20.462441122897825
 20
22.707912524160168
 30
0.0
 10
-20.465541573558948
 20
22.632142451122284
 30
0.0
 10
-21.302441099963136
 20
21.846241484740254
 30
0.0
 10
-21.37825633697897
 20
21.84790479435869
 30
0.0
 10
-21.48953328787197
 20
21.895771889200383
 30
0.0
 10
-21.7879383127838
 20
22.087478972579486
 30
0.0
 10
-22.07971454449366
 20
22.25810412834551
 30
0.0
 10
-22.42508153770171
 20
22.441107630957884
 30
0.0
 10
-22.825505939218385
 20
22.632257105095977
 30
0.0
 10
-23.28219219919212
 20
22.827222526655007
 30
0.0
 10
-23.76207755954507
 20
23.00873106962964
 30
0.0
 10
-24.131943765910584
 20
22.661403583062825
 30
0.0
 10
-24.455361789768077
 20
22.270458349839323
 30
0.0
 10
-24.24407916135067
 20
21.802916949338965
 30
0.0
 10
-24.020822891989365
 20
21.359373835488284
 30
0.0
 10
-23.8049077514704
 20
20.971741954849033
 30
0.0
 10
-23.600579591535293
 20
20.63854734951514
 30
0.0
 10
-23.41197034436499
 20
20.358060513724784
 30
0.0
 10
-23.201904544576763
 20
20.072281710328213
 30
0.0
 10
-23.147144766957215
 20
19.964229938830485
 30
0.0
 10
-23.14072426137757
 20
19.888668745943068
 30
0.0
 10
-23.87252507566832
 20
19.004073519605527
 30
0.0
 10
-23.94795095486827
 20
18.996221544722175
 30
0.0
 10
-24.0643497915445
 20
19.029764493147237
 30
0.0
 10
-24.384429072362728
 20
19.182559842229733
 30
0.0
 10
-24.695289563835782
 20
19.315270309081875
 30
0.0
 10
-25.060869655882275
 20
19.4535448123905
 30
0.0
 10
-25.482093973079856
 20
19.593000530791304
 30
0.0
 10
-25.95961477220535
 20
19.729190626081092
 30
0.0
 10
-26.458465145767654
 20
19.849122336027186
 30
0.0
 10
-26.78188316962514
 20
19.45817710280366
 30
0.0
 10
-27.053752515537827
 20
19.029779562790804
 30
0.0
 10
-26.785537438202617
 20
18.592405600896733
 30
0.0
 10
-26.508450918524556
 20
18.180341387131225
 30
0.0
 10
-26.24565517634618
 20
17.82282744238758
 30
0.0
 10
-26.00117784768934
 20
17.51786928503006
 30
0.0
 10
-25.778901518666004
 20
17.26323317854525
 30
0.0
 10
-25.53467456893889
 20
17.00603605232018
 30
0.0
 10
-25.466804110607665
 20
16.905699521312535
 30
0.0
 10
-25.450963903995667
 20
16.831538853725483
 30
0.0
 10
-26.066125070174998
 20
15.86219996258335
 30
0.0
 10
-26.139972080386837
 20
15.844956533532667
 30
0.0
 10
-26.259657123658624
 20
15.863646343206845
 30
0.0
 10
-26.596362818918646
 20
15.97512028406218
 30
0.0
 10
-26.92140511450532
 20
16.067823138660792
 30
0.0
 10
-27.30143288895171
 20
16.159187971147315
 30
0.0
 10
-27.736814162720794
 20
16.244750633824832
 30
0.0
 10
-28.227638712738727
 20
16.320017603686644
 30
0.0
 10
-28.737586931120564
 20
16.376481085894625
 30
0.0
 10
-29.009456277033173
 20
15.948083545881737
 30
0.0
 10
-29.22548940300905
 20
15.488989784197752
 30
0.0
 10
-28.904571788749614
 20
15.08868090956363
 30
0.0
 10
-28.578024838693587
 20
14.714594094689607
 30
0.0
 10
-28.272492940696516
 20
14.392836294318652
 30
0.0
 10
-27.991721996834546
 20
14.120923957252206
 30
0.0
 10
-27.739284016448313
 20
13.896154343584449
 30
0.0
 10
-27.464747521673615
 20
13.671595046853566
 30
0.0
 10
-27.384836740302443
 20
13.58055612336813
 30
0.0
 10
-27.359826642178852
 20
13.508965539110726
 30
0.0
 10
-27.84864670117664
 20
12.4701700365323
 30
0.0
 10
-27.919750230935275
 20
12.443807092491136
 30
0.0
 10
-28.040833976173836
 20
12.447349013951124
 30
0.0
 10
-28.388856035923173
 20
12.515743535940704
 30
0.0
 10
-28.7229540244512
 20
12.566976798890764
 30
0.0
 10
-29.111436216276886
 20
12.609991082568168
 30
0.0
 10
-29.55410822384596
 20
12.64031131521932
 30
0.0
 10
-30.05049592839819
 20
12.653468154576125
 30
0.0
 10
-30.563499803567368
 20
12.645572946201924
 30
0.0
 10
-30.77953292954322
 20
12.186479184517939
 30
0.0
 10
-30.93632286413374
 20
11.703929384033929
 30
0.0
 10
-30.5677637754338
 20
11.346998706745637
 30
0.0
 10
-30.196906235471875
 20
11.016788863302295
 30
0.0
 10
-29.85345660220344
 20
10.735861520024674
 30
0.0
 10
-29.540819968645472
 20
10.501283223237397
 30
0.0
 10
-29.262201434646176
 20
10.30992485346509
 30
0.0
 10
-28.961684999346645
 20
10.121544820483063
 30
0.0
 10
-28.870994135694133
 20
10.041239242727217
 30
0.0
 10
-28.837208570246663
 20
9.973347768079343
 30
0.0
 10
-29.19197853772557
 20
8.881478079686639
 30
0.0
 10
-29.259217241891506
 20
8.846411380030984
 30
0.0
 10
-29.379790126102517
 20
8.834749555059512
 30
0.0
 10
-29.733640034560615
 20
8.85898603571466
 30
0.0
 10
-30.07152479117045
 20
8.867941727854175
 30
0.0
 10
-30.462334804142323
 20
8.861927101773379
 30
0.0
 10
-30.905316343512588
 20
8.836526736216825
 30
0.0
 10
-31.399438871970673
 20
8.787365953852452
 30
0.0
 10
-31.907408026362074
 20
8.715236567048484
 30
0.0
 10
-32.06419796095258
 20
8.232686766564466
 30
0.0
 10
-32.15927203322759
 20
7.734291025895363
 30
0.0
 10
-31.748883867082434
 20
7.426367555953785
 30
0.0
 10
-31.339564382159367
 20
7.145242290430024
 30
0.0
 10
-30.963613419503073
 20
6.909575796267085
 30
0.0
 10
-30.624041562720393
 20
6.716030979629595
 30
0.0
 10
-30.32363645582784
 20
6.5611016895559935
 30
0.0
 10
-30.00187940370797
 20
6.411871785975729
 30
0.0
 10
-29.901838706870016
 20
6.343566020882909
 30
0.0
 10
-29.859810492648293
 20
6.280444344956164
 30
0.0
 10
-30.07493543429187
 20
5.152719907986471
 30
0.0
 10
-30.137248918333956
 20
5.109502475517726
 30
0.0
 10
-30.25540943510665
 20
5.082820818061032
 30
0.0
 10
-30.609506767837445
 20
5.0625170336036405
 30
0.0
 10
-30.945849648074773
 20
5.029053918317702
 30
0.0
 10
-31.33282417482969
 20
4.974105236724961
 30
0.0
 10
-31.769129162500928
 20
4.8933848518989755
 30
0.0
 10
-32.253193907416595
 20
4.782681742718537
 30
0.0
 10
-32.74811736401948
 20
4.64745570100273
 30
0.0
 10
-32.84319143629438
 20
4.149059960333622
 30
0.0
 10
-32.87505027133944
 20
3.64267827803692
 30
0.0
 10
-32.42930509428326
 20
3.3886181525076133
 30
0.0
 10
-31.9879788771919
 20
3.1610109782768374
 30
0.0
 10
-31.585455556411056
 20
2.9743219346218694
 30
0.0
 10
-31.224303727435515
 20
2.824862915510609
 30
0.0
 10
-30.906849615638723
 20
2.7088060325904473
 30
0.0
 10
-30.568926247618787
 20
2.6010797031370254
 30
0.0
 10
-30.461113419145942
 20
2.545850973426633
 30
0.0
 10
-30.411505366194678
 20
2.488494562757443
 30
0.0
 10
-30.48359263316379
 20
1.342700265251697
 30
0.0
 10
-30.539998176214418
 20
1.2920136646967364
 30
0.0
 10
-30.65388286361362
 20
1.2507329604317627
 30
0.0
 10
-31.002643294152445
 20
1.186209113671619
 30
0.0
 10
-31.332139969874437
 20
1.1108549242781822
 30
0.0
 10
-31.709176190958082
 20
1.0078387607069659
 30
0.0
 10
-32.131923836638755
 20
0.8730713653002732
 30
0.0
 10
-32.59829680781843
 20
0.7025717834663767
 30
0.0
 10
-33.07236932806916
 20
0.5063816822966973
 30
0.0
 10
-33.10422816311419
 20
4.440892098500626e-16
 30
0.0
 10
-33.072369328069186
 20
-0.5063816822966978
 30
0.0
 10
-32.59829680781939
 20
-0.7025717834659819
 30
0.0
 10
-32.13192383663877
 20
-0.8730713653002182
 30
0.0
 10
-31.709176190957866
 20
-1.0078387607061476
 30
0.0
 10
-31.332139969874056
 20
-1.1108549242773036
 30
0.0
 10
-31.002643294153952
 20
-1.1862091136713533
 30
0.0
 10
-30.65388286361326
 20
-1.2507329604298598
 30
0.0
 10
-30.5399981762148
 20
-1.2920136646982492
 30
0.0
 10
-30.483592633163454
 20
-1.342700265250571
 30
0.0
 10
-30.411505366195158
 20
-2.4884945627563693
 30
0.0
 10
-30.461113419145374
 20
-2.545850973428086
 30
0.0
 10
-30.568926247619387
 20
-2.6010797031351833
 30
0.0
 10
-30.906849615637267
 20
-2.708806032589994
 30
0.0
 10
-31.224303727436006
 20
-2.8248629155097844
 30
0.0
 10
-31.585455556411375
 20
-2.9743219346210843
 30
0.0
 10
-31.987978877191896
 20
-3.161010978276781
 30
0.0
 10
-32.42930509428236
 20
-3.3886181525071013
 30
0.0
 10
-32.875050271339425
 20
-3.6426782780369185
 30
0.0
 10
-32.84319143629438
 20
-4.1490599603336165
 30
0.0
 10
-32.74811736401949
 20
-4.647455701002746
 30
0.0
 10
-32.2531939074176
 20
-4.78268174271828
 30
0.0
 10
-31.769129162500942
 20
-4.893384851898938
 30
0.0
 10
-31.33282417482957
 20
-4.974105236724136
 30
0.0
 10
-30.945849648074507
 20
-5.029053918316798
 30
0.0
 10
-30.60950676783897
 20
-5.062517033603579
 30
0.0
 10
-30.25540943510653
 20
-5.082820818059114
 30
0.0
 10
-30.137248918334144
 20
-5.109502475519289
 30
0.0
 10
-30.07493543429167
 20
-5.152719907985326
 30
0.0
 10
-29.8598104926489
 20
-6.280444344955172
 30
0.0
 10
-29.90183870686927
 20
-6.343566020884293
 30
0.0
 10
-30.001879403708795
 20
-6.4118717859739895
 30
0.0
 10
-30.32363645582645
 20
-6.561101689555376
 30
0.0
 10
-30.62404156272098
 20
-6.716030979628853
 30
0.0
 10
-30.96361341950349
 20
-6.9095757962663615
 30
0.0
 10
-31.339564382159367
 20
-7.145242290429982
 30
0.0
 10
-31.748883867081602
 20
-7.4263675559531785
 30
0.0
 10
-32.15927203322754
 20
-7.734291025895368
 30
0.0
 10
-32.064197960952626
 20
-8.23268676656446
 30
0.0
 10
-31.907408026362116
 20
-8.715236567048478
 30
0.0
 10
-31.399438871971704
 20
-8.787365953852293
 30
0.0
 10
-30.90531634351262
 20
-8.836526736216761
 30
0.0
 10
-30.46233480414232
 20
-8.861927101772517
 30
0.0
 10
-30.071524791170305
 20
-8.867941727853216
 30
0.0
 10
-29.733640034562143
 20
-8.858986035714763
 30
0.0
 10
-29.37979012610264
 20
-8.834749555057565
 30
0.0
 10
-29.259217241891506
 20
-8.846411380032531
 30
0.0
 10
-29.19197853772553
 20
-8.881478079685452
 30
0.0
 10
-28.8372085702474
 20
-9.973347768078407
 30
0.0
 10
-28.87099413569323
 20
-10.04123924272847
 30
0.0
 10
-28.96168499934769
 20
-10.121544820481414
 30
0.0
 10
-29.26220143464488
 20
-10.309924853464274
 30
0.0
 10
-29.54081996864616
 20
-10.501283223236706
 30
0.0
 10
-29.853456602203952
 20
-10.73586152002398
 30
0.0
 10
-30.196906235471893
 20
-11.016788863302224
 30
0.0
 10
-30.567763775433065
 20
-11.346998706744902
 30
0.0
 10
-30.93632286413372
 20
-11.703929384033904
 30
0.0
 10
-30.779532929543194
 20
-12.186479184517943
 30
0.0
 10
-30.56349980356736
 20
-12.645572946201954
 30
0.0
 10
-30.050495928399215
 20
-12.653468154576135
 30
0.0
 10
-29.554108223845986
 20
-12.640311315219298
 30
0.0
 10
-29.111436216276978
 20
-12.609991082567351
 30
0.0
 10
-28.722954024451163
 20
-12.566976798889831
 30
0.0
 10
-28.388856035924665
 20
-12.515743535941036
 30
0.0
 10
-28.040833976174195
 20
-12.447349013949244
 30
0.0
 10
-27.919750230935065
 20
-12.443807092492708
 30
0.0
 10
-27.848646701176733
 20
-12.470170036531155
 30
0.0
 10
-27.359826642179687
 20
-13.508965539109926
 30
0.0
 10
-27.384836740301374
 20
-13.580556123369297
 30
0.0
 10
-27.464747521674845
 20
-13.671595046852099
 30
0.0
 10
-27.73928401644711
 20
-13.896154343583515
 30
0.0
 10
-27.991721996835295
 20
-14.120923957251645
 30
0.0
 10
-28.27249294069709
 20
-14.392836294318064
 30
0.0
 10
-28.57802483869359
 20
-14.714594094689577
 30
0.0
 10
-28.904571788748957
 20
-15.088680909562848
 30
0.0
 10
-29.225489403009014
 20
-15.488989784197761
 30
0.0
 10
-29.009456277033163
 20
-15.94808354588173
 30
0.0
 10
-28.737586931120575
 20
-16.376481085894635
 30
0.0
 10
-28.227638712739754
 20
-16.320017603686768
 30
0.0
 10
-27.736814162720826
 20
-16.2447506338248
 30
0.0
 10
-27.301432888951908
 20
-16.159187971146505
 30
0.0
 10
-26.921405114505404
 20
-16.067823138659847
 30
0.0
 10
-26.596362818920092
 20
-15.975120284062685
 30
0.0
 10
-26.25965712365922
 20
-15.863646343205014
 30
0.0
 10
-26.139972080386443
 20
-15.844956533534187
 30
0.0
 10
-26.06612507017524
 20
-15.862199962582215
 30
0.0
 10
-25.450963903996602
 20
-16.83153885372478
 30
0.0
 10
-25.46680411060646
 20
-16.905699521313547
 30
0.0
 10
-25.534674568940297
 20
-17.006036052318866
 30
0.0
 10
-25.778901518664934
 20
-17.26323317854416
 30
0.0
 10
-26.001177847690162
 20
-17.517869285029583
 30
0.0
 10
-26.245655176346833
 20
-17.822827442387055
 30
0.0
 10
-26.508450918524574
 20
-18.180341387131183
 30
0.0
 10
-26.78553743820207
 20
-18.59240560089586
 30
0.0
 10
-27.053752515537766
 20
-19.02977956279077
 30
0.0
 10
-26.78188316962513
 20
-19.45817710280368
 30
0.0
 10
-26.458465145767683
 20
-19.84912233602722
 30
0.0
 10
-25.95961477220635
 20
-19.729190626081348
 30
0.0
 10
-25.4820939730799
 20
-19.593000530791272
 30
0.0
 10
-25.060869655882573
 20
-19.453544812389723
 30
0.0
 10
-24.695289563835985
 20
-19.31527030908095
 30
0.0
 10
-24.384429072364096
 20
-19.182559842230408
 30
0.0
 10
-24.064349791545318
 20
-19.029764493145496
 30
0.0
 10
-23.947950954867682
 20
-18.996221544723635
 30
0.0
 10
-23.8725250756687
 20
-19.00407351960443
 30
0.0
 10
-23.140724261378583
 20
-19.888668745942486
 30
0.0
 10
-23.147144766955897
 20
-19.964229938831334
 30
0.0
 10
-23.201904544578323
 20
-20.07228171032708
 30
0.0
 10
-23.411970344364068
 20
-20.35806051372357
 30
0.0
 10
-23.600579591536164
 20
-20.638547349514766
 30
0.0
 10
-23.804907751471116
 20
-20.971741954848596
 30
0.0
 10
-24.02082289198939
 20
-21.359373835488242
 30
0.0
 10
-24.244079161350232
 20
-21.80291694933803
 30
0.0
 10
-24.455361789768048
 20
-22.27045834983931
 30
0.0
 10
-24.131943765910577
 20
-22.661403583062803
 30
0.0
 10
-23.762077559545062
 20
-23.008731069629654
 30
0.0
 10
-23.28219219919308
 20
-22.827222526655383
 30
0.0
 10
-22.82550593921842
 20
-22.632257105095956
 30
0.0
 10
-22.425081537702102
 20
-22.441107630957145
 30
0.0
 10
-22.079714544493974
 20
-22.25810412834462
 30
0.0
 10
-21.78793831278507
 20
-22.08747897258033
 30
0.0
 10
-21.489533287872998
 20
-21.895771889198755
 30
0.0
 10
-21.378256336978204
 20
-21.847904794360065
 30
0.0
 10
-21.30244109996365
 20
-21.846241484739213
 30
0.0
 10
-20.46554157356002
 20
-22.632142451121837
 30
0.0
 10
-20.462441122896408
 20
-22.707912524160847
 30
0.0
 10
-20.50322662540242
 20
-22.821975495163528
 30
0.0
 10
-20.675818412099417
 20
-23.13182907328566
 30
0.0
 10
-20.827786096920786
 20
-23.4337431934275
 30
0.0
 10
-20.988742710992113
 20
-23.789919568770756
 30
0.0
 10
-21.154372139103494
 20
-24.201556198988175
 30
0.0
 10
-21.320277273413037
 20
-24.669583273057853
 30
0.0
 10
-21.471295399648714
 20
-25.159918704983898
 30
0.0
 10
-21.10142919328318
 20
-25.50724619155072
 30
0.0
 10
-20.690947815431368
 20
-25.805478369514375
 30
0.0
 10
-20.23759554709106
 20
-25.565255491662317
 30
0.0
 10
-19.808946041399146
 20
-25.31458946499822
 30
0.0
 10
-19.43563648757769
 20
-25.074760776516484
 30
0.0
 10
-19.115929237003144
 20
-24.8499143491574
 30
0.0
 10
-18.847838750529956
 20
-24.644065365112294
 30
0.0
 10
-18.575814007025972
 20
-24.416469882659243
 30
0.0
 10
-18.47141384590326
 20
-24.355033534083745
 30
0.0
 10
-18.396404902650676
 20
-24.34388117134758
 30
0.0
 10
-17.467605069604467
 20
-25.018693750060436
 30
0.0
 10
-17.455032558659013
 20
-25.09347776393493
 30
0.0
 10
-17.481200574310005
 20
-25.21175309325392
 30
0.0
 10
-17.613596472340717
 20
-25.54079487007716
 30
0.0
 10
-17.726525973640623
 20
-25.859374908540246
 30
0.0
 10
-17.8415726598936
 20
-26.232915939684318
 30
0.0
 10
-17.95430430057455
 20
-26.662065563921175
 30
0.0
 10
-18.06024187675781
 20
-27.14719553166684
 30
0.0
 10
-18.14861385474675
 20
-27.652592112344
 30
0.0
 10
-17.738132476894897
 20
-27.950824290307597
 30
0.0
 10
-17.293509464095187
 20
-28.195257860066267
 30
0.0
 10
-16.873839923857822
 20
-27.900109105622366
 30
0.0
 10
-16.479987231216217
 20
-27.59769562683472
 30
0.0
 10
-16.139679839757704
 20
-27.31296996569413
 30
0.0
 10
-15.850674306142164
 20
-27.04982657606468
 30
0.0
 10
-15.610497512025864
 20
-26.81200012518537
 30
0.0
 10
-15.369143042634727
 20
-26.552105560378084
 30
0.0
 10
-15.273266124190636
 20
-26.478068845983106
 30
0.0
 10
-15.200246410543292
 20
-26.457603309554077
 30
0.0
 10
-14.194193999059765
 20
-27.01068530311737
 30
0.0
 10
-14.172347703840536
 20
-27.083303869254745
 30
0.0
 10
-14.18348554739768
 20
-27.203926284292425
 30
0.0
 10
-14.27359759436068
 20
-27.54696707443624
 30
0.0
 10
-14.345707946442808
 20
-27.877188833703517
 30
0.0
 10
-14.413030349909672
 20
-28.262203555444664
 30
0.0
 10
-14.471086357844031
 20
-28.702098227765187
 30
0.0
 10
-14.515385677040555
 20
-29.196680299792888
 30
0.0
 10
-14.539717827899022
 20
-29.709167623234617
 30
0.0
 10
-14.095094815099303
 20
-29.953601192993222
 30
0.0
 10
-13.623342137868432
 20
-30.140381291134236
 30
0.0
 10
-13.243973765081995
 20
-29.79496133226942
 30
0.0
 10
-12.891129177729852
 20
-29.445569642571765
 30
0.0
 10
-12.589190799487364
 20
-29.120437302535368
 30
0.0
 10
-12.33544477273948
 20
-28.82314687908426
 30
0.0
 10
-12.126969402497945
 20
-28.557093626571742
 30
0.0
 10
-11.92009151138013
 20
-28.26899867195072
 30
0.0
 10
-11.834249871892617
 20
-28.18352919494966
 30
0.0
 10
-11.76437095235459
 20
-28.154073238562773
 30
0.0
 10
-10.696932009949421
 20
-28.576702213542838
 30
0.0
 10
-10.666156459582368
 20
-28.64601009377488
 30
0.0
 10
-10.662088480599344
 20
-28.767077306989773
 30
0.0
 10
-10.708495555683701
 20
-29.118707152270954
 30
0.0
 10
-10.73864953521908
 20
-29.455362837933865
 30
0.0
 10
-10.757185941380703
 20
-29.84577933811358
 30
0.0
 10
-10.75965073864237
 20
-30.289481656754937
 30
0.0
 10
-10.7416131741253
 20
-30.785715978339795
 30
0.0
 10
-10.701521765298901
 20
-31.297211813310266
 30
0.0
 10
-10.229769088068029
 20
-31.483991911451273
 30
0.0
 10
-9.738326567937369
 20
-31.610172904250053
 30
0.0
 10
-9.405242228464362
 20
-31.219929220059438
 30
0.0
 10
-9.098970316323364
 20
-30.82906943511478
 30
0.0
 10
-8.84016269989103
 20
-30.468657947409596
 30
0.0
 10
-8.625677906433149
 20
-30.14190893770734
 30
0.0
 10
-8.452191741192236
 20
-29.851824702286255
 30
0.0
 10
-8.283053016273529
 20
-29.540072787385448
 30
0.0
 10
-8.208600429676624
 20
-29.444518452487603
 30
0.0
 10
-8.142964336552673
 20
-29.40653661417122
 30
0.0
 10
-7.030973013004709
 20
-29.692047459166307
 30
0.0
 10
-6.991753556303541
 20
-29.756951626819234
 30
0.0
 10
-6.972543909239003
 20
-29.876554335936888
 30
0.0
 10
-6.974514145148391
 20
-30.231227823641866
 30
0.0
 10
-6.9622362058666365
 20
-30.569008174429147
 30
0.0
 10
-6.9316942845247365
 20
-30.95866935161609
 30
0.0
 10
-6.878528999788495
 20
-31.399181865958383
 30
0.0
 10
-6.798439014725383
 20
-31.88924252541299
 30
0.0
 10
-6.694556311680783
 20
-32.39168027704198
 30
0.0
 10
-6.203113791550102
 20
-32.517861269840665
 30
0.0
 10
-5.6997317706356085
 20
-32.581453207663785
 30
0.0
 10
-5.418184403484473
 20
-32.15254017416739
 30
0.0
 10
-5.163315257567055
 20
-31.726376386272623
 30
0.0
 10
-4.951719953660191
 20
-31.336369655359157
 30
0.0
 10
-4.779878946812145
 20
-30.985315086479154
 30
0.0
 10
-4.644117967033315
 20
-30.675774669830005
 30
0.0
 10
-4.515385827044264
 20
-30.345282308578973
 30
0.0
 10
-4.453496455104418
 20
-30.24115006472708
 30
0.0
 10
-4.39313830879221
 20
-30.19524134076069
 30
0.0
 10
-3.254131371545219
 20
-30.33913137918932
 30
0.0
 10
-3.207086522770683
 20
-30.398608256767375
 30
0.0
 10
-3.1730381552341256
 20
-30.514860255617812
 30
0.0
 10
-3.1305404801712924
 20
-30.86698397297381
 30
0.0
 10
-3.0760242525093617
 20
-31.200561990973345
 30
0.0
 10
-2.9968856680083604
 20
-31.583322655630965
 30
0.0
 10
-2.8889287495739024
 20
-32.0136982201736
 30
0.0
 10
-2.7480494108726314
 20
-32.48985666815031
 30
0.0
 10
-2.5820137058933583
 20
-32.97531259295285
 30
0.0
 10
-2.0786316849788564
 20
-33.038904530775916
 30
0.0
 10
-1.5712487984562038
 20
-33.038904530775945
 30
0.0
 10
-1.3456785737951569
 20
-32.57808636273222
 30
0.0
 10
-1.1462316327838853
 20
-32.12333942940035
 30
0.0
 10
-0.9851856257460089
 20
-31.709888094403837
 30
0.0
 10
-0.8586984408386352
 20
-31.340064306607157
 30
0.0
 10
-0.7628036782726803
 20
-31.01594934601099
 30
0.0
 10
-0.6765083059617633
 20
-30.671928600373224
 30
0.0
 10
-0.6281581810453857
 20
-30.56086067525841
 30
0.0
 10
-0.5740298655684736
 20
-30.50774907364351
 30
0.0
 10
0.5740298655673951
 20
-30.50774907364392
 30
0.0
 10
0.6281581810468951
 20
-30.560860675257935
 30
0.0
 10
0.6765083059599112
 20
-30.671928600373704
 30
0.0
 10
0.7628036782723441
 20
-31.015949346009503
 30
0.0
 10
0.8586984408378059
 20
-31.34006430660759
 30
0.0
 10
0.9851856257452299
 20
-31.709888094404107
 30
0.0
 10
1.1462316327838546
 20
-32.12333942940034
 30
0.0
 10
1.3456785737947283
 20
-32.578086362731284
 30
0.0
 10
1.5712487984562287
 20
-33.0389045307759
 30
0.0
 10
2.078631684978854
 20
-33.038904530775895
 30
0.0
 10
2.582013705893355
 20
-32.97531259295285
 30
0.0
 10
2.748049410872294
 20
-32.48985666815129
 30
0.0
 10
2.8889287495738443
 20
-32.013698220173616
 30
0.0
 10
2.9968856680075255
 20
-31.5833226556308
 30
0.0
 10
3.076024252508457
 20
-31.200561990973018
 30
0.0
 10
3.130540480171118
 20
-30.86698397297533
 30
0.0
 10
3.1730381552322005
 20
-30.51486025561757
 30
0.0
 10
3.207086522772213
 20
-30.398608256767663
 30
0.0
 10
3.254131371544071
 20
-30.339131379189052
 30
0.0
 10
4.393138308791165
 20
-30.195241340761232
 30
0.0
 10
4.453496455105828
 20
-30.241150064726423
 30
0.0
 10
4.5153858270424605
 20
-30.345282308579684
 30
0.0
 10
4.644117967032768
 20
-30.675774669828577
 30
0.0
 10
4.779878946811349
 20
-30.98531508647969
 30
0.0
 10
4.951719953659423
 20
-31.33636965535953
 30
0.0
 10
5.163315257566995
 20
-31.72637638627262
 30
0.0
 10
5.418184403483901
 20
-32.152540174166525
 30
0.0
 10
5.699731770635592
 20
-32.5814532076637
 30
0.0
 10
6.20311379155009
 20
-32.517861269840616
 30
0.0
 10
6.6945563116807865
 20
-32.391680277042006
 30
0.0
 10
6.7984390147251705
 20
-31.889242525414
 30
0.0
 10
6.87852899978844
 20
-31.399181865958408
 30
0.0
 10
6.931694284523887
 20
-30.958669351616027
 30
0.0
 10
6.962236205865697
 20
-30.56900817442894
 30
0.0
 10
6.974514145148408
 20
-30.231227823643398
 30
0.0
 10
6.9725439092370625
 20
-29.87655433593689
 30
0.0
 10
6.991753556305095
 20
-29.756951626819326
 30
0.0
 10
7.030973013003537
 20
-29.692047459166183
 30
0.0
 10
8.142964336551705
 20
-29.406536614171888
 30
0.0
 10
8.208600429677942
 20
-29.444518452486776
 30
0.0
 10
8.283053016271829
 20
-29.54007278738638
 30
0.0
 10
8.452191741191513
 20
-29.851824702284905
 30
0.0
 10
8.625677906432427
 20
-30.141908937707974
 30
0.0
 10
8.840162699890316
 20
-30.468657947410062
 30
0.0
 10
9.098970316323305
 20
-30.829069435114786
 30
0.0
 10
9.405242228463687
 20
-31.21992922005865
 30
0.0
 10
9.73832656793736
 20
-31.610172904250014
 30
0.0
 10
10.22976908806804
 20
-31.483991911451316
 30
0.0
 10
10.70152176529891
 20
-31.29721181331031
 30
0.0
 10
10.741613174125217
 20
-30.78571597834083
 30
0.0
 10
10.759650738642316
 20
-30.28948165675497
 30
0.0
 10
10.757185941379854
 20
-29.84577933811363
 30
0.0
 10
10.738649535218123
 20
-29.455362837933777
 30
0.0
 10
10.708495555683909
 20
-29.11870715227247
 30
0.0
 10
10.66208848059742
 20
-28.767077306990018
 30
0.0
 10
10.666156459583922
 20
-28.64601009377478
 30
0.0
 10
10.696932009948245
 20
-28.576702213542866
 30
0.0
 10
11.764370952353712
 20
-28.154073238563566
 30
0.0
 10
11.83424987189382
 20
-28.183529194948676
 30
0.0
 10
11.92009151137856
 20
-28.26899867195186
 30
0.0
 10
12.12696940249706
 20
-28.5570936265705
 30
0.0
 10
12.335444772738844
 20
-28.823146879084984
 30
0.0
 10
12.589190799486712
 20
-29.12043730253592
 30
0.0
 10
12.891129177729793
 20
-29.44556964257178
 30
0.0
 10
13.243973765081225
 20
-29.794961332268727
 30
0.0
 10
13.62334213786842
 20
-30.140381291134226
 30
0.0
 10
14.095094815099321
 20
-29.953601192993197
 30
0.0
 10
14.53971782789908
 20
-29.709167623234613
 30
0.0
 10
14.515385677040657
 20
-29.1966802997939
 30
0.0
 10
14.471086357844037
 20
-28.702098227765198
 30
0.0
 10
14.413030349908889
 20
-28.262203555444792
 30
0.0
 10
14.345707946441896
 20
-27.87718883370352
 30
0.0
 10
14.273597594361126
 20
-27.546967074437692
 30
0.0
 10
14.183485547395852
 20
-27.203926284292887
 30
0.0
 10
14.172347703842114
 20
-27.083303869254422
 30
0.0
 10
14.194193999058646
 20
-27.010685303117516
 30
0.0
 10
15.200246410542569
 20
-26.457603309554944
 30
0.0
 10
15.273266124191755
 20
-26.478068845981944
 30
0.0
 10
15.369143042633363
 20
-26.552105560379385
 30
0.0
 10
15.610497512024876
 20
-26.812000125184216
 30
0.0
 10
15.85067430614167
 20
-27.04982657606545
 30
0.0
 10
16.139679839757175
 20
-27.312969965694727
 30
0.0
 10
16.47998723121621
 20
-27.597695626834714
 30
0.0
 10
16.87383992385702
 20
-27.900109105621745
 30
0.0
 10
17.293509464095205
 20
-28.195257860066178
 30
0.0
 10
17.73813247689491
 20
-27.950824290307562
 30
0.0
 10
18.148613854746802
 20
-27.652592112344042
 30
0.0
 10
18.06024187675801
 20
-27.147195531667844
 30
0.0
 10
17.954304300574528
 20
-26.662065563921203
 30
0.0
 10
17.841572659892808
 20
-26.23291593968456
 30
0.0
 10
17.726525973639692
 20
-25.859374908540385
 30
0.0
 10
17.613596472341317
 20
-25.540794870078564
 30
0.0
 10
17.48120057430822
 20
-25.211753093254625
 30
0.0
 10
17.455032558660513
 20
-25.09347776393443
 30
0.0
 10
17.46760506960335
 20
-25.01869375006074
 30
0.0
 10
18.39640490265004
 20
-24.343881171348546
 30
0.0
 10
18.471413845904195
 20
-24.355033534082473
 30
0.0
 10
18.575814007024753
 20
-24.416469882660724
 30
0.0
 10
18.84783875052881
 20
-24.644065365111288
 30
0.0
 10
19.115929237002725
 20
-24.84991434915824
 30
0.0
 10
19.435636487577217
 20
-25.074760776517163
 30
0.0
 10
19.80894604139911
 20
-25.314589464998235
 30
0.0
 10
20.237595547090162
 20
-25.56525549166182
 30
0.0
 10
20.690947815431375
 20
-25.80547836951435
 30
0.0
 10
21.101429193283213
 20
-25.507246191550745
 30
0.0
 10
21.471295399648753
 20
-25.15991870498391
 30
0.0
 10
21.320277273413364
 20
-24.669583273058826
 30
0.0
 10
21.154372139103476
 20
-24.201556198988204
 30
0.0
 10
20.98874271099136
 20
-23.789919568771097
 30
0.0
 10
20.82778609691988
 20
-23.433743193427752
 30
0.0
 10
20.675818412100192
 20
-23.13182907328698
 30
0.0
 10
20.503226625400735
 20
-22.82197549516445
 30
0.0
 10
20.462441122897832
 20
-22.70791252416016
 30
0.0
 10
20.46554157355895
 20
-22.632142451122277
 30
0.0
 10
21.30244109996314
 20
-21.84624148474025
 30
0.0
 10
21.37825633697898
 20
-21.847904794358683
 30
0.0
 10
21.48953328787198
 20
-21.895771889200375
 30
0.0
 10
21.787938312783808
 20
-22.087478972579483
 30
0.0
 10
22.079714544493665
 20
-22.258104128345504
 30
0.0
 10
22.42508153770172
 20
-22.441107630957877
 30
0.0
 10
22.82550593921839
 20
-22.63225710509597
 30
0.0
 10
23.28219219919213
 20
-22.827222526655
 30
0.0
 10
23.762077559545066
 20
-23.00873106962962
 30
0.0
 10
24.13194376591057
 20
-22.66140358306281
 30
0.0
 10
24.455361789768087
 20
-22.270458349839327
 30
0.0
 10
24.244079161350665
 20
-21.80291694933897
 30
0.0
 10
24.020822891989365
 20
-21.359373835488288
 30
0.0
 10
23.8049077514704
 20
-20.971741954849037
 30
0.0
 10
23.60057959153529
 20
-20.638547349515143
 30
0.0
 10
23.41197034436499
 20
-20.358060513724787
 30
0.0
 10
23.201904544576763
 20
-20.072281710328216
 30
0.0
 10
23.147144766957215
 20
-19.964229938830492
 30
0.0
 10
23.14072426137757
 20
-19.88866874594307
 30
0.0
 10
23.87252507566832
 20
-19.00407351960553
 30
0.0
 10
23.94795095486827
 20
-18.99622154472218
 30
0.0
 10
24.0643497915445
 20
-19.02976449314724
 30
0.0
 10
24.384429072362728
 20
-19.182559842229736
 30
0.0
 10
24.695289563835782
 20
-19.31527030908188
 30
0.0
 10
25.060869655882275
 20
-19.453544812390504
 30
0.0
 10
25.482093973079856
 20
-19.593000530791308
 30
0.0
 10
25.95961477220535
 20
-19.729190626081095
 30
0.0
 10
26.45846514576767
 20
-19.849122336027193
 30
0.0
 10
26.781883169625143
 20
-19.45817710280368
 30
0.0
 10
27.053752515537784
 20
-19.0297795627908
 30
0.0
 10
26.785537438202606
 20
-18.59240560089675
 30
0.0
 10
26.508450918524545
 20
-18.18034138713124
 30
0.0
 10
26.24565517634617
 20
-17.822827442387595
 30
0.0
 10
26.001177847689334
 20
-17.517869285030073
 30
0.0
 10
25.778901518665993
 20
-17.263233178545267
 30
0.0
 10
25.53467456893888
 20
-17.006036052320198
 30
0.0
 10
25.466804110607654
 20
-16.90569952131255
 30
0.0
 10
25.45096390399566
 20
-16.831538853725498
 30
0.0
 10
26.06612507017499
 20
-15.862199962583366
 30
0.0
 10
26.13997208038683
 20
-15.84495653353268
 30
0.0
 10
26.259657123658616
 20
-15.863646343206861
 30
0.0
 10
26.59636281891864
 20
-15.975120284062195
 30
0.0
 10
26.921405114505312
 20
-16.06782313866081
 30
0.0
 10
27.3014328889517
 20
-16.159187971147333
 30
0.0
 10
27.736814162720787
 20
-16.24475063382485
 30
0.0
 10
28.22763871273872
 20
-16.32001760368666
 30
0.0
 10
28.73758693112056
 20
-16.376481085894643
 30
0.0
 10
29.0094562770332
 20
-15.948083545881719
 30
0.0
 10
29.22548940300911
 20
-15.488989784197749
 30
0.0
 10
28.904571788749628
 20
-15.088680909563607
 30
0.0
 10
28.578024838693597
 20
-14.714594094689584
 30
0.0
 10
28.27249294069653
 20
-14.39283629431863
 30
0.0
 10
27.99172199683456
 20
-14.120923957252185
 30
0.0
 10
27.739284016448323
 20
-13.896154343584426
 30
0.0
 10
27.46474752167363
 20
-13.671595046853547
 30
0.0
 10
27.384836740302454
 20
-13.58055612336811
 30
0.0
 10
27.359826642178867
 20
-13.508965539110704
 30
0.0
 10
27.84864670117665
 20
-12.47017003653228
 30
0.0
 10
27.919750230935286
 20
-12.443807092491115
 30
0.0
 10
28.04083397617385
 20
-12.4473490139511
 30
0.0
 10
28.388856035923183
 20
-12.515743535940684
 30
0.0
 10
28.722954024451216
 20
-12.56697679889074
 30
0.0
 10
29.111436216276896
 20
-12.609991082568145
 30
0.0
 10
29.554108223845972
 20
-12.640311315219297
 30
0.0
 10
30.0504959283982
 20
-12.6534681545761
 30
0.0
 10
30.563499803567385
 20
-12.645572946201902
 30
0.0
 10
30.779532929543223
 20
-12.186479184517934
 30
0.0
 10
30.93632286413349
 20
-11.703929384033831
 30
0.0
 10
30.567763775433804
 20
-11.346998706745625
 30
0.0
 10
30.19690623547188
 20
-11.016788863302285
 30
0.0
 10
29.853456602203444
 20
-10.735861520024665
 30
0.0
 10
29.54081996864548
 20
-10.501283223237387
 30
0.0
 10
29.26220143464618
 20
-10.309924853465079
 30
0.0
 10
28.96168499934665
 20
-10.121544820483054
 30
0.0
 10
28.87099413569414
 20
-10.041239242727206
 30
0.0
 10
28.83720857024667
 20
-9.973347768079334
 30
0.0
 10
29.191978537725575
 20
-8.881478079686628
 30
0.0
 10
29.25921724189151
 20
-8.846411380030974
 30
0.0
 10
29.37979012610252
 20
-8.834749555059503
 30
0.0
 10
29.73364003456062
 20
-8.858986035714649
 30
0.0
 10
30.071524791170454
 20
-8.867941727854165
 30
0.0
 10
30.462334804142326
 20
-8.861927101773368
 30
0.0
 10
30.90531634351259
 20
-8.836526736216815
 30
0.0
 10
31.399438871970677
 20
-8.787365953852442
 30
0.0
 10
31.907408026362074
 20
-8.715236567048473
 30
0.0
 10
32.064197960952626
 20
-8.232686766564473
 30
0.0
 10
32.159272033227545
 20
-7.734291025895341
 30
0.0
 10
31.748883867082434
 20
-7.426367555953775
 30
0.0
 10
31.33956438215937
 20
-7.145242290430014
 30
0.0
 10
30.963613419503076
 20
-6.909575796267076
 30
0.0
 10
30.624041562720393
 20
-6.716030979629586
 30
0.0
 10
30.32363645582784
 20
-6.561101689555985
 30
0.0
 10
30.00187940370797
 20
-6.41187178597572
 30
0.0
 10
29.90183870687002
 20
-6.3435660208829
 30
0.0
 10
29.859810492648297
 20
-6.280444344956155
 30
0.0
 10
30.07493543429187
 20
-5.152719907986461
 30
0.0
 10
30.137248918333956
 20
-5.109502475517716
 30
0.0
 10
30.255409435106653
 20
-5.082820818061022
 30
0.0
 10
30.609506767837445
 20
-5.062517033603632
 30
0.0
 10
30.945849648074777
 20
-5.029053918317693
 30
0.0
 10
31.33282417482969
 20
-4.974105236724951
 30
0.0
 10
31.769129162500928
 20
-4.893384851898966
 30
0.0
 10
32.253193907416595
 20
-4.782681742718527
 30
0.0
 10
32.748117364019485
 20
-4.64745570100272
 30
0.0
  0
LWPOLYLINE
  8
OpenJsCad
  90
31
  70
1
 10
0.5197792270443984
 20
-2.4453690018345142
 30
0.0
 10
1.5308084989341916e-16
 20
-2.5
 30
0.0
 10
-0.5197792270443974
 20
-2.4453690018345142
 30
0.0
 10
-1.0168416076895002
 20
-2.2838636441065026
 30
0.0
 10
-1.4694631307311832
 20
-2.022542485937368
 30
0.0
 10
-1.857862063693485
 20
-1.6728265158971463
 30
0.0
 10
-2.1650635094610964
 20
-1.2500000000000004
 30
0.0
 10
-2.377641290737884
 20
-0.7725424859373682
 30
0.0
 10
-2.4863047384206833
 20
-0.26132115816913265
 30
0.0
 10
-2.4863047384206833
 20
0.2613211581691354
 30
0.0
 10
-2.3776412907378837
 20
0.7725424859373687
 30
0.0
 10
-2.165063509461096
 20
1.2500000000000009
 30
0.0
 10
-1.857862063693485
 20
1.6728265158971458
 30
0.0
 10
-1.4694631307311827
 20
2.022542485937369
 30
0.0
 10
-1.0168416076895008
 20
2.283863644106502
 30
0.0
 10
-0.5197792270443978
 20
2.4453690018345142
 30
0.0
 10
1.2633038745185757e-15
 20
2.5
 30
0.0
 10
0.5197792270443982
 20
2.4453690018345142
 30
0.0
 10
1.0168416076895
 20
2.2838636441065026
 30
0.0
 10
1.469463130731183
 20
2.022542485937368
 30
0.0
 10
1.8578620636934862
 20
1.672826515897145
 30
0.0
 10
2.165063509461097
 20
1.2499999999999998
 30
0.0
 10
2.377641290737884
 20
0.7725424859373685
 30
0.0
 10
2.4863047384206833
 20
0.2613211581691335
 30
0.0
 10
2.4863047384206833
 20
-0.2613211581691335
 30
0.0
 10
2.3776412907378837
 20
-0.7725424859373685
 30
0.0
 10
2.1650635094610964
 20
-1.25
 30
0.0
 10
1.8578620636934853
 20
-1.6728265158971454
 30
0.0
 10
1.4694631307311832
 20
-2.0225424859373686
 30
0.0
 10
1.0168416076895006
 20
-2.283863644106502
 30
0.0
 10
0.5197792270443984
 20
-2.4453690018345142
 30
0.0
  0
LWPOLYLINE
  8
OpenJsCad
  90
951
  70
1
 10
30.686664643805265
 20
2.5820137058933526
 30
0.0
 10
30.62307270598219
 20
2.078631684978875
 30
0.0
 10
30.623072705982175
 20
1.5712487984562156
 30
0.0
 10
31.08389087402592
 20
1.3456785737951695
 30
0.0
 10
31.53863780735778
 20
1.1462316327838975
 30
0.0
 10
31.952089142354296
 20
0.9851856257460208
 30
0.0
 10
32.32191293015097
 20
0.8586984408386471
 30
0.0
 10
32.64602789074714
 20
0.7628036782726919
 30
0.0
 10
32.99004863638491
 20
0.6765083059617747
 30
0.0
 10
33.10111656149972
 20
0.6281581810453971
 30
0.0
 10
33.154228163114624
 20
0.574029865568485
 30
0.0
 10
33.15422816311421
 20
-0.5740298655673837
 30
0.0
 10
33.1011165615002
 20
-0.6281581810468835
 30
0.0
 10
32.99004863638443
 20
-0.6765083059598997
 30
0.0
 10
32.64602789074863
 20
-0.7628036782723326
 30
0.0
 10
32.321912930150546
 20
-0.8586984408377942
 30
0.0
 10
31.952089142354026
 20
-0.9851856257452183
 30
0.0
 10
31.538637807357794
 20
-1.1462316327838424
 30
0.0
 10
31.08389087402685
 20
-1.3456785737947157
 30
0.0
 10
30.623072705982217
 20
-1.571248798456217
 30
0.0
 10
30.623072705982224
 20
-2.0786316849788653
 30
0.0
 10
30.686664643805265
 20
-2.5820137058933703
 30
0.0
 10
31.17212056860685
 20
-2.748049410872305
 30
0.0
 10
31.648279016584517
 20
-2.888928749573856
 30
0.0
 10
32.07865458112733
 20
-2.996885668007537
 30
0.0
 10
32.46141524578511
 20
-3.076024252508468
 30
0.0
 10
32.7949932637828
 20
-3.1305404801711285
 30
0.0
 10
33.14711698114056
 20
-3.173038155232211
 30
0.0
 10
33.263368979990474
 20
-3.207086522772224
 30
0.0
 10
33.32284585756908
 20
-3.254131371544082
 30
0.0
 10
33.4667358959969
 20
-4.393138308791174
 30
0.0
 10
33.420827172031714
 20
-4.453496455105839
 30
0.0
 10
33.31669492817845
 20
-4.51538582704247
 30
0.0
 10
32.98620256692955
 20
-4.64411796703278
 30
0.0
 10
32.676662150278446
 20
-4.77987894681136
 30
0.0
 10
32.32560758139861
 20
-4.951719953659435
 30
0.0
 10
31.935600850485514
 20
-5.163315257567005
 30
0.0
 10
31.50943706259161
 20
-5.418184403483913
 30
0.0
 10
31.080524029094374
 20
-5.699731770635612
 30
0.0
 10
31.14411596691745
 20
-6.203113791550106
 30
0.0
 10
31.270296959716127
 20
-6.694556311680796
 30
0.0
 10
31.77273471134413
 20
-6.798439014725178
 30
0.0
 10
32.26279537079973
 20
-6.878528999788445
 30
0.0
 10
32.7033078851421
 20
-6.931694284523893
 30
0.0
 10
33.09296906232919
 20
-6.962236205865704
 30
0.0
 10
33.43074941311474
 20
-6.974514145148414
 30
0.0
 10
33.785422900821246
 20
-6.972543909237069
 30
0.0
 10
33.90502560993881
 20
-6.991753556305101
 30
0.0
 10
33.96992977759195
 20
-7.030973013003541
 30
0.0
 10
34.25544062258625
 20
-8.14296433655171
 30
0.0
 10
34.21745878427136
 20
-8.208600429677945
 30
0.0
 10
34.121904449371755
 20
-8.283053016271833
 30
0.0
 10
33.81015253447323
 20
-8.452191741191518
 30
0.0
 10
33.520068299050166
 20
-8.625677906432431
 30
0.0
 10
33.193319289348075
 20
-8.840162699890321
 30
0.0
 10
32.83290780164336
 20
-9.098970316323308
 30
0.0
 10
32.44204801669949
 20
-9.405242228463692
 30
0.0
 10
32.05180433250814
 20
-9.73832656793736
 30
0.0
 10
32.17798532530684
 20
-10.229769088068043
 30
0.0
 10
32.364765423447885
 20
-10.701521765298894
 30
0.0
 10
32.8762612584173
 20
-10.74161317412522
 30
0.0
 10
33.37249558000317
 20
-10.759650738642318
 30
0.0
 10
33.81619789864451
 20
-10.757185941379856
 30
0.0
 10
34.20661439882436
 20
-10.738649535218125
 30
0.0
 10
34.54327008448567
 20
-10.70849555568391
 30
0.0
 10
34.894899929768115
 20
-10.662088480597422
 30
0.0
 10
35.01596714298336
 20
-10.666156459583924
 30
0.0
 10
35.085275023215274
 20
-10.696932009948245
 30
0.0
 10
35.50790399819457
 20
-11.764370952353715
 30
0.0
 10
35.47844804180946
 20
-11.834249871893823
 30
0.0
 10
35.39297856480627
 20
-11.92009151137856
 30
0.0
 10
35.10488361018764
 20
-12.12696940249706
 30
0.0
 10
34.83883035767315
 20
-12.335444772738848
 30
0.0
 10
34.541539934222214
 20
-12.589190799486714
 30
0.0
 10
34.21640759418635
 20
-12.891129177729795
 30
0.0
 10
33.867015904489406
 20
-13.243973765081227
 30
0.0
 10
33.521595945623886
 20
-13.623342137868429
 30
0.0
 10
33.708376043764886
 20
-14.0950948150993
 30
0.0
 10
33.9528096135235
 20
-14.539717827899059
 30
0.0
 10
34.465296936964215
 20
-14.515385677040628
 30
0.0
 10
34.959879008992914
 20
-14.471086357844007
 30
0.0
 10
35.39977368131332
 20
-14.413030349908855
 30
0.0
 10
35.78478840305459
 20
-14.345707946441866
 30
0.0
 10
36.115010162320424
 20
-14.273597594361098
 30
0.0
 10
36.45805095246523
 20
-14.183485547395824
 30
0.0
 10
36.5786733675037
 20
-14.172347703842084
 30
0.0
 10
36.65129193364061
 20
-14.194193999058617
 30
0.0
 10
37.20437392720318
 20
-15.20024641054254
 30
0.0
 10
37.18390839077617
 20
-15.273266124191727
 30
0.0
 10
37.10987167637873
 20
-15.369143042633334
 30
0.0
 10
36.84997711157391
 20
-15.610497512024848
 30
0.0
 10
36.61215066069267
 20
-15.850674306141645
 30
0.0
 10
36.3490072710634
 20
-16.139679839757147
 30
0.0
 10
36.0642816099234
 20
-16.47998723121618
 30
0.0
 10
35.761868131136374
 20
-16.873839923856995
 30
0.0
 10
35.46671937669193
 20
-17.29350946409518
 30
0.0
 10
35.711152946450554
 20
-17.738132476894904
 30
0.0
 10
36.00938512441408
 20
-18.148613854746806
 30
0.0
 10
36.514781705090286
 20
-18.060241876757996
 30
0.0
 10
36.999911672836916
 20
-17.954304300574517
 30
0.0
 10
37.42906129707357
 20
-17.8415726598928
 30
0.0
 10
37.802602328217745
 20
-17.72652597363968
 30
0.0
 10
38.12118236667956
 20
-17.61359647234131
 30
0.0
 10
38.450224143503505
 20
-17.481200574308215
 30
0.0
 10
38.56849947282369
 20
-17.455032558660506
 30
0.0
 10
38.643283486697385
 20
-17.467605069603344
 30
0.0
 10
39.31809606540958
 20
-18.396404902650033
 30
0.0
 10
39.30694370267565
 20
-18.471413845904188
 30
0.0
 10
39.2455073540974
 20
-18.575814007024746
 30
0.0
 10
39.01791187164683
 20
-18.847838750528798
 30
0.0
 10
38.812062887599886
 20
-19.11592923700272
 30
0.0
 10
38.58721646024097
 20
-19.435636487577206
 30
0.0
 10
38.34738777175989
 20
-19.808946041399103
 30
0.0
 10
38.0967217450963
 20
-20.23759554709015
 30
0.0
 10
37.85649886724379
 20
-20.690947815431347
 30
0.0
 10
38.15473104520741
 20
-21.101429193283188
 30
0.0
 10
38.502058531774196
 20
-21.471295399648753
 30
0.0
 10
38.9923939636993
 20
-21.32027727341335
 30
0.0
 10
39.46042103776991
 20
-21.15437213910346
 30
0.0
 10
39.87205766798702
 20
-20.988742710991346
 30
0.0
 10
40.22823404333037
 20
-20.82778609691987
 30
0.0
 10
40.53014816347114
 20
-20.67581841210018
 30
0.0
 10
40.840001741593674
 20
-20.503226625400725
 30
0.0
 10
40.95406471259796
 20
-20.462441122897822
 30
0.0
 10
41.02983478563584
 20
-20.465541573558944
 30
0.0
 10
41.81573575201787
 20
-21.30244109996313
 30
0.0
 10
41.814072442399436
 20
-21.378256336978964
 30
0.0
 10
41.766205347557744
 20
-21.489533287871964
 30
0.0
 10
41.574498264178644
 20
-21.787938312783794
 30
0.0
 10
41.40387310841262
 20
-22.07971454449365
 30
0.0
 10
41.220869605800246
 20
-22.425081537701708
 30
0.0
 10
41.029720131662145
 20
-22.82550593921838
 30
0.0
 10
40.83475471010313
 20
-23.282192199192117
 30
0.0
 10
40.65324616712851
 20
-23.762077559545062
 30
0.0
 10
41.00057365369534
 20
-24.131943765910584
 30
0.0
 10
41.3915188869188
 20
-24.455361789768094
 30
0.0
 10
41.85906028741916
 20
-24.24407916135067
 30
0.0
 10
42.30260340126985
 20
-24.020822891989365
 30
0.0
 10
42.690235281909096
 20
-23.8049077514704
 30
0.0
 10
43.023429887243
 20
-23.600579591535293
 30
0.0
 10
43.30391672303335
 20
-23.41197034436499
 30
0.0
 10
43.58969552642992
 20
-23.201904544576763
 30
0.0
 10
43.69774729792765
 20
-23.147144766957215
 30
0.0
 10
43.77330849081507
 20
-23.14072426137757
 30
0.0
 10
44.65790371715261
 20
-23.872525075668317
 30
0.0
 10
44.66575569203596
 20
-23.94795095486827
 30
0.0
 10
44.63221274361089
 20
-24.0643497915445
 30
0.0
 10
44.4794173945284
 20
-24.384429072362725
 30
0.0
 10
44.34670692767626
 20
-24.695289563835782
 30
0.0
 10
44.20843242436763
 20
-25.06086965588227
 30
0.0
 10
44.068976705966826
 20
-25.48209397307986
 30
0.0
 10
43.93278661067704
 20
-25.95961477220535
 30
0.0
 10
43.812854900730954
 20
-26.458465145767658
 30
0.0
 10
44.20380013395447
 20
-26.78188316962513
 30
0.0
 10
44.632197673967354
 20
-27.053752515537784
 30
0.0
 10
45.069571635861394
 20
-26.785537438202606
 30
0.0
 10
45.4816358496269
 20
-26.508450918524545
 30
0.0
 10
45.83914979437054
 20
-26.24565517634617
 30
0.0
 10
46.14410795172806
 20
-26.00117784768933
 30
0.0
 10
46.39874405821287
 20
-25.778901518665993
 30
0.0
 10
46.65594118443795
 20
-25.53467456893888
 30
0.0
 10
46.756277715445584
 20
-25.466804110607654
 30
0.0
 10
46.83043838303264
 20
-25.45096390399566
 30
0.0
 10
47.79977727417477
 20
-26.066125070174987
 30
0.0
 10
47.81702070322545
 20
-26.13997208038683
 30
0.0
 10
47.79833089355128
 20
-26.259657123658616
 30
0.0
 10
47.68685695269594
 20
-26.596362818918635
 30
0.0
 10
47.59415409809733
 20
-26.921405114505312
 30
0.0
 10
47.5027892656108
 20
-27.3014328889517
 30
0.0
 10
47.41722660293328
 20
-27.736814162720783
 30
0.0
 10
47.341959633071475
 20
-28.227638712738724
 30
0.0
 10
47.28549615086352
 20
-28.737586931120536
 30
0.0
 10
47.71389369087642
 20
-29.009456277033152
 30
0.0
 10
48.17298745256036
 20
-29.225489403009053
 30
0.0
 10
48.5732963271945
 20
-28.904571788749614
 30
0.0
 10
48.94738314206852
 20
-28.57802483869358
 30
0.0
 10
49.26914094243947
 20
-28.27249294069652
 30
0.0
 10
49.54105327950592
 20
-27.99172199683455
 30
0.0
 10
49.76582289317368
 20
-27.739284016448316
 30
0.0
 10
49.99038218990456
 20
-27.464747521673612
 30
0.0
 10
50.08142111338999
 20
-27.384836740302443
 30
0.0
 10
50.1530116976474
 20
-27.35982664217885
 30
0.0
 10
51.191807200225824
 20
-27.84864670117664
 30
0.0
 10
51.21817014426699
 20
-27.91975023093527
 30
0.0
 10
51.21462822280701
 20
-28.040833976173836
 30
0.0
 10
51.14623370081742
 20
-28.388856035923176
 30
0.0
 10
51.09500043786736
 20
-28.7229540244512
 30
0.0
 10
51.05198615418996
 20
-29.11143621627689
 30
0.0
 10
51.021665921538805
 20
-29.55410822384596
 30
0.0
 10
51.008509082182
 20
-30.050495928398185
 30
0.0
 10
51.01640429055621
 20
-30.563499803567343
 30
0.0
 10
51.475498052240205
 20
-30.779532929543194
 30
0.0
 10
51.9580478527242
 20
-30.936322864133775
 30
0.0
 10
52.314978530012496
 20
-30.5677637754338
 30
0.0
 10
52.64518837345584
 20
-30.196906235471875
 30
0.0
 10
52.92611571673346
 20
-29.85345660220344
 30
0.0
 10
53.16069401352074
 20
-29.540819968645476
 30
0.0
 10
53.35205238329304
 20
-29.262201434646173
 30
0.0
 10
53.54043241627507
 20
-28.961684999346645
 30
0.0
 10
53.62073799403092
 20
-28.870994135694133
 30
0.0
 10
53.68862946867879
 20
-28.837208570246663
 30
0.0
 10
54.78049915707149
 20
-29.19197853772557
 30
0.0
 10
54.81556585672715
 20
-29.259217241891506
 30
0.0
 10
54.827227681698616
 20
-29.379790126102513
 30
0.0
 10
54.80299120104347
 20
-29.73364003456062
 30
0.0
 10
54.79403550890396
 20
-30.07152479117045
 30
0.0
 10
54.80005013498476
 20
-30.46233480414232
 30
0.0
 10
54.82545050054131
 20
-30.905316343512588
 30
0.0
 10
54.87461128290568
 20
-31.399438871970673
 30
0.0
 10
54.946740669709655
 20
-31.907408026362084
 30
0.0
 10
55.42929047019367
 20
-32.06419796095259
 30
0.0
 10
55.92768621086279
 20
-32.159272033227516
 30
0.0
 10
56.235609680804345
 20
-31.748883867082437
 30
0.0
 10
56.51673494632811
 20
-31.339564382159367
 30
0.0
 10
56.75240144049105
 20
-30.963613419503076
 30
0.0
 10
56.94594625712854
 20
-30.62404156272039
 30
0.0
 10
57.100875547202136
 20
-30.323636455827845
 30
0.0
 10
57.25010545078241
 20
-30.00187940370797
 30
0.0
 10
57.31841121587522
 20
-29.901838706870013
 30
0.0
 10
57.38153289180197
 20
-29.859810492648297
 30
0.0
 10
58.50925732877166
 20
-30.07493543429187
 30
0.0
 10
58.552474761240404
 20
-30.137248918333956
 30
0.0
 10
58.579156418697096
 20
-30.25540943510665
 30
0.0
 10
58.59946020315449
 20
-30.609506767837438
 30
0.0
 10
58.632923318440426
 20
-30.945849648074773
 30
0.0
 10
58.68787200003317
 20
-31.332824174829685
 30
0.0
 10
58.768592384859154
 20
-31.769129162500924
 30
0.0
 10
58.879295494039596
 20
-32.253193907416595
 30
0.0
 10
59.014521535755414
 20
-32.748117364019436
 30
0.0
 10
59.51291727642452
 20
-32.84319143629435
 30
0.0
 10
60.01929895872123
 20
-32.87505027133947
 30
0.0
 10
60.27335908425053
 20
-32.429305094283265
 30
0.0
 10
60.5009662584813
 20
-31.987978877191896
 30
0.0
 10
60.68765530213627
 20
-31.585455556411052
 30
0.0
 10
60.837114321247526
 20
-31.224303727435515
 30
0.0
 10
60.95317120416769
 20
-30.906849615638723
 30
0.0
 10
61.060897533621116
 20
-30.568926247618784
 30
0.0
 10
61.11612626333151
 20
-30.461113419145942
 30
0.0
 10
61.173482674000695
 20
-30.411505366194678
 30
0.0
 10
62.31927697150644
 20
-30.48359263316379
 30
0.0
 10
62.3699635720614
 20
-30.539998176214414
 30
0.0
 10
62.41124427632638
 20
-30.653882863613617
 30
0.0
 10
62.47576812308652
 20
-31.002643294152445
 30
0.0
 10
62.551122312479954
 20
-31.332139969874437
 30
0.0
 10
62.65413847605117
 20
-31.70917619095808
 30
0.0
 10
62.788905871457864
 20
-32.131923836638755
 30
0.0
 10
62.959405453291765
 20
-32.59829680781843
 30
0.0
 10
63.15559555446145
 20
-33.07236932806914
 30
0.0
 10
63.66197723675814
 20
-33.10422816311417
 30
0.0
 10
64.16835891905481
 20
-33.07236932806917
 30
0.0
 10
64.36454902022412
 20
-32.59829680781939
 30
0.0
 10
64.53504860205835
 20
-32.13192383663877
 30
0.0
 10
64.66981599746428
 20
-31.709176190957862
 30
0.0
 10
64.77283216103544
 20
-31.332139969874056
 30
0.0
 10
64.84818635042949
 20
-31.002643294153952
 30
0.0
 10
64.91271019718799
 20
-30.65388286361326
 30
0.0
 10
64.95399090145638
 20
-30.539998176214798
 30
0.0
 10
65.0046775020087
 20
-30.48359263316345
 30
0.0
 10
66.1504717995145
 20
-30.411505366195158
 30
0.0
 10
66.20782821018622
 20
-30.46111341914537
 30
0.0
 10
66.26305693989332
 20
-30.568926247619384
 30
0.0
 10
66.37078326934812
 20
-30.906849615637263
 30
0.0
 10
66.48684015226792
 20
-31.224303727436006
 30
0.0
 10
66.63629917137922
 20
-31.585455556411375
 30
0.0
 10
66.82298821503491
 20
-31.98797887719189
 30
0.0
 10
67.05059538926524
 20
-32.429305094282356
 30
0.0
 10
67.30465551479504
 20
-32.875050271339404
 30
0.0
 10
67.81103719709174
 20
-32.84319143629436
 30
0.0
 10
68.30943293776087
 20
-32.748117364019514
 30
0.0
 10
68.4446589794764
 20
-32.253193907417604
 30
0.0
 10
68.55536208865705
 20
-31.769129162500942
 30
0.0
 10
68.63608247348225
 20
-31.332824174829568
 30
0.0
 10
68.69103115507491
 20
-30.945849648074507
 30
0.0
 10
68.7244942703617
 20
-30.60950676783897
 30
0.0
 10
68.74479805481724
 20
-30.255409435106532
 30
0.0
 10
68.77147971227741
 20
-30.137248918334148
 30
0.0
 10
68.81469714474345
 20
-30.074935434291675
 30
0.0
 10
69.94242158171329
 20
-29.8598104926489
 30
0.0
 10
70.00554325764242
 20
-29.901838706869274
 30
0.0
 10
70.0738490227321
 20
-30.001879403708795
 30
0.0
 10
70.22307892631349
 20
-30.323636455826453
 30
0.0
 10
70.37800821638697
 20
-30.62404156272098
 30
0.0
 10
70.57155303302449
 20
-30.963613419503492
 30
0.0
 10
70.8072195271881
 20
-31.339564382159367
 30
0.0
 10
71.0883447927113
 20
-31.74888386708161
 30
0.0
 10
71.39626826265348
 20
-32.159272033227495
 30
0.0
 10
71.89466400332259
 20
-32.06419796095257
 30
0.0
 10
72.37721380380664
 20
-31.90740802636213
 30
0.0
 10
72.44934319061043
 20
-31.3994388719717
 30
0.0
 10
72.4985039729749
 20
-30.90531634351262
 30
0.0
 10
72.52390433853066
 20
-30.46233480414232
 30
0.0
 10
72.52991896461135
 20
-30.071524791170305
 30
0.0
 10
72.52096327247291
 20
-29.733640034562143
 30
0.0
 10
72.49672679181572
 20
-29.379790126102645
 30
0.0
 10
72.50838861679068
 20
-29.259217241891506
 30
0.0
 10
72.5434553164436
 20
-29.19197853772553
 30
0.0
 10
73.63532500483655
 20
-28.837208570247398
 30
0.0
 10
73.70321647948661
 20
-28.870994135693227
 30
0.0
 10
73.78352205723957
 20
-28.961684999347685
 30
0.0
 10
73.97190209022241
 20
-29.26220143464488
 30
0.0
 10
74.16326045999486
 20
-29.540819968646158
 30
0.0
 10
74.39783875678212
 20
-29.85345660220395
 30
0.0
 10
74.67876610006037
 20
-30.19690623547189
 30
0.0
 10
75.00897594350305
 20
-30.56776377543306
 30
0.0
 10
75.36590662079206
 20
-30.93632286413374
 30
0.0
 10
75.84845642127607
 20
-30.779532929543223
 30
0.0
 10
76.30755018296009
 20
-30.563499803567385
 30
0.0
 10
76.31544539133425
 20
-30.05049592839922
 30
0.0
 10
76.30228855197741
 20
-29.55410822384599
 30
0.0
 10
76.27196831932547
 20
-29.11143621627698
 30
0.0
 10
76.22895403564794
 20
-28.72295402445117
 30
0.0
 10
76.17772077269916
 20
-28.388856035924665
 30
0.0
 10
76.10932625070737
 20
-28.0408339761742
 30
0.0
 10
76.10578432925082
 20
-27.91975023093507
 30
0.0
 10
76.13214727328928
 20
-27.84864670117674
 30
0.0
 10
77.17094277586804
 20
-27.35982664217969
 30
0.0
 10
77.24253336012741
 20
-27.384836740301377
 30
0.0
 10
77.33357228361022
 20
-27.464747521674845
 30
0.0
 10
77.55813158034164
 20
-27.73928401644712
 30
0.0
 10
77.78290119400977
 20
-27.991721996835302
 30
0.0
 10
78.05481353107618
 20
-28.2724929406971
 30
0.0
 10
78.37657133144769
 20
-28.578024838693597
 30
0.0
 10
78.75065814632097
 20
-28.904571788748964
 30
0.0
 10
79.15096702095587
 20
-29.22548940300901
 30
0.0
 10
79.61006078263988
 20
-29.00945627703314
 30
0.0
 10
80.03845832265279
 20
-28.737586931120546
 30
0.0
 10
79.98199484044491
 20
-28.22763871273975
 30
0.0
 10
79.90672787058296
 20
-27.73681416272082
 30
0.0
 10
79.82116520790466
 20
-27.3014328889519
 30
0.0
 10
79.729800375418
 20
-26.9214051145054
 30
0.0
 10
79.63709752082083
 20
-26.596362818920085
 30
0.0
 10
79.52562357996317
 20
-26.259657123659217
 30
0.0
 10
79.50693377029233
 20
-26.13997208038644
 30
0.0
 10
79.52417719934036
 20
-26.06612507017523
 30
0.0
 10
80.49351609048293
 20
-25.45096390399659
 30
0.0
 10
80.56767675807168
 20
-25.466804110606454
 30
0.0
 10
80.66801328907701
 20
-25.53467456894029
 30
0.0
 10
80.9252104153023
 20
-25.778901518664927
 30
0.0
 10
81.17984652178772
 20
-26.00117784769016
 30
0.0
 10
81.4848046791452
 20
-26.245655176346826
 30
0.0
 10
81.84231862388933
 20
-26.508450918524563
 30
0.0
 10
82.254382837654
 20
-26.785537438202063
 30
0.0
 10
82.6917567995489
 20
-27.053752515537745
 30
0.0
 10
83.1201543395618
 20
-26.78188316962512
 30
0.0
 10
83.51109957278535
 20
-26.458465145767693
 30
0.0
 10
83.39116786283947
 20
-25.95961477220636
 30
0.0
 10
83.25497776754939
 20
-25.482093973079905
 30
0.0
 10
83.11552204914784
 20
-25.060869655882584
 30
0.0
 10
82.97724754583906
 20
-24.695289563836
 30
0.0
 10
82.84453707898854
 20
-24.384429072364103
 30
0.0
 10
82.69174172990361
 20
-24.064349791545332
 30
0.0
 10
82.65819878148176
 20
-23.947950954867693
 30
0.0
 10
82.66605075636255
 20
-23.87252507566871
 30
0.0
 10
83.55064598270062
 20
-23.14072426137859
 30
0.0
 10
83.62620717558946
 20
-23.147144766955904
 30
0.0
 10
83.73425894708521
 20
-23.201904544578333
 30
0.0
 10
84.02003775048169
 20
-23.41197034436408
 30
0.0
 10
84.30052458627289
 20
-23.600579591536174
 30
0.0
 10
84.63371919160672
 20
-23.804907751471127
 30
0.0
 10
85.02135107224636
 20
-24.0208228919894
 30
0.0
 10
85.46489418609616
 20
-24.244079161350246
 30
0.0
 10
85.93243558659745
 20
-24.455361789768062
 30
0.0
 10
86.32338081982095
 20
-24.131943765910584
 30
0.0
 10
86.67070830638784
 20
-23.762077559545105
 30
0.0
 10
86.48919976341351
 20
-23.282192199193084
 30
0.0
 10
86.2942343418541
 20
-22.825505939218424
 30
0.0
 10
86.10308486771528
 20
-22.425081537702106
 30
0.0
 10
85.92008136510275
 20
-22.079714544493974
 30
0.0
 10
85.74945620933846
 20
-21.787938312785073
 30
0.0
 10
85.55774912595689
 20
-21.489533287873
 30
0.0
 10
85.5098820311182
 20
-21.378256336978204
 30
0.0
 10
85.50821872149734
 20
-21.30244109996365
 30
0.0
 10
86.29411968787997
 20
-20.46554157356002
 30
0.0
 10
86.36988976091898
 20
-20.462441122896408
 30
0.0
 10
86.48395273192166
 20
-20.50322662540242
 30
0.0
 10
86.79380631004379
 20
-20.675818412099417
 30
0.0
 10
87.09572043018564
 20
-20.827786096920782
 30
0.0
 10
87.45189680552889
 20
-20.988742710992113
 30
0.0
 10
87.8635334357463
 20
-21.154372139103494
 30
0.0
 10
88.33156050981599
 20
-21.320277273413037
 30
0.0
 10
88.82189594174204
 20
-21.471295399648703
 30
0.0
 10
89.16922342830884
 20
-21.10142919328318
 30
0.0
 10
89.4674556062725
 20
-20.690947815431393
 30
0.0
 10
89.22723272842043
 20
-20.237595547091072
 30
0.0
 10
88.97656670175634
 20
-19.80894604139916
 30
0.0
 10
88.7367380132746
 20
-19.4356364875777
 30
0.0
 10
88.51189158591552
 20
-19.115929237003158
 30
0.0
 10
88.30604260187042
 20
-18.84783875052997
 30
0.0
 10
88.07844711941738
 20
-18.575814007025983
 30
0.0
 10
88.01701077084186
 20
-18.47141384590327
 30
0.0
 10
88.00585840810571
 20
-18.396404902650694
 30
0.0
 10
88.68067098681855
 20
-17.467605069604478
 30
0.0
 10
88.75545500069305
 20
-17.455032558659028
 30
0.0
 10
88.87373033001205
 20
-17.48120057431002
 30
0.0
 10
89.20277210683528
 20
-17.613596472340735
 30
0.0
 10
89.52135214529837
 20
-17.726525973640634
 30
0.0
 10
89.89489317644244
 20
-17.84157265989361
 30
0.0
 10
90.3240428006793
 20
-17.954304300574563
 30
0.0
 10
90.80917276842496
 20
-18.060241876757825
 30
0.0
 10
91.31456934910211
 20
-18.148613854746745
 30
0.0
 10
91.61280152706571
 20
-17.738132476894883
 30
0.0
 10
91.85723509682438
 20
-17.29350946409518
 30
0.0
 10
91.5620863423805
 20
-16.873839923857822
 30
0.0
 10
91.25967286359285
 20
-16.47998723121622
 30
0.0
 10
90.97494720245226
 20
-16.139679839757708
 30
0.0
 10
90.71180381282281
 20
-15.850674306142169
 30
0.0
 10
90.4739773619435
 20
-15.610497512025862
 30
0.0
 10
90.21408279713621
 20
-15.369143042634729
 30
0.0
 10
90.14004608274124
 20
-15.273266124190638
 30
0.0
 10
90.1195805463122
 20
-15.200246410543294
 30
0.0
 10
90.6726625398755
 20
-14.194193999059767
 30
0.0
 10
90.74528110601287
 20
-14.172347703840538
 30
0.0
 10
90.86590352105056
 20
-14.183485547397682
 30
0.0
 10
91.20894431119437
 20
-14.273597594360684
 30
0.0
 10
91.53916607046165
 20
-14.345707946442811
 30
0.0
 10
91.92418079220279
 20
-14.413030349909674
 30
0.0
 10
92.36407546452332
 20
-14.471086357844035
 30
0.0
 10
92.85865753655102
 20
-14.515385677040559
 30
0.0
 10
93.37114485999274
 20
-14.539717827899015
 30
0.0
 10
93.61557842975134
 20
-14.095094815099284
 30
0.0
 10
93.80235852789238
 20
-13.623342137868427
 30
0.0
 10
93.45693856902756
 20
-13.243973765081984
 30
0.0
 10
93.1075468793299
 20
-12.891129177729841
 30
0.0
 10
92.78241453929351
 20
-12.589190799487353
 30
0.0
 10
92.4851241158424
 20
-12.335444772739471
 30
0.0
 10
92.21907086332988
 20
-12.126969402497936
 30
0.0
 10
91.93097590870886
 20
-11.92009151138012
 30
0.0
 10
91.8455064317078
 20
-11.834249871892608
 30
0.0
 10
91.8160504753209
 20
-11.76437095235458
 30
0.0
 10
92.23867945030098
 20
-10.69693200994941
 30
0.0
 10
92.30798733053302
 20
-10.666156459582359
 30
0.0
 10
92.42905454374791
 20
-10.662088480599335
 30
0.0
 10
92.78068438902909
 20
-10.70849555568369
 30
0.0
 10
93.117340074692
 20
-10.738649535219068
 30
0.0
 10
93.50775657487172
 20
-10.757185941380692
 30
0.0
 10
93.95145889351308
 20
-10.75965073864236
 30
0.0
 10
94.44769321509793
 20
-10.741613174125291
 30
0.0
 10
94.95918905006847
 20
-10.701521765298914
 30
0.0
 10
95.14596914820949
 20
-10.229769088068057
 30
0.0
 10
95.27215014100814
 20
-9.73832656793736
 30
0.0
 10
94.88190645681756
 20
-9.405242228464363
 30
0.0
 10
94.49104667187291
 20
-9.098970316323365
 30
0.0
 10
94.13063518416773
 20
-8.840162699891032
 30
0.0
 10
93.80388617446548
 20
-8.62567790643315
 30
0.0
 10
93.51380193904438
 20
-8.452191741192237
 30
0.0
 10
93.20205002414357
 20
-8.28305301627353
 30
0.0
 10
93.10649568924573
 20
-8.208600429676626
 30
0.0
 10
93.06851385092935
 20
-8.142964336552676
 30
0.0
 10
93.35402469592444
 20
-7.0309730130047114
 30
0.0
 10
93.41892886357736
 20
-6.991753556303543
 30
0.0
 10
93.53853157269502
 20
-6.972543909239005
 30
0.0
 10
93.89320506039999
 20
-6.974514145148392
 30
0.0
 10
94.23098541118728
 20
-6.962236205866638
 30
0.0
 10
94.62064658837423
 20
-6.93169428452474
 30
0.0
 10
95.06115910271652
 20
-6.878528999788497
 30
0.0
 10
95.55121976217112
 20
-6.798439014725386
 30
0.0
 10
96.0536575138001
 20
-6.694556311680785
 30
0.0
 10
96.1798385065988
 20
-6.203113791550102
 30
0.0
 10
96.24343044442199
 20
-5.69973177063562
 30
0.0
 10
95.81451741092552
 20
-5.418184403484474
 30
0.0
 10
95.38835362303075
 20
-5.163315257567056
 30
0.0
 10
94.9983468921173
 20
-4.951719953660192
 30
0.0
 10
94.64729232323728
 20
-4.779878946812146
 30
0.0
 10
94.33775190658814
 20
-4.644117967033317
 30
0.0
 10
94.0072595453371
 20
-4.515385827044266
 30
0.0
 10
93.90312730148521
 20
-4.4534964551044185
 30
0.0
 10
93.85721857751882
 20
-4.393138308792212
 30
0.0
 10
94.00110861594746
 20
-3.2541313715452205
 30
0.0
 10
94.06058549352551
 20
-3.207086522770685
 30
0.0
 10
94.17683749237594
 20
-3.173038155234128
 30
0.0
 10
94.52896120973195
 20
-3.1305404801712937
 30
0.0
 10
94.86253922773147
 20
-3.0760242525093626
 30
0.0
 10
95.2452998923891
 20
-2.9968856680083618
 30
0.0
 10
95.67567545693174
 20
-2.8889287495739038
 30
0.0
 10
96.15183390490844
 20
-2.748049410872633
 30
0.0
 10
96.63728982971102
 20
-2.5820137058933685
 30
0.0
 10
96.70088176753409
 20
-2.078631684978884
 30
0.0
 10
96.70088176753416
 20
-1.571248798456221
 30
0.0
 10
96.24006359949036
 20
-1.3456785737951735
 30
0.0
 10
95.78531666615848
 20
-1.1462316327839015
 30
0.0
 10
95.37186533116197
 20
-0.9851856257460248
 30
0.0
 10
95.0020415433653
 20
-0.8586984408386511
 30
0.0
 10
94.67792658276912
 20
-0.7628036782726959
 30
0.0
 10
94.33390583713135
 20
-0.6765083059617782
 30
0.0
 10
94.22283791201654
 20
-0.6281581810454007
 30
0.0
 10
94.16972631040164
 20
-0.5740298655684886
 30
0.0
 10
94.16972631040205
 20
0.5740298655673799
 30
0.0
 10
94.22283791201608
 20
0.6281581810468797
 30
0.0
 10
94.33390583713184
 20
0.676508305959896
 30
0.0
 10
94.67792658276764
 20
0.7628036782723289
 30
0.0
 10
95.00204154336572
 20
0.8586984408377905
 30
0.0
 10
95.37186533116224
 20
0.9851856257452145
 30
0.0
 10
95.78531666615848
 20
1.1462316327838387
 30
0.0
 10
96.24006359948942
 20
1.3456785737947117
 30
0.0
 10
96.70088176753407
 20
1.571248798456213
 30
0.0
 10
96.70088176753406
 20
2.078631684978866
 30
0.0
 10
96.63728982971102
 20
2.582013705893374
 30
0.0
 10
96.15183390490941
 20
2.748049410872306
 30
0.0
 10
95.67567545693174
 20
2.8889287495738567
 30
0.0
 10
95.24529989238894
 20
2.996885668007538
 30
0.0
 10
94.86253922773116
 20
3.0760242525084687
 30
0.0
 10
94.52896120973347
 20
3.1305404801711294
 30
0.0
 10
94.17683749237571
 20
3.173038155232212
 30
0.0
 10
94.06058549352579
 20
3.207086522772225
 30
0.0
 10
94.00110861594719
 20
3.254131371544082
 30
0.0
 10
93.85721857751938
 20
4.393138308791176
 30
0.0
 10
93.90312730148455
 20
4.45349645510584
 30
0.0
 10
94.00725954533782
 20
4.515385827042472
 30
0.0
 10
94.33775190658672
 20
4.64411796703278
 30
0.0
 10
94.64729232323782
 20
4.779878946811361
 30
0.0
 10
94.99834689211767
 20
4.951719953659435
 30
0.0
 10
95.38835362303075
 20
5.163315257567007
 30
0.0
 10
95.81451741092465
 20
5.418184403483913
 30
0.0
 10
96.24343044442193
 20
5.699731770635613
 30
0.0
 10
96.17983850659886
 20
6.2031137915501136
 30
0.0
 10
96.05365751380003
 20
6.694556311680774
 30
0.0
 10
95.55121976217214
 20
6.798439014725185
 30
0.0
 10
95.06115910271654
 20
6.878528999788452
 30
0.0
 10
94.62064658837417
 20
6.9316942845239
 30
0.0
 10
94.23098541118708
 20
6.962236205865711
 30
0.0
 10
93.89320506040153
 20
6.9745141451484205
 30
0.0
 10
93.53853157269502
 20
6.972543909237076
 30
0.0
 10
93.41892886357746
 20
6.991753556305108
 30
0.0
 10
93.35402469592432
 20
7.030973013003548
 30
0.0
 10
93.06851385093002
 20
8.142964336551715
 30
0.0
 10
93.10649568924491
 20
8.208600429677952
 30
0.0
 10
93.20205002414451
 20
8.28305301627184
 30
0.0
 10
93.51380193904303
 20
8.452191741191527
 30
0.0
 10
93.8038861744661
 20
8.625677906432438
 30
0.0
 10
94.1306351841682
 20
8.840162699890328
 30
0.0
 10
94.49104667187291
 20
9.098970316323316
 30
0.0
 10
94.88190645681678
 20
9.405242228463699
 30
0.0
 10
95.2721501410081
 20
9.738326567937357
 30
0.0
 10
95.14596914820942
 20
10.229769088068005
 30
0.0
 10
94.95918905006847
 20
10.7015217652989
 30
0.0
 10
94.44769321509897
 20
10.741613174125202
 30
0.0
 10
93.9514588935131
 20
10.759650738642302
 30
0.0
 10
93.50775657487176
 20
10.75718594137984
 30
0.0
 10
93.11734007469191
 20
10.738649535218109
 30
0.0
 10
92.78068438903061
 20
10.708495555683895
 30
0.0
 10
92.42905454374815
 20
10.662088480597404
 30
0.0
 10
92.30798733053291
 20
10.66615645958391
 30
0.0
 10
92.238679450301
 20
10.696932009948231
 30
0.0
 10
91.8160504753217
 20
11.764370952353698
 30
0.0
 10
91.84550643170681
 20
11.834249871893807
 30
0.0
 10
91.93097590871
 20
11.920091511378546
 30
0.0
 10
92.21907086332864
 20
12.126969402497046
 30
0.0
 10
92.48512411584312
 20
12.335444772738832
 30
0.0
 10
92.78241453929405
 20
12.589190799486698
 30
0.0
 10
93.10754687932992
 20
12.891129177729779
 30
0.0
 10
93.45693856902687
 20
13.24397376508121
 30
0.0
 10
93.80235852789238
 20
13.623342137868402
 30
0.0
 10
93.61557842975135
 20
14.095094815099298
 30
0.0
 10
93.37114485999274
 20
14.539717827899047
 30
0.0
 10
92.85865753655204
 20
14.51538567704064
 30
0.0
 10
92.36407546452334
 20
14.47108635784402
 30
0.0
 10
91.92418079220293
 20
14.41303034990887
 30
0.0
 10
91.53916607046166
 20
14.34570794644188
 30
0.0
 10
91.20894431119584
 20
14.273597594361112
 30
0.0
 10
90.86590352105102
 20
14.183485547395835
 30
0.0
 10
90.74528110601257
 20
14.172347703842098
 30
0.0
 10
90.67266253987566
 20
14.194193999058633
 30
0.0
 10
90.11958054631309
 20
15.200246410542553
 30
0.0
 10
90.1400460827401
 20
15.27326612419174
 30
0.0
 10
90.21408279713754
 20
15.369143042633349
 30
0.0
 10
90.47397736194236
 20
15.610497512024864
 30
0.0
 10
90.71180381282359
 20
15.850674306141658
 30
0.0
 10
90.97494720245287
 20
16.13967983975716
 30
0.0
 10
91.25967286359285
 20
16.479987231216192
 30
0.0
 10
91.56208634237989
 20
16.873839923857005
 30
0.0
 10
91.85723509682435
 20
17.293509464095195
 30
0.0
 10
91.61280152706574
 20
17.738132476894908
 30
0.0
 10
91.3145693491022
 20
18.14861385474678
 30
0.0
 10
90.80917276842598
 20
18.060241876757992
 30
0.0
 10
90.32404280067935
 20
17.954304300574513
 30
0.0
 10
89.89489317644271
 20
17.841572659892798
 30
0.0
 10
89.52135214529852
 20
17.726525973639678
 30
0.0
 10
89.2027721068367
 20
17.613596472341307
 30
0.0
 10
88.87373033001276
 20
17.48120057430821
 30
0.0
 10
88.75545500069258
 20
17.455032558660502
 30
0.0
 10
88.68067098681888
 20
17.467605069603344
 30
0.0
 10
88.00585840810669
 20
18.39640490265003
 30
0.0
 10
88.01701077084061
 20
18.471413845904188
 30
0.0
 10
88.07844711941887
 20
18.575814007024743
 30
0.0
 10
88.30604260186944
 20
18.847838750528794
 30
0.0
 10
88.51189158591639
 20
19.115929237002717
 30
0.0
 10
88.7367380132753
 20
19.435636487577202
 30
0.0
 10
88.97656670175638
 20
19.8089460413991
 30
0.0
 10
89.22723272841996
 20
20.237595547090148
 30
0.0
 10
89.46745560627245
 20
20.690947815431333
 30
0.0
 10
89.16922342830883
 20
21.101429193283174
 30
0.0
 10
88.82189594174207
 20
21.47129539964878
 30
0.0
 10
88.33156050981697
 20
21.320277273413364
 30
0.0
 10
87.86353343574635
 20
21.154372139103472
 30
0.0
 10
87.45189680552923
 20
20.98874271099136
 30
0.0
 10
87.09572043018588
 20
20.827786096919883
 30
0.0
 10
86.79380631004511
 20
20.675818412100192
 30
0.0
 10
86.48395273192259
 20
20.50322662540074
 30
0.0
 10
86.3698897609183
 20
20.462441122897836
 30
0.0
 10
86.29411968788041
 20
20.46554157355895
 30
0.0
 10
85.5082187214984
 20
21.30244109996314
 30
0.0
 10
85.50988203111683
 20
21.378256336978975
 30
0.0
 10
85.55774912595851
 20
21.489533287871975
 30
0.0
 10
85.74945620933761
 20
21.787938312783808
 30
0.0
 10
85.92008136510364
 20
22.079714544493662
 30
0.0
 10
86.103084867716
 20
22.42508153770172
 30
0.0
 10
86.29423434185411
 20
22.825505939218388
 30
0.0
 10
86.48919976341313
 20
23.282192199192124
 30
0.0
 10
86.67070830638775
 20
23.762077559545062
 30
0.0
 10
86.32338081982093
 20
24.131943765910574
 30
0.0
 10
85.93243558659745
 20
24.45536178976807
 30
0.0
 10
85.4648941860971
 20
24.244079161350676
 30
0.0
 10
85.0213510722464
 20
24.020822891989372
 30
0.0
 10
84.63371919160716
 20
23.804907751470406
 30
0.0
 10
84.30052458627327
 20
23.6005795915353
 30
0.0
 10
84.02003775048291
 20
23.411970344364995
 30
0.0
 10
83.73425894708633
 20
23.201904544576767
 30
0.0
 10
83.6262071755886
 20
23.14714476695722
 30
0.0
 10
83.5506459827012
 20
23.140724261377578
 30
0.0
 10
82.66605075636366
 20
23.872525075668324
 30
0.0
 10
82.65819878148031
 20
23.947950954868276
 30
0.0
 10
82.69174172990537
 20
24.064349791544508
 30
0.0
 10
82.84453707898786
 20
24.384429072362728
 30
0.0
 10
82.97724754584
 20
24.69528956383579
 30
0.0
 10
83.11552204914862
 20
25.060869655882275
 30
0.0
 10
83.25497776754943
 20
25.482093973079866
 30
0.0
 10
83.39116786283921
 20
25.959614772205356
 30
0.0
 10
83.51109957278533
 20
26.458465145767665
 30
0.0
 10
83.12015433956182
 20
26.78188316962513
 30
0.0
 10
82.69175679954893
 20
27.05375251553776
 30
0.0
 10
82.25438283765487
 20
26.785537438202613
 30
0.0
 10
81.84231862388935
 20
26.508450918524552
 30
0.0
 10
81.48480467914573
 20
26.245655176346176
 30
0.0
 10
81.17984652178819
 20
26.00117784768934
 30
0.0
 10
80.92521041530338
 20
25.778901518666
 30
0.0
 10
80.66801328907832
 20
25.534674568938883
 30
0.0
 10
80.56767675807068
 20
25.46680411060766
 30
0.0
 10
80.49351609048362
 20
25.450963903995667
 30
0.0
 10
79.5241771993415
 20
26.066125070174994
 30
0.0
 10
79.5069337702908
 20
26.139972080386837
 30
0.0
 10
79.52562357996499
 20
26.259657123658624
 30
0.0
 10
79.63709752082032
 20
26.596362818918642
 30
0.0
 10
79.72980037541893
 20
26.92140511450532
 30
0.0
 10
79.82116520790545
 20
27.30143288895171
 30
0.0
 10
79.90672787058297
 20
27.73681416272079
 30
0.0
 10
79.98199484044478
 20
28.22763871273873
 30
0.0
 10
80.03845832265277
 20
28.737586931120553
 30
0.0
 10
79.61006078263988
 20
29.009456277033173
 30
0.0
 10
79.15096702095587
 20
29.225489403009057
 30
0.0
 10
78.75065814632175
 20
28.90457178874962
 30
0.0
 10
78.37657133144774
 20
28.57802483869359
 30
0.0
 10
78.05481353107677
 20
28.272492940696523
 30
0.0
 10
77.78290119401034
 20
27.991721996834553
 30
0.0
 10
77.55813158034258
 20
27.73928401644832
 30
0.0
 10
77.33357228361169
 20
27.464747521673623
 30
0.0
 10
77.24253336012626
 20
27.38483674030245
 30
0.0
 10
77.17094277586885
 20
27.35982664217886
 30
0.0
 10
76.13214727329043
 20
27.84864670117665
 30
0.0
 10
76.10578432924926
 20
27.919750230935282
 30
0.0
 10
76.10932625070924
 20
28.040833976173843
 30
0.0
 10
76.17772077269883
 20
28.38885603592318
 30
0.0
 10
76.22895403564888
 20
28.72295402445121
 30
0.0
 10
76.27196831932629
 20
29.111436216276893
 30
0.0
 10
76.30228855197744
 20
29.554108223845965
 30
0.0
 10
76.31544539133425
 20
30.050495928398192
 30
0.0
 10
76.30755018296004
 20
30.563499803567353
 30
0.0
 10
75.84845642127607
 20
30.7795329295432
 30
0.0
 10
75.36590662079206
 20
30.936322864133732
 30
0.0
 10
75.00897594350377
 20
30.5677637754338
 30
0.0
 10
74.67876610006043
 20
30.196906235471875
 30
0.0
 10
74.39783875678282
 20
29.85345660220344
 30
0.0
 10
74.16326045999553
 20
29.540819968645472
 30
0.0
 10
73.97190209022322
 20
29.262201434646173
 30
0.0
 10
73.7835220572412
 20
28.961684999346645
 30
0.0
 10
73.70321647948535
 20
28.870994135694133
 30
0.0
 10
73.63532500483748
 20
28.837208570246663
 30
0.0
 10
72.54345531644478
 20
29.19197853772557
 30
0.0
 10
72.50838861678912
 20
29.259217241891506
 30
0.0
 10
72.49672679181765
 20
29.379790126102513
 30
0.0
 10
72.5209632724728
 20
29.733640034560615
 30
0.0
 10
72.5299189646123
 20
30.07152479117045
 30
0.0
 10
72.52390433853151
 20
30.46233480414232
 30
0.0
 10
72.49850397297496
 20
30.905316343512588
 30
0.0
 10
72.44934319061059
 20
31.399438871970673
 30
0.0
 10
72.37721380380663
 20
31.90740802636206
 30
0.0
 10
71.8946640033226
 20
32.06419796095257
 30
0.0
 10
71.39626826265348
 20
32.15927203322752
 30
0.0
 10
71.08834479271192
 20
31.748883867082437
 30
0.0
 10
70.80721952718817
 20
31.339564382159367
 30
0.0
 10
70.57155303302522
 20
30.963613419503073
 30
0.0
 10
70.37800821638774
 20
30.62404156272039
 30
0.0
 10
70.22307892631413
 20
30.323636455827845
 30
0.0
 10
70.07384902273387
 20
30.00187940370797
 30
0.0
 10
70.00554325764105
 20
29.901838706870016
 30
0.0
 10
69.9424215817143
 20
29.859810492648297
 30
0.0
 10
68.81469714474461
 20
30.07493543429187
 30
0.0
 10
68.77147971227586
 20
30.137248918333956
 30
0.0
 10
68.74479805481917
 20
30.25540943510665
 30
0.0
 10
68.72449427036177
 20
30.609506767837438
 30
0.0
 10
68.69103115507585
 20
30.945849648074773
 30
0.0
 10
68.6360824734831
 20
31.332824174829685
 30
0.0
 10
68.55536208865712
 20
31.769129162500924
 30
0.0
 10
68.44465897947667
 20
32.253193907416595
 30
0.0
 10
68.30943293776086
 20
32.748117364019436
 30
0.0
 10
67.81103719709174
 20
32.84319143629435
 30
0.0
 10
67.30465551479504
 20
32.875050271339425
 30
0.0
 10
67.05059538926574
 20
32.429305094283265
 30
0.0
 10
66.82298821503497
 20
31.9879788771919
 30
0.0
 10
66.63629917137999
 20
31.585455556411052
 30
0.0
 10
66.48684015226874
 20
31.22430372743552
 30
0.0
 10
66.37078326934858
 20
30.906849615638723
 30
0.0
 10
66.26305693989515
 20
30.568926247618787
 30
0.0
 10
66.20782821018476
 20
30.461113419145942
 30
0.0
 10
66.15047179951557
 20
30.411505366194678
 30
0.0
 10
65.00467750200983
 20
30.48359263316379
 30
0.0
 10
64.95399090145486
 20
30.539998176214414
 30
0.0
 10
64.91271019718988
 20
30.653882863613617
 30
0.0
 10
64.84818635042974
 20
31.002643294152445
 30
0.0
 10
64.7728321610363
 20
31.332139969874437
 30
0.0
 10
64.6698159974651
 20
31.70917619095808
 30
0.0
 10
64.5350486020584
 20
32.131923836638755
 30
0.0
 10
64.3645490202245
 20
32.59829680781843
 30
0.0
 10
64.16835891905484
 20
33.07236932806914
 30
0.0
 10
63.66197723675814
 20
33.10422816311418
 30
0.0
 10
63.155595554461435
 20
33.07236932806918
 30
0.0
 10
62.95940545329214
 20
32.598296807819395
 30
0.0
 10
62.78890587145791
 20
32.13192383663877
 30
0.0
 10
62.654138476051976
 20
31.709176190957862
 30
0.0
 10
62.55112231248082
 20
31.332139969874056
 30
0.0
 10
62.47576812308677
 20
31.002643294153952
 30
0.0
 10
62.41124427632826
 20
30.65388286361326
 30
0.0
 10
62.36996357205987
 20
30.539998176214798
 30
0.0
 10
62.319276971507556
 20
30.48359263316345
 30
0.0
 10
61.173482674001754
 20
30.411505366195158
 30
0.0
 10
61.11612626333004
 20
30.46111341914537
 30
0.0
 10
61.06089753362294
 20
30.568926247619384
 30
0.0
 10
60.95317120416813
 20
30.90684961563726
 30
0.0
 10
60.83711432124834
 20
31.224303727436006
 30
0.0
 10
60.68765530213704
 20
31.585455556411375
 30
0.0
 10
60.50096625848134
 20
31.98797887719189
 30
0.0
 10
60.27335908425102
 20
32.429305094282356
 30
0.0
 10
60.019298958721215
 20
32.875050271339404
 30
0.0
 10
59.51291727642454
 20
32.843191436294354
 30
0.0
 10
59.014521535755414
 20
32.7481173640195
 30
0.0
 10
58.87929549403987
 20
32.253193907417604
 30
0.0
 10
58.76859238485922
 20
31.769129162500942
 30
0.0
 10
58.68787200003402
 20
31.332824174829568
 30
0.0
 10
58.63292331844136
 20
30.945849648074507
 30
0.0
 10
58.59946020315457
 20
30.60950676783897
 30
0.0
 10
58.57915641869904
 20
30.255409435106532
 30
0.0
 10
58.55247476123886
 20
30.137248918334148
 30
0.0
 10
58.509257328772826
 20
30.074935434291675
 30
0.0
 10
57.381532891802976
 20
29.8598104926489
 30
0.0
 10
57.31841121587386
 20
29.901838706869274
 30
0.0
 10
57.25010545078416
 20
30.001879403708795
 30
0.0
 10
57.100875547202776
 20
30.323636455826453
 30
0.0
 10
56.9459462571293
 20
30.62404156272098
 30
0.0
 10
56.752401440491795
 20
30.963613419503492
 30
0.0
 10
56.51673494632817
 20
31.339564382159367
 30
0.0
 10
56.23560968080498
 20
31.74888386708161
 30
0.0
 10
55.9276862108628
 20
32.159272033227495
 30
0.0
 10
55.4292904701937
 20
32.06419796095257
 30
0.0
 10
54.94674066970965
 20
31.90740802636214
 30
0.0
 10
54.87461128290583
 20
31.3994388719717
 30
0.0
 10
54.825450500541365
 20
30.905316343512617
 30
0.0
 10
54.80005013498561
 20
30.462334804142316
 30
0.0
 10
54.79403550890491
 20
30.071524791170305
 30
0.0
 10
54.80299120104336
 20
29.733640034562143
 30
0.0
 10
54.82722768170056
 20
29.379790126102645
 30
0.0
 10
54.8155658567256
 20
29.259217241891506
 30
0.0
 10
54.780499157072676
 20
29.191978537725525
 30
0.0
 10
53.68862946867972
 20
28.837208570247398
 30
0.0
 10
53.62073799402965
 20
28.870994135693227
 30
0.0
 10
53.540432416276715
 20
28.961684999347685
 30
0.0
 10
53.35205238329385
 20
29.26220143464488
 30
0.0
 10
53.16069401352142
 20
29.540819968646158
 30
0.0
 10
52.926115716734145
 20
29.85345660220395
 30
0.0
 10
52.645188373455895
 20
30.19690623547189
 30
0.0
 10
52.31497853001322
 20
30.56776377543306
 30
0.0
 10
51.958047852724214
 20
30.93632286413375
 30
0.0
 10
51.475498052240205
 20
30.77953292954323
 30
0.0
 10
51.0164042905562
 20
30.56349980356738
 30
0.0
 10
51.008509082182016
 20
30.050495928399226
 30
0.0
 10
51.021665921538855
 20
29.554108223845994
 30
0.0
 10
51.0519861541908
 20
29.111436216276985
 30
0.0
 10
51.09500043786832
 20
28.722954024451173
 30
0.0
 10
51.14623370081711
 20
28.388856035924668
 30
0.0
 10
51.214628222808905
 20
28.040833976174202
 30
0.0
 10
51.21817014426544
 20
27.919750230935072
 30
0.0
 10
51.191807200227
 20
27.84864670117674
 30
0.0
 10
50.153011697648225
 20
27.359826642179694
 30
0.0
 10
50.081421113388856
 20
27.384836740301385
 30
0.0
 10
49.99038218990605
 20
27.46474752167485
 30
0.0
 10
49.76582289317464
 20
27.739284016447122
 30
0.0
 10
49.54105327950651
 20
27.991721996835306
 30
0.0
 10
49.26914094244009
 20
28.272492940697102
 30
0.0
 10
48.947383142068574
 20
28.5780248386936
 30
0.0
 10
48.57329632719531
 20
28.904571788748967
 30
0.0
 10
48.172987452560385
 20
29.22548940300903
 30
0.0
 10
47.71389369087636
 20
29.00945627703316
 30
0.0
 10
47.285496150863445
 20
28.737586931120575
 30
0.0
 10
47.341959633071326
 20
28.227638712739736
 30
0.0
 10
47.4172266029333
 20
27.736814162720805
 30
0.0
 10
47.5027892656116
 20
27.30143288895189
 30
0.0
 10
47.59415409809826
 20
26.921405114505383
 30
0.0
 10
47.68685695269542
 20
26.596362818920074
 30
0.0
 10
47.798330893553086
 20
26.259657123659203
 30
0.0
 10
47.81702070322392
 20
26.13997208038642
 30
0.0
 10
47.799777274175895
 20
26.066125070175218
 30
0.0
 10
46.830438383033325
 20
25.450963903996584
 30
0.0
 10
46.756277715444554
 20
25.466804110606436
 30
0.0
 10
46.655941184439236
 20
25.534674568940275
 30
0.0
 10
46.39874405821394
 20
25.778901518664917
 30
0.0
 10
46.14410795172852
 20
26.001177847690144
 30
0.0
 10
45.839149794371046
 20
26.245655176346812
 30
0.0
 10
45.48163584962692
 20
26.50845091852455
 30
0.0
 10
45.06957163586224
 20
26.78553743820205
 30
0.0
 10
44.632197673967326
 20
27.05375251553774
 30
0.0
 10
44.203800133954466
 20
26.781883169625125
 30
0.0
 10
43.812854900730926
 20
26.458465145767676
 30
0.0
 10
43.93278661067679
 20
25.95961477220635
 30
0.0
 10
44.06897670596686
 20
25.4820939730799
 30
0.0
 10
44.20843242436842
 20
25.060869655882577
 30
0.0
 10
44.34670692767719
 20
24.695289563835992
 30
0.0
 10
44.47941739452773
 20
24.384429072364096
 30
0.0
 10
44.63221274361265
 20
24.064349791545325
 30
0.0
 10
44.66575569203451
 20
23.947950954867682
 30
0.0
 10
44.65790371715371
 20
23.872525075668705
 30
0.0
 10
43.77330849081565
 20
23.140724261378583
 30
0.0
 10
43.69774729792681
 20
23.1471447669559
 30
0.0
 10
43.58969552643106
 20
23.201904544578326
 30
0.0
 10
43.303916723034575
 20
23.411970344364068
 30
0.0
 10
43.023429887243374
 20
23.600579591536167
 30
0.0
 10
42.69023528190954
 20
23.80490775147112
 30
0.0
 10
42.3026034012699
 20
24.020822891989393
 30
0.0
 10
41.85906028742011
 20
24.24407916135024
 30
0.0
 10
41.3915188869188
 20
24.455361789768073
 30
0.0
 10
41.0005736536953
 20
24.1319437659106
 30
0.0
 10
40.65324616712848
 20
23.762077559545055
 30
0.0
 10
40.83475471010274
 20
23.282192199193076
 30
0.0
 10
41.029720131662174
 20
22.825505939218417
 30
0.0
 10
41.22086960580098
 20
22.4250815377021
 30
0.0
 10
41.40387310841351
 20
22.079714544493967
 30
0.0
 10
41.57449826417779
 20
21.78793831278507
 30
0.0
 10
41.76620534755937
 20
21.489533287872995
 30
0.0
 10
41.814072442398064
 20
21.378256336978197
 30
0.0
 10
41.81573575201892
 20
21.302441099963644
 30
0.0
 10
41.0298347856363
 20
20.465541573560017
 30
0.0
 10
40.95406471259728
 20
20.4624411228964
 30
0.0
 10
40.8400017415946
 20
20.503226625402412
 30
0.0
 10
40.53014816347246
 20
20.675818412099414
 30
0.0
 10
40.22823404333063
 20
20.827786096920775
 30
0.0
 10
39.87205766798737
 20
20.988742710992106
 30
0.0
 10
39.46042103776995
 20
21.154372139103483
 30
0.0
 10
38.99239396370027
 20
21.32027727341303
 30
0.0
 10
38.50205853177422
 20
21.471295399648703
 30
0.0
 10
38.15473104520742
 20
21.101429193283195
 30
0.0
 10
37.85649886724377
 20
20.690947815431386
 30
0.0
 10
38.096721745095834
 20
20.23759554709108
 30
0.0
 10
38.34738777175993
 20
19.808946041399164
 30
0.0
 10
38.58721646024166
 20
19.435636487577703
 30
0.0
 10
38.812062887600746
 20
19.11592923700316
 30
0.0
 10
39.01791187164585
 20
18.847838750529974
 30
0.0
 10
39.2455073540989
 20
18.57581400702599
 30
0.0
 10
39.3069437026744
 20
18.471413845903278
 30
0.0
 10
39.31809606541056
 20
18.396404902650698
 30
0.0
 10
38.643283486697705
 20
17.46760506960448
 30
0.0
 10
38.56849947282321
 20
17.45503255865903
 30
0.0
 10
38.45022414350422
 20
17.481200574310023
 30
0.0
 10
38.121182366680976
 20
17.61359647234074
 30
0.0
 10
37.8026023282179
 20
17.726525973640637
 30
0.0
 10
37.42906129707383
 20
17.841572659893615
 30
0.0
 10
36.99991167283697
 20
17.954304300574567
 30
0.0
 10
36.51478170509131
 20
18.06024187675783
 30
0.0
 10
36.00938512441414
 20
18.14861385474677
 30
0.0
 10
35.71115294645054
 20
17.738132476894926
 30
0.0
 10
35.4667193766919
 20
17.29350946409521
 30
0.0
 10
35.76186813113578
 20
16.87383992385784
 30
0.0
 10
36.06428160992343
 20
16.479987231216235
 30
0.0
 10
36.34900727106402
 20
16.139679839757722
 30
0.0
 10
36.61215066069346
 20
15.850674306142183
 30
0.0
 10
36.84997711157277
 20
15.61049751202588
 30
0.0
 10
37.10987167638006
 20
15.369143042634747
 30
0.0
 10
37.18390839077504
 20
15.273266124190652
 30
0.0
 10
37.20437392720407
 20
15.20024641054331
 30
0.0
 10
36.65129193364078
 20
14.194193999059783
 30
0.0
 10
36.5786733675034
 20
14.17234770384055
 30
0.0
 10
36.45805095246571
 20
14.183485547397698
 30
0.0
 10
36.11501016232191
 20
14.273597594360698
 30
0.0
 10
35.78478840305463
 20
14.345707946442829
 30
0.0
 10
35.39977368131348
 20
14.413030349909693
 30
0.0
 10
34.95987900899296
 20
14.471086357844053
 30
0.0
 10
34.46529693696526
 20
14.515385677040577
 30
0.0
 10
33.95280961352353
 20
14.539717827899041
 30
0.0
 10
33.70837604376489
 20
14.095094815099278
 30
0.0
 10
33.521595945623886
 20
13.623342137868399
 30
0.0
 10
33.867015904488696
 20
13.24397376508196
 30
0.0
 10
34.21640759418635
 20
12.891129177729818
 30
0.0
 10
34.54153993422275
 20
12.58919079948733
 30
0.0
 10
34.838830357673864
 20
12.33544477273945
 30
0.0
 10
35.10488361018638
 20
12.126969402497913
 30
0.0
 10
35.3929785648074
 20
11.920091511380098
 30
0.0
 10
35.47844804180846
 20
11.834249871892586
 30
0.0
 10
35.507903998195346
 20
11.76437095235456
 30
0.0
 10
35.08527502321529
 20
10.696932009949393
 30
0.0
 10
35.01596714298324
 20
10.666156459582336
 30
0.0
 10
34.89489992976834
 20
10.662088480599312
 30
0.0
 10
34.54327008448717
 20
10.708495555683669
 30
0.0
 10
34.20661439882426
 20
10.738649535219045
 30
0.0
 10
33.81619789864454
 20
10.75718594138067
 30
0.0
 10
33.37249558000319
 20
10.759650738642337
 30
0.0
 10
32.87626125841833
 20
10.741613174125266
 30
0.0
 10
32.36476542344784
 20
10.701521765298878
 30
0.0
 10
32.17798532530684
 20
10.229769088068029
 30
0.0
 10
32.05180433250832
 20
9.7383265679373
 30
0.0
 10
32.4420480166987
 20
9.40524222846435
 30
0.0
 10
32.83290780164336
 20
9.098970316323355
 30
0.0
 10
33.19331928934854
 20
8.840162699891023
 30
0.0
 10
33.52006829905079
 20
8.62567790643314
 30
0.0
 10
33.81015253447188
 20
8.452191741192227
 30
0.0
 10
34.121904449372686
 20
8.283053016273522
 30
0.0
 10
34.21745878427053
 20
8.208600429676615
 30
0.0
 10
34.25544062258692
 20
8.142964336552666
 30
0.0
 10
33.96992977759183
 20
7.0309730130047
 30
0.0
 10
33.9050256099389
 20
6.991753556303532
 30
0.0
 10
33.785422900821246
 20
6.972543909238995
 30
0.0
 10
33.43074941311627
 20
6.974514145148381
 30
0.0
 10
33.09296906232898
 20
6.962236205866628
 30
0.0
 10
32.703307885142046
 20
6.9316942845247285
 30
0.0
 10
32.26279537079975
 20
6.878528999788485
 30
0.0
 10
31.772734711345148
 20
6.798439014725376
 30
0.0
 10
31.270296959716173
 20
6.694556311680777
 30
0.0
 10
31.144115966917468
 20
6.203113791550101
 30
0.0
 10
31.080524029094388
 20
5.699731770635592
 30
0.0
 10
31.50943706259075
 20
5.418184403484465
 30
0.0
 10
31.93560085048551
 20
5.163315257567046
 30
0.0
 10
32.32560758139897
 20
4.951719953660183
 30
0.0
 10
32.67666215027898
 20
4.779878946812137
 30
0.0
 10
32.98620256692813
 20
4.644117967033308
 30
0.0
 10
33.31669492817916
 20
4.515385827044257
 30
0.0
 10
33.42082717203105
 20
4.45349645510441
 30
0.0
 10
33.466735895997445
 20
4.393138308792203
 30
0.0
 10
33.32284585756881
 20
3.2541313715452107
 30
0.0
 10
33.26336897999076
 20
3.207086522770675
 30
0.0
 10
33.147116981140314
 20
3.173038155234118
 30
0.0
 10
32.79499326378432
 20
3.130540480171285
 30
0.0
 10
32.46141524578479
 20
3.0760242525093533
 30
0.0
 10
32.07865458112717
 20
2.996885668008352
 30
0.0
 10
31.64827901658453
 20
2.888928749573894
 30
0.0
 10
31.17212056860783
 20
2.7480494108726234
 30
0.0
 10
30.686664643805265
 20
2.5820137058933526
 30
0.0
  0
LWPOLYLINE
  8
OpenJsCad
  90
31
  70
1
 10
62.98967768521997
 20
2.4079064169941455
 30
0.0
 10
63.50500093793485
 20
2.495066821070679
 30
0.0
 10
64.02718480816417
 20
2.473180832407471
 30
0.0
 10
64.53340735506268
 20
2.343204973729729
 30
0.0
 10
65.00154422420563
 20
2.1108198137550374
 30
0.0
 10
65.41113558804155
 20
1.786181699082009
 30
0.0
 10
65.74428033853339
 20
1.3834788731083607
 30
0.0
 10
65.98641845147876
 20
0.9203113817116945
 30
0.0
 10
66.1269673294344
 20
0.41692186679025456
 30
0.0
 10
66.15978431200529
 20
-0.10468913432300087
 30
0.0
 10
66.0834351395797
 20
-0.6217247179121372
 30
0.0
 10
65.90125663735667
 20
-1.1115879479623199
 30
0.0
 10
65.62121088007274
 20
-1.5528694506957763
 30
0.0
 10
65.25553721112986
 20
-1.9262831069394737
 30
0.0
 10
64.82021732455779
 20
-2.2155089480780368
 30
0.0
 10
64.3342767882963
 20
-2.4079064169941455
 30
0.0
 10
63.818953535581414
 20
-2.495066821070679
 30
0.0
 10
63.2967696653521
 20
-2.473180832407471
 30
0.0
 10
62.790547118453595
 20
-2.343204973729729
 30
0.0
 10
62.32241024931064
 20
-2.1108198137550374
 30
0.0
 10
61.91281888547472
 20
-1.7861816990820079
 30
0.0
 10
61.57967413498289
 20
-1.38347887310836
 30
0.0
 10
61.337536022037504
 20
-0.9203113817116948
 30
0.0
 10
61.196987144081874
 20
-0.4169218667902554
 30
0.0
 10
61.16417016151099
 20
0.10468913432299892
 30
0.0
 10
61.240519333936554
 20
0.621724717912137
 30
0.0
 10
61.4226978361596
 20
1.1115879479623187
 30
0.0
 10
61.702743593443536
 20
1.5528694506957759
 30
0.0
 10
62.06841726238641
 20
1.926283106939473
 30
0.0
 10
62.50373714895848
 20
2.2155089480780368
 30
0.0
 10
62.98967768521997
 20
2.4079064169941455
 30
0.0
  0
ENDSEC
  0
EOF
