<?xml version="1.0" standalone="no"?>
<!DOCTYPE svg PUBLIC "-//W3C//DTD SVG 1.1//EN" "http://www.w3.org/Graphics/SVG/1.1/DTD/svg11.dtd">
<svg width="131" height="68" viewBox="-34 -34 131 68" xmlns="http://www.w3.org/2000/svg" version="1.1">
<title>OpenSCAD Model</title>
<path d="
M 64.168,33.0723 L 64.3643,32.5986 L 64.5352,32.1318 L 64.6699,31.709 L 64.7725,31.332 L 64.8486,31.0029
 L 64.9131,30.6543 L 64.9541,30.54 L 65.0049,30.4834 L 66.1504,30.4111 L 66.208,30.4609 L 66.2627,30.5693
 L 66.3711,30.9072 L 66.4873,31.2246 L 66.6367,31.5859 L 66.8232,31.9883 L 67.0508,32.4297 L 67.3047,32.875
 L 67.8115,32.8428 L 68.3096,32.748 L 68.4443,32.2529 L 68.5557,31.7695 L 68.6357,31.333 L 68.6914,30.9463
 L 68.7246,30.6094 L 68.7451,30.2559 L 68.7715,30.1377 L 68.8145,30.0752 L 69.9424,29.8594 L 70.0059,29.9014
 L 70.0742,30.002 L 70.2227,30.3232 L 70.3779,30.624 L 70.5713,30.9639 L 70.8076,31.3398 L 71.0879,31.749
 L 71.3965,32.1592 L 71.8945,32.0645 L 72.377,31.9072 L 72.4492,31.3994 L 72.498,30.9053 L 72.5234,30.4619
 L 72.5303,30.0713 L 72.5205,29.7334 L 72.4971,29.3799 L 72.5088,29.2588 L 72.543,29.1924 L 73.6357,28.8369
 L 73.7031,28.8711 L 73.7832,28.9619 L 73.9717,29.2617 L 74.1631,29.541 L 74.3975,29.8535 L 74.6787,30.1973
 L 75.0088,30.5674 L 75.3662,30.9365 L 75.8486,30.7793 L 76.3076,30.5635 L 76.3154,30.0508 L 76.3027,29.5537
 L 76.2715,29.1113 L 76.2285,28.7227 L 76.1777,28.3887 L 76.1094,28.041 L 76.1055,27.9199 L 76.1318,27.8486
 L 77.1709,27.3594 L 77.2422,27.3848 L 77.334,27.4648 L 77.5586,27.7393 L 77.7832,27.9922 L 78.0547,28.2725
 L 78.377,28.5781 L 78.751,28.9043 L 79.1514,29.2256 L 79.6104,29.0098 L 80.0381,28.7373 L 79.9824,28.2275
 L 79.9062,27.7363 L 79.8213,27.3018 L 79.7295,26.9219 L 79.6367,26.5967 L 79.5254,26.2598 L 79.5068,26.1396
 L 79.5244,26.0664 L 80.4932,25.4512 L 80.5674,25.4668 L 80.668,25.5352 L 80.9248,25.7793 L 81.1797,26.001
 L 81.4844,26.2461 L 81.8428,26.5088 L 82.2539,26.7852 L 82.6914,27.0537 L 83.1201,26.7822 L 83.5107,26.458
 L 83.3916,25.96 L 83.2549,25.4824 L 83.1152,25.0605 L 82.9775,24.6953 L 82.8447,24.3848 L 82.6914,24.0645
 L 82.6582,23.9482 L 82.666,23.8721 L 83.5508,23.1406 L 83.626,23.1475 L 83.7344,23.2021 L 84.0205,23.4121
 L 84.3008,23.6006 L 84.6338,23.8047 L 85.0215,24.0205 L 85.4648,24.2441 L 85.9326,24.4551 L 86.3232,24.1318
 L 86.6709,23.7617 L 86.4893,23.2822 L 86.2939,22.8252 L 86.1035,22.4248 L 85.9199,22.0801 L 85.749,21.7881
 L 85.5576,21.4893 L 85.5098,21.3779 L 85.5078,21.3027 L 86.2939,20.4658 L 86.3701,20.4629 L 86.4844,20.5029
 L 86.7939,20.6758 L 87.0957,20.8281 L 87.4521,20.9883 L 87.8633,21.1543 L 88.332,21.3203 L 88.8223,21.4717
 L 89.1689,21.1016 L 89.4678,20.6914 L 89.2275,20.2373 L 88.9766,19.8086 L 88.7363,19.4355 L 88.5117,19.1162
 L 88.3057,18.8477 L 88.0781,18.5762 L 88.0166,18.4717 L 88.0059,18.3965 L 88.6807,17.4678 L 88.7559,17.4551
 L 88.874,17.4814 L 89.2031,17.6133 L 89.5215,17.7266 L 89.8945,17.8418 L 90.3242,17.9541 L 90.8096,18.0605
 L 91.3145,18.1484 L 91.6133,17.7383 L 91.8574,17.2939 L 91.5625,16.874 L 91.2598,16.4805 L 90.9746,16.1396
 L 90.7119,15.8506 L 90.4736,15.6104 L 90.2139,15.3691 L 90.1396,15.2734 L 90.1191,15.2002 L 90.6729,14.1943
 L 90.7451,14.1719 L 90.8662,14.1836 L 91.209,14.2734 L 91.5391,14.3457 L 91.9238,14.4131 L 92.3643,14.4707
 L 92.8584,14.5156 L 93.3711,14.54 L 93.6152,14.0947 L 93.8027,13.623 L 93.457,13.2441 L 93.1074,12.8916
 L 92.7822,12.5889 L 92.4854,12.335 L 92.2188,12.127 L 91.9307,11.9199 L 91.8457,11.834 L 91.8164,11.7646
 L 92.2383,10.6973 L 92.3076,10.666 L 92.4287,10.6621 L 92.7803,10.708 L 93.1172,10.7383 L 93.5078,10.7568
 L 93.9512,10.7598 L 94.4473,10.7412 L 94.959,10.7012 L 95.1455,10.2295 L 95.2725,9.73828 L 94.8818,9.40527
 L 94.4912,9.09863 L 94.1309,8.83984 L 93.8037,8.62598 L 93.5137,8.45215 L 93.2021,8.2832 L 93.1064,8.20898
 L 93.0684,8.14258 L 93.3545,7.03125 L 93.4189,6.99219 L 93.5381,6.97266 L 93.8936,6.97461 L 94.2314,6.96191
 L 94.6211,6.93164 L 95.0615,6.87891 L 95.5508,6.79883 L 96.0537,6.69434 L 96.1797,6.20312 L 96.2432,5.7002
 L 95.8145,5.41797 L 95.3887,5.16309 L 94.998,4.95215 L 94.6475,4.78027 L 94.3379,4.64453 L 94.0068,4.51562
 L 93.9033,4.45312 L 93.8574,4.39355 L 94.001,3.25391 L 94.0605,3.20703 L 94.1768,3.17285 L 94.5293,3.13086
 L 94.8623,3.07617 L 95.2451,2.99707 L 95.6758,2.88867 L 96.1514,2.74805 L 96.6377,2.58203 L 96.7012,2.0791
 L 96.7012,1.57129 L 96.2402,1.3457 L 95.7852,1.14648 L 95.3721,0.985352 L 95.002,0.858398 L 94.6777,0.762695
 L 94.334,0.676758 L 94.2227,0.62793 L 94.1699,0.574219 L 94.1699,-0.574219 L 94.2227,-0.62793 L 94.334,-0.676758
 L 94.6777,-0.762695 L 95.002,-0.858398 L 95.3721,-0.985352 L 95.7852,-1.14648 L 96.2402,-1.3457 L 96.7012,-1.57129
 L 96.7012,-2.0791 L 96.6377,-2.58203 L 96.1514,-2.74805 L 95.6758,-2.88867 L 95.2451,-2.99707 L 94.8623,-3.07617
 L 94.5293,-3.13086 L 94.1768,-3.17285 L 94.0605,-3.20703 L 94.001,-3.25391 L 93.8574,-4.39355 L 93.9033,-4.45312
 L 94.0068,-4.51562 L 94.3379,-4.64453 L 94.6475,-4.78027 L 94.998,-4.95215 L 95.3887,-5.16309 L 95.8145,-5.41797
 L 96.2432,-5.7002 L 96.1797,-6.20312 L 96.0537,-6.69434 L 95.5508,-6.79883 L 95.0615,-6.87891 L 94.6211,-6.93164
 L 94.2314,-6.96191 L 93.8936,-6.97461 L 93.5381,-6.97266 L 93.4189,-6.99219 L 93.3545,-7.03125 L 93.0684,-8.14258
 L 93.1064,-8.20898 L 93.2021,-8.2832 L 93.5137,-8.45215 L 93.8037,-8.62598 L 94.1309,-8.83984 L 94.4912,-9.09863
 L 94.8818,-9.40527 L 95.2725,-9.73828 L 95.1455,-10.2295 L 94.959,-10.7012 L 94.4473,-10.7412 L 93.9512,-10.7598
 L 93.5078,-10.7568 L 93.1172,-10.7383 L 92.7803,-10.708 L 92.4287,-10.6621 L 92.3076,-10.666 L 92.2383,-10.6973
 L 91.8164,-11.7646 L 91.8457,-11.834 L 91.9307,-11.9199 L 92.2188,-12.127 L 92.4854,-12.335 L 92.7822,-12.5889
 L 93.1074,-12.8916 L 93.457,-13.2441 L 93.8027,-13.623 L 93.6152,-14.0947 L 93.3711,-14.54 L 92.8584,-14.5156
 L 92.3643,-14.4707 L 91.9238,-14.4131 L 91.5391,-14.3457 L 91.209,-14.2734 L 90.8662,-14.1836 L 90.7451,-14.1719
 L 90.6729,-14.1943 L 90.1191,-15.2002 L 90.1396,-15.2734 L 90.2139,-15.3691 L 90.4736,-15.6104 L 90.7119,-15.8506
 L 90.9746,-16.1396 L 91.2598,-16.4805 L 91.5625,-16.874 L 91.8574,-17.2939 L 91.6133,-17.7383 L 91.3145,-18.1484
 L 90.8096,-18.0605 L 90.3242,-17.9541 L 89.8945,-17.8418 L 89.5215,-17.7266 L 89.2031,-17.6133 L 88.874,-17.4814
 L 88.7559,-17.4551 L 88.6807,-17.4678 L 88.0059,-18.3965 L 88.0166,-18.4717 L 88.0781,-18.5762 L 88.3057,-18.8477
 L 88.5117,-19.1162 L 88.7363,-19.4355 L 88.9766,-19.8086 L 89.2275,-20.2373 L 89.4678,-20.6914 L 89.1689,-21.1016
 L 88.8223,-21.4717 L 88.332,-21.3203 L 87.8633,-21.1543 L 87.4521,-20.9883 L 87.0957,-20.8281 L 86.7939,-20.6758
 L 86.4844,-20.5029 L 86.3701,-20.4629 L 86.2939,-20.4658 L 85.5078,-21.3027 L 85.5098,-21.3779 L 85.5576,-21.4893
 L 85.749,-21.7881 L 85.9199,-22.0801 L 86.1035,-22.4248 L 86.2939,-22.8252 L 86.4893,-23.2822 L 86.6709,-23.7617
 L 86.3232,-24.1318 L 85.9326,-24.4551 L 85.4648,-24.2441 L 85.0215,-24.0205 L 84.6338,-23.8047 L 84.3008,-23.6006
 L 84.0205,-23.4121 L 83.7344,-23.2021 L 83.626,-23.1475 L 83.5508,-23.1406 L 82.666,-23.8721 L 82.6582,-23.9482
 L 82.6914,-24.0645 L 82.8447,-24.3848 L 82.9775,-24.6953 L 83.1152,-25.0605 L 83.2549,-25.4824 L 83.3916,-25.96
 L 83.5107,-26.458 L 83.1201,-26.7822 L 82.6914,-27.0537 L 82.2539,-26.7852 L 81.8428,-26.5088 L 81.4844,-26.2461
 L 81.1797,-26.001 L 80.9248,-25.7793 L 80.668,-25.5352 L 80.5674,-25.4668 L 80.4932,-25.4512 L 79.5244,-26.0664
 L 79.5068,-26.1396 L 79.5254,-26.2598 L 79.6367,-26.5967 L 79.7295,-26.9219 L 79.8213,-27.3018 L 79.9062,-27.7363
 L 79.9824,-28.2275 L 80.0381,-28.7373 L 79.6104,-29.0098 L 79.1514,-29.2256 L 78.751,-28.9043 L 78.377,-28.5781
 L 78.0547,-28.2725 L 77.7832,-27.9922 L 77.5586,-27.7393 L 77.334,-27.4648 L 77.2422,-27.3848 L 77.1709,-27.3594
 L 76.1318,-27.8486 L 76.1055,-27.9199 L 76.1094,-28.041 L 76.1777,-28.3887 L 76.2285,-28.7227 L 76.2715,-29.1113
 L 76.3027,-29.5537 L 76.3154,-30.0508 L 76.3076,-30.5635 L 75.8486,-30.7793 L 75.3662,-30.9365 L 75.0088,-30.5674
 L 74.6787,-30.1973 L 74.3975,-29.8535 L 74.1631,-29.541 L 73.9717,-29.2617 L 73.7832,-28.9619 L 73.7031,-28.8711
 L 73.6357,-28.8369 L 72.543,-29.1924 L 72.5088,-29.2588 L 72.4971,-29.3799 L 72.5205,-29.7334 L 72.5303,-30.0713
 L 72.5234,-30.4619 L 72.498,-30.9053 L 72.4492,-31.3994 L 72.377,-31.9072 L 71.8945,-32.0645 L 71.3965,-32.1592
 L 71.0879,-31.749 L 70.8076,-31.3398 L 70.5713,-30.9639 L 70.3779,-30.624 L 70.2227,-30.3232 L 70.0742,-30.002
 L 70.0059,-29.9014 L 69.9424,-29.8594 L 68.8145,-30.0752 L 68.7715,-30.1377 L 68.7451,-30.2559 L 68.7246,-30.6094
 L 68.6914,-30.9463 L 68.6357,-31.333 L 68.5557,-31.7695 L 68.4443,-32.2529 L 68.3096,-32.748 L 67.8115,-32.8428
 L 67.3047,-32.875 L 67.0508,-32.4297 L 66.8232,-31.9883 L 66.6367,-31.5859 L 66.4873,-31.2246 L 66.3711,-30.9072
 L 66.2627,-30.5693 L 66.208,-30.4609 L 66.1504,-30.4111 L 65.0049,-30.4834 L 64.9541,-30.54 L 64.9131,-30.6543
 L 64.8486,-31.0029 L 64.7725,-31.332 L 64.6699,-31.709 L 64.5352,-32.1318 L 64.3643,-32.5986 L 64.168,-33.0723
 L 63.6621,-33.1045 L 63.1553,-33.0723 L 62.959,-32.5986 L 62.7891,-32.1318 L 62.6543,-31.709 L 62.5508,-31.332
 L 62.4756,-31.0029 L 62.4111,-30.6543 L 62.3701,-30.54 L 62.3193,-30.4834 L 61.1738,-30.4111 L 61.1162,-30.4609
 L 61.0605,-30.5693 L 60.9531,-30.9072 L 60.8369,-31.2246 L 60.6875,-31.5859 L 60.501,-31.9883 L 60.2734,-32.4297
 L 60.0195,-32.875 L 59.5127,-32.8428 L 59.0146,-32.748 L 58.8789,-32.2529 L 58.7686,-31.7695 L 58.6875,-31.333
 L 58.6328,-30.9463 L 58.5996,-30.6094 L 58.5791,-30.2559 L 58.5527,-30.1377 L 58.5088,-30.0752 L 57.3818,-29.8594
 L 57.3184,-29.9014 L 57.25,-30.002 L 57.1006,-30.3232 L 56.9463,-30.624 L 56.752,-30.9639 L 56.5166,-31.3398
 L 56.2354,-31.749 L 55.9277,-32.1592 L 55.4297,-32.0645 L 54.9463,-31.9072 L 54.875,-31.3994 L 54.8252,-30.9053
 L 54.7998,-30.4619 L 54.7939,-30.0713 L 54.8027,-29.7334 L 54.8271,-29.3799 L 54.8154,-29.2588 L 54.7803,-29.1924
 L 53.6885,-28.8369 L 53.6211,-28.8711 L 53.54,-28.9619 L 53.3525,-29.2617 L 53.1611,-29.541 L 52.9258,-29.8535
 L 52.6455,-30.1973 L 52.3154,-30.5674 L 51.958,-30.9365 L 51.4756,-30.7793 L 51.0166,-30.5635 L 51.0088,-30.0508
 L 51.0215,-29.5537 L 51.0518,-29.1113 L 51.0947,-28.7227 L 51.1465,-28.3887 L 51.2148,-28.041 L 51.2178,-27.9199
 L 51.1914,-27.8486 L 50.1533,-27.3594 L 50.0811,-27.3848 L 49.9902,-27.4648 L 49.7656,-27.7393 L 49.541,-27.9922
 L 49.2695,-28.2725 L 48.9473,-28.5781 L 48.5732,-28.9043 L 48.1729,-29.2256 L 47.7139,-29.0098 L 47.2852,-28.7373
 L 47.3418,-28.2275 L 47.417,-27.7363 L 47.5029,-27.3018 L 47.5938,-26.9219 L 47.6865,-26.5967 L 47.7979,-26.2598
 L 47.8174,-26.1396 L 47.7998,-26.0664 L 46.8301,-25.4512 L 46.7559,-25.4668 L 46.6562,-25.5352 L 46.3984,-25.7793
 L 46.1445,-26.001 L 45.8389,-26.2461 L 45.4814,-26.5088 L 45.0693,-26.7852 L 44.6318,-27.0537 L 44.2041,-26.7822
 L 43.8125,-26.458 L 43.9326,-25.96 L 44.0693,-25.4824 L 44.208,-25.0605 L 44.3467,-24.6953 L 44.4795,-24.3848
 L 44.6318,-24.0645 L 44.666,-23.9482 L 44.6582,-23.8721 L 43.7734,-23.1406 L 43.6973,-23.1475 L 43.5898,-23.2021
 L 43.3037,-23.4121 L 43.0234,-23.6006 L 42.6904,-23.8047 L 42.3027,-24.0205 L 41.8594,-24.2441 L 41.3916,-24.4551
 L 41.001,-24.1318 L 40.6533,-23.7617 L 40.835,-23.2822 L 41.0293,-22.8252 L 41.2207,-22.4248 L 41.4043,-22.0801
 L 41.5742,-21.7881 L 41.7666,-21.4893 L 41.8145,-21.3779 L 41.8154,-21.3027 L 41.0303,-20.4658 L 40.9541,-20.4629
 L 40.8398,-20.5029 L 40.5303,-20.6758 L 40.2285,-20.8281 L 39.8721,-20.9883 L 39.46,-21.1543 L 38.9922,-21.3203
 L 38.502,-21.4717 L 38.1543,-21.1016 L 37.8564,-20.6914 L 38.0967,-20.2373 L 38.3477,-19.8086 L 38.5869,-19.4355
 L 38.8125,-19.1162 L 39.0176,-18.8477 L 39.2451,-18.5762 L 39.3066,-18.4717 L 39.3184,-18.3965 L 38.6436,-17.4678
 L 38.5684,-17.4551 L 38.4502,-17.4814 L 38.1211,-17.6133 L 37.8027,-17.7266 L 37.4287,-17.8418 L 37,-17.9541
 L 36.5146,-18.0605 L 36.0098,-18.1484 L 35.7109,-17.7383 L 35.4668,-17.2939 L 35.7617,-16.874 L 36.0645,-16.4805
 L 36.3486,-16.1396 L 36.6123,-15.8506 L 36.8496,-15.6104 L 37.1104,-15.3691 L 37.1836,-15.2734 L 37.2041,-15.2002
 L 36.6514,-14.1943 L 36.5791,-14.1719 L 36.458,-14.1836 L 36.1152,-14.2734 L 35.7852,-14.3457 L 35.3994,-14.4131
 L 34.96,-14.4707 L 34.4648,-14.5156 L 33.9531,-14.54 L 33.708,-14.0947 L 33.5215,-13.623 L 33.8672,-13.2441
 L 34.2168,-12.8916 L 34.542,-12.5889 L 34.8389,-12.335 L 35.1045,-12.127 L 35.3926,-11.9199 L 35.4785,-11.834
 L 35.5078,-11.7646 L 35.085,-10.6973 L 35.0156,-10.666 L 34.8945,-10.6621 L 34.543,-10.708 L 34.207,-10.7383
 L 33.8164,-10.7568 L 33.3721,-10.7598 L 32.876,-10.7412 L 32.3652,-10.7012 L 32.1777,-10.2295 L 32.0518,-9.73828
 L 32.4424,-9.40527 L 32.833,-9.09863 L 33.1934,-8.83984 L 33.5205,-8.62598 L 33.8105,-8.45215 L 34.1221,-8.2832
 L 34.2178,-8.20898 L 34.2559,-8.14258 L 33.9697,-7.03125 L 33.9053,-6.99219 L 33.7852,-6.97266 L 33.4307,-6.97461
 L 33.0928,-6.96191 L 32.7031,-6.93164 L 32.2627,-6.87891 L 31.7725,-6.79883 L 31.2705,-6.69434 L 31.1445,-6.20312
 L 31.0801,-5.7002 L 31.5098,-5.41797 L 31.9355,-5.16309 L 32.3252,-4.95215 L 32.6768,-4.78027 L 32.9863,-4.64453
 L 33.3164,-4.51562 L 33.4209,-4.45312 L 33.4668,-4.39355 L 33.3232,-3.25391 L 33.2637,-3.20703 L 33.1475,-3.17285
 L 32.7949,-3.13086 L 32.4609,-3.07617 L 32.0791,-2.99707 L 31.6484,-2.88867 L 31.1719,-2.74805 L 30.6865,-2.58203
 L 30.623,-2.0791 L 30.623,-1.57129 L 31.084,-1.3457 L 31.5391,-1.14648 L 31.9521,-0.985352 L 32.3223,-0.858398
 L 32.6465,-0.762695 L 32.9902,-0.676758 L 33.1016,-0.62793 L 33.1543,-0.574219 L 33.1543,0.574219 L 33.1016,0.62793
 L 32.9902,0.676758 L 32.6465,0.762695 L 32.3223,0.858398 L 31.9521,0.985352 L 31.5391,1.14648 L 31.084,1.3457
 L 30.623,1.57129 L 30.623,2.0791 L 30.6865,2.58203 L 31.1719,2.74805 L 31.6484,2.88867 L 32.0791,2.99707
 L 32.4609,3.07617 L 32.7949,3.13086 L 33.1475,3.17285 L 33.2637,3.20703 L 33.3232,3.25391 L 33.4668,4.39355
 L 33.4209,4.45312 L 33.3164,4.51562 L 32.9863,4.64453 L 32.6768,4.78027 L 32.3252,4.95215 L 31.9355,5.16309
 L 31.5098,5.41797 L 31.0801,5.7002 L 31.1445,6.20312 L 31.2705,6.69434 L 31.7725,6.79883 L 32.2627,6.87891
 L 32.7031,6.93164 L 33.0928,6.96191 L 33.4307,6.97461 L 33.7852,6.97266 L 33.9053,6.99219 L 33.9697,7.03125
 L 34.2559,8.14258 L 34.2178,8.20898 L 34.1221,8.2832 L 33.8105,8.45215 L 33.5205,8.62598 L 33.1934,8.83984
 L 32.833,9.09863 L 32.4424,9.40527 L 32.0518,9.73828 L 32.1777,10.2295 L 32.3652,10.7012 L 32.876,10.7412
 L 33.3721,10.7598 L 33.8164,10.7568 L 34.207,10.7383 L 34.543,10.708 L 34.8945,10.6621 L 35.0156,10.666
 L 35.085,10.6973 L 35.5078,11.7646 L 35.4785,11.834 L 35.3926,11.9199 L 35.1045,12.127 L 34.8389,12.335
 L 34.542,12.5889 L 34.2168,12.8916 L 33.8672,13.2441 L 33.5215,13.623 L 33.708,14.0947 L 33.9531,14.54
 L 34.4648,14.5156 L 34.96,14.4707 L 35.3994,14.4131 L 35.7852,14.3457 L 36.1152,14.2734 L 36.458,14.1836
 L 36.5791,14.1719 L 36.6514,14.1943 L 37.2041,15.2002 L 37.1836,15.2734 L 37.1104,15.3691 L 36.8496,15.6104
 L 36.6123,15.8506 L 36.3486,16.1396 L 36.0645,16.4805 L 35.7617,16.874 L 35.4668,17.2939 L 35.7109,17.7383
 L 36.0098,18.1484 L 36.5146,18.0605 L 37,17.9541 L 37.4287,17.8418 L 37.8027,17.7266 L 38.1211,17.6133
 L 38.4502,17.4814 L 38.5684,17.4551 L 38.6436,17.4678 L 39.3184,18.3965 L 39.3066,18.4717 L 39.2451,18.5762
 L 39.0176,18.8477 L 38.8125,19.1162 L 38.5869,19.4355 L 38.3477,19.8086 L 38.0967,20.2373 L 37.8564,20.6914
 L 38.1543,21.1016 L 38.502,21.4717 L 38.9922,21.3203 L 39.46,21.1543 L 39.8721,20.9883 L 40.2285,20.8281
 L 40.5303,20.6758 L 40.8398,20.5029 L 40.9541,20.4629 L 41.0303,20.4658 L 41.8154,21.3027 L 41.8145,21.3779
 L 41.7666,21.4893 L 41.5742,21.7881 L 41.4043,22.0801 L 41.2207,22.4248 L 41.0293,22.8252 L 40.835,23.2822
 L 40.6533,23.7617 L 41.001,24.1318 L 41.3916,24.4551 L 41.8594,24.2441 L 42.3027,24.0205 L 42.6904,23.8047
 L 43.0234,23.6006 L 43.3037,23.4121 L 43.5898,23.2021 L 43.6973,23.1475 L 43.7734,23.1406 L 44.6582,23.8721
 L 44.666,23.9482 L 44.6318,24.0645 L 44.4795,24.3848 L 44.3467,24.6953 L 44.208,25.0605 L 44.0693,25.4824
 L 43.9326,25.96 L 43.8125,26.458 L 44.2041,26.7822 L 44.6318,27.0537 L 45.0693,26.7852 L 45.4814,26.5088
 L 45.8389,26.2461 L 46.1445,26.001 L 46.3984,25.7793 L 46.6562,25.5352 L 46.7559,25.4668 L 46.8301,25.4512
 L 47.7998,26.0664 L 47.8174,26.1396 L 47.7979,26.2598 L 47.6865,26.5967 L 47.5938,26.9219 L 47.5029,27.3018
 L 47.417,27.7363 L 47.3418,28.2275 L 47.2852,28.7373 L 47.7139,29.0098 L 48.1729,29.2256 L 48.5732,28.9043
 L 48.9473,28.5781 L 49.2695,28.2725 L 49.541,27.9922 L 49.7656,27.7393 L 49.9902,27.4648 L 50.0811,27.3848
 L 50.1533,27.3594 L 51.1914,27.8486 L 51.2178,27.9199 L 51.2148,28.041 L 51.1465,28.3887 L 51.0947,28.7227
 L 51.0518,29.1113 L 51.0215,29.5537 L 51.0088,30.0508 L 51.0166,30.5635 L 51.4756,30.7793 L 51.958,30.9365
 L 52.3154,30.5674 L 52.6455,30.1973 L 52.9258,29.8535 L 53.1611,29.541 L 53.3525,29.2617 L 53.54,28.9619
 L 53.6211,28.8711 L 53.6885,28.8369 L 54.7803,29.1924 L 54.8154,29.2588 L 54.8271,29.3799 L 54.8027,29.7334
 L 54.7939,30.0713 L 54.7998,30.4619 L 54.8252,30.9053 L 54.875,31.3994 L 54.9463,31.9072 L 55.4297,32.0645
 L 55.9277,32.1592 L 56.2354,31.749 L 56.5166,31.3398 L 56.752,30.9639 L 56.9463,30.624 L 57.1006,30.3232
 L 57.25,30.002 L 57.3184,29.9014 L 57.3818,29.8594 L 58.5088,30.0752 L 58.5527,30.1377 L 58.5791,30.2559
 L 58.5996,30.6094 L 58.6328,30.9463 L 58.6875,31.333 L 58.7686,31.7695 L 58.8789,32.2529 L 59.0146,32.748
 L 59.5127,32.8428 L 60.0195,32.875 L 60.2734,32.4297 L 60.501,31.9883 L 60.6875,31.5859 L 60.8369,31.2246
 L 60.9531,30.9072 L 61.0605,30.5693 L 61.1162,30.4609 L 61.1738,30.4111 L 62.3193,30.4834 L 62.3701,30.54
 L 62.4111,30.6543 L 62.4756,31.0029 L 62.5508,31.332 L 62.6543,31.709 L 62.7891,32.1318 L 62.959,32.5986
 L 63.1553,33.0723 L 63.6621,33.1045 z
M 63.2969,2.47363 L 62.791,2.34277 L 62.3223,2.11035 L 61.9131,1.78613 L 61.5801,1.38379 L 61.3379,0.919922
 L 61.1973,0.416992 L 61.1641,-0.104492 L 61.2402,-0.62207 L 61.4229,-1.11133 L 61.7031,-1.55273 L 62.0684,-1.92676
 L 62.5039,-2.21582 L 62.9893,-2.4082 L 63.5049,-2.49512 L 64.0273,-2.47363 L 64.5332,-2.34277 L 65.002,-2.11035
 L 65.4111,-1.78613 L 65.7441,-1.38379 L 65.9863,-0.919922 L 66.127,-0.416992 L 66.1602,0.104492 L 66.083,0.62207
 L 65.9014,1.11133 L 65.6211,1.55273 L 65.2559,1.92676 L 64.8203,2.21582 L 64.334,2.4082 L 63.8193,2.49512
 z
M -1.3457,32.5781 L -1.14648,32.123 L -0.985352,31.71 L -0.858398,31.3398 L -0.762695,31.0156 L -0.676758,30.6719
 L -0.62793,30.5605 L -0.574219,30.5078 L 0.574219,30.5078 L 0.62793,30.5605 L 0.676758,30.6719 L 0.762695,31.0156
 L 0.858398,31.3398 L 0.985352,31.71 L 1.14648,32.123 L 1.3457,32.5781 L 1.57129,33.0391 L 2.0791,33.0391
 L 2.58203,32.9756 L 2.74805,32.4902 L 2.88867,32.0137 L 2.99707,31.583 L 3.07617,31.2002 L 3.13086,30.8672
 L 3.17285,30.5146 L 3.20703,30.3984 L 3.25391,30.3389 L 4.39355,30.1953 L 4.45312,30.2412 L 4.51562,30.3457
 L 4.64453,30.6758 L 4.78027,30.9854 L 4.95215,31.3359 L 5.16309,31.7266 L 5.41797,32.1523 L 5.7002,32.5811
 L 6.20312,32.5176 L 6.69434,32.3916 L 6.79883,31.8896 L 6.87891,31.3994 L 6.93164,30.959 L 6.96191,30.5693
 L 6.97461,30.2314 L 6.97266,29.877 L 6.99219,29.7568 L 7.03125,29.6924 L 8.14258,29.4062 L 8.20898,29.4443
 L 8.2832,29.54 L 8.45215,29.8516 L 8.62598,30.1416 L 8.83984,30.4688 L 9.09863,30.8291 L 9.40527,31.2197
 L 9.73828,31.6104 L 10.2295,31.4844 L 10.7012,31.2969 L 10.7412,30.7861 L 10.7598,30.2891 L 10.7568,29.8457
 L 10.7383,29.4551 L 10.708,29.1191 L 10.6621,28.7666 L 10.666,28.6465 L 10.6973,28.5771 L 11.7646,28.1543
 L 11.834,28.1836 L 11.9199,28.2686 L 12.127,28.5566 L 12.335,28.8232 L 12.5889,29.1201 L 12.8916,29.4453
 L 13.2441,29.7949 L 13.623,30.1406 L 14.0947,29.9531 L 14.54,29.709 L 14.5156,29.1963 L 14.4707,28.7021
 L 14.4131,28.2617 L 14.3457,27.877 L 14.2734,27.5469 L 14.1836,27.2041 L 14.1719,27.083 L 14.1943,27.0107
 L 15.2002,26.458 L 15.2734,26.4785 L 15.3691,26.5518 L 15.6104,26.8115 L 15.8506,27.0498 L 16.1396,27.3125
 L 16.4805,27.5977 L 16.874,27.9004 L 17.2939,28.1953 L 17.7383,27.9512 L 18.1484,27.6523 L 18.0605,27.1475
 L 17.9541,26.6621 L 17.8418,26.2334 L 17.7266,25.8594 L 17.6133,25.541 L 17.4814,25.2119 L 17.4551,25.0938
 L 17.4678,25.0186 L 18.3965,24.3438 L 18.4717,24.3555 L 18.5762,24.416 L 18.8477,24.6445 L 19.1162,24.8496
 L 19.4355,25.0752 L 19.8086,25.3145 L 20.2373,25.5654 L 20.6914,25.8057 L 21.1016,25.5068 L 21.4717,25.1602
 L 21.3203,24.6699 L 21.1543,24.2012 L 20.9883,23.79 L 20.8281,23.4336 L 20.6758,23.1318 L 20.5029,22.8223
 L 20.4629,22.708 L 20.4658,22.6318 L 21.3027,21.8467 L 21.3779,21.8477 L 21.4893,21.8955 L 21.7881,22.0879
 L 22.0801,22.2578 L 22.4248,22.4414 L 22.8252,22.6318 L 23.2822,22.8271 L 23.7617,23.0088 L 24.1318,22.6611
 L 24.4551,22.2705 L 24.2441,21.8027 L 24.0205,21.3594 L 23.8047,20.9717 L 23.6006,20.6387 L 23.4121,20.3584
 L 23.2021,20.0723 L 23.1475,19.9639 L 23.1406,19.8887 L 23.8721,19.0039 L 23.9482,18.9961 L 24.0645,19.0293
 L 24.3848,19.1826 L 24.6953,19.3154 L 25.0605,19.4531 L 25.4824,19.5928 L 25.96,19.7295 L 26.458,19.8496
 L 26.7822,19.458 L 27.0537,19.0293 L 26.7852,18.5928 L 26.5088,18.1807 L 26.2461,17.8232 L 26.001,17.5176
 L 25.7793,17.2637 L 25.5352,17.0059 L 25.4668,16.9053 L 25.4512,16.8311 L 26.0664,15.8623 L 26.1396,15.8447
 L 26.2598,15.8633 L 26.5967,15.9756 L 26.9219,16.0674 L 27.3018,16.1592 L 27.7363,16.2451 L 28.2275,16.3203
 L 28.7373,16.377 L 29.0098,15.9482 L 29.2256,15.4893 L 28.9043,15.0889 L 28.5781,14.7148 L 28.2725,14.3926
 L 27.9922,14.1211 L 27.7393,13.8965 L 27.4648,13.6719 L 27.3848,13.5801 L 27.3594,13.5088 L 27.8486,12.4697
 L 27.9199,12.4434 L 28.041,12.4473 L 28.3887,12.5156 L 28.7227,12.5674 L 29.1113,12.6104 L 29.5537,12.6406
 L 30.0508,12.6533 L 30.5635,12.6455 L 30.7793,12.1865 L 30.9365,11.7041 L 30.5674,11.3467 L 30.1973,11.0166
 L 29.8535,10.7363 L 29.541,10.501 L 29.2617,10.3096 L 28.9619,10.1211 L 28.8711,10.041 L 28.8369,9.97363
 L 29.1924,8.88184 L 29.2588,8.84668 L 29.3799,8.83496 L 29.7334,8.85938 L 30.0713,8.86816 L 30.4619,8.8623
 L 30.9053,8.83691 L 31.3994,8.78711 L 31.9072,8.71484 L 32.0645,8.23242 L 32.1592,7.73438 L 31.749,7.42676
 L 31.3398,7.14551 L 30.9639,6.90918 L 30.624,6.71582 L 30.3232,6.56152 L 30.002,6.41211 L 29.9014,6.34375
 L 29.8594,6.28027 L 30.0752,5.15234 L 30.1377,5.10938 L 30.2559,5.08301 L 30.6094,5.0625 L 30.9463,5.0293
 L 31.333,4.97363 L 31.7695,4.89355 L 32.2529,4.78223 L 32.748,4.64746 L 32.8428,4.14941 L 32.875,3.64258
 L 32.4297,3.38867 L 31.9883,3.16113 L 31.5859,2.97461 L 31.2246,2.8252 L 30.9072,2.70898 L 30.5693,2.60156
 L 30.4609,2.5459 L 30.4111,2.48828 L 30.4834,1.34277 L 30.54,1.29199 L 30.6543,1.25098 L 31.0029,1.18652
 L 31.332,1.11133 L 31.709,1.00781 L 32.1318,0.873047 L 32.5986,0.702148 L 33.0723,0.506836 L 33.1045,-0
 L 33.0723,-0.506836 L 32.5986,-0.702148 L 32.1318,-0.873047 L 31.709,-1.00781 L 31.332,-1.11133 L 31.0029,-1.18652
 L 30.6543,-1.25098 L 30.54,-1.29199 L 30.4834,-1.34277 L 30.4111,-2.48828 L 30.4609,-2.5459 L 30.5693,-2.60156
 L 30.9072,-2.70898 L 31.2246,-2.8252 L 31.5859,-2.97461 L 31.9883,-3.16113 L 32.4297,-3.38867 L 32.875,-3.64258
 L 32.8428,-4.14941 L 32.748,-4.64746 L 32.2529,-4.78223 L 31.7695,-4.89355 L 31.333,-4.97363 L 30.9463,-5.0293
 L 30.6094,-5.0625 L 30.2559,-5.08301 L 30.1377,-5.10938 L 30.0752,-5.15234 L 29.8594,-6.28027 L 29.9014,-6.34375
 L 30.002,-6.41211 L 30.3232,-6.56152 L 30.624,-6.71582 L 30.9639,-6.90918 L 31.3398,-7.14551 L 31.749,-7.42676
 L 32.1592,-7.73438 L 32.0645,-8.23242 L 31.9072,-8.71484 L 31.3994,-8.78711 L 30.9053,-8.83691 L 30.4619,-8.8623
 L 30.0713,-8.86816 L 29.7334,-8.85938 L 29.3799,-8.83496 L 29.2588,-8.84668 L 29.1924,-8.88184 L 28.8369,-9.97363
 L 28.8711,-10.041 L 28.9619,-10.1211 L 29.2617,-10.3096 L 29.541,-10.501 L 29.8535,-10.7363 L 30.1973,-11.0166
 L 30.5674,-11.3467 L 30.9365,-11.7041 L 30.7793,-12.1865 L 30.5635,-12.6455 L 30.0508,-12.6533 L 29.5537,-12.6406
 L 29.1113,-12.6104 L 28.7227,-12.5674 L 28.3887,-12.5156 L 28.041,-12.4473 L 27.9199,-12.4434 L 27.8486,-12.4697
 L 27.3594,-13.5088 L 27.3848,-13.5801 L 27.4648,-13.6719 L 27.7393,-13.8965 L 27.9922,-14.1211 L 28.2725,-14.3926
 L 28.5781,-14.7148 L 28.9043,-15.0889 L 29.2256,-15.4893 L 29.0098,-15.9482 L 28.7373,-16.377 L 28.2275,-16.3203
 L 27.7363,-16.2451 L 27.3018,-16.1592 L 26.9219,-16.0674 L 26.5967,-15.9756 L 26.2598,-15.8633 L 26.1396,-15.8447
 L 26.0664,-15.8623 L 25.4512,-16.8311 L 25.4668,-16.9053 L 25.5352,-17.0059 L 25.7793,-17.2637 L 26.001,-17.5176
 L 26.2461,-17.8232 L 26.5088,-18.1807 L 26.7852,-18.5928 L 27.0537,-19.0293 L 26.7822,-19.458 L 26.458,-19.8496
 L 25.96,-19.7295 L 25.4824,-19.5928 L 25.0605,-19.4531 L 24.6953,-19.3154 L 24.3848,-19.1826 L 24.0645,-19.0293
 L 23.9482,-18.9961 L 23.8721,-19.0039 L 23.1406,-19.8887 L 23.1475,-19.9639 L 23.2021,-20.0723 L 23.4121,-20.3584
 L 23.6006,-20.6387 L 23.8047,-20.9717 L 24.0205,-21.3594 L 24.2441,-21.8027 L 24.4551,-22.2705 L 24.1318,-22.6611
 L 23.7617,-23.0088 L 23.2822,-22.8271 L 22.8252,-22.6318 L 22.4248,-22.4414 L 22.0801,-22.2578 L 21.7881,-22.0879
 L 21.4893,-21.8955 L 21.3779,-21.8477 L 21.3027,-21.8467 L 20.4658,-22.6318 L 20.4629,-22.708 L 20.5029,-22.8223
 L 20.6758,-23.1318 L 20.8281,-23.4336 L 20.9883,-23.79 L 21.1543,-24.2012 L 21.3203,-24.6699 L 21.4717,-25.1602
 L 21.1016,-25.5068 L 20.6914,-25.8057 L 20.2373,-25.5654 L 19.8086,-25.3145 L 19.4355,-25.0752 L 19.1162,-24.8496
 L 18.8477,-24.6445 L 18.5762,-24.416 L 18.4717,-24.3555 L 18.3965,-24.3438 L 17.4678,-25.0186 L 17.4551,-25.0938
 L 17.4814,-25.2119 L 17.6133,-25.541 L 17.7266,-25.8594 L 17.8418,-26.2334 L 17.9541,-26.6621 L 18.0605,-27.1475
 L 18.1484,-27.6523 L 17.7383,-27.9512 L 17.2939,-28.1953 L 16.874,-27.9004 L 16.4805,-27.5977 L 16.1396,-27.3125
 L 15.8506,-27.0498 L 15.6104,-26.8115 L 15.3691,-26.5518 L 15.2734,-26.4785 L 15.2002,-26.458 L 14.1943,-27.0107
 L 14.1719,-27.083 L 14.1836,-27.2041 L 14.2734,-27.5469 L 14.3457,-27.877 L 14.4131,-28.2617 L 14.4707,-28.7021
 L 14.5156,-29.1963 L 14.54,-29.709 L 14.0947,-29.9531 L 13.623,-30.1406 L 13.2441,-29.7949 L 12.8916,-29.4453
 L 12.5889,-29.1201 L 12.335,-28.8232 L 12.127,-28.5566 L 11.9199,-28.2686 L 11.834,-28.1836 L 11.7646,-28.1543
 L 10.6973,-28.5771 L 10.666,-28.6465 L 10.6621,-28.7666 L 10.708,-29.1191 L 10.7383,-29.4551 L 10.7568,-29.8457
 L 10.7598,-30.2891 L 10.7412,-30.7861 L 10.7012,-31.2969 L 10.2295,-31.4844 L 9.73828,-31.6104 L 9.40527,-31.2197
 L 9.09863,-30.8291 L 8.83984,-30.4688 L 8.62598,-30.1416 L 8.45215,-29.8516 L 8.2832,-29.54 L 8.20898,-29.4443
 L 8.14258,-29.4062 L 7.03125,-29.6924 L 6.99219,-29.7568 L 6.97266,-29.877 L 6.97461,-30.2314 L 6.96191,-30.5693
 L 6.93164,-30.959 L 6.87891,-31.3994 L 6.79883,-31.8896 L 6.69434,-32.3916 L 6.20312,-32.5176 L 5.7002,-32.5811
 L 5.41797,-32.1523 L 5.16309,-31.7266 L 4.95215,-31.3359 L 4.78027,-30.9854 L 4.64453,-30.6758 L 4.51562,-30.3457
 L 4.45312,-30.2412 L 4.39355,-30.1953 L 3.25391,-30.3389 L 3.20703,-30.3984 L 3.17285,-30.5146 L 3.13086,-30.8672
 L 3.07617,-31.2002 L 2.99707,-31.583 L 2.88867,-32.0137 L 2.74805,-32.4902 L 2.58203,-32.9756 L 2.0791,-33.0391
 L 1.57129,-33.0391 L 1.3457,-32.5781 L 1.14648,-32.123 L 0.985352,-31.71 L 0.858398,-31.3398 L 0.762695,-31.0156
 L 0.676758,-30.6719 L 0.62793,-30.5605 L 0.574219,-30.5078 L -0.574219,-30.5078 L -0.62793,-30.5605 L -0.676758,-30.6719
 L -0.762695,-31.0156 L -0.858398,-31.3398 L -0.985352,-31.71 L -1.14648,-32.123 L -1.3457,-32.5781 L -1.57129,-33.0391
 L -2.0791,-33.0391 L -2.58203,-32.9756 L -2.74805,-32.4902 L -2.88867,-32.0137 L -2.99707,-31.583 L -3.07617,-31.2002
 L -3.13086,-30.8672 L -3.17285,-30.5146 L -3.20703,-30.3984 L -3.25391,-30.3389 L -4.39355,-30.1953 L -4.45312,-30.2412
 L -4.51562,-30.3457 L -4.64453,-30.6758 L -4.78027,-30.9854 L -4.95215,-31.3359 L -5.16309,-31.7266 L -5.41797,-32.1523
 L -5.7002,-32.5811 L -6.20312,-32.5176 L -6.69434,-32.3916 L -6.79883,-31.8896 L -6.87891,-31.3994 L -6.93164,-30.959
 L -6.96191,-30.5693 L -6.97461,-30.2314 L -6.97266,-29.877 L -6.99219,-29.7568 L -7.03125,-29.6924 L -8.14258,-29.4062
 L -8.20898,-29.4443 L -8.2832,-29.54 L -8.45215,-29.8516 L -8.62598,-30.1416 L -8.83984,-30.4688 L -9.09863,-30.8291
 L -9.40527,-31.2197 L -9.73828,-31.6104 L -10.2295,-31.4844 L -10.7012,-31.2969 L -10.7412,-30.7861 L -10.7598,-30.2891
 L -10.7568,-29.8457 L -10.7383,-29.4551 L -10.708,-29.1191 L -10.6621,-28.7666 L -10.666,-28.6465 L -10.6973,-28.5771
 L -11.7646,-28.1543 L -11.834,-28.1836 L -11.9199,-28.2686 L -12.127,-28.5566 L -12.335,-28.8232 L -12.5889,-29.1201
 L -12.8916,-29.4453 L -13.2441,-29.7949 L -13.623,-30.1406 L -14.0947,-29.9531 L -14.54,-29.709 L -14.5156,-29.1963
 L -14.4707,-28.7021 L -14.4131,-28.2617 L -14.3457,-27.877 L -14.2734,-27.5469 L -14.1836,-27.2041 L -14.1719,-27.083
 L -14.1943,-27.0107 L -15.2002,-26.458 L -15.2734,-26.4785 L -15.3691,-26.5518 L -15.6104,-26.8115 L -15.8506,-27.0498
 L -16.1396,-27.3125 L -16.4805,-27.5977 L -16.874,-27.9004 L -17.2939,-28.1953 L -17.7383,-27.9512 L -18.1484,-27.6523
 L -18.0605,-27.1475 L -17.9541,-26.6621 L -17.8418,-26.2334 L -17.7266,-25.8594 L -17.6133,-25.541 L -17.4814,-25.2119
 L -17.4551,-25.0938 L -17.4678,-25.0186 L -18.3965,-24.3438 L -18.4717,-24.3555 L -18.5762,-24.416 L -18.8477,-24.6445
 L -19.1162,-24.8496 L -19.4355,-25.0752 L -19.8086,-25.3145 L -20.2373,-25.5654 L -20.6914,-25.8057 L -21.1016,-25.5068
 L -21.4717,-25.1602 L -21.3203,-24.6699 L -21.1543,-24.2012 L -20.9883,-23.79 L -20.8281,-23.4336 L -20.6758,-23.1318
 L -20.5029,-22.8223 L -20.4629,-22.708 L -20.4658,-22.6318 L -21.3027,-21.8467 L -21.3779,-21.8477 L -21.4893,-21.8955
 L -21.7881,-22.0879 L -22.0801,-22.2578 L -22.4248,-22.4414 L -22.8252,-22.6318 L -23.2822,-22.8271 L -23.7617,-23.0088
 L -24.1318,-22.6611 L -24.4551,-22.2705 L -24.2441,-21.8027 L -24.0205,-21.3594 L -23.8047,-20.9717 L -23.6006,-20.6387
 L -23.4121,-20.3584 L -23.2021,-20.0723 L -23.1475,-19.9639 L -23.1406,-19.8887 L -23.8721,-19.0039 L -23.9482,-18.9961
 L -24.0645,-19.0293 L -24.3848,-19.1826 L -24.6953,-19.3154 L -25.0605,-19.4531 L -25.4824,-19.5928 L -25.96,-19.7295
 L -26.458,-19.8496 L -26.7822,-19.458 L -27.0537,-19.0293 L -26.7852,-18.5928 L -26.5088,-18.1807 L -26.2461,-17.8232
 L -26.001,-17.5176 L -25.7793,-17.2637 L -25.5352,-17.0059 L -25.4668,-16.9053 L -25.4512,-16.8311 L -26.0664,-15.8623
 L -26.1396,-15.8447 L -26.2598,-15.8633 L -26.5967,-15.9756 L -26.9219,-16.0674 L -27.3018,-16.1592 L -27.7363,-16.2451
 L -28.2275,-16.3203 L -28.7373,-16.377 L -29.0098,-15.9482 L -29.2256,-15.4893 L -28.9043,-15.0889 L -28.5781,-14.7148
 L -28.2725,-14.3926 L -27.9922,-14.1211 L -27.7393,-13.8965 L -27.4648,-13.6719 L -27.3848,-13.5801 L -27.3594,-13.5088
 L -27.8486,-12.4697 L -27.9199,-12.4434 L -28.041,-12.4473 L -28.3887,-12.5156 L -28.7227,-12.5674 L -29.1113,-12.6104
 L -29.5537,-12.6406 L -30.0508,-12.6533 L -30.5635,-12.6455 L -30.7793,-12.1865 L -30.9365,-11.7041 L -30.5674,-11.3467
 L -30.1973,-11.0166 L -29.8535,-10.7363 L -29.541,-10.501 L -29.2617,-10.3096 L -28.9619,-10.1211 L -28.8711,-10.041
 L -28.8369,-9.97363 L -29.1924,-8.88184 L -29.2588,-8.84668 L -29.3799,-8.83496 L -29.7334,-8.85938 L -30.0713,-8.86816
 L -30.4619,-8.8623 L -30.9053,-8.83691 L -31.3994,-8.78711 L -31.9072,-8.71484 L -32.0645,-8.23242 L -32.1592,-7.73438
 L -31.749,-7.42676 L -31.3398,-7.14551 L -30.9639,-6.90918 L -30.624,-6.71582 L -30.3232,-6.56152 L -30.002,-6.41211
 L -29.9014,-6.34375 L -29.8594,-6.28027 L -30.0752,-5.15234 L -30.1377,-5.10938 L -30.2559,-5.08301 L -30.6094,-5.0625
 L -30.9463,-5.0293 L -31.333,-4.97363 L -31.7695,-4.89355 L -32.2529,-4.78223 L -32.748,-4.64746 L -32.8428,-4.14941
 L -32.875,-3.64258 L -32.4297,-3.38867 L -31.9883,-3.16113 L -31.5859,-2.97461 L -31.2246,-2.8252 L -30.9072,-2.70898
 L -30.5693,-2.60156 L -30.4609,-2.5459 L -30.4111,-2.48828 L -30.4834,-1.34277 L -30.54,-1.29199 L -30.6543,-1.25098
 L -31.0029,-1.18652 L -31.332,-1.11133 L -31.709,-1.00781 L -32.1318,-0.873047 L -32.5986,-0.702148 L -33.0723,-0.506836
 L -33.1045,-0 L -33.0723,0.506836 L -32.5986,0.702148 L -32.1318,0.873047 L -31.709,1.00781 L -31.332,1.11133
 L -31.0029,1.18652 L -30.6543,1.25098 L -30.54,1.29199 L -30.4834,1.34277 L -30.4111,2.48828 L -30.4609,2.5459
 L -30.5693,2.60156 L -30.9072,2.70898 L -31.2246,2.8252 L -31.5859,2.97461 L -31.9883,3.16113 L -32.4297,3.38867
 L -32.875,3.64258 L -32.8428,4.14941 L -32.748,4.64746 L -32.2529,4.78223 L -31.7695,4.89355 L -31.333,4.97363
 L -30.9463,5.0293 L -30.6094,5.0625 L -30.2559,5.08301 L -30.1377,5.10938 L -30.0752,5.15234 L -29.8594,6.28027
 L -29.9014,6.34375 L -30.002,6.41211 L -30.3232,6.56152 L -30.624,6.71582 L -30.9639,6.90918 L -31.3398,7.14551
 L -31.749,7.42676 L -32.1592,7.73438 L -32.0645,8.23242 L -31.9072,8.71484 L -31.3994,8.78711 L -30.9053,8.83691
 L -30.4619,8.8623 L -30.0713,8.86816 L -29.7334,8.85938 L -29.3799,8.83496 L -29.2588,8.84668 L -29.1924,8.88184
 L -28.8369,9.97363 L -28.8711,10.041 L -28.9619,10.1211 L -29.2617,10.3096 L -29.541,10.501 L -29.8535,10.7363
 L -30.1973,11.0166 L -30.5674,11.3467 L -30.9365,11.7041 L -30.7793,12.1865 L -30.5635,12.6455 L -30.0508,12.6533
 L -29.5537,12.6406 L -29.1113,12.6104 L -28.7227,12.5674 L -28.3887,12.5156 L -28.041,12.4473 L -27.9199,12.4434
 L -27.8486,12.4697 L -27.3594,13.5088 L -27.3848,13.5801 L -27.4648,13.6719 L -27.7393,13.8965 L -27.9922,14.1211
 L -28.2725,14.3926 L -28.5781,14.7148 L -28.9043,15.0889 L -29.2256,15.4893 L -29.0098,15.9482 L -28.7373,16.377
 L -28.2275,16.3203 L -27.7363,16.2451 L -27.3018,16.1592 L -26.9219,16.0674 L -26.5967,15.9756 L -26.2598,15.8633
 L -26.1396,15.8447 L -26.0664,15.8623 L -25.4512,16.8311 L -25.4668,16.9053 L -25.5352,17.0059 L -25.7793,17.2637
 L -26.001,17.5176 L -26.2461,17.8232 L -26.5088,18.1807 L -26.7852,18.5928 L -27.0537,19.0293 L -26.7822,19.458
 L -26.458,19.8496 L -25.96,19.7295 L -25.4824,19.5928 L -25.0605,19.4531 L -24.6953,19.3154 L -24.3848,19.1826
 L -24.0645,19.0293 L -23.9482,18.9961 L -23.8721,19.0039 L -23.1406,19.8887 L -23.1475,19.9639 L -23.2021,20.0723
 L -23.4121,20.3584 L -23.6006,20.6387 L -23.8047,20.9717 L -24.0205,21.3594 L -24.2441,21.8027 L -24.4551,22.2705
 L -24.1318,22.6611 L -23.7617,23.0088 L -23.2822,22.8271 L -22.8252,22.6318 L -22.4248,22.4414 L -22.0801,22.2578
 L -21.7881,22.0879 L -21.4893,21.8955 L -21.3779,21.8477 L -21.3027,21.8467 L -20.4658,22.6318 L -20.4629,22.708
 L -20.5029,22.8223 L -20.6758,23.1318 L -20.8281,23.4336 L -20.9883,23.79 L -21.1543,24.2012 L -21.3203,24.6699
 L -21.4717,25.1602 L -21.1016,25.5068 L -20.6914,25.8057 L -20.2373,25.5654 L -19.8086,25.3145 L -19.4355,25.0752
 L -19.1162,24.8496 L -18.8477,24.6445 L -18.5762,24.416 L -18.4717,24.3555 L -18.3965,24.3438 L -17.4678,25.0186
 L -17.4551,25.0938 L -17.4814,25.2119 L -17.6133,25.541 L -17.7266,25.8594 L -17.8418,26.2334 L -17.9541,26.6621
 L -18.0605,27.1475 L -18.1484,27.6523 L -17.7383,27.9512 L -17.2939,28.1953 L -16.874,27.9004 L -16.4805,27.5977
 L -16.1396,27.3125 L -15.8506,27.0498 L -15.6104,26.8115 L -15.3691,26.5518 L -15.2734,26.4785 L -15.2002,26.458
 L -14.1943,27.0107 L -14.1719,27.083 L -14.1836,27.2041 L -14.2734,27.5469 L -14.3457,27.877 L -14.4131,28.2617
 L -14.4707,28.7021 L -14.5156,29.1963 L -14.54,29.709 L -14.0947,29.9531 L -13.623,30.1406 L -13.2441,29.7949
 L -12.8916,29.4453 L -12.5889,29.1201 L -12.335,28.8232 L -12.127,28.5566 L -11.9199,28.2686 L -11.834,28.1836
 L -11.7646,28.1543 L -10.6973,28.5771 L -10.666,28.6465 L -10.6621,28.7666 L -10.708,29.1191 L -10.7383,29.4551
 L -10.7568,29.8457 L -10.7598,30.2891 L -10.7412,30.7861 L -10.7012,31.2969 L -10.2295,31.4844 L -9.73828,31.6104
 L -9.40527,31.2197 L -9.09863,30.8291 L -8.83984,30.4688 L -8.62598,30.1416 L -8.45215,29.8516 L -8.2832,29.54
 L -8.20898,29.4443 L -8.14258,29.4062 L -7.03125,29.6924 L -6.99219,29.7568 L -6.97266,29.877 L -6.97461,30.2314
 L -6.96191,30.5693 L -6.93164,30.959 L -6.87891,31.3994 L -6.79883,31.8896 L -6.69434,32.3916 L -6.20312,32.5176
 L -5.7002,32.5811 L -5.41797,32.1523 L -5.16309,31.7266 L -4.95215,31.3359 L -4.78027,30.9854 L -4.64453,30.6758
 L -4.51562,30.3457 L -4.45312,30.2412 L -4.39355,30.1953 L -3.25391,30.3389 L -3.20703,30.3984 L -3.17285,30.5146
 L -3.13086,30.8672 L -3.07617,31.2002 L -2.99707,31.583 L -2.88867,32.0137 L -2.74805,32.4902 L -2.58203,32.9756
 L -2.0791,33.0391 L -1.57129,33.0391 z
M -0.519531,2.44531 L -1.0166,2.28418 L -1.46973,2.02246 L -1.85742,1.67285 L -2.16504,1.25 L -2.37793,0.772461
 L -2.48633,0.261719 L -2.48633,-0.261719 L -2.37793,-0.772461 L -2.16504,-1.25 L -1.85742,-1.67285 L -1.46973,-2.02246
 L -1.0166,-2.28418 L -0.519531,-2.44531 L 0,-2.5 L 0.519531,-2.44531 L 1.0166,-2.28418 L 1.46973,-2.02246
 L 1.85742,-1.67285 L 2.16504,-1.25 L 2.37793,-0.772461 L 2.48633,-0.261719 L 2.48633,0.261719 L 2.37793,0.772461
 L 2.16504,1.25 L 1.85742,1.67285 L 1.46973,2.02246 L 1.0166,2.28418 L 0.519531,2.44531 L 0,2.5
 z
" stroke="black" fill="lightgray" stroke-width="0.5"/></svg>
