<?xml version="1.0" standalone="no"?>
<!DOCTYPE svg PUBLIC "-//W3C//DTD SVG 1.1//EN" "http://www.w3.org/Graphics/SVG/1.1/DTD/svg11.dtd">
<svg width="207" height="115" viewBox="-46 -60 207 115" xmlns="http://www.w3.org/2000/svg" version="1.1">
<title>OpenSCAD Model</title>
<path d="
M 52.0119,-40.3453 L 52.0477,-40.689 L 52.1071,-41.0293 L 52.1898,-41.3648 L 52.2956,-41.6937 L 52.4238,-42.0145
 L 52.5738,-42.3258 L 52.745,-42.6259 L 52.9365,-42.9135 L 53.1474,-43.1871 L 53.3767,-43.4456 L 53.6233,-43.6876
 L 53.886,-43.912 L 54.1637,-44.1177 L 54.4548,-44.3037 L 54.7581,-44.4692 L 55.0721,-44.6134 L 55.3953,-44.7355
 L 55.7261,-44.835 L 56.0631,-44.9114 L 56.4045,-44.9644 L 56.7488,-44.9937 L 57.0942,-44.9991 L 57.4393,-44.9807
 L 57.7822,-44.9384 L 58.1214,-44.8726 L 58.4552,-44.7836 L 58.7821,-44.6716 L 59.1004,-44.5374 L 59.4088,-44.3815
 L 59.7056,-44.2047 L 59.9895,-44.0078 L 60.2592,-43.7918 L 60.5132,-43.5577 L 60.7505,-43.3066 L 60.9699,-43.0397
 L 61.1704,-42.7582 L 61.3509,-42.4636 L 61.5107,-42.1573 L 61.6489,-41.8406 L 61.7649,-41.5152 L 61.8582,-41.1825
 L 61.9282,-40.8442 L 61.9747,-40.5018 L 61.9975,-40.1571 L 62,-40 L 65,-40 L 65,-49
 L 43.6342,-49 L 43.5443,-48.6742 L 43.4326,-48.3639 L 43.2978,-48.0629 L 43.1407,-47.7729 L 42.9623,-47.4956
 L 42.7634,-47.2325 L 42.5453,-46.9851 L 42.3092,-46.7549 L 42.0565,-46.5431 L 41.7884,-46.3509 L 41.5067,-46.1795
 L 41.2129,-46.0298 L 40.9086,-45.9026 L 40.5956,-45.7987 L 40.2756,-45.7187 L 39.9506,-45.663 L 39.6223,-45.632
 L 39.2925,-45.6258 L 38.9633,-45.6444 L 38.6364,-45.6878 L 38.3136,-45.7557 L 37.9969,-45.8477 L 37.6881,-45.9633
 L 37.3888,-46.1019 L 37.1008,-46.2625 L 36.8257,-46.4445 L 36.5651,-46.6466 L 36.3205,-46.8678 L 36.0933,-47.1068
 L 35.8846,-47.3622 L 35.6959,-47.6326 L 35.528,-47.9165 L 35.382,-48.2122 L 35.2586,-48.518 L 35.1587,-48.8323
 L 35.0827,-49.1532 L 35.0311,-49.479 L 35.0042,-49.8076 L 35.0022,-50.1374 L 35.0249,-50.4664 L 35.0724,-50.7928
 L 35.1444,-51.1146 L 35.2403,-51.4301 L 35.3598,-51.7375 L 35.5021,-52.035 L 35.6664,-52.321 L 35.8518,-52.5937
 L 36.0572,-52.8518 L 36.2814,-53.0936 L 36.5232,-53.3178 L 36.7812,-53.5232 L 37.054,-53.7086 L 37.34,-53.8729
 L 37.6375,-54.0152 L 37.9449,-54.1346 L 38.2604,-54.2306 L 38.5822,-54.3026 L 38.9086,-54.3501 L 39.2376,-54.3728
 L 39.5674,-54.3708 L 39.896,-54.3439 L 40.2218,-54.2923 L 40.5427,-54.2163 L 40.857,-54.1163 L 41.1628,-53.993
 L 41.4585,-53.847 L 41.7424,-53.6791 L 42.0128,-53.4903 L 42.2682,-53.2817 L 42.5072,-53.0545 L 42.7284,-52.8098
 L 42.9305,-52.5493 L 43.1125,-52.2742 L 43.2731,-51.9862 L 43.4117,-51.6869 L 43.5273,-51.3781 L 43.6193,-51.0614
 L 43.6342,-51 L 65,-51 L 65,-60 L 62,-60 L 61.9881,-59.6547 L 61.9523,-59.311
 L 61.8929,-58.9707 L 61.8101,-58.6352 L 61.7044,-58.3063 L 61.5762,-57.9855 L 61.4261,-57.6742 L 61.255,-57.3741
 L 61.0635,-57.0865 L 60.8526,-56.8129 L 60.6233,-56.5544 L 60.3767,-56.3124 L 60.1139,-56.088 L 59.8363,-55.8823
 L 59.5452,-55.6963 L 59.2419,-55.5308 L 58.9279,-55.3866 L 58.6047,-55.2645 L 58.2738,-55.165 L 57.9369,-55.0886
 L 57.5955,-55.0356 L 57.2512,-55.0063 L 56.9057,-55.0009 L 56.5607,-55.0193 L 56.2178,-55.0616 L 55.8786,-55.1274
 L 55.5448,-55.2164 L 55.2179,-55.3284 L 54.8996,-55.4626 L 54.5912,-55.6185 L 54.2944,-55.7953 L 54.0105,-55.9922
 L 53.7408,-56.2082 L 53.4867,-56.4423 L 53.2494,-56.6934 L 53.03,-56.9603 L 52.8296,-57.2418 L 52.6491,-57.5364
 L 52.4893,-57.8427 L 52.3511,-58.1594 L 52.2351,-58.4848 L 52.1418,-58.8175 L 52.0718,-59.1558 L 52.0252,-59.4982
 L 52.0025,-59.8429 L 52,-60 L 25,-60 L 25,-40 L 52,-40 z
M 34.6261,-56.0725 L 34.3482,-56.2416 L 34.1425,-56.4855 L 34.0227,-56.788 L 34.0057,-57.1066 L 34.0899,-57.4144
 L 34.2668,-57.6799 L 34.5182,-57.8763 L 34.8188,-57.9834 L 35.1378,-57.9904 L 35.4427,-57.8966 L 35.7026,-57.7115
 L 35.891,-57.454 L 35.953,-57.303 L 35.9998,-56.9811 L 35.9409,-56.6613 L 35.7863,-56.3821 L 35.5516,-56.1659
 L 35.2608,-56.0346 L 34.9435,-56.0016 z
M 27.6261,-56.0725 L 27.3482,-56.2416 L 27.1425,-56.4855 L 27.0227,-56.788 L 27.0057,-57.1066 L 27.0899,-57.4144
 L 27.2668,-57.6799 L 27.5182,-57.8763 L 27.8188,-57.9834 L 28.1378,-57.9904 L 28.4428,-57.8966 L 28.7027,-57.7115
 L 28.891,-57.454 L 28.953,-57.303 L 28.9998,-56.9811 L 28.9409,-56.6613 L 28.7863,-56.3821 L 28.5517,-56.1659
 L 28.2608,-56.0346 L 27.9435,-56.0016 z
M 34.6261,-42.0726 L 34.3482,-42.2416 L 34.1425,-42.4856 L 34.0227,-42.788 L 34.0057,-43.1066 L 34.0899,-43.4144
 L 34.2668,-43.68 L 34.5182,-43.8763 L 34.8188,-43.9835 L 35.1378,-43.9905 L 35.4427,-43.8967 L 35.7026,-43.7115
 L 35.891,-43.454 L 35.953,-43.303 L 35.9998,-42.9812 L 35.9409,-42.6613 L 35.7863,-42.3821 L 35.5516,-42.1659
 L 35.2608,-42.0346 L 34.9435,-42.0016 z
M 27.6261,-42.0726 L 27.3482,-42.2416 L 27.1425,-42.4856 L 27.0227,-42.788 L 27.0057,-43.1066 L 27.0899,-43.4144
 L 27.2668,-43.68 L 27.5182,-43.8763 L 27.8188,-43.9835 L 28.1378,-43.9905 L 28.4428,-43.8967 L 28.7027,-43.7115
 L 28.891,-43.454 L 28.953,-43.303 L 28.9998,-42.9812 L 28.9409,-42.6613 L 28.7863,-42.3821 L 28.5517,-42.1659
 L 28.2608,-42.0346 L 27.9435,-42.0016 z
M 106.346,54.9989 L 106.691,54.9957 L 107.037,54.9902 L 107.382,54.9826 L 107.728,54.9729 L 108.073,54.9609
 L 108.418,54.9468 L 108.763,54.9305 L 109.109,54.9121 L 109.453,54.8915 L 109.798,54.8687 L 110.143,54.8437
 L 110.487,54.8166 L 110.832,54.7873 L 111.176,54.7559 L 111.52,54.7223 L 111.864,54.6865 L 112.207,54.6486
 L 112.55,54.6085 L 112.893,54.5663 L 113.236,54.5219 L 113.578,54.4754 L 113.921,54.4267 L 114.262,54.3758
 L 114.604,54.3228 L 114.945,54.2677 L 115.286,54.2104 L 115.626,54.151 L 115.966,54.0895 L 116.306,54.0258
 L 116.645,53.96 L 116.984,53.892 L 117.322,53.8219 L 117.66,53.7497 L 117.998,53.6754 L 118.335,53.599
 L 118.671,53.5204 L 119.007,53.4397 L 119.343,53.3569 L 119.678,53.2721 L 120.012,53.1851 L 120.346,53.096
 L 120.68,53.0048 L 121.012,52.9115 L 121.344,52.8161 L 121.676,52.7187 L 122.007,52.6192 L 122.337,52.5175
 L 122.667,52.4138 L 122.996,52.3081 L 123.324,52.2003 L 123.652,52.0904 L 123.979,51.9785 L 124.305,51.8645
 L 124.631,51.7484 L 124.955,51.6304 L 125.279,51.5102 L 125.603,51.3881 L 125.925,51.2639 L 126.247,51.1377
 L 126.568,51.0095 L 126.888,50.8792 L 127.207,50.747 L 127.526,50.6127 L 127.843,50.4765 L 128.16,50.3383
 L 128.476,50.198 L 128.791,50.0558 L 129.105,49.9116 L 129.418,49.7655 L 129.73,49.6174 L 130.041,49.4673
 L 130.352,49.3152 L 130.661,49.1613 L 130.969,49.0054 L 131.277,48.8475 L 131.583,48.6877 L 131.889,48.526
 L 132.193,48.3624 L 132.496,48.1969 L 132.799,48.0294 L 133.1,47.8601 L 133.4,47.6889 L 133.699,47.5158
 L 133.997,47.3408 L 134.294,47.164 L 134.59,46.9852 L 134.885,46.8047 L 135.178,46.6223 L 135.47,46.438
 L 135.762,46.2519 L 136.052,46.064 L 136.341,45.8743 L 136.628,45.6828 L 136.915,45.4894 L 137.2,45.2943
 L 137.484,45.0974 L 137.766,44.8987 L 138.048,44.6982 L 138.328,44.4959 L 138.607,44.2919 L 138.885,44.0862
 L 139.161,43.8787 L 139.436,43.6695 L 139.71,43.4585 L 139.982,43.2458 L 140.253,43.0315 L 140.523,42.8154
 L 140.791,42.5977 L 141.058,42.3782 L 141.324,42.1571 L 141.588,41.9343 L 141.851,41.7099 L 142.112,41.4838
 L 142.372,41.2561 L 142.631,41.0267 L 142.888,40.7958 L 143.143,40.5632 L 143.397,40.329 L 143.65,40.0933
 L 143.901,39.8559 L 144.151,39.617 L 144.399,39.3765 L 144.646,39.1345 L 144.891,38.8909 L 145.134,38.6457
 L 145.376,38.3991 L 145.617,38.1509 L 145.856,37.9012 L 146.093,37.6501 L 146.329,37.3974 L 146.563,37.1433
 L 146.796,36.8877 L 147.027,36.6306 L 147.256,36.3721 L 147.484,36.1122 L 147.71,35.8508 L 147.934,35.5881
 L 148.157,35.3239 L 148.378,35.0583 L 148.598,34.7914 L 148.815,34.523 L 149.031,34.2533 L 149.246,33.9823
 L 149.459,33.7099 L 149.669,33.4362 L 149.879,33.1611 L 150.086,32.8848 L 150.292,32.6071 L 150.496,32.3282
 L 150.698,32.048 L 150.899,31.7665 L 151.097,31.4838 L 151.294,31.1998 L 151.489,30.9146 L 151.683,30.6282
 L 151.874,30.3405 L 152.064,30.0517 L 152.252,29.7617 L 152.438,29.4705 L 152.622,29.1781 L 152.805,28.8846
 L 152.985,28.59 L 153.164,28.2942 L 153.341,27.9973 L 153.516,27.6993 L 153.689,27.4002 L 153.86,27.1
 L 154.029,26.7988 L 154.197,26.4964 L 154.362,26.1931 L 154.526,25.8887 L 154.688,25.5833 L 154.848,25.2769
 L 155.005,24.9695 L 155.161,24.6611 L 155.315,24.3517 L 155.467,24.0414 L 155.617,23.7301 L 155.765,23.4178
 L 155.912,23.1047 L 156.056,22.7906 L 156.198,22.4757 L 156.338,22.1599 L 156.477,21.8431 L 156.613,21.5255
 L 156.747,21.2071 L 156.879,20.8878 L 157.009,20.5677 L 157.138,20.2468 L 157.264,19.9251 L 157.388,19.6026
 L 157.51,19.2794 L 157.63,18.9554 L 157.748,18.6306 L 157.864,18.3051 L 157.978,17.9788 L 158.09,17.6519
 L 158.2,17.3242 L 158.308,16.9959 L 158.414,16.6669 L 158.518,16.3373 L 158.619,16.007 L 158.719,15.6761
 L 158.816,15.3445 L 158.912,15.0123 L 159.005,14.6796 L 159.096,14.3463 L 159.185,14.0124 L 159.272,13.6779
 L 159.357,13.343 L 159.44,13.0074 L 159.52,12.6714 L 159.599,12.3349 L 159.675,11.9979 L 159.75,11.6604
 L 159.822,11.3224 L 159.892,10.984 L 159.96,10.6452 L 160.026,10.306 L 160.089,9.96631 L 160.151,9.62627
 L 160.21,9.28583 L 160.268,8.94504 L 160.323,8.60388 L 160.376,8.26241 L 160.427,7.92058 L 160.475,7.57846
 L 160.522,7.23604 L 160.566,6.89333 L 160.609,6.55034 L 160.649,6.20709 L 160.687,5.8636 L 160.722,5.51988
 L 160.756,5.17595 L 160.787,4.8318 L 160.817,4.48747 L 160.844,4.14296 L 160.869,3.79829 L 160.891,3.45348
 L 160.912,3.10851 L 160.931,2.76343 L 160.947,2.41824 L 160.961,2.07295 L 160.973,1.72758 L 160.983,1.38214
 L 160.99,1.03665 L 160.996,0.691132 L 160.999,0.345566 L 161,-0 L 160.999,-0.345566 L 160.996,-0.691132
 L 160.99,-1.03665 L 160.983,-1.38214 L 160.973,-1.72758 L 160.961,-2.07295 L 160.947,-2.41824 L 160.931,-2.76343
 L 160.912,-3.10851 L 160.891,-3.45348 L 160.869,-3.79829 L 160.844,-4.14296 L 160.817,-4.48747 L 160.787,-4.8318
 L 160.756,-5.17595 L 160.722,-5.51988 L 160.687,-5.8636 L 160.649,-6.20709 L 160.609,-6.55034 L 160.566,-6.89333
 L 160.522,-7.23604 L 160.475,-7.57846 L 160.427,-7.92058 L 160.376,-8.26241 L 160.323,-8.60388 L 160.268,-8.94504
 L 160.21,-9.28583 L 160.151,-9.62627 L 160.089,-9.96631 L 160.026,-10.306 L 159.96,-10.6452 L 159.892,-10.984
 L 159.822,-11.3224 L 159.75,-11.6604 L 159.675,-11.9979 L 159.599,-12.3349 L 159.52,-12.6714 L 159.44,-13.0074
 L 159.357,-13.343 L 159.272,-13.6779 L 159.185,-14.0124 L 159.096,-14.3463 L 159.005,-14.6796 L 158.912,-15.0123
 L 158.816,-15.3445 L 158.719,-15.6761 L 158.619,-16.007 L 158.518,-16.3373 L 158.414,-16.6669 L 158.308,-16.9959
 L 158.2,-17.3242 L 158.09,-17.6519 L 157.978,-17.9788 L 157.864,-18.3051 L 157.748,-18.6306 L 157.63,-18.9554
 L 157.51,-19.2794 L 157.388,-19.6026 L 157.264,-19.9251 L 157.138,-20.2468 L 157.009,-20.5677 L 156.879,-20.8878
 L 156.747,-21.2071 L 156.613,-21.5255 L 156.477,-21.8431 L 156.338,-22.1599 L 156.198,-22.4757 L 156.056,-22.7906
 L 155.912,-23.1047 L 155.765,-23.4178 L 155.617,-23.7301 L 155.467,-24.0414 L 155.315,-24.3517 L 155.161,-24.6611
 L 155.005,-24.9695 L 154.848,-25.2769 L 154.688,-25.5833 L 154.526,-25.8887 L 154.362,-26.1931 L 154.197,-26.4964
 L 154.029,-26.7988 L 153.86,-27.1 L 153.689,-27.4002 L 153.516,-27.6993 L 153.341,-27.9973 L 153.164,-28.2942
 L 152.985,-28.59 L 152.805,-28.8846 L 152.622,-29.1781 L 152.438,-29.4705 L 152.252,-29.7617 L 152.064,-30.0517
 L 151.874,-30.3405 L 151.683,-30.6282 L 151.489,-30.9146 L 151.294,-31.1998 L 151.097,-31.4838 L 150.899,-31.7665
 L 150.698,-32.048 L 150.496,-32.3282 L 150.292,-32.6071 L 150.086,-32.8848 L 149.879,-33.1611 L 149.669,-33.4362
 L 149.459,-33.7099 L 149.246,-33.9823 L 149.031,-34.2533 L 148.815,-34.523 L 148.598,-34.7914 L 148.378,-35.0583
 L 148.157,-35.3239 L 147.934,-35.5881 L 147.71,-35.8508 L 147.484,-36.1122 L 147.256,-36.3721 L 147.027,-36.6306
 L 146.796,-36.8877 L 146.563,-37.1433 L 146.329,-37.3974 L 146.093,-37.6501 L 145.856,-37.9012 L 145.617,-38.1509
 L 145.376,-38.3991 L 145.134,-38.6457 L 144.891,-38.8909 L 144.646,-39.1345 L 144.399,-39.3765 L 144.151,-39.617
 L 143.901,-39.8559 L 143.65,-40.0933 L 143.397,-40.329 L 143.143,-40.5632 L 142.888,-40.7958 L 142.631,-41.0267
 L 142.372,-41.2561 L 142.112,-41.4838 L 141.851,-41.7099 L 141.588,-41.9343 L 141.324,-42.1571 L 141.058,-42.3782
 L 140.791,-42.5977 L 140.523,-42.8154 L 140.253,-43.0315 L 139.982,-43.2458 L 139.71,-43.4585 L 139.436,-43.6695
 L 139.161,-43.8787 L 138.885,-44.0862 L 138.607,-44.2919 L 138.328,-44.4959 L 138.048,-44.6982 L 137.766,-44.8987
 L 137.484,-45.0974 L 137.2,-45.2943 L 136.915,-45.4894 L 136.628,-45.6828 L 136.341,-45.8743 L 136.052,-46.064
 L 135.762,-46.2519 L 135.47,-46.438 L 135.178,-46.6223 L 134.885,-46.8047 L 134.59,-46.9852 L 134.294,-47.164
 L 133.997,-47.3408 L 133.699,-47.5158 L 133.4,-47.6889 L 133.1,-47.8601 L 132.799,-48.0294 L 132.496,-48.1969
 L 132.193,-48.3624 L 131.889,-48.526 L 131.583,-48.6877 L 131.277,-48.8475 L 130.969,-49.0054 L 130.661,-49.1613
 L 130.352,-49.3152 L 130.041,-49.4673 L 129.73,-49.6174 L 129.418,-49.7655 L 129.105,-49.9116 L 128.791,-50.0558
 L 128.476,-50.198 L 128.16,-50.3383 L 127.843,-50.4765 L 127.526,-50.6127 L 127.207,-50.747 L 126.888,-50.8792
 L 126.568,-51.0095 L 126.247,-51.1377 L 125.925,-51.2639 L 125.603,-51.3881 L 125.279,-51.5102 L 124.955,-51.6304
 L 124.631,-51.7484 L 124.305,-51.8645 L 123.979,-51.9785 L 123.652,-52.0904 L 123.324,-52.2003 L 122.996,-52.3081
 L 122.667,-52.4138 L 122.337,-52.5175 L 122.007,-52.6192 L 121.676,-52.7187 L 121.344,-52.8161 L 121.012,-52.9115
 L 120.68,-53.0048 L 120.346,-53.096 L 120.012,-53.1851 L 119.678,-53.2721 L 119.343,-53.3569 L 119.007,-53.4397
 L 118.671,-53.5204 L 118.335,-53.599 L 117.998,-53.6754 L 117.66,-53.7497 L 117.322,-53.8219 L 116.984,-53.892
 L 116.645,-53.96 L 116.306,-54.0258 L 115.966,-54.0895 L 115.626,-54.151 L 115.286,-54.2104 L 114.945,-54.2677
 L 114.604,-54.3228 L 114.262,-54.3758 L 113.921,-54.4267 L 113.578,-54.4754 L 113.236,-54.5219 L 112.893,-54.5663
 L 112.55,-54.6085 L 112.207,-54.6486 L 111.864,-54.6865 L 111.52,-54.7223 L 111.176,-54.7559 L 110.832,-54.7873
 L 110.487,-54.8166 L 110.143,-54.8437 L 109.798,-54.8687 L 109.453,-54.8915 L 109.109,-54.9121 L 108.763,-54.9305
 L 108.418,-54.9468 L 108.073,-54.9609 L 107.728,-54.9729 L 107.382,-54.9826 L 107.037,-54.9902 L 106.691,-54.9957
 L 106.346,-54.9989 L 106,-55 L 105.654,-54.9989 L 105.309,-54.9957 L 104.963,-54.9902 L 104.618,-54.9826
 L 104.272,-54.9729 L 103.927,-54.9609 L 103.582,-54.9468 L 103.237,-54.9305 L 102.891,-54.9121 L 102.547,-54.8915
 L 102.202,-54.8687 L 101.857,-54.8437 L 101.513,-54.8166 L 101.168,-54.7873 L 100.824,-54.7559 L 100.48,-54.7223
 L 100.136,-54.6865 L 99.7929,-54.6486 L 99.4497,-54.6085 L 99.1067,-54.5663 L 98.764,-54.5219 L 98.4215,-54.4754
 L 98.0794,-54.4267 L 97.7376,-54.3758 L 97.3961,-54.3228 L 97.055,-54.2677 L 96.7142,-54.2104 L 96.3737,-54.151
 L 96.0337,-54.0895 L 95.694,-54.0258 L 95.3548,-53.96 L 95.016,-53.892 L 94.6776,-53.8219 L 94.3396,-53.7497
 L 94.0021,-53.6754 L 93.6651,-53.599 L 93.3286,-53.5204 L 92.9926,-53.4397 L 92.657,-53.3569 L 92.3221,-53.2721
 L 91.9876,-53.1851 L 91.6537,-53.096 L 91.3204,-53.0048 L 90.9877,-52.9115 L 90.6555,-52.8161 L 90.3239,-52.7187
 L 89.993,-52.6192 L 89.6627,-52.5175 L 89.3331,-52.4138 L 89.0041,-52.3081 L 88.6758,-52.2003 L 88.3481,-52.0904
 L 88.0212,-51.9785 L 87.6949,-51.8645 L 87.3694,-51.7484 L 87.0446,-51.6304 L 86.7206,-51.5102 L 86.3974,-51.3881
 L 86.0749,-51.2639 L 85.7532,-51.1377 L 85.4323,-51.0095 L 85.1122,-50.8792 L 84.7929,-50.747 L 84.4745,-50.6127
 L 84.1569,-50.4765 L 83.8401,-50.3383 L 83.5243,-50.198 L 83.2094,-50.0558 L 82.8953,-49.9116 L 82.5822,-49.7655
 L 82.2699,-49.6174 L 81.9586,-49.4673 L 81.6483,-49.3152 L 81.3389,-49.1613 L 81.0305,-49.0054 L 80.7231,-48.8475
 L 80.4167,-48.6877 L 80.1113,-48.526 L 79.8069,-48.3624 L 79.5036,-48.1969 L 79.2012,-48.0294 L 78.9,-47.8601
 L 78.5998,-47.6889 L 78.3007,-47.5158 L 78.0027,-47.3408 L 77.7058,-47.164 L 77.41,-46.9852 L 77.1154,-46.8047
 L 76.8219,-46.6223 L 76.5295,-46.438 L 76.2383,-46.2519 L 75.9483,-46.064 L 75.6595,-45.8743 L 75.3718,-45.6828
 L 75.0854,-45.4894 L 74.8002,-45.2943 L 74.5162,-45.0974 L 74.2335,-44.8987 L 73.952,-44.6982 L 73.6718,-44.4959
 L 73.3929,-44.2919 L 73.1152,-44.0862 L 72.8389,-43.8787 L 72.5638,-43.6695 L 72.2901,-43.4585 L 72.0177,-43.2458
 L 71.7467,-43.0315 L 71.477,-42.8154 L 71.2086,-42.5977 L 70.9417,-42.3782 L 70.6761,-42.1571 L 70.4119,-41.9343
 L 70.1492,-41.7099 L 69.8878,-41.4838 L 69.6279,-41.2561 L 69.3694,-41.0267 L 69.1123,-40.7958 L 68.8567,-40.5632
 L 68.6026,-40.329 L 68.3499,-40.0933 L 68.0988,-39.8559 L 67.8491,-39.617 L 67.6009,-39.3765 L 67.3543,-39.1345
 L 67.1091,-38.8909 L 66.8655,-38.6457 L 66.6235,-38.3991 L 66.383,-38.1509 L 66.1441,-37.9012 L 65.9067,-37.6501
 L 65.671,-37.3974 L 65.4368,-37.1433 L 65.2042,-36.8877 L 64.9733,-36.6306 L 64.7439,-36.3721 L 64.5162,-36.1122
 L 64.2901,-35.8508 L 64.0657,-35.5881 L 63.8429,-35.3239 L 63.6218,-35.0583 L 63.4023,-34.7914 L 63.1846,-34.523
 L 62.9685,-34.2533 L 62.7542,-33.9823 L 62.5415,-33.7099 L 62.3305,-33.4362 L 62.1213,-33.1611 L 61.9138,-32.8848
 L 61.7081,-32.6071 L 61.5041,-32.3282 L 61.3018,-32.048 L 61.1013,-31.7665 L 60.9026,-31.4838 L 60.7057,-31.1998
 L 60.5106,-30.9146 L 60.3172,-30.6282 L 60.1257,-30.3405 L 59.936,-30.0517 L 59.7481,-29.7617 L 59.562,-29.4705
 L 59.3777,-29.1781 L 59.1953,-28.8846 L 59.0148,-28.59 L 58.836,-28.2942 L 58.6592,-27.9973 L 58.4842,-27.6993
 L 58.3111,-27.4002 L 58.1399,-27.1 L 57.9706,-26.7988 L 57.8031,-26.4964 L 57.6376,-26.1931 L 57.474,-25.8887
 L 57.3123,-25.5833 L 57.1525,-25.2769 L 56.9946,-24.9695 L 56.8387,-24.6611 L 56.6848,-24.3517 L 56.5327,-24.0414
 L 56.3826,-23.7301 L 56.2345,-23.4178 L 56.0884,-23.1047 L 55.9442,-22.7906 L 55.802,-22.4757 L 55.6617,-22.1599
 L 55.5235,-21.8431 L 55.3873,-21.5255 L 55.253,-21.2071 L 55.1208,-20.8878 L 54.9905,-20.5677 L 54.8623,-20.2468
 L 54.7361,-19.9251 L 54.6119,-19.6026 L 54.4898,-19.2794 L 54.3696,-18.9554 L 54.2516,-18.6306 L 54.1355,-18.3051
 L 54.0215,-17.9788 L 53.9096,-17.6519 L 53.7997,-17.3242 L 53.6919,-16.9959 L 53.5862,-16.6669 L 53.4825,-16.3373
 L 53.3808,-16.007 L 53.2813,-15.6761 L 53.1839,-15.3445 L 53.0885,-15.0123 L 52.9952,-14.6796 L 52.904,-14.3463
 L 52.8149,-14.0124 L 52.7279,-13.6779 L 52.6431,-13.343 L 52.5603,-13.0074 L 52.4796,-12.6714 L 52.401,-12.3349
 L 52.3246,-11.9979 L 52.2503,-11.6604 L 52.1781,-11.3224 L 52.108,-10.984 L 52.04,-10.6452 L 51.9742,-10.306
 L 51.9105,-9.96631 L 51.849,-9.62627 L 51.7896,-9.28583 L 51.7323,-8.94504 L 51.6772,-8.60388 L 51.6242,-8.26241
 L 51.5733,-7.92058 L 51.5246,-7.57846 L 51.4781,-7.23604 L 51.4337,-6.89333 L 51.3915,-6.55034 L 51.3514,-6.20709
 L 51.3135,-5.8636 L 51.2777,-5.51988 L 51.2441,-5.17595 L 51.2127,-4.8318 L 51.1834,-4.48747 L 51.1563,-4.14296
 L 51.1313,-3.79829 L 51.1085,-3.45348 L 51.0879,-3.10851 L 51.0695,-2.76343 L 51.0532,-2.41824 L 51.0391,-2.07295
 L 51.0271,-1.72758 L 51.0174,-1.38214 L 51.0098,-1.03665 L 51.0043,-0.691132 L 51.0011,-0.345566 L 51,-0
 L 51.0011,0.345566 L 51.0043,0.691132 L 51.0098,1.03665 L 51.0174,1.38214 L 51.0271,1.72758 L 51.0391,2.07295
 L 51.0532,2.41824 L 51.0695,2.76343 L 51.0879,3.10851 L 51.1085,3.45348 L 51.1313,3.79829 L 51.1563,4.14296
 L 51.1834,4.48747 L 51.2127,4.8318 L 51.2441,5.17595 L 51.2777,5.51988 L 51.3135,5.8636 L 51.3514,6.20709
 L 51.3915,6.55034 L 51.4337,6.89333 L 51.4781,7.23604 L 51.5246,7.57846 L 51.5733,7.92058 L 51.6242,8.26241
 L 51.6772,8.60388 L 51.7323,8.94504 L 51.7896,9.28583 L 51.849,9.62627 L 51.9105,9.96631 L 51.9742,10.306
 L 52.04,10.6452 L 52.108,10.984 L 52.1781,11.3224 L 52.2503,11.6604 L 52.3246,11.9979 L 52.401,12.3349
 L 52.4796,12.6714 L 52.5603,13.0074 L 52.6431,13.343 L 52.7279,13.6779 L 52.8149,14.0124 L 52.904,14.3463
 L 52.9952,14.6796 L 53.0885,15.0123 L 53.1839,15.3445 L 53.2813,15.6761 L 53.3808,16.007 L 53.4825,16.3373
 L 53.5862,16.6669 L 53.6919,16.9959 L 53.7997,17.3242 L 53.9096,17.6519 L 54.0215,17.9788 L 54.1355,18.3051
 L 54.2516,18.6306 L 54.3696,18.9554 L 54.4898,19.2794 L 54.6119,19.6026 L 54.7361,19.9251 L 54.8623,20.2468
 L 54.9905,20.5677 L 55.1208,20.8878 L 55.253,21.2071 L 55.3873,21.5255 L 55.5235,21.8431 L 55.6617,22.1599
 L 55.802,22.4757 L 55.9442,22.7906 L 56.0884,23.1047 L 56.2345,23.4178 L 56.3826,23.7301 L 56.5327,24.0414
 L 56.6848,24.3517 L 56.8387,24.6611 L 56.9946,24.9695 L 57.1525,25.2769 L 57.3123,25.5833 L 57.474,25.8887
 L 57.6376,26.1931 L 57.8031,26.4964 L 57.9706,26.7988 L 58.1399,27.1 L 58.3111,27.4002 L 58.4842,27.6993
 L 58.6592,27.9973 L 58.836,28.2942 L 59.0148,28.59 L 59.1953,28.8846 L 59.3777,29.1781 L 59.562,29.4705
 L 59.7481,29.7617 L 59.936,30.0517 L 60.1257,30.3405 L 60.3172,30.6282 L 60.5106,30.9146 L 60.7057,31.1998
 L 60.9026,31.4838 L 61.1013,31.7665 L 61.3018,32.048 L 61.5041,32.3282 L 61.7081,32.6071 L 61.9138,32.8848
 L 62.1213,33.1611 L 62.3305,33.4362 L 62.5415,33.7099 L 62.7542,33.9823 L 62.9685,34.2533 L 63.1846,34.523
 L 63.4023,34.7914 L 63.6218,35.0583 L 63.8429,35.3239 L 64.0657,35.5881 L 64.2901,35.8508 L 64.5162,36.1122
 L 64.7439,36.3721 L 64.9733,36.6306 L 65.2042,36.8877 L 65.4368,37.1433 L 65.671,37.3974 L 65.9067,37.6501
 L 66.1441,37.9012 L 66.383,38.1509 L 66.6235,38.3991 L 66.8655,38.6457 L 67.1091,38.8909 L 67.3543,39.1345
 L 67.6009,39.3765 L 67.8491,39.617 L 68.0988,39.8559 L 68.3499,40.0933 L 68.6026,40.329 L 68.8567,40.5632
 L 69.1123,40.7958 L 69.3694,41.0267 L 69.6279,41.2561 L 69.8878,41.4838 L 70.1492,41.7099 L 70.4119,41.9343
 L 70.6761,42.1571 L 70.9417,42.3782 L 71.2086,42.5977 L 71.477,42.8154 L 71.7467,43.0315 L 72.0177,43.2458
 L 72.2901,43.4585 L 72.5638,43.6695 L 72.8389,43.8787 L 73.1152,44.0862 L 73.3929,44.2919 L 73.6718,44.4959
 L 73.952,44.6982 L 74.2335,44.8987 L 74.5162,45.0974 L 74.8002,45.2943 L 75.0854,45.4894 L 75.3718,45.6828
 L 75.6595,45.8743 L 75.9483,46.064 L 76.2383,46.2519 L 76.5295,46.438 L 76.8219,46.6223 L 77.1154,46.8047
 L 77.41,46.9852 L 77.7058,47.164 L 78.0027,47.3408 L 78.3007,47.5158 L 78.5998,47.6889 L 78.9,47.8601
 L 79.2012,48.0294 L 79.5036,48.1969 L 79.8069,48.3624 L 80.1113,48.526 L 80.4167,48.6877 L 80.7231,48.8475
 L 81.0305,49.0054 L 81.3389,49.1613 L 81.6483,49.3152 L 81.9586,49.4673 L 82.2699,49.6174 L 82.5822,49.7655
 L 82.8953,49.9116 L 83.2094,50.0558 L 83.5243,50.198 L 83.8401,50.3383 L 84.1569,50.4765 L 84.4745,50.6127
 L 84.7929,50.747 L 85.1122,50.8792 L 85.4323,51.0095 L 85.7532,51.1377 L 86.0749,51.2639 L 86.3974,51.3881
 L 86.7206,51.5102 L 87.0446,51.6304 L 87.3694,51.7484 L 87.6949,51.8645 L 88.0212,51.9785 L 88.3481,52.0904
 L 88.6758,52.2003 L 89.0041,52.3081 L 89.3331,52.4138 L 89.6627,52.5175 L 89.993,52.6192 L 90.3239,52.7187
 L 90.6555,52.8161 L 90.9877,52.9115 L 91.3204,53.0048 L 91.6537,53.096 L 91.9876,53.1851 L 92.3221,53.2721
 L 92.657,53.3569 L 92.9926,53.4397 L 93.3286,53.5204 L 93.6651,53.599 L 94.0021,53.6754 L 94.3396,53.7497
 L 94.6776,53.8219 L 95.016,53.892 L 95.3548,53.96 L 95.694,54.0258 L 96.0337,54.0895 L 96.3737,54.151
 L 96.7142,54.2104 L 97.055,54.2677 L 97.3961,54.3228 L 97.7376,54.3758 L 98.0794,54.4267 L 98.4215,54.4754
 L 98.764,54.5219 L 99.1067,54.5663 L 99.4497,54.6085 L 99.7929,54.6486 L 100.136,54.6865 L 100.48,54.7223
 L 100.824,54.7559 L 101.168,54.7873 L 101.513,54.8166 L 101.857,54.8437 L 102.202,54.8687 L 102.547,54.8915
 L 102.891,54.9121 L 103.237,54.9305 L 103.582,54.9468 L 103.927,54.9609 L 104.272,54.9729 L 104.618,54.9826
 L 104.963,54.9902 L 105.309,54.9957 L 105.654,54.9989 L 106,55 z
M 105.661,-40.0591 L 105.382,-40.2137 L 105.166,-40.4483 L 105.035,-40.7392 L 105.002,-41.0565 L 105.073,-41.3739
 L 105.242,-41.6518 L 105.486,-41.8575 L 105.788,-41.9773 L 106.107,-41.9943 L 106.414,-41.9101 L 106.68,-41.7332
 L 106.876,-41.4818 L 106.983,-41.1812 L 106.99,-40.8622 L 106.897,-40.5572 L 106.712,-40.2973 L 106.454,-40.109
 L 106.303,-40.047 L 105.981,-40.0002 z
M 88,36 L 88,17.3493 L 87.7758,17.1137 L 87.4565,16.7671 L 87.1437,16.4146 L 86.8377,16.0563
 L 86.5385,15.6923 L 86.2461,15.3227 L 85.9608,14.9476 L 85.6826,14.5673 L 85.4117,14.1817 L 85.148,13.7911
 L 84.8918,13.3957 L 84.6431,12.9954 L 84.4019,12.5906 L 84.1684,12.1812 L 83.9427,11.7676 L 83.7248,11.3498
 L 83.5149,10.9279 L 83.3129,10.5021 L 83.119,10.0726 L 82.9332,9.63959 L 82.7556,9.20311 L 82.5863,8.76335
 L 82.4252,8.32048 L 82.2726,7.87465 L 82.1284,7.42603 L 81.9927,6.97478 L 81.8655,6.52103 L 81.7468,6.06497
 L 81.6368,5.60677 L 81.5355,5.14656 L 81.4428,4.68452 L 81.3589,4.22083 L 81.2837,3.75563 L 81.2173,3.28911
 L 81.1597,2.8214 L 81.111,2.35271 L 81.071,1.88316 L 81.04,1.41295 L 81.0178,0.942245 L 81.0045,0.471207
 L 81,-0 L 81.0045,-0.471207 L 81.0178,-0.942245 L 81.04,-1.41295 L 81.071,-1.88316 L 81.111,-2.35271
 L 81.1597,-2.8214 L 81.2173,-3.28911 L 81.2837,-3.75563 L 81.3589,-4.22083 L 81.4428,-4.68452 L 81.5355,-5.14656
 L 81.6368,-5.60677 L 81.7468,-6.06497 L 81.8655,-6.52103 L 81.9927,-6.97478 L 82.1284,-7.42603 L 82.2726,-7.87465
 L 82.4252,-8.32048 L 82.5863,-8.76335 L 82.7556,-9.20311 L 82.9332,-9.63959 L 83.119,-10.0726 L 83.3129,-10.5021
 L 83.5149,-10.9279 L 83.7248,-11.3498 L 83.9427,-11.7676 L 84.1684,-12.1812 L 84.4019,-12.5906 L 84.6431,-12.9954
 L 84.8918,-13.3957 L 85.148,-13.7911 L 85.4117,-14.1817 L 85.6826,-14.5673 L 85.9608,-14.9476 L 86.2461,-15.3227
 L 86.5385,-15.6923 L 86.8377,-16.0563 L 87.1437,-16.4146 L 87.4565,-16.7671 L 87.7758,-17.1137 L 88,-17.3493
 L 88,-36 L 124,-36 L 124,-17.3493 L 124.224,-17.1137 L 124.544,-16.7671 L 124.856,-16.4146
 L 125.162,-16.0563 L 125.462,-15.6923 L 125.754,-15.3227 L 126.039,-14.9476 L 126.317,-14.5673 L 126.588,-14.1817
 L 126.852,-13.7911 L 127.108,-13.3957 L 127.357,-12.9954 L 127.598,-12.5906 L 127.832,-12.1812 L 128.057,-11.7676
 L 128.275,-11.3498 L 128.485,-10.9279 L 128.687,-10.5021 L 128.881,-10.0726 L 129.067,-9.63959 L 129.244,-9.20311
 L 129.414,-8.76335 L 129.575,-8.32048 L 129.727,-7.87465 L 129.872,-7.42603 L 130.007,-6.97478 L 130.135,-6.52103
 L 130.253,-6.06497 L 130.363,-5.60677 L 130.465,-5.14656 L 130.557,-4.68452 L 130.641,-4.22083 L 130.716,-3.75563
 L 130.783,-3.28911 L 130.84,-2.8214 L 130.889,-2.35271 L 130.929,-1.88316 L 130.96,-1.41295 L 130.982,-0.942245
 L 130.996,-0.471207 L 131,-0 L 130.996,0.471207 L 130.982,0.942245 L 130.96,1.41295 L 130.929,1.88316
 L 130.889,2.35271 L 130.84,2.8214 L 130.783,3.28911 L 130.716,3.75563 L 130.641,4.22083 L 130.557,4.68452
 L 130.465,5.14656 L 130.363,5.60677 L 130.253,6.06497 L 130.135,6.52103 L 130.007,6.97478 L 129.872,7.42603
 L 129.727,7.87465 L 129.575,8.32048 L 129.414,8.76335 L 129.244,9.20311 L 129.067,9.63959 L 128.881,10.0726
 L 128.687,10.5021 L 128.485,10.9279 L 128.275,11.3498 L 128.057,11.7676 L 127.832,12.1812 L 127.598,12.5906
 L 127.357,12.9954 L 127.108,13.3957 L 126.852,13.7911 L 126.588,14.1817 L 126.317,14.5673 L 126.039,14.9476
 L 125.754,15.3227 L 125.462,15.6923 L 125.162,16.0563 L 124.856,16.4146 L 124.544,16.7671 L 124.224,17.1137
 L 124,17.3493 L 124,36 z
M 104,4.25916 L 103.674,4.16928 L 103.364,4.05757 L 103.063,3.92279 L 102.773,3.76573 L 102.496,3.58728
 L 102.233,3.38844 L 101.985,3.17035 L 101.755,2.93423 L 101.543,2.68146 L 101.351,2.41344 L 101.179,2.13171
 L 101.03,1.83786 L 100.903,1.53358 L 100.799,1.22058 L 100.719,0.900635 L 100.663,0.575592 L 100.632,0.247253
 L 100.626,-0.0824738 L 100.644,-0.411728 L 100.688,-0.738647 L 100.756,-1.06139 L 100.848,-1.37807 L 100.963,-1.68694
 L 101.102,-1.98622 L 101.263,-2.27422 L 101.444,-2.54929 L 101.647,-2.80986 L 101.868,-3.05447 L 102.107,-3.28174
 L 102.362,-3.49036 L 102.633,-3.67914 L 102.916,-3.84702 L 103.212,-3.99303 L 103.518,-4.11636 L 103.832,-4.21629
 L 104.153,-4.29228 L 104.479,-4.34387 L 104.808,-4.37077 L 105.137,-4.37285 L 105.466,-4.35007 L 105.793,-4.30258
 L 106.115,-4.23064 L 106.43,-4.13466 L 106.738,-4.01518 L 107.035,-3.87289 L 107.321,-3.7086 L 107.594,-3.52322
 L 107.852,-3.31784 L 108.094,-3.0936 L 108.318,-2.85178 L 108.523,-2.59375 L 108.709,-2.321 L 108.873,-2.03505
 L 109.015,-1.73753 L 109.135,-1.43015 L 109.231,-1.11462 L 109.303,-0.792786 L 109.35,-0.466431 L 109.373,-0.137436
 L 109.371,0.192352 L 109.344,0.521042 L 109.292,0.846771 L 109.216,1.16769 L 109.116,1.48196 L 108.993,1.78783
 L 108.847,2.08354 L 108.679,2.3674 L 108.49,2.6378 L 108.282,2.89323 L 108.054,3.13222 L 107.81,3.35339
 L 107.549,3.55553 L 107.274,3.73746 L 106.986,3.89815 L 106.687,4.03668 L 106.378,4.15228 L 106.061,4.24429
 L 106,4.25916 L 106,25.625 L 115,25.625 L 115,22.625 L 114.655,22.6131 L 114.311,22.5773
 L 113.971,22.5179 L 113.635,22.4351 L 113.306,22.3294 L 112.985,22.2012 L 112.674,22.0511 L 112.374,21.88
 L 112.087,21.6885 L 111.813,21.4776 L 111.554,21.2483 L 111.312,21.0017 L 111.088,20.7389 L 110.882,20.4613
 L 110.696,20.1702 L 110.531,19.8669 L 110.387,19.5529 L 110.264,19.2297 L 110.165,18.8988 L 110.089,18.5619
 L 110.036,18.2205 L 110.006,17.8762 L 110.001,17.5307 L 110.019,17.1857 L 110.062,16.8428 L 110.127,16.5036
 L 110.216,16.1698 L 110.328,15.8429 L 110.463,15.5246 L 110.618,15.2162 L 110.795,14.9194 L 110.992,14.6355
 L 111.208,14.3658 L 111.442,14.1117 L 111.693,13.8744 L 111.96,13.655 L 112.242,13.4546 L 112.536,13.2741
 L 112.843,13.1143 L 113.159,12.9761 L 113.485,12.8601 L 113.818,12.7668 L 114.156,12.6968 L 114.498,12.6502
 L 114.843,12.6275 L 115,12.625 L 115,-14.375 L 95,-14.375 L 95,12.625 L 95.3453,12.6369
 L 95.689,12.6727 L 96.0293,12.7321 L 96.3648,12.8148 L 96.6937,12.9206 L 97.0145,13.0488 L 97.3258,13.1988
 L 97.6259,13.37 L 97.9135,13.5615 L 98.1871,13.7724 L 98.4456,14.0017 L 98.6876,14.2483 L 98.912,14.511
 L 99.1177,14.7887 L 99.3037,15.0798 L 99.4692,15.3831 L 99.6134,15.6971 L 99.7355,16.0203 L 99.835,16.3511
 L 99.9114,16.6881 L 99.9644,17.0295 L 99.9937,17.3738 L 99.9991,17.7192 L 99.9807,18.0643 L 99.9384,18.4072
 L 99.8726,18.7464 L 99.7836,19.0802 L 99.6716,19.4071 L 99.5374,19.7254 L 99.3815,20.0338 L 99.2047,20.3306
 L 99.0078,20.6145 L 98.7918,20.8842 L 98.5577,21.1382 L 98.3066,21.3755 L 98.0397,21.5949 L 97.7582,21.7954
 L 97.4636,21.9759 L 97.1573,22.1357 L 96.8406,22.2739 L 96.5152,22.3899 L 96.1825,22.4832 L 95.8442,22.5532
 L 95.5018,22.5997 L 95.1571,22.6225 L 95,22.625 L 95,25.625 L 104,25.625 z
M 111.661,-10.4341 L 111.382,-10.5887 L 111.166,-10.8233 L 111.035,-11.1142 L 111.002,-11.4315 L 111.073,-11.7489
 L 111.242,-12.0268 L 111.486,-12.2325 L 111.788,-12.3523 L 112.107,-12.3693 L 112.414,-12.2851 L 112.68,-12.1082
 L 112.876,-11.8568 L 112.983,-11.5562 L 112.99,-11.2372 L 112.897,-10.9322 L 112.712,-10.6723 L 112.454,-10.484
 L 112.303,-10.422 L 111.981,-10.3752 z
M 97.6613,-10.4341 L 97.3821,-10.5887 L 97.1659,-10.8233 L 97.0346,-11.1142 L 97.0016,-11.4315 L 97.0726,-11.7489
 L 97.2416,-12.0268 L 97.4856,-12.2325 L 97.788,-12.3523 L 98.1066,-12.3693 L 98.4144,-12.2851 L 98.68,-12.1082
 L 98.8763,-11.8568 L 98.9835,-11.5562 L 98.9905,-11.2372 L 98.8967,-10.9322 L 98.7115,-10.6723 L 98.454,-10.484
 L 98.303,-10.422 L 97.9812,-10.3752 z
M 111.661,-3.43413 L 111.382,-3.58871 L 111.166,-3.82336 L 111.035,-4.11417 L 111.002,-4.4315 L 111.073,-4.74895
 L 111.242,-5.02682 L 111.486,-5.23251 L 111.788,-5.35226 L 112.107,-5.36929 L 112.414,-5.2851 L 112.68,-5.10825
 L 112.876,-4.85675 L 112.983,-4.5562 L 112.99,-4.23721 L 112.897,-3.93225 L 112.712,-3.67236 L 112.454,-3.48399
 L 112.303,-3.42203 L 111.981,-3.37518 z
M 97.6613,-3.43413 L 97.3821,-3.58871 L 97.1659,-3.82336 L 97.0346,-4.11417 L 97.0016,-4.4315 L 97.0726,-4.74895
 L 97.2416,-5.02682 L 97.4856,-5.23251 L 97.788,-5.35226 L 98.1066,-5.36929 L 98.4144,-5.2851 L 98.68,-5.10825
 L 98.8763,-4.85675 L 98.9835,-4.5562 L 98.9905,-4.23721 L 98.8967,-3.93225 L 98.7115,-3.67236 L 98.454,-3.48399
 L 98.303,-3.42203 L 97.9812,-3.37518 z
M 64.6613,0.940872 L 64.3821,0.786285 L 64.1659,0.551636 L 64.0346,0.260834 L 64.0016,-0.0565033 L 64.0726,-0.373947
 L 64.2416,-0.651825 L 64.4856,-0.857513 L 64.788,-0.977264 L 65.1066,-0.994293 L 65.4144,-0.910095 L 65.68,-0.733246
 L 65.8763,-0.48175 L 65.9835,-0.181198 L 65.9905,0.137787 L 65.8967,0.442749 L 65.7115,0.702637 L 65.454,0.891006
 L 65.303,0.952972 L 64.9812,0.999817 z
M 146.661,0.940872 L 146.382,0.786285 L 146.166,0.551636 L 146.035,0.260834 L 146.002,-0.0565033 L 146.073,-0.373947
 L 146.242,-0.651825 L 146.486,-0.857513 L 146.788,-0.977264 L 147.107,-0.994293 L 147.414,-0.910095 L 147.68,-0.733246
 L 147.876,-0.48175 L 147.983,-0.181198 L 147.99,0.137787 L 147.897,0.442749 L 147.712,0.702637 L 147.454,0.891006
 L 147.303,0.952972 L 146.981,0.999817 z
M 105.661,41.9409 L 105.382,41.7863 L 105.166,41.5516 L 105.035,41.2608 L 105.002,40.9435 L 105.073,40.626
 L 105.242,40.3482 L 105.486,40.1425 L 105.788,40.0227 L 106.107,40.0057 L 106.414,40.0899 L 106.68,40.2667
 L 106.876,40.5182 L 106.983,40.8188 L 106.99,41.1378 L 106.897,41.4427 L 106.712,41.7026 L 106.454,41.891
 L 106.303,41.953 L 105.981,41.9998 z
M 0.578033,45.9964 L 1.15598,45.9855 L 1.73373,45.9673 L 2.31123,45.9419 L 2.88835,45.9092 L 3.46503,45.8693
 L 4.04115,45.8221 L 4.61664,45.7677 L 5.19139,45.7061 L 5.76532,45.6373 L 6.33835,45.5612 L 6.91037,45.478
 L 7.48131,45.3875 L 8.05106,45.2899 L 8.61954,45.1852 L 9.18665,45.0733 L 9.75232,44.9543 L 10.3165,44.8282
 L 10.879,44.6951 L 11.4397,44.5548 L 11.9987,44.4075 L 12.5558,44.2533 L 13.1109,44.092 L 13.6639,43.9238
 L 14.2148,43.7486 L 14.7634,43.5665 L 15.3097,43.3776 L 15.8536,43.1817 L 16.3949,42.9791 L 16.9337,42.7697
 L 17.4698,42.5535 L 18.0032,42.3307 L 18.5337,42.1011 L 19.0613,41.8649 L 19.5858,41.622 L 20.1073,41.3726
 L 20.6256,41.1167 L 21.1407,40.8543 L 21.6524,40.5854 L 22.1607,40.3101 L 22.6655,40.0284 L 23.1667,39.7405
 L 23.6642,39.4462 L 24.158,39.1457 L 24.648,38.8391 L 25.1341,38.5263 L 25.6163,38.2074 L 26.0944,37.8825
 L 26.5683,37.5516 L 27.0381,37.2148 L 27.5036,36.8721 L 27.9648,36.5235 L 28.4215,36.1693 L 28.8738,35.8093
 L 29.3215,35.4436 L 29.7646,35.0723 L 30.2029,34.6956 L 30.6365,34.3133 L 31.0653,33.9256 L 31.4892,33.5325
 L 31.9081,33.1342 L 32.3219,32.7306 L 32.7306,32.3219 L 33.1342,31.9081 L 33.5325,31.4892 L 33.9256,31.0653
 L 34.3133,30.6365 L 34.6956,30.2029 L 35.0723,29.7646 L 35.4436,29.3215 L 35.8093,28.8738 L 36.1693,28.4215
 L 36.5235,27.9648 L 36.8721,27.5036 L 37.2148,27.0381 L 37.5516,26.5683 L 37.8825,26.0944 L 38.2074,25.6163
 L 38.5263,25.1341 L 38.8391,24.648 L 39.1457,24.158 L 39.4462,23.6642 L 39.7405,23.1667 L 40.0284,22.6655
 L 40.3101,22.1607 L 40.5854,21.6524 L 40.8543,21.1407 L 41.1167,20.6256 L 41.3726,20.1073 L 41.622,19.5858
 L 41.8649,19.0613 L 42.1011,18.5337 L 42.3307,18.0032 L 42.5535,17.4698 L 42.7697,16.9337 L 42.9791,16.3949
 L 43.1817,15.8536 L 43.3776,15.3097 L 43.5665,14.7634 L 43.7486,14.2148 L 43.9238,13.6639 L 44.092,13.1109
 L 44.2533,12.5558 L 44.4075,11.9987 L 44.5548,11.4397 L 44.6951,10.879 L 44.8282,10.3165 L 44.9543,9.75232
 L 45.0733,9.18665 L 45.1852,8.61954 L 45.2899,8.05106 L 45.3875,7.48131 L 45.478,6.91037 L 45.5612,6.33835
 L 45.6373,5.76532 L 45.7061,5.19139 L 45.7677,4.61664 L 45.8221,4.04115 L 45.8693,3.46503 L 45.9092,2.88835
 L 45.9419,2.31123 L 45.9673,1.73373 L 45.9855,1.15598 L 45.9964,0.578033 L 46,-0 L 45.9964,-0.578033
 L 45.9855,-1.15598 L 45.9673,-1.73373 L 45.9419,-2.31123 L 45.9092,-2.88835 L 45.8693,-3.46503 L 45.8221,-4.04115
 L 45.7677,-4.61664 L 45.7061,-5.19139 L 45.6373,-5.76532 L 45.5612,-6.33835 L 45.478,-6.91037 L 45.3875,-7.48131
 L 45.2899,-8.05106 L 45.1852,-8.61954 L 45.0733,-9.18665 L 44.9543,-9.75232 L 44.8282,-10.3165 L 44.6951,-10.879
 L 44.5548,-11.4397 L 44.4075,-11.9987 L 44.2533,-12.5558 L 44.092,-13.1109 L 43.9238,-13.6639 L 43.7486,-14.2148
 L 43.5665,-14.7634 L 43.3776,-15.3097 L 43.1817,-15.8536 L 42.9791,-16.3949 L 42.7697,-16.9337 L 42.5535,-17.4698
 L 42.3307,-18.0032 L 42.1011,-18.5337 L 41.8649,-19.0613 L 41.622,-19.5858 L 41.3726,-20.1073 L 41.1167,-20.6256
 L 40.8543,-21.1407 L 40.5854,-21.6524 L 40.3101,-22.1607 L 40.0284,-22.6655 L 39.7405,-23.1667 L 39.4462,-23.6642
 L 39.1457,-24.158 L 38.8391,-24.648 L 38.5263,-25.1341 L 38.2074,-25.6163 L 37.8825,-26.0944 L 37.5516,-26.5683
 L 37.2148,-27.0381 L 36.8721,-27.5036 L 36.5235,-27.9648 L 36.1693,-28.4215 L 35.8093,-28.8738 L 35.4436,-29.3215
 L 35.0723,-29.7646 L 34.6956,-30.2029 L 34.3133,-30.6365 L 33.9256,-31.0653 L 33.5325,-31.4892 L 33.1342,-31.9081
 L 32.7306,-32.3219 L 32.3219,-32.7306 L 31.9081,-33.1342 L 31.4892,-33.5325 L 31.0653,-33.9256 L 30.6365,-34.3133
 L 30.2029,-34.6956 L 29.7646,-35.0723 L 29.3215,-35.4436 L 28.8738,-35.8093 L 28.4215,-36.1693 L 27.9648,-36.5235
 L 27.5036,-36.8721 L 27.0381,-37.2148 L 26.5683,-37.5516 L 26.0944,-37.8825 L 25.6163,-38.2074 L 25.1341,-38.5263
 L 24.648,-38.8391 L 24.158,-39.1457 L 23.6642,-39.4462 L 23.1667,-39.7405 L 22.6655,-40.0284 L 22.1607,-40.3101
 L 21.6524,-40.5854 L 21.1407,-40.8543 L 20.6256,-41.1167 L 20.1073,-41.3726 L 19.5858,-41.622 L 19.0613,-41.8649
 L 18.5337,-42.1011 L 18.0032,-42.3307 L 17.4698,-42.5535 L 16.9337,-42.7697 L 16.3949,-42.9791 L 15.8536,-43.1817
 L 15.3097,-43.3776 L 14.7634,-43.5665 L 14.2148,-43.7486 L 13.6639,-43.9238 L 13.1109,-44.092 L 12.5558,-44.2533
 L 11.9987,-44.4075 L 11.4397,-44.5548 L 10.879,-44.6951 L 10.3165,-44.8282 L 9.75232,-44.9543 L 9.18665,-45.0733
 L 8.61954,-45.1852 L 8.05106,-45.2899 L 7.48131,-45.3875 L 6.91037,-45.478 L 6.33835,-45.5612 L 5.76532,-45.6373
 L 5.19139,-45.7061 L 4.61664,-45.7677 L 4.04115,-45.8221 L 3.46503,-45.8693 L 2.88835,-45.9092 L 2.31123,-45.9419
 L 1.73373,-45.9673 L 1.15598,-45.9855 L 0.578033,-45.9964 L 0,-46 L -0.578033,-45.9964 L -1.15598,-45.9855
 L -1.73373,-45.9673 L -2.31123,-45.9419 L -2.88835,-45.9092 L -3.46503,-45.8693 L -4.04115,-45.8221 L -4.61664,-45.7677
 L -5.19139,-45.7061 L -5.76532,-45.6373 L -6.33835,-45.5612 L -6.91037,-45.478 L -7.48131,-45.3875 L -8.05106,-45.2899
 L -8.61954,-45.1852 L -9.18665,-45.0733 L -9.75232,-44.9543 L -10.3165,-44.8282 L -10.879,-44.6951 L -11.4397,-44.5548
 L -11.9987,-44.4075 L -12.5558,-44.2533 L -13.1109,-44.092 L -13.6639,-43.9238 L -14.2148,-43.7486 L -14.7634,-43.5665
 L -15.3097,-43.3776 L -15.8536,-43.1817 L -16.3949,-42.9791 L -16.9337,-42.7697 L -17.4698,-42.5535 L -18.0032,-42.3307
 L -18.5337,-42.1011 L -19.0613,-41.8649 L -19.5858,-41.622 L -20.1073,-41.3726 L -20.6256,-41.1167 L -21.1407,-40.8543
 L -21.6524,-40.5854 L -22.1607,-40.3101 L -22.6655,-40.0284 L -23.1667,-39.7405 L -23.6642,-39.4462 L -24.158,-39.1457
 L -24.648,-38.8391 L -25.1341,-38.5263 L -25.6163,-38.2074 L -26.0944,-37.8825 L -26.5683,-37.5516 L -27.0381,-37.2148
 L -27.5036,-36.8721 L -27.9648,-36.5235 L -28.4215,-36.1693 L -28.8738,-35.8093 L -29.3215,-35.4436 L -29.7646,-35.0723
 L -30.2029,-34.6956 L -30.6365,-34.3133 L -31.0653,-33.9256 L -31.4892,-33.5325 L -31.9081,-33.1342 L -32.3219,-32.7306
 L -32.7306,-32.3219 L -33.1342,-31.9081 L -33.5325,-31.4892 L -33.9256,-31.0653 L -34.3133,-30.6365 L -34.6956,-30.2029
 L -35.0723,-29.7646 L -35.4436,-29.3215 L -35.8093,-28.8738 L -36.1693,-28.4215 L -36.5235,-27.9648 L -36.8721,-27.5036
 L -37.2148,-27.0381 L -37.5516,-26.5683 L -37.8825,-26.0944 L -38.2074,-25.6163 L -38.5263,-25.1341 L -38.8391,-24.648
 L -39.1457,-24.158 L -39.4462,-23.6642 L -39.7405,-23.1667 L -40.0284,-22.6655 L -40.3101,-22.1607 L -40.5854,-21.6524
 L -40.8543,-21.1407 L -41.1167,-20.6256 L -41.3726,-20.1073 L -41.622,-19.5858 L -41.8649,-19.0613 L -42.1011,-18.5337
 L -42.3307,-18.0032 L -42.5535,-17.4698 L -42.7697,-16.9337 L -42.9791,-16.3949 L -43.1817,-15.8536 L -43.3776,-15.3097
 L -43.5665,-14.7634 L -43.7486,-14.2148 L -43.9238,-13.6639 L -44.092,-13.1109 L -44.2533,-12.5558 L -44.4075,-11.9987
 L -44.5548,-11.4397 L -44.6951,-10.879 L -44.8282,-10.3165 L -44.9543,-9.75232 L -45.0733,-9.18665 L -45.1852,-8.61954
 L -45.2899,-8.05106 L -45.3875,-7.48131 L -45.478,-6.91037 L -45.5612,-6.33835 L -45.6373,-5.76532 L -45.7061,-5.19139
 L -45.7677,-4.61664 L -45.8221,-4.04115 L -45.8693,-3.46503 L -45.9092,-2.88835 L -45.9419,-2.31123 L -45.9673,-1.73373
 L -45.9855,-1.15598 L -45.9964,-0.578033 L -46,-0 L -45.9964,0.578033 L -45.9855,1.15598 L -45.9673,1.73373
 L -45.9419,2.31123 L -45.9092,2.88835 L -45.8693,3.46503 L -45.8221,4.04115 L -45.7677,4.61664 L -45.7061,5.19139
 L -45.6373,5.76532 L -45.5612,6.33835 L -45.478,6.91037 L -45.3875,7.48131 L -45.2899,8.05106 L -45.1852,8.61954
 L -45.0733,9.18665 L -44.9543,9.75232 L -44.8282,10.3165 L -44.6951,10.879 L -44.5548,11.4397 L -44.4075,11.9987
 L -44.2533,12.5558 L -44.092,13.1109 L -43.9238,13.6639 L -43.7486,14.2148 L -43.5665,14.7634 L -43.3776,15.3097
 L -43.1817,15.8536 L -42.9791,16.3949 L -42.7697,16.9337 L -42.5535,17.4698 L -42.3307,18.0032 L -42.1011,18.5337
 L -41.8649,19.0613 L -41.622,19.5858 L -41.3726,20.1073 L -41.1167,20.6256 L -40.8543,21.1407 L -40.5854,21.6524
 L -40.3101,22.1607 L -40.0284,22.6655 L -39.7405,23.1667 L -39.4462,23.6642 L -39.1457,24.158 L -38.8391,24.648
 L -38.5263,25.1341 L -38.2074,25.6163 L -37.8825,26.0944 L -37.5516,26.5683 L -37.2148,27.0381 L -36.8721,27.5036
 L -36.5235,27.9648 L -36.1693,28.4215 L -35.8093,28.8738 L -35.4436,29.3215 L -35.0723,29.7646 L -34.6956,30.2029
 L -34.3133,30.6365 L -33.9256,31.0653 L -33.5325,31.4892 L -33.1342,31.9081 L -32.7306,32.3219 L -32.3219,32.7306
 L -31.9081,33.1342 L -31.4892,33.5325 L -31.0653,33.9256 L -30.6365,34.3133 L -30.2029,34.6956 L -29.7646,35.0723
 L -29.3215,35.4436 L -28.8738,35.8093 L -28.4215,36.1693 L -27.9648,36.5235 L -27.5036,36.8721 L -27.0381,37.2148
 L -26.5683,37.5516 L -26.0944,37.8825 L -25.6163,38.2074 L -25.1341,38.5263 L -24.648,38.8391 L -24.158,39.1457
 L -23.6642,39.4462 L -23.1667,39.7405 L -22.6655,40.0284 L -22.1607,40.3101 L -21.6524,40.5854 L -21.1407,40.8543
 L -20.6256,41.1167 L -20.1073,41.3726 L -19.5858,41.622 L -19.0613,41.8649 L -18.5337,42.1011 L -18.0032,42.3307
 L -17.4698,42.5535 L -16.9337,42.7697 L -16.3949,42.9791 L -15.8536,43.1817 L -15.3097,43.3776 L -14.7634,43.5665
 L -14.2148,43.7486 L -13.6639,43.9238 L -13.1109,44.092 L -12.5558,44.2533 L -11.9987,44.4075 L -11.4397,44.5548
 L -10.879,44.6951 L -10.3165,44.8282 L -9.75232,44.9543 L -9.18665,45.0733 L -8.61954,45.1852 L -8.05106,45.2899
 L -7.48131,45.3875 L -6.91037,45.478 L -6.33835,45.5612 L -5.76532,45.6373 L -5.19139,45.7061 L -4.61664,45.7677
 L -4.04115,45.8221 L -3.46503,45.8693 L -2.88835,45.9092 L -2.31123,45.9419 L -1.73373,45.9673 L -1.15598,45.9855
 L -0.578033,45.9964 L 0,46 z
M -0.33873,-40.0591 L -0.617859,-40.2137 L -0.834076,-40.4483 L -0.965378,-40.7392 L -0.998398,-41.0565 L -0.927444,-41.3739
 L -0.758362,-41.6518 L -0.514435,-41.8575 L -0.212006,-41.9773 L 0.106598,-41.9943 L 0.414368,-41.9101 L 0.679947,-41.7332
 L 0.876297,-41.4818 L 0.983444,-41.1812 L 0.990448,-40.8622 L 0.896637,-40.5572 L 0.711533,-40.2973 L 0.453979,-40.109
 L 0.303024,-40.047 L -0.0188446,-40.0002 z
M -7.33873,-10.4341 L -7.61786,-10.5887 L -7.83408,-10.8233 L -7.96538,-11.1142 L -7.9984,-11.4315 L -7.92744,-11.7489
 L -7.75836,-12.0268 L -7.51443,-12.2325 L -7.21201,-12.3523 L -6.89339,-12.3693 L -6.58562,-12.2851 L -6.32004,-12.1082
 L -6.12369,-11.8568 L -6.01654,-11.5562 L -6.00954,-11.2372 L -6.10335,-10.9322 L -6.28845,-10.6723 L -6.54601,-10.484
 L -6.69696,-10.422 L -7.01884,-10.3752 z
M 6.66125,-10.4341 L 6.38213,-10.5887 L 6.16591,-10.8233 L 6.03461,-11.1142 L 6.00159,-11.4315 L 6.07254,-11.7489
 L 6.24162,-12.0268 L 6.48555,-12.2325 L 6.78798,-12.3523 L 7.1066,-12.3693 L 7.41437,-12.2851 L 7.67995,-12.1082
 L 7.8763,-11.8568 L 7.98344,-11.5562 L 7.99045,-11.2372 L 7.89664,-10.9322 L 7.71153,-10.6723 L 7.45398,-10.484
 L 7.30302,-10.422 L 6.98114,-10.3752 z
M -7.33873,-3.43411 L -7.61786,-3.5887 L -7.83408,-3.82335 L -7.96538,-4.11415 L -7.9984,-4.4315 L -7.92744,-4.74895
 L -7.75836,-5.02682 L -7.51443,-5.23251 L -7.21201,-5.35226 L -6.89339,-5.36929 L -6.58562,-5.2851 L -6.32004,-5.10825
 L -6.12369,-4.85675 L -6.01654,-4.5562 L -6.00954,-4.2372 L -6.10335,-3.93224 L -6.28845,-3.67235 L -6.54601,-3.48398
 L -6.69696,-3.42201 L -7.01884,-3.37517 z
M 6.66125,-3.43411 L 6.38213,-3.5887 L 6.16591,-3.82335 L 6.03461,-4.11415 L 6.00159,-4.4315 L 6.07254,-4.74895
 L 6.24162,-5.02682 L 6.48555,-5.23251 L 6.78798,-5.35226 L 7.1066,-5.36929 L 7.41437,-5.2851 L 7.67995,-5.10825
 L 7.8763,-4.85675 L 7.98344,-4.5562 L 7.99045,-4.2372 L 7.89664,-3.93224 L 7.71153,-3.67235 L 7.45398,-3.48398
 L 7.30302,-3.42201 L 6.98114,-3.37517 z
M -0.384338,4.35808 L -0.711533,4.31674 L -1.03467,4.25089 L -1.35194,4.16086 L -1.66153,4.04721 L -1.96167,3.91055
 L -2.25067,3.75168 L -2.52687,3.57147 L -2.78873,3.37099 L -3.03473,3.15135 L -3.26349,2.91379 L -3.47369,2.65968
 L -3.66418,2.39047 L -3.83383,2.10767 L -3.9817,1.81288 L -4.10695,1.50781 L -4.20886,1.19415 L -4.28687,0.873718
 L -4.3405,0.548325 L -4.36946,0.219818 L -4.37361,-0.10994 L -4.35291,-0.439072 L -4.30746,-0.765717 L -4.23755,-1.08801
 L -4.14355,-1.40411 L -4.026,-1.71225 L -3.88559,-2.01065 L -3.7231,-2.29764 L -3.53944,-2.57155 L -3.33568,-2.83086
 L -3.11296,-3.07408 L -2.87256,-3.29984 L -2.61583,-3.50685 L -2.34424,-3.69392 L -2.05933,-3.86002 L -1.76271,-4.00417
 L -1.45609,-4.12558 L -1.14117,-4.22354 L -0.819778,-4.2975 L -0.493744,-4.34705 L -0.164886,-4.37189 L 0.164886,-4.37189
 L 0.493744,-4.34705 L 0.819778,-4.2975 L 1.14117,-4.22354 L 1.45609,-4.12558 L 1.76271,-4.00417 L 2.05933,-3.86002
 L 2.34424,-3.69392 L 2.61583,-3.50685 L 2.87256,-3.29984 L 3.11296,-3.07408 L 3.33568,-2.83086 L 3.53944,-2.57155
 L 3.7231,-2.29764 L 3.88559,-2.01065 L 4.026,-1.71225 L 4.14355,-1.40411 L 4.23755,-1.08801 L 4.30746,-0.765717
 L 4.35291,-0.439072 L 4.37361,-0.10994 L 4.36946,0.219818 L 4.3405,0.548325 L 4.28687,0.873718 L 4.20886,1.19415
 L 4.10695,1.50781 L 3.9817,1.81288 L 3.83383,2.10767 L 3.66418,2.39047 L 3.47369,2.65968 L 3.26349,2.91379
 L 3.03473,3.15135 L 2.78873,3.37099 L 2.52687,3.57147 L 2.25067,3.75168 L 1.96167,3.91055 L 1.66153,4.04721
 L 1.35194,4.16086 L 1.03467,4.25089 L 0.711533,4.31674 L 0.384338,4.35808 L 0.274704,4.36636 L -0.0549622,4.37465
 z
M -41.3387,0.940872 L -41.6179,0.786285 L -41.8341,0.551636 L -41.9654,0.260834 L -41.9984,-0.0565033 L -41.9274,-0.373947
 L -41.7584,-0.651825 L -41.5144,-0.857513 L -41.212,-0.977264 L -40.8934,-0.994293 L -40.5856,-0.910095 L -40.32,-0.733246
 L -40.1237,-0.48175 L -40.0165,-0.181198 L -40.0095,0.137787 L -40.1033,0.442749 L -40.2885,0.702637 L -40.546,0.891006
 L -40.697,0.952972 L -41.0188,0.999817 z
M 40.6613,0.940872 L 40.3821,0.786285 L 40.1659,0.551636 L 40.0346,0.260834 L 40.0016,-0.0565033 L 40.0725,-0.373947
 L 40.2416,-0.651825 L 40.4855,-0.857513 L 40.788,-0.977264 L 41.1066,-0.994293 L 41.4144,-0.910095 L 41.6799,-0.733246
 L 41.8763,-0.48175 L 41.9834,-0.181198 L 41.9904,0.137787 L 41.8966,0.442749 L 41.7115,0.702637 L 41.454,0.891006
 L 41.303,0.952972 L 40.9811,0.999817 z
M -18,30 L -18,10 L 18,10 L 18,30 z
M -0.33873,41.9409 L -0.617859,41.7863 L -0.834076,41.5516 L -0.965378,41.2608 L -0.998398,40.9435 L -0.927444,40.626
 L -0.758362,40.3482 L -0.514435,40.1425 L -0.212006,40.0227 L 0.106598,40.0057 L 0.414368,40.0899 L 0.679947,40.2667
 L 0.876297,40.5182 L 0.983444,40.8188 L 0.990448,41.1378 L 0.896637,41.4427 L 0.711533,41.7026 L 0.453979,41.891
 L 0.303024,41.953 L -0.0188446,41.9998 z
" stroke="black" fill="none" stroke-width="0.5"/></svg>
