<?xml version="1.0" standalone="no"?>
<!DOCTYPE svg PUBLIC "-//W3C//DTD SVG 1.1//EN" "http://www.w3.org/Graphics/SVG/1.1/DTD/svg11.dtd">
<svg width="45" height="40" viewBox="-10 -10 45 40" xmlns="http://www.w3.org/2000/svg" version="1.1">
<title>OpenSCAD Model</title>
<path d="
M -1,8.50566 L -1.31331,8.41698 L -1.61406,8.30656 L -1.92946,8.16177 L -2.20921,8.00568 L -2.47643,7.82895
 L -2.72957,7.63258 L -2.96719,7.41772 L -3.20557,7.16548 L -3.40665,6.91609 L -3.60263,6.62967 L -3.76222,6.35188
 L -3.90045,6.06287 L -4.01651,5.76427 L -4.11647,5.43193 L -4.18439,5.11884 L -4.22853,4.80153 L -4.24866,4.4818
 L -4.24463,4.16145 L -4.21648,3.84233 L -4.16438,3.52623 L -4.08861,3.21495 L -3.98961,2.91026 L -3.86794,2.61389
 L -3.71136,2.30418 L -3.54483,2.0305 L -3.35815,1.77014 L -3.13443,1.50482 L -2.90932,1.27687 L -2.66768,1.06653
 L -2.41089,0.874985 L -2.1404,0.703323 L -1.85773,0.552521 L -1.56451,0.423447 L -1.26242,0.316818 L -0.95314,0.233246
 L -0.638458,0.173218 L -0.293503,0.135132 L 0.0533905,0.12532 L 0.373367,0.141418 L 0.691208,0.18158 L 1.00511,0.24556
 L 1.31331,0.333008 L 1.61406,0.44342 L 1.92946,0.588211 L 2.20921,0.744308 L 2.47643,0.921036 L 2.72957,1.1174
 L 2.96719,1.33226 L 3.20557,1.5845 L 3.40665,1.83389 L 3.60263,2.12032 L 3.76222,2.3981 L 3.90045,2.68712
 L 4.01651,2.98572 L 4.11647,3.31805 L 4.18439,3.63115 L 4.22853,3.94846 L 4.24866,4.26819 L 4.24463,4.58853
 L 4.21648,4.90765 L 4.16438,5.22375 L 4.08861,5.53503 L 3.98961,5.83972 L 3.86794,6.13609 L 3.71136,6.4458
 L 3.54483,6.71948 L 3.35815,6.97984 L 3.13443,7.24516 L 2.90932,7.47311 L 2.66768,7.68346 L 2.41089,7.875
 L 2.1404,8.04666 L 1.85773,8.19746 L 1.56451,8.32654 L 1.26242,8.43317 L 1,8.50566 L 1,30
 L 10,30 L 9.99998,27 L 9.65469,26.9881 L 9.31104,26.9523 L 8.97067,26.8929 L 8.63524,26.8101
 L 8.3063,26.7044 L 7.98546,26.5762 L 7.67424,26.4261 L 7.37411,26.255 L 7.08653,26.0635 L 6.81287,25.8526
 L 6.55443,25.6233 L 6.31242,25.3767 L 6.08804,25.1139 L 5.88232,24.8363 L 5.69629,24.5452 L 5.53079,24.2419
 L 5.38663,23.9279 L 5.2645,23.6047 L 5.16498,23.2738 L 5.08856,22.9369 L 5.03558,22.5955 L 5.0063,22.2512
 L 5.00089,21.9057 L 5.01932,21.5607 L 5.06155,21.2178 L 5.12737,20.8786 L 5.21643,20.5448 L 5.32835,20.2179
 L 5.46257,19.8996 L 5.61845,19.5912 L 5.79527,19.2944 L 5.99216,19.0105 L 6.20818,18.7408 L 6.44231,18.4867
 L 6.69344,18.2494 L 6.96034,18.03 L 7.24176,17.8296 L 7.53636,17.6491 L 7.84271,17.4893 L 8.15936,17.3511
 L 8.48482,17.2351 L 8.8175,17.1418 L 9.15582,17.0718 L 9.49818,17.0252 L 9.84294,17.0025 L 10,17
 L 10,-10 L -10,-10 L -10,17 L -9.65469,17.0119 L -9.31104,17.0477 L -8.97067,17.1071
 L -8.63524,17.1898 L -8.3063,17.2956 L -7.98546,17.4238 L -7.67424,17.5738 L -7.37411,17.745 L -7.08653,17.9365
 L -6.81287,18.1474 L -6.55443,18.3767 L -6.31242,18.6233 L -6.08804,18.886 L -5.88232,19.1637 L -5.69629,19.4548
 L -5.53079,19.7581 L -5.38663,20.0721 L -5.2645,20.3953 L -5.16498,20.7261 L -5.08856,21.0631 L -5.03558,21.4045
 L -5.0063,21.7488 L -5.00089,22.0942 L -5.01932,22.4393 L -5.06155,22.7822 L -5.12737,23.1214 L -5.21643,23.4552
 L -5.32835,23.7821 L -5.46257,24.1004 L -5.61845,24.4088 L -5.79527,24.7056 L -5.99216,24.9895 L -6.20818,25.2592
 L -6.44231,25.5132 L -6.69344,25.7505 L -6.96034,25.9699 L -7.24176,26.1704 L -7.53636,26.3509 L -7.84271,26.5107
 L -8.15936,26.6489 L -8.48482,26.7649 L -8.8175,26.8582 L -9.15582,26.9282 L -9.49818,26.9747 L -9.84294,26.9975
 L -10,27 L -10,30 L -1,30 z
M -7.33873,-6.05911 L -7.61786,-6.2137 L -7.83408,-6.44835 L -7.96538,-6.73915 L -7.9984,-7.0565 L -7.92744,-7.37395
 L -7.75836,-7.65182 L -7.51443,-7.85751 L -7.21201,-7.97726 L -6.89339,-7.99429 L -6.58562,-7.9101 L -6.32004,-7.73325
 L -6.12369,-7.48175 L -6.01654,-7.1812 L -6.00954,-6.8622 L -6.10335,-6.55724 L -6.28845,-6.29735 L -6.54601,-6.10898
 L -6.69696,-6.04701 L -7.01884,-6.00017 z
M 6.66125,-6.05911 L 6.38213,-6.2137 L 6.16591,-6.44835 L 6.03461,-6.73915 L 6.00159,-7.0565 L 6.07254,-7.37395
 L 6.24162,-7.65182 L 6.48555,-7.85751 L 6.78798,-7.97726 L 7.1066,-7.99429 L 7.41437,-7.9101 L 7.67995,-7.73325
 L 7.8763,-7.48175 L 7.98344,-7.1812 L 7.99045,-6.8622 L 7.89664,-6.55724 L 7.71153,-6.29735 L 7.45398,-6.10898
 L 7.30302,-6.04701 L 6.98114,-6.00017 z
M 6.66125,0.940872 L 6.38213,0.786285 L 6.16591,0.551636 L 6.03461,0.260834 L 6.00159,-0.0565033 L 6.07254,-0.373947
 L 6.24162,-0.651825 L 6.48555,-0.857513 L 6.78798,-0.977264 L 7.1066,-0.994293 L 7.41437,-0.910095 L 7.67995,-0.733246
 L 7.8763,-0.48175 L 7.98344,-0.181198 L 7.99045,0.137787 L 7.89664,0.442749 L 7.71153,0.702637 L 7.45398,0.891006
 L 7.30302,0.952972 L 6.98114,0.999817 z
M -7.33873,0.940872 L -7.61786,0.786285 L -7.83408,0.551636 L -7.96538,0.260834 L -7.9984,-0.0565033 L -7.92744,-0.373947
 L -7.75836,-0.651825 L -7.51443,-0.857513 L -7.21201,-0.977264 L -6.89339,-0.994293 L -6.58562,-0.910095 L -6.32004,-0.733246
 L -6.12369,-0.48175 L -6.01654,-0.181198 L -6.00954,0.137787 L -6.10335,0.442749 L -6.28845,0.702637 L -6.54601,0.891006
 L -6.69696,0.952972 L -7.01884,0.999817 z
M 24,8.50566 L 23.6867,8.41698 L 23.3859,8.30656 L 23.0705,8.16177 L 22.7908,8.00568 L 22.5236,7.82895
 L 22.2704,7.63258 L 22.0328,7.41772 L 21.7944,7.16548 L 21.5934,6.91609 L 21.3974,6.62967 L 21.2378,6.35188
 L 21.0995,6.06287 L 20.9835,5.76427 L 20.8835,5.43193 L 20.8156,5.11884 L 20.7715,4.80153 L 20.7513,4.4818
 L 20.7554,4.16145 L 20.7835,3.84233 L 20.8356,3.52623 L 20.9114,3.21495 L 21.0104,2.91026 L 21.1321,2.61389
 L 21.2886,2.30418 L 21.4552,2.0305 L 21.6418,1.77014 L 21.8656,1.50482 L 22.0907,1.27687 L 22.3323,1.06653
 L 22.5891,0.874985 L 22.8596,0.703323 L 23.1423,0.552521 L 23.4355,0.423447 L 23.7376,0.316818 L 24.0469,0.233246
 L 24.3615,0.173218 L 24.7065,0.135132 L 25.0534,0.12532 L 25.3734,0.141418 L 25.6912,0.18158 L 26.0051,0.24556
 L 26.3133,0.333008 L 26.6141,0.44342 L 26.9295,0.588211 L 27.2092,0.744308 L 27.4764,0.921036 L 27.7296,1.1174
 L 27.9672,1.33226 L 28.2056,1.5845 L 28.4066,1.83389 L 28.6026,2.12032 L 28.7622,2.3981 L 28.9005,2.68712
 L 29.0165,2.98572 L 29.1165,3.31805 L 29.1844,3.63115 L 29.2285,3.94846 L 29.2487,4.26819 L 29.2446,4.58853
 L 29.2165,4.90765 L 29.1644,5.22375 L 29.0886,5.53503 L 28.9896,5.83972 L 28.8679,6.13609 L 28.7114,6.4458
 L 28.5448,6.71948 L 28.3582,6.97984 L 28.1344,7.24516 L 27.9093,7.47311 L 27.6677,7.68346 L 27.4109,7.875
 L 27.1404,8.04666 L 26.8577,8.19746 L 26.5645,8.32654 L 26.2624,8.43317 L 26,8.50566 L 26,30
 L 35,30 L 35,27 L 34.6547,26.9881 L 34.311,26.9523 L 33.9707,26.8929 L 33.6352,26.8101
 L 33.3063,26.7044 L 32.9855,26.5762 L 32.6742,26.4261 L 32.3741,26.255 L 32.0865,26.0635 L 31.8129,25.8526
 L 31.5544,25.6233 L 31.3124,25.3767 L 31.088,25.1139 L 30.8823,24.8363 L 30.6963,24.5452 L 30.5308,24.2419
 L 30.3866,23.9279 L 30.2645,23.6047 L 30.165,23.2738 L 30.0886,22.9369 L 30.0356,22.5955 L 30.0063,22.2512
 L 30.0009,21.9057 L 30.0193,21.5607 L 30.0616,21.2178 L 30.1274,20.8786 L 30.2164,20.5448 L 30.3284,20.2179
 L 30.4626,19.8996 L 30.6185,19.5912 L 30.7953,19.2944 L 30.9922,19.0105 L 31.2082,18.7408 L 31.4423,18.4867
 L 31.6934,18.2494 L 31.9603,18.03 L 32.2418,17.8296 L 32.5364,17.6491 L 32.8427,17.4893 L 33.1594,17.3511
 L 33.4848,17.2351 L 33.8175,17.1418 L 34.1558,17.0718 L 34.4982,17.0252 L 34.8429,17.0025 L 35,17
 L 35,-10 L 15,-10 L 15,17 L 15.3453,17.0119 L 15.689,17.0477 L 16.0293,17.1071
 L 16.3648,17.1898 L 16.6937,17.2956 L 17.0145,17.4238 L 17.3258,17.5738 L 17.6259,17.745 L 17.9135,17.9365
 L 18.1871,18.1474 L 18.4456,18.3767 L 18.6876,18.6233 L 18.912,18.886 L 19.1177,19.1637 L 19.3037,19.4548
 L 19.4692,19.7581 L 19.6134,20.0721 L 19.7355,20.3953 L 19.835,20.7261 L 19.9114,21.0631 L 19.9644,21.4045
 L 19.9937,21.7488 L 19.9991,22.0942 L 19.9807,22.4393 L 19.9384,22.7822 L 19.8726,23.1214 L 19.7836,23.4552
 L 19.6716,23.7821 L 19.5374,24.1004 L 19.3815,24.4088 L 19.2047,24.7056 L 19.0078,24.9895 L 18.7918,25.2592
 L 18.5577,25.5132 L 18.3066,25.7505 L 18.0397,25.9699 L 17.7582,26.1704 L 17.4636,26.3509 L 17.1573,26.5107
 L 16.8406,26.6489 L 16.5152,26.7649 L 16.1825,26.8582 L 15.8442,26.9282 L 15.5018,26.9747 L 15.1571,26.9975
 L 15,27 L 15,30 L 24,30 z
M 17.6613,-6.05911 L 17.3821,-6.2137 L 17.1659,-6.44835 L 17.0346,-6.73915 L 17.0016,-7.0565 L 17.0726,-7.37395
 L 17.2416,-7.65182 L 17.4856,-7.85751 L 17.788,-7.97726 L 18.1066,-7.99429 L 18.4144,-7.9101 L 18.68,-7.73325
 L 18.8763,-7.48175 L 18.9835,-7.1812 L 18.9905,-6.8622 L 18.8967,-6.55724 L 18.7115,-6.29735 L 18.454,-6.10898
 L 18.303,-6.04701 L 17.9812,-6.00017 z
M 31.6613,-6.05911 L 31.3821,-6.2137 L 31.1659,-6.44835 L 31.0346,-6.73915 L 31.0016,-7.0565 L 31.0725,-7.37395
 L 31.2416,-7.65182 L 31.4855,-7.85751 L 31.788,-7.97726 L 32.1066,-7.99429 L 32.4144,-7.9101 L 32.6799,-7.73325
 L 32.8763,-7.48175 L 32.9834,-7.1812 L 32.9904,-6.8622 L 32.8966,-6.55724 L 32.7115,-6.29735 L 32.454,-6.10898
 L 32.303,-6.04701 L 31.9811,-6.00017 z
M 31.6613,0.940872 L 31.3821,0.786285 L 31.1659,0.551636 L 31.0346,0.260834 L 31.0016,-0.0565033 L 31.0725,-0.373947
 L 31.2416,-0.651825 L 31.4855,-0.857513 L 31.788,-0.977264 L 32.1066,-0.994293 L 32.4144,-0.910095 L 32.6799,-0.733246
 L 32.8763,-0.48175 L 32.9834,-0.181198 L 32.9904,0.137787 L 32.8966,0.442749 L 32.7115,0.702637 L 32.454,0.891006
 L 32.303,0.952972 L 31.9811,0.999817 z
M 17.6613,0.940872 L 17.3821,0.786285 L 17.1659,0.551636 L 17.0346,0.260834 L 17.0016,-0.0565033 L 17.0726,-0.373947
 L 17.2416,-0.651825 L 17.4856,-0.857513 L 17.788,-0.977264 L 18.1066,-0.994293 L 18.4144,-0.910095 L 18.68,-0.733246
 L 18.8763,-0.48175 L 18.9835,-0.181198 L 18.9905,0.137787 L 18.8967,0.442749 L 18.7115,0.702637 L 18.454,0.891006
 L 18.303,0.952972 L 17.9812,0.999817 z
" stroke="black" fill="none" stroke-width="0.5"/></svg>
