<?xml version="1.0" standalone="no"?>
<!DOCTYPE svg PUBLIC "-//W3C//DTD SVG 1.1//EN" "http://www.w3.org/Graphics/SVG/1.1/DTD/svg11.dtd">
<svg width="165" height="110" viewBox="0 -85 165 110" xmlns="http://www.w3.org/2000/svg" version="1.1">
<title>OpenSCAD Model</title>
<path d="
M 165,-0.5 L 165,-59.5 L 145,-84.5 L 125,-84.5 L 125,-77.5 L 122,-77.5
 L 122,-71.5 L 125,-71.5 L 125,-64.5 L 145,-64.5 L 145,4.5 L 125,4.5
 L 125,11.5 L 122,11.5 L 122,17.5 L 125,17.5 L 125,24.5 L 145,24.5
 z
M 112.5,-65 L 121,-65 L 121,-67 L 100,-77 L 98,-77 L 98,-74
 L 95,-74 L 95,-68 L 98,-68 L 98,-65 L 106.5,-65 L 106.5,-62
 L 112.5,-62 z
M 37.5,-65 L 46,-65 L 46,-68 L 49,-68 L 49,-74 L 46,-74
 L 46,-77 L 44,-77 L 23,-67 L 23,-65 L 31.5,-65 L 31.5,-62
 L 37.5,-62 z
M 63,-65 L 94,-65 L 94,-77 L 50,-77 L 50,-65 L 57,-65
 L 57,-62 L 63,-62 z
M 63.1173,-73.5761 L 62.7929,-73.7929 L 62.5761,-74.1173 L 62.5,-74.5 L 62.5761,-74.8827 L 62.7929,-75.2071
 L 63.1173,-75.4239 L 63.5,-75.5 L 63.8827,-75.4239 L 64.2071,-75.2071 L 64.4239,-74.8827 L 64.5,-74.5
 L 64.4239,-74.1173 L 64.2071,-73.7929 L 63.8827,-73.5761 L 63.5,-73.5 z
M 77.7717,-71.8451 L 77.3661,-72.1161 L 77.0952,-72.5216 L 77,-73 L 77.0952,-73.4783 L 77.3661,-73.8839
 L 77.7717,-74.1548 L 78.25,-74.25 L 78.7284,-74.1548 L 79.1339,-73.8839 L 79.4049,-73.4783 L 79.5,-73
 L 79.4049,-72.5216 L 79.1339,-72.1161 L 78.7284,-71.8451 L 78.25,-71.75 z
M 87.2716,-71.8451 L 86.8661,-72.1161 L 86.5951,-72.5216 L 86.5,-73 L 86.5951,-73.4783 L 86.8661,-73.8839
 L 87.2716,-74.1548 L 87.75,-74.25 L 88.2283,-74.1548 L 88.6339,-73.8839 L 88.9048,-73.4783 L 89,-73
 L 88.9048,-72.5216 L 88.6339,-72.1161 L 88.2283,-71.8451 L 87.75,-71.75 z
M 51.5,-68 L 51.5,-74 L 54.5,-74 L 54.5,-68 z
M 65.5,-68 L 65.5,-74 L 68.5,-74 L 68.5,-68 z
M 59.0433,-68.6903 L 58.2322,-69.2322 L 57.6903,-70.0433 L 57.5,-71 L 57.6903,-71.9567 L 58.2322,-72.7678
 L 59.0433,-73.3097 L 60,-73.5 L 60.9567,-73.3097 L 61.7678,-72.7678 L 62.3097,-71.9567 L 62.5,-71
 L 62.3097,-70.0433 L 61.7678,-69.2322 L 60.9567,-68.6903 L 60,-68.5 z
M 56.1173,-66.5761 L 55.7929,-66.7929 L 55.5761,-67.1173 L 55.5,-67.5 L 55.5761,-67.8827 L 55.7929,-68.2071
 L 56.1173,-68.4239 L 56.5,-68.5 L 56.8827,-68.4239 L 57.2071,-68.2071 L 57.4239,-67.8827 L 57.5,-67.5
 L 57.4239,-67.1173 L 57.2071,-66.7929 L 56.8827,-66.5761 L 56.5,-66.5 z
M 103.5,-60.5 L 92.5,-60.5 L 92.5,-49.5 L 103.5,-49.5 z
M 94.1173,-57.5761 L 93.7929,-57.7929 L 93.5761,-58.1173 L 93.5,-58.5 L 93.5761,-58.8827 L 93.7929,-59.2071
 L 94.1173,-59.4239 L 94.5,-59.5 L 94.8827,-59.4239 L 95.2071,-59.2071 L 95.4239,-58.8827 L 95.5,-58.5
 L 95.4239,-58.1173 L 95.2071,-57.7929 L 94.8827,-57.5761 L 94.5,-57.5 z
M 97.0433,-52.6903 L 96.2322,-53.2322 L 95.6903,-54.0433 L 95.5,-55 L 95.6903,-55.9567 L 96.2322,-56.7678
 L 97.0433,-57.3097 L 98,-57.5 L 98.9567,-57.3097 L 99.7678,-56.7678 L 100.31,-55.9567 L 100.5,-55
 L 100.31,-54.0433 L 99.7678,-53.2322 L 98.9567,-52.6903 L 98,-52.5 z
M 101.117,-50.5761 L 100.793,-50.7929 L 100.576,-51.1173 L 100.5,-51.5 L 100.576,-51.8827 L 100.793,-52.2071
 L 101.117,-52.4239 L 101.5,-52.5 L 101.883,-52.4239 L 102.207,-52.2071 L 102.424,-51.8827 L 102.5,-51.5
 L 102.424,-51.1173 L 102.207,-50.7929 L 101.883,-50.5761 L 101.5,-50.5 z
M 117.5,-60.5 L 106.5,-60.5 L 106.5,-49.5 L 117.5,-49.5 z
M 108.117,-57.5761 L 107.793,-57.7929 L 107.576,-58.1173 L 107.5,-58.5 L 107.576,-58.8827 L 107.793,-59.2071
 L 108.117,-59.4239 L 108.5,-59.5 L 108.883,-59.4239 L 109.207,-59.2071 L 109.424,-58.8827 L 109.5,-58.5
 L 109.424,-58.1173 L 109.207,-57.7929 L 108.883,-57.5761 L 108.5,-57.5 z
M 111.043,-52.6903 L 110.232,-53.2322 L 109.69,-54.0433 L 109.5,-55 L 109.69,-55.9567 L 110.232,-56.7678
 L 111.043,-57.3097 L 112,-57.5 L 112.957,-57.3097 L 113.768,-56.7678 L 114.31,-55.9567 L 114.5,-55
 L 114.31,-54.0433 L 113.768,-53.2322 L 112.957,-52.6903 L 112,-52.5 z
M 115.117,-50.5761 L 114.793,-50.7929 L 114.576,-51.1173 L 114.5,-51.5 L 114.576,-51.8827 L 114.793,-52.2071
 L 115.117,-52.4239 L 115.5,-52.5 L 115.883,-52.4239 L 116.207,-52.2071 L 116.424,-51.8827 L 116.5,-51.5
 L 116.424,-51.1173 L 116.207,-50.7929 L 115.883,-50.5761 L 115.5,-50.5 z
M 27.5,15 L 30.5,15 L 30.5,-15 L 35.04,-25 L 41.85,-25 L 41.85,-30
 L 42.4134,-31.734 L 43.8884,-32.8056 L 45.7116,-32.8056 L 47.1866,-31.734 L 47.75,-30 L 47.75,-25
 L 51.0528,-25 L 51.0528,-27.9731 L 51.4711,-29.8737 L 52.2883,-31.64 L 53.466,-33.1893 L 54.9493,-34.4492
 L 56.6688,-35.3608 L 58.544,-35.8814 L 60.4872,-35.9868 L 62.4077,-35.672 L 64.2157,-34.9516 L 65.8265,-33.8595
 L 67.1648,-32.4466 L 68.1682,-30.779 L 68.7896,-28.9347 L 69,-27 L 69,-25 L 72.25,-25
 L 72.25,-30 L 72.8134,-31.734 L 74.2884,-32.8056 L 76.1116,-32.8056 L 77.5866,-31.734 L 78.15,-30
 L 78.15,-25 L 84.96,-25 L 89.5,-15 L 89.5,15 L 92.5,15 L 92.5,25
 L 119.5,25 L 119.5,-15 L 99.5,-15 L 89.5,-40 L 89.5,-60 L 30.5,-60
 L 30.5,-40 L 20.5,-15 L 0.5,-15 L 0.5,25 L 27.5,25 z
M 9.5,-5.5 L 9.5,-8.5 L 15.5,-8.5 L 15.5,-5.5 z
M 104.5,-5.5 L 104.5,-8.5 L 110.5,-8.5 L 110.5,-5.5 z
M 24,3 L 24,-3 L 27,-3 L 27,3 z
M 93,3 L 93,-3 L 96,-3 L 96,3 z
M 9.5,8.5 L 9.5,5.5 L 15.5,5.5 L 15.5,8.5 z
M 104.5,8.5 L 104.5,5.5 L 110.5,5.5 L 110.5,8.5 z
M 12.5,21.5 L 12.5,18.5 L 18.5,18.5 L 18.5,21.5 z
M 101.5,21.5 L 101.5,18.5 L 107.5,18.5 L 107.5,21.5 z
M 136,-12 L 139,-12 L 139,-18 L 136,-18 L 136,-49 L 124,-49
 L 124,-5 L 136,-5 z
M 127.522,-41.5951 L 127.116,-41.8661 L 126.845,-42.2716 L 126.75,-42.75 L 126.845,-43.2283 L 127.116,-43.6339
 L 127.522,-43.9048 L 128,-44 L 128.478,-43.9048 L 128.884,-43.6339 L 129.155,-43.2283 L 129.25,-42.75
 L 129.155,-42.2716 L 128.884,-41.8661 L 128.478,-41.5951 L 128,-41.5 z
M 127.522,-32.0952 L 127.116,-32.3661 L 126.845,-32.7717 L 126.75,-33.25 L 126.845,-33.7284 L 127.116,-34.1339
 L 127.522,-34.4049 L 128,-34.5 L 128.478,-34.4049 L 128.884,-34.1339 L 129.155,-33.7284 L 129.25,-33.25
 L 129.155,-32.7717 L 128.884,-32.3661 L 128.478,-32.0952 L 128,-32 z
M 127,-20.5 L 127,-23.5 L 133,-23.5 L 133,-20.5 z
M 126.117,-17.5761 L 125.793,-17.7929 L 125.576,-18.1173 L 125.5,-18.5 L 125.576,-18.8827 L 125.793,-19.2071
 L 126.117,-19.4239 L 126.5,-19.5 L 126.883,-19.4239 L 127.207,-19.2071 L 127.424,-18.8827 L 127.5,-18.5
 L 127.424,-18.1173 L 127.207,-17.7929 L 126.883,-17.5761 L 126.5,-17.5 z
M 129.043,-12.6903 L 128.232,-13.2322 L 127.69,-14.0433 L 127.5,-15 L 127.69,-15.9567 L 128.232,-16.7678
 L 129.043,-17.3097 L 130,-17.5 L 130.957,-17.3097 L 131.768,-16.7678 L 132.31,-15.9567 L 132.5,-15
 L 132.31,-14.0433 L 131.768,-13.2322 L 130.957,-12.6903 L 130,-12.5 z
M 133.117,-10.5761 L 132.793,-10.7929 L 132.576,-11.1173 L 132.5,-11.5 L 132.576,-11.8827 L 132.793,-12.2071
 L 133.117,-12.4239 L 133.5,-12.5 L 133.883,-12.4239 L 134.207,-12.2071 L 134.424,-11.8827 L 134.5,-11.5
 L 134.424,-11.1173 L 134.207,-10.7929 L 133.883,-10.5761 L 133.5,-10.5 z
M 127,-6.5 L 127,-9.5 L 133,-9.5 L 133,-6.5 z
M 105.5,-47.5 L 94.5,-47.5 L 94.5,-36.5 L 105.5,-36.5 z
M 96.1173,-37.5761 L 95.7929,-37.7929 L 95.5761,-38.1173 L 95.5,-38.5 L 95.5761,-38.8827 L 95.7929,-39.2071
 L 96.1173,-39.4239 L 96.5,-39.5 L 96.8827,-39.4239 L 97.053,-39.3101 L 95.5,-42 L 97.75,-45.8971
 L 102.25,-45.8971 L 102.511,-45.4452 L 102.5,-45.5 L 102.576,-45.8827 L 102.793,-46.2071 L 103.117,-46.4239
 L 103.5,-46.5 L 103.883,-46.4239 L 104.207,-46.2071 L 104.424,-45.8827 L 104.5,-45.5 L 104.424,-45.1173
 L 104.207,-44.7929 L 103.883,-44.5761 L 103.5,-44.5 L 103.117,-44.5761 L 102.947,-44.6899 L 104.5,-42
 L 102.25,-38.1029 L 97.75,-38.1029 L 97.4891,-38.5548 L 97.5,-38.5 L 97.4239,-38.1173 L 97.2071,-37.7929
 L 96.8827,-37.5761 L 96.5,-37.5 z
M 119.5,-47.5 L 108.5,-47.5 L 108.5,-36.5 L 119.5,-36.5 z
M 110.117,-37.5761 L 109.793,-37.7929 L 109.576,-38.1173 L 109.5,-38.5 L 109.576,-38.8827 L 109.793,-39.2071
 L 110.117,-39.4239 L 110.5,-39.5 L 110.883,-39.4239 L 111.053,-39.3101 L 109.5,-42 L 111.75,-45.8971
 L 116.25,-45.8971 L 116.511,-45.4452 L 116.5,-45.5 L 116.576,-45.8827 L 116.793,-46.2071 L 117.117,-46.4239
 L 117.5,-46.5 L 117.883,-46.4239 L 118.207,-46.2071 L 118.424,-45.8827 L 118.5,-45.5 L 118.424,-45.1173
 L 118.207,-44.7929 L 117.883,-44.5761 L 117.5,-44.5 L 117.117,-44.5761 L 116.947,-44.6899 L 118.5,-42
 L 116.25,-38.1029 L 111.75,-38.1029 L 111.489,-38.5548 L 111.5,-38.5 L 111.424,-38.1173 L 111.207,-37.7929
 L 110.883,-37.5761 L 110.5,-37.5 z
M 69,-18 L 69,-20 L 60.5,-20 L 60.5,-23 L 54.5,-23 L 54.5,-20
 L 46,-20 L 46,-17 L 43,-17 L 43,-11 L 46,-11 L 46,-8
 L 48,-8 z
M 74.5,-10 L 83,-10 L 83,-13 L 86,-13 L 86,-19 L 83,-19
 L 83,-22 L 81,-22 L 60,-12 L 60,-10 L 68.5,-10 L 68.5,-7
 L 74.5,-7 z
" stroke="black" fill="none" stroke-width="0.5"/></svg>
