G04 ( created by brdgerber.py ( brdgerber.py v0.1 2014-03-12 ) ) date 2020-11-08 23:19:47 EST*
G04 Gerber Fmt 3.4, Leading zero omitted, Abs format*
%MOIN*%
%FSLAX34Y34*%
G01*
G70*
G90*
G04 APERTURE LIST*
%ADD20C,0.1500*%
%ADD23C,0.0059*%
%ADD11C,0.0000*%
%ADD24C,0.0472*%
%ADD21R,0.0629X0.0709*%
%ADD19R,0.0472X0.0275*%
%ADD17C,0.0120*%
%ADD15R,0.0550X0.0550*%
%ADD14C,0.0050*%
%ADD13C,0.0020*%
%ADD12C,0.0060*%
%ADD25C,0.0100*%
%ADD16C,0.0550*%
%ADD22C,0.0200*%
%ADD10R,0.0260X0.0800*%
%ADD18R,0.0709X0.0629*%
G04 APERTURE END LIST*
G54D20*
D15*
X02750Y22550D03*
D16*
X01750Y22550D03*
D16*
X00750Y22550D03*
D16*
X-00250Y22550D03*
D16*
X-01250Y22550D03*
D16*
X-02250Y22550D03*
D16*
X-03250Y22550D03*
D20*
G01X-02945Y15305D02*
G01X-02945Y15305D01*
D20*
G01X02345Y15305D02*
G01X02345Y15305D01*
D20*
G01X02345Y20595D02*
G01X02345Y20595D01*
D20*
G01X-02945Y20595D02*
G01X-02945Y20595D01*
D15*
X-00850Y13750D03*
D16*
X00150Y13750D03*
D15*
X-04600Y17000D03*
D16*
X-04600Y18000D03*
D16*
X-04600Y19000D03*
D24*
X09300Y18100D03*
D22*
G01X09300Y18100D02*
G01X08500Y17300D01*
D22*
G01X08500Y17300D02*
G01X04400Y17300D01*
D22*
G01X04400Y17300D02*
G01X04300Y17400D01*
D24*
X04300Y17400D03*
D24*
X01250Y13750D03*
D22*
G01X01250Y13750D02*
G01X01450Y13950D01*
D22*
G01X01450Y13950D02*
G01X03150Y13950D01*
D22*
G01X03150Y13950D02*
G01X04300Y15100D01*
D22*
G01X04300Y15100D02*
G01X04300Y17400D01*
D24*
X06400Y18100D03*
D22*
G01X06400Y18100D02*
G01X06350Y18150D01*
D22*
G01X06350Y18150D02*
G01X-03450Y18150D01*
D22*
G01X-03450Y18150D02*
G01X-04600Y17000D01*
D24*
X07550Y18150D03*
D22*
G01X07550Y18150D02*
G01X07150Y18550D01*
D22*
G01X07150Y18550D02*
G01X-04050Y18550D01*
D22*
G01X-04050Y18550D02*
G01X-04600Y18000D01*
D24*
X04150Y13950D03*
D22*
G01X04150Y13950D02*
G01X05200Y13950D01*
D24*
X-01350Y17400D03*
D22*
G01X-01350Y17400D02*
G01X-01350Y15850D01*
D22*
G01X-01350Y15850D02*
G01X00150Y14350D01*
D22*
G01X00150Y14350D02*
G01X00150Y13750D01*
D24*
X07450Y14700D03*
D22*
G01X07450Y14700D02*
G01X08300Y15550D01*
D22*
G01X08300Y15550D02*
G01X08800Y15550D01*
D22*
G01X08800Y15550D02*
G01X10200Y16950D01*
D24*
X10200Y16950D03*
D24*
X08350Y17850D03*
D22*
G01X08350Y17850D02*
G01X08450Y17950D01*
D22*
G01X08450Y17950D02*
G01X08450Y20300D01*
D24*
X08450Y20300D03*
D24*
X08750Y16900D03*
D22*
G01X08750Y16900D02*
G01X10050Y18200D01*
D22*
G01X10050Y18200D02*
G01X10050Y19800D01*
D22*
G01X10050Y19800D02*
G01X08900Y20950D01*
D22*
G01X08900Y20950D02*
G01X05350Y20950D01*
D22*
G01X05350Y20950D02*
G01X04800Y21500D01*
D24*
X04800Y21500D03*
D24*
X07250Y22500D03*
D22*
G01X07250Y22500D02*
G01X07350Y22600D01*
D22*
G01X07350Y22600D02*
G01X09450Y22600D01*
D22*
G01X09450Y22600D02*
G01X10150Y21900D01*
D22*
G01X10150Y21900D02*
G01X10150Y21150D01*
D24*
X10150Y21150D03*
D24*
X06750Y15250D03*
D22*
G01X06750Y15250D02*
G01X06750Y14150D01*
D22*
G01X06750Y14150D02*
G01X08300Y12600D01*
D22*
G01X08300Y12600D02*
G01X09550Y12600D01*
D24*
X09550Y12600D03*
D24*
X05850Y15400D03*
D22*
G01X05850Y15400D02*
G01X05850Y14600D01*
D22*
G01X05850Y14600D02*
G01X05200Y13950D01*
D24*
X00900Y12750D03*
D22*
G01X00900Y12750D02*
G01X00700Y12950D01*
D22*
G01X00700Y12950D02*
G01X00700Y16650D01*
D22*
G01X00700Y16650D02*
G01X00050Y17300D01*
D24*
X00050Y17300D03*
D24*
X01250Y16050D03*
D22*
G01X01250Y16050D02*
G01X01250Y17400D01*
D22*
G01X01250Y17400D02*
G01X01100Y17550D01*
D24*
X01100Y17550D03*
G36*
G01X12246Y11814D02*
G01X10679Y16875D01*
G01X10659Y16792D01*
G01X10620Y16705D01*
G01X10577Y16643D01*
G01X10513Y16578D01*
G01X10454Y16535D01*
G01X10374Y16496D01*
G01X10291Y16473D01*
G01X10211Y16465D01*
G01X09051Y15305D01*
G01X08990Y15256D01*
G01X08901Y15217D01*
G01X08803Y15200D01*
G01X08462Y15202D01*
G01X08433Y15192D01*
G01X07938Y14691D01*
G01X07909Y14542D01*
G01X07870Y14455D01*
G01X07827Y14393D01*
G01X07763Y14328D01*
G01X07704Y14285D01*
G01X07624Y14246D01*
G01X07540Y14223D01*
G01X07436Y14214D01*
G01X07353Y14225D01*
G01X07276Y14248D01*
G01X07249Y14249D01*
G01X07226Y14236D01*
G01X07213Y14214D01*
G01X07213Y14187D01*
G01X07226Y14165D01*
G01X08444Y12954D01*
G01X09213Y12951D01*
G01X09269Y12997D01*
G01X09332Y13034D01*
G01X09425Y13069D01*
G01X09501Y13083D01*
G01X09607Y13082D01*
G01X09691Y13065D01*
G01X09772Y13033D01*
G01X09842Y12988D01*
G01X09907Y12929D01*
G01X09955Y12869D01*
G01X09997Y12791D01*
G01X10023Y12712D01*
G01X10035Y12625D01*
G01X10029Y12525D01*
G01X10009Y12443D01*
G01X09970Y12355D01*
G01X09927Y12293D01*
G01X09863Y12228D01*
G01X09804Y12185D01*
G01X09724Y12146D01*
G01X09640Y12123D01*
G01X09536Y12114D01*
G01X00886Y12264D01*
G01X00803Y12275D01*
G01X00709Y12303D01*
G01X00643Y12338D01*
G01X00571Y12392D01*
G01X-01123Y13225D01*
G01X-01200Y13237D01*
G01X-01274Y13275D01*
G01X-01325Y13326D01*
G01X-01363Y13400D01*
G01X-02949Y14305D01*
G01X-03086Y14316D01*
G01X-03185Y14335D01*
G01X-03292Y14368D01*
G01X-03389Y14409D01*
G01X-03479Y14461D01*
G01X-03582Y14535D01*
G01X-03682Y14629D01*
G01X-03754Y14718D01*
G01X-03817Y14816D01*
G01X-03866Y14916D01*
G01X-03900Y15012D01*
G01X-03926Y15118D01*
G01X-03941Y15227D01*
G01X-03940Y15391D01*
G01X-03926Y15502D01*
G01X-03900Y15601D01*
G01X-03863Y15700D01*
G01X-03806Y15813D01*
G01X-03735Y15918D01*
G01X-03645Y16018D01*
G01X-03547Y16103D01*
G01X-03452Y16167D01*
G01X-03352Y16218D01*
G01X-03252Y16257D01*
G01X-03151Y16284D01*
G01X-03050Y16300D01*
G01X-02855Y16302D01*
G01X-02647Y16260D01*
G01X-02552Y16225D01*
G01X-02451Y16175D01*
G01X-02355Y16113D01*
G01X-02268Y16041D01*
G01X-02150Y15912D01*
G01X-02083Y15814D01*
G01X-02037Y15724D01*
G01X-01996Y15620D01*
G01X-01967Y15517D01*
G01X-01951Y15418D01*
G01X-01948Y15230D01*
G01X-01987Y15017D01*
G01X-02023Y14917D01*
G01X-02070Y14820D01*
G01X-02133Y14721D01*
G01X-02212Y14626D01*
G01X-02319Y14526D01*
G01X-02432Y14447D01*
G01X-02532Y14395D01*
G01X-02637Y14354D01*
G01X-02738Y14327D01*
G01X-02841Y14311D01*
G01X-02949Y14305D01*
G01X-01363Y13400D01*
G01X-01375Y13475D01*
G01X-01375Y14025D01*
G01X-01363Y14100D01*
G01X-01325Y14174D01*
G01X-01274Y14225D01*
G01X-01200Y14263D01*
G01X-01123Y14275D01*
G01X-00577Y14275D01*
G01X-00500Y14263D01*
G01X-00426Y14225D01*
G01X-00375Y14174D01*
G01X-00319Y14074D01*
G01X-00297Y14065D01*
G01X-00273Y14068D01*
G01X-00256Y14085D01*
G01X00079Y13750D01*
G01X-00256Y13415D01*
G01X-00272Y13432D01*
G01X-00296Y13435D01*
G01X-00318Y13426D01*
G01X-00375Y13326D01*
G01X-00426Y13275D01*
G01X-00500Y13237D01*
G01X-00577Y13225D01*
G01X-01123Y13225D01*
G01X00571Y12392D01*
G01X00518Y12449D01*
G01X00474Y12517D01*
G01X00436Y12605D01*
G01X00411Y12754D01*
G01X00369Y12835D01*
G01X00354Y12900D01*
G01X00354Y13199D01*
G01X00341Y13233D01*
G01X00309Y13249D01*
G01X00243Y13234D01*
G01X00136Y13225D01*
G01X00048Y13236D01*
G01X-00040Y13261D01*
G01X-00131Y13307D01*
G01X-00184Y13346D01*
G01X00185Y13715D01*
G01X00150Y13750D01*
G01X00185Y13785D01*
G01X-00184Y14155D01*
G01X-00121Y14201D01*
G01X-00033Y14242D01*
G01X00057Y14266D01*
G01X00164Y14275D01*
G01X00290Y14254D01*
G01X00325Y14257D01*
G01X00350Y14284D01*
G01X00346Y16510D01*
G01X00046Y16809D01*
G01X-00047Y16825D01*
G01X-00141Y16853D01*
G01X-00207Y16888D01*
G01X-00279Y16942D01*
G01X-00330Y16997D01*
G01X-00376Y17067D01*
G01X-00413Y17152D01*
G01X-00431Y17233D01*
G01X-00435Y17339D01*
G01X-00421Y17420D01*
G01X-00391Y17506D01*
G01X-00351Y17573D01*
G01X-00296Y17640D01*
G01X-00192Y17727D01*
G01X-00185Y17752D01*
G01X-00192Y17777D01*
G01X-00210Y17795D01*
G01X-00235Y17802D01*
G01X-03312Y17795D01*
G01X-04070Y17033D01*
G01X-04075Y16725D01*
G01X-04087Y16650D01*
G01X-04125Y16576D01*
G01X-04176Y16525D01*
G01X-04250Y16487D01*
G01X-04327Y16475D01*
G01X-04873Y16475D01*
G01X-04950Y16487D01*
G01X-05024Y16525D01*
G01X-05075Y16576D01*
G01X-05113Y16650D01*
G01X-05125Y16725D01*
G01X-05125Y17275D01*
G01X-05112Y17351D01*
G01X-05075Y17424D01*
G01X-05024Y17475D01*
G01X-04930Y17528D01*
G01X-04919Y17566D01*
G01X-04940Y17600D01*
G01X-05030Y17699D01*
G01X-05079Y17785D01*
G01X-05104Y17853D01*
G01X-05122Y17948D01*
G01X-05121Y18062D01*
G01X-05100Y18161D01*
G01X-05075Y18223D01*
G01X-05024Y18309D01*
G01X-04935Y18404D01*
G01X-04859Y18456D01*
G01X-04832Y18490D01*
G01X-04832Y18512D01*
G01X-04859Y18546D01*
G01X-04948Y18606D01*
G01X-05030Y18699D01*
G01X-05077Y18781D01*
G01X-05104Y18853D01*
G01X-05122Y18950D01*
G01X-05121Y19062D01*
G01X-05100Y19161D01*
G01X-05075Y19223D01*
G01X-05024Y19309D01*
G01X-04935Y19404D01*
G01X-04871Y19451D01*
G01X-04783Y19492D01*
G01X-03938Y20714D01*
G01X-03921Y20812D01*
G01X-03890Y20920D01*
G01X-03852Y21015D01*
G01X-03803Y21108D01*
G01X-03727Y22331D01*
G01X-03754Y22403D01*
G01X-03772Y22499D01*
G01X-03771Y22612D01*
G01X-03750Y22711D01*
G01X-03725Y22773D01*
G01X-03674Y22859D01*
G01X-03653Y22882D01*
G01X-03250Y22621D01*
G01X-02847Y22882D01*
G01X-02820Y22851D01*
G01X-02793Y22804D01*
G01X-02761Y22780D01*
G01X-02721Y22788D01*
G01X-02674Y22859D01*
G01X-02585Y22954D01*
G01X-02521Y23001D01*
G01X-02433Y23042D01*
G01X-02343Y23066D01*
G01X-02236Y23075D01*
G01X-02148Y23064D01*
G01X-02060Y23039D01*
G01X-01969Y22993D01*
G01X-01902Y22944D01*
G01X-01820Y22851D01*
G01X-01793Y22804D01*
G01X-01761Y22780D01*
G01X-01721Y22788D01*
G01X-01674Y22859D01*
G01X-01585Y22954D01*
G01X-01521Y23001D01*
G01X-01433Y23042D01*
G01X-01343Y23066D01*
G01X-01236Y23075D01*
G01X-01148Y23064D01*
G01X-01060Y23039D01*
G01X-00969Y22993D01*
G01X-00902Y22944D01*
G01X-00820Y22851D01*
G01X-00793Y22804D01*
G01X-00761Y22780D01*
G01X-00721Y22788D01*
G01X-00674Y22859D01*
G01X-00585Y22954D01*
G01X-00521Y23001D01*
G01X-00433Y23042D01*
G01X-00343Y23066D01*
G01X-00236Y23075D01*
G01X-00148Y23064D01*
G01X-00060Y23039D01*
G01X00031Y22993D01*
G01X00098Y22944D01*
G01X00180Y22851D01*
G01X00207Y22804D01*
G01X00239Y22780D01*
G01X00279Y22788D01*
G01X00326Y22859D01*
G01X00415Y22954D01*
G01X00479Y23001D01*
G01X00567Y23042D01*
G01X00657Y23066D01*
G01X00764Y23075D01*
G01X00852Y23064D01*
G01X00940Y23039D01*
G01X01031Y22993D01*
G01X01098Y22944D01*
G01X01180Y22851D01*
G01X01207Y22804D01*
G01X01239Y22780D01*
G01X01279Y22788D01*
G01X01326Y22859D01*
G01X01415Y22954D01*
G01X01479Y23001D01*
G01X01567Y23042D01*
G01X01657Y23066D01*
G01X01764Y23075D01*
G01X01852Y23064D01*
G01X01940Y23039D01*
G01X02031Y22993D01*
G01X02098Y22944D01*
G01X02172Y22868D01*
G01X02196Y22865D01*
G01X02218Y22874D01*
G01X02275Y22974D01*
G01X02326Y23025D01*
G01X02400Y23063D01*
G01X02477Y23075D01*
G01X03023Y23075D01*
G01X03100Y23063D01*
G01X03174Y23025D01*
G01X03225Y22974D01*
G01X03263Y22900D01*
G01X03275Y22825D01*
G01X03275Y22275D01*
G01X03263Y22200D01*
G01X03225Y22126D01*
G01X03174Y22075D01*
G01X03143Y21197D01*
G01X03209Y21096D01*
G01X03260Y20996D01*
G01X03298Y20896D01*
G01X03325Y20793D01*
G01X03340Y20693D01*
G01X03342Y20523D01*
G01X03328Y20417D01*
G01X03302Y20307D01*
G01X03268Y20212D01*
G01X03214Y20100D01*
G01X03143Y19992D01*
G01X03050Y19887D01*
G01X02950Y19799D01*
G01X02864Y19741D01*
G01X02761Y19686D01*
G01X02656Y19645D01*
G01X02555Y19616D01*
G01X02453Y19600D01*
G01X02304Y19595D01*
G01X02190Y19607D01*
G01X02090Y19628D01*
G01X01986Y19661D01*
G01X01886Y19706D01*
G01X01787Y19764D01*
G01X01698Y19832D01*
G01X01579Y19951D01*
G01X01512Y20041D01*
G01X01454Y20140D01*
G01X01409Y20242D01*
G01X01377Y20344D01*
G01X01356Y20445D01*
G01X01345Y20630D01*
G01X01356Y20742D01*
G01X01376Y20842D01*
G01X01408Y20944D01*
G01X01453Y21047D01*
G01X01510Y21146D01*
G01X01573Y21231D01*
G01X01688Y21349D01*
G01X01766Y21410D01*
G01X01896Y21488D01*
G01X01990Y21529D01*
G01X02097Y21563D01*
G01X02198Y21583D01*
G01X02333Y21594D01*
G01X02473Y21586D01*
G01X02574Y21568D01*
G01X02680Y21537D01*
G01X02774Y21498D01*
G01X02867Y21447D01*
G01X02968Y21376D01*
G01X03069Y21284D01*
G01X03143Y21197D01*
G01X03174Y22075D01*
G01X03100Y22037D01*
G01X03023Y22025D01*
G01X02477Y22025D01*
G01X02400Y22037D01*
G01X02326Y22075D01*
G01X02275Y22126D01*
G01X02219Y22226D01*
G01X02197Y22235D01*
G01X02173Y22232D01*
G01X02086Y22147D01*
G01X02021Y22099D01*
G01X01933Y22058D01*
G01X01843Y22034D01*
G01X01736Y22025D01*
G01X01648Y22036D01*
G01X01560Y22061D01*
G01X01469Y22107D01*
G01X01402Y22156D01*
G01X01320Y22249D01*
G01X01293Y22296D01*
G01X01261Y22320D01*
G01X01221Y22312D01*
G01X01174Y22241D01*
G01X01086Y22147D01*
G01X01021Y22099D01*
G01X00933Y22058D01*
G01X00843Y22034D01*
G01X00736Y22025D01*
G01X00648Y22036D01*
G01X00560Y22061D01*
G01X00469Y22107D01*
G01X00402Y22156D01*
G01X00320Y22249D01*
G01X00293Y22296D01*
G01X00261Y22320D01*
G01X00221Y22312D01*
G01X00174Y22241D01*
G01X00086Y22147D01*
G01X00021Y22099D01*
G01X-00067Y22058D01*
G01X-00157Y22034D01*
G01X-00264Y22025D01*
G01X-00352Y22036D01*
G01X-00440Y22061D01*
G01X-00531Y22107D01*
G01X-00598Y22156D01*
G01X-00680Y22249D01*
G01X-00707Y22296D01*
G01X-00739Y22320D01*
G01X-00779Y22312D01*
G01X-00826Y22241D01*
G01X-00914Y22147D01*
G01X-00979Y22099D01*
G01X-01067Y22058D01*
G01X-01157Y22034D01*
G01X-01264Y22025D01*
G01X-01352Y22036D01*
G01X-01440Y22061D01*
G01X-01531Y22107D01*
G01X-01598Y22156D01*
G01X-01680Y22249D01*
G01X-01707Y22296D01*
G01X-01739Y22320D01*
G01X-01779Y22312D01*
G01X-01826Y22241D01*
G01X-01914Y22147D01*
G01X-01979Y22099D01*
G01X-02067Y22058D01*
G01X-02157Y22034D01*
G01X-02264Y22025D01*
G01X-02352Y22036D01*
G01X-02440Y22061D01*
G01X-02531Y22107D01*
G01X-02598Y22156D01*
G01X-02916Y22145D01*
G01X-02979Y22099D01*
G01X-03067Y22058D01*
G01X-03157Y22034D01*
G01X-03264Y22025D01*
G01X-03352Y22036D01*
G01X-03440Y22061D01*
G01X-03531Y22107D01*
G01X-03584Y22146D01*
G01X-03250Y22479D01*
G01X-02916Y22145D01*
G01X-02598Y22156D01*
G01X-02680Y22249D01*
G01X-02707Y22296D01*
G01X-02739Y22320D01*
G01X-02779Y22312D01*
G01X-02826Y22241D01*
G01X-02847Y22218D01*
G01X-03179Y22550D01*
G01X-02847Y22882D01*
G01X-03250Y22621D01*
G01X-03584Y22955D01*
G01X-03521Y23001D01*
G01X-03433Y23042D01*
G01X-03343Y23066D01*
G01X-03236Y23075D01*
G01X-03148Y23064D01*
G01X-03060Y23039D01*
G01X-02969Y22993D01*
G01X-02916Y22954D01*
G01X-03250Y22621D01*
G01X-03653Y22882D01*
G01X-03321Y22550D01*
G01X-03653Y22218D01*
G01X-03680Y22249D01*
G01X-03727Y22331D01*
G01X-03803Y21108D01*
G01X-03722Y21223D01*
G01X-03653Y21301D01*
G01X-03563Y21381D01*
G01X-03452Y21456D01*
G01X-03352Y21507D01*
G01X-03252Y21546D01*
G01X-03151Y21573D01*
G01X-03050Y21589D01*
G01X-02878Y21592D01*
G01X-02769Y21578D01*
G01X-02663Y21554D01*
G01X-02565Y21520D01*
G01X-02471Y21475D01*
G01X-02375Y21416D01*
G01X-02290Y21351D01*
G01X-02191Y21251D01*
G01X-02114Y21151D01*
G01X-02056Y21053D01*
G01X-02005Y20937D01*
G01X-01974Y20835D01*
G01X-01955Y20738D01*
G01X-01946Y20549D01*
G01X-01957Y20439D01*
G01X-01979Y20332D01*
G01X-02054Y20139D01*
G01X-02119Y20031D01*
G01X-02207Y19920D01*
G01X-02305Y19826D01*
G01X-02415Y19747D01*
G01X-02522Y19688D01*
G01X-02616Y19650D01*
G01X-02723Y19619D01*
G01X-02822Y19602D01*
G01X-02985Y19595D01*
G01X-03099Y19607D01*
G01X-03199Y19628D01*
G01X-03301Y19660D01*
G01X-03415Y19711D01*
G01X-03523Y19779D01*
G01X-03621Y19859D01*
G01X-03714Y19956D01*
G01X-03829Y20128D01*
G01X-03876Y20230D01*
G01X-03908Y20327D01*
G01X-03932Y20436D01*
G01X-03943Y20552D01*
G01X-03938Y20714D01*
G01X-04783Y19492D01*
G01X-04693Y19516D01*
G01X-04586Y19525D01*
G01X-04498Y19514D01*
G01X-04410Y19489D01*
G01X-04319Y19443D01*
G01X-04252Y19394D01*
G01X-04170Y19301D01*
G01X-04123Y19219D01*
G01X-04096Y19147D01*
G01X-04078Y19052D01*
G01X-04077Y18934D01*
G01X-04059Y18909D01*
G01X-04029Y18899D01*
G01X07192Y18896D01*
G01X07288Y18870D01*
G01X07347Y18837D01*
G01X07565Y18634D01*
G01X07691Y18615D01*
G01X07772Y18583D01*
G01X07842Y18538D01*
G01X07907Y18479D01*
G01X07955Y18419D01*
G01X08022Y18291D01*
G01X08047Y18280D01*
G01X08075Y18285D01*
G01X08095Y18303D01*
G01X08103Y18330D01*
G01X08099Y19959D01*
G01X08024Y20067D01*
G01X07987Y20152D01*
G01X07969Y20233D01*
G01X07965Y20339D01*
G01X07978Y20417D01*
G01X08023Y20529D01*
G01X08028Y20569D01*
G01X08000Y20600D01*
G01X05335Y20600D01*
G01X05270Y20610D01*
G01X05201Y20634D01*
G01X05139Y20672D01*
G01X04796Y21010D01*
G01X04703Y21025D01*
G01X04609Y21053D01*
G01X04543Y21088D01*
G01X04471Y21142D01*
G01X04420Y21197D01*
G01X04373Y21268D01*
G01X04337Y21352D01*
G01X04319Y21433D01*
G01X04315Y21539D01*
G01X04329Y21619D01*
G01X04359Y21706D01*
G01X04399Y21773D01*
G01X04454Y21840D01*
G01X04519Y21897D01*
G01X04582Y21934D01*
G01X04675Y21969D01*
G01X04751Y21983D01*
G01X04857Y21982D01*
G01X04941Y21965D01*
G01X05022Y21933D01*
G01X05092Y21888D01*
G01X05157Y21829D01*
G01X05205Y21769D01*
G01X05247Y21691D01*
G01X05273Y21612D01*
G01X05295Y21498D01*
G01X05493Y21304D01*
G01X08951Y21296D01*
G01X09052Y21265D01*
G01X09112Y21228D01*
G01X10298Y20048D01*
G01X10365Y19951D01*
G01X10391Y19879D01*
G01X10400Y19808D01*
G01X10394Y18262D01*
G01X10400Y18185D01*
G01X10369Y18059D01*
G01X10334Y17997D01*
G01X09235Y16884D01*
G01X09209Y16742D01*
G01X09170Y16655D01*
G01X09127Y16593D01*
G01X09063Y16528D01*
G01X09004Y16485D01*
G01X08924Y16446D01*
G01X08840Y16423D01*
G01X08736Y16414D01*
G01X08653Y16425D01*
G01X08559Y16453D01*
G01X08491Y16489D01*
G01X08421Y16542D01*
G01X08370Y16597D01*
G01X08324Y16667D01*
G01X08287Y16752D01*
G01X08269Y16833D01*
G01X08265Y16939D01*
G01X08279Y17018D01*
G01X08310Y17107D01*
G01X08349Y17173D01*
G01X08467Y17304D01*
G01X08469Y17328D01*
G01X08460Y17351D01*
G01X08440Y17367D01*
G01X08336Y17364D01*
G01X08253Y17375D01*
G01X08159Y17403D01*
G01X08093Y17438D01*
G01X08021Y17492D01*
G01X07970Y17547D01*
G01X07924Y17617D01*
G01X07865Y17740D01*
G01X07826Y17747D01*
G01X07724Y17696D01*
G01X07640Y17673D01*
G01X07536Y17664D01*
G01X07453Y17675D01*
G01X07359Y17703D01*
G01X07293Y17738D01*
G01X07221Y17792D01*
G01X07170Y17847D01*
G01X07124Y17917D01*
G01X07087Y18002D01*
G01X07061Y18143D01*
G01X06995Y18204D01*
G01X06914Y18203D01*
G01X06888Y18182D01*
G01X06879Y18025D01*
G01X06859Y17943D01*
G01X06821Y17857D01*
G01X06777Y17793D01*
G01X06713Y17728D01*
G01X06654Y17685D01*
G01X06574Y17646D01*
G01X06490Y17623D01*
G01X06386Y17614D01*
G01X06303Y17625D01*
G01X06209Y17653D01*
G01X06141Y17689D01*
G01X06074Y17740D01*
G01X06015Y17800D01*
G01X01595Y17803D01*
G01X01561Y17789D01*
G01X01545Y17756D01*
G01X01573Y17662D01*
G01X01585Y17572D01*
G01X01583Y17505D01*
G01X01600Y17408D01*
G01X01596Y16403D01*
G01X01655Y16319D01*
G01X01697Y16241D01*
G01X01731Y16150D01*
G01X01763Y16132D01*
G01X01798Y16141D01*
G01X01922Y16212D01*
G01X02016Y16250D01*
G01X02123Y16281D01*
G01X02222Y16298D01*
G01X02411Y16303D01*
G01X02521Y16289D01*
G01X02626Y16265D01*
G01X02721Y16232D01*
G01X02835Y16177D01*
G01X02947Y16104D01*
G01X03034Y16030D01*
G01X03128Y15926D01*
G01X03189Y15840D01*
G01X03240Y15751D01*
G01X03284Y15648D01*
G01X03315Y15546D01*
G01X03334Y15447D01*
G01X03345Y15307D01*
G01X03335Y15172D01*
G01X03317Y15072D01*
G01X03246Y14871D01*
G01X03179Y14754D01*
G01X03112Y14664D01*
G01X03023Y14571D01*
G01X02937Y14500D01*
G01X02825Y14428D01*
G01X02732Y14384D01*
G01X02632Y14348D01*
G01X02525Y14323D01*
G01X02338Y14305D01*
G01X02203Y14316D01*
G01X02104Y14335D01*
G01X01997Y14368D01*
G01X01899Y14410D01*
G01X01810Y14461D01*
G01X01722Y14524D01*
G01X01620Y14616D01*
G01X01545Y14704D01*
G01X01472Y14816D01*
G01X01418Y14929D01*
G01X01385Y15024D01*
G01X01360Y15133D01*
G01X01347Y15240D01*
G01X01352Y15429D01*
G01X01367Y15512D01*
G01X01360Y15547D01*
G01X01332Y15569D01*
G01X01236Y15564D01*
G01X01153Y15574D01*
G01X01113Y15587D01*
G01X01076Y15584D01*
G01X01051Y15557D01*
G01X01045Y13247D01*
G01X01051Y13224D01*
G01X01066Y13206D01*
G01X01123Y13182D01*
G01X01192Y13138D01*
G01X01257Y13079D01*
G01X01305Y13019D01*
G01X01347Y12941D01*
G01X01373Y12862D01*
G01X01385Y12775D01*
G01X01379Y12675D01*
G01X01359Y12592D01*
G01X01320Y12505D01*
G01X01277Y12443D01*
G01X01214Y12379D01*
G01X01154Y12335D01*
G01X01074Y12296D01*
G01X00990Y12273D01*
G01X00886Y12264D01*
G01X09536Y12114D01*
G01X09453Y12125D01*
G01X09359Y12153D01*
G01X09293Y12188D01*
G01X09212Y12249D01*
G01X08285Y12250D01*
G01X08220Y12260D01*
G01X08151Y12284D01*
G01X08090Y12321D01*
G01X06466Y13945D01*
G01X06438Y13996D01*
G01X06406Y14092D01*
G01X06397Y14916D01*
G01X06324Y15017D01*
G01X06301Y15070D01*
G01X06274Y15096D01*
G01X06236Y15096D01*
G01X06199Y15058D01*
G01X06195Y14554D01*
G01X06166Y14450D01*
G01X06129Y14389D01*
G01X05451Y13705D01*
G01X05390Y13656D01*
G01X05301Y13617D01*
G01X05203Y13600D01*
G01X04492Y13600D01*
G01X04404Y13535D01*
G01X04324Y13496D01*
G01X04240Y13473D01*
G01X04136Y13464D01*
G01X04053Y13475D01*
G01X03959Y13503D01*
G01X03893Y13538D01*
G01X03821Y13592D01*
G01X03770Y13647D01*
G01X03724Y13717D01*
G01X03687Y13802D01*
G01X03669Y13883D01*
G01X03665Y13989D01*
G01X03679Y14068D01*
G01X03709Y14156D01*
G01X03749Y14223D01*
G01X03804Y14290D01*
G01X03869Y14347D01*
G01X03932Y14384D01*
G01X04025Y14419D01*
G01X04101Y14433D01*
G01X04207Y14432D01*
G01X04291Y14415D01*
G01X04372Y14383D01*
G01X04478Y14306D01*
G01X04506Y14298D01*
G01X05058Y14302D01*
G01X05488Y14733D01*
G01X05502Y14760D01*
G01X05500Y15058D01*
G01X05422Y15170D01*
G01X05387Y15252D01*
G01X05369Y15333D01*
G01X05365Y15439D01*
G01X05378Y15517D01*
G01X05409Y15606D01*
G01X05449Y15673D01*
G01X05504Y15740D01*
G01X05569Y15797D01*
G01X05632Y15834D01*
G01X05725Y15869D01*
G01X05801Y15883D01*
G01X05907Y15882D01*
G01X05991Y15865D01*
G01X06072Y15833D01*
G01X06142Y15788D01*
G01X06207Y15729D01*
G01X06255Y15669D01*
G01X06309Y15565D01*
G01X06347Y15549D01*
G01X06385Y15568D01*
G01X06469Y15647D01*
G01X06532Y15684D01*
G01X06625Y15719D01*
G01X06701Y15733D01*
G01X06807Y15732D01*
G01X06891Y15715D01*
G01X06972Y15683D01*
G01X07042Y15638D01*
G01X07107Y15579D01*
G01X07155Y15519D01*
G01X07197Y15441D01*
G01X07223Y15362D01*
G01X07235Y15275D01*
G01X07234Y15189D01*
G01X07260Y15160D01*
G01X07299Y15159D01*
G01X07437Y15185D01*
G01X08075Y15817D01*
G01X08158Y15869D01*
G01X08258Y15896D01*
G01X08659Y15902D01*
G01X09713Y16965D01*
G01X09729Y17069D01*
G01X09760Y17157D01*
G01X09799Y17223D01*
G01X09854Y17290D01*
G01X09919Y17347D01*
G01X09982Y17384D01*
G01X10075Y17419D01*
G01X10151Y17433D01*
G01X10257Y17432D01*
G01X10341Y17415D01*
G01X10422Y17383D01*
G01X10491Y17339D01*
G01X10557Y17279D01*
G01X10605Y17219D01*
G01X10647Y17141D01*
G01X10673Y17062D01*
G01X10685Y16975D01*
G01X10679Y16875D01*
G01X12246Y11814D01*
G01X12458Y11850D01*
G01X12682Y11911D01*
G01X12822Y11963D01*
G01X13073Y12086D01*
G01X13314Y12249D01*
G01X13516Y12425D01*
G01X13653Y12575D01*
G01X13771Y12731D01*
G01X13848Y12850D01*
G01X13926Y12994D01*
G01X14011Y13190D01*
G01X14066Y13357D01*
G01X14124Y13618D01*
G01X14154Y13991D01*
G01X14151Y22102D01*
G01X14138Y22331D01*
G01X14103Y22544D01*
G01X14050Y22749D01*
G01X13967Y22969D01*
G01X13841Y23211D01*
G01X13763Y23330D01*
G01X13584Y23554D01*
G01X13483Y23657D01*
G01X13333Y23787D01*
G01X13173Y23901D01*
G01X12942Y24033D01*
G01X12664Y24145D01*
G01X12370Y24219D01*
G01X12170Y24243D01*
G01X11935Y24256D01*
G01X-03588Y24250D01*
G01X-03866Y24233D01*
G01X-04075Y24197D01*
G01X-04287Y24137D01*
G01X-04422Y24086D01*
G01X-04673Y23963D01*
G01X-04816Y23874D01*
G01X-05025Y23712D01*
G01X-05132Y23608D01*
G01X-05264Y23462D01*
G01X-05397Y23280D01*
G01X-05538Y23032D01*
G01X-05624Y22826D01*
G01X-05672Y22676D01*
G01X-05727Y22414D01*
G01X-05752Y22130D01*
G01X-05755Y13998D01*
G01X-05736Y13704D01*
G01X-05697Y13475D01*
G01X-05633Y13250D01*
G01X-05522Y12987D01*
G01X-05394Y12765D01*
G01X-05309Y12645D01*
G01X-05127Y12436D01*
G01X-05005Y12322D01*
G01X-04819Y12179D01*
G01X-04700Y12103D01*
G01X-04542Y12017D01*
G01X-04349Y11935D01*
G01X-04159Y11874D01*
G01X-03914Y11823D01*
G01X-03632Y11798D01*
G01X11957Y11796D01*
G01X12246Y11814D01*
G01X12246Y11814D01*
G37*
G36*
G01X08721Y17383D02*
G01X08756Y17398D01*
G01X09702Y18354D01*
G01X09699Y19654D01*
G01X09019Y20337D01*
G01X08977Y20352D01*
G01X08941Y20327D01*
G01X08929Y20225D01*
G01X08909Y20142D01*
G01X08870Y20055D01*
G01X08804Y19967D01*
G01X08795Y18048D01*
G01X08823Y17962D01*
G01X08835Y17875D01*
G01X08829Y17775D01*
G01X08809Y17693D01*
G01X08770Y17605D01*
G01X08727Y17543D01*
G01X08635Y17450D01*
G01X08631Y17423D01*
G01X08642Y17399D01*
G01X08663Y17383D01*
G01X08690Y17381D01*
G01X08721Y17383D01*
G01X08721Y17383D01*
G37*
D25*
G01X-02916Y22954D02*
G01X-02916Y22954D01*
G01X-02969Y22993D01*
G01X-03060Y23039D01*
G01X-03148Y23064D01*
G01X-03236Y23075D01*
G01X-03343Y23066D01*
G01X-03433Y23042D01*
G01X-03521Y23001D01*
G01X-03584Y22955D01*
G01X-03250Y22621D01*
G01X-02916Y22954D01*
D25*
G01X-03321Y22550D02*
G01X-03321Y22550D01*
G01X-03653Y22882D01*
G01X-03674Y22859D01*
G01X-03725Y22773D01*
G01X-03750Y22711D01*
G01X-03771Y22612D01*
G01X-03772Y22499D01*
G01X-03754Y22403D01*
G01X-03727Y22331D01*
G01X-03680Y22249D01*
G01X-03653Y22218D01*
G01X-03653Y22218D01*
G01X-03321Y22550D01*
D25*
G01X-03157Y22034D02*
G01X-03157Y22034D01*
G01X-03067Y22058D01*
G01X-02979Y22099D01*
G01X-02916Y22145D01*
G01X-03250Y22479D01*
G01X-03584Y22146D01*
G01X-03531Y22107D01*
G01X-03440Y22061D01*
G01X-03352Y22036D01*
G01X-03264Y22025D01*
G01X-03264Y22025D01*
G01X-03157Y22034D01*
D25*
G01X-02157Y22034D02*
G01X-02157Y22034D01*
G01X-02067Y22058D01*
G01X-01979Y22099D01*
G01X-01914Y22147D01*
G01X-01826Y22241D01*
G01X-01779Y22312D01*
G01X-01739Y22320D01*
G01X-01707Y22296D01*
G01X-01680Y22249D01*
G01X-01598Y22156D01*
G01X-01531Y22107D01*
G01X-01440Y22061D01*
G01X-01352Y22036D01*
G01X-01264Y22025D01*
G01X-01157Y22034D01*
G01X-01067Y22058D01*
G01X-00979Y22099D01*
G01X-00914Y22147D01*
G01X-00826Y22241D01*
G01X-00779Y22312D01*
G01X-00739Y22320D01*
G01X-00707Y22296D01*
G01X-00680Y22249D01*
G01X-00598Y22156D01*
G01X-00531Y22107D01*
G01X-00440Y22061D01*
G01X-00352Y22036D01*
G01X-00264Y22025D01*
G01X-00157Y22034D01*
G01X-00067Y22058D01*
G01X00021Y22099D01*
G01X00086Y22147D01*
G01X00174Y22241D01*
G01X00221Y22312D01*
G01X00261Y22320D01*
G01X00293Y22296D01*
G01X00320Y22249D01*
G01X00402Y22156D01*
G01X00469Y22107D01*
G01X00560Y22061D01*
G01X00648Y22036D01*
G01X00736Y22025D01*
G01X00843Y22034D01*
G01X00933Y22058D01*
G01X01021Y22099D01*
G01X01086Y22147D01*
G01X01174Y22241D01*
G01X01221Y22312D01*
G01X01261Y22320D01*
G01X01293Y22296D01*
G01X01320Y22249D01*
G01X01402Y22156D01*
G01X01469Y22107D01*
G01X01560Y22061D01*
G01X01648Y22036D01*
G01X01736Y22025D01*
G01X01843Y22034D01*
G01X01933Y22058D01*
G01X02021Y22099D01*
G01X02086Y22147D01*
G01X02173Y22232D01*
G01X02197Y22235D01*
G01X02219Y22226D01*
G01X02275Y22126D01*
G01X02326Y22075D01*
G01X02400Y22037D01*
G01X02477Y22025D01*
G01X03023Y22025D01*
G01X03100Y22037D01*
G01X03174Y22075D01*
G01X03225Y22126D01*
G01X03263Y22200D01*
G01X03275Y22275D01*
G01X03275Y22825D01*
G01X03263Y22900D01*
G01X03225Y22974D01*
G01X03174Y23025D01*
G01X03100Y23063D01*
G01X03023Y23075D01*
G01X02477Y23075D01*
G01X02400Y23063D01*
G01X02326Y23025D01*
G01X02275Y22974D01*
G01X02218Y22874D01*
G01X02196Y22865D01*
G01X02172Y22868D01*
G01X02098Y22944D01*
G01X02031Y22993D01*
G01X01940Y23039D01*
G01X01852Y23064D01*
G01X01764Y23075D01*
G01X01657Y23066D01*
G01X01567Y23042D01*
G01X01479Y23001D01*
G01X01415Y22954D01*
G01X01326Y22859D01*
G01X01279Y22788D01*
G01X01239Y22780D01*
G01X01207Y22804D01*
G01X01180Y22851D01*
G01X01098Y22944D01*
G01X01031Y22993D01*
G01X00940Y23039D01*
G01X00852Y23064D01*
G01X00764Y23075D01*
G01X00657Y23066D01*
G01X00567Y23042D01*
G01X00479Y23001D01*
G01X00415Y22954D01*
G01X00326Y22859D01*
G01X00279Y22788D01*
G01X00239Y22780D01*
G01X00207Y22804D01*
G01X00180Y22851D01*
G01X00098Y22944D01*
G01X00031Y22993D01*
G01X-00060Y23039D01*
G01X-00148Y23064D01*
G01X-00236Y23075D01*
G01X-00343Y23066D01*
G01X-00433Y23042D01*
G01X-00521Y23001D01*
G01X-00585Y22954D01*
G01X-00674Y22859D01*
G01X-00721Y22788D01*
G01X-00761Y22780D01*
G01X-00793Y22804D01*
G01X-00820Y22851D01*
G01X-00902Y22944D01*
G01X-00969Y22993D01*
G01X-01060Y23039D01*
G01X-01148Y23064D01*
G01X-01236Y23075D01*
G01X-01343Y23066D01*
G01X-01433Y23042D01*
G01X-01521Y23001D01*
G01X-01585Y22954D01*
G01X-01674Y22859D01*
G01X-01721Y22788D01*
G01X-01761Y22780D01*
G01X-01793Y22804D01*
G01X-01820Y22851D01*
G01X-01902Y22944D01*
G01X-01969Y22993D01*
G01X-02060Y23039D01*
G01X-02148Y23064D01*
G01X-02236Y23075D01*
G01X-02343Y23066D01*
G01X-02433Y23042D01*
G01X-02521Y23001D01*
G01X-02585Y22954D01*
G01X-02674Y22859D01*
G01X-02721Y22788D01*
G01X-02761Y22780D01*
G01X-02793Y22804D01*
G01X-02820Y22851D01*
G01X-02847Y22882D01*
G01X-03179Y22550D01*
G01X-02847Y22218D01*
G01X-02826Y22241D01*
G01X-02779Y22312D01*
G01X-02739Y22320D01*
G01X-02707Y22296D01*
G01X-02680Y22249D01*
G01X-02598Y22156D01*
G01X-02531Y22107D01*
G01X-02440Y22061D01*
G01X-02352Y22036D01*
G01X-02264Y22025D01*
G01X-02264Y22025D01*
G01X-02157Y22034D01*
D25*
G01X02453Y19600D02*
G01X02453Y19600D01*
G01X02555Y19616D01*
G01X02656Y19645D01*
G01X02761Y19686D01*
G01X02864Y19741D01*
G01X02950Y19799D01*
G01X03050Y19887D01*
G01X03143Y19992D01*
G01X03214Y20100D01*
G01X03268Y20212D01*
G01X03302Y20307D01*
G01X03328Y20417D01*
G01X03342Y20523D01*
G01X03340Y20693D01*
G01X03325Y20793D01*
G01X03298Y20896D01*
G01X03260Y20996D01*
G01X03209Y21096D01*
G01X03143Y21197D01*
G01X03069Y21284D01*
G01X02968Y21376D01*
G01X02867Y21447D01*
G01X02774Y21498D01*
G01X02680Y21537D01*
G01X02574Y21568D01*
G01X02473Y21586D01*
G01X02333Y21594D01*
G01X02198Y21583D01*
G01X02097Y21563D01*
G01X01990Y21529D01*
G01X01896Y21488D01*
G01X01766Y21410D01*
G01X01688Y21349D01*
G01X01573Y21231D01*
G01X01510Y21146D01*
G01X01453Y21047D01*
G01X01408Y20944D01*
G01X01376Y20842D01*
G01X01356Y20742D01*
G01X01345Y20630D01*
G01X01356Y20445D01*
G01X01377Y20344D01*
G01X01409Y20242D01*
G01X01454Y20140D01*
G01X01512Y20041D01*
G01X01579Y19951D01*
G01X01698Y19832D01*
G01X01787Y19764D01*
G01X01886Y19706D01*
G01X01986Y19661D01*
G01X02090Y19628D01*
G01X02190Y19607D01*
G01X02304Y19595D01*
G01X02304Y19595D01*
G01X02453Y19600D01*
D25*
G01X-02822Y19602D02*
G01X-02822Y19602D01*
G01X-02723Y19619D01*
G01X-02616Y19650D01*
G01X-02522Y19688D01*
G01X-02415Y19747D01*
G01X-02305Y19826D01*
G01X-02207Y19920D01*
G01X-02119Y20031D01*
G01X-02054Y20139D01*
G01X-01979Y20332D01*
G01X-01957Y20439D01*
G01X-01946Y20549D01*
G01X-01955Y20738D01*
G01X-01974Y20835D01*
G01X-02005Y20937D01*
G01X-02056Y21053D01*
G01X-02114Y21151D01*
G01X-02191Y21251D01*
G01X-02290Y21351D01*
G01X-02375Y21416D01*
G01X-02471Y21475D01*
G01X-02565Y21520D01*
G01X-02663Y21554D01*
G01X-02769Y21578D01*
G01X-02878Y21592D01*
G01X-03050Y21589D01*
G01X-03151Y21573D01*
G01X-03252Y21546D01*
G01X-03352Y21507D01*
G01X-03452Y21456D01*
G01X-03563Y21381D01*
G01X-03653Y21301D01*
G01X-03722Y21223D01*
G01X-03803Y21108D01*
G01X-03852Y21015D01*
G01X-03890Y20920D01*
G01X-03921Y20812D01*
G01X-03938Y20714D01*
G01X-03943Y20552D01*
G01X-03932Y20436D01*
G01X-03908Y20327D01*
G01X-03876Y20230D01*
G01X-03829Y20128D01*
G01X-03714Y19956D01*
G01X-03621Y19859D01*
G01X-03523Y19779D01*
G01X-03415Y19711D01*
G01X-03301Y19660D01*
G01X-03199Y19628D01*
G01X-03099Y19607D01*
G01X-02985Y19595D01*
G01X-02985Y19595D01*
G01X-02822Y19602D01*
D25*
G01X08663Y17383D02*
G01X08663Y17383D01*
G01X08642Y17399D01*
G01X08631Y17423D01*
G01X08635Y17450D01*
G01X08727Y17543D01*
G01X08770Y17605D01*
G01X08809Y17693D01*
G01X08829Y17775D01*
G01X08835Y17875D01*
G01X08823Y17962D01*
G01X08795Y18048D01*
G01X08804Y19967D01*
G01X08870Y20055D01*
G01X08909Y20142D01*
G01X08929Y20225D01*
G01X08941Y20327D01*
G01X08977Y20352D01*
G01X09019Y20337D01*
G01X09699Y19654D01*
G01X09702Y18354D01*
G01X08756Y17398D01*
G01X08721Y17383D01*
G01X08690Y17381D01*
G01X08690Y17381D01*
G01X08663Y17383D01*
D25*
G01X-02841Y14311D02*
G01X-02841Y14311D01*
G01X-02738Y14327D01*
G01X-02637Y14354D01*
G01X-02532Y14395D01*
G01X-02432Y14447D01*
G01X-02319Y14526D01*
G01X-02212Y14626D01*
G01X-02133Y14721D01*
G01X-02070Y14820D01*
G01X-02023Y14917D01*
G01X-01987Y15017D01*
G01X-01948Y15230D01*
G01X-01951Y15418D01*
G01X-01967Y15517D01*
G01X-01996Y15620D01*
G01X-02037Y15724D01*
G01X-02083Y15814D01*
G01X-02150Y15912D01*
G01X-02268Y16041D01*
G01X-02355Y16113D01*
G01X-02451Y16175D01*
G01X-02552Y16225D01*
G01X-02647Y16260D01*
G01X-02855Y16302D01*
G01X-03050Y16300D01*
G01X-03151Y16284D01*
G01X-03252Y16257D01*
G01X-03352Y16218D01*
G01X-03452Y16167D01*
G01X-03547Y16103D01*
G01X-03645Y16018D01*
G01X-03735Y15918D01*
G01X-03806Y15813D01*
G01X-03863Y15700D01*
G01X-03900Y15601D01*
G01X-03926Y15502D01*
G01X-03940Y15391D01*
G01X-03941Y15227D01*
G01X-03926Y15118D01*
G01X-03900Y15012D01*
G01X-03866Y14916D01*
G01X-03817Y14816D01*
G01X-03754Y14718D01*
G01X-03682Y14629D01*
G01X-03582Y14535D01*
G01X-03479Y14461D01*
G01X-03389Y14409D01*
G01X-03292Y14368D01*
G01X-03185Y14335D01*
G01X-03086Y14316D01*
G01X-02949Y14305D01*
G01X-02949Y14305D01*
G01X-02841Y14311D01*
D25*
G01X-00577Y13225D02*
G01X-00577Y13225D01*
G01X-00500Y13237D01*
G01X-00426Y13275D01*
G01X-00375Y13326D01*
G01X-00318Y13426D01*
G01X-00296Y13435D01*
G01X-00272Y13432D01*
G01X-00256Y13415D01*
G01X00079Y13750D01*
G01X-00256Y14085D01*
G01X-00273Y14068D01*
G01X-00297Y14065D01*
G01X-00319Y14074D01*
G01X-00375Y14174D01*
G01X-00426Y14225D01*
G01X-00500Y14263D01*
G01X-00577Y14275D01*
G01X-01123Y14275D01*
G01X-01200Y14263D01*
G01X-01274Y14225D01*
G01X-01325Y14174D01*
G01X-01363Y14100D01*
G01X-01375Y14025D01*
G01X-01375Y13475D01*
G01X-01363Y13400D01*
G01X-01325Y13326D01*
G01X-01274Y13275D01*
G01X-01200Y13237D01*
G01X-01123Y13225D01*
G01X-01123Y13225D01*
G01X-00577Y13225D01*
D25*
G01X00990Y12273D02*
G01X00990Y12273D01*
G01X01074Y12296D01*
G01X01154Y12335D01*
G01X01214Y12379D01*
G01X01277Y12443D01*
G01X01320Y12505D01*
G01X01359Y12592D01*
G01X01379Y12675D01*
G01X01385Y12775D01*
G01X01373Y12862D01*
G01X01347Y12941D01*
G01X01305Y13019D01*
G01X01257Y13079D01*
G01X01192Y13138D01*
G01X01123Y13182D01*
G01X01066Y13206D01*
G01X01051Y13224D01*
G01X01045Y13247D01*
G01X01051Y15557D01*
G01X01076Y15584D01*
G01X01113Y15587D01*
G01X01153Y15574D01*
G01X01236Y15564D01*
G01X01332Y15569D01*
G01X01360Y15547D01*
G01X01367Y15512D01*
G01X01352Y15429D01*
G01X01347Y15240D01*
G01X01360Y15133D01*
G01X01385Y15024D01*
G01X01418Y14929D01*
G01X01472Y14816D01*
G01X01545Y14704D01*
G01X01620Y14616D01*
G01X01722Y14524D01*
G01X01810Y14461D01*
G01X01899Y14410D01*
G01X01997Y14368D01*
G01X02104Y14335D01*
G01X02203Y14316D01*
G01X02338Y14305D01*
G01X02525Y14323D01*
G01X02632Y14348D01*
G01X02732Y14384D01*
G01X02825Y14428D01*
G01X02937Y14500D01*
G01X03023Y14571D01*
G01X03112Y14664D01*
G01X03179Y14754D01*
G01X03246Y14871D01*
G01X03317Y15072D01*
G01X03335Y15172D01*
G01X03345Y15307D01*
G01X03334Y15447D01*
G01X03315Y15546D01*
G01X03284Y15648D01*
G01X03240Y15751D01*
G01X03189Y15840D01*
G01X03128Y15926D01*
G01X03034Y16030D01*
G01X02947Y16104D01*
G01X02835Y16177D01*
G01X02721Y16232D01*
G01X02626Y16265D01*
G01X02521Y16289D01*
G01X02411Y16303D01*
G01X02222Y16298D01*
G01X02123Y16281D01*
G01X02016Y16250D01*
G01X01922Y16212D01*
G01X01798Y16141D01*
G01X01763Y16132D01*
G01X01731Y16150D01*
G01X01697Y16241D01*
G01X01655Y16319D01*
G01X01596Y16403D01*
G01X01600Y17408D01*
G01X01583Y17505D01*
G01X01585Y17572D01*
G01X01573Y17662D01*
G01X01545Y17756D01*
G01X01561Y17789D01*
G01X01595Y17803D01*
G01X06015Y17800D01*
G01X06074Y17740D01*
G01X06141Y17689D01*
G01X06209Y17653D01*
G01X06303Y17625D01*
G01X06386Y17614D01*
G01X06490Y17623D01*
G01X06574Y17646D01*
G01X06654Y17685D01*
G01X06713Y17728D01*
G01X06777Y17793D01*
G01X06821Y17857D01*
G01X06859Y17943D01*
G01X06879Y18025D01*
G01X06888Y18182D01*
G01X06914Y18203D01*
G01X06995Y18204D01*
G01X07061Y18143D01*
G01X07087Y18002D01*
G01X07124Y17917D01*
G01X07170Y17847D01*
G01X07221Y17792D01*
G01X07293Y17738D01*
G01X07359Y17703D01*
G01X07453Y17675D01*
G01X07536Y17664D01*
G01X07640Y17673D01*
G01X07724Y17696D01*
G01X07826Y17747D01*
G01X07865Y17740D01*
G01X07924Y17617D01*
G01X07970Y17547D01*
G01X08021Y17492D01*
G01X08093Y17438D01*
G01X08159Y17403D01*
G01X08253Y17375D01*
G01X08336Y17364D01*
G01X08440Y17367D01*
G01X08460Y17351D01*
G01X08469Y17328D01*
G01X08467Y17304D01*
G01X08349Y17173D01*
G01X08310Y17107D01*
G01X08279Y17018D01*
G01X08265Y16939D01*
G01X08269Y16833D01*
G01X08287Y16752D01*
G01X08324Y16667D01*
G01X08370Y16597D01*
G01X08421Y16542D01*
G01X08491Y16489D01*
G01X08559Y16453D01*
G01X08653Y16425D01*
G01X08736Y16414D01*
G01X08840Y16423D01*
G01X08924Y16446D01*
G01X09004Y16485D01*
G01X09063Y16528D01*
G01X09127Y16593D01*
G01X09170Y16655D01*
G01X09209Y16742D01*
G01X09235Y16884D01*
G01X10334Y17997D01*
G01X10369Y18059D01*
G01X10400Y18185D01*
G01X10394Y18262D01*
G01X10400Y19808D01*
G01X10391Y19879D01*
G01X10365Y19951D01*
G01X10298Y20048D01*
G01X09112Y21228D01*
G01X09052Y21265D01*
G01X08951Y21296D01*
G01X05493Y21304D01*
G01X05295Y21498D01*
G01X05273Y21612D01*
G01X05247Y21691D01*
G01X05205Y21769D01*
G01X05157Y21829D01*
G01X05092Y21888D01*
G01X05022Y21933D01*
G01X04941Y21965D01*
G01X04857Y21982D01*
G01X04751Y21983D01*
G01X04675Y21969D01*
G01X04582Y21934D01*
G01X04519Y21897D01*
G01X04454Y21840D01*
G01X04399Y21773D01*
G01X04359Y21706D01*
G01X04329Y21619D01*
G01X04315Y21539D01*
G01X04319Y21433D01*
G01X04337Y21352D01*
G01X04373Y21268D01*
G01X04420Y21197D01*
G01X04471Y21142D01*
G01X04543Y21088D01*
G01X04609Y21053D01*
G01X04703Y21025D01*
G01X04796Y21010D01*
G01X05139Y20672D01*
G01X05201Y20634D01*
G01X05270Y20610D01*
G01X05335Y20600D01*
G01X08000Y20600D01*
G01X08028Y20569D01*
G01X08023Y20529D01*
G01X07978Y20417D01*
G01X07965Y20339D01*
G01X07969Y20233D01*
G01X07987Y20152D01*
G01X08024Y20067D01*
G01X08099Y19959D01*
G01X08103Y18330D01*
G01X08095Y18303D01*
G01X08075Y18285D01*
G01X08047Y18280D01*
G01X08022Y18291D01*
G01X07955Y18419D01*
G01X07907Y18479D01*
G01X07842Y18538D01*
G01X07772Y18583D01*
G01X07691Y18615D01*
G01X07565Y18634D01*
G01X07347Y18837D01*
G01X07288Y18870D01*
G01X07192Y18896D01*
G01X-04029Y18899D01*
G01X-04059Y18909D01*
G01X-04077Y18934D01*
G01X-04078Y19052D01*
G01X-04096Y19147D01*
G01X-04123Y19219D01*
G01X-04170Y19301D01*
G01X-04252Y19394D01*
G01X-04319Y19443D01*
G01X-04410Y19489D01*
G01X-04498Y19514D01*
G01X-04586Y19525D01*
G01X-04693Y19516D01*
G01X-04783Y19492D01*
G01X-04871Y19451D01*
G01X-04935Y19404D01*
G01X-05024Y19309D01*
G01X-05075Y19223D01*
G01X-05100Y19161D01*
G01X-05121Y19062D01*
G01X-05122Y18950D01*
G01X-05104Y18853D01*
G01X-05077Y18781D01*
G01X-05030Y18699D01*
G01X-04948Y18606D01*
G01X-04859Y18546D01*
G01X-04832Y18512D01*
G01X-04832Y18490D01*
G01X-04859Y18456D01*
G01X-04935Y18404D01*
G01X-05024Y18309D01*
G01X-05075Y18223D01*
G01X-05100Y18161D01*
G01X-05121Y18062D01*
G01X-05122Y17948D01*
G01X-05104Y17853D01*
G01X-05079Y17785D01*
G01X-05030Y17699D01*
G01X-04940Y17600D01*
G01X-04919Y17566D01*
G01X-04930Y17528D01*
G01X-05024Y17475D01*
G01X-05075Y17424D01*
G01X-05112Y17351D01*
G01X-05125Y17275D01*
G01X-05125Y16725D01*
G01X-05113Y16650D01*
G01X-05075Y16576D01*
G01X-05024Y16525D01*
G01X-04950Y16487D01*
G01X-04873Y16475D01*
G01X-04327Y16475D01*
G01X-04250Y16487D01*
G01X-04176Y16525D01*
G01X-04125Y16576D01*
G01X-04087Y16650D01*
G01X-04075Y16725D01*
G01X-04070Y17033D01*
G01X-03312Y17795D01*
G01X-00235Y17802D01*
G01X-00210Y17795D01*
G01X-00192Y17777D01*
G01X-00185Y17752D01*
G01X-00192Y17727D01*
G01X-00296Y17640D01*
G01X-00351Y17573D01*
G01X-00391Y17506D01*
G01X-00421Y17420D01*
G01X-00435Y17339D01*
G01X-00431Y17233D01*
G01X-00413Y17152D01*
G01X-00376Y17067D01*
G01X-00330Y16997D01*
G01X-00279Y16942D01*
G01X-00207Y16888D01*
G01X-00141Y16853D01*
G01X-00047Y16825D01*
G01X00046Y16809D01*
G01X00346Y16510D01*
G01X00350Y14284D01*
G01X00325Y14257D01*
G01X00290Y14254D01*
G01X00164Y14275D01*
G01X00057Y14266D01*
G01X-00033Y14242D01*
G01X-00121Y14201D01*
G01X-00184Y14155D01*
G01X00185Y13785D01*
G01X00150Y13750D01*
G01X00185Y13715D01*
G01X-00184Y13346D01*
G01X-00131Y13307D01*
G01X-00040Y13261D01*
G01X00048Y13236D01*
G01X00136Y13225D01*
G01X00243Y13234D01*
G01X00309Y13249D01*
G01X00341Y13233D01*
G01X00354Y13199D01*
G01X00354Y12900D01*
G01X00369Y12835D01*
G01X00411Y12754D01*
G01X00436Y12605D01*
G01X00474Y12517D01*
G01X00518Y12449D01*
G01X00571Y12392D01*
G01X00643Y12338D01*
G01X00709Y12303D01*
G01X00803Y12275D01*
G01X00886Y12264D01*
G01X00886Y12264D01*
G01X00990Y12273D01*
D25*
G01X09640Y12123D02*
G01X09640Y12123D01*
G01X09724Y12146D01*
G01X09804Y12185D01*
G01X09863Y12228D01*
G01X09927Y12293D01*
G01X09970Y12355D01*
G01X10009Y12443D01*
G01X10029Y12525D01*
G01X10035Y12625D01*
G01X10023Y12712D01*
G01X09997Y12791D01*
G01X09955Y12869D01*
G01X09907Y12929D01*
G01X09842Y12988D01*
G01X09772Y13033D01*
G01X09691Y13065D01*
G01X09607Y13082D01*
G01X09501Y13083D01*
G01X09425Y13069D01*
G01X09332Y13034D01*
G01X09269Y12997D01*
G01X09213Y12951D01*
G01X08444Y12954D01*
G01X07226Y14165D01*
G01X07213Y14187D01*
G01X07213Y14214D01*
G01X07226Y14236D01*
G01X07249Y14249D01*
G01X07276Y14248D01*
G01X07353Y14225D01*
G01X07436Y14214D01*
G01X07540Y14223D01*
G01X07624Y14246D01*
G01X07704Y14285D01*
G01X07763Y14328D01*
G01X07827Y14393D01*
G01X07870Y14455D01*
G01X07909Y14542D01*
G01X07938Y14691D01*
G01X08433Y15192D01*
G01X08462Y15202D01*
G01X08803Y15200D01*
G01X08901Y15217D01*
G01X08990Y15256D01*
G01X09051Y15305D01*
G01X10211Y16465D01*
G01X10291Y16473D01*
G01X10374Y16496D01*
G01X10454Y16535D01*
G01X10513Y16578D01*
G01X10577Y16643D01*
G01X10620Y16705D01*
G01X10659Y16792D01*
G01X10679Y16875D01*
G01X10685Y16975D01*
G01X10673Y17062D01*
G01X10647Y17141D01*
G01X10605Y17219D01*
G01X10557Y17279D01*
G01X10491Y17339D01*
G01X10422Y17383D01*
G01X10341Y17415D01*
G01X10257Y17432D01*
G01X10151Y17433D01*
G01X10075Y17419D01*
G01X09982Y17384D01*
G01X09919Y17347D01*
G01X09854Y17290D01*
G01X09799Y17223D01*
G01X09760Y17157D01*
G01X09729Y17069D01*
G01X09713Y16965D01*
G01X08659Y15902D01*
G01X08258Y15896D01*
G01X08158Y15869D01*
G01X08075Y15817D01*
G01X07437Y15185D01*
G01X07299Y15159D01*
G01X07260Y15160D01*
G01X07234Y15189D01*
G01X07235Y15275D01*
G01X07223Y15362D01*
G01X07197Y15441D01*
G01X07155Y15519D01*
G01X07107Y15579D01*
G01X07042Y15638D01*
G01X06972Y15683D01*
G01X06891Y15715D01*
G01X06807Y15732D01*
G01X06701Y15733D01*
G01X06625Y15719D01*
G01X06532Y15684D01*
G01X06469Y15647D01*
G01X06385Y15568D01*
G01X06347Y15549D01*
G01X06309Y15565D01*
G01X06255Y15669D01*
G01X06207Y15729D01*
G01X06142Y15788D01*
G01X06072Y15833D01*
G01X05991Y15865D01*
G01X05907Y15882D01*
G01X05801Y15883D01*
G01X05725Y15869D01*
G01X05632Y15834D01*
G01X05569Y15797D01*
G01X05504Y15740D01*
G01X05449Y15673D01*
G01X05409Y15606D01*
G01X05378Y15517D01*
G01X05365Y15439D01*
G01X05369Y15333D01*
G01X05387Y15252D01*
G01X05422Y15170D01*
G01X05500Y15058D01*
G01X05502Y14760D01*
G01X05488Y14733D01*
G01X05058Y14302D01*
G01X04506Y14298D01*
G01X04478Y14306D01*
G01X04372Y14383D01*
G01X04291Y14415D01*
G01X04207Y14432D01*
G01X04101Y14433D01*
G01X04025Y14419D01*
G01X03932Y14384D01*
G01X03869Y14347D01*
G01X03804Y14290D01*
G01X03749Y14223D01*
G01X03709Y14156D01*
G01X03679Y14068D01*
G01X03665Y13989D01*
G01X03669Y13883D01*
G01X03687Y13802D01*
G01X03724Y13717D01*
G01X03770Y13647D01*
G01X03821Y13592D01*
G01X03893Y13538D01*
G01X03959Y13503D01*
G01X04053Y13475D01*
G01X04136Y13464D01*
G01X04240Y13473D01*
G01X04324Y13496D01*
G01X04404Y13535D01*
G01X04492Y13600D01*
G01X05203Y13600D01*
G01X05301Y13617D01*
G01X05390Y13656D01*
G01X05451Y13705D01*
G01X06129Y14389D01*
G01X06166Y14450D01*
G01X06195Y14554D01*
G01X06199Y15058D01*
G01X06236Y15096D01*
G01X06274Y15096D01*
G01X06301Y15070D01*
G01X06324Y15017D01*
G01X06397Y14916D01*
G01X06406Y14092D01*
G01X06438Y13996D01*
G01X06466Y13945D01*
G01X08090Y12321D01*
G01X08151Y12284D01*
G01X08220Y12260D01*
G01X08285Y12250D01*
G01X09212Y12249D01*
G01X09293Y12188D01*
G01X09359Y12153D01*
G01X09453Y12125D01*
G01X09536Y12114D01*
G01X09536Y12114D01*
G01X09640Y12123D01*
D25*
G01X-03632Y11798D02*
G01X-03632Y11798D01*
G01X-03914Y11823D01*
G01X-04159Y11874D01*
G01X-04349Y11935D01*
G01X-04542Y12017D01*
G01X-04700Y12103D01*
G01X-04819Y12179D01*
G01X-05005Y12322D01*
G01X-05127Y12436D01*
G01X-05309Y12645D01*
G01X-05394Y12765D01*
G01X-05522Y12987D01*
G01X-05633Y13250D01*
G01X-05697Y13475D01*
G01X-05736Y13704D01*
G01X-05755Y13998D01*
G01X-05752Y22130D01*
G01X-05727Y22414D01*
G01X-05672Y22676D01*
G01X-05624Y22826D01*
G01X-05538Y23032D01*
G01X-05397Y23280D01*
G01X-05264Y23462D01*
G01X-05132Y23608D01*
G01X-05025Y23712D01*
G01X-04816Y23874D01*
G01X-04673Y23963D01*
G01X-04422Y24086D01*
G01X-04287Y24137D01*
G01X-04075Y24197D01*
G01X-03866Y24233D01*
G01X-03588Y24250D01*
G01X11935Y24256D01*
G01X12170Y24243D01*
G01X12370Y24219D01*
G01X12664Y24145D01*
G01X12942Y24033D01*
G01X13173Y23901D01*
G01X13333Y23787D01*
G01X13483Y23657D01*
G01X13584Y23554D01*
G01X13763Y23330D01*
G01X13841Y23211D01*
G01X13967Y22969D01*
G01X14050Y22749D01*
G01X14103Y22544D01*
G01X14138Y22331D01*
G01X14151Y22102D01*
G01X14154Y13991D01*
G01X14124Y13618D01*
G01X14066Y13357D01*
G01X14011Y13190D01*
G01X13926Y12994D01*
G01X13848Y12850D01*
G01X13771Y12731D01*
G01X13653Y12575D01*
G01X13516Y12425D01*
G01X13314Y12249D01*
G01X13073Y12086D01*
G01X12822Y11963D01*
G01X12682Y11911D01*
G01X12458Y11850D01*
G01X12246Y11814D01*
G01X11957Y11796D01*
G01X11957Y11796D01*
G01X-03632Y11798D01*
M02*
