G04 ( created by brdgerber.py ( brdgerber.py v0.1 2014-03-12 ) ) date 2020-11-08 23:19:50 EST*
G04 Gerber Fmt 3.4, Leading zero omitted, Abs format*
%MOIN*%
%FSLAX34Y34*%
G01*
G70*
G90*
G04 APERTURE LIST*
%ADD20C,0.1500*%
%ADD23C,0.0059*%
%ADD11C,0.0000*%
%ADD24C,0.0472*%
%ADD21R,0.0629X0.0709*%
%ADD19R,0.0472X0.0275*%
%ADD17C,0.0120*%
%ADD15R,0.0550X0.0550*%
%ADD14C,0.0050*%
%ADD13C,0.0020*%
%ADD12C,0.0060*%
%ADD25C,0.0100*%
%ADD16C,0.0550*%
%ADD22C,0.0200*%
%ADD10R,0.0260X0.0800*%
%ADD18R,0.0709X0.0629*%
G04 APERTURE END LIST*
G54D20*
D22*
G01X-03600Y24600D02*
G01X12000Y24600D01*
D22*
G01X-03600Y11450D02*
G01X12000Y11450D01*
D22*
G01X-06100Y22100D02*
G01X-06100Y13950D01*
D22*
G01X14500Y22100D02*
G01X14500Y13950D01*
D22*
G01X-03600Y24600D02*
G01X-03600Y24600D01*
G01X-03631Y24600D01*
G01X-03661Y24599D01*
G01X-03692Y24598D01*
G01X-03723Y24597D01*
G01X-03753Y24595D01*
G01X-03784Y24593D01*
G01X-03814Y24591D01*
G01X-03845Y24588D01*
G01X-03876Y24585D01*
G01X-03906Y24581D01*
G01X-03936Y24577D01*
G01X-03967Y24573D01*
G01X-03997Y24568D01*
G01X-04027Y24563D01*
G01X-04058Y24558D01*
G01X-04088Y24552D01*
G01X-04118Y24546D01*
G01X-04148Y24539D01*
G01X-04178Y24532D01*
G01X-04207Y24525D01*
G01X-04237Y24517D01*
G01X-04267Y24509D01*
G01X-04296Y24501D01*
G01X-04326Y24492D01*
G01X-04355Y24483D01*
G01X-04384Y24474D01*
G01X-04413Y24464D01*
G01X-04442Y24454D01*
G01X-04471Y24443D01*
G01X-04500Y24432D01*
G01X-04528Y24421D01*
G01X-04557Y24410D01*
G01X-04585Y24398D01*
G01X-04613Y24386D01*
G01X-04641Y24373D01*
G01X-04669Y24360D01*
G01X-04697Y24347D01*
G01X-04724Y24333D01*
G01X-04751Y24319D01*
G01X-04778Y24305D01*
G01X-04805Y24290D01*
G01X-04832Y24275D01*
G01X-04859Y24260D01*
G01X-04885Y24244D01*
G01X-04911Y24228D01*
G01X-04937Y24212D01*
G01X-04963Y24196D01*
G01X-04989Y24179D01*
G01X-05014Y24161D01*
G01X-05040Y24144D01*
G01X-05064Y24126D01*
G01X-05089Y24108D01*
G01X-05114Y24090D01*
G01X-05138Y24071D01*
G01X-05162Y24052D01*
G01X-05186Y24033D01*
G01X-05210Y24013D01*
G01X-05233Y23993D01*
G01X-05256Y23973D01*
G01X-05279Y23952D01*
G01X-05302Y23932D01*
G01X-05324Y23911D01*
G01X-05346Y23889D01*
G01X-05368Y23868D01*
G01X-05389Y23846D01*
G01X-05411Y23824D01*
G01X-05432Y23802D01*
G01X-05452Y23779D01*
G01X-05473Y23756D01*
G01X-05493Y23733D01*
G01X-05513Y23710D01*
G01X-05533Y23686D01*
G01X-05552Y23662D01*
G01X-05571Y23638D01*
G01X-05590Y23614D01*
G01X-05608Y23589D01*
G01X-05626Y23564D01*
G01X-05644Y23540D01*
G01X-05661Y23514D01*
G01X-05679Y23489D01*
G01X-05696Y23463D01*
G01X-05712Y23437D01*
G01X-05728Y23411D01*
G01X-05744Y23385D01*
G01X-05760Y23359D01*
G01X-05775Y23332D01*
G01X-05790Y23305D01*
G01X-05805Y23278D01*
G01X-05819Y23251D01*
G01X-05833Y23224D01*
G01X-05847Y23197D01*
G01X-05860Y23169D01*
G01X-05873Y23141D01*
G01X-05886Y23113D01*
G01X-05898Y23085D01*
G01X-05910Y23057D01*
G01X-05921Y23028D01*
G01X-05932Y23000D01*
G01X-05943Y22971D01*
G01X-05954Y22942D01*
G01X-05964Y22913D01*
G01X-05974Y22884D01*
G01X-05983Y22855D01*
G01X-05992Y22826D01*
G01X-06001Y22796D01*
G01X-06009Y22767D01*
G01X-06017Y22737D01*
G01X-06025Y22707D01*
G01X-06032Y22678D01*
G01X-06039Y22648D01*
G01X-06046Y22618D01*
G01X-06052Y22588D01*
G01X-06058Y22558D01*
G01X-06063Y22527D01*
G01X-06068Y22497D01*
G01X-06073Y22467D01*
G01X-06077Y22436D01*
G01X-06081Y22406D01*
G01X-06085Y22376D01*
G01X-06088Y22345D01*
G01X-06091Y22314D01*
G01X-06093Y22284D01*
G01X-06095Y22253D01*
G01X-06097Y22223D01*
G01X-06098Y22192D01*
G01X-06099Y22161D01*
G01X-06100Y22131D01*
G01X-06100Y22100D01*
D22*
G01X14500Y22100D02*
G01X14500Y22100D01*
G01X14500Y22131D01*
G01X14499Y22161D01*
G01X14498Y22192D01*
G01X14497Y22223D01*
G01X14495Y22253D01*
G01X14493Y22284D01*
G01X14491Y22314D01*
G01X14488Y22345D01*
G01X14485Y22376D01*
G01X14481Y22406D01*
G01X14477Y22436D01*
G01X14473Y22467D01*
G01X14468Y22497D01*
G01X14463Y22527D01*
G01X14458Y22558D01*
G01X14452Y22588D01*
G01X14446Y22618D01*
G01X14439Y22648D01*
G01X14432Y22678D01*
G01X14425Y22707D01*
G01X14417Y22737D01*
G01X14409Y22767D01*
G01X14401Y22796D01*
G01X14392Y22826D01*
G01X14383Y22855D01*
G01X14374Y22884D01*
G01X14364Y22913D01*
G01X14354Y22942D01*
G01X14343Y22971D01*
G01X14332Y23000D01*
G01X14321Y23028D01*
G01X14310Y23057D01*
G01X14298Y23085D01*
G01X14286Y23113D01*
G01X14273Y23141D01*
G01X14260Y23169D01*
G01X14247Y23197D01*
G01X14233Y23224D01*
G01X14219Y23251D01*
G01X14205Y23278D01*
G01X14190Y23305D01*
G01X14175Y23332D01*
G01X14160Y23359D01*
G01X14144Y23385D01*
G01X14128Y23411D01*
G01X14112Y23437D01*
G01X14096Y23463D01*
G01X14079Y23489D01*
G01X14061Y23514D01*
G01X14044Y23540D01*
G01X14026Y23564D01*
G01X14008Y23589D01*
G01X13990Y23614D01*
G01X13971Y23638D01*
G01X13952Y23662D01*
G01X13933Y23686D01*
G01X13913Y23710D01*
G01X13893Y23733D01*
G01X13873Y23756D01*
G01X13852Y23779D01*
G01X13832Y23802D01*
G01X13811Y23824D01*
G01X13789Y23846D01*
G01X13768Y23868D01*
G01X13746Y23889D01*
G01X13724Y23911D01*
G01X13702Y23932D01*
G01X13679Y23952D01*
G01X13656Y23973D01*
G01X13633Y23993D01*
G01X13610Y24013D01*
G01X13586Y24033D01*
G01X13562Y24052D01*
G01X13538Y24071D01*
G01X13514Y24090D01*
G01X13489Y24108D01*
G01X13464Y24126D01*
G01X13440Y24144D01*
G01X13414Y24161D01*
G01X13389Y24179D01*
G01X13363Y24196D01*
G01X13337Y24212D01*
G01X13311Y24228D01*
G01X13285Y24244D01*
G01X13259Y24260D01*
G01X13232Y24275D01*
G01X13205Y24290D01*
G01X13178Y24305D01*
G01X13151Y24319D01*
G01X13124Y24333D01*
G01X13097Y24347D01*
G01X13069Y24360D01*
G01X13041Y24373D01*
G01X13013Y24386D01*
G01X12985Y24398D01*
G01X12957Y24410D01*
G01X12928Y24421D01*
G01X12900Y24432D01*
G01X12871Y24443D01*
G01X12842Y24454D01*
G01X12813Y24464D01*
G01X12784Y24474D01*
G01X12755Y24483D01*
G01X12726Y24492D01*
G01X12696Y24501D01*
G01X12667Y24509D01*
G01X12637Y24517D01*
G01X12607Y24525D01*
G01X12578Y24532D01*
G01X12548Y24539D01*
G01X12518Y24546D01*
G01X12488Y24552D01*
G01X12458Y24558D01*
G01X12427Y24563D01*
G01X12397Y24568D01*
G01X12367Y24573D01*
G01X12336Y24577D01*
G01X12306Y24581D01*
G01X12276Y24585D01*
G01X12245Y24588D01*
G01X12214Y24591D01*
G01X12184Y24593D01*
G01X12153Y24595D01*
G01X12123Y24597D01*
G01X12092Y24598D01*
G01X12061Y24599D01*
G01X12031Y24600D01*
G01X12000Y24600D01*
D22*
G01X12000Y11450D02*
G01X12000Y11450D01*
G01X12031Y11450D01*
G01X12061Y11451D01*
G01X12092Y11452D01*
G01X12123Y11453D01*
G01X12153Y11455D01*
G01X12184Y11457D01*
G01X12214Y11459D01*
G01X12245Y11462D01*
G01X12276Y11465D01*
G01X12306Y11469D01*
G01X12336Y11473D01*
G01X12367Y11477D01*
G01X12397Y11482D01*
G01X12427Y11487D01*
G01X12458Y11492D01*
G01X12488Y11498D01*
G01X12518Y11504D01*
G01X12548Y11511D01*
G01X12578Y11518D01*
G01X12607Y11525D01*
G01X12637Y11533D01*
G01X12667Y11541D01*
G01X12696Y11549D01*
G01X12726Y11558D01*
G01X12755Y11567D01*
G01X12784Y11576D01*
G01X12813Y11586D01*
G01X12842Y11596D01*
G01X12871Y11607D01*
G01X12900Y11618D01*
G01X12928Y11629D01*
G01X12957Y11640D01*
G01X12985Y11652D01*
G01X13013Y11664D01*
G01X13041Y11677D01*
G01X13069Y11690D01*
G01X13097Y11703D01*
G01X13124Y11717D01*
G01X13151Y11731D01*
G01X13178Y11745D01*
G01X13205Y11760D01*
G01X13232Y11775D01*
G01X13259Y11790D01*
G01X13285Y11806D01*
G01X13311Y11822D01*
G01X13337Y11838D01*
G01X13363Y11854D01*
G01X13389Y11871D01*
G01X13414Y11889D01*
G01X13440Y11906D01*
G01X13464Y11924D01*
G01X13489Y11942D01*
G01X13514Y11960D01*
G01X13538Y11979D01*
G01X13562Y11998D01*
G01X13586Y12017D01*
G01X13610Y12037D01*
G01X13633Y12057D01*
G01X13656Y12077D01*
G01X13679Y12098D01*
G01X13702Y12118D01*
G01X13724Y12139D01*
G01X13746Y12161D01*
G01X13768Y12182D01*
G01X13789Y12204D01*
G01X13811Y12226D01*
G01X13832Y12248D01*
G01X13852Y12271D01*
G01X13873Y12294D01*
G01X13893Y12317D01*
G01X13913Y12340D01*
G01X13933Y12364D01*
G01X13952Y12388D01*
G01X13971Y12412D01*
G01X13990Y12436D01*
G01X14008Y12461D01*
G01X14026Y12486D01*
G01X14044Y12510D01*
G01X14061Y12536D01*
G01X14079Y12561D01*
G01X14096Y12587D01*
G01X14112Y12613D01*
G01X14128Y12639D01*
G01X14144Y12665D01*
G01X14160Y12691D01*
G01X14175Y12718D01*
G01X14190Y12745D01*
G01X14205Y12772D01*
G01X14219Y12799D01*
G01X14233Y12826D01*
G01X14247Y12853D01*
G01X14260Y12881D01*
G01X14273Y12909D01*
G01X14286Y12937D01*
G01X14298Y12965D01*
G01X14310Y12993D01*
G01X14321Y13022D01*
G01X14332Y13050D01*
G01X14343Y13079D01*
G01X14354Y13108D01*
G01X14364Y13137D01*
G01X14374Y13166D01*
G01X14383Y13195D01*
G01X14392Y13224D01*
G01X14401Y13254D01*
G01X14409Y13283D01*
G01X14417Y13313D01*
G01X14425Y13343D01*
G01X14432Y13372D01*
G01X14439Y13402D01*
G01X14446Y13432D01*
G01X14452Y13462D01*
G01X14458Y13492D01*
G01X14463Y13523D01*
G01X14468Y13553D01*
G01X14473Y13583D01*
G01X14477Y13614D01*
G01X14481Y13644D01*
G01X14485Y13674D01*
G01X14488Y13705D01*
G01X14491Y13736D01*
G01X14493Y13766D01*
G01X14495Y13797D01*
G01X14497Y13827D01*
G01X14498Y13858D01*
G01X14499Y13889D01*
G01X14500Y13919D01*
G01X14500Y13950D01*
D22*
G01X-06100Y13950D02*
G01X-06100Y13950D01*
G01X-06100Y13919D01*
G01X-06099Y13889D01*
G01X-06098Y13858D01*
G01X-06097Y13827D01*
G01X-06095Y13797D01*
G01X-06093Y13766D01*
G01X-06091Y13736D01*
G01X-06088Y13705D01*
G01X-06085Y13674D01*
G01X-06081Y13644D01*
G01X-06077Y13614D01*
G01X-06073Y13583D01*
G01X-06068Y13553D01*
G01X-06063Y13523D01*
G01X-06058Y13492D01*
G01X-06052Y13462D01*
G01X-06046Y13432D01*
G01X-06039Y13402D01*
G01X-06032Y13372D01*
G01X-06025Y13343D01*
G01X-06017Y13313D01*
G01X-06009Y13283D01*
G01X-06001Y13254D01*
G01X-05992Y13224D01*
G01X-05983Y13195D01*
G01X-05974Y13166D01*
G01X-05964Y13137D01*
G01X-05954Y13108D01*
G01X-05943Y13079D01*
G01X-05932Y13050D01*
G01X-05921Y13022D01*
G01X-05910Y12993D01*
G01X-05898Y12965D01*
G01X-05886Y12937D01*
G01X-05873Y12909D01*
G01X-05860Y12881D01*
G01X-05847Y12853D01*
G01X-05833Y12826D01*
G01X-05819Y12799D01*
G01X-05805Y12772D01*
G01X-05790Y12745D01*
G01X-05775Y12718D01*
G01X-05760Y12691D01*
G01X-05744Y12665D01*
G01X-05728Y12639D01*
G01X-05712Y12613D01*
G01X-05696Y12587D01*
G01X-05679Y12561D01*
G01X-05661Y12536D01*
G01X-05644Y12510D01*
G01X-05626Y12486D01*
G01X-05608Y12461D01*
G01X-05590Y12436D01*
G01X-05571Y12412D01*
G01X-05552Y12388D01*
G01X-05533Y12364D01*
G01X-05513Y12340D01*
G01X-05493Y12317D01*
G01X-05473Y12294D01*
G01X-05452Y12271D01*
G01X-05432Y12248D01*
G01X-05411Y12226D01*
G01X-05389Y12204D01*
G01X-05368Y12182D01*
G01X-05346Y12161D01*
G01X-05324Y12139D01*
G01X-05302Y12118D01*
G01X-05279Y12098D01*
G01X-05256Y12077D01*
G01X-05233Y12057D01*
G01X-05210Y12037D01*
G01X-05186Y12017D01*
G01X-05162Y11998D01*
G01X-05138Y11979D01*
G01X-05114Y11960D01*
G01X-05089Y11942D01*
G01X-05064Y11924D01*
G01X-05040Y11906D01*
G01X-05014Y11889D01*
G01X-04989Y11871D01*
G01X-04963Y11854D01*
G01X-04937Y11838D01*
G01X-04911Y11822D01*
G01X-04885Y11806D01*
G01X-04859Y11790D01*
G01X-04832Y11775D01*
G01X-04805Y11760D01*
G01X-04778Y11745D01*
G01X-04751Y11731D01*
G01X-04724Y11717D01*
G01X-04697Y11703D01*
G01X-04669Y11690D01*
G01X-04641Y11677D01*
G01X-04613Y11664D01*
G01X-04585Y11652D01*
G01X-04557Y11640D01*
G01X-04528Y11629D01*
G01X-04500Y11618D01*
G01X-04471Y11607D01*
G01X-04442Y11596D01*
G01X-04413Y11586D01*
G01X-04384Y11576D01*
G01X-04355Y11567D01*
G01X-04326Y11558D01*
G01X-04296Y11549D01*
G01X-04267Y11541D01*
G01X-04237Y11533D01*
G01X-04207Y11525D01*
G01X-04178Y11518D01*
G01X-04148Y11511D01*
G01X-04118Y11504D01*
G01X-04088Y11498D01*
G01X-04058Y11492D01*
G01X-04027Y11487D01*
G01X-03997Y11482D01*
G01X-03967Y11477D01*
G01X-03936Y11473D01*
G01X-03906Y11469D01*
G01X-03876Y11465D01*
G01X-03845Y11462D01*
G01X-03814Y11459D01*
G01X-03784Y11457D01*
G01X-03753Y11455D01*
G01X-03723Y11453D01*
G01X-03692Y11452D01*
G01X-03661Y11451D01*
G01X-03631Y11450D01*
G01X-03600Y11450D01*
M02*
