G04 ( created by brdgerber.py ( brdgerber.py v0.1 2014-03-12 ) ) date 2020-11-08 23:19:52 EST*
G04 Gerber Fmt 3.4, Leading zero omitted, Abs format*
%MOIN*%
%FSLAX34Y34*%
G01*
G70*
G90*
G04 APERTURE LIST*
%ADD20C,0.1500*%
%ADD23C,0.0059*%
%ADD11C,0.0000*%
%ADD24C,0.0472*%
%ADD21R,0.0629X0.0709*%
%ADD19R,0.0472X0.0275*%
%ADD17C,0.0120*%
%ADD15R,0.0550X0.0550*%
%ADD14C,0.0050*%
%ADD13C,0.0020*%
%ADD12C,0.0060*%
%ADD25C,0.0100*%
%ADD16C,0.0550*%
%ADD22C,0.0200*%
%ADD10R,0.0260X0.0800*%
%ADD18R,0.0709X0.0629*%
G04 APERTURE END LIST*
G54D20*
D10*
X09300Y19150D03*
D10*
X08800Y19150D03*
D10*
X08300Y19150D03*
D10*
X07800Y19150D03*
D10*
X07300Y19150D03*
D10*
X06800Y19150D03*
D10*
X06300Y19150D03*
D10*
X05800Y19150D03*
D10*
X05800Y13550D03*
D10*
X06300Y13550D03*
D10*
X06800Y13550D03*
D10*
X07300Y13550D03*
D10*
X07800Y13550D03*
D10*
X08300Y13550D03*
D10*
X08800Y13550D03*
D10*
X09300Y13550D03*
D10*
X05300Y19150D03*
D10*
X04800Y19150D03*
D10*
X05300Y13550D03*
D10*
X04800Y13550D03*
D15*
X02750Y22550D03*
D16*
X01750Y22550D03*
D16*
X00750Y22550D03*
D16*
X-00250Y22550D03*
D16*
X-01250Y22550D03*
D16*
X-02250Y22550D03*
D16*
X-03250Y22550D03*
D18*
X11050Y18959D03*
D18*
X11050Y17841D03*
D19*
X05672Y23200D03*
D19*
X07128Y23200D03*
D20*
G01X-02945Y15305D02*
G01X-02945Y15305D01*
D20*
G01X02345Y15305D02*
G01X02345Y15305D01*
D20*
G01X02345Y20595D02*
G01X02345Y20595D01*
D20*
G01X-02945Y20595D02*
G01X-02945Y20595D01*
D15*
X-00850Y13750D03*
D16*
X00150Y13750D03*
D21*
X09109Y21800D03*
D21*
X07991Y21800D03*
D21*
X06909Y21799D03*
D21*
X05791Y21799D03*
D18*
X11000Y15259D03*
D18*
X11000Y14141D03*
D15*
X-04600Y17000D03*
D16*
X-04600Y18000D03*
D16*
X-04600Y19000D03*
D19*
X07872Y23200D03*
D19*
X09328Y23200D03*
D22*
G01X05300Y19150D02*
G01X05300Y13550D01*
D22*
G01X04800Y19150D02*
G01X04800Y13550D01*
D22*
G01X09300Y19150D02*
G01X09300Y18100D01*
D24*
X09300Y18100D03*
D24*
X04300Y17400D03*
D22*
G01X04300Y17400D02*
G01X04150Y17550D01*
D22*
G01X04150Y17550D02*
G01X04150Y18500D01*
D22*
G01X04150Y18500D02*
G01X04800Y19150D01*
D22*
G01X09300Y18100D02*
G01X09300Y13550D01*
D22*
G01X00150Y13750D02*
G01X01250Y13750D01*
D24*
X01250Y13750D03*
D22*
G01X05800Y19150D02*
G01X05800Y19550D01*
D22*
G01X05800Y19550D02*
G01X05600Y19750D01*
D22*
G01X01300Y22100D02*
G01X01750Y22550D01*
D22*
G01X01300Y19900D02*
G01X01300Y22100D01*
D22*
G01X01700Y19500D02*
G01X01300Y19900D01*
D22*
G01X06800Y19150D02*
G01X06800Y18500D01*
D22*
G01X06800Y18500D02*
G01X06400Y18100D01*
D24*
X06400Y18100D03*
D22*
G01X07300Y19150D02*
G01X07300Y18400D01*
D22*
G01X07300Y18400D02*
G01X07550Y18150D01*
D24*
X07550Y18150D03*
D22*
G01X-04600Y19000D02*
G01X-04200Y19000D01*
D22*
G01X-04200Y19000D02*
G01X-01800Y16600D01*
D22*
G01X-01800Y16600D02*
G01X02650Y16600D01*
D22*
G01X02650Y16600D02*
G01X04150Y15100D01*
D22*
G01X04150Y15100D02*
G01X04150Y13950D01*
D24*
X04150Y13950D03*
D22*
G01X-00150Y13200D02*
G01X04100Y13200D01*
D22*
G01X05300Y12950D02*
G01X05300Y13550D01*
D22*
G01X05250Y12900D02*
G01X05300Y12950D01*
D22*
G01X04400Y12900D02*
G01X05250Y12900D01*
D22*
G01X04100Y13200D02*
G01X04400Y12900D01*
D22*
G01X-03250Y22550D02*
G01X-03250Y22350D01*
D22*
G01X-03250Y22350D02*
G01X-01350Y20450D01*
D22*
G01X-01350Y20450D02*
G01X-01350Y17400D01*
D24*
X-01350Y17400D03*
D22*
G01X02750Y19500D02*
G01X01700Y19500D01*
D22*
G01X03000Y19750D02*
G01X02750Y19500D01*
D22*
G01X05600Y19750D02*
G01X03000Y19750D01*
D22*
G01X10600Y12650D02*
G01X11000Y13050D01*
D22*
G01X11000Y13050D02*
G01X11000Y14150D01*
D22*
G01X09300Y15150D02*
G01X10900Y15150D01*
D22*
G01X10900Y15150D02*
G01X11000Y15250D01*
D22*
G01X07300Y13550D02*
G01X07300Y14550D01*
D22*
G01X07300Y14550D02*
G01X07450Y14700D01*
D24*
X07450Y14700D03*
D24*
X10200Y16950D03*
D22*
G01X10200Y16950D02*
G01X11050Y17800D01*
D22*
G01X11050Y17800D02*
G01X11050Y17850D01*
D22*
G01X07800Y13550D02*
G01X07800Y14300D01*
D22*
G01X07800Y14300D02*
G01X08000Y14500D01*
D22*
G01X08000Y14500D02*
G01X08000Y17500D01*
D22*
G01X08000Y17500D02*
G01X08350Y17850D01*
D24*
X08350Y17850D03*
D24*
X08450Y20300D03*
D22*
G01X08450Y20300D02*
G01X08450Y21150D01*
D22*
G01X08450Y21150D02*
G01X09100Y21800D01*
D22*
G01X08300Y13550D02*
G01X08300Y14450D01*
D22*
G01X08300Y14450D02*
G01X08600Y14750D01*
D22*
G01X08600Y14750D02*
G01X08600Y16750D01*
D22*
G01X08600Y16750D02*
G01X08750Y16900D01*
D24*
X08750Y16900D03*
D24*
X04800Y21500D03*
D22*
G01X04800Y21500D02*
G01X04850Y21550D01*
D22*
G01X04850Y21550D02*
G01X05550Y21550D01*
D22*
G01X05550Y21550D02*
G01X05800Y21800D01*
D22*
G01X09300Y19150D02*
G01X09300Y19700D01*
D22*
G01X09300Y19700D02*
G01X09650Y20050D01*
D22*
G01X09650Y20050D02*
G01X10600Y20050D01*
D22*
G01X10600Y20050D02*
G01X11050Y19600D01*
D22*
G01X11050Y19600D02*
G01X11050Y18950D01*
D22*
G01X07150Y23200D02*
G01X07850Y23200D01*
D22*
G01X05650Y23200D02*
G01X05200Y23200D01*
D22*
G01X05200Y23200D02*
G01X05150Y23150D01*
D22*
G01X05150Y23150D02*
G01X05150Y22450D01*
D22*
G01X05150Y22450D02*
G01X05800Y21800D01*
D22*
G01X08000Y21800D02*
G01X08000Y23050D01*
D22*
G01X08000Y23050D02*
G01X07850Y23200D01*
D22*
G01X09350Y23200D02*
G01X10300Y23200D01*
D22*
G01X10300Y23200D02*
G01X11750Y21750D01*
D22*
G01X11750Y21750D02*
G01X11750Y14900D01*
D22*
G01X11750Y14900D02*
G01X11000Y14150D01*
D22*
G01X06900Y21800D02*
G01X06900Y22150D01*
D22*
G01X06900Y22150D02*
G01X07250Y22500D01*
D24*
X07250Y22500D03*
D24*
X10150Y21150D03*
D22*
G01X10150Y21150D02*
G01X10150Y20500D01*
D22*
G01X10150Y20500D02*
G01X10600Y20050D01*
D22*
G01X08300Y19150D02*
G01X08300Y19750D01*
D22*
G01X08300Y19750D02*
G01X07100Y20950D01*
D22*
G01X07100Y20950D02*
G01X04650Y20950D01*
D22*
G01X04650Y20950D02*
G01X04200Y21400D01*
D22*
G01X04200Y21400D02*
G01X04200Y23200D01*
D22*
G01X04200Y23200D02*
G01X03500Y23900D01*
D22*
G01X03500Y23900D02*
G01X00000Y23900D01*
D22*
G01X00000Y23900D02*
G01X-00250Y23650D01*
D22*
G01X-00250Y23650D02*
G01X-00250Y22550D01*
D22*
G01X07800Y19150D02*
G01X07800Y19700D01*
D22*
G01X07800Y19700D02*
G01X06950Y20550D01*
D22*
G01X06950Y20550D02*
G01X04550Y20550D01*
D22*
G01X04550Y20550D02*
G01X03850Y21250D01*
D22*
G01X03850Y21250D02*
G01X03850Y23000D01*
D22*
G01X03850Y23000D02*
G01X03250Y23600D01*
D22*
G01X03250Y23600D02*
G01X01100Y23600D01*
D22*
G01X01100Y23600D02*
G01X00750Y23250D01*
D22*
G01X00750Y23250D02*
G01X00750Y22550D01*
D22*
G01X06300Y19150D02*
G01X06300Y19700D01*
D22*
G01X06300Y19700D02*
G01X05950Y20050D01*
D22*
G01X05950Y20050D02*
G01X04550Y20050D01*
D22*
G01X04550Y20050D02*
G01X03450Y21150D01*
D22*
G01X03450Y21150D02*
G01X03450Y21850D01*
D22*
G01X03450Y21850D02*
G01X02750Y22550D01*
D22*
G01X-00850Y13750D02*
G01X-00700Y13750D01*
D22*
G01X-00700Y13750D02*
G01X-00150Y13200D01*
D22*
G01X05300Y16900D02*
G01X05450Y16900D01*
D22*
G01X05450Y16900D02*
G01X06750Y15600D01*
D22*
G01X06750Y15600D02*
G01X06750Y15250D01*
D24*
X06750Y15250D03*
D24*
X09550Y12600D03*
D22*
G01X09550Y12600D02*
G01X10550Y12600D01*
D22*
G01X10550Y12600D02*
G01X10700Y12750D01*
D22*
G01X06800Y13550D02*
G01X06800Y14350D01*
D22*
G01X06800Y14350D02*
G01X05850Y15300D01*
D22*
G01X05850Y15300D02*
G01X05850Y15400D01*
D24*
X05850Y15400D03*
D22*
G01X05800Y13550D02*
G01X05800Y12750D01*
D22*
G01X05800Y12750D02*
G01X05650Y12600D01*
D22*
G01X05650Y12600D02*
G01X01050Y12600D01*
D22*
G01X01050Y12600D02*
G01X00900Y12750D01*
D24*
X00900Y12750D03*
D24*
X00050Y17300D03*
D22*
G01X00050Y17300D02*
G01X-00850Y18200D01*
D22*
G01X-00850Y18200D02*
G01X-00850Y20750D01*
D22*
G01X-00850Y20750D02*
G01X-02250Y22150D01*
D22*
G01X-02250Y22150D02*
G01X-02250Y22550D01*
D22*
G01X06300Y13550D02*
G01X06300Y12650D01*
D22*
G01X06300Y12650D02*
G01X05950Y12300D01*
D22*
G01X05950Y12300D02*
G01X-01200Y12300D01*
D22*
G01X-01200Y12300D02*
G01X-01750Y12850D01*
D22*
G01X-01750Y12850D02*
G01X-01750Y14250D01*
D22*
G01X-01750Y14250D02*
G01X00050Y16050D01*
D22*
G01X00050Y16050D02*
G01X01250Y16050D01*
D24*
X01250Y16050D03*
D24*
X01100Y17550D03*
D22*
G01X01100Y17550D02*
G01X00000Y18650D01*
D22*
G01X00000Y18650D02*
G01X00000Y21300D01*
D22*
G01X00000Y21300D02*
G01X-01250Y22550D01*
M02*
