G04 ( created by brdgerber.py ( brdgerber.py v0.1 2014-03-12 ) ) date 2020-11-08 23:19:48 EST*
G04 Gerber Fmt 3.4, Leading zero omitted, Abs format*
%MOIN*%
%FSLAX34Y34*%
G01*
G70*
G90*
G04 APERTURE LIST*
%ADD20C,0.1500*%
%ADD23C,0.0059*%
%ADD11C,0.0000*%
%ADD24C,0.0472*%
%ADD21R,0.0629X0.0709*%
%ADD19R,0.0472X0.0275*%
%ADD17C,0.0120*%
%ADD15R,0.0550X0.0550*%
%ADD14C,0.0050*%
%ADD13C,0.0020*%
%ADD12C,0.0060*%
%ADD25C,0.0100*%
%ADD16C,0.0550*%
%ADD22C,0.0200*%
%ADD10R,0.0260X0.0800*%
%ADD18R,0.0709X0.0629*%
G04 APERTURE END LIST*
G54D20*
D12*
G01X04640Y14880D02*
G01X09460Y14880D01*
D12*
G01X04640Y17820D02*
G01X04636Y17820D01*
G01X04633Y17820D01*
G01X04629Y17820D01*
G01X04625Y17819D01*
G01X04622Y17819D01*
G01X04618Y17818D01*
G01X04614Y17818D01*
G01X04611Y17817D01*
G01X04607Y17816D01*
G01X04604Y17816D01*
G01X04600Y17815D01*
G01X04596Y17814D01*
G01X04593Y17812D01*
G01X04589Y17811D01*
G01X04586Y17810D01*
G01X04583Y17809D01*
G01X04579Y17807D01*
G01X04576Y17806D01*
G01X04573Y17804D01*
G01X04569Y17802D01*
G01X04566Y17801D01*
G01X04563Y17799D01*
G01X04560Y17797D01*
G01X04557Y17795D01*
G01X04554Y17793D01*
G01X04551Y17790D01*
G01X04548Y17788D01*
G01X04545Y17786D01*
G01X04542Y17784D01*
G01X04539Y17781D01*
G01X04537Y17779D01*
G01X04534Y17776D01*
G01X04531Y17773D01*
G01X04529Y17771D01*
G01X04526Y17768D01*
G01X04524Y17765D01*
G01X04522Y17762D01*
G01X04520Y17759D01*
G01X04517Y17756D01*
G01X04515Y17753D01*
G01X04513Y17750D01*
G01X04511Y17747D01*
G01X04509Y17744D01*
G01X04508Y17741D01*
G01X04506Y17737D01*
G01X04504Y17734D01*
G01X04503Y17731D01*
G01X04501Y17727D01*
G01X04500Y17724D01*
G01X04499Y17721D01*
G01X04498Y17717D01*
G01X04496Y17714D01*
G01X04495Y17710D01*
G01X04494Y17706D01*
G01X04494Y17703D01*
G01X04493Y17699D01*
G01X04492Y17696D01*
G01X04492Y17692D01*
G01X04491Y17688D01*
G01X04491Y17685D01*
G01X04490Y17681D01*
G01X04490Y17677D01*
G01X04490Y17674D01*
G01X04490Y17670D01*
D12*
G01X09610Y15030D02*
G01X09610Y15026D01*
G01X09610Y15023D01*
G01X09610Y15019D01*
G01X09609Y15015D01*
G01X09609Y15012D01*
G01X09608Y15008D01*
G01X09608Y15004D01*
G01X09607Y15001D01*
G01X09606Y14997D01*
G01X09606Y14994D01*
G01X09605Y14990D01*
G01X09604Y14986D01*
G01X09602Y14983D01*
G01X09601Y14979D01*
G01X09600Y14976D01*
G01X09599Y14973D01*
G01X09597Y14969D01*
G01X09596Y14966D01*
G01X09594Y14963D01*
G01X09592Y14959D01*
G01X09591Y14956D01*
G01X09589Y14953D01*
G01X09587Y14950D01*
G01X09585Y14947D01*
G01X09583Y14944D01*
G01X09580Y14941D01*
G01X09578Y14938D01*
G01X09576Y14935D01*
G01X09574Y14932D01*
G01X09571Y14929D01*
G01X09569Y14927D01*
G01X09566Y14924D01*
G01X09563Y14921D01*
G01X09561Y14919D01*
G01X09558Y14916D01*
G01X09555Y14914D01*
G01X09552Y14912D01*
G01X09549Y14910D01*
G01X09546Y14907D01*
G01X09543Y14905D01*
G01X09540Y14903D01*
G01X09537Y14901D01*
G01X09534Y14899D01*
G01X09531Y14898D01*
G01X09527Y14896D01*
G01X09524Y14894D01*
G01X09521Y14893D01*
G01X09517Y14891D01*
G01X09514Y14890D01*
G01X09511Y14889D01*
G01X09507Y14888D01*
G01X09504Y14886D01*
G01X09500Y14885D01*
G01X09496Y14884D01*
G01X09493Y14884D01*
G01X09489Y14883D01*
G01X09486Y14882D01*
G01X09482Y14882D01*
G01X09478Y14881D01*
G01X09475Y14881D01*
G01X09471Y14880D01*
G01X09467Y14880D01*
G01X09464Y14880D01*
G01X09460Y14880D01*
D12*
G01X04640Y14880D02*
G01X04636Y14880D01*
G01X04633Y14880D01*
G01X04629Y14880D01*
G01X04625Y14881D01*
G01X04622Y14881D01*
G01X04618Y14882D01*
G01X04614Y14882D01*
G01X04611Y14883D01*
G01X04607Y14884D01*
G01X04604Y14884D01*
G01X04600Y14885D01*
G01X04596Y14886D01*
G01X04593Y14888D01*
G01X04589Y14889D01*
G01X04586Y14890D01*
G01X04583Y14891D01*
G01X04579Y14893D01*
G01X04576Y14894D01*
G01X04573Y14896D01*
G01X04569Y14898D01*
G01X04566Y14899D01*
G01X04563Y14901D01*
G01X04560Y14903D01*
G01X04557Y14905D01*
G01X04554Y14907D01*
G01X04551Y14910D01*
G01X04548Y14912D01*
G01X04545Y14914D01*
G01X04542Y14916D01*
G01X04539Y14919D01*
G01X04537Y14921D01*
G01X04534Y14924D01*
G01X04531Y14927D01*
G01X04529Y14929D01*
G01X04526Y14932D01*
G01X04524Y14935D01*
G01X04522Y14938D01*
G01X04520Y14941D01*
G01X04517Y14944D01*
G01X04515Y14947D01*
G01X04513Y14950D01*
G01X04511Y14953D01*
G01X04509Y14956D01*
G01X04508Y14959D01*
G01X04506Y14963D01*
G01X04504Y14966D01*
G01X04503Y14969D01*
G01X04501Y14973D01*
G01X04500Y14976D01*
G01X04499Y14979D01*
G01X04498Y14983D01*
G01X04496Y14986D01*
G01X04495Y14990D01*
G01X04494Y14994D01*
G01X04494Y14997D01*
G01X04493Y15001D01*
G01X04492Y15004D01*
G01X04492Y15008D01*
G01X04491Y15012D01*
G01X04491Y15015D01*
G01X04490Y15019D01*
G01X04490Y15023D01*
G01X04490Y15026D01*
G01X04490Y15030D01*
D12*
G01X09610Y17670D02*
G01X09610Y17674D01*
G01X09610Y17677D01*
G01X09610Y17681D01*
G01X09609Y17685D01*
G01X09609Y17688D01*
G01X09608Y17692D01*
G01X09608Y17696D01*
G01X09607Y17699D01*
G01X09606Y17703D01*
G01X09606Y17706D01*
G01X09605Y17710D01*
G01X09604Y17714D01*
G01X09602Y17717D01*
G01X09601Y17721D01*
G01X09600Y17724D01*
G01X09599Y17727D01*
G01X09597Y17731D01*
G01X09596Y17734D01*
G01X09594Y17737D01*
G01X09592Y17741D01*
G01X09591Y17744D01*
G01X09589Y17747D01*
G01X09587Y17750D01*
G01X09585Y17753D01*
G01X09583Y17756D01*
G01X09580Y17759D01*
G01X09578Y17762D01*
G01X09576Y17765D01*
G01X09574Y17768D01*
G01X09571Y17771D01*
G01X09569Y17773D01*
G01X09566Y17776D01*
G01X09563Y17779D01*
G01X09561Y17781D01*
G01X09558Y17784D01*
G01X09555Y17786D01*
G01X09552Y17788D01*
G01X09549Y17790D01*
G01X09546Y17793D01*
G01X09543Y17795D01*
G01X09540Y17797D01*
G01X09537Y17799D01*
G01X09534Y17801D01*
G01X09531Y17802D01*
G01X09527Y17804D01*
G01X09524Y17806D01*
G01X09521Y17807D01*
G01X09517Y17809D01*
G01X09514Y17810D01*
G01X09511Y17811D01*
G01X09507Y17812D01*
G01X09504Y17814D01*
G01X09500Y17815D01*
G01X09496Y17816D01*
G01X09493Y17816D01*
G01X09489Y17817D01*
G01X09486Y17818D01*
G01X09482Y17818D01*
G01X09478Y17819D01*
G01X09475Y17819D01*
G01X09471Y17820D01*
G01X09467Y17820D01*
G01X09464Y17820D01*
G01X09460Y17820D01*
D12*
G01X09460Y17820D02*
G01X04640Y17820D01*
D12*
G01X04490Y17670D02*
G01X04490Y15030D01*
D12*
G01X09610Y15030D02*
G01X09610Y15850D01*
D12*
G01X09610Y15850D02*
G01X09610Y16850D01*
D12*
G01X09610Y16850D02*
G01X09610Y17670D01*
D13*
G01X09600Y17680D02*
G01X04500Y17680D01*
D12*
G01X09610Y15850D02*
G01X09585Y15851D01*
G01X09561Y15852D01*
G01X09537Y15855D01*
G01X09512Y15860D01*
G01X09489Y15865D01*
G01X09465Y15872D01*
G01X09442Y15879D01*
G01X09419Y15888D01*
G01X09396Y15898D01*
G01X09374Y15909D01*
G01X09353Y15921D01*
G01X09332Y15934D01*
G01X09312Y15948D01*
G01X09293Y15963D01*
G01X09274Y15980D01*
G01X09256Y15996D01*
G01X09240Y16014D01*
G01X09223Y16033D01*
G01X09208Y16052D01*
G01X09194Y16072D01*
G01X09181Y16093D01*
G01X09169Y16114D01*
G01X09158Y16136D01*
G01X09148Y16159D01*
G01X09139Y16182D01*
G01X09132Y16205D01*
G01X09125Y16229D01*
G01X09120Y16252D01*
G01X09115Y16277D01*
G01X09112Y16301D01*
G01X09111Y16325D01*
G01X09110Y16350D01*
G01X09111Y16375D01*
G01X09112Y16399D01*
G01X09115Y16423D01*
G01X09120Y16448D01*
G01X09125Y16471D01*
G01X09132Y16495D01*
G01X09139Y16518D01*
G01X09148Y16541D01*
G01X09158Y16564D01*
G01X09169Y16586D01*
G01X09181Y16607D01*
G01X09194Y16628D01*
G01X09208Y16648D01*
G01X09223Y16667D01*
G01X09240Y16686D01*
G01X09256Y16704D01*
G01X09274Y16720D01*
G01X09293Y16737D01*
G01X09312Y16752D01*
G01X09332Y16766D01*
G01X09353Y16779D01*
G01X09374Y16791D01*
G01X09396Y16802D01*
G01X09419Y16812D01*
G01X09442Y16821D01*
G01X09465Y16828D01*
G01X09489Y16835D01*
G01X09512Y16840D01*
G01X09537Y16845D01*
G01X09561Y16848D01*
G01X09585Y16849D01*
G01X09610Y16850D01*
D14*
G01X09400Y18670D02*
G01X09200Y18670D01*
D14*
G01X09200Y18670D02*
G01X09200Y18620D01*
D14*
G01X09200Y18620D02*
G01X09400Y18620D01*
D14*
G01X09400Y18620D02*
G01X09400Y18670D01*
D14*
G01X08900Y18670D02*
G01X08700Y18670D01*
D14*
G01X08700Y18670D02*
G01X08700Y18620D01*
D14*
G01X08700Y18620D02*
G01X08900Y18620D01*
D14*
G01X08900Y18620D02*
G01X08900Y18670D01*
D14*
G01X08400Y18670D02*
G01X08200Y18670D01*
D14*
G01X08200Y18670D02*
G01X08200Y18620D01*
D14*
G01X08200Y18620D02*
G01X08400Y18620D01*
D14*
G01X08400Y18620D02*
G01X08400Y18670D01*
D14*
G01X07900Y18670D02*
G01X07700Y18670D01*
D14*
G01X07700Y18670D02*
G01X07700Y18620D01*
D14*
G01X07700Y18620D02*
G01X07900Y18620D01*
D14*
G01X07900Y18620D02*
G01X07900Y18670D01*
D14*
G01X07400Y18670D02*
G01X07200Y18670D01*
D14*
G01X07200Y18670D02*
G01X07200Y18620D01*
D14*
G01X07200Y18620D02*
G01X07400Y18620D01*
D14*
G01X07400Y18620D02*
G01X07400Y18670D01*
D14*
G01X06900Y18670D02*
G01X06700Y18670D01*
D14*
G01X06700Y18670D02*
G01X06700Y18620D01*
D14*
G01X06700Y18620D02*
G01X06900Y18620D01*
D14*
G01X06900Y18620D02*
G01X06900Y18670D01*
D14*
G01X06400Y18670D02*
G01X06200Y18670D01*
D14*
G01X06200Y18670D02*
G01X06200Y18620D01*
D14*
G01X06200Y18620D02*
G01X06400Y18620D01*
D14*
G01X06400Y18620D02*
G01X06400Y18670D01*
D14*
G01X05900Y18670D02*
G01X05700Y18670D01*
D14*
G01X05700Y18670D02*
G01X05700Y18620D01*
D14*
G01X05700Y18620D02*
G01X05900Y18620D01*
D14*
G01X05900Y18620D02*
G01X05900Y18670D01*
D14*
G01X09400Y14080D02*
G01X09200Y14080D01*
D14*
G01X09200Y14080D02*
G01X09200Y14030D01*
D14*
G01X09200Y14030D02*
G01X09400Y14030D01*
D14*
G01X09400Y14030D02*
G01X09400Y14080D01*
D14*
G01X08900Y14080D02*
G01X08700Y14080D01*
D14*
G01X08700Y14080D02*
G01X08700Y14030D01*
D14*
G01X08700Y14030D02*
G01X08900Y14030D01*
D14*
G01X08900Y14030D02*
G01X08900Y14080D01*
D14*
G01X08400Y14080D02*
G01X08200Y14080D01*
D14*
G01X08200Y14080D02*
G01X08200Y14030D01*
D14*
G01X08200Y14030D02*
G01X08400Y14030D01*
D14*
G01X08400Y14030D02*
G01X08400Y14080D01*
D14*
G01X07900Y14080D02*
G01X07700Y14080D01*
D14*
G01X07700Y14080D02*
G01X07700Y14030D01*
D14*
G01X07700Y14030D02*
G01X07900Y14030D01*
D14*
G01X07900Y14030D02*
G01X07900Y14080D01*
D14*
G01X07400Y14080D02*
G01X07200Y14080D01*
D14*
G01X07200Y14080D02*
G01X07200Y14030D01*
D14*
G01X07200Y14030D02*
G01X07400Y14030D01*
D14*
G01X07400Y14030D02*
G01X07400Y14080D01*
D14*
G01X06900Y14080D02*
G01X06700Y14080D01*
D14*
G01X06700Y14080D02*
G01X06700Y14030D01*
D14*
G01X06700Y14030D02*
G01X06900Y14030D01*
D14*
G01X06900Y14030D02*
G01X06900Y14080D01*
D14*
G01X06400Y14080D02*
G01X06200Y14080D01*
D14*
G01X06200Y14080D02*
G01X06200Y14030D01*
D14*
G01X06200Y14030D02*
G01X06400Y14030D01*
D14*
G01X06400Y14030D02*
G01X06400Y14080D01*
D14*
G01X05900Y14080D02*
G01X05700Y14080D01*
D14*
G01X05700Y14080D02*
G01X05700Y14030D01*
D14*
G01X05700Y14030D02*
G01X05900Y14030D01*
D14*
G01X05900Y14030D02*
G01X05900Y14080D01*
D14*
G01X05400Y14080D02*
G01X05200Y14080D01*
D14*
G01X05200Y14080D02*
G01X05200Y14030D01*
D14*
G01X05200Y14030D02*
G01X05400Y14030D01*
D14*
G01X05400Y14030D02*
G01X05400Y14080D01*
D14*
G01X04900Y14080D02*
G01X04700Y14080D01*
D14*
G01X04700Y14080D02*
G01X04700Y14030D01*
D14*
G01X04700Y14030D02*
G01X04900Y14030D01*
D14*
G01X04900Y14030D02*
G01X04900Y14080D01*
D14*
G01X05400Y18670D02*
G01X05200Y18670D01*
D14*
G01X05200Y18670D02*
G01X05200Y18620D01*
D14*
G01X05200Y18620D02*
G01X05400Y18620D01*
D14*
G01X05400Y18620D02*
G01X05400Y18670D01*
D14*
G01X04900Y18670D02*
G01X04700Y18670D01*
D14*
G01X04700Y18670D02*
G01X04700Y18620D01*
D14*
G01X04700Y18620D02*
G01X04900Y18620D01*
D14*
G01X04900Y18620D02*
G01X04900Y18670D01*
D17*
G01X03250Y22050D02*
G01X03250Y22050D01*
D17*
G01X03250Y22050D02*
G01X-03750Y22050D01*
D17*
G01X-03750Y22050D02*
G01X-03750Y23050D01*
D17*
G01X-03750Y23050D02*
G01X03250Y23050D01*
D17*
G01X03250Y23050D02*
G01X03250Y22050D01*
D17*
G01X02250Y23050D02*
G01X02250Y23050D01*
D17*
G01X02250Y23050D02*
G01X02250Y22050D01*
D11*
G01X-01985Y21377D02*
G01X-01985Y21662D01*
D11*
G01X-01985Y21805D02*
G01X-02017Y21784D01*
G01X-01985Y21764D01*
G01X-01953Y21784D01*
G01X-01985Y21805D01*
G01X-01985Y21764D01*
D11*
G01X-01661Y21662D02*
G01X-01661Y21377D01*
D11*
G01X-01661Y21621D02*
G01X-01628Y21642D01*
G01X-01563Y21662D01*
G01X-01466Y21662D01*
G01X-01401Y21642D01*
G01X-01369Y21601D01*
G01X-01369Y21377D01*
D11*
G01X-01207Y21336D02*
G01X-00688Y21336D01*
D11*
G01X-00266Y21397D02*
G01X-00331Y21377D01*
G01X-00461Y21377D01*
G01X-00526Y21397D01*
G01X-00558Y21438D01*
G01X-00558Y21601D01*
G01X-00526Y21642D01*
G01X-00461Y21662D01*
G01X-00331Y21662D01*
G01X-00266Y21642D01*
G01X-00234Y21601D01*
G01X-00234Y21560D01*
G01X-00558Y21519D01*
D11*
G01X00058Y21662D02*
G01X00058Y21377D01*
D11*
G01X00058Y21621D02*
G01X00091Y21642D01*
G01X00155Y21662D01*
G01X00253Y21662D01*
G01X00318Y21642D01*
G01X00350Y21601D01*
G01X00350Y21377D01*
D11*
G01X00512Y21336D02*
G01X01031Y21336D01*
D11*
G01X01485Y21662D02*
G01X01485Y21316D01*
G01X01452Y21275D01*
G01X01420Y21254D01*
G01X01355Y21234D01*
G01X01258Y21234D01*
G01X01193Y21254D01*
D11*
G01X01485Y21397D02*
G01X01420Y21377D01*
G01X01290Y21377D01*
G01X01226Y21397D01*
G01X01193Y21418D01*
G01X01161Y21458D01*
G01X01161Y21581D01*
G01X01193Y21621D01*
G01X01226Y21642D01*
G01X01290Y21662D01*
G01X01420Y21662D01*
G01X01485Y21642D01*
D14*
G01X05700Y23500D02*
G01X07100Y23500D01*
D14*
G01X07100Y23500D02*
G01X07100Y22900D01*
D14*
G01X07100Y22900D02*
G01X05700Y22900D01*
D14*
G01X05700Y22900D02*
G01X05700Y23500D01*
D11*
G01X-00300Y17950D02*
G01X-00300Y17950D01*
G01X-00300Y17950D01*
G01X-00300Y17950D01*
G01X-00300Y17950D01*
G01X-00300Y17950D01*
G01X-00300Y17950D01*
G01X-00300Y17950D01*
G01X-00300Y17950D01*
G01X-00300Y17950D01*
G01X-00300Y17950D01*
G01X-00300Y17950D01*
G01X-00300Y17950D01*
G01X-00300Y17950D01*
G01X-00300Y17950D01*
G01X-00300Y17950D01*
D11*
G01X-00300Y17950D02*
G01X-00300Y17950D01*
G01X-00300Y17950D01*
G01X-00300Y17950D01*
G01X-00300Y17950D01*
G01X-00300Y17950D01*
G01X-00300Y17950D01*
G01X-00300Y17950D01*
G01X-00300Y17950D01*
G01X-00300Y17950D01*
G01X-00300Y17950D01*
G01X-00300Y17950D01*
D11*
G01X-00300Y17950D02*
G01X-00300Y17950D01*
D11*
G01X-00300Y17950D02*
G01X-00300Y17950D01*
G01X-00300Y17950D01*
G01X-00300Y17950D01*
G01X-00300Y17950D01*
D11*
G01X-00300Y17950D02*
G01X-00300Y17950D01*
G01X-00300Y17950D01*
G01X-00300Y17950D01*
G01X-00300Y17950D01*
G01X-00300Y17950D01*
G01X-00300Y17950D01*
G01X-00300Y17950D01*
G01X-00300Y17950D01*
G01X-00300Y17950D01*
G01X-00300Y17950D01*
G01X-00300Y17950D01*
G01X-00300Y17950D01*
D11*
G01X-00300Y17950D02*
G01X-00300Y17950D01*
G01X-00300Y17950D01*
G01X-00300Y17950D01*
G01X-00300Y17950D01*
D17*
G01X-01350Y13250D02*
G01X-01350Y14250D01*
D17*
G01X-01350Y14250D02*
G01X00650Y14250D01*
D17*
G01X00650Y14250D02*
G01X00650Y13250D01*
D17*
G01X00650Y13250D02*
G01X-01350Y13250D01*
D11*
G01X-02020Y14577D02*
G01X-02020Y14862D01*
D11*
G01X-02020Y14821D02*
G01X-01988Y14842D01*
G01X-01923Y14862D01*
G01X-01825Y14862D01*
G01X-01761Y14842D01*
G01X-01728Y14801D01*
G01X-01728Y14577D01*
D11*
G01X-01728Y14801D02*
G01X-01696Y14842D01*
G01X-01631Y14862D01*
G01X-01534Y14862D01*
G01X-01469Y14842D01*
G01X-01436Y14801D01*
G01X-01436Y14577D01*
D11*
G01X-01015Y14577D02*
G01X-01080Y14597D01*
G01X-01112Y14618D01*
G01X-01144Y14658D01*
G01X-01144Y14781D01*
G01X-01112Y14821D01*
G01X-01080Y14842D01*
G01X-01015Y14862D01*
G01X-00918Y14862D01*
G01X-00853Y14842D01*
G01X-00820Y14821D01*
G01X-00788Y14781D01*
G01X-00788Y14658D01*
G01X-00820Y14618D01*
G01X-00853Y14597D01*
G01X-00917Y14577D01*
G01X-01015Y14577D01*
D11*
G01X-00593Y14862D02*
G01X-00334Y14862D01*
D11*
G01X-00496Y15005D02*
G01X-00496Y14638D01*
G01X-00463Y14597D01*
G01X-00399Y14577D01*
G01X-00334Y14577D01*
D11*
G01X-00107Y14862D02*
G01X-00107Y14434D01*
D11*
G01X-00107Y14842D02*
G01X-00042Y14862D01*
G01X00088Y14862D01*
G01X00153Y14842D01*
G01X00185Y14821D01*
G01X00217Y14781D01*
G01X00217Y14658D01*
G01X00185Y14618D01*
G01X00153Y14597D01*
G01X00088Y14577D01*
G01X-00042Y14577D01*
G01X-00107Y14597D01*
D11*
G01X00444Y14862D02*
G01X00574Y14577D01*
G01X00704Y14781D01*
G01X00834Y14577D01*
G01X00963Y14862D01*
D11*
G01X01223Y14577D02*
G01X01223Y14862D01*
D11*
G01X01223Y14781D02*
G01X01255Y14821D01*
G01X01288Y14842D01*
G01X01352Y14862D01*
G01X01417Y14862D01*
D17*
G01X-04100Y16500D02*
G01X-05100Y16500D01*
D17*
G01X-05100Y16500D02*
G01X-05100Y19500D01*
D17*
G01X-05100Y19500D02*
G01X-04100Y19500D01*
D17*
G01X-04100Y19500D02*
G01X-04100Y16500D01*
D17*
G01X-05100Y17500D02*
G01X-04100Y17500D01*
D11*
G01X-05428Y16405D02*
G01X-05852Y16405D01*
G01X-05550Y16640D01*
G01X-05852Y16875D01*
G01X-05428Y16875D01*
D11*
G01X-05852Y17345D02*
G01X-05852Y17480D01*
G01X-05832Y17547D01*
G01X-05792Y17614D01*
G01X-05711Y17648D01*
G01X-05570Y17648D01*
G01X-05489Y17614D01*
G01X-05449Y17547D01*
G01X-05428Y17480D01*
G01X-05428Y17345D01*
G01X-05449Y17278D01*
G01X-05489Y17211D01*
G01X-05570Y17178D01*
G01X-05711Y17178D01*
G01X-05792Y17211D01*
G01X-05832Y17278D01*
G01X-05852Y17345D01*
D11*
G01X-05852Y17849D02*
G01X-05852Y18252D01*
D11*
G01X-05428Y18050D02*
G01X-05852Y18050D01*
D11*
G01X-05852Y18621D02*
G01X-05852Y18755D01*
G01X-05832Y18822D01*
G01X-05792Y18890D01*
G01X-05711Y18923D01*
G01X-05570Y18923D01*
G01X-05489Y18890D01*
G01X-05449Y18822D01*
G01X-05428Y18755D01*
G01X-05428Y18621D01*
G01X-05449Y18554D01*
G01X-05489Y18487D01*
G01X-05570Y18453D01*
G01X-05711Y18453D01*
G01X-05792Y18487D01*
G01X-05832Y18554D01*
G01X-05852Y18621D01*
D11*
G01X-05428Y19628D02*
G01X-05630Y19393D01*
D11*
G01X-05428Y19225D02*
G01X-05852Y19225D01*
G01X-05852Y19494D01*
G01X-05832Y19561D01*
G01X-05812Y19595D01*
G01X-05772Y19628D01*
G01X-05711Y19628D01*
G01X-05671Y19595D01*
G01X-05650Y19561D01*
G01X-05630Y19494D01*
G01X-05630Y19225D01*
D14*
G01X07900Y23500D02*
G01X09300Y23500D01*
D14*
G01X09300Y23500D02*
G01X09300Y22900D01*
D14*
G01X09300Y22900D02*
G01X07900Y22900D01*
D14*
G01X07900Y22900D02*
G01X07900Y23500D01*
D23*
G01X12605Y12725D02*
G01X12606Y12725D01*
G01X12607Y12726D01*
G01X12608Y12726D01*
G01X12609Y12727D01*
G01X12610Y12727D01*
G01X12611Y12727D01*
G01X12612Y12728D01*
G01X12613Y12728D01*
G01X12614Y12729D01*
G01X12615Y12729D01*
G01X12616Y12730D01*
G01X12616Y12730D01*
G01X12617Y12730D01*
G01X12618Y12731D01*
G01X12619Y12731D01*
G01X12620Y12732D01*
G01X12621Y12732D01*
G01X12622Y12733D01*
G01X12623Y12733D01*
G01X12624Y12733D01*
G01X12625Y12734D01*
G01X12626Y12734D01*
G01X12627Y12735D01*
G01X12628Y12735D01*
G01X12629Y12736D01*
G01X12630Y12736D01*
G01X12631Y12737D01*
G01X12631Y12737D01*
G01X12632Y12738D01*
G01X12633Y12738D01*
G01X12634Y12738D01*
G01X12635Y12739D01*
G01X12636Y12739D01*
G01X12637Y12740D01*
G01X12638Y12740D01*
G01X12639Y12741D01*
G01X12640Y12741D01*
G01X12641Y12742D01*
G01X12642Y12742D01*
G01X12643Y12743D01*
G01X12643Y12743D01*
G01X12644Y12744D01*
G01X12645Y12744D01*
G01X12646Y12745D01*
G01X12647Y12745D01*
G01X12648Y12746D01*
G01X12649Y12746D01*
G01X12650Y12747D01*
G01X12651Y12747D01*
G01X12652Y12748D01*
G01X12653Y12748D01*
G01X12653Y12749D01*
G01X12654Y12749D01*
G01X12655Y12750D01*
G01X12656Y12751D01*
G01X12657Y12751D01*
G01X12658Y12752D01*
G01X12659Y12752D01*
G01X12660Y12753D01*
G01X12661Y12753D01*
G01X12662Y12754D01*
G01X12662Y12754D01*
G01X12663Y12755D01*
G01X12664Y12755D01*
D23*
G01X12665Y12756D02*
G01X12813Y12635D01*
D23*
G01X12813Y12635D02*
G01X12915Y12737D01*
D23*
G01X12915Y12737D02*
G01X12794Y12885D01*
D23*
G01X12794Y12885D02*
G01X12795Y12887D01*
G01X12796Y12889D01*
G01X12797Y12890D01*
G01X12798Y12892D01*
G01X12799Y12894D01*
G01X12801Y12896D01*
G01X12802Y12898D01*
G01X12803Y12899D01*
G01X12804Y12901D01*
G01X12805Y12903D01*
G01X12806Y12905D01*
G01X12807Y12907D01*
G01X12808Y12909D01*
G01X12809Y12910D01*
G01X12810Y12912D01*
G01X12811Y12914D01*
G01X12812Y12916D01*
G01X12813Y12918D01*
G01X12813Y12920D01*
G01X12814Y12922D01*
G01X12815Y12924D01*
G01X12816Y12926D01*
G01X12817Y12927D01*
G01X12818Y12929D01*
G01X12819Y12931D01*
G01X12820Y12933D01*
G01X12821Y12935D01*
G01X12821Y12937D01*
G01X12822Y12939D01*
G01X12823Y12941D01*
G01X12824Y12943D01*
G01X12825Y12945D01*
G01X12826Y12947D01*
G01X12826Y12949D01*
G01X12827Y12951D01*
G01X12828Y12953D01*
G01X12829Y12954D01*
G01X12829Y12956D01*
G01X12830Y12958D01*
G01X12831Y12960D01*
G01X12832Y12962D01*
G01X12832Y12964D01*
G01X12833Y12966D01*
G01X12834Y12968D01*
G01X12834Y12970D01*
G01X12835Y12972D01*
G01X12836Y12974D01*
G01X12836Y12976D01*
G01X12837Y12978D01*
G01X12838Y12980D01*
G01X12838Y12982D01*
G01X12839Y12984D01*
G01X12839Y12986D01*
G01X12840Y12988D01*
G01X12841Y12990D01*
G01X12841Y12992D01*
G01X12842Y12994D01*
G01X12842Y12996D01*
G01X12843Y12999D01*
G01X12843Y13001D01*
G01X12844Y13003D01*
G01X12844Y13005D01*
G01X12845Y13007D01*
G01X12845Y13009D01*
D23*
G01X12845Y13009D02*
G01X13036Y13029D01*
D23*
G01X13036Y13029D02*
G01X13036Y13171D01*
D23*
G01X13036Y13171D02*
G01X12845Y13191D01*
D23*
G01X12845Y13191D02*
G01X12845Y13193D01*
G01X12844Y13195D01*
G01X12844Y13197D01*
G01X12843Y13199D01*
G01X12843Y13201D01*
G01X12842Y13203D01*
G01X12841Y13205D01*
G01X12841Y13207D01*
G01X12840Y13209D01*
G01X12840Y13211D01*
G01X12839Y13213D01*
G01X12839Y13215D01*
G01X12838Y13217D01*
G01X12837Y13219D01*
G01X12837Y13221D01*
G01X12836Y13223D01*
G01X12835Y13225D01*
G01X12835Y13227D01*
G01X12834Y13229D01*
G01X12833Y13231D01*
G01X12833Y13233D01*
G01X12832Y13235D01*
G01X12831Y13237D01*
G01X12831Y13239D01*
G01X12830Y13241D01*
G01X12829Y13243D01*
G01X12828Y13245D01*
G01X12828Y13247D01*
G01X12827Y13249D01*
G01X12826Y13251D01*
G01X12825Y13253D01*
G01X12825Y13255D01*
G01X12824Y13257D01*
G01X12823Y13259D01*
G01X12822Y13261D01*
G01X12821Y13263D01*
G01X12820Y13265D01*
G01X12820Y13267D01*
G01X12819Y13268D01*
G01X12818Y13270D01*
G01X12817Y13272D01*
G01X12816Y13274D01*
G01X12815Y13276D01*
G01X12814Y13278D01*
G01X12813Y13280D01*
G01X12812Y13282D01*
G01X12811Y13284D01*
G01X12810Y13285D01*
G01X12809Y13287D01*
G01X12809Y13289D01*
G01X12808Y13291D01*
G01X12807Y13293D01*
G01X12806Y13295D01*
G01X12805Y13297D01*
G01X12803Y13298D01*
G01X12802Y13300D01*
G01X12801Y13302D01*
G01X12800Y13304D01*
G01X12799Y13306D01*
G01X12798Y13307D01*
G01X12797Y13309D01*
G01X12796Y13311D01*
G01X12795Y13313D01*
G01X12794Y13315D01*
D23*
G01X12794Y13315D02*
G01X12915Y13463D01*
D23*
G01X12915Y13463D02*
G01X12813Y13565D01*
D23*
G01X12813Y13565D02*
G01X12665Y13444D01*
D23*
G01X12665Y13444D02*
G01X12663Y13445D01*
G01X12661Y13446D01*
G01X12660Y13447D01*
G01X12658Y13448D01*
G01X12656Y13449D01*
G01X12654Y13451D01*
G01X12652Y13452D01*
G01X12651Y13453D01*
G01X12649Y13454D01*
G01X12647Y13455D01*
G01X12645Y13456D01*
G01X12643Y13457D01*
G01X12641Y13458D01*
G01X12640Y13459D01*
G01X12638Y13460D01*
G01X12636Y13461D01*
G01X12634Y13462D01*
G01X12632Y13463D01*
G01X12630Y13463D01*
G01X12628Y13464D01*
G01X12626Y13465D01*
G01X12624Y13466D01*
G01X12623Y13467D01*
G01X12621Y13468D01*
G01X12619Y13469D01*
G01X12617Y13470D01*
G01X12615Y13471D01*
G01X12613Y13471D01*
G01X12611Y13472D01*
G01X12609Y13473D01*
G01X12607Y13474D01*
G01X12605Y13475D01*
G01X12603Y13476D01*
G01X12601Y13476D01*
G01X12599Y13477D01*
G01X12597Y13478D01*
G01X12596Y13479D01*
G01X12594Y13479D01*
G01X12592Y13480D01*
G01X12590Y13481D01*
G01X12588Y13482D01*
G01X12586Y13482D01*
G01X12584Y13483D01*
G01X12582Y13484D01*
G01X12580Y13484D01*
G01X12578Y13485D01*
G01X12576Y13486D01*
G01X12574Y13486D01*
G01X12572Y13487D01*
G01X12570Y13488D01*
G01X12568Y13488D01*
G01X12566Y13489D01*
G01X12564Y13489D01*
G01X12562Y13490D01*
G01X12560Y13491D01*
G01X12558Y13491D01*
G01X12556Y13492D01*
G01X12554Y13492D01*
G01X12551Y13493D01*
G01X12549Y13493D01*
G01X12547Y13494D01*
G01X12545Y13494D01*
G01X12543Y13495D01*
G01X12541Y13495D01*
D23*
G01X12541Y13495D02*
G01X12521Y13686D01*
D23*
G01X12521Y13686D02*
G01X12379Y13686D01*
D23*
G01X12379Y13686D02*
G01X12359Y13495D01*
D23*
G01X12359Y13495D02*
G01X12357Y13495D01*
G01X12355Y13494D01*
G01X12353Y13494D01*
G01X12351Y13493D01*
G01X12349Y13493D01*
G01X12347Y13492D01*
G01X12345Y13491D01*
G01X12343Y13491D01*
G01X12341Y13490D01*
G01X12339Y13490D01*
G01X12337Y13489D01*
G01X12335Y13489D01*
G01X12333Y13488D01*
G01X12331Y13487D01*
G01X12329Y13487D01*
G01X12327Y13486D01*
G01X12325Y13485D01*
G01X12323Y13485D01*
G01X12321Y13484D01*
G01X12319Y13483D01*
G01X12317Y13483D01*
G01X12315Y13482D01*
G01X12313Y13481D01*
G01X12311Y13481D01*
G01X12309Y13480D01*
G01X12307Y13479D01*
G01X12305Y13478D01*
G01X12303Y13478D01*
G01X12301Y13477D01*
G01X12299Y13476D01*
G01X12297Y13475D01*
G01X12295Y13475D01*
G01X12293Y13474D01*
G01X12291Y13473D01*
G01X12289Y13472D01*
G01X12287Y13471D01*
G01X12285Y13470D01*
G01X12283Y13470D01*
G01X12282Y13469D01*
G01X12280Y13468D01*
G01X12278Y13467D01*
G01X12276Y13466D01*
G01X12274Y13465D01*
G01X12272Y13464D01*
G01X12270Y13463D01*
G01X12268Y13462D01*
G01X12266Y13461D01*
G01X12265Y13460D01*
G01X12263Y13459D01*
G01X12261Y13459D01*
G01X12259Y13458D01*
G01X12257Y13457D01*
G01X12255Y13456D01*
G01X12253Y13455D01*
G01X12252Y13453D01*
G01X12250Y13452D01*
G01X12248Y13451D01*
G01X12246Y13450D01*
G01X12244Y13449D01*
G01X12243Y13448D01*
G01X12241Y13447D01*
G01X12239Y13446D01*
G01X12237Y13445D01*
G01X12235Y13444D01*
D23*
G01X12235Y13444D02*
G01X12087Y13565D01*
D23*
G01X12087Y13565D02*
G01X11985Y13463D01*
D23*
G01X11985Y13463D02*
G01X12106Y13315D01*
D23*
G01X12106Y13315D02*
G01X12105Y13313D01*
G01X12104Y13311D01*
G01X12103Y13310D01*
G01X12102Y13308D01*
G01X12101Y13306D01*
G01X12099Y13304D01*
G01X12098Y13302D01*
G01X12097Y13301D01*
G01X12096Y13299D01*
G01X12095Y13297D01*
G01X12094Y13295D01*
G01X12093Y13293D01*
G01X12092Y13291D01*
G01X12091Y13290D01*
G01X12090Y13288D01*
G01X12089Y13286D01*
G01X12088Y13284D01*
G01X12087Y13282D01*
G01X12087Y13280D01*
G01X12086Y13278D01*
G01X12085Y13276D01*
G01X12084Y13274D01*
G01X12083Y13273D01*
G01X12082Y13271D01*
G01X12081Y13269D01*
G01X12080Y13267D01*
G01X12079Y13265D01*
G01X12079Y13263D01*
G01X12078Y13261D01*
G01X12077Y13259D01*
G01X12076Y13257D01*
G01X12075Y13255D01*
G01X12074Y13253D01*
G01X12074Y13251D01*
G01X12073Y13249D01*
G01X12072Y13247D01*
G01X12071Y13246D01*
G01X12071Y13244D01*
G01X12070Y13242D01*
G01X12069Y13240D01*
G01X12068Y13238D01*
G01X12068Y13236D01*
G01X12067Y13234D01*
G01X12066Y13232D01*
G01X12066Y13230D01*
G01X12065Y13228D01*
G01X12064Y13226D01*
G01X12064Y13224D01*
G01X12063Y13222D01*
G01X12062Y13220D01*
G01X12062Y13218D01*
G01X12061Y13216D01*
G01X12061Y13214D01*
G01X12060Y13212D01*
G01X12059Y13210D01*
G01X12059Y13208D01*
G01X12058Y13206D01*
G01X12058Y13204D01*
G01X12057Y13201D01*
G01X12057Y13199D01*
G01X12056Y13197D01*
G01X12056Y13195D01*
G01X12055Y13193D01*
G01X12055Y13191D01*
D23*
G01X12055Y13191D02*
G01X11864Y13171D01*
D23*
G01X11864Y13171D02*
G01X11864Y13029D01*
D23*
G01X11864Y13029D02*
G01X12055Y13009D01*
D23*
G01X12055Y13009D02*
G01X12055Y13007D01*
G01X12056Y13005D01*
G01X12056Y13003D01*
G01X12057Y13001D01*
G01X12057Y12999D01*
G01X12058Y12997D01*
G01X12059Y12995D01*
G01X12059Y12993D01*
G01X12060Y12991D01*
G01X12060Y12989D01*
G01X12061Y12987D01*
G01X12061Y12985D01*
G01X12062Y12983D01*
G01X12063Y12981D01*
G01X12063Y12979D01*
G01X12064Y12977D01*
G01X12065Y12975D01*
G01X12065Y12973D01*
G01X12066Y12971D01*
G01X12067Y12969D01*
G01X12067Y12967D01*
G01X12068Y12965D01*
G01X12069Y12963D01*
G01X12069Y12961D01*
G01X12070Y12959D01*
G01X12071Y12957D01*
G01X12072Y12955D01*
G01X12072Y12953D01*
G01X12073Y12951D01*
G01X12074Y12949D01*
G01X12075Y12947D01*
G01X12075Y12945D01*
G01X12076Y12943D01*
G01X12077Y12941D01*
G01X12078Y12939D01*
G01X12079Y12937D01*
G01X12080Y12935D01*
G01X12080Y12933D01*
G01X12081Y12932D01*
G01X12082Y12930D01*
G01X12083Y12928D01*
G01X12084Y12926D01*
G01X12085Y12924D01*
G01X12086Y12922D01*
G01X12087Y12920D01*
G01X12088Y12918D01*
G01X12089Y12916D01*
G01X12090Y12915D01*
G01X12091Y12913D01*
G01X12091Y12911D01*
G01X12092Y12909D01*
G01X12093Y12907D01*
G01X12094Y12905D01*
G01X12095Y12903D01*
G01X12097Y12902D01*
G01X12098Y12900D01*
G01X12099Y12898D01*
G01X12100Y12896D01*
G01X12101Y12894D01*
G01X12102Y12893D01*
G01X12103Y12891D01*
G01X12104Y12889D01*
G01X12105Y12887D01*
G01X12106Y12885D01*
D23*
G01X12106Y12885D02*
G01X11985Y12737D01*
D23*
G01X11985Y12737D02*
G01X12087Y12635D01*
D23*
G01X12087Y12635D02*
G01X12235Y12756D01*
D23*
G01X12235Y12756D02*
G01X12236Y12755D01*
G01X12237Y12755D01*
G01X12238Y12754D01*
G01X12239Y12754D01*
G01X12239Y12753D01*
G01X12240Y12753D01*
G01X12241Y12752D01*
G01X12242Y12752D01*
G01X12243Y12751D01*
G01X12244Y12751D01*
G01X12245Y12750D01*
G01X12246Y12750D01*
G01X12247Y12749D01*
G01X12247Y12749D01*
G01X12248Y12748D01*
G01X12249Y12747D01*
G01X12250Y12747D01*
G01X12251Y12746D01*
G01X12252Y12746D01*
G01X12253Y12745D01*
G01X12254Y12745D01*
G01X12255Y12744D01*
G01X12256Y12744D01*
G01X12257Y12743D01*
G01X12257Y12743D01*
G01X12258Y12742D01*
G01X12259Y12742D01*
G01X12260Y12741D01*
G01X12261Y12741D01*
G01X12262Y12740D01*
G01X12263Y12740D01*
G01X12264Y12740D01*
G01X12265Y12739D01*
G01X12266Y12739D01*
G01X12267Y12738D01*
G01X12268Y12738D01*
G01X12269Y12737D01*
G01X12269Y12737D01*
G01X12270Y12736D01*
G01X12271Y12736D01*
G01X12272Y12735D01*
G01X12273Y12735D01*
G01X12274Y12734D01*
G01X12275Y12734D01*
G01X12276Y12734D01*
G01X12277Y12733D01*
G01X12278Y12733D01*
G01X12279Y12732D01*
G01X12280Y12732D01*
G01X12281Y12731D01*
G01X12282Y12731D01*
G01X12283Y12730D01*
G01X12284Y12730D01*
G01X12285Y12730D01*
G01X12285Y12729D01*
G01X12286Y12729D01*
G01X12287Y12728D01*
G01X12288Y12728D01*
G01X12289Y12728D01*
G01X12290Y12727D01*
G01X12291Y12727D01*
G01X12292Y12726D01*
G01X12293Y12726D01*
G01X12294Y12726D01*
D23*
G01X12295Y12725D02*
G01X12380Y12930D01*
D23*
G01X12380Y12930D02*
G01X12377Y12931D01*
G01X12374Y12933D01*
G01X12371Y12934D01*
G01X12368Y12936D01*
G01X12365Y12937D01*
G01X12362Y12939D01*
G01X12359Y12940D01*
G01X12356Y12942D01*
G01X12353Y12944D01*
G01X12350Y12946D01*
G01X12347Y12948D01*
G01X12344Y12949D01*
G01X12342Y12951D01*
G01X12339Y12953D01*
G01X12336Y12956D01*
G01X12334Y12958D01*
G01X12331Y12960D01*
G01X12329Y12962D01*
G01X12326Y12964D01*
G01X12324Y12967D01*
G01X12321Y12969D01*
G01X12319Y12971D01*
G01X12316Y12974D01*
G01X12314Y12976D01*
G01X12312Y12979D01*
G01X12310Y12981D01*
G01X12307Y12984D01*
G01X12305Y12987D01*
G01X12303Y12989D01*
G01X12301Y12992D01*
G01X12299Y12995D01*
G01X12297Y12998D01*
G01X12295Y13000D01*
G01X12294Y13003D01*
G01X12292Y13006D01*
G01X12290Y13009D01*
G01X12289Y13012D01*
G01X12287Y13015D01*
G01X12285Y13018D01*
G01X12284Y13021D01*
G01X12283Y13024D01*
G01X12281Y13027D01*
G01X12280Y13030D01*
G01X12279Y13033D01*
G01X12277Y13037D01*
G01X12276Y13040D01*
G01X12275Y13043D01*
G01X12274Y13046D01*
G01X12273Y13050D01*
G01X12272Y13053D01*
G01X12271Y13056D01*
G01X12271Y13059D01*
G01X12270Y13063D01*
G01X12269Y13066D01*
G01X12269Y13069D01*
G01X12268Y13073D01*
G01X12268Y13076D01*
G01X12267Y13079D01*
G01X12267Y13083D01*
G01X12267Y13086D01*
G01X12266Y13089D01*
G01X12266Y13093D01*
G01X12266Y13096D01*
G01X12266Y13100D01*
D23*
G01X12266Y13100D02*
G01X12266Y13112D01*
G01X12268Y13125D01*
G01X12270Y13137D01*
G01X12273Y13149D01*
G01X12276Y13161D01*
G01X12281Y13172D01*
G01X12286Y13184D01*
G01X12292Y13195D01*
G01X12299Y13205D01*
G01X12306Y13215D01*
G01X12314Y13224D01*
G01X12323Y13233D01*
G01X12332Y13241D01*
G01X12342Y13249D01*
G01X12352Y13256D01*
G01X12363Y13262D01*
G01X12374Y13268D01*
G01X12386Y13272D01*
G01X12398Y13276D01*
G01X12410Y13280D01*
G01X12422Y13282D01*
G01X12434Y13283D01*
G01X12446Y13284D01*
G01X12459Y13284D01*
G01X12471Y13283D01*
G01X12484Y13281D01*
G01X12496Y13278D01*
G01X12508Y13275D01*
G01X12519Y13270D01*
G01X12531Y13265D01*
G01X12542Y13260D01*
G01X12552Y13253D01*
G01X12562Y13246D01*
G01X12572Y13238D01*
G01X12581Y13229D01*
G01X12589Y13220D01*
G01X12597Y13211D01*
G01X12604Y13200D01*
G01X12611Y13190D01*
G01X12616Y13179D01*
G01X12621Y13167D01*
G01X12625Y13156D01*
G01X12629Y13144D01*
G01X12631Y13132D01*
G01X12633Y13119D01*
G01X12634Y13107D01*
G01X12634Y13095D01*
G01X12633Y13082D01*
G01X12632Y13070D01*
G01X12629Y13058D01*
G01X12626Y13046D01*
G01X12622Y13034D01*
G01X12617Y13023D01*
G01X12611Y13012D01*
G01X12605Y13001D01*
G01X12598Y12991D01*
G01X12590Y12981D01*
G01X12582Y12972D01*
G01X12573Y12963D01*
G01X12563Y12955D01*
G01X12553Y12948D01*
G01X12543Y12941D01*
G01X12532Y12935D01*
G01X12521Y12930D01*
D23*
G01X12520Y12930D02*
G01X12605Y12725D01*
M02*
