M48
;DRILL file {brdgerber.py (2020-11-08 23:19:51) date 2020-11-08 23:19:51}
;FORMAT={-:-/ absolute / inch / decimal}
FMAT,2
INCH,TZ
T2C00000.10000
T3C00000.02500
T1C00000.03200
%
G90
G05
M72
T2
X-0000.29446Y00001.53054
X00000.23446Y00001.53054
X00000.23446Y00002.05946
X-0000.29446Y00002.05946
T0
T3
X00000.93000Y00001.81000
X00000.43000Y00001.74000
X00000.12500Y00001.37500
X00000.64000Y00001.81000
X00000.75500Y00001.81500
X00000.41500Y00001.39500
X-0000.13500Y00001.74000
X00000.74500Y00001.47000
X00001.02000Y00001.69500
X00000.83500Y00001.78500
X00000.84500Y00002.03000
X00000.87500Y00001.69000
X00000.48000Y00002.15000
X00000.72500Y00002.25000
X00001.01500Y00002.11500
X00000.67500Y00001.52500
X00000.95500Y00001.26000
X00000.58500Y00001.54000
X00000.09000Y00001.27500
X00000.00500Y00001.73000
X00000.12500Y00001.60500
X00000.11000Y00001.75500
T0
T1
X00000.27500Y00002.25500
X00000.17500Y00002.25500
X00000.07500Y00002.25500
X-0000.02500Y00002.25500
X-0000.12500Y00002.25500
X-0000.22500Y00002.25500
X-0000.32500Y00002.25500
X-0000.08500Y00001.37500
X00000.01500Y00001.37500
X-0000.46000Y00001.70000
X-0000.46000Y00001.80000
X-0000.46000Y00001.90000
T0
M30
