G04 ( created by brdgerber.py ( brdgerber.py v0.1 2014-03-12 ) ) date 2020-11-08 23:19:50 EST*
G04 Gerber Fmt 3.4, Leading zero omitted, Abs format*
%MOIN*%
%FSLAX34Y34*%
G01*
G70*
G90*
G04 APERTURE LIST*
%ADD15C,0.1500*%
%ADD11R,0.0550X0.0550*%
%ADD16R,0.0629X0.0709*%
%ADD14R,0.0472X0.0275*%
%ADD12C,0.0550*%
%ADD10R,0.0260X0.0800*%
%ADD13R,0.0709X0.0629*%
G04 APERTURE END LIST*
G54D15*
D10*
X09300Y19150D03*
D10*
X08800Y19150D03*
D10*
X08300Y19150D03*
D10*
X07800Y19150D03*
D10*
X07300Y19150D03*
D10*
X06800Y19150D03*
D10*
X06300Y19150D03*
D10*
X05800Y19150D03*
D10*
X05800Y13550D03*
D10*
X06300Y13550D03*
D10*
X06800Y13550D03*
D10*
X07300Y13550D03*
D10*
X07800Y13550D03*
D10*
X08300Y13550D03*
D10*
X08800Y13550D03*
D10*
X09300Y13550D03*
D10*
X05300Y19150D03*
D10*
X04800Y19150D03*
D10*
X05300Y13550D03*
D10*
X04800Y13550D03*
D11*
X02750Y22550D03*
D12*
X01750Y22550D03*
D12*
X00750Y22550D03*
D12*
X-00250Y22550D03*
D12*
X-01250Y22550D03*
D12*
X-02250Y22550D03*
D12*
X-03250Y22550D03*
D13*
X11050Y18959D03*
D13*
X11050Y17841D03*
D14*
X05672Y23200D03*
D14*
X07128Y23200D03*
D15*
G01X-02945Y15305D02*
G01X-02945Y15305D01*
D15*
G01X02345Y15305D02*
G01X02345Y15305D01*
D15*
G01X02345Y20595D02*
G01X02345Y20595D01*
D15*
G01X-02945Y20595D02*
G01X-02945Y20595D01*
D11*
X-00850Y13750D03*
D12*
X00150Y13750D03*
D16*
X09109Y21800D03*
D16*
X07991Y21800D03*
D16*
X06909Y21799D03*
D16*
X05791Y21799D03*
D13*
X11000Y15259D03*
D13*
X11000Y14141D03*
D11*
X-04600Y17000D03*
D12*
X-04600Y18000D03*
D12*
X-04600Y19000D03*
D14*
X07872Y23200D03*
D14*
X09328Y23200D03*
M02*
