<?xml version="1.0" standalone="no"?>
<!DOCTYPE svg PUBLIC "-//W3C//DTD SVG 1.1//EN" "http://www.w3.org/Graphics/SVG/1.1/DTD/svg11.dtd">
<svg width="196" height="101" viewBox="0 -101 196 101" xmlns="http://www.w3.org/2000/svg" version="1.1">
<title>OpenSCAD Model</title>
<path d="
M 27.0625,-94.4688 L 64,-94.4688 L 64,-97.5312 L 27.0625,-97.5312 L 27.0625,-101 L 7.0625,-101
 L 7.0625,-97.5312 L 4,-97.5312 L 4,-94.4688 L 7.0625,-94.4688 L 7.0625,-91 L 27.0625,-91
 z
M 20.9375,-94.4688 L 20.9375,-97.5312 L 24,-97.5312 L 24,-94.4688 z
M 10.125,-94.4688 L 10.125,-97.5312 L 13.1875,-97.5312 L 13.1875,-94.4688 z
M 61.8455,-95.5245 L 61.7061,-95.5955 L 61.5955,-95.7061 L 61.5245,-95.8455 L 61.5,-96 L 61.5245,-96.1545
 L 61.5955,-96.2939 L 61.7061,-96.4045 L 61.8455,-96.4755 L 62,-96.5 L 62.1545,-96.4755 L 62.2939,-96.4045
 L 62.4045,-96.2939 L 62.4755,-96.1545 L 62.5,-96 L 62.4755,-95.8455 L 62.4045,-95.7061 L 62.2939,-95.5955
 L 62.1545,-95.5245 L 62,-95.5 z
M 135,-92.5 L 138,-92.5 L 138,-95.5 L 135,-95.5 L 135,-97.0625 L 121,-97.0625
 L 121,-95.5 L 118,-95.5 L 118,-92.5 L 121,-92.5 L 121,-90.9375 L 135,-90.9375
 z
M 113,-92.5 L 116,-92.5 L 116,-95.5 L 113,-95.5 L 113,-97.0625 L 99,-97.0625
 L 99,-95.5 L 96,-95.5 L 96,-92.5 L 99,-92.5 L 99,-90.9375 L 113,-90.9375
 z
M 94,-93.4688 L 90.9375,-93.4688 L 90.9375,-96.5312 L 87.875,-96.5312 L 87.875,-93.4688 L 74,-93.4688
 L 74,-90 L 94,-90 z
M 72,-93.4688 L 68.9375,-93.4688 L 68.9375,-96.5312 L 65.875,-96.5312 L 65.875,-93.4688 L 52,-93.4688
 L 52,-90 L 72,-90 z
M 154.561,-30.1537 L 156.061,-30.609 L 157.445,-31.3483 L 158.657,-32.3432 L 159.652,-33.5555 L 160.391,-34.9385
 L 160.846,-36.4393 L 161,-38 L 161,-51 L 162.594,-51 L 162.594,-53 L 161,-53
 L 161,-54.9375 L 158,-54.9375 L 158,-58 L 161,-58 L 161,-68 L 158,-68
 L 158,-71.0625 L 161,-71.0625 L 161,-73 L 162.594,-73 L 162.594,-75 L 161,-75
 L 161,-88 L 160.846,-89.5607 L 160.391,-91.0615 L 159.652,-92.4445 L 158.657,-93.6568 L 157.445,-94.6517
 L 156.061,-95.391 L 154.561,-95.8463 L 153,-96 L 142,-96 L 141.073,-95.8532 L 140.237,-95.427
 L 139.573,-94.7634 L 139.147,-93.927 L 139,-93 L 139.147,-92.0729 L 139.573,-91.2366 L 140.237,-90.5729
 L 141.073,-90.1468 L 142,-90 L 153,-90 L 153.39,-89.9616 L 153.765,-89.8477 L 154.111,-89.6629
 L 154.414,-89.4142 L 154.663,-89.1111 L 154.848,-88.7654 L 154.962,-88.3902 L 155,-88 L 154.962,-87.6098
 L 154.925,-86.6719 L 155,-86.405 L 155,-38 L 154.962,-37.6098 L 154.848,-37.2346 L 154.663,-36.8889
 L 154.414,-36.5858 L 154.111,-36.3371 L 153.765,-36.1523 L 153.39,-36.0384 L 153,-36 L 152.61,-36.0384
 L 151.672,-36.0753 L 151.405,-36 L 142,-36 L 141.073,-35.8532 L 140.237,-35.4271 L 139.573,-34.7634
 L 139.147,-33.9271 L 139,-33 L 139.147,-32.073 L 139.573,-31.2366 L 140.237,-30.573 L 141.073,-30.1468
 L 142,-30 L 153,-30 z
M 145.691,-92.0489 L 145.412,-92.191 L 145.191,-92.4122 L 145.049,-92.691 L 145,-93 L 145.049,-93.309
 L 145.191,-93.5878 L 145.412,-93.809 L 145.691,-93.951 L 146,-94 L 146.309,-93.951 L 146.588,-93.809
 L 146.809,-93.5878 L 146.951,-93.309 L 147,-93 L 146.951,-92.691 L 146.809,-92.4122 L 146.588,-92.191
 L 146.309,-92.0489 L 146,-92 z
M 141.691,-92.0489 L 141.412,-92.191 L 141.191,-92.4122 L 141.049,-92.691 L 141,-93 L 141.049,-93.309
 L 141.191,-93.5878 L 141.412,-93.809 L 141.691,-93.951 L 142,-94 L 142.309,-93.951 L 142.588,-93.809
 L 142.809,-93.5878 L 142.951,-93.309 L 143,-93 L 142.951,-92.691 L 142.809,-92.4122 L 142.588,-92.191
 L 142.309,-92.0489 L 142,-92 z
M 145.691,-32.049 L 145.412,-32.191 L 145.191,-32.4122 L 145.049,-32.691 L 145,-33 L 145.049,-33.309
 L 145.191,-33.5878 L 145.412,-33.809 L 145.691,-33.9511 L 146,-34 L 146.309,-33.9511 L 146.588,-33.809
 L 146.809,-33.5878 L 146.951,-33.309 L 147,-33 L 146.951,-32.691 L 146.809,-32.4122 L 146.588,-32.191
 L 146.309,-32.049 L 146,-32 z
M 141.691,-32.049 L 141.412,-32.191 L 141.191,-32.4122 L 141.049,-32.691 L 141,-33 L 141.049,-33.309
 L 141.191,-33.5878 L 141.412,-33.809 L 141.691,-33.9511 L 142,-34 L 142.309,-33.9511 L 142.588,-33.809
 L 142.809,-33.5878 L 142.951,-33.309 L 143,-33 L 142.951,-32.691 L 142.809,-32.4122 L 142.588,-32.191
 L 142.309,-32.049 L 142,-32 z
M 187,-90.5 L 190,-90.5 L 190,-93.5 L 187,-93.5 L 187,-95.0625 L 173,-95.0625
 L 173,-93.5 L 170,-93.5 L 170,-90.5 L 173,-90.5 L 173,-88.9375 L 187,-88.9375
 z
M 166.5,-77 L 168.062,-77 L 168.062,-91 L 166.5,-91 L 166.5,-94 L 163.5,-94
 L 163.5,-91 L 161.938,-91 L 161.938,-77 L 163.5,-77 L 163.5,-74 L 166.5,-74
 z
M 144.927,-63.6468 L 145.763,-64.073 L 146.427,-64.7366 L 146.853,-65.573 L 147,-66.5 L 147,-86.5
 L 146.853,-87.427 L 146.427,-88.2634 L 145.763,-88.927 L 144.927,-89.3532 L 144,-89.5 L 143.073,-89.3532
 L 142.237,-88.927 L 141.573,-88.2634 L 141.147,-87.427 L 141,-86.5 L 141,-66.5 L 141.147,-65.573
 L 141.573,-64.7366 L 142.237,-64.073 L 143.073,-63.6468 L 144,-63.5 z
M 143.691,-69.549 L 143.412,-69.691 L 143.191,-69.9122 L 143.049,-70.191 L 143,-70.5 L 143,-86.5
 L 143.049,-86.809 L 143.191,-87.0878 L 143.412,-87.309 L 143.691,-87.451 L 144,-87.5 L 144.309,-87.451
 L 144.588,-87.309 L 144.809,-87.0878 L 144.951,-86.809 L 145,-86.5 L 145,-70.5 L 144.951,-70.191
 L 144.809,-69.9122 L 144.588,-69.691 L 144.309,-69.549 L 144,-69.5 z
M 143.691,-65.549 L 143.412,-65.691 L 143.191,-65.9122 L 143.049,-66.191 L 143,-66.5 L 143.049,-66.809
 L 143.191,-67.0878 L 143.412,-67.309 L 143.691,-67.4511 L 144,-67.5 L 144.309,-67.4511 L 144.588,-67.309
 L 144.809,-67.0878 L 144.951,-66.809 L 145,-66.5 L 144.951,-66.191 L 144.809,-65.9122 L 144.588,-65.691
 L 144.309,-65.549 L 144,-65.5 z
M 151.927,-63.6468 L 152.763,-64.073 L 153.427,-64.7366 L 153.853,-65.573 L 154,-66.5 L 154,-86.5
 L 153.853,-87.427 L 153.427,-88.2634 L 152.763,-88.927 L 151.927,-89.3532 L 151,-89.5 L 150.073,-89.3532
 L 149.237,-88.927 L 148.573,-88.2634 L 148.147,-87.427 L 148,-86.5 L 148,-66.5 L 148.147,-65.573
 L 148.573,-64.7366 L 149.237,-64.073 L 150.073,-63.6468 L 151,-63.5 z
M 150.691,-69.549 L 150.412,-69.691 L 150.191,-69.9122 L 150.049,-70.191 L 150,-70.5 L 150,-86.5
 L 150.049,-86.809 L 150.191,-87.0878 L 150.412,-87.309 L 150.691,-87.451 L 151,-87.5 L 151.309,-87.451
 L 151.588,-87.309 L 151.809,-87.0878 L 151.951,-86.809 L 152,-86.5 L 152,-70.5 L 151.951,-70.191
 L 151.809,-69.9122 L 151.588,-69.691 L 151.309,-69.549 L 151,-69.5 z
M 150.691,-65.549 L 150.412,-65.691 L 150.191,-65.9122 L 150.049,-66.191 L 150,-66.5 L 150.049,-66.809
 L 150.191,-67.0878 L 150.412,-67.309 L 150.691,-67.4511 L 151,-67.5 L 151.309,-67.4511 L 151.588,-67.309
 L 151.809,-67.0878 L 151.951,-66.809 L 152,-66.5 L 151.951,-66.191 L 151.809,-65.9122 L 151.588,-65.691
 L 151.309,-65.549 L 151,-65.5 z
M 97.9375,-86 L 101,-86 L 101,-83 L 111,-83 L 111,-86 L 114.062,-86
 L 114.062,-83 L 128,-83 L 128.927,-83.1468 L 129.763,-83.573 L 130.427,-84.2366 L 130.853,-85.073
 L 131,-86 L 130.853,-86.927 L 130.427,-87.7634 L 129.763,-88.427 L 128.927,-88.8532 L 128,-89
 L 107,-89 L 107,-86 L 105,-86 L 105,-89 L 84,-89 L 83.073,-88.8532
 L 82.2366,-88.427 L 81.573,-87.7634 L 81.1468,-86.927 L 81,-86 L 81.1468,-85.073 L 81.573,-84.2366
 L 82.2366,-83.573 L 83.073,-83.1468 L 84,-83 L 97.9375,-83 z
M 83.691,-85.049 L 83.4122,-85.191 L 83.191,-85.4122 L 83.049,-85.691 L 83,-86 L 83.049,-86.309
 L 83.191,-86.5878 L 83.4122,-86.809 L 83.691,-86.951 L 84,-87 L 84.309,-86.951 L 84.5878,-86.809
 L 84.809,-86.5878 L 84.9511,-86.309 L 85,-86 L 84.9511,-85.691 L 84.809,-85.4122 L 84.5878,-85.191
 L 84.309,-85.049 L 84,-85 z
M 127.691,-85.049 L 127.412,-85.191 L 127.191,-85.4122 L 127.049,-85.691 L 127,-86 L 127.049,-86.309
 L 127.191,-86.5878 L 127.412,-86.809 L 127.691,-86.951 L 128,-87 L 128.309,-86.951 L 128.588,-86.809
 L 128.809,-86.5878 L 128.951,-86.309 L 129,-86 L 128.951,-85.691 L 128.809,-85.4122 L 128.588,-85.191
 L 128.309,-85.049 L 128,-85 z
M 58.927,-83.1468 L 59.7634,-83.573 L 60.427,-84.2366 L 60.8532,-85.073 L 61,-86 L 60.8532,-86.927
 L 60.427,-87.7634 L 59.7634,-88.427 L 58.927,-88.8532 L 58,-89 L 44.0625,-89 L 44.0625,-86
 L 41,-86 L 41,-89 L 37,-89 L 37,-86 L 35,-86 L 35,-89
 L 31,-89 L 31,-86 L 27.9375,-86 L 27.9375,-89 L 14,-89 L 13.073,-88.8532
 L 12.2366,-88.427 L 11.573,-87.7634 L 11.1468,-86.927 L 11,-86 L 11.1468,-85.073 L 11.573,-84.2366
 L 12.2366,-83.573 L 13.073,-83.1468 L 14,-83 L 58,-83 z
M 13.691,-85.049 L 13.4122,-85.191 L 13.191,-85.4122 L 13.049,-85.691 L 13,-86 L 13.049,-86.309
 L 13.191,-86.5878 L 13.4122,-86.809 L 13.691,-86.951 L 14,-87 L 14.309,-86.951 L 14.5878,-86.809
 L 14.809,-86.5878 L 14.9511,-86.309 L 15,-86 L 14.9511,-85.691 L 14.809,-85.4122 L 14.5878,-85.191
 L 14.309,-85.049 L 14,-85 z
M 57.691,-85.049 L 57.4122,-85.191 L 57.191,-85.4122 L 57.0489,-85.691 L 57,-86 L 57.0489,-86.309
 L 57.191,-86.5878 L 57.4122,-86.809 L 57.691,-86.951 L 58,-87 L 58.309,-86.951 L 58.5878,-86.809
 L 58.809,-86.5878 L 58.951,-86.309 L 59,-86 L 58.951,-85.691 L 58.809,-85.4122 L 58.5878,-85.191
 L 58.309,-85.049 L 58,-85 z
M 26,-67 L 46,-67 L 46,-65.4062 L 48,-65.4062 L 48,-67 L 61,-67
 L 62.5607,-67.1537 L 64.0615,-67.609 L 65.4445,-68.3483 L 66.6568,-69.3432 L 67.6517,-70.5554 L 68.391,-71.9385
 L 68.8463,-73.4393 L 69,-75 L 69,-86 L 68.8532,-86.927 L 68.427,-87.7634 L 67.7634,-88.427
 L 66.927,-88.8532 L 66,-89 L 65.0729,-88.8532 L 64.2366,-88.427 L 63.5729,-87.7634 L 63.1468,-86.927
 L 63,-86 L 63,-75 L 62.9616,-74.6098 L 62.8477,-74.2346 L 62.6629,-73.8889 L 62.4142,-73.5858
 L 62.1111,-73.3371 L 61.7654,-73.1522 L 61.3902,-73.0384 L 61,-73 L 60.6098,-73.0384 L 59.6719,-73.0753
 L 59.405,-73 L 44.0625,-73 L 44.0625,-70 L 41,-70 L 41,-73 L 31,-73
 L 31,-70 L 27.9375,-70 L 27.9375,-73 L 11,-73 L 10.6098,-73.0384 L 10.2346,-73.1522
 L 9.88887,-73.3371 L 9.5858,-73.5858 L 9.33707,-73.8889 L 9.15225,-74.2346 L 9.03844,-74.6098 L 9,-75
 L 9.03844,-75.3902 L 9.07529,-76.328 L 9,-76.595 L 9,-86 L 8.85318,-86.927 L 8.42706,-87.7634
 L 7.76337,-88.427 L 6.92706,-88.8532 L 6,-89 L 5.07295,-88.8532 L 4.23665,-88.427 L 3.57295,-87.7634
 L 3.14684,-86.927 L 3,-86 L 3,-75 L 3.15373,-73.4393 L 3.60898,-71.9385 L 4.34825,-70.5554
 L 5.34315,-69.3432 L 6.55545,-68.3483 L 7.93854,-67.609 L 9.43929,-67.1537 L 11,-67 L 24,-67
 L 24,-65.4062 L 26,-65.4062 z
M 5.69099,-85.0489 L 5.41222,-85.191 L 5.19099,-85.4122 L 5.04895,-85.691 L 5,-86 L 5.04895,-86.309
 L 5.19099,-86.5878 L 5.41222,-86.809 L 5.69099,-86.951 L 6,-87 L 6.30902,-86.951 L 6.5878,-86.809
 L 6.80902,-86.5878 L 6.95107,-86.309 L 7,-86 L 6.95107,-85.691 L 6.80902,-85.4122 L 6.5878,-85.191
 L 6.30902,-85.0489 L 6,-85 z
M 65.691,-85.0489 L 65.4122,-85.191 L 65.191,-85.4122 L 65.0489,-85.691 L 65,-86 L 65.0489,-86.309
 L 65.191,-86.5878 L 65.4122,-86.809 L 65.691,-86.951 L 66,-87 L 66.309,-86.951 L 66.5878,-86.809
 L 66.809,-86.5878 L 66.951,-86.309 L 67,-86 L 66.951,-85.691 L 66.809,-85.4122 L 66.5878,-85.191
 L 66.309,-85.0489 L 66,-85 z
M 65.691,-81.0489 L 65.4122,-81.191 L 65.191,-81.4122 L 65.0489,-81.691 L 65,-82 L 65.0489,-82.309
 L 65.191,-82.5878 L 65.4122,-82.809 L 65.691,-82.951 L 66,-83 L 66.309,-82.951 L 66.5878,-82.809
 L 66.809,-82.5878 L 66.951,-82.309 L 67,-82 L 66.951,-81.691 L 66.809,-81.4122 L 66.5878,-81.191
 L 66.309,-81.0489 L 66,-81 z
M 5.69099,-81.0489 L 5.41222,-81.191 L 5.19099,-81.4122 L 5.04895,-81.691 L 5,-82 L 5.04895,-82.309
 L 5.19099,-82.5878 L 5.41222,-82.809 L 5.69099,-82.951 L 6,-83 L 6.30902,-82.951 L 6.5878,-82.809
 L 6.80902,-82.5878 L 6.95107,-82.309 L 7,-82 L 6.95107,-81.691 L 6.80902,-81.4122 L 6.5878,-81.191
 L 6.30902,-81.0489 L 6,-81 z
M 96,-67 L 116,-67 L 116,-65.4062 L 118,-65.4062 L 118,-67 L 131,-67
 L 132.561,-67.1537 L 134.061,-67.609 L 135.445,-68.3483 L 136.657,-69.3432 L 137.652,-70.5554 L 138.391,-71.9385
 L 138.846,-73.4393 L 139,-75 L 139,-86 L 138.853,-86.927 L 138.427,-87.7634 L 137.763,-88.427
 L 136.927,-88.8532 L 136,-89 L 135.073,-88.8532 L 134.237,-88.427 L 133.573,-87.7634 L 133.147,-86.927
 L 133,-86 L 133,-75 L 132.962,-74.6098 L 132.848,-74.2346 L 132.663,-73.8889 L 132.414,-73.5858
 L 132.111,-73.3371 L 131.765,-73.1522 L 131.39,-73.0384 L 131,-73 L 130.61,-73.0384 L 129.672,-73.0753
 L 129.405,-73 L 114.062,-73 L 114.062,-70 L 111,-70 L 111,-73 L 101,-73
 L 101,-70 L 97.9375,-70 L 97.9375,-73 L 81,-73 L 80.6098,-73.0384 L 80.2346,-73.1522
 L 79.8889,-73.3371 L 79.5858,-73.5858 L 79.3371,-73.8889 L 79.1523,-74.2346 L 79.0384,-74.6098 L 79,-75
 L 79.0384,-75.3902 L 79.0753,-76.328 L 79,-76.595 L 79,-86 L 78.8532,-86.927 L 78.4271,-87.7634
 L 77.7634,-88.427 L 76.9271,-88.8532 L 76,-89 L 75.073,-88.8532 L 74.2366,-88.427 L 73.573,-87.7634
 L 73.1468,-86.927 L 73,-86 L 73,-75 L 73.1537,-73.4393 L 73.609,-71.9385 L 74.3483,-70.5554
 L 75.3432,-69.3432 L 76.5555,-68.3483 L 77.9385,-67.609 L 79.4393,-67.1537 L 81,-67 L 94,-67
 L 94,-65.4062 L 96,-65.4062 z
M 135.691,-85.0489 L 135.412,-85.191 L 135.191,-85.4122 L 135.049,-85.691 L 135,-86 L 135.049,-86.309
 L 135.191,-86.5878 L 135.412,-86.809 L 135.691,-86.951 L 136,-87 L 136.309,-86.951 L 136.588,-86.809
 L 136.809,-86.5878 L 136.951,-86.309 L 137,-86 L 136.951,-85.691 L 136.809,-85.4122 L 136.588,-85.191
 L 136.309,-85.0489 L 136,-85 z
M 75.691,-85.0489 L 75.4122,-85.191 L 75.191,-85.4122 L 75.049,-85.691 L 75,-86 L 75.049,-86.309
 L 75.191,-86.5878 L 75.4122,-86.809 L 75.691,-86.951 L 76,-87 L 76.309,-86.951 L 76.5878,-86.809
 L 76.809,-86.5878 L 76.9511,-86.309 L 77,-86 L 76.9511,-85.691 L 76.809,-85.4122 L 76.5878,-85.191
 L 76.309,-85.0489 L 76,-85 z
M 75.691,-81.0489 L 75.4122,-81.191 L 75.191,-81.4122 L 75.049,-81.691 L 75,-82 L 75.049,-82.309
 L 75.191,-82.5878 L 75.4122,-82.809 L 75.691,-82.951 L 76,-83 L 76.309,-82.951 L 76.5878,-82.809
 L 76.809,-82.5878 L 76.9511,-82.309 L 77,-82 L 76.9511,-81.691 L 76.809,-81.4122 L 76.5878,-81.191
 L 76.309,-81.0489 L 76,-81 z
M 135.691,-81.0489 L 135.412,-81.191 L 135.191,-81.4122 L 135.049,-81.691 L 135,-82 L 135.049,-82.309
 L 135.191,-82.5878 L 135.412,-82.809 L 135.691,-82.951 L 136,-83 L 136.309,-82.951 L 136.588,-82.809
 L 136.809,-82.5878 L 136.951,-82.309 L 137,-82 L 136.951,-81.691 L 136.809,-81.4122 L 136.588,-81.191
 L 136.309,-81.0489 L 136,-81 z
M 187,-83.5 L 190,-83.5 L 190,-86.5 L 187,-86.5 L 187,-88.0625 L 173,-88.0625
 L 173,-86.5 L 170,-86.5 L 170,-83.5 L 173,-83.5 L 173,-81.9375 L 187,-81.9375
 z
M 58.927,-75.1468 L 59.7634,-75.573 L 60.427,-76.2366 L 60.8532,-77.073 L 61,-78 L 60.8532,-78.927
 L 60.427,-79.7634 L 59.7634,-80.427 L 58.927,-80.8532 L 58,-81 L 44.0625,-81 L 44.0625,-78
 L 41,-78 L 41,-81 L 37,-81 L 37,-78 L 35,-78 L 35,-81
 L 31,-81 L 31,-78 L 27.9375,-78 L 27.9375,-81 L 14,-81 L 13.073,-80.8532
 L 12.2366,-80.427 L 11.573,-79.7634 L 11.1468,-78.927 L 11,-78 L 11.1468,-77.073 L 11.573,-76.2366
 L 12.2366,-75.573 L 13.073,-75.1468 L 14,-75 L 58,-75 z
M 57.691,-77.049 L 57.4122,-77.191 L 57.191,-77.4122 L 57.0489,-77.691 L 57,-78 L 57.0489,-78.309
 L 57.191,-78.5878 L 57.4122,-78.809 L 57.691,-78.951 L 58,-79 L 58.309,-78.951 L 58.5878,-78.809
 L 58.809,-78.5878 L 58.951,-78.309 L 59,-78 L 58.951,-77.691 L 58.809,-77.4122 L 58.5878,-77.191
 L 58.309,-77.049 L 58,-77 z
M 13.691,-77.049 L 13.4122,-77.191 L 13.191,-77.4122 L 13.049,-77.691 L 13,-78 L 13.049,-78.309
 L 13.191,-78.5878 L 13.4122,-78.809 L 13.691,-78.951 L 14,-79 L 14.309,-78.951 L 14.5878,-78.809
 L 14.809,-78.5878 L 14.9511,-78.309 L 15,-78 L 14.9511,-77.691 L 14.809,-77.4122 L 14.5878,-77.191
 L 14.309,-77.049 L 14,-77 z
M 97.9375,-78 L 101,-78 L 101,-75 L 111,-75 L 111,-78 L 114.062,-78
 L 114.062,-75 L 128,-75 L 128.927,-75.1468 L 129.763,-75.573 L 130.427,-76.2366 L 130.853,-77.073
 L 131,-78 L 130.853,-78.927 L 130.427,-79.7634 L 129.763,-80.427 L 128.927,-80.8532 L 128,-81
 L 107,-81 L 107,-78 L 105,-78 L 105,-81 L 84,-81 L 83.073,-80.8532
 L 82.2366,-80.427 L 81.573,-79.7634 L 81.1468,-78.927 L 81,-78 L 81.1468,-77.073 L 81.573,-76.2366
 L 82.2366,-75.573 L 83.073,-75.1468 L 84,-75 L 97.9375,-75 z
M 127.691,-77.049 L 127.412,-77.191 L 127.191,-77.4122 L 127.049,-77.691 L 127,-78 L 127.049,-78.309
 L 127.191,-78.5878 L 127.412,-78.809 L 127.691,-78.951 L 128,-79 L 128.309,-78.951 L 128.588,-78.809
 L 128.809,-78.5878 L 128.951,-78.309 L 129,-78 L 128.951,-77.691 L 128.809,-77.4122 L 128.588,-77.191
 L 128.309,-77.049 L 128,-77 z
M 83.691,-77.049 L 83.4122,-77.191 L 83.191,-77.4122 L 83.049,-77.691 L 83,-78 L 83.049,-78.309
 L 83.191,-78.5878 L 83.4122,-78.809 L 83.691,-78.951 L 84,-79 L 84.309,-78.951 L 84.5878,-78.809
 L 84.809,-78.5878 L 84.9511,-78.309 L 85,-78 L 84.9511,-77.691 L 84.809,-77.4122 L 84.5878,-77.191
 L 84.309,-77.049 L 84,-77 z
M 187.561,-15.1537 L 189.061,-15.609 L 190.445,-16.3483 L 191.657,-17.3432 L 192.652,-18.5555 L 193.391,-19.9385
 L 193.846,-21.4393 L 194,-23 L 194,-36 L 195.594,-36 L 195.594,-38 L 194,-38
 L 194,-39.9375 L 191,-39.9375 L 191,-43 L 194,-43 L 194,-53 L 191,-53
 L 191,-56.0625 L 194,-56.0625 L 194,-58 L 195.594,-58 L 195.594,-60 L 194,-60
 L 194,-73 L 193.846,-74.5607 L 193.391,-76.0615 L 192.652,-77.4445 L 191.657,-78.6568 L 190.445,-79.6517
 L 189.061,-80.391 L 187.561,-80.8463 L 186,-81 L 175,-81 L 174.073,-80.8532 L 173.237,-80.427
 L 172.573,-79.7634 L 172.147,-78.927 L 172,-78 L 172.147,-77.0729 L 172.573,-76.2366 L 173.237,-75.5729
 L 174.073,-75.1468 L 175,-75 L 186,-75 L 186.39,-74.9616 L 186.765,-74.8477 L 187.111,-74.6629
 L 187.414,-74.4142 L 187.663,-74.1111 L 187.848,-73.7654 L 187.962,-73.3902 L 188,-73 L 187.962,-72.6098
 L 187.925,-71.6719 L 188,-71.405 L 188,-23 L 187.962,-22.6098 L 187.848,-22.2346 L 187.663,-21.8889
 L 187.414,-21.5858 L 187.111,-21.3371 L 186.765,-21.1523 L 186.39,-21.0384 L 186,-21 L 185.61,-21.0384
 L 184.672,-21.0753 L 184.405,-21 L 175,-21 L 174.073,-20.8532 L 173.237,-20.4271 L 172.573,-19.7634
 L 172.147,-18.9271 L 172,-18 L 172.147,-17.073 L 172.573,-16.2366 L 173.237,-15.573 L 174.073,-15.1468
 L 175,-15 L 186,-15 z
M 178.691,-77.0489 L 178.412,-77.191 L 178.191,-77.4122 L 178.049,-77.691 L 178,-78 L 178.049,-78.309
 L 178.191,-78.5878 L 178.412,-78.809 L 178.691,-78.951 L 179,-79 L 179.309,-78.951 L 179.588,-78.809
 L 179.809,-78.5878 L 179.951,-78.309 L 180,-78 L 179.951,-77.691 L 179.809,-77.4122 L 179.588,-77.191
 L 179.309,-77.0489 L 179,-77 z
M 174.691,-77.0489 L 174.412,-77.191 L 174.191,-77.4122 L 174.049,-77.691 L 174,-78 L 174.049,-78.309
 L 174.191,-78.5878 L 174.412,-78.809 L 174.691,-78.951 L 175,-79 L 175.309,-78.951 L 175.588,-78.809
 L 175.809,-78.5878 L 175.951,-78.309 L 176,-78 L 175.951,-77.691 L 175.809,-77.4122 L 175.588,-77.191
 L 175.309,-77.0489 L 175,-77 z
M 174.691,-17.049 L 174.412,-17.191 L 174.191,-17.4122 L 174.049,-17.691 L 174,-18 L 174.049,-18.309
 L 174.191,-18.5878 L 174.412,-18.809 L 174.691,-18.9511 L 175,-19 L 175.309,-18.9511 L 175.588,-18.809
 L 175.809,-18.5878 L 175.951,-18.309 L 176,-18 L 175.951,-17.691 L 175.809,-17.4122 L 175.588,-17.191
 L 175.309,-17.049 L 175,-17 z
M 178.691,-17.049 L 178.412,-17.191 L 178.191,-17.4122 L 178.049,-17.691 L 178,-18 L 178.049,-18.309
 L 178.191,-18.5878 L 178.412,-18.809 L 178.691,-18.9511 L 179,-19 L 179.309,-18.9511 L 179.588,-18.809
 L 179.809,-18.5878 L 179.951,-18.309 L 180,-18 L 179.951,-17.691 L 179.809,-17.4122 L 179.588,-17.191
 L 179.309,-17.049 L 179,-17 z
M 184.927,-7.14684 L 185.763,-7.57295 L 186.427,-8.23665 L 186.853,-9.07295 L 187,-10 L 186.853,-10.9271
 L 186.427,-11.7634 L 185.763,-12.4271 L 184.927,-12.8532 L 184,-13 L 173,-13 L 172.61,-13.0384
 L 172.235,-13.1523 L 171.889,-13.3371 L 171.586,-13.5858 L 171.337,-13.8889 L 171.152,-14.2346 L 171.038,-14.6098
 L 171,-15 L 171.038,-15.3902 L 171.075,-16.3281 L 171,-16.595 L 171,-65 L 171.038,-65.3902
 L 171.152,-65.7654 L 171.337,-66.1111 L 171.586,-66.4142 L 171.889,-66.6629 L 172.235,-66.8477 L 172.61,-66.9616
 L 173,-67 L 173.39,-66.9616 L 174.328,-66.9247 L 174.595,-67 L 184,-67 L 184.927,-67.1468
 L 185.763,-67.5729 L 186.427,-68.2366 L 186.853,-69.0729 L 187,-70 L 186.853,-70.927 L 186.427,-71.7634
 L 185.763,-72.427 L 184.927,-72.8532 L 184,-73 L 173,-73 L 171.439,-72.8463 L 169.939,-72.391
 L 168.555,-71.6517 L 167.343,-70.6568 L 166.348,-69.4445 L 165.609,-68.0615 L 165.154,-66.5607 L 165,-65
 L 165,-52 L 163.406,-52 L 163.406,-50 L 165,-50 L 165,-48.0625 L 168,-48.0625
 L 168,-45 L 165,-45 L 165,-35 L 168,-35 L 168,-31.9375 L 165,-31.9375
 L 165,-30 L 163.406,-30 L 163.406,-28 L 165,-28 L 165,-15 L 165.154,-13.4393
 L 165.609,-11.9385 L 166.348,-10.5555 L 167.343,-9.34315 L 168.555,-8.34825 L 169.939,-7.60898 L 171.439,-7.15373
 L 173,-7 L 184,-7 z
M 183.691,-69.0489 L 183.412,-69.191 L 183.191,-69.4122 L 183.049,-69.691 L 183,-70 L 183.049,-70.309
 L 183.191,-70.5878 L 183.412,-70.809 L 183.691,-70.951 L 184,-71 L 184.309,-70.951 L 184.588,-70.809
 L 184.809,-70.5878 L 184.951,-70.309 L 185,-70 L 184.951,-69.691 L 184.809,-69.4122 L 184.588,-69.191
 L 184.309,-69.0489 L 184,-69 z
M 179.691,-69.0489 L 179.412,-69.191 L 179.191,-69.4122 L 179.049,-69.691 L 179,-70 L 179.049,-70.309
 L 179.191,-70.5878 L 179.412,-70.809 L 179.691,-70.951 L 180,-71 L 180.309,-70.951 L 180.588,-70.809
 L 180.809,-70.5878 L 180.951,-70.309 L 181,-70 L 180.951,-69.691 L 180.809,-69.4122 L 180.588,-69.191
 L 180.309,-69.0489 L 180,-69 z
M 183.691,-9.04895 L 183.412,-9.19099 L 183.191,-9.41222 L 183.049,-9.69099 L 183,-10 L 183.049,-10.309
 L 183.191,-10.5878 L 183.412,-10.809 L 183.691,-10.9511 L 184,-11 L 184.309,-10.9511 L 184.588,-10.809
 L 184.809,-10.5878 L 184.951,-10.309 L 185,-10 L 184.951,-9.69099 L 184.809,-9.41222 L 184.588,-9.19099
 L 184.309,-9.04895 L 184,-9 z
M 179.691,-9.04895 L 179.412,-9.19099 L 179.191,-9.41222 L 179.049,-9.69099 L 179,-10 L 179.049,-10.309
 L 179.191,-10.5878 L 179.412,-10.809 L 179.691,-10.9511 L 180,-11 L 180.309,-10.9511 L 180.588,-10.809
 L 180.809,-10.5878 L 180.951,-10.309 L 181,-10 L 180.951,-9.69099 L 180.809,-9.41222 L 180.588,-9.19099
 L 180.309,-9.04895 L 180,-9 z
M 184.5,-49 L 186.062,-49 L 186.062,-63 L 184.5,-63 L 184.5,-66 L 181.5,-66
 L 181.5,-63 L 179.938,-63 L 179.938,-49 L 181.5,-49 L 181.5,-46 L 184.5,-46
 z
M 176.5,-49 L 178.062,-49 L 178.062,-63 L 176.5,-63 L 176.5,-66 L 173.5,-66
 L 173.5,-63 L 171.938,-63 L 171.938,-49 L 173.5,-49 L 173.5,-46 L 176.5,-46
 z
M 96,-43 L 116,-43 L 116,-41.4062 L 118,-41.4062 L 118,-43 L 131,-43
 L 132.561,-43.1537 L 134.061,-43.609 L 135.445,-44.3483 L 136.657,-45.3432 L 137.652,-46.5554 L 138.391,-47.9385
 L 138.846,-49.4393 L 139,-51 L 139,-62 L 138.853,-62.927 L 138.427,-63.7634 L 137.763,-64.427
 L 136.927,-64.8532 L 136,-65 L 135.073,-64.8532 L 134.237,-64.427 L 133.573,-63.7634 L 133.147,-62.927
 L 133,-62 L 133,-51 L 132.962,-50.6098 L 132.848,-50.2346 L 132.663,-49.8889 L 132.414,-49.5858
 L 132.111,-49.3371 L 131.765,-49.1522 L 131.39,-49.0384 L 131,-49 L 130.61,-49.0384 L 129.672,-49.0753
 L 129.405,-49 L 114.062,-49 L 114.062,-46 L 111,-46 L 111,-49 L 101,-49
 L 101,-46 L 97.9375,-46 L 97.9375,-49 L 81,-49 L 80.6098,-49.0384 L 80.2346,-49.1522
 L 79.8889,-49.3371 L 79.5858,-49.5858 L 79.3371,-49.8889 L 79.1523,-50.2346 L 79.0384,-50.6098 L 79,-51
 L 79.0384,-51.3902 L 79.0753,-52.328 L 79,-52.595 L 79,-62 L 78.8532,-62.927 L 78.4271,-63.7634
 L 77.7634,-64.427 L 76.9271,-64.8532 L 76,-65 L 75.073,-64.8532 L 74.2366,-64.427 L 73.573,-63.7634
 L 73.1468,-62.927 L 73,-62 L 73,-51 L 73.1537,-49.4393 L 73.609,-47.9385 L 74.3483,-46.5554
 L 75.3432,-45.3432 L 76.5555,-44.3483 L 77.9385,-43.609 L 79.4393,-43.1537 L 81,-43 L 94,-43
 L 94,-41.4062 L 96,-41.4062 z
M 135.691,-61.0489 L 135.412,-61.191 L 135.191,-61.4122 L 135.049,-61.691 L 135,-62 L 135.049,-62.309
 L 135.191,-62.5878 L 135.412,-62.809 L 135.691,-62.951 L 136,-63 L 136.309,-62.951 L 136.588,-62.809
 L 136.809,-62.5878 L 136.951,-62.309 L 137,-62 L 136.951,-61.691 L 136.809,-61.4122 L 136.588,-61.191
 L 136.309,-61.0489 L 136,-61 z
M 75.691,-61.0489 L 75.4122,-61.191 L 75.191,-61.4122 L 75.049,-61.691 L 75,-62 L 75.049,-62.309
 L 75.191,-62.5878 L 75.4122,-62.809 L 75.691,-62.951 L 76,-63 L 76.309,-62.951 L 76.5878,-62.809
 L 76.809,-62.5878 L 76.9511,-62.309 L 77,-62 L 76.9511,-61.691 L 76.809,-61.4122 L 76.5878,-61.191
 L 76.309,-61.0489 L 76,-61 z
M 135.691,-57.0489 L 135.412,-57.191 L 135.191,-57.4122 L 135.049,-57.691 L 135,-58 L 135.049,-58.309
 L 135.191,-58.5878 L 135.412,-58.809 L 135.691,-58.951 L 136,-59 L 136.309,-58.951 L 136.588,-58.809
 L 136.809,-58.5878 L 136.951,-58.309 L 137,-58 L 136.951,-57.691 L 136.809,-57.4122 L 136.588,-57.191
 L 136.309,-57.0489 L 136,-57 z
M 75.691,-57.0489 L 75.4122,-57.191 L 75.191,-57.4122 L 75.049,-57.691 L 75,-58 L 75.049,-58.309
 L 75.191,-58.5878 L 75.4122,-58.809 L 75.691,-58.951 L 76,-59 L 76.309,-58.951 L 76.5878,-58.809
 L 76.809,-58.5878 L 76.9511,-58.309 L 77,-58 L 76.9511,-57.691 L 76.809,-57.4122 L 76.5878,-57.191
 L 76.309,-57.0489 L 76,-57 z
M 97.9375,-62 L 101,-62 L 101,-59 L 111,-59 L 111,-62 L 114.062,-62
 L 114.062,-59 L 128,-59 L 128.927,-59.1468 L 129.763,-59.573 L 130.427,-60.2366 L 130.853,-61.073
 L 131,-62 L 130.853,-62.927 L 130.427,-63.7634 L 129.763,-64.427 L 128.927,-64.8532 L 128,-65
 L 107,-65 L 107,-62 L 105,-62 L 105,-65 L 84,-65 L 83.073,-64.8532
 L 82.2366,-64.427 L 81.573,-63.7634 L 81.1468,-62.927 L 81,-62 L 81.1468,-61.073 L 81.573,-60.2366
 L 82.2366,-59.573 L 83.073,-59.1468 L 84,-59 L 97.9375,-59 z
M 83.691,-61.049 L 83.4122,-61.191 L 83.191,-61.4122 L 83.049,-61.691 L 83,-62 L 83.049,-62.309
 L 83.191,-62.5878 L 83.4122,-62.809 L 83.691,-62.951 L 84,-63 L 84.309,-62.951 L 84.5878,-62.809
 L 84.809,-62.5878 L 84.9511,-62.309 L 85,-62 L 84.9511,-61.691 L 84.809,-61.4122 L 84.5878,-61.191
 L 84.309,-61.049 L 84,-61 z
M 127.691,-61.049 L 127.412,-61.191 L 127.191,-61.4122 L 127.049,-61.691 L 127,-62 L 127.049,-62.309
 L 127.191,-62.5878 L 127.412,-62.809 L 127.691,-62.951 L 128,-63 L 128.309,-62.951 L 128.588,-62.809
 L 128.809,-62.5878 L 128.951,-62.309 L 129,-62 L 128.951,-61.691 L 128.809,-61.4122 L 128.588,-61.191
 L 128.309,-61.049 L 128,-61 z
M 58.927,-59.1468 L 59.7634,-59.573 L 60.427,-60.2366 L 60.8532,-61.073 L 61,-62 L 60.8532,-62.927
 L 60.427,-63.7634 L 59.7634,-64.427 L 58.927,-64.8532 L 58,-65 L 44.0625,-65 L 44.0625,-62
 L 41,-62 L 41,-65 L 37,-65 L 37,-62 L 35,-62 L 35,-65
 L 31,-65 L 31,-62 L 27.9375,-62 L 27.9375,-65 L 14,-65 L 13.073,-64.8532
 L 12.2366,-64.427 L 11.573,-63.7634 L 11.1468,-62.927 L 11,-62 L 11.1468,-61.073 L 11.573,-60.2366
 L 12.2366,-59.573 L 13.073,-59.1468 L 14,-59 L 58,-59 z
M 13.691,-61.049 L 13.4122,-61.191 L 13.191,-61.4122 L 13.049,-61.691 L 13,-62 L 13.049,-62.309
 L 13.191,-62.5878 L 13.4122,-62.809 L 13.691,-62.951 L 14,-63 L 14.309,-62.951 L 14.5878,-62.809
 L 14.809,-62.5878 L 14.9511,-62.309 L 15,-62 L 14.9511,-61.691 L 14.809,-61.4122 L 14.5878,-61.191
 L 14.309,-61.049 L 14,-61 z
M 57.691,-61.049 L 57.4122,-61.191 L 57.191,-61.4122 L 57.0489,-61.691 L 57,-62 L 57.0489,-62.309
 L 57.191,-62.5878 L 57.4122,-62.809 L 57.691,-62.951 L 58,-63 L 58.309,-62.951 L 58.5878,-62.809
 L 58.809,-62.5878 L 58.951,-62.309 L 59,-62 L 58.951,-61.691 L 58.809,-61.4122 L 58.5878,-61.191
 L 58.309,-61.049 L 58,-61 z
M 26,-43 L 46,-43 L 46,-41.4062 L 48,-41.4062 L 48,-43 L 61,-43
 L 62.5607,-43.1537 L 64.0615,-43.609 L 65.4445,-44.3483 L 66.6568,-45.3432 L 67.6517,-46.5554 L 68.391,-47.9385
 L 68.8463,-49.4393 L 69,-51 L 69,-62 L 68.8532,-62.927 L 68.427,-63.7634 L 67.7634,-64.427
 L 66.927,-64.8532 L 66,-65 L 65.0729,-64.8532 L 64.2366,-64.427 L 63.5729,-63.7634 L 63.1468,-62.927
 L 63,-62 L 63,-51 L 62.9616,-50.6098 L 62.8477,-50.2346 L 62.6629,-49.8889 L 62.4142,-49.5858
 L 62.1111,-49.3371 L 61.7654,-49.1522 L 61.3902,-49.0384 L 61,-49 L 60.6098,-49.0384 L 59.6719,-49.0753
 L 59.405,-49 L 44.0625,-49 L 44.0625,-46 L 41,-46 L 41,-49 L 31,-49
 L 31,-46 L 27.9375,-46 L 27.9375,-49 L 11,-49 L 10.6098,-49.0384 L 10.2346,-49.1522
 L 9.88887,-49.3371 L 9.5858,-49.5858 L 9.33707,-49.8889 L 9.15225,-50.2346 L 9.03844,-50.6098 L 9,-51
 L 9.03844,-51.3902 L 9.07529,-52.328 L 9,-52.595 L 9,-62 L 8.85318,-62.927 L 8.42706,-63.7634
 L 7.76337,-64.427 L 6.92706,-64.8532 L 6,-65 L 5.07295,-64.8532 L 4.23665,-64.427 L 3.57295,-63.7634
 L 3.14684,-62.927 L 3,-62 L 3,-51 L 3.15373,-49.4393 L 3.60898,-47.9385 L 4.34825,-46.5554
 L 5.34315,-45.3432 L 6.55545,-44.3483 L 7.93854,-43.609 L 9.43929,-43.1537 L 11,-43 L 24,-43
 L 24,-41.4062 L 26,-41.4062 z
M 65.691,-61.0489 L 65.4122,-61.191 L 65.191,-61.4122 L 65.0489,-61.691 L 65,-62 L 65.0489,-62.309
 L 65.191,-62.5878 L 65.4122,-62.809 L 65.691,-62.951 L 66,-63 L 66.309,-62.951 L 66.5878,-62.809
 L 66.809,-62.5878 L 66.951,-62.309 L 67,-62 L 66.951,-61.691 L 66.809,-61.4122 L 66.5878,-61.191
 L 66.309,-61.0489 L 66,-61 z
M 5.69099,-61.0489 L 5.41222,-61.191 L 5.19099,-61.4122 L 5.04895,-61.691 L 5,-62 L 5.04895,-62.309
 L 5.19099,-62.5878 L 5.41222,-62.809 L 5.69099,-62.951 L 6,-63 L 6.30902,-62.951 L 6.5878,-62.809
 L 6.80902,-62.5878 L 6.95107,-62.309 L 7,-62 L 6.95107,-61.691 L 6.80902,-61.4122 L 6.5878,-61.191
 L 6.30902,-61.0489 L 6,-61 z
M 5.69099,-57.0489 L 5.41222,-57.191 L 5.19099,-57.4122 L 5.04895,-57.691 L 5,-58 L 5.04895,-58.309
 L 5.19099,-58.5878 L 5.41222,-58.809 L 5.69099,-58.951 L 6,-59 L 6.30902,-58.951 L 6.5878,-58.809
 L 6.80902,-58.5878 L 6.95107,-58.309 L 7,-58 L 6.95107,-57.691 L 6.80902,-57.4122 L 6.5878,-57.191
 L 6.30902,-57.0489 L 6,-57 z
M 65.691,-57.0489 L 65.4122,-57.191 L 65.191,-57.4122 L 65.0489,-57.691 L 65,-58 L 65.0489,-58.309
 L 65.191,-58.5878 L 65.4122,-58.809 L 65.691,-58.951 L 66,-59 L 66.309,-58.951 L 66.5878,-58.809
 L 66.809,-58.5878 L 66.951,-58.309 L 67,-58 L 66.951,-57.691 L 66.809,-57.4122 L 66.5878,-57.191
 L 66.309,-57.0489 L 66,-57 z
M 144.927,-37.1468 L 145.763,-37.573 L 146.427,-38.2366 L 146.853,-39.073 L 147,-40 L 147,-60
 L 146.853,-60.927 L 146.427,-61.7634 L 145.763,-62.427 L 144.927,-62.8532 L 144,-63 L 143.073,-62.8532
 L 142.237,-62.427 L 141.573,-61.7634 L 141.147,-60.927 L 141,-60 L 141,-40 L 141.147,-39.073
 L 141.573,-38.2366 L 142.237,-37.573 L 143.073,-37.1468 L 144,-37 z
M 143.691,-43.049 L 143.412,-43.191 L 143.191,-43.4122 L 143.049,-43.691 L 143,-44 L 143,-60
 L 143.049,-60.309 L 143.191,-60.5878 L 143.412,-60.809 L 143.691,-60.951 L 144,-61 L 144.309,-60.951
 L 144.588,-60.809 L 144.809,-60.5878 L 144.951,-60.309 L 145,-60 L 145,-44 L 144.951,-43.691
 L 144.809,-43.4122 L 144.588,-43.191 L 144.309,-43.049 L 144,-43 z
M 143.691,-39.049 L 143.412,-39.191 L 143.191,-39.4122 L 143.049,-39.691 L 143,-40 L 143.049,-40.309
 L 143.191,-40.5878 L 143.412,-40.809 L 143.691,-40.9511 L 144,-41 L 144.309,-40.9511 L 144.588,-40.809
 L 144.809,-40.5878 L 144.951,-40.309 L 145,-40 L 144.951,-39.691 L 144.809,-39.4122 L 144.588,-39.191
 L 144.309,-39.049 L 144,-39 z
M 151.927,-37.1468 L 152.763,-37.573 L 153.427,-38.2366 L 153.853,-39.073 L 154,-40 L 154,-60
 L 153.853,-60.927 L 153.427,-61.7634 L 152.763,-62.427 L 151.927,-62.8532 L 151,-63 L 150.073,-62.8532
 L 149.237,-62.427 L 148.573,-61.7634 L 148.147,-60.927 L 148,-60 L 148,-40 L 148.147,-39.073
 L 148.573,-38.2366 L 149.237,-37.573 L 150.073,-37.1468 L 151,-37 z
M 150.691,-43.049 L 150.412,-43.191 L 150.191,-43.4122 L 150.049,-43.691 L 150,-44 L 150,-60
 L 150.049,-60.309 L 150.191,-60.5878 L 150.412,-60.809 L 150.691,-60.951 L 151,-61 L 151.309,-60.951
 L 151.588,-60.809 L 151.809,-60.5878 L 151.951,-60.309 L 152,-60 L 152,-44 L 151.951,-43.691
 L 151.809,-43.4122 L 151.588,-43.191 L 151.309,-43.049 L 151,-43 z
M 150.691,-39.049 L 150.412,-39.191 L 150.191,-39.4122 L 150.049,-39.691 L 150,-40 L 150.049,-40.309
 L 150.191,-40.5878 L 150.412,-40.809 L 150.691,-40.9511 L 151,-41 L 151.309,-40.9511 L 151.588,-40.809
 L 151.809,-40.5878 L 151.951,-40.309 L 152,-40 L 151.951,-39.691 L 151.809,-39.4122 L 151.588,-39.191
 L 151.309,-39.049 L 151,-39 z
M 97.9375,-54 L 101,-54 L 101,-51 L 111,-51 L 111,-54 L 114.062,-54
 L 114.062,-51 L 128,-51 L 128.927,-51.1468 L 129.763,-51.573 L 130.427,-52.2366 L 130.853,-53.073
 L 131,-54 L 130.853,-54.927 L 130.427,-55.7634 L 129.763,-56.427 L 128.927,-56.8532 L 128,-57
 L 107,-57 L 107,-54 L 105,-54 L 105,-57 L 84,-57 L 83.073,-56.8532
 L 82.2366,-56.427 L 81.573,-55.7634 L 81.1468,-54.927 L 81,-54 L 81.1468,-53.073 L 81.573,-52.2366
 L 82.2366,-51.573 L 83.073,-51.1468 L 84,-51 L 97.9375,-51 z
M 127.691,-53.049 L 127.412,-53.191 L 127.191,-53.4122 L 127.049,-53.691 L 127,-54 L 127.049,-54.309
 L 127.191,-54.5878 L 127.412,-54.809 L 127.691,-54.951 L 128,-55 L 128.309,-54.951 L 128.588,-54.809
 L 128.809,-54.5878 L 128.951,-54.309 L 129,-54 L 128.951,-53.691 L 128.809,-53.4122 L 128.588,-53.191
 L 128.309,-53.049 L 128,-53 z
M 83.691,-53.049 L 83.4122,-53.191 L 83.191,-53.4122 L 83.049,-53.691 L 83,-54 L 83.049,-54.309
 L 83.191,-54.5878 L 83.4122,-54.809 L 83.691,-54.951 L 84,-55 L 84.309,-54.951 L 84.5878,-54.809
 L 84.809,-54.5878 L 84.9511,-54.309 L 85,-54 L 84.9511,-53.691 L 84.809,-53.4122 L 84.5878,-53.191
 L 84.309,-53.049 L 84,-53 z
M 58.927,-51.1468 L 59.7634,-51.573 L 60.427,-52.2366 L 60.8532,-53.073 L 61,-54 L 60.8532,-54.927
 L 60.427,-55.7634 L 59.7634,-56.427 L 58.927,-56.8532 L 58,-57 L 44.0625,-57 L 44.0625,-54
 L 41,-54 L 41,-57 L 37,-57 L 37,-54 L 35,-54 L 35,-57
 L 31,-57 L 31,-54 L 27.9375,-54 L 27.9375,-57 L 14,-57 L 13.073,-56.8532
 L 12.2366,-56.427 L 11.573,-55.7634 L 11.1468,-54.927 L 11,-54 L 11.1468,-53.073 L 11.573,-52.2366
 L 12.2366,-51.573 L 13.073,-51.1468 L 14,-51 L 58,-51 z
M 13.691,-53.049 L 13.4122,-53.191 L 13.191,-53.4122 L 13.049,-53.691 L 13,-54 L 13.049,-54.309
 L 13.191,-54.5878 L 13.4122,-54.809 L 13.691,-54.951 L 14,-55 L 14.309,-54.951 L 14.5878,-54.809
 L 14.809,-54.5878 L 14.9511,-54.309 L 15,-54 L 14.9511,-53.691 L 14.809,-53.4122 L 14.5878,-53.191
 L 14.309,-53.049 L 14,-53 z
M 57.691,-53.049 L 57.4122,-53.191 L 57.191,-53.4122 L 57.0489,-53.691 L 57,-54 L 57.0489,-54.309
 L 57.191,-54.5878 L 57.4122,-54.809 L 57.691,-54.951 L 58,-55 L 58.309,-54.951 L 58.5878,-54.809
 L 58.809,-54.5878 L 58.951,-54.309 L 59,-54 L 58.951,-53.691 L 58.809,-53.4122 L 58.5878,-53.191
 L 58.309,-53.049 L 58,-53 z
M 176.5,-27 L 178.062,-27 L 178.062,-41 L 176.5,-41 L 176.5,-44 L 173.5,-44
 L 173.5,-41 L 171.938,-41 L 171.938,-27 L 173.5,-27 L 173.5,-24 L 176.5,-24
 z
M 184.5,-27 L 186.062,-27 L 186.062,-41 L 184.5,-41 L 184.5,-44 L 181.5,-44
 L 181.5,-41 L 179.938,-41 L 179.938,-27 L 181.5,-27 L 181.5,-24 L 184.5,-24
 z
M 103,-29 L 107,-29 L 107,-33 L 110.062,-33 L 110.062,-35 L 107,-35
 L 107,-39 L 103,-39 L 103,-42.0625 L 101,-42.0625 L 101,-39 L 97,-39
 L 97,-35 L 93.9375,-35 L 93.9375,-33 L 97,-33 L 97,-29 L 101,-29
 L 101,-25.9375 L 103,-25.9375 z
M 100.469,-32.4688 L 100.469,-35.5312 L 103.531,-35.5312 L 103.531,-32.4688 z
M 121,-29 L 125,-29 L 125,-33 L 128.062,-33 L 128.062,-35 L 125,-35
 L 125,-39 L 121,-39 L 121,-42.0625 L 119,-42.0625 L 119,-39 L 115,-39
 L 115,-35 L 111.938,-35 L 111.938,-33 L 115,-33 L 115,-29 L 119,-29
 L 119,-25.9375 L 121,-25.9375 z
M 118.469,-32.4688 L 118.469,-35.5312 L 121.531,-35.5312 L 121.531,-32.4688 z
M 23.1287,-0.246246 L 26.1803,-0.978882 L 29.0798,-2.17987 L 31.7557,-3.81967 L 34.1421,-5.85786 L 36.1803,-8.24431
 L 37.8201,-10.9202 L 39.0211,-13.8197 L 39.7538,-16.8713 L 40,-20 L 39.7538,-23.1287 L 39.0211,-26.1803
 L 37.8201,-29.0798 L 36.1803,-31.7557 L 34.1421,-34.1421 L 31.7557,-36.1803 L 29.0798,-37.8201 L 26.1803,-39.0211
 L 23.1287,-39.7538 L 20,-40 L 16.8713,-39.7538 L 13.8197,-39.0211 L 10.9202,-37.8201 L 8.24431,-36.1803
 L 5.85786,-34.1421 L 3.81967,-31.7557 L 2.17987,-29.0798 L 0.978882,-26.1803 L 0.246246,-23.1287 L 0,-20
 L 0.246246,-16.8713 L 0.978882,-13.8197 L 2.17987,-10.9202 L 3.81967,-8.24431 L 5.85786,-5.85786 L 8.24431,-3.81967
 L 10.9202,-2.17987 L 13.8197,-0.978882 L 16.8713,-0.246246 L 20,-0 z
M 19,-35.4688 L 19,-38.5312 L 21,-38.5312 L 21,-35.4688 z
M 30.2309,-31.6452 L 32.3965,-33.8107 L 33.8107,-32.3965 L 31.6452,-30.2309 z
M 6.18933,-32.3965 L 7.60355,-33.8107 L 9.76906,-31.6452 L 8.35484,-30.2309 z
M 11.9375,-30 L 11.9375,-32 L 15,-32 L 15,-30 z
M 25,-30 L 25,-32 L 28.0625,-32 L 28.0625,-30 z
M 8,-25 L 8,-28.0625 L 10,-28.0625 L 10,-25 z
M 30,-25 L 30,-28.0625 L 32,-28.0625 L 32,-25 z
M 12.9289,-20 L 20,-27.0711 L 27.0711,-20 L 20,-12.9289 z
M 1.46875,-19 L 1.46875,-21 L 4.53125,-21 L 4.53125,-19 z
M 35.4688,-19 L 35.4688,-21 L 38.5312,-21 L 38.5312,-19 z
M 30,-11.9375 L 30,-15 L 32,-15 L 32,-11.9375 z
M 8,-11.9375 L 8,-15 L 10,-15 L 10,-11.9375 z
M 11.9375,-8 L 11.9375,-10 L 15,-10 L 15,-8 z
M 25,-8 L 25,-10 L 28.0625,-10 L 28.0625,-8 z
M 6.18933,-7.60355 L 8.35484,-9.76906 L 9.76906,-8.35484 L 7.60355,-6.18933 z
M 30.2309,-8.35484 L 31.6452,-9.76906 L 33.8107,-7.60355 L 32.3965,-6.18933 z
M 19,-1.46875 L 19,-4.53125 L 21,-4.53125 L 21,-1.46875 z
M 65.1287,-0.246246 L 68.1803,-0.978882 L 71.0798,-2.17987 L 73.7557,-3.81967 L 76.1421,-5.85786 L 78.1803,-8.24431
 L 79.8201,-10.9202 L 81.0211,-13.8197 L 81.7538,-16.8713 L 82,-20 L 81.7538,-23.1287 L 81.0211,-26.1803
 L 79.8201,-29.0798 L 78.1803,-31.7557 L 76.1421,-34.1421 L 73.7557,-36.1803 L 71.0798,-37.8201 L 68.1803,-39.0211
 L 65.1287,-39.7538 L 62,-40 L 58.8713,-39.7538 L 55.8197,-39.0211 L 52.9202,-37.8201 L 50.2443,-36.1803
 L 47.8579,-34.1421 L 45.8197,-31.7557 L 44.1799,-29.0798 L 42.9789,-26.1803 L 42.2462,-23.1287 L 42,-20
 L 42.2462,-16.8713 L 42.9789,-13.8197 L 44.1799,-10.9202 L 45.8197,-8.24431 L 47.8579,-5.85786 L 50.2443,-3.81967
 L 52.9202,-2.17987 L 55.8197,-0.978882 L 58.8713,-0.246246 L 62,-0 z
M 61,-35.4688 L 61,-38.5312 L 63,-38.5312 L 63,-35.4688 z
M 72.2309,-31.6452 L 74.3965,-33.8107 L 75.8107,-32.3965 L 73.6452,-30.2309 z
M 48.1893,-32.3965 L 49.6035,-33.8107 L 51.7691,-31.6452 L 50.3548,-30.2309 z
M 67,-30 L 67,-32 L 70.0625,-32 L 70.0625,-30 z
M 53.9375,-30 L 53.9375,-32 L 57,-32 L 57,-30 z
M 72,-25 L 72,-28.0625 L 74,-28.0625 L 74,-25 z
M 50,-25 L 50,-28.0625 L 52,-28.0625 L 52,-25 z
M 57,-15 L 57,-25 L 67,-25 L 67,-15 z
M 43.4688,-19 L 43.4688,-21 L 46.5312,-21 L 46.5312,-19 z
M 77.4688,-19 L 77.4688,-21 L 80.5312,-21 L 80.5312,-19 z
M 72,-11.9375 L 72,-15 L 74,-15 L 74,-11.9375 z
M 50,-11.9375 L 50,-15 L 52,-15 L 52,-11.9375 z
M 67,-8 L 67,-10 L 70.0625,-10 L 70.0625,-8 z
M 53.9375,-8 L 53.9375,-10 L 57,-10 L 57,-8 z
M 48.1893,-7.60355 L 50.3548,-9.76906 L 51.7691,-8.35484 L 49.6035,-6.18933 z
M 72.2309,-8.35484 L 73.6452,-9.76906 L 75.8107,-7.60355 L 74.3965,-6.18933 z
M 61,-1.46875 L 61,-4.53125 L 63,-4.53125 L 63,-1.46875 z
M 110,-5 L 111.938,-5 L 111.938,-8 L 115,-8 L 115,-5 L 125,-5
 L 125,-8 L 128.062,-8 L 128.062,-5 L 130,-5 L 130,-3.40625 L 132,-3.40625
 L 132,-5 L 145,-5 L 146.561,-5.15373 L 148.061,-5.60898 L 149.445,-6.34825 L 150.657,-7.34315
 L 151.652,-8.55544 L 152.391,-9.93852 L 152.846,-11.4393 L 153,-13 L 153,-24 L 152.853,-24.927
 L 152.427,-25.7634 L 151.763,-26.427 L 150.927,-26.8532 L 150,-27 L 149.073,-26.8532 L 148.237,-26.427
 L 147.573,-25.7634 L 147.147,-24.927 L 147,-24 L 147,-13 L 146.962,-12.6098 L 146.848,-12.2346
 L 146.663,-11.8889 L 146.414,-11.5858 L 146.111,-11.3371 L 145.765,-11.1522 L 145.39,-11.0384 L 145,-11
 L 144.61,-11.0384 L 143.672,-11.0753 L 143.405,-11 L 95,-11 L 94.6098,-11.0384 L 94.2346,-11.1522
 L 93.8889,-11.3371 L 93.5858,-11.5858 L 93.3371,-11.8889 L 93.1523,-12.2346 L 93.0384,-12.6098 L 93,-13
 L 93.0384,-13.3902 L 93.0753,-14.328 L 93,-14.595 L 93,-24 L 92.8532,-24.927 L 92.4271,-25.7634
 L 91.7634,-26.427 L 90.9271,-26.8532 L 90,-27 L 89.073,-26.8532 L 88.2366,-26.427 L 87.573,-25.7634
 L 87.1468,-24.927 L 87,-24 L 87,-13 L 87.1537,-11.4393 L 87.609,-9.93852 L 88.3483,-8.55544
 L 89.3432,-7.34315 L 90.5555,-6.34825 L 91.9385,-5.60898 L 93.4393,-5.15373 L 95,-5 L 108,-5
 L 108,-3.40625 L 110,-3.40625 z
M 149.691,-23.0489 L 149.412,-23.191 L 149.191,-23.4122 L 149.049,-23.691 L 149,-24 L 149.049,-24.309
 L 149.191,-24.5878 L 149.412,-24.809 L 149.691,-24.951 L 150,-25 L 150.309,-24.951 L 150.588,-24.809
 L 150.809,-24.5878 L 150.951,-24.309 L 151,-24 L 150.951,-23.691 L 150.809,-23.4122 L 150.588,-23.191
 L 150.309,-23.0489 L 150,-23 z
M 89.691,-23.0489 L 89.4122,-23.191 L 89.191,-23.4122 L 89.049,-23.691 L 89,-24 L 89.049,-24.309
 L 89.191,-24.5878 L 89.4122,-24.809 L 89.691,-24.951 L 90,-25 L 90.309,-24.951 L 90.5878,-24.809
 L 90.809,-24.5878 L 90.9511,-24.309 L 91,-24 L 90.9511,-23.691 L 90.809,-23.4122 L 90.5878,-23.191
 L 90.309,-23.0489 L 90,-23 z
M 149.691,-19.0489 L 149.412,-19.191 L 149.191,-19.4122 L 149.049,-19.691 L 149,-20 L 149.049,-20.309
 L 149.191,-20.5878 L 149.412,-20.809 L 149.691,-20.951 L 150,-21 L 150.309,-20.951 L 150.588,-20.809
 L 150.809,-20.5878 L 150.951,-20.309 L 151,-20 L 150.951,-19.691 L 150.809,-19.4122 L 150.588,-19.191
 L 150.309,-19.0489 L 150,-19 z
M 89.691,-19.0489 L 89.4122,-19.191 L 89.191,-19.4122 L 89.049,-19.691 L 89,-20 L 89.049,-20.309
 L 89.191,-20.5878 L 89.4122,-20.809 L 89.691,-20.951 L 90,-21 L 90.309,-20.951 L 90.5878,-20.809
 L 90.809,-20.5878 L 90.9511,-20.309 L 91,-20 L 90.9511,-19.691 L 90.809,-19.4122 L 90.5878,-19.191
 L 90.309,-19.0489 L 90,-19 z
M 144.427,-19.1468 L 145.263,-19.573 L 145.927,-20.2366 L 146.353,-21.073 L 146.5,-22 L 146.353,-22.927
 L 145.927,-23.7634 L 145.263,-24.427 L 144.427,-24.8532 L 143.5,-25 L 123.5,-25 L 122.573,-24.8532
 L 121.737,-24.427 L 121.073,-23.7634 L 120.647,-22.927 L 120.5,-22 L 120.647,-21.073 L 121.073,-20.2366
 L 121.737,-19.573 L 122.573,-19.1468 L 123.5,-19 L 143.5,-19 z
M 127.5,-21 L 127.191,-21.049 L 126.912,-21.191 L 126.691,-21.4122 L 126.549,-21.691 L 126.5,-22
 L 126.549,-22.309 L 126.691,-22.5878 L 126.912,-22.809 L 127.191,-22.951 L 127.5,-23 L 143.5,-23
 L 143.809,-22.951 L 144.088,-22.809 L 144.309,-22.5878 L 144.451,-22.309 L 144.5,-22 L 144.451,-21.691
 L 144.309,-21.4122 L 144.088,-21.191 L 143.809,-21.049 L 143.5,-21 z
M 123.191,-21.049 L 122.912,-21.191 L 122.691,-21.4122 L 122.549,-21.691 L 122.5,-22 L 122.549,-22.309
 L 122.691,-22.5878 L 122.912,-22.809 L 123.191,-22.951 L 123.5,-23 L 123.809,-22.951 L 124.088,-22.809
 L 124.309,-22.5878 L 124.451,-22.309 L 124.5,-22 L 124.451,-21.691 L 124.309,-21.4122 L 124.088,-21.191
 L 123.809,-21.049 L 123.5,-21 z
M 117.927,-19.1468 L 118.763,-19.573 L 119.427,-20.2366 L 119.853,-21.073 L 120,-22 L 119.853,-22.927
 L 119.427,-23.7634 L 118.763,-24.427 L 117.927,-24.8532 L 117,-25 L 97,-25 L 96.073,-24.8532
 L 95.2366,-24.427 L 94.573,-23.7634 L 94.1468,-22.927 L 94,-22 L 94.1468,-21.073 L 94.573,-20.2366
 L 95.2366,-19.573 L 96.073,-19.1468 L 97,-19 L 117,-19 z
M 101,-21 L 100.691,-21.049 L 100.412,-21.191 L 100.191,-21.4122 L 100.049,-21.691 L 100,-22
 L 100.049,-22.309 L 100.191,-22.5878 L 100.412,-22.809 L 100.691,-22.951 L 101,-23 L 117,-23
 L 117.309,-22.951 L 117.588,-22.809 L 117.809,-22.5878 L 117.951,-22.309 L 118,-22 L 117.951,-21.691
 L 117.809,-21.4122 L 117.588,-21.191 L 117.309,-21.049 L 117,-21 z
M 96.691,-21.049 L 96.4122,-21.191 L 96.191,-21.4122 L 96.049,-21.691 L 96,-22 L 96.049,-22.309
 L 96.191,-22.5878 L 96.4122,-22.809 L 96.691,-22.951 L 97,-23 L 97.309,-22.951 L 97.5878,-22.809
 L 97.809,-22.5878 L 97.9511,-22.309 L 98,-22 L 97.9511,-21.691 L 97.809,-21.4122 L 97.5878,-21.191
 L 97.309,-21.049 L 97,-21 z
M 144.427,-12.1468 L 145.263,-12.573 L 145.927,-13.2366 L 146.353,-14.073 L 146.5,-15 L 146.353,-15.927
 L 145.927,-16.7634 L 145.263,-17.427 L 144.427,-17.8532 L 143.5,-18 L 123.5,-18 L 122.573,-17.8532
 L 121.737,-17.427 L 121.073,-16.7634 L 120.647,-15.927 L 120.5,-15 L 120.647,-14.073 L 121.073,-13.2366
 L 121.737,-12.573 L 122.573,-12.1468 L 123.5,-12 L 143.5,-12 z
M 123.191,-14.049 L 122.912,-14.191 L 122.691,-14.4122 L 122.549,-14.691 L 122.5,-15 L 122.549,-15.309
 L 122.691,-15.5878 L 122.912,-15.809 L 123.191,-15.951 L 123.5,-16 L 123.809,-15.951 L 124.088,-15.809
 L 124.309,-15.5878 L 124.451,-15.309 L 124.5,-15 L 124.451,-14.691 L 124.309,-14.4122 L 124.088,-14.191
 L 123.809,-14.049 L 123.5,-14 z
M 127.5,-14 L 127.191,-14.049 L 126.912,-14.191 L 126.691,-14.4122 L 126.549,-14.691 L 126.5,-15
 L 126.549,-15.309 L 126.691,-15.5878 L 126.912,-15.809 L 127.191,-15.951 L 127.5,-16 L 143.5,-16
 L 143.809,-15.951 L 144.088,-15.809 L 144.309,-15.5878 L 144.451,-15.309 L 144.5,-15 L 144.451,-14.691
 L 144.309,-14.4122 L 144.088,-14.191 L 143.809,-14.049 L 143.5,-14 z
M 117.927,-12.1468 L 118.763,-12.573 L 119.427,-13.2366 L 119.853,-14.073 L 120,-15 L 119.853,-15.927
 L 119.427,-16.7634 L 118.763,-17.427 L 117.927,-17.8532 L 117,-18 L 97,-18 L 96.073,-17.8532
 L 95.2366,-17.427 L 94.573,-16.7634 L 94.1468,-15.927 L 94,-15 L 94.1468,-14.073 L 94.573,-13.2366
 L 95.2366,-12.573 L 96.073,-12.1468 L 97,-12 L 117,-12 z
M 101,-14 L 100.691,-14.049 L 100.412,-14.191 L 100.191,-14.4122 L 100.049,-14.691 L 100,-15
 L 100.049,-15.309 L 100.191,-15.5878 L 100.412,-15.809 L 100.691,-15.951 L 101,-16 L 117,-16
 L 117.309,-15.951 L 117.588,-15.809 L 117.809,-15.5878 L 117.951,-15.309 L 118,-15 L 117.951,-14.691
 L 117.809,-14.4122 L 117.588,-14.191 L 117.309,-14.049 L 117,-14 z
M 96.691,-14.049 L 96.4122,-14.191 L 96.191,-14.4122 L 96.049,-14.691 L 96,-15 L 96.049,-15.309
 L 96.191,-15.5878 L 96.4122,-15.809 L 96.691,-15.951 L 97,-16 L 97.309,-15.951 L 97.5878,-15.809
 L 97.809,-15.5878 L 97.9511,-15.309 L 98,-15 L 97.9511,-14.691 L 97.809,-14.4122 L 97.5878,-14.191
 L 97.309,-14.049 L 97,-14 z
" stroke="black" fill="none" stroke-width="0.5"/></svg>
