  0
SECTION
  2
HEADER
  9
$ACADVER
  1
AC1009
  9
$INSBASE
 10
0.0
 20
0.0
 30
0.0
  9
$EXTMIN
 10
-4330.1070651012587405
 20
-299.9999964370350085
 30
0.0
  9
$EXTMAX
 10
8902.2903883123508422
 20
6918.7530040734127397
 30
0.0
  9
$LIMMIN
 10
0.0
 20
0.0
  9
$LIMMAX
 10
12.0
 20
9.0
  9
$ORTHOMODE
 70
     0
  9
$REGENMODE
 70
     1
  9
$FILLMODE
 70
     1
  9
$QTEXTMODE
 70
     0
  9
$MIRRTEXT
 70
     0
  9
$DRAGMODE
 70
     2
  9
$LTSCALE
 40
1.0
  9
$OSMODE
 70
  3583
  9
$ATTMODE
 70
     1
  9
$TEXTSIZE
 40
0.2
  9
$TRACEWID
 40
0.05
  9
$TEXTSTYLE
  7
STANDARD
  9
$CLAYER
  8
00-NOPRINT_TEXT
  9
$CELTYPE
  6
BYLAYER
  9
$CECOLOR
 62
   256
  9
$DIMSCALE
 40
1.0
  9
$DIMASZ
 40
0.18
  9
$DIMEXO
 40
0.0625
  9
$DIMDLI
 40
0.38
  9
$DIMRND
 40
0.0
  9
$DIMDLE
 40
0.0
  9
$DIMEXE
 40
0.18
  9
$DIMTP
 40
0.0
  9
$DIMTM
 40
0.0
  9
$DIMTXT
 40
0.18
  9
$DIMCEN
 40
0.09
  9
$DIMTSZ
 40
0.0
  9
$DIMTOL
 70
     0
  9
$DIMLIM
 70
     0
  9
$DIMTIH
 70
     1
  9
$DIMTOH
 70
     1
  9
$DIMSE1
 70
     0
  9
$DIMSE2
 70
     0
  9
$DIMTAD
 70
     0
  9
$DIMZIN
 70
     0
  9
$DIMBLK
  1

  9
$DIMASO
 70
     1
  9
$DIMSHO
 70
     1
  9
$DIMPOST
  1

  9
$DIMAPOST
  1

  9
$DIMALT
 70
     0
  9
$DIMALTD
 70
     2
  9
$DIMALTF
 40
25.3999999999999986
  9
$DIMLFAC
 40
1.0
  9
$DIMTOFL
 70
     0
  9
$DIMTVP
 40
0.0
  9
$DIMTIX
 70
     0
  9
$DIMSOXD
 70
     0
  9
$DIMSAH
 70
     0
  9
$DIMBLK1
  1

  9
$DIMBLK2
  1

  9
$DIMSTYLE
  2
STANDARD
  9
$DIMCLRD
 70
     0
  9
$DIMCLRE
 70
     0
  9
$DIMCLRT
 70
     0
  9
$DIMTFAC
 40
1.0
  9
$DIMGAP
 40
0.09
  9
$LUNITS
 70
     2
  9
$LUPREC
 70
     4
  9
$SKETCHINC
 40
0.1
  9
$FILLETRAD
 40
0.0
  9
$AUNITS
 70
     0
  9
$AUPREC
 70
     0
  9
$MENU
  1
.
  9
$ELEVATION
 40
0.0
  9
$PELEVATION
 40
0.0
  9
$THICKNESS
 40
0.0
  9
$LIMCHECK
 70
     0
  9
$BLIPMODE
 70
     0
  9
$CHAMFERA
 40
0.0
  9
$CHAMFERB
 40
0.0
  9
$SKPOLY
 70
     0
  9
$TDCREATE
 40
2457150.7344012269750237
  9
$TDUPDATE
 40
2457371.4877533339895308
  9
$TDINDWG
 40
0.0242001042
  9
$TDUSRTIMER
 40
0.024199294
  9
$USRTIMER
 70
     1
  9
$ANGBASE
 50
0.0
  9
$ANGDIR
 70
     0
  9
$PDMODE
 70
     0
  9
$PDSIZE
 40
0.0
  9
$PLINEWID
 40
0.0
  9
$COORDS
 70
     1
  9
$SPLFRAME
 70
     0
  9
$SPLINETYPE
 70
     6
  9
$SPLINESEGS
 70
     8
  9
$ATTDIA
 70
     1
  9
$ATTREQ
 70
     1
  9
$HANDLING
 70
     1
  9
$HANDSEED
  5
5797
  9
$SURFTAB1
 70
     6
  9
$SURFTAB2
 70
     6
  9
$SURFTYPE
 70
     6
  9
$SURFU
 70
     6
  9
$SURFV
 70
     6
  9
$UCSNAME
  2

  9
$UCSORG
 10
0.0
 20
0.0
 30
0.0
  9
$UCSXDIR
 10
1.0
 20
0.0
 30
0.0
  9
$UCSYDIR
 10
0.0
 20
1.0
 30
0.0
  9
$PUCSNAME
  2

  9
$PUCSORG
 10
0.0
 20
0.0
 30
0.0
  9
$PUCSXDIR
 10
1.0
 20
0.0
 30
0.0
  9
$PUCSYDIR
 10
0.0
 20
1.0
 30
0.0
  9
$USERI1
 70
     0
  9
$USERI2
 70
     0
  9
$USERI3
 70
     0
  9
$USERI4
 70
     0
  9
$USERI5
 70
     0
  9
$USERR1
 40
0.0
  9
$USERR2
 40
0.0
  9
$USERR3
 40
0.0
  9
$USERR4
 40
0.0
  9
$USERR5
 40
0.0
  9
$WORLDVIEW
 70
     1
  9
$SHADEDGE
 70
     3
  9
$SHADEDIF
 70
    70
  9
$TILEMODE
 70
     1
  9
$MAXACTVP
 70
    64
  9
$PLIMCHECK
 70
     0
  9
$PEXTMIN
 10
0.0
 20
0.0
 30
0.0
  9
$PEXTMAX
 10
0.0
 20
0.0
 30
0.0
  9
$PLIMMIN
 10
0.0
 20
0.0
  9
$PLIMMAX
 10
12.0
 20
9.0
  9
$UNITMODE
 70
     0
  9
$VISRETAIN
 70
     1
  9
$PLINEGEN
 70
     0
  9
$PSLTSCALE
 70
     1
  0
ENDSEC
  0
SECTION
  2
TABLES
  0
TABLE
  2
VPORT
 70
     1
  0
VPORT
  2
*ACTIVE
 70
     0
 10
0.0
 20
0.0
 11
1.0
 21
1.0
 12
4794.2901135220381548
 22
2607.6183032231429024
 13
0.0
 23
0.0
 14
0.5
 24
0.5
 15
0.5
 25
0.5
 16
0.0
 26
0.0
 36
1.0
 17
0.0
 27
0.0
 37
0.0
 40
8177.6079432481210461
 41
2.0149082568807342
 42
50.0
 43
0.0
 44
0.0
 50
0.0
 51
0.0
 71
     0
 72
  1000
 73
     1
 74
     3
 75
     0
 76
     1
 77
     0
 78
     0
  0
ENDTAB
  0
TABLE
  2
LTYPE
 70
     4
  0
LTYPE
  2
CONTINUOUS
 70
     0
  3
Solid line
 72
    65
 73
     0
 40
0.0
  0
LTYPE
  2
DGN_STYLE_5
 70
     0
  3
Dgn Style 5
 72
    65
 73
     2
 40
22.1794395642604414
 49
9.5054740989687616
 49
-12.6739654652916798
  0
ENDTAB
  0
TABLE
  2
LAYER
 70
   685
  0
LAYER
  2
0
 70
     0
 62
     7
  6
CONTINUOUS
  0
LAYER
  2
00-NOPRINT_TEXT
 70
     0
 62
     7
  6
CONTINUOUS
  0
LAYER
  2
00_NOPRINT_TOLERANCE
 70
     0
 62
     7
  6
DGN_STYLE_5
  0
LAYER
  2
BOARD_$TH-NOMINAL
 70
     0
 62
     3
  6
CONTINUOUS
  0
LAYER
  2
TOP-CUT-OUTSIDE_18MM
 70
     0
 62
   220
  6
CONTINUOUS
  0
LAYER
  2
TOP-CUT-INSIDE_18MM
 70
     0
 62
     1
  6
CONTINUOUS
  0
LAYER
  2
TOP-POCKET-INSIDE_06MM
 70
     0
 62
     6
  6
CONTINUOUS
  0
LAYER
  2
TOP-POCKET-INSIDE_09MM
 70
     0
 62
    60
  6
CONTINUOUS
  0
LAYER
  2
TOP_POCKET_12MM
 70
     0
 62
    70
  6
CONTINUOUS
  0
LAYER
  2
REV_POCKET_9MM
 70
     0
 62
   204
  6
CONTINUOUS
  0
LAYER
  2
REV_POCKET_6MM
 70
     0
 62
    36
  6
CONTINUOUS
  0
LAYER
  2
OFF_CENTER__10MM_
 70
     0
 62
     7
  6
CONTINUOUS
  0
LAYER
  2
DEFAULT
 70
     0
 62
     7
  6
CONTINUOUS
  0
ENDTAB
  0
TABLE
  2
STYLE
 70
     6
  0
STYLE
  2
STANDARD
 70
     0
 40
0.0
 41
1.0
 50
0.0
 71
     0
 42
0.2
  3
txt
  4

  0
STYLE
  2
OD-SIMPLEX-20
 70
     0
 40
20.0
 41
1.0
 50
0.0
 71
     0
 42
20.0
  3
simplex.shx
  4

  0
STYLE
  2
OD-SIMPLEX-13
 70
     0
 40
13.0
 41
1.0
 50
0.0
 71
     0
 42
15.0
  3
simplex.shx
  4

  0
STYLE
  2
OD-SIMPLEX-25
 70
     0
 40
25.0
 41
1.0
 50
0.0
 71
     0
 42
25.0
  3
simplex.shx
  4

  0
STYLE
  2
OD-SIMPLEX-30
 70
     0
 40
30.0
 41
1.0
 50
0.0
 71
     0
 42
30.0
  3
simplex.shx
  4

  0
STYLE
  2
OD-ISOCP-17
 70
     0
 40
17.0
 41
1.0
 50
0.0
 71
     0
 42
17.0
  3
isocp.shx
  4

  0
ENDTAB
  0
TABLE
  2
VIEW
 70
     0
  0
ENDTAB
  0
TABLE
  2
UCS
 70
     0
  0
ENDTAB
  0
TABLE
  2
APPID
 70
    10
  0
APPID
  2
ACAD
 70
     0
  0
APPID
  2
ACADANNOTATIVE
 70
     0
  0
APPID
  2
ACADANNOPO
 70
     0
  0
APPID
  2
ACAD_DSTYLE_DIMJAG
 70
     0
  0
APPID
  2
ACAD_DSTYLE_DIMTALN
 70
     0
  0
APPID
  2
ACAD_MLEADERVER
 70
     0
  0
APPID
  2
ACAD_NAV_VCDISPLAY
 70
     0
  0
APPID
  2
ACAD_PSEXT
 70
     0
  0
APPID
  2
ACAECLAYERSTANDARD
 70
     0
  0
APPID
  2
ACAD_EXEMPT_FROM_CAD_STANDARDS
 70
     0
  0
ENDTAB
  0
TABLE
  2
DIMSTYLE
 70
     2
  0
DIMSTYLE
  2
STANDARD
 70
     0
  3

  4

  5

  6

  7

 40
1.0
 41
0.18
 42
0.0625
 43
0.38
 44
0.18
 45
0.0
 46
0.0
 47
0.0
 48
0.0
140
0.18
141
0.09
142
0.0
143
25.3999999999999986
144
1.0
145
0.0
146
1.0
147
0.09
 71
     0
 72
     0
 73
     1
 74
     1
 75
     0
 76
     0
 77
     0
 78
     0
170
     0
171
     2
172
     0
173
     0
174
     0
175
     0
176
     0
177
     0
178
     0
  0
ENDTAB
  0
ENDSEC
  0
SECTION
  2
BLOCKS
  0
BLOCK
  8
0
  2
$MODEL_SPACE
 70
     0
 10
0.0
 20
0.0
 30
0.0
  3
$MODEL_SPACE
  1

  0
ENDBLK
  5
69C
  8
0
  0
BLOCK
 67
     1
  8
0
  2
$PAPER_SPACE
 70
     0
 10
0.0
 20
0.0
 30
0.0
  3
$PAPER_SPACE
  1

  0
ENDBLK
  5
698
 67
     1
  8
0
  0
ENDSEC
  0
SECTION
  2
ENTITIES
  0
POLYLINE
  5
429
  8
00-NOPRINT_TEXT
 66
     1
 10
0.0
 20
0.0
 30
0.0
 70
   128
  0
VERTEX
  5
5005
  8
00-NOPRINT_TEXT
 10
-0.0000080382149577
 20
-299.9999964370350085
 30
0.0
  0
VERTEX
  5
5006
  8
00-NOPRINT_TEXT
 10
-0.0000080382142187
 20
0.0000035629665263
 30
0.0
  0
VERTEX
  5
5007
  8
00-NOPRINT_TEXT
 10
-300.0000080382142187
 20
0.0000035629676063
 30
0.0
  0
SEQEND
  5
5008
  8
00-NOPRINT_TEXT
  0
POLYLINE
  5
42A
  8
00-NOPRINT_TEXT
 66
     1
 10
0.0
 20
0.0
 30
0.0
 70
   129
  0
VERTEX
  5
5009
  8
00-NOPRINT_TEXT
 10
-0.0000079530767607
 20
4158.0000036816436477
 30
0.0
  0
VERTEX
  5
500A
  8
00-NOPRINT_TEXT
 10
5879.9999919617848718
 20
4158.0000035629673221
 30
0.0
  0
VERTEX
  5
500B
  8
00-NOPRINT_TEXT
 10
5879.9999918780185908
 20
0.0000034429233438
 30
0.0
  0
VERTEX
  5
500C
  8
00-NOPRINT_TEXT
 10
-0.0000080382142187
 20
0.0000035629668673
 30
0.0
  0
SEQEND
  5
500D
  8
00-NOPRINT_TEXT
  0
POLYLINE
  5
42B
  8
00_NOPRINT_TOLERANCE
 66
     1
 10
0.0
 20
0.0
 30
0.0
 70
   129
  0
VERTEX
  5
500E
  8
00_NOPRINT_TOLERANCE
 10
209.9999919617858097
 20
3958.0000035629668673
 30
0.0
  0
VERTEX
  5
500F
  8
00_NOPRINT_TOLERANCE
 10
1429.9999919617860087
 20
3958.0000035629668673
 30
0.0
  0
VERTEX
  5
5010
  8
00_NOPRINT_TOLERANCE
 10
1429.9999919617850992
 20
1518.0000035629680042
 30
0.0
  0
VERTEX
  5
5011
  8
00_NOPRINT_TOLERANCE
 10
209.9999919617850992
 20
1518.0000035629680042
 30
0.0
  0
SEQEND
  5
5012
  8
00_NOPRINT_TOLERANCE
  0
POLYLINE
  5
42C
  8
00_NOPRINT_TOLERANCE
 66
     1
 10
0.0
 20
0.0
 30
0.0
 70
   129
  0
VERTEX
  5
5013
  8
00_NOPRINT_TOLERANCE
 10
1829.9999919617860087
 20
3958.0000035629668673
 30
0.0
  0
VERTEX
  5
5014
  8
00_NOPRINT_TOLERANCE
 10
3049.9999919617848718
 20
3958.0000035629668673
 30
0.0
  0
VERTEX
  5
5015
  8
00_NOPRINT_TOLERANCE
 10
3049.9999919617848718
 20
1518.0000035629680042
 30
0.0
  0
VERTEX
  5
5016
  8
00_NOPRINT_TOLERANCE
 10
1829.9999919617839623
 20
1518.0000035629680042
 30
0.0
  0
SEQEND
  5
5017
  8
00_NOPRINT_TOLERANCE
  0
POLYLINE
  5
42D
  8
00_NOPRINT_TOLERANCE
 66
     1
 10
0.0
 20
0.0
 30
0.0
 70
   129
  0
VERTEX
  5
5018
  8
00_NOPRINT_TOLERANCE
 10
3449.9999919617839623
 20
3958.0000035629668673
 30
0.0
  0
VERTEX
  5
5019
  8
00_NOPRINT_TOLERANCE
 10
4669.9999919617848718
 20
3958.0000035629668673
 30
0.0
  0
VERTEX
  5
501A
  8
00_NOPRINT_TOLERANCE
 10
4669.9999919617848718
 20
1518.0000035629680042
 30
0.0
  0
VERTEX
  5
501B
  8
00_NOPRINT_TOLERANCE
 10
3449.9999919617839623
 20
1518.0000035629680042
 30
0.0
  0
SEQEND
  5
501C
  8
00_NOPRINT_TOLERANCE
  0
TEXT
  5
42E
  8
00-NOPRINT_TEXT
 62
     7
 10
3449.9999919613787824
 20
1217.4218676846790004
 30
0.0
 40
20.0
  1
SUMMARY TERMS AND CONDITIONS
 50
359.9999999988356194
  7
OD-SIMPLEX-20
 11
3449.9999919617857813
 21
1237.4218676846790004
 31
0.0
 73
     3
  0
TEXT
  5
42F
  8
00-NOPRINT_TEXT
 62
     7
 10
3449.9999919611750556
 20
1421.3199713536910167
 30
0.0
 40
30.0
  1
BOTH FACES
 50
359.9999999988356194
  7
OD-SIMPLEX-30
 11
3449.9999919617839623
 21
1451.3199713536910167
 31
0.0
 73
     3
  0
TEXT
  5
430
  8
00-NOPRINT_TEXT
 62
     7
 10
1829.9999919611759651
 20
1421.3199713536910167
 30
0.0
 40
30.0
  1
REVERSE FACE
 50
359.9999999988356194
  7
OD-SIMPLEX-30
 11
1829.9999919617860087
 21
1451.3199713536910167
 31
0.0
 73
     3
  0
TEXT
  5
431
  8
00-NOPRINT_TEXT
 62
     7
 10
209.9999919611755956
 20
1421.3199713536910167
 30
0.0
 40
30.0
  1
FRONT FACE
 50
359.9999999988356194
  7
OD-SIMPLEX-30
 11
209.9999919617852981
 21
1451.3199713536910167
 31
0.0
 73
     3
  0
TEXT
  5
432
  8
00-NOPRINT_TEXT
 62
     7
 10
1829.9999919613781003
 20
1217.4218676846790004
 30
0.0
 40
20.0
  1
FABRICATION GUIDELINES
 50
359.9999999988356194
  7
OD-SIMPLEX-20
 11
1829.9999919617839623
 21
1237.4218676846790004
 31
0.0
 73
     3
  0
TEXT
  5
433
  8
00-NOPRINT_TEXT
 62
     7
 10
209.9999919613788961
 20
1217.4218676846790004
 30
0.0
 40
20.0
  1
USING THIS DRAWING
 50
359.9999999988356194
  7
OD-SIMPLEX-20
 11
209.9999919617852981
 21
1237.4218676846790004
 31
0.0
 73
     3
  0
LINE
  5
435
  8
00_NOPRINT_TOLERANCE
 10
1629.9999919617860087
 20
1343.1924720806209734
 30
0.0
 11
1629.9999919617860087
 21
4008.0000035629659578
 31
0.0
  0
POLYLINE
  5
438
  8
BOARD_$TH-NOMINAL
 66
     1
 10
0.0
 20
0.0
 30
0.0
 70
   129
  0
VERTEX
  5
501D
  8
BOARD_$TH-NOMINAL
 10
209.999991961785696
 20
3958.0000035629668673
 30
0.0
  0
VERTEX
  5
501E
  8
BOARD_$TH-NOMINAL
 10
1429.9999919617860087
 20
3958.0000035629668673
 30
0.0
  0
VERTEX
  5
501F
  8
BOARD_$TH-NOMINAL
 10
1429.9999919617850992
 20
1518.0000035629670947
 30
0.0
  0
VERTEX
  5
5020
  8
BOARD_$TH-NOMINAL
 10
209.9999919617850139
 20
1518.0000035629680042
 30
0.0
  0
SEQEND
  5
5021
  8
BOARD_$TH-NOMINAL
  0
POLYLINE
  5
439
  8
BOARD_$TH-NOMINAL
 66
     1
 10
0.0
 20
0.0
 30
0.0
 70
   129
  0
VERTEX
  5
5022
  8
BOARD_$TH-NOMINAL
 10
1829.9999919617860087
 20
3958.0000035629668673
 30
0.0
  0
VERTEX
  5
5023
  8
BOARD_$TH-NOMINAL
 10
3049.9999919617848718
 20
3958.0000035629668673
 30
0.0
  0
VERTEX
  5
5024
  8
BOARD_$TH-NOMINAL
 10
3049.9999919617848718
 20
1518.0000035629670947
 30
0.0
  0
VERTEX
  5
5025
  8
BOARD_$TH-NOMINAL
 10
1829.9999919617839623
 20
1518.0000035629680042
 30
0.0
  0
SEQEND
  5
5026
  8
BOARD_$TH-NOMINAL
  0
POLYLINE
  5
43A
  8
BOARD_$TH-NOMINAL
 66
     1
 10
0.0
 20
0.0
 30
0.0
 70
   129
  0
VERTEX
  5
5027
  8
BOARD_$TH-NOMINAL
 10
3449.9999919617857813
 20
3958.0000035629668673
 30
0.0
  0
VERTEX
  5
5028
  8
BOARD_$TH-NOMINAL
 10
4669.9999919617848718
 20
3958.0000035629668673
 30
0.0
  0
VERTEX
  5
5029
  8
BOARD_$TH-NOMINAL
 10
4669.9999919617848718
 20
1518.0000035629670947
 30
0.0
  0
VERTEX
  5
502A
  8
BOARD_$TH-NOMINAL
 10
3449.9999919617839623
 20
1518.0000035629680042
 30
0.0
  0
SEQEND
  5
502B
  8
BOARD_$TH-NOMINAL
  0
POLYLINE
  5
43B
  8
00_NOPRINT_TOLERANCE
 66
     1
 10
0.0
 20
0.0
 30
0.0
 70
   129
  0
VERTEX
  5
502C
  8
00_NOPRINT_TOLERANCE
 10
229.999991961786094
 20
3938.0000035629668673
 30
0.0
  0
VERTEX
  5
502D
  8
00_NOPRINT_TOLERANCE
 10
1409.9999919617860087
 20
3938.0000035629668673
 30
0.0
  0
VERTEX
  5
502E
  8
00_NOPRINT_TOLERANCE
 10
1409.9999919617850992
 20
1538.0000035629680042
 30
0.0
  0
VERTEX
  5
502F
  8
00_NOPRINT_TOLERANCE
 10
229.9999919617852981
 20
1538.0000035629680042
 30
0.0
  0
SEQEND
  5
5030
  8
00_NOPRINT_TOLERANCE
  0
POLYLINE
  5
43C
  8
00_NOPRINT_TOLERANCE
 66
     1
 10
0.0
 20
0.0
 30
0.0
 70
   129
  0
VERTEX
  5
5031
  8
00_NOPRINT_TOLERANCE
 10
1849.9999919617860087
 20
3938.0000035629668673
 30
0.0
  0
VERTEX
  5
5032
  8
00_NOPRINT_TOLERANCE
 10
3029.9999919617857813
 20
3938.0000035629668673
 30
0.0
  0
VERTEX
  5
5033
  8
00_NOPRINT_TOLERANCE
 10
3029.9999919617848718
 20
1538.0000035629680042
 30
0.0
  0
VERTEX
  5
5034
  8
00_NOPRINT_TOLERANCE
 10
1849.9999919617839623
 20
1538.0000035629680042
 30
0.0
  0
SEQEND
  5
5035
  8
00_NOPRINT_TOLERANCE
  0
POLYLINE
  5
43D
  8
00_NOPRINT_TOLERANCE
 66
     1
 10
0.0
 20
0.0
 30
0.0
 70
   129
  0
VERTEX
  5
5036
  8
00_NOPRINT_TOLERANCE
 10
3469.9999919617848718
 20
3938.0000035629668673
 30
0.0
  0
VERTEX
  5
5037
  8
00_NOPRINT_TOLERANCE
 10
4649.9999919617839623
 20
3938.0000035629668673
 30
0.0
  0
VERTEX
  5
5038
  8
00_NOPRINT_TOLERANCE
 10
4649.9999919617839623
 20
1538.0000035629680042
 30
0.0
  0
VERTEX
  5
5039
  8
00_NOPRINT_TOLERANCE
 10
3469.9999919617848718
 20
1538.0000035629680042
 30
0.0
  0
SEQEND
  5
503A
  8
00_NOPRINT_TOLERANCE
  0
POLYLINE
  5
440
  8
00-NOPRINT_TEXT
 66
     1
 10
0.0
 20
0.0
 30
0.0
 70
     1
  0
VERTEX
  5
503B
  8
00-NOPRINT_TEXT
 10
4939.3332682307118375
 20
3897.9594623703410434
 30
0.0
  0
VERTEX
  5
503C
  8
00-NOPRINT_TEXT
 10
4939.3332682307118375
 20
3870.1453865532198506
 30
0.0
 42
-1.0
  0
VERTEX
  5
503D
  8
00-NOPRINT_TEXT
 10
4902.9370169292160426
 20
3870.1453865532198506
 30
0.0
  0
VERTEX
  5
503E
  8
00-NOPRINT_TEXT
 10
4902.9370169292160426
 20
3897.9594623703410434
 30
0.0
 42
-1.0
  0
SEQEND
  5
503F
  8
00-NOPRINT_TEXT
  0
POLYLINE
  5
441
  8
00-NOPRINT_TEXT
 66
     1
 10
0.0
 20
0.0
 30
0.0
 70
     1
  0
VERTEX
  5
5040
  8
00-NOPRINT_TEXT
 10
4894.9999919614865576
 20
3897.9594623703410434
 30
0.0
  0
VERTEX
  5
5041
  8
00-NOPRINT_TEXT
 10
4894.9999919614865576
 20
3870.1453865532198506
 30
0.0
 42
1.0
  0
VERTEX
  5
5042
  8
00-NOPRINT_TEXT
 10
4947.2702931984376846
 20
3870.1453865532198506
 30
0.0
  0
VERTEX
  5
5043
  8
00-NOPRINT_TEXT
 10
4947.2702931984376846
 20
3897.9594623703410434
 30
0.0
 42
1.0
  0
SEQEND
  5
5044
  8
00-NOPRINT_TEXT
  0
POLYLINE
  5
442
  8
00-NOPRINT_TEXT
 66
     1
 10
0.0
 20
0.0
 30
0.0
 70
     1
  0
VERTEX
  5
5045
  8
00-NOPRINT_TEXT
 10
4981.3051193940373196
 20
3897.9594623703410434
 30
0.0
 42
-1.0
  0
VERTEX
  5
5046
  8
00-NOPRINT_TEXT
 10
5017.701370695535843
 20
3897.9594623703410434
 30
0.0
  0
VERTEX
  5
5047
  8
00-NOPRINT_TEXT
 10
5017.701370695535843
 20
3870.1453865532198506
 30
0.0
 42
-1.0
  0
VERTEX
  5
5048
  8
00-NOPRINT_TEXT
 10
4981.3051193940373196
 20
3870.1453865532198506
 30
0.0
  0
SEQEND
  5
5049
  8
00-NOPRINT_TEXT
  0
POLYLINE
  5
443
  8
00-NOPRINT_TEXT
 66
     1
 10
0.0
 20
0.0
 30
0.0
 70
     1
  0
VERTEX
  5
504A
  8
00-NOPRINT_TEXT
 10
5025.6383956632607806
 20
3897.9594623703410434
 30
0.0
 42
0.6627114835317702
  0
VERTEX
  5
504B
  8
00-NOPRINT_TEXT
 10
4981.3051193940373196
 20
3916.7177757446847863
 30
0.0
  0
VERTEX
  5
504C
  8
00-NOPRINT_TEXT
 10
4981.3051193940373196
 20
3920.1261005049527739
 30
0.0
 42
1.0
  0
VERTEX
  5
504D
  8
00-NOPRINT_TEXT
 10
4973.3680944263096535
 20
3920.1261005049527739
 30
0.0
  0
VERTEX
  5
504E
  8
00-NOPRINT_TEXT
 10
4973.3680944263096535
 20
3814.0733578384611064
 30
0.0
 42
1.0
  0
VERTEX
  5
504F
  8
00-NOPRINT_TEXT
 10
4981.3051193940373196
 20
3814.0733578384611064
 30
0.0
  0
VERTEX
  5
5050
  8
00-NOPRINT_TEXT
 10
4981.3051193940373196
 20
3851.3870731788770172
 30
0.0
 42
0.66271148353177
  0
VERTEX
  5
5051
  8
00-NOPRINT_TEXT
 10
5025.6383956632607806
 20
3870.1453865532198506
 30
0.0
  0
SEQEND
  5
5052
  8
00-NOPRINT_TEXT
  0
POLYLINE
  5
444
  8
00-NOPRINT_TEXT
 66
     1
 10
0.0
 20
0.0
 30
0.0
 70
     1
  0
VERTEX
  5
5053
  8
00-NOPRINT_TEXT
 10
5094.3586884248143178
 20
3888.0737504709832137
 30
0.0
  0
VERTEX
  5
5054
  8
00-NOPRINT_TEXT
 10
5057.9624371233176134
 20
3888.0737504709832137
 30
0.0
  0
VERTEX
  5
5055
  8
00-NOPRINT_TEXT
 10
5057.9624371233176134
 20
3897.9594623703410434
 30
0.0
 42
-1.0
  0
VERTEX
  5
5056
  8
00-NOPRINT_TEXT
 10
5094.3586884248143178
 20
3897.9594623703410434
 30
0.0
  0
SEQEND
  5
5057
  8
00-NOPRINT_TEXT
  0
POLYLINE
  5
445
  8
00-NOPRINT_TEXT
 66
     1
 10
0.0
 20
0.0
 30
0.0
 70
     1
  0
VERTEX
  5
5058
  8
00-NOPRINT_TEXT
 10
5102.2957133925428934
 20
3897.9594623703410434
 30
0.0
 42
1.0
  0
VERTEX
  5
5059
  8
00-NOPRINT_TEXT
 10
5050.0254121555917663
 20
3897.9594623703410434
 30
0.0
  0
VERTEX
  5
505A
  8
00-NOPRINT_TEXT
 10
5050.0254121555917663
 20
3870.1453865532198506
 30
0.0
 42
0.8392911393501922
  0
VERTEX
  5
505B
  8
00-NOPRINT_TEXT
 10
5100.7235862969628215
 20
3861.2176783778718345
 30
0.0
 42
1.0
  0
VERTEX
  5
505C
  8
00-NOPRINT_TEXT
 10
5093.2640030777911306
 20
3863.9289481052510382
 30
0.0
 42
-0.8392911393501705
  0
VERTEX
  5
505D
  8
00-NOPRINT_TEXT
 10
5057.9624371233176134
 20
3870.1453865532198506
 30
0.0
  0
VERTEX
  5
505E
  8
00-NOPRINT_TEXT
 10
5057.9624371233176134
 20
3880.1367255032560024
 30
0.0
  0
VERTEX
  5
505F
  8
00-NOPRINT_TEXT
 10
5098.3272009086813341
 20
3880.1367255032560024
 30
0.0
 42
0.4142135623730951
  0
VERTEX
  5
5060
  8
00-NOPRINT_TEXT
 10
5102.2957133925428934
 20
3884.105237987118926
 30
0.0
  0
SEQEND
  5
5061
  8
00-NOPRINT_TEXT
  0
POLYLINE
  5
446
  8
00-NOPRINT_TEXT
 66
     1
 10
0.0
 20
0.0
 30
0.0
 70
     1
  0
VERTEX
  5
5062
  8
00-NOPRINT_TEXT
 10
5178.8547922217458108
 20
3897.9594623703410434
 30
0.0
 42
0.6627114835317652
  0
VERTEX
  5
5063
  8
00-NOPRINT_TEXT
 10
5134.5215159525250783
 20
3916.7177757446847863
 30
0.0
  0
VERTEX
  5
5064
  8
00-NOPRINT_TEXT
 10
5134.5215159525250783
 20
3920.1261005049527739
 30
0.0
 42
1.0
  0
VERTEX
  5
5065
  8
00-NOPRINT_TEXT
 10
5126.5844909847937743
 20
3920.1261005049527739
 30
0.0
  0
VERTEX
  5
5066
  8
00-NOPRINT_TEXT
 10
5126.5844909847992312
 20
3847.9787484186081201
 30
0.0
 42
1.0
  0
VERTEX
  5
5067
  8
00-NOPRINT_TEXT
 10
5134.5215159525250783
 20
3847.9787484186081201
 30
0.0
  0
VERTEX
  5
5068
  8
00-NOPRINT_TEXT
 10
5134.5215159525250783
 20
3897.9594623703410434
 30
0.0
 42
-1.0
  0
VERTEX
  5
5069
  8
00-NOPRINT_TEXT
 10
5170.9177672540208732
 20
3897.9594623703410434
 30
0.0
  0
VERTEX
  5
506A
  8
00-NOPRINT_TEXT
 10
5170.9177672540208732
 20
3847.9787484186081201
 30
0.0
 42
1.0
  0
VERTEX
  5
506B
  8
00-NOPRINT_TEXT
 10
5178.8547922217458108
 20
3847.9787484186081201
 30
0.0
  0
SEQEND
  5
506C
  8
00-NOPRINT_TEXT
  0
POLYLINE
  5
447
  8
00-NOPRINT_TEXT
 66
     1
 10
0.0
 20
0.0
 30
0.0
 70
     1
  0
VERTEX
  5
506D
  8
00-NOPRINT_TEXT
 10
5247.3578534747266531
 20
3870.1453865532198506
 30
0.0
 42
-1.0
  0
VERTEX
  5
506E
  8
00-NOPRINT_TEXT
 10
5210.9616021732317677
 20
3870.1453865532198506
 30
0.0
  0
VERTEX
  5
506F
  8
00-NOPRINT_TEXT
 10
5210.9616021732317677
 20
3897.9594623703410434
 30
0.0
 42
-1.0
  0
VERTEX
  5
5070
  8
00-NOPRINT_TEXT
 10
5247.3578534747266531
 20
3897.9594623703410434
 30
0.0
  0
SEQEND
  5
5071
  8
00-NOPRINT_TEXT
  0
POLYLINE
  5
448
  8
00-NOPRINT_TEXT
 66
     1
 10
0.0
 20
0.0
 30
0.0
 70
     1
  0
VERTEX
  5
5072
  8
00-NOPRINT_TEXT
 10
5203.0245772055050111
 20
3870.1453865532198506
 30
0.0
 42
0.6627114835317702
  0
VERTEX
  5
5073
  8
00-NOPRINT_TEXT
 10
5247.3578534747266531
 20
3851.3870731788802004
 30
0.0
  0
VERTEX
  5
5074
  8
00-NOPRINT_TEXT
 10
5247.3578534747266531
 20
3847.9787484186081201
 30
0.0
 42
1.0
  0
VERTEX
  5
5075
  8
00-NOPRINT_TEXT
 10
5255.2948784424570476
 20
3847.9787484186081201
 30
0.0
  0
VERTEX
  5
5076
  8
00-NOPRINT_TEXT
 10
5255.2948784424570476
 20
3954.0314910851011518
 30
0.0
 42
1.0
  0
VERTEX
  5
5077
  8
00-NOPRINT_TEXT
 10
5247.3578534747266531
 20
3954.0314910851011518
 30
0.0
  0
VERTEX
  5
5078
  8
00-NOPRINT_TEXT
 10
5247.3578534747266531
 20
3916.7177757446847863
 30
0.0
 42
0.66271148353177
  0
VERTEX
  5
5079
  8
00-NOPRINT_TEXT
 10
5203.0245772055050111
 20
3897.9594623703410434
 30
0.0
  0
SEQEND
  5
507A
  8
00-NOPRINT_TEXT
  0
POLYLINE
  5
449
  8
00-NOPRINT_TEXT
 66
     1
 10
0.0
 20
0.0
 30
0.0
 70
     1
  0
VERTEX
  5
507B
  8
00-NOPRINT_TEXT
 10
5328.979133291256403
 20
3888.0737504709818495
 30
0.0
  0
VERTEX
  5
507C
  8
00-NOPRINT_TEXT
 10
5292.5828819897624271
 20
3888.0737504709818495
 30
0.0
  0
VERTEX
  5
507D
  8
00-NOPRINT_TEXT
 10
5292.5828819897624271
 20
3897.9594623703410434
 30
0.0
 42
-1.0
  0
VERTEX
  5
507E
  8
00-NOPRINT_TEXT
 10
5328.979133291256403
 20
3897.9594623703410434
 30
0.0
  0
SEQEND
  5
507F
  8
00-NOPRINT_TEXT
  0
POLYLINE
  5
44A
  8
00-NOPRINT_TEXT
 66
     1
 10
0.0
 20
0.0
 30
0.0
 70
     1
  0
VERTEX
  5
5080
  8
00-NOPRINT_TEXT
 10
5336.9161582589858881
 20
3897.9594623703410434
 30
0.0
 42
1.0
  0
VERTEX
  5
5081
  8
00-NOPRINT_TEXT
 10
5284.6458570220320325
 20
3897.9594623703410434
 30
0.0
  0
VERTEX
  5
5082
  8
00-NOPRINT_TEXT
 10
5284.6458570220320325
 20
3870.1453865532198506
 30
0.0
 42
0.8392911393501922
  0
VERTEX
  5
5083
  8
00-NOPRINT_TEXT
 10
5335.3440311634012687
 20
3861.2176783778718345
 30
0.0
 42
1.0
  0
VERTEX
  5
5084
  8
00-NOPRINT_TEXT
 10
5327.8844479442323063
 20
3863.9289481052510382
 30
0.0
 42
-0.8392911393501705
  0
VERTEX
  5
5085
  8
00-NOPRINT_TEXT
 10
5292.5828819897624271
 20
3870.1453865532198506
 30
0.0
  0
VERTEX
  5
5086
  8
00-NOPRINT_TEXT
 10
5292.5828819897624271
 20
3880.1367255032560024
 30
0.0
  0
VERTEX
  5
5087
  8
00-NOPRINT_TEXT
 10
5332.9476457751197813
 20
3880.1367255032560024
 30
0.0
 42
0.4142135623730951
  0
VERTEX
  5
5088
  8
00-NOPRINT_TEXT
 10
5336.9161582589858881
 20
3884.105237987118926
 30
0.0
  0
SEQEND
  5
5089
  8
00-NOPRINT_TEXT
  0
POLYLINE
  5
44B
  8
00-NOPRINT_TEXT
 66
     1
 10
0.0
 20
0.0
 30
0.0
 70
     1
  0
VERTEX
  5
508A
  8
00-NOPRINT_TEXT
 10
5400.1285132225566485
 20
3920.2893834302049072
 30
0.0
 42
0.0457067288387406
  0
VERTEX
  5
508B
  8
00-NOPRINT_TEXT
 10
5395.628790641071646
 20
3922.2674790911951277
 30
0.0
 42
0.0401941578067522
  0
VERTEX
  5
508C
  8
00-NOPRINT_TEXT
 10
5390.8478918614537179
 20
3923.4500194078009372
 30
0.0
 42
0.0405559563879494
  0
VERTEX
  5
508D
  8
00-NOPRINT_TEXT
 10
5383.5423332690006646
 20
3924.0435634918940195
 30
0.0
 42
0.0949732897878055
  0
VERTEX
  5
508E
  8
00-NOPRINT_TEXT
 10
5371.6581127932358868
 20
3921.7656498496289714
 30
0.0
 42
0.0708722825397191
  0
VERTEX
  5
508F
  8
00-NOPRINT_TEXT
 10
5365.7916634459315901
 20
3918.4046798866438621
 30
0.0
 42
0.0483457727037197
  0
VERTEX
  5
5090
  8
00-NOPRINT_TEXT
 10
5363.1313176086541716
 20
3915.8842936239962
 30
0.0
 42
0.0448797265187802
  0
VERTEX
  5
5091
  8
00-NOPRINT_TEXT
 10
5361.1372008794287467
 20
3913.1267333648279418
 30
0.0
 42
0.0722728677010993
  0
VERTEX
  5
5092
  8
00-NOPRINT_TEXT
 10
5359.3755176375998417
 20
3908.589206151622875
 30
0.0
 42
0.3093075497333693
  0
VERTEX
  5
5093
  8
00-NOPRINT_TEXT
 10
5366.9296201926390495
 20
3889.3833541836270342
 30
0.0
 42
0.0534583832098243
  0
VERTEX
  5
5094
  8
00-NOPRINT_TEXT
 10
5371.9836974554718836
 20
3886.6927895646222169
 30
0.0
 42
0.0412448156230092
  0
VERTEX
  5
5095
  8
00-NOPRINT_TEXT
 10
5379.0511158641156726
 20
3884.5070644719489792
 30
0.0
 42
-0.0058632209555069
  0
VERTEX
  5
5096
  8
00-NOPRINT_TEXT
 10
5387.4222927966529824
 20
3882.5538868000840012
 30
0.0
 42
-0.0307734774359857
  0
VERTEX
  5
5097
  8
00-NOPRINT_TEXT
 10
5394.6865816407116654
 20
3880.2870659140189673
 30
0.0
 42
-0.1326074700036995
  0
VERTEX
  5
5098
  8
00-NOPRINT_TEXT
 10
5400.8510786259193992
 20
3875.8143183299312113
 30
0.0
 42
-0.0934082332813141
  0
VERTEX
  5
5099
  8
00-NOPRINT_TEXT
 10
5402.4268842722503905
 20
3872.8823707330379875
 30
0.0
 42
-0.1484702512325273
  0
VERTEX
  5
509A
  8
00-NOPRINT_TEXT
 10
5402.5506585601979168
 20
3862.6551927899758994
 30
0.0
 42
-0.2016386478785572
  0
VERTEX
  5
509B
  8
00-NOPRINT_TEXT
 10
5396.4765847785547521
 20
3855.1535405913059549
 30
0.0
 42
-0.2228311772947458
  0
VERTEX
  5
509C
  8
00-NOPRINT_TEXT
 10
5373.2113489942003071
 20
3853.902293027667838
 30
0.0
 42
-0.1906174759338407
  0
VERTEX
  5
509D
  8
00-NOPRINT_TEXT
 10
5363.276513999198869
 20
3863.3729715307767947
 30
0.0
 42
1.0
  0
VERTEX
  5
509E
  8
00-NOPRINT_TEXT
 10
5356.0706462562147863
 20
3860.0455347682041065
 30
0.0
 42
0.1906174759338448
  0
VERTEX
  5
509F
  8
00-NOPRINT_TEXT
 10
5370.2322316075869821
 20
3846.5455801112129848
 30
0.0
 42
0.2228311772947499
  0
VERTEX
  5
50A0
  8
00-NOPRINT_TEXT
 10
5400.2275508304983305
 20
3848.1587840540491925
 30
0.0
 42
0.2016386478785569
  0
VERTEX
  5
50A1
  8
00-NOPRINT_TEXT
 10
5410.1726623444610595
 20
3860.4412768812239847
 30
0.0
 42
0.1484702512325262
  0
VERTEX
  5
50A2
  8
00-NOPRINT_TEXT
 10
5409.9930756617159204
 20
3875.2801015762070165
 30
0.0
 42
0.0934082332813456
  0
VERTEX
  5
50A3
  8
00-NOPRINT_TEXT
 10
5407.0254822015085665
 20
3880.80161276921217
 30
0.0
 42
0.1326074700036619
  0
VERTEX
  5
50A4
  8
00-NOPRINT_TEXT
 10
5397.5122988260973216
 20
3887.7040523456198571
 30
0.0
 42
0.0307734774359815
  0
VERTEX
  5
50A5
  8
00-NOPRINT_TEXT
 10
5389.3162465463519766
 20
3890.2616299543651621
 30
0.0
 42
0.0058632209555075
  0
VERTEX
  5
50A6
  8
00-NOPRINT_TEXT
 10
5380.7637986138552151
 20
3892.2571020936070454
 30
0.0
 42
-0.0412448156229785
  0
VERTEX
  5
50A7
  8
00-NOPRINT_TEXT
 10
5374.9452400271102306
 20
3894.0565950301879639
 30
0.0
 42
-0.0534583832108002
  0
VERTEX
  5
50A8
  8
00-NOPRINT_TEXT
 10
5371.3850328292692211
 20
3895.9518900612579273
 30
0.0
 42
-0.3052584999940819
  0
VERTEX
  5
50A9
  8
00-NOPRINT_TEXT
 10
5367.0776322581887143
 20
3906.6610364952448435
 30
0.0
 42
-0.0741895556533406
  0
VERTEX
  5
50AA
  8
00-NOPRINT_TEXT
 10
5368.0049925047260331
 20
3909.1463797343080842
 30
0.0
 42
-0.042878157842419
  0
VERTEX
  5
50AB
  8
00-NOPRINT_TEXT
 10
5369.120395216849829
 20
3910.6759047424579876
 30
0.0
 42
-0.0483457727037104
  0
VERTEX
  5
50AC
  8
00-NOPRINT_TEXT
 10
5370.6690966593623671
 20
3912.143129712220798
 30
0.0
 42
-0.0708722825397227
  0
VERTEX
  5
50AD
  8
00-NOPRINT_TEXT
 10
5374.5929543269367059
 20
3914.3911620362000576
 30
0.0
 42
-0.0949732897878214
  0
VERTEX
  5
50AE
  8
00-NOPRINT_TEXT
 10
5383.5423332690006646
 20
3916.1065385241668082
 30
0.0
 42
-0.0405559563879528
  0
VERTEX
  5
50AF
  8
00-NOPRINT_TEXT
 10
5389.5666532834629834
 20
3915.6170893656899352
 30
0.0
 42
-0.0401941578067489
  0
VERTEX
  5
50B0
  8
00-NOPRINT_TEXT
 10
5393.1107933477023835
 20
3914.7404574379170299
 30
0.0
 42
-0.0457067288387209
  0
VERTEX
  5
50B1
  8
00-NOPRINT_TEXT
 10
5396.284876158231782
 20
3913.3451182094568139
 30
0.0
 42
-0.0622018130379019
  0
VERTEX
  5
50B2
  8
00-NOPRINT_TEXT
 10
5400.0914643484029511
 20
3910.5710286188609643
 30
0.0
 42
1.0
  0
VERTEX
  5
50B3
  8
00-NOPRINT_TEXT
 10
5405.5249038841029687
 20
3916.3567092313937792
 30
0.0
 42
0.0622018130379014
  0
SEQEND
  5
50B4
  8
00-NOPRINT_TEXT
  0
POLYLINE
  5
44C
  8
00-NOPRINT_TEXT
 66
     1
 10
0.0
 20
0.0
 30
0.0
 70
     1
  0
VERTEX
  5
50B5
  8
00-NOPRINT_TEXT
 10
5459.1272857825470055
 20
3886.0372136933829097
 30
0.0
  0
VERTEX
  5
50B6
  8
00-NOPRINT_TEXT
 10
5482.0932627423380836
 20
3846.0039934842311595
 30
0.0
 42
1.0
  0
VERTEX
  5
50B7
  8
00-NOPRINT_TEXT
 10
5488.9778641930397498
 20
3849.9535033529859902
 30
0.0
  0
VERTEX
  5
50B8
  8
00-NOPRINT_TEXT
 10
5464.8140578731554342
 20
3892.0747238518520135
 30
0.0
  0
VERTEX
  5
50B9
  8
00-NOPRINT_TEXT
 10
5487.9002636962650286
 20
3916.5847973974100569
 30
0.0
 42
1.0
  0
VERTEX
  5
50BA
  8
00-NOPRINT_TEXT
 10
5482.1226286269320553
 20
3922.0267913650591254
 30
0.0
  0
VERTEX
  5
50BB
  8
00-NOPRINT_TEXT
 10
5444.3696851479862744
 20
3881.9453926146447884
 30
0.0
  0
VERTEX
  5
50BC
  8
00-NOPRINT_TEXT
 10
5444.3696851479862744
 20
3954.0314910851011518
 30
0.0
 42
1.0
  0
VERTEX
  5
50BD
  8
00-NOPRINT_TEXT
 10
5436.4326601802558798
 20
3954.0314910851011518
 30
0.0
  0
VERTEX
  5
50BE
  8
00-NOPRINT_TEXT
 10
5436.4326601802558798
 20
3847.9787484186081201
 30
0.0
 42
1.0
  0
VERTEX
  5
50BF
  8
00-NOPRINT_TEXT
 10
5444.3696851479862744
 20
3847.9787484186081201
 30
0.0
  0
VERTEX
  5
50C0
  8
00-NOPRINT_TEXT
 10
5444.3696851479862744
 20
3870.3694214333390846
 30
0.0
  0
SEQEND
  5
50C1
  8
00-NOPRINT_TEXT
  0
CIRCLE
  5
44D
  8
00-NOPRINT_TEXT
 10
5582.8952110701593483
 20
3901.0051197518550907
 30
0.0
 40
56.9948838171099865
  0
POLYLINE
  5
44E
  8
00-NOPRINT_TEXT
 66
     1
 10
0.0
 20
0.0
 30
0.0
 70
     1
  0
VERTEX
  5
50C2
  8
00-NOPRINT_TEXT
 10
5553.6691109275488998
 20
3909.5830420167549164
 30
0.0
  0
VERTEX
  5
50C3
  8
00-NOPRINT_TEXT
 10
5553.6691109275488998
 20
3887.4493152264249147
 30
0.0
  0
VERTEX
  5
50C4
  8
00-NOPRINT_TEXT
 10
5568.7636821238138509
 20
3903.5063226800971279
 30
0.0
  0
SEQEND
  5
50C5
  8
00-NOPRINT_TEXT
  0
POLYLINE
  5
44F
  8
00-NOPRINT_TEXT
 66
     1
 10
0.0
 20
0.0
 30
0.0
 70
     1
  0
VERTEX
  5
50C6
  8
00-NOPRINT_TEXT
 10
5595.229848176248197
 20
3870.7179399259171078
 30
0.0
  0
VERTEX
  5
50C7
  8
00-NOPRINT_TEXT
 10
5611.5422534614108372
 20
3888.0704310861901831
 30
0.0
  0
VERTEX
  5
50C8
  8
00-NOPRINT_TEXT
 10
5611.5422534614108372
 20
3912.4405969836539043
 30
0.0
  0
VERTEX
  5
50C9
  8
00-NOPRINT_TEXT
 10
5595.229848176248197
 20
3895.088105823380829
 30
0.0
  0
SEQEND
  5
50CA
  8
00-NOPRINT_TEXT
  0
POLYLINE
  5
450
  8
00-NOPRINT_TEXT
 66
     1
 10
0.0
 20
0.0
 30
0.0
 70
     1
  0
VERTEX
  5
50CB
  8
00-NOPRINT_TEXT
 10
5592.6300359427959847
 20
3898.3450090206902132
 30
0.0
  0
VERTEX
  5
50CC
  8
00-NOPRINT_TEXT
 10
5610.0349055015985869
 20
3916.859620439741775
 30
0.0
  0
VERTEX
  5
50CD
  8
00-NOPRINT_TEXT
 10
5572.5813284461646617
 20
3931.937549647565902
 30
0.0
  0
VERTEX
  5
50CE
  8
00-NOPRINT_TEXT
 10
5555.1764588873602406
 20
3913.4229382285179781
 30
0.0
  0
SEQEND
  5
50CF
  8
00-NOPRINT_TEXT
  0
POLYLINE
  5
451
  8
00-NOPRINT_TEXT
 66
     1
 10
0.0
 20
0.0
 30
0.0
 70
     1
  0
VERTEX
  5
50D0
  8
00-NOPRINT_TEXT
 10
5615.1075020614061941
 20
3885.8405208873577976
 30
0.0
 42
0.1908976533707676
  0
VERTEX
  5
50D1
  8
00-NOPRINT_TEXT
 10
5615.6672534614117467
 20
3887.2531966800361261
 30
0.0
  0
VERTEX
  5
50D2
  8
00-NOPRINT_TEXT
 10
5615.6672534614117467
 20
3917.6458431382170602
 30
0.0
 42
0.3060715845518373
  0
VERTEX
  5
50D3
  8
00-NOPRINT_TEXT
 10
5614.374994434776454
 20
3919.5591217621899887
 30
0.0
  0
VERTEX
  5
50D4
  8
00-NOPRINT_TEXT
 10
5572.8142571860798853
 20
3936.2904970626968861
 30
0.0
 42
0.3090648432082206
  0
VERTEX
  5
50D5
  8
00-NOPRINT_TEXT
 10
5570.54126761272164
 20
3935.7898942314009219
 30
0.0
  0
VERTEX
  5
50D6
  8
00-NOPRINT_TEXT
 10
5550.1038623275562713
 20
3914.0493913227201119
 30
0.0
 42
0.1908976533707673
  0
VERTEX
  5
50D7
  8
00-NOPRINT_TEXT
 10
5549.5441109275479903
 20
3912.636715530040874
 30
0.0
  0
VERTEX
  5
50D8
  8
00-NOPRINT_TEXT
 10
5549.5441109275479903
 20
3882.2440690718622136
 30
0.0
 42
0.6794054420538282
  0
VERTEX
  5
50D9
  8
00-NOPRINT_TEXT
 10
5553.1093595275442567
 20
3880.8313932791838852
 30
0.0
  0
VERTEX
  5
50DA
  8
00-NOPRINT_TEXT
 10
5572.870842317071947
 20
3901.8528765874170858
 30
0.0
  0
VERTEX
  5
50DB
  8
00-NOPRINT_TEXT
 10
5591.1048481762472875
 20
3894.5122946955270891
 30
0.0
  0
VERTEX
  5
50DC
  8
00-NOPRINT_TEXT
 10
5591.1048481762472875
 20
3865.5126937713530424
 30
0.0
 42
0.6794054420538282
  0
VERTEX
  5
50DD
  8
00-NOPRINT_TEXT
 10
5594.6700967762408254
 20
3864.1000179786751687
 30
0.0
  0
SEQEND
  5
50DE
  8
00-NOPRINT_TEXT
  0
CIRCLE
  5
452
  8
00-NOPRINT_TEXT
 10
5582.8952110701593483
 20
3901.0051197518550907
 30
0.0
 40
52.8698838171095673
  0
TEXT
  5
1DAA
  8
00-NOPRINT_TEXT
 62
     7
 10
207.4499919614397072
 20
1154.6628032325379536
 30
0.0
 40
17.0
  1
OpenDesk products are designed to be CNC-milled from standard sheet materials such as plywood. This file as provided
 50
359.9999999988356194
  7
OD-ISOCP-17
  0
TEXT
  5
1DAB
  8
00-NOPRINT_TEXT
 62
     7
 10
207.4499919608639971
 20
1126.3294698992040139
 30
0.0
 40
17.0
  1
is mastered for use with the recommended sheet material specification, sheet sizes and thicknesses, and bit sizes
 50
359.9999999988356194
  7
OD-ISOCP-17
  0
TEXT
  5
1DAC
  8
00-NOPRINT_TEXT
 62
     7
 10
207.4499919602882017
 20
1097.9961365658709838
 30
0.0
 40
17.0
  1
provided, however the exact materials being used, tolerances, drill bits, and other local considerations are at the
 50
359.9999999988356194
  7
OD-ISOCP-17
  0
TEXT
  5
1DAD
  8
00-NOPRINT_TEXT
 62
     7
 10
208.0661346337423936
 20
1069.6628032325249933
 30
0.0
 40
17.0
  1
discretion of the end user (maker). If you are working with variations on these you may need to reposition and nest
 50
359.9999999988356194
  7
OD-ISOCP-17
  0
TEXT
  5
1DAE
  8
00-NOPRINT_TEXT
 62
     7
 10
207.4499919591366108
 20
1041.3294698992049234
 30
0.0
 40
17.0
  1
parts within your own sheet frames accordingly, and take account of any changes in tolerance particularly on joints,
 50
359.9999999988356194
  7
OD-ISOCP-17
  0
TEXT
  5
1DAF
  8
00-NOPRINT_TEXT
 62
     7
 10
207.449991958560787
 20
1012.9961365658709838
 30
0.0
 40
17.0
  1
tabs, and slots prior to cutting.
 50
359.9999999988356194
  7
OD-ISOCP-17
  0
TEXT
  5
1DB0
  8
00-NOPRINT_TEXT
 62
     7
 10
207.4499919574093099
 20
956.329469899204696
 30
0.0
 40
17.0
  1
All OpenDesk drawings are drawn in 'Top' projection, and all vectors are arranged into suitably named layers describing
 50
359.9999999988356194
  7
OD-ISOCP-17
  0
TEXT
  5
1DB1
  8
00-NOPRINT_TEXT
 62
     7
 10
207.449991956833486
 20
927.9961365658714385
 30
0.0
 40
17.0
  1
the type and depth of cut required. All such cut depths are assumed to be measured from the top (maximum z-index)
 50
359.9999999988356194
  7
OD-ISOCP-17
  0
TEXT
  5
1DB2
  8
00-NOPRINT_TEXT
 62
     7
 10
207.9951297515333124
 20
899.6628032325266986
 30
0.0
 40
17.0
  1
surface of the material. For example the layer 'POCKET_14MM_INSIDE' describes a pocketting inside-line cut of depth
 50
359.9999999988356194
  7
OD-ISOCP-17
  0
TEXT
  5
1DB3
  8
00-NOPRINT_TEXT
 62
     7
 10
207.4499919556818952
 20
871.329469899204355
 30
0.0
 40
17.0
  1
14mm from the top surface of the material.*
 50
359.9999999988356194
  7
OD-ISOCP-17
  0
TEXT
  5
1DB4
  8
00-NOPRINT_TEXT
 62
     7
 10
207.4499919545303044
 20
814.6628032325377262
 30
0.0
 40
17.0
  1
All OpenDesk drawings are provided in dxf format. After importing into your CNC-machine's CAM software you will need
 50
359.9999999988356194
  7
OD-ISOCP-17
  0
TEXT
  5
1DB5
  8
00-NOPRINT_TEXT
 62
     7
 10
207.449991953954509
 20
786.329469899204355
 30
0.0
 40
17.0
  1
to ensure that all vectors are visible and all polylines are closed where necessary. A pdf version of the drawing is
 50
359.9999999988356194
  7
OD-ISOCP-17
  0
TEXT
  5
1DB6
  8
00-NOPRINT_TEXT
 62
     7
 10
207.4499919533787136
 20
757.9961365658712111
 30
0.0
 40
17.0
  1
provided with each download for reference.
 50
359.9999999988356194
  7
OD-ISOCP-17
  0
TEXT
  5
1DB7
  8
00-NOPRINT_TEXT
 62
     7
 10
207.4499919522270943
 20
701.329469899204355
 30
0.0
 40
17.0
  1
Layers with names beginning '00_NOPRINT' should not be milled. For convenience you can turn these layers off or
 50
359.9999999988356194
  7
OD-ISOCP-17
  0
TEXT
  5
1DB8
  8
00-NOPRINT_TEXT
 62
     7
 10
208.0661346256812863
 20
672.9961365658582508
 30
0.0
 40
17.0
  1
delete their elements before setting up your CAM software.
 50
359.9999999988356194
  7
OD-ISOCP-17
  0
TEXT
  5
1DB9
  8
00-NOPRINT_TEXT
 62
     7
 10
207.4499919504997081
 20
616.3294698992041276
 30
0.0
 40
17.0
  1
Most OpenDesk products require some combination of 'inside cuts', and 'outside cuts', and in some instances 'on-line
 50
359.9999999988356194
  7
OD-ISOCP-17
  0
TEXT
  5
1DBA
  8
00-NOPRINT_TEXT
 62
     7
 10
208.0661346239539
 20
587.9961365658583645
 30
0.0
 40
17.0
  1
cuts', 'pocketing', or 'chamfering'. Some OpenDesk products require double-side cutting (ie cutting to both front and
 50
359.9999999988356194
  7
OD-ISOCP-17
  0
TEXT
  5
1DBB
  8
00-NOPRINT_TEXT
 62
     7
 10
207.4499919493480888
 20
559.6628032325374988
 30
0.0
 40
17.0
  1
reverse faces of a single sheet). As a result each sheet is drawn in 'Front Face', 'Reverse Face', and 'Both Faces'
 50
359.9999999988356194
  7
OD-ISOCP-17
  0
TEXT
  5
1DBC
  8
00-NOPRINT_TEXT
 62
     7
 10
207.8020734767895021
 20
531.3294698991969653
 30
0.0
 40
17.0
  1
layouts, with corresponding layers and vectors in each for you to choose your preferred setup according to your
 50
359.9999999988356194
  7
OD-ISOCP-17
  0
TEXT
  5
1DBD
  8
00-NOPRINT_TEXT
 62
     7
 10
208.2421753862350897
 20
502.9961365658546129
 30
0.0
 40
17.0
  1
CNC-software and machine.
 50
359.9999999988356194
  7
OD-ISOCP-17
  0
TEXT
  5
1DBE
  8
00-NOPRINT_TEXT
 62
     7
 10
207.4499919470447935
 20
446.3294698992040139
 30
0.0
 40
17.0
  1
A minimum of 15mm tolerance is left between parts on OpenDesk sheets when nested. This should be sufficient for most
 50
359.9999999988356194
  7
OD-ISOCP-17
  0
TEXT
  5
1DBF
  8
00-NOPRINT_TEXT
 62
     7
 10
207.4499919464691118
 20
417.9961365658708132
 30
0.0
 40
17.0
  1
bit diameters.
 50
359.9999999988356194
  7
OD-ISOCP-17
  0
TEXT
  5
1DC0
  8
00-NOPRINT_TEXT
 62
     7
 10
224.4499919453176062
 20
361.3294698988585765
 30
0.0
 40
17.0
  1
*      Such a pocketed may be accompanied by a corresponding second line in, for example, 'POCKET_14MM_OUTSIDE',
 50
359.9999999988356194
  7
OD-ISOCP-17
  0
TEXT
  5
1DC1
  8
00-NOPRINT_TEXT
 62
     7
 10
276.0661346187716845
 20
332.996136564476501
 30
0.0
 40
17.0
  1
describing the limits of the associated pocket.
 50
359.9999999988356194
  7
OD-ISOCP-17
  0
TEXT
  5
1DC4
  8
00-NOPRINT_TEXT
 62
     7
 10
3448.4713334248540377
 20
1154.6628032325379536
 30
0.0
 40
17.0
  1
This file represents the latest version of an open source product, designed to be CNC-milled from standard sheet
 50
359.9999999988356194
  7
OD-ISOCP-17
  0
TEXT
  5
1DC5
  8
00-NOPRINT_TEXT
 62
     7
 10
3448.4713334242778728
 20
1126.3294698992040139
 30
0.0
 40
17.0
  1
materials. Whilst OpenDesk make every effort to provide fully prototyped and tested designs, it is the responsiblity of
 50
359.9999999988356194
  7
OD-ISOCP-17
  0
TEXT
  5
1DC6
  8
00-NOPRINT_TEXT
 62
     7
 10
3448.4713334237021627
 20
1097.9961365658709838
 30
0.0
 40
17.0
  1
the end user (maker) to check file contents prior to fabrication, and ensure suitable due diligence and reasonable skill
 50
359.9999999988356194
  7
OD-ISOCP-17
  0
TEXT
  5
1DC7
  8
00-NOPRINT_TEXT
 62
     7
 10
3448.4713334231269073
 20
1069.6628032325370441
 30
0.0
 40
17.0
  1
and care in fabrication and assembly.
 50
359.9999999988356194
  7
OD-ISOCP-17
  0
TEXT
  5
1DC8
  8
00-NOPRINT_TEXT
 62
     7
 10
3448.4713334219750323
 20
1012.9961365658709838
 30
0.0
 40
17.0
  1
All OpenDesk designs are open source and provided as is. OpenDesk cannot accept any liability for any error or
 50
359.9999999988356194
  7
OD-ISOCP-17
  0
TEXT
  5
1DC9
  8
00-NOPRINT_TEXT
 62
     7
 10
3448.4713334213988674
 20
984.6628032325378399
 30
0.0
 40
17.0
  1
ommission in the information contained herein. OpenDesk accepts no design liability, and provides no guarantee of
 50
359.9999999988356194
  7
OD-ISOCP-17
  0
TEXT
  5
1DCA
  8
00-NOPRINT_TEXT
 62
     7
 10
3449.0874760948540825
 20
956.3294698991920768
 30
0.0
 40
17.0
  1
quality or warranty of fitness for purpose on any open product in the OpenDesk library.
 50
359.9999999988356194
  7
OD-ISOCP-17
  0
TEXT
  5
1DCB
  8
00-NOPRINT_TEXT
 62
     7
 10
3448.4713334196721917
 20
899.6628032325379536
 30
0.0
 40
17.0
  1
By using this file you agree to the following:
 50
359.9999999988356194
  7
OD-ISOCP-17
  0
TEXT
  5
1DCC
  8
00-NOPRINT_TEXT
 62
     7
 10
3448.4713334185212261
 20
842.9961365658712111
 30
0.0
 40
17.0
  1
- You expressly agree to hold harmless all OpenDesk designers or employees for any property damage, personal injury,
 50
359.9999999988356194
  7
OD-ISOCP-17
  0
TEXT
  5
1DCD
  8
00-NOPRINT_TEXT
 62
     7
 10
3449.087476091975077
 20
814.6628032325253344
 30
0.0
 40
17.0
  1
death, fudiciary loss, or any other loss or damage arising out of the use of this digital file and its contents, or
 50
359.9999999988356194
  7
OD-ISOCP-17
  0
TEXT
  5
1DCE
  8
00-NOPRINT_TEXT
 62
     7
 10
3449.0164712126461382
 20
786.3294698991933274
 30
0.0
 40
17.0
  1
subsequent physical products fabricated from the information contained herein.
 50
359.9999999988356194
  7
OD-ISOCP-17
  0
TEXT
  5
1DCF
  8
00-NOPRINT_TEXT
 62
     7
 10
3448.4713334162179308
 20
729.6628032325377262
 30
0.0
 40
17.0
  1
- You agree that the information provided in this file is to be used at your own risk, without any guarantee of quality
 50
359.9999999988356194
  7
OD-ISOCP-17
  0
TEXT
  5
1DD0
  8
00-NOPRINT_TEXT
 62
     7
 10
3448.4713334156431301
 20
701.329469899204355
 30
0.0
 40
17.0
  1
or warranty expressly made.
 50
359.9999999988356194
  7
OD-ISOCP-17
  0
TEXT
  5
1DD1
  8
00-NOPRINT_TEXT
 62
     7
 10
3448.4713334144908004
 20
644.6628032325376125
 30
0.0
 40
17.0
  1
- You agree to indemnify OpenDesk, its designers and employees against any damages, losses, obligations, liabilities,
 50
359.9999999988356194
  7
OD-ISOCP-17
  0
TEXT
  5
1DD2
  8
00-NOPRINT_TEXT
 62
     7
 10
3449.087476087945106
 20
616.3294698991917357
 30
0.0
 40
17.0
  1
costs and expenses arising from the use of OpenDesk designs or any derivative designs permitted under the associated
 50
359.9999999988356194
  7
OD-ISOCP-17
  0
TEXT
  5
1DD3
  8
00-NOPRINT_TEXT
 62
     7
 10
3448.8234149413569867
 20
587.9961365658635941
 30
0.0
 40
17.0
  1
license of use.
 50
359.9999999988356194
  7
OD-ISOCP-17
  0
TEXT
  5
1DD4
  8
00-NOPRINT_TEXT
 62
     7
 10
3448.4713334116131591
 20
502.9961365658705859
 30
0.0
 40
17.0
  1
We hope you enjoy your OpenDesk product! Please feel free to notify us of any errors or omissions, share back any
 50
359.9999999988356194
  7
OD-ISOCP-17
  0
TEXT
  5
1DD5
  8
00-NOPRINT_TEXT
 62
     7
 10
3448.4713334110369942
 20
474.6628032325373283
 30
0.0
 40
17.0
  1
feedback or developments on this design, or ask a question by emailing us on hello@opendesk.cc.
 50
359.9999999988356194
  7
OD-ISOCP-17
  0
TEXT
  5
1DD6
  8
00-NOPRINT_TEXT
 62
     7
 10
3448.4713334098851192
 20
417.9961365658708132
 30
0.0
 40
17.0
  1
Welcome to the industrial revolution and thanks for trailblazing!
 50
359.9999999988356194
  7
OD-ISOCP-17
  0
TEXT
  5
1DD7
  8
00-NOPRINT_TEXT
 62
     7
 10
1828.6695041576128915
 20
1154.662803232547958
 30
0.0
 40
17.0
  1
Before starting to cut your product please take account of the following guidelines. These reflect our personal
 50
359.9999999988356194
  7
OD-ISOCP-17
  0
TEXT
  5
1DD8
  8
00-NOPRINT_TEXT
 62
     7
 10
1828.6695041570380909
 20
1126.3294698992149279
 30
0.0
 40
17.0
  1
research and learning and are by no means comprehensive. Please let us know if you have any recommendations for
 50
359.9999999988356194
  7
OD-ISOCP-17
  0
TEXT
  5
1DD9
  8
00-NOPRINT_TEXT
 62
     7
 10
1828.669504156461926
 20
1097.9961365658818977
 30
0.0
 40
17.0
  1
improved standards, and/or cutting methods:
 50
359.9999999988356194
  7
OD-ISOCP-17
  0
TEXT
  5
1DDA
  8
00-NOPRINT_TEXT
 62
     7
 10
1828.6695041553100509
 20
1041.3294698992140184
 30
0.0
 40
17.0
  1
- Every CNC-machine is slightly different, you should follow your machine manufacturer's guidelines for best practice,
 50
359.9999999988356194
  7
OD-ISOCP-17
  0
TEXT
  5
1DDB
  8
00-NOPRINT_TEXT
 62
     7
 10
1828.6695041547350229
 20
1012.9961365658820114
 30
0.0
 40
17.0
  1
and consult your supplier for suitable drill bits and other recommendations. In our experience the best quality finish is
 50
359.9999999988356194
  7
OD-ISOCP-17
  0
TEXT
  5
1DDC
  8
00-NOPRINT_TEXT
 62
     7
 10
1828.6695041541590854
 20
984.6628032325487538
 30
0.0
 40
17.0
  1
achieved using a suitable vacuum bed to prevent material slippage, and a compression cutter to prevent splintering of
 50
359.9999999988356194
  7
OD-ISOCP-17
  0
TEXT
  5
1DDD
  8
00-NOPRINT_TEXT
 62
     7
 10
1828.6695041535829205
 20
956.3294698992154963
 30
0.0
 40
17.0
  1
the surface of the material, however these will not always be available and such details are left to the discretion and
 50
359.9999999988356194
  7
OD-ISOCP-17
  0
TEXT
  5
1DDE
  8
00-NOPRINT_TEXT
 62
     7
 10
1829.197626445034075
 20
927.9961365658714385
 30
0.0
 40
17.0
  1
experience of the fabricator.
 50
359.9999999988356194
  7
OD-ISOCP-17
  0
TEXT
  5
1DDF
  8
00-NOPRINT_TEXT
 62
     7
 10
1828.6695041518560174
 20
871.3294698992157237
 30
0.0
 40
17.0
  1
- It is strongly recommended that you perform some test cuts using the appropriate material prior to fabrication, to
 50
359.9999999988356194
  7
OD-ISOCP-17
  0
TEXT
  5
1DE0
  8
00-NOPRINT_TEXT
 62
     7
 10
1829.2856468253110052
 20
842.9961365658696195
 30
0.0
 40
17.0
  1
calibrate for suitable tolerance and bit size. A test sheet is included in this file. The test file includes some of the
 50
359.9999999988356194
  7
OD-ISOCP-17
  0
TEXT
  5
1DE1
  8
00-NOPRINT_TEXT
 62
     7
 10
1829.2146419459809294
 20
814.6628032325374988
 30
0.0
 40
17.0
  1
standard OpenDesk joints of different types in three varying degrees of tolerance to account for variations in material
 50
359.9999999988356194
  7
OD-ISOCP-17
  0
TEXT
  5
1DE2
  8
00-NOPRINT_TEXT
 62
     7
 10
1828.669504150128887
 20
786.3294698992151552
 30
0.0
 40
17.0
  1
thickness (+/- 1%%%). Please refer to the test sheet guidelines for more information.
 50
359.9999999988356194
  7
OD-ISOCP-17
  0
TEXT
  5
1DE3
  8
00-NOPRINT_TEXT
 62
     7
 10
1828.6695041489779214
 20
729.6628032325486402
 30
0.0
 40
17.0
  1
- It is highly recommended that you accurately measure the thickness of sheet you are using prior to fabrication, for
 50
359.9999999988356194
  7
OD-ISOCP-17
  0
TEXT
  5
1DE4
  8
00-NOPRINT_TEXT
 62
     7
 10
1829.1976264404279391
 20
701.329469899204355
 30
0.0
 40
17.0
  1
example using calipers at several points along the sheet. For best results ensure your sheet is adequately flat and
 50
359.9999999988356194
  7
OD-ISOCP-17
  0
TEXT
  5
1DE5
  8
00-NOPRINT_TEXT
 62
     7
 10
1828.6695041478260464
 20
672.9961365658818977
 30
0.0
 40
17.0
  1
free of any warping, knots, or imperfections.
 50
359.9999999988356194
  7
OD-ISOCP-17
  0
TEXT
  5
1DE6
  8
00-NOPRINT_TEXT
 62
     7
 10
1828.6695041466750808
 20
616.3294698992151552
 30
0.0
 40
17.0
  1
- When performing double-side cuts it is important to locate the flipped sheet exactly, to ensure cuts to both faces
 50
359.9999999988356194
  7
OD-ISOCP-17
  0
TEXT
  5
1DE7
  8
00-NOPRINT_TEXT
 62
     7
 10
1828.669504146098916
 20
587.9961365658816703
 30
0.0
 40
17.0
  1
align correctly. This can be achieved using a suitable jig or locating pucks/noggins according to your machine bed.
 50
359.9999999988356194
  7
OD-ISOCP-17
  0
TEXT
  5
1DE8
  8
00-NOPRINT_TEXT
 62
     7
 10
1828.6695041455229784
 20
559.6628032325484128
 30
0.0
 40
17.0
  1
OpenDesk drawings requiring double-side cutting include at least two no. indicative locations for locator pucks (shown
 50
359.9999999988356194
  7
OD-ISOCP-17
  0
TEXT
  5
1DE9
  8
00-NOPRINT_TEXT
 62
     7
 10
1828.6695041449470409
 20
531.3294698992150416
 30
0.0
 40
17.0
  1
as 60mm diameter circles at opposite corners of the sheet). For more information consult the guidance on
 50
359.9999999988356194
  7
OD-ISOCP-17
  0
TEXT
  5
1DEA
  8
00-NOPRINT_TEXT
 62
     7
 10
1828.6695041443720129
 20
502.9961365658817272
 30
0.0
 40
17.0
  1
www.opendesk.cc.
 50
359.9999999988356194
  7
OD-ISOCP-17
  0
TEXT
  5
1DEB
  8
00-NOPRINT_TEXT
 62
     7
 10
1828.6695041432210473
 20
446.3294698992149279
 30
0.0
 40
17.0
  1
- Inside cuts may produce offcut pieces that can vibrate out of place and interfere with cutting. It is recommended to
 50
359.9999999988356194
  7
OD-ISOCP-17
  0
TEXT
  5
1DEC
  8
00-NOPRINT_TEXT
 62
     7
 10
1829.2146419379200779
 20
417.9961365658704722
 30
0.0
 40
17.0
  1
secure such pieces to the bed prior to cutting for removal afterwards.
 50
359.9999999988356194
  7
OD-ISOCP-17
  0
TEXT
  5
1DED
  8
00-NOPRINT_TEXT
 62
     7
 10
1828.6695041414939169
 20
361.3294698992150984
 30
0.0
 40
17.0
  1
- Where designs include chamfering and pocketing it is strongly advisable to start with these cuts prior to full-depth
 50
359.9999999988356194
  7
OD-ISOCP-17
  0
TEXT
  5
1DEE
  8
00-NOPRINT_TEXT
 62
     7
 10
1829.2856468149479952
 20
332.9961365658692216
 30
0.0
 40
17.0
  1
cut-outs in order to avoid any slippage and misalignment in the material.
 50
359.9999999988356194
  7
OD-ISOCP-17
  0
TEXT
  5
1DEF
  8
00-NOPRINT_TEXT
 62
     7
 10
1828.6695041397670138
 20
276.3294698992149847
 30
0.0
 40
17.0
  1
- Each OpenDesk part can be cut using single of multi-pass cutting. Slower speeds and multiple passes will tend to
 50
359.9999999988356194
  7
OD-ISOCP-17
  0
TEXT
  5
1DF0
  8
00-NOPRINT_TEXT
 62
     7
 10
1828.6695041391910763
 20
247.9961365658818124
 30
0.0
 40
17.0
  1
produce higher quality cuts and reduce the need for sanding and finishing at the expense of cutting time. This is left to
 50
359.9999999988356194
  7
OD-ISOCP-17
  0
TEXT
  5
1DF1
  8
00-NOPRINT_TEXT
 62
     7
 10
1828.6695041386140019
 20
219.6628032325484128
 30
0.0
 40
17.0
  1
the discretion of the user based on their time and machine.
 50
359.9999999988356194
  7
OD-ISOCP-17
  0
TEXT
  5
2380
  8
00-NOPRINT_TEXT
 10
1513.3333252951190389
 20
4049.9196025049582204
 30
0.0
 40
25.0
  1
MIRROR LINE
  7
OD-SIMPLEX-25
  0
TEXT
  5
29C5
  8
00-NOPRINT_TEXT
 10
4883.4939208189989586
 20
3445.5164205068967931
 30
0.0
 40
20.0
  1
DESIGNERS:
  7
OD-SIMPLEX-20
  0
TEXT
  5
29C6
  8
00-NOPRINT_TEXT
 10
4883.4939208189989586
 20
3410.5164205068967931
 30
0.0
 40
13.0
  1
Scarlett San Martin
  7
OD-SIMPLEX-13
  0
TEXT
  5
29C7
  8
00-NOPRINT_TEXT
 10
4883.4939208189989586
 20
3325.5071820994271548
 30
0.0
 40
20.0
  1
DESIGNED FOR CNC-MILLING:
  7
OD-SIMPLEX-20
  0
TEXT
  5
29C8
  8
00-NOPRINT_TEXT
 10
4883.4939208189989586
 20
3290.5071820994271548
 30
0.0
 40
13.0
  1
Recommended drill bit (unless otherwise noted):
  7
OD-SIMPLEX-13
  0
TEXT
  5
29C9
  8
00-NOPRINT_TEXT
 10
4883.4939208189989586
 20
3260.5071820994271548
 30
0.0
 40
13.0
  1
Recommended sheet size (unless otherwise noted):
  7
OD-SIMPLEX-13
  0
TEXT
  5
29CA
  8
00-NOPRINT_TEXT
 10
4883.4939208189989586
 20
3230.5071820994257905
 30
0.0
 40
13.0
  1
Recommended sheet thickness (unless otherwise noted):
  7
OD-SIMPLEX-13
  0
TEXT
  5
29CB
  8
00-NOPRINT_TEXT
 10
4883.4939208189989586
 20
3145.4979436919579712
 30
0.0
 40
20.0
  1
PUBLISHED UNDER CREATIVE COMMONS:
  7
OD-SIMPLEX-20
  0
TEXT
  5
29CC
  8
00-NOPRINT_TEXT
 10
4883.4939208189989586
 20
3110.4979436919597902
 30
0.0
 40
13.0
  1
For full license terms visit: www.opendesk.cc/license
  7
OD-SIMPLEX-13
  0
TEXT
  5
29CD
  8
00-NOPRINT_TEXT
 10
4883.4939208189989586
 20
3025.4887052844910613
 30
0.0
 40
20.0
  1
TERMS AND CONDITIONS APPLY:
  7
OD-SIMPLEX-20
  0
TEXT
  5
29CE
  8
00-NOPRINT_TEXT
 10
4883.4939208189989586
 20
2990.4887052844910613
 30
0.0
 40
13.0
  1
Saving this file serves as acceptance of the Opendesk terms of use 
  7
OD-SIMPLEX-13
  0
TEXT
  5
29CF
  8
00-NOPRINT_TEXT
 10
4883.4939208189989586
 20
3530.5256589143650672
 30
0.0
 40
20.0
  1
License:
  7
OD-SIMPLEX-20
  0
TEXT
  5
29D0
  8
00-NOPRINT_TEXT
 10
4883.4939208189989586
 20
3580.8044715786891175
 30
0.0
 40
20.0
  1
Version:
  7
OD-SIMPLEX-20
  0
TEXT
  5
29D1
  8
00-NOPRINT_TEXT
 10
5203.3195444804487124
 20
3580.8044715786891175
 30
0.0
 40
20.0
  1
Published:
  7
OD-SIMPLEX-20
  0
TEXT
  5
29D2
  8
00-NOPRINT_TEXT
 10
4883.4939208189989586
 20
3694.0832842430099845
 30
0.0
 40
30.0
  1
DESIGN:
  7
OD-SIMPLEX-30
  0
TEXT
  5
29D3
  8
00-NOPRINT_TEXT
 10
4903.4939208189980491
 20
2905.4794668770209682
 30
0.0
 40
20.0
  1
Sheet:
  7
OD-SIMPLEX-20
  0
TEXT
  5
29D4
  8
00-NOPRINT_TEXT
 10
5223.3195444804487124
 20
2905.4794668770209682
 30
0.0
 40
20.0
  1
Date:
  7
OD-SIMPLEX-20
  0
LINE
  5
29D5
  8
00-NOPRINT_TEXT
 62
     7
 10
4883.493920817205435
 20
2946.1578065862690892
 30
0.0
 11
4883.4939208145979137
 21
2884.41824619600402
 31
0.0
  0
LINE
  5
29D6
  8
00-NOPRINT_TEXT
 62
     7
 10
5203.3195444804487124
 20
2884.4230278853119671
 30
0.0
 11
5203.3195444804487124
 21
2946.1578065849648738
 31
0.0
  0
TEXT
  5
29D7
  8
00-NOPRINT_TEXT
 10
5076.2839308692427949
 20
3694.0832842430099845
 30
0.0
 40
30.0
  1
FIN Lockers
  7
OD-SIMPLEX-30
  0
TEXT
  5
29D8
  8
00-NOPRINT_TEXT
 10
5012.6455823829128349
 20
3530.5256589143650672
 30
0.0
 40
20.0
  1
CC Attribution
  7
OD-SIMPLEX-20
  0
TEXT
  5
29D9
  8
00-NOPRINT_TEXT
 10
5012.6455823829128349
 20
3580.8044715786891175
 30
0.0
 40
20.0
  1
V3
  7
OD-SIMPLEX-20
  0
TEXT
  5
29DA
  8
00-NOPRINT_TEXT
 10
5362.616239329840937
 20
3580.8044715786891175
 30
0.0
 40
20.0
  1
14.12.15
  7
OD-SIMPLEX-20
  0
TEXT
  5
29DB
  8
00-NOPRINT_TEXT
 10
5009.0780534014938894
 20
2905.4794668770209682
 30
0.0
 40
20.0
  1
03
  7
OD-SIMPLEX-20
  0
TEXT
  5
29DC
  8
00-NOPRINT_TEXT
 10
5312.9060733650057955
 20
2905.4794668770209682
 30
0.0
 40
20.0
  1
14.12.15
  7
OD-SIMPLEX-20
  0
TEXT
  5
29DD
  8
00-NOPRINT_TEXT
 10
4883.4939208189989586
 20
3631.0832842430099845
 30
0.0
 40
20.0
  1
Range:
  7
OD-SIMPLEX-20
  0
TEXT
  5
29DE
  8
00-NOPRINT_TEXT
 10
4993.7892345867503536
 20
3631.0832842430099845
 30
0.0
 40
20.0
  1
FIN
  7
OD-SIMPLEX-20
  0
TEXT
  5
29DF
  8
00-NOPRINT_TEXT
 10
5383.9682450900572803
 20
3290.5071820994271548
 30
0.0
 40
13.0
  1
8mm
  7
OD-SIMPLEX-13
  0
TEXT
  5
29E0
  8
00-NOPRINT_TEXT
 10
5467.273207929201817
 20
3230.5071820994257905
 30
0.0
 40
13.0
  1
18mm
  7
OD-SIMPLEX-13
  0
TEXT
  5
29E1
  8
00-NOPRINT_TEXT
 10
5413.4154696652476559
 20
3260.5071820994271548
 30
0.0
 40
13.0
  1
2440mm x 1220mm
  7
OD-SIMPLEX-13
  0
POLYLINE
  5
4F7C
  8
TOP-POCKET-INSIDE_09MM
 66
     1
 10
0.0
 20
0.0
 30
0.0
 70
     1
  0
VERTEX
  5
55D6
  8
TOP-POCKET-INSIDE_09MM
 10
1014.424363781268994
 20
2660.8792812881310965
 30
0.0
  0
VERTEX
  5
55D7
  8
TOP-POCKET-INSIDE_09MM
 10
1014.4243637812900261
 20
2555.792989787127226
 30
0.0
 42
0.9999999999999598
  0
VERTEX
  5
55D8
  8
TOP-POCKET-INSIDE_09MM
 10
1020.0812180307780181
 20
2550.1361355376348001
 30
0.0
  0
VERTEX
  5
55D9
  8
TOP-POCKET-INSIDE_09MM
 10
1026.7671837986110859
 20
2550.1361355376348001
 30
0.0
 42
1.0000000000009639
  0
VERTEX
  5
55DA
  8
TOP-POCKET-INSIDE_09MM
 10
1032.4240380480980548
 20
2555.792989787127226
 30
0.0
  0
VERTEX
  5
55DB
  8
TOP-POCKET-INSIDE_09MM
 10
1032.4240380480819113
 20
2660.8792812881310965
 30
0.0
 42
0.9999999999998392
  0
VERTEX
  5
55DC
  8
TOP-POCKET-INSIDE_09MM
 10
1026.7671837985878938
 20
2666.5361355376239771
 30
0.0
  0
VERTEX
  5
55DD
  8
TOP-POCKET-INSIDE_09MM
 10
1020.0812180307619883
 20
2666.5361355376239771
 30
0.0
 42
0.9999999999997587
  0
SEQEND
  5
55DE
  8
TOP-POCKET-INSIDE_09MM
  0
POLYLINE
  5
4F7D
  8
TOP-POCKET-INSIDE_09MM
 66
     1
 10
0.0
 20
0.0
 30
0.0
 70
     1
  0
VERTEX
  5
55DF
  8
TOP-POCKET-INSIDE_09MM
 10
626.6454625147689512
 20
2660.879281288222046
 30
0.0
  0
VERTEX
  5
55E0
  8
TOP-POCKET-INSIDE_09MM
 10
626.6454625147912338
 20
2555.7929897872199945
 30
0.0
 42
0.9999999999999598
  0
VERTEX
  5
55E1
  8
TOP-POCKET-INSIDE_09MM
 10
632.302316764277748
 20
2550.1361355377280233
 30
0.0
  0
VERTEX
  5
55E2
  8
TOP-POCKET-INSIDE_09MM
 10
638.9882825321124074
 20
2550.1361355377280233
 30
0.0
 42
1.0000000000009639
  0
VERTEX
  5
55E3
  8
TOP-POCKET-INSIDE_09MM
 10
644.6451367815974436
 20
2555.7929897872199945
 30
0.0
  0
VERTEX
  5
55E4
  8
TOP-POCKET-INSIDE_09MM
 10
644.6451367815816411
 20
2660.879281288222046
 30
0.0
 42
1.000000000000119
  0
VERTEX
  5
55E5
  8
TOP-POCKET-INSIDE_09MM
 10
638.9882825320892152
 20
2666.5361355377149266
 30
0.0
  0
VERTEX
  5
55E6
  8
TOP-POCKET-INSIDE_09MM
 10
632.3023167642618318
 20
2666.5361355377149266
 30
0.0
 42
0.9999999999997587
  0
SEQEND
  5
55E7
  8
TOP-POCKET-INSIDE_09MM
  0
POLYLINE
  5
4F7E
  8
TOP_POCKET_12MM
 66
     1
 10
0.0
 20
0.0
 30
0.0
 70
     1
  0
VERTEX
  5
55E8
  8
TOP_POCKET_12MM
 10
1401.9999919619879165
 20
2531.5360842954728469
 30
0.0
  0
VERTEX
  5
55E9
  8
TOP_POCKET_12MM
 10
1413.999991961996102
 20
2531.5360842954919462
 30
0.0
  0
VERTEX
  5
55EA
  8
TOP_POCKET_12MM
 10
1413.9999919617860087
 20
2396.8360842954930376
 30
0.0
  0
VERTEX
  5
55EB
  8
TOP_POCKET_12MM
 10
1423.4999919617860087
 20
2396.8360842954930376
 30
0.0
  0
VERTEX
  5
55EC
  8
TOP_POCKET_12MM
 10
1423.4999919618869626
 20
2803.8360842954912187
 30
0.0
  0
VERTEX
  5
55ED
  8
TOP_POCKET_12MM
 10
216.4999919617858097
 20
2803.8360842954939471
 30
0.0
  0
VERTEX
  5
55EE
  8
TOP_POCKET_12MM
 10
216.4999919617858097
 20
2396.8360842954939471
 30
0.0
  0
VERTEX
  5
55EF
  8
TOP_POCKET_12MM
 10
225.9999919617858097
 20
2396.8360842954939471
 30
0.0
  0
VERTEX
  5
55F0
  8
TOP_POCKET_12MM
 10
225.9999919616857085
 20
2531.5360842954919462
 30
0.0
  0
VERTEX
  5
55F1
  8
TOP_POCKET_12MM
 10
237.9999919617858097
 20
2531.5360842954728469
 30
0.0
 42
1.0
  0
VERTEX
  5
55F2
  8
TOP_POCKET_12MM
 10
237.9999919617858097
 20
2539.5360842954719374
 30
0.0
  0
VERTEX
  5
55F3
  8
TOP_POCKET_12MM
 10
237.9999919617858097
 20
2655.1360842954559303
 30
0.0
 42
1.0
  0
VERTEX
  5
55F4
  8
TOP_POCKET_12MM
 10
237.9999919617858097
 20
2663.1360842954559303
 30
0.0
  0
VERTEX
  5
55F5
  8
TOP_POCKET_12MM
 10
225.9999919617858097
 20
2663.136084295494129
 30
0.0
  0
VERTEX
  5
55F6
  8
TOP_POCKET_12MM
 10
225.9999919617858097
 20
2794.3360842954939471
 30
0.0
  0
VERTEX
  5
55F7
  8
TOP_POCKET_12MM
 10
397.2199919618760759
 20
2794.3360842954930376
 30
0.0
  0
VERTEX
  5
55F8
  8
TOP_POCKET_12MM
 10
397.2199919618678905
 20
2782.3360842954830332
 30
0.0
 42
1.0
  0
VERTEX
  5
55F9
  8
TOP_POCKET_12MM
 10
405.2199919618677768
 20
2782.3360842954830332
 30
0.0
  0
VERTEX
  5
55FA
  8
TOP_POCKET_12MM
 10
561.0399919619949287
 20
2782.3360842954830332
 30
0.0
 42
1.0
  0
VERTEX
  5
55FB
  8
TOP_POCKET_12MM
 10
569.0399919619949287
 20
2782.3360842954830332
 30
0.0
  0
VERTEX
  5
55FC
  8
TOP_POCKET_12MM
 10
569.0399919618762397
 20
2794.3360842954930376
 30
0.0
  0
VERTEX
  5
55FD
  8
TOP_POCKET_12MM
 10
740.0599919618871354
 20
2794.3360842954930376
 30
0.0
  0
VERTEX
  5
55FE
  8
TOP_POCKET_12MM
 10
740.0599919618871354
 20
2782.3360842954830332
 30
0.0
 42
1.0
  0
VERTEX
  5
55FF
  8
TOP_POCKET_12MM
 10
748.0599919618871354
 20
2782.3360842954830332
 30
0.0
  0
VERTEX
  5
5600
  8
TOP_POCKET_12MM
 10
891.9399919618867898
 20
2782.3360842954830332
 30
0.0
 42
1.0
  0
VERTEX
  5
5601
  8
TOP_POCKET_12MM
 10
899.9399919618867898
 20
2782.3360842954830332
 30
0.0
  0
VERTEX
  5
5602
  8
TOP_POCKET_12MM
 10
899.9399919618867898
 20
2794.3360842954930376
 30
0.0
  0
VERTEX
  5
5603
  8
TOP_POCKET_12MM
 10
1070.9599919618860895
 20
2794.3360842954930376
 30
0.0
  0
VERTEX
  5
5604
  8
TOP_POCKET_12MM
 10
1070.9599919618260628
 20
2782.3360842954830332
 30
0.0
 42
1.0
  0
VERTEX
  5
5605
  8
TOP_POCKET_12MM
 10
1078.9599919618260628
 20
2782.3360842954830332
 30
0.0
  0
VERTEX
  5
5606
  8
TOP_POCKET_12MM
 10
1234.7799919619540105
 20
2782.3360842954830332
 30
0.0
 42
1.0
  0
VERTEX
  5
5607
  8
TOP_POCKET_12MM
 10
1242.7799919619540105
 20
2782.3360842954830332
 30
0.0
  0
VERTEX
  5
5608
  8
TOP_POCKET_12MM
 10
1242.779991961884889
 20
2794.3360842954912187
 30
0.0
  0
VERTEX
  5
5609
  8
TOP_POCKET_12MM
 10
1413.9999919618869626
 20
2794.3360842954912187
 30
0.0
  0
VERTEX
  5
560A
  8
TOP_POCKET_12MM
 10
1413.9999919617860087
 20
2663.1360842954918553
 30
0.0
  0
VERTEX
  5
560B
  8
TOP_POCKET_12MM
 10
1401.9999919617860087
 20
2663.1360842954918553
 30
0.0
 42
0.9999999999747613
  0
VERTEX
  5
560C
  8
TOP_POCKET_12MM
 10
1401.9999919619879165
 20
2655.1360842954559303
 30
0.0
  0
VERTEX
  5
560D
  8
TOP_POCKET_12MM
 10
1401.9999919619879165
 20
2539.5360842954719374
 30
0.0
 42
1.0
  0
SEQEND
  5
560E
  8
TOP_POCKET_12MM
  0
CIRCLE
  5
4F7F
  8
TOP-POCKET-INSIDE_06MM
 10
1027.8858748882710188
 20
2448.3483627017471917
 30
0.0
 40
12.7279220613561499
  0
CIRCLE
  5
4F80
  8
TOP-POCKET-INSIDE_06MM
 10
251.8727659897612909
 20
2448.3483627017481012
 30
0.0
 40
12.7279220613561499
  0
CIRCLE
  5
4F81
  8
TOP-POCKET-INSIDE_06MM
 10
639.881973621760153
 20
2448.434315285836874
 30
0.0
 40
12.7279220613561499
  0
CIRCLE
  5
4F82
  8
TOP-POCKET-INSIDE_06MM
 10
1027.8858748882501004
 20
2020.1754969440769401
 30
0.0
 40
12.7299999999995599
  0
CIRCLE
  5
4F83
  8
TOP-POCKET-INSIDE_06MM
 10
639.8766672562495614
 20
2020.2614495281870859
 30
0.0
 40
12.7299999999995599
  0
CIRCLE
  5
4F84
  8
TOP-POCKET-INSIDE_06MM
 10
251.8727659897595004
 20
2020.1754969440969489
 30
0.0
 40
12.7279220613563702
  0
POLYLINE
  5
4F85
  8
TOP-CUT-OUTSIDE_18MM
 66
     1
 10
0.0
 20
0.0
 30
0.0
 70
     1
  0
VERTEX
  5
560F
  8
TOP-CUT-OUTSIDE_18MM
 10
228.959369188080899
 20
1982.1632185378459781
 30
0.0
  0
VERTEX
  5
5610
  8
TOP-CUT-OUTSIDE_18MM
 10
1411.040614735680947
 20
1982.1632185378459781
 30
0.0
  0
VERTEX
  5
5611
  8
TOP-CUT-OUTSIDE_18MM
 10
1411.0406147357809914
 20
2105.7758868641581103
 30
0.0
  0
VERTEX
  5
5612
  8
TOP-CUT-OUTSIDE_18MM
 10
1401.9999919618819604
 20
2105.775886864198128
 30
0.0
 42
-1.0000000000096141
  0
VERTEX
  5
5613
  8
TOP-CUT-OUTSIDE_18MM
 10
1401.9999919618790045
 20
2112.7758868641681147
 30
0.0
  0
VERTEX
  5
5614
  8
TOP-CUT-OUTSIDE_18MM
 10
1401.9999919618819604
 20
2223.510011107317041
 30
0.0
 42
-0.9999999999708963
  0
VERTEX
  5
5615
  8
TOP-CUT-OUTSIDE_18MM
 10
1401.9999919618819604
 20
2230.5100111073488733
 30
0.0
  0
VERTEX
  5
5616
  8
TOP-CUT-OUTSIDE_18MM
 10
1411.040614735680947
 20
2230.5100111073479638
 30
0.0
  0
VERTEX
  5
5617
  8
TOP-CUT-OUTSIDE_18MM
 10
1411.040614735680947
 20
2354.1226794336671446
 30
0.0
  0
VERTEX
  5
5618
  8
TOP-CUT-OUTSIDE_18MM
 10
1185.1999919618599506
 20
2354.1632185378480244
 30
0.0
 42
-1.0
  0
VERTEX
  5
5619
  8
TOP-CUT-OUTSIDE_18MM
 10
1178.1999919619800039
 20
2354.1632185378480244
 30
0.0
  0
VERTEX
  5
561A
  8
TOP-CUT-OUTSIDE_18MM
 10
1178.1999919618710919
 20
2363.1632185378471149
 30
0.0
  0
VERTEX
  5
561B
  8
TOP-CUT-OUTSIDE_18MM
 10
1013.5547115917810288
 20
2363.1632185378471149
 30
0.0
  0
VERTEX
  5
561C
  8
TOP-CUT-OUTSIDE_18MM
 10
1013.5547115916820076
 20
2180.1632810216669895
 30
0.0
 42
-1.0
  0
VERTEX
  5
561D
  8
TOP-CUT-OUTSIDE_18MM
 10
1006.5547115916820076
 20
2180.1632810216669895
 30
0.0
  0
VERTEX
  5
561E
  8
TOP-CUT-OUTSIDE_18MM
 10
1002.1547115916820303
 20
2180.1632810216669895
 30
0.0
 42
-0.9999999999927243
  0
VERTEX
  5
561F
  8
TOP-CUT-OUTSIDE_18MM
 10
995.1547115916818029
 20
2180.1632810216669895
 30
0.0
  0
VERTEX
  5
5620
  8
TOP-CUT-OUTSIDE_18MM
 10
995.1547115916818029
 20
2363.1632185378189206
 30
0.0
  0
VERTEX
  5
5621
  8
TOP-CUT-OUTSIDE_18MM
 10
945.39999196187091
 20
2363.1632185378471149
 30
0.0
  0
VERTEX
  5
5622
  8
TOP-CUT-OUTSIDE_18MM
 10
945.39999196187091
 20
2354.1632185378480244
 30
0.0
 42
-1.0
  0
VERTEX
  5
5623
  8
TOP-CUT-OUTSIDE_18MM
 10
938.39999196187091
 20
2354.1632185378480244
 30
0.0
  0
VERTEX
  5
5624
  8
TOP-CUT-OUTSIDE_18MM
 10
719.5999919617997875
 20
2354.1632185378480244
 30
0.0
 42
-1.0
  0
VERTEX
  5
5625
  8
TOP-CUT-OUTSIDE_18MM
 10
712.5999919619712273
 20
2354.1632185378480244
 30
0.0
  0
VERTEX
  5
5626
  8
TOP-CUT-OUTSIDE_18MM
 10
712.5999919618798231
 20
2363.1632185378471149
 30
0.0
  0
VERTEX
  5
5627
  8
TOP-CUT-OUTSIDE_18MM
 10
625.7758103253803483
 20
2363.1632185378471149
 30
0.0
  0
VERTEX
  5
5628
  8
TOP-CUT-OUTSIDE_18MM
 10
625.775810325169914
 20
2180.1632810217270162
 30
0.0
 42
-0.9999999999895408
  0
VERTEX
  5
5629
  8
TOP-CUT-OUTSIDE_18MM
 10
618.7758103252895125
 20
2180.1632810217261067
 30
0.0
  0
VERTEX
  5
562A
  8
TOP-CUT-OUTSIDE_18MM
 10
614.3758103251798275
 20
2180.1632810217270162
 30
0.0
 42
-0.9999999999891347
  0
VERTEX
  5
562B
  8
TOP-CUT-OUTSIDE_18MM
 10
607.3758103253006766
 20
2180.1632810217261067
 30
0.0
  0
VERTEX
  5
562C
  8
TOP-CUT-OUTSIDE_18MM
 10
607.3758103253694571
 20
2363.1632185378471149
 30
0.0
  0
VERTEX
  5
562D
  8
TOP-CUT-OUTSIDE_18MM
 10
479.7999919618819149
 20
2363.1632185378471149
 30
0.0
  0
VERTEX
  5
562E
  8
TOP-CUT-OUTSIDE_18MM
 10
479.7999919618819149
 20
2354.1632185378480244
 30
0.0
 42
-0.9999999999963781
  0
VERTEX
  5
562F
  8
TOP-CUT-OUTSIDE_18MM
 10
472.7999919618818012
 20
2354.1632185378480244
 30
0.0
  0
VERTEX
  5
5630
  8
TOP-CUT-OUTSIDE_18MM
 10
246.9999919618803972
 20
2354.1632185378480244
 30
0.0
  0
VERTEX
  5
5631
  8
TOP-CUT-OUTSIDE_18MM
 10
228.959369188080899
 20
2354.1226794336671446
 30
0.0
  0
VERTEX
  5
5632
  8
TOP-CUT-OUTSIDE_18MM
 10
228.959369188080899
 20
2230.5100111073479638
 30
0.0
  0
VERTEX
  5
5633
  8
TOP-CUT-OUTSIDE_18MM
 10
237.9999919619804132
 20
2230.5100111073479638
 30
0.0
 42
-0.9999999999709611
  0
VERTEX
  5
5634
  8
TOP-CUT-OUTSIDE_18MM
 10
237.9999919619804132
 20
2223.5100111073179505
 30
0.0
  0
VERTEX
  5
5635
  8
TOP-CUT-OUTSIDE_18MM
 10
237.9999919616894033
 20
2112.7758868641681147
 30
0.0
 42
-1.0000000000393521
  0
VERTEX
  5
5636
  8
TOP-CUT-OUTSIDE_18MM
 10
237.9999919618794877
 20
2105.775886864198128
 30
0.0
  0
VERTEX
  5
5637
  8
TOP-CUT-OUTSIDE_18MM
 10
228.959369188080899
 20
2105.7758868641581103
 30
0.0
  0
SEQEND
  5
5638
  8
TOP-CUT-OUTSIDE_18MM
  0
POLYLINE
  5
4F86
  8
TOP-CUT-OUTSIDE_18MM
 66
     1
 10
0.0
 20
0.0
 30
0.0
 70
     1
  0
VERTEX
  5
5639
  8
TOP-CUT-OUTSIDE_18MM
 10
1419.9999919617860087
 20
2445.2836930793118881
 30
0.0
  0
VERTEX
  5
563A
  8
TOP-CUT-OUTSIDE_18MM
 10
1419.9999919617880551
 20
2800.3360842954930376
 30
0.0
  0
VERTEX
  5
563B
  8
TOP-CUT-OUTSIDE_18MM
 10
219.9999919618877016
 20
2800.3360842954971304
 30
0.0
  0
VERTEX
  5
563C
  8
TOP-CUT-OUTSIDE_18MM
 10
219.9999919618857973
 20
2400.3360842954980399
 30
0.0
  0
VERTEX
  5
563D
  8
TOP-CUT-OUTSIDE_18MM
 10
1419.9999919617860087
 20
2400.3360842954930376
 30
0.0
  0
SEQEND
  5
563E
  8
TOP-CUT-OUTSIDE_18MM
  0
CIRCLE
  5
4F87
  8
TOP-POCKET-INSIDE_06MM
 10
1027.8858748881889369
 20
1577.1438643371229773
 30
0.0
 40
12.7299999999995599
  0
CIRCLE
  5
4F88
  8
TOP-POCKET-INSIDE_06MM
 10
639.876667256188739
 20
1577.2298169212328958
 30
0.0
 40
12.7299999999995599
  0
CIRCLE
  5
4F89
  8
TOP-POCKET-INSIDE_06MM
 10
251.8727659896977116
 20
1577.1438643371409398
 30
0.0
 40
12.7279220613563702
  0
POLYLINE
  5
4F8A
  8
TOP-CUT-OUTSIDE_18MM
 66
     1
 10
0.0
 20
0.0
 30
0.0
 70
     1
  0
VERTEX
  5
563F
  8
TOP-CUT-OUTSIDE_18MM
 10
228.9593691880199913
 20
1539.1315859308920153
 30
0.0
  0
VERTEX
  5
5640
  8
TOP-CUT-OUTSIDE_18MM
 10
1411.0406147356191013
 20
1539.1315859308920153
 30
0.0
  0
VERTEX
  5
5641
  8
TOP-CUT-OUTSIDE_18MM
 10
1411.0406147357189184
 20
1662.7442542572030106
 30
0.0
  0
VERTEX
  5
5642
  8
TOP-CUT-OUTSIDE_18MM
 10
1401.9999919618189779
 20
1662.7442542572418915
 30
0.0
 42
-1.0000000000096141
  0
VERTEX
  5
5643
  8
TOP-CUT-OUTSIDE_18MM
 10
1401.9999919618180684
 20
1669.7442542572130151
 30
0.0
  0
VERTEX
  5
5644
  8
TOP-CUT-OUTSIDE_18MM
 10
1401.9999919618189779
 20
1780.4783785003619414
 30
0.0
 42
-0.9999999999708963
  0
VERTEX
  5
5645
  8
TOP-CUT-OUTSIDE_18MM
 10
1401.9999919618189779
 20
1787.4783785003930916
 30
0.0
  0
VERTEX
  5
5646
  8
TOP-CUT-OUTSIDE_18MM
 10
1411.0406147356191013
 20
1787.4783785003930916
 30
0.0
  0
VERTEX
  5
5647
  8
TOP-CUT-OUTSIDE_18MM
 10
1411.0406147356191013
 20
1911.091046826712045
 30
0.0
  0
VERTEX
  5
5648
  8
TOP-CUT-OUTSIDE_18MM
 10
1185.1999919617990145
 20
1911.1315859308920153
 30
0.0
 42
-1.0
  0
VERTEX
  5
5649
  8
TOP-CUT-OUTSIDE_18MM
 10
1178.1999919619190678
 20
1911.1315859308920153
 30
0.0
  0
VERTEX
  5
564A
  8
TOP-CUT-OUTSIDE_18MM
 10
1178.1999919618099284
 20
1920.1315859308920153
 30
0.0
  0
VERTEX
  5
564B
  8
TOP-CUT-OUTSIDE_18MM
 10
1013.554711591719979
 20
1920.1315859308920153
 30
0.0
  0
VERTEX
  5
564C
  8
TOP-CUT-OUTSIDE_18MM
 10
1013.5547115916190251
 20
1737.1316484147118899
 30
0.0
 42
-1.0
  0
VERTEX
  5
564D
  8
TOP-CUT-OUTSIDE_18MM
 10
1006.5547115916200482
 20
1737.1316484147118899
 30
0.0
  0
VERTEX
  5
564E
  8
TOP-CUT-OUTSIDE_18MM
 10
1002.1547115916190478
 20
1737.1316484147118899
 30
0.0
 42
-0.9999999999927243
  0
VERTEX
  5
564F
  8
TOP-CUT-OUTSIDE_18MM
 10
995.1547115916197299
 20
1737.1316484147118899
 30
0.0
  0
VERTEX
  5
5650
  8
TOP-CUT-OUTSIDE_18MM
 10
995.1547115916197299
 20
1920.1315859308629115
 30
0.0
  0
VERTEX
  5
5651
  8
TOP-CUT-OUTSIDE_18MM
 10
945.3999919618090644
 20
1920.1315859308920153
 30
0.0
  0
VERTEX
  5
5652
  8
TOP-CUT-OUTSIDE_18MM
 10
945.3999919618090644
 20
1911.1315859308920153
 30
0.0
 42
-1.0
  0
VERTEX
  5
5653
  8
TOP-CUT-OUTSIDE_18MM
 10
938.3999919618090644
 20
1911.1315859308920153
 30
0.0
  0
VERTEX
  5
5654
  8
TOP-CUT-OUTSIDE_18MM
 10
719.5999919617388514
 20
1911.1315859308920153
 30
0.0
 42
-1.0
  0
VERTEX
  5
5655
  8
TOP-CUT-OUTSIDE_18MM
 10
712.5999919619101775
 20
1911.1315859308920153
 30
0.0
  0
VERTEX
  5
5656
  8
TOP-CUT-OUTSIDE_18MM
 10
712.5999919618184322
 20
1920.1315859308920153
 30
0.0
  0
VERTEX
  5
5657
  8
TOP-CUT-OUTSIDE_18MM
 10
625.7758103253204354
 20
1920.1315859308920153
 30
0.0
  0
VERTEX
  5
5658
  8
TOP-CUT-OUTSIDE_18MM
 10
625.7758103251094326
 20
1737.1316484147719166
 30
0.0
 42
-0.9999999999895735
  0
VERTEX
  5
5659
  8
TOP-CUT-OUTSIDE_18MM
 10
618.7758103252284627
 20
1737.1316484147710071
 30
0.0
  0
VERTEX
  5
565A
  8
TOP-CUT-OUTSIDE_18MM
 10
614.3758103251202556
 20
1737.1316484147719166
 30
0.0
 42
-0.9999999999889233
  0
VERTEX
  5
565B
  8
TOP-CUT-OUTSIDE_18MM
 10
607.3758103252398541
 20
1737.1316484147710071
 30
0.0
  0
VERTEX
  5
565C
  8
TOP-CUT-OUTSIDE_18MM
 10
607.3758103253084073
 20
1920.1315859308920153
 30
0.0
  0
VERTEX
  5
565D
  8
TOP-CUT-OUTSIDE_18MM
 10
479.7999919618201261
 20
1920.1315859308920153
 30
0.0
  0
VERTEX
  5
565E
  8
TOP-CUT-OUTSIDE_18MM
 10
479.7999919618201261
 20
1911.1315859308920153
 30
0.0
 42
-0.999999999996557
  0
VERTEX
  5
565F
  8
TOP-CUT-OUTSIDE_18MM
 10
472.7999919618200124
 20
1911.1315859308929248
 30
0.0
  0
VERTEX
  5
5660
  8
TOP-CUT-OUTSIDE_18MM
 10
246.9999919618203137
 20
1911.1315859308920153
 30
0.0
  0
VERTEX
  5
5661
  8
TOP-CUT-OUTSIDE_18MM
 10
228.9593691880199913
 20
1911.091046826712045
 30
0.0
  0
VERTEX
  5
5662
  8
TOP-CUT-OUTSIDE_18MM
 10
228.9593691880199913
 20
1787.4783785003930916
 30
0.0
  0
VERTEX
  5
5663
  8
TOP-CUT-OUTSIDE_18MM
 10
237.9999919619203865
 20
1787.4783785003930916
 30
0.0
 42
-0.9999999999709611
  0
VERTEX
  5
5664
  8
TOP-CUT-OUTSIDE_18MM
 10
237.9999919619203865
 20
1780.4783785003630783
 30
0.0
  0
VERTEX
  5
5665
  8
TOP-CUT-OUTSIDE_18MM
 10
237.9999919616292914
 20
1669.7442542572130151
 30
0.0
 42
-1.0000000000393681
  0
VERTEX
  5
5666
  8
TOP-CUT-OUTSIDE_18MM
 10
237.9999919618184947
 20
1662.7442542572418915
 30
0.0
  0
VERTEX
  5
5667
  8
TOP-CUT-OUTSIDE_18MM
 10
228.9593691880199913
 20
1662.7442542572030106
 30
0.0
  0
SEQEND
  5
5668
  8
TOP-CUT-OUTSIDE_18MM
  0
LINE
  5
4F99
  8
00_NOPRINT_TOLERANCE
 10
3249.9999919617857813
 20
1343.1924720806209734
 30
0.0
 11
3249.9999919617857813
 21
4008.0000035629659578
 31
0.0
  0
POLYLINE
  5
4FBD
  8
REV_POCKET_9MM
 66
     1
 10
0.0
 20
0.0
 30
0.0
 70
     1
  0
VERTEX
  5
566C
  8
REV_POCKET_9MM
 10
2973.9999919629749456
 20
2480.9929385456421187
 30
0.0
  0
VERTEX
  5
566D
  8
REV_POCKET_9MM
 10
2973.9999919629749456
 20
2490.0792300466491724
 30
0.0
 42
1.000000000000119
  0
VERTEX
  5
566E
  8
REV_POCKET_9MM
 10
2968.343137713482065
 20
2495.7360842961411436
 30
0.0
  0
VERTEX
  5
566F
  8
REV_POCKET_9MM
 10
2961.2568462124768303
 20
2495.7360842961411436
 30
0.0
 42
0.9999999999997587
  0
VERTEX
  5
5670
  8
REV_POCKET_9MM
 10
2955.5999919629862234
 20
2490.0792300466478082
 30
0.0
  0
VERTEX
  5
5671
  8
REV_POCKET_9MM
 10
2955.5999919629862234
 20
2480.9929385456421187
 30
0.0
 42
1.00000000000024
  0
VERTEX
  5
5672
  8
REV_POCKET_9MM
 10
2961.2568462124768303
 20
2475.3360842961501476
 30
0.0
  0
VERTEX
  5
5673
  8
REV_POCKET_9MM
 10
2968.343137713482065
 20
2475.3360842961501476
 30
0.0
 42
0.9999999999999197
  0
SEQEND
  5
5674
  8
REV_POCKET_9MM
  0
POLYLINE
  5
4FBE
  8
REV_POCKET_9MM
 66
     1
 10
0.0
 20
0.0
 30
0.0
 70
     1
  0
VERTEX
  5
5675
  8
REV_POCKET_9MM
 10
2926.7999919629969554
 20
2461.0792300466478082
 30
0.0
  0
VERTEX
  5
5676
  8
REV_POCKET_9MM
 10
2926.7999919629969554
 20
2453.9929385456421187
 30
0.0
 42
1.00000000000024
  0
VERTEX
  5
5677
  8
REV_POCKET_9MM
 10
2932.4568462124871076
 20
2448.3360842961487833
 30
0.0
  0
VERTEX
  5
5678
  8
REV_POCKET_9MM
 10
2941.5431377134950708
 20
2448.3360842961487833
 30
0.0
 42
0.9999999999997587
  0
VERTEX
  5
5679
  8
REV_POCKET_9MM
 10
2947.1999919629870419
 20
2453.9929385456421187
 30
0.0
  0
VERTEX
  5
567A
  8
REV_POCKET_9MM
 10
2947.1999919629870419
 20
2461.0792300466478082
 30
0.0
 42
0.9999999999997989
  0
VERTEX
  5
567B
  8
REV_POCKET_9MM
 10
2941.5431377134950708
 20
2466.7360842961411436
 30
0.0
  0
VERTEX
  5
567C
  8
REV_POCKET_9MM
 10
2932.4568462124871076
 20
2466.7360842961420531
 30
0.0
 42
1.000000000000079
  0
SEQEND
  5
567D
  8
REV_POCKET_9MM
  0
POLYLINE
  5
4FBF
  8
REV_POCKET_9MM
 66
     1
 10
0.0
 20
0.0
 30
0.0
 70
     1
  0
VERTEX
  5
567E
  8
REV_POCKET_9MM
 10
2973.9999919629749456
 20
2719.6792300453480493
 30
0.0
  0
VERTEX
  5
567F
  8
REV_POCKET_9MM
 10
2973.9999919629749456
 20
2710.5929385443409956
 30
0.0
 42
-1.000000000000079
  0
VERTEX
  5
5680
  8
REV_POCKET_9MM
 10
2968.343137713482065
 20
2704.9360842948490244
 30
0.0
  0
VERTEX
  5
5681
  8
REV_POCKET_9MM
 10
2961.2568462124768303
 20
2704.9360842948490244
 30
0.0
 42
-0.9999999999996783
  0
VERTEX
  5
5682
  8
REV_POCKET_9MM
 10
2955.5999919629862234
 20
2710.5929385443428146
 30
0.0
  0
VERTEX
  5
5683
  8
REV_POCKET_9MM
 10
2955.5999919629862234
 20
2719.6792300453480493
 30
0.0
 42
-1.000000000000079
  0
VERTEX
  5
5684
  8
REV_POCKET_9MM
 10
2961.2568462124768303
 20
2725.3360842948418394
 30
0.0
  0
VERTEX
  5
5685
  8
REV_POCKET_9MM
 10
2968.343137713482065
 20
2725.3360842948418394
 30
0.0
 42
-0.9999999999999197
  0
SEQEND
  5
5686
  8
REV_POCKET_9MM
  0
POLYLINE
  5
4FC0
  8
REV_POCKET_9MM
 66
     1
 10
0.0
 20
0.0
 30
0.0
 70
     1
  0
VERTEX
  5
5687
  8
REV_POCKET_9MM
 10
2926.7999919629969554
 20
2739.5929385443428146
 30
0.0
  0
VERTEX
  5
5688
  8
REV_POCKET_9MM
 10
2926.7999919629969554
 20
2746.6792300453480493
 30
0.0
 42
-1.000000000000079
  0
VERTEX
  5
5689
  8
REV_POCKET_9MM
 10
2932.4568462124871076
 20
2752.3360842948409299
 30
0.0
  0
VERTEX
  5
568A
  8
REV_POCKET_9MM
 10
2941.5431377134950708
 20
2752.3360842948409299
 30
0.0
 42
-0.9999999999997587
  0
VERTEX
  5
568B
  8
REV_POCKET_9MM
 10
2947.1999919629870419
 20
2746.6792300453480493
 30
0.0
  0
VERTEX
  5
568C
  8
REV_POCKET_9MM
 10
2947.1999919629870419
 20
2739.5929385443441788
 30
0.0
 42
-1.0000000000003599
  0
VERTEX
  5
568D
  8
REV_POCKET_9MM
 10
2941.5431377134950708
 20
2733.9360842948490244
 30
0.0
  0
VERTEX
  5
568E
  8
REV_POCKET_9MM
 10
2932.4568462124871076
 20
2733.9360842948490244
 30
0.0
 42
-1.0
  0
SEQEND
  5
568F
  8
REV_POCKET_9MM
  0
POLYLINE
  5
4FC1
  8
REV_POCKET_9MM
 66
     1
 10
0.0
 20
0.0
 30
0.0
 70
     1
  0
VERTEX
  5
5690
  8
REV_POCKET_9MM
 10
1905.9999919602639693
 20
2480.9929385455620832
 30
0.0
  0
VERTEX
  5
5691
  8
REV_POCKET_9MM
 10
1905.9999919602619229
 20
2490.0792300465677727
 30
0.0
 42
-1.0000000000003599
  0
VERTEX
  5
5692
  8
REV_POCKET_9MM
 10
1911.6568462097559404
 20
2495.736084296061108
 30
0.0
  0
VERTEX
  5
5693
  8
REV_POCKET_9MM
 10
1918.7431377107620847
 20
2495.7360842960601985
 30
0.0
 42
-0.9999999999998392
  0
VERTEX
  5
5694
  8
REV_POCKET_9MM
 10
1924.3999919602529189
 20
2490.0792300465677727
 30
0.0
  0
VERTEX
  5
5695
  8
REV_POCKET_9MM
 10
1924.3999919602520094
 20
2480.9929385455620832
 30
0.0
 42
-1.0000000000003211
  0
VERTEX
  5
5696
  8
REV_POCKET_9MM
 10
1918.7431377107600383
 20
2475.3360842960692025
 30
0.0
  0
VERTEX
  5
5697
  8
REV_POCKET_9MM
 10
1911.6568462097559404
 20
2475.3360842960692025
 30
0.0
 42
-0.9999999999999197
  0
SEQEND
  5
5698
  8
REV_POCKET_9MM
  0
POLYLINE
  5
4FC2
  8
REV_POCKET_9MM
 66
     1
 10
0.0
 20
0.0
 30
0.0
 70
     1
  0
VERTEX
  5
5699
  8
REV_POCKET_9MM
 10
1953.1999919602419595
 20
2461.0792300465677727
 30
0.0
  0
VERTEX
  5
569A
  8
REV_POCKET_9MM
 10
1953.19999196024105
 20
2453.9929385455620832
 30
0.0
 42
-1.0
  0
VERTEX
  5
569B
  8
REV_POCKET_9MM
 10
1947.5431377107508979
 20
2448.3360842960692025
 30
0.0
  0
VERTEX
  5
569C
  8
REV_POCKET_9MM
 10
1938.4568462097420252
 20
2448.3360842960692025
 30
0.0
 42
-0.9999999999998392
  0
VERTEX
  5
569D
  8
REV_POCKET_9MM
 10
1932.7999919602509635
 20
2453.9929385455620832
 30
0.0
  0
VERTEX
  5
569E
  8
REV_POCKET_9MM
 10
1932.7999919602509635
 20
2461.0792300465677727
 30
0.0
 42
-1.00000000000004
  0
VERTEX
  5
569F
  8
REV_POCKET_9MM
 10
1938.4568462097429347
 20
2466.736084296061108
 30
0.0
  0
VERTEX
  5
56A0
  8
REV_POCKET_9MM
 10
1947.5431377107520348
 20
2466.7360842960601985
 30
0.0
 42
-1.000000000000079
  0
SEQEND
  5
56A1
  8
REV_POCKET_9MM
  0
POLYLINE
  5
4FC3
  8
REV_POCKET_9MM
 66
     1
 10
0.0
 20
0.0
 30
0.0
 70
     1
  0
VERTEX
  5
56A2
  8
REV_POCKET_9MM
 10
1905.9999919602639693
 20
2719.6792300452680138
 30
0.0
  0
VERTEX
  5
56A3
  8
REV_POCKET_9MM
 10
1905.9999919602639693
 20
2710.59293854426096
 30
0.0
 42
1.000000000000079
  0
VERTEX
  5
56A4
  8
REV_POCKET_9MM
 10
1911.6568462097559404
 20
2704.9360842947689889
 30
0.0
  0
VERTEX
  5
56A5
  8
REV_POCKET_9MM
 10
1918.7431377107620847
 20
2704.9360842947698984
 30
0.0
 42
0.9999999999998392
  0
VERTEX
  5
56A6
  8
REV_POCKET_9MM
 10
1924.3999919602529189
 20
2710.59293854426096
 30
0.0
  0
VERTEX
  5
56A7
  8
REV_POCKET_9MM
 10
1924.3999919602529189
 20
2719.6792300452680138
 30
0.0
 42
1.000000000000079
  0
VERTEX
  5
56A8
  8
REV_POCKET_9MM
 10
1918.7431377107600383
 20
2725.3360842947599849
 30
0.0
  0
VERTEX
  5
56A9
  8
REV_POCKET_9MM
 10
1911.6568462097559404
 20
2725.3360842947599849
 30
0.0
 42
0.9999999999999197
  0
SEQEND
  5
56AA
  8
REV_POCKET_9MM
  0
POLYLINE
  5
4FC4
  8
REV_POCKET_9MM
 66
     1
 10
0.0
 20
0.0
 30
0.0
 70
     1
  0
VERTEX
  5
56AB
  8
REV_POCKET_9MM
 10
1953.1999919602419595
 20
2739.592938544262779
 30
0.0
  0
VERTEX
  5
56AC
  8
REV_POCKET_9MM
 10
1953.1999919602430964
 20
2746.6792300452671043
 30
0.0
 42
1.00000000000004
  0
VERTEX
  5
56AD
  8
REV_POCKET_9MM
 10
1947.5431377107508979
 20
2752.3360842947608944
 30
0.0
  0
VERTEX
  5
56AE
  8
REV_POCKET_9MM
 10
1938.4568462097429347
 20
2752.3360842947608944
 30
0.0
 42
0.9999999999997587
  0
VERTEX
  5
56AF
  8
REV_POCKET_9MM
 10
1932.7999919602509635
 20
2746.6792300452671043
 30
0.0
  0
VERTEX
  5
56B0
  8
REV_POCKET_9MM
 10
1932.7999919602509635
 20
2739.592938544262779
 30
0.0
 42
1.000000000000119
  0
VERTEX
  5
56B1
  8
REV_POCKET_9MM
 10
1938.4568462097429347
 20
2733.9360842947689889
 30
0.0
  0
VERTEX
  5
56B2
  8
REV_POCKET_9MM
 10
1947.5431377107520348
 20
2733.9360842947689889
 30
0.0
 42
1.0
  0
SEQEND
  5
56B3
  8
REV_POCKET_9MM
  0
CIRCLE
  5
4FC5
  8
REV_POCKET_6MM
 10
3008.1272179338188835
 20
2020.1754969440989953
 30
0.0
 40
12.7279220613563702
  0
CIRCLE
  5
4FC6
  8
REV_POCKET_6MM
 10
2620.123316667330073
 20
2020.2614495281900417
 30
0.0
 40
12.7300000000000004
  0
CIRCLE
  5
4FC7
  8
REV_POCKET_6MM
 10
2232.1141090353307845
 20
2020.1754969440798959
 30
0.0
 40
12.7300000000000004
  0
CIRCLE
  5
4FC8
  8
REV_POCKET_6MM
 10
3008.1272179338811839
 20
1577.1438643371429862
 30
0.0
 40
12.7279220613563702
  0
CIRCLE
  5
4FC9
  8
REV_POCKET_6MM
 10
2620.1233166673919186
 20
1577.2298169212328958
 30
0.0
 40
12.7300000000000004
  0
CIRCLE
  5
4FCA
  8
REV_POCKET_6MM
 10
2232.1141090353921754
 20
1577.1438643371229773
 30
0.0
 40
12.7300000000000004
  0
POLYLINE
  5
4FD0
  8
TOP-POCKET-INSIDE_09MM
 66
     1
 10
0.0
 20
0.0
 30
0.0
 70
     1
  0
VERTEX
  5
56B4
  8
TOP-POCKET-INSIDE_09MM
 10
4254.4243637812687666
 20
2660.879281288132006
 30
0.0
  0
VERTEX
  5
56B5
  8
TOP-POCKET-INSIDE_09MM
 10
4254.424363781289685
 20
2555.7929897871281355
 30
0.0
 42
0.9999999999999598
  0
VERTEX
  5
56B6
  8
TOP-POCKET-INSIDE_09MM
 10
4260.0812180307775634
 20
2550.1361355376361644
 30
0.0
  0
VERTEX
  5
56B7
  8
TOP-POCKET-INSIDE_09MM
 10
4266.7671837986108585
 20
2550.1361355376361644
 30
0.0
 42
1.0000000000009639
  0
VERTEX
  5
56B8
  8
TOP-POCKET-INSIDE_09MM
 10
4272.4240380480978274
 20
2555.7929897871281355
 30
0.0
  0
VERTEX
  5
56B9
  8
TOP-POCKET-INSIDE_09MM
 10
4272.424038048082366
 20
2660.879281288132006
 30
0.0
 42
0.9999999999998392
  0
VERTEX
  5
56BA
  8
TOP-POCKET-INSIDE_09MM
 10
4266.7671837985890306
 20
2666.5361355376239771
 30
0.0
  0
VERTEX
  5
56BB
  8
TOP-POCKET-INSIDE_09MM
 10
4260.0812180307611925
 20
2666.5361355376257961
 30
0.0
 42
0.9999999999997587
  0
SEQEND
  5
56BC
  8
TOP-POCKET-INSIDE_09MM
  0
POLYLINE
  5
4FD1
  8
TOP-POCKET-INSIDE_09MM
 66
     1
 10
0.0
 20
0.0
 30
0.0
 70
     1
  0
VERTEX
  5
56BD
  8
TOP-POCKET-INSIDE_09MM
 10
3866.6454625147698607
 20
2660.8792812882229555
 30
0.0
  0
VERTEX
  5
56BE
  8
TOP-POCKET-INSIDE_09MM
 10
3866.6454625147907791
 20
2555.7929897872199945
 30
0.0
 42
0.9999999999999598
  0
VERTEX
  5
56BF
  8
TOP-POCKET-INSIDE_09MM
 10
3872.3023167642782028
 20
2550.1361355377289328
 30
0.0
  0
VERTEX
  5
56C0
  8
TOP-POCKET-INSIDE_09MM
 10
3878.9882825321119526
 20
2550.1361355377289328
 30
0.0
 42
1.0000000000009639
  0
VERTEX
  5
56C1
  8
TOP-POCKET-INSIDE_09MM
 10
3884.645136781598012
 20
2555.7929897872199945
 30
0.0
  0
VERTEX
  5
56C2
  8
TOP-POCKET-INSIDE_09MM
 10
3884.6451367815820959
 20
2660.8792812882229555
 30
0.0
 42
1.000000000000119
  0
VERTEX
  5
56C3
  8
TOP-POCKET-INSIDE_09MM
 10
3878.9882825320901247
 20
2666.5361355377172004
 30
0.0
  0
VERTEX
  5
56C4
  8
TOP-POCKET-INSIDE_09MM
 10
3872.3023167642618318
 20
2666.5361355377172004
 30
0.0
 42
0.9999999999997587
  0
SEQEND
  5
56C5
  8
TOP-POCKET-INSIDE_09MM
  0
POLYLINE
  5
4FD2
  8
TOP_POCKET_12MM
 66
     1
 10
0.0
 20
0.0
 30
0.0
 70
     1
  0
VERTEX
  5
56C6
  8
TOP_POCKET_12MM
 10
4641.9999919619867796
 20
2531.5360842954728469
 30
0.0
  0
VERTEX
  5
56C7
  8
TOP_POCKET_12MM
 10
4653.9999919619949651
 20
2531.53608429549422
 30
0.0
  0
VERTEX
  5
56C8
  8
TOP_POCKET_12MM
 10
4653.9999919617848718
 20
2396.8360842954939471
 30
0.0
  0
VERTEX
  5
56C9
  8
TOP_POCKET_12MM
 10
4663.4999919617857813
 20
2396.8360842954939471
 30
0.0
  0
VERTEX
  5
56CA
  8
TOP_POCKET_12MM
 10
4663.4999919618867352
 20
2803.8360842954921281
 30
0.0
  0
VERTEX
  5
56CB
  8
TOP_POCKET_12MM
 10
3456.4999919617857813
 20
2803.8360842954948566
 30
0.0
  0
VERTEX
  5
56CC
  8
TOP_POCKET_12MM
 10
3456.4999919617857813
 20
2396.8360842954939471
 30
0.0
  0
VERTEX
  5
56CD
  8
TOP_POCKET_12MM
 10
3465.9999919617857813
 20
2396.8360842954939471
 30
0.0
  0
VERTEX
  5
56CE
  8
TOP_POCKET_12MM
 10
3465.9999919616861916
 20
2531.53608429549422
 30
0.0
  0
VERTEX
  5
56CF
  8
TOP_POCKET_12MM
 10
3477.9999919617857813
 20
2531.5360842954728469
 30
0.0
 42
1.0
  0
VERTEX
  5
56D0
  8
TOP_POCKET_12MM
 10
3477.9999919617857813
 20
2539.5360842954742111
 30
0.0
  0
VERTEX
  5
56D1
  8
TOP_POCKET_12MM
 10
3477.9999919617857813
 20
2655.1360842954559303
 30
0.0
 42
1.0
  0
VERTEX
  5
56D2
  8
TOP_POCKET_12MM
 10
3477.9999919617857813
 20
2663.1360842954568398
 30
0.0
  0
VERTEX
  5
56D3
  8
TOP_POCKET_12MM
 10
3465.9999919617857813
 20
2663.1360842954950385
 30
0.0
  0
VERTEX
  5
56D4
  8
TOP_POCKET_12MM
 10
3465.9999919617857813
 20
2794.3360842954939471
 30
0.0
  0
VERTEX
  5
56D5
  8
TOP_POCKET_12MM
 10
3637.2199919618760759
 20
2794.3360842954939471
 30
0.0
  0
VERTEX
  5
56D6
  8
TOP_POCKET_12MM
 10
3637.2199919618678905
 20
2782.3360842954848522
 30
0.0
 42
1.0
  0
VERTEX
  5
56D7
  8
TOP_POCKET_12MM
 10
3645.2199919618678905
 20
2782.3360842954848522
 30
0.0
  0
VERTEX
  5
56D8
  8
TOP_POCKET_12MM
 10
3801.0399919619949287
 20
2782.3360842954848522
 30
0.0
 42
1.0
  0
VERTEX
  5
56D9
  8
TOP_POCKET_12MM
 10
3809.0399919619949287
 20
2782.3360842954848522
 30
0.0
  0
VERTEX
  5
56DA
  8
TOP_POCKET_12MM
 10
3809.0399919618757849
 20
2794.3360842954939471
 30
0.0
  0
VERTEX
  5
56DB
  8
TOP_POCKET_12MM
 10
3980.0599919618871354
 20
2794.3360842954939471
 30
0.0
  0
VERTEX
  5
56DC
  8
TOP_POCKET_12MM
 10
3980.0599919618871354
 20
2782.3360842954848522
 30
0.0
 42
1.0
  0
VERTEX
  5
56DD
  8
TOP_POCKET_12MM
 10
3988.0599919618880449
 20
2782.3360842954848522
 30
0.0
  0
VERTEX
  5
56DE
  8
TOP_POCKET_12MM
 10
4131.939991961886335
 20
2782.3360842954848522
 30
0.0
 42
1.0
  0
VERTEX
  5
56DF
  8
TOP_POCKET_12MM
 10
4139.939991961886335
 20
2782.3360842954848522
 30
0.0
  0
VERTEX
  5
56E0
  8
TOP_POCKET_12MM
 10
4139.939991961886335
 20
2794.3360842954939471
 30
0.0
  0
VERTEX
  5
56E1
  8
TOP_POCKET_12MM
 10
4310.9599919618858621
 20
2794.3360842954939471
 30
0.0
  0
VERTEX
  5
56E2
  8
TOP_POCKET_12MM
 10
4310.959991961824926
 20
2782.3360842954848522
 30
0.0
 42
1.0
  0
VERTEX
  5
56E3
  8
TOP_POCKET_12MM
 10
4318.9599919618258355
 20
2782.3360842954848522
 30
0.0
  0
VERTEX
  5
56E4
  8
TOP_POCKET_12MM
 10
4474.7799919619537832
 20
2782.3360842954848522
 30
0.0
 42
1.0
  0
VERTEX
  5
56E5
  8
TOP_POCKET_12MM
 10
4482.7799919619537832
 20
2782.3360842954848522
 30
0.0
  0
VERTEX
  5
56E6
  8
TOP_POCKET_12MM
 10
4482.7799919618846616
 20
2794.3360842954921281
 30
0.0
  0
VERTEX
  5
56E7
  8
TOP_POCKET_12MM
 10
4653.9999919618867352
 20
2794.3360842954921281
 30
0.0
  0
VERTEX
  5
56E8
  8
TOP_POCKET_12MM
 10
4653.9999919617848718
 20
2663.1360842954932195
 30
0.0
  0
VERTEX
  5
56E9
  8
TOP_POCKET_12MM
 10
4641.9999919617848718
 20
2663.1360842954932195
 30
0.0
 42
0.9999999999747613
  0
VERTEX
  5
56EA
  8
TOP_POCKET_12MM
 10
4641.9999919619867796
 20
2655.1360842954559303
 30
0.0
  0
VERTEX
  5
56EB
  8
TOP_POCKET_12MM
 10
4641.9999919619867796
 20
2539.5360842954742111
 30
0.0
 42
1.0
  0
SEQEND
  5
56EC
  8
TOP_POCKET_12MM
  0
CIRCLE
  5
4FD3
  8
TOP-POCKET-INSIDE_06MM
 10
4267.8858748882703367
 20
2448.3483627017481012
 30
0.0
 40
12.7279220613561499
  0
CIRCLE
  5
4FD4
  8
TOP-POCKET-INSIDE_06MM
 10
3491.8727659897608646
 20
2448.3483627017490107
 30
0.0
 40
12.7279220613561499
  0
CIRCLE
  5
4FD5
  8
TOP-POCKET-INSIDE_06MM
 10
3879.881973621760153
 20
2448.434315285836874
 30
0.0
 40
12.7279220613561499
  0
CIRCLE
  5
4FD6
  8
TOP-POCKET-INSIDE_06MM
 10
4267.8858748882503278
 20
2020.1754969440780769
 30
0.0
 40
12.7299999999995599
  0
CIRCLE
  5
4FD7
  8
TOP-POCKET-INSIDE_06MM
 10
3879.8766672562501299
 20
2020.2614495281879954
 30
0.0
 40
12.7299999999995599
  0
CIRCLE
  5
4FD8
  8
TOP-POCKET-INSIDE_06MM
 10
3491.8727659897599551
 20
2020.1754969440980858
 30
0.0
 40
12.7279220613563702
  0
POLYLINE
  5
4FD9
  8
TOP-CUT-OUTSIDE_18MM
 66
     1
 10
0.0
 20
0.0
 30
0.0
 70
     1
  0
VERTEX
  5
56ED
  8
TOP-CUT-OUTSIDE_18MM
 10
3468.9593691880809274
 20
1982.1632185378480244
 30
0.0
  0
VERTEX
  5
56EE
  8
TOP-CUT-OUTSIDE_18MM
 10
4651.0406147356807196
 20
1982.1632185378480244
 30
0.0
  0
VERTEX
  5
56EF
  8
TOP-CUT-OUTSIDE_18MM
 10
4651.0406147357798545
 20
2105.7758868641581103
 30
0.0
  0
VERTEX
  5
56F0
  8
TOP-CUT-OUTSIDE_18MM
 10
4641.9999919618821878
 20
2105.7758868641990375
 30
0.0
 42
-1.0000000000096141
  0
VERTEX
  5
56F1
  8
TOP-CUT-OUTSIDE_18MM
 10
4641.9999919618785498
 20
2112.7758868641699337
 30
0.0
  0
VERTEX
  5
56F2
  8
TOP-CUT-OUTSIDE_18MM
 10
4641.9999919618821878
 20
2223.5100111073179505
 30
0.0
 42
-0.9999999999708963
  0
VERTEX
  5
56F3
  8
TOP-CUT-OUTSIDE_18MM
 10
4641.9999919618821878
 20
2230.5100111073497828
 30
0.0
  0
VERTEX
  5
56F4
  8
TOP-CUT-OUTSIDE_18MM
 10
4651.0406147356807196
 20
2230.5100111073488733
 30
0.0
  0
VERTEX
  5
56F5
  8
TOP-CUT-OUTSIDE_18MM
 10
4651.0406147356807196
 20
2354.1226794336680541
 30
0.0
  0
VERTEX
  5
56F6
  8
TOP-CUT-OUTSIDE_18MM
 10
4425.199991961860178
 20
2354.1632185378480244
 30
0.0
 42
-1.0
  0
VERTEX
  5
56F7
  8
TOP-CUT-OUTSIDE_18MM
 10
4418.1999919619793218
 20
2354.1632185378480244
 30
0.0
  0
VERTEX
  5
56F8
  8
TOP-CUT-OUTSIDE_18MM
 10
4418.1999919618720014
 20
2363.1632185378489339
 30
0.0
  0
VERTEX
  5
56F9
  8
TOP-CUT-OUTSIDE_18MM
 10
4253.5547115917806877
 20
2363.1632185378489339
 30
0.0
  0
VERTEX
  5
56FA
  8
TOP-CUT-OUTSIDE_18MM
 10
4253.5547115916806433
 20
2180.163281021667899
 30
0.0
 42
-1.0
  0
VERTEX
  5
56FB
  8
TOP-CUT-OUTSIDE_18MM
 10
4246.5547115916806433
 20
2180.163281021667899
 30
0.0
  0
VERTEX
  5
56FC
  8
TOP-CUT-OUTSIDE_18MM
 10
4242.1547115916819166
 20
2180.163281021667899
 30
0.0
 42
-0.9999999999927243
  0
VERTEX
  5
56FD
  8
TOP-CUT-OUTSIDE_18MM
 10
4235.1547115916819166
 20
2180.163281021667899
 30
0.0
  0
VERTEX
  5
56FE
  8
TOP-CUT-OUTSIDE_18MM
 10
4235.1547115916819166
 20
2363.1632185378189206
 30
0.0
  0
VERTEX
  5
56FF
  8
TOP-CUT-OUTSIDE_18MM
 10
4185.39999196187091
 20
2363.1632185378489339
 30
0.0
  0
VERTEX
  5
5700
  8
TOP-CUT-OUTSIDE_18MM
 10
4185.39999196187091
 20
2354.1632185378480244
 30
0.0
 42
-1.0
  0
VERTEX
  5
5701
  8
TOP-CUT-OUTSIDE_18MM
 10
4178.3999919618700005
 20
2354.1632185378480244
 30
0.0
  0
VERTEX
  5
5702
  8
TOP-CUT-OUTSIDE_18MM
 10
3959.5999919617997875
 20
2354.1632185378480244
 30
0.0
 42
-1.0
  0
VERTEX
  5
5703
  8
TOP-CUT-OUTSIDE_18MM
 10
3952.5999919619712273
 20
2354.1632185378480244
 30
0.0
  0
VERTEX
  5
5704
  8
TOP-CUT-OUTSIDE_18MM
 10
3952.5999919618798231
 20
2363.1632185378489339
 30
0.0
  0
VERTEX
  5
5705
  8
TOP-CUT-OUTSIDE_18MM
 10
3865.7758103253809168
 20
2363.1632185378489339
 30
0.0
  0
VERTEX
  5
5706
  8
TOP-CUT-OUTSIDE_18MM
 10
3865.775810325169914
 20
2180.1632810217279257
 30
0.0
 42
-0.9999999999895408
  0
VERTEX
  5
5707
  8
TOP-CUT-OUTSIDE_18MM
 10
3858.7758103252899673
 20
2180.1632810217270162
 30
0.0
  0
VERTEX
  5
5708
  8
TOP-CUT-OUTSIDE_18MM
 10
3854.3758103251798275
 20
2180.1632810217279257
 30
0.0
 42
-0.9999999999891347
  0
VERTEX
  5
5709
  8
TOP-CUT-OUTSIDE_18MM
 10
3847.3758103253007903
 20
2180.1632810217270162
 30
0.0
  0
VERTEX
  5
570A
  8
TOP-CUT-OUTSIDE_18MM
 10
3847.3758103253690024
 20
2363.1632185378489339
 30
0.0
  0
VERTEX
  5
570B
  8
TOP-CUT-OUTSIDE_18MM
 10
3719.7999919618819149
 20
2363.1632185378489339
 30
0.0
  0
VERTEX
  5
570C
  8
TOP-CUT-OUTSIDE_18MM
 10
3719.7999919618819149
 20
2354.1632185378480244
 30
0.0
 42
-0.9999999999963781
  0
VERTEX
  5
570D
  8
TOP-CUT-OUTSIDE_18MM
 10
3712.7999919618819149
 20
2354.1632185378489339
 30
0.0
  0
VERTEX
  5
570E
  8
TOP-CUT-OUTSIDE_18MM
 10
3486.9999919618808235
 20
2354.1632185378480244
 30
0.0
  0
VERTEX
  5
570F
  8
TOP-CUT-OUTSIDE_18MM
 10
3468.9593691880809274
 20
2354.1226794336680541
 30
0.0
  0
VERTEX
  5
5710
  8
TOP-CUT-OUTSIDE_18MM
 10
3468.9593691880809274
 20
2230.5100111073488733
 30
0.0
  0
VERTEX
  5
5711
  8
TOP-CUT-OUTSIDE_18MM
 10
3477.9999919619808679
 20
2230.5100111073488733
 30
0.0
 42
-0.9999999999709611
  0
VERTEX
  5
5712
  8
TOP-CUT-OUTSIDE_18MM
 10
3477.9999919619808679
 20
2223.51001110731886
 30
0.0
  0
VERTEX
  5
5713
  8
TOP-CUT-OUTSIDE_18MM
 10
3477.9999919616889201
 20
2112.7758868641681147
 30
0.0
 42
-1.0000000000393521
  0
VERTEX
  5
5714
  8
TOP-CUT-OUTSIDE_18MM
 10
3477.999991961879914
 20
2105.7758868641990375
 30
0.0
  0
VERTEX
  5
5715
  8
TOP-CUT-OUTSIDE_18MM
 10
3468.9593691880809274
 20
2105.7758868641581103
 30
0.0
  0
SEQEND
  5
5716
  8
TOP-CUT-OUTSIDE_18MM
  0
POLYLINE
  5
4FDA
  8
TOP-CUT-OUTSIDE_18MM
 66
     1
 10
0.0
 20
0.0
 30
0.0
 70
     1
  0
VERTEX
  5
5717
  8
TOP-CUT-OUTSIDE_18MM
 10
4659.9999919617857813
 20
2445.2836930793127976
 30
0.0
  0
VERTEX
  5
5718
  8
TOP-CUT-OUTSIDE_18MM
 10
4659.9999919617894193
 20
2800.3360842954939471
 30
0.0
  0
VERTEX
  5
5719
  8
TOP-CUT-OUTSIDE_18MM
 10
3459.9999919618880995
 20
2800.3360842954980399
 30
0.0
  0
VERTEX
  5
571A
  8
TOP-CUT-OUTSIDE_18MM
 10
3459.9999919618858257
 20
2400.3360842954989494
 30
0.0
  0
VERTEX
  5
571B
  8
TOP-CUT-OUTSIDE_18MM
 10
4659.9999919617848718
 20
2400.3360842954939471
 30
0.0
  0
SEQEND
  5
571C
  8
TOP-CUT-OUTSIDE_18MM
  0
CIRCLE
  5
4FDB
  8
TOP-POCKET-INSIDE_06MM
 10
4267.8858748881893916
 20
1577.1438643371238868
 30
0.0
 40
12.7299999999995599
  0
CIRCLE
  5
4FDC
  8
TOP-POCKET-INSIDE_06MM
 10
3879.8766672561891937
 20
1577.2298169212328958
 30
0.0
 40
12.7299999999995599
  0
CIRCLE
  5
4FDD
  8
TOP-POCKET-INSIDE_06MM
 10
3491.8727659896981095
 20
1577.1438643371420767
 30
0.0
 40
12.7279220613563702
  0
POLYLINE
  5
4FDE
  8
TOP-CUT-OUTSIDE_18MM
 66
     1
 10
0.0
 20
0.0
 30
0.0
 70
     1
  0
VERTEX
  5
571D
  8
TOP-CUT-OUTSIDE_18MM
 10
3468.9593691880199913
 20
1539.1315859308929248
 30
0.0
  0
VERTEX
  5
571E
  8
TOP-CUT-OUTSIDE_18MM
 10
4651.040614735618874
 20
1539.1315859308929248
 30
0.0
  0
VERTEX
  5
571F
  8
TOP-CUT-OUTSIDE_18MM
 10
4651.0406147357189184
 20
1662.7442542572030106
 30
0.0
  0
VERTEX
  5
5720
  8
TOP-CUT-OUTSIDE_18MM
 10
4641.9999919618194326
 20
1662.7442542572439379
 30
0.0
 42
-1.0000000000096141
  0
VERTEX
  5
5721
  8
TOP-CUT-OUTSIDE_18MM
 10
4641.9999919618176136
 20
1669.7442542572150614
 30
0.0
  0
VERTEX
  5
5722
  8
TOP-CUT-OUTSIDE_18MM
 10
4641.9999919618194326
 20
1780.4783785003630783
 30
0.0
 42
-0.9999999999708963
  0
VERTEX
  5
5723
  8
TOP-CUT-OUTSIDE_18MM
 10
4641.9999919618194326
 20
1787.4783785003949106
 30
0.0
  0
VERTEX
  5
5724
  8
TOP-CUT-OUTSIDE_18MM
 10
4651.040614735618874
 20
1787.4783785003940011
 30
0.0
  0
VERTEX
  5
5725
  8
TOP-CUT-OUTSIDE_18MM
 10
4651.040614735618874
 20
1911.0910468267129545
 30
0.0
  0
VERTEX
  5
5726
  8
TOP-CUT-OUTSIDE_18MM
 10
4425.1999919617992418
 20
1911.1315859308940617
 30
0.0
 42
-1.0
  0
VERTEX
  5
5727
  8
TOP-CUT-OUTSIDE_18MM
 10
4418.1999919619192951
 20
1911.1315859308940617
 30
0.0
  0
VERTEX
  5
5728
  8
TOP-CUT-OUTSIDE_18MM
 10
4418.1999919618101558
 20
1920.1315859308940617
 30
0.0
  0
VERTEX
  5
5729
  8
TOP-CUT-OUTSIDE_18MM
 10
4253.5547115917197516
 20
1920.1315859308940617
 30
0.0
  0
VERTEX
  5
572A
  8
TOP-CUT-OUTSIDE_18MM
 10
4253.5547115916187977
 20
1737.1316484147130268
 30
0.0
 42
-1.0
  0
VERTEX
  5
572B
  8
TOP-CUT-OUTSIDE_18MM
 10
4246.5547115916197072
 20
1737.1316484147130268
 30
0.0
  0
VERTEX
  5
572C
  8
TOP-CUT-OUTSIDE_18MM
 10
4242.154711591620071
 20
1737.1316484147130268
 30
0.0
 42
-0.9999999999927243
  0
VERTEX
  5
572D
  8
TOP-CUT-OUTSIDE_18MM
 10
4235.154711591620071
 20
1737.1316484147130268
 30
0.0
  0
VERTEX
  5
572E
  8
TOP-CUT-OUTSIDE_18MM
 10
4235.154711591620071
 20
1920.1315859308649578
 30
0.0
  0
VERTEX
  5
572F
  8
TOP-CUT-OUTSIDE_18MM
 10
4185.3999919618090644
 20
1920.1315859308940617
 30
0.0
  0
VERTEX
  5
5730
  8
TOP-CUT-OUTSIDE_18MM
 10
4185.3999919618090644
 20
1911.1315859308940617
 30
0.0
 42
-1.0
  0
VERTEX
  5
5731
  8
TOP-CUT-OUTSIDE_18MM
 10
4178.3999919618090644
 20
1911.1315859308940617
 30
0.0
  0
VERTEX
  5
5732
  8
TOP-CUT-OUTSIDE_18MM
 10
3959.5999919617388514
 20
1911.1315859308940617
 30
0.0
 42
-1.0
  0
VERTEX
  5
5733
  8
TOP-CUT-OUTSIDE_18MM
 10
3952.5999919619112006
 20
1911.1315859308940617
 30
0.0
  0
VERTEX
  5
5734
  8
TOP-CUT-OUTSIDE_18MM
 10
3952.5999919618188869
 20
1920.1315859308940617
 30
0.0
  0
VERTEX
  5
5735
  8
TOP-CUT-OUTSIDE_18MM
 10
3865.7758103253208901
 20
1920.1315859308940617
 30
0.0
  0
VERTEX
  5
5736
  8
TOP-CUT-OUTSIDE_18MM
 10
3865.7758103251098873
 20
1737.1316484147730534
 30
0.0
 42
-0.9999999999895735
  0
VERTEX
  5
5737
  8
TOP-CUT-OUTSIDE_18MM
 10
3858.7758103252290312
 20
1737.1316484147719166
 30
0.0
  0
VERTEX
  5
5738
  8
TOP-CUT-OUTSIDE_18MM
 10
3854.3758103251198008
 20
1737.1316484147730534
 30
0.0
 42
-0.9999999999889233
  0
VERTEX
  5
5739
  8
TOP-CUT-OUTSIDE_18MM
 10
3847.3758103252398541
 20
1737.1316484147719166
 30
0.0
  0
VERTEX
  5
573A
  8
TOP-CUT-OUTSIDE_18MM
 10
3847.3758103253080662
 20
1920.1315859308940617
 30
0.0
  0
VERTEX
  5
573B
  8
TOP-CUT-OUTSIDE_18MM
 10
3719.7999919618209788
 20
1920.1315859308940617
 30
0.0
  0
VERTEX
  5
573C
  8
TOP-CUT-OUTSIDE_18MM
 10
3719.7999919618209788
 20
1911.1315859308940617
 30
0.0
 42
-0.999999999996557
  0
VERTEX
  5
573D
  8
TOP-CUT-OUTSIDE_18MM
 10
3712.7999919618209788
 20
1911.1315859308940617
 30
0.0
  0
VERTEX
  5
573E
  8
TOP-CUT-OUTSIDE_18MM
 10
3486.9999919618198874
 20
1911.1315859308940617
 30
0.0
  0
VERTEX
  5
573F
  8
TOP-CUT-OUTSIDE_18MM
 10
3468.9593691880199913
 20
1911.0910468267129545
 30
0.0
  0
VERTEX
  5
5740
  8
TOP-CUT-OUTSIDE_18MM
 10
3468.9593691880199913
 20
1787.4783785003940011
 30
0.0
  0
VERTEX
  5
5741
  8
TOP-CUT-OUTSIDE_18MM
 10
3477.9999919619208413
 20
1787.4783785003940011
 30
0.0
 42
-0.9999999999709611
  0
VERTEX
  5
5742
  8
TOP-CUT-OUTSIDE_18MM
 10
3477.9999919619208413
 20
1780.4783785003639878
 30
0.0
  0
VERTEX
  5
5743
  8
TOP-CUT-OUTSIDE_18MM
 10
3477.999991961629803
 20
1669.7442542572150614
 30
0.0
 42
-1.0000000000393681
  0
VERTEX
  5
5744
  8
TOP-CUT-OUTSIDE_18MM
 10
3477.9999919618180684
 20
1662.7442542572439379
 30
0.0
  0
VERTEX
  5
5745
  8
TOP-CUT-OUTSIDE_18MM
 10
3468.9593691880199913
 20
1662.7442542572030106
 30
0.0
  0
SEQEND
  5
5746
  8
TOP-CUT-OUTSIDE_18MM
  0
POLYLINE
  5
4FDF
  8
REV_POCKET_9MM
 66
     1
 10
0.0
 20
0.0
 30
0.0
 70
     1
  0
VERTEX
  5
5747
  8
REV_POCKET_9MM
 10
3525.9999919605961622
 20
2480.9929385456421187
 30
0.0
  0
VERTEX
  5
5748
  8
REV_POCKET_9MM
 10
3525.9999919605961622
 20
2490.0792300466491724
 30
0.0
 42
-1.000000000000119
  0
VERTEX
  5
5749
  8
REV_POCKET_9MM
 10
3531.6568462100890429
 20
2495.7360842961411436
 30
0.0
  0
VERTEX
  5
574A
  8
REV_POCKET_9MM
 10
3538.7431377110938229
 20
2495.7360842961411436
 30
0.0
 42
-0.9999999999997587
  0
VERTEX
  5
574B
  8
REV_POCKET_9MM
 10
3544.3999919605848845
 20
2490.0792300466478082
 30
0.0
  0
VERTEX
  5
574C
  8
REV_POCKET_9MM
 10
3544.3999919605848845
 20
2480.9929385456421187
 30
0.0
 42
-1.00000000000024
  0
VERTEX
  5
574D
  8
REV_POCKET_9MM
 10
3538.7431377110938229
 20
2475.3360842961501476
 30
0.0
  0
VERTEX
  5
574E
  8
REV_POCKET_9MM
 10
3531.6568462100890429
 20
2475.3360842961501476
 30
0.0
 42
-0.9999999999999197
  0
SEQEND
  5
574F
  8
REV_POCKET_9MM
  0
POLYLINE
  5
4FE0
  8
REV_POCKET_9MM
 66
     1
 10
0.0
 20
0.0
 30
0.0
 70
     1
  0
VERTEX
  5
5750
  8
REV_POCKET_9MM
 10
3573.1999919605741525
 20
2461.0792300466478082
 30
0.0
  0
VERTEX
  5
5751
  8
REV_POCKET_9MM
 10
3573.1999919605741525
 20
2453.9929385456421187
 30
0.0
 42
-1.00000000000024
  0
VERTEX
  5
5752
  8
REV_POCKET_9MM
 10
3567.5431377110840003
 20
2448.3360842961487833
 30
0.0
  0
VERTEX
  5
5753
  8
REV_POCKET_9MM
 10
3558.4568462100760371
 20
2448.3360842961487833
 30
0.0
 42
-0.9999999999997587
  0
VERTEX
  5
5754
  8
REV_POCKET_9MM
 10
3552.799991960584066
 20
2453.9929385456421187
 30
0.0
  0
VERTEX
  5
5755
  8
REV_POCKET_9MM
 10
3552.799991960584066
 20
2461.0792300466478082
 30
0.0
 42
-0.9999999999997989
  0
VERTEX
  5
5756
  8
REV_POCKET_9MM
 10
3558.4568462100760371
 20
2466.7360842961411436
 30
0.0
  0
VERTEX
  5
5757
  8
REV_POCKET_9MM
 10
3567.5431377110840003
 20
2466.7360842961420531
 30
0.0
 42
-1.000000000000079
  0
SEQEND
  5
5758
  8
REV_POCKET_9MM
  0
POLYLINE
  5
4FE1
  8
REV_POCKET_9MM
 66
     1
 10
0.0
 20
0.0
 30
0.0
 70
     1
  0
VERTEX
  5
5759
  8
REV_POCKET_9MM
 10
3525.9999919605961622
 20
2719.6792300453480493
 30
0.0
  0
VERTEX
  5
575A
  8
REV_POCKET_9MM
 10
3525.9999919605961622
 20
2710.5929385443409956
 30
0.0
 42
1.000000000000079
  0
VERTEX
  5
575B
  8
REV_POCKET_9MM
 10
3531.6568462100890429
 20
2704.9360842948490244
 30
0.0
  0
VERTEX
  5
575C
  8
REV_POCKET_9MM
 10
3538.7431377110938229
 20
2704.9360842948490244
 30
0.0
 42
0.9999999999996783
  0
VERTEX
  5
575D
  8
REV_POCKET_9MM
 10
3544.3999919605848845
 20
2710.5929385443428146
 30
0.0
  0
VERTEX
  5
575E
  8
REV_POCKET_9MM
 10
3544.3999919605848845
 20
2719.6792300453480493
 30
0.0
 42
1.000000000000079
  0
VERTEX
  5
575F
  8
REV_POCKET_9MM
 10
3538.7431377110938229
 20
2725.3360842948418394
 30
0.0
  0
VERTEX
  5
5760
  8
REV_POCKET_9MM
 10
3531.6568462100890429
 20
2725.3360842948418394
 30
0.0
 42
0.9999999999999197
  0
SEQEND
  5
5761
  8
REV_POCKET_9MM
  0
POLYLINE
  5
4FE2
  8
REV_POCKET_9MM
 66
     1
 10
0.0
 20
0.0
 30
0.0
 70
     1
  0
VERTEX
  5
5762
  8
REV_POCKET_9MM
 10
3573.1999919605741525
 20
2739.5929385443428146
 30
0.0
  0
VERTEX
  5
5763
  8
REV_POCKET_9MM
 10
3573.1999919605741525
 20
2746.6792300453480493
 30
0.0
 42
1.000000000000079
  0
VERTEX
  5
5764
  8
REV_POCKET_9MM
 10
3567.5431377110840003
 20
2752.3360842948409299
 30
0.0
  0
VERTEX
  5
5765
  8
REV_POCKET_9MM
 10
3558.4568462100760371
 20
2752.3360842948409299
 30
0.0
 42
0.9999999999997587
  0
VERTEX
  5
5766
  8
REV_POCKET_9MM
 10
3552.799991960584066
 20
2746.6792300453480493
 30
0.0
  0
VERTEX
  5
5767
  8
REV_POCKET_9MM
 10
3552.799991960584066
 20
2739.5929385443441788
 30
0.0
 42
1.0000000000003599
  0
VERTEX
  5
5768
  8
REV_POCKET_9MM
 10
3558.4568462100760371
 20
2733.9360842948490244
 30
0.0
  0
VERTEX
  5
5769
  8
REV_POCKET_9MM
 10
3567.5431377110840003
 20
2733.9360842948490244
 30
0.0
 42
1.0
  0
SEQEND
  5
576A
  8
REV_POCKET_9MM
  0
POLYLINE
  5
4FE3
  8
REV_POCKET_9MM
 66
     1
 10
0.0
 20
0.0
 30
0.0
 70
     1
  0
VERTEX
  5
576B
  8
REV_POCKET_9MM
 10
4593.9999919633073659
 20
2480.9929385455620832
 30
0.0
  0
VERTEX
  5
576C
  8
REV_POCKET_9MM
 10
4593.9999919633082754
 20
2490.0792300465677727
 30
0.0
 42
1.0000000000003599
  0
VERTEX
  5
576D
  8
REV_POCKET_9MM
 10
4588.3431377138149401
 20
2495.736084296061108
 30
0.0
  0
VERTEX
  5
576E
  8
REV_POCKET_9MM
 10
4581.2568462128083411
 20
2495.7360842960601985
 30
0.0
 42
0.9999999999998392
  0
VERTEX
  5
576F
  8
REV_POCKET_9MM
 10
4575.5999919633177342
 20
2490.0792300465677727
 30
0.0
  0
VERTEX
  5
5770
  8
REV_POCKET_9MM
 10
4575.5999919633186437
 20
2480.9929385455620832
 30
0.0
 42
1.0000000000003211
  0
VERTEX
  5
5771
  8
REV_POCKET_9MM
 10
4581.2568462128101601
 20
2475.3360842960692025
 30
0.0
  0
VERTEX
  5
5772
  8
REV_POCKET_9MM
 10
4588.3431377138149401
 20
2475.3360842960692025
 30
0.0
 42
0.9999999999999197
  0
SEQEND
  5
5773
  8
REV_POCKET_9MM
  0
POLYLINE
  5
4FE4
  8
REV_POCKET_9MM
 66
     1
 10
0.0
 20
0.0
 30
0.0
 70
     1
  0
VERTEX
  5
5774
  8
REV_POCKET_9MM
 10
4546.7999919633275567
 20
2461.0792300465677727
 30
0.0
  0
VERTEX
  5
5775
  8
REV_POCKET_9MM
 10
4546.7999919633293757
 20
2453.9929385455620832
 30
0.0
 42
1.0
  0
VERTEX
  5
5776
  8
REV_POCKET_9MM
 10
4552.4568462128199826
 20
2448.3360842960692025
 30
0.0
  0
VERTEX
  5
5777
  8
REV_POCKET_9MM
 10
4561.5431377138293101
 20
2448.3360842960692025
 30
0.0
 42
0.9999999999998392
  0
VERTEX
  5
5778
  8
REV_POCKET_9MM
 10
4567.1999919633190075
 20
2453.9929385455620832
 30
0.0
  0
VERTEX
  5
5779
  8
REV_POCKET_9MM
 10
4567.1999919633190075
 20
2461.0792300465677727
 30
0.0
 42
1.00000000000004
  0
VERTEX
  5
577A
  8
REV_POCKET_9MM
 10
4561.5431377138284006
 20
2466.736084296061108
 30
0.0
  0
VERTEX
  5
577B
  8
REV_POCKET_9MM
 10
4552.4568462128181636
 20
2466.7360842960601985
 30
0.0
 42
1.000000000000079
  0
SEQEND
  5
577C
  8
REV_POCKET_9MM
  0
POLYLINE
  5
4FE5
  8
REV_POCKET_9MM
 66
     1
 10
0.0
 20
0.0
 30
0.0
 70
     1
  0
VERTEX
  5
577D
  8
REV_POCKET_9MM
 10
4593.9999919633073659
 20
2719.6792300452680138
 30
0.0
  0
VERTEX
  5
577E
  8
REV_POCKET_9MM
 10
4593.9999919633073659
 20
2710.59293854426096
 30
0.0
 42
-1.000000000000079
  0
VERTEX
  5
577F
  8
REV_POCKET_9MM
 10
4588.3431377138149401
 20
2704.9360842947689889
 30
0.0
  0
VERTEX
  5
5780
  8
REV_POCKET_9MM
 10
4581.2568462128083411
 20
2704.9360842947698984
 30
0.0
 42
-0.9999999999998392
  0
VERTEX
  5
5781
  8
REV_POCKET_9MM
 10
4575.5999919633177342
 20
2710.59293854426096
 30
0.0
  0
VERTEX
  5
5782
  8
REV_POCKET_9MM
 10
4575.5999919633177342
 20
2719.6792300452680138
 30
0.0
 42
-1.000000000000079
  0
VERTEX
  5
5783
  8
REV_POCKET_9MM
 10
4581.2568462128101601
 20
2725.3360842947599849
 30
0.0
  0
VERTEX
  5
5784
  8
REV_POCKET_9MM
 10
4588.3431377138149401
 20
2725.3360842947599849
 30
0.0
 42
-0.9999999999999197
  0
SEQEND
  5
5785
  8
REV_POCKET_9MM
  0
POLYLINE
  5
4FE6
  8
REV_POCKET_9MM
 66
     1
 10
0.0
 20
0.0
 30
0.0
 70
     1
  0
VERTEX
  5
5786
  8
REV_POCKET_9MM
 10
4546.7999919633275567
 20
2739.592938544262779
 30
0.0
  0
VERTEX
  5
5787
  8
REV_POCKET_9MM
 10
4546.7999919633275567
 20
2746.6792300452671043
 30
0.0
 42
-1.00000000000004
  0
VERTEX
  5
5788
  8
REV_POCKET_9MM
 10
4552.4568462128199826
 20
2752.3360842947608944
 30
0.0
  0
VERTEX
  5
5789
  8
REV_POCKET_9MM
 10
4561.5431377138284006
 20
2752.3360842947608944
 30
0.0
 42
-0.9999999999997587
  0
VERTEX
  5
578A
  8
REV_POCKET_9MM
 10
4567.1999919633190075
 20
2746.6792300452671043
 30
0.0
  0
VERTEX
  5
578B
  8
REV_POCKET_9MM
 10
4567.1999919633190075
 20
2739.592938544262779
 30
0.0
 42
-1.000000000000119
  0
VERTEX
  5
578C
  8
REV_POCKET_9MM
 10
4561.5431377138284006
 20
2733.9360842947689889
 30
0.0
  0
VERTEX
  5
578D
  8
REV_POCKET_9MM
 10
4552.4568462128181636
 20
2733.9360842947689889
 30
0.0
 42
-1.0
  0
SEQEND
  5
578E
  8
REV_POCKET_9MM
  0
CIRCLE
  5
4FE7
  8
REV_POCKET_6MM
 10
3491.8727659897508602
 20
2020.1754969440989953
 30
0.0
 40
12.7279220613563702
  0
CIRCLE
  5
4FE8
  8
REV_POCKET_6MM
 10
3879.8766672562410349
 20
2020.2614495281900417
 30
0.0
 40
12.7300000000000004
  0
CIRCLE
  5
4FE9
  8
REV_POCKET_6MM
 10
4267.8858748882403233
 20
2020.1754969440798959
 30
0.0
 40
12.7300000000000004
  0
CIRCLE
  5
4FEA
  8
REV_POCKET_6MM
 10
3491.872765989689924
 20
1577.1438643371429862
 30
0.0
 40
12.7279220613563702
  0
CIRCLE
  5
4FEB
  8
REV_POCKET_6MM
 10
3879.8766672561791893
 20
1577.2298169212328958
 30
0.0
 40
12.7300000000000004
  0
CIRCLE
  5
4FEC
  8
REV_POCKET_6MM
 10
4267.8858748881775682
 20
1577.1438643371229773
 30
0.0
 40
12.7300000000000004
  0
ENDSEC
  0
EOF
