<?xml version="1.0" standalone="no"?>
<!DOCTYPE svg PUBLIC "-//W3C//DTD SVG 1.1//EN" "http://www.w3.org/Graphics/SVG/1.1/DTD/svg11.dtd">
<svg width="46" height="83" viewBox="-7 -75 46 83" xmlns="http://www.w3.org/2000/svg" version="1.1">
<title>OpenSCAD Model</title>
<path d="
M 35.011,-59.7079 L 35.3929,-59.797 L 35.75,-59.9588 L 36.0687,-60.1871 L 36.3367,-60.4733 L 36.5437,-60.8063
 L 36.6818,-61.1732 L 36.7457,-61.56 L 37,-67.32 L 36.7457,-73.08 L 36.6818,-73.4668 L 36.5437,-73.8337
 L 36.3367,-74.1667 L 36.0687,-74.4528 L 35.75,-74.6812 L 35.3929,-74.843 L 35.011,-74.932 L 34.6192,-74.9449
 L 34.2324,-74.881 L 33.8654,-74.7429 L 29.3952,-72.4013 L 28.4444,-71.8931 L 23.8889,-68.9829 L 23.5858,-68.7342
 L 23.3371,-68.4311 L 23.1523,-68.0854 L 23.0384,-67.7102 L 23,-67.32 L 23.0384,-66.9298 L 23.1523,-66.5546
 L 23.3371,-66.2089 L 23.5858,-65.9058 L 23.8889,-65.6571 L 28.4444,-62.7469 L 29.3952,-62.2387 L 33.8654,-59.8971
 L 34.2324,-59.759 L 34.6192,-59.6951 z
M 34.6195,-71.9577 L 34.4286,-72.0022 L 34.25,-72.0831 L 34.0907,-72.1973 L 33.9566,-72.3404 L 33.8531,-72.5069
 L 33.7841,-72.6903 L 33.7521,-72.8837 L 33.7585,-73.0797 L 33.8031,-73.2706 L 33.884,-73.4491 L 33.9982,-73.6085
 L 34.1412,-73.7425 L 34.3077,-73.846 L 34.4912,-73.9151 L 34.6846,-73.947 L 34.8805,-73.9406 L 35.0714,-73.8961
 L 35.25,-73.8152 L 35.4093,-73.701 L 35.5434,-73.5579 L 35.6469,-73.3914 L 35.7159,-73.208 L 35.7478,-73.0146
 L 35.7414,-72.8186 L 35.6969,-72.6277 L 35.616,-72.4491 L 35.5018,-72.2898 L 35.3587,-72.1558 L 35.1923,-72.0523
 L 35.0088,-71.9832 L 34.8154,-71.9513 z
M 31.1586,-65.6036 L 30.8303,-65.7032 L 30.5278,-65.8649 L 30.2626,-66.0826 L 30.0449,-66.3477 L 29.8832,-66.6503
 L 29.7836,-66.9786 L 29.75,-67.32 L 29.7836,-67.6614 L 29.8832,-67.9897 L 30.0449,-68.2922 L 30.2626,-68.5574
 L 30.5278,-68.7751 L 30.8303,-68.9368 L 31.1586,-69.0364 L 31.5,-69.07 L 31.8414,-69.0364 L 32.1697,-68.9368
 L 32.4722,-68.7751 L 32.7374,-68.5574 L 32.9551,-68.2922 L 33.1168,-67.9897 L 33.2164,-67.6614 L 33.25,-67.32
 L 33.2164,-66.9786 L 33.1168,-66.6503 L 32.9551,-66.3477 L 32.7374,-66.0826 L 32.4722,-65.8649 L 32.1697,-65.7032
 L 31.8414,-65.6036 L 31.5,-65.57 z
M 24.8049,-66.3392 L 24.6173,-66.3961 L 24.4444,-66.4885 L 24.2929,-66.6129 L 24.1685,-66.7644 L 24.0761,-66.9373
 L 24.0192,-67.1249 L 24,-67.32 L 24.0192,-67.5151 L 24.0761,-67.7027 L 24.1685,-67.8755 L 24.2929,-68.0271
 L 24.4444,-68.1515 L 24.6173,-68.2439 L 24.8049,-68.3008 L 25,-68.32 L 25.1951,-68.3008 L 25.3827,-68.2439
 L 25.5556,-68.1515 L 25.7071,-68.0271 L 25.8315,-67.8755 L 25.9239,-67.7027 L 25.9808,-67.5151 L 26,-67.32
 L 25.9808,-67.1249 L 25.9239,-66.9373 L 25.8315,-66.7644 L 25.7071,-66.6129 L 25.5556,-66.4885 L 25.3827,-66.3961
 L 25.1951,-66.3392 L 25,-66.32 z
M 34.4912,-60.7249 L 34.3077,-60.794 L 34.1412,-60.8975 L 33.9982,-61.0315 L 33.884,-61.1908 L 33.8031,-61.3694
 L 33.7585,-61.5603 L 33.7521,-61.7562 L 33.7841,-61.9496 L 33.8531,-62.1331 L 33.9566,-62.2996 L 34.0907,-62.4427
 L 34.25,-62.5569 L 34.4286,-62.6378 L 34.6195,-62.6823 L 34.8154,-62.6887 L 35.0088,-62.6568 L 35.1923,-62.5877
 L 35.3587,-62.4842 L 35.5018,-62.3502 L 35.616,-62.1908 L 35.6969,-62.0123 L 35.7414,-61.8214 L 35.7478,-61.6254
 L 35.7159,-61.432 L 35.6469,-61.2486 L 35.5434,-61.0821 L 35.4093,-60.939 L 35.25,-60.8248 L 35.0714,-60.7439
 L 34.8805,-60.6994 L 34.6846,-60.693 z
M 20.011,-59.7079 L 20.3929,-59.797 L 20.75,-59.9588 L 21.0687,-60.1871 L 21.3367,-60.4733 L 21.5437,-60.8063
 L 21.6818,-61.1732 L 21.7457,-61.56 L 22,-67.32 L 21.7457,-73.08 L 21.6818,-73.4668 L 21.5437,-73.8337
 L 21.3367,-74.1667 L 21.0687,-74.4528 L 20.75,-74.6812 L 20.3929,-74.843 L 20.011,-74.932 L 19.6192,-74.9449
 L 19.2324,-74.881 L 18.8654,-74.7429 L 14.3952,-72.4013 L 13.4444,-71.8931 L 8.88887,-68.9829 L 8.5858,-68.7342
 L 8.33707,-68.4311 L 8.15225,-68.0854 L 8.03844,-67.7102 L 8,-67.32 L 8.03844,-66.9298 L 8.15225,-66.5546
 L 8.33707,-66.2089 L 8.5858,-65.9058 L 8.88887,-65.6571 L 13.4444,-62.7469 L 14.3952,-62.2387 L 18.8654,-59.8971
 L 19.2324,-59.759 L 19.6192,-59.6951 z
M 19.6195,-71.9577 L 19.4286,-72.0022 L 19.25,-72.0831 L 19.0907,-72.1973 L 18.9566,-72.3404 L 18.8531,-72.5069
 L 18.7841,-72.6903 L 18.7521,-72.8837 L 18.7585,-73.0797 L 18.8031,-73.2706 L 18.884,-73.4491 L 18.9982,-73.6085
 L 19.1412,-73.7425 L 19.3077,-73.846 L 19.4912,-73.9151 L 19.6846,-73.947 L 19.8805,-73.9406 L 20.0714,-73.8961
 L 20.25,-73.8152 L 20.4093,-73.701 L 20.5434,-73.5579 L 20.6469,-73.3914 L 20.7159,-73.208 L 20.7478,-73.0146
 L 20.7414,-72.8186 L 20.6969,-72.6277 L 20.616,-72.4491 L 20.5018,-72.2898 L 20.3587,-72.1558 L 20.1923,-72.0523
 L 20.0088,-71.9832 L 19.8154,-71.9513 z
M 13,-65.57 L 13,-69.07 L 20,-69.07 L 20,-65.57 z
M 9.80492,-66.3392 L 9.61732,-66.3961 L 9.44444,-66.4885 L 9.29291,-66.6129 L 9.16853,-66.7644 L 9.07613,-66.9373
 L 9.01923,-67.1249 L 9,-67.32 L 9.01923,-67.5151 L 9.07613,-67.7027 L 9.16853,-67.8755 L 9.29291,-68.0271
 L 9.44444,-68.1515 L 9.61732,-68.2439 L 9.80492,-68.3008 L 10,-68.32 L 10.1951,-68.3008 L 10.3827,-68.2439
 L 10.5556,-68.1515 L 10.7071,-68.0271 L 10.8315,-67.8755 L 10.9239,-67.7027 L 10.9808,-67.5151 L 11,-67.32
 L 10.9808,-67.1249 L 10.9239,-66.9373 L 10.8315,-66.7644 L 10.7071,-66.6129 L 10.5556,-66.4885 L 10.3827,-66.3961
 L 10.1951,-66.3392 L 10,-66.32 z
M 19.4912,-60.7249 L 19.3077,-60.794 L 19.1412,-60.8975 L 18.9982,-61.0315 L 18.884,-61.1908 L 18.8031,-61.3694
 L 18.7585,-61.5603 L 18.7521,-61.7562 L 18.7841,-61.9496 L 18.8531,-62.1331 L 18.9566,-62.2996 L 19.0907,-62.4427
 L 19.25,-62.5569 L 19.4286,-62.6378 L 19.6195,-62.6823 L 19.8154,-62.6887 L 20.0088,-62.6568 L 20.1923,-62.5877
 L 20.3587,-62.4842 L 20.5018,-62.3502 L 20.616,-62.1908 L 20.6969,-62.0123 L 20.7414,-61.8214 L 20.7478,-61.6254
 L 20.7159,-61.432 L 20.6469,-61.2486 L 20.5434,-61.0821 L 20.4093,-60.939 L 20.25,-60.8248 L 20.0714,-60.7439
 L 19.8805,-60.6994 L 19.6846,-60.693 z
M 5.01105,-59.7079 L 5.39287,-59.797 L 5.74998,-59.9588 L 6.06868,-60.1871 L 6.3367,-60.4733 L 6.54373,-60.8063
 L 6.68184,-61.1732 L 6.74571,-61.56 L 7,-67.32 L 6.74571,-73.08 L 6.68184,-73.4668 L 6.54373,-73.8337
 L 6.3367,-74.1667 L 6.06868,-74.4528 L 5.74998,-74.6812 L 5.39287,-74.843 L 5.01105,-74.932 L 4.61919,-74.9449
 L 4.23236,-74.881 L 3.86542,-74.7429 L -0.604752,-72.4013 L -1.55563,-71.8931 L -6.11113,-68.9829 L -6.4142,-68.7342
 L -6.66293,-68.4311 L -6.84775,-68.0854 L -6.96156,-67.7102 L -7,-67.32 L -6.96156,-66.9298 L -6.84775,-66.5546
 L -6.66293,-66.2089 L -6.4142,-65.9058 L -6.11113,-65.6571 L -1.55563,-62.7469 L -0.604752,-62.2387 L 3.86542,-59.8971
 L 4.23236,-59.759 L 4.61919,-59.6951 z
M 4.61946,-71.9577 L 4.42856,-72.0022 L 4.24998,-72.0831 L 4.09065,-72.1973 L 3.95663,-72.3404 L 3.85312,-72.5069
 L 3.78407,-72.6903 L 3.75214,-72.8837 L 3.75854,-73.0797 L 3.80305,-73.2706 L 3.88397,-73.4491 L 3.99815,-73.6085
 L 4.14124,-73.7425 L 4.30771,-73.846 L 4.49118,-73.9151 L 4.68459,-73.947 L 4.88052,-73.9406 L 5.07143,-73.8961
 L 5.24998,-73.8152 L 5.40933,-73.701 L 5.54335,-73.5579 L 5.64687,-73.3914 L 5.71591,-73.208 L 5.74785,-73.0146
 L 5.74144,-72.8186 L 5.69693,-72.6277 L 5.61601,-72.4491 L 5.50183,-72.2898 L 5.35875,-72.1558 L 5.19228,-72.0523
 L 5.0088,-71.9832 L 4.8154,-71.9513 z
M -2,-65.57 L -2,-69.07 L 5,-69.07 L 5,-65.57 z
M -5.19508,-66.3392 L -5.38268,-66.3961 L -5.55556,-66.4885 L -5.70709,-66.6129 L -5.83147,-66.7644 L -5.92387,-66.9373
 L -5.98077,-67.1249 L -6,-67.32 L -5.98077,-67.5151 L -5.92387,-67.7027 L -5.83147,-67.8755 L -5.70709,-68.0271
 L -5.55556,-68.1515 L -5.38268,-68.2439 L -5.19508,-68.3008 L -5,-68.32 L -4.8049,-68.3008 L -4.61731,-68.2439
 L -4.44443,-68.1515 L -4.29289,-68.0271 L -4.16852,-67.8755 L -4.07611,-67.7027 L -4.01921,-67.5151 L -4,-67.32
 L -4.01921,-67.1249 L -4.07611,-66.9373 L -4.16852,-66.7644 L -4.29289,-66.6129 L -4.44443,-66.4885 L -4.61731,-66.3961
 L -4.8049,-66.3392 L -5,-66.32 z
M 4.49118,-60.7249 L 4.30771,-60.794 L 4.14124,-60.8975 L 3.99815,-61.0315 L 3.88397,-61.1908 L 3.80305,-61.3694
 L 3.75854,-61.5603 L 3.75214,-61.7562 L 3.78407,-61.9496 L 3.85312,-62.1331 L 3.95663,-62.2996 L 4.09065,-62.4427
 L 4.24998,-62.5569 L 4.42856,-62.6378 L 4.61946,-62.6823 L 4.8154,-62.6887 L 5.0088,-62.6568 L 5.19228,-62.5877
 L 5.35875,-62.4842 L 5.50183,-62.3502 L 5.61601,-62.1908 L 5.69693,-62.0123 L 5.74144,-61.8214 L 5.74785,-61.6254
 L 5.71591,-61.432 L 5.64687,-61.2486 L 5.54335,-61.0821 L 5.40933,-60.939 L 5.24998,-60.8248 L 5.07143,-60.7439
 L 4.88052,-60.6994 L 4.68459,-60.693 z
M 26.7676,-46.559 L 27.1346,-46.6971 L 31.6047,-49.0387 L 32.5556,-49.5469 L 37.1111,-52.4571 L 37.4142,-52.7058
 L 37.6629,-53.0089 L 37.8477,-53.3546 L 37.9616,-53.7298 L 38,-54.12 L 37.9616,-54.5102 L 37.8477,-54.8854
 L 37.6629,-55.2311 L 37.4142,-55.5342 L 37.1111,-55.7829 L 32.5556,-58.6931 L 31.6048,-59.2013 L 27.1346,-61.5429
 L 26.7677,-61.681 L 26.3808,-61.7449 L 25.989,-61.732 L 25.6071,-61.643 L 25.25,-61.4812 L 24.9313,-61.2528
 L 24.6633,-60.9667 L 24.4563,-60.6337 L 24.3182,-60.2668 L 24.2543,-59.88 L 24,-54.12 L 24.2543,-48.36
 L 24.3181,-47.9732 L 24.4563,-47.6063 L 24.6633,-47.2733 L 24.9313,-46.9872 L 25.25,-46.7588 L 25.6071,-46.597
 L 25.9889,-46.5079 L 26.3808,-46.4951 z
M 25.9912,-58.7832 L 25.8077,-58.8523 L 25.6413,-58.9558 L 25.4982,-59.0898 L 25.384,-59.2491 L 25.3031,-59.4277
 L 25.2586,-59.6186 L 25.2522,-59.8146 L 25.2841,-60.008 L 25.3531,-60.1914 L 25.4567,-60.3579 L 25.5907,-60.501
 L 25.75,-60.6152 L 25.9286,-60.6961 L 26.1195,-60.7406 L 26.3154,-60.747 L 26.5088,-60.7151 L 26.6923,-60.646
 L 26.8588,-60.5425 L 27.0019,-60.4085 L 27.116,-60.2491 L 27.197,-60.0706 L 27.2415,-59.8797 L 27.2479,-59.6837
 L 27.2159,-59.4903 L 27.1469,-59.3069 L 27.0434,-59.1404 L 26.9093,-58.9973 L 26.75,-58.8831 L 26.5714,-58.8022
 L 26.3805,-58.7577 L 26.1846,-58.7513 z
M 28.9147,-51.1776 L 28.352,-51.3484 L 27.8333,-51.6256 L 27.3787,-51.9987 L 27.074,-52.37 L 26,-52.37
 L 26,-55.87 L 27.074,-55.87 L 27.3787,-56.2413 L 27.8333,-56.6144 L 28.352,-56.8916 L 28.9147,-57.0623
 L 29.5,-57.12 L 30.0853,-57.0623 L 30.6481,-56.8916 L 31.1667,-56.6144 L 31.6213,-56.2413 L 31.926,-55.87
 L 33,-55.87 L 33,-52.37 L 31.926,-52.37 L 31.6213,-51.9987 L 31.1667,-51.6256 L 30.648,-51.3484
 L 30.0853,-51.1776 L 29.5,-51.12 z
M 35.8049,-53.1392 L 35.6173,-53.1961 L 35.4444,-53.2885 L 35.2929,-53.4129 L 35.1685,-53.5644 L 35.0761,-53.7373
 L 35.0192,-53.9249 L 35,-54.12 L 35.0192,-54.3151 L 35.0761,-54.5027 L 35.1685,-54.6756 L 35.2929,-54.8271
 L 35.4444,-54.9515 L 35.6173,-55.0439 L 35.8049,-55.1008 L 36,-55.12 L 36.1951,-55.1008 L 36.3827,-55.0439
 L 36.5556,-54.9515 L 36.7071,-54.8271 L 36.8315,-54.6756 L 36.9239,-54.5027 L 36.9808,-54.3151 L 37,-54.12
 L 36.9808,-53.9249 L 36.9239,-53.7373 L 36.8315,-53.5644 L 36.7071,-53.4129 L 36.5556,-53.2885 L 36.3827,-53.1961
 L 36.1951,-53.1392 L 36,-53.12 z
M 26.1195,-47.4994 L 25.9286,-47.5439 L 25.75,-47.6248 L 25.5907,-47.739 L 25.4566,-47.8821 L 25.3531,-48.0486
 L 25.2841,-48.232 L 25.2521,-48.4254 L 25.2585,-48.6214 L 25.3031,-48.8123 L 25.384,-48.9908 L 25.4982,-49.1502
 L 25.6413,-49.2842 L 25.8077,-49.3877 L 25.9912,-49.4568 L 26.1846,-49.4887 L 26.3805,-49.4823 L 26.5714,-49.4378
 L 26.75,-49.3569 L 26.9093,-49.2427 L 27.0434,-49.0996 L 27.1469,-48.9331 L 27.2159,-48.7496 L 27.2478,-48.5562
 L 27.2414,-48.3603 L 27.1969,-48.1694 L 27.116,-47.9908 L 27.0018,-47.8315 L 26.8587,-47.6975 L 26.6923,-47.594
 L 26.5088,-47.5249 L 26.3154,-47.493 z
M -2.73236,-46.559 L -2.36542,-46.6971 L 2.10474,-49.0387 L 3.05562,-49.5469 L 7.61111,-52.4571 L 7.91418,-52.7058
 L 8.16293,-53.0089 L 8.34775,-53.3546 L 8.46156,-53.7298 L 8.5,-54.12 L 8.46156,-54.5102 L 8.34775,-54.8854
 L 8.16293,-55.2311 L 7.9142,-55.5342 L 7.61113,-55.7829 L 3.05563,-58.6931 L 2.10475,-59.2013 L -2.36542,-61.5429
 L -2.73236,-61.681 L -3.11919,-61.7449 L -3.51105,-61.732 L -3.89287,-61.643 L -4.24998,-61.4812 L -4.56868,-61.2528
 L -4.8367,-60.9667 L -5.04373,-60.6337 L -5.18184,-60.2668 L -5.24571,-59.88 L -5.5,-54.12 L -5.24571,-48.36
 L -5.18184,-47.9732 L -5.04373,-47.6063 L -4.8367,-47.2733 L -4.56868,-46.9872 L -4.24998,-46.7588 L -3.89287,-46.597
 L -3.51105,-46.5079 L -3.11919,-46.4951 z
M -3.5088,-58.7832 L -3.69228,-58.8523 L -3.85875,-58.9558 L -4.00183,-59.0898 L -4.11601,-59.2491 L -4.19693,-59.4277
 L -4.24144,-59.6186 L -4.24785,-59.8146 L -4.21591,-60.008 L -4.14687,-60.1914 L -4.04335,-60.3579 L -3.90933,-60.501
 L -3.74998,-60.6152 L -3.57143,-60.6961 L -3.38052,-60.7406 L -3.18459,-60.747 L -2.99118,-60.7151 L -2.80771,-60.646
 L -2.64124,-60.5425 L -2.49815,-60.4085 L -2.38397,-60.2491 L -2.30305,-60.0706 L -2.25854,-59.8797 L -2.25214,-59.6837
 L -2.28407,-59.4903 L -2.35312,-59.3069 L -2.45663,-59.1404 L -2.59065,-58.9973 L -2.74998,-58.8831 L -2.92856,-58.8022
 L -3.11946,-58.7577 L -3.3154,-58.7513 z
M -0.585266,-51.1776 L -1.14804,-51.3484 L -1.6667,-51.6256 L -2.12131,-51.9987 L -2.42604,-52.37 L -3.5,-52.37
 L -3.5,-55.87 L -2.42604,-55.87 L -2.12131,-56.2413 L -1.6667,-56.6144 L -1.14804,-56.8916 L -0.585266,-57.0623
 L 0,-57.12 L 0.585266,-57.0623 L 1.14804,-56.8916 L 1.6667,-56.6144 L 2.12131,-56.2413 L 2.42604,-55.87
 L 3.5,-55.87 L 3.49998,-52.37 L 2.42603,-52.37 L 2.12129,-51.9987 L 1.66669,-51.6256 L 1.14803,-51.3484
 L 0.585251,-51.1776 L 0,-51.12 z
M 6.3049,-53.1392 L 6.11731,-53.1961 L 5.94443,-53.2885 L 5.79289,-53.4129 L 5.66852,-53.5644 L 5.57611,-53.7373
 L 5.51921,-53.9249 L 5.5,-54.12 L 5.51921,-54.3151 L 5.57611,-54.5027 L 5.66852,-54.6756 L 5.79289,-54.8271
 L 5.94443,-54.9515 L 6.11731,-55.0439 L 6.3049,-55.1008 L 6.5,-55.12 L 6.69508,-55.1008 L 6.88268,-55.0439
 L 7.05556,-54.9515 L 7.20709,-54.8271 L 7.33147,-54.6756 L 7.42387,-54.5027 L 7.48077,-54.3151 L 7.5,-54.12
 L 7.48077,-53.9249 L 7.42387,-53.7373 L 7.33147,-53.5644 L 7.20709,-53.4129 L 7.05556,-53.2885 L 6.88268,-53.1961
 L 6.69508,-53.1392 L 6.5,-53.12 z
M -3.38052,-47.4994 L -3.57143,-47.5439 L -3.74998,-47.6248 L -3.90933,-47.739 L -4.04335,-47.8821 L -4.14687,-48.0486
 L -4.21591,-48.232 L -4.24785,-48.4254 L -4.24144,-48.6214 L -4.19693,-48.8123 L -4.11601,-48.9908 L -4.00183,-49.1502
 L -3.85875,-49.2842 L -3.69228,-49.3877 L -3.5088,-49.4568 L -3.3154,-49.4887 L -3.11946,-49.4823 L -2.92856,-49.4378
 L -2.74998,-49.3569 L -2.59065,-49.2427 L -2.45663,-49.0996 L -2.35312,-48.9331 L -2.28407,-48.7496 L -2.25214,-48.5562
 L -2.25854,-48.3603 L -2.30305,-48.1694 L -2.38397,-47.9908 L -2.49815,-47.8315 L -2.64124,-47.6975 L -2.80771,-47.594
 L -2.99118,-47.5249 L -3.18459,-47.493 z
M 12.2676,-46.559 L 12.6346,-46.6971 L 17.1048,-49.0387 L 18.0556,-49.5469 L 22.6111,-52.4571 L 22.9142,-52.7058
 L 23.1629,-53.0089 L 23.3477,-53.3546 L 23.4616,-53.7298 L 23.5,-54.12 L 23.4616,-54.5102 L 23.3477,-54.8854
 L 23.1629,-55.2311 L 22.9142,-55.5342 L 22.6111,-55.7829 L 18.0556,-58.6931 L 17.1048,-59.2013 L 12.6346,-61.5429
 L 12.2676,-61.681 L 11.8808,-61.7449 L 11.489,-61.732 L 11.1071,-61.643 L 10.75,-61.4812 L 10.4313,-61.2528
 L 10.1633,-60.9667 L 9.95627,-60.6337 L 9.81816,-60.2668 L 9.75429,-59.88 L 9.5,-54.12 L 9.75427,-48.36
 L 9.81815,-47.9732 L 9.95625,-47.6063 L 10.1633,-47.2733 L 10.4313,-46.9872 L 10.75,-46.7588 L 11.1071,-46.597
 L 11.4889,-46.5079 L 11.8808,-46.4951 z
M 11.4912,-58.7832 L 11.3077,-58.8523 L 11.1413,-58.9558 L 10.9982,-59.0898 L 10.884,-59.2491 L 10.8031,-59.4277
 L 10.7586,-59.6186 L 10.7522,-59.8146 L 10.7841,-60.008 L 10.8531,-60.1914 L 10.9566,-60.3579 L 11.0907,-60.501
 L 11.25,-60.6152 L 11.4286,-60.6961 L 11.6195,-60.7406 L 11.8154,-60.747 L 12.0088,-60.7151 L 12.1923,-60.646
 L 12.3588,-60.5425 L 12.5018,-60.4085 L 12.616,-60.2491 L 12.6969,-60.0706 L 12.7415,-59.8797 L 12.7479,-59.6837
 L 12.7159,-59.4903 L 12.6469,-59.3069 L 12.5434,-59.1404 L 12.4093,-58.9973 L 12.25,-58.8831 L 12.0714,-58.8022
 L 11.8805,-58.7577 L 11.6846,-58.7513 z
M 14.4147,-51.1776 L 13.8519,-51.3484 L 13.3333,-51.6256 L 12.8787,-51.9987 L 12.5739,-52.37 L 11.5,-52.37
 L 11.5,-55.87 L 12.574,-55.87 L 12.8787,-56.2413 L 13.3333,-56.6144 L 13.852,-56.8916 L 14.4147,-57.0623
 L 15,-57.12 L 15.5853,-57.0623 L 16.148,-56.8916 L 16.6667,-56.6144 L 17.1213,-56.2413 L 17.426,-55.87
 L 18.5,-55.87 L 18.5,-52.37 L 17.426,-52.37 L 17.1213,-51.9987 L 16.6667,-51.6256 L 16.148,-51.3484
 L 15.5853,-51.1776 L 15,-51.12 z
M 21.3049,-53.1392 L 21.1173,-53.1961 L 20.9444,-53.2885 L 20.7929,-53.4129 L 20.6685,-53.5644 L 20.5761,-53.7373
 L 20.5192,-53.9249 L 20.5,-54.12 L 20.5192,-54.3151 L 20.5761,-54.5027 L 20.6685,-54.6756 L 20.7929,-54.8271
 L 20.9444,-54.9515 L 21.1173,-55.0439 L 21.3049,-55.1008 L 21.5,-55.12 L 21.6951,-55.1008 L 21.8827,-55.0439
 L 22.0556,-54.9515 L 22.2071,-54.8271 L 22.3315,-54.6756 L 22.4239,-54.5027 L 22.4808,-54.3151 L 22.5,-54.12
 L 22.4808,-53.9249 L 22.4239,-53.7373 L 22.3315,-53.5644 L 22.2071,-53.4129 L 22.0556,-53.2885 L 21.8827,-53.1961
 L 21.6951,-53.1392 L 21.5,-53.12 z
M 11.6195,-47.4994 L 11.4286,-47.5439 L 11.25,-47.6248 L 11.0907,-47.739 L 10.9566,-47.8821 L 10.8531,-48.0486
 L 10.7841,-48.232 L 10.7521,-48.4254 L 10.7585,-48.6214 L 10.8031,-48.8123 L 10.884,-48.9908 L 10.9982,-49.1502
 L 11.1412,-49.2842 L 11.3077,-49.3877 L 11.4912,-49.4568 L 11.6846,-49.4887 L 11.8805,-49.4823 L 12.0714,-49.4378
 L 12.25,-49.3569 L 12.4093,-49.2427 L 12.5434,-49.0996 L 12.6469,-48.9331 L 12.7159,-48.7496 L 12.7478,-48.5562
 L 12.7414,-48.3603 L 12.6969,-48.1694 L 12.616,-47.9908 L 12.5018,-47.8315 L 12.3587,-47.6975 L 12.1923,-47.594
 L 12.0088,-47.5249 L 11.8154,-47.493 z
M 35.011,-33.308 L 35.3929,-33.397 L 35.75,-33.5588 L 36.0687,-33.7872 L 36.3367,-34.0733 L 36.5437,-34.4063
 L 36.6818,-34.7732 L 36.7457,-35.16 L 37,-40.92 L 36.7457,-46.68 L 36.6818,-47.0668 L 36.5437,-47.4337
 L 36.3367,-47.7667 L 36.0687,-48.0528 L 35.75,-48.2812 L 35.3929,-48.443 L 35.011,-48.532 L 34.6192,-48.5449
 L 34.2324,-48.481 L 33.8654,-48.3429 L 29.3952,-46.0013 L 28.4444,-45.4931 L 23.8889,-42.5829 L 23.5858,-42.3342
 L 23.3371,-42.0311 L 23.1522,-41.6854 L 23.0384,-41.3102 L 23,-40.92 L 23.0384,-40.5298 L 23.1522,-40.1546
 L 23.3371,-39.8089 L 23.5858,-39.5058 L 23.8889,-39.2571 L 28.4444,-36.3469 L 29.3952,-35.8387 L 33.8654,-33.4971
 L 34.2323,-33.359 L 34.6192,-33.2951 z
M 34.6195,-45.5577 L 34.4286,-45.6022 L 34.25,-45.6831 L 34.0907,-45.7973 L 33.9566,-45.9404 L 33.8531,-46.1069
 L 33.7841,-46.2903 L 33.7521,-46.4837 L 33.7585,-46.6797 L 33.8031,-46.8706 L 33.884,-47.0491 L 33.9982,-47.2085
 L 34.1412,-47.3425 L 34.3077,-47.446 L 34.4912,-47.5151 L 34.6846,-47.547 L 34.8805,-47.5406 L 35.0714,-47.4961
 L 35.25,-47.4152 L 35.4093,-47.301 L 35.5434,-47.1579 L 35.6469,-46.9914 L 35.7159,-46.808 L 35.7478,-46.6146
 L 35.7414,-46.4186 L 35.6969,-46.2277 L 35.616,-46.0491 L 35.5018,-45.8898 L 35.3587,-45.7558 L 35.1923,-45.6523
 L 35.0088,-45.5832 L 34.8154,-45.5513 z
M 30.9147,-37.9776 L 30.3519,-38.1484 L 29.8333,-38.4256 L 29.3787,-38.7987 L 29.0739,-39.17 L 28,-39.17
 L 28,-42.67 L 29.0739,-42.67 L 29.3787,-43.0413 L 29.8333,-43.4144 L 30.3519,-43.6916 L 30.9147,-43.8624
 L 31.5,-43.92 L 32.0853,-43.8624 L 32.648,-43.6916 L 33.1667,-43.4144 L 33.6213,-43.0413 L 33.926,-42.67
 L 35,-42.67 L 35,-39.17 L 33.926,-39.17 L 33.6213,-38.7987 L 33.1667,-38.4256 L 32.648,-38.1484
 L 32.0853,-37.9776 L 31.5,-37.92 z
M 24.8049,-39.9392 L 24.6173,-39.9961 L 24.4444,-40.0885 L 24.2929,-40.2129 L 24.1685,-40.3644 L 24.0761,-40.5373
 L 24.0192,-40.7249 L 24,-40.92 L 24.0192,-41.1151 L 24.0761,-41.3027 L 24.1685,-41.4756 L 24.2929,-41.6271
 L 24.4444,-41.7515 L 24.6173,-41.8439 L 24.8049,-41.9008 L 25,-41.92 L 25.1951,-41.9008 L 25.3827,-41.8439
 L 25.5556,-41.7515 L 25.7071,-41.6271 L 25.8315,-41.4756 L 25.9239,-41.3027 L 25.9808,-41.1151 L 26,-40.92
 L 25.9808,-40.7249 L 25.9239,-40.5373 L 25.8315,-40.3644 L 25.7071,-40.2129 L 25.5556,-40.0885 L 25.3827,-39.9961
 L 25.1951,-39.9392 L 25,-39.92 z
M 34.4912,-34.3249 L 34.3077,-34.394 L 34.1412,-34.4975 L 33.9981,-34.6315 L 33.884,-34.7908 L 33.803,-34.9694
 L 33.7585,-35.1603 L 33.7521,-35.3562 L 33.7841,-35.5497 L 33.8531,-35.7331 L 33.9566,-35.8996 L 34.0906,-36.0427
 L 34.25,-36.1569 L 34.4285,-36.2378 L 34.6194,-36.2823 L 34.8154,-36.2887 L 35.0088,-36.2568 L 35.1923,-36.1877
 L 35.3587,-36.0842 L 35.5018,-35.9502 L 35.616,-35.7908 L 35.6969,-35.6123 L 35.7414,-35.4214 L 35.7478,-35.2254
 L 35.7159,-35.032 L 35.6469,-34.8486 L 35.5433,-34.6821 L 35.4093,-34.539 L 35.25,-34.4248 L 35.0714,-34.3439
 L 34.8805,-34.2994 L 34.6846,-34.293 z
M 20.011,-33.308 L 20.3929,-33.397 L 20.75,-33.5588 L 21.0687,-33.7872 L 21.3367,-34.0733 L 21.5437,-34.4063
 L 21.6818,-34.7732 L 21.7457,-35.16 L 22,-40.92 L 21.7457,-46.68 L 21.6818,-47.0668 L 21.5437,-47.4337
 L 21.3367,-47.7667 L 21.0687,-48.0528 L 20.75,-48.2812 L 20.3929,-48.443 L 20.011,-48.532 L 19.6192,-48.5449
 L 19.2324,-48.481 L 18.8654,-48.3429 L 14.3952,-46.0013 L 13.4444,-45.4931 L 8.88885,-42.5829 L 8.58578,-42.3342
 L 8.33705,-42.0311 L 8.15224,-41.6854 L 8.03842,-41.3102 L 7.99998,-40.92 L 8.03842,-40.5298 L 8.15224,-40.1546
 L 8.33705,-39.8089 L 8.58578,-39.5058 L 8.88885,-39.2571 L 13.4444,-36.3469 L 14.3952,-35.8387 L 18.8654,-33.4971
 L 19.2323,-33.359 L 19.6192,-33.2951 z
M 19.6194,-45.5577 L 19.4286,-45.6022 L 19.25,-45.6831 L 19.0907,-45.7973 L 18.9566,-45.9404 L 18.8531,-46.1069
 L 18.7841,-46.2903 L 18.7521,-46.4837 L 18.7585,-46.6797 L 18.8031,-46.8706 L 18.884,-47.0491 L 18.9982,-47.2085
 L 19.1412,-47.3425 L 19.3077,-47.446 L 19.4912,-47.5151 L 19.6846,-47.547 L 19.8805,-47.5406 L 20.0714,-47.4961
 L 20.25,-47.4152 L 20.4093,-47.301 L 20.5434,-47.1579 L 20.6469,-46.9914 L 20.7159,-46.808 L 20.7478,-46.6146
 L 20.7414,-46.4186 L 20.6969,-46.2277 L 20.616,-46.0491 L 20.5018,-45.8898 L 20.3587,-45.7558 L 20.1923,-45.6523
 L 20.0088,-45.5832 L 19.8154,-45.5513 z
M 15.9147,-37.9776 L 15.3519,-38.1484 L 14.8333,-38.4256 L 14.3787,-38.7987 L 14.0739,-39.17 L 13,-39.17
 L 13,-42.67 L 14.0739,-42.67 L 14.3787,-43.0413 L 14.8333,-43.4144 L 15.3519,-43.6916 L 15.9147,-43.8624
 L 16.5,-43.92 L 17.0853,-43.8624 L 17.648,-43.6916 L 18.1667,-43.4144 L 18.6213,-43.0413 L 18.926,-42.67
 L 20,-42.67 L 20,-39.17 L 18.926,-39.17 L 18.6213,-38.7987 L 18.1667,-38.4256 L 17.648,-38.1484
 L 17.0853,-37.9776 L 16.5,-37.92 z
M 9.8049,-39.9392 L 9.61731,-39.9961 L 9.44443,-40.0885 L 9.29289,-40.2129 L 9.16852,-40.3644 L 9.07611,-40.5373
 L 9.01921,-40.7249 L 8.99998,-40.92 L 9.01921,-41.1151 L 9.07611,-41.3027 L 9.16852,-41.4756 L 9.29289,-41.6271
 L 9.44443,-41.7515 L 9.61731,-41.8439 L 9.8049,-41.9008 L 9.99998,-41.92 L 10.1951,-41.9008 L 10.3827,-41.8439
 L 10.5556,-41.7515 L 10.7071,-41.6271 L 10.8315,-41.4756 L 10.9239,-41.3027 L 10.9808,-41.1151 L 11,-40.92
 L 10.9808,-40.7249 L 10.9239,-40.5373 L 10.8315,-40.3644 L 10.7071,-40.2129 L 10.5556,-40.0885 L 10.3827,-39.9961
 L 10.1951,-39.9392 L 9.99998,-39.92 z
M 19.4912,-34.3249 L 19.3077,-34.394 L 19.1412,-34.4975 L 18.9981,-34.6315 L 18.884,-34.7908 L 18.803,-34.9694
 L 18.7585,-35.1603 L 18.7521,-35.3562 L 18.7841,-35.5497 L 18.8531,-35.7331 L 18.9566,-35.8996 L 19.0906,-36.0427
 L 19.25,-36.1569 L 19.4285,-36.2378 L 19.6194,-36.2823 L 19.8154,-36.2887 L 20.0088,-36.2568 L 20.1923,-36.1877
 L 20.3587,-36.0842 L 20.5018,-35.9502 L 20.616,-35.7908 L 20.6969,-35.6123 L 20.7414,-35.4214 L 20.7478,-35.2254
 L 20.7159,-35.032 L 20.6469,-34.8486 L 20.5433,-34.6821 L 20.4093,-34.539 L 20.25,-34.4248 L 20.0714,-34.3439
 L 19.8805,-34.2994 L 19.6846,-34.293 z
M 5.01103,-33.308 L 5.39285,-33.397 L 5.74997,-33.5588 L 6.06866,-33.7872 L 6.33669,-34.0733 L 6.54372,-34.4063
 L 6.68182,-34.7732 L 6.7457,-35.16 L 6.99998,-40.92 L 6.7457,-46.68 L 6.68182,-47.0668 L 6.54372,-47.4337
 L 6.33669,-47.7667 L 6.06866,-48.0528 L 5.74997,-48.2812 L 5.39285,-48.443 L 5.01103,-48.532 L 4.61917,-48.5449
 L 4.23235,-48.481 L 3.8654,-48.3429 L -0.604752,-46.0013 L -1.55563,-45.4931 L -6.11113,-42.5829 L -6.4142,-42.3342
 L -6.66293,-42.0311 L -6.84775,-41.6854 L -6.96156,-41.3102 L -7,-40.92 L -6.96156,-40.5298 L -6.84775,-40.1546
 L -6.66293,-39.8089 L -6.4142,-39.5058 L -6.11113,-39.2571 L -1.55563,-36.3469 L -0.604752,-35.8387 L 3.8654,-33.4971
 L 4.23235,-33.359 L 4.61917,-33.2951 z
M 4.61945,-45.5577 L 4.42854,-45.6022 L 4.24997,-45.6831 L 4.09064,-45.7973 L 3.95662,-45.9404 L 3.8531,-46.1069
 L 3.78406,-46.2903 L 3.75212,-46.4837 L 3.75853,-46.6797 L 3.80304,-46.8706 L 3.88396,-47.0491 L 3.99814,-47.2085
 L 4.14122,-47.3425 L 4.30769,-47.446 L 4.49117,-47.5151 L 4.68457,-47.547 L 4.88051,-47.5406 L 5.07141,-47.4961
 L 5.24997,-47.4152 L 5.40932,-47.301 L 5.54333,-47.1579 L 5.64685,-46.9914 L 5.7159,-46.808 L 5.74783,-46.6146
 L 5.74142,-46.4186 L 5.69691,-46.2277 L 5.616,-46.0491 L 5.50182,-45.8898 L 5.35873,-45.7558 L 5.19226,-45.6523
 L 5.00879,-45.5832 L 4.81538,-45.5513 z
M 0.914719,-37.9776 L 0.351944,-38.1484 L -0.166702,-38.4256 L -0.621307,-38.7987 L -0.926041,-39.17 L -2,-39.17
 L -2,-42.67 L -0.926041,-42.67 L -0.621307,-43.0413 L -0.166702,-43.4144 L 0.351944,-43.6916 L 0.914719,-43.8624
 L 1.49998,-43.92 L 2.08525,-43.8624 L 2.64803,-43.6916 L 3.16669,-43.4144 L 3.62129,-43.0413 L 3.92603,-42.67
 L 4.99998,-42.67 L 4.99998,-39.17 L 3.92603,-39.17 L 3.62129,-38.7987 L 3.16669,-38.4256 L 2.64803,-38.1484
 L 2.08525,-37.9776 L 1.49998,-37.92 z
M -5.19508,-39.9392 L -5.38268,-39.9961 L -5.55556,-40.0885 L -5.70709,-40.2129 L -5.83147,-40.3644 L -5.92387,-40.5373
 L -5.98077,-40.7249 L -6,-40.92 L -5.98077,-41.1151 L -5.92387,-41.3027 L -5.83147,-41.4756 L -5.70709,-41.6271
 L -5.55556,-41.7515 L -5.38268,-41.8439 L -5.19508,-41.9008 L -5,-41.92 L -4.8049,-41.9008 L -4.61731,-41.8439
 L -4.44443,-41.7515 L -4.29289,-41.6271 L -4.16852,-41.4756 L -4.07611,-41.3027 L -4.01921,-41.1151 L -4,-40.92
 L -4.01921,-40.7249 L -4.07611,-40.5373 L -4.16852,-40.3644 L -4.29289,-40.2129 L -4.44443,-40.0885 L -4.61731,-39.9961
 L -4.8049,-39.9392 L -5,-39.92 z
M 4.49117,-34.3249 L 4.30769,-34.394 L 4.14122,-34.4975 L 3.99814,-34.6315 L 3.88396,-34.7908 L 3.80304,-34.9694
 L 3.75853,-35.1603 L 3.75212,-35.3562 L 3.78406,-35.5497 L 3.8531,-35.7331 L 3.95662,-35.8996 L 4.09064,-36.0427
 L 4.24997,-36.1569 L 4.42854,-36.2378 L 4.61945,-36.2823 L 4.81538,-36.2887 L 5.00879,-36.2568 L 5.19226,-36.1877
 L 5.35873,-36.0842 L 5.50182,-35.9502 L 5.616,-35.7908 L 5.69691,-35.6123 L 5.74142,-35.4214 L 5.74783,-35.2254
 L 5.7159,-35.032 L 5.64685,-34.8486 L 5.54333,-34.6821 L 5.40932,-34.539 L 5.24997,-34.4248 L 5.07141,-34.3439
 L 4.88051,-34.2994 L 4.68457,-34.293 z
M 27.2676,-18.839 L 27.6346,-18.9771 L 32.1048,-21.3187 L 33.0556,-21.8269 L 37.6111,-24.7371 L 37.9142,-24.9858
 L 38.1629,-25.2889 L 38.3477,-25.6346 L 38.4616,-26.0098 L 38.5,-26.4 L 38.4616,-26.7902 L 38.3477,-27.1654
 L 38.1629,-27.5111 L 37.9142,-27.8142 L 37.6111,-28.0629 L 33.0556,-30.9731 L 32.1048,-31.4813 L 27.6346,-33.8229
 L 27.2676,-33.961 L 26.8808,-34.0249 L 26.489,-34.012 L 26.1071,-33.923 L 25.75,-33.7612 L 25.4313,-33.5328
 L 25.1633,-33.2467 L 24.9563,-32.9137 L 24.8182,-32.5468 L 24.7543,-32.16 L 24.5,-26.4 L 24.7543,-20.64
 L 24.8182,-20.2532 L 24.9563,-19.8863 L 25.1633,-19.5533 L 25.4313,-19.2672 L 25.75,-19.0388 L 26.1071,-18.877
 L 26.489,-18.7879 L 26.8808,-18.7751 z
M 26.4912,-31.0632 L 26.3077,-31.1323 L 26.1413,-31.2358 L 25.9982,-31.3698 L 25.884,-31.5291 L 25.8031,-31.7077
 L 25.7586,-31.8986 L 25.7522,-32.0946 L 25.7841,-32.288 L 25.8531,-32.4714 L 25.9566,-32.6379 L 26.0907,-32.781
 L 26.25,-32.8952 L 26.4286,-32.9761 L 26.6195,-33.0206 L 26.8154,-33.027 L 27.0088,-32.9951 L 27.1923,-32.926
 L 27.3588,-32.8225 L 27.5018,-32.6885 L 27.616,-32.5291 L 27.6969,-32.3506 L 27.7415,-32.1597 L 27.7479,-31.9637
 L 27.7159,-31.7703 L 27.6469,-31.5869 L 27.5434,-31.4204 L 27.4093,-31.2773 L 27.25,-31.1631 L 27.0714,-31.0822
 L 26.8805,-31.0377 L 26.6846,-31.0313 z
M 29.4147,-23.4576 L 28.852,-23.6284 L 28.3333,-23.9056 L 27.8787,-24.2787 L 27.574,-24.65 L 26.5,-24.65
 L 26.5,-28.15 L 27.574,-28.15 L 27.8787,-28.5213 L 28.3333,-28.8944 L 28.852,-29.1716 L 29.4147,-29.3423
 L 30,-29.4 L 30.5853,-29.3423 L 31.148,-29.1716 L 31.6667,-28.8944 L 32.1213,-28.5213 L 32.426,-28.15
 L 33.5,-28.15 L 33.5,-24.65 L 32.426,-24.65 L 32.1213,-24.2787 L 31.6667,-23.9056 L 31.148,-23.6284
 L 30.5853,-23.4576 L 30,-23.4 z
M 36.3049,-25.4192 L 36.1173,-25.4761 L 35.9444,-25.5685 L 35.7929,-25.6929 L 35.6685,-25.8444 L 35.5761,-26.0173
 L 35.5192,-26.2049 L 35.5,-26.4 L 35.5192,-26.5951 L 35.5761,-26.7827 L 35.6685,-26.9556 L 35.7929,-27.1071
 L 35.9444,-27.2315 L 36.1173,-27.3239 L 36.3049,-27.3808 L 36.5,-27.4 L 36.6951,-27.3808 L 36.8827,-27.3239
 L 37.0556,-27.2315 L 37.2071,-27.1071 L 37.3315,-26.9556 L 37.4239,-26.7827 L 37.4808,-26.5951 L 37.5,-26.4
 L 37.4808,-26.2049 L 37.4239,-26.0173 L 37.3315,-25.8444 L 37.2071,-25.6929 L 37.0556,-25.5685 L 36.8827,-25.4761
 L 36.6951,-25.4192 L 36.5,-25.4 z
M 26.6195,-19.7794 L 26.4286,-19.8239 L 26.25,-19.9048 L 26.0907,-20.019 L 25.9566,-20.1621 L 25.8531,-20.3286
 L 25.7841,-20.512 L 25.7522,-20.7054 L 25.7586,-20.9014 L 25.8031,-21.0923 L 25.884,-21.2708 L 25.9982,-21.4302
 L 26.1413,-21.5642 L 26.3077,-21.6677 L 26.4912,-21.7368 L 26.6846,-21.7687 L 26.8805,-21.7623 L 27.0714,-21.7178
 L 27.25,-21.6369 L 27.4093,-21.5227 L 27.5434,-21.3796 L 27.6469,-21.2131 L 27.7159,-21.0296 L 27.7479,-20.8362
 L 27.7415,-20.6403 L 27.6969,-20.4494 L 27.616,-20.2708 L 27.5018,-20.1115 L 27.3588,-19.9775 L 27.1923,-19.874
 L 27.0088,-19.8049 L 26.8154,-19.773 z
M 12.2676,-18.839 L 12.6346,-18.9771 L 17.1048,-21.3187 L 18.0556,-21.8269 L 22.6111,-24.7371 L 22.9142,-24.9858
 L 23.1629,-25.2889 L 23.3477,-25.6346 L 23.4616,-26.0098 L 23.5,-26.4 L 23.4616,-26.7902 L 23.3477,-27.1654
 L 23.1629,-27.5111 L 22.9142,-27.8142 L 22.6111,-28.0629 L 18.0556,-30.9731 L 17.1048,-31.4813 L 12.6346,-33.8229
 L 12.2676,-33.961 L 11.8808,-34.0249 L 11.489,-34.012 L 11.1071,-33.923 L 10.75,-33.7612 L 10.4313,-33.5328
 L 10.1633,-33.2467 L 9.95627,-32.9137 L 9.81816,-32.5468 L 9.75429,-32.16 L 9.5,-26.4 L 9.75429,-20.64
 L 9.81816,-20.2532 L 9.95627,-19.8863 L 10.1633,-19.5533 L 10.4313,-19.2672 L 10.75,-19.0388 L 11.1071,-18.877
 L 11.489,-18.7879 L 11.8808,-18.7751 z
M 11.4912,-31.0632 L 11.3077,-31.1323 L 11.1413,-31.2358 L 10.9982,-31.3698 L 10.884,-31.5291 L 10.8031,-31.7077
 L 10.7586,-31.8986 L 10.7522,-32.0946 L 10.7841,-32.288 L 10.8531,-32.4714 L 10.9566,-32.6379 L 11.0907,-32.781
 L 11.25,-32.8952 L 11.4286,-32.9761 L 11.6195,-33.0206 L 11.8154,-33.027 L 12.0088,-32.9951 L 12.1923,-32.926
 L 12.3588,-32.8225 L 12.5018,-32.6885 L 12.616,-32.5291 L 12.6969,-32.3506 L 12.7415,-32.1597 L 12.7479,-31.9637
 L 12.7159,-31.7703 L 12.6469,-31.5869 L 12.5434,-31.4204 L 12.4093,-31.2773 L 12.25,-31.1631 L 12.0714,-31.0822
 L 11.8805,-31.0377 L 11.6846,-31.0313 z
M 14.4147,-23.4576 L 13.852,-23.6284 L 13.3333,-23.9056 L 12.8787,-24.2787 L 12.574,-24.65 L 11.5,-24.65
 L 11.5,-28.15 L 12.574,-28.15 L 12.8787,-28.5213 L 13.3333,-28.8944 L 13.852,-29.1716 L 14.4147,-29.3423
 L 15,-29.4 L 15.5853,-29.3423 L 16.148,-29.1716 L 16.6667,-28.8944 L 17.1213,-28.5213 L 17.426,-28.15
 L 18.5,-28.15 L 18.5,-24.65 L 17.426,-24.65 L 17.1213,-24.2787 L 16.6667,-23.9056 L 16.148,-23.6284
 L 15.5853,-23.4576 L 15,-23.4 z
M 21.3049,-25.4192 L 21.1173,-25.4761 L 20.9444,-25.5685 L 20.7929,-25.6929 L 20.6685,-25.8444 L 20.5761,-26.0173
 L 20.5192,-26.2049 L 20.5,-26.4 L 20.5192,-26.5951 L 20.5761,-26.7827 L 20.6685,-26.9556 L 20.7929,-27.1071
 L 20.9444,-27.2315 L 21.1173,-27.3239 L 21.3049,-27.3808 L 21.5,-27.4 L 21.6951,-27.3808 L 21.8827,-27.3239
 L 22.0556,-27.2315 L 22.2071,-27.1071 L 22.3315,-26.9556 L 22.4239,-26.7827 L 22.4808,-26.5951 L 22.5,-26.4
 L 22.4808,-26.2049 L 22.4239,-26.0173 L 22.3315,-25.8444 L 22.2071,-25.6929 L 22.0556,-25.5685 L 21.8827,-25.4761
 L 21.6951,-25.4192 L 21.5,-25.4 z
M 11.6195,-19.7794 L 11.4286,-19.8239 L 11.25,-19.9048 L 11.0907,-20.019 L 10.9566,-20.1621 L 10.8531,-20.3286
 L 10.7841,-20.512 L 10.7522,-20.7054 L 10.7586,-20.9014 L 10.8031,-21.0923 L 10.884,-21.2708 L 10.9982,-21.4302
 L 11.1413,-21.5642 L 11.3077,-21.6677 L 11.4912,-21.7368 L 11.6846,-21.7687 L 11.8805,-21.7623 L 12.0714,-21.7178
 L 12.25,-21.6369 L 12.4093,-21.5227 L 12.5434,-21.3796 L 12.6469,-21.2131 L 12.7159,-21.0296 L 12.7479,-20.8362
 L 12.7415,-20.6403 L 12.6969,-20.4494 L 12.616,-20.2708 L 12.5018,-20.1115 L 12.3588,-19.9775 L 12.1923,-19.874
 L 12.0088,-19.8049 L 11.8154,-19.773 z
M -2.73236,-18.839 L -2.36542,-18.9771 L 2.10475,-21.3187 L 3.05563,-21.8269 L 7.61113,-24.7371 L 7.9142,-24.9858
 L 8.16293,-25.2889 L 8.34775,-25.6346 L 8.46156,-26.0098 L 8.5,-26.4 L 8.46156,-26.7902 L 8.34775,-27.1654
 L 8.16293,-27.5111 L 7.9142,-27.8142 L 7.61113,-28.0629 L 3.05563,-30.9731 L 2.10475,-31.4813 L -2.36542,-33.8229
 L -2.73236,-33.961 L -3.11919,-34.0249 L -3.51105,-34.012 L -3.89287,-33.923 L -4.24998,-33.7612 L -4.56868,-33.5328
 L -4.8367,-33.2467 L -5.04373,-32.9137 L -5.18184,-32.5468 L -5.24571,-32.16 L -5.5,-26.4 L -5.24571,-20.64
 L -5.18184,-20.2532 L -5.04373,-19.8863 L -4.8367,-19.5533 L -4.56868,-19.2672 L -4.24998,-19.0388 L -3.89287,-18.877
 L -3.51105,-18.7879 L -3.11919,-18.7751 z
M -3.5088,-31.0632 L -3.69228,-31.1323 L -3.85875,-31.2358 L -4.00183,-31.3698 L -4.11601,-31.5291 L -4.19693,-31.7077
 L -4.24144,-31.8986 L -4.24785,-32.0946 L -4.21591,-32.288 L -4.14687,-32.4714 L -4.04335,-32.6379 L -3.90933,-32.781
 L -3.74998,-32.8952 L -3.57143,-32.9761 L -3.38052,-33.0206 L -3.18459,-33.027 L -2.99118,-32.9951 L -2.80771,-32.926
 L -2.64124,-32.8225 L -2.49815,-32.6885 L -2.38397,-32.5291 L -2.30305,-32.3506 L -2.25854,-32.1597 L -2.25214,-31.9637
 L -2.28407,-31.7703 L -2.35312,-31.5869 L -2.45663,-31.4204 L -2.59065,-31.2773 L -2.74998,-31.1631 L -2.92856,-31.0822
 L -3.11946,-31.0377 L -3.3154,-31.0313 z
M -0.585266,-23.4576 L -1.14804,-23.6284 L -1.6667,-23.9056 L -2.12131,-24.2787 L -2.42604,-24.65 L -3.5,-24.65
 L -3.5,-28.15 L -2.42604,-28.15 L -2.12131,-28.5213 L -1.6667,-28.8944 L -1.14804,-29.1716 L -0.585266,-29.3423
 L 0,-29.4 L 0.585266,-29.3423 L 1.14804,-29.1716 L 1.6667,-28.8944 L 2.12131,-28.5213 L 2.42604,-28.15
 L 3.5,-28.15 L 3.5,-24.65 L 2.42604,-24.65 L 2.12131,-24.2787 L 1.6667,-23.9056 L 1.14804,-23.6284
 L 0.585266,-23.4576 L 0,-23.4 z
M 6.3049,-25.4192 L 6.11731,-25.4761 L 5.94443,-25.5685 L 5.79289,-25.6929 L 5.66852,-25.8444 L 5.57611,-26.0173
 L 5.51921,-26.2049 L 5.5,-26.4 L 5.51921,-26.5951 L 5.57611,-26.7827 L 5.66852,-26.9556 L 5.79289,-27.1071
 L 5.94443,-27.2315 L 6.11731,-27.3239 L 6.3049,-27.3808 L 6.5,-27.4 L 6.69508,-27.3808 L 6.88268,-27.3239
 L 7.05556,-27.2315 L 7.20709,-27.1071 L 7.33147,-26.9556 L 7.42387,-26.7827 L 7.48077,-26.5951 L 7.5,-26.4
 L 7.48077,-26.2049 L 7.42387,-26.0173 L 7.33147,-25.8444 L 7.20709,-25.6929 L 7.05556,-25.5685 L 6.88268,-25.4761
 L 6.69508,-25.4192 L 6.5,-25.4 z
M -3.38052,-19.7794 L -3.57143,-19.8239 L -3.74998,-19.9048 L -3.90933,-20.019 L -4.04335,-20.1621 L -4.14687,-20.3286
 L -4.21591,-20.512 L -4.24785,-20.7054 L -4.24144,-20.9014 L -4.19693,-21.0923 L -4.11601,-21.2708 L -4.00183,-21.4302
 L -3.85875,-21.5642 L -3.69228,-21.6677 L -3.5088,-21.7368 L -3.3154,-21.7687 L -3.11946,-21.7623 L -2.92856,-21.7178
 L -2.74998,-21.6369 L -2.59065,-21.5227 L -2.45663,-21.3796 L -2.35312,-21.2131 L -2.28407,-21.0296 L -2.25214,-20.8362
 L -2.25854,-20.6403 L -2.30305,-20.4494 L -2.38397,-20.2708 L -2.49815,-20.1115 L -2.64124,-19.9775 L -2.80771,-19.874
 L -2.99118,-19.8049 L -3.18459,-19.773 z
M 5.51103,-5.58795 L 5.89285,-5.67699 L 6.24997,-5.83879 L 6.56866,-6.06715 L 6.83669,-6.35332 L 7.04372,-6.68626
 L 7.18182,-7.05321 L 7.2457,-7.44003 L 7.5,-13.2 L 7.24571,-18.96 L 7.18184,-19.3468 L 7.04373,-19.7137
 L 6.8367,-20.0467 L 6.56868,-20.3328 L 6.24998,-20.5612 L 5.89287,-20.723 L 5.51105,-20.812 L 5.11919,-20.8249
 L 4.73236,-20.761 L 4.36542,-20.6229 L -0.104736,-18.2813 L -1.05562,-17.7731 L -5.61113,-14.8629 L -5.9142,-14.6142
 L -6.16293,-14.3111 L -6.34775,-13.9654 L -6.46156,-13.5902 L -6.5,-13.2 L -6.46156,-12.8098 L -6.34775,-12.4346
 L -6.16293,-12.0889 L -5.9142,-11.7858 L -5.61113,-11.5371 L -1.05563,-8.62692 L -0.104752,-8.11867 L 4.3654,-5.7771
 L 4.73235,-5.63899 L 5.11917,-5.57512 z
M 5.11946,-17.8377 L 4.92856,-17.8822 L 4.74998,-17.9631 L 4.59065,-18.0773 L 4.45663,-18.2204 L 4.35312,-18.3869
 L 4.28407,-18.5703 L 4.25214,-18.7637 L 4.25854,-18.9597 L 4.30305,-19.1506 L 4.38397,-19.3291 L 4.49815,-19.4885
 L 4.64124,-19.6225 L 4.80771,-19.726 L 4.99118,-19.7951 L 5.18459,-19.827 L 5.38052,-19.8206 L 5.57143,-19.7761
 L 5.74998,-19.6952 L 5.90933,-19.581 L 6.04335,-19.4379 L 6.14687,-19.2714 L 6.21591,-19.088 L 6.24785,-18.8946
 L 6.24144,-18.6986 L 6.19693,-18.5077 L 6.11601,-18.3291 L 6.00183,-18.1698 L 5.85875,-18.0358 L 5.69228,-17.9323
 L 5.5088,-17.8632 L 5.3154,-17.8313 z
M 1.41472,-10.2576 L 0.851944,-10.4284 L 0.333282,-10.7056 L -0.121307,-11.0787 L -0.426041,-11.45 L -1.5,-11.45
 L -1.5,-14.95 L -0.426041,-14.95 L -0.121292,-15.3213 L 0.333298,-15.6944 L 0.851959,-15.9716 L 1.41473,-16.1423
 L 2,-16.2 L 2.58527,-16.1423 L 3.14804,-15.9716 L 3.6667,-15.6944 L 4.12131,-15.3213 L 4.42604,-14.95
 L 5.5,-14.95 L 5.5,-11.45 L 4.42604,-11.45 L 4.12131,-11.0787 L 3.6667,-10.7056 L 3.14803,-10.4284
 L 2.58525,-10.2576 L 1.99998,-10.2 z
M -4.69508,-12.2192 L -4.88268,-12.2761 L -5.05556,-12.3685 L -5.20709,-12.4929 L -5.33147,-12.6444 L -5.42387,-12.8173
 L -5.48077,-13.0049 L -5.5,-13.2 L -5.48077,-13.3951 L -5.42387,-13.5827 L -5.33147,-13.7556 L -5.20709,-13.9071
 L -5.05556,-14.0315 L -4.88268,-14.1239 L -4.69508,-14.1808 L -4.5,-14.2 L -4.3049,-14.1808 L -4.11731,-14.1239
 L -3.94443,-14.0315 L -3.79289,-13.9071 L -3.66852,-13.7556 L -3.57611,-13.5827 L -3.51921,-13.3951 L -3.5,-13.2
 L -3.51921,-13.0049 L -3.57611,-12.8173 L -3.66852,-12.6444 L -3.79289,-12.4929 L -3.94443,-12.3685 L -4.11731,-12.2761
 L -4.3049,-12.2192 L -4.5,-12.2 z
M 4.99117,-6.60492 L 4.80769,-6.67397 L 4.64122,-6.77748 L 4.49814,-6.9115 L 4.38396,-7.07085 L 4.30304,-7.2494
 L 4.25853,-7.44031 L 4.25212,-7.63625 L 4.28407,-7.82965 L 4.35312,-8.01312 L 4.45663,-8.1796 L 4.59065,-8.32268
 L 4.74998,-8.43686 L 4.92856,-8.51778 L 5.11946,-8.56229 L 5.3154,-8.5687 L 5.5088,-8.53676 L 5.69228,-8.46771
 L 5.85875,-8.3642 L 6.00182,-8.23018 L 6.116,-8.07085 L 6.19691,-7.89227 L 6.24142,-7.70137 L 6.24783,-7.50543
 L 6.2159,-7.31203 L 6.14685,-7.12856 L 6.04333,-6.96208 L 5.90932,-6.819 L 5.74997,-6.70482 L 5.57141,-6.62392
 L 5.38051,-6.57939 L 5.18457,-6.57298 z
M 35.011,-5.58795 L 35.3929,-5.67699 L 35.75,-5.83879 L 36.0687,-6.06715 L 36.3367,-6.35332 L 36.5437,-6.68626
 L 36.6818,-7.05321 L 36.7457,-7.44003 L 37,-13.2 L 36.7457,-18.96 L 36.6818,-19.3468 L 36.5437,-19.7137
 L 36.3367,-20.0467 L 36.0687,-20.3328 L 35.75,-20.5612 L 35.3929,-20.723 L 35.011,-20.812 L 34.6192,-20.8249
 L 34.2324,-20.761 L 33.8654,-20.6229 L 29.3952,-18.2813 L 28.4444,-17.7731 L 23.8889,-14.8629 L 23.5858,-14.6142
 L 23.3371,-14.3111 L 23.1523,-13.9654 L 23.0384,-13.5902 L 23,-13.2 L 23.0384,-12.8098 L 23.1523,-12.4346
 L 23.3371,-12.0889 L 23.5858,-11.7858 L 23.8889,-11.5371 L 28.4444,-8.62692 L 29.3952,-8.11867 L 33.8654,-5.7771
 L 34.2324,-5.63899 L 34.6192,-5.57512 z
M 34.6195,-17.8377 L 34.4286,-17.8822 L 34.25,-17.9631 L 34.0907,-18.0773 L 33.9566,-18.2204 L 33.8531,-18.3869
 L 33.7841,-18.5703 L 33.7521,-18.7637 L 33.7585,-18.9597 L 33.8031,-19.1506 L 33.884,-19.3291 L 33.9982,-19.4885
 L 34.1412,-19.6225 L 34.3077,-19.726 L 34.4912,-19.7951 L 34.6846,-19.827 L 34.8805,-19.8206 L 35.0714,-19.7761
 L 35.25,-19.6952 L 35.4093,-19.581 L 35.5434,-19.4379 L 35.6469,-19.2714 L 35.7159,-19.088 L 35.7478,-18.8946
 L 35.7414,-18.6986 L 35.6969,-18.5077 L 35.616,-18.3291 L 35.5018,-18.1698 L 35.3587,-18.0358 L 35.1923,-17.9323
 L 35.0088,-17.8632 L 34.8154,-17.8313 z
M 30.9147,-10.2576 L 30.352,-10.4284 L 29.8333,-10.7056 L 29.3787,-11.0787 L 29.074,-11.45 L 28,-11.45
 L 28,-14.95 L 29.074,-14.95 L 29.3787,-15.3213 L 29.8333,-15.6944 L 30.352,-15.9716 L 30.9147,-16.1423
 L 31.5,-16.2 L 32.0853,-16.1423 L 32.648,-15.9716 L 33.1667,-15.6944 L 33.6213,-15.3213 L 33.926,-14.95
 L 35,-14.95 L 35,-11.45 L 33.926,-11.45 L 33.6213,-11.0787 L 33.1667,-10.7056 L 32.648,-10.4284
 L 32.0853,-10.2576 L 31.5,-10.2 z
M 24.8049,-12.2192 L 24.6173,-12.2761 L 24.4444,-12.3685 L 24.2929,-12.4929 L 24.1685,-12.6444 L 24.0761,-12.8173
 L 24.0192,-13.0049 L 24,-13.2 L 24.0192,-13.3951 L 24.0761,-13.5827 L 24.1685,-13.7556 L 24.2929,-13.9071
 L 24.4444,-14.0315 L 24.6173,-14.1239 L 24.8049,-14.1808 L 25,-14.2 L 25.1951,-14.1808 L 25.3827,-14.1239
 L 25.5556,-14.0315 L 25.7071,-13.9071 L 25.8315,-13.7556 L 25.9239,-13.5827 L 25.9808,-13.3951 L 26,-13.2
 L 25.9808,-13.0049 L 25.9239,-12.8173 L 25.8315,-12.6444 L 25.7071,-12.4929 L 25.5556,-12.3685 L 25.3827,-12.2761
 L 25.1951,-12.2192 L 25,-12.2 z
M 34.4912,-6.60492 L 34.3077,-6.67397 L 34.1412,-6.77748 L 33.9982,-6.9115 L 33.884,-7.07085 L 33.8031,-7.2494
 L 33.7585,-7.44031 L 33.7521,-7.63625 L 33.7841,-7.82965 L 33.8531,-8.01312 L 33.9566,-8.1796 L 34.0907,-8.32268
 L 34.25,-8.43686 L 34.4286,-8.51778 L 34.6195,-8.56229 L 34.8154,-8.5687 L 35.0088,-8.53676 L 35.1923,-8.46771
 L 35.3587,-8.3642 L 35.5018,-8.23018 L 35.616,-8.07085 L 35.6969,-7.89227 L 35.7414,-7.70137 L 35.7478,-7.50543
 L 35.7159,-7.31203 L 35.6469,-7.12856 L 35.5434,-6.96208 L 35.4093,-6.819 L 35.25,-6.70482 L 35.0714,-6.62392
 L 34.8805,-6.57939 L 34.6846,-6.57298 z
M 20.011,-5.58795 L 20.3929,-5.67699 L 20.75,-5.83879 L 21.0687,-6.06715 L 21.3367,-6.35332 L 21.5437,-6.68626
 L 21.6818,-7.05321 L 21.7457,-7.44003 L 22,-13.2 L 21.7457,-18.96 L 21.6818,-19.3468 L 21.5437,-19.7137
 L 21.3367,-20.0467 L 21.0687,-20.3328 L 20.75,-20.5612 L 20.3929,-20.723 L 20.011,-20.812 L 19.6192,-20.8249
 L 19.2324,-20.761 L 18.8654,-20.6229 L 14.3952,-18.2813 L 13.4444,-17.7731 L 8.88887,-14.8629 L 8.5858,-14.6142
 L 8.33707,-14.3111 L 8.15225,-13.9654 L 8.03844,-13.5902 L 8,-13.2 L 8.03844,-12.8098 L 8.15225,-12.4346
 L 8.33707,-12.0889 L 8.5858,-11.7858 L 8.88887,-11.5371 L 13.4444,-8.62692 L 14.3952,-8.11867 L 18.8654,-5.7771
 L 19.2324,-5.63899 L 19.6192,-5.57512 z
M 19.6195,-17.8377 L 19.4286,-17.8822 L 19.25,-17.9631 L 19.0907,-18.0773 L 18.9566,-18.2204 L 18.8531,-18.3869
 L 18.7841,-18.5703 L 18.7521,-18.7637 L 18.7585,-18.9597 L 18.8031,-19.1506 L 18.884,-19.3291 L 18.9982,-19.4885
 L 19.1412,-19.6225 L 19.3077,-19.726 L 19.4912,-19.7951 L 19.6846,-19.827 L 19.8805,-19.8206 L 20.0714,-19.7761
 L 20.25,-19.6952 L 20.4093,-19.581 L 20.5434,-19.4379 L 20.6469,-19.2714 L 20.7159,-19.088 L 20.7478,-18.8946
 L 20.7414,-18.6986 L 20.6969,-18.5077 L 20.616,-18.3291 L 20.5018,-18.1698 L 20.3587,-18.0358 L 20.1923,-17.9323
 L 20.0088,-17.8632 L 19.8154,-17.8313 z
M 15.9147,-10.2576 L 15.352,-10.4284 L 14.8333,-10.7056 L 14.3787,-11.0787 L 14.074,-11.45 L 13,-11.45
 L 13,-14.95 L 14.074,-14.95 L 14.3787,-15.3213 L 14.8333,-15.6944 L 15.352,-15.9716 L 15.9147,-16.1423
 L 16.5,-16.2 L 17.0853,-16.1423 L 17.648,-15.9716 L 18.1667,-15.6944 L 18.6213,-15.3213 L 18.926,-14.95
 L 20,-14.95 L 20,-11.45 L 18.926,-11.45 L 18.6213,-11.0787 L 18.1667,-10.7056 L 17.648,-10.4284
 L 17.0853,-10.2576 L 16.5,-10.2 z
M 9.80492,-12.2192 L 9.61732,-12.2761 L 9.44444,-12.3685 L 9.29291,-12.4929 L 9.16853,-12.6444 L 9.07613,-12.8173
 L 9.01923,-13.0049 L 9,-13.2 L 9.01923,-13.3951 L 9.07613,-13.5827 L 9.16853,-13.7556 L 9.29291,-13.9071
 L 9.44444,-14.0315 L 9.61732,-14.1239 L 9.80492,-14.1808 L 10,-14.2 L 10.1951,-14.1808 L 10.3827,-14.1239
 L 10.5556,-14.0315 L 10.7071,-13.9071 L 10.8315,-13.7556 L 10.9239,-13.5827 L 10.9808,-13.3951 L 11,-13.2
 L 10.9808,-13.0049 L 10.9239,-12.8173 L 10.8315,-12.6444 L 10.7071,-12.4929 L 10.5556,-12.3685 L 10.3827,-12.2761
 L 10.1951,-12.2192 L 10,-12.2 z
M 19.4912,-6.60492 L 19.3077,-6.67397 L 19.1412,-6.77748 L 18.9982,-6.9115 L 18.884,-7.07085 L 18.8031,-7.2494
 L 18.7585,-7.44031 L 18.7521,-7.63625 L 18.7841,-7.82965 L 18.8531,-8.01312 L 18.9566,-8.1796 L 19.0907,-8.32268
 L 19.25,-8.43686 L 19.4286,-8.51778 L 19.6195,-8.56229 L 19.8154,-8.5687 L 20.0088,-8.53676 L 20.1923,-8.46771
 L 20.3587,-8.3642 L 20.5018,-8.23018 L 20.616,-8.07085 L 20.6969,-7.89227 L 20.7414,-7.70137 L 20.7478,-7.50543
 L 20.7159,-7.31203 L 20.6469,-7.12856 L 20.5434,-6.96208 L 20.4093,-6.819 L 20.25,-6.70482 L 20.0714,-6.62392
 L 19.8805,-6.57939 L 19.6846,-6.57298 z
M 12.2676,7.561 L 12.6346,7.4229 L 17.1048,5.08133 L 18.0556,4.57307 L 22.6111,1.66293 L 22.9142,1.4142
 L 23.1629,1.11113 L 23.3477,0.765366 L 23.4616,0.390167 L 23.5,-0 L 23.4616,-0.390167 L 23.3477,-0.765366
 L 23.1629,-1.11113 L 22.9142,-1.4142 L 22.6111,-1.66293 L 18.0556,-4.57307 L 17.1048,-5.08133 L 12.6346,-7.4229
 L 12.2676,-7.561 L 11.8808,-7.62488 L 11.489,-7.61205 L 11.1071,-7.52301 L 10.75,-7.36121 L 10.4313,-7.13284
 L 10.1633,-6.84668 L 9.95627,-6.51373 L 9.81816,-6.14679 L 9.75429,-5.75996 L 9.5,-0 L 9.75429,5.75996
 L 9.81816,6.14679 L 9.95627,6.51373 L 10.1633,6.84668 L 10.4313,7.13284 L 10.75,7.36121 L 11.1071,7.52301
 L 11.489,7.61205 L 11.8808,7.62488 z
M 11.4912,-4.66324 L 11.3077,-4.73228 L 11.1413,-4.8358 L 10.9982,-4.96982 L 10.884,-5.12915 L 10.8031,-5.30772
 L 10.7586,-5.49863 L 10.7522,-5.69456 L 10.7841,-5.88797 L 10.8531,-6.07144 L 10.9566,-6.23792 L 11.0907,-6.381
 L 11.25,-6.49518 L 11.4286,-6.57608 L 11.6195,-6.62061 L 11.8154,-6.62701 L 12.0088,-6.59508 L 12.1923,-6.52603
 L 12.3588,-6.42252 L 12.5018,-6.2885 L 12.616,-6.12915 L 12.6969,-5.95059 L 12.7415,-5.75969 L 12.7479,-5.56375
 L 12.7159,-5.37035 L 12.6469,-5.18687 L 12.5434,-5.0204 L 12.4093,-4.87732 L 12.25,-4.76314 L 12.0714,-4.68222
 L 11.8805,-4.63771 L 11.6846,-4.6313 z
M 11.5,1.75 L 11.5,-1.75 L 18.5,-1.75 L 18.5,1.75 z
M 21.3049,0.980774 L 21.1173,0.923874 L 20.9444,0.831467 L 20.7929,0.707092 L 20.6685,0.555557 L 20.5761,0.382675
 L 20.5192,0.195084 L 20.5,-0 L 20.5192,-0.195084 L 20.5761,-0.382675 L 20.6685,-0.555557 L 20.7929,-0.707092
 L 20.9444,-0.831467 L 21.1173,-0.923874 L 21.3049,-0.980774 L 21.5,-1 L 21.6951,-0.980774 L 21.8827,-0.923874
 L 22.0556,-0.831467 L 22.2071,-0.707092 L 22.3315,-0.555557 L 22.4239,-0.382675 L 22.4808,-0.195084 L 22.5,-0
 L 22.4808,0.195084 L 22.4239,0.382675 L 22.3315,0.555557 L 22.2071,0.707092 L 22.0556,0.831467 L 21.8827,0.923874
 L 21.6951,0.980774 L 21.5,1 z
M 11.6195,6.62061 L 11.4286,6.57608 L 11.25,6.49518 L 11.0907,6.381 L 10.9566,6.23792 L 10.8531,6.07144
 L 10.7841,5.88797 L 10.7522,5.69456 L 10.7586,5.49863 L 10.8031,5.30772 L 10.884,5.12915 L 10.9982,4.96982
 L 11.1413,4.8358 L 11.3077,4.73228 L 11.4912,4.66324 L 11.6846,4.6313 L 11.8805,4.63771 L 12.0714,4.68222
 L 12.25,4.76314 L 12.4093,4.87732 L 12.5434,5.0204 L 12.6469,5.18687 L 12.7159,5.37035 L 12.7479,5.56375
 L 12.7415,5.75969 L 12.6969,5.95059 L 12.616,6.12915 L 12.5018,6.2885 L 12.3588,6.42252 L 12.1923,6.52603
 L 12.0088,6.59508 L 11.8154,6.62701 z
M -2.73236,7.561 L -2.36542,7.4229 L 2.10475,5.08133 L 3.05563,4.57307 L 7.61113,1.66293 L 7.9142,1.4142
 L 8.16293,1.11113 L 8.34775,0.765366 L 8.46156,0.390167 L 8.5,-0 L 8.46156,-0.390167 L 8.34775,-0.765366
 L 8.16293,-1.11113 L 7.9142,-1.4142 L 7.61113,-1.66293 L 3.05563,-4.57307 L 2.10475,-5.08133 L -2.36542,-7.4229
 L -2.73236,-7.561 L -3.11919,-7.62488 L -3.51105,-7.61205 L -3.89287,-7.52301 L -4.24998,-7.36121 L -4.56868,-7.13284
 L -4.8367,-6.84668 L -5.04373,-6.51373 L -5.18184,-6.14679 L -5.24571,-5.75996 L -5.5,-0 L -5.24571,5.75996
 L -5.18184,6.14679 L -5.04373,6.51373 L -4.8367,6.84668 L -4.56868,7.13284 L -4.24998,7.36121 L -3.89287,7.52301
 L -3.51105,7.61205 L -3.11919,7.62488 z
M -3.5088,-4.66324 L -3.69228,-4.73228 L -3.85875,-4.8358 L -4.00183,-4.96982 L -4.11601,-5.12915 L -4.19693,-5.30772
 L -4.24144,-5.49863 L -4.24785,-5.69456 L -4.21591,-5.88797 L -4.14687,-6.07144 L -4.04335,-6.23792 L -3.90933,-6.381
 L -3.74998,-6.49518 L -3.57143,-6.57608 L -3.38052,-6.62061 L -3.18459,-6.62701 L -2.99118,-6.59508 L -2.80771,-6.52603
 L -2.64124,-6.42252 L -2.49815,-6.2885 L -2.38397,-6.12915 L -2.30305,-5.95059 L -2.25854,-5.75969 L -2.25214,-5.56375
 L -2.28407,-5.37035 L -2.35312,-5.18687 L -2.45663,-5.0204 L -2.59065,-4.87732 L -2.74998,-4.76314 L -2.92856,-4.68222
 L -3.11946,-4.63771 L -3.3154,-4.6313 z
M -0.3414,1.71637 L -0.669693,1.61678 L -0.972244,1.45506 L -1.23743,1.23743 L -1.45506,0.972244 L -1.61678,0.669693
 L -1.71637,0.3414 L -1.75,-0 L -1.71637,-0.3414 L -1.61678,-0.669693 L -1.45506,-0.972244 L -1.23743,-1.23743
 L -0.972244,-1.45506 L -0.669693,-1.61678 L -0.3414,-1.71637 L 0,-1.75 L 0.3414,-1.71637 L 0.669693,-1.61678
 L 0.972244,-1.45506 L 1.23743,-1.23743 L 1.45506,-0.972244 L 1.61678,-0.669693 L 1.71637,-0.3414 L 1.75,-0
 L 1.71637,0.3414 L 1.61678,0.669693 L 1.45506,0.972244 L 1.23743,1.23743 L 0.972244,1.45506 L 0.669693,1.61678
 L 0.3414,1.71637 L 0,1.75 z
M 6.3049,0.980774 L 6.11731,0.923874 L 5.94443,0.831467 L 5.79289,0.707092 L 5.66852,0.555557 L 5.57611,0.382675
 L 5.51921,0.195084 L 5.5,-0 L 5.51921,-0.195084 L 5.57611,-0.382675 L 5.66852,-0.555557 L 5.79289,-0.707092
 L 5.94443,-0.831467 L 6.11731,-0.923874 L 6.3049,-0.980774 L 6.5,-1 L 6.69508,-0.980774 L 6.88268,-0.923874
 L 7.05556,-0.831467 L 7.20709,-0.707092 L 7.33147,-0.555557 L 7.42387,-0.382675 L 7.48077,-0.195084 L 7.5,-0
 L 7.48077,0.195084 L 7.42387,0.382675 L 7.33147,0.555557 L 7.20709,0.707092 L 7.05556,0.831467 L 6.88268,0.923874
 L 6.69508,0.980774 L 6.5,1 z
M -3.38052,6.62061 L -3.57143,6.57608 L -3.74998,6.49518 L -3.90933,6.381 L -4.04335,6.23792 L -4.14687,6.07144
 L -4.21591,5.88797 L -4.24785,5.69456 L -4.24144,5.49863 L -4.19693,5.30772 L -4.11601,5.12915 L -4.00183,4.96982
 L -3.85875,4.8358 L -3.69228,4.73228 L -3.5088,4.66324 L -3.3154,4.6313 L -3.11946,4.63771 L -2.92856,4.68222
 L -2.74998,4.76314 L -2.59065,4.87732 L -2.45663,5.0204 L -2.35312,5.18687 L -2.28407,5.37035 L -2.25214,5.56375
 L -2.25854,5.75969 L -2.30305,5.95059 L -2.38397,6.12915 L -2.49815,6.2885 L -2.64124,6.42252 L -2.80771,6.52603
 L -2.99118,6.59508 L -3.18459,6.62701 z
M 27.2676,7.561 L 27.6346,7.4229 L 32.1048,5.08133 L 33.0556,4.57307 L 37.6111,1.66293 L 37.9142,1.4142
 L 38.1629,1.11113 L 38.3477,0.765366 L 38.4616,0.390167 L 38.5,-0 L 38.4616,-0.390167 L 38.3477,-0.765366
 L 38.1629,-1.11113 L 37.9142,-1.4142 L 37.6111,-1.66293 L 33.0556,-4.57307 L 32.1048,-5.08133 L 27.6346,-7.4229
 L 27.2676,-7.561 L 26.8808,-7.62488 L 26.489,-7.61205 L 26.1071,-7.52301 L 25.75,-7.36121 L 25.4313,-7.13284
 L 25.1633,-6.84668 L 24.9563,-6.51373 L 24.8182,-6.14679 L 24.7543,-5.75996 L 24.5,-0 L 24.7543,5.75996
 L 24.8182,6.14679 L 24.9563,6.51373 L 25.1633,6.84668 L 25.4313,7.13284 L 25.75,7.36121 L 26.1071,7.52301
 L 26.489,7.61205 L 26.8808,7.62488 z
M 26.4912,-4.66324 L 26.3077,-4.73228 L 26.1413,-4.8358 L 25.9982,-4.96982 L 25.884,-5.12915 L 25.8031,-5.30772
 L 25.7586,-5.49863 L 25.7522,-5.69456 L 25.7841,-5.88797 L 25.8531,-6.07144 L 25.9566,-6.23792 L 26.0907,-6.381
 L 26.25,-6.49518 L 26.4286,-6.57608 L 26.6195,-6.62061 L 26.8154,-6.62701 L 27.0088,-6.59508 L 27.1923,-6.52603
 L 27.3588,-6.42252 L 27.5018,-6.2885 L 27.616,-6.12915 L 27.6969,-5.95059 L 27.7415,-5.75969 L 27.7479,-5.56375
 L 27.7159,-5.37035 L 27.6469,-5.18687 L 27.5434,-5.0204 L 27.4093,-4.87732 L 27.25,-4.76314 L 27.0714,-4.68222
 L 26.8805,-4.63771 L 26.6846,-4.6313 z
M 26.5,1.75 L 26.5,-1.75 L 33.5,-1.75 L 33.5,1.75 z
M 36.3049,0.980774 L 36.1173,0.923874 L 35.9444,0.831467 L 35.7929,0.707092 L 35.6685,0.555557 L 35.5761,0.382675
 L 35.5192,0.195084 L 35.5,-0 L 35.5192,-0.195084 L 35.5761,-0.382675 L 35.6685,-0.555557 L 35.7929,-0.707092
 L 35.9444,-0.831467 L 36.1173,-0.923874 L 36.3049,-0.980774 L 36.5,-1 L 36.6951,-0.980774 L 36.8827,-0.923874
 L 37.0556,-0.831467 L 37.2071,-0.707092 L 37.3315,-0.555557 L 37.4239,-0.382675 L 37.4808,-0.195084 L 37.5,-0
 L 37.4808,0.195084 L 37.4239,0.382675 L 37.3315,0.555557 L 37.2071,0.707092 L 37.0556,0.831467 L 36.8827,0.923874
 L 36.6951,0.980774 L 36.5,1 z
M 26.6195,6.62061 L 26.4286,6.57608 L 26.25,6.49518 L 26.0907,6.381 L 25.9566,6.23792 L 25.8531,6.07144
 L 25.7841,5.88797 L 25.7522,5.69456 L 25.7586,5.49863 L 25.8031,5.30772 L 25.884,5.12915 L 25.9982,4.96982
 L 26.1413,4.8358 L 26.3077,4.73228 L 26.4912,4.66324 L 26.6846,4.6313 L 26.8805,4.63771 L 27.0714,4.68222
 L 27.25,4.76314 L 27.4093,4.87732 L 27.5434,5.0204 L 27.6469,5.18687 L 27.7159,5.37035 L 27.7479,5.56375
 L 27.7415,5.75969 L 27.6969,5.95059 L 27.616,6.12915 L 27.5018,6.2885 L 27.3588,6.42252 L 27.1923,6.52603
 L 27.0088,6.59508 L 26.8154,6.62701 z
" stroke="black" fill="none" stroke-width="0.5"/></svg>
