<?xml version="1.0" standalone="no"?>
<!DOCTYPE svg PUBLIC "-//W3C//DTD SVG 1.1//EN" "http://www.w3.org/Graphics/SVG/1.1/DTD/svg11.dtd">
<svg width="224" height="160" viewBox="4 -152 224 160" xmlns="http://www.w3.org/2000/svg" version="1.1">
<title>OpenSCAD Model</title>
<path d="
M 201.915,-72.2325 L 203.718,-72.9164 L 205.305,-74.0119 L 206.584,-75.4555 L 207.48,-77.1632 L 207.942,-79.0357
 L 207.942,-144.564 L 207.48,-146.437 L 206.584,-148.145 L 205.305,-149.588 L 203.718,-150.684 L 201.915,-151.368
 L 200,-151.6 L 12,-151.6 L 10.0855,-151.368 L 8.28223,-150.684 L 6.69502,-149.588 L 5.41614,-148.145
 L 4.51988,-146.437 L 4.05833,-144.564 L 4.05833,-79.0357 L 4.51988,-77.1632 L 5.41614,-75.4555 L 6.69502,-74.0119
 L 8.28223,-72.9164 L 10.0855,-72.2325 L 12,-72 L 200,-72 z
M 197.496,-136.498 L 197.102,-136.599 L 196.745,-136.795 L 196.448,-137.074 L 196.23,-137.418 L 196.104,-137.805
 L 196.078,-138.212 L 196.155,-138.612 L 196.328,-138.981 L 196.588,-139.295 L 196.917,-139.534 L 197.296,-139.684
 L 197.7,-139.735 L 198.104,-139.684 L 198.483,-139.534 L 198.812,-139.295 L 199.072,-138.981 L 199.245,-138.612
 L 199.322,-138.212 L 199.296,-137.805 L 199.17,-137.418 L 198.952,-137.074 L 198.655,-136.795 L 198.298,-136.599
 L 197.904,-136.498 z
M 17.2963,-136.498 L 16.9018,-136.599 L 16.5449,-136.795 L 16.2479,-137.074 L 16.0297,-137.418 L 15.9038,-137.805
 L 15.8782,-138.212 L 15.9545,-138.612 L 16.128,-138.981 L 16.3876,-139.295 L 16.7172,-139.534 L 17.0959,-139.684
 L 17.5,-139.735 L 17.9041,-139.684 L 18.2829,-139.534 L 18.6124,-139.295 L 18.872,-138.981 L 19.0455,-138.612
 L 19.1218,-138.212 L 19.0962,-137.805 L 18.9704,-137.418 L 18.7521,-137.074 L 18.4552,-136.795 L 18.0982,-136.599
 L 17.7037,-136.498 z
M 125.498,-133.455 L 125.129,-133.628 L 124.815,-133.888 L 124.576,-134.217 L 124.426,-134.596 L 124.375,-135
 L 124.426,-135.404 L 124.576,-135.783 L 124.815,-136.112 L 125.129,-136.372 L 125.498,-136.545 L 125.898,-136.622
 L 126.304,-136.596 L 126.692,-136.47 L 127.036,-136.252 L 127.315,-135.955 L 127.511,-135.598 L 127.612,-135.204
 L 127.612,-134.796 L 127.511,-134.402 L 127.315,-134.045 L 127.036,-133.748 L 126.692,-133.53 L 126.304,-133.404
 L 125.898,-133.378 z
M 93.4978,-133.455 L 93.1293,-133.628 L 92.8154,-133.888 L 92.576,-134.217 L 92.4261,-134.596 L 92.375,-135
 L 92.4261,-135.404 L 92.576,-135.783 L 92.8154,-136.112 L 93.1293,-136.372 L 93.4978,-136.545 L 93.898,-136.622
 L 94.3045,-136.596 L 94.6919,-136.47 L 95.0358,-136.252 L 95.3147,-135.955 L 95.5109,-135.598 L 95.6122,-135.204
 L 95.6122,-134.796 L 95.5109,-134.402 L 95.3147,-134.045 L 95.0358,-133.748 L 94.6919,-133.53 L 94.3045,-133.404
 L 93.898,-133.378 z
M 179.796,-124.388 L 179.402,-124.489 L 179.045,-124.685 L 178.748,-124.964 L 178.53,-125.308 L 178.404,-125.695
 L 178.378,-126.102 L 178.455,-126.502 L 178.628,-126.871 L 178.888,-127.185 L 179.217,-127.424 L 179.596,-127.574
 L 180,-127.625 L 180.404,-127.574 L 180.783,-127.424 L 181.112,-127.185 L 181.372,-126.871 L 181.545,-126.502
 L 181.622,-126.102 L 181.596,-125.695 L 181.47,-125.308 L 181.252,-124.964 L 180.955,-124.685 L 180.598,-124.489
 L 180.204,-124.388 z
M 29.7963,-124.388 L 29.4018,-124.489 L 29.0449,-124.685 L 28.7479,-124.964 L 28.5297,-125.308 L 28.4038,-125.695
 L 28.3782,-126.102 L 28.4545,-126.502 L 28.628,-126.871 L 28.8876,-127.185 L 29.2172,-127.424 L 29.5959,-127.574
 L 30,-127.625 L 30.4041,-127.574 L 30.7828,-127.424 L 31.1124,-127.185 L 31.372,-126.871 L 31.5455,-126.502
 L 31.6218,-126.102 L 31.5962,-125.695 L 31.4703,-125.308 L 31.2521,-124.964 L 30.9551,-124.685 L 30.5982,-124.489
 L 30.2037,-124.388 z
M 133.781,-97.2638 L 133.356,-97.3729 L 132.971,-97.5842 L 132.652,-97.8845 L 132.417,-98.2549 L 132.281,-98.6721
 L 132.253,-99.1099 L 132.336,-99.5408 L 132.522,-99.9377 L 132.802,-100.276 L 133.157,-100.534 L 133.565,-100.695
 L 134,-100.75 L 134.435,-100.695 L 134.843,-100.534 L 135.198,-100.276 L 135.478,-99.9377 L 135.664,-99.5408
 L 135.747,-99.1099 L 135.719,-98.6721 L 135.583,-98.2549 L 135.348,-97.8845 L 135.029,-97.5842 L 134.644,-97.3729
 L 134.219,-97.2638 z
M 77.7807,-97.2638 L 77.3558,-97.3729 L 76.9714,-97.5842 L 76.6516,-97.8845 L 76.4166,-98.2549 L 76.281,-98.6721
 L 76.2535,-99.1099 L 76.3357,-99.5408 L 76.5224,-99.9377 L 76.802,-100.276 L 77.1569,-100.534 L 77.5648,-100.695
 L 78,-100.75 L 78.4352,-100.695 L 78.8431,-100.534 L 79.198,-100.276 L 79.4776,-99.9377 L 79.6644,-99.5408
 L 79.7466,-99.1099 L 79.719,-98.6721 L 79.5835,-98.2549 L 79.3484,-97.8845 L 79.0286,-97.5842 L 78.6442,-97.3729
 L 78.2193,-97.2638 z
M 29.7963,-92.3878 L 29.4018,-92.4891 L 29.0449,-92.6853 L 28.7479,-92.9642 L 28.5297,-93.3081 L 28.4038,-93.6955
 L 28.3782,-94.102 L 28.4545,-94.5022 L 28.628,-94.8707 L 28.8876,-95.1846 L 29.2172,-95.424 L 29.5959,-95.574
 L 30,-95.625 L 30.4041,-95.574 L 30.7828,-95.424 L 31.1124,-95.1846 L 31.372,-94.8707 L 31.5455,-94.5022
 L 31.6218,-94.102 L 31.5962,-93.6955 L 31.4703,-93.3081 L 31.2521,-92.9642 L 30.9551,-92.6853 L 30.5982,-92.4891
 L 30.2037,-92.3878 z
M 179.796,-92.3878 L 179.402,-92.4891 L 179.045,-92.6853 L 178.748,-92.9642 L 178.53,-93.3081 L 178.404,-93.6955
 L 178.378,-94.102 L 178.455,-94.5022 L 178.628,-94.8707 L 178.888,-95.1846 L 179.217,-95.424 L 179.596,-95.574
 L 180,-95.625 L 180.404,-95.574 L 180.783,-95.424 L 181.112,-95.1846 L 181.372,-94.8707 L 181.545,-94.5022
 L 181.622,-94.102 L 181.596,-93.6955 L 181.47,-93.3081 L 181.252,-92.9642 L 180.955,-92.6853 L 180.598,-92.4891
 L 180.204,-92.3878 z
M 17.2963,-80.6878 L 16.9018,-80.7891 L 16.5449,-80.9853 L 16.2479,-81.2642 L 16.0297,-81.6081 L 15.9038,-81.9955
 L 15.8782,-82.402 L 15.9545,-82.8021 L 16.128,-83.1707 L 16.3876,-83.4846 L 16.7172,-83.724 L 17.0959,-83.8739
 L 17.5,-83.925 L 17.9041,-83.8739 L 18.2829,-83.724 L 18.6124,-83.4846 L 18.872,-83.1707 L 19.0455,-82.8021
 L 19.1218,-82.402 L 19.0962,-81.9955 L 18.9704,-81.6081 L 18.7521,-81.2642 L 18.4552,-80.9853 L 18.0982,-80.7891
 L 17.7037,-80.6878 z
M 197.496,-80.6878 L 197.102,-80.7891 L 196.745,-80.9853 L 196.448,-81.2642 L 196.23,-81.6081 L 196.104,-81.9955
 L 196.078,-82.402 L 196.155,-82.8021 L 196.328,-83.1707 L 196.588,-83.4846 L 196.917,-83.724 L 197.296,-83.8739
 L 197.7,-83.925 L 198.104,-83.8739 L 198.483,-83.724 L 198.812,-83.4846 L 199.072,-83.1707 L 199.245,-82.8021
 L 199.322,-82.402 L 199.296,-81.9955 L 199.17,-81.6081 L 198.952,-81.2642 L 198.655,-80.9853 L 198.298,-80.7891
 L 197.904,-80.6878 z
M 133.781,-78.2638 L 133.356,-78.3729 L 132.971,-78.5842 L 132.652,-78.8845 L 132.417,-79.2549 L 132.281,-79.6721
 L 132.253,-80.1099 L 132.336,-80.5408 L 132.522,-80.9377 L 132.802,-81.2757 L 133.157,-81.5335 L 133.565,-81.695
 L 134,-81.75 L 134.435,-81.695 L 134.843,-81.5335 L 135.198,-81.2757 L 135.478,-80.9377 L 135.664,-80.5408
 L 135.747,-80.1099 L 135.719,-79.6721 L 135.583,-79.2549 L 135.348,-78.8845 L 135.029,-78.5842 L 134.644,-78.3729
 L 134.219,-78.2638 z
M 77.7807,-78.2638 L 77.3558,-78.3729 L 76.9714,-78.5842 L 76.6516,-78.8845 L 76.4166,-79.2549 L 76.281,-79.6721
 L 76.2535,-80.1099 L 76.3357,-80.5408 L 76.5224,-80.9377 L 76.802,-81.2757 L 77.1569,-81.5335 L 77.5648,-81.695
 L 78,-81.75 L 78.4352,-81.695 L 78.8431,-81.5335 L 79.198,-81.2757 L 79.4776,-80.9377 L 79.6644,-80.5408
 L 79.7466,-80.1099 L 79.719,-79.6721 L 79.5835,-79.2549 L 79.3484,-78.8845 L 79.0286,-78.5842 L 78.6442,-78.3729
 L 78.2193,-78.2638 z
M 222.945,-56.5618 L 224.702,-57.5279 L 226.164,-58.9006 L 227.239,-60.5938 L 227.858,-62.501 L 227.984,-64.5023
 L 227.984,-96.5023 L 227.608,-98.4721 L 226.755,-100.287 L 225.476,-101.832 L 223.854,-103.01 L 221.99,-103.749
 L 220,-104 L 218.01,-103.749 L 216.146,-103.01 L 214.524,-101.832 L 213.245,-100.287 L 212.392,-98.4721
 L 212.016,-96.5023 L 212.016,-64.5023 L 212.142,-62.501 L 212.761,-60.5938 L 213.836,-58.9006 L 215.298,-57.5279
 L 217.055,-56.5618 L 218.997,-56.0631 L 221.003,-56.0631 z
M 219.796,-94.3878 L 219.402,-94.4891 L 219.045,-94.6853 L 218.748,-94.9642 L 218.53,-95.3081 L 218.404,-95.6955
 L 218.378,-96.102 L 218.455,-96.5022 L 218.628,-96.8707 L 218.888,-97.1846 L 219.217,-97.424 L 219.596,-97.5739
 L 220,-97.625 L 220.404,-97.5739 L 220.783,-97.424 L 221.112,-97.1846 L 221.372,-96.8707 L 221.545,-96.5022
 L 221.622,-96.102 L 221.596,-95.6955 L 221.47,-95.3081 L 221.252,-94.9642 L 220.955,-94.6853 L 220.598,-94.4891
 L 220.204,-94.3878 z
M 219.796,-62.3878 L 219.402,-62.4891 L 219.045,-62.6853 L 218.748,-62.9642 L 218.53,-63.3081 L 218.404,-63.6955
 L 218.378,-64.102 L 218.455,-64.5022 L 218.628,-64.8707 L 218.888,-65.1846 L 219.217,-65.424 L 219.596,-65.574
 L 220,-65.625 L 220.404,-65.574 L 220.783,-65.424 L 221.112,-65.1846 L 221.372,-64.8707 L 221.545,-64.5022
 L 221.622,-64.102 L 221.596,-63.6955 L 221.47,-63.3081 L 221.252,-62.9642 L 220.955,-62.6853 L 220.598,-62.4891
 L 220.204,-62.3878 z
M 201.915,7.76753 L 203.718,7.08363 L 205.305,5.98808 L 206.584,4.54451 L 207.48,2.83684 L 207.942,0.964279
 L 207.942,-64.5643 L 207.48,-66.4368 L 206.584,-68.1445 L 205.305,-69.5881 L 203.718,-70.6836 L 201.915,-71.3675
 L 200,-71.6 L 12,-71.6 L 10.0855,-71.3675 L 8.28223,-70.6836 L 6.69502,-69.5881 L 5.41614,-68.1445
 L 4.51988,-66.4368 L 4.05833,-64.5643 L 4.05833,0.964264 L 4.51988,2.83682 L 5.41614,4.54449 L 6.69502,5.98807
 L 8.28223,7.08362 L 10.0855,7.76752 L 12,7.99998 L 200,8 z
M 197.496,-56.4978 L 197.102,-56.5991 L 196.745,-56.7953 L 196.448,-57.0742 L 196.23,-57.4181 L 196.104,-57.8055
 L 196.078,-58.212 L 196.155,-58.6122 L 196.328,-58.9807 L 196.588,-59.2946 L 196.917,-59.534 L 197.296,-59.6839
 L 197.7,-59.735 L 198.104,-59.6839 L 198.483,-59.534 L 198.812,-59.2946 L 199.072,-58.9807 L 199.245,-58.6122
 L 199.322,-58.212 L 199.296,-57.8055 L 199.17,-57.4181 L 198.952,-57.0742 L 198.655,-56.7953 L 198.298,-56.5991
 L 197.904,-56.4978 z
M 17.2963,-56.4978 L 16.9018,-56.5991 L 16.5449,-56.7953 L 16.2479,-57.0742 L 16.0297,-57.4181 L 15.9038,-57.8055
 L 15.8782,-58.212 L 15.9545,-58.6122 L 16.128,-58.9807 L 16.3876,-59.2946 L 16.7172,-59.534 L 17.0959,-59.6839
 L 17.5,-59.735 L 17.9041,-59.6839 L 18.2829,-59.534 L 18.6124,-59.2946 L 18.872,-58.9807 L 19.0455,-58.6122
 L 19.1218,-58.212 L 19.0962,-57.8055 L 18.9704,-57.4181 L 18.7521,-57.0742 L 18.4552,-56.7953 L 18.0982,-56.5991
 L 17.7037,-56.4978 z
M 125.498,-53.4545 L 125.129,-53.628 L 124.815,-53.8876 L 124.576,-54.2172 L 124.426,-54.5959 L 124.375,-55
 L 124.426,-55.4041 L 124.576,-55.7828 L 124.815,-56.1124 L 125.129,-56.372 L 125.498,-56.5455 L 125.898,-56.6218
 L 126.304,-56.5962 L 126.692,-56.4703 L 127.036,-56.2521 L 127.315,-55.9551 L 127.511,-55.5982 L 127.612,-55.2037
 L 127.612,-54.7963 L 127.511,-54.4018 L 127.315,-54.0449 L 127.036,-53.7479 L 126.692,-53.5297 L 126.304,-53.4038
 L 125.898,-53.3782 z
M 93.4978,-53.4545 L 93.1293,-53.628 L 92.8154,-53.8876 L 92.576,-54.2172 L 92.4261,-54.5959 L 92.375,-55
 L 92.4261,-55.4041 L 92.576,-55.7828 L 92.8154,-56.1124 L 93.1293,-56.372 L 93.4978,-56.5455 L 93.898,-56.6218
 L 94.3045,-56.5962 L 94.6919,-56.4703 L 95.0358,-56.2521 L 95.3147,-55.9551 L 95.5109,-55.5982 L 95.6122,-55.2037
 L 95.6122,-54.7963 L 95.5109,-54.4018 L 95.3147,-54.0449 L 95.0358,-53.7479 L 94.6919,-53.5297 L 94.3045,-53.4038
 L 93.898,-53.3782 z
M 29.7963,-44.3878 L 29.4018,-44.4891 L 29.0449,-44.6853 L 28.7479,-44.9642 L 28.5297,-45.3081 L 28.4038,-45.6955
 L 28.3782,-46.102 L 28.4545,-46.5022 L 28.628,-46.8707 L 28.8876,-47.1846 L 29.2172,-47.424 L 29.5959,-47.5739
 L 30,-47.625 L 30.4041,-47.5739 L 30.7828,-47.424 L 31.1124,-47.1846 L 31.372,-46.8707 L 31.5455,-46.5022
 L 31.6218,-46.102 L 31.5962,-45.6955 L 31.4703,-45.3081 L 31.2521,-44.9642 L 30.9551,-44.6853 L 30.5982,-44.4891
 L 30.2037,-44.3878 z
M 179.796,-44.3878 L 179.402,-44.4891 L 179.045,-44.6853 L 178.748,-44.9642 L 178.53,-45.3081 L 178.404,-45.6955
 L 178.378,-46.102 L 178.455,-46.5022 L 178.628,-46.8707 L 178.888,-47.1846 L 179.217,-47.424 L 179.596,-47.5739
 L 180,-47.625 L 180.404,-47.5739 L 180.783,-47.424 L 181.112,-47.1846 L 181.372,-46.8707 L 181.545,-46.5022
 L 181.622,-46.102 L 181.596,-45.6955 L 181.47,-45.3081 L 181.252,-44.9642 L 180.955,-44.6853 L 180.598,-44.4891
 L 180.204,-44.3878 z
M 133.781,-17.2638 L 133.356,-17.3729 L 132.971,-17.5842 L 132.652,-17.8845 L 132.417,-18.2549 L 132.281,-18.6721
 L 132.253,-19.1099 L 132.336,-19.5408 L 132.522,-19.9377 L 132.802,-20.2757 L 133.157,-20.5335 L 133.565,-20.695
 L 134,-20.75 L 134.435,-20.695 L 134.843,-20.5335 L 135.198,-20.2757 L 135.478,-19.9377 L 135.664,-19.5408
 L 135.747,-19.1099 L 135.719,-18.6721 L 135.583,-18.2549 L 135.348,-17.8845 L 135.029,-17.5842 L 134.644,-17.3729
 L 134.219,-17.2638 z
M 77.7807,-17.2638 L 77.3558,-17.3729 L 76.9714,-17.5842 L 76.6516,-17.8845 L 76.4166,-18.2549 L 76.281,-18.6721
 L 76.2535,-19.1099 L 76.3357,-19.5408 L 76.5224,-19.9377 L 76.802,-20.2757 L 77.1569,-20.5335 L 77.5648,-20.695
 L 78,-20.75 L 78.4352,-20.695 L 78.8431,-20.5335 L 79.198,-20.2757 L 79.4776,-19.9377 L 79.6644,-19.5408
 L 79.7466,-19.1099 L 79.719,-18.6721 L 79.5835,-18.2549 L 79.3484,-17.8845 L 79.0286,-17.5842 L 78.6442,-17.3729
 L 78.2193,-17.2638 z
M 179.796,-12.3878 L 179.402,-12.4891 L 179.045,-12.6853 L 178.748,-12.9642 L 178.53,-13.3081 L 178.404,-13.6955
 L 178.378,-14.102 L 178.455,-14.5022 L 178.628,-14.8707 L 178.888,-15.1846 L 179.217,-15.424 L 179.596,-15.574
 L 180,-15.625 L 180.404,-15.574 L 180.783,-15.424 L 181.112,-15.1846 L 181.372,-14.8707 L 181.545,-14.5022
 L 181.622,-14.102 L 181.596,-13.6955 L 181.47,-13.3081 L 181.252,-12.9642 L 180.955,-12.6853 L 180.598,-12.4891
 L 180.204,-12.3878 z
M 29.7963,-12.3878 L 29.4018,-12.4891 L 29.0449,-12.6853 L 28.7479,-12.9642 L 28.5297,-13.3081 L 28.4038,-13.6955
 L 28.3782,-14.102 L 28.4545,-14.5022 L 28.628,-14.8707 L 28.8876,-15.1846 L 29.2172,-15.424 L 29.5959,-15.574
 L 30,-15.625 L 30.4041,-15.574 L 30.7828,-15.424 L 31.1124,-15.1846 L 31.372,-14.8707 L 31.5455,-14.5022
 L 31.6218,-14.102 L 31.5962,-13.6955 L 31.4703,-13.3081 L 31.2521,-12.9642 L 30.9551,-12.6853 L 30.5982,-12.4891
 L 30.2037,-12.3878 z
M 197.496,-0.687805 L 197.102,-0.789108 L 196.745,-0.985336 L 196.448,-1.26418 L 196.23,-1.60811 L 196.104,-1.9955
 L 196.078,-2.40202 L 196.155,-2.80214 L 196.328,-3.17072 L 196.588,-3.48457 L 196.917,-3.72398 L 197.296,-3.87395
 L 197.7,-3.92499 L 198.104,-3.87395 L 198.483,-3.72398 L 198.812,-3.48457 L 199.072,-3.17072 L 199.245,-2.80214
 L 199.322,-2.40202 L 199.296,-1.9955 L 199.17,-1.60811 L 198.952,-1.26418 L 198.655,-0.985336 L 198.298,-0.789108
 L 197.904,-0.687805 z
M 17.2963,-0.687805 L 16.9018,-0.789108 L 16.5449,-0.985336 L 16.2479,-1.26418 L 16.0297,-1.60811 L 15.9038,-1.9955
 L 15.8782,-2.40202 L 15.9545,-2.80214 L 16.128,-3.17072 L 16.3876,-3.48457 L 16.7172,-3.72398 L 17.0959,-3.87395
 L 17.5,-3.92499 L 17.9041,-3.87395 L 18.2829,-3.72398 L 18.6124,-3.48457 L 18.872,-3.17072 L 19.0455,-2.80214
 L 19.1218,-2.40202 L 19.0962,-1.9955 L 18.9704,-1.60811 L 18.7521,-1.26418 L 18.4552,-0.985336 L 18.0982,-0.789108
 L 17.7037,-0.687805 z
M 133.781,1.73618 L 133.356,1.62709 L 132.971,1.41576 L 132.652,1.11546 L 132.417,0.745087 L 132.281,0.327896
 L 132.253,-0.109879 L 132.336,-0.540771 L 132.522,-0.937683 L 132.802,-1.27568 L 133.157,-1.53352 L 133.565,-1.69501
 L 134,-1.75 L 134.435,-1.69501 L 134.843,-1.53352 L 135.198,-1.27568 L 135.478,-0.937683 L 135.664,-0.540771
 L 135.747,-0.109879 L 135.719,0.327896 L 135.583,0.745087 L 135.348,1.11546 L 135.029,1.41576 L 134.644,1.62709
 L 134.219,1.73618 z
M 77.7807,1.73618 L 77.3558,1.62709 L 76.9714,1.41576 L 76.6516,1.11546 L 76.4166,0.745087 L 76.281,0.327896
 L 76.2535,-0.109879 L 76.3357,-0.540771 L 76.5224,-0.937683 L 76.802,-1.27568 L 77.1569,-1.53352 L 77.5648,-1.69501
 L 78,-1.75 L 78.4352,-1.69501 L 78.8431,-1.53352 L 79.198,-1.27568 L 79.4776,-0.937683 L 79.6644,-0.540771
 L 79.7466,-0.109879 L 79.719,0.327896 L 79.5835,0.745087 L 79.3484,1.11546 L 79.0286,1.41576 L 78.6442,1.62709
 L 78.2193,1.73618 z
M 222.945,-6.5618 L 224.702,-7.52788 L 226.164,-8.90062 L 227.239,-10.5938 L 227.858,-12.501 L 227.984,-14.5023
 L 227.984,-46.5023 L 227.608,-48.4721 L 226.755,-50.2866 L 225.476,-51.8317 L 223.854,-53.0105 L 221.99,-53.7487
 L 220,-54 L 218.01,-53.7487 L 216.146,-53.0105 L 214.524,-51.8317 L 213.245,-50.2866 L 212.392,-48.4721
 L 212.016,-46.5023 L 212.016,-14.5023 L 212.142,-12.501 L 212.761,-10.5938 L 213.836,-8.90062 L 215.298,-7.52788
 L 217.055,-6.5618 L 218.997,-6.0631 L 221.003,-6.0631 z
M 219.796,-44.3878 L 219.402,-44.4891 L 219.045,-44.6853 L 218.748,-44.9642 L 218.53,-45.3081 L 218.404,-45.6955
 L 218.378,-46.102 L 218.455,-46.5022 L 218.628,-46.8707 L 218.888,-47.1846 L 219.217,-47.424 L 219.596,-47.5739
 L 220,-47.625 L 220.404,-47.5739 L 220.783,-47.424 L 221.112,-47.1846 L 221.372,-46.8707 L 221.545,-46.5022
 L 221.622,-46.102 L 221.596,-45.6955 L 221.47,-45.3081 L 221.252,-44.9642 L 220.955,-44.6853 L 220.598,-44.4891
 L 220.204,-44.3878 z
M 219.796,-12.3878 L 219.402,-12.4891 L 219.045,-12.6853 L 218.748,-12.9642 L 218.53,-13.3081 L 218.404,-13.6955
 L 218.378,-14.102 L 218.455,-14.5022 L 218.628,-14.8707 L 218.888,-15.1846 L 219.217,-15.424 L 219.596,-15.574
 L 220,-15.625 L 220.404,-15.574 L 220.783,-15.424 L 221.112,-15.1846 L 221.372,-14.8707 L 221.545,-14.5022
 L 221.622,-14.102 L 221.596,-13.6955 L 221.47,-13.3081 L 221.252,-12.9642 L 220.955,-12.6853 L 220.598,-12.4891
 L 220.204,-12.3878 z
" stroke="black" fill="none" stroke-width="0.5"/></svg>
