<?xml version="1.0" standalone="no"?>
<!DOCTYPE svg PUBLIC "-//W3C//DTD SVG 1.1//EN" "http://www.w3.org/Graphics/SVG/1.1/DTD/svg11.dtd">
<svg width="414" height="235" viewBox="4 -227 414 235" xmlns="http://www.w3.org/2000/svg" version="1.1">
<title>OpenSCAD Model</title>
<path d="
M 201.915,-147.232 L 203.718,-147.916 L 205.305,-149.012 L 206.584,-150.455 L 207.48,-152.163 L 207.942,-154.036
 L 207.942,-219.564 L 207.48,-221.437 L 206.584,-223.145 L 205.305,-224.588 L 203.718,-225.684 L 201.915,-226.368
 L 200,-226.6 L 12,-226.6 L 10.0855,-226.368 L 8.28223,-225.684 L 6.69502,-224.588 L 5.41614,-223.145
 L 4.51988,-221.437 L 4.05833,-219.564 L 4.05833,-154.036 L 4.51988,-152.163 L 5.41614,-150.455 L 6.69502,-149.012
 L 8.28223,-147.916 L 10.0855,-147.232 L 12,-147 L 200,-147 z
M 197.496,-211.498 L 197.102,-211.599 L 196.745,-211.795 L 196.448,-212.074 L 196.23,-212.418 L 196.104,-212.805
 L 196.078,-213.212 L 196.155,-213.612 L 196.328,-213.981 L 196.588,-214.295 L 196.917,-214.534 L 197.296,-214.684
 L 197.7,-214.735 L 198.104,-214.684 L 198.483,-214.534 L 198.812,-214.295 L 199.072,-213.981 L 199.245,-213.612
 L 199.322,-213.212 L 199.296,-212.805 L 199.17,-212.418 L 198.952,-212.074 L 198.655,-211.795 L 198.298,-211.599
 L 197.904,-211.498 z
M 17.2963,-211.498 L 16.9018,-211.599 L 16.5449,-211.795 L 16.2479,-212.074 L 16.0297,-212.418 L 15.9038,-212.805
 L 15.8782,-213.212 L 15.9545,-213.612 L 16.128,-213.981 L 16.3876,-214.295 L 16.7172,-214.534 L 17.0959,-214.684
 L 17.5,-214.735 L 17.9041,-214.684 L 18.2829,-214.534 L 18.6124,-214.295 L 18.872,-213.981 L 19.0455,-213.612
 L 19.1218,-213.212 L 19.0962,-212.805 L 18.9704,-212.418 L 18.7521,-212.074 L 18.4552,-211.795 L 18.0982,-211.599
 L 17.7037,-211.498 z
M 17.2963,-155.688 L 16.9018,-155.789 L 16.5449,-155.985 L 16.2479,-156.264 L 16.0297,-156.608 L 15.9038,-156.995
 L 15.8782,-157.402 L 15.9545,-157.802 L 16.128,-158.171 L 16.3876,-158.485 L 16.7172,-158.724 L 17.0959,-158.874
 L 17.5,-158.925 L 17.9041,-158.874 L 18.2829,-158.724 L 18.6124,-158.485 L 18.872,-158.171 L 19.0455,-157.802
 L 19.1218,-157.402 L 19.0962,-156.995 L 18.9704,-156.608 L 18.7521,-156.264 L 18.4552,-155.985 L 18.0982,-155.789
 L 17.7037,-155.688 z
M 197.496,-155.688 L 197.102,-155.789 L 196.745,-155.985 L 196.448,-156.264 L 196.23,-156.608 L 196.104,-156.995
 L 196.078,-157.402 L 196.155,-157.802 L 196.328,-158.171 L 196.588,-158.485 L 196.917,-158.724 L 197.296,-158.874
 L 197.7,-158.925 L 198.104,-158.874 L 198.483,-158.724 L 198.812,-158.485 L 199.072,-158.171 L 199.245,-157.802
 L 199.322,-157.402 L 199.296,-156.995 L 199.17,-156.608 L 198.952,-156.264 L 198.655,-155.985 L 198.298,-155.789
 L 197.904,-155.688 z
M 411.915,-147.232 L 413.718,-147.916 L 415.305,-149.012 L 416.584,-150.455 L 417.48,-152.163 L 417.942,-154.036
 L 417.942,-219.564 L 417.48,-221.437 L 416.584,-223.145 L 415.305,-224.588 L 413.718,-225.684 L 411.915,-226.368
 L 410,-226.6 L 222,-226.6 L 220.085,-226.368 L 218.282,-225.684 L 216.695,-224.588 L 215.416,-223.145
 L 214.52,-221.437 L 214.058,-219.564 L 214.058,-154.036 L 214.52,-152.163 L 215.416,-150.455 L 216.695,-149.012
 L 218.282,-147.916 L 220.085,-147.232 L 222,-147 L 410,-147 z
M 407.496,-211.498 L 407.102,-211.599 L 406.745,-211.795 L 406.448,-212.074 L 406.23,-212.418 L 406.104,-212.805
 L 406.078,-213.212 L 406.155,-213.612 L 406.328,-213.981 L 406.588,-214.295 L 406.917,-214.534 L 407.296,-214.684
 L 407.7,-214.735 L 408.104,-214.684 L 408.483,-214.534 L 408.812,-214.295 L 409.072,-213.981 L 409.245,-213.612
 L 409.322,-213.212 L 409.296,-212.805 L 409.17,-212.418 L 408.952,-212.074 L 408.655,-211.795 L 408.298,-211.599
 L 407.904,-211.498 z
M 227.296,-211.498 L 226.902,-211.599 L 226.545,-211.795 L 226.248,-212.074 L 226.03,-212.418 L 225.904,-212.805
 L 225.878,-213.212 L 225.955,-213.612 L 226.128,-213.981 L 226.388,-214.295 L 226.717,-214.534 L 227.096,-214.684
 L 227.5,-214.735 L 227.904,-214.684 L 228.283,-214.534 L 228.612,-214.295 L 228.872,-213.981 L 229.045,-213.612
 L 229.122,-213.212 L 229.096,-212.805 L 228.97,-212.418 L 228.752,-212.074 L 228.455,-211.795 L 228.098,-211.599
 L 227.704,-211.498 z
M 303.498,-208.455 L 303.129,-208.628 L 302.815,-208.888 L 302.576,-209.217 L 302.426,-209.596 L 302.375,-210
 L 302.426,-210.404 L 302.576,-210.783 L 302.815,-211.112 L 303.129,-211.372 L 303.498,-211.545 L 303.898,-211.622
 L 304.305,-211.596 L 304.692,-211.47 L 305.036,-211.252 L 305.315,-210.955 L 305.511,-210.598 L 305.612,-210.204
 L 305.612,-209.796 L 305.511,-209.402 L 305.315,-209.045 L 305.036,-208.748 L 304.692,-208.53 L 304.305,-208.404
 L 303.898,-208.378 z
M 335.498,-208.455 L 335.129,-208.628 L 334.815,-208.888 L 334.576,-209.217 L 334.426,-209.596 L 334.375,-210
 L 334.426,-210.404 L 334.576,-210.783 L 334.815,-211.112 L 335.129,-211.372 L 335.498,-211.545 L 335.898,-211.622
 L 336.304,-211.596 L 336.692,-211.47 L 337.036,-211.252 L 337.315,-210.955 L 337.511,-210.598 L 337.612,-210.204
 L 337.612,-209.796 L 337.511,-209.402 L 337.315,-209.045 L 337.036,-208.748 L 336.692,-208.53 L 336.304,-208.404
 L 335.898,-208.378 z
M 239.796,-199.388 L 239.402,-199.489 L 239.045,-199.685 L 238.748,-199.964 L 238.53,-200.308 L 238.404,-200.695
 L 238.378,-201.102 L 238.455,-201.502 L 238.628,-201.871 L 238.888,-202.185 L 239.217,-202.424 L 239.596,-202.574
 L 240,-202.625 L 240.404,-202.574 L 240.783,-202.424 L 241.112,-202.185 L 241.372,-201.871 L 241.545,-201.502
 L 241.622,-201.102 L 241.596,-200.695 L 241.47,-200.308 L 241.252,-199.964 L 240.955,-199.685 L 240.598,-199.489
 L 240.204,-199.388 z
M 389.796,-199.388 L 389.402,-199.489 L 389.045,-199.685 L 388.748,-199.964 L 388.53,-200.308 L 388.404,-200.695
 L 388.378,-201.102 L 388.455,-201.502 L 388.628,-201.871 L 388.888,-202.185 L 389.217,-202.424 L 389.596,-202.574
 L 390,-202.625 L 390.404,-202.574 L 390.783,-202.424 L 391.112,-202.185 L 391.372,-201.871 L 391.545,-201.502
 L 391.622,-201.102 L 391.596,-200.695 L 391.47,-200.308 L 391.252,-199.964 L 390.955,-199.685 L 390.598,-199.489
 L 390.204,-199.388 z
M 343.781,-172.264 L 343.356,-172.373 L 342.971,-172.584 L 342.652,-172.885 L 342.417,-173.255 L 342.281,-173.672
 L 342.253,-174.11 L 342.336,-174.541 L 342.522,-174.938 L 342.802,-175.276 L 343.157,-175.534 L 343.565,-175.695
 L 344,-175.75 L 344.435,-175.695 L 344.843,-175.534 L 345.198,-175.276 L 345.478,-174.938 L 345.664,-174.541
 L 345.747,-174.11 L 345.719,-173.672 L 345.583,-173.255 L 345.348,-172.885 L 345.029,-172.584 L 344.644,-172.373
 L 344.219,-172.264 z
M 287.781,-172.264 L 287.356,-172.373 L 286.971,-172.584 L 286.652,-172.885 L 286.417,-173.255 L 286.281,-173.672
 L 286.253,-174.11 L 286.336,-174.541 L 286.522,-174.938 L 286.802,-175.276 L 287.157,-175.534 L 287.565,-175.695
 L 288,-175.75 L 288.435,-175.695 L 288.843,-175.534 L 289.198,-175.276 L 289.478,-174.938 L 289.664,-174.541
 L 289.747,-174.11 L 289.719,-173.672 L 289.583,-173.255 L 289.348,-172.885 L 289.029,-172.584 L 288.644,-172.373
 L 288.219,-172.264 z
M 239.796,-167.388 L 239.402,-167.489 L 239.045,-167.685 L 238.748,-167.964 L 238.53,-168.308 L 238.404,-168.696
 L 238.378,-169.102 L 238.455,-169.502 L 238.628,-169.871 L 238.888,-170.185 L 239.217,-170.424 L 239.596,-170.574
 L 240,-170.625 L 240.404,-170.574 L 240.783,-170.424 L 241.112,-170.185 L 241.372,-169.871 L 241.545,-169.502
 L 241.622,-169.102 L 241.596,-168.696 L 241.47,-168.308 L 241.252,-167.964 L 240.955,-167.685 L 240.598,-167.489
 L 240.204,-167.388 z
M 389.796,-167.388 L 389.402,-167.489 L 389.045,-167.685 L 388.748,-167.964 L 388.53,-168.308 L 388.404,-168.696
 L 388.378,-169.102 L 388.455,-169.502 L 388.628,-169.871 L 388.888,-170.185 L 389.217,-170.424 L 389.596,-170.574
 L 390,-170.625 L 390.404,-170.574 L 390.783,-170.424 L 391.112,-170.185 L 391.372,-169.871 L 391.545,-169.502
 L 391.622,-169.102 L 391.596,-168.696 L 391.47,-168.308 L 391.252,-167.964 L 390.955,-167.685 L 390.598,-167.489
 L 390.204,-167.388 z
M 407.496,-155.688 L 407.102,-155.789 L 406.745,-155.985 L 406.448,-156.264 L 406.23,-156.608 L 406.104,-156.995
 L 406.078,-157.402 L 406.155,-157.802 L 406.328,-158.171 L 406.588,-158.485 L 406.917,-158.724 L 407.296,-158.874
 L 407.7,-158.925 L 408.104,-158.874 L 408.483,-158.724 L 408.812,-158.485 L 409.072,-158.171 L 409.245,-157.802
 L 409.322,-157.402 L 409.296,-156.995 L 409.17,-156.608 L 408.952,-156.264 L 408.655,-155.985 L 408.298,-155.789
 L 407.904,-155.688 z
M 227.296,-155.688 L 226.902,-155.789 L 226.545,-155.985 L 226.248,-156.264 L 226.03,-156.608 L 225.904,-156.995
 L 225.878,-157.402 L 225.955,-157.802 L 226.128,-158.171 L 226.388,-158.485 L 226.717,-158.724 L 227.096,-158.874
 L 227.5,-158.925 L 227.904,-158.874 L 228.283,-158.724 L 228.612,-158.485 L 228.872,-158.171 L 229.045,-157.802
 L 229.122,-157.402 L 229.096,-156.995 L 228.97,-156.608 L 228.752,-156.264 L 228.455,-155.985 L 228.098,-155.789
 L 227.704,-155.688 z
M 343.781,-153.264 L 343.356,-153.373 L 342.971,-153.584 L 342.652,-153.885 L 342.417,-154.255 L 342.281,-154.672
 L 342.253,-155.11 L 342.336,-155.541 L 342.522,-155.938 L 342.802,-156.276 L 343.157,-156.534 L 343.565,-156.695
 L 344,-156.75 L 344.435,-156.695 L 344.843,-156.534 L 345.198,-156.276 L 345.478,-155.938 L 345.664,-155.541
 L 345.747,-155.11 L 345.719,-154.672 L 345.583,-154.255 L 345.348,-153.885 L 345.029,-153.584 L 344.644,-153.373
 L 344.219,-153.264 z
M 287.781,-153.264 L 287.356,-153.373 L 286.971,-153.584 L 286.652,-153.885 L 286.417,-154.255 L 286.281,-154.672
 L 286.253,-155.11 L 286.336,-155.541 L 286.522,-155.938 L 286.802,-156.276 L 287.157,-156.534 L 287.565,-156.695
 L 288,-156.75 L 288.435,-156.695 L 288.843,-156.534 L 289.198,-156.276 L 289.478,-155.938 L 289.664,-155.541
 L 289.747,-155.11 L 289.719,-154.672 L 289.583,-154.255 L 289.348,-153.885 L 289.029,-153.584 L 288.644,-153.373
 L 288.219,-153.264 z
M 222.945,-96.5618 L 224.702,-97.5279 L 226.164,-98.9006 L 227.239,-100.594 L 227.858,-102.501 L 227.984,-104.502
 L 227.984,-136.502 L 227.608,-138.472 L 226.755,-140.287 L 225.476,-141.832 L 223.854,-143.01 L 221.99,-143.749
 L 220,-144 L 218.01,-143.749 L 216.146,-143.01 L 214.524,-141.832 L 213.245,-140.287 L 212.392,-138.472
 L 212.016,-136.502 L 212.016,-104.502 L 212.142,-102.501 L 212.761,-100.594 L 213.836,-98.9006 L 215.298,-97.5279
 L 217.055,-96.5618 L 218.997,-96.0631 L 221.003,-96.0631 z
M 219.796,-134.388 L 219.402,-134.489 L 219.045,-134.685 L 218.748,-134.964 L 218.53,-135.308 L 218.404,-135.695
 L 218.378,-136.102 L 218.455,-136.502 L 218.628,-136.871 L 218.888,-137.185 L 219.217,-137.424 L 219.596,-137.574
 L 220,-137.625 L 220.404,-137.574 L 220.783,-137.424 L 221.112,-137.185 L 221.372,-136.871 L 221.545,-136.502
 L 221.622,-136.102 L 221.596,-135.695 L 221.47,-135.308 L 221.252,-134.964 L 220.955,-134.685 L 220.598,-134.489
 L 220.204,-134.388 z
M 219.796,-102.388 L 219.402,-102.489 L 219.045,-102.685 L 218.748,-102.964 L 218.53,-103.308 L 218.404,-103.696
 L 218.378,-104.102 L 218.455,-104.502 L 218.628,-104.871 L 218.888,-105.185 L 219.217,-105.424 L 219.596,-105.574
 L 220,-105.625 L 220.404,-105.574 L 220.783,-105.424 L 221.112,-105.185 L 221.372,-104.871 L 221.545,-104.502
 L 221.622,-104.102 L 221.596,-103.696 L 221.47,-103.308 L 221.252,-102.964 L 220.955,-102.685 L 220.598,-102.489
 L 220.204,-102.388 z
M 17.945,-96.5618 L 19.7023,-97.5279 L 21.1641,-98.9006 L 22.2386,-100.594 L 22.8583,-102.501 L 22.9842,-104.502
 L 22.9842,-136.502 L 22.6084,-138.472 L 21.7546,-140.287 L 20.4764,-141.832 L 18.854,-143.01 L 16.9895,-143.749
 L 15,-144 L 13.0105,-143.749 L 11.146,-143.01 L 9.52364,-141.832 L 8.24539,-140.287 L 7.39156,-138.472
 L 7.01579,-136.502 L 7.01578,-104.502 L 7.14169,-102.501 L 7.76138,-100.594 L 8.83591,-98.9006 L 10.2977,-97.5279
 L 12.055,-96.5618 L 13.9973,-96.0631 L 16.0027,-96.0631 z
M 14.7963,-134.388 L 14.4018,-134.489 L 14.0449,-134.685 L 13.7479,-134.964 L 13.5297,-135.308 L 13.4038,-135.695
 L 13.3782,-136.102 L 13.4545,-136.502 L 13.628,-136.871 L 13.8876,-137.185 L 14.2172,-137.424 L 14.5959,-137.574
 L 15,-137.625 L 15.4041,-137.574 L 15.7828,-137.424 L 16.1124,-137.185 L 16.372,-136.871 L 16.5455,-136.502
 L 16.6218,-136.102 L 16.5962,-135.695 L 16.4703,-135.308 L 16.2521,-134.964 L 15.9551,-134.685 L 15.5982,-134.489
 L 15.2037,-134.388 z
M 14.7963,-102.388 L 14.4018,-102.489 L 14.0448,-102.685 L 13.7479,-102.964 L 13.5296,-103.308 L 13.4038,-103.696
 L 13.3782,-104.102 L 13.4545,-104.502 L 13.628,-104.871 L 13.8876,-105.185 L 14.2172,-105.424 L 14.5959,-105.574
 L 15,-105.625 L 15.4041,-105.574 L 15.7828,-105.424 L 16.1124,-105.185 L 16.372,-104.871 L 16.5455,-104.502
 L 16.6218,-104.102 L 16.5962,-103.696 L 16.4703,-103.308 L 16.2521,-102.964 L 15.9551,-102.685 L 15.5982,-102.489
 L 15.2036,-102.388 z
M 201.915,7.76753 L 203.718,7.08363 L 205.305,5.98808 L 206.584,4.54451 L 207.48,2.83684 L 207.942,0.964279
 L 207.942,-136.164 L 207.48,-138.037 L 206.584,-139.745 L 205.305,-141.188 L 203.718,-142.284 L 201.915,-142.968
 L 200,-143.2 L 106.04,-143.2 L 104.125,-142.968 L 102.322,-142.284 L 48.5222,-112.184 L 46.935,-111.088
 L 6.69502,-69.5881 L 5.41614,-68.1445 L 4.51988,-66.4368 L 4.05833,-64.5643 L 4.05833,0.964264 L 4.51988,2.83682
 L 5.41614,4.54449 L 6.69502,5.98807 L 8.28223,7.08362 L 10.0855,7.76752 L 12,7.99998 L 200,8
 z
M 197.496,-128.098 L 197.102,-128.199 L 196.745,-128.395 L 196.448,-128.674 L 196.23,-129.018 L 196.104,-129.406
 L 196.078,-129.812 L 196.155,-130.212 L 196.328,-130.581 L 196.588,-130.895 L 196.917,-131.134 L 197.296,-131.284
 L 197.7,-131.335 L 198.104,-131.284 L 198.483,-131.134 L 198.812,-130.895 L 199.072,-130.581 L 199.245,-130.212
 L 199.322,-129.812 L 199.296,-129.406 L 199.17,-129.018 L 198.952,-128.674 L 198.655,-128.395 L 198.298,-128.199
 L 197.904,-128.098 z
M 110.996,-128.098 L 110.602,-128.199 L 110.245,-128.395 L 109.948,-128.674 L 109.73,-129.018 L 109.604,-129.406
 L 109.578,-129.812 L 109.655,-130.212 L 109.828,-130.581 L 110.088,-130.895 L 110.417,-131.134 L 110.796,-131.284
 L 111.2,-131.335 L 111.604,-131.284 L 111.983,-131.134 L 112.312,-130.895 L 112.572,-130.581 L 112.745,-130.212
 L 112.822,-129.812 L 112.796,-129.406 L 112.67,-129.018 L 112.452,-128.674 L 112.155,-128.395 L 111.798,-128.199
 L 111.404,-128.098 z
M 52.9963,-95.1878 L 52.6018,-95.2891 L 52.2449,-95.4853 L 51.9479,-95.7642 L 51.7297,-96.1081 L 51.6038,-96.4955
 L 51.5782,-96.902 L 51.6545,-97.3021 L 51.828,-97.6707 L 52.0876,-97.9846 L 52.4172,-98.224 L 52.7959,-98.3739
 L 53.2,-98.425 L 53.6041,-98.3739 L 53.9829,-98.224 L 54.3124,-97.9846 L 54.572,-97.6707 L 54.7455,-97.3021
 L 54.8218,-96.902 L 54.7962,-96.4955 L 54.6703,-96.1081 L 54.4521,-95.7642 L 54.1552,-95.4853 L 53.7982,-95.2891
 L 53.4037,-95.1878 z
M 89.9963,-95.1878 L 89.6018,-95.2891 L 89.2449,-95.4853 L 88.9479,-95.7642 L 88.7297,-96.1081 L 88.6038,-96.4955
 L 88.5782,-96.902 L 88.6545,-97.3021 L 88.828,-97.6707 L 89.0876,-97.9846 L 89.4172,-98.224 L 89.7959,-98.3739
 L 90.2,-98.425 L 90.6041,-98.3739 L 90.9829,-98.224 L 91.3124,-97.9846 L 91.572,-97.6707 L 91.7455,-97.3021
 L 91.8218,-96.902 L 91.7962,-96.4955 L 91.6703,-96.1081 L 91.4521,-95.7642 L 91.1552,-95.4853 L 90.7982,-95.2891
 L 90.4037,-95.1878 z
M 41.0595,-91.7087 L 40.6683,-91.8224 L 40.3177,-92.0297 L 40.0297,-92.3177 L 39.8224,-92.6683 L 39.7087,-93.0595
 L 39.6959,-93.4666 L 39.7848,-93.8641 L 39.9697,-94.2271 L 40.2391,-94.5326 L 40.576,-94.7616 L 40.9592,-94.8996
 L 41.3648,-94.9379 L 41.7671,-94.8742 L 42.1409,-94.7124 L 42.4628,-94.4628 L 42.7124,-94.1409 L 42.8742,-93.7671
 L 42.9379,-93.3647 L 42.8996,-92.9592 L 42.7616,-92.576 L 42.5326,-92.2391 L 42.2271,-91.9697 L 41.8642,-91.7848
 L 41.4666,-91.6959 z
M 197.496,-72.2878 L 197.102,-72.3891 L 196.745,-72.5853 L 196.448,-72.8642 L 196.23,-73.2081 L 196.104,-73.5955
 L 196.078,-74.002 L 196.155,-74.4021 L 196.328,-74.7707 L 196.588,-75.0846 L 196.917,-75.324 L 197.296,-75.4739
 L 197.7,-75.525 L 198.104,-75.4739 L 198.483,-75.324 L 198.812,-75.0846 L 199.072,-74.7707 L 199.245,-74.4021
 L 199.322,-74.002 L 199.296,-73.5955 L 199.17,-73.2081 L 198.952,-72.8642 L 198.655,-72.5853 L 198.298,-72.3891
 L 197.904,-72.2878 z
M 110.996,-72.2878 L 110.602,-72.3891 L 110.245,-72.5853 L 109.948,-72.8642 L 109.73,-73.2081 L 109.604,-73.5955
 L 109.578,-74.002 L 109.655,-74.4021 L 109.828,-74.7707 L 110.088,-75.0846 L 110.417,-75.324 L 110.796,-75.4739
 L 111.2,-75.525 L 111.604,-75.4739 L 111.983,-75.324 L 112.312,-75.0846 L 112.572,-74.7707 L 112.745,-74.4021
 L 112.822,-74.002 L 112.796,-73.5955 L 112.67,-73.2081 L 112.452,-72.8642 L 112.155,-72.5853 L 111.798,-72.3891
 L 111.404,-72.2878 z
M 18.4321,-69.0813 L 18.0409,-69.1949 L 17.6903,-69.4023 L 17.4023,-69.6903 L 17.195,-70.0409 L 17.0813,-70.4321
 L 17.0685,-70.8392 L 17.1574,-71.2367 L 17.3423,-71.5997 L 17.6117,-71.9052 L 17.9486,-72.1342 L 18.3318,-72.2722
 L 18.7374,-72.3105 L 19.1397,-72.2468 L 19.5135,-72.085 L 19.8353,-71.8353 L 20.085,-71.5135 L 20.2468,-71.1397
 L 20.3105,-70.7373 L 20.2722,-70.3318 L 20.1342,-69.9486 L 19.9052,-69.6117 L 19.5997,-69.3423 L 19.2368,-69.1574
 L 18.8392,-69.0685 z
M 17.2963,-56.4978 L 16.9018,-56.5991 L 16.5449,-56.7953 L 16.2479,-57.0742 L 16.0297,-57.4181 L 15.9038,-57.8055
 L 15.8782,-58.212 L 15.9545,-58.6122 L 16.128,-58.9807 L 16.3876,-59.2946 L 16.7172,-59.534 L 17.0959,-59.6839
 L 17.5,-59.735 L 17.9041,-59.6839 L 18.2829,-59.534 L 18.6124,-59.2946 L 18.872,-58.9807 L 19.0455,-58.6122
 L 19.1218,-58.212 L 19.0962,-57.8055 L 18.9704,-57.4181 L 18.7521,-57.0742 L 18.4552,-56.7953 L 18.0982,-56.5991
 L 17.7037,-56.4978 z
M 197.496,-56.4978 L 197.102,-56.5991 L 196.745,-56.7953 L 196.448,-57.0742 L 196.23,-57.4181 L 196.104,-57.8055
 L 196.078,-58.212 L 196.155,-58.6122 L 196.328,-58.9807 L 196.588,-59.2946 L 196.917,-59.534 L 197.296,-59.6839
 L 197.7,-59.735 L 198.104,-59.6839 L 198.483,-59.534 L 198.812,-59.2946 L 199.072,-58.9807 L 199.245,-58.6122
 L 199.322,-58.212 L 199.296,-57.8055 L 199.17,-57.4181 L 198.952,-57.0742 L 198.655,-56.7953 L 198.298,-56.5991
 L 197.904,-56.4978 z
M 197.496,-0.687805 L 197.102,-0.789108 L 196.745,-0.985336 L 196.448,-1.26418 L 196.23,-1.60811 L 196.104,-1.9955
 L 196.078,-2.40202 L 196.155,-2.80214 L 196.328,-3.17072 L 196.588,-3.48457 L 196.917,-3.72398 L 197.296,-3.87395
 L 197.7,-3.92499 L 198.104,-3.87395 L 198.483,-3.72398 L 198.812,-3.48457 L 199.072,-3.17072 L 199.245,-2.80214
 L 199.322,-2.40202 L 199.296,-1.9955 L 199.17,-1.60811 L 198.952,-1.26418 L 198.655,-0.985336 L 198.298,-0.789108
 L 197.904,-0.687805 z
M 17.2963,-0.687805 L 16.9018,-0.789108 L 16.5449,-0.985336 L 16.2479,-1.26418 L 16.0297,-1.60811 L 15.9038,-1.9955
 L 15.8782,-2.40202 L 15.9545,-2.80214 L 16.128,-3.17072 L 16.3876,-3.48457 L 16.7172,-3.72398 L 17.0959,-3.87395
 L 17.5,-3.92499 L 17.9041,-3.87395 L 18.2829,-3.72398 L 18.6124,-3.48457 L 18.872,-3.17072 L 19.0455,-2.80214
 L 19.1218,-2.40202 L 19.0962,-1.9955 L 18.9704,-1.60811 L 18.7521,-1.26418 L 18.4552,-0.985336 L 18.0982,-0.789108
 L 17.7037,-0.687805 z
M 411.915,7.76753 L 413.718,7.08363 L 415.305,5.98808 L 416.584,4.54451 L 417.48,2.83684 L 417.942,0.964279
 L 417.942,-136.164 L 417.48,-138.037 L 416.584,-139.745 L 415.305,-141.188 L 413.718,-142.284 L 411.915,-142.968
 L 410,-143.2 L 316.04,-143.2 L 314.125,-142.968 L 312.322,-142.284 L 258.522,-112.184 L 256.935,-111.088
 L 216.695,-69.5881 L 215.416,-68.1445 L 214.52,-66.4368 L 214.058,-64.5643 L 214.058,0.964264 L 214.52,2.83682
 L 215.416,4.54449 L 216.695,5.98807 L 218.282,7.08362 L 220.085,7.76752 L 222,7.99998 L 410,8
 z
M 407.496,-128.098 L 407.102,-128.199 L 406.745,-128.395 L 406.448,-128.674 L 406.23,-129.018 L 406.104,-129.406
 L 406.078,-129.812 L 406.155,-130.212 L 406.328,-130.581 L 406.588,-130.895 L 406.917,-131.134 L 407.296,-131.284
 L 407.7,-131.335 L 408.104,-131.284 L 408.483,-131.134 L 408.812,-130.895 L 409.072,-130.581 L 409.245,-130.212
 L 409.322,-129.812 L 409.296,-129.406 L 409.17,-129.018 L 408.952,-128.674 L 408.655,-128.395 L 408.298,-128.199
 L 407.904,-128.098 z
M 320.996,-128.098 L 320.602,-128.199 L 320.245,-128.395 L 319.948,-128.674 L 319.73,-129.018 L 319.604,-129.406
 L 319.578,-129.812 L 319.655,-130.212 L 319.828,-130.581 L 320.088,-130.895 L 320.417,-131.134 L 320.796,-131.284
 L 321.2,-131.335 L 321.604,-131.284 L 321.983,-131.134 L 322.312,-130.895 L 322.572,-130.581 L 322.745,-130.212
 L 322.822,-129.812 L 322.796,-129.406 L 322.67,-129.018 L 322.452,-128.674 L 322.155,-128.395 L 321.798,-128.199
 L 321.404,-128.098 z
M 380.498,-118.455 L 380.129,-118.628 L 379.815,-118.888 L 379.576,-119.217 L 379.426,-119.596 L 379.375,-120
 L 379.426,-120.404 L 379.576,-120.783 L 379.815,-121.112 L 380.129,-121.372 L 380.498,-121.545 L 380.898,-121.622
 L 381.304,-121.596 L 381.692,-121.47 L 382.036,-121.252 L 382.315,-120.955 L 382.511,-120.598 L 382.612,-120.204
 L 382.612,-119.796 L 382.511,-119.402 L 382.315,-119.045 L 382.036,-118.748 L 381.692,-118.53 L 381.304,-118.404
 L 380.898,-118.378 z
M 348.498,-118.455 L 348.129,-118.628 L 347.815,-118.888 L 347.576,-119.217 L 347.426,-119.596 L 347.375,-120
 L 347.426,-120.404 L 347.576,-120.783 L 347.815,-121.112 L 348.129,-121.372 L 348.498,-121.545 L 348.898,-121.622
 L 349.305,-121.596 L 349.692,-121.47 L 350.036,-121.252 L 350.315,-120.955 L 350.511,-120.598 L 350.612,-120.204
 L 350.612,-119.796 L 350.511,-119.402 L 350.315,-119.045 L 350.036,-118.748 L 349.692,-118.53 L 349.305,-118.404
 L 348.898,-118.378 z
M 299.996,-95.1878 L 299.602,-95.2891 L 299.245,-95.4853 L 298.948,-95.7642 L 298.73,-96.1081 L 298.604,-96.4955
 L 298.578,-96.902 L 298.655,-97.3021 L 298.828,-97.6707 L 299.088,-97.9846 L 299.417,-98.224 L 299.796,-98.3739
 L 300.2,-98.425 L 300.604,-98.3739 L 300.983,-98.224 L 301.312,-97.9846 L 301.572,-97.6707 L 301.745,-97.3021
 L 301.822,-96.902 L 301.796,-96.4955 L 301.67,-96.1081 L 301.452,-95.7642 L 301.155,-95.4853 L 300.798,-95.2891
 L 300.404,-95.1878 z
M 262.996,-95.1878 L 262.602,-95.2891 L 262.245,-95.4853 L 261.948,-95.7642 L 261.73,-96.1081 L 261.604,-96.4955
 L 261.578,-96.902 L 261.655,-97.3021 L 261.828,-97.6707 L 262.088,-97.9846 L 262.417,-98.224 L 262.796,-98.3739
 L 263.2,-98.425 L 263.604,-98.3739 L 263.983,-98.224 L 264.312,-97.9846 L 264.572,-97.6707 L 264.745,-97.3021
 L 264.822,-96.902 L 264.796,-96.4955 L 264.67,-96.1081 L 264.452,-95.7642 L 264.155,-95.4853 L 263.798,-95.2891
 L 263.404,-95.1878 z
M 251.059,-91.7087 L 250.668,-91.8224 L 250.318,-92.0297 L 250.03,-92.3177 L 249.822,-92.6683 L 249.709,-93.0595
 L 249.696,-93.4666 L 249.785,-93.8641 L 249.97,-94.2271 L 250.239,-94.5326 L 250.576,-94.7616 L 250.959,-94.8996
 L 251.365,-94.9379 L 251.767,-94.8742 L 252.141,-94.7124 L 252.463,-94.4628 L 252.712,-94.1409 L 252.874,-93.7671
 L 252.938,-93.3647 L 252.9,-92.9592 L 252.762,-92.576 L 252.533,-92.2391 L 252.227,-91.9697 L 251.864,-91.7848
 L 251.467,-91.6959 z
M 320.996,-72.2878 L 320.602,-72.3891 L 320.245,-72.5853 L 319.948,-72.8642 L 319.73,-73.2081 L 319.604,-73.5955
 L 319.578,-74.002 L 319.655,-74.4021 L 319.828,-74.7707 L 320.088,-75.0846 L 320.417,-75.324 L 320.796,-75.4739
 L 321.2,-75.525 L 321.604,-75.4739 L 321.983,-75.324 L 322.312,-75.0846 L 322.572,-74.7707 L 322.745,-74.4021
 L 322.822,-74.002 L 322.796,-73.5955 L 322.67,-73.2081 L 322.452,-72.8642 L 322.155,-72.5853 L 321.798,-72.3891
 L 321.404,-72.2878 z
M 407.496,-72.2878 L 407.102,-72.3891 L 406.745,-72.5853 L 406.448,-72.8642 L 406.23,-73.2081 L 406.104,-73.5955
 L 406.078,-74.002 L 406.155,-74.4021 L 406.328,-74.7707 L 406.588,-75.0846 L 406.917,-75.324 L 407.296,-75.4739
 L 407.7,-75.525 L 408.104,-75.4739 L 408.483,-75.324 L 408.812,-75.0846 L 409.072,-74.7707 L 409.245,-74.4021
 L 409.322,-74.002 L 409.296,-73.5955 L 409.17,-73.2081 L 408.952,-72.8642 L 408.655,-72.5853 L 408.298,-72.3891
 L 407.904,-72.2878 z
M 228.432,-69.0813 L 228.041,-69.1949 L 227.69,-69.4023 L 227.402,-69.6903 L 227.195,-70.0409 L 227.081,-70.4321
 L 227.069,-70.8392 L 227.157,-71.2367 L 227.342,-71.5997 L 227.612,-71.9052 L 227.949,-72.1342 L 228.332,-72.2722
 L 228.737,-72.3105 L 229.14,-72.2468 L 229.514,-72.085 L 229.835,-71.8353 L 230.085,-71.5135 L 230.247,-71.1397
 L 230.311,-70.7373 L 230.272,-70.3318 L 230.134,-69.9486 L 229.905,-69.6117 L 229.6,-69.3423 L 229.237,-69.1574
 L 228.839,-69.0685 z
M 407.496,-56.4978 L 407.102,-56.5991 L 406.745,-56.7953 L 406.448,-57.0742 L 406.23,-57.4181 L 406.104,-57.8055
 L 406.078,-58.212 L 406.155,-58.6122 L 406.328,-58.9807 L 406.588,-59.2946 L 406.917,-59.534 L 407.296,-59.6839
 L 407.7,-59.735 L 408.104,-59.6839 L 408.483,-59.534 L 408.812,-59.2946 L 409.072,-58.9807 L 409.245,-58.6122
 L 409.322,-58.212 L 409.296,-57.8055 L 409.17,-57.4181 L 408.952,-57.0742 L 408.655,-56.7953 L 408.298,-56.5991
 L 407.904,-56.4978 z
M 227.296,-56.4978 L 226.902,-56.5991 L 226.545,-56.7953 L 226.248,-57.0742 L 226.03,-57.4181 L 225.904,-57.8055
 L 225.878,-58.212 L 225.955,-58.6122 L 226.128,-58.9807 L 226.388,-59.2946 L 226.717,-59.534 L 227.096,-59.6839
 L 227.5,-59.735 L 227.904,-59.6839 L 228.283,-59.534 L 228.612,-59.2946 L 228.872,-58.9807 L 229.045,-58.6122
 L 229.122,-58.212 L 229.096,-57.8055 L 228.97,-57.4181 L 228.752,-57.0742 L 228.455,-56.7953 L 228.098,-56.5991
 L 227.704,-56.4978 z
M 331.781,-21.7638 L 331.356,-21.8729 L 330.971,-22.0842 L 330.652,-22.3845 L 330.417,-22.7549 L 330.281,-23.1721
 L 330.253,-23.6099 L 330.336,-24.0408 L 330.522,-24.4377 L 330.802,-24.7757 L 331.157,-25.0335 L 331.565,-25.195
 L 332,-25.25 L 332.435,-25.195 L 332.843,-25.0335 L 333.198,-24.7757 L 333.478,-24.4377 L 333.664,-24.0408
 L 333.747,-23.6099 L 333.719,-23.1721 L 333.583,-22.7549 L 333.348,-22.3845 L 333.029,-22.0842 L 332.644,-21.8729
 L 332.219,-21.7638 z
M 387.781,-21.7638 L 387.356,-21.8729 L 386.971,-22.0842 L 386.652,-22.3845 L 386.417,-22.7549 L 386.281,-23.1721
 L 386.253,-23.6099 L 386.336,-24.0408 L 386.522,-24.4377 L 386.802,-24.7757 L 387.157,-25.0335 L 387.565,-25.195
 L 388,-25.25 L 388.435,-25.195 L 388.843,-25.0335 L 389.198,-24.7757 L 389.478,-24.4377 L 389.664,-24.0408
 L 389.747,-23.6099 L 389.719,-23.1721 L 389.583,-22.7549 L 389.348,-22.3845 L 389.029,-22.0842 L 388.644,-21.8729
 L 388.219,-21.7638 z
M 263.498,-8.45454 L 263.129,-8.62798 L 262.815,-8.88762 L 262.576,-9.21716 L 262.426,-9.59589 L 262.375,-10
 L 262.426,-10.4041 L 262.576,-10.7828 L 262.815,-11.1124 L 263.129,-11.372 L 263.498,-11.5455 L 263.898,-11.6218
 L 264.305,-11.5962 L 264.692,-11.4703 L 265.036,-11.2521 L 265.315,-10.9551 L 265.511,-10.5982 L 265.612,-10.2037
 L 265.612,-9.79634 L 265.511,-9.40181 L 265.315,-9.04486 L 265.036,-8.74792 L 264.692,-8.52966 L 264.305,-8.40379
 L 263.898,-8.37822 z
M 295.498,-8.45454 L 295.129,-8.62798 L 294.815,-8.88762 L 294.576,-9.21716 L 294.426,-9.59589 L 294.375,-10
 L 294.426,-10.4041 L 294.576,-10.7828 L 294.815,-11.1124 L 295.129,-11.372 L 295.498,-11.5455 L 295.898,-11.6218
 L 296.304,-11.5962 L 296.692,-11.4703 L 297.036,-11.2521 L 297.315,-10.9551 L 297.511,-10.5982 L 297.612,-10.2036
 L 297.612,-9.79633 L 297.511,-9.40179 L 297.315,-9.04485 L 297.036,-8.74791 L 296.692,-8.52965 L 296.304,-8.40379
 L 295.898,-8.37822 z
M 331.781,-2.76381 L 331.356,-2.87289 L 330.971,-3.08423 L 330.652,-3.38452 L 330.417,-3.7549 L 330.281,-4.17209
 L 330.253,-4.60988 L 330.336,-5.04077 L 330.522,-5.43768 L 330.802,-5.77568 L 331.157,-6.03352 L 331.565,-6.19501
 L 332,-6.25 L 332.435,-6.19501 L 332.843,-6.03352 L 333.198,-5.77568 L 333.478,-5.43768 L 333.664,-5.04077
 L 333.747,-4.60988 L 333.719,-4.17209 L 333.583,-3.7549 L 333.348,-3.38452 L 333.029,-3.08423 L 332.644,-2.87289
 L 332.219,-2.76381 z
M 387.781,-2.76381 L 387.356,-2.87289 L 386.971,-3.08423 L 386.652,-3.38452 L 386.417,-3.7549 L 386.281,-4.17209
 L 386.253,-4.60988 L 386.336,-5.04077 L 386.522,-5.43768 L 386.802,-5.77568 L 387.157,-6.03352 L 387.565,-6.19501
 L 388,-6.25 L 388.435,-6.19501 L 388.843,-6.03352 L 389.198,-5.77568 L 389.478,-5.43768 L 389.664,-5.04077
 L 389.747,-4.60988 L 389.719,-4.17209 L 389.583,-3.7549 L 389.348,-3.38452 L 389.029,-3.08423 L 388.644,-2.87289
 L 388.219,-2.76381 z
M 227.296,-0.687805 L 226.902,-0.789108 L 226.545,-0.985336 L 226.248,-1.26418 L 226.03,-1.60811 L 225.904,-1.9955
 L 225.878,-2.40202 L 225.955,-2.80214 L 226.128,-3.17072 L 226.388,-3.48457 L 226.717,-3.72398 L 227.096,-3.87395
 L 227.5,-3.92499 L 227.904,-3.87395 L 228.283,-3.72398 L 228.612,-3.48457 L 228.872,-3.17072 L 229.045,-2.80214
 L 229.122,-2.40202 L 229.096,-1.9955 L 228.97,-1.60811 L 228.752,-1.26418 L 228.455,-0.985336 L 228.098,-0.789108
 L 227.704,-0.687805 z
M 407.496,-0.687805 L 407.102,-0.789108 L 406.745,-0.985336 L 406.448,-1.26418 L 406.23,-1.60811 L 406.104,-1.9955
 L 406.078,-2.40202 L 406.155,-2.80214 L 406.328,-3.17072 L 406.588,-3.48457 L 406.917,-3.72398 L 407.296,-3.87395
 L 407.7,-3.92499 L 408.104,-3.87395 L 408.483,-3.72398 L 408.812,-3.48457 L 409.072,-3.17072 L 409.245,-2.80214
 L 409.322,-2.40202 L 409.296,-1.9955 L 409.17,-1.60811 L 408.952,-1.26418 L 408.655,-0.985336 L 408.298,-0.789108
 L 407.904,-0.687805 z
M 68.4721,-127.392 L 70.2866,-128.245 L 71.8317,-129.524 L 73.0105,-131.146 L 73.7487,-133.01 L 74,-135
 L 73.7487,-136.99 L 73.0105,-138.854 L 71.8317,-140.476 L 70.2866,-141.755 L 68.4721,-142.608 L 66.5023,-142.984
 L 34.5023,-142.984 L 32.501,-142.858 L 30.5938,-142.239 L 28.9006,-141.164 L 27.5279,-139.702 L 26.5618,-137.945
 L 26.0631,-136.003 L 26.0631,-133.997 L 26.5618,-132.055 L 27.5279,-130.298 L 28.9006,-128.836 L 30.5938,-127.761
 L 32.501,-127.142 L 34.5023,-127.016 L 66.5023,-127.016 z
M 33.6955,-133.404 L 33.3081,-133.53 L 32.9642,-133.748 L 32.6853,-134.045 L 32.4891,-134.402 L 32.3878,-134.796
 L 32.3878,-135.204 L 32.4891,-135.598 L 32.6853,-135.955 L 32.9642,-136.252 L 33.3081,-136.47 L 33.6955,-136.596
 L 34.102,-136.622 L 34.5022,-136.545 L 34.8707,-136.372 L 35.1846,-136.112 L 35.424,-135.783 L 35.574,-135.404
 L 35.625,-135 L 35.574,-134.596 L 35.424,-134.217 L 35.1846,-133.888 L 34.8707,-133.628 L 34.5022,-133.455
 L 34.102,-133.378 z
M 65.6955,-133.404 L 65.3081,-133.53 L 64.9642,-133.748 L 64.6853,-134.045 L 64.4891,-134.402 L 64.3878,-134.796
 L 64.3878,-135.204 L 64.4891,-135.598 L 64.6853,-135.955 L 64.9642,-136.252 L 65.3081,-136.47 L 65.6955,-136.596
 L 66.102,-136.622 L 66.5022,-136.545 L 66.8707,-136.372 L 67.1846,-136.112 L 67.424,-135.783 L 67.5739,-135.404
 L 67.625,-135 L 67.5739,-134.596 L 67.424,-134.217 L 67.1846,-133.888 L 66.8707,-133.628 L 66.5022,-133.455
 L 66.102,-133.378 z
M 278.472,-127.392 L 280.287,-128.245 L 281.832,-129.524 L 283.01,-131.146 L 283.749,-133.01 L 284,-135
 L 283.749,-136.99 L 283.01,-138.854 L 281.832,-140.476 L 280.287,-141.755 L 278.472,-142.608 L 276.502,-142.984
 L 244.502,-142.984 L 242.501,-142.858 L 240.594,-142.239 L 238.901,-141.164 L 237.528,-139.702 L 236.562,-137.945
 L 236.063,-136.003 L 236.063,-133.997 L 236.562,-132.055 L 237.528,-130.298 L 238.901,-128.836 L 240.594,-127.761
 L 242.501,-127.142 L 244.502,-127.016 L 276.502,-127.016 z
M 243.696,-133.404 L 243.308,-133.53 L 242.964,-133.748 L 242.685,-134.045 L 242.489,-134.402 L 242.388,-134.796
 L 242.388,-135.204 L 242.489,-135.598 L 242.685,-135.955 L 242.964,-136.252 L 243.308,-136.47 L 243.696,-136.596
 L 244.102,-136.622 L 244.502,-136.545 L 244.871,-136.372 L 245.185,-136.112 L 245.424,-135.783 L 245.574,-135.404
 L 245.625,-135 L 245.574,-134.596 L 245.424,-134.217 L 245.185,-133.888 L 244.871,-133.628 L 244.502,-133.455
 L 244.102,-133.378 z
M 275.695,-133.404 L 275.308,-133.53 L 274.964,-133.748 L 274.685,-134.045 L 274.489,-134.402 L 274.388,-134.796
 L 274.388,-135.204 L 274.489,-135.598 L 274.685,-135.955 L 274.964,-136.252 L 275.308,-136.47 L 275.695,-136.596
 L 276.102,-136.622 L 276.502,-136.545 L 276.871,-136.372 L 277.185,-136.112 L 277.424,-135.783 L 277.574,-135.404
 L 277.625,-135 L 277.574,-134.596 L 277.424,-134.217 L 277.185,-133.888 L 276.871,-133.628 L 276.502,-133.455
 L 276.102,-133.378 z
" stroke="black" fill="none" stroke-width="0.5"/></svg>
