<?xml version="1.0" standalone="no"?>
<!DOCTYPE svg PUBLIC "-//W3C//DTD SVG 1.1//EN" "http://www.w3.org/Graphics/SVG/1.1/DTD/svg11.dtd">
<svg width="204" height="152" viewBox="4 -144 204 152" xmlns="http://www.w3.org/2000/svg" version="1.1">
<title>OpenSCAD Model</title>
<path d="
M 17.945,-96.5618 L 19.7023,-97.5279 L 21.1641,-98.9006 L 22.2386,-100.594 L 22.8583,-102.501 L 22.9842,-104.502
 L 22.9842,-136.502 L 22.6084,-138.472 L 21.7546,-140.287 L 20.4764,-141.832 L 18.854,-143.01 L 16.9895,-143.749
 L 15,-144 L 13.0105,-143.749 L 11.146,-143.01 L 9.52364,-141.832 L 8.24539,-140.287 L 7.39156,-138.472
 L 7.01579,-136.502 L 7.01578,-104.502 L 7.14169,-102.501 L 7.76138,-100.594 L 8.83591,-98.9006 L 10.2977,-97.5279
 L 12.055,-96.5618 L 13.9973,-96.0631 L 16.0027,-96.0631 z
M 14.7963,-134.388 L 14.4018,-134.489 L 14.0449,-134.685 L 13.7479,-134.964 L 13.5297,-135.308 L 13.4038,-135.695
 L 13.3782,-136.102 L 13.4545,-136.502 L 13.628,-136.871 L 13.8876,-137.185 L 14.2172,-137.424 L 14.5959,-137.574
 L 15,-137.625 L 15.4041,-137.574 L 15.7828,-137.424 L 16.1124,-137.185 L 16.372,-136.871 L 16.5455,-136.502
 L 16.6218,-136.102 L 16.5962,-135.695 L 16.4703,-135.308 L 16.2521,-134.964 L 15.9551,-134.685 L 15.5982,-134.489
 L 15.2037,-134.388 z
M 14.7963,-102.388 L 14.4018,-102.489 L 14.0448,-102.685 L 13.7479,-102.964 L 13.5296,-103.308 L 13.4038,-103.696
 L 13.3782,-104.102 L 13.4545,-104.502 L 13.628,-104.871 L 13.8876,-105.185 L 14.2172,-105.424 L 14.5959,-105.574
 L 15,-105.625 L 15.4041,-105.574 L 15.7828,-105.424 L 16.1124,-105.185 L 16.372,-104.871 L 16.5455,-104.502
 L 16.6218,-104.102 L 16.5962,-103.696 L 16.4703,-103.308 L 16.2521,-102.964 L 15.9551,-102.685 L 15.5982,-102.489
 L 15.2036,-102.388 z
M 201.915,7.76753 L 203.718,7.08363 L 205.305,5.98808 L 206.584,4.54451 L 207.48,2.83684 L 207.942,0.964279
 L 207.942,-136.164 L 207.48,-138.037 L 206.584,-139.745 L 205.305,-141.188 L 203.718,-142.284 L 201.915,-142.968
 L 200,-143.2 L 106.04,-143.2 L 104.125,-142.968 L 102.322,-142.284 L 48.5222,-112.184 L 46.935,-111.088
 L 6.69502,-69.5881 L 5.41614,-68.1445 L 4.51988,-66.4368 L 4.05833,-64.5643 L 4.05833,0.964264 L 4.51988,2.83682
 L 5.41614,4.54449 L 6.69502,5.98807 L 8.28223,7.08362 L 10.0855,7.76752 L 12,7.99998 L 200,8
 z
M 197.496,-128.098 L 197.102,-128.199 L 196.745,-128.395 L 196.448,-128.674 L 196.23,-129.018 L 196.104,-129.406
 L 196.078,-129.812 L 196.155,-130.212 L 196.328,-130.581 L 196.588,-130.895 L 196.917,-131.134 L 197.296,-131.284
 L 197.7,-131.335 L 198.104,-131.284 L 198.483,-131.134 L 198.812,-130.895 L 199.072,-130.581 L 199.245,-130.212
 L 199.322,-129.812 L 199.296,-129.406 L 199.17,-129.018 L 198.952,-128.674 L 198.655,-128.395 L 198.298,-128.199
 L 197.904,-128.098 z
M 110.996,-128.098 L 110.602,-128.199 L 110.245,-128.395 L 109.948,-128.674 L 109.73,-129.018 L 109.604,-129.406
 L 109.578,-129.812 L 109.655,-130.212 L 109.828,-130.581 L 110.088,-130.895 L 110.417,-131.134 L 110.796,-131.284
 L 111.2,-131.335 L 111.604,-131.284 L 111.983,-131.134 L 112.312,-130.895 L 112.572,-130.581 L 112.745,-130.212
 L 112.822,-129.812 L 112.796,-129.406 L 112.67,-129.018 L 112.452,-128.674 L 112.155,-128.395 L 111.798,-128.199
 L 111.404,-128.098 z
M 138.498,-118.455 L 138.129,-118.628 L 137.815,-118.888 L 137.576,-119.217 L 137.426,-119.596 L 137.375,-120
 L 137.426,-120.404 L 137.576,-120.783 L 137.815,-121.112 L 138.129,-121.372 L 138.498,-121.545 L 138.898,-121.622
 L 139.305,-121.596 L 139.692,-121.47 L 140.036,-121.252 L 140.315,-120.955 L 140.511,-120.598 L 140.612,-120.204
 L 140.612,-119.796 L 140.511,-119.402 L 140.315,-119.045 L 140.036,-118.748 L 139.692,-118.53 L 139.305,-118.404
 L 138.898,-118.378 z
M 170.498,-118.455 L 170.129,-118.628 L 169.815,-118.888 L 169.576,-119.217 L 169.426,-119.596 L 169.375,-120
 L 169.426,-120.404 L 169.576,-120.783 L 169.815,-121.112 L 170.129,-121.372 L 170.498,-121.545 L 170.898,-121.622
 L 171.304,-121.596 L 171.692,-121.47 L 172.036,-121.252 L 172.315,-120.955 L 172.511,-120.598 L 172.612,-120.204
 L 172.612,-119.796 L 172.511,-119.402 L 172.315,-119.045 L 172.036,-118.748 L 171.692,-118.53 L 171.304,-118.404
 L 170.898,-118.378 z
M 89.9963,-95.1878 L 89.6018,-95.2891 L 89.2449,-95.4853 L 88.9479,-95.7642 L 88.7297,-96.1081 L 88.6038,-96.4955
 L 88.5782,-96.902 L 88.6545,-97.3021 L 88.828,-97.6707 L 89.0876,-97.9846 L 89.4172,-98.224 L 89.7959,-98.3739
 L 90.2,-98.425 L 90.6041,-98.3739 L 90.9829,-98.224 L 91.3124,-97.9846 L 91.572,-97.6707 L 91.7455,-97.3021
 L 91.8218,-96.902 L 91.7962,-96.4955 L 91.6703,-96.1081 L 91.4521,-95.7642 L 91.1552,-95.4853 L 90.7982,-95.2891
 L 90.4037,-95.1878 z
M 52.9963,-95.1878 L 52.6018,-95.2891 L 52.2449,-95.4853 L 51.9479,-95.7642 L 51.7297,-96.1081 L 51.6038,-96.4955
 L 51.5782,-96.902 L 51.6545,-97.3021 L 51.828,-97.6707 L 52.0876,-97.9846 L 52.4172,-98.224 L 52.7959,-98.3739
 L 53.2,-98.425 L 53.6041,-98.3739 L 53.9829,-98.224 L 54.3124,-97.9846 L 54.572,-97.6707 L 54.7455,-97.3021
 L 54.8218,-96.902 L 54.7962,-96.4955 L 54.6703,-96.1081 L 54.4521,-95.7642 L 54.1552,-95.4853 L 53.7982,-95.2891
 L 53.4037,-95.1878 z
M 41.0595,-91.7087 L 40.6683,-91.8224 L 40.3177,-92.0297 L 40.0297,-92.3177 L 39.8224,-92.6683 L 39.7087,-93.0595
 L 39.6959,-93.4666 L 39.7848,-93.8641 L 39.9697,-94.2271 L 40.2391,-94.5326 L 40.576,-94.7616 L 40.9592,-94.8996
 L 41.3648,-94.9379 L 41.7671,-94.8742 L 42.1409,-94.7124 L 42.4628,-94.4628 L 42.7124,-94.1409 L 42.8742,-93.7671
 L 42.9379,-93.3647 L 42.8996,-92.9592 L 42.7616,-92.576 L 42.5326,-92.2391 L 42.2271,-91.9697 L 41.8642,-91.7848
 L 41.4666,-91.6959 z
M 110.996,-72.2878 L 110.602,-72.3891 L 110.245,-72.5853 L 109.948,-72.8642 L 109.73,-73.2081 L 109.604,-73.5955
 L 109.578,-74.002 L 109.655,-74.4021 L 109.828,-74.7707 L 110.088,-75.0846 L 110.417,-75.324 L 110.796,-75.4739
 L 111.2,-75.525 L 111.604,-75.4739 L 111.983,-75.324 L 112.312,-75.0846 L 112.572,-74.7707 L 112.745,-74.4021
 L 112.822,-74.002 L 112.796,-73.5955 L 112.67,-73.2081 L 112.452,-72.8642 L 112.155,-72.5853 L 111.798,-72.3891
 L 111.404,-72.2878 z
M 197.496,-72.2878 L 197.102,-72.3891 L 196.745,-72.5853 L 196.448,-72.8642 L 196.23,-73.2081 L 196.104,-73.5955
 L 196.078,-74.002 L 196.155,-74.4021 L 196.328,-74.7707 L 196.588,-75.0846 L 196.917,-75.324 L 197.296,-75.4739
 L 197.7,-75.525 L 198.104,-75.4739 L 198.483,-75.324 L 198.812,-75.0846 L 199.072,-74.7707 L 199.245,-74.4021
 L 199.322,-74.002 L 199.296,-73.5955 L 199.17,-73.2081 L 198.952,-72.8642 L 198.655,-72.5853 L 198.298,-72.3891
 L 197.904,-72.2878 z
M 18.4321,-69.0813 L 18.0409,-69.1949 L 17.6903,-69.4023 L 17.4023,-69.6903 L 17.195,-70.0409 L 17.0813,-70.4321
 L 17.0685,-70.8392 L 17.1574,-71.2367 L 17.3423,-71.5997 L 17.6117,-71.9052 L 17.9486,-72.1342 L 18.3318,-72.2722
 L 18.7374,-72.3105 L 19.1397,-72.2468 L 19.5135,-72.085 L 19.8353,-71.8353 L 20.085,-71.5135 L 20.2468,-71.1397
 L 20.3105,-70.7373 L 20.2722,-70.3318 L 20.1342,-69.9486 L 19.9052,-69.6117 L 19.5997,-69.3423 L 19.2368,-69.1574
 L 18.8392,-69.0685 z
M 17.2963,-56.4978 L 16.9018,-56.5991 L 16.5449,-56.7953 L 16.2479,-57.0742 L 16.0297,-57.4181 L 15.9038,-57.8055
 L 15.8782,-58.212 L 15.9545,-58.6122 L 16.128,-58.9807 L 16.3876,-59.2946 L 16.7172,-59.534 L 17.0959,-59.6839
 L 17.5,-59.735 L 17.9041,-59.6839 L 18.2829,-59.534 L 18.6124,-59.2946 L 18.872,-58.9807 L 19.0455,-58.6122
 L 19.1218,-58.212 L 19.0962,-57.8055 L 18.9704,-57.4181 L 18.7521,-57.0742 L 18.4552,-56.7953 L 18.0982,-56.5991
 L 17.7037,-56.4978 z
M 197.496,-56.4978 L 197.102,-56.5991 L 196.745,-56.7953 L 196.448,-57.0742 L 196.23,-57.4181 L 196.104,-57.8055
 L 196.078,-58.212 L 196.155,-58.6122 L 196.328,-58.9807 L 196.588,-59.2946 L 196.917,-59.534 L 197.296,-59.6839
 L 197.7,-59.735 L 198.104,-59.6839 L 198.483,-59.534 L 198.812,-59.2946 L 199.072,-58.9807 L 199.245,-58.6122
 L 199.322,-58.212 L 199.296,-57.8055 L 199.17,-57.4181 L 198.952,-57.0742 L 198.655,-56.7953 L 198.298,-56.5991
 L 197.904,-56.4978 z
M 121.781,-21.7638 L 121.356,-21.8729 L 120.971,-22.0842 L 120.652,-22.3845 L 120.417,-22.7549 L 120.281,-23.1721
 L 120.253,-23.6099 L 120.336,-24.0408 L 120.522,-24.4377 L 120.802,-24.7757 L 121.157,-25.0335 L 121.565,-25.195
 L 122,-25.25 L 122.435,-25.195 L 122.843,-25.0335 L 123.198,-24.7757 L 123.478,-24.4377 L 123.664,-24.0408
 L 123.747,-23.6099 L 123.719,-23.1721 L 123.583,-22.7549 L 123.348,-22.3845 L 123.029,-22.0842 L 122.644,-21.8729
 L 122.219,-21.7638 z
M 177.781,-21.7638 L 177.356,-21.8729 L 176.971,-22.0842 L 176.652,-22.3845 L 176.417,-22.7549 L 176.281,-23.1721
 L 176.253,-23.6099 L 176.336,-24.0408 L 176.522,-24.4377 L 176.802,-24.7757 L 177.157,-25.0335 L 177.565,-25.195
 L 178,-25.25 L 178.435,-25.195 L 178.843,-25.0335 L 179.198,-24.7757 L 179.478,-24.4377 L 179.664,-24.0408
 L 179.747,-23.6099 L 179.719,-23.1721 L 179.583,-22.7549 L 179.348,-22.3845 L 179.029,-22.0842 L 178.644,-21.8729
 L 178.219,-21.7638 z
M 53.4978,-8.45454 L 53.1293,-8.62798 L 52.8154,-8.88762 L 52.576,-9.21716 L 52.4261,-9.59589 L 52.375,-10
 L 52.4261,-10.4041 L 52.576,-10.7828 L 52.8154,-11.1124 L 53.1293,-11.372 L 53.4978,-11.5455 L 53.898,-11.6218
 L 54.3045,-11.5962 L 54.6919,-11.4703 L 55.0358,-11.2521 L 55.3147,-10.9551 L 55.5109,-10.5982 L 55.6122,-10.2037
 L 55.6122,-9.79634 L 55.5109,-9.40181 L 55.3147,-9.04486 L 55.0358,-8.74792 L 54.6919,-8.52966 L 54.3045,-8.40379
 L 53.898,-8.37822 z
M 85.4978,-8.45454 L 85.1293,-8.62798 L 84.8154,-8.88762 L 84.576,-9.21716 L 84.426,-9.59589 L 84.375,-10
 L 84.426,-10.4041 L 84.576,-10.7828 L 84.8154,-11.1124 L 85.1293,-11.372 L 85.4978,-11.5455 L 85.898,-11.6218
 L 86.3045,-11.5962 L 86.6919,-11.4703 L 87.0358,-11.2521 L 87.3147,-10.9551 L 87.5109,-10.5982 L 87.6122,-10.2036
 L 87.6122,-9.79633 L 87.5109,-9.40179 L 87.3147,-9.04485 L 87.0358,-8.74791 L 86.6919,-8.52965 L 86.3045,-8.40379
 L 85.898,-8.37822 z
M 177.781,-2.76381 L 177.356,-2.87289 L 176.971,-3.08423 L 176.652,-3.38452 L 176.417,-3.7549 L 176.281,-4.17209
 L 176.253,-4.60988 L 176.336,-5.04077 L 176.522,-5.43768 L 176.802,-5.77568 L 177.157,-6.03352 L 177.565,-6.19501
 L 178,-6.25 L 178.435,-6.19501 L 178.843,-6.03352 L 179.198,-5.77568 L 179.478,-5.43768 L 179.664,-5.04077
 L 179.747,-4.60988 L 179.719,-4.17209 L 179.583,-3.7549 L 179.348,-3.38452 L 179.029,-3.08423 L 178.644,-2.87289
 L 178.219,-2.76381 z
M 121.781,-2.76381 L 121.356,-2.87289 L 120.971,-3.08423 L 120.652,-3.38452 L 120.417,-3.7549 L 120.281,-4.17209
 L 120.253,-4.60988 L 120.336,-5.04077 L 120.522,-5.43768 L 120.802,-5.77568 L 121.157,-6.03352 L 121.565,-6.19501
 L 122,-6.25 L 122.435,-6.19501 L 122.843,-6.03352 L 123.198,-5.77568 L 123.478,-5.43768 L 123.664,-5.04077
 L 123.747,-4.60988 L 123.719,-4.17209 L 123.583,-3.7549 L 123.348,-3.38452 L 123.029,-3.08423 L 122.644,-2.87289
 L 122.219,-2.76381 z
M 197.496,-0.687805 L 197.102,-0.789108 L 196.745,-0.985336 L 196.448,-1.26418 L 196.23,-1.60811 L 196.104,-1.9955
 L 196.078,-2.40202 L 196.155,-2.80214 L 196.328,-3.17072 L 196.588,-3.48457 L 196.917,-3.72398 L 197.296,-3.87395
 L 197.7,-3.92499 L 198.104,-3.87395 L 198.483,-3.72398 L 198.812,-3.48457 L 199.072,-3.17072 L 199.245,-2.80214
 L 199.322,-2.40202 L 199.296,-1.9955 L 199.17,-1.60811 L 198.952,-1.26418 L 198.655,-0.985336 L 198.298,-0.789108
 L 197.904,-0.687805 z
M 17.2963,-0.687805 L 16.9018,-0.789108 L 16.5449,-0.985336 L 16.2479,-1.26418 L 16.0297,-1.60811 L 15.9038,-1.9955
 L 15.8782,-2.40202 L 15.9545,-2.80214 L 16.128,-3.17072 L 16.3876,-3.48457 L 16.7172,-3.72398 L 17.0959,-3.87395
 L 17.5,-3.92499 L 17.9041,-3.87395 L 18.2829,-3.72398 L 18.6124,-3.48457 L 18.872,-3.17072 L 19.0455,-2.80214
 L 19.1218,-2.40202 L 19.0962,-1.9955 L 18.9704,-1.60811 L 18.7521,-1.26418 L 18.4552,-0.985336 L 18.0982,-0.789108
 L 17.7037,-0.687805 z
M 68.4721,-127.392 L 70.2866,-128.245 L 71.8317,-129.524 L 73.0105,-131.146 L 73.7487,-133.01 L 74,-135
 L 73.7487,-136.99 L 73.0105,-138.854 L 71.8317,-140.476 L 70.2866,-141.755 L 68.4721,-142.608 L 66.5023,-142.984
 L 34.5023,-142.984 L 32.501,-142.858 L 30.5938,-142.239 L 28.9006,-141.164 L 27.5279,-139.702 L 26.5618,-137.945
 L 26.0631,-136.003 L 26.0631,-133.997 L 26.5618,-132.055 L 27.5279,-130.298 L 28.9006,-128.836 L 30.5938,-127.761
 L 32.501,-127.142 L 34.5023,-127.016 L 66.5023,-127.016 z
M 65.6955,-133.404 L 65.3081,-133.53 L 64.9642,-133.748 L 64.6853,-134.045 L 64.4891,-134.402 L 64.3878,-134.796
 L 64.3878,-135.204 L 64.4891,-135.598 L 64.6853,-135.955 L 64.9642,-136.252 L 65.3081,-136.47 L 65.6955,-136.596
 L 66.102,-136.622 L 66.5022,-136.545 L 66.8707,-136.372 L 67.1846,-136.112 L 67.424,-135.783 L 67.5739,-135.404
 L 67.625,-135 L 67.5739,-134.596 L 67.424,-134.217 L 67.1846,-133.888 L 66.8707,-133.628 L 66.5022,-133.455
 L 66.102,-133.378 z
M 33.6955,-133.404 L 33.3081,-133.53 L 32.9642,-133.748 L 32.6853,-134.045 L 32.4891,-134.402 L 32.3878,-134.796
 L 32.3878,-135.204 L 32.4891,-135.598 L 32.6853,-135.955 L 32.9642,-136.252 L 33.3081,-136.47 L 33.6955,-136.596
 L 34.102,-136.622 L 34.5022,-136.545 L 34.8707,-136.372 L 35.1846,-136.112 L 35.424,-135.783 L 35.574,-135.404
 L 35.625,-135 L 35.574,-134.596 L 35.424,-134.217 L 35.1846,-133.888 L 34.8707,-133.628 L 34.5022,-133.455
 L 34.102,-133.378 z
" stroke="black" fill="none" stroke-width="0.5"/></svg>
