<?xml version="1.0" standalone="no"?>
<!DOCTYPE svg PUBLIC "-//W3C//DTD SVG 1.1//EN" "http://www.w3.org/Graphics/SVG/1.1/DTD/svg11.dtd">
<svg width="54" height="48" viewBox="-9 -42 54 48" xmlns="http://www.w3.org/2000/svg" version="1.1">
<title>OpenSCAD Model</title>
<path d="
M 19.073,-30.6057 L 20.1048,-30.9187 L 21.0556,-31.4269 L 25.6111,-34.3371 L 25.9142,-34.5858 L 26.1629,-34.8889
 L 26.3477,-35.2346 L 26.4616,-35.6098 L 26.5,-36 L 26.4616,-36.3902 L 26.3477,-36.7654 L 26.1629,-37.1111
 L 25.9142,-37.4142 L 25.6111,-37.6629 L 21.0556,-40.5731 L 20.1048,-41.0813 L 19.073,-41.3943 L 18,-41.5
 L 16.927,-41.3943 L 15.8952,-41.0813 L 14.9444,-40.5731 L 10.3889,-37.6629 L 10.0858,-37.4142 L 9.83707,-37.1111
 L 9.65225,-36.7654 L 9.53844,-36.3902 L 9.5,-36 L 9.53844,-35.6098 L 9.65225,-35.2346 L 9.83707,-34.8889
 L 10.0858,-34.5858 L 10.3889,-34.3371 L 14.9444,-31.4269 L 15.8952,-30.9187 L 16.927,-30.6057 L 18,-30.5
 z
M 17.4147,-33.0576 L 16.852,-33.2284 L 16.3333,-33.5056 L 15.8787,-33.8787 L 15.5056,-34.3333 L 15.2284,-34.852
 L 15.0576,-35.4147 L 15,-36 L 15.0576,-36.5853 L 15.2284,-37.148 L 15.5056,-37.6667 L 15.8787,-38.1213
 L 16.3333,-38.4944 L 16.852,-38.7716 L 17.4147,-38.9424 L 18,-39 L 18.5853,-38.9424 L 19.148,-38.7716
 L 19.6667,-38.4944 L 20.1213,-38.1213 L 20.4944,-37.6667 L 20.7716,-37.148 L 20.9424,-36.5853 L 21,-36
 L 20.9424,-35.4147 L 20.7716,-34.852 L 20.4944,-34.3333 L 20.1213,-33.8787 L 19.6667,-33.5056 L 19.148,-33.2284
 L 18.5853,-33.0576 L 18,-33 z
M 24.3049,-35.0192 L 24.1173,-35.0761 L 23.9444,-35.1685 L 23.7929,-35.2929 L 23.6685,-35.4444 L 23.5761,-35.6173
 L 23.5192,-35.8049 L 23.5,-36 L 23.5192,-36.1951 L 23.5761,-36.3827 L 23.6685,-36.5556 L 23.7929,-36.7071
 L 23.9444,-36.8315 L 24.1173,-36.9239 L 24.3049,-36.9808 L 24.5,-37 L 24.6951,-36.9808 L 24.8827,-36.9239
 L 25.0556,-36.8315 L 25.2071,-36.7071 L 25.3315,-36.5556 L 25.4239,-36.3827 L 25.4808,-36.1951 L 25.5,-36
 L 25.4808,-35.8049 L 25.4239,-35.6173 L 25.3315,-35.4444 L 25.2071,-35.2929 L 25.0556,-35.1685 L 24.8827,-35.0761
 L 24.6951,-35.0192 L 24.5,-35 z
M 11.3049,-35.0192 L 11.1173,-35.0761 L 10.9444,-35.1685 L 10.7929,-35.2929 L 10.6685,-35.4444 L 10.5761,-35.6173
 L 10.5192,-35.8049 L 10.5,-36 L 10.5192,-36.1951 L 10.5761,-36.3827 L 10.6685,-36.5556 L 10.7929,-36.7071
 L 10.9444,-36.8315 L 11.1173,-36.9239 L 11.3049,-36.9808 L 11.5,-37 L 11.6951,-36.9808 L 11.8827,-36.9239
 L 12.0556,-36.8315 L 12.2071,-36.7071 L 12.3315,-36.5556 L 12.4239,-36.3827 L 12.4808,-36.1951 L 12.5,-36
 L 12.4808,-35.8049 L 12.4239,-35.6173 L 12.3315,-35.4444 L 12.2071,-35.2929 L 12.0556,-35.1685 L 11.8827,-35.0761
 L 11.6951,-35.0192 L 11.5,-35 z
M 1.07298,-30.6057 L 2.10475,-30.9187 L 3.05563,-31.4269 L 7.61113,-34.3371 L 7.9142,-34.5858 L 8.16293,-34.8889
 L 8.34775,-35.2346 L 8.46156,-35.6098 L 8.5,-36 L 8.46156,-36.3902 L 8.34775,-36.7654 L 8.16293,-37.1111
 L 7.9142,-37.4142 L 7.61113,-37.6629 L 3.05563,-40.5731 L 2.10475,-41.0813 L 1.07298,-41.3943 L 0,-41.5
 L -1.07298,-41.3943 L -2.10475,-41.0813 L -3.05563,-40.5731 L -7.61113,-37.6629 L -7.9142,-37.4142 L -8.16293,-37.1111
 L -8.34775,-36.7654 L -8.46156,-36.3902 L -8.5,-36 L -8.46156,-35.6098 L -8.34775,-35.2346 L -8.16293,-34.8889
 L -7.9142,-34.5858 L -7.61113,-34.3371 L -3.05563,-31.4269 L -2.10475,-30.9187 L -1.07298,-30.6057 L 0,-30.5
 z
M -0.585266,-33.0576 L -1.14804,-33.2284 L -1.6667,-33.5056 L -2.12131,-33.8787 L -2.4944,-34.3333 L -2.77164,-34.852
 L -2.94235,-35.4147 L -3,-36 L -2.94235,-36.5853 L -2.77164,-37.148 L -2.4944,-37.6667 L -2.12131,-38.1213
 L -1.6667,-38.4944 L -1.14804,-38.7716 L -0.585266,-38.9424 L 0,-39 L 0.585266,-38.9424 L 1.14804,-38.7716
 L 1.6667,-38.4944 L 2.12131,-38.1213 L 2.4944,-37.6667 L 2.77164,-37.148 L 2.94235,-36.5853 L 3,-36
 L 2.94235,-35.4147 L 2.77164,-34.852 L 2.4944,-34.3333 L 2.12131,-33.8787 L 1.6667,-33.5056 L 1.14804,-33.2284
 L 0.585266,-33.0576 L 0,-33 z
M -6.69508,-35.0192 L -6.88268,-35.0761 L -7.05556,-35.1685 L -7.20709,-35.2929 L -7.33147,-35.4444 L -7.42387,-35.6173
 L -7.48077,-35.8049 L -7.5,-36 L -7.48077,-36.1951 L -7.42387,-36.3827 L -7.33147,-36.5556 L -7.20709,-36.7071
 L -7.05556,-36.8315 L -6.88268,-36.9239 L -6.69508,-36.9808 L -6.5,-37 L -6.3049,-36.9808 L -6.11731,-36.9239
 L -5.94443,-36.8315 L -5.79289,-36.7071 L -5.66852,-36.5556 L -5.57611,-36.3827 L -5.51921,-36.1951 L -5.5,-36
 L -5.51921,-35.8049 L -5.57611,-35.6173 L -5.66852,-35.4444 L -5.79289,-35.2929 L -5.94443,-35.1685 L -6.11731,-35.0761
 L -6.3049,-35.0192 L -6.5,-35 z
M 6.3049,-35.0192 L 6.11731,-35.0761 L 5.94443,-35.1685 L 5.79289,-35.2929 L 5.66852,-35.4444 L 5.57611,-35.6173
 L 5.51921,-35.8049 L 5.5,-36 L 5.51921,-36.1951 L 5.57611,-36.3827 L 5.66852,-36.5556 L 5.79289,-36.7071
 L 5.94443,-36.8315 L 6.11731,-36.9239 L 6.3049,-36.9808 L 6.5,-37 L 6.69508,-36.9808 L 6.88268,-36.9239
 L 7.05556,-36.8315 L 7.20709,-36.7071 L 7.33147,-36.5556 L 7.42387,-36.3827 L 7.48077,-36.1951 L 7.5,-36
 L 7.48077,-35.8049 L 7.42387,-35.6173 L 7.33147,-35.4444 L 7.20709,-35.2929 L 7.05556,-35.1685 L 6.88268,-35.0761
 L 6.69508,-35.0192 L 6.5,-35 z
M 37.073,-30.6057 L 38.1048,-30.9187 L 39.0556,-31.4269 L 43.6111,-34.3371 L 43.9142,-34.5858 L 44.1629,-34.8889
 L 44.3477,-35.2346 L 44.4616,-35.6098 L 44.5,-36 L 44.4616,-36.3902 L 44.3477,-36.7654 L 44.1629,-37.1111
 L 43.9142,-37.4142 L 43.6111,-37.6629 L 39.0556,-40.5731 L 38.1048,-41.0813 L 37.073,-41.3943 L 36,-41.5
 L 34.927,-41.3943 L 33.8952,-41.0813 L 32.9444,-40.5731 L 28.3889,-37.6629 L 28.0858,-37.4142 L 27.8371,-37.1111
 L 27.6523,-36.7654 L 27.5384,-36.3902 L 27.5,-36 L 27.5384,-35.6098 L 27.6523,-35.2346 L 27.8371,-34.8889
 L 28.0858,-34.5858 L 28.3889,-34.3371 L 32.9444,-31.4269 L 33.8952,-30.9187 L 34.927,-30.6057 L 36,-30.5
 z
M 35.4147,-33.0576 L 34.852,-33.2284 L 34.3333,-33.5056 L 33.8787,-33.8787 L 33.5056,-34.3333 L 33.2284,-34.852
 L 33.0576,-35.4147 L 33,-36 L 33.0576,-36.5853 L 33.2284,-37.148 L 33.5056,-37.6667 L 33.8787,-38.1213
 L 34.3333,-38.4944 L 34.852,-38.7716 L 35.4147,-38.9424 L 36,-39 L 36.5853,-38.9424 L 37.148,-38.7716
 L 37.6667,-38.4944 L 38.1213,-38.1213 L 38.4944,-37.6667 L 38.7716,-37.148 L 38.9424,-36.5853 L 39,-36
 L 38.9424,-35.4147 L 38.7716,-34.852 L 38.4944,-34.3333 L 38.1213,-33.8787 L 37.6667,-33.5056 L 37.148,-33.2284
 L 36.5853,-33.0576 L 36,-33 z
M 29.3049,-35.0192 L 29.1173,-35.0761 L 28.9444,-35.1685 L 28.7929,-35.2929 L 28.6685,-35.4444 L 28.5761,-35.6173
 L 28.5192,-35.8049 L 28.5,-36 L 28.5192,-36.1951 L 28.5761,-36.3827 L 28.6685,-36.5556 L 28.7929,-36.7071
 L 28.9444,-36.8315 L 29.1173,-36.9239 L 29.3049,-36.9808 L 29.5,-37 L 29.6951,-36.9808 L 29.8827,-36.9239
 L 30.0556,-36.8315 L 30.2071,-36.7071 L 30.3315,-36.5556 L 30.4239,-36.3827 L 30.4808,-36.1951 L 30.5,-36
 L 30.4808,-35.8049 L 30.4239,-35.6173 L 30.3315,-35.4444 L 30.2071,-35.2929 L 30.0556,-35.1685 L 29.8827,-35.0761
 L 29.6951,-35.0192 L 29.5,-35 z
M 42.3049,-35.0192 L 42.1173,-35.0761 L 41.9444,-35.1685 L 41.7929,-35.2929 L 41.6685,-35.4444 L 41.5761,-35.6173
 L 41.5192,-35.8049 L 41.5,-36 L 41.5192,-36.1951 L 41.5761,-36.3827 L 41.6685,-36.5556 L 41.7929,-36.7071
 L 41.9444,-36.8315 L 42.1173,-36.9239 L 42.3049,-36.9808 L 42.5,-37 L 42.6951,-36.9808 L 42.8827,-36.9239
 L 43.0556,-36.8315 L 43.2071,-36.7071 L 43.3315,-36.5556 L 43.4239,-36.3827 L 43.4808,-36.1951 L 43.5,-36
 L 43.4808,-35.8049 L 43.4239,-35.6173 L 43.3315,-35.4444 L 43.2071,-35.2929 L 43.0556,-35.1685 L 42.8827,-35.0761
 L 42.6951,-35.0192 L 42.5,-35 z
M 37.073,-18.6057 L 38.1048,-18.9187 L 39.0556,-19.4269 L 43.6111,-22.3371 L 43.9142,-22.5858 L 44.1629,-22.8889
 L 44.3477,-23.2346 L 44.4616,-23.6098 L 44.5,-24 L 44.4616,-24.3902 L 44.3477,-24.7654 L 44.1629,-25.1111
 L 43.9142,-25.4142 L 43.6111,-25.6629 L 39.0556,-28.5731 L 38.1048,-29.0813 L 37.073,-29.3943 L 36,-29.5
 L 34.927,-29.3943 L 33.8952,-29.0813 L 32.9444,-28.5731 L 28.3889,-25.6629 L 28.0858,-25.4142 L 27.8371,-25.1111
 L 27.6523,-24.7654 L 27.5384,-24.3902 L 27.5,-24 L 27.5384,-23.6098 L 27.6523,-23.2346 L 27.8371,-22.8889
 L 28.0858,-22.5858 L 28.3889,-22.3371 L 32.9444,-19.4269 L 33.8952,-18.9187 L 34.927,-18.6057 L 36,-18.5
 z
M 35.4147,-21.0576 L 34.852,-21.2284 L 34.3333,-21.5056 L 33.8787,-21.8787 L 33.5056,-22.3333 L 33.2284,-22.852
 L 33.0576,-23.4147 L 33,-24 L 33.0576,-24.5853 L 33.2284,-25.148 L 33.5056,-25.6667 L 33.8787,-26.1213
 L 34.3333,-26.4944 L 34.852,-26.7716 L 35.4147,-26.9424 L 36,-27 L 36.5853,-26.9424 L 37.148,-26.7716
 L 37.6667,-26.4944 L 38.1213,-26.1213 L 38.4944,-25.6667 L 38.7716,-25.148 L 38.9424,-24.5853 L 39,-24
 L 38.9424,-23.4147 L 38.7716,-22.852 L 38.4944,-22.3333 L 38.1213,-21.8787 L 37.6667,-21.5056 L 37.148,-21.2284
 L 36.5853,-21.0576 L 36,-21 z
M 29.3049,-23.0192 L 29.1173,-23.0761 L 28.9444,-23.1685 L 28.7929,-23.2929 L 28.6685,-23.4444 L 28.5761,-23.6173
 L 28.5192,-23.8049 L 28.5,-24 L 28.5192,-24.1951 L 28.5761,-24.3827 L 28.6685,-24.5556 L 28.7929,-24.7071
 L 28.9444,-24.8315 L 29.1173,-24.9239 L 29.3049,-24.9808 L 29.5,-25 L 29.6951,-24.9808 L 29.8827,-24.9239
 L 30.0556,-24.8315 L 30.2071,-24.7071 L 30.3315,-24.5556 L 30.4239,-24.3827 L 30.4808,-24.1951 L 30.5,-24
 L 30.4808,-23.8049 L 30.4239,-23.6173 L 30.3315,-23.4444 L 30.2071,-23.2929 L 30.0556,-23.1685 L 29.8827,-23.0761
 L 29.6951,-23.0192 L 29.5,-23 z
M 42.3049,-23.0192 L 42.1173,-23.0761 L 41.9444,-23.1685 L 41.7929,-23.2929 L 41.6685,-23.4444 L 41.5761,-23.6173
 L 41.5192,-23.8049 L 41.5,-24 L 41.5192,-24.1951 L 41.5761,-24.3827 L 41.6685,-24.5556 L 41.7929,-24.7071
 L 41.9444,-24.8315 L 42.1173,-24.9239 L 42.3049,-24.9808 L 42.5,-25 L 42.6951,-24.9808 L 42.8827,-24.9239
 L 43.0556,-24.8315 L 43.2071,-24.7071 L 43.3315,-24.5556 L 43.4239,-24.3827 L 43.4808,-24.1951 L 43.5,-24
 L 43.4808,-23.8049 L 43.4239,-23.6173 L 43.3315,-23.4444 L 43.2071,-23.2929 L 43.0556,-23.1685 L 42.8827,-23.0761
 L 42.6951,-23.0192 L 42.5,-23 z
M 19.073,-18.6057 L 20.1048,-18.9187 L 21.0556,-19.4269 L 25.6111,-22.3371 L 25.9142,-22.5858 L 26.1629,-22.8889
 L 26.3477,-23.2346 L 26.4616,-23.6098 L 26.5,-24 L 26.4616,-24.3902 L 26.3477,-24.7654 L 26.1629,-25.1111
 L 25.9142,-25.4142 L 25.6111,-25.6629 L 21.0556,-28.5731 L 20.1048,-29.0813 L 19.073,-29.3943 L 18,-29.5
 L 16.927,-29.3943 L 15.8952,-29.0813 L 14.9444,-28.5731 L 10.3889,-25.6629 L 10.0858,-25.4142 L 9.83707,-25.1111
 L 9.65225,-24.7654 L 9.53844,-24.3902 L 9.5,-24 L 9.53844,-23.6098 L 9.65225,-23.2346 L 9.83707,-22.8889
 L 10.0858,-22.5858 L 10.3889,-22.3371 L 14.9444,-19.4269 L 15.8952,-18.9187 L 16.927,-18.6057 L 18,-18.5
 z
M 17.4147,-21.0576 L 16.852,-21.2284 L 16.3333,-21.5056 L 15.8787,-21.8787 L 15.5056,-22.3333 L 15.2284,-22.852
 L 15.0576,-23.4147 L 15,-24 L 15.0576,-24.5853 L 15.2284,-25.148 L 15.5056,-25.6667 L 15.8787,-26.1213
 L 16.3333,-26.4944 L 16.852,-26.7716 L 17.4147,-26.9424 L 18,-27 L 18.5853,-26.9424 L 19.148,-26.7716
 L 19.6667,-26.4944 L 20.1213,-26.1213 L 20.4944,-25.6667 L 20.7716,-25.148 L 20.9424,-24.5853 L 21,-24
 L 20.9424,-23.4147 L 20.7716,-22.852 L 20.4944,-22.3333 L 20.1213,-21.8787 L 19.6667,-21.5056 L 19.148,-21.2284
 L 18.5853,-21.0576 L 18,-21 z
M 11.3049,-23.0192 L 11.1173,-23.0761 L 10.9444,-23.1685 L 10.7929,-23.2929 L 10.6685,-23.4444 L 10.5761,-23.6173
 L 10.5192,-23.8049 L 10.5,-24 L 10.5192,-24.1951 L 10.5761,-24.3827 L 10.6685,-24.5556 L 10.7929,-24.7071
 L 10.9444,-24.8315 L 11.1173,-24.9239 L 11.3049,-24.9808 L 11.5,-25 L 11.6951,-24.9808 L 11.8827,-24.9239
 L 12.0556,-24.8315 L 12.2071,-24.7071 L 12.3315,-24.5556 L 12.4239,-24.3827 L 12.4808,-24.1951 L 12.5,-24
 L 12.4808,-23.8049 L 12.4239,-23.6173 L 12.3315,-23.4444 L 12.2071,-23.2929 L 12.0556,-23.1685 L 11.8827,-23.0761
 L 11.6951,-23.0192 L 11.5,-23 z
M 24.3049,-23.0192 L 24.1173,-23.0761 L 23.9444,-23.1685 L 23.7929,-23.2929 L 23.6685,-23.4444 L 23.5761,-23.6173
 L 23.5192,-23.8049 L 23.5,-24 L 23.5192,-24.1951 L 23.5761,-24.3827 L 23.6685,-24.5556 L 23.7929,-24.7071
 L 23.9444,-24.8315 L 24.1173,-24.9239 L 24.3049,-24.9808 L 24.5,-25 L 24.6951,-24.9808 L 24.8827,-24.9239
 L 25.0556,-24.8315 L 25.2071,-24.7071 L 25.3315,-24.5556 L 25.4239,-24.3827 L 25.4808,-24.1951 L 25.5,-24
 L 25.4808,-23.8049 L 25.4239,-23.6173 L 25.3315,-23.4444 L 25.2071,-23.2929 L 25.0556,-23.1685 L 24.8827,-23.0761
 L 24.6951,-23.0192 L 24.5,-23 z
M 1.07298,-18.6057 L 2.10475,-18.9187 L 3.05563,-19.4269 L 7.61113,-22.3371 L 7.9142,-22.5858 L 8.16293,-22.8889
 L 8.34775,-23.2346 L 8.46156,-23.6098 L 8.5,-24 L 8.46156,-24.3902 L 8.34775,-24.7654 L 8.16293,-25.1111
 L 7.9142,-25.4142 L 7.61113,-25.6629 L 3.05563,-28.5731 L 2.10475,-29.0813 L 1.07298,-29.3943 L 0,-29.5
 L -1.07298,-29.3943 L -2.10475,-29.0813 L -3.05563,-28.5731 L -7.61113,-25.6629 L -7.9142,-25.4142 L -8.16293,-25.1111
 L -8.34775,-24.7654 L -8.46156,-24.3902 L -8.5,-24 L -8.46156,-23.6098 L -8.34775,-23.2346 L -8.16293,-22.8889
 L -7.9142,-22.5858 L -7.61113,-22.3371 L -3.05563,-19.4269 L -2.10475,-18.9187 L -1.07298,-18.6057 L 0,-18.5
 z
M -0.585266,-21.0576 L -1.14804,-21.2284 L -1.6667,-21.5056 L -2.12131,-21.8787 L -2.4944,-22.3333 L -2.77164,-22.852
 L -2.94235,-23.4147 L -3,-24 L -2.94235,-24.5853 L -2.77164,-25.148 L -2.4944,-25.6667 L -2.12131,-26.1213
 L -1.6667,-26.4944 L -1.14804,-26.7716 L -0.585266,-26.9424 L 0,-27 L 0.585266,-26.9424 L 1.14804,-26.7716
 L 1.6667,-26.4944 L 2.12131,-26.1213 L 2.4944,-25.6667 L 2.77164,-25.148 L 2.94235,-24.5853 L 3,-24
 L 2.94235,-23.4147 L 2.77164,-22.852 L 2.4944,-22.3333 L 2.12131,-21.8787 L 1.6667,-21.5056 L 1.14804,-21.2284
 L 0.585266,-21.0576 L 0,-21 z
M -6.69508,-23.0192 L -6.88268,-23.0761 L -7.05556,-23.1685 L -7.20709,-23.2929 L -7.33147,-23.4444 L -7.42387,-23.6173
 L -7.48077,-23.8049 L -7.5,-24 L -7.48077,-24.1951 L -7.42387,-24.3827 L -7.33147,-24.5556 L -7.20709,-24.7071
 L -7.05556,-24.8315 L -6.88268,-24.9239 L -6.69508,-24.9808 L -6.5,-25 L -6.3049,-24.9808 L -6.11731,-24.9239
 L -5.94443,-24.8315 L -5.79289,-24.7071 L -5.66852,-24.5556 L -5.57611,-24.3827 L -5.51921,-24.1951 L -5.5,-24
 L -5.51921,-23.8049 L -5.57611,-23.6173 L -5.66852,-23.4444 L -5.79289,-23.2929 L -5.94443,-23.1685 L -6.11731,-23.0761
 L -6.3049,-23.0192 L -6.5,-23 z
M 6.3049,-23.0192 L 6.11731,-23.0761 L 5.94443,-23.1685 L 5.79289,-23.2929 L 5.66852,-23.4444 L 5.57611,-23.6173
 L 5.51921,-23.8049 L 5.5,-24 L 5.51921,-24.1951 L 5.57611,-24.3827 L 5.66852,-24.5556 L 5.79289,-24.7071
 L 5.94443,-24.8315 L 6.11731,-24.9239 L 6.3049,-24.9808 L 6.5,-25 L 6.69508,-24.9808 L 6.88268,-24.9239
 L 7.05556,-24.8315 L 7.20709,-24.7071 L 7.33147,-24.5556 L 7.42387,-24.3827 L 7.48077,-24.1951 L 7.5,-24
 L 7.48077,-23.8049 L 7.42387,-23.6173 L 7.33147,-23.4444 L 7.20709,-23.2929 L 7.05556,-23.1685 L 6.88268,-23.0761
 L 6.69508,-23.0192 L 6.5,-23 z
M 19.073,-6.60568 L 20.1048,-6.91867 L 21.0556,-7.42693 L 25.6111,-10.3371 L 25.9142,-10.5858 L 26.1629,-10.8889
 L 26.3477,-11.2346 L 26.4616,-11.6098 L 26.5,-12 L 26.4616,-12.3902 L 26.3477,-12.7654 L 26.1629,-13.1111
 L 25.9142,-13.4142 L 25.6111,-13.6629 L 21.0556,-16.5731 L 20.1048,-17.0813 L 19.073,-17.3943 L 18,-17.5
 L 16.927,-17.3943 L 15.8952,-17.0813 L 14.9444,-16.5731 L 10.3889,-13.6629 L 10.0858,-13.4142 L 9.83707,-13.1111
 L 9.65225,-12.7654 L 9.53844,-12.3902 L 9.5,-12 L 9.53844,-11.6098 L 9.65225,-11.2346 L 9.83707,-10.8889
 L 10.0858,-10.5858 L 10.3889,-10.3371 L 14.9444,-7.42693 L 15.8952,-6.91867 L 16.927,-6.60568 L 18,-6.5
 z
M 17.8049,-14.5192 L 17.6173,-14.5761 L 17.4444,-14.6685 L 17.2929,-14.7929 L 17.1685,-14.9444 L 17.0761,-15.1173
 L 17.0192,-15.3049 L 17,-15.5 L 17.0192,-15.6951 L 17.0761,-15.8827 L 17.1685,-16.0556 L 17.2929,-16.2071
 L 17.4444,-16.3315 L 17.6173,-16.4239 L 17.8049,-16.4808 L 18,-16.5 L 18.1951,-16.4808 L 18.3827,-16.4239
 L 18.5556,-16.3315 L 18.7071,-16.2071 L 18.8315,-16.0556 L 18.9239,-15.8827 L 18.9808,-15.6951 L 19,-15.5
 L 18.9808,-15.3049 L 18.9239,-15.1173 L 18.8315,-14.9444 L 18.7071,-14.7929 L 18.5556,-14.6685 L 18.3827,-14.5761
 L 18.1951,-14.5192 L 18,-14.5 z
M 11.3049,-11.0192 L 11.1173,-11.0761 L 10.9444,-11.1685 L 10.7929,-11.2929 L 10.6685,-11.4444 L 10.5761,-11.6173
 L 10.5192,-11.8049 L 10.5,-12 L 10.5192,-12.1951 L 10.5761,-12.3827 L 10.6685,-12.5556 L 10.7929,-12.7071
 L 10.9444,-12.8315 L 11.1173,-12.9239 L 11.3049,-12.9808 L 11.5,-13 L 11.6951,-12.9808 L 11.8827,-12.9239
 L 12.0556,-12.8315 L 12.2071,-12.7071 L 12.3315,-12.5556 L 12.4239,-12.3827 L 12.4808,-12.1951 L 12.5,-12
 L 12.4808,-11.8049 L 12.4239,-11.6173 L 12.3315,-11.4444 L 12.2071,-11.2929 L 12.0556,-11.1685 L 11.8827,-11.0761
 L 11.6951,-11.0192 L 11.5,-11 z
M 24.3049,-11.0192 L 24.1173,-11.0761 L 23.9444,-11.1685 L 23.7929,-11.2929 L 23.6685,-11.4444 L 23.5761,-11.6173
 L 23.5192,-11.8049 L 23.5,-12 L 23.5192,-12.1951 L 23.5761,-12.3827 L 23.6685,-12.5556 L 23.7929,-12.7071
 L 23.9444,-12.8315 L 24.1173,-12.9239 L 24.3049,-12.9808 L 24.5,-13 L 24.6951,-12.9808 L 24.8827,-12.9239
 L 25.0556,-12.8315 L 25.2071,-12.7071 L 25.3315,-12.5556 L 25.4239,-12.3827 L 25.4808,-12.1951 L 25.5,-12
 L 25.4808,-11.8049 L 25.4239,-11.6173 L 25.3315,-11.4444 L 25.2071,-11.2929 L 25.0556,-11.1685 L 24.8827,-11.0761
 L 24.6951,-11.0192 L 24.5,-11 z
M 17.8049,-11.0192 L 17.6173,-11.0761 L 17.4444,-11.1685 L 17.2929,-11.2929 L 17.1685,-11.4444 L 17.0761,-11.6173
 L 17.0192,-11.8049 L 17,-12 L 17.0192,-12.1951 L 17.0761,-12.3827 L 17.1685,-12.5556 L 17.2929,-12.7071
 L 17.4444,-12.8315 L 17.6173,-12.9239 L 17.8049,-12.9808 L 18,-13 L 18.1951,-12.9808 L 18.3827,-12.9239
 L 18.5556,-12.8315 L 18.7071,-12.7071 L 18.8315,-12.5556 L 18.9239,-12.3827 L 18.9808,-12.1951 L 19,-12
 L 18.9808,-11.8049 L 18.9239,-11.6173 L 18.8315,-11.4444 L 18.7071,-11.2929 L 18.5556,-11.1685 L 18.3827,-11.0761
 L 18.1951,-11.0192 L 18,-11 z
M 17.8049,-7.51923 L 17.6173,-7.57613 L 17.4444,-7.66853 L 17.2929,-7.79291 L 17.1685,-7.94444 L 17.0761,-8.11732
 L 17.0192,-8.30492 L 17,-8.5 L 17.0192,-8.6951 L 17.0761,-8.88269 L 17.1685,-9.05557 L 17.2929,-9.20711
 L 17.4444,-9.33148 L 17.6173,-9.42389 L 17.8049,-9.48079 L 18,-9.5 L 18.1951,-9.48079 L 18.3827,-9.42389
 L 18.5556,-9.33148 L 18.7071,-9.20711 L 18.8315,-9.05557 L 18.9239,-8.88269 L 18.9808,-8.6951 L 19,-8.5
 L 18.9808,-8.30492 L 18.9239,-8.11732 L 18.8315,-7.94444 L 18.7071,-7.79291 L 18.5556,-7.66853 L 18.3827,-7.57613
 L 18.1951,-7.51923 L 18,-7.5 z
M 37.073,-6.60568 L 38.1048,-6.91867 L 39.0556,-7.42693 L 43.6111,-10.3371 L 43.9142,-10.5858 L 44.1629,-10.8889
 L 44.3477,-11.2346 L 44.4616,-11.6098 L 44.5,-12 L 44.4616,-12.3902 L 44.3477,-12.7654 L 44.1629,-13.1111
 L 43.9142,-13.4142 L 43.6111,-13.6629 L 39.0556,-16.5731 L 38.1048,-17.0813 L 37.073,-17.3943 L 36,-17.5
 L 34.927,-17.3943 L 33.8952,-17.0813 L 32.9444,-16.5731 L 28.3889,-13.6629 L 28.0858,-13.4142 L 27.8371,-13.1111
 L 27.6523,-12.7654 L 27.5384,-12.3902 L 27.5,-12 L 27.5384,-11.6098 L 27.6523,-11.2346 L 27.8371,-10.8889
 L 28.0858,-10.5858 L 28.3889,-10.3371 L 32.9444,-7.42693 L 33.8952,-6.91867 L 34.927,-6.60568 L 36,-6.5
 z
M 32.5,-10.25 L 32.5,-13.75 L 39.5,-13.75 L 39.5,-10.25 z
M 29.3049,-11.0192 L 29.1173,-11.0761 L 28.9444,-11.1685 L 28.7929,-11.2929 L 28.6685,-11.4444 L 28.5761,-11.6173
 L 28.5192,-11.8049 L 28.5,-12 L 28.5192,-12.1951 L 28.5761,-12.3827 L 28.6685,-12.5556 L 28.7929,-12.7071
 L 28.9444,-12.8315 L 29.1173,-12.9239 L 29.3049,-12.9808 L 29.5,-13 L 29.6951,-12.9808 L 29.8827,-12.9239
 L 30.0556,-12.8315 L 30.2071,-12.7071 L 30.3315,-12.5556 L 30.4239,-12.3827 L 30.4808,-12.1951 L 30.5,-12
 L 30.4808,-11.8049 L 30.4239,-11.6173 L 30.3315,-11.4444 L 30.2071,-11.2929 L 30.0556,-11.1685 L 29.8827,-11.0761
 L 29.6951,-11.0192 L 29.5,-11 z
M 42.3049,-11.0192 L 42.1173,-11.0761 L 41.9444,-11.1685 L 41.7929,-11.2929 L 41.6685,-11.4444 L 41.5761,-11.6173
 L 41.5192,-11.8049 L 41.5,-12 L 41.5192,-12.1951 L 41.5761,-12.3827 L 41.6685,-12.5556 L 41.7929,-12.7071
 L 41.9444,-12.8315 L 42.1173,-12.9239 L 42.3049,-12.9808 L 42.5,-13 L 42.6951,-12.9808 L 42.8827,-12.9239
 L 43.0556,-12.8315 L 43.2071,-12.7071 L 43.3315,-12.5556 L 43.4239,-12.3827 L 43.4808,-12.1951 L 43.5,-12
 L 43.4808,-11.8049 L 43.4239,-11.6173 L 43.3315,-11.4444 L 43.2071,-11.2929 L 43.0556,-11.1685 L 42.8827,-11.0761
 L 42.6951,-11.0192 L 42.5,-11 z
M 1.07298,-6.60568 L 2.10475,-6.91867 L 3.05563,-7.42693 L 7.61113,-10.3371 L 7.9142,-10.5858 L 8.16293,-10.8889
 L 8.34775,-11.2346 L 8.46156,-11.6098 L 8.5,-12 L 8.46156,-12.3902 L 8.34775,-12.7654 L 8.16293,-13.1111
 L 7.9142,-13.4142 L 7.61113,-13.6629 L 3.05563,-16.5731 L 2.10475,-17.0813 L 1.07298,-17.3943 L 0,-17.5
 L -1.07298,-17.3943 L -2.10475,-17.0813 L -3.05563,-16.5731 L -7.61113,-13.6629 L -7.9142,-13.4142 L -8.16293,-13.1111
 L -8.34775,-12.7654 L -8.46156,-12.3902 L -8.5,-12 L -8.46156,-11.6098 L -8.34775,-11.2346 L -8.16293,-10.8889
 L -7.9142,-10.5858 L -7.61113,-10.3371 L -3.05563,-7.42693 L -2.10475,-6.91867 L -1.07298,-6.60568 L 0,-6.5
 z
M -0.585266,-9.05765 L -1.14804,-9.22836 L -1.6667,-9.5056 L -2.12131,-9.87869 L -2.4944,-10.3333 L -2.77164,-10.852
 L -2.94235,-11.4147 L -3,-12 L -2.94235,-12.5853 L -2.77164,-13.148 L -2.4944,-13.6667 L -2.12131,-14.1213
 L -1.6667,-14.4944 L -1.14804,-14.7716 L -0.585266,-14.9424 L 0,-15 L 0.585266,-14.9424 L 1.14804,-14.7716
 L 1.6667,-14.4944 L 2.12131,-14.1213 L 2.4944,-13.6667 L 2.77164,-13.148 L 2.94235,-12.5853 L 3,-12
 L 2.94235,-11.4147 L 2.77164,-10.852 L 2.4944,-10.3333 L 2.12131,-9.87869 L 1.6667,-9.5056 L 1.14804,-9.22836
 L 0.585266,-9.05765 L 0,-9 z
M -6.69508,-11.0192 L -6.88268,-11.0761 L -7.05556,-11.1685 L -7.20709,-11.2929 L -7.33147,-11.4444 L -7.42387,-11.6173
 L -7.48077,-11.8049 L -7.5,-12 L -7.48077,-12.1951 L -7.42387,-12.3827 L -7.33147,-12.5556 L -7.20709,-12.7071
 L -7.05556,-12.8315 L -6.88268,-12.9239 L -6.69508,-12.9808 L -6.5,-13 L -6.3049,-12.9808 L -6.11731,-12.9239
 L -5.94443,-12.8315 L -5.79289,-12.7071 L -5.66852,-12.5556 L -5.57611,-12.3827 L -5.51921,-12.1951 L -5.5,-12
 L -5.51921,-11.8049 L -5.57611,-11.6173 L -5.66852,-11.4444 L -5.79289,-11.2929 L -5.94443,-11.1685 L -6.11731,-11.0761
 L -6.3049,-11.0192 L -6.5,-11 z
M 6.3049,-11.0192 L 6.11731,-11.0761 L 5.94443,-11.1685 L 5.79289,-11.2929 L 5.66852,-11.4444 L 5.57611,-11.6173
 L 5.51921,-11.8049 L 5.5,-12 L 5.51921,-12.1951 L 5.57611,-12.3827 L 5.66852,-12.5556 L 5.79289,-12.7071
 L 5.94443,-12.8315 L 6.11731,-12.9239 L 6.3049,-12.9808 L 6.5,-13 L 6.69508,-12.9808 L 6.88268,-12.9239
 L 7.05556,-12.8315 L 7.20709,-12.7071 L 7.33147,-12.5556 L 7.42387,-12.3827 L 7.48077,-12.1951 L 7.5,-12
 L 7.48077,-11.8049 L 7.42387,-11.6173 L 7.33147,-11.4444 L 7.20709,-11.2929 L 7.05556,-11.1685 L 6.88268,-11.0761
 L 6.69508,-11.0192 L 6.5,-11 z
M 1.07298,5.39432 L 2.10475,5.08133 L 3.05563,4.57307 L 7.61113,1.66293 L 7.9142,1.4142 L 8.16293,1.11113
 L 8.34775,0.765366 L 8.46156,0.390167 L 8.5,-0 L 8.46156,-0.390167 L 8.34775,-0.765366 L 8.16293,-1.11113
 L 7.9142,-1.4142 L 7.61113,-1.66293 L 3.05563,-4.57307 L 2.10475,-5.08133 L 1.07298,-5.39432 L 0,-5.5
 L -1.07298,-5.39432 L -2.10475,-5.08133 L -3.05563,-4.57307 L -7.61113,-1.66293 L -7.9142,-1.4142 L -8.16293,-1.11113
 L -8.34775,-0.765366 L -8.46156,-0.390167 L -8.5,-0 L -8.46156,0.390167 L -8.34775,0.765366 L -8.16293,1.11113
 L -7.9142,1.4142 L -7.61113,1.66293 L -3.05563,4.57307 L -2.10475,5.08133 L -1.07298,5.39432 L 0,5.5
 z
M -0.3414,1.71637 L -0.669693,1.61678 L -0.972244,1.45506 L -1.23743,1.23743 L -1.45506,0.972244 L -1.61678,0.669693
 L -1.71637,0.3414 L -1.75,-0 L -1.71637,-0.3414 L -1.61678,-0.669693 L -1.45506,-0.972244 L -1.23743,-1.23743
 L -0.972244,-1.45506 L -0.669693,-1.61678 L -0.3414,-1.71637 L 0,-1.75 L 0.3414,-1.71637 L 0.669693,-1.61678
 L 0.972244,-1.45506 L 1.23743,-1.23743 L 1.45506,-0.972244 L 1.61678,-0.669693 L 1.71637,-0.3414 L 1.75,-0
 L 1.71637,0.3414 L 1.61678,0.669693 L 1.45506,0.972244 L 1.23743,1.23743 L 0.972244,1.45506 L 0.669693,1.61678
 L 0.3414,1.71637 L 0,1.75 z
M -6.69508,0.980774 L -6.88268,0.923874 L -7.05556,0.831467 L -7.20709,0.707092 L -7.33147,0.555557 L -7.42387,0.382675
 L -7.48077,0.195084 L -7.5,-0 L -7.48077,-0.195084 L -7.42387,-0.382675 L -7.33147,-0.555557 L -7.20709,-0.707092
 L -7.05556,-0.831467 L -6.88268,-0.923874 L -6.69508,-0.980774 L -6.5,-1 L -6.3049,-0.980774 L -6.11731,-0.923874
 L -5.94443,-0.831467 L -5.79289,-0.707092 L -5.66852,-0.555557 L -5.57611,-0.382675 L -5.51921,-0.195084 L -5.5,-0
 L -5.51921,0.195084 L -5.57611,0.382675 L -5.66852,0.555557 L -5.79289,0.707092 L -5.94443,0.831467 L -6.11731,0.923874
 L -6.3049,0.980774 L -6.5,1 z
M 6.3049,0.980774 L 6.11731,0.923874 L 5.94443,0.831467 L 5.79289,0.707092 L 5.66852,0.555557 L 5.57611,0.382675
 L 5.51921,0.195084 L 5.5,-0 L 5.51921,-0.195084 L 5.57611,-0.382675 L 5.66852,-0.555557 L 5.79289,-0.707092
 L 5.94443,-0.831467 L 6.11731,-0.923874 L 6.3049,-0.980774 L 6.5,-1 L 6.69508,-0.980774 L 6.88268,-0.923874
 L 7.05556,-0.831467 L 7.20709,-0.707092 L 7.33147,-0.555557 L 7.42387,-0.382675 L 7.48077,-0.195084 L 7.5,-0
 L 7.48077,0.195084 L 7.42387,0.382675 L 7.33147,0.555557 L 7.20709,0.707092 L 7.05556,0.831467 L 6.88268,0.923874
 L 6.69508,0.980774 L 6.5,1 z
M 37.073,5.39432 L 38.1048,5.08133 L 39.0556,4.57307 L 43.6111,1.66293 L 43.9142,1.4142 L 44.1629,1.11113
 L 44.3477,0.765366 L 44.4616,0.390167 L 44.5,-0 L 44.4616,-0.390167 L 44.3477,-0.765366 L 44.1629,-1.11113
 L 43.9142,-1.4142 L 43.6111,-1.66293 L 39.0556,-4.57307 L 38.1048,-5.08133 L 37.073,-5.39432 L 36,-5.5
 L 34.927,-5.39432 L 33.8952,-5.08133 L 32.9444,-4.57307 L 28.3889,-1.66293 L 28.0858,-1.4142 L 27.8371,-1.11113
 L 27.6523,-0.765366 L 27.5384,-0.390167 L 27.5,-0 L 27.5384,0.390167 L 27.6523,0.765366 L 27.8371,1.11113
 L 28.0858,1.4142 L 28.3889,1.66293 L 32.9444,4.57307 L 33.8952,5.08133 L 34.927,5.39432 L 36,5.5
 z
M 32.5,1.75 L 32.5,-1.75 L 39.5,-1.75 L 39.5,1.75 z
M 29.3049,0.980774 L 29.1173,0.923874 L 28.9444,0.831467 L 28.7929,0.707092 L 28.6685,0.555557 L 28.5761,0.382675
 L 28.5192,0.195084 L 28.5,-0 L 28.5192,-0.195084 L 28.5761,-0.382675 L 28.6685,-0.555557 L 28.7929,-0.707092
 L 28.9444,-0.831467 L 29.1173,-0.923874 L 29.3049,-0.980774 L 29.5,-1 L 29.6951,-0.980774 L 29.8827,-0.923874
 L 30.0556,-0.831467 L 30.2071,-0.707092 L 30.3315,-0.555557 L 30.4239,-0.382675 L 30.4808,-0.195084 L 30.5,-0
 L 30.4808,0.195084 L 30.4239,0.382675 L 30.3315,0.555557 L 30.2071,0.707092 L 30.0556,0.831467 L 29.8827,0.923874
 L 29.6951,0.980774 L 29.5,1 z
M 42.3049,0.980774 L 42.1173,0.923874 L 41.9444,0.831467 L 41.7929,0.707092 L 41.6685,0.555557 L 41.5761,0.382675
 L 41.5192,0.195084 L 41.5,-0 L 41.5192,-0.195084 L 41.5761,-0.382675 L 41.6685,-0.555557 L 41.7929,-0.707092
 L 41.9444,-0.831467 L 42.1173,-0.923874 L 42.3049,-0.980774 L 42.5,-1 L 42.6951,-0.980774 L 42.8827,-0.923874
 L 43.0556,-0.831467 L 43.2071,-0.707092 L 43.3315,-0.555557 L 43.4239,-0.382675 L 43.4808,-0.195084 L 43.5,-0
 L 43.4808,0.195084 L 43.4239,0.382675 L 43.3315,0.555557 L 43.2071,0.707092 L 43.0556,0.831467 L 42.8827,0.923874
 L 42.6951,0.980774 L 42.5,1 z
M 19.073,5.39432 L 20.1048,5.08133 L 21.0556,4.57307 L 25.6111,1.66293 L 25.9142,1.4142 L 26.1629,1.11113
 L 26.3477,0.765366 L 26.4616,0.390167 L 26.5,-0 L 26.4616,-0.390167 L 26.3477,-0.765366 L 26.1629,-1.11113
 L 25.9142,-1.4142 L 25.6111,-1.66293 L 21.0556,-4.57307 L 20.1048,-5.08133 L 19.073,-5.39432 L 18,-5.5
 L 16.927,-5.39432 L 15.8952,-5.08133 L 14.9444,-4.57307 L 10.3889,-1.66293 L 10.0858,-1.4142 L 9.83707,-1.11113
 L 9.65225,-0.765366 L 9.53844,-0.390167 L 9.5,-0 L 9.53844,0.390167 L 9.65225,0.765366 L 9.83707,1.11113
 L 10.0858,1.4142 L 10.3889,1.66293 L 14.9444,4.57307 L 15.8952,5.08133 L 16.927,5.39432 L 18,5.5
 z
M 14.5,1.75 L 14.5,-1.75 L 21.5,-1.75 L 21.5,1.75 z
M 11.3049,0.980774 L 11.1173,0.923874 L 10.9444,0.831467 L 10.7929,0.707092 L 10.6685,0.555557 L 10.5761,0.382675
 L 10.5192,0.195084 L 10.5,-0 L 10.5192,-0.195084 L 10.5761,-0.382675 L 10.6685,-0.555557 L 10.7929,-0.707092
 L 10.9444,-0.831467 L 11.1173,-0.923874 L 11.3049,-0.980774 L 11.5,-1 L 11.6951,-0.980774 L 11.8827,-0.923874
 L 12.0556,-0.831467 L 12.2071,-0.707092 L 12.3315,-0.555557 L 12.4239,-0.382675 L 12.4808,-0.195084 L 12.5,-0
 L 12.4808,0.195084 L 12.4239,0.382675 L 12.3315,0.555557 L 12.2071,0.707092 L 12.0556,0.831467 L 11.8827,0.923874
 L 11.6951,0.980774 L 11.5,1 z
M 24.3049,0.980774 L 24.1173,0.923874 L 23.9444,0.831467 L 23.7929,0.707092 L 23.6685,0.555557 L 23.5761,0.382675
 L 23.5192,0.195084 L 23.5,-0 L 23.5192,-0.195084 L 23.5761,-0.382675 L 23.6685,-0.555557 L 23.7929,-0.707092
 L 23.9444,-0.831467 L 24.1173,-0.923874 L 24.3049,-0.980774 L 24.5,-1 L 24.6951,-0.980774 L 24.8827,-0.923874
 L 25.0556,-0.831467 L 25.2071,-0.707092 L 25.3315,-0.555557 L 25.4239,-0.382675 L 25.4808,-0.195084 L 25.5,-0
 L 25.4808,0.195084 L 25.4239,0.382675 L 25.3315,0.555557 L 25.2071,0.707092 L 25.0556,0.831467 L 24.8827,0.923874
 L 24.6951,0.980774 L 24.5,1 z
" stroke="black" fill="lightgray" stroke-width="0.5"/></svg>
