<?xml version="1.0" standalone="no"?>
<!DOCTYPE svg PUBLIC "-//W3C//DTD SVG 1.1//EN" "http://www.w3.org/Graphics/SVG/1.1/DTD/svg11.dtd">
<svg width="46" height="52" viewBox="-7 -44 46 52" xmlns="http://www.w3.org/2000/svg" version="1.1">
<title>OpenSCAD Model</title>
<path d="
M 5.51103,-28.388 L 5.89285,-28.477 L 6.24997,-28.6388 L 6.56866,-28.8672 L 6.83669,-29.1533 L 7.04372,-29.4863
 L 7.18182,-29.8532 L 7.2457,-30.24 L 7.5,-36 L 7.24571,-41.76 L 7.18184,-42.1468 L 7.04373,-42.5137
 L 6.8367,-42.8467 L 6.56868,-43.1328 L 6.24998,-43.3612 L 5.89287,-43.523 L 5.51105,-43.612 L 5.11919,-43.6249
 L 4.73236,-43.561 L 4.36542,-43.4229 L -0.104736,-41.0813 L -1.05562,-40.5731 L -5.61113,-37.6629 L -5.9142,-37.4142
 L -6.16293,-37.1111 L -6.34775,-36.7654 L -6.46156,-36.3902 L -6.5,-36 L -6.46156,-35.6098 L -6.34775,-35.2346
 L -6.16293,-34.8889 L -5.9142,-34.5858 L -5.61113,-34.3371 L -1.05563,-31.4269 L -0.104752,-30.9187 L 4.3654,-28.5771
 L 4.73235,-28.439 L 5.11917,-28.3751 z
M 5.11946,-40.6377 L 4.92856,-40.6822 L 4.74998,-40.7631 L 4.59065,-40.8773 L 4.45663,-41.0204 L 4.35312,-41.1869
 L 4.28407,-41.3703 L 4.25214,-41.5638 L 4.25854,-41.7597 L 4.30305,-41.9506 L 4.38397,-42.1292 L 4.49815,-42.2885
 L 4.64124,-42.4225 L 4.80771,-42.526 L 4.99118,-42.5951 L 5.18459,-42.627 L 5.38052,-42.6206 L 5.57143,-42.5761
 L 5.74998,-42.4952 L 5.90933,-42.381 L 6.04335,-42.2379 L 6.14687,-42.0714 L 6.21591,-41.888 L 6.24785,-41.6946
 L 6.24144,-41.4986 L 6.19693,-41.3077 L 6.11601,-41.1292 L 6.00183,-40.9698 L 5.85875,-40.8358 L 5.69228,-40.7323
 L 5.5088,-40.6632 L 5.3154,-40.6313 z
M 1.41472,-33.0576 L 0.851944,-33.2284 L 0.333282,-33.5056 L -0.121307,-33.8787 L -0.4944,-34.3333 L -0.771637,-34.852
 L -0.942352,-35.4147 L -1,-36 L -0.942352,-36.5853 L -0.771637,-37.148 L -0.4944,-37.6667 L -0.121292,-38.1213
 L 0.333298,-38.4944 L 0.851959,-38.7716 L 1.41473,-38.9424 L 2,-39 L 2.58527,-38.9424 L 3.14804,-38.7716
 L 3.6667,-38.4944 L 4.12131,-38.1213 L 4.4944,-37.6667 L 4.77164,-37.148 L 4.94235,-36.5853 L 5,-36
 L 4.94235,-35.4147 L 4.77164,-34.852 L 4.4944,-34.3333 L 4.12131,-33.8787 L 3.6667,-33.5056 L 3.14803,-33.2284
 L 2.58525,-33.0576 L 1.99998,-33 z
M -4.69508,-35.0192 L -4.88268,-35.0761 L -5.05556,-35.1685 L -5.20709,-35.2929 L -5.33147,-35.4444 L -5.42387,-35.6173
 L -5.48077,-35.8049 L -5.5,-36 L -5.48077,-36.1951 L -5.42387,-36.3827 L -5.33147,-36.5556 L -5.20709,-36.7071
 L -5.05556,-36.8315 L -4.88268,-36.9239 L -4.69508,-36.9808 L -4.5,-37 L -4.3049,-36.9808 L -4.11731,-36.9239
 L -3.94443,-36.8315 L -3.79289,-36.7071 L -3.66852,-36.5556 L -3.57611,-36.3827 L -3.51921,-36.1951 L -3.5,-36
 L -3.51921,-35.8049 L -3.57611,-35.6173 L -3.66852,-35.4444 L -3.79289,-35.2929 L -3.94443,-35.1685 L -4.11731,-35.0761
 L -4.3049,-35.0192 L -4.5,-35 z
M 4.99117,-29.4049 L 4.80769,-29.474 L 4.64122,-29.5775 L 4.49814,-29.7115 L 4.38396,-29.8708 L 4.30304,-30.0494
 L 4.25853,-30.2403 L 4.25212,-30.4362 L 4.28407,-30.6297 L 4.35312,-30.8131 L 4.45663,-30.9796 L 4.59065,-31.1227
 L 4.74998,-31.2369 L 4.92856,-31.3178 L 5.11946,-31.3623 L 5.3154,-31.3687 L 5.5088,-31.3368 L 5.69228,-31.2677
 L 5.85875,-31.1642 L 6.00182,-31.0302 L 6.116,-30.8708 L 6.19691,-30.6923 L 6.24142,-30.5014 L 6.24783,-30.3054
 L 6.2159,-30.112 L 6.14685,-29.9286 L 6.04333,-29.7621 L 5.90932,-29.619 L 5.74997,-29.5048 L 5.57141,-29.4239
 L 5.38051,-29.3794 L 5.18457,-29.373 z
M 20.011,-28.388 L 20.3929,-28.477 L 20.75,-28.6388 L 21.0687,-28.8672 L 21.3367,-29.1533 L 21.5437,-29.4863
 L 21.6818,-29.8532 L 21.7457,-30.24 L 22,-36 L 21.7457,-41.76 L 21.6818,-42.1468 L 21.5437,-42.5137
 L 21.3367,-42.8467 L 21.0687,-43.1328 L 20.75,-43.3612 L 20.3929,-43.523 L 20.011,-43.612 L 19.6192,-43.6249
 L 19.2324,-43.561 L 18.8654,-43.4229 L 14.3952,-41.0813 L 13.4444,-40.5731 L 8.88887,-37.6629 L 8.5858,-37.4142
 L 8.33707,-37.1111 L 8.15225,-36.7654 L 8.03844,-36.3902 L 8,-36 L 8.03844,-35.6098 L 8.15225,-35.2346
 L 8.33707,-34.8889 L 8.5858,-34.5858 L 8.88887,-34.3371 L 13.4444,-31.4269 L 14.3952,-30.9187 L 18.8654,-28.5771
 L 19.2324,-28.439 L 19.6192,-28.3751 z
M 19.6195,-40.6377 L 19.4286,-40.6822 L 19.25,-40.7631 L 19.0907,-40.8773 L 18.9566,-41.0204 L 18.8531,-41.1869
 L 18.7841,-41.3703 L 18.7521,-41.5638 L 18.7585,-41.7597 L 18.8031,-41.9506 L 18.884,-42.1292 L 18.9982,-42.2885
 L 19.1412,-42.4225 L 19.3077,-42.526 L 19.4912,-42.5951 L 19.6846,-42.627 L 19.8805,-42.6206 L 20.0714,-42.5761
 L 20.25,-42.4952 L 20.4093,-42.381 L 20.5434,-42.2379 L 20.6469,-42.0714 L 20.7159,-41.888 L 20.7478,-41.6946
 L 20.7414,-41.4986 L 20.6969,-41.3077 L 20.616,-41.1292 L 20.5018,-40.9698 L 20.3587,-40.8358 L 20.1923,-40.7323
 L 20.0088,-40.6632 L 19.8154,-40.6313 z
M 15.9147,-33.0576 L 15.352,-33.2284 L 14.8333,-33.5056 L 14.3787,-33.8787 L 14.0056,-34.3333 L 13.7284,-34.852
 L 13.5576,-35.4147 L 13.5,-36 L 13.5576,-36.5853 L 13.7284,-37.148 L 14.0056,-37.6667 L 14.3787,-38.1213
 L 14.8333,-38.4944 L 15.352,-38.7716 L 15.9147,-38.9424 L 16.5,-39 L 17.0853,-38.9424 L 17.648,-38.7716
 L 18.1667,-38.4944 L 18.6213,-38.1213 L 18.9944,-37.6667 L 19.2716,-37.148 L 19.4424,-36.5853 L 19.5,-36
 L 19.4424,-35.4147 L 19.2716,-34.852 L 18.9944,-34.3333 L 18.6213,-33.8787 L 18.1667,-33.5056 L 17.648,-33.2284
 L 17.0853,-33.0576 L 16.5,-33 z
M 9.80492,-35.0192 L 9.61732,-35.0761 L 9.44444,-35.1685 L 9.29291,-35.2929 L 9.16853,-35.4444 L 9.07613,-35.6173
 L 9.01923,-35.8049 L 9,-36 L 9.01923,-36.1951 L 9.07613,-36.3827 L 9.16853,-36.5556 L 9.29291,-36.7071
 L 9.44444,-36.8315 L 9.61732,-36.9239 L 9.80492,-36.9808 L 10,-37 L 10.1951,-36.9808 L 10.3827,-36.9239
 L 10.5556,-36.8315 L 10.7071,-36.7071 L 10.8315,-36.5556 L 10.9239,-36.3827 L 10.9808,-36.1951 L 11,-36
 L 10.9808,-35.8049 L 10.9239,-35.6173 L 10.8315,-35.4444 L 10.7071,-35.2929 L 10.5556,-35.1685 L 10.3827,-35.0761
 L 10.1951,-35.0192 L 10,-35 z
M 19.4912,-29.4049 L 19.3077,-29.474 L 19.1412,-29.5775 L 18.9982,-29.7115 L 18.884,-29.8708 L 18.8031,-30.0494
 L 18.7585,-30.2403 L 18.7521,-30.4362 L 18.7841,-30.6297 L 18.8531,-30.8131 L 18.9566,-30.9796 L 19.0907,-31.1227
 L 19.25,-31.2369 L 19.4286,-31.3178 L 19.6195,-31.3623 L 19.8154,-31.3687 L 20.0088,-31.3368 L 20.1923,-31.2677
 L 20.3587,-31.1642 L 20.5018,-31.0302 L 20.616,-30.8708 L 20.6969,-30.6923 L 20.7414,-30.5014 L 20.7478,-30.3054
 L 20.7159,-30.112 L 20.6469,-29.9286 L 20.5434,-29.7621 L 20.4093,-29.619 L 20.25,-29.5048 L 20.0714,-29.4239
 L 19.8805,-29.3794 L 19.6846,-29.373 z
M 35.011,-28.388 L 35.3929,-28.477 L 35.75,-28.6388 L 36.0687,-28.8672 L 36.3367,-29.1533 L 36.5437,-29.4863
 L 36.6818,-29.8532 L 36.7457,-30.24 L 37,-36 L 36.7457,-41.76 L 36.6818,-42.1468 L 36.5437,-42.5137
 L 36.3367,-42.8467 L 36.0687,-43.1328 L 35.75,-43.3612 L 35.3929,-43.523 L 35.011,-43.612 L 34.6192,-43.6249
 L 34.2324,-43.561 L 33.8654,-43.4229 L 29.3952,-41.0813 L 28.4444,-40.5731 L 23.8889,-37.6629 L 23.5858,-37.4142
 L 23.3371,-37.1111 L 23.1523,-36.7654 L 23.0384,-36.3902 L 23,-36 L 23.0384,-35.6098 L 23.1523,-35.2346
 L 23.3371,-34.8889 L 23.5858,-34.5858 L 23.8889,-34.3371 L 28.4444,-31.4269 L 29.3952,-30.9187 L 33.8654,-28.5771
 L 34.2324,-28.439 L 34.6192,-28.3751 z
M 34.6195,-40.6377 L 34.4286,-40.6822 L 34.25,-40.7631 L 34.0907,-40.8773 L 33.9566,-41.0204 L 33.8531,-41.1869
 L 33.7841,-41.3703 L 33.7521,-41.5638 L 33.7585,-41.7597 L 33.8031,-41.9506 L 33.884,-42.1292 L 33.9982,-42.2885
 L 34.1412,-42.4225 L 34.3077,-42.526 L 34.4912,-42.5951 L 34.6846,-42.627 L 34.8805,-42.6206 L 35.0714,-42.5761
 L 35.25,-42.4952 L 35.4093,-42.381 L 35.5434,-42.2379 L 35.6469,-42.0714 L 35.7159,-41.888 L 35.7478,-41.6946
 L 35.7414,-41.4986 L 35.6969,-41.3077 L 35.616,-41.1292 L 35.5018,-40.9698 L 35.3587,-40.8358 L 35.1923,-40.7323
 L 35.0088,-40.6632 L 34.8154,-40.6313 z
M 30.9147,-33.0576 L 30.352,-33.2284 L 29.8333,-33.5056 L 29.3787,-33.8787 L 29.0056,-34.3333 L 28.7284,-34.852
 L 28.5576,-35.4147 L 28.5,-36 L 28.5576,-36.5853 L 28.7284,-37.148 L 29.0056,-37.6667 L 29.3787,-38.1213
 L 29.8333,-38.4944 L 30.352,-38.7716 L 30.9147,-38.9424 L 31.5,-39 L 32.0853,-38.9424 L 32.648,-38.7716
 L 33.1667,-38.4944 L 33.6213,-38.1213 L 33.9944,-37.6667 L 34.2716,-37.148 L 34.4424,-36.5853 L 34.5,-36
 L 34.4424,-35.4147 L 34.2716,-34.852 L 33.9944,-34.3333 L 33.6213,-33.8787 L 33.1667,-33.5056 L 32.648,-33.2284
 L 32.0853,-33.0576 L 31.5,-33 z
M 24.8049,-35.0192 L 24.6173,-35.0761 L 24.4444,-35.1685 L 24.2929,-35.2929 L 24.1685,-35.4444 L 24.0761,-35.6173
 L 24.0192,-35.8049 L 24,-36 L 24.0192,-36.1951 L 24.0761,-36.3827 L 24.1685,-36.5556 L 24.2929,-36.7071
 L 24.4444,-36.8315 L 24.6173,-36.9239 L 24.8049,-36.9808 L 25,-37 L 25.1951,-36.9808 L 25.3827,-36.9239
 L 25.5556,-36.8315 L 25.7071,-36.7071 L 25.8315,-36.5556 L 25.9239,-36.3827 L 25.9808,-36.1951 L 26,-36
 L 25.9808,-35.8049 L 25.9239,-35.6173 L 25.8315,-35.4444 L 25.7071,-35.2929 L 25.5556,-35.1685 L 25.3827,-35.0761
 L 25.1951,-35.0192 L 25,-35 z
M 34.4912,-29.4049 L 34.3077,-29.474 L 34.1412,-29.5775 L 33.9982,-29.7115 L 33.884,-29.8708 L 33.8031,-30.0494
 L 33.7585,-30.2403 L 33.7521,-30.4362 L 33.7841,-30.6297 L 33.8531,-30.8131 L 33.9566,-30.9796 L 34.0907,-31.1227
 L 34.25,-31.2369 L 34.4286,-31.3178 L 34.6195,-31.3623 L 34.8154,-31.3687 L 35.0088,-31.3368 L 35.1923,-31.2677
 L 35.3587,-31.1642 L 35.5018,-31.0302 L 35.616,-30.8708 L 35.6969,-30.6923 L 35.7414,-30.5014 L 35.7478,-30.3054
 L 35.7159,-30.112 L 35.6469,-29.9286 L 35.5434,-29.7621 L 35.4093,-29.619 L 35.25,-29.5048 L 35.0714,-29.4239
 L 34.8805,-29.3794 L 34.6846,-29.373 z
M -2.73236,-16.439 L -2.36542,-16.5771 L 2.10475,-18.9187 L 3.05563,-19.4269 L 7.61113,-22.3371 L 7.9142,-22.5858
 L 8.16293,-22.8889 L 8.34775,-23.2346 L 8.46156,-23.6098 L 8.5,-24 L 8.46156,-24.3902 L 8.34775,-24.7654
 L 8.16293,-25.1111 L 7.9142,-25.4142 L 7.61113,-25.6629 L 3.05563,-28.5731 L 2.10475,-29.0813 L -2.36542,-31.4229
 L -2.73236,-31.561 L -3.11919,-31.6249 L -3.51105,-31.612 L -3.89287,-31.523 L -4.24998,-31.3612 L -4.56868,-31.1328
 L -4.8367,-30.8467 L -5.04373,-30.5137 L -5.18184,-30.1468 L -5.24571,-29.76 L -5.5,-24 L -5.24571,-18.24
 L -5.18184,-17.8532 L -5.04373,-17.4863 L -4.8367,-17.1533 L -4.56868,-16.8672 L -4.24998,-16.6388 L -3.89287,-16.477
 L -3.51105,-16.388 L -3.11919,-16.3751 z
M -3.5088,-28.6632 L -3.69228,-28.7323 L -3.85875,-28.8358 L -4.00183,-28.9698 L -4.11601,-29.1292 L -4.19693,-29.3077
 L -4.24144,-29.4986 L -4.24785,-29.6946 L -4.21591,-29.888 L -4.14687,-30.0714 L -4.04335,-30.2379 L -3.90933,-30.381
 L -3.74998,-30.4952 L -3.57143,-30.5761 L -3.38052,-30.6206 L -3.18459,-30.627 L -2.99118,-30.5951 L -2.80771,-30.526
 L -2.64124,-30.4225 L -2.49815,-30.2885 L -2.38397,-30.1292 L -2.30305,-29.9506 L -2.25854,-29.7597 L -2.25214,-29.5638
 L -2.28407,-29.3703 L -2.35312,-29.1869 L -2.45663,-29.0204 L -2.59065,-28.8773 L -2.74998,-28.7631 L -2.92856,-28.6822
 L -3.11946,-28.6377 L -3.3154,-28.6313 z
M -0.585266,-21.0576 L -1.14804,-21.2284 L -1.6667,-21.5056 L -2.12131,-21.8787 L -2.4944,-22.3333 L -2.77164,-22.852
 L -2.94235,-23.4147 L -3,-24 L -2.94235,-24.5853 L -2.77164,-25.148 L -2.4944,-25.6667 L -2.12131,-26.1213
 L -1.6667,-26.4944 L -1.14804,-26.7716 L -0.585266,-26.9424 L 0,-27 L 0.585266,-26.9424 L 1.14804,-26.7716
 L 1.6667,-26.4944 L 2.12131,-26.1213 L 2.4944,-25.6667 L 2.77164,-25.148 L 2.94235,-24.5853 L 3,-24
 L 2.94235,-23.4147 L 2.77164,-22.852 L 2.4944,-22.3333 L 2.12131,-21.8787 L 1.6667,-21.5056 L 1.14804,-21.2284
 L 0.585266,-21.0576 L 0,-21 z
M 6.3049,-23.0192 L 6.11731,-23.0761 L 5.94443,-23.1685 L 5.79289,-23.2929 L 5.66852,-23.4444 L 5.57611,-23.6173
 L 5.51921,-23.8049 L 5.5,-24 L 5.51921,-24.1951 L 5.57611,-24.3827 L 5.66852,-24.5556 L 5.79289,-24.7071
 L 5.94443,-24.8315 L 6.11731,-24.9239 L 6.3049,-24.9808 L 6.5,-25 L 6.69508,-24.9808 L 6.88268,-24.9239
 L 7.05556,-24.8315 L 7.20709,-24.7071 L 7.33147,-24.5556 L 7.42387,-24.3827 L 7.48077,-24.1951 L 7.5,-24
 L 7.48077,-23.8049 L 7.42387,-23.6173 L 7.33147,-23.4444 L 7.20709,-23.2929 L 7.05556,-23.1685 L 6.88268,-23.0761
 L 6.69508,-23.0192 L 6.5,-23 z
M -3.38052,-17.3794 L -3.57143,-17.4239 L -3.74998,-17.5048 L -3.90933,-17.619 L -4.04335,-17.7621 L -4.14687,-17.9286
 L -4.21591,-18.112 L -4.24785,-18.3054 L -4.24144,-18.5014 L -4.19693,-18.6923 L -4.11601,-18.8708 L -4.00183,-19.0302
 L -3.85875,-19.1642 L -3.69228,-19.2677 L -3.5088,-19.3368 L -3.3154,-19.3687 L -3.11946,-19.3623 L -2.92856,-19.3178
 L -2.74998,-19.2369 L -2.59065,-19.1227 L -2.45663,-18.9796 L -2.35312,-18.8131 L -2.28407,-18.6297 L -2.25214,-18.4362
 L -2.25854,-18.2403 L -2.30305,-18.0494 L -2.38397,-17.8708 L -2.49815,-17.7115 L -2.64124,-17.5775 L -2.80771,-17.474
 L -2.99118,-17.4049 L -3.18459,-17.373 z
M 12.2676,-16.439 L 12.6346,-16.5771 L 17.1048,-18.9187 L 18.0556,-19.4269 L 22.6111,-22.3371 L 22.9142,-22.5858
 L 23.1629,-22.8889 L 23.3477,-23.2346 L 23.4616,-23.6098 L 23.5,-24 L 23.4616,-24.3902 L 23.3477,-24.7654
 L 23.1629,-25.1111 L 22.9142,-25.4142 L 22.6111,-25.6629 L 18.0556,-28.5731 L 17.1048,-29.0813 L 12.6346,-31.4229
 L 12.2676,-31.561 L 11.8808,-31.6249 L 11.489,-31.612 L 11.1071,-31.523 L 10.75,-31.3612 L 10.4313,-31.1328
 L 10.1633,-30.8467 L 9.95627,-30.5137 L 9.81816,-30.1468 L 9.75429,-29.76 L 9.5,-24 L 9.75429,-18.24
 L 9.81816,-17.8532 L 9.95627,-17.4863 L 10.1633,-17.1533 L 10.4313,-16.8672 L 10.75,-16.6388 L 11.1071,-16.477
 L 11.489,-16.388 L 11.8808,-16.3751 z
M 11.4912,-28.6632 L 11.3077,-28.7323 L 11.1413,-28.8358 L 10.9982,-28.9698 L 10.884,-29.1292 L 10.8031,-29.3077
 L 10.7586,-29.4986 L 10.7522,-29.6946 L 10.7841,-29.888 L 10.8531,-30.0714 L 10.9566,-30.2379 L 11.0907,-30.381
 L 11.25,-30.4952 L 11.4286,-30.5761 L 11.6195,-30.6206 L 11.8154,-30.627 L 12.0088,-30.5951 L 12.1923,-30.526
 L 12.3588,-30.4225 L 12.5018,-30.2885 L 12.616,-30.1292 L 12.6969,-29.9506 L 12.7415,-29.7597 L 12.7479,-29.5638
 L 12.7159,-29.3703 L 12.6469,-29.1869 L 12.5434,-29.0204 L 12.4093,-28.8773 L 12.25,-28.7631 L 12.0714,-28.6822
 L 11.8805,-28.6377 L 11.6846,-28.6313 z
M 14.4147,-21.0576 L 13.852,-21.2284 L 13.3333,-21.5056 L 12.8787,-21.8787 L 12.5056,-22.3333 L 12.2284,-22.852
 L 12.0576,-23.4147 L 12,-24 L 12.0576,-24.5853 L 12.2284,-25.148 L 12.5056,-25.6667 L 12.8787,-26.1213
 L 13.3333,-26.4944 L 13.852,-26.7716 L 14.4147,-26.9424 L 15,-27 L 15.5853,-26.9424 L 16.148,-26.7716
 L 16.6667,-26.4944 L 17.1213,-26.1213 L 17.4944,-25.6667 L 17.7716,-25.148 L 17.9424,-24.5853 L 18,-24
 L 17.9424,-23.4147 L 17.7716,-22.852 L 17.4944,-22.3333 L 17.1213,-21.8787 L 16.6667,-21.5056 L 16.148,-21.2284
 L 15.5853,-21.0576 L 15,-21 z
M 21.3049,-23.0192 L 21.1173,-23.0761 L 20.9444,-23.1685 L 20.7929,-23.2929 L 20.6685,-23.4444 L 20.5761,-23.6173
 L 20.5192,-23.8049 L 20.5,-24 L 20.5192,-24.1951 L 20.5761,-24.3827 L 20.6685,-24.5556 L 20.7929,-24.7071
 L 20.9444,-24.8315 L 21.1173,-24.9239 L 21.3049,-24.9808 L 21.5,-25 L 21.6951,-24.9808 L 21.8827,-24.9239
 L 22.0556,-24.8315 L 22.2071,-24.7071 L 22.3315,-24.5556 L 22.4239,-24.3827 L 22.4808,-24.1951 L 22.5,-24
 L 22.4808,-23.8049 L 22.4239,-23.6173 L 22.3315,-23.4444 L 22.2071,-23.2929 L 22.0556,-23.1685 L 21.8827,-23.0761
 L 21.6951,-23.0192 L 21.5,-23 z
M 11.6195,-17.3794 L 11.4286,-17.4239 L 11.25,-17.5048 L 11.0907,-17.619 L 10.9566,-17.7621 L 10.8531,-17.9286
 L 10.7841,-18.112 L 10.7522,-18.3054 L 10.7586,-18.5014 L 10.8031,-18.6923 L 10.884,-18.8708 L 10.9982,-19.0302
 L 11.1413,-19.1642 L 11.3077,-19.2677 L 11.4912,-19.3368 L 11.6846,-19.3687 L 11.8805,-19.3623 L 12.0714,-19.3178
 L 12.25,-19.2369 L 12.4093,-19.1227 L 12.5434,-18.9796 L 12.6469,-18.8131 L 12.7159,-18.6297 L 12.7479,-18.4362
 L 12.7415,-18.2403 L 12.6969,-18.0494 L 12.616,-17.8708 L 12.5018,-17.7115 L 12.3588,-17.5775 L 12.1923,-17.474
 L 12.0088,-17.4049 L 11.8154,-17.373 z
M 27.2676,-16.439 L 27.6346,-16.5771 L 32.1048,-18.9187 L 33.0556,-19.4269 L 37.6111,-22.3371 L 37.9142,-22.5858
 L 38.1629,-22.8889 L 38.3477,-23.2346 L 38.4616,-23.6098 L 38.5,-24 L 38.4616,-24.3902 L 38.3477,-24.7654
 L 38.1629,-25.1111 L 37.9142,-25.4142 L 37.6111,-25.6629 L 33.0556,-28.5731 L 32.1048,-29.0813 L 27.6346,-31.4229
 L 27.2676,-31.561 L 26.8808,-31.6249 L 26.489,-31.612 L 26.1071,-31.523 L 25.75,-31.3612 L 25.4313,-31.1328
 L 25.1633,-30.8467 L 24.9563,-30.5137 L 24.8182,-30.1468 L 24.7543,-29.76 L 24.5,-24 L 24.7543,-18.24
 L 24.8182,-17.8532 L 24.9563,-17.4863 L 25.1633,-17.1533 L 25.4313,-16.8672 L 25.75,-16.6388 L 26.1071,-16.477
 L 26.489,-16.388 L 26.8808,-16.3751 z
M 26.4912,-28.6632 L 26.3077,-28.7323 L 26.1413,-28.8358 L 25.9982,-28.9698 L 25.884,-29.1292 L 25.8031,-29.3077
 L 25.7586,-29.4986 L 25.7522,-29.6946 L 25.7841,-29.888 L 25.8531,-30.0714 L 25.9566,-30.2379 L 26.0907,-30.381
 L 26.25,-30.4952 L 26.4286,-30.5761 L 26.6195,-30.6206 L 26.8154,-30.627 L 27.0088,-30.5951 L 27.1923,-30.526
 L 27.3588,-30.4225 L 27.5018,-30.2885 L 27.616,-30.1292 L 27.6969,-29.9506 L 27.7415,-29.7597 L 27.7479,-29.5638
 L 27.7159,-29.3703 L 27.6469,-29.1869 L 27.5434,-29.0204 L 27.4093,-28.8773 L 27.25,-28.7631 L 27.0714,-28.6822
 L 26.8805,-28.6377 L 26.6846,-28.6313 z
M 29.4147,-21.0576 L 28.852,-21.2284 L 28.3333,-21.5056 L 27.8787,-21.8787 L 27.5056,-22.3333 L 27.2284,-22.852
 L 27.0576,-23.4147 L 27,-24 L 27.0576,-24.5853 L 27.2284,-25.148 L 27.5056,-25.6667 L 27.8787,-26.1213
 L 28.3333,-26.4944 L 28.852,-26.7716 L 29.4147,-26.9424 L 30,-27 L 30.5853,-26.9424 L 31.148,-26.7716
 L 31.6667,-26.4944 L 32.1213,-26.1213 L 32.4944,-25.6667 L 32.7716,-25.148 L 32.9424,-24.5853 L 33,-24
 L 32.9424,-23.4147 L 32.7716,-22.852 L 32.4944,-22.3333 L 32.1213,-21.8787 L 31.6667,-21.5056 L 31.148,-21.2284
 L 30.5853,-21.0576 L 30,-21 z
M 36.3049,-23.0192 L 36.1173,-23.0761 L 35.9444,-23.1685 L 35.7929,-23.2929 L 35.6685,-23.4444 L 35.5761,-23.6173
 L 35.5192,-23.8049 L 35.5,-24 L 35.5192,-24.1951 L 35.5761,-24.3827 L 35.6685,-24.5556 L 35.7929,-24.7071
 L 35.9444,-24.8315 L 36.1173,-24.9239 L 36.3049,-24.9808 L 36.5,-25 L 36.6951,-24.9808 L 36.8827,-24.9239
 L 37.0556,-24.8315 L 37.2071,-24.7071 L 37.3315,-24.5556 L 37.4239,-24.3827 L 37.4808,-24.1951 L 37.5,-24
 L 37.4808,-23.8049 L 37.4239,-23.6173 L 37.3315,-23.4444 L 37.2071,-23.2929 L 37.0556,-23.1685 L 36.8827,-23.0761
 L 36.6951,-23.0192 L 36.5,-23 z
M 26.6195,-17.3794 L 26.4286,-17.4239 L 26.25,-17.5048 L 26.0907,-17.619 L 25.9566,-17.7621 L 25.8531,-17.9286
 L 25.7841,-18.112 L 25.7522,-18.3054 L 25.7586,-18.5014 L 25.8031,-18.6923 L 25.884,-18.8708 L 25.9982,-19.0302
 L 26.1413,-19.1642 L 26.3077,-19.2677 L 26.4912,-19.3368 L 26.6846,-19.3687 L 26.8805,-19.3623 L 27.0714,-19.3178
 L 27.25,-19.2369 L 27.4093,-19.1227 L 27.5434,-18.9796 L 27.6469,-18.8131 L 27.7159,-18.6297 L 27.7479,-18.4362
 L 27.7415,-18.2403 L 27.6969,-18.0494 L 27.616,-17.8708 L 27.5018,-17.7115 L 27.3588,-17.5775 L 27.1923,-17.474
 L 27.0088,-17.4049 L 26.8154,-17.373 z
M 35.011,-4.38795 L 35.3929,-4.47697 L 35.75,-4.63878 L 36.0687,-4.86714 L 36.3367,-5.15331 L 36.5437,-5.48625
 L 36.6818,-5.8532 L 36.7457,-6.24002 L 37,-12 L 36.7457,-17.76 L 36.6818,-18.1468 L 36.5437,-18.5137
 L 36.3367,-18.8467 L 36.0687,-19.1328 L 35.75,-19.3612 L 35.3929,-19.523 L 35.011,-19.612 L 34.6192,-19.6249
 L 34.2324,-19.561 L 33.8654,-19.4229 L 29.3952,-17.0813 L 28.4444,-16.5731 L 23.8889,-13.6629 L 23.5858,-13.4142
 L 23.3371,-13.1111 L 23.1523,-12.7654 L 23.0384,-12.3902 L 23,-12 L 23.0384,-11.6098 L 23.1523,-11.2346
 L 23.3371,-10.8889 L 23.5858,-10.5858 L 23.8889,-10.3371 L 28.4444,-7.42693 L 29.3952,-6.91867 L 33.8654,-4.5771
 L 34.2324,-4.439 L 34.6192,-4.37512 z
M 34.6195,-16.6377 L 34.4286,-16.6822 L 34.25,-16.7631 L 34.0907,-16.8773 L 33.9566,-17.0204 L 33.8531,-17.1869
 L 33.7841,-17.3703 L 33.7521,-17.5638 L 33.7585,-17.7597 L 33.8031,-17.9506 L 33.884,-18.1292 L 33.9982,-18.2885
 L 34.1412,-18.4225 L 34.3077,-18.526 L 34.4912,-18.5951 L 34.6846,-18.627 L 34.8805,-18.6206 L 35.0714,-18.5761
 L 35.25,-18.4952 L 35.4093,-18.381 L 35.5434,-18.2379 L 35.6469,-18.0714 L 35.7159,-17.888 L 35.7478,-17.6946
 L 35.7414,-17.4986 L 35.6969,-17.3077 L 35.616,-17.1292 L 35.5018,-16.9698 L 35.3587,-16.8358 L 35.1923,-16.7323
 L 35.0088,-16.6632 L 34.8154,-16.6313 z
M 28,-10.25 L 28,-13.75 L 35,-13.75 L 35,-10.25 z
M 24.8049,-11.0192 L 24.6173,-11.0761 L 24.4444,-11.1685 L 24.2929,-11.2929 L 24.1685,-11.4444 L 24.0761,-11.6173
 L 24.0192,-11.8049 L 24,-12 L 24.0192,-12.1951 L 24.0761,-12.3827 L 24.1685,-12.5556 L 24.2929,-12.7071
 L 24.4444,-12.8315 L 24.6173,-12.9239 L 24.8049,-12.9808 L 25,-13 L 25.1951,-12.9808 L 25.3827,-12.9239
 L 25.5556,-12.8315 L 25.7071,-12.7071 L 25.8315,-12.5556 L 25.9239,-12.3827 L 25.9808,-12.1951 L 26,-12
 L 25.9808,-11.8049 L 25.9239,-11.6173 L 25.8315,-11.4444 L 25.7071,-11.2929 L 25.5556,-11.1685 L 25.3827,-11.0761
 L 25.1951,-11.0192 L 25,-11 z
M 34.4912,-5.40492 L 34.3077,-5.47397 L 34.1412,-5.57748 L 33.9982,-5.7115 L 33.884,-5.87085 L 33.8031,-6.04941
 L 33.7585,-6.24031 L 33.7521,-6.43625 L 33.7841,-6.62965 L 33.8531,-6.81313 L 33.9566,-6.9796 L 34.0907,-7.12268
 L 34.25,-7.23686 L 34.4286,-7.31778 L 34.6195,-7.36229 L 34.8154,-7.3687 L 35.0088,-7.33676 L 35.1923,-7.2677
 L 35.3587,-7.16418 L 35.5018,-7.03017 L 35.616,-6.87083 L 35.6969,-6.69226 L 35.7414,-6.50136 L 35.7478,-6.30542
 L 35.7159,-6.11201 L 35.6469,-5.92854 L 35.5434,-5.76207 L 35.4093,-5.61899 L 35.25,-5.50481 L 35.0714,-5.42392
 L 34.8805,-5.37939 L 34.6846,-5.37299 z
M 20.011,-4.38795 L 20.3929,-4.47697 L 20.75,-4.63878 L 21.0687,-4.86714 L 21.3367,-5.15331 L 21.5437,-5.48625
 L 21.6818,-5.8532 L 21.7457,-6.24002 L 22,-12 L 21.7457,-17.76 L 21.6818,-18.1468 L 21.5437,-18.5137
 L 21.3367,-18.8467 L 21.0687,-19.1328 L 20.75,-19.3612 L 20.3929,-19.523 L 20.011,-19.612 L 19.6192,-19.6249
 L 19.2324,-19.561 L 18.8654,-19.4229 L 14.3952,-17.0813 L 13.4444,-16.5731 L 8.88887,-13.6629 L 8.5858,-13.4142
 L 8.33707,-13.1111 L 8.15225,-12.7654 L 8.03844,-12.3902 L 8,-12 L 8.03844,-11.6098 L 8.15225,-11.2346
 L 8.33707,-10.8889 L 8.5858,-10.5858 L 8.88887,-10.3371 L 13.4444,-7.42693 L 14.3952,-6.91867 L 18.8654,-4.5771
 L 19.2324,-4.439 L 19.6192,-4.37512 z
M 19.6195,-16.6377 L 19.4286,-16.6822 L 19.25,-16.7631 L 19.0907,-16.8773 L 18.9566,-17.0204 L 18.8531,-17.1869
 L 18.7841,-17.3703 L 18.7521,-17.5638 L 18.7585,-17.7597 L 18.8031,-17.9506 L 18.884,-18.1292 L 18.9982,-18.2885
 L 19.1412,-18.4225 L 19.3077,-18.526 L 19.4912,-18.5951 L 19.6846,-18.627 L 19.8805,-18.6206 L 20.0714,-18.5761
 L 20.25,-18.4952 L 20.4093,-18.381 L 20.5434,-18.2379 L 20.6469,-18.0714 L 20.7159,-17.888 L 20.7478,-17.6946
 L 20.7414,-17.4986 L 20.6969,-17.3077 L 20.616,-17.1292 L 20.5018,-16.9698 L 20.3587,-16.8358 L 20.1923,-16.7323
 L 20.0088,-16.6632 L 19.8154,-16.6313 z
M 16.3049,-14.5192 L 16.1173,-14.5761 L 15.9444,-14.6685 L 15.7929,-14.7929 L 15.6685,-14.9444 L 15.5761,-15.1173
 L 15.5192,-15.3049 L 15.5,-15.5 L 15.5192,-15.6951 L 15.5761,-15.8827 L 15.6685,-16.0556 L 15.7929,-16.2071
 L 15.9444,-16.3315 L 16.1173,-16.4239 L 16.3049,-16.4808 L 16.5,-16.5 L 16.6951,-16.4808 L 16.8827,-16.4239
 L 17.0556,-16.3315 L 17.2071,-16.2071 L 17.3315,-16.0556 L 17.4239,-15.8827 L 17.4808,-15.6951 L 17.5,-15.5
 L 17.4808,-15.3049 L 17.4239,-15.1173 L 17.3315,-14.9444 L 17.2071,-14.7929 L 17.0556,-14.6685 L 16.8827,-14.5761
 L 16.6951,-14.5192 L 16.5,-14.5 z
M 9.80492,-11.0192 L 9.61732,-11.0761 L 9.44444,-11.1685 L 9.29291,-11.2929 L 9.16853,-11.4444 L 9.07613,-11.6173
 L 9.01923,-11.8049 L 9,-12 L 9.01923,-12.1951 L 9.07613,-12.3827 L 9.16853,-12.5556 L 9.29291,-12.7071
 L 9.44444,-12.8315 L 9.61732,-12.9239 L 9.80492,-12.9808 L 10,-13 L 10.1951,-12.9808 L 10.3827,-12.9239
 L 10.5556,-12.8315 L 10.7071,-12.7071 L 10.8315,-12.5556 L 10.9239,-12.3827 L 10.9808,-12.1951 L 11,-12
 L 10.9808,-11.8049 L 10.9239,-11.6173 L 10.8315,-11.4444 L 10.7071,-11.2929 L 10.5556,-11.1685 L 10.3827,-11.0761
 L 10.1951,-11.0192 L 10,-11 z
M 16.3049,-11.0192 L 16.1173,-11.0761 L 15.9444,-11.1685 L 15.7929,-11.2929 L 15.6685,-11.4444 L 15.5761,-11.6173
 L 15.5192,-11.8049 L 15.5,-12 L 15.5192,-12.1951 L 15.5761,-12.3827 L 15.6685,-12.5556 L 15.7929,-12.7071
 L 15.9444,-12.8315 L 16.1173,-12.9239 L 16.3049,-12.9808 L 16.5,-13 L 16.6951,-12.9808 L 16.8827,-12.9239
 L 17.0556,-12.8315 L 17.2071,-12.7071 L 17.3315,-12.5556 L 17.4239,-12.3827 L 17.4808,-12.1951 L 17.5,-12
 L 17.4808,-11.8049 L 17.4239,-11.6173 L 17.3315,-11.4444 L 17.2071,-11.2929 L 17.0556,-11.1685 L 16.8827,-11.0761
 L 16.6951,-11.0192 L 16.5,-11 z
M 16.3049,-7.51923 L 16.1173,-7.57613 L 15.9444,-7.66853 L 15.7929,-7.79291 L 15.6685,-7.94444 L 15.5761,-8.11732
 L 15.5192,-8.30492 L 15.5,-8.5 L 15.5192,-8.6951 L 15.5761,-8.88269 L 15.6685,-9.05557 L 15.7929,-9.20711
 L 15.9444,-9.33148 L 16.1173,-9.42389 L 16.3049,-9.48079 L 16.5,-9.5 L 16.6951,-9.48079 L 16.8827,-9.42389
 L 17.0556,-9.33148 L 17.2071,-9.20711 L 17.3315,-9.05557 L 17.4239,-8.88269 L 17.4808,-8.6951 L 17.5,-8.5
 L 17.4808,-8.30492 L 17.4239,-8.11732 L 17.3315,-7.94444 L 17.2071,-7.79291 L 17.0556,-7.66853 L 16.8827,-7.57613
 L 16.6951,-7.51923 L 16.5,-7.5 z
M 19.4912,-5.40492 L 19.3077,-5.47397 L 19.1412,-5.57748 L 18.9982,-5.7115 L 18.884,-5.87085 L 18.8031,-6.04941
 L 18.7585,-6.24031 L 18.7521,-6.43625 L 18.7841,-6.62965 L 18.8531,-6.81313 L 18.9566,-6.9796 L 19.0907,-7.12268
 L 19.25,-7.23686 L 19.4286,-7.31778 L 19.6195,-7.36229 L 19.8154,-7.3687 L 20.0088,-7.33676 L 20.1923,-7.2677
 L 20.3587,-7.16418 L 20.5018,-7.03017 L 20.616,-6.87083 L 20.6969,-6.69226 L 20.7414,-6.50136 L 20.7478,-6.30542
 L 20.7159,-6.11201 L 20.6469,-5.92854 L 20.5434,-5.76207 L 20.4093,-5.61899 L 20.25,-5.50481 L 20.0714,-5.42392
 L 19.8805,-5.37939 L 19.6846,-5.37299 z
M 5.51103,-4.38795 L 5.89285,-4.47697 L 6.24997,-4.63878 L 6.56866,-4.86714 L 6.83669,-5.15331 L 7.04372,-5.48625
 L 7.18182,-5.8532 L 7.2457,-6.24002 L 7.5,-12 L 7.24571,-17.76 L 7.18184,-18.1468 L 7.04373,-18.5137
 L 6.8367,-18.8467 L 6.56868,-19.1328 L 6.24998,-19.3612 L 5.89287,-19.523 L 5.51105,-19.612 L 5.11919,-19.6249
 L 4.73236,-19.561 L 4.36542,-19.4229 L -0.104736,-17.0813 L -1.05562,-16.5731 L -5.61113,-13.6629 L -5.9142,-13.4142
 L -6.16293,-13.1111 L -6.34775,-12.7654 L -6.46156,-12.3902 L -6.5,-12 L -6.46156,-11.6098 L -6.34775,-11.2346
 L -6.16293,-10.8889 L -5.9142,-10.5858 L -5.61113,-10.3371 L -1.05563,-7.42693 L -0.104752,-6.91867 L 4.3654,-4.5771
 L 4.73235,-4.439 L 5.11917,-4.37512 z
M 5.11946,-16.6377 L 4.92856,-16.6822 L 4.74998,-16.7631 L 4.59065,-16.8773 L 4.45663,-17.0204 L 4.35312,-17.1869
 L 4.28407,-17.3703 L 4.25214,-17.5638 L 4.25854,-17.7597 L 4.30305,-17.9506 L 4.38397,-18.1292 L 4.49815,-18.2885
 L 4.64124,-18.4225 L 4.80771,-18.526 L 4.99118,-18.5951 L 5.18459,-18.627 L 5.38052,-18.6206 L 5.57143,-18.5761
 L 5.74998,-18.4952 L 5.90933,-18.381 L 6.04335,-18.2379 L 6.14687,-18.0714 L 6.21591,-17.888 L 6.24785,-17.6946
 L 6.24144,-17.4986 L 6.19693,-17.3077 L 6.11601,-17.1292 L 6.00183,-16.9698 L 5.85875,-16.8358 L 5.69228,-16.7323
 L 5.5088,-16.6632 L 5.3154,-16.6313 z
M 1.41472,-9.05765 L 0.851944,-9.22836 L 0.333282,-9.5056 L -0.121307,-9.87869 L -0.4944,-10.3333 L -0.771637,-10.852
 L -0.942352,-11.4147 L -1,-12 L -0.942352,-12.5853 L -0.771637,-13.148 L -0.4944,-13.6667 L -0.121292,-14.1213
 L 0.333298,-14.4944 L 0.851959,-14.7716 L 1.41473,-14.9424 L 2,-15 L 2.58527,-14.9424 L 3.14804,-14.7716
 L 3.6667,-14.4944 L 4.12131,-14.1213 L 4.4944,-13.6667 L 4.77164,-13.148 L 4.94235,-12.5853 L 5,-12
 L 4.94235,-11.4147 L 4.77164,-10.852 L 4.4944,-10.3333 L 4.12131,-9.87869 L 3.6667,-9.5056 L 3.14803,-9.22836
 L 2.58525,-9.05765 L 1.99998,-9 z
M -4.69508,-11.0192 L -4.88268,-11.0761 L -5.05556,-11.1685 L -5.20709,-11.2929 L -5.33147,-11.4444 L -5.42387,-11.6173
 L -5.48077,-11.8049 L -5.5,-12 L -5.48077,-12.1951 L -5.42387,-12.3827 L -5.33147,-12.5556 L -5.20709,-12.7071
 L -5.05556,-12.8315 L -4.88268,-12.9239 L -4.69508,-12.9808 L -4.5,-13 L -4.3049,-12.9808 L -4.11731,-12.9239
 L -3.94443,-12.8315 L -3.79289,-12.7071 L -3.66852,-12.5556 L -3.57611,-12.3827 L -3.51921,-12.1951 L -3.5,-12
 L -3.51921,-11.8049 L -3.57611,-11.6173 L -3.66852,-11.4444 L -3.79289,-11.2929 L -3.94443,-11.1685 L -4.11731,-11.0761
 L -4.3049,-11.0192 L -4.5,-11 z
M 4.99117,-5.40492 L 4.80769,-5.47397 L 4.64122,-5.57748 L 4.49814,-5.7115 L 4.38396,-5.87085 L 4.30304,-6.04941
 L 4.25853,-6.24031 L 4.25212,-6.43625 L 4.28407,-6.62965 L 4.35312,-6.81313 L 4.45663,-6.9796 L 4.59065,-7.12268
 L 4.74998,-7.23686 L 4.92856,-7.31778 L 5.11946,-7.36229 L 5.3154,-7.3687 L 5.5088,-7.33676 L 5.69228,-7.2677
 L 5.85875,-7.16418 L 6.00182,-7.03017 L 6.116,-6.87083 L 6.19691,-6.69226 L 6.24142,-6.50136 L 6.24783,-6.30542
 L 6.2159,-6.11201 L 6.14685,-5.92854 L 6.04333,-5.76207 L 5.90932,-5.61899 L 5.74997,-5.50481 L 5.57141,-5.42392
 L 5.38051,-5.37939 L 5.18457,-5.37299 z
M 27.2676,7.561 L 27.6346,7.4229 L 32.1048,5.08133 L 33.0556,4.57307 L 37.6111,1.66293 L 37.9142,1.4142
 L 38.1629,1.11113 L 38.3477,0.765366 L 38.4616,0.390167 L 38.5,-0 L 38.4616,-0.390167 L 38.3477,-0.765366
 L 38.1629,-1.11113 L 37.9142,-1.4142 L 37.6111,-1.66293 L 33.0556,-4.57307 L 32.1048,-5.08133 L 27.6346,-7.4229
 L 27.2676,-7.561 L 26.8808,-7.62488 L 26.489,-7.61205 L 26.1071,-7.52301 L 25.75,-7.36121 L 25.4313,-7.13284
 L 25.1633,-6.84668 L 24.9563,-6.51373 L 24.8182,-6.14679 L 24.7543,-5.75996 L 24.5,-0 L 24.7543,5.75996
 L 24.8182,6.14679 L 24.9563,6.51373 L 25.1633,6.84668 L 25.4313,7.13284 L 25.75,7.36121 L 26.1071,7.52301
 L 26.489,7.61205 L 26.8808,7.62488 z
M 26.4912,-4.66324 L 26.3077,-4.73228 L 26.1413,-4.8358 L 25.9982,-4.96982 L 25.884,-5.12915 L 25.8031,-5.30772
 L 25.7586,-5.49863 L 25.7522,-5.69456 L 25.7841,-5.88797 L 25.8531,-6.07144 L 25.9566,-6.23792 L 26.0907,-6.381
 L 26.25,-6.49518 L 26.4286,-6.57608 L 26.6195,-6.62061 L 26.8154,-6.62701 L 27.0088,-6.59508 L 27.1923,-6.52603
 L 27.3588,-6.42252 L 27.5018,-6.2885 L 27.616,-6.12915 L 27.6969,-5.95059 L 27.7415,-5.75969 L 27.7479,-5.56375
 L 27.7159,-5.37035 L 27.6469,-5.18687 L 27.5434,-5.0204 L 27.4093,-4.87732 L 27.25,-4.76314 L 27.0714,-4.68222
 L 26.8805,-4.63771 L 26.6846,-4.6313 z
M 26.5,1.75 L 26.5,-1.75 L 33.5,-1.75 L 33.5,1.75 z
M 36.3049,0.980774 L 36.1173,0.923874 L 35.9444,0.831467 L 35.7929,0.707092 L 35.6685,0.555557 L 35.5761,0.382675
 L 35.5192,0.195084 L 35.5,-0 L 35.5192,-0.195084 L 35.5761,-0.382675 L 35.6685,-0.555557 L 35.7929,-0.707092
 L 35.9444,-0.831467 L 36.1173,-0.923874 L 36.3049,-0.980774 L 36.5,-1 L 36.6951,-0.980774 L 36.8827,-0.923874
 L 37.0556,-0.831467 L 37.2071,-0.707092 L 37.3315,-0.555557 L 37.4239,-0.382675 L 37.4808,-0.195084 L 37.5,-0
 L 37.4808,0.195084 L 37.4239,0.382675 L 37.3315,0.555557 L 37.2071,0.707092 L 37.0556,0.831467 L 36.8827,0.923874
 L 36.6951,0.980774 L 36.5,1 z
M 26.6195,6.62061 L 26.4286,6.57608 L 26.25,6.49518 L 26.0907,6.381 L 25.9566,6.23792 L 25.8531,6.07144
 L 25.7841,5.88797 L 25.7522,5.69456 L 25.7586,5.49863 L 25.8031,5.30772 L 25.884,5.12915 L 25.9982,4.96982
 L 26.1413,4.8358 L 26.3077,4.73228 L 26.4912,4.66324 L 26.6846,4.6313 L 26.8805,4.63771 L 27.0714,4.68222
 L 27.25,4.76314 L 27.4093,4.87732 L 27.5434,5.0204 L 27.6469,5.18687 L 27.7159,5.37035 L 27.7479,5.56375
 L 27.7415,5.75969 L 27.6969,5.95059 L 27.616,6.12915 L 27.5018,6.2885 L 27.3588,6.42252 L 27.1923,6.52603
 L 27.0088,6.59508 L 26.8154,6.62701 z
M 12.2676,7.561 L 12.6346,7.4229 L 17.1048,5.08133 L 18.0556,4.57307 L 22.6111,1.66293 L 22.9142,1.4142
 L 23.1629,1.11113 L 23.3477,0.765366 L 23.4616,0.390167 L 23.5,-0 L 23.4616,-0.390167 L 23.3477,-0.765366
 L 23.1629,-1.11113 L 22.9142,-1.4142 L 22.6111,-1.66293 L 18.0556,-4.57307 L 17.1048,-5.08133 L 12.6346,-7.4229
 L 12.2676,-7.561 L 11.8808,-7.62488 L 11.489,-7.61205 L 11.1071,-7.52301 L 10.75,-7.36121 L 10.4313,-7.13284
 L 10.1633,-6.84668 L 9.95627,-6.51373 L 9.81816,-6.14679 L 9.75429,-5.75996 L 9.5,-0 L 9.75429,5.75996
 L 9.81816,6.14679 L 9.95627,6.51373 L 10.1633,6.84668 L 10.4313,7.13284 L 10.75,7.36121 L 11.1071,7.52301
 L 11.489,7.61205 L 11.8808,7.62488 z
M 11.4912,-4.66324 L 11.3077,-4.73228 L 11.1413,-4.8358 L 10.9982,-4.96982 L 10.884,-5.12915 L 10.8031,-5.30772
 L 10.7586,-5.49863 L 10.7522,-5.69456 L 10.7841,-5.88797 L 10.8531,-6.07144 L 10.9566,-6.23792 L 11.0907,-6.381
 L 11.25,-6.49518 L 11.4286,-6.57608 L 11.6195,-6.62061 L 11.8154,-6.62701 L 12.0088,-6.59508 L 12.1923,-6.52603
 L 12.3588,-6.42252 L 12.5018,-6.2885 L 12.616,-6.12915 L 12.6969,-5.95059 L 12.7415,-5.75969 L 12.7479,-5.56375
 L 12.7159,-5.37035 L 12.6469,-5.18687 L 12.5434,-5.0204 L 12.4093,-4.87732 L 12.25,-4.76314 L 12.0714,-4.68222
 L 11.8805,-4.63771 L 11.6846,-4.6313 z
M 11.5,1.75 L 11.5,-1.75 L 18.5,-1.75 L 18.5,1.75 z
M 21.3049,0.980774 L 21.1173,0.923874 L 20.9444,0.831467 L 20.7929,0.707092 L 20.6685,0.555557 L 20.5761,0.382675
 L 20.5192,0.195084 L 20.5,-0 L 20.5192,-0.195084 L 20.5761,-0.382675 L 20.6685,-0.555557 L 20.7929,-0.707092
 L 20.9444,-0.831467 L 21.1173,-0.923874 L 21.3049,-0.980774 L 21.5,-1 L 21.6951,-0.980774 L 21.8827,-0.923874
 L 22.0556,-0.831467 L 22.2071,-0.707092 L 22.3315,-0.555557 L 22.4239,-0.382675 L 22.4808,-0.195084 L 22.5,-0
 L 22.4808,0.195084 L 22.4239,0.382675 L 22.3315,0.555557 L 22.2071,0.707092 L 22.0556,0.831467 L 21.8827,0.923874
 L 21.6951,0.980774 L 21.5,1 z
M 11.6195,6.62061 L 11.4286,6.57608 L 11.25,6.49518 L 11.0907,6.381 L 10.9566,6.23792 L 10.8531,6.07144
 L 10.7841,5.88797 L 10.7522,5.69456 L 10.7586,5.49863 L 10.8031,5.30772 L 10.884,5.12915 L 10.9982,4.96982
 L 11.1413,4.8358 L 11.3077,4.73228 L 11.4912,4.66324 L 11.6846,4.6313 L 11.8805,4.63771 L 12.0714,4.68222
 L 12.25,4.76314 L 12.4093,4.87732 L 12.5434,5.0204 L 12.6469,5.18687 L 12.7159,5.37035 L 12.7479,5.56375
 L 12.7415,5.75969 L 12.6969,5.95059 L 12.616,6.12915 L 12.5018,6.2885 L 12.3588,6.42252 L 12.1923,6.52603
 L 12.0088,6.59508 L 11.8154,6.62701 z
M -2.73236,7.561 L -2.36542,7.4229 L 2.10475,5.08133 L 3.05563,4.57307 L 7.61113,1.66293 L 7.9142,1.4142
 L 8.16293,1.11113 L 8.34775,0.765366 L 8.46156,0.390167 L 8.5,-0 L 8.46156,-0.390167 L 8.34775,-0.765366
 L 8.16293,-1.11113 L 7.9142,-1.4142 L 7.61113,-1.66293 L 3.05563,-4.57307 L 2.10475,-5.08133 L -2.36542,-7.4229
 L -2.73236,-7.561 L -3.11919,-7.62488 L -3.51105,-7.61205 L -3.89287,-7.52301 L -4.24998,-7.36121 L -4.56868,-7.13284
 L -4.8367,-6.84668 L -5.04373,-6.51373 L -5.18184,-6.14679 L -5.24571,-5.75996 L -5.5,-0 L -5.24571,5.75996
 L -5.18184,6.14679 L -5.04373,6.51373 L -4.8367,6.84668 L -4.56868,7.13284 L -4.24998,7.36121 L -3.89287,7.52301
 L -3.51105,7.61205 L -3.11919,7.62488 z
M -3.5088,-4.66324 L -3.69228,-4.73228 L -3.85875,-4.8358 L -4.00183,-4.96982 L -4.11601,-5.12915 L -4.19693,-5.30772
 L -4.24144,-5.49863 L -4.24785,-5.69456 L -4.21591,-5.88797 L -4.14687,-6.07144 L -4.04335,-6.23792 L -3.90933,-6.381
 L -3.74998,-6.49518 L -3.57143,-6.57608 L -3.38052,-6.62061 L -3.18459,-6.62701 L -2.99118,-6.59508 L -2.80771,-6.52603
 L -2.64124,-6.42252 L -2.49815,-6.2885 L -2.38397,-6.12915 L -2.30305,-5.95059 L -2.25854,-5.75969 L -2.25214,-5.56375
 L -2.28407,-5.37035 L -2.35312,-5.18687 L -2.45663,-5.0204 L -2.59065,-4.87732 L -2.74998,-4.76314 L -2.92856,-4.68222
 L -3.11946,-4.63771 L -3.3154,-4.6313 z
M -0.3414,1.71637 L -0.669693,1.61678 L -0.972244,1.45506 L -1.23743,1.23743 L -1.45506,0.972244 L -1.61678,0.669693
 L -1.71637,0.3414 L -1.75,-0 L -1.71637,-0.3414 L -1.61678,-0.669693 L -1.45506,-0.972244 L -1.23743,-1.23743
 L -0.972244,-1.45506 L -0.669693,-1.61678 L -0.3414,-1.71637 L 0,-1.75 L 0.3414,-1.71637 L 0.669693,-1.61678
 L 0.972244,-1.45506 L 1.23743,-1.23743 L 1.45506,-0.972244 L 1.61678,-0.669693 L 1.71637,-0.3414 L 1.75,-0
 L 1.71637,0.3414 L 1.61678,0.669693 L 1.45506,0.972244 L 1.23743,1.23743 L 0.972244,1.45506 L 0.669693,1.61678
 L 0.3414,1.71637 L 0,1.75 z
M 6.3049,0.980774 L 6.11731,0.923874 L 5.94443,0.831467 L 5.79289,0.707092 L 5.66852,0.555557 L 5.57611,0.382675
 L 5.51921,0.195084 L 5.5,-0 L 5.51921,-0.195084 L 5.57611,-0.382675 L 5.66852,-0.555557 L 5.79289,-0.707092
 L 5.94443,-0.831467 L 6.11731,-0.923874 L 6.3049,-0.980774 L 6.5,-1 L 6.69508,-0.980774 L 6.88268,-0.923874
 L 7.05556,-0.831467 L 7.20709,-0.707092 L 7.33147,-0.555557 L 7.42387,-0.382675 L 7.48077,-0.195084 L 7.5,-0
 L 7.48077,0.195084 L 7.42387,0.382675 L 7.33147,0.555557 L 7.20709,0.707092 L 7.05556,0.831467 L 6.88268,0.923874
 L 6.69508,0.980774 L 6.5,1 z
M -3.38052,6.62061 L -3.57143,6.57608 L -3.74998,6.49518 L -3.90933,6.381 L -4.04335,6.23792 L -4.14687,6.07144
 L -4.21591,5.88797 L -4.24785,5.69456 L -4.24144,5.49863 L -4.19693,5.30772 L -4.11601,5.12915 L -4.00183,4.96982
 L -3.85875,4.8358 L -3.69228,4.73228 L -3.5088,4.66324 L -3.3154,4.6313 L -3.11946,4.63771 L -2.92856,4.68222
 L -2.74998,4.76314 L -2.59065,4.87732 L -2.45663,5.0204 L -2.35312,5.18687 L -2.28407,5.37035 L -2.25214,5.56375
 L -2.25854,5.75969 L -2.30305,5.95059 L -2.38397,6.12915 L -2.49815,6.2885 L -2.64124,6.42252 L -2.80771,6.52603
 L -2.99118,6.59508 L -3.18459,6.62701 z
" stroke="black" fill="none" stroke-width="0.5"/></svg>
