<?xml version="1.0" encoding="UTF-8" standalone="no"?>
<!-- Created with Inkscape (http://www.inkscape.org/) -->

<svg
   xmlns:dc="http://purl.org/dc/elements/1.1/"
   xmlns:cc="http://creativecommons.org/ns#"
   xmlns:rdf="http://www.w3.org/1999/02/22-rdf-syntax-ns#"
   xmlns:svg="http://www.w3.org/2000/svg"
   xmlns="http://www.w3.org/2000/svg"
   xmlns:sodipodi="http://sodipodi.sourceforge.net/DTD/sodipodi-0.dtd"
   xmlns:inkscape="http://www.inkscape.org/namespaces/inkscape"
   width="210mm"
   height="297mm"
   viewBox="0 0 744.09448819 1052.3622047"
   id="svg4926"
   version="1.1"
   inkscape:version="0.91 r13725"
   sodipodi:docname="ig-robo_v0.1.2.svg">
  <defs
     id="defs4928" />
  <sodipodi:namedview
     id="base"
     pagecolor="#ffffff"
     bordercolor="#666666"
     borderopacity="1.0"
     inkscape:pageopacity="0.0"
     inkscape:pageshadow="2"
     inkscape:zoom="0.70710678"
     inkscape:cx="530.37708"
     inkscape:cy="639.12685"
     inkscape:document-units="px"
     inkscape:current-layer="layer1"
     showgrid="false"
     inkscape:window-width="1582"
     inkscape:window-height="902"
     inkscape:window-x="1597"
     inkscape:window-y="20"
     inkscape:window-maximized="0" />
  <metadata
     id="metadata4931">
    <rdf:RDF>
      <cc:Work
         rdf:about="">
        <dc:format>image/svg+xml</dc:format>
        <dc:type
           rdf:resource="http://purl.org/dc/dcmitype/StillImage" />
        <dc:title></dc:title>
      </cc:Work>
    </rdf:RDF>
  </metadata>
  <g
     inkscape:label="inside"
     inkscape:groupmode="layer"
     id="layer1"
     style="display:inline">
    <path
       inkscape:connector-curvature="0"
       style="opacity:1;fill:none;fill-opacity:0.52601157;fill-rule:nonzero;stroke:#000000;stroke-width:1;stroke-linecap:round;stroke-linejoin:round;stroke-miterlimit:4;stroke-dasharray:none;stroke-dashoffset:0;stroke-opacity:1"
       d="m 568.89934,265.05535 c -0.10161,-0.80145 -0.21565,-1.60893 -0.32735,-2.40727 -0.11211,-0.7984 -0.22925,-1.58879 -0.35047,-2.384 -0.48584,-3.18076 -1.04271,-6.33827 -1.68277,-9.46575 -2.56042,-12.50984 -6.34439,-24.57955 -11.20703,-36.07499 -9.72516,-22.9908 -23.7931,-43.69551 -41.18183,-61.08313 -17.38862,-17.38762 -38.09178,-31.45807 -61.0832,-41.18187 -9.23186,-3.90446 -18.84539,-7.06484 -28.74779,-9.50079 4.58857,-8.021345 7.00909,-17.099359 7.02334,-26.340425 -0.0223,-4.817569 -0.69825,-9.609794 -2.01,-14.245319 -6.14938,-1.473506 -12.3559,-2.697736 -18.60426,-3.669444 3.00102,5.37448 4.73287,11.555381 4.73287,18.148484 0,10.305521 -4.18468,19.633715 -10.93818,26.387234 -3.3768,3.37675 -7.39651,6.11651 -11.86139,8.00495 -1.11622,0.47206 -2.25544,0.8869 -3.42402,1.25037 -0.58428,0.18198 -1.18005,0.34867 -1.77628,0.50261 l -0.50249,45.56408 c 2.92037,0.11615 5.81443,0.296 8.69447,0.52595 5.76002,0.45951 11.43796,1.13636 17.01492,2.03335 11.15399,1.79402 21.91059,4.44559 32.16013,7.85305 20.49909,6.81497 38.96548,16.67887 54.4689,28.86464 l 0.0227,0 0.0228,0 -4.35893,49.29195 24.23695,13.38057 -9.23201,106.28502 -26.97149,1.30886 -0.68948,39.96642 c -26.66549,9.96753 -63.50299,16.13854 -104.1932,16.13854 -40.69021,0 -77.52767,-6.17101 -104.19319,-16.13854 l -0.45579,-39.96642 -26.98317,-1.30886 -9.22033,-106.28502 24.23695,-13.38057 -4.37062,-49.29195 -0.16367,0 c 15.50342,-12.18577 33.95812,-22.04967 54.45721,-28.86464 10.24955,-3.40746 21.00615,-6.05903 32.16013,-7.85305 5.57697,-0.89699 11.2549,-1.5736 17.01493,-2.03335 2.88002,-0.22972 5.78575,-0.40905 8.70616,-0.52595 l -0.51305,-45.56408 c -0.59623,-0.15296 -1.18034,-0.3205 -1.76458,-0.50261 -1.1686,-0.36319 -2.31951,-0.77821 -3.43572,-1.25037 -4.46487,-1.88844 -8.48464,-4.6282 -11.86141,-8.00495 -6.75347,-6.753519 -10.92645,-16.081713 -10.92645,-26.387234 0,-6.562918 1.70051,-12.721072 4.67444,-18.078379 -6.23532,0.941789 -12.43008,2.134728 -18.56919,3.5759 -1.31387,4.643111 -1.99007,9.44338 -2.01002,14.268758 0.0239,9.262197 2.46495,18.357713 7.08177,26.387235 -9.82859,2.42956 -19.37043,5.577 -28.53744,9.45398 -22.99139,9.7238 -43.69455,23.79425 -61.08321,41.18187 -17.38865,17.38762 -31.45662,38.09233 -41.18179,61.08313 -4.86256,11.49544 -8.64663,23.56515 -11.20696,36.07499 -0.64006,3.12748 -1.19665,6.28499 -1.68279,9.46575 -0.12165,0.79517 -0.23881,1.5856 -0.35057,2.384 -0.11168,0.79834 -0.22531,1.60577 -0.32723,2.40727 -14.14305,0.25289 -28.29691,0.30872 -42.43492,0.66128 l 0.001,-0.001 c -0.32987,2.90409 -0.56178,5.94082 -0.7773,8.45053 -0.20197,2.73823 -0.356,5.48243 -0.46178,8.23156 -0.10576,2.74917 -0.16325,5.50319 -0.17231,8.26082 0,129.4941 104.97568,234.46976 234.46974,234.46976 129.49406,0 234.46978,-104.97566 234.46978,-234.46976 -0.004,-2.62557 -0.0616,-5.24802 -0.15843,-7.86626 -0.0968,-2.61823 -0.23697,-5.23221 -0.42127,-7.84099 -0.21839,-3.19256 -0.55829,-6.4199 -0.82419,-9.14778 z M 325.00163,216.39347 c -18.14959,-0.001 -32.86319,14.71174 -32.86129,32.86131 0.004,18.14502 14.71629,32.85151 32.86129,32.8496 18.14501,0.001 32.85673,-14.70458 32.8613,-32.8496 10e-4,-18.14957 -14.71172,-32.86324 -32.8613,-32.86131 z m 106.07464,0 c -18.145,0.004 -32.85151,14.71629 -32.84959,32.86131 0.004,18.14048 14.70914,32.84501 32.84959,32.8496 18.14502,0.001 32.85673,-14.70458 32.86132,-32.8496 10e-4,-18.14957 -14.71172,-32.86324 -32.86132,-32.86131 z m -246.261,85.0163 1.005,9.75786 -39.03155,4.02005 -1.00497,-9.7579 z m 396.39227,3.57598 c 0.81522,0.004 1.64521,0.0628 2.48911,0.17524 1.55283,0.20744 2.91596,0.63442 4.10182,1.27382 1.1859,0.63933 2.18657,1.3664 3.0033,2.19697 0.82125,0.79677 1.48273,1.63158 1.98669,2.48911 0.47445,0.81931 0.79144,1.54614 0.94655,2.18535 2.59722,-0.92449 5.32156,-1.89235 8.16855,-2.88647 2.81784,-1.03242 5.51742,-1.98412 8.1102,-2.87481 l -1.49585,11.18359 -10.47074,2.82803 9.92156,1.33223 -1.29719,9.71117 -38.89133,-5.18863 1.62436,-12.09509 c 0.30189,-2.26169 0.89962,-4.11488 1.81136,-5.53926 0.87793,-1.42889 1.96894,-2.51844 3.27208,-3.27205 1.26943,-0.75817 2.70984,-1.21502 4.31222,-1.37901 0.78649,-0.10118 1.59208,-0.14622 2.40731,-0.13996 z m -394.27709,17.28372 6.82466,26.20022 -9.48909,2.47741 -2.1853,-8.35552 -28.46731,7.40901 -2.47745,-9.48914 28.47898,-7.40895 -2.1736,-8.35564 z m 387.20701,18.06665 c 1.82004,-0.0741 3.60879,0.16263 5.36386,0.71284 l 8.42573,2.81641 c 1.80893,0.60404 3.55596,1.5041 5.23535,2.71115 1.67934,1.20707 3.00405,2.69646 3.96163,4.45238 0.98975,1.87447 1.58441,3.84624 1.78789,5.92489 0.182,2.0355 -0.0542,4.03622 -0.71285,6.00662 -0.6472,1.93815 -1.65815,3.6709 -3.0267,5.18864 -1.36847,1.51773 -3.01495,2.74525 -4.94317,3.68109 -1.86357,0.84978 -3.77785,1.24779 -5.73785,1.20373 -1.96004,-0.0408 -3.94641,-0.38 -5.95996,-1.01674 l -8.42563,-2.81633 c -1.64747,-0.54987 -3.19693,-1.40708 -4.63938,-2.57096 -1.46402,-1.20699 -2.62178,-2.61446 -3.48244,-4.23037 -0.97901,-1.90667 -1.57187,-3.86317 -1.76461,-5.86643 -0.18198,-2.0355 0.0677,-4.06228 0.73619,-6.06509 0.658,-1.97037 1.66986,-3.70588 3.03839,-5.22368 1.37935,-1.55 3.02487,-2.76305 4.93153,-3.63437 1.66967,-0.80677 3.40273,-1.23166 5.21202,-1.27378 z m -270.73173,1.13362 c 0.92166,7.30312 2.14009,13.71527 3.55257,18.72107 32.74398,15.36163 109.10759,13.08853 142.97933,1.12184 0.81133,-6.08472 1.81808,-11.5271 2.62935,-19.84291 -40.1593,12.37224 -111.52642,10.46777 -149.16125,0 z m -106.84595,15.65947 4.24205,8.83468 -13.25202,6.38063 3.86809,8.05168 13.26371,-6.36889 4.24205,8.83468 -35.35042,17.00328 -4.25374,-8.84634 13.26372,-6.36898 -3.87979,-8.06332 -13.25202,6.38056 -4.25372,-8.83468 z m 355.78311,15.20365 8.53082,4.838 -4.26542,7.51421 25.60424,14.51408 -4.838,8.53085 -25.60425,-14.51414 -4.25375,7.51417 -8.53086,-4.838 z m -331.70958,28.29197 7.57259,9.76962 -23.95648,33.1301 -6.73119,-8.68283 5.78461,-8.88139 -4.00832,-5.16524 -9.97993,3.47076 -6.73118,-8.68279 z m 306.29248,10.55261 37.0683,17.23699 -7.24536,8.26202 -9.81635,-3.99658 -4.31215,4.9198 5.30548,9.13858 -7.24537,8.25033 -21.91146,-34.52072 z m -283.7148,19.88969 c 0.97544,0.0364 1.95766,0.17757 2.95658,0.42038 2.02383,0.50796 3.9712,1.54805 5.84305,3.13189 1.63788,1.38584 2.84475,2.82967 3.62269,4.33556 0.82595,1.50182 1.34457,3.00498 1.54256,4.51085 0.22001,1.47983 0.19777,2.93502 -0.07,4.35886 -0.26798,1.4239 -0.65496,2.74739 -1.15692,3.97334 l -9.54748,-1.84646 c 0.26196,-0.6259 0.47303,-1.29604 0.63105,-2.00998 0.17989,-0.73996 0.24838,-1.48612 0.21039,-2.23206 -0.013,-0.72389 -0.13001,-1.39035 -0.37396,-1.99826 -0.22196,-0.634 -0.59421,-1.13894 -1.11018,-1.53091 -1.2579,-0.88593 -2.61289,-1.21195 -4.06675,-0.96993 -1.45386,0.24243 -2.73315,1.01392 -3.83304,2.31382 l -4.7796,5.65608 c -1.09992,1.29985 -1.66284,2.69541 -1.68281,4.19529 0.005,1.52186 0.54246,2.83261 1.62437,3.92654 0.92192,0.91386 2.02157,1.3324 3.29548,1.25037 1.27388,-0.0822 2.54608,-0.45127 3.79799,-1.0868 l 3.4357,9.13857 c -0.67397,0.32187 -1.59371,0.6871 -2.76962,1.07514 -1.14989,0.40992 -2.4697,0.64849 -3.96158,0.72449 -1.46986,0.0478 -3.09188,-0.18387 -4.84971,-0.6895 -1.73586,-0.5319 -3.53883,-1.58306 -5.41067,-3.16686 -2.05385,-1.73789 -3.50497,-3.52608 -4.35892,-5.36401 -0.85395,-1.83779 -1.25533,-3.67592 -1.21536,-5.5158 0.0661,-1.81779 0.49161,-3.61713 1.28549,-5.39898 0.81591,-1.80787 1.84324,-3.52771 3.08513,-5.1535 l 5.1185,-6.04176 c 1.27986,-1.45987 2.75117,-2.70562 4.42904,-3.73952 1.72582,-1.03795 3.52882,-1.71907 5.41066,-2.04513 0.9519,-0.17566 1.92271,-0.25559 2.89814,-0.222 z m 257.98162,8.79965 c 0.77136,10e-4 1.51686,0.0968 2.24373,0.29193 1.43306,0.36363 2.77282,1.06086 4.02002,2.0801 1.25363,0.97155 2.39227,2.13951 3.424,3.49416 0.94918,1.24629 1.61415,2.50666 1.9983,3.79796 0.3841,1.29137 0.5728,2.52797 0.56095,3.69283 0.013,1.14417 -0.0988,2.19297 -0.35047,3.15529 -0.24515,0.91446 -0.54488,1.64751 -0.88814,2.20865 2.48813,1.1872 5.09246,2.43626 7.80635,3.75123 2.7203,1.26717 5.31026,2.50829 7.77125,3.71616 l -8.97494,6.83634 -9.40734,-5.42231 6.06512,7.96988 -7.79462,5.93655 -23.76954,-31.21357 9.71116,-7.39731 c 1.81521,-1.38248 3.54783,-2.24637 5.20029,-2.60596 0.81595,-0.19334 1.61261,-0.29327 2.38397,-0.29193 z m -220.73852,15.15686 10.90312,5.84301 -8.42568,40.01319 -9.6761,-5.18859 1.67113,-10.4707 -5.76125,-3.08518 -7.70113,7.22198 -9.67608,-5.18867 z m 194.92401,0.16346 4.46407,8.72952 -13.08841,6.70783 2.23206,4.3706 9.64103,-4.94321 4.47576,8.7295 -9.64102,4.94315 2.23206,4.35897 13.1001,-6.70783 4.46411,8.72953 -21.81799,11.18358 -17.89139,-34.91803 z m -30.15014,14.43218 11.05505,37.65265 -9.31381,2.7345 -13.57924,-13.59097 4.75624,16.17359 -9.89812,2.90988 -11.06671,-37.64092 9.37224,-2.7462 13.5208,13.59089 -4.75625,-16.17355 z m -37.53571,9.55928 0.96994,9.75781 -14.64265,1.44912 0.47912,4.88479 10.77458,-1.06343 0.96994,9.75786 -10.78624,1.06347 0.49081,4.88477 14.64266,-1.44903 0.95826,9.75788 -24.40055,2.40731 -3.85641,-39.04325 z m -49.09328,1.05175 c 2.06309,0.25287 3.76772,0.72456 5.10683,1.4257 1.34217,0.66717 2.43778,1.43996 3.2838,2.30212 0.84604,0.86211 1.49945,1.75733 1.96327,2.68779 0.4668,0.89662 0.84337,1.69859 1.12185,2.40739 0.0527,0.17566 0.14685,0.4027 0.2922,0.68943 0.14538,0.28647 0.30293,0.58818 0.47913,0.9115 l -8.62434,4.67442 c -0.13318,-0.42265 -0.28718,-0.90728 -0.47913,-1.43736 -0.19187,-0.53013 -0.46103,-1.03313 -0.79465,-1.50746 -0.3337,-0.4745 -0.7584,-0.88484 -1.27379,-1.23873 -0.5154,-0.35366 -1.15973,-0.56122 -1.93991,-0.63105 -1.5264,-0.1368 -2.77824,0.26513 -3.75121,1.20364 -0.97301,0.93867 -1.53103,2.25392 -1.68281,3.94986 l -0.66611,7.37397 c -0.1519,1.69601 0.22363,3.12698 1.1102,4.30049 0.92047,1.17651 2.13436,1.85117 3.65774,2.02169 1.01455,0.12539 1.86104,0.0478 2.53587,-0.2338 0.67789,-0.31552 1.19736,-0.74785 1.55424,-1.29719 l 0.0936,-1.0634 -4.02003,-0.36274 0.77128,-8.54253 13.42733,1.19199 -1.25041,14.04669 c -0.76643,0.92297 -1.66776,1.79852 -2.69949,2.62937 -1.0287,0.79688 -2.17306,1.49741 -3.42401,2.10346 -1.21401,0.57501 -2.53443,1.00292 -3.96159,1.2855 -1.39325,0.28556 -2.85587,0.37044 -4.38228,0.2338 -2.3405,-0.20933 -4.38501,-0.78549 -6.14689,-1.72954 -1.72796,-0.94107 -3.16686,-2.15359 -4.3005,-3.62272 -1.09666,-1.50004 -1.89891,-3.22835 -2.40732,-5.18858 -0.47149,-1.99118 -0.63501,-4.11244 -0.50248,-6.35727 l 0.70119,-7.82968 c 0.18808,-2.10308 0.6685,-4.07995 1.44905,-5.92483 0.81448,-1.8419 1.91294,-3.42052 3.2955,-4.73288 1.38556,-1.34626 3.03562,-2.35429 4.94321,-3.03837 1.90758,-0.68406 4.07857,-0.91968 6.52083,-0.70117 z"
       id="path4819"
       sodipodi:nodetypes="ccsssssccccssccccsssccccccccscccccccsscccccssccccssssccccccscscscccccccccccccccccccccccccccccccccccccccccccccccccccccccccccccccccccccccccccccccccccccccccccccccccccccccccccccccccscccccccccccccccccscccccccccccccsccccccccccccccccccccccccccccccccccccccccccccccccccccccccccccccccccccccccccccccccccccccccccccccsccccc" />
  </g>
  <g
     inkscape:groupmode="layer"
     id="layer4"
     inkscape:label="outline"
     style="display:inline">
    <path
       style="display:inline;fill:none;fill-opacity:0.52601157;fill-rule:evenodd;stroke:#000000;stroke-width:1;stroke-linecap:butt;stroke-linejoin:miter;stroke-miterlimit:4;stroke-dasharray:none;stroke-opacity:1"
       d="m 378.15298,39.458324 c -14.03301,0 -26.24446,7.752973 -32.61593,19.200192 A 234.46974,234.46974 0 0 0 143.80007,290.58074 234.46974,234.46974 0 0 0 378.26983,525.05048 234.46974,234.46974 0 0 0 612.73956,290.58074 234.46974,234.46974 0 0 0 410.76885,58.658558 C 404.39391,47.21134 392.18597,39.458324 378.15298,39.458324 Z"
       id="path4447-5"
       inkscape:connector-curvature="0" />
  </g>
</svg>
