<?xml version="1.0" encoding="UTF-8" standalone="no"?>
<!-- Created with Inkscape (http://www.inkscape.org/) -->

<svg
   xmlns:dc="http://purl.org/dc/elements/1.1/"
   xmlns:cc="http://creativecommons.org/ns#"
   xmlns:rdf="http://www.w3.org/1999/02/22-rdf-syntax-ns#"
   xmlns:svg="http://www.w3.org/2000/svg"
   xmlns="http://www.w3.org/2000/svg"
   xmlns:sodipodi="http://sodipodi.sourceforge.net/DTD/sodipodi-0.dtd"
   xmlns:inkscape="http://www.inkscape.org/namespaces/inkscape"
   width="210mm"
   height="297mm"
   viewBox="0 0 744.09448819 1052.3622047"
   id="svg4926"
   version="1.1"
   inkscape:version="0.91 r13725"
   sodipodi:docname="ig-robo_inside.svg">
  <defs
     id="defs4928" />
  <sodipodi:namedview
     id="base"
     pagecolor="#ffffff"
     bordercolor="#666666"
     borderopacity="1.0"
     inkscape:pageopacity="0.0"
     inkscape:pageshadow="2"
     inkscape:zoom="11.313709"
     inkscape:cx="55.76012"
     inkscape:cy="530.44572"
     inkscape:document-units="px"
     inkscape:current-layer="layer4"
     showgrid="false"
     inkscape:window-width="1697"
     inkscape:window-height="1006"
     inkscape:window-x="1668"
     inkscape:window-y="9"
     inkscape:window-maximized="0" />
  <metadata
     id="metadata4931">
    <rdf:RDF>
      <cc:Work
         rdf:about="">
        <dc:format>image/svg+xml</dc:format>
        <dc:type
           rdf:resource="http://purl.org/dc/dcmitype/StillImage" />
        <dc:title></dc:title>
      </cc:Work>
    </rdf:RDF>
  </metadata>
  <g
     inkscape:label="inside"
     inkscape:groupmode="layer"
     id="layer1"
     style="display:inline">
    <path
       inkscape:connector-curvature="0"
       style="opacity:0.56000001;fill:#881212;fill-opacity:0.52601157;fill-rule:nonzero;stroke:none;stroke-width:0.1;stroke-linecap:round;stroke-linejoin:round;stroke-miterlimit:4;stroke-dasharray:none;stroke-dashoffset:0;stroke-opacity:0"
       d="m 107.3428,527.33352 c -0.017,-0.13395 -0.036,-0.2689 -0.0547,-0.40234 -0.0187,-0.13343 -0.0383,-0.26553 -0.0586,-0.39844 -0.0812,-0.53161 -0.17427,-1.05933 -0.28125,-1.58203 -0.42792,-2.0908 -1.06035,-4.10804 -1.87305,-6.0293 -1.62539,-3.84251 -3.9766,-7.30294 -6.882821,-10.20898 -2.906207,-2.90603 -6.366378,-5.25766 -10.208984,-6.88282 -1.542948,-0.65256 -3.149678,-1.18076 -4.804688,-1.58789 0.766895,-1.34063 1.171446,-2.85786 1.173827,-4.40234 -0.0037,-0.80517 -0.1167,-1.60611 -0.335937,-2.38086 -1.027764,-0.24627 -2.065071,-0.45087 -3.109375,-0.61328 0.501568,0.89825 0.791015,1.93128 0.791015,3.0332 0,1.72239 -0.699394,3.28143 -1.828125,4.41016 -0.56437,0.56437 -1.236197,1.02227 -1.982422,1.33789 -0.186554,0.0789 -0.376956,0.14823 -0.572265,0.20898 -0.09765,0.0304 -0.197225,0.0583 -0.296875,0.084 l -0.08398,7.61524 c 0.488089,0.0194 0.971781,0.0495 1.453124,0.0879 0.962688,0.0768 1.911657,0.18992 2.84375,0.33984 1.864191,0.29984 3.661969,0.743 5.375,1.3125 3.426063,1.139 6.512392,2.78758 9.103516,4.82422 l 0.0039,0 0.0039,0 -0.728516,8.23828 4.050777,2.23633 -1.542964,17.76367 -4.507813,0.21875 -0.115234,6.67969 c -4.456671,1.6659 -10.61341,2.69727 -17.414063,2.69727 -6.800652,0 -12.95739,-1.03137 -17.414062,-2.69727 l -0.07617,-6.67969 -4.509766,-0.21875 -1.541016,-17.76367 4.050782,-2.23633 -0.730469,-8.23828 -0.02734,0 c 2.591124,-2.03664 5.6755,-3.68522 9.101563,-4.82422 1.713032,-0.5695 3.510811,-1.01266 5.375,-1.3125 0.932094,-0.14992 1.881063,-0.263 2.84375,-0.33984 0.481343,-0.0384 0.966987,-0.0684 1.455078,-0.0879 l -0.08594,-7.61524 c -0.09965,-0.0256 -0.197271,-0.0536 -0.294922,-0.084 -0.195309,-0.0607 -0.387663,-0.13007 -0.574218,-0.20898 -0.746222,-0.31562 -1.418056,-0.77352 -1.982422,-1.33789 -1.128727,-1.12873 -1.826167,-2.68777 -1.826167,-4.41016 0,-1.09688 0.284211,-2.1261 0.78125,-3.02148 -1.042121,0.1574 -2.077468,0.35678 -3.103516,0.59765 -0.219588,0.77601 -0.332603,1.57829 -0.335937,2.38477 0.004,1.54801 0.411973,3.06817 1.183594,4.41016 -1.642678,0.40606 -3.237426,0.9321 -4.769532,1.58007 -3.842607,1.62516 -7.302776,3.97679 -10.208984,6.88282 -2.906208,2.90604 -5.257423,6.36647 -6.882813,10.20898 -0.812695,1.92126 -1.445134,3.9385 -1.873046,6.0293 -0.106978,0.5227 -0.2,1.05042 -0.28125,1.58203 -0.02032,0.1329 -0.03991,0.26501 -0.05859,0.39844 -0.01868,0.13344 -0.03766,0.26838 -0.05469,0.40234 -2.363762,0.0423 -4.729334,0.0516 -7.092255,0.11052 l 4.8e-4,-1.7e-4 c -0.05513,0.48537 -0.09389,0.9929 -0.129911,1.41236 -0.03375,0.45764 -0.0595,0.91629 -0.07718,1.37576 -0.01768,0.45947 -0.02729,0.91976 -0.02878,1.38065 0,21.64266 17.544841,39.1875 39.187499,39.1875 21.642662,0 39.187513,-17.54484 39.187513,-39.1875 -10e-4,-0.43882 -0.0103,-0.87712 -0.0265,-1.31471 -0.0162,-0.43759 -0.0396,-0.87447 -0.0704,-1.31048 -0.0365,-0.53358 -0.0933,-1.07298 -0.13774,-1.52889 m -47.853258,-8.25802 c -3.033384,-3.2e-4 -5.492508,2.45881 -5.492188,5.49219 7.63e-4,3.03262 2.459569,5.49055 5.492188,5.49023 3.032619,3.2e-4 5.491424,-2.45761 5.492187,-5.49023 3.2e-4,-3.03338 -2.458803,-5.49251 -5.492187,-5.49219 z m 17.728515,0 c -3.032621,7.6e-4 -5.490554,2.45957 -5.490234,5.49219 7.63e-4,3.03186 2.458378,5.48947 5.490234,5.49023 3.032619,3.2e-4 5.491425,-2.45761 5.492188,-5.49023 3.2e-4,-3.03338 -2.458804,-5.49251 -5.492188,-5.49219 z m -41.158203,14.20898 0.167969,1.63086 -6.523438,0.67188 -0.167968,-1.63086 z m 66.250006,0.59766 c 0.13625,9.7e-4 0.27497,0.0105 0.41601,0.0293 0.25953,0.0347 0.48735,0.10603 0.68555,0.21289 0.1982,0.10686 0.36545,0.22837 0.50195,0.36719 0.13726,0.13317 0.24781,0.27269 0.33204,0.41601 0.0793,0.13693 0.13227,0.25841 0.1582,0.36524 0.43408,-0.15451 0.8894,-0.31627 1.36523,-0.48242 0.47095,-0.17255 0.92214,-0.33161 1.35547,-0.48047 l -0.25,1.86914 -1.75,0.47265 1.65821,0.22266 -0.2168,1.62305 -6.5,-0.86719 0.27148,-2.02148 c 0.0505,-0.378 0.15036,-0.68773 0.30274,-0.92579 0.14673,-0.23881 0.32907,-0.42091 0.54687,-0.54687 0.21216,-0.12671 0.4529,-0.20306 0.72071,-0.23047 0.13145,-0.0169 0.26609,-0.0244 0.40234,-0.0234 z m -65.89649,2.88867 1.140625,4.37891 -1.585938,0.41406 -0.365234,-1.39648 -4.757813,1.23828 -0.414062,-1.58594 4.759766,-1.23828 -0.363282,-1.39649 z m 64.71485,3.01953 c 0.30419,-0.0124 0.60315,0.0272 0.89648,0.11914 l 1.40821,0.47071 c 0.30233,0.10095 0.59432,0.25138 0.875,0.45312 0.28067,0.20174 0.50207,0.45067 0.66211,0.74414 0.16542,0.31328 0.26481,0.64283 0.29882,0.99024 0.0304,0.3402 -0.009,0.67458 -0.11914,1.0039 -0.10817,0.32393 -0.27713,0.61353 -0.50586,0.86719 -0.22872,0.25366 -0.5039,0.45882 -0.82617,0.61523 -0.31146,0.14203 -0.6314,0.20855 -0.95898,0.20118 -0.32758,-0.007 -0.65957,-0.0635 -0.9961,-0.16993 l -1.4082,-0.4707 c -0.27534,-0.0919 -0.53431,-0.23517 -0.77539,-0.42969 -0.24468,-0.20172 -0.43818,-0.43696 -0.58203,-0.70703 -0.16362,-0.31867 -0.26271,-0.64566 -0.29492,-0.98047 -0.0304,-0.3402 0.0113,-0.67894 0.12304,-1.01367 0.10998,-0.32932 0.27909,-0.61938 0.50782,-0.87305 0.23053,-0.25906 0.50555,-0.4618 0.82421,-0.60742 0.27906,-0.13484 0.56871,-0.20585 0.8711,-0.21289 z m -45.248053,0.18946 c 0.154041,1.22059 0.357676,2.29227 0.59375,3.1289 5.472581,2.56743 18.235417,2.18752 23.896484,0.1875 0.135595,-1.01696 0.303859,-1.92656 0.439453,-3.3164 -6.711924,2.06781 -18.639686,1.74951 -24.929687,0 z m -17.857422,2.61721 0.708984,1.47656 -2.214844,1.06641 0.646485,1.3457 2.216797,-1.06445 0.708984,1.47656 -5.908203,2.8418 -0.710938,-1.47851 2.216797,-1.06446 -0.648437,-1.34765 -2.214844,1.0664 -0.710937,-1.47656 z m 59.462895,2.54102 1.42578,0.80859 -0.71289,1.25586 4.2793,2.42578 -0.80859,1.42578 -4.2793,-2.42578 -0.71094,1.25586 -1.42578,-0.80859 z m -55.439427,4.72851 1.265625,1.63282 -4.003906,5.53711 -1.125,-1.45118 0.966797,-1.48437 -0.669922,-0.86328 -1.667969,0.58008 -1.125,-1.45118 z m 51.191407,1.76368 6.19532,2.88086 -1.21094,1.38085 -1.64063,-0.66796 -0.7207,0.82226 0.88672,1.52735 -1.21094,1.3789 -3.662112,-5.76953 z m -47.417944,3.32421 c 0.163024,0.006 0.327189,0.0297 0.494141,0.0703 0.338247,0.0849 0.663714,0.25873 0.976562,0.52344 0.273742,0.23162 0.475448,0.47293 0.605469,0.72461 0.138042,0.25101 0.22472,0.50223 0.257812,0.75391 0.03677,0.24733 0.03307,0.49054 -0.01172,0.72851 -0.04479,0.23798 -0.109468,0.45918 -0.193359,0.66407 l -1.595695,-0.3086 c 0.04378,-0.10461 0.07906,-0.21661 0.105469,-0.33593 0.03008,-0.12367 0.04151,-0.24838 0.03516,-0.37305 -0.002,-0.12099 -0.02172,-0.23237 -0.0625,-0.33398 -0.0371,-0.10596 -0.09931,-0.19035 -0.185547,-0.25586 -0.210236,-0.14807 -0.436698,-0.20256 -0.679687,-0.16211 -0.24299,0.0405 -0.456798,0.16946 -0.640625,0.38672 l -0.798828,0.94531 c -0.18383,0.21725 -0.277913,0.45049 -0.28125,0.70117 10e-4,0.25435 0.09066,0.47342 0.271484,0.65625 0.154084,0.15274 0.337873,0.22269 0.550781,0.20898 0.212908,-0.0137 0.425535,-0.0754 0.634766,-0.18164 l 0.574219,1.52735 c -0.112639,0.0538 -0.266361,0.11484 -0.462891,0.17969 -0.192185,0.0685 -0.412771,0.10839 -0.662109,0.12109 -0.245664,0.008 -0.516753,-0.0307 -0.810547,-0.11524 -0.290118,-0.0889 -0.59145,-0.26458 -0.904297,-0.52929 -0.343264,-0.29045 -0.585794,-0.58932 -0.728516,-0.89649 -0.142722,-0.30716 -0.209807,-0.61437 -0.203125,-0.92187 0.01103,-0.30382 0.08216,-0.60454 0.214844,-0.90235 0.136365,-0.30215 0.308067,-0.58959 0.515625,-0.86132 l 0.855469,-1.00977 c 0.213908,-0.24399 0.459812,-0.4522 0.740234,-0.625 0.288444,-0.17347 0.589781,-0.28731 0.904297,-0.3418 0.159096,-0.0294 0.321351,-0.0427 0.484375,-0.0371 z m 43.117093,1.47071 c 0.128925,1.8e-4 0.253519,0.0162 0.375,0.0488 0.239514,0.0608 0.463427,0.1773 0.671875,0.34765 0.209528,0.16238 0.399832,0.35758 0.572266,0.58399 0.15864,0.20829 0.269776,0.41894 0.333984,0.63476 0.06421,0.21583 0.09573,0.42251 0.09375,0.61719 0.0026,0.19123 -0.01652,0.36652 -0.05859,0.52735 -0.04099,0.15284 -0.09107,0.27536 -0.148438,0.36914 0.415845,0.19842 0.851118,0.40718 1.30469,0.62695 0.45465,0.21179 0.887514,0.41922 1.298834,0.62109 l -1.500008,1.14258 -1.572266,-0.90625 1.013672,1.33203 -1.302734,0.99219 -3.972657,-5.2168 1.623047,-1.23633 c 0.303382,-0.23106 0.592955,-0.37544 0.869141,-0.43554 0.136369,-0.0323 0.269512,-0.049 0.398434,-0.0488 z m -36.892566,2.5332 1.822266,0.97656 -1.408203,6.6875 -1.617188,-0.86718 0.279297,-1.75 -0.96289,-0.51563 -1.28711,1.20703 -1.617187,-0.86719 z m 32.578125,0.0273 0.746094,1.45899 -2.1875,1.12109 0.373047,0.73047 1.611328,-0.82617 0.748047,1.45898 -1.611328,0.82617 0.373047,0.72852 2.189453,-1.1211 0.746093,1.45899 -3.646484,1.86914 -2.990234,-5.83594 z m -32.53125,0.23047 c -39.454079,328.6807 -19.727039,164.34035 0,0 z m 27.492188,2.18162 1.847656,6.29297 -1.556641,0.45703 -2.269531,-2.27149 0.794922,2.70313 -1.654297,0.48633 -1.849609,-6.29102 1.566406,-0.45898 2.259766,2.27148 -0.794922,-2.70312 z m -6.273438,1.59766 0.16211,1.63085 -2.447266,0.24219 0.08008,0.81641 1.800781,-0.17774 0.16211,1.63086 -1.802735,0.17774 0.08203,0.8164 2.447265,-0.24218 0.160156,1.63086 -4.078124,0.40234 -0.644532,-6.52539 z m -8.205078,0.17578 c 0.344805,0.0423 0.629704,0.1211 0.853516,0.23828 0.224319,0.11151 0.407429,0.24067 0.548828,0.38476 0.141399,0.14409 0.250609,0.29371 0.328125,0.44922 0.07802,0.14985 0.140955,0.28389 0.1875,0.40235 0.0088,0.0294 0.02454,0.0673 0.04883,0.11523 0.02429,0.0479 0.05063,0.0983 0.08008,0.15234 l -1.441406,0.78125 c -0.02226,-0.0706 -0.048,-0.15164 -0.08008,-0.24023 -0.03207,-0.0886 -0.07705,-0.17267 -0.132813,-0.25195 -0.05577,-0.0793 -0.126749,-0.14789 -0.21289,-0.20703 -0.08614,-0.0591 -0.193828,-0.0938 -0.324219,-0.10547 -0.255113,-0.0228 -0.464335,0.0443 -0.626953,0.20117 -0.162619,0.15688 -0.255884,0.3767 -0.28125,0.66015 l -0.111328,1.23243 c -0.02537,0.28346 0.03738,0.52262 0.185547,0.71875 0.15384,0.19663 0.356722,0.30939 0.611328,0.33789 0.169568,0.0209 0.31104,0.008 0.423828,-0.0391 0.113295,-0.0527 0.200118,-0.12499 0.259765,-0.2168 l 0.01563,-0.17773 -0.671875,-0.0606 0.128907,-1.42774 2.24414,0.19922 -0.208984,2.34766 c -0.128096,0.15426 -0.278737,0.30059 -0.451172,0.43945 -0.171928,0.13319 -0.36319,0.25027 -0.572266,0.35156 -0.202898,0.0961 -0.423585,0.16762 -0.662109,0.21485 -0.232855,0.0477 -0.477309,0.0619 -0.732422,0.0391 -0.391173,-0.035 -0.732877,-0.13128 -1.027344,-0.28907 -0.288798,-0.15728 -0.529283,-0.35993 -0.71875,-0.60547 -0.183289,-0.2507 -0.31737,-0.53956 -0.402343,-0.86718 -0.0788,-0.33279 -0.10613,-0.68732 -0.08398,-1.0625 l 0.117188,-1.3086 c 0.03145,-0.35149 0.111731,-0.68189 0.242187,-0.99023 0.136125,-0.30784 0.319713,-0.57168 0.550782,-0.79102 0.231574,-0.225 0.507352,-0.39348 0.826171,-0.50781 0.318819,-0.11433 0.681663,-0.15371 1.089844,-0.11719 z"
       id="path4819"
       sodipodi:nodetypes="ccsssssccccssccccsssccccccccscccccccsscccccssccccssssccccccscscsccccccccccccccccccccccccccccccccccccccccccccccccccccccccccccccccccccccccccccccccccccccccccccccccccccccccccccccccscccccccccccccccccscccccccccccccsccccccccccccccccccccccccccccccccccccccccccccccccccccccccccccccccccccccccccccccccccccccccccccccccscccc" />
  </g>
  <g
     inkscape:groupmode="layer"
     id="layer4"
     inkscape:label="outline"
     style="display:none">
    <path
       style="display:inline;fill:none;fill-opacity:0.52601157;fill-rule:evenodd;stroke:#000000;stroke-width:0.01;stroke-linecap:butt;stroke-linejoin:miter;stroke-miterlimit:4;stroke-dasharray:none;stroke-opacity:1"
       d="m 75.462896,489.62894 c -2.34537,0 -4.3863,1.29577 -5.451178,3.20897 a 39.1875,39.1875 0 0 0 -33.716794,38.76173 39.1875,39.1875 0 0 0 39.187503,39.1875 39.1875,39.1875 0 0 0 39.187503,-39.1875 39.1875,39.1875 0 0 0 -33.755863,-38.76172 c -1.06546,-1.9132 -3.1058,-3.20898 -5.451171,-3.20898 z"
       id="path4447-5"
       inkscape:connector-curvature="0" />
  </g>
</svg>
