<?xml version="1.0" standalone="no"?>
<!DOCTYPE svg PUBLIC "-//W3C//DTD SVG 1.1//EN" "http://www.w3.org/Graphics/SVG/1.1/DTD/svg11.dtd">
<svg width="282" height="131" viewBox="2 -133 282 131" xmlns="http://www.w3.org/2000/svg" version="1.1">
<title>OpenSCAD Model</title>
<path d="
M 198,-129 L 198,-133 L 130,-133 L 130,-129 L 133,-129 L 133,-107
 L 130,-107 L 130,-103 L 198,-103 L 198,-107 L 183,-107 L 183,-129
 z
M 88,-129 L 88,-133 L 20,-133 L 20,-129 L 23,-129 L 23,-107
 L 20,-107 L 20,-103 L 88,-103 L 88,-107 L 73,-107 L 73,-129
 z
M 52.4843,-2.47031 L 56.9254,-3.12907 L 61.2805,-4.21999 L 65.5078,-5.73251 L 69.5664,-7.65211 L 73.4173,-9.96027
 L 77.0235,-12.6348 L 80.3501,-15.6499 L 83.3652,-18.9765 L 86.0397,-22.5827 L 88.3479,-26.4336 L 90.2675,-30.4922
 L 91.78,-34.7195 L 92.8709,-39.0746 L 93.4532,-43 L 91.25,-43 L 91.25,-53 L 93.4532,-53
 L 92.8709,-56.9254 L 91.78,-61.2805 L 90.2675,-65.5078 L 88.3479,-69.5664 L 86.0397,-73.4173 L 83.3652,-77.0235
 L 80.3501,-80.3501 L 77.0235,-83.3652 L 73.4173,-86.0397 L 69.5664,-88.3479 L 65.5078,-90.2675 L 61.2805,-91.78
 L 58.265,-92.5354 L 58.6124,-94.0428 L 55.6891,-94.7166 L 55.3186,-93.1093 L 52.4843,-93.5297 L 48,-93.75
 L 43.5157,-93.5297 L 39.0746,-92.8709 L 34.7195,-91.78 L 30.4922,-90.2675 L 26.4336,-88.3479 L 22.5827,-86.0397
 L 18.9765,-83.3652 L 15.6499,-80.3501 L 12.6348,-77.0235 L 9.96027,-73.4173 L 7.65211,-69.5664 L 5.73251,-65.5078
 L 4.21999,-61.2805 L 3.12907,-56.9254 L 2.47031,-52.4843 L 2.25,-48 L 2.47031,-43.5157 L 3.12907,-39.0746
 L 4.21999,-34.7195 L 5.73251,-30.4922 L 7.65211,-26.4336 L 9.96027,-22.5827 L 12.6348,-18.9765 L 15.6499,-15.6499
 L 18.9765,-12.6348 L 22.5827,-9.96027 L 26.4336,-7.65211 L 30.4922,-5.73251 L 34.7195,-4.21999 L 39.0746,-3.12907
 L 43.5157,-2.47031 L 48,-2.25 z
M 47.0433,-76.1903 L 46.2322,-76.7322 L 45.6903,-77.5433 L 45.5,-78.5 L 45.6903,-79.4567 L 46.2322,-80.2678
 L 47.0433,-80.8097 L 48,-81 L 48.9567,-80.8097 L 49.7678,-80.2678 L 50.3097,-79.4567 L 50.5,-78.5
 L 50.3097,-77.5433 L 49.7678,-76.7322 L 48.9567,-76.1903 L 48,-76 z
M 59,-67.5 L 59,-70.5 L 63,-70.5 L 63,-67.5 z
M 33,-67.5 L 33,-70.5 L 37,-70.5 L 37,-67.5 z
M 25.5,-59 L 25.5,-63 L 28.5,-63 L 28.5,-59 z
M 67.5,-59 L 67.5,-63 L 70.5,-63 L 70.5,-59 z
M 46.115,-42.1986 L 44.4145,-43.065 L 43.065,-44.4145 L 42.1986,-46.115 L 41.9,-48 L 42.1986,-49.885
 L 43.065,-51.5855 L 44.4145,-52.935 L 46.115,-53.8014 L 48,-54.1 L 49.885,-53.8014 L 51.5855,-52.935
 L 52.935,-51.5855 L 53.8014,-49.885 L 54.1,-48 L 53.8014,-46.115 L 52.935,-44.4145 L 51.5855,-43.065
 L 49.885,-42.1986 L 48,-41.9 z
M 33.9,-43 L 33.9,-53 L 39.9,-53 L 39.9,-43 z
M 56.1,-43 L 56.1,-53 L 62.1,-53 L 62.1,-43 z
M 77.5433,-45.6903 L 76.7322,-46.2322 L 76.1903,-47.0433 L 76,-48 L 76.1903,-48.9567 L 76.7322,-49.7678
 L 77.5433,-50.3097 L 78.5,-50.5 L 79.4567,-50.3097 L 80.2678,-49.7678 L 80.8097,-48.9567 L 81,-48
 L 80.8097,-47.0433 L 80.2678,-46.2322 L 79.4567,-45.6903 L 78.5,-45.5 z
M 16.5433,-45.6903 L 15.7322,-46.2322 L 15.1903,-47.0433 L 15,-48 L 15.1903,-48.9567 L 15.7322,-49.7678
 L 16.5433,-50.3097 L 17.5,-50.5 L 18.4567,-50.3097 L 19.2678,-49.7678 L 19.8097,-48.9567 L 20,-48
 L 19.8097,-47.0433 L 19.2678,-46.2322 L 18.4567,-45.6903 L 17.5,-45.5 z
M 67.5,-33 L 67.5,-37 L 70.5,-37 L 70.5,-33 z
M 25.5,-33 L 25.5,-37 L 28.5,-37 L 28.5,-33 z
M 59,-25.5 L 59,-28.5 L 63,-28.5 L 63,-25.5 z
M 33,-25.5 L 33,-28.5 L 37,-28.5 L 37,-25.5 z
M 47.0433,-15.1903 L 46.2322,-15.7322 L 45.6903,-16.5433 L 45.5,-17.5 L 45.6903,-18.4567 L 46.2322,-19.2678
 L 47.0433,-19.8097 L 48,-20 L 48.9567,-19.8097 L 49.7678,-19.2678 L 50.3097,-18.4567 L 50.5,-17.5
 L 50.3097,-16.5433 L 49.7678,-15.7322 L 48.9567,-15.1903 L 48,-15 z
M 242.484,-2.47031 L 246.925,-3.12907 L 251.281,-4.21999 L 255.508,-5.73251 L 259.566,-7.65211 L 263.417,-9.96027
 L 267.023,-12.6348 L 270.35,-15.6499 L 273.365,-18.9765 L 276.04,-22.5827 L 278.348,-26.4336 L 280.267,-30.4922
 L 281.78,-34.7195 L 282.871,-39.0746 L 283.453,-43 L 281.25,-43 L 281.25,-53 L 283.453,-53
 L 282.871,-56.9254 L 281.78,-61.2805 L 280.267,-65.5078 L 278.348,-69.5664 L 276.04,-73.4173 L 273.365,-77.0235
 L 270.35,-80.3501 L 267.023,-83.3652 L 263.417,-86.0397 L 259.566,-88.3479 L 255.508,-90.2675 L 251.281,-91.78
 L 248.265,-92.5354 L 248.612,-94.0428 L 245.689,-94.7166 L 245.319,-93.1093 L 242.484,-93.5297 L 238,-93.75
 L 233.516,-93.5297 L 229.075,-92.8709 L 224.719,-91.78 L 220.492,-90.2675 L 216.434,-88.3479 L 212.583,-86.0397
 L 208.977,-83.3652 L 205.65,-80.3501 L 202.635,-77.0235 L 199.96,-73.4173 L 197.652,-69.5664 L 195.733,-65.5078
 L 194.22,-61.2805 L 193.129,-56.9254 L 192.47,-52.4843 L 192.25,-48 L 192.47,-43.5157 L 193.129,-39.0746
 L 194.22,-34.7195 L 195.733,-30.4922 L 197.652,-26.4336 L 199.96,-22.5827 L 202.635,-18.9765 L 205.65,-15.6499
 L 208.977,-12.6348 L 212.583,-9.96027 L 216.434,-7.65211 L 220.492,-5.73251 L 224.719,-4.21999 L 229.075,-3.12907
 L 233.516,-2.47031 L 238,-2.25 z
M 237.043,-76.1903 L 236.232,-76.7322 L 235.69,-77.5433 L 235.5,-78.5 L 235.69,-79.4567 L 236.232,-80.2678
 L 237.043,-80.8097 L 238,-81 L 238.957,-80.8097 L 239.768,-80.2678 L 240.31,-79.4567 L 240.5,-78.5
 L 240.31,-77.5433 L 239.768,-76.7322 L 238.957,-76.1903 L 238,-76 z
M 249,-67.5 L 249,-70.5 L 253,-70.5 L 253,-67.5 z
M 223,-67.5 L 223,-70.5 L 227,-70.5 L 227,-67.5 z
M 215.5,-59 L 215.5,-63 L 218.5,-63 L 218.5,-59 z
M 257.5,-59 L 257.5,-63 L 260.5,-63 L 260.5,-59 z
M 236.115,-42.1986 L 234.415,-43.065 L 233.065,-44.4145 L 232.199,-46.115 L 231.9,-48 L 232.199,-49.885
 L 233.065,-51.5855 L 234.415,-52.935 L 236.115,-53.8014 L 238,-54.1 L 239.885,-53.8014 L 241.585,-52.935
 L 242.935,-51.5855 L 243.801,-49.885 L 244.1,-48 L 243.801,-46.115 L 242.935,-44.4145 L 241.585,-43.065
 L 239.885,-42.1986 L 238,-41.9 z
M 223.9,-43 L 223.9,-53 L 229.9,-53 L 229.9,-43 z
M 246.1,-43 L 246.1,-53 L 252.1,-53 L 252.1,-43 z
M 206.543,-45.6903 L 205.732,-46.2322 L 205.19,-47.0433 L 205,-48 L 205.19,-48.9567 L 205.732,-49.7678
 L 206.543,-50.3097 L 207.5,-50.5 L 208.457,-50.3097 L 209.268,-49.7678 L 209.81,-48.9567 L 210,-48
 L 209.81,-47.0433 L 209.268,-46.2322 L 208.457,-45.6903 L 207.5,-45.5 z
M 267.543,-45.6903 L 266.732,-46.2322 L 266.19,-47.0433 L 266,-48 L 266.19,-48.9567 L 266.732,-49.7678
 L 267.543,-50.3097 L 268.5,-50.5 L 269.457,-50.3097 L 270.268,-49.7678 L 270.81,-48.9567 L 271,-48
 L 270.81,-47.0433 L 270.268,-46.2322 L 269.457,-45.6903 L 268.5,-45.5 z
M 257.5,-33 L 257.5,-37 L 260.5,-37 L 260.5,-33 z
M 215.5,-33 L 215.5,-37 L 218.5,-37 L 218.5,-33 z
M 223,-25.5 L 223,-28.5 L 227,-28.5 L 227,-25.5 z
M 249,-25.5 L 249,-28.5 L 253,-28.5 L 253,-25.5 z
M 237.043,-15.1903 L 236.232,-15.7322 L 235.69,-16.5433 L 235.5,-17.5 L 235.69,-18.4567 L 236.232,-19.2678
 L 237.043,-19.8097 L 238,-20 L 238.957,-19.8097 L 239.768,-19.2678 L 240.31,-18.4567 L 240.5,-17.5
 L 240.31,-16.5433 L 239.768,-15.7322 L 238.957,-15.1903 L 238,-15 z
M 147.484,-2.47031 L 151.925,-3.12907 L 156.281,-4.21999 L 160.508,-5.73251 L 164.566,-7.65211 L 168.417,-9.96027
 L 172.023,-12.6348 L 175.35,-15.6499 L 178.365,-18.9765 L 181.04,-22.5827 L 183.348,-26.4336 L 185.267,-30.4922
 L 186.78,-34.7195 L 187.871,-39.0746 L 188.453,-43 L 186.25,-43 L 186.25,-53 L 188.453,-53
 L 187.871,-56.9254 L 186.78,-61.2805 L 185.267,-65.5078 L 183.348,-69.5664 L 181.04,-73.4173 L 178.365,-77.0235
 L 175.35,-80.3501 L 172.023,-83.3652 L 168.417,-86.0397 L 164.566,-88.3479 L 160.508,-90.2675 L 156.281,-91.78
 L 153.265,-92.5354 L 153.612,-94.0428 L 150.689,-94.7166 L 150.319,-93.1093 L 147.484,-93.5297 L 143,-93.75
 L 138.516,-93.5297 L 134.075,-92.8709 L 129.719,-91.78 L 125.492,-90.2675 L 121.434,-88.3479 L 117.583,-86.0397
 L 113.977,-83.3652 L 110.65,-80.3501 L 107.635,-77.0235 L 104.96,-73.4173 L 102.652,-69.5664 L 100.733,-65.5078
 L 99.22,-61.2805 L 98.1291,-56.9254 L 97.4703,-52.4843 L 97.25,-48 L 97.4703,-43.5157 L 98.1291,-39.0746
 L 99.22,-34.7195 L 100.733,-30.4922 L 102.652,-26.4336 L 104.96,-22.5827 L 107.635,-18.9765 L 110.65,-15.6499
 L 113.977,-12.6348 L 117.583,-9.96027 L 121.434,-7.65211 L 125.492,-5.73251 L 129.719,-4.21999 L 134.075,-3.12907
 L 138.516,-2.47031 L 143,-2.25 z
M 142.043,-76.1903 L 141.232,-76.7322 L 140.69,-77.5433 L 140.5,-78.5 L 140.69,-79.4567 L 141.232,-80.2678
 L 142.043,-80.8097 L 143,-81 L 143.957,-80.8097 L 144.768,-80.2678 L 145.31,-79.4567 L 145.5,-78.5
 L 145.31,-77.5433 L 144.768,-76.7322 L 143.957,-76.1903 L 143,-76 z
M 154,-67.5 L 154,-70.5 L 158,-70.5 L 158,-67.5 z
M 128,-67.5 L 128,-70.5 L 132,-70.5 L 132,-67.5 z
M 120.5,-59 L 120.5,-63 L 123.5,-63 L 123.5,-59 z
M 162.5,-59 L 162.5,-63 L 165.5,-63 L 165.5,-59 z
M 141.115,-42.1986 L 139.415,-43.065 L 138.065,-44.4145 L 137.199,-46.115 L 136.9,-48 L 137.199,-49.885
 L 138.065,-51.5855 L 139.415,-52.935 L 141.115,-53.8014 L 143,-54.1 L 144.885,-53.8014 L 146.585,-52.935
 L 147.935,-51.5855 L 148.801,-49.885 L 149.1,-48 L 148.801,-46.115 L 147.935,-44.4145 L 146.585,-43.065
 L 144.885,-42.1986 L 143,-41.9 z
M 128.9,-43 L 128.9,-53 L 134.9,-53 L 134.9,-43 z
M 151.1,-43 L 151.1,-53 L 157.1,-53 L 157.1,-43 z
M 172.543,-45.6903 L 171.732,-46.2322 L 171.19,-47.0433 L 171,-48 L 171.19,-48.9567 L 171.732,-49.7678
 L 172.543,-50.3097 L 173.5,-50.5 L 174.457,-50.3097 L 175.268,-49.7678 L 175.81,-48.9567 L 176,-48
 L 175.81,-47.0433 L 175.268,-46.2322 L 174.457,-45.6903 L 173.5,-45.5 z
M 111.543,-45.6903 L 110.732,-46.2322 L 110.19,-47.0433 L 110,-48 L 110.19,-48.9567 L 110.732,-49.7678
 L 111.543,-50.3097 L 112.5,-50.5 L 113.457,-50.3097 L 114.268,-49.7678 L 114.81,-48.9567 L 115,-48
 L 114.81,-47.0433 L 114.268,-46.2322 L 113.457,-45.6903 L 112.5,-45.5 z
M 162.5,-33 L 162.5,-37 L 165.5,-37 L 165.5,-33 z
M 120.5,-33 L 120.5,-37 L 123.5,-37 L 123.5,-33 z
M 128,-25.5 L 128,-28.5 L 132,-28.5 L 132,-25.5 z
M 154,-25.5 L 154,-28.5 L 158,-28.5 L 158,-25.5 z
M 142.043,-15.1903 L 141.232,-15.7322 L 140.69,-16.5433 L 140.5,-17.5 L 140.69,-18.4567 L 141.232,-19.2678
 L 142.043,-19.8097 L 143,-20 L 143.957,-19.8097 L 144.768,-19.2678 L 145.31,-18.4567 L 145.5,-17.5
 L 145.31,-16.5433 L 144.768,-15.7322 L 143.957,-15.1903 L 143,-15 z
" stroke="black" fill="none" stroke-width="0.5"/></svg>
