G04 ( created by brdgerber.py ( brdgerber.py v0.1 2014-03-12 ) ) date 2020-09-29 22:27:33 EDT*
G04 Gerber Fmt 3.4, Leading zero omitted, Abs format*
%MOIN*%
%FSLAX34Y34*%
G01*
G70*
G90*
G04 APERTURE LIST*
%ADD11C,0.1500*%
%ADD18C,0.0600*%
%ADD12C,0.0000*%
%ADD19C,0.0024*%
%ADD16R,0.0629X0.0709*%
%ADD14C,0.0080*%
%ADD13R,0.0236X0.0866*%
%ADD15C,0.0050*%
%ADD10C,0.0200*%
%ADD17C,0.0060*%
G04 APERTURE END LIST*
G54D11*
D12*
G01X-30800Y12800D02*
G01X-30800Y12800D01*
D12*
G01X-30800Y12800D02*
G01X-30800Y12800D01*
D12*
G01X-30800Y12800D02*
G01X-30800Y12800D01*
G01X-30800Y12800D01*
G01X-30800Y12800D01*
G01X-30800Y12800D01*
G01X-30800Y12800D01*
G01X-30800Y12800D01*
G01X-30800Y12800D01*
G01X-30800Y12800D01*
G01X-30800Y12800D01*
G01X-30800Y12800D01*
G01X-30800Y12800D01*
G01X-30800Y12800D01*
G01X-30800Y12800D01*
G01X-30800Y12800D01*
G01X-30800Y12800D01*
D12*
G01X-30800Y12800D02*
G01X-30800Y12800D01*
G01X-30800Y12800D01*
G01X-30800Y12800D01*
G01X-30800Y12800D01*
G01X-30800Y12800D01*
G01X-30800Y12800D01*
G01X-30800Y12800D01*
G01X-30800Y12800D01*
G01X-30800Y12800D01*
G01X-30800Y12800D01*
G01X-30800Y12800D01*
D12*
G01X-30800Y12800D02*
G01X-30800Y12800D01*
D12*
G01X-30800Y12800D02*
G01X-30800Y12800D01*
G01X-30800Y12800D01*
G01X-30800Y12800D01*
G01X-30800Y12800D01*
D12*
G01X-30800Y12800D02*
G01X-30800Y12800D01*
G01X-30800Y12800D01*
G01X-30800Y12800D01*
G01X-30800Y12800D01*
G01X-30800Y12800D01*
G01X-30800Y12800D01*
G01X-30800Y12800D01*
G01X-30800Y12800D01*
G01X-30800Y12800D01*
G01X-30800Y12800D01*
G01X-30800Y12800D01*
G01X-30800Y12800D01*
D12*
G01X-30800Y12800D02*
G01X-30800Y12800D01*
G01X-30800Y12800D01*
G01X-30800Y12800D01*
G01X-30800Y12800D01*
D15*
G01X-31884Y13258D02*
G01X-29956Y13258D01*
D15*
G01X-29956Y13258D02*
G01X-29956Y11802D01*
D15*
G01X-29956Y11802D02*
G01X-31884Y11802D01*
D15*
G01X-31884Y11802D02*
G01X-31884Y13258D01*
D15*
G01X-31497Y12157D02*
G01X-31497Y12157D01*
G01X-31497Y12160D01*
G01X-31497Y12162D01*
G01X-31497Y12165D01*
G01X-31498Y12168D01*
G01X-31498Y12171D01*
G01X-31498Y12173D01*
G01X-31499Y12176D01*
G01X-31499Y12179D01*
G01X-31500Y12181D01*
G01X-31500Y12184D01*
G01X-31501Y12187D01*
G01X-31502Y12189D01*
G01X-31503Y12192D01*
G01X-31503Y12194D01*
G01X-31504Y12197D01*
G01X-31505Y12199D01*
G01X-31507Y12202D01*
G01X-31508Y12204D01*
G01X-31509Y12207D01*
G01X-31510Y12209D01*
G01X-31511Y12212D01*
G01X-31513Y12214D01*
G01X-31514Y12216D01*
G01X-31516Y12219D01*
G01X-31517Y12221D01*
G01X-31519Y12223D01*
G01X-31520Y12225D01*
G01X-31522Y12227D01*
G01X-31524Y12230D01*
G01X-31526Y12232D01*
G01X-31528Y12234D01*
G01X-31530Y12235D01*
G01X-31531Y12237D01*
G01X-31533Y12239D01*
G01X-31535Y12241D01*
G01X-31538Y12243D01*
G01X-31540Y12245D01*
G01X-31542Y12246D01*
G01X-31544Y12248D01*
G01X-31546Y12249D01*
G01X-31549Y12251D01*
G01X-31551Y12252D01*
G01X-31553Y12254D01*
G01X-31556Y12255D01*
G01X-31558Y12256D01*
G01X-31561Y12257D01*
G01X-31563Y12258D01*
G01X-31566Y12260D01*
G01X-31568Y12261D01*
G01X-31571Y12262D01*
G01X-31573Y12262D01*
G01X-31576Y12263D01*
G01X-31578Y12264D01*
G01X-31581Y12265D01*
G01X-31584Y12265D01*
G01X-31586Y12266D01*
G01X-31589Y12266D01*
G01X-31592Y12267D01*
G01X-31594Y12267D01*
G01X-31597Y12267D01*
G01X-31600Y12268D01*
G01X-31603Y12268D01*
G01X-31605Y12268D01*
G01X-31608Y12268D01*
G01X-31611Y12268D01*
G01X-31613Y12268D01*
G01X-31616Y12268D01*
G01X-31619Y12267D01*
G01X-31622Y12267D01*
G01X-31624Y12267D01*
G01X-31627Y12266D01*
G01X-31630Y12266D01*
G01X-31632Y12265D01*
G01X-31635Y12265D01*
G01X-31638Y12264D01*
G01X-31640Y12263D01*
G01X-31643Y12262D01*
G01X-31645Y12262D01*
G01X-31648Y12261D01*
G01X-31650Y12260D01*
G01X-31653Y12258D01*
G01X-31655Y12257D01*
G01X-31658Y12256D01*
G01X-31660Y12255D01*
G01X-31663Y12254D01*
G01X-31665Y12252D01*
G01X-31667Y12251D01*
G01X-31670Y12249D01*
G01X-31672Y12248D01*
G01X-31674Y12246D01*
G01X-31676Y12245D01*
G01X-31678Y12243D01*
G01X-31681Y12241D01*
G01X-31683Y12239D01*
G01X-31685Y12237D01*
G01X-31686Y12235D01*
G01X-31688Y12234D01*
G01X-31690Y12232D01*
G01X-31692Y12230D01*
G01X-31694Y12227D01*
G01X-31696Y12225D01*
G01X-31697Y12223D01*
G01X-31699Y12221D01*
G01X-31700Y12219D01*
G01X-31702Y12216D01*
G01X-31703Y12214D01*
G01X-31705Y12212D01*
G01X-31706Y12209D01*
G01X-31707Y12207D01*
G01X-31708Y12204D01*
G01X-31709Y12202D01*
G01X-31711Y12199D01*
G01X-31712Y12197D01*
G01X-31713Y12194D01*
G01X-31713Y12192D01*
G01X-31714Y12189D01*
G01X-31715Y12187D01*
G01X-31716Y12184D01*
G01X-31716Y12181D01*
G01X-31717Y12179D01*
G01X-31717Y12176D01*
G01X-31718Y12173D01*
G01X-31718Y12171D01*
G01X-31718Y12168D01*
G01X-31719Y12165D01*
G01X-31719Y12162D01*
G01X-31719Y12160D01*
G01X-31719Y12157D01*
G01X-31719Y12154D01*
G01X-31719Y12152D01*
G01X-31719Y12149D01*
G01X-31718Y12146D01*
G01X-31718Y12143D01*
G01X-31718Y12141D01*
G01X-31717Y12138D01*
G01X-31717Y12135D01*
G01X-31716Y12133D01*
G01X-31716Y12130D01*
G01X-31715Y12127D01*
G01X-31714Y12125D01*
G01X-31713Y12122D01*
G01X-31713Y12120D01*
G01X-31712Y12117D01*
G01X-31711Y12115D01*
G01X-31709Y12112D01*
G01X-31708Y12110D01*
G01X-31707Y12107D01*
G01X-31706Y12105D01*
G01X-31705Y12102D01*
G01X-31703Y12100D01*
G01X-31702Y12098D01*
G01X-31700Y12095D01*
G01X-31699Y12093D01*
G01X-31697Y12091D01*
G01X-31696Y12089D01*
G01X-31694Y12087D01*
G01X-31692Y12084D01*
G01X-31690Y12082D01*
G01X-31688Y12080D01*
G01X-31686Y12079D01*
G01X-31685Y12077D01*
G01X-31683Y12075D01*
G01X-31681Y12073D01*
G01X-31678Y12071D01*
G01X-31676Y12069D01*
G01X-31674Y12068D01*
G01X-31672Y12066D01*
G01X-31670Y12065D01*
G01X-31667Y12063D01*
G01X-31665Y12062D01*
G01X-31663Y12060D01*
G01X-31660Y12059D01*
G01X-31658Y12058D01*
G01X-31655Y12057D01*
G01X-31653Y12056D01*
G01X-31650Y12054D01*
G01X-31648Y12053D01*
G01X-31645Y12052D01*
G01X-31643Y12052D01*
G01X-31640Y12051D01*
G01X-31638Y12050D01*
G01X-31635Y12049D01*
G01X-31632Y12049D01*
G01X-31630Y12048D01*
G01X-31627Y12048D01*
G01X-31624Y12047D01*
G01X-31622Y12047D01*
G01X-31619Y12047D01*
G01X-31616Y12046D01*
G01X-31613Y12046D01*
G01X-31611Y12046D01*
G01X-31608Y12046D01*
G01X-31605Y12046D01*
G01X-31603Y12046D01*
G01X-31600Y12046D01*
G01X-31597Y12047D01*
G01X-31594Y12047D01*
G01X-31592Y12047D01*
G01X-31589Y12048D01*
G01X-31586Y12048D01*
G01X-31584Y12049D01*
G01X-31581Y12049D01*
G01X-31578Y12050D01*
G01X-31576Y12051D01*
G01X-31573Y12052D01*
G01X-31571Y12052D01*
G01X-31568Y12053D01*
G01X-31566Y12054D01*
G01X-31563Y12056D01*
G01X-31561Y12057D01*
G01X-31558Y12058D01*
G01X-31556Y12059D01*
G01X-31553Y12060D01*
G01X-31551Y12062D01*
G01X-31549Y12063D01*
G01X-31546Y12065D01*
G01X-31544Y12066D01*
G01X-31542Y12068D01*
G01X-31540Y12069D01*
G01X-31538Y12071D01*
G01X-31535Y12073D01*
G01X-31533Y12075D01*
G01X-31531Y12077D01*
G01X-31530Y12079D01*
G01X-31528Y12080D01*
G01X-31526Y12082D01*
G01X-31524Y12084D01*
G01X-31522Y12087D01*
G01X-31520Y12089D01*
G01X-31519Y12091D01*
G01X-31517Y12093D01*
G01X-31516Y12095D01*
G01X-31514Y12098D01*
G01X-31513Y12100D01*
G01X-31511Y12102D01*
G01X-31510Y12105D01*
G01X-31509Y12107D01*
G01X-31508Y12110D01*
G01X-31507Y12112D01*
G01X-31505Y12115D01*
G01X-31504Y12117D01*
G01X-31503Y12120D01*
G01X-31503Y12122D01*
G01X-31502Y12125D01*
G01X-31501Y12127D01*
G01X-31500Y12130D01*
G01X-31500Y12133D01*
G01X-31499Y12135D01*
G01X-31499Y12138D01*
G01X-31498Y12141D01*
G01X-31498Y12143D01*
G01X-31498Y12146D01*
G01X-31497Y12149D01*
G01X-31497Y12152D01*
G01X-31497Y12154D01*
G01X-31497Y12157D01*
D17*
G01X-35000Y10750D02*
G01X-36000Y10750D01*
D17*
G01X-36000Y10750D02*
G01X-36000Y11750D01*
D17*
G01X-36000Y11750D02*
G01X-36000Y14750D01*
D17*
G01X-36000Y14750D02*
G01X-35000Y14750D01*
D17*
G01X-35000Y14750D02*
G01X-35000Y11750D01*
D17*
G01X-35000Y11750D02*
G01X-35000Y10750D01*
D17*
G01X-35000Y11750D02*
G01X-36000Y11750D01*
D19*
G01X-34750Y11250D02*
G01X-34500Y11000D01*
D19*
G01X-34500Y11000D02*
G01X-34500Y11500D01*
D19*
G01X-34500Y11500D02*
G01X-34750Y11250D01*
M02*
