G04 ( created by brdgerber.py ( brdgerber.py v0.1 2014-03-12 ) ) date 2020-09-09 16:52:56 EDT*
G04 Gerber Fmt 3.4, Leading zero omitted, Abs format*
%MOIN*%
%FSLAX34Y34*%
G01*
G70*
G90*
G04 APERTURE LIST*
%ADD14C,0.0600*%
%ADD11C,0.0000*%
%ADD10C,0.0760*%
%ADD13C,0.0050*%
%ADD12C,0.0060*%
%ADD16C,0.0100*%
%ADD15C,0.0200*%
G04 APERTURE END LIST*
G54D14*
D12*
G01X-02500Y02150D02*
G01X-02000Y02150D01*
D12*
G01X-02000Y02150D02*
G01X-01750Y01900D01*
D12*
G01X-01750Y01900D02*
G01X-01750Y01400D01*
D12*
G01X-01750Y01400D02*
G01X-02000Y01150D01*
D12*
G01X-02750Y01900D02*
G01X-02750Y01400D01*
D12*
G01X-02500Y02150D02*
G01X-02750Y01900D01*
D12*
G01X-02750Y01400D02*
G01X-02500Y01150D01*
D12*
G01X-02000Y01150D02*
G01X-02500Y01150D01*
D12*
G01X-02500Y00850D02*
G01X-02000Y00850D01*
D12*
G01X-02000Y00850D02*
G01X-01750Y00600D01*
D12*
G01X-01750Y00600D02*
G01X-01750Y00100D01*
D12*
G01X-01750Y00100D02*
G01X-02000Y-00150D01*
D12*
G01X-01750Y00600D02*
G01X-01500Y00850D01*
D12*
G01X-01500Y00850D02*
G01X-01000Y00850D01*
D12*
G01X-01000Y00850D02*
G01X-00750Y00600D01*
D12*
G01X-00750Y00600D02*
G01X-00750Y00100D01*
D12*
G01X-00750Y00100D02*
G01X-01000Y-00150D01*
D12*
G01X-01000Y-00150D02*
G01X-01500Y-00150D01*
D12*
G01X-01500Y-00150D02*
G01X-01750Y00100D01*
D12*
G01X-02750Y00600D02*
G01X-02750Y00100D01*
D12*
G01X-02500Y00850D02*
G01X-02750Y00600D01*
D12*
G01X-02750Y00100D02*
G01X-02500Y-00150D01*
D12*
G01X-02000Y-00150D02*
G01X-02500Y-00150D01*
D12*
G01X-00750Y00600D02*
G01X-00500Y00850D01*
D12*
G01X-00500Y00850D02*
G01X00000Y00850D01*
D12*
G01X00000Y00850D02*
G01X00250Y00600D01*
D12*
G01X00250Y00600D02*
G01X00250Y00100D01*
D12*
G01X00250Y00100D02*
G01X00000Y-00150D01*
D12*
G01X00000Y-00150D02*
G01X-00500Y-00150D01*
D12*
G01X-00500Y-00150D02*
G01X-00750Y00100D01*
D12*
G01X-00450Y-00600D02*
G01X00050Y-00600D01*
D12*
G01X00050Y-00600D02*
G01X00300Y-00850D01*
D12*
G01X00300Y-00850D02*
G01X00300Y-01350D01*
D12*
G01X00300Y-01350D02*
G01X00050Y-01600D01*
D12*
G01X00300Y-00850D02*
G01X00550Y-00600D01*
D12*
G01X00550Y-00600D02*
G01X01050Y-00600D01*
D12*
G01X01050Y-00600D02*
G01X01300Y-00850D01*
D12*
G01X01300Y-00850D02*
G01X01300Y-01350D01*
D12*
G01X01300Y-01350D02*
G01X01050Y-01600D01*
D12*
G01X01050Y-01600D02*
G01X00550Y-01600D01*
D12*
G01X00550Y-01600D02*
G01X00300Y-01350D01*
D12*
G01X-01700Y-00850D02*
G01X-01450Y-00600D01*
D12*
G01X-01450Y-00600D02*
G01X-00950Y-00600D01*
D12*
G01X-00950Y-00600D02*
G01X-00700Y-00850D01*
D12*
G01X-00700Y-00850D02*
G01X-00700Y-01350D01*
D12*
G01X-00700Y-01350D02*
G01X-00950Y-01600D01*
D12*
G01X-00950Y-01600D02*
G01X-01450Y-01600D01*
D12*
G01X-01450Y-01600D02*
G01X-01700Y-01350D01*
D12*
G01X-00450Y-00600D02*
G01X-00700Y-00850D01*
D12*
G01X-00700Y-01350D02*
G01X-00450Y-01600D01*
D12*
G01X00050Y-01600D02*
G01X-00450Y-01600D01*
D12*
G01X-03450Y-00600D02*
G01X-02950Y-00600D01*
D12*
G01X-02950Y-00600D02*
G01X-02700Y-00850D01*
D12*
G01X-02700Y-00850D02*
G01X-02700Y-01350D01*
D12*
G01X-02700Y-01350D02*
G01X-02950Y-01600D01*
D12*
G01X-02700Y-00850D02*
G01X-02450Y-00600D01*
D12*
G01X-02450Y-00600D02*
G01X-01950Y-00600D01*
D12*
G01X-01950Y-00600D02*
G01X-01700Y-00850D01*
D12*
G01X-01700Y-00850D02*
G01X-01700Y-01350D01*
D12*
G01X-01700Y-01350D02*
G01X-01950Y-01600D01*
D12*
G01X-01950Y-01600D02*
G01X-02450Y-01600D01*
D12*
G01X-02450Y-01600D02*
G01X-02700Y-01350D01*
D12*
G01X-03700Y-00850D02*
G01X-03700Y-01350D01*
D12*
G01X-03450Y-00600D02*
G01X-03700Y-00850D01*
D12*
G01X-03700Y-01350D02*
G01X-03450Y-01600D01*
D12*
G01X-02950Y-01600D02*
G01X-03450Y-01600D01*
D12*
G01X01550Y-00600D02*
G01X02050Y-00600D01*
D12*
G01X02050Y-00600D02*
G01X02300Y-00850D01*
D12*
G01X02300Y-00850D02*
G01X02300Y-01350D01*
D12*
G01X02300Y-01350D02*
G01X02050Y-01600D01*
D12*
G01X01550Y-00600D02*
G01X01300Y-00850D01*
D12*
G01X01300Y-01350D02*
G01X01550Y-01600D01*
D12*
G01X02050Y-01600D02*
G01X01550Y-01600D01*
M02*
