G04 ( created by brdgerber.py ( brdgerber.py v0.1 2014-03-12 ) ) date 2021-03-15 07:30:50 EDT*
G04 Gerber Fmt 3.4, Leading zero omitted, Abs format*
%MOIN*%
%FSLAX34Y34*%
G01*
G70*
G90*
G04 APERTURE LIST*
%ADD17R,0.1575X0.0945*%
%ADD18R,0.0800X0.0600*%
%ADD12C,0.0550*%
%ADD11R,0.0550X0.0550*%
%ADD15C,0.1500*%
%ADD10R,0.0260X0.0800*%
%ADD13R,0.0629X0.0709*%
%ADD16R,0.0709X0.0629*%
%ADD14R,0.0472X0.0275*%
G04 APERTURE END LIST*
G54D17*
D10*
X10350Y22400D03*
D10*
X09850Y22400D03*
D10*
X09350Y22400D03*
D10*
X08850Y22400D03*
D10*
X08350Y22400D03*
D10*
X07850Y22400D03*
D10*
X07350Y22400D03*
D10*
X06850Y22400D03*
D10*
X06850Y16800D03*
D10*
X07350Y16800D03*
D10*
X07850Y16800D03*
D10*
X08350Y16800D03*
D10*
X08850Y16800D03*
D10*
X09350Y16800D03*
D10*
X09850Y16800D03*
D10*
X10350Y16800D03*
D10*
X06350Y22400D03*
D10*
X05850Y22400D03*
D10*
X06350Y16800D03*
D10*
X05850Y16800D03*
D11*
X02850Y23350D03*
D12*
X01850Y23350D03*
D12*
X00850Y23350D03*
D12*
X-00150Y23350D03*
D12*
X-01150Y23350D03*
D12*
X-02150Y23350D03*
D12*
X-03150Y23350D03*
D13*
X07441Y13550D03*
D13*
X08559Y13550D03*
D14*
X11178Y12550D03*
D14*
X09722Y12550D03*
D15*
G01X-04395Y15455D02*
G01X-04395Y15455D01*
D15*
G01X00895Y15455D02*
G01X00895Y15455D01*
D15*
G01X00895Y20745D02*
G01X00895Y20745D01*
D15*
G01X-04395Y20745D02*
G01X-04395Y20745D01*
D11*
X-01450Y12650D03*
D12*
X-00450Y12650D03*
D16*
X09650Y14809D03*
D16*
X09650Y13691D03*
D16*
X11701Y14859D03*
D16*
X11701Y13741D03*
D16*
X04200Y17759D03*
D16*
X04200Y16641D03*
D11*
X12850Y20950D03*
D12*
X12850Y19950D03*
D12*
X12850Y18950D03*
D14*
X08678Y12550D03*
D14*
X07222Y12550D03*
D17*
X05875Y13750D03*
D17*
X02725Y13750D03*
D11*
X-05200Y18650D03*
D12*
X-05200Y17650D03*
D18*
X13050Y15000D03*
D18*
X13050Y16300D03*
M02*
