G04 ( created by brdgerber.py ( brdgerber.py v0.1 2014-03-12 ) ) date 2021-03-15 07:30:49 EDT*
G04 Gerber Fmt 3.4, Leading zero omitted, Abs format*
%MOIN*%
%FSLAX34Y34*%
G01*
G70*
G90*
G04 APERTURE LIST*
%ADD26C,0.0400*%
%ADD28C,0.0047*%
%ADD17R,0.0629X0.0709*%
%ADD24C,0.0100*%
%ADD22R,0.0709X0.0629*%
%ADD21C,0.0000*%
%ADD14R,0.0550X0.0550*%
%ADD30R,0.0800X0.0600*%
%ADD18R,0.0472X0.0275*%
%ADD25C,0.0059*%
%ADD29C,0.0472*%
%ADD11C,0.0050*%
%ADD23C,0.0200*%
%ADD12C,0.0060*%
%ADD10R,0.0260X0.0800*%
%ADD20C,0.1500*%
%ADD16C,0.0120*%
%ADD15C,0.0550*%
%ADD13C,0.0020*%
%ADD27R,0.1575X0.0945*%
%ADD19C,0.0012*%
G04 APERTURE END LIST*
G54D26*
D12*
G01X05690Y18130D02*
G01X10510Y18130D01*
D12*
G01X05690Y21070D02*
G01X05686Y21070D01*
G01X05683Y21070D01*
G01X05679Y21070D01*
G01X05675Y21069D01*
G01X05672Y21069D01*
G01X05668Y21068D01*
G01X05664Y21068D01*
G01X05661Y21067D01*
G01X05657Y21066D01*
G01X05654Y21066D01*
G01X05650Y21065D01*
G01X05646Y21064D01*
G01X05643Y21062D01*
G01X05639Y21061D01*
G01X05636Y21060D01*
G01X05633Y21059D01*
G01X05629Y21057D01*
G01X05626Y21056D01*
G01X05623Y21054D01*
G01X05619Y21052D01*
G01X05616Y21051D01*
G01X05613Y21049D01*
G01X05610Y21047D01*
G01X05607Y21045D01*
G01X05604Y21043D01*
G01X05601Y21040D01*
G01X05598Y21038D01*
G01X05595Y21036D01*
G01X05592Y21034D01*
G01X05589Y21031D01*
G01X05587Y21029D01*
G01X05584Y21026D01*
G01X05581Y21023D01*
G01X05579Y21021D01*
G01X05576Y21018D01*
G01X05574Y21015D01*
G01X05572Y21012D01*
G01X05570Y21009D01*
G01X05567Y21006D01*
G01X05565Y21003D01*
G01X05563Y21000D01*
G01X05561Y20997D01*
G01X05559Y20994D01*
G01X05558Y20991D01*
G01X05556Y20987D01*
G01X05554Y20984D01*
G01X05553Y20981D01*
G01X05551Y20977D01*
G01X05550Y20974D01*
G01X05549Y20971D01*
G01X05548Y20967D01*
G01X05546Y20964D01*
G01X05545Y20960D01*
G01X05544Y20956D01*
G01X05544Y20953D01*
G01X05543Y20949D01*
G01X05542Y20946D01*
G01X05542Y20942D01*
G01X05541Y20938D01*
G01X05541Y20935D01*
G01X05540Y20931D01*
G01X05540Y20927D01*
G01X05540Y20924D01*
G01X05540Y20920D01*
D12*
G01X10660Y18280D02*
G01X10660Y18276D01*
G01X10660Y18273D01*
G01X10660Y18269D01*
G01X10659Y18265D01*
G01X10659Y18262D01*
G01X10658Y18258D01*
G01X10658Y18254D01*
G01X10657Y18251D01*
G01X10656Y18247D01*
G01X10656Y18244D01*
G01X10655Y18240D01*
G01X10654Y18236D01*
G01X10652Y18233D01*
G01X10651Y18229D01*
G01X10650Y18226D01*
G01X10649Y18223D01*
G01X10647Y18219D01*
G01X10646Y18216D01*
G01X10644Y18213D01*
G01X10642Y18209D01*
G01X10641Y18206D01*
G01X10639Y18203D01*
G01X10637Y18200D01*
G01X10635Y18197D01*
G01X10633Y18194D01*
G01X10630Y18191D01*
G01X10628Y18188D01*
G01X10626Y18185D01*
G01X10624Y18182D01*
G01X10621Y18179D01*
G01X10619Y18177D01*
G01X10616Y18174D01*
G01X10613Y18171D01*
G01X10611Y18169D01*
G01X10608Y18166D01*
G01X10605Y18164D01*
G01X10602Y18162D01*
G01X10599Y18160D01*
G01X10596Y18157D01*
G01X10593Y18155D01*
G01X10590Y18153D01*
G01X10587Y18151D01*
G01X10584Y18149D01*
G01X10581Y18148D01*
G01X10577Y18146D01*
G01X10574Y18144D01*
G01X10571Y18143D01*
G01X10567Y18141D01*
G01X10564Y18140D01*
G01X10561Y18139D01*
G01X10557Y18138D01*
G01X10554Y18136D01*
G01X10550Y18135D01*
G01X10546Y18134D01*
G01X10543Y18134D01*
G01X10539Y18133D01*
G01X10536Y18132D01*
G01X10532Y18132D01*
G01X10528Y18131D01*
G01X10525Y18131D01*
G01X10521Y18130D01*
G01X10517Y18130D01*
G01X10514Y18130D01*
G01X10510Y18130D01*
D12*
G01X05690Y18130D02*
G01X05686Y18130D01*
G01X05683Y18130D01*
G01X05679Y18130D01*
G01X05675Y18131D01*
G01X05672Y18131D01*
G01X05668Y18132D01*
G01X05664Y18132D01*
G01X05661Y18133D01*
G01X05657Y18134D01*
G01X05654Y18134D01*
G01X05650Y18135D01*
G01X05646Y18136D01*
G01X05643Y18138D01*
G01X05639Y18139D01*
G01X05636Y18140D01*
G01X05633Y18141D01*
G01X05629Y18143D01*
G01X05626Y18144D01*
G01X05623Y18146D01*
G01X05619Y18148D01*
G01X05616Y18149D01*
G01X05613Y18151D01*
G01X05610Y18153D01*
G01X05607Y18155D01*
G01X05604Y18157D01*
G01X05601Y18160D01*
G01X05598Y18162D01*
G01X05595Y18164D01*
G01X05592Y18166D01*
G01X05589Y18169D01*
G01X05587Y18171D01*
G01X05584Y18174D01*
G01X05581Y18177D01*
G01X05579Y18179D01*
G01X05576Y18182D01*
G01X05574Y18185D01*
G01X05572Y18188D01*
G01X05570Y18191D01*
G01X05567Y18194D01*
G01X05565Y18197D01*
G01X05563Y18200D01*
G01X05561Y18203D01*
G01X05559Y18206D01*
G01X05558Y18209D01*
G01X05556Y18213D01*
G01X05554Y18216D01*
G01X05553Y18219D01*
G01X05551Y18223D01*
G01X05550Y18226D01*
G01X05549Y18229D01*
G01X05548Y18233D01*
G01X05546Y18236D01*
G01X05545Y18240D01*
G01X05544Y18244D01*
G01X05544Y18247D01*
G01X05543Y18251D01*
G01X05542Y18254D01*
G01X05542Y18258D01*
G01X05541Y18262D01*
G01X05541Y18265D01*
G01X05540Y18269D01*
G01X05540Y18273D01*
G01X05540Y18276D01*
G01X05540Y18280D01*
D12*
G01X10660Y20920D02*
G01X10660Y20924D01*
G01X10660Y20927D01*
G01X10660Y20931D01*
G01X10659Y20935D01*
G01X10659Y20938D01*
G01X10658Y20942D01*
G01X10658Y20946D01*
G01X10657Y20949D01*
G01X10656Y20953D01*
G01X10656Y20956D01*
G01X10655Y20960D01*
G01X10654Y20964D01*
G01X10652Y20967D01*
G01X10651Y20971D01*
G01X10650Y20974D01*
G01X10649Y20977D01*
G01X10647Y20981D01*
G01X10646Y20984D01*
G01X10644Y20987D01*
G01X10642Y20991D01*
G01X10641Y20994D01*
G01X10639Y20997D01*
G01X10637Y21000D01*
G01X10635Y21003D01*
G01X10633Y21006D01*
G01X10630Y21009D01*
G01X10628Y21012D01*
G01X10626Y21015D01*
G01X10624Y21018D01*
G01X10621Y21021D01*
G01X10619Y21023D01*
G01X10616Y21026D01*
G01X10613Y21029D01*
G01X10611Y21031D01*
G01X10608Y21034D01*
G01X10605Y21036D01*
G01X10602Y21038D01*
G01X10599Y21040D01*
G01X10596Y21043D01*
G01X10593Y21045D01*
G01X10590Y21047D01*
G01X10587Y21049D01*
G01X10584Y21051D01*
G01X10581Y21052D01*
G01X10577Y21054D01*
G01X10574Y21056D01*
G01X10571Y21057D01*
G01X10567Y21059D01*
G01X10564Y21060D01*
G01X10561Y21061D01*
G01X10557Y21062D01*
G01X10554Y21064D01*
G01X10550Y21065D01*
G01X10546Y21066D01*
G01X10543Y21066D01*
G01X10539Y21067D01*
G01X10536Y21068D01*
G01X10532Y21068D01*
G01X10528Y21069D01*
G01X10525Y21069D01*
G01X10521Y21070D01*
G01X10517Y21070D01*
G01X10514Y21070D01*
G01X10510Y21070D01*
D12*
G01X10510Y21070D02*
G01X05690Y21070D01*
D12*
G01X05540Y20920D02*
G01X05540Y18280D01*
D12*
G01X10660Y18280D02*
G01X10660Y19100D01*
D12*
G01X10660Y19100D02*
G01X10660Y20100D01*
D12*
G01X10660Y20100D02*
G01X10660Y20920D01*
D13*
G01X10650Y20930D02*
G01X05550Y20930D01*
D12*
G01X10660Y19100D02*
G01X10635Y19101D01*
G01X10611Y19102D01*
G01X10587Y19105D01*
G01X10562Y19110D01*
G01X10539Y19115D01*
G01X10515Y19122D01*
G01X10492Y19129D01*
G01X10469Y19138D01*
G01X10446Y19148D01*
G01X10424Y19159D01*
G01X10403Y19171D01*
G01X10382Y19184D01*
G01X10362Y19198D01*
G01X10343Y19213D01*
G01X10324Y19230D01*
G01X10306Y19246D01*
G01X10290Y19264D01*
G01X10273Y19283D01*
G01X10258Y19302D01*
G01X10244Y19322D01*
G01X10231Y19343D01*
G01X10219Y19364D01*
G01X10208Y19386D01*
G01X10198Y19409D01*
G01X10189Y19432D01*
G01X10182Y19455D01*
G01X10175Y19479D01*
G01X10170Y19502D01*
G01X10165Y19527D01*
G01X10162Y19551D01*
G01X10161Y19575D01*
G01X10160Y19600D01*
G01X10161Y19625D01*
G01X10162Y19649D01*
G01X10165Y19673D01*
G01X10170Y19698D01*
G01X10175Y19721D01*
G01X10182Y19745D01*
G01X10189Y19768D01*
G01X10198Y19791D01*
G01X10208Y19814D01*
G01X10219Y19836D01*
G01X10231Y19857D01*
G01X10244Y19878D01*
G01X10258Y19898D01*
G01X10273Y19917D01*
G01X10290Y19936D01*
G01X10306Y19954D01*
G01X10324Y19970D01*
G01X10343Y19987D01*
G01X10362Y20002D01*
G01X10382Y20016D01*
G01X10403Y20029D01*
G01X10424Y20041D01*
G01X10446Y20052D01*
G01X10469Y20062D01*
G01X10492Y20071D01*
G01X10515Y20078D01*
G01X10539Y20085D01*
G01X10562Y20090D01*
G01X10587Y20095D01*
G01X10611Y20098D01*
G01X10635Y20099D01*
G01X10660Y20100D01*
D11*
G01X10450Y21920D02*
G01X10250Y21920D01*
D11*
G01X10250Y21920D02*
G01X10250Y21870D01*
D11*
G01X10250Y21870D02*
G01X10450Y21870D01*
D11*
G01X10450Y21870D02*
G01X10450Y21920D01*
D11*
G01X09950Y21920D02*
G01X09750Y21920D01*
D11*
G01X09750Y21920D02*
G01X09750Y21870D01*
D11*
G01X09750Y21870D02*
G01X09950Y21870D01*
D11*
G01X09950Y21870D02*
G01X09950Y21920D01*
D11*
G01X09450Y21920D02*
G01X09250Y21920D01*
D11*
G01X09250Y21920D02*
G01X09250Y21870D01*
D11*
G01X09250Y21870D02*
G01X09450Y21870D01*
D11*
G01X09450Y21870D02*
G01X09450Y21920D01*
D11*
G01X08950Y21920D02*
G01X08750Y21920D01*
D11*
G01X08750Y21920D02*
G01X08750Y21870D01*
D11*
G01X08750Y21870D02*
G01X08950Y21870D01*
D11*
G01X08950Y21870D02*
G01X08950Y21920D01*
D11*
G01X08450Y21920D02*
G01X08250Y21920D01*
D11*
G01X08250Y21920D02*
G01X08250Y21870D01*
D11*
G01X08250Y21870D02*
G01X08450Y21870D01*
D11*
G01X08450Y21870D02*
G01X08450Y21920D01*
D11*
G01X07950Y21920D02*
G01X07750Y21920D01*
D11*
G01X07750Y21920D02*
G01X07750Y21870D01*
D11*
G01X07750Y21870D02*
G01X07950Y21870D01*
D11*
G01X07950Y21870D02*
G01X07950Y21920D01*
D11*
G01X07450Y21920D02*
G01X07250Y21920D01*
D11*
G01X07250Y21920D02*
G01X07250Y21870D01*
D11*
G01X07250Y21870D02*
G01X07450Y21870D01*
D11*
G01X07450Y21870D02*
G01X07450Y21920D01*
D11*
G01X06950Y21920D02*
G01X06750Y21920D01*
D11*
G01X06750Y21920D02*
G01X06750Y21870D01*
D11*
G01X06750Y21870D02*
G01X06950Y21870D01*
D11*
G01X06950Y21870D02*
G01X06950Y21920D01*
D11*
G01X10450Y17330D02*
G01X10250Y17330D01*
D11*
G01X10250Y17330D02*
G01X10250Y17280D01*
D11*
G01X10250Y17280D02*
G01X10450Y17280D01*
D11*
G01X10450Y17280D02*
G01X10450Y17330D01*
D11*
G01X09950Y17330D02*
G01X09750Y17330D01*
D11*
G01X09750Y17330D02*
G01X09750Y17280D01*
D11*
G01X09750Y17280D02*
G01X09950Y17280D01*
D11*
G01X09950Y17280D02*
G01X09950Y17330D01*
D11*
G01X09450Y17330D02*
G01X09250Y17330D01*
D11*
G01X09250Y17330D02*
G01X09250Y17280D01*
D11*
G01X09250Y17280D02*
G01X09450Y17280D01*
D11*
G01X09450Y17280D02*
G01X09450Y17330D01*
D11*
G01X08950Y17330D02*
G01X08750Y17330D01*
D11*
G01X08750Y17330D02*
G01X08750Y17280D01*
D11*
G01X08750Y17280D02*
G01X08950Y17280D01*
D11*
G01X08950Y17280D02*
G01X08950Y17330D01*
D11*
G01X08450Y17330D02*
G01X08250Y17330D01*
D11*
G01X08250Y17330D02*
G01X08250Y17280D01*
D11*
G01X08250Y17280D02*
G01X08450Y17280D01*
D11*
G01X08450Y17280D02*
G01X08450Y17330D01*
D11*
G01X07950Y17330D02*
G01X07750Y17330D01*
D11*
G01X07750Y17330D02*
G01X07750Y17280D01*
D11*
G01X07750Y17280D02*
G01X07950Y17280D01*
D11*
G01X07950Y17280D02*
G01X07950Y17330D01*
D11*
G01X07450Y17330D02*
G01X07250Y17330D01*
D11*
G01X07250Y17330D02*
G01X07250Y17280D01*
D11*
G01X07250Y17280D02*
G01X07450Y17280D01*
D11*
G01X07450Y17280D02*
G01X07450Y17330D01*
D11*
G01X06950Y17330D02*
G01X06750Y17330D01*
D11*
G01X06750Y17330D02*
G01X06750Y17280D01*
D11*
G01X06750Y17280D02*
G01X06950Y17280D01*
D11*
G01X06950Y17280D02*
G01X06950Y17330D01*
D11*
G01X06450Y17330D02*
G01X06250Y17330D01*
D11*
G01X06250Y17330D02*
G01X06250Y17280D01*
D11*
G01X06250Y17280D02*
G01X06450Y17280D01*
D11*
G01X06450Y17280D02*
G01X06450Y17330D01*
D11*
G01X05950Y17330D02*
G01X05750Y17330D01*
D11*
G01X05750Y17330D02*
G01X05750Y17280D01*
D11*
G01X05750Y17280D02*
G01X05950Y17280D01*
D11*
G01X05950Y17280D02*
G01X05950Y17330D01*
D11*
G01X06450Y21920D02*
G01X06250Y21920D01*
D11*
G01X06250Y21920D02*
G01X06250Y21870D01*
D11*
G01X06250Y21870D02*
G01X06450Y21870D01*
D11*
G01X06450Y21870D02*
G01X06450Y21920D01*
D11*
G01X05950Y21920D02*
G01X05750Y21920D01*
D11*
G01X05750Y21920D02*
G01X05750Y21870D01*
D11*
G01X05750Y21870D02*
G01X05950Y21870D01*
D11*
G01X05950Y21870D02*
G01X05950Y21920D01*
D16*
G01X03350Y22850D02*
G01X03350Y22850D01*
D16*
G01X03350Y22850D02*
G01X-03650Y22850D01*
D16*
G01X-03650Y22850D02*
G01X-03650Y23850D01*
D16*
G01X-03650Y23850D02*
G01X03350Y23850D01*
D16*
G01X03350Y23850D02*
G01X03350Y22850D01*
D16*
G01X02350Y23850D02*
G01X02350Y23850D01*
D16*
G01X02350Y23850D02*
G01X02350Y22850D01*
D16*
G01X-01885Y22177D02*
G01X-01885Y22462D01*
D16*
G01X-01885Y22605D02*
G01X-01917Y22584D01*
G01X-01885Y22564D01*
G01X-01852Y22584D01*
G01X-01885Y22605D01*
G01X-01885Y22564D01*
D16*
G01X-01561Y22462D02*
G01X-01561Y22177D01*
D16*
G01X-01561Y22421D02*
G01X-01528Y22442D01*
G01X-01463Y22462D01*
G01X-01366Y22462D01*
G01X-01301Y22442D01*
G01X-01269Y22401D01*
G01X-01269Y22177D01*
D16*
G01X-01107Y22136D02*
G01X-00588Y22136D01*
D16*
G01X-00166Y22197D02*
G01X-00231Y22177D01*
G01X-00361Y22177D01*
G01X-00426Y22197D01*
G01X-00458Y22238D01*
G01X-00458Y22401D01*
G01X-00426Y22442D01*
G01X-00361Y22462D01*
G01X-00231Y22462D01*
G01X-00166Y22442D01*
G01X-00134Y22401D01*
G01X-00134Y22360D01*
G01X-00458Y22319D01*
D16*
G01X00158Y22462D02*
G01X00158Y22177D01*
D16*
G01X00158Y22421D02*
G01X00191Y22442D01*
G01X00255Y22462D01*
G01X00353Y22462D01*
G01X00418Y22442D01*
G01X00450Y22401D01*
G01X00450Y22177D01*
D16*
G01X00612Y22136D02*
G01X01131Y22136D01*
D16*
G01X01585Y22462D02*
G01X01585Y22116D01*
G01X01552Y22075D01*
G01X01520Y22054D01*
G01X01455Y22034D01*
G01X01358Y22034D01*
G01X01293Y22054D01*
D16*
G01X01585Y22197D02*
G01X01520Y22177D01*
G01X01390Y22177D01*
G01X01326Y22197D01*
G01X01293Y22218D01*
G01X01261Y22258D01*
G01X01261Y22381D01*
G01X01293Y22421D01*
G01X01326Y22442D01*
G01X01390Y22462D01*
G01X01520Y22462D01*
G01X01585Y22442D01*
D11*
G01X11150Y12250D02*
G01X09750Y12250D01*
D11*
G01X09750Y12250D02*
G01X09750Y12850D01*
D11*
G01X09750Y12850D02*
G01X11150Y12850D01*
D11*
G01X11150Y12850D02*
G01X11150Y12250D01*
D21*
G01X-01750Y18100D02*
G01X-01750Y18100D01*
G01X-01750Y18100D01*
G01X-01750Y18100D01*
G01X-01750Y18100D01*
G01X-01750Y18100D01*
G01X-01750Y18100D01*
G01X-01750Y18100D01*
G01X-01750Y18100D01*
G01X-01750Y18100D01*
G01X-01750Y18100D01*
G01X-01750Y18100D01*
G01X-01750Y18100D01*
G01X-01750Y18100D01*
G01X-01750Y18100D01*
G01X-01750Y18100D01*
D21*
G01X-01750Y18100D02*
G01X-01750Y18100D01*
G01X-01750Y18100D01*
G01X-01750Y18100D01*
G01X-01750Y18100D01*
G01X-01750Y18100D01*
G01X-01750Y18100D01*
G01X-01750Y18100D01*
G01X-01750Y18100D01*
G01X-01750Y18100D01*
G01X-01750Y18100D01*
G01X-01750Y18100D01*
D21*
G01X-01750Y18100D02*
G01X-01750Y18100D01*
D21*
G01X-01750Y18100D02*
G01X-01750Y18100D01*
G01X-01750Y18100D01*
G01X-01750Y18100D01*
G01X-01750Y18100D01*
D21*
G01X-01750Y18100D02*
G01X-01750Y18100D01*
G01X-01750Y18100D01*
G01X-01750Y18100D01*
G01X-01750Y18100D01*
G01X-01750Y18100D01*
G01X-01750Y18100D01*
G01X-01750Y18100D01*
G01X-01750Y18100D01*
G01X-01750Y18100D01*
G01X-01750Y18100D01*
G01X-01750Y18100D01*
G01X-01750Y18100D01*
D21*
G01X-01750Y18100D02*
G01X-01750Y18100D01*
G01X-01750Y18100D01*
G01X-01750Y18100D01*
G01X-01750Y18100D01*
D16*
G01X-01950Y12150D02*
G01X-01950Y13150D01*
D16*
G01X-01950Y13150D02*
G01X00050Y13150D01*
D16*
G01X00050Y13150D02*
G01X00050Y12150D01*
D16*
G01X00050Y12150D02*
G01X-01950Y12150D01*
D16*
G01X-02620Y13477D02*
G01X-02620Y13762D01*
D16*
G01X-02620Y13721D02*
G01X-02588Y13742D01*
G01X-02523Y13762D01*
G01X-02425Y13762D01*
G01X-02361Y13742D01*
G01X-02328Y13701D01*
G01X-02328Y13477D01*
D16*
G01X-02328Y13701D02*
G01X-02296Y13742D01*
G01X-02231Y13762D01*
G01X-02134Y13762D01*
G01X-02069Y13742D01*
G01X-02036Y13701D01*
G01X-02036Y13477D01*
D16*
G01X-01615Y13477D02*
G01X-01680Y13497D01*
G01X-01712Y13518D01*
G01X-01744Y13558D01*
G01X-01744Y13681D01*
G01X-01712Y13721D01*
G01X-01680Y13742D01*
G01X-01615Y13762D01*
G01X-01517Y13762D01*
G01X-01453Y13742D01*
G01X-01420Y13721D01*
G01X-01388Y13681D01*
G01X-01388Y13558D01*
G01X-01420Y13518D01*
G01X-01453Y13497D01*
G01X-01517Y13477D01*
G01X-01615Y13477D01*
D16*
G01X-01193Y13762D02*
G01X-00934Y13762D01*
D16*
G01X-01096Y13905D02*
G01X-01096Y13538D01*
G01X-01064Y13497D01*
G01X-00999Y13477D01*
G01X-00934Y13477D01*
D16*
G01X-00707Y13762D02*
G01X-00707Y13334D01*
D16*
G01X-00707Y13742D02*
G01X-00642Y13762D01*
G01X-00512Y13762D01*
G01X-00447Y13742D01*
G01X-00415Y13721D01*
G01X-00383Y13681D01*
G01X-00383Y13558D01*
G01X-00415Y13518D01*
G01X-00447Y13497D01*
G01X-00512Y13477D01*
G01X-00642Y13477D01*
G01X-00707Y13497D01*
D16*
G01X-00156Y13762D02*
G01X-00026Y13477D01*
G01X00104Y13681D01*
G01X00234Y13477D01*
G01X00363Y13762D01*
D16*
G01X00623Y13477D02*
G01X00623Y13762D01*
D16*
G01X00623Y13681D02*
G01X00655Y13721D01*
G01X00688Y13742D01*
G01X00752Y13762D01*
G01X00817Y13762D01*
D16*
G01X12350Y21450D02*
G01X13350Y21450D01*
D16*
G01X13350Y21450D02*
G01X13350Y18450D01*
D16*
G01X13350Y18450D02*
G01X12350Y18450D01*
D16*
G01X12350Y18450D02*
G01X12350Y21450D01*
D16*
G01X13350Y20450D02*
G01X12350Y20450D01*
D16*
G01X14022Y18355D02*
G01X13598Y18355D01*
G01X13900Y18590D01*
G01X13598Y18825D01*
G01X14022Y18825D01*
D16*
G01X13598Y19295D02*
G01X13598Y19430D01*
G01X13618Y19497D01*
G01X13658Y19564D01*
G01X13739Y19598D01*
G01X13880Y19598D01*
G01X13961Y19564D01*
G01X14001Y19497D01*
G01X14022Y19430D01*
G01X14022Y19295D01*
G01X14001Y19228D01*
G01X13961Y19161D01*
G01X13880Y19127D01*
G01X13739Y19127D01*
G01X13658Y19161D01*
G01X13618Y19228D01*
G01X13598Y19295D01*
D16*
G01X13598Y19799D02*
G01X13598Y20202D01*
D16*
G01X14022Y20000D02*
G01X13598Y20000D01*
D16*
G01X13598Y20571D02*
G01X13598Y20705D01*
G01X13618Y20772D01*
G01X13658Y20840D01*
G01X13739Y20873D01*
G01X13880Y20873D01*
G01X13961Y20840D01*
G01X14001Y20772D01*
G01X14022Y20705D01*
G01X14022Y20571D01*
G01X14001Y20504D01*
G01X13961Y20437D01*
G01X13880Y20403D01*
G01X13739Y20403D01*
G01X13658Y20437D01*
G01X13618Y20504D01*
G01X13598Y20571D01*
D16*
G01X14022Y21578D02*
G01X13820Y21343D01*
D16*
G01X14022Y21175D02*
G01X13598Y21175D01*
G01X13598Y21444D01*
G01X13618Y21511D01*
G01X13638Y21545D01*
G01X13678Y21578D01*
G01X13739Y21578D01*
G01X13779Y21545D01*
G01X13800Y21511D01*
G01X13820Y21444D01*
G01X13820Y21175D01*
D11*
G01X08650Y12250D02*
G01X07250Y12250D01*
D11*
G01X07250Y12250D02*
G01X07250Y12850D01*
D11*
G01X07250Y12850D02*
G01X08650Y12850D01*
D11*
G01X08650Y12850D02*
G01X08650Y12250D01*
D25*
G01X-03445Y13275D02*
G01X-03444Y13275D01*
G01X-03443Y13276D01*
G01X-03442Y13276D01*
G01X-03441Y13277D01*
G01X-03440Y13277D01*
G01X-03439Y13277D01*
G01X-03438Y13278D01*
G01X-03437Y13278D01*
G01X-03436Y13279D01*
G01X-03435Y13279D01*
G01X-03434Y13280D01*
G01X-03434Y13280D01*
G01X-03433Y13280D01*
G01X-03432Y13281D01*
G01X-03431Y13281D01*
G01X-03430Y13282D01*
G01X-03429Y13282D01*
G01X-03428Y13283D01*
G01X-03427Y13283D01*
G01X-03426Y13283D01*
G01X-03425Y13284D01*
G01X-03424Y13284D01*
G01X-03423Y13285D01*
G01X-03422Y13285D01*
G01X-03421Y13286D01*
G01X-03420Y13286D01*
G01X-03419Y13287D01*
G01X-03419Y13287D01*
G01X-03418Y13288D01*
G01X-03417Y13288D01*
G01X-03416Y13288D01*
G01X-03415Y13289D01*
G01X-03414Y13289D01*
G01X-03413Y13290D01*
G01X-03412Y13290D01*
G01X-03411Y13291D01*
G01X-03410Y13291D01*
G01X-03409Y13292D01*
G01X-03408Y13292D01*
G01X-03407Y13293D01*
G01X-03407Y13293D01*
G01X-03406Y13294D01*
G01X-03405Y13294D01*
G01X-03404Y13295D01*
G01X-03403Y13295D01*
G01X-03402Y13296D01*
G01X-03401Y13296D01*
G01X-03400Y13297D01*
G01X-03399Y13297D01*
G01X-03398Y13298D01*
G01X-03397Y13298D01*
G01X-03397Y13299D01*
G01X-03396Y13299D01*
G01X-03395Y13300D01*
G01X-03394Y13301D01*
G01X-03393Y13301D01*
G01X-03392Y13302D01*
G01X-03391Y13302D01*
G01X-03390Y13303D01*
G01X-03389Y13303D01*
G01X-03388Y13304D01*
G01X-03388Y13304D01*
G01X-03387Y13305D01*
G01X-03386Y13305D01*
D25*
G01X-03385Y13306D02*
G01X-03237Y13185D01*
D25*
G01X-03237Y13185D02*
G01X-03135Y13287D01*
D25*
G01X-03135Y13287D02*
G01X-03256Y13435D01*
D25*
G01X-03256Y13435D02*
G01X-03255Y13437D01*
G01X-03254Y13439D01*
G01X-03253Y13440D01*
G01X-03252Y13442D01*
G01X-03251Y13444D01*
G01X-03249Y13446D01*
G01X-03248Y13448D01*
G01X-03247Y13449D01*
G01X-03246Y13451D01*
G01X-03245Y13453D01*
G01X-03244Y13455D01*
G01X-03243Y13457D01*
G01X-03242Y13459D01*
G01X-03241Y13460D01*
G01X-03240Y13462D01*
G01X-03239Y13464D01*
G01X-03238Y13466D01*
G01X-03237Y13468D01*
G01X-03237Y13470D01*
G01X-03236Y13472D01*
G01X-03235Y13474D01*
G01X-03234Y13476D01*
G01X-03233Y13477D01*
G01X-03232Y13479D01*
G01X-03231Y13481D01*
G01X-03230Y13483D01*
G01X-03229Y13485D01*
G01X-03229Y13487D01*
G01X-03228Y13489D01*
G01X-03227Y13491D01*
G01X-03226Y13493D01*
G01X-03225Y13495D01*
G01X-03224Y13497D01*
G01X-03224Y13499D01*
G01X-03223Y13501D01*
G01X-03222Y13503D01*
G01X-03221Y13504D01*
G01X-03221Y13506D01*
G01X-03220Y13508D01*
G01X-03219Y13510D01*
G01X-03218Y13512D01*
G01X-03218Y13514D01*
G01X-03217Y13516D01*
G01X-03216Y13518D01*
G01X-03216Y13520D01*
G01X-03215Y13522D01*
G01X-03214Y13524D01*
G01X-03214Y13526D01*
G01X-03213Y13528D01*
G01X-03212Y13530D01*
G01X-03212Y13532D01*
G01X-03211Y13534D01*
G01X-03211Y13536D01*
G01X-03210Y13538D01*
G01X-03209Y13540D01*
G01X-03209Y13542D01*
G01X-03208Y13544D01*
G01X-03208Y13546D01*
G01X-03207Y13549D01*
G01X-03207Y13551D01*
G01X-03206Y13553D01*
G01X-03206Y13555D01*
G01X-03205Y13557D01*
G01X-03205Y13559D01*
D25*
G01X-03205Y13559D02*
G01X-03014Y13579D01*
D25*
G01X-03014Y13579D02*
G01X-03014Y13721D01*
D25*
G01X-03014Y13721D02*
G01X-03205Y13741D01*
D25*
G01X-03205Y13741D02*
G01X-03205Y13743D01*
G01X-03206Y13745D01*
G01X-03206Y13747D01*
G01X-03207Y13749D01*
G01X-03207Y13751D01*
G01X-03208Y13753D01*
G01X-03209Y13755D01*
G01X-03209Y13757D01*
G01X-03210Y13759D01*
G01X-03210Y13761D01*
G01X-03211Y13763D01*
G01X-03211Y13765D01*
G01X-03212Y13767D01*
G01X-03213Y13769D01*
G01X-03213Y13771D01*
G01X-03214Y13773D01*
G01X-03215Y13775D01*
G01X-03215Y13777D01*
G01X-03216Y13779D01*
G01X-03217Y13781D01*
G01X-03217Y13783D01*
G01X-03218Y13785D01*
G01X-03219Y13787D01*
G01X-03219Y13789D01*
G01X-03220Y13791D01*
G01X-03221Y13793D01*
G01X-03222Y13795D01*
G01X-03222Y13797D01*
G01X-03223Y13799D01*
G01X-03224Y13801D01*
G01X-03225Y13803D01*
G01X-03225Y13805D01*
G01X-03226Y13807D01*
G01X-03227Y13809D01*
G01X-03228Y13811D01*
G01X-03229Y13813D01*
G01X-03230Y13815D01*
G01X-03230Y13817D01*
G01X-03231Y13818D01*
G01X-03232Y13820D01*
G01X-03233Y13822D01*
G01X-03234Y13824D01*
G01X-03235Y13826D01*
G01X-03236Y13828D01*
G01X-03237Y13830D01*
G01X-03238Y13832D01*
G01X-03239Y13834D01*
G01X-03240Y13835D01*
G01X-03241Y13837D01*
G01X-03241Y13839D01*
G01X-03242Y13841D01*
G01X-03243Y13843D01*
G01X-03244Y13845D01*
G01X-03245Y13847D01*
G01X-03247Y13848D01*
G01X-03248Y13850D01*
G01X-03249Y13852D01*
G01X-03250Y13854D01*
G01X-03251Y13856D01*
G01X-03252Y13857D01*
G01X-03253Y13859D01*
G01X-03254Y13861D01*
G01X-03255Y13863D01*
G01X-03256Y13865D01*
D25*
G01X-03256Y13865D02*
G01X-03135Y14013D01*
D25*
G01X-03135Y14013D02*
G01X-03237Y14115D01*
D25*
G01X-03237Y14115D02*
G01X-03385Y13994D01*
D25*
G01X-03385Y13994D02*
G01X-03387Y13995D01*
G01X-03389Y13996D01*
G01X-03390Y13997D01*
G01X-03392Y13998D01*
G01X-03394Y13999D01*
G01X-03396Y14001D01*
G01X-03398Y14002D01*
G01X-03399Y14003D01*
G01X-03401Y14004D01*
G01X-03403Y14005D01*
G01X-03405Y14006D01*
G01X-03407Y14007D01*
G01X-03409Y14008D01*
G01X-03410Y14009D01*
G01X-03412Y14010D01*
G01X-03414Y14011D01*
G01X-03416Y14012D01*
G01X-03418Y14013D01*
G01X-03420Y14013D01*
G01X-03422Y14014D01*
G01X-03424Y14015D01*
G01X-03426Y14016D01*
G01X-03427Y14017D01*
G01X-03429Y14018D01*
G01X-03431Y14019D01*
G01X-03433Y14020D01*
G01X-03435Y14021D01*
G01X-03437Y14021D01*
G01X-03439Y14022D01*
G01X-03441Y14023D01*
G01X-03443Y14024D01*
G01X-03445Y14025D01*
G01X-03447Y14026D01*
G01X-03449Y14026D01*
G01X-03451Y14027D01*
G01X-03453Y14028D01*
G01X-03454Y14029D01*
G01X-03456Y14029D01*
G01X-03458Y14030D01*
G01X-03460Y14031D01*
G01X-03462Y14032D01*
G01X-03464Y14032D01*
G01X-03466Y14033D01*
G01X-03468Y14034D01*
G01X-03470Y14034D01*
G01X-03472Y14035D01*
G01X-03474Y14036D01*
G01X-03476Y14036D01*
G01X-03478Y14037D01*
G01X-03480Y14038D01*
G01X-03482Y14038D01*
G01X-03484Y14039D01*
G01X-03486Y14039D01*
G01X-03488Y14040D01*
G01X-03490Y14041D01*
G01X-03492Y14041D01*
G01X-03494Y14042D01*
G01X-03496Y14042D01*
G01X-03499Y14043D01*
G01X-03501Y14043D01*
G01X-03503Y14044D01*
G01X-03505Y14044D01*
G01X-03507Y14045D01*
G01X-03509Y14045D01*
D25*
G01X-03509Y14045D02*
G01X-03529Y14236D01*
D25*
G01X-03529Y14236D02*
G01X-03671Y14236D01*
D25*
G01X-03671Y14236D02*
G01X-03691Y14045D01*
D25*
G01X-03691Y14045D02*
G01X-03693Y14045D01*
G01X-03695Y14044D01*
G01X-03697Y14044D01*
G01X-03699Y14043D01*
G01X-03701Y14043D01*
G01X-03703Y14042D01*
G01X-03705Y14041D01*
G01X-03707Y14041D01*
G01X-03709Y14040D01*
G01X-03711Y14040D01*
G01X-03713Y14039D01*
G01X-03715Y14039D01*
G01X-03717Y14038D01*
G01X-03719Y14037D01*
G01X-03721Y14037D01*
G01X-03723Y14036D01*
G01X-03725Y14035D01*
G01X-03727Y14035D01*
G01X-03729Y14034D01*
G01X-03731Y14033D01*
G01X-03733Y14033D01*
G01X-03735Y14032D01*
G01X-03737Y14031D01*
G01X-03739Y14031D01*
G01X-03741Y14030D01*
G01X-03743Y14029D01*
G01X-03745Y14028D01*
G01X-03747Y14028D01*
G01X-03749Y14027D01*
G01X-03751Y14026D01*
G01X-03753Y14025D01*
G01X-03755Y14025D01*
G01X-03757Y14024D01*
G01X-03759Y14023D01*
G01X-03761Y14022D01*
G01X-03763Y14021D01*
G01X-03765Y14020D01*
G01X-03767Y14020D01*
G01X-03768Y14019D01*
G01X-03770Y14018D01*
G01X-03772Y14017D01*
G01X-03774Y14016D01*
G01X-03776Y14015D01*
G01X-03778Y14014D01*
G01X-03780Y14013D01*
G01X-03782Y14012D01*
G01X-03784Y14011D01*
G01X-03785Y14010D01*
G01X-03787Y14009D01*
G01X-03789Y14009D01*
G01X-03791Y14008D01*
G01X-03793Y14007D01*
G01X-03795Y14006D01*
G01X-03797Y14005D01*
G01X-03798Y14003D01*
G01X-03800Y14002D01*
G01X-03802Y14001D01*
G01X-03804Y14000D01*
G01X-03806Y13999D01*
G01X-03807Y13998D01*
G01X-03809Y13997D01*
G01X-03811Y13996D01*
G01X-03813Y13995D01*
G01X-03815Y13994D01*
D25*
G01X-03815Y13994D02*
G01X-03963Y14115D01*
D25*
G01X-03963Y14115D02*
G01X-04065Y14013D01*
D25*
G01X-04065Y14013D02*
G01X-03944Y13865D01*
D25*
G01X-03944Y13865D02*
G01X-03945Y13863D01*
G01X-03946Y13861D01*
G01X-03947Y13860D01*
G01X-03948Y13858D01*
G01X-03949Y13856D01*
G01X-03951Y13854D01*
G01X-03952Y13852D01*
G01X-03953Y13851D01*
G01X-03954Y13849D01*
G01X-03955Y13847D01*
G01X-03956Y13845D01*
G01X-03957Y13843D01*
G01X-03958Y13841D01*
G01X-03959Y13840D01*
G01X-03960Y13838D01*
G01X-03961Y13836D01*
G01X-03962Y13834D01*
G01X-03963Y13832D01*
G01X-03963Y13830D01*
G01X-03964Y13828D01*
G01X-03965Y13826D01*
G01X-03966Y13824D01*
G01X-03967Y13823D01*
G01X-03968Y13821D01*
G01X-03969Y13819D01*
G01X-03970Y13817D01*
G01X-03971Y13815D01*
G01X-03971Y13813D01*
G01X-03972Y13811D01*
G01X-03973Y13809D01*
G01X-03974Y13807D01*
G01X-03975Y13805D01*
G01X-03976Y13803D01*
G01X-03976Y13801D01*
G01X-03977Y13799D01*
G01X-03978Y13797D01*
G01X-03979Y13796D01*
G01X-03979Y13794D01*
G01X-03980Y13792D01*
G01X-03981Y13790D01*
G01X-03982Y13788D01*
G01X-03982Y13786D01*
G01X-03983Y13784D01*
G01X-03984Y13782D01*
G01X-03984Y13780D01*
G01X-03985Y13778D01*
G01X-03986Y13776D01*
G01X-03986Y13774D01*
G01X-03987Y13772D01*
G01X-03988Y13770D01*
G01X-03988Y13768D01*
G01X-03989Y13766D01*
G01X-03989Y13764D01*
G01X-03990Y13762D01*
G01X-03991Y13760D01*
G01X-03991Y13758D01*
G01X-03992Y13756D01*
G01X-03992Y13754D01*
G01X-03993Y13751D01*
G01X-03993Y13749D01*
G01X-03994Y13747D01*
G01X-03994Y13745D01*
G01X-03995Y13743D01*
G01X-03995Y13741D01*
D25*
G01X-03995Y13741D02*
G01X-04186Y13721D01*
D25*
G01X-04186Y13721D02*
G01X-04186Y13579D01*
D25*
G01X-04186Y13579D02*
G01X-03995Y13559D01*
D25*
G01X-03995Y13559D02*
G01X-03995Y13557D01*
G01X-03994Y13555D01*
G01X-03994Y13553D01*
G01X-03993Y13551D01*
G01X-03993Y13549D01*
G01X-03992Y13547D01*
G01X-03991Y13545D01*
G01X-03991Y13543D01*
G01X-03990Y13541D01*
G01X-03990Y13539D01*
G01X-03989Y13537D01*
G01X-03989Y13535D01*
G01X-03988Y13533D01*
G01X-03987Y13531D01*
G01X-03987Y13529D01*
G01X-03986Y13527D01*
G01X-03985Y13525D01*
G01X-03985Y13523D01*
G01X-03984Y13521D01*
G01X-03983Y13519D01*
G01X-03983Y13517D01*
G01X-03982Y13515D01*
G01X-03981Y13513D01*
G01X-03981Y13511D01*
G01X-03980Y13509D01*
G01X-03979Y13507D01*
G01X-03978Y13505D01*
G01X-03978Y13503D01*
G01X-03977Y13501D01*
G01X-03976Y13499D01*
G01X-03975Y13497D01*
G01X-03975Y13495D01*
G01X-03974Y13493D01*
G01X-03973Y13491D01*
G01X-03972Y13489D01*
G01X-03971Y13487D01*
G01X-03970Y13485D01*
G01X-03970Y13483D01*
G01X-03969Y13482D01*
G01X-03968Y13480D01*
G01X-03967Y13478D01*
G01X-03966Y13476D01*
G01X-03965Y13474D01*
G01X-03964Y13472D01*
G01X-03963Y13470D01*
G01X-03962Y13468D01*
G01X-03961Y13466D01*
G01X-03960Y13465D01*
G01X-03959Y13463D01*
G01X-03959Y13461D01*
G01X-03958Y13459D01*
G01X-03957Y13457D01*
G01X-03956Y13455D01*
G01X-03955Y13453D01*
G01X-03953Y13452D01*
G01X-03952Y13450D01*
G01X-03951Y13448D01*
G01X-03950Y13446D01*
G01X-03949Y13444D01*
G01X-03948Y13443D01*
G01X-03947Y13441D01*
G01X-03946Y13439D01*
G01X-03945Y13437D01*
G01X-03944Y13435D01*
D25*
G01X-03944Y13435D02*
G01X-04065Y13287D01*
D25*
G01X-04065Y13287D02*
G01X-03963Y13185D01*
D25*
G01X-03963Y13185D02*
G01X-03815Y13306D01*
D25*
G01X-03815Y13306D02*
G01X-03814Y13305D01*
G01X-03813Y13305D01*
G01X-03812Y13304D01*
G01X-03811Y13304D01*
G01X-03811Y13303D01*
G01X-03810Y13303D01*
G01X-03809Y13302D01*
G01X-03808Y13302D01*
G01X-03807Y13301D01*
G01X-03806Y13301D01*
G01X-03805Y13300D01*
G01X-03804Y13300D01*
G01X-03803Y13299D01*
G01X-03803Y13299D01*
G01X-03802Y13298D01*
G01X-03801Y13297D01*
G01X-03800Y13297D01*
G01X-03799Y13296D01*
G01X-03798Y13296D01*
G01X-03797Y13295D01*
G01X-03796Y13295D01*
G01X-03795Y13294D01*
G01X-03794Y13294D01*
G01X-03793Y13293D01*
G01X-03793Y13293D01*
G01X-03792Y13292D01*
G01X-03791Y13292D01*
G01X-03790Y13291D01*
G01X-03789Y13291D01*
G01X-03788Y13290D01*
G01X-03787Y13290D01*
G01X-03786Y13290D01*
G01X-03785Y13289D01*
G01X-03784Y13289D01*
G01X-03783Y13288D01*
G01X-03782Y13288D01*
G01X-03781Y13287D01*
G01X-03781Y13287D01*
G01X-03780Y13286D01*
G01X-03779Y13286D01*
G01X-03778Y13285D01*
G01X-03777Y13285D01*
G01X-03776Y13284D01*
G01X-03775Y13284D01*
G01X-03774Y13284D01*
G01X-03773Y13283D01*
G01X-03772Y13283D01*
G01X-03771Y13282D01*
G01X-03770Y13282D01*
G01X-03769Y13281D01*
G01X-03768Y13281D01*
G01X-03767Y13280D01*
G01X-03766Y13280D01*
G01X-03765Y13280D01*
G01X-03765Y13279D01*
G01X-03764Y13279D01*
G01X-03763Y13278D01*
G01X-03762Y13278D01*
G01X-03761Y13278D01*
G01X-03760Y13277D01*
G01X-03759Y13277D01*
G01X-03758Y13276D01*
G01X-03757Y13276D01*
G01X-03756Y13276D01*
D25*
G01X-03755Y13275D02*
G01X-03670Y13480D01*
D25*
G01X-03670Y13480D02*
G01X-03673Y13481D01*
G01X-03676Y13483D01*
G01X-03679Y13484D01*
G01X-03682Y13486D01*
G01X-03685Y13487D01*
G01X-03688Y13489D01*
G01X-03691Y13490D01*
G01X-03694Y13492D01*
G01X-03697Y13494D01*
G01X-03700Y13496D01*
G01X-03703Y13498D01*
G01X-03706Y13499D01*
G01X-03708Y13501D01*
G01X-03711Y13503D01*
G01X-03714Y13506D01*
G01X-03716Y13508D01*
G01X-03719Y13510D01*
G01X-03721Y13512D01*
G01X-03724Y13514D01*
G01X-03726Y13517D01*
G01X-03729Y13519D01*
G01X-03731Y13521D01*
G01X-03734Y13524D01*
G01X-03736Y13526D01*
G01X-03738Y13529D01*
G01X-03740Y13531D01*
G01X-03743Y13534D01*
G01X-03745Y13537D01*
G01X-03747Y13539D01*
G01X-03749Y13542D01*
G01X-03751Y13545D01*
G01X-03753Y13548D01*
G01X-03755Y13550D01*
G01X-03756Y13553D01*
G01X-03758Y13556D01*
G01X-03760Y13559D01*
G01X-03761Y13562D01*
G01X-03763Y13565D01*
G01X-03765Y13568D01*
G01X-03766Y13571D01*
G01X-03767Y13574D01*
G01X-03769Y13577D01*
G01X-03770Y13580D01*
G01X-03771Y13583D01*
G01X-03773Y13587D01*
G01X-03774Y13590D01*
G01X-03775Y13593D01*
G01X-03776Y13596D01*
G01X-03777Y13600D01*
G01X-03778Y13603D01*
G01X-03779Y13606D01*
G01X-03779Y13609D01*
G01X-03780Y13613D01*
G01X-03781Y13616D01*
G01X-03781Y13619D01*
G01X-03782Y13623D01*
G01X-03782Y13626D01*
G01X-03783Y13629D01*
G01X-03783Y13633D01*
G01X-03783Y13636D01*
G01X-03784Y13639D01*
G01X-03784Y13643D01*
G01X-03784Y13646D01*
G01X-03784Y13650D01*
D25*
G01X-03784Y13650D02*
G01X-03784Y13662D01*
G01X-03782Y13675D01*
G01X-03780Y13687D01*
G01X-03777Y13699D01*
G01X-03774Y13711D01*
G01X-03769Y13722D01*
G01X-03764Y13734D01*
G01X-03758Y13745D01*
G01X-03751Y13755D01*
G01X-03744Y13765D01*
G01X-03736Y13774D01*
G01X-03727Y13783D01*
G01X-03718Y13791D01*
G01X-03708Y13799D01*
G01X-03698Y13806D01*
G01X-03687Y13812D01*
G01X-03676Y13818D01*
G01X-03664Y13822D01*
G01X-03652Y13826D01*
G01X-03640Y13830D01*
G01X-03628Y13832D01*
G01X-03616Y13833D01*
G01X-03604Y13834D01*
G01X-03591Y13834D01*
G01X-03579Y13833D01*
G01X-03566Y13831D01*
G01X-03554Y13828D01*
G01X-03542Y13825D01*
G01X-03531Y13820D01*
G01X-03519Y13815D01*
G01X-03508Y13810D01*
G01X-03498Y13803D01*
G01X-03488Y13796D01*
G01X-03478Y13788D01*
G01X-03469Y13779D01*
G01X-03461Y13770D01*
G01X-03453Y13761D01*
G01X-03446Y13750D01*
G01X-03439Y13740D01*
G01X-03434Y13729D01*
G01X-03429Y13717D01*
G01X-03425Y13706D01*
G01X-03421Y13694D01*
G01X-03419Y13682D01*
G01X-03417Y13669D01*
G01X-03416Y13657D01*
G01X-03416Y13645D01*
G01X-03417Y13632D01*
G01X-03418Y13620D01*
G01X-03421Y13608D01*
G01X-03424Y13596D01*
G01X-03428Y13584D01*
G01X-03433Y13573D01*
G01X-03439Y13562D01*
G01X-03445Y13551D01*
G01X-03452Y13541D01*
G01X-03460Y13531D01*
G01X-03468Y13522D01*
G01X-03477Y13513D01*
G01X-03487Y13505D01*
G01X-03497Y13498D01*
G01X-03507Y13491D01*
G01X-03518Y13485D01*
G01X-03529Y13480D01*
D25*
G01X-03530Y13480D02*
G01X-03445Y13275D01*
D11*
G01X02400Y13350D02*
G01X02400Y14150D01*
D11*
G01X02450Y14300D02*
G01X02450Y13150D01*
D11*
G01X02500Y13050D02*
G01X02500Y14450D01*
D11*
G01X02550Y14600D02*
G01X02550Y12900D01*
D11*
G01X02600Y12800D02*
G01X02600Y14700D01*
D11*
G01X02650Y14750D02*
G01X02650Y12750D01*
D11*
G01X06250Y13750D02*
G01X06250Y13750D01*
G01X06249Y13798D01*
G01X06248Y13846D01*
G01X06245Y13893D01*
G01X06241Y13941D01*
G01X06235Y13989D01*
G01X06229Y14036D01*
G01X06221Y14083D01*
G01X06213Y14130D01*
G01X06203Y14177D01*
G01X06192Y14224D01*
G01X06179Y14270D01*
G01X06166Y14316D01*
G01X06152Y14362D01*
G01X06136Y14407D01*
G01X06119Y14452D01*
G01X06102Y14496D01*
G01X06083Y14540D01*
G01X06063Y14584D01*
G01X06042Y14627D01*
G01X06020Y14669D01*
G01X05997Y14711D01*
G01X05973Y14753D01*
G01X05947Y14793D01*
G01X05921Y14833D01*
G01X05894Y14873D01*
G01X05866Y14912D01*
G01X05837Y14950D01*
G01X05807Y14987D01*
G01X05777Y15024D01*
G01X05745Y15060D01*
G01X05712Y15095D01*
G01X05679Y15129D01*
G01X05645Y15162D01*
G01X05610Y15195D01*
G01X05574Y15227D01*
G01X05537Y15257D01*
G01X05500Y15287D01*
G01X05462Y15316D01*
G01X05423Y15344D01*
G01X05383Y15371D01*
G01X05343Y15397D01*
G01X05303Y15423D01*
G01X05261Y15447D01*
G01X05219Y15470D01*
G01X05177Y15492D01*
G01X05134Y15513D01*
G01X05090Y15533D01*
G01X05046Y15552D01*
G01X05002Y15569D01*
G01X04957Y15586D01*
G01X04912Y15602D01*
G01X04866Y15616D01*
G01X04820Y15629D01*
G01X04774Y15642D01*
G01X04727Y15653D01*
G01X04680Y15663D01*
G01X04633Y15671D01*
G01X04586Y15679D01*
G01X04539Y15685D01*
G01X04491Y15691D01*
G01X04443Y15695D01*
G01X04396Y15698D01*
G01X04348Y15699D01*
G01X04300Y15700D01*
G01X04252Y15699D01*
G01X04204Y15698D01*
G01X04157Y15695D01*
G01X04109Y15691D01*
G01X04061Y15685D01*
G01X04014Y15679D01*
G01X03967Y15671D01*
G01X03920Y15663D01*
G01X03873Y15653D01*
G01X03826Y15642D01*
G01X03780Y15629D01*
G01X03734Y15616D01*
G01X03688Y15602D01*
G01X03643Y15586D01*
G01X03598Y15569D01*
G01X03554Y15552D01*
G01X03510Y15533D01*
G01X03466Y15513D01*
G01X03423Y15492D01*
G01X03381Y15470D01*
G01X03339Y15447D01*
G01X03297Y15423D01*
G01X03257Y15397D01*
G01X03217Y15371D01*
G01X03177Y15344D01*
G01X03138Y15316D01*
G01X03100Y15287D01*
G01X03063Y15257D01*
G01X03026Y15227D01*
G01X02990Y15195D01*
G01X02955Y15162D01*
G01X02921Y15129D01*
G01X02888Y15095D01*
G01X02855Y15060D01*
G01X02823Y15024D01*
G01X02793Y14987D01*
G01X02763Y14950D01*
G01X02734Y14912D01*
G01X02706Y14873D01*
G01X02679Y14833D01*
G01X02653Y14793D01*
G01X02627Y14753D01*
G01X02603Y14711D01*
G01X02580Y14669D01*
G01X02558Y14627D01*
G01X02537Y14584D01*
G01X02517Y14540D01*
G01X02498Y14496D01*
G01X02481Y14452D01*
G01X02464Y14407D01*
G01X02448Y14362D01*
G01X02434Y14316D01*
G01X02421Y14270D01*
G01X02408Y14224D01*
G01X02397Y14177D01*
G01X02387Y14130D01*
G01X02379Y14083D01*
G01X02371Y14036D01*
G01X02365Y13989D01*
G01X02359Y13941D01*
G01X02355Y13893D01*
G01X02352Y13846D01*
G01X02351Y13798D01*
G01X02350Y13750D01*
G01X02351Y13702D01*
G01X02352Y13654D01*
G01X02355Y13607D01*
G01X02359Y13559D01*
G01X02365Y13511D01*
G01X02371Y13464D01*
G01X02379Y13417D01*
G01X02387Y13370D01*
G01X02397Y13323D01*
G01X02408Y13276D01*
G01X02421Y13230D01*
G01X02434Y13184D01*
G01X02448Y13138D01*
G01X02464Y13093D01*
G01X02481Y13048D01*
G01X02498Y13004D01*
G01X02517Y12960D01*
G01X02537Y12916D01*
G01X02558Y12873D01*
G01X02580Y12831D01*
G01X02603Y12789D01*
G01X02627Y12747D01*
G01X02653Y12707D01*
G01X02679Y12667D01*
G01X02706Y12627D01*
G01X02734Y12588D01*
G01X02763Y12550D01*
G01X02793Y12513D01*
G01X02823Y12476D01*
G01X02855Y12440D01*
G01X02888Y12405D01*
G01X02921Y12371D01*
G01X02955Y12338D01*
G01X02990Y12305D01*
G01X03026Y12273D01*
G01X03063Y12243D01*
G01X03100Y12213D01*
G01X03138Y12184D01*
G01X03177Y12156D01*
G01X03217Y12129D01*
G01X03257Y12103D01*
G01X03297Y12077D01*
G01X03339Y12053D01*
G01X03381Y12030D01*
G01X03423Y12008D01*
G01X03466Y11987D01*
G01X03510Y11967D01*
G01X03554Y11948D01*
G01X03598Y11931D01*
G01X03643Y11914D01*
G01X03688Y11898D01*
G01X03734Y11884D01*
G01X03780Y11871D01*
G01X03826Y11858D01*
G01X03873Y11847D01*
G01X03920Y11837D01*
G01X03967Y11829D01*
G01X04014Y11821D01*
G01X04061Y11815D01*
G01X04109Y11809D01*
G01X04157Y11805D01*
G01X04204Y11802D01*
G01X04252Y11801D01*
G01X04300Y11800D01*
G01X04348Y11801D01*
G01X04396Y11802D01*
G01X04443Y11805D01*
G01X04491Y11809D01*
G01X04539Y11815D01*
G01X04586Y11821D01*
G01X04633Y11829D01*
G01X04680Y11837D01*
G01X04727Y11847D01*
G01X04774Y11858D01*
G01X04820Y11871D01*
G01X04866Y11884D01*
G01X04912Y11898D01*
G01X04957Y11914D01*
G01X05002Y11931D01*
G01X05046Y11948D01*
G01X05090Y11967D01*
G01X05134Y11987D01*
G01X05177Y12008D01*
G01X05219Y12030D01*
G01X05261Y12053D01*
G01X05303Y12077D01*
G01X05343Y12103D01*
G01X05383Y12129D01*
G01X05423Y12156D01*
G01X05462Y12184D01*
G01X05500Y12213D01*
G01X05537Y12243D01*
G01X05574Y12273D01*
G01X05610Y12305D01*
G01X05645Y12338D01*
G01X05679Y12371D01*
G01X05712Y12405D01*
G01X05745Y12440D01*
G01X05777Y12476D01*
G01X05807Y12513D01*
G01X05837Y12550D01*
G01X05866Y12588D01*
G01X05894Y12627D01*
G01X05921Y12667D01*
G01X05947Y12707D01*
G01X05973Y12747D01*
G01X05997Y12789D01*
G01X06020Y12831D01*
G01X06042Y12873D01*
G01X06063Y12916D01*
G01X06083Y12960D01*
G01X06102Y13004D01*
G01X06119Y13048D01*
G01X06136Y13093D01*
G01X06152Y13138D01*
G01X06166Y13184D01*
G01X06179Y13230D01*
G01X06192Y13276D01*
G01X06203Y13323D01*
G01X06213Y13370D01*
G01X06221Y13417D01*
G01X06229Y13464D01*
G01X06235Y13511D01*
G01X06241Y13559D01*
G01X06245Y13607D01*
G01X06248Y13654D01*
G01X06249Y13702D01*
G01X06250Y13750D01*
D11*
G01X02250Y15800D02*
G01X02250Y11700D01*
D11*
G01X02250Y11700D02*
G01X06050Y11700D01*
D11*
G01X06050Y11700D02*
G01X06350Y12000D01*
D11*
G01X06350Y12000D02*
G01X06350Y15500D01*
D11*
G01X06350Y15500D02*
G01X06050Y15800D01*
D11*
G01X06050Y15800D02*
G01X02250Y15800D01*
D11*
G01X06100Y13750D02*
G01X05800Y13750D01*
D11*
G01X05950Y13900D02*
G01X05950Y13600D01*
D28*
G01X03981Y15970D02*
G01X03868Y15970D01*
D28*
G01X03925Y15970D02*
G01X03925Y16167D01*
G01X03906Y16139D01*
G01X03887Y16120D01*
G01X03868Y16111D01*
D28*
G01X04103Y16167D02*
G01X04122Y16167D01*
G01X04141Y16158D01*
G01X04150Y16148D01*
G01X04159Y16130D01*
G01X04169Y16092D01*
G01X04169Y16045D01*
G01X04159Y16008D01*
G01X04150Y15989D01*
G01X04141Y15980D01*
G01X04122Y15970D01*
G01X04103Y15970D01*
G01X04084Y15980D01*
G01X04075Y15989D01*
G01X04065Y16008D01*
G01X04056Y16045D01*
G01X04056Y16092D01*
G01X04065Y16130D01*
G01X04075Y16148D01*
G01X04084Y16158D01*
G01X04103Y16167D01*
D28*
G01X04291Y16167D02*
G01X04309Y16167D01*
G01X04328Y16158D01*
G01X04338Y16148D01*
G01X04347Y16130D01*
G01X04356Y16092D01*
G01X04356Y16045D01*
G01X04347Y16008D01*
G01X04338Y15989D01*
G01X04328Y15980D01*
G01X04309Y15970D01*
G01X04291Y15970D01*
G01X04272Y15980D01*
G01X04262Y15989D01*
G01X04253Y16008D01*
G01X04244Y16045D01*
G01X04244Y16092D01*
G01X04253Y16130D01*
G01X04262Y16148D01*
G01X04272Y16158D01*
G01X04291Y16167D01*
D28*
G01X04441Y15970D02*
G01X04441Y16102D01*
D28*
G01X04441Y16083D02*
G01X04450Y16092D01*
G01X04469Y16102D01*
G01X04497Y16102D01*
G01X04516Y16092D01*
G01X04525Y16073D01*
G01X04525Y15970D01*
D28*
G01X04525Y16073D02*
G01X04535Y16092D01*
G01X04553Y16102D01*
G01X04581Y16102D01*
G01X04600Y16092D01*
G01X04610Y16073D01*
G01X04610Y15970D01*
D28*
G01X04675Y16102D02*
G01X04750Y16102D01*
D28*
G01X04703Y15970D02*
G01X04703Y16139D01*
G01X04713Y16158D01*
G01X04732Y16167D01*
G01X04750Y16167D01*
D16*
G01X-05700Y19150D02*
G01X-04700Y19150D01*
D16*
G01X-04700Y19150D02*
G01X-04700Y17150D01*
D16*
G01X-04700Y17150D02*
G01X-05700Y17150D01*
D16*
G01X-05700Y17150D02*
G01X-05700Y19150D01*
D16*
G01X-04047Y16837D02*
G01X-04027Y16902D01*
G01X-04027Y17031D01*
G01X-04047Y17096D01*
G01X-04088Y17128D01*
G01X-04108Y17128D01*
G01X-04149Y17096D01*
G01X-04169Y17031D01*
G01X-04169Y16934D01*
G01X-04190Y16869D01*
G01X-04231Y16837D01*
G01X-04251Y16837D01*
G01X-04292Y16869D01*
G01X-04312Y16934D01*
G01X-04312Y17031D01*
G01X-04292Y17096D01*
D16*
G01X-04047Y17680D02*
G01X-04027Y17615D01*
G01X-04027Y17485D01*
G01X-04047Y17420D01*
G01X-04088Y17388D01*
G01X-04251Y17388D01*
G01X-04292Y17420D01*
G01X-04312Y17485D01*
G01X-04312Y17615D01*
G01X-04292Y17680D01*
G01X-04251Y17712D01*
G01X-04210Y17712D01*
G01X-04169Y17388D01*
D16*
G01X-04312Y18004D02*
G01X-04027Y18004D01*
D16*
G01X-04271Y18004D02*
G01X-04292Y18036D01*
G01X-04312Y18101D01*
G01X-04312Y18199D01*
G01X-04292Y18263D01*
G01X-04251Y18296D01*
G01X-04027Y18296D01*
D16*
G01X-04047Y18588D02*
G01X-04027Y18653D01*
G01X-04027Y18782D01*
G01X-04047Y18847D01*
G01X-04088Y18880D01*
G01X-04108Y18880D01*
G01X-04149Y18847D01*
G01X-04169Y18782D01*
G01X-04169Y18685D01*
G01X-04190Y18620D01*
G01X-04231Y18588D01*
G01X-04251Y18588D01*
G01X-04292Y18620D01*
G01X-04312Y18685D01*
G01X-04312Y18782D01*
G01X-04292Y18847D01*
D16*
G01X-04047Y19431D02*
G01X-04027Y19366D01*
G01X-04027Y19236D01*
G01X-04047Y19171D01*
G01X-04088Y19139D01*
G01X-04251Y19139D01*
G01X-04292Y19171D01*
G01X-04312Y19236D01*
G01X-04312Y19366D01*
G01X-04292Y19431D01*
G01X-04251Y19463D01*
G01X-04210Y19463D01*
G01X-04169Y19139D01*
D11*
G01X12600Y14650D02*
G01X13500Y14650D01*
D11*
G01X13500Y14650D02*
G01X13500Y15300D01*
D11*
G01X12600Y16000D02*
G01X12600Y16650D01*
D11*
G01X12600Y16650D02*
G01X13500Y16650D01*
D11*
G01X13500Y16650D02*
G01X13500Y16000D01*
D11*
G01X12600Y15300D02*
G01X12600Y14650D01*
D11*
G01X13171Y14900D02*
G01X12971Y14900D01*
D11*
G01X13029Y14900D02*
G01X13000Y14914D01*
G01X12986Y14929D01*
G01X12971Y14957D01*
G01X12971Y14986D01*
D11*
G01X13200Y15014D02*
G01X13200Y15243D01*
D11*
G01X13171Y15471D02*
G01X13171Y15300D01*
D11*
G01X13171Y15386D02*
G01X12871Y15386D01*
G01X12914Y15357D01*
G01X12943Y15329D01*
G01X12957Y15300D01*
D11*
G01X13171Y15643D02*
G01X13157Y15614D01*
G01X13143Y15600D01*
G01X13114Y15586D01*
G01X13029Y15586D01*
G01X13000Y15600D01*
G01X12986Y15614D01*
G01X12971Y15643D01*
G01X12971Y15686D01*
G01X12986Y15714D01*
G01X13000Y15729D01*
G01X13029Y15743D01*
G01X13114Y15743D01*
G01X13143Y15729D01*
G01X13157Y15714D01*
G01X13171Y15686D01*
G01X13171Y15643D01*
D11*
G01X13171Y15871D02*
G01X12871Y15871D01*
D11*
G01X13171Y16000D02*
G01X13014Y16000D01*
G01X12986Y15986D01*
G01X12971Y15957D01*
G01X12971Y15914D01*
G01X12986Y15886D01*
G01X13000Y15871D01*
D11*
G01X13171Y16143D02*
G01X12971Y16143D01*
D11*
G01X13000Y16143D02*
G01X12986Y16157D01*
G01X12971Y16186D01*
G01X12971Y16229D01*
G01X12986Y16257D01*
G01X13014Y16271D01*
G01X13171Y16271D01*
D11*
G01X13014Y16271D02*
G01X12986Y16286D01*
G01X12971Y16314D01*
G01X12971Y16357D01*
G01X12986Y16386D01*
G01X13014Y16400D01*
G01X13171Y16400D01*
M02*
