<?xml version="1.0" encoding="UTF-8" standalone="no"?>
<!-- Created with Inkscape (http://www.inkscape.org/) -->

<svg
   xmlns:dc="http://purl.org/dc/elements/1.1/"
   xmlns:cc="http://creativecommons.org/ns#"
   xmlns:rdf="http://www.w3.org/1999/02/22-rdf-syntax-ns#"
   xmlns:svg="http://www.w3.org/2000/svg"
   xmlns="http://www.w3.org/2000/svg"
   xmlns:sodipodi="http://sodipodi.sourceforge.net/DTD/sodipodi-0.dtd"
   xmlns:inkscape="http://www.inkscape.org/namespaces/inkscape"
   width="210mm"
   height="297mm"
   viewBox="0 0 210 297"
   version="1.1"
   id="svg850"
   inkscape:version="0.92.5 (2060ec1f9f, 2020-04-08)"
   sodipodi:docname="ribbon7_front.svg">
  <defs
     id="defs844" />
  <sodipodi:namedview
     id="base"
     pagecolor="#ffffff"
     bordercolor="#666666"
     borderopacity="1.0"
     inkscape:pageopacity="0.0"
     inkscape:pageshadow="2"
     inkscape:zoom="0.7"
     inkscape:cx="196.71378"
     inkscape:cy="407.2901"
     inkscape:document-units="mm"
     inkscape:current-layer="layer1"
     showgrid="false"
     inkscape:window-width="1920"
     inkscape:window-height="1152"
     inkscape:window-x="0"
     inkscape:window-y="0"
     inkscape:window-maximized="1" />
  <metadata
     id="metadata847">
    <rdf:RDF>
      <cc:Work
         rdf:about="">
        <dc:format>image/svg+xml</dc:format>
        <dc:type
           rdf:resource="http://purl.org/dc/dcmitype/StillImage" />
        <dc:title></dc:title>
      </cc:Work>
    </rdf:RDF>
  </metadata>
  <g
     inkscape:label="Layer 1"
     inkscape:groupmode="layer"
     id="layer1">
    <path
       inkscape:connector-curvature="0"
       style="fill:none;stroke:#000000;stroke-width:1;stroke-linecap:round;stroke-linejoin:round;stroke-miterlimit:4;stroke-dasharray:none;stroke-opacity:1"
       d="m 10.725388,243.40348 h 26.650854 v 0 -26.65085 0 -26.65085 0 h 26.650812 v 0 -26.65081 0 -26.65085 0 h 26.65085 v -26.65085 h -26.65085 v 0 H 37.376242 v 0 26.65085 0 26.65085 0 H 10.725388 v 0 26.65081 0 26.65085 0 26.65085"
       id="path2" />
    <path
       inkscape:connector-curvature="0"
       style="fill:none;stroke:#000000;stroke-width:1;stroke-linecap:round;stroke-linejoin:round;stroke-miterlimit:4;stroke-dasharray:none;stroke-opacity:1"
       d="m 37.374838,243.40348 h 26.65085 v 0 H 90.6765 v 0 h 26.65085 v 0 h 26.65085 v 0 -26.65085 0 h 26.65085 v 0 -26.65085 -26.65081 H 143.9782 v 0 26.65081 0 h -26.65085 v 0 26.65085 0 H 90.6765 v 0 H 64.025688 v 0 h -26.65085 v 0 26.65085"
       id="path4" />
    <path
       inkscape:connector-curvature="0"
       style="fill:none;stroke:#000000;stroke-width:1;stroke-linecap:round;stroke-linejoin:round;stroke-miterlimit:4;stroke-dasharray:none;stroke-opacity:1"
       d="m 37.374838,216.75968 h 26.65085 v 0 H 90.6765 v 0 h 26.65085 v 0 -26.65085 0 h 26.65085 v 0 -26.65085 0 h 26.65085 V 136.80714 H 143.9782 v 0 h -26.65085 v 0 26.65084 0 H 90.6765 v 0 26.65085 0 H 64.025688 v 0 h -26.65085 v 0 26.65085"
       id="path6" />
    <path
       inkscape:connector-curvature="0"
       style="fill:none;stroke:#000000;stroke-width:1;stroke-linecap:round;stroke-linejoin:round;stroke-miterlimit:4;stroke-dasharray:none;stroke-opacity:1"
       d="m 10.725388,163.45798 h 26.650854 v 0 -26.65084 0 -26.65082 0 -26.650851 0 h 26.650812 v 0 h 26.65085 v 0 H 117.32875 V 56.854619 H 90.677904 v 0 h -26.65085 v 0 H 37.376242 v 0 H 10.725388 v 0 26.65085 0 26.650851 0 26.65082 0 26.65084"
       id="path8" />
    <path
       inkscape:connector-curvature="0"
       style="fill:none;stroke:#000000;stroke-width:1;stroke-linecap:round;stroke-linejoin:round;stroke-miterlimit:4;stroke-dasharray:none;stroke-opacity:1"
       d="m 64.024266,190.10883 h 26.650813 v 0 -26.65085 0 h 26.650851 v 0 -26.65084 0 h 26.65087 v 0 h 26.65085 v 0 -26.65082 -26.650851 H 143.9768 v 0 26.650851 0 h -26.65087 v 0 H 90.675079 v 0 26.65082 0 H 64.024266 v 0 26.65084 0 26.65085"
       id="path10" />
    <path
       inkscape:connector-curvature="0"
       style="fill:none;stroke:#000000;stroke-width:1;stroke-linecap:round;stroke-linejoin:round;stroke-miterlimit:4;stroke-dasharray:none;stroke-opacity:1"
       d="M 143.97115,243.40348 H 170.622 v 0 h 26.65085 v 0 -26.65085 0 -26.65085 0 -26.65081 0 -26.65085 0 -26.65085 -26.650855 H 170.622 v 0 26.650855 0 26.65085 0 26.65085 0 26.65081 0 26.65085 0 h -26.65085 v 0 26.65085"
       id="path12" />
    <path
       inkscape:connector-curvature="0"
       style="fill:none;stroke:#000000;stroke-width:1;stroke-linecap:round;stroke-linejoin:round;stroke-miterlimit:4;stroke-dasharray:none;stroke-opacity:1"
       d="m 37.374838,110.16336 h 26.65085 v 0 H 90.6765 v 0 h 26.65085 v 0 h 26.65085 v 0 -26.650819 0 h 26.65085 v 0 H 197.2799 V 56.861692 h -26.65085 v 0 H 143.9782 v 0 h -26.65085 v 0 26.650849 0 H 90.6765 v 0 H 64.025688 v 0 h -26.65085 v 0 26.650819"
       id="path14" />
    <circle
       style="fill:#ff7272;fill-opacity:0.64285715;stroke:none;stroke-width:1;stroke-linecap:round;stroke-linejoin:round;stroke-miterlimit:4;stroke-dasharray:none;stroke-dashoffset:0;stroke-opacity:1"
       id="path1415"
       cx="23.849926"
       cy="229.91478"
       r="8.6934528" />
    <circle
       style="fill:#ff7272;fill-opacity:0.64285715;stroke:none;stroke-width:1;stroke-linecap:round;stroke-linejoin:round;stroke-miterlimit:4;stroke-dasharray:none;stroke-dashoffset:0;stroke-opacity:1"
       id="path1415-1"
       cx="50.081844"
       cy="203.63988"
       r="8.6934528" />
    <circle
       style="fill:#ff7272;fill-opacity:0.64285715;stroke:none;stroke-width:1;stroke-linecap:round;stroke-linejoin:round;stroke-miterlimit:4;stroke-dasharray:none;stroke-dashoffset:0;stroke-opacity:1"
       id="path1415-5"
       cx="77.296135"
       cy="176.4256"
       r="8.6934528" />
    <circle
       style="fill:#ff7272;fill-opacity:0.64285715;stroke:none;stroke-width:1;stroke-linecap:round;stroke-linejoin:round;stroke-miterlimit:4;stroke-dasharray:none;stroke-dashoffset:0;stroke-opacity:1"
       id="path1415-9"
       cx="23.812502"
       cy="150.53423"
       r="8.6934528" />
    <circle
       style="fill:#ff7272;fill-opacity:0.64285715;stroke:none;stroke-width:1;stroke-linecap:round;stroke-linejoin:round;stroke-miterlimit:4;stroke-dasharray:none;stroke-dashoffset:0;stroke-opacity:1"
       id="path1415-8"
       cx="157.61607"
       cy="230.66518"
       r="8.6934528" />
    <circle
       style="fill:#ff7272;fill-opacity:0.64285715;stroke:none;stroke-width:1;stroke-linecap:round;stroke-linejoin:round;stroke-miterlimit:4;stroke-dasharray:none;stroke-dashoffset:0;stroke-opacity:1"
       id="path1415-4"
       cx="50.648811"
       cy="96.861603"
       r="8.6934528" />
    <circle
       style="fill:#ff7272;fill-opacity:0.64285715;stroke:none;stroke-width:1;stroke-linecap:round;stroke-linejoin:round;stroke-miterlimit:4;stroke-dasharray:none;stroke-dashoffset:0;stroke-opacity:1"
       id="path1415-81"
       cx="49.712132"
       cy="230.58353"
       r="8.6934528" />
    <path
       style="fill:none;stroke:#ad6ee9;stroke-width:2;stroke-linecap:round;stroke-linejoin:miter;stroke-opacity:1;stroke-miterlimit:4;stroke-dasharray:2,4;stroke-dashoffset:0"
       d="m 2.1665262,208.45224 22.6377988,22.6378 20.929284,20.92928"
       id="path1470"
       inkscape:connector-curvature="0" />
    <path
       style="fill:#ad6ee9;stroke:#ad6ee9;stroke-width:2.00000006;stroke-linecap:round;stroke-linejoin:miter;stroke-opacity:1;stroke-miterlimit:4;stroke-dasharray:2.00000006, 4.00000011000000022;stroke-dashoffset:0;fill-opacity:1"
       d="M 2.3994657,183.64426 44.402399,225.64719 70.43832,251.68311"
       id="path1472"
       inkscape:connector-curvature="0" />
    <path
       style="fill:none;stroke:#ad6ee9;stroke-width:2.00000006;stroke-linecap:round;stroke-linejoin:miter;stroke-opacity:1;stroke-miterlimit:4;stroke-dasharray:2.00000006, 4.00000011000000022;stroke-dashoffset:0"
       d="m 2.3018358,156.14335 41.3969222,41.39692 54.614747,54.61474"
       id="path1474"
       inkscape:connector-curvature="0" />
    <path
       style="fill:none;stroke:#ad6ee9;stroke-width:2.00000006;stroke-linecap:round;stroke-linejoin:miter;stroke-opacity:1;stroke-miterlimit:4;stroke-dasharray:2.00000006, 4.00000011000000022;stroke-dashoffset:0"
       d="M 2.2168011,129.22201 22.385613,149.39082 125.35889,252.3641"
       id="path1476"
       inkscape:connector-curvature="0" />
    <path
       style="fill:none;stroke:#ad6ee9;stroke-width:2.00000006;stroke-linecap:round;stroke-linejoin:miter;stroke-opacity:1;stroke-miterlimit:4;stroke-dasharray:2.00000006, 4.00000011000000022;stroke-dashoffset:0"
       d="m 2.1969505,101.68477 68.4781065,68.4781 82.344773,82.34478"
       id="path1478"
       inkscape:connector-curvature="0" />
    <path
       style="fill:none;stroke:#ad6ee9;stroke-width:2.00000006;stroke-linecap:round;stroke-linejoin:miter;stroke-opacity:1;stroke-miterlimit:4;stroke-dasharray:2.00000006, 4.00000011000000022;stroke-dashoffset:0"
       d="M 179.30256,252.86523 151.44479,225.00747 2.3822924,75.944973"
       id="path1480"
       inkscape:connector-curvature="0" />
    <path
       style="fill:none;stroke:#ad6ee9;stroke-width:2.00000006;stroke-linecap:round;stroke-linejoin:miter;stroke-opacity:1;stroke-miterlimit:4;stroke-dasharray:2.00000006, 4.00000011000000022;stroke-dashoffset:0"
       d="M 2.3196514,48.888103 50.911686,97.480138 206.16322,252.73167"
       id="path1482"
       inkscape:connector-curvature="0" />
  </g>
</svg>
