<?xml version="1.0" encoding="UTF-8" standalone="no"?>
<!-- Created with Inkscape (http://www.inkscape.org/) -->

<svg
   xmlns:dc="http://purl.org/dc/elements/1.1/"
   xmlns:cc="http://creativecommons.org/ns#"
   xmlns:rdf="http://www.w3.org/1999/02/22-rdf-syntax-ns#"
   xmlns:svg="http://www.w3.org/2000/svg"
   xmlns="http://www.w3.org/2000/svg"
   xmlns:sodipodi="http://sodipodi.sourceforge.net/DTD/sodipodi-0.dtd"
   xmlns:inkscape="http://www.inkscape.org/namespaces/inkscape"
   width="210mm"
   height="297mm"
   viewBox="0 0 210 297"
   version="1.1"
   id="svg1509"
   inkscape:version="0.92.5 (2060ec1f9f, 2020-04-08)"
   sodipodi:docname="ribbon7_wavefront_b.svg">
  <defs
     id="defs1503" />
  <sodipodi:namedview
     id="base"
     pagecolor="#ffffff"
     bordercolor="#666666"
     borderopacity="1.0"
     inkscape:pageopacity="0.0"
     inkscape:pageshadow="2"
     inkscape:zoom="1.979899"
     inkscape:cx="380.9517"
     inkscape:cy="347.74498"
     inkscape:document-units="mm"
     inkscape:current-layer="layer1"
     showgrid="false"
     inkscape:window-width="1541"
     inkscape:window-height="992"
     inkscape:window-x="2072"
     inkscape:window-y="20"
     inkscape:window-maximized="0" />
  <metadata
     id="metadata1506">
    <rdf:RDF>
      <cc:Work
         rdf:about="">
        <dc:format>image/svg+xml</dc:format>
        <dc:type
           rdf:resource="http://purl.org/dc/dcmitype/StillImage" />
        <dc:title></dc:title>
      </cc:Work>
    </rdf:RDF>
  </metadata>
  <g
     inkscape:label="Layer 1"
     inkscape:groupmode="layer"
     id="layer1">
    <path
       inkscape:connector-curvature="0"
       style="fill:none;stroke:#000000;stroke-width:0.70312715;stroke-linecap:round;stroke-linejoin:round;stroke-miterlimit:4;stroke-dasharray:none;stroke-opacity:1"
       d="m 106.8907,236.63607 13.25043,-13.25044 v 0 L 106.8907,210.13521 v 0 L 93.640271,196.88479 v 0 l 13.250409,-13.25041 v 0 L 93.640273,170.38397 v 0 L 80.389844,157.13353 v 0 L 93.640274,143.8831 80.389844,130.63267 67.139415,143.8831 v 0 l -13.25041,13.25041 v 0 l 13.250428,13.25043 v 0 l 13.250429,13.25044 v 0 l -13.25043,13.25042 v 0 l 13.25041,13.25041 v 0 l 13.250428,13.25042 v 0 l 13.25043,13.25044"
       id="path2" />
    <path
       inkscape:connector-curvature="0"
       style="fill:none;stroke:#000000;stroke-width:0.70312715;stroke-linecap:round;stroke-linejoin:round;stroke-miterlimit:4;stroke-dasharray:none;stroke-opacity:1"
       d="m 120.14043,223.38634 13.25043,-13.25044 v 0 l 13.25041,-13.25041 v 0 l 13.25043,-13.25042 v 0 l 13.25043,-13.25043 v 0 L 159.8917,157.1342 v 0 l 13.25043,-13.25041 v 0 l -13.25043,-13.25043 -13.25041,-13.25041 -13.25043,13.25043 v 0 l 13.25041,13.25041 v 0 l -13.25043,13.25042 v 0 l 13.25042,13.25043 v 0 l -13.25042,13.25043 v 0 l -13.25041,13.25041 v 0 L 106.89,210.1359 v 0 l 13.25043,13.25044"
       id="path4" />
    <path
       inkscape:connector-curvature="0"
       style="fill:none;stroke:#000000;stroke-width:0.70312715;stroke-linecap:round;stroke-linejoin:round;stroke-miterlimit:4;stroke-dasharray:none;stroke-opacity:1"
       d="m 106.89351,210.13941 13.25042,-13.25043 v 0 l 13.25041,-13.25041 v 0 l 13.25043,-13.25042 v 0 l -13.25044,-13.25042 v 0 l 13.25045,-13.25044 v 0 l -13.25044,-13.25044 v 0 l 13.25044,-13.25042 -13.25043,-13.25043 -13.25043,13.25043 v 0 l -13.25043,13.25044 v 0 l 13.25042,13.25042 v 0 l -13.25042,13.25043 v 0 l 13.25043,13.25043 v 0 l -13.25041,13.25041 v 0 l -13.250431,13.25042 v 0 l 13.250431,13.25043"
       id="path6" />
    <path
       inkscape:connector-curvature="0"
       style="fill:none;stroke:#000000;stroke-width:0.70312715;stroke-linecap:round;stroke-linejoin:round;stroke-miterlimit:4;stroke-dasharray:none;stroke-opacity:1"
       d="m 67.142918,196.88829 13.25043,-13.25044 v 0 L 67.142924,170.38743 v 0 L 53.89251,157.13702 v 0 L 40.642081,143.88659 v 0 l 13.25041,-13.25041 v 0 l 13.25043,-13.25043 v 0 L 80.393348,104.13533 67.142919,90.88489 53.892492,104.13533 v 0 l -13.25043,13.25042 v 0 l -13.250409,13.25041 v 0 l -13.25043,13.25043 v 0 l 13.250429,13.25043 v 0 l 13.250428,13.25043 v 0 l 13.250414,13.25041 v 0 l 13.250424,13.25043"
       id="path8" />
    <path
       inkscape:connector-curvature="0"
       style="fill:none;stroke:#000000;stroke-width:0.70312715;stroke-linecap:round;stroke-linejoin:round;stroke-miterlimit:4;stroke-dasharray:none;stroke-opacity:1"
       d="m 106.8928,183.63926 13.25041,-13.25041 v 0 l -13.25043,-13.25043 v 0 l 13.25043,-13.25043 v 0 l -13.25043,-13.25042 v 0 l 13.25045,-13.25044 v 0 l 13.25043,-13.25042 v 0 L 120.14324,90.886283 106.89281,77.635855 93.642385,90.886283 v 0 l 13.250425,13.250437 v 0 l -13.250436,13.25043 v 0 l -13.250429,13.25043 v 0 l 13.250414,13.25041 v 0 L 80.39195,157.1384 v 0 l 13.250423,13.25043 v 0 l 13.250427,13.25043"
       id="path10" />
    <path
       inkscape:connector-curvature="0"
       style="fill:none;stroke:#000000;stroke-width:0.70312715;stroke-linecap:round;stroke-linejoin:round;stroke-miterlimit:4;stroke-dasharray:none;stroke-opacity:1"
       d="m 173.13862,170.38814 13.25042,-13.25041 v 0 l 13.25044,-13.25044 v 0 l -13.25043,-13.25044 v 0 l -13.25043,-13.25042 v 0 l -13.25041,-13.25041 v 0 L 146.63779,90.885587 v 0 L 133.38736,77.635159 120.13693,64.384727 106.88649,77.63516 v 0 l 13.25043,13.250433 v 0 l 13.25043,13.250437 v 0 l 13.25044,13.25042 v 0 l 13.2504,13.25041 v 0 l 13.25042,13.25043 v 0 l -13.25041,13.25043 v 0 l 13.25042,13.25042"
       id="path12" />
    <path
       inkscape:connector-curvature="0"
       style="fill:none;stroke:#000000;stroke-width:0.70312715;stroke-linecap:round;stroke-linejoin:round;stroke-miterlimit:4;stroke-dasharray:none;stroke-opacity:1"
       d="m 53.895313,157.14122 13.250428,-13.25043 v 0 l 13.250411,-13.25041 v 0 l 13.250424,-13.25043 v 0 l 13.250434,-13.25043 v 0 L 93.646596,90.889103 v 0 L 106.89703,77.638674 v 0 L 120.14745,64.388246 106.89703,51.137817 93.646596,64.388247 v 0 L 80.396168,77.638674 v 0 L 67.145735,90.889108 v 0 l 13.250427,13.250432 v 0 l -13.250424,13.25043 v 0 l -13.250411,13.25041 v 0 L 40.6449,143.8908 v 0 l 13.250413,13.25042"
       id="path14" />
    <circle
       style="fill:#ff7272;fill-opacity:0.64285715;stroke:none;stroke-width:0.70312715;stroke-linecap:round;stroke-linejoin:round;stroke-miterlimit:4;stroke-dasharray:none;stroke-dashoffset:0;stroke-opacity:1"
       id="path1415"
       cx="-82.51561"
       cy="233.42583"
       r="6.1126022"
       transform="rotate(-45)" />
    <circle
       style="fill:#ff7272;fill-opacity:0.64285715;stroke:none;stroke-width:0.70312715;stroke-linecap:round;stroke-linejoin:round;stroke-miterlimit:4;stroke-dasharray:none;stroke-dashoffset:0;stroke-opacity:1"
       id="path1415-1"
       cx="-64.071236"
       cy="214.95123"
       r="6.1126022"
       transform="rotate(-45)" />
    <circle
       style="fill:#ff7272;fill-opacity:0.64285715;stroke:none;stroke-width:0.70312715;stroke-linecap:round;stroke-linejoin:round;stroke-miterlimit:4;stroke-dasharray:none;stroke-dashoffset:0;stroke-opacity:1"
       id="path1415-5"
       cx="-44.936123"
       cy="195.81613"
       r="6.1126022"
       transform="rotate(-45)" />
    <circle
       style="fill:#ff7272;fill-opacity:0.64285715;stroke:none;stroke-width:0.70312715;stroke-linecap:round;stroke-linejoin:round;stroke-miterlimit:4;stroke-dasharray:none;stroke-dashoffset:0;stroke-opacity:1"
       id="path1415-9"
       cx="-82.541916"
       cy="177.61122"
       r="6.1126022"
       transform="rotate(-45)" />
    <circle
       style="fill:#ff7272;fill-opacity:0.64285715;stroke:none;stroke-width:0.70312715;stroke-linecap:round;stroke-linejoin:round;stroke-miterlimit:4;stroke-dasharray:none;stroke-dashoffset:0;stroke-opacity:1"
       id="path1415-8"
       cx="11.539008"
       cy="233.95346"
       r="6.1126022"
       transform="rotate(-45)" />
    <circle
       style="fill:#ff7272;fill-opacity:0.64285715;stroke:none;stroke-width:0.70312715;stroke-linecap:round;stroke-linejoin:round;stroke-miterlimit:4;stroke-dasharray:none;stroke-dashoffset:0;stroke-opacity:1"
       id="path1415-4"
       cx="-63.672592"
       cy="139.87253"
       r="6.1126022"
       transform="rotate(-45)" />
    <circle
       style="fill:#ff7272;fill-opacity:0.64285715;stroke:none;stroke-width:0.70312715;stroke-linecap:round;stroke-linejoin:round;stroke-miterlimit:4;stroke-dasharray:none;stroke-dashoffset:0;stroke-opacity:1"
       id="path1415-81"
       cx="-64.3312"
       cy="233.89606"
       r="6.1126022"
       transform="rotate(-45)" />
    <path
       style="fill:none;stroke:#ad6ee9;stroke-width:1.40600003;stroke-linecap:round;stroke-linejoin:miter;stroke-miterlimit:4;stroke-dasharray:1.40600003,2.81200006;stroke-dashoffset:0;stroke-opacity:1"
       d="m 85.258086,223.51415 h 22.510394 20.81149"
       id="path1470"
       inkscape:connector-curvature="0" />
    <path
       style="fill:#ad6ee9;fill-opacity:1;stroke:#ad6ee9;stroke-width:1.40625429;stroke-linecap:round;stroke-linejoin:miter;stroke-miterlimit:4;stroke-dasharray:1.40625432, 2.81250864;stroke-dashoffset:0;stroke-opacity:1"
       d="m 73.039721,211.06415 h 41.766539 25.88939"
       id="path1472"
       inkscape:connector-curvature="0" />
    <path
       style="fill:none;stroke:#ad6ee9;stroke-width:1.40625429;stroke-linecap:round;stroke-linejoin:miter;stroke-miterlimit:4;stroke-dasharray:1.40625432, 2.81250864;stroke-dashoffset:0;stroke-opacity:1"
       d="m 59.318115,197.43963 h 41.163935 l 54.30736,-1e-5"
       id="path1474"
       inkscape:connector-curvature="0" />
    <path
       style="fill:none;stroke:#ad6ee9;stroke-width:1.40625429;stroke-linecap:round;stroke-linejoin:miter;stroke-miterlimit:4;stroke-dasharray:1.40625432, 2.81250864;stroke-dashoffset:0;stroke-opacity:1"
       d="M 45.890924,184.09699 H 65.946223 168.33996"
       id="path1476"
       inkscape:connector-curvature="0" />
    <path
       style="fill:none;stroke:#ad6ee9;stroke-width:1.40625429;stroke-linecap:round;stroke-linejoin:miter;stroke-miterlimit:4;stroke-dasharray:1.40625432, 2.81250864;stroke-dashoffset:0;stroke-opacity:1"
       d="m 32.189925,170.41573 h 68.092705 81.88133"
       id="path1478"
       inkscape:connector-curvature="0" />
    <path
       style="fill:none;stroke:#ad6ee9;stroke-width:1.40625429;stroke-linecap:round;stroke-linejoin:miter;stroke-miterlimit:4;stroke-dasharray:1.40625432, 2.81250864;stroke-dashoffset:0;stroke-opacity:1"
       d="m 195.40916,157.52611 -27.70098,1e-5 H 19.484609"
       id="path1480"
       inkscape:connector-curvature="0" />
    <path
       style="fill:none;stroke:#ad6ee9;stroke-width:1.40625429;stroke-linecap:round;stroke-linejoin:miter;stroke-miterlimit:4;stroke-dasharray:1.40625432, 2.81250864;stroke-dashoffset:0;stroke-opacity:1"
       d="M 6.001168,144.10497 H 54.319725 208.6975"
       id="path1482"
       inkscape:connector-curvature="0" />
  </g>
</svg>
