<svg xmlns="http://www.w3.org/2000/svg" class="h-6 w-6" fill="none" viewBox="0 0 457.2 609.6" stroke="currentColor">
<g transform="translate(28.575 21.77142857142857) scale(66.03999999999999)">
<path stroke-linecap="round" stroke-linejoin="round" stroke="rgba(25,25,25, 0.95)" stroke-width="0.020833333333333332" fill="rgba(225,225,226,0.95)" d="M -0.23958333333333334 0.9583333333333334 L 0 0.9583333333333334 L 0 0.9583333333333334 L 0 0.71875 L 0 0.71875 L 0 0.4791666666666667 L 0 0.4791666666666667 L 0 0.23958333333333334 L 0 0 L -0.23958333333333334 0 L -0.23958333333333334 0 L -0.23958333333333334 0.23958333333333334 L -0.23958333333333334 0.23958333333333334 L -0.23958333333333334 0.4791666666666667 L -0.23958333333333334 0.4791666666666667 L -0.23958333333333334 0.71875 L -0.23958333333333334 0.71875 L -0.23958333333333334 0.9583333333333334" />
<path stroke-linecap="round" stroke-linejoin="round" stroke="rgba(25,25,25, 0.95)" stroke-width="0.020833333333333332" fill="rgba(217,216,215,0.95)" d="M 0 0.9583333333333334 L 0.23958333333333334 0.9583333333333334 L 0.23958333333333334 0.9583333333333334 L 0.23958333333333334 0.71875 L 0.23958333333333334 0.71875 L 0.23958333333333334 0.4791666666666667 L 0.23958333333333334 0.4791666666666667 L 0.23958333333333334 0.23958333333333334 L 0.23958333333333334 0 L 0 0 L 0 0 L 0 0.23958333333333334 L 0 0.23958333333333334 L 0 0.4791666666666667 L 0 0.4791666666666667 L 0 0.71875 L 0 0.71875 L 0 0.9583333333333334" />
<path stroke-linecap="round" stroke-linejoin="round" stroke="rgba(25,25,25, 0.95)" stroke-width="0.020833333333333332" fill="rgba(236,235,236,0.95)" d="M 0.23958333333333334 0.9583333333333334 L 0.4791666666666667 0.9583333333333334 L 0.4791666666666667 0.9583333333333334 L 0.4791666666666667 0.71875 L 0.4791666666666667 0.71875 L 0.4791666666666667 0.4791666666666667 L 0.4791666666666667 0.4791666666666667 L 0.4791666666666667 0.23958333333333334 L 0.4791666666666667 0 L 0.23958333333333334 0 L 0.23958333333333334 0 L 0.23958333333333334 0.23958333333333334 L 0.23958333333333334 0.23958333333333334 L 0.23958333333333334 0.4791666666666667 L 0.23958333333333334 0.4791666666666667 L 0.23958333333333334 0.71875 L 0.23958333333333334 0.71875 L 0.23958333333333334 0.9583333333333334" />
<path stroke-linecap="round" stroke-linejoin="round" stroke="rgba(25,25,25, 0.95)" stroke-width="0.020833333333333332" fill="rgba(205,205,206,0.95)" d="M 0.4791666666666667 0.9583333333333334 L 0.71875 0.9583333333333334 L 0.71875 0.9583333333333334 L 0.71875 0.71875 L 0.71875 0.71875 L 0.71875 0.4791666666666667 L 0.71875 0.4791666666666667 L 0.71875 0.23958333333333334 L 0.71875 0 L 0.4791666666666667 0 L 0.4791666666666667 0 L 0.4791666666666667 0.23958333333333334 L 0.4791666666666667 0.23958333333333334 L 0.4791666666666667 0.4791666666666667 L 0.4791666666666667 0.4791666666666667 L 0.4791666666666667 0.71875 L 0.4791666666666667 0.71875 L 0.4791666666666667 0.9583333333333334" />

</g>
<g transform="translate(142.875 21.77142857142857) scale(66.03999999999999)">
<path stroke-linecap="round" stroke-linejoin="round" stroke="rgba(25,25,25, 0.95)" stroke-width="0.020833333333333332" fill="rgba(225,225,226,0.95)" d="M -0.23958333333333334 0.9583333333333334 L 0 0.9583333333333334 L 0 0.9583333333333334 L 0 0.71875 L 0 0.71875 L 0 0.4791666666666667 L 0 0.4791666666666667 L 0 0.23958333333333334 L 0 0 L -0.23958333333333334 0 L -0.23958333333333334 0 L -0.23958333333333334 0.23958333333333334 L -0.23958333333333334 0.23958333333333334 L -0.23958333333333334 0.4791666666666667 L -0.23958333333333334 0.4791666666666667 L -0.23958333333333334 0.71875 L -0.23958333333333334 0.71875 L -0.23958333333333334 0.9583333333333334" />
<path stroke-linecap="round" stroke-linejoin="round" stroke="rgba(25,25,25, 0.95)" stroke-width="0.020833333333333332" fill="rgba(217,216,215,0.95)" d="M 0 0.9583333333333334 L 0.23958333333333334 0.9583333333333334 L 0.23958333333333334 0.9583333333333334 L 0.23958333333333334 0.71875 L 0.23958333333333334 0.71875 L 0.23958333333333334 0.4791666666666667 L 0.23958333333333334 0.4791666666666667 L 0.23958333333333334 0.23958333333333334 L 0.23958333333333334 0 L 0 0 L 0 0 L 0 0.23958333333333334 L 0 0.23958333333333334 L 0 0.4791666666666667 L 0 0.4791666666666667 L 0 0.71875 L 0 0.71875 L 0 0.9583333333333334" />
<path stroke-linecap="round" stroke-linejoin="round" stroke="rgba(25,25,25, 0.95)" stroke-width="0.020833333333333332" fill="rgba(236,235,236,0.95)" d="M 0.23958333333333334 0.9583333333333334 L 0.4791666666666667 0.9583333333333334 L 0.4791666666666667 0.9583333333333334 L 0.71875 0.9583333333333334 L 0.71875 0.9583333333333334 L 0.71875 0.71875 L 0.71875 0.71875 L 0.71875 0.4791666666666667 L 0.71875 0.23958333333333334 L 0.4791666666666667 0.23958333333333334 L 0.4791666666666667 0.23958333333333334 L 0.4791666666666667 0.4791666666666667 L 0.4791666666666667 0.4791666666666667 L 0.4791666666666667 0.71875 L 0.4791666666666667 0.71875 L 0.23958333333333334 0.71875 L 0.23958333333333334 0.71875 L 0.23958333333333334 0.9583333333333334" />
<path stroke-linecap="round" stroke-linejoin="round" stroke="rgba(25,25,25, 0.95)" stroke-width="0.020833333333333332" fill="rgba(205,205,206,0.95)" d="M 0.23958333333333334 0.71875 L 0.4791666666666667 0.71875 L 0.4791666666666667 0.71875 L 0.4791666666666667 0.4791666666666667 L 0.4791666666666667 0.4791666666666667 L 0.4791666666666667 0.23958333333333334 L 0.4791666666666667 0.23958333333333334 L 0.71875 0.23958333333333334 L 0.71875 0 L 0.4791666666666667 0 L 0.4791666666666667 0 L 0.23958333333333334 0 L 0.23958333333333334 0 L 0.23958333333333334 0.23958333333333334 L 0.23958333333333334 0.23958333333333334 L 0.23958333333333334 0.4791666666666667 L 0.23958333333333334 0.4791666666666667 L 0.23958333333333334 0.71875" />

</g>
<g transform="translate(257.175 21.77142857142857) scale(66.03999999999999)">
<path stroke-linecap="round" stroke-linejoin="round" stroke="rgba(25,25,25, 0.95)" stroke-width="0.020833333333333332" fill="rgba(225,225,226,0.95)" d="M -0.23958333333333334 0.9583333333333334 L 0 0.9583333333333334 L 0 0.9583333333333334 L 0 0.71875 L 0 0.71875 L 0 0.4791666666666667 L 0 0.4791666666666667 L 0 0.23958333333333334 L 0 0 L -0.23958333333333334 0 L -0.23958333333333334 0 L -0.23958333333333334 0.23958333333333334 L -0.23958333333333334 0.23958333333333334 L -0.23958333333333334 0.4791666666666667 L -0.23958333333333334 0.4791666666666667 L -0.23958333333333334 0.71875 L -0.23958333333333334 0.71875 L -0.23958333333333334 0.9583333333333334" />
<path stroke-linecap="round" stroke-linejoin="round" stroke="rgba(25,25,25, 0.95)" stroke-width="0.020833333333333332" fill="rgba(217,216,215,0.95)" d="M 0 0.9583333333333334 L 0.23958333333333334 0.9583333333333334 L 0.23958333333333334 0.9583333333333334 L 0.23958333333333334 0.71875 L 0.23958333333333334 0.71875 L 0.4791666666666667 0.71875 L 0.4791666666666667 0.71875 L 0.4791666666666667 0.4791666666666667 L 0.4791666666666667 0.23958333333333334 L 0.23958333333333334 0.23958333333333334 L 0.23958333333333334 0.23958333333333334 L 0.23958333333333334 0.4791666666666667 L 0.23958333333333334 0.4791666666666667 L 0 0.4791666666666667 L 0 0.4791666666666667 L 0 0.71875 L 0 0.71875 L 0 0.9583333333333334" />
<path stroke-linecap="round" stroke-linejoin="round" stroke="rgba(25,25,25, 0.95)" stroke-width="0.020833333333333332" fill="rgba(236,235,236,0.95)" d="M 0.23958333333333334 0.9583333333333334 L 0.4791666666666667 0.9583333333333334 L 0.4791666666666667 0.9583333333333334 L 0.71875 0.9583333333333334 L 0.71875 0.9583333333333334 L 0.71875 0.71875 L 0.71875 0.71875 L 0.71875 0.4791666666666667 L 0.71875 0.23958333333333334 L 0.4791666666666667 0.23958333333333334 L 0.4791666666666667 0.23958333333333334 L 0.4791666666666667 0.4791666666666667 L 0.4791666666666667 0.4791666666666667 L 0.4791666666666667 0.71875 L 0.4791666666666667 0.71875 L 0.23958333333333334 0.71875 L 0.23958333333333334 0.71875 L 0.23958333333333334 0.9583333333333334" />
<path stroke-linecap="round" stroke-linejoin="round" stroke="rgba(25,25,25, 0.95)" stroke-width="0.020833333333333332" fill="rgba(205,205,206,0.95)" d="M 0 0.4791666666666667 L 0.23958333333333334 0.4791666666666667 L 0.23958333333333334 0.4791666666666667 L 0.23958333333333334 0.23958333333333334 L 0.23958333333333334 0.23958333333333334 L 0.4791666666666667 0.23958333333333334 L 0.4791666666666667 0.23958333333333334 L 0.71875 0.23958333333333334 L 0.71875 0 L 0.4791666666666667 0 L 0.4791666666666667 0 L 0.23958333333333334 0 L 0.23958333333333334 0 L 0 0 L 0 0 L 0 0.23958333333333334 L 0 0.23958333333333334 L 0 0.4791666666666667" />

</g>
<g transform="translate(371.47499999999997 21.77142857142857) scale(66.03999999999999)">
<path stroke-linecap="round" stroke-linejoin="round" stroke="rgba(25,25,25, 0.95)" stroke-width="0.020833333333333332" fill="rgba(225,225,226,0.95)" d="M -0.23958333333333334 0.9583333333333334 L 0 0.9583333333333334 L 0 0.9583333333333334 L 0 0.71875 L 0 0.71875 L 0 0.4791666666666667 L 0 0.4791666666666667 L 0.23958333333333334 0.4791666666666667 L 0.23958333333333334 0.23958333333333334 L 0 0.23958333333333334 L 0 0.23958333333333334 L -0.23958333333333334 0.23958333333333334 L -0.23958333333333334 0.23958333333333334 L -0.23958333333333334 0.4791666666666667 L -0.23958333333333334 0.4791666666666667 L -0.23958333333333334 0.71875 L -0.23958333333333334 0.71875 L -0.23958333333333334 0.9583333333333334" />
<path stroke-linecap="round" stroke-linejoin="round" stroke="rgba(25,25,25, 0.95)" stroke-width="0.020833333333333332" fill="rgba(217,216,215,0.95)" d="M 0 0.9583333333333334 L 0.23958333333333334 0.9583333333333334 L 0.23958333333333334 0.9583333333333334 L 0.23958333333333334 0.71875 L 0.23958333333333334 0.71875 L 0.4791666666666667 0.71875 L 0.4791666666666667 0.71875 L 0.4791666666666667 0.4791666666666667 L 0.4791666666666667 0.23958333333333334 L 0.23958333333333334 0.23958333333333334 L 0.23958333333333334 0.23958333333333334 L 0.23958333333333334 0.4791666666666667 L 0.23958333333333334 0.4791666666666667 L 0 0.4791666666666667 L 0 0.4791666666666667 L 0 0.71875 L 0 0.71875 L 0 0.9583333333333334" />
<path stroke-linecap="round" stroke-linejoin="round" stroke="rgba(25,25,25, 0.95)" stroke-width="0.020833333333333332" fill="rgba(236,235,236,0.95)" d="M 0.23958333333333334 0.9583333333333334 L 0.4791666666666667 0.9583333333333334 L 0.4791666666666667 0.9583333333333334 L 0.71875 0.9583333333333334 L 0.71875 0.9583333333333334 L 0.71875 0.71875 L 0.71875 0.71875 L 0.71875 0.4791666666666667 L 0.71875 0.23958333333333334 L 0.4791666666666667 0.23958333333333334 L 0.4791666666666667 0.23958333333333334 L 0.4791666666666667 0.4791666666666667 L 0.4791666666666667 0.4791666666666667 L 0.4791666666666667 0.71875 L 0.4791666666666667 0.71875 L 0.23958333333333334 0.71875 L 0.23958333333333334 0.71875 L 0.23958333333333334 0.9583333333333334" />
<path stroke-linecap="round" stroke-linejoin="round" stroke="rgba(25,25,25, 0.95)" stroke-width="0.020833333333333332" fill="rgba(205,205,206,0.95)" d="M -0.23958333333333334 0.23958333333333334 L 0 0.23958333333333334 L 0 0.23958333333333334 L 0.23958333333333334 0.23958333333333334 L 0.23958333333333334 0.23958333333333334 L 0.4791666666666667 0.23958333333333334 L 0.4791666666666667 0.23958333333333334 L 0.71875 0.23958333333333334 L 0.71875 0 L 0.4791666666666667 0 L 0.4791666666666667 0 L 0.23958333333333334 0 L 0.23958333333333334 0 L 0 0 L 0 0 L -0.23958333333333334 0 L -0.23958333333333334 0 L -0.23958333333333334 0.23958333333333334" />

</g>
<g transform="translate(28.575 108.85714285714285) scale(66.03999999999999)">
<path stroke-linecap="round" stroke-linejoin="round" stroke="rgba(25,25,25, 0.95)" stroke-width="0.020833333333333332" fill="rgba(225,225,226,0.95)" d="M -0.23958333333333334 0.9583333333333334 L 0 0.9583333333333334 L 0 0.9583333333333334 L 0 0.71875 L 0 0.71875 L 0 0.4791666666666667 L 0 0.4791666666666667 L 0 0.23958333333333334 L 0 0 L -0.23958333333333334 0 L -0.23958333333333334 0 L -0.23958333333333334 0.23958333333333334 L -0.23958333333333334 0.23958333333333334 L -0.23958333333333334 0.4791666666666667 L -0.23958333333333334 0.4791666666666667 L -0.23958333333333334 0.71875 L -0.23958333333333334 0.71875 L -0.23958333333333334 0.9583333333333334" />
<path stroke-linecap="round" stroke-linejoin="round" stroke="rgba(25,25,25, 0.95)" stroke-width="0.020833333333333332" fill="rgba(217,216,215,0.95)" d="M 0 0.9583333333333334 L 0.23958333333333334 0.9583333333333334 L 0.23958333333333334 0.9583333333333334 L 0.4791666666666667 0.9583333333333334 L 0.4791666666666667 0.9583333333333334 L 0.4791666666666667 0.71875 L 0.4791666666666667 0.71875 L 0.4791666666666667 0.4791666666666667 L 0.4791666666666667 0.23958333333333334 L 0.23958333333333334 0.23958333333333334 L 0.23958333333333334 0.23958333333333334 L 0.23958333333333334 0.4791666666666667 L 0.23958333333333334 0.4791666666666667 L 0.23958333333333334 0.71875 L 0.23958333333333334 0.71875 L 0 0.71875 L 0 0.71875 L 0 0.9583333333333334" />
<path stroke-linecap="round" stroke-linejoin="round" stroke="rgba(25,25,25, 0.95)" stroke-width="0.020833333333333332" fill="rgba(236,235,236,0.95)" d="M 0 0.71875 L 0.23958333333333334 0.71875 L 0.23958333333333334 0.71875 L 0.23958333333333334 0.4791666666666667 L 0.23958333333333334 0.4791666666666667 L 0.23958333333333334 0.23958333333333334 L 0.23958333333333334 0.23958333333333334 L 0.4791666666666667 0.23958333333333334 L 0.4791666666666667 0 L 0.23958333333333334 0 L 0.23958333333333334 0 L 0 0 L 0 0 L 0 0.23958333333333334 L 0 0.23958333333333334 L 0 0.4791666666666667 L 0 0.4791666666666667 L 0 0.71875" />
<path stroke-linecap="round" stroke-linejoin="round" stroke="rgba(25,25,25, 0.95)" stroke-width="0.020833333333333332" fill="rgba(205,205,206,0.95)" d="M 0.4791666666666667 0.9583333333333334 L 0.71875 0.9583333333333334 L 0.71875 0.9583333333333334 L 0.71875 0.71875 L 0.71875 0.71875 L 0.71875 0.4791666666666667 L 0.71875 0.4791666666666667 L 0.71875 0.23958333333333334 L 0.71875 0 L 0.4791666666666667 0 L 0.4791666666666667 0 L 0.4791666666666667 0.23958333333333334 L 0.4791666666666667 0.23958333333333334 L 0.4791666666666667 0.4791666666666667 L 0.4791666666666667 0.4791666666666667 L 0.4791666666666667 0.71875 L 0.4791666666666667 0.71875 L 0.4791666666666667 0.9583333333333334" />

</g>
<g transform="translate(142.875 108.85714285714285) scale(66.03999999999999)">
<path stroke-linecap="round" stroke-linejoin="round" stroke="rgba(25,25,25, 0.95)" stroke-width="0.020833333333333332" fill="rgba(225,225,226,0.95)" d="M -0.23958333333333334 0.9583333333333334 L 0 0.9583333333333334 L 0 0.9583333333333334 L 0 0.71875 L 0 0.71875 L 0 0.4791666666666667 L 0 0.4791666666666667 L 0 0.23958333333333334 L 0 0 L -0.23958333333333334 0 L -0.23958333333333334 0 L -0.23958333333333334 0.23958333333333334 L -0.23958333333333334 0.23958333333333334 L -0.23958333333333334 0.4791666666666667 L -0.23958333333333334 0.4791666666666667 L -0.23958333333333334 0.71875 L -0.23958333333333334 0.71875 L -0.23958333333333334 0.9583333333333334" />
<path stroke-linecap="round" stroke-linejoin="round" stroke="rgba(25,25,25, 0.95)" stroke-width="0.020833333333333332" fill="rgba(217,216,215,0.95)" d="M 0 0.9583333333333334 L 0.23958333333333334 0.9583333333333334 L 0.23958333333333334 0.9583333333333334 L 0.4791666666666667 0.9583333333333334 L 0.4791666666666667 0.9583333333333334 L 0.71875 0.9583333333333334 L 0.71875 0.9583333333333334 L 0.71875 0.71875 L 0.71875 0.4791666666666667 L 0.4791666666666667 0.4791666666666667 L 0.4791666666666667 0.4791666666666667 L 0.4791666666666667 0.71875 L 0.4791666666666667 0.71875 L 0.23958333333333334 0.71875 L 0.23958333333333334 0.71875 L 0 0.71875 L 0 0.71875 L 0 0.9583333333333334" />
<path stroke-linecap="round" stroke-linejoin="round" stroke="rgba(25,25,25, 0.95)" stroke-width="0.020833333333333332" fill="rgba(236,235,236,0.95)" d="M 0 0.71875 L 0.23958333333333334 0.71875 L 0.23958333333333334 0.71875 L 0.23958333333333334 0.4791666666666667 L 0.23958333333333334 0.4791666666666667 L 0.23958333333333334 0.23958333333333334 L 0.23958333333333334 0.23958333333333334 L 0.4791666666666667 0.23958333333333334 L 0.4791666666666667 0 L 0.23958333333333334 0 L 0.23958333333333334 0 L 0 0 L 0 0 L 0 0.23958333333333334 L 0 0.23958333333333334 L 0 0.4791666666666667 L 0 0.4791666666666667 L 0 0.71875" />
<path stroke-linecap="round" stroke-linejoin="round" stroke="rgba(25,25,25, 0.95)" stroke-width="0.020833333333333332" fill="rgba(205,205,206,0.95)" d="M 0.23958333333333334 0.71875 L 0.4791666666666667 0.71875 L 0.4791666666666667 0.71875 L 0.4791666666666667 0.4791666666666667 L 0.4791666666666667 0.4791666666666667 L 0.71875 0.4791666666666667 L 0.71875 0.4791666666666667 L 0.71875 0.23958333333333334 L 0.71875 0 L 0.4791666666666667 0 L 0.4791666666666667 0 L 0.4791666666666667 0.23958333333333334 L 0.4791666666666667 0.23958333333333334 L 0.23958333333333334 0.23958333333333334 L 0.23958333333333334 0.23958333333333334 L 0.23958333333333334 0.4791666666666667 L 0.23958333333333334 0.4791666666666667 L 0.23958333333333334 0.71875" />

</g>
<g transform="translate(257.175 108.85714285714285) scale(66.03999999999999)">
<path stroke-linecap="round" stroke-linejoin="round" stroke="rgba(25,25,25, 0.95)" stroke-width="0.020833333333333332" fill="rgba(225,225,226,0.95)" d="M -0.23958333333333334 0.9583333333333334 L 0 0.9583333333333334 L 0 0.9583333333333334 L 0 0.71875 L 0 0.71875 L 0 0.4791666666666667 L 0 0.4791666666666667 L 0 0.23958333333333334 L 0 0 L -0.23958333333333334 0 L -0.23958333333333334 0 L -0.23958333333333334 0.23958333333333334 L -0.23958333333333334 0.23958333333333334 L -0.23958333333333334 0.4791666666666667 L -0.23958333333333334 0.4791666666666667 L -0.23958333333333334 0.71875 L -0.23958333333333334 0.71875 L -0.23958333333333334 0.9583333333333334" />
<path stroke-linecap="round" stroke-linejoin="round" stroke="rgba(25,25,25, 0.95)" stroke-width="0.020833333333333332" fill="rgba(217,216,215,0.95)" d="M 0 0.9583333333333334 L 0.23958333333333334 0.9583333333333334 L 0.23958333333333334 0.9583333333333334 L 0.4791666666666667 0.9583333333333334 L 0.4791666666666667 0.9583333333333334 L 0.71875 0.9583333333333334 L 0.71875 0.9583333333333334 L 0.71875 0.71875 L 0.71875 0.4791666666666667 L 0.4791666666666667 0.4791666666666667 L 0.4791666666666667 0.4791666666666667 L 0.4791666666666667 0.71875 L 0.4791666666666667 0.71875 L 0.23958333333333334 0.71875 L 0.23958333333333334 0.71875 L 0 0.71875 L 0 0.71875 L 0 0.9583333333333334" />
<path stroke-linecap="round" stroke-linejoin="round" stroke="rgba(25,25,25, 0.95)" stroke-width="0.020833333333333332" fill="rgba(236,235,236,0.95)" d="M 0 0.71875 L 0.23958333333333334 0.71875 L 0.23958333333333334 0.71875 L 0.4791666666666667 0.71875 L 0.4791666666666667 0.71875 L 0.4791666666666667 0.4791666666666667 L 0.4791666666666667 0.4791666666666667 L 0.71875 0.4791666666666667 L 0.71875 0.23958333333333334 L 0.4791666666666667 0.23958333333333334 L 0.4791666666666667 0.23958333333333334 L 0.23958333333333334 0.23958333333333334 L 0.23958333333333334 0.23958333333333334 L 0.23958333333333334 0.4791666666666667 L 0.23958333333333334 0.4791666666666667 L 0 0.4791666666666667 L 0 0.4791666666666667 L 0 0.71875" />
<path stroke-linecap="round" stroke-linejoin="round" stroke="rgba(25,25,25, 0.95)" stroke-width="0.020833333333333332" fill="rgba(205,205,206,0.95)" d="M 0 0.4791666666666667 L 0.23958333333333334 0.4791666666666667 L 0.23958333333333334 0.4791666666666667 L 0.23958333333333334 0.23958333333333334 L 0.23958333333333334 0.23958333333333334 L 0.4791666666666667 0.23958333333333334 L 0.4791666666666667 0.23958333333333334 L 0.71875 0.23958333333333334 L 0.71875 0 L 0.4791666666666667 0 L 0.4791666666666667 0 L 0.23958333333333334 0 L 0.23958333333333334 0 L 0 0 L 0 0 L 0 0.23958333333333334 L 0 0.23958333333333334 L 0 0.4791666666666667" />

</g>
<g transform="translate(371.47499999999997 108.85714285714285) scale(66.03999999999999)">
<path stroke-linecap="round" stroke-linejoin="round" stroke="rgba(25,25,25, 0.95)" stroke-width="0.020833333333333332" fill="rgba(225,225,226,0.95)" d="M -0.23958333333333334 0.9583333333333334 L 0 0.9583333333333334 L 0 0.9583333333333334 L 0 0.71875 L 0 0.71875 L 0 0.4791666666666667 L 0 0.4791666666666667 L 0.23958333333333334 0.4791666666666667 L 0.23958333333333334 0.23958333333333334 L 0 0.23958333333333334 L 0 0.23958333333333334 L -0.23958333333333334 0.23958333333333334 L -0.23958333333333334 0.23958333333333334 L -0.23958333333333334 0.4791666666666667 L -0.23958333333333334 0.4791666666666667 L -0.23958333333333334 0.71875 L -0.23958333333333334 0.71875 L -0.23958333333333334 0.9583333333333334" />
<path stroke-linecap="round" stroke-linejoin="round" stroke="rgba(25,25,25, 0.95)" stroke-width="0.020833333333333332" fill="rgba(217,216,215,0.95)" d="M 0 0.9583333333333334 L 0.23958333333333334 0.9583333333333334 L 0.23958333333333334 0.9583333333333334 L 0.4791666666666667 0.9583333333333334 L 0.4791666666666667 0.9583333333333334 L 0.71875 0.9583333333333334 L 0.71875 0.9583333333333334 L 0.71875 0.71875 L 0.71875 0.4791666666666667 L 0.4791666666666667 0.4791666666666667 L 0.4791666666666667 0.4791666666666667 L 0.4791666666666667 0.71875 L 0.4791666666666667 0.71875 L 0.23958333333333334 0.71875 L 0.23958333333333334 0.71875 L 0 0.71875 L 0 0.71875 L 0 0.9583333333333334" />
<path stroke-linecap="round" stroke-linejoin="round" stroke="rgba(25,25,25, 0.95)" stroke-width="0.020833333333333332" fill="rgba(236,235,236,0.95)" d="M 0 0.71875 L 0.23958333333333334 0.71875 L 0.23958333333333334 0.71875 L 0.4791666666666667 0.71875 L 0.4791666666666667 0.71875 L 0.4791666666666667 0.4791666666666667 L 0.4791666666666667 0.4791666666666667 L 0.71875 0.4791666666666667 L 0.71875 0.23958333333333334 L 0.4791666666666667 0.23958333333333334 L 0.4791666666666667 0.23958333333333334 L 0.23958333333333334 0.23958333333333334 L 0.23958333333333334 0.23958333333333334 L 0.23958333333333334 0.4791666666666667 L 0.23958333333333334 0.4791666666666667 L 0 0.4791666666666667 L 0 0.4791666666666667 L 0 0.71875" />
<path stroke-linecap="round" stroke-linejoin="round" stroke="rgba(25,25,25, 0.95)" stroke-width="0.020833333333333332" fill="rgba(205,205,206,0.95)" d="M -0.23958333333333334 0.23958333333333334 L 0 0.23958333333333334 L 0 0.23958333333333334 L 0.23958333333333334 0.23958333333333334 L 0.23958333333333334 0.23958333333333334 L 0.4791666666666667 0.23958333333333334 L 0.4791666666666667 0.23958333333333334 L 0.71875 0.23958333333333334 L 0.71875 0 L 0.4791666666666667 0 L 0.4791666666666667 0 L 0.23958333333333334 0 L 0.23958333333333334 0 L 0 0 L 0 0 L -0.23958333333333334 0 L -0.23958333333333334 0 L -0.23958333333333334 0.23958333333333334" />

</g>
<g transform="translate(28.575 195.94285714285712) scale(66.03999999999999)">
<path stroke-linecap="round" stroke-linejoin="round" stroke="rgba(25,25,25, 0.95)" stroke-width="0.020833333333333332" fill="rgba(225,225,226,0.95)" d="M -0.23958333333333334 0.9583333333333334 L 0 0.9583333333333334 L 0 0.9583333333333334 L 0 0.71875 L 0 0.71875 L 0.23958333333333334 0.71875 L 0.23958333333333334 0.71875 L 0.23958333333333334 0.4791666666666667 L 0.23958333333333334 0.23958333333333334 L 0 0.23958333333333334 L 0 0.23958333333333334 L 0 0.4791666666666667 L 0 0.4791666666666667 L -0.23958333333333334 0.4791666666666667 L -0.23958333333333334 0.4791666666666667 L -0.23958333333333334 0.71875 L -0.23958333333333334 0.71875 L -0.23958333333333334 0.9583333333333334" />
<path stroke-linecap="round" stroke-linejoin="round" stroke="rgba(25,25,25, 0.95)" stroke-width="0.020833333333333332" fill="rgba(217,216,215,0.95)" d="M 0 0.9583333333333334 L 0.23958333333333334 0.9583333333333334 L 0.23958333333333334 0.9583333333333334 L 0.4791666666666667 0.9583333333333334 L 0.4791666666666667 0.9583333333333334 L 0.4791666666666667 0.71875 L 0.4791666666666667 0.71875 L 0.4791666666666667 0.4791666666666667 L 0.4791666666666667 0.23958333333333334 L 0.23958333333333334 0.23958333333333334 L 0.23958333333333334 0.23958333333333334 L 0.23958333333333334 0.4791666666666667 L 0.23958333333333334 0.4791666666666667 L 0.23958333333333334 0.71875 L 0.23958333333333334 0.71875 L 0 0.71875 L 0 0.71875 L 0 0.9583333333333334" />
<path stroke-linecap="round" stroke-linejoin="round" stroke="rgba(25,25,25, 0.95)" stroke-width="0.020833333333333332" fill="rgba(236,235,236,0.95)" d="M -0.23958333333333334 0.4791666666666667 L 0 0.4791666666666667 L 0 0.4791666666666667 L 0 0.23958333333333334 L 0 0.23958333333333334 L 0.23958333333333334 0.23958333333333334 L 0.23958333333333334 0.23958333333333334 L 0.4791666666666667 0.23958333333333334 L 0.4791666666666667 0 L 0.23958333333333334 0 L 0.23958333333333334 0 L 0 0 L 0 0 L -0.23958333333333334 0 L -0.23958333333333334 0 L -0.23958333333333334 0.23958333333333334 L -0.23958333333333334 0.23958333333333334 L -0.23958333333333334 0.4791666666666667" />
<path stroke-linecap="round" stroke-linejoin="round" stroke="rgba(25,25,25, 0.95)" stroke-width="0.020833333333333332" fill="rgba(205,205,206,0.95)" d="M 0.4791666666666667 0.9583333333333334 L 0.71875 0.9583333333333334 L 0.71875 0.9583333333333334 L 0.71875 0.71875 L 0.71875 0.71875 L 0.71875 0.4791666666666667 L 0.71875 0.4791666666666667 L 0.71875 0.23958333333333334 L 0.71875 0 L 0.4791666666666667 0 L 0.4791666666666667 0 L 0.4791666666666667 0.23958333333333334 L 0.4791666666666667 0.23958333333333334 L 0.4791666666666667 0.4791666666666667 L 0.4791666666666667 0.4791666666666667 L 0.4791666666666667 0.71875 L 0.4791666666666667 0.71875 L 0.4791666666666667 0.9583333333333334" />

</g>
<g transform="translate(142.875 195.94285714285712) scale(66.03999999999999)">
<path stroke-linecap="round" stroke-linejoin="round" stroke="rgba(25,25,25, 0.95)" stroke-width="0.020833333333333332" fill="rgba(225,225,226,0.95)" d="M -0.23958333333333334 0.9583333333333334 L 0 0.9583333333333334 L 0 0.9583333333333334 L 0 0.71875 L 0 0.71875 L 0.23958333333333334 0.71875 L 0.23958333333333334 0.71875 L 0.23958333333333334 0.4791666666666667 L 0.23958333333333334 0.23958333333333334 L 0 0.23958333333333334 L 0 0.23958333333333334 L 0 0.4791666666666667 L 0 0.4791666666666667 L -0.23958333333333334 0.4791666666666667 L -0.23958333333333334 0.4791666666666667 L -0.23958333333333334 0.71875 L -0.23958333333333334 0.71875 L -0.23958333333333334 0.9583333333333334" />
<path stroke-linecap="round" stroke-linejoin="round" stroke="rgba(25,25,25, 0.95)" stroke-width="0.020833333333333332" fill="rgba(217,216,215,0.95)" d="M 0 0.9583333333333334 L 0.23958333333333334 0.9583333333333334 L 0.23958333333333334 0.9583333333333334 L 0.4791666666666667 0.9583333333333334 L 0.4791666666666667 0.9583333333333334 L 0.71875 0.9583333333333334 L 0.71875 0.9583333333333334 L 0.71875 0.71875 L 0.71875 0.4791666666666667 L 0.4791666666666667 0.4791666666666667 L 0.4791666666666667 0.4791666666666667 L 0.4791666666666667 0.71875 L 0.4791666666666667 0.71875 L 0.23958333333333334 0.71875 L 0.23958333333333334 0.71875 L 0 0.71875 L 0 0.71875 L 0 0.9583333333333334" />
<path stroke-linecap="round" stroke-linejoin="round" stroke="rgba(25,25,25, 0.95)" stroke-width="0.020833333333333332" fill="rgba(236,235,236,0.95)" d="M -0.23958333333333334 0.4791666666666667 L 0 0.4791666666666667 L 0 0.4791666666666667 L 0 0.23958333333333334 L 0 0.23958333333333334 L 0.23958333333333334 0.23958333333333334 L 0.23958333333333334 0.23958333333333334 L 0.4791666666666667 0.23958333333333334 L 0.4791666666666667 0 L 0.23958333333333334 0 L 0.23958333333333334 0 L 0 0 L 0 0 L -0.23958333333333334 0 L -0.23958333333333334 0 L -0.23958333333333334 0.23958333333333334 L -0.23958333333333334 0.23958333333333334 L -0.23958333333333334 0.4791666666666667" />
<path stroke-linecap="round" stroke-linejoin="round" stroke="rgba(25,25,25, 0.95)" stroke-width="0.020833333333333332" fill="rgba(205,205,206,0.95)" d="M 0.23958333333333334 0.71875 L 0.4791666666666667 0.71875 L 0.4791666666666667 0.71875 L 0.4791666666666667 0.4791666666666667 L 0.4791666666666667 0.4791666666666667 L 0.71875 0.4791666666666667 L 0.71875 0.4791666666666667 L 0.71875 0.23958333333333334 L 0.71875 0 L 0.4791666666666667 0 L 0.4791666666666667 0 L 0.4791666666666667 0.23958333333333334 L 0.4791666666666667 0.23958333333333334 L 0.23958333333333334 0.23958333333333334 L 0.23958333333333334 0.23958333333333334 L 0.23958333333333334 0.4791666666666667 L 0.23958333333333334 0.4791666666666667 L 0.23958333333333334 0.71875" />

</g>
<g transform="translate(257.175 195.94285714285712) scale(66.03999999999999)">
<path stroke-linecap="round" stroke-linejoin="round" stroke="rgba(25,25,25, 0.95)" stroke-width="0.020833333333333332" fill="rgba(225,225,226,0.95)" d="M -0.23958333333333334 0.9583333333333334 L 0 0.9583333333333334 L 0 0.9583333333333334 L 0 0.71875 L 0 0.71875 L 0.23958333333333334 0.71875 L 0.23958333333333334 0.71875 L 0.4791666666666667 0.71875 L 0.4791666666666667 0.4791666666666667 L 0.23958333333333334 0.4791666666666667 L 0.23958333333333334 0.4791666666666667 L 0 0.4791666666666667 L 0 0.4791666666666667 L -0.23958333333333334 0.4791666666666667 L -0.23958333333333334 0.4791666666666667 L -0.23958333333333334 0.71875 L -0.23958333333333334 0.71875 L -0.23958333333333334 0.9583333333333334" />
<path stroke-linecap="round" stroke-linejoin="round" stroke="rgba(25,25,25, 0.95)" stroke-width="0.020833333333333332" fill="rgba(217,216,215,0.95)" d="M 0 0.9583333333333334 L 0.23958333333333334 0.9583333333333334 L 0.23958333333333334 0.9583333333333334 L 0.4791666666666667 0.9583333333333334 L 0.4791666666666667 0.9583333333333334 L 0.71875 0.9583333333333334 L 0.71875 0.9583333333333334 L 0.71875 0.71875 L 0.71875 0.4791666666666667 L 0.4791666666666667 0.4791666666666667 L 0.4791666666666667 0.4791666666666667 L 0.4791666666666667 0.71875 L 0.4791666666666667 0.71875 L 0.23958333333333334 0.71875 L 0.23958333333333334 0.71875 L 0 0.71875 L 0 0.71875 L 0 0.9583333333333334" />
<path stroke-linecap="round" stroke-linejoin="round" stroke="rgba(25,25,25, 0.95)" stroke-width="0.020833333333333332" fill="rgba(236,235,236,0.95)" d="M -0.23958333333333334 0.4791666666666667 L 0 0.4791666666666667 L 0 0.4791666666666667 L 0 0.23958333333333334 L 0 0.23958333333333334 L 0.23958333333333334 0.23958333333333334 L 0.23958333333333334 0.23958333333333334 L 0.4791666666666667 0.23958333333333334 L 0.4791666666666667 0 L 0.23958333333333334 0 L 0.23958333333333334 0 L 0 0 L 0 0 L -0.23958333333333334 0 L -0.23958333333333334 0 L -0.23958333333333334 0.23958333333333334 L -0.23958333333333334 0.23958333333333334 L -0.23958333333333334 0.4791666666666667" />
<path stroke-linecap="round" stroke-linejoin="round" stroke="rgba(25,25,25, 0.95)" stroke-width="0.020833333333333332" fill="rgba(205,205,206,0.95)" d="M 0 0.4791666666666667 L 0.23958333333333334 0.4791666666666667 L 0.23958333333333334 0.4791666666666667 L 0.4791666666666667 0.4791666666666667 L 0.4791666666666667 0.4791666666666667 L 0.71875 0.4791666666666667 L 0.71875 0.4791666666666667 L 0.71875 0.23958333333333334 L 0.71875 0 L 0.4791666666666667 0 L 0.4791666666666667 0 L 0.4791666666666667 0.23958333333333334 L 0.4791666666666667 0.23958333333333334 L 0.23958333333333334 0.23958333333333334 L 0.23958333333333334 0.23958333333333334 L 0 0.23958333333333334 L 0 0.23958333333333334 L 0 0.4791666666666667" />

</g>
<g transform="translate(371.47499999999997 195.94285714285712) scale(66.03999999999999)">
<path stroke-linecap="round" stroke-linejoin="round" stroke="rgba(25,25,25, 0.95)" stroke-width="0.020833333333333332" fill="rgba(225,225,226,0.95)" d="M -0.23958333333333334 0.9583333333333334 L 0 0.9583333333333334 L 0 0.9583333333333334 L 0 0.71875 L 0 0.71875 L 0.23958333333333334 0.71875 L 0.23958333333333334 0.71875 L 0.4791666666666667 0.71875 L 0.4791666666666667 0.4791666666666667 L 0.23958333333333334 0.4791666666666667 L 0.23958333333333334 0.4791666666666667 L 0 0.4791666666666667 L 0 0.4791666666666667 L -0.23958333333333334 0.4791666666666667 L -0.23958333333333334 0.4791666666666667 L -0.23958333333333334 0.71875 L -0.23958333333333334 0.71875 L -0.23958333333333334 0.9583333333333334" />
<path stroke-linecap="round" stroke-linejoin="round" stroke="rgba(25,25,25, 0.95)" stroke-width="0.020833333333333332" fill="rgba(217,216,215,0.95)" d="M 0 0.9583333333333334 L 0.23958333333333334 0.9583333333333334 L 0.23958333333333334 0.9583333333333334 L 0.4791666666666667 0.9583333333333334 L 0.4791666666666667 0.9583333333333334 L 0.71875 0.9583333333333334 L 0.71875 0.9583333333333334 L 0.71875 0.71875 L 0.71875 0.4791666666666667 L 0.4791666666666667 0.4791666666666667 L 0.4791666666666667 0.4791666666666667 L 0.4791666666666667 0.71875 L 0.4791666666666667 0.71875 L 0.23958333333333334 0.71875 L 0.23958333333333334 0.71875 L 0 0.71875 L 0 0.71875 L 0 0.9583333333333334" />
<path stroke-linecap="round" stroke-linejoin="round" stroke="rgba(25,25,25, 0.95)" stroke-width="0.020833333333333332" fill="rgba(236,235,236,0.95)" d="M -0.23958333333333334 0.4791666666666667 L 0 0.4791666666666667 L 0 0.4791666666666667 L 0.23958333333333334 0.4791666666666667 L 0.23958333333333334 0.4791666666666667 L 0.4791666666666667 0.4791666666666667 L 0.4791666666666667 0.4791666666666667 L 0.71875 0.4791666666666667 L 0.71875 0.23958333333333334 L 0.4791666666666667 0.23958333333333334 L 0.4791666666666667 0.23958333333333334 L 0.23958333333333334 0.23958333333333334 L 0.23958333333333334 0.23958333333333334 L 0 0.23958333333333334 L 0 0.23958333333333334 L -0.23958333333333334 0.23958333333333334 L -0.23958333333333334 0.23958333333333334 L -0.23958333333333334 0.4791666666666667" />
<path stroke-linecap="round" stroke-linejoin="round" stroke="rgba(25,25,25, 0.95)" stroke-width="0.020833333333333332" fill="rgba(205,205,206,0.95)" d="M -0.23958333333333334 0.23958333333333334 L 0 0.23958333333333334 L 0 0.23958333333333334 L 0.23958333333333334 0.23958333333333334 L 0.23958333333333334 0.23958333333333334 L 0.4791666666666667 0.23958333333333334 L 0.4791666666666667 0.23958333333333334 L 0.71875 0.23958333333333334 L 0.71875 0 L 0.4791666666666667 0 L 0.4791666666666667 0 L 0.23958333333333334 0 L 0.23958333333333334 0 L 0 0 L 0 0 L -0.23958333333333334 0 L -0.23958333333333334 0 L -0.23958333333333334 0.23958333333333334" />

</g>
<g transform="translate(28.575 283.02857142857135) scale(66.03999999999999)">
<path stroke-linecap="round" stroke-linejoin="round" stroke="rgba(25,25,25, 0.95)" stroke-width="0.020833333333333332" fill="rgba(225,225,226,0.95)" d="M -0.23958333333333334 0.9583333333333334 L 0 0.9583333333333334 L 0 0.9583333333333334 L 0.23958333333333334 0.9583333333333334 L 0.23958333333333334 0.9583333333333334 L 0.23958333333333334 0.71875 L 0.23958333333333334 0.71875 L 0.23958333333333334 0.4791666666666667 L 0.23958333333333334 0.23958333333333334 L 0 0.23958333333333334 L 0 0.23958333333333334 L 0 0.4791666666666667 L 0 0.4791666666666667 L 0 0.71875 L 0 0.71875 L -0.23958333333333334 0.71875 L -0.23958333333333334 0.71875 L -0.23958333333333334 0.9583333333333334" />
<path stroke-linecap="round" stroke-linejoin="round" stroke="rgba(25,25,25, 0.95)" stroke-width="0.020833333333333332" fill="rgba(217,216,215,0.95)" d="M -0.23958333333333334 0.71875 L 0 0.71875 L 0 0.71875 L 0 0.4791666666666667 L 0 0.4791666666666667 L 0 0.23958333333333334 L 0 0.23958333333333334 L 0.23958333333333334 0.23958333333333334 L 0.23958333333333334 0 L 0 0 L 0 0 L -0.23958333333333334 0 L -0.23958333333333334 0 L -0.23958333333333334 0.23958333333333334 L -0.23958333333333334 0.23958333333333334 L -0.23958333333333334 0.4791666666666667 L -0.23958333333333334 0.4791666666666667 L -0.23958333333333334 0.71875" />
<path stroke-linecap="round" stroke-linejoin="round" stroke="rgba(25,25,25, 0.95)" stroke-width="0.020833333333333332" fill="rgba(236,235,236,0.95)" d="M 0.23958333333333334 0.9583333333333334 L 0.4791666666666667 0.9583333333333334 L 0.4791666666666667 0.9583333333333334 L 0.4791666666666667 0.71875 L 0.4791666666666667 0.71875 L 0.4791666666666667 0.4791666666666667 L 0.4791666666666667 0.4791666666666667 L 0.4791666666666667 0.23958333333333334 L 0.4791666666666667 0 L 0.23958333333333334 0 L 0.23958333333333334 0 L 0.23958333333333334 0.23958333333333334 L 0.23958333333333334 0.23958333333333334 L 0.23958333333333334 0.4791666666666667 L 0.23958333333333334 0.4791666666666667 L 0.23958333333333334 0.71875 L 0.23958333333333334 0.71875 L 0.23958333333333334 0.9583333333333334" />
<path stroke-linecap="round" stroke-linejoin="round" stroke="rgba(25,25,25, 0.95)" stroke-width="0.020833333333333332" fill="rgba(205,205,206,0.95)" d="M 0.4791666666666667 0.9583333333333334 L 0.71875 0.9583333333333334 L 0.71875 0.9583333333333334 L 0.71875 0.71875 L 0.71875 0.71875 L 0.71875 0.4791666666666667 L 0.71875 0.4791666666666667 L 0.71875 0.23958333333333334 L 0.71875 0 L 0.4791666666666667 0 L 0.4791666666666667 0 L 0.4791666666666667 0.23958333333333334 L 0.4791666666666667 0.23958333333333334 L 0.4791666666666667 0.4791666666666667 L 0.4791666666666667 0.4791666666666667 L 0.4791666666666667 0.71875 L 0.4791666666666667 0.71875 L 0.4791666666666667 0.9583333333333334" />

</g>
<g transform="translate(142.875 283.02857142857135) scale(66.03999999999999)">
<path stroke-linecap="round" stroke-linejoin="round" stroke="rgba(25,25,25, 0.95)" stroke-width="0.020833333333333332" fill="rgba(225,225,226,0.95)" d="M -0.23958333333333334 0.9583333333333334 L 0 0.9583333333333334 L 0 0.9583333333333334 L 0.23958333333333334 0.9583333333333334 L 0.23958333333333334 0.9583333333333334 L 0.23958333333333334 0.71875 L 0.23958333333333334 0.71875 L 0.23958333333333334 0.4791666666666667 L 0.23958333333333334 0.23958333333333334 L 0 0.23958333333333334 L 0 0.23958333333333334 L 0 0.4791666666666667 L 0 0.4791666666666667 L 0 0.71875 L 0 0.71875 L -0.23958333333333334 0.71875 L -0.23958333333333334 0.71875 L -0.23958333333333334 0.9583333333333334" />
<path stroke-linecap="round" stroke-linejoin="round" stroke="rgba(25,25,25, 0.95)" stroke-width="0.020833333333333332" fill="rgba(217,216,215,0.95)" d="M -0.23958333333333334 0.71875 L 0 0.71875 L 0 0.71875 L 0 0.4791666666666667 L 0 0.4791666666666667 L 0 0.23958333333333334 L 0 0.23958333333333334 L 0.23958333333333334 0.23958333333333334 L 0.23958333333333334 0 L 0 0 L 0 0 L -0.23958333333333334 0 L -0.23958333333333334 0 L -0.23958333333333334 0.23958333333333334 L -0.23958333333333334 0.23958333333333334 L -0.23958333333333334 0.4791666666666667 L -0.23958333333333334 0.4791666666666667 L -0.23958333333333334 0.71875" />
<path stroke-linecap="round" stroke-linejoin="round" stroke="rgba(25,25,25, 0.95)" stroke-width="0.020833333333333332" fill="rgba(236,235,236,0.95)" d="M 0.23958333333333334 0.9583333333333334 L 0.4791666666666667 0.9583333333333334 L 0.4791666666666667 0.9583333333333334 L 0.71875 0.9583333333333334 L 0.71875 0.9583333333333334 L 0.71875 0.71875 L 0.71875 0.71875 L 0.71875 0.4791666666666667 L 0.71875 0.23958333333333334 L 0.4791666666666667 0.23958333333333334 L 0.4791666666666667 0.23958333333333334 L 0.4791666666666667 0.4791666666666667 L 0.4791666666666667 0.4791666666666667 L 0.4791666666666667 0.71875 L 0.4791666666666667 0.71875 L 0.23958333333333334 0.71875 L 0.23958333333333334 0.71875 L 0.23958333333333334 0.9583333333333334" />
<path stroke-linecap="round" stroke-linejoin="round" stroke="rgba(25,25,25, 0.95)" stroke-width="0.020833333333333332" fill="rgba(205,205,206,0.95)" d="M 0.23958333333333334 0.71875 L 0.4791666666666667 0.71875 L 0.4791666666666667 0.71875 L 0.4791666666666667 0.4791666666666667 L 0.4791666666666667 0.4791666666666667 L 0.4791666666666667 0.23958333333333334 L 0.4791666666666667 0.23958333333333334 L 0.71875 0.23958333333333334 L 0.71875 0 L 0.4791666666666667 0 L 0.4791666666666667 0 L 0.23958333333333334 0 L 0.23958333333333334 0 L 0.23958333333333334 0.23958333333333334 L 0.23958333333333334 0.23958333333333334 L 0.23958333333333334 0.4791666666666667 L 0.23958333333333334 0.4791666666666667 L 0.23958333333333334 0.71875" />

</g>
<g transform="translate(257.175 283.02857142857135) scale(66.03999999999999)">
<path stroke-linecap="round" stroke-linejoin="round" stroke="rgba(25,25,25, 0.95)" stroke-width="0.020833333333333332" fill="rgba(225,225,226,0.95)" d="M -0.23958333333333334 0.9583333333333334 L 0 0.9583333333333334 L 0 0.9583333333333334 L 0.23958333333333334 0.9583333333333334 L 0.23958333333333334 0.9583333333333334 L 0.23958333333333334 0.71875 L 0.23958333333333334 0.71875 L 0.4791666666666667 0.71875 L 0.4791666666666667 0.4791666666666667 L 0.23958333333333334 0.4791666666666667 L 0.23958333333333334 0.4791666666666667 L 0 0.4791666666666667 L 0 0.4791666666666667 L 0 0.71875 L 0 0.71875 L -0.23958333333333334 0.71875 L -0.23958333333333334 0.71875 L -0.23958333333333334 0.9583333333333334" />
<path stroke-linecap="round" stroke-linejoin="round" stroke="rgba(25,25,25, 0.95)" stroke-width="0.020833333333333332" fill="rgba(217,216,215,0.95)" d="M -0.23958333333333334 0.71875 L 0 0.71875 L 0 0.71875 L 0 0.4791666666666667 L 0 0.4791666666666667 L 0 0.23958333333333334 L 0 0.23958333333333334 L 0.23958333333333334 0.23958333333333334 L 0.23958333333333334 0 L 0 0 L 0 0 L -0.23958333333333334 0 L -0.23958333333333334 0 L -0.23958333333333334 0.23958333333333334 L -0.23958333333333334 0.23958333333333334 L -0.23958333333333334 0.4791666666666667 L -0.23958333333333334 0.4791666666666667 L -0.23958333333333334 0.71875" />
<path stroke-linecap="round" stroke-linejoin="round" stroke="rgba(25,25,25, 0.95)" stroke-width="0.020833333333333332" fill="rgba(236,235,236,0.95)" d="M 0.23958333333333334 0.9583333333333334 L 0.4791666666666667 0.9583333333333334 L 0.4791666666666667 0.9583333333333334 L 0.71875 0.9583333333333334 L 0.71875 0.9583333333333334 L 0.71875 0.71875 L 0.71875 0.71875 L 0.71875 0.4791666666666667 L 0.71875 0.23958333333333334 L 0.4791666666666667 0.23958333333333334 L 0.4791666666666667 0.23958333333333334 L 0.4791666666666667 0.4791666666666667 L 0.4791666666666667 0.4791666666666667 L 0.4791666666666667 0.71875 L 0.4791666666666667 0.71875 L 0.23958333333333334 0.71875 L 0.23958333333333334 0.71875 L 0.23958333333333334 0.9583333333333334" />
<path stroke-linecap="round" stroke-linejoin="round" stroke="rgba(25,25,25, 0.95)" stroke-width="0.020833333333333332" fill="rgba(205,205,206,0.95)" d="M 0 0.4791666666666667 L 0.23958333333333334 0.4791666666666667 L 0.23958333333333334 0.4791666666666667 L 0.4791666666666667 0.4791666666666667 L 0.4791666666666667 0.4791666666666667 L 0.4791666666666667 0.23958333333333334 L 0.4791666666666667 0.23958333333333334 L 0.71875 0.23958333333333334 L 0.71875 0 L 0.4791666666666667 0 L 0.4791666666666667 0 L 0.23958333333333334 0 L 0.23958333333333334 0 L 0.23958333333333334 0.23958333333333334 L 0.23958333333333334 0.23958333333333334 L 0 0.23958333333333334 L 0 0.23958333333333334 L 0 0.4791666666666667" />

</g>
<g transform="translate(371.47499999999997 283.02857142857135) scale(66.03999999999999)">
<path stroke-linecap="round" stroke-linejoin="round" stroke="rgba(25,25,25, 0.95)" stroke-width="0.020833333333333332" fill="rgba(225,225,226,0.95)" d="M -0.23958333333333334 0.9583333333333334 L 0 0.9583333333333334 L 0 0.9583333333333334 L 0.23958333333333334 0.9583333333333334 L 0.23958333333333334 0.9583333333333334 L 0.23958333333333334 0.71875 L 0.23958333333333334 0.71875 L 0.4791666666666667 0.71875 L 0.4791666666666667 0.4791666666666667 L 0.23958333333333334 0.4791666666666667 L 0.23958333333333334 0.4791666666666667 L 0 0.4791666666666667 L 0 0.4791666666666667 L 0 0.71875 L 0 0.71875 L -0.23958333333333334 0.71875 L -0.23958333333333334 0.71875 L -0.23958333333333334 0.9583333333333334" />
<path stroke-linecap="round" stroke-linejoin="round" stroke="rgba(25,25,25, 0.95)" stroke-width="0.020833333333333332" fill="rgba(217,216,215,0.95)" d="M -0.23958333333333334 0.71875 L 0 0.71875 L 0 0.71875 L 0 0.4791666666666667 L 0 0.4791666666666667 L 0.23958333333333334 0.4791666666666667 L 0.23958333333333334 0.4791666666666667 L 0.4791666666666667 0.4791666666666667 L 0.4791666666666667 0.23958333333333334 L 0.23958333333333334 0.23958333333333334 L 0.23958333333333334 0.23958333333333334 L 0 0.23958333333333334 L 0 0.23958333333333334 L -0.23958333333333334 0.23958333333333334 L -0.23958333333333334 0.23958333333333334 L -0.23958333333333334 0.4791666666666667 L -0.23958333333333334 0.4791666666666667 L -0.23958333333333334 0.71875" />
<path stroke-linecap="round" stroke-linejoin="round" stroke="rgba(25,25,25, 0.95)" stroke-width="0.020833333333333332" fill="rgba(236,235,236,0.95)" d="M 0.23958333333333334 0.9583333333333334 L 0.4791666666666667 0.9583333333333334 L 0.4791666666666667 0.9583333333333334 L 0.71875 0.9583333333333334 L 0.71875 0.9583333333333334 L 0.71875 0.71875 L 0.71875 0.71875 L 0.71875 0.4791666666666667 L 0.71875 0.23958333333333334 L 0.4791666666666667 0.23958333333333334 L 0.4791666666666667 0.23958333333333334 L 0.4791666666666667 0.4791666666666667 L 0.4791666666666667 0.4791666666666667 L 0.4791666666666667 0.71875 L 0.4791666666666667 0.71875 L 0.23958333333333334 0.71875 L 0.23958333333333334 0.71875 L 0.23958333333333334 0.9583333333333334" />
<path stroke-linecap="round" stroke-linejoin="round" stroke="rgba(25,25,25, 0.95)" stroke-width="0.020833333333333332" fill="rgba(205,205,206,0.95)" d="M -0.23958333333333334 0.23958333333333334 L 0 0.23958333333333334 L 0 0.23958333333333334 L 0.23958333333333334 0.23958333333333334 L 0.23958333333333334 0.23958333333333334 L 0.4791666666666667 0.23958333333333334 L 0.4791666666666667 0.23958333333333334 L 0.71875 0.23958333333333334 L 0.71875 0 L 0.4791666666666667 0 L 0.4791666666666667 0 L 0.23958333333333334 0 L 0.23958333333333334 0 L 0 0 L 0 0 L -0.23958333333333334 0 L -0.23958333333333334 0 L -0.23958333333333334 0.23958333333333334" />

</g>
<g transform="translate(28.575 370.11428571428564) scale(66.03999999999999)">
<path stroke-linecap="round" stroke-linejoin="round" stroke="rgba(25,25,25, 0.95)" stroke-width="0.020833333333333332" fill="rgba(225,225,226,0.95)" d="M -0.23958333333333334 0.9583333333333334 L 0 0.9583333333333334 L 0 0.9583333333333334 L 0.23958333333333334 0.9583333333333334 L 0.23958333333333334 0.9583333333333334 L 0.4791666666666667 0.9583333333333334 L 0.4791666666666667 0.9583333333333334 L 0.4791666666666667 0.71875 L 0.4791666666666667 0.4791666666666667 L 0.23958333333333334 0.4791666666666667 L 0.23958333333333334 0.4791666666666667 L 0.23958333333333334 0.71875 L 0.23958333333333334 0.71875 L 0 0.71875 L 0 0.71875 L -0.23958333333333334 0.71875 L -0.23958333333333334 0.71875 L -0.23958333333333334 0.9583333333333334" />
<path stroke-linecap="round" stroke-linejoin="round" stroke="rgba(25,25,25, 0.95)" stroke-width="0.020833333333333332" fill="rgba(217,216,215,0.95)" d="M -0.23958333333333334 0.71875 L 0 0.71875 L 0 0.71875 L 0 0.4791666666666667 L 0 0.4791666666666667 L 0 0.23958333333333334 L 0 0.23958333333333334 L 0.23958333333333334 0.23958333333333334 L 0.23958333333333334 0 L 0 0 L 0 0 L -0.23958333333333334 0 L -0.23958333333333334 0 L -0.23958333333333334 0.23958333333333334 L -0.23958333333333334 0.23958333333333334 L -0.23958333333333334 0.4791666666666667 L -0.23958333333333334 0.4791666666666667 L -0.23958333333333334 0.71875" />
<path stroke-linecap="round" stroke-linejoin="round" stroke="rgba(25,25,25, 0.95)" stroke-width="0.020833333333333332" fill="rgba(236,235,236,0.95)" d="M 0 0.71875 L 0.23958333333333334 0.71875 L 0.23958333333333334 0.71875 L 0.23958333333333334 0.4791666666666667 L 0.23958333333333334 0.4791666666666667 L 0.4791666666666667 0.4791666666666667 L 0.4791666666666667 0.4791666666666667 L 0.4791666666666667 0.23958333333333334 L 0.4791666666666667 0 L 0.23958333333333334 0 L 0.23958333333333334 0 L 0.23958333333333334 0.23958333333333334 L 0.23958333333333334 0.23958333333333334 L 0 0.23958333333333334 L 0 0.23958333333333334 L 0 0.4791666666666667 L 0 0.4791666666666667 L 0 0.71875" />
<path stroke-linecap="round" stroke-linejoin="round" stroke="rgba(25,25,25, 0.95)" stroke-width="0.020833333333333332" fill="rgba(205,205,206,0.95)" d="M 0.4791666666666667 0.9583333333333334 L 0.71875 0.9583333333333334 L 0.71875 0.9583333333333334 L 0.71875 0.71875 L 0.71875 0.71875 L 0.71875 0.4791666666666667 L 0.71875 0.4791666666666667 L 0.71875 0.23958333333333334 L 0.71875 0 L 0.4791666666666667 0 L 0.4791666666666667 0 L 0.4791666666666667 0.23958333333333334 L 0.4791666666666667 0.23958333333333334 L 0.4791666666666667 0.4791666666666667 L 0.4791666666666667 0.4791666666666667 L 0.4791666666666667 0.71875 L 0.4791666666666667 0.71875 L 0.4791666666666667 0.9583333333333334" />

</g>
<g transform="translate(142.875 370.11428571428564) scale(66.03999999999999)">
<path stroke-linecap="round" stroke-linejoin="round" stroke="rgba(25,25,25, 0.95)" stroke-width="0.020833333333333332" fill="rgba(225,225,226,0.95)" d="M -0.23958333333333334 0.9583333333333334 L 0 0.9583333333333334 L 0 0.9583333333333334 L 0.23958333333333334 0.9583333333333334 L 0.23958333333333334 0.9583333333333334 L 0.4791666666666667 0.9583333333333334 L 0.4791666666666667 0.9583333333333334 L 0.71875 0.9583333333333334 L 0.71875 0.71875 L 0.4791666666666667 0.71875 L 0.4791666666666667 0.71875 L 0.23958333333333334 0.71875 L 0.23958333333333334 0.71875 L 0 0.71875 L 0 0.71875 L -0.23958333333333334 0.71875 L -0.23958333333333334 0.71875 L -0.23958333333333334 0.9583333333333334" />
<path stroke-linecap="round" stroke-linejoin="round" stroke="rgba(25,25,25, 0.95)" stroke-width="0.020833333333333332" fill="rgba(217,216,215,0.95)" d="M -0.23958333333333334 0.71875 L 0 0.71875 L 0 0.71875 L 0 0.4791666666666667 L 0 0.4791666666666667 L 0 0.23958333333333334 L 0 0.23958333333333334 L 0.23958333333333334 0.23958333333333334 L 0.23958333333333334 0 L 0 0 L 0 0 L -0.23958333333333334 0 L -0.23958333333333334 0 L -0.23958333333333334 0.23958333333333334 L -0.23958333333333334 0.23958333333333334 L -0.23958333333333334 0.4791666666666667 L -0.23958333333333334 0.4791666666666667 L -0.23958333333333334 0.71875" />
<path stroke-linecap="round" stroke-linejoin="round" stroke="rgba(25,25,25, 0.95)" stroke-width="0.020833333333333332" fill="rgba(236,235,236,0.95)" d="M 0 0.71875 L 0.23958333333333334 0.71875 L 0.23958333333333334 0.71875 L 0.23958333333333334 0.4791666666666667 L 0.23958333333333334 0.4791666666666667 L 0.4791666666666667 0.4791666666666667 L 0.4791666666666667 0.4791666666666667 L 0.4791666666666667 0.23958333333333334 L 0.4791666666666667 0 L 0.23958333333333334 0 L 0.23958333333333334 0 L 0.23958333333333334 0.23958333333333334 L 0.23958333333333334 0.23958333333333334 L 0 0.23958333333333334 L 0 0.23958333333333334 L 0 0.4791666666666667 L 0 0.4791666666666667 L 0 0.71875" />
<path stroke-linecap="round" stroke-linejoin="round" stroke="rgba(25,25,25, 0.95)" stroke-width="0.020833333333333332" fill="rgba(205,205,206,0.95)" d="M 0.23958333333333334 0.71875 L 0.4791666666666667 0.71875 L 0.4791666666666667 0.71875 L 0.71875 0.71875 L 0.71875 0.71875 L 0.71875 0.4791666666666667 L 0.71875 0.4791666666666667 L 0.71875 0.23958333333333334 L 0.71875 0 L 0.4791666666666667 0 L 0.4791666666666667 0 L 0.4791666666666667 0.23958333333333334 L 0.4791666666666667 0.23958333333333334 L 0.4791666666666667 0.4791666666666667 L 0.4791666666666667 0.4791666666666667 L 0.23958333333333334 0.4791666666666667 L 0.23958333333333334 0.4791666666666667 L 0.23958333333333334 0.71875" />

</g>
<g transform="translate(257.175 370.11428571428564) scale(66.03999999999999)">
<path stroke-linecap="round" stroke-linejoin="round" stroke="rgba(25,25,25, 0.95)" stroke-width="0.020833333333333332" fill="rgba(225,225,226,0.95)" d="M -0.23958333333333334 0.9583333333333334 L 0 0.9583333333333334 L 0 0.9583333333333334 L 0.23958333333333334 0.9583333333333334 L 0.23958333333333334 0.9583333333333334 L 0.4791666666666667 0.9583333333333334 L 0.4791666666666667 0.9583333333333334 L 0.71875 0.9583333333333334 L 0.71875 0.71875 L 0.4791666666666667 0.71875 L 0.4791666666666667 0.71875 L 0.23958333333333334 0.71875 L 0.23958333333333334 0.71875 L 0 0.71875 L 0 0.71875 L -0.23958333333333334 0.71875 L -0.23958333333333334 0.71875 L -0.23958333333333334 0.9583333333333334" />
<path stroke-linecap="round" stroke-linejoin="round" stroke="rgba(25,25,25, 0.95)" stroke-width="0.020833333333333332" fill="rgba(217,216,215,0.95)" d="M -0.23958333333333334 0.71875 L 0 0.71875 L 0 0.71875 L 0 0.4791666666666667 L 0 0.4791666666666667 L 0 0.23958333333333334 L 0 0.23958333333333334 L 0.23958333333333334 0.23958333333333334 L 0.23958333333333334 0 L 0 0 L 0 0 L -0.23958333333333334 0 L -0.23958333333333334 0 L -0.23958333333333334 0.23958333333333334 L -0.23958333333333334 0.23958333333333334 L -0.23958333333333334 0.4791666666666667 L -0.23958333333333334 0.4791666666666667 L -0.23958333333333334 0.71875" />
<path stroke-linecap="round" stroke-linejoin="round" stroke="rgba(25,25,25, 0.95)" stroke-width="0.020833333333333332" fill="rgba(236,235,236,0.95)" d="M 0 0.71875 L 0.23958333333333334 0.71875 L 0.23958333333333334 0.71875 L 0.4791666666666667 0.71875 L 0.4791666666666667 0.71875 L 0.71875 0.71875 L 0.71875 0.71875 L 0.71875 0.4791666666666667 L 0.71875 0.23958333333333334 L 0.4791666666666667 0.23958333333333334 L 0.4791666666666667 0.23958333333333334 L 0.4791666666666667 0.4791666666666667 L 0.4791666666666667 0.4791666666666667 L 0.23958333333333334 0.4791666666666667 L 0.23958333333333334 0.4791666666666667 L 0 0.4791666666666667 L 0 0.4791666666666667 L 0 0.71875" />
<path stroke-linecap="round" stroke-linejoin="round" stroke="rgba(25,25,25, 0.95)" stroke-width="0.020833333333333332" fill="rgba(205,205,206,0.95)" d="M 0 0.4791666666666667 L 0.23958333333333334 0.4791666666666667 L 0.23958333333333334 0.4791666666666667 L 0.4791666666666667 0.4791666666666667 L 0.4791666666666667 0.4791666666666667 L 0.4791666666666667 0.23958333333333334 L 0.4791666666666667 0.23958333333333334 L 0.71875 0.23958333333333334 L 0.71875 0 L 0.4791666666666667 0 L 0.4791666666666667 0 L 0.23958333333333334 0 L 0.23958333333333334 0 L 0.23958333333333334 0.23958333333333334 L 0.23958333333333334 0.23958333333333334 L 0 0.23958333333333334 L 0 0.23958333333333334 L 0 0.4791666666666667" />

</g>
<g transform="translate(371.47499999999997 370.11428571428564) scale(66.03999999999999)">
<path stroke-linecap="round" stroke-linejoin="round" stroke="rgba(25,25,25, 0.95)" stroke-width="0.020833333333333332" fill="rgba(225,225,226,0.95)" d="M -0.23958333333333334 0.9583333333333334 L 0 0.9583333333333334 L 0 0.9583333333333334 L 0.23958333333333334 0.9583333333333334 L 0.23958333333333334 0.9583333333333334 L 0.4791666666666667 0.9583333333333334 L 0.4791666666666667 0.9583333333333334 L 0.71875 0.9583333333333334 L 0.71875 0.71875 L 0.4791666666666667 0.71875 L 0.4791666666666667 0.71875 L 0.23958333333333334 0.71875 L 0.23958333333333334 0.71875 L 0 0.71875 L 0 0.71875 L -0.23958333333333334 0.71875 L -0.23958333333333334 0.71875 L -0.23958333333333334 0.9583333333333334" />
<path stroke-linecap="round" stroke-linejoin="round" stroke="rgba(25,25,25, 0.95)" stroke-width="0.020833333333333332" fill="rgba(217,216,215,0.95)" d="M -0.23958333333333334 0.71875 L 0 0.71875 L 0 0.71875 L 0 0.4791666666666667 L 0 0.4791666666666667 L 0.23958333333333334 0.4791666666666667 L 0.23958333333333334 0.4791666666666667 L 0.4791666666666667 0.4791666666666667 L 0.4791666666666667 0.23958333333333334 L 0.23958333333333334 0.23958333333333334 L 0.23958333333333334 0.23958333333333334 L 0 0.23958333333333334 L 0 0.23958333333333334 L -0.23958333333333334 0.23958333333333334 L -0.23958333333333334 0.23958333333333334 L -0.23958333333333334 0.4791666666666667 L -0.23958333333333334 0.4791666666666667 L -0.23958333333333334 0.71875" />
<path stroke-linecap="round" stroke-linejoin="round" stroke="rgba(25,25,25, 0.95)" stroke-width="0.020833333333333332" fill="rgba(236,235,236,0.95)" d="M 0 0.71875 L 0.23958333333333334 0.71875 L 0.23958333333333334 0.71875 L 0.4791666666666667 0.71875 L 0.4791666666666667 0.71875 L 0.71875 0.71875 L 0.71875 0.71875 L 0.71875 0.4791666666666667 L 0.71875 0.23958333333333334 L 0.4791666666666667 0.23958333333333334 L 0.4791666666666667 0.23958333333333334 L 0.4791666666666667 0.4791666666666667 L 0.4791666666666667 0.4791666666666667 L 0.23958333333333334 0.4791666666666667 L 0.23958333333333334 0.4791666666666667 L 0 0.4791666666666667 L 0 0.4791666666666667 L 0 0.71875" />
<path stroke-linecap="round" stroke-linejoin="round" stroke="rgba(25,25,25, 0.95)" stroke-width="0.020833333333333332" fill="rgba(205,205,206,0.95)" d="M -0.23958333333333334 0.23958333333333334 L 0 0.23958333333333334 L 0 0.23958333333333334 L 0.23958333333333334 0.23958333333333334 L 0.23958333333333334 0.23958333333333334 L 0.4791666666666667 0.23958333333333334 L 0.4791666666666667 0.23958333333333334 L 0.71875 0.23958333333333334 L 0.71875 0 L 0.4791666666666667 0 L 0.4791666666666667 0 L 0.23958333333333334 0 L 0.23958333333333334 0 L 0 0 L 0 0 L -0.23958333333333334 0 L -0.23958333333333334 0 L -0.23958333333333334 0.23958333333333334" />

</g>
<g transform="translate(28.575 457.19999999999993) scale(66.03999999999999)">
<path stroke-linecap="round" stroke-linejoin="round" stroke="rgba(25,25,25, 0.95)" stroke-width="0.020833333333333332" fill="rgba(225,225,226,0.95)" d="M -0.23958333333333334 0.9583333333333334 L 0 0.9583333333333334 L 0 0.9583333333333334 L 0.23958333333333334 0.9583333333333334 L 0.23958333333333334 0.9583333333333334 L 0.4791666666666667 0.9583333333333334 L 0.4791666666666667 0.9583333333333334 L 0.4791666666666667 0.71875 L 0.4791666666666667 0.4791666666666667 L 0.23958333333333334 0.4791666666666667 L 0.23958333333333334 0.4791666666666667 L 0.23958333333333334 0.71875 L 0.23958333333333334 0.71875 L 0 0.71875 L 0 0.71875 L -0.23958333333333334 0.71875 L -0.23958333333333334 0.71875 L -0.23958333333333334 0.9583333333333334" />
<path stroke-linecap="round" stroke-linejoin="round" stroke="rgba(25,25,25, 0.95)" stroke-width="0.020833333333333332" fill="rgba(217,216,215,0.95)" d="M -0.23958333333333334 0.71875 L 0 0.71875 L 0 0.71875 L 0.23958333333333334 0.71875 L 0.23958333333333334 0.71875 L 0.23958333333333334 0.4791666666666667 L 0.23958333333333334 0.4791666666666667 L 0.4791666666666667 0.4791666666666667 L 0.4791666666666667 0.23958333333333334 L 0.23958333333333334 0.23958333333333334 L 0.23958333333333334 0.23958333333333334 L 0 0.23958333333333334 L 0 0.23958333333333334 L 0 0.4791666666666667 L 0 0.4791666666666667 L -0.23958333333333334 0.4791666666666667 L -0.23958333333333334 0.4791666666666667 L -0.23958333333333334 0.71875" />
<path stroke-linecap="round" stroke-linejoin="round" stroke="rgba(25,25,25, 0.95)" stroke-width="0.020833333333333332" fill="rgba(236,235,236,0.95)" d="M -0.23958333333333334 0.4791666666666667 L 0 0.4791666666666667 L 0 0.4791666666666667 L 0 0.23958333333333334 L 0 0.23958333333333334 L 0.23958333333333334 0.23958333333333334 L 0.23958333333333334 0.23958333333333334 L 0.4791666666666667 0.23958333333333334 L 0.4791666666666667 0 L 0.23958333333333334 0 L 0.23958333333333334 0 L 0 0 L 0 0 L -0.23958333333333334 0 L -0.23958333333333334 0 L -0.23958333333333334 0.23958333333333334 L -0.23958333333333334 0.23958333333333334 L -0.23958333333333334 0.4791666666666667" />
<path stroke-linecap="round" stroke-linejoin="round" stroke="rgba(25,25,25, 0.95)" stroke-width="0.020833333333333332" fill="rgba(205,205,206,0.95)" d="M 0.4791666666666667 0.9583333333333334 L 0.71875 0.9583333333333334 L 0.71875 0.9583333333333334 L 0.71875 0.71875 L 0.71875 0.71875 L 0.71875 0.4791666666666667 L 0.71875 0.4791666666666667 L 0.71875 0.23958333333333334 L 0.71875 0 L 0.4791666666666667 0 L 0.4791666666666667 0 L 0.4791666666666667 0.23958333333333334 L 0.4791666666666667 0.23958333333333334 L 0.4791666666666667 0.4791666666666667 L 0.4791666666666667 0.4791666666666667 L 0.4791666666666667 0.71875 L 0.4791666666666667 0.71875 L 0.4791666666666667 0.9583333333333334" />

</g>
<g transform="translate(142.875 457.19999999999993) scale(66.03999999999999)">
<path stroke-linecap="round" stroke-linejoin="round" stroke="rgba(25,25,25, 0.95)" stroke-width="0.020833333333333332" fill="rgba(225,225,226,0.95)" d="M -0.23958333333333334 0.9583333333333334 L 0 0.9583333333333334 L 0 0.9583333333333334 L 0.23958333333333334 0.9583333333333334 L 0.23958333333333334 0.9583333333333334 L 0.4791666666666667 0.9583333333333334 L 0.4791666666666667 0.9583333333333334 L 0.71875 0.9583333333333334 L 0.71875 0.71875 L 0.4791666666666667 0.71875 L 0.4791666666666667 0.71875 L 0.23958333333333334 0.71875 L 0.23958333333333334 0.71875 L 0 0.71875 L 0 0.71875 L -0.23958333333333334 0.71875 L -0.23958333333333334 0.71875 L -0.23958333333333334 0.9583333333333334" />
<path stroke-linecap="round" stroke-linejoin="round" stroke="rgba(25,25,25, 0.95)" stroke-width="0.020833333333333332" fill="rgba(217,216,215,0.95)" d="M -0.23958333333333334 0.71875 L 0 0.71875 L 0 0.71875 L 0.23958333333333334 0.71875 L 0.23958333333333334 0.71875 L 0.23958333333333334 0.4791666666666667 L 0.23958333333333334 0.4791666666666667 L 0.4791666666666667 0.4791666666666667 L 0.4791666666666667 0.23958333333333334 L 0.23958333333333334 0.23958333333333334 L 0.23958333333333334 0.23958333333333334 L 0 0.23958333333333334 L 0 0.23958333333333334 L 0 0.4791666666666667 L 0 0.4791666666666667 L -0.23958333333333334 0.4791666666666667 L -0.23958333333333334 0.4791666666666667 L -0.23958333333333334 0.71875" />
<path stroke-linecap="round" stroke-linejoin="round" stroke="rgba(25,25,25, 0.95)" stroke-width="0.020833333333333332" fill="rgba(236,235,236,0.95)" d="M -0.23958333333333334 0.4791666666666667 L 0 0.4791666666666667 L 0 0.4791666666666667 L 0 0.23958333333333334 L 0 0.23958333333333334 L 0.23958333333333334 0.23958333333333334 L 0.23958333333333334 0.23958333333333334 L 0.4791666666666667 0.23958333333333334 L 0.4791666666666667 0 L 0.23958333333333334 0 L 0.23958333333333334 0 L 0 0 L 0 0 L -0.23958333333333334 0 L -0.23958333333333334 0 L -0.23958333333333334 0.23958333333333334 L -0.23958333333333334 0.23958333333333334 L -0.23958333333333334 0.4791666666666667" />
<path stroke-linecap="round" stroke-linejoin="round" stroke="rgba(25,25,25, 0.95)" stroke-width="0.020833333333333332" fill="rgba(205,205,206,0.95)" d="M 0.23958333333333334 0.71875 L 0.4791666666666667 0.71875 L 0.4791666666666667 0.71875 L 0.71875 0.71875 L 0.71875 0.71875 L 0.71875 0.4791666666666667 L 0.71875 0.4791666666666667 L 0.71875 0.23958333333333334 L 0.71875 0 L 0.4791666666666667 0 L 0.4791666666666667 0 L 0.4791666666666667 0.23958333333333334 L 0.4791666666666667 0.23958333333333334 L 0.4791666666666667 0.4791666666666667 L 0.4791666666666667 0.4791666666666667 L 0.23958333333333334 0.4791666666666667 L 0.23958333333333334 0.4791666666666667 L 0.23958333333333334 0.71875" />

</g>
<g transform="translate(257.175 457.19999999999993) scale(66.03999999999999)">
<path stroke-linecap="round" stroke-linejoin="round" stroke="rgba(25,25,25, 0.95)" stroke-width="0.020833333333333332" fill="rgba(225,225,226,0.95)" d="M -0.23958333333333334 0.9583333333333334 L 0 0.9583333333333334 L 0 0.9583333333333334 L 0.23958333333333334 0.9583333333333334 L 0.23958333333333334 0.9583333333333334 L 0.4791666666666667 0.9583333333333334 L 0.4791666666666667 0.9583333333333334 L 0.71875 0.9583333333333334 L 0.71875 0.71875 L 0.4791666666666667 0.71875 L 0.4791666666666667 0.71875 L 0.23958333333333334 0.71875 L 0.23958333333333334 0.71875 L 0 0.71875 L 0 0.71875 L -0.23958333333333334 0.71875 L -0.23958333333333334 0.71875 L -0.23958333333333334 0.9583333333333334" />
<path stroke-linecap="round" stroke-linejoin="round" stroke="rgba(25,25,25, 0.95)" stroke-width="0.020833333333333332" fill="rgba(217,216,215,0.95)" d="M -0.23958333333333334 0.71875 L 0 0.71875 L 0 0.71875 L 0.23958333333333334 0.71875 L 0.23958333333333334 0.71875 L 0.4791666666666667 0.71875 L 0.4791666666666667 0.71875 L 0.71875 0.71875 L 0.71875 0.4791666666666667 L 0.4791666666666667 0.4791666666666667 L 0.4791666666666667 0.4791666666666667 L 0.23958333333333334 0.4791666666666667 L 0.23958333333333334 0.4791666666666667 L 0 0.4791666666666667 L 0 0.4791666666666667 L -0.23958333333333334 0.4791666666666667 L -0.23958333333333334 0.4791666666666667 L -0.23958333333333334 0.71875" />
<path stroke-linecap="round" stroke-linejoin="round" stroke="rgba(25,25,25, 0.95)" stroke-width="0.020833333333333332" fill="rgba(236,235,236,0.95)" d="M -0.23958333333333334 0.4791666666666667 L 0 0.4791666666666667 L 0 0.4791666666666667 L 0 0.23958333333333334 L 0 0.23958333333333334 L 0.23958333333333334 0.23958333333333334 L 0.23958333333333334 0.23958333333333334 L 0.4791666666666667 0.23958333333333334 L 0.4791666666666667 0 L 0.23958333333333334 0 L 0.23958333333333334 0 L 0 0 L 0 0 L -0.23958333333333334 0 L -0.23958333333333334 0 L -0.23958333333333334 0.23958333333333334 L -0.23958333333333334 0.23958333333333334 L -0.23958333333333334 0.4791666666666667" />
<path stroke-linecap="round" stroke-linejoin="round" stroke="rgba(25,25,25, 0.95)" stroke-width="0.020833333333333332" fill="rgba(205,205,206,0.95)" d="M 0 0.4791666666666667 L 0.23958333333333334 0.4791666666666667 L 0.23958333333333334 0.4791666666666667 L 0.4791666666666667 0.4791666666666667 L 0.4791666666666667 0.4791666666666667 L 0.71875 0.4791666666666667 L 0.71875 0.4791666666666667 L 0.71875 0.23958333333333334 L 0.71875 0 L 0.4791666666666667 0 L 0.4791666666666667 0 L 0.4791666666666667 0.23958333333333334 L 0.4791666666666667 0.23958333333333334 L 0.23958333333333334 0.23958333333333334 L 0.23958333333333334 0.23958333333333334 L 0 0.23958333333333334 L 0 0.23958333333333334 L 0 0.4791666666666667" />

</g>
<g transform="translate(371.47499999999997 457.19999999999993) scale(66.03999999999999)">
<path stroke-linecap="round" stroke-linejoin="round" stroke="rgba(25,25,25, 0.95)" stroke-width="0.020833333333333332" fill="rgba(225,225,226,0.95)" d="M -0.23958333333333334 0.9583333333333334 L 0 0.9583333333333334 L 0 0.9583333333333334 L 0.23958333333333334 0.9583333333333334 L 0.23958333333333334 0.9583333333333334 L 0.4791666666666667 0.9583333333333334 L 0.4791666666666667 0.9583333333333334 L 0.71875 0.9583333333333334 L 0.71875 0.71875 L 0.4791666666666667 0.71875 L 0.4791666666666667 0.71875 L 0.23958333333333334 0.71875 L 0.23958333333333334 0.71875 L 0 0.71875 L 0 0.71875 L -0.23958333333333334 0.71875 L -0.23958333333333334 0.71875 L -0.23958333333333334 0.9583333333333334" />
<path stroke-linecap="round" stroke-linejoin="round" stroke="rgba(25,25,25, 0.95)" stroke-width="0.020833333333333332" fill="rgba(217,216,215,0.95)" d="M -0.23958333333333334 0.71875 L 0 0.71875 L 0 0.71875 L 0.23958333333333334 0.71875 L 0.23958333333333334 0.71875 L 0.4791666666666667 0.71875 L 0.4791666666666667 0.71875 L 0.71875 0.71875 L 0.71875 0.4791666666666667 L 0.4791666666666667 0.4791666666666667 L 0.4791666666666667 0.4791666666666667 L 0.23958333333333334 0.4791666666666667 L 0.23958333333333334 0.4791666666666667 L 0 0.4791666666666667 L 0 0.4791666666666667 L -0.23958333333333334 0.4791666666666667 L -0.23958333333333334 0.4791666666666667 L -0.23958333333333334 0.71875" />
<path stroke-linecap="round" stroke-linejoin="round" stroke="rgba(25,25,25, 0.95)" stroke-width="0.020833333333333332" fill="rgba(236,235,236,0.95)" d="M -0.23958333333333334 0.4791666666666667 L 0 0.4791666666666667 L 0 0.4791666666666667 L 0.23958333333333334 0.4791666666666667 L 0.23958333333333334 0.4791666666666667 L 0.4791666666666667 0.4791666666666667 L 0.4791666666666667 0.4791666666666667 L 0.71875 0.4791666666666667 L 0.71875 0.23958333333333334 L 0.4791666666666667 0.23958333333333334 L 0.4791666666666667 0.23958333333333334 L 0.23958333333333334 0.23958333333333334 L 0.23958333333333334 0.23958333333333334 L 0 0.23958333333333334 L 0 0.23958333333333334 L -0.23958333333333334 0.23958333333333334 L -0.23958333333333334 0.23958333333333334 L -0.23958333333333334 0.4791666666666667" />
<path stroke-linecap="round" stroke-linejoin="round" stroke="rgba(25,25,25, 0.95)" stroke-width="0.020833333333333332" fill="rgba(205,205,206,0.95)" d="M -0.23958333333333334 0.23958333333333334 L 0 0.23958333333333334 L 0 0.23958333333333334 L 0.23958333333333334 0.23958333333333334 L 0.23958333333333334 0.23958333333333334 L 0.4791666666666667 0.23958333333333334 L 0.4791666666666667 0.23958333333333334 L 0.71875 0.23958333333333334 L 0.71875 0 L 0.4791666666666667 0 L 0.4791666666666667 0 L 0.23958333333333334 0 L 0.23958333333333334 0 L 0 0 L 0 0 L -0.23958333333333334 0 L -0.23958333333333334 0 L -0.23958333333333334 0.23958333333333334" />

</g>
</svg>
