<?xml version="1.0" encoding="UTF-8" standalone="no"?>
<!-- Created with Inkscape (http://www.inkscape.org/) -->

<svg
   xmlns:dc="http://purl.org/dc/elements/1.1/"
   xmlns:cc="http://creativecommons.org/ns#"
   xmlns:rdf="http://www.w3.org/1999/02/22-rdf-syntax-ns#"
   xmlns:svg="http://www.w3.org/2000/svg"
   xmlns="http://www.w3.org/2000/svg"
   xmlns:sodipodi="http://sodipodi.sourceforge.net/DTD/sodipodi-0.dtd"
   xmlns:inkscape="http://www.inkscape.org/namespaces/inkscape"
   width="210mm"
   height="297mm"
   viewBox="0 0 210 297"
   version="1.1"
   id="svg8"
   inkscape:version="0.92.5 (0.92.5+68)"
   sodipodi:docname="sandtrotter-outline.svg">
  <defs
     id="defs2" />
  <sodipodi:namedview
     id="base"
     pagecolor="#ffffff"
     bordercolor="#666666"
     borderopacity="1.0"
     inkscape:pageopacity="0.0"
     inkscape:pageshadow="2"
     inkscape:zoom="0.7"
     inkscape:cx="490.93803"
     inkscape:cy="447.71197"
     inkscape:document-units="mm"
     inkscape:current-layer="layer1"
     showgrid="false"
     inkscape:window-width="1615"
     inkscape:window-height="943"
     inkscape:window-x="150"
     inkscape:window-y="68"
     inkscape:window-maximized="0" />
  <metadata
     id="metadata5">
    <rdf:RDF>
      <cc:Work
         rdf:about="">
        <dc:format>image/svg+xml</dc:format>
        <dc:type
           rdf:resource="http://purl.org/dc/dcmitype/StillImage" />
        <dc:title></dc:title>
      </cc:Work>
    </rdf:RDF>
  </metadata>
  <g
     inkscape:label="Layer 1"
     inkscape:groupmode="layer"
     id="layer1">
    <path
       style="fill:none;fill-rule:evenodd;stroke:#000000;stroke-width:0.25;stroke-linecap:butt;stroke-linejoin:miter;stroke-opacity:1;stroke-miterlimit:4;stroke-dasharray:none"
       d="m 147.74138,175.15885 c 6.2849,3.51651 12.30871,7.64085 17.61534,12.50968 4.53974,4.16521 8.30351,9.13365 11.95664,14.0948 3.11585,4.23148 6.78128,8.32503 8.45273,13.30702 2.58848,7.71533 6.44006,17.5212 1.98727,24.3329 -3.54588,5.42433 -11.9597,5.47197 -18.3838,6.32498 -5.03715,0.66886 -10.23094,-0.009 -15.20953,-1.0258 -8.10977,-1.6563 -15.80552,-4.99493 -23.44635,-8.17758 -4.37021,-1.82033 -8.5617,-4.04799 -12.76525,-6.22571 -4.65738,-2.41283 -8.54786,-7.64589 -13.79265,-7.5749 -4.305852,0.0583 -7.519137,4.20923 -11.150944,6.52304 -4.509841,2.8732 -8.527916,6.51265 -13.192748,9.12671 -5.381648,3.01573 -10.969869,5.87819 -16.926046,7.48466 -6.228897,1.68004 -12.829978,2.89714 -19.236314,2.13522 -6.2094,-0.73849 -14.046173,-1.26731 -17.639457,-6.38496 -4.621173,-6.5816 -1.781183,-16.27913 -0.01974,-24.12578 1.222516,-5.44592 4.210132,-10.39948 7.169368,-15.13187 2.106142,-3.36813 4.607447,-6.52639 7.448826,-9.30248 4.924681,-4.81153 11.024316,-8.25388 16.418758,-12.53211 4.08061,-3.23626 9.729587,-5.2764 12.05952,-9.93431 1.763117,-3.52476 0.537719,-7.86981 0.542554,-11.81093 0.008,-6.52625 -1.38595,-13.05603 -0.850446,-19.56028 0.53883,-6.54464 1.897717,-13.07733 4.063244,-19.27678 1.793746,-5.13513 3.708327,-10.5125 7.308333,-14.59011 4.377819,-4.95862 9.89385,-10.779197 16.504167,-11.017781 7.195269,-0.259697 13.371419,5.916711 18.782469,10.666451 4.0961,3.59549 7.29638,8.2361 9.84922,13.05156 3.47579,6.55643 5.55821,13.83113 7.18155,21.07217 1.16497,5.19641 1.25656,10.57693 1.7954,15.875 0.50807,4.99552 -1.59919,10.94272 1.35534,15.00278 2.58441,3.55145 8.28949,3.01975 12.12255,5.16441 z"
       id="edge"
       inkscape:connector-curvature="0"
       sodipodi:nodetypes="aaaaaaaaaaaaaaaaaaaaaaaaaaaaaaa">
      <title
         id="title1532">edge_outline</title>
    </path>
    <path
       style="fill:none;fill-rule:evenodd;stroke:#000000;stroke-width:0.16986685px;stroke-linecap:butt;stroke-linejoin:miter;stroke-opacity:1"
       d="m 136.80186,180.27758 c 2.93096,2.95346 5.87993,5.91241 8.47451,9.16534 1.85096,2.32063 3.26468,4.96218 5.03053,7.34821 1.7844,2.41111 4.08434,4.45223 5.61579,7.03142 3.96519,6.67796 12.47361,14.52225 9.02437,21.48075 -3.07598,6.20547 -13.19298,5.29993 -20.11819,5.19467 -3.71745,-0.0565 -7.19155,-1.91328 -10.70971,-3.11543 -3.05318,-1.04327 -6.12852,-2.0883 -9.00532,-3.54925 -3.48107,-1.76782 -6.37529,-4.5782 -9.89639,-6.26487 -3.29328,-1.57753 -6.7173,-3.42253 -10.36702,-3.54028 -2.92774,-0.0944 -5.757428,1.22224 -8.481999,2.29801 -3.502891,1.38309 -6.473768,3.92271 -9.981866,5.29254 -3.792118,1.48072 -7.873462,2.07352 -11.811738,3.10438 -3.926666,1.02783 -7.735858,2.76315 -11.783068,3.07174 -5.930998,0.45224 -14.375282,3.06654 -17.750417,-1.83139 -4.142534,-6.01156 2.550103,-14.5522 5.656972,-21.15878 2.052525,-4.36458 5.251893,-8.12487 8.382614,-11.79379 2.137059,-2.50444 4.88519,-4.43691 7.050127,-6.91729 1.579302,-1.80941 2.939401,-3.80194 4.304504,-5.77796 1.859201,-2.69124 4.003673,-5.25852 5.285566,-8.26786 1.2475,-2.92861 1.460257,-6.197 2.23821,-9.28371 0.914545,-3.62867 1.788385,-7.27045 2.855785,-10.85713 0.956096,-3.21268 1.892475,-6.44459 3.175634,-9.54119 1.336849,-3.22617 2.380806,-6.7492 4.692069,-9.36709 2.810633,-3.18352 6.352015,-6.92042 10.595948,-7.07359 4.619479,-0.16674 8.584659,3.79862 12.058649,6.84803 2.62976,2.30837 4.54259,5.36717 6.32336,8.37932 2.30416,3.89747 4.31875,8.03934 5.55561,12.39475 0.79736,2.80775 0.39925,5.86026 1.15268,8.68011 0.96646,3.61714 2.14702,7.30537 4.27194,10.38798 2.11775,3.07223 5.53245,5.01377 8.16085,7.66236 z"
       id="path815-7-0"
       inkscape:connector-curvature="0"
       sodipodi:nodetypes="aaaaaaaaaaaaaaaaaaaaaaaaaaaaaaa" />
    <path
       style="opacity:0.92000002;vector-effect:none;fill:none;fill-opacity:0.16019419;fill-rule:nonzero;stroke:#000000;stroke-width:0.25;stroke-linecap:round;stroke-linejoin:round;stroke-miterlimit:4;stroke-dasharray:none;stroke-dashoffset:0;stroke-opacity:1"
       d="m 39.933797,232.71466 c 1.072986,-1.47819 4.234028,-3.23188 5.712219,-2.15889 1.478191,1.07299 0.713774,4.56632 -0.359212,6.04452 -0.536491,0.7391 -1.32177,1.19076 -2.157699,1.32353 -0.835938,0.13277 -1.722517,-0.0533 -2.461614,-0.58984 -0.739095,-0.53649 -1.190765,-1.32177 -1.323532,-2.15771 -0.132773,-0.83593 0.05335,-1.72251 0.589838,-2.46161 z"
       id="path1152"
       inkscape:connector-curvature="0"
       sodipodi:nodetypes="sssssss" />
    <path
       style="opacity:0.92000002;vector-effect:none;fill:none;fill-opacity:0.16019419;fill-rule:nonzero;stroke:#000000;stroke-width:0.25;stroke-linecap:round;stroke-linejoin:round;stroke-miterlimit:4;stroke-dasharray:none;stroke-dashoffset:0;stroke-opacity:1"
       d="m 27.465109,237.23911 c 1.291579,-1.29158 4.68858,-2.5277 5.980157,-1.23612 1.291577,1.29158 -0.01136,4.62176 -1.30294,5.91334 -0.645787,0.64579 -1.492195,0.96868 -2.338603,0.96868 -0.846416,0 -1.692824,-0.32289 -2.338613,-0.96868 -0.645788,-0.64579 -0.968684,-1.4922 -0.968678,-2.33861 -10e-7,-0.84641 0.322891,-1.69282 0.968677,-2.33861 z"
       id="path1152-2"
       inkscape:connector-curvature="0"
       sodipodi:nodetypes="sssssss" />
    <path
       style="opacity:0.92000002;vector-effect:none;fill:none;fill-opacity:0.16019419;fill-rule:nonzero;stroke:#000000;stroke-width:0.25;stroke-linecap:round;stroke-linejoin:round;stroke-miterlimit:4;stroke-dasharray:none;stroke-dashoffset:0;stroke-opacity:1"
       d="m 26.209326,225.09685 c 1.484315,-1.0645 5.037048,-1.73211 6.101546,-0.24779 1.0645,1.48431 -0.762337,4.55847 -2.246653,5.62297 -0.742155,0.53225 -1.629786,0.71329 -2.464941,0.57573 -0.835164,-0.13756 -1.617843,-0.59371 -2.150093,-1.33587 -0.532248,-0.74216 -0.713293,-1.62979 -0.575729,-2.46495 0.137558,-0.83516 0.593716,-1.61784 1.33587,-2.15009 z"
       id="path1152-6"
       inkscape:connector-curvature="0"
       sodipodi:nodetypes="sssssss" />
    <path
       style="opacity:0.92000002;vector-effect:none;fill:none;fill-opacity:0.16019419;fill-rule:nonzero;stroke:#000000;stroke-width:0.25;stroke-linecap:round;stroke-linejoin:round;stroke-miterlimit:4;stroke-dasharray:none;stroke-dashoffset:0;stroke-opacity:1"
       d="m 38.463582,241.33827 c 1.094814,-1.4621 4.281545,-3.16866 5.743643,-2.07385 1.462097,1.09482 0.645898,4.57642 -0.448917,6.03852 -0.547404,0.73105 -1.339303,1.17101 -2.177112,1.29135 -0.837816,0.12035 -1.721535,-0.0789 -2.452584,-0.62632 -0.731048,-0.54741 -1.17101,-1.33931 -1.291351,-2.17712 -0.120347,-0.83781 0.07892,-1.72153 0.626321,-2.45258 z"
       id="path1152-9"
       inkscape:connector-curvature="0"
       sodipodi:nodetypes="sssssss" />
    <path
       style="opacity:0.92000002;vector-effect:none;fill:none;fill-opacity:0.16019419;fill-rule:nonzero;stroke:#000000;stroke-width:0.25;stroke-linecap:round;stroke-linejoin:round;stroke-miterlimit:4;stroke-dasharray:none;stroke-dashoffset:0;stroke-opacity:1"
       d="m 49.598071,241.13267 c 0.961883,-1.55278 3.986049,-3.53319 5.53883,-2.57131 1.552782,0.96189 1.046173,4.50181 0.08429,6.0546 -0.480939,0.77639 -1.231044,1.28433 -2.055008,1.47795 -0.823974,0.19362 -1.721801,0.0729 -2.498192,-0.40804 -0.77639,-0.48094 -1.284341,-1.23104 -1.477952,-2.05501 -0.193618,-0.82397 -0.0729,-1.7218 0.408033,-2.49819 z"
       id="path1152-1"
       inkscape:connector-curvature="0"
       sodipodi:nodetypes="sssssss" />
    <path
       style="opacity:0.92000002;vector-effect:none;fill:none;fill-opacity:0.16019419;fill-rule:nonzero;stroke:#000000;stroke-width:0.25;stroke-linecap:round;stroke-linejoin:round;stroke-miterlimit:4;stroke-dasharray:none;stroke-dashoffset:0;stroke-opacity:1"
       d="m 35.276381,224.23916 c 1.487066,-1.06066 5.041515,-1.71906 6.102167,-0.232 1.060653,1.48707 -0.774135,4.55648 -2.261202,5.61714 -0.743531,0.53033 -1.631628,0.70907 -2.466424,0.56935 -0.834804,-0.13972 -1.6163,-0.5979 -2.146626,-1.34144 -0.530326,-0.74353 -0.709072,-1.63163 -0.569346,-2.46643 0.139719,-0.8348 0.597901,-1.61629 1.341431,-2.14662 z"
       id="path1152-0"
       inkscape:connector-curvature="0"
       sodipodi:nodetypes="sssssss" />
    <path
       style="opacity:0.92000002;vector-effect:none;fill:none;fill-opacity:0.16019419;fill-rule:nonzero;stroke:#000000;stroke-width:0.25;stroke-linecap:round;stroke-linejoin:round;stroke-miterlimit:4;stroke-dasharray:none;stroke-dashoffset:0;stroke-opacity:1"
       d="m 30.415537,214.92434 c 1.333971,-1.24775 4.77034,-2.36979 6.018085,-1.03582 1.247745,1.33397 -0.165624,4.6188 -1.499596,5.86655 -0.666984,0.62388 -1.523698,0.91833 -2.369634,0.89008 -0.845944,-0.0283 -1.681103,-0.37921 -2.304976,-1.0462 -0.623872,-0.66699 -0.918336,-1.5237 -0.890077,-2.36964 0.02825,-0.84594 0.379216,-1.6811 1.046198,-2.30497 z"
       id="path1152-4"
       inkscape:connector-curvature="0"
       sodipodi:nodetypes="sssssss" />
    <path
       style="opacity:0.92000002;vector-effect:none;fill:none;fill-opacity:0.16019419;fill-rule:nonzero;stroke:#000000;stroke-width:0.25;stroke-linecap:round;stroke-linejoin:round;stroke-miterlimit:4;stroke-dasharray:none;stroke-dashoffset:0;stroke-opacity:1"
       d="m 37.899895,199.93986 c 1.591789,-0.89586 5.196211,-1.17109 6.092067,0.4207 0.895856,1.59179 -1.25609,4.44781 -2.84788,5.34367 -0.795892,0.44793 -1.697994,0.53085 -2.513107,0.30282 -0.81512,-0.22803 -1.543242,-0.76701 -1.991171,-1.56291 -0.447928,-0.79589 -0.530853,-1.698 -0.302815,-2.51311 0.22803,-0.81512 0.767015,-1.54324 1.562906,-1.99117 z"
       id="path1152-27"
       inkscape:connector-curvature="0"
       sodipodi:nodetypes="sssssss" />
    <path
       style="opacity:0.92000002;vector-effect:none;fill:none;fill-opacity:0.16019419;fill-rule:nonzero;stroke:#000000;stroke-width:0.25;stroke-linecap:round;stroke-linejoin:round;stroke-miterlimit:4;stroke-dasharray:none;stroke-dashoffset:0;stroke-opacity:1"
       d="m 39.269853,209.56897 c 1.412666,-1.1579 4.915019,-2.05296 6.072915,-0.64029 1.157896,1.41267 -0.467132,4.59811 -1.879799,5.75601 -0.706331,0.57895 -1.580458,0.81678 -2.422739,0.73331 -0.84229,-0.0835 -1.652725,-0.48828 -2.231674,-1.19461 -0.578947,-0.70633 -0.81679,-1.58046 -0.733306,-2.42275 0.08348,-0.84228 0.488274,-1.65272 1.194603,-2.23167 z"
       id="path1152-40"
       inkscape:connector-curvature="0"
       sodipodi:nodetypes="sssssss" />
    <path
       style="opacity:0.92000002;vector-effect:none;fill:none;fill-opacity:0.16019419;fill-rule:nonzero;stroke:#000000;stroke-width:0.25;stroke-linecap:round;stroke-linejoin:round;stroke-miterlimit:4;stroke-dasharray:none;stroke-dashoffset:0;stroke-opacity:1"
       d="m 46.648373,193.06383 c 1.605199,-0.8716 5.213382,-1.0921 6.084982,0.51309 0.8716,1.6052 -1.323438,4.42824 -2.928638,5.29985 -0.802597,0.4358 -1.705854,0.50502 -2.517411,0.26465 -0.811568,-0.24038 -1.531428,-0.79035 -1.967228,-1.59295 -0.435799,-0.8026 -0.505026,-1.70586 -0.264646,-2.51742 0.240373,-0.81156 0.790345,-1.53142 1.592941,-1.96722 z"
       id="path1152-3"
       inkscape:connector-curvature="0"
       sodipodi:nodetypes="sssssss" />
    <path
       style="opacity:0.92000002;vector-effect:none;fill:none;fill-opacity:0.16019419;fill-rule:nonzero;stroke:#000000;stroke-width:0.25;stroke-linecap:round;stroke-linejoin:round;stroke-miterlimit:4;stroke-dasharray:none;stroke-dashoffset:0;stroke-opacity:1"
       d="m 54.240799,185.0823 c 1.584215,-0.90919 5.1862,-1.21466 6.095383,0.36956 0.909184,1.58421 -1.21872,4.4582 -2.802935,5.36738 -0.792105,0.4546 -1.69348,0.54508 -2.510476,0.3239 -0.817006,-0.22118 -1.549626,-0.75404 -2.004218,-1.54615 -0.454591,-0.7921 -0.545084,-1.69348 -0.323895,-2.51048 0.221182,-0.817 0.754038,-1.54962 1.546141,-2.00421 z"
       id="path1152-28"
       inkscape:connector-curvature="0"
       sodipodi:nodetypes="sssssss" />
    <path
       style="opacity:0.92000002;vector-effect:none;fill:none;fill-opacity:0.16019419;fill-rule:nonzero;stroke:#000000;stroke-width:0.25;stroke-linecap:round;stroke-linejoin:round;stroke-miterlimit:4;stroke-dasharray:none;stroke-dashoffset:0;stroke-opacity:1"
       d="m 54.899496,232.45193 c 1.038226,-1.50281 4.157517,-3.32973 5.660326,-2.2915 1.502808,1.03823 0.820054,4.54844 -0.218174,6.05125 -0.51911,0.75141 -1.293644,1.22126 -2.126251,1.37349 -0.832614,0.15223 -1.723292,-0.0132 -2.474697,-0.53228 -0.751404,-0.51912 -1.221262,-1.29365 -1.373484,-2.12626 -0.152229,-0.83261 0.01317,-1.72329 0.53228,-2.4747 z"
       id="path1152-03"
       inkscape:connector-curvature="0"
       sodipodi:nodetypes="sssssss" />
    <path
       style="opacity:0.92000002;vector-effect:none;fill:none;fill-opacity:0.16019419;fill-rule:nonzero;stroke:#000000;stroke-width:0.25;stroke-linecap:round;stroke-linejoin:round;stroke-miterlimit:4;stroke-dasharray:none;stroke-dashoffset:0;stroke-opacity:1"
       d="m 62.916826,237.89122 c 0.837192,-1.62341 3.696796,-3.83481 5.320205,-2.99762 1.623409,0.8372 1.395873,4.40595 0.55868,6.02936 -0.418594,0.8117 -1.126569,1.37689 -1.93282,1.63451 -0.806258,0.25761 -1.710785,0.20766 -2.52249,-0.21094 -0.811704,-0.4186 -1.376897,-1.12657 -1.634507,-1.93283 -0.257617,-0.80625 -0.207661,-1.71078 0.210932,-2.52248 z"
       id="path1152-7"
       inkscape:connector-curvature="0"
       sodipodi:nodetypes="sssssss" />
    <path
       style="opacity:0.92000002;vector-effect:none;fill:none;fill-opacity:0.16019419;fill-rule:nonzero;stroke:#000000;stroke-width:0.25;stroke-linecap:round;stroke-linejoin:round;stroke-miterlimit:4;stroke-dasharray:none;stroke-dashoffset:0;stroke-opacity:1"
       d="m 70.081044,231.67689 c 0.785567,-1.64901 3.573992,-3.94951 5.223001,-3.16394 1.64901,0.78556 1.534159,4.35971 0.748592,6.00873 -0.392781,0.8245 -1.082576,1.41174 -1.880299,1.69466 -0.797731,0.28292 -1.703384,0.26152 -2.527889,-0.13126 -0.824504,-0.39278 -1.411748,-1.08258 -1.694663,-1.88031 -0.282921,-0.79772 -0.261522,-1.70338 0.131258,-2.52788 z"
       id="path1152-00"
       inkscape:connector-curvature="0"
       sodipodi:nodetypes="sssssss" />
    <path
       style="opacity:0.92000002;vector-effect:none;fill:none;fill-opacity:0.16019419;fill-rule:nonzero;stroke:#000000;stroke-width:0.25;stroke-linecap:round;stroke-linejoin:round;stroke-miterlimit:4;stroke-dasharray:none;stroke-dashoffset:0;stroke-opacity:1"
       d="m 79.560297,229.61357 c 0.674033,-1.69766 3.303104,-4.1787 5.000758,-3.50467 1.697653,0.67403 1.821024,4.2479 1.14699,5.94556 -0.337018,0.84882 -0.98618,1.48068 -1.763296,1.81609 -0.777125,0.33541 -1.682196,0.37434 -2.53102,0.0373 -0.848826,-0.33702 -1.480693,-0.98619 -1.816096,-1.76332 -0.335406,-0.77711 -0.374349,-1.68218 -0.03734,-2.531 z"
       id="path1152-34"
       inkscape:connector-curvature="0"
       sodipodi:nodetypes="sssssss" />
    <path
       style="opacity:0.92000002;vector-effect:none;fill:none;fill-opacity:0.16019419;fill-rule:nonzero;stroke:#000000;stroke-width:0.25;stroke-linecap:round;stroke-linejoin:round;stroke-miterlimit:4;stroke-dasharray:none;stroke-dashoffset:0;stroke-opacity:1"
       d="m 177.70266,239.67478 c -1.29158,-1.29158 -2.5277,-4.68858 -1.23612,-5.98016 1.29158,-1.29158 4.62176,0.0114 5.91334,1.30294 0.64579,0.64579 0.96868,1.4922 0.96868,2.3386 0,0.84642 -0.32289,1.69283 -0.96868,2.33862 -0.64579,0.64578 -1.4922,0.96868 -2.33861,0.96867 -0.84641,1e-5 -1.69282,-0.32289 -2.33861,-0.96867 z"
       id="path1152-92"
       inkscape:connector-curvature="0"
       sodipodi:nodetypes="sssssss" />
    <path
       style="opacity:0.92000002;vector-effect:none;fill:none;fill-opacity:0.16019419;fill-rule:nonzero;stroke:#000000;stroke-width:0.25;stroke-linecap:round;stroke-linejoin:round;stroke-miterlimit:4;stroke-dasharray:none;stroke-dashoffset:0;stroke-opacity:1"
       d="m 164.71308,237.74046 c -1.19996,-1.37712 -2.2002,-4.8509 -0.82308,-6.05086 1.37712,-1.19995 4.6101,0.32835 5.81006,1.70543 0.59998,0.68856 0.86406,1.55512 0.80601,2.39953 -0.0581,0.84442 -0.43823,1.6667 -1.12679,2.26668 -0.68856,0.59997 -1.55512,0.86406 -2.39953,0.806 -0.84442,-0.058 -1.66669,-0.43823 -2.26667,-1.12678 z"
       id="path1152-92-7"
       inkscape:connector-curvature="0"
       sodipodi:nodetypes="sssssss" />
    <path
       style="opacity:0.92000002;vector-effect:none;fill:none;fill-opacity:0.16019419;fill-rule:nonzero;stroke:#000000;stroke-width:0.25;stroke-linecap:round;stroke-linejoin:round;stroke-miterlimit:4;stroke-dasharray:none;stroke-dashoffset:0;stroke-opacity:1"
       d="m 174.22416,229.70117 c -1.52092,-1.01151 -3.40266,-4.09803 -2.39115,-5.61896 1.01151,-1.52092 4.53325,-0.90025 6.05416,0.11123 0.76046,0.50575 1.24393,1.27187 1.41084,2.10165 0.16692,0.8298 0.0173,1.72326 -0.48848,2.48372 -0.50575,0.76045 -1.27187,1.24392 -2.10166,1.41083 -0.82978,0.16692 -1.72325,0.0173 -2.48371,-0.48847 z"
       id="path1152-92-4"
       inkscape:connector-curvature="0"
       sodipodi:nodetypes="sssssss" />
    <path
       style="opacity:0.92000002;vector-effect:none;fill:none;fill-opacity:0.16019419;fill-rule:nonzero;stroke:#000000;stroke-width:0.25;stroke-linecap:round;stroke-linejoin:round;stroke-miterlimit:4;stroke-dasharray:none;stroke-dashoffset:0;stroke-opacity:1"
       d="m 179.09353,220.70462 c -1.50625,-1.03323 -3.34353,-4.14643 -2.3103,-5.65269 1.03323,-1.50625 4.5457,-0.83512 6.05195,0.19807 0.75312,0.51661 1.22555,1.28958 1.38054,2.12167 0.15499,0.83211 -0.007,1.72334 -0.52406,2.47646 -0.51661,0.75312 -1.28958,1.22555 -2.12168,1.38053 -0.8321,0.15501 -1.72333,-0.007 -2.47645,-0.52404 z"
       id="path1152-92-2"
       inkscape:connector-curvature="0"
       sodipodi:nodetypes="sssssss" />
    <path
       style="opacity:0.92000002;vector-effect:none;fill:none;fill-opacity:0.16019419;fill-rule:nonzero;stroke:#000000;stroke-width:0.25;stroke-linecap:round;stroke-linejoin:round;stroke-miterlimit:4;stroke-dasharray:none;stroke-dashoffset:0;stroke-opacity:1"
       d="m 167.57924,217.42934 c -1.49498,-1.04947 -3.29844,-4.18238 -2.24897,-5.67736 1.04948,-1.49498 4.55448,-0.78587 6.04945,0.26356 0.74749,0.52474 1.21152,1.30278 1.35749,2.1365 0.14598,0.83373 -0.0261,1.72315 -0.55083,2.47064 -0.52474,0.74748 -1.30278,1.21152 -2.13651,1.35748 -0.83372,0.14599 -1.72314,-0.0261 -2.47063,-0.55082 z"
       id="path1152-92-5"
       inkscape:connector-curvature="0"
       sodipodi:nodetypes="sssssss" />
    <path
       style="opacity:0.92000002;vector-effect:none;fill:none;fill-opacity:0.16019419;fill-rule:nonzero;stroke:#000000;stroke-width:0.25;stroke-linecap:round;stroke-linejoin:round;stroke-miterlimit:4;stroke-dasharray:none;stroke-dashoffset:0;stroke-opacity:1"
       d="m 171.09123,207.74619 c -1.39536,-1.17869 -2.91205,-4.46004 -1.73336,-5.8554 1.1787,-1.39536 4.60643,-0.3763 6.00179,0.80236 0.69768,0.58935 1.09043,1.40569 1.16142,2.24911 0.071,0.84344 -0.17976,1.71395 -0.76911,2.41163 -0.58935,0.69767 -1.40569,1.09042 -2.24912,1.16141 -0.84343,0.071 -1.71394,-0.17977 -2.41162,-0.76911 z"
       id="path1152-92-24"
       inkscape:connector-curvature="0"
       sodipodi:nodetypes="sssssss" />
    <path
       style="opacity:0.92000002;vector-effect:none;fill:none;fill-opacity:0.16019419;fill-rule:nonzero;stroke:#000000;stroke-width:0.25;stroke-linecap:round;stroke-linejoin:round;stroke-miterlimit:4;stroke-dasharray:none;stroke-dashoffset:0;stroke-opacity:1"
       d="m 160.58668,205.75933 c -1.49498,-1.04947 -3.29844,-4.18238 -2.24897,-5.67736 1.04948,-1.49498 4.55448,-0.78587 6.04945,0.26356 0.74749,0.52474 1.21152,1.30278 1.35749,2.1365 0.14598,0.83373 -0.0261,1.72315 -0.55083,2.47064 -0.52474,0.74748 -1.30278,1.21152 -2.13651,1.35748 -0.83372,0.14599 -1.72314,-0.0261 -2.47063,-0.55082 z"
       id="path1152-92-43"
       inkscape:connector-curvature="0"
       sodipodi:nodetypes="sssssss" />
    <path
       style="opacity:0.92000002;vector-effect:none;fill:none;fill-opacity:0.16019419;fill-rule:nonzero;stroke:#000000;stroke-width:0.25;stroke-linecap:round;stroke-linejoin:round;stroke-miterlimit:4;stroke-dasharray:none;stroke-dashoffset:0;stroke-opacity:1"
       d="m 162.95873,197.07053 c -1.43008,-1.13631 -3.04451,-4.3707 -1.90819,-5.80078 1.13631,-1.43009 4.59307,-0.51429 6.02315,0.62199 0.71504,0.56815 1.1321,1.37235 1.22835,2.21326 0.0963,0.84093 -0.12827,1.71857 -0.69643,2.43361 -0.56816,0.71503 -1.37236,1.1321 -2.21328,1.22835 -0.84091,0.0963 -1.71855,-0.12828 -2.4336,-0.69643 z"
       id="path1152-92-8"
       inkscape:connector-curvature="0"
       sodipodi:nodetypes="sssssss" />
    <path
       style="opacity:0.92000002;vector-effect:none;fill:none;fill-opacity:0.16019419;fill-rule:nonzero;stroke:#000000;stroke-width:0.25;stroke-linecap:round;stroke-linejoin:round;stroke-miterlimit:4;stroke-dasharray:none;stroke-dashoffset:0;stroke-opacity:1"
       d="m 152.05546,193.66429 c -1.53522,-0.98969 -3.46085,-4.04903 -2.47116,-5.58424 0.98968,-1.53521 4.51993,-0.96489 6.05513,0.0248 0.76761,0.49485 1.26196,1.25398 1.44071,2.08129 0.17873,0.82733 0.0419,1.72284 -0.45295,2.49045 -0.49484,0.76759 -1.25398,1.26196 -2.08129,1.44069 -0.82733,0.17873 -1.72284,0.0419 -2.49044,-0.45294 z"
       id="path1152-92-6"
       inkscape:connector-curvature="0"
       sodipodi:nodetypes="sssssss" />
    <path
       style="opacity:0.92000002;vector-effect:none;fill:none;fill-opacity:0.16019419;fill-rule:nonzero;stroke:#000000;stroke-width:0.25;stroke-linecap:round;stroke-linejoin:round;stroke-miterlimit:4;stroke-dasharray:none;stroke-dashoffset:0;stroke-opacity:1"
       d="m 128.68106,233.67518 c -1.06264,-1.48565 -1.7258,-5.03921 -0.24015,-6.10185 1.48565,-1.06264 4.5575,0.76808 5.62015,2.25369 0.53132,0.74282 0.71125,1.63068 0.57265,2.46566 -0.13861,0.83499 -0.59575,1.6171 -1.33857,2.14842 -0.74282,0.53131 -1.63068,0.71125 -2.46566,0.57264 -0.83499,-0.1386 -1.6171,-0.59574 -2.14842,-1.33856 z"
       id="path1152-92-0"
       inkscape:connector-curvature="0"
       sodipodi:nodetypes="sssssss" />
    <path
       style="opacity:0.92000002;vector-effect:none;fill:none;fill-opacity:0.16019419;fill-rule:nonzero;stroke:#000000;stroke-width:0.25;stroke-linecap:round;stroke-linejoin:round;stroke-miterlimit:4;stroke-dasharray:none;stroke-dashoffset:0;stroke-opacity:1"
       d="m 137.76201,237.69616 c -1.11066,-1.4501 -1.88969,-4.98008 -0.43959,-6.09074 1.4501,-1.11066 4.58019,0.61862 5.69086,2.06868 0.55533,0.72505 0.7642,1.60654 0.65298,2.44561 -0.11123,0.83908 -0.54254,1.63572 -1.26759,2.19105 -0.72504,0.55532 -1.60655,0.7642 -2.44562,0.65297 -0.83907,-0.11121 -1.63571,-0.54253 -2.19104,-1.26757 z"
       id="path1152-92-89"
       inkscape:connector-curvature="0"
       sodipodi:nodetypes="sssssss" />
    <path
       style="opacity:0.92000002;vector-effect:none;fill:none;fill-opacity:0.16019419;fill-rule:nonzero;stroke:#000000;stroke-width:0.25;stroke-linecap:round;stroke-linejoin:round;stroke-miterlimit:4;stroke-dasharray:none;stroke-dashoffset:0;stroke-opacity:1"
       d="m 148.68377,238.81699 c -1.19336,-1.38284 -2.17698,-4.86136 -0.79414,-6.05472 1.38284,-1.19336 4.60848,0.35038 5.80184,1.73318 0.59668,0.69142 0.85661,1.55924 0.79453,2.40336 -0.0621,0.84414 -0.44619,1.66458 -1.13761,2.26126 -0.69142,0.59667 -1.55924,0.85662 -2.40337,0.79452 -0.84413,-0.0621 -1.66457,-0.44619 -2.26125,-1.1376 z"
       id="path1152-92-22"
       inkscape:connector-curvature="0"
       sodipodi:nodetypes="sssssss" />
    <path
       style="opacity:0.92000002;vector-effect:none;fill:none;fill-opacity:0.16019419;fill-rule:nonzero;stroke:#000000;stroke-width:0.25;stroke-linecap:round;stroke-linejoin:round;stroke-miterlimit:4;stroke-dasharray:none;stroke-dashoffset:0;stroke-opacity:1"
       d="m 157.10441,243.24072 c -1.12127,-1.44191 -1.92618,-4.96607 -0.48427,-6.08735 1.4419,-1.12127 4.5846,0.58499 5.70588,2.02686 0.56064,0.72095 0.77597,1.60089 0.67091,2.44074 -0.10506,0.83988 -0.53051,1.63967 -1.25147,2.20031 -0.72095,0.56061 -1.60089,0.77597 -2.44076,0.6709 -0.83986,-0.10505 -1.63965,-0.53053 -2.20029,-1.25146 z"
       id="path1152-92-3"
       inkscape:connector-curvature="0"
       sodipodi:nodetypes="sssssss" />
    <path
       style="opacity:0.92000002;vector-effect:none;fill:none;fill-opacity:0.16019419;fill-rule:nonzero;stroke:#000000;stroke-width:0.25;stroke-linecap:round;stroke-linejoin:round;stroke-miterlimit:4;stroke-dasharray:none;stroke-dashoffset:0;stroke-opacity:1"
       d="m 101.11102,99.385017 c 0,1.826563 -1.527971,5.102673 -3.354544,5.102683 -1.82657,0 -3.260017,-3.27614 -3.260045,-5.102683 0,-0.91329 0.370185,-1.74011 0.96868,-2.3386 0.598509,-0.59851 1.425329,-0.968694 2.338614,-0.968694 0.913281,10e-6 1.740108,0.370187 2.338605,0.968696 0.59851,0.598498 0.96868,1.425318 0.96869,2.338598 z"
       id="path1152-92-1"
       inkscape:connector-curvature="0"
       sodipodi:nodetypes="sssssss" />
    <path
       style="opacity:0.92000002;vector-effect:none;fill:none;fill-opacity:0.16019419;fill-rule:nonzero;stroke:#000000;stroke-width:0.25;stroke-linecap:round;stroke-linejoin:round;stroke-miterlimit:4;stroke-dasharray:none;stroke-dashoffset:0;stroke-opacity:1"
       d="m 90.950567,105.22377 c 0.500548,1.75665 -0.07116,5.32607 -1.827805,5.82663 -1.756648,0.50055 -4.033004,-2.25736 -4.533573,-4.01398 -0.250275,-0.87833 -0.12084,-1.77495 0.290736,-2.51454 0.411586,-0.7396 1.105309,-1.3222 1.983633,-1.57247 0.878323,-0.25026 1.774941,-0.12083 2.514539,0.29075 0.739609,0.41157 1.322189,1.1053 1.57247,1.98361 z"
       id="path1152-92-1-8"
       inkscape:connector-curvature="0"
       sodipodi:nodetypes="sssssss" />
    <path
       style="opacity:0.92000002;vector-effect:none;fill:none;fill-opacity:0.16019419;fill-rule:nonzero;stroke:#000000;stroke-width:0.25;stroke-linecap:round;stroke-linejoin:round;stroke-miterlimit:4;stroke-dasharray:none;stroke-dashoffset:0;stroke-opacity:1"
       d="m 109.49699,105.51333 c -0.4639,1.76668 -2.77383,4.5473 -4.54051,4.08341 -1.76668,-0.4639 -2.32107,-3.99668 -1.85719,-5.76334 0.23195,-0.88335 0.79998,-1.58904 1.53086,-2.0159 0.73088,-0.42688 1.62461,-0.57494 2.50795,-0.34298 0.88333,0.23196 1.58904,0.79998 2.0159,1.53087 0.42688,0.73088 0.57493,1.62461 0.34299,2.50794 z"
       id="path1152-92-1-3"
       inkscape:connector-curvature="0"
       sodipodi:nodetypes="sssssss" />
    <path
       style="opacity:0.92000002;vector-effect:none;fill:none;fill-opacity:0.16019419;fill-rule:nonzero;stroke:#000000;stroke-width:0.25;stroke-linecap:round;stroke-linejoin:round;stroke-miterlimit:4;stroke-dasharray:none;stroke-dashoffset:0;stroke-opacity:1"
       d="m 100.73263,112.97759 c 0,1.82657 -1.527977,5.10268 -3.35455,5.10269 -1.82657,0 -3.260017,-3.27614 -3.260045,-5.10269 0,-0.91329 0.370185,-1.74011 0.96868,-2.3386 0.598509,-0.59851 1.425329,-0.96869 2.338614,-0.96869 0.913281,1e-5 1.740108,0.37018 2.338603,0.96869 0.598508,0.5985 0.968688,1.42532 0.968698,2.3386 z"
       id="path1152-92-1-4"
       inkscape:connector-curvature="0"
       sodipodi:nodetypes="sssssss" />
    <path
       style="opacity:0.92000002;vector-effect:none;fill:none;fill-opacity:0.16019419;fill-rule:nonzero;stroke:#000000;stroke-width:0.25;stroke-linecap:round;stroke-linejoin:round;stroke-miterlimit:4;stroke-dasharray:none;stroke-dashoffset:0;stroke-opacity:1"
       d="m 107.74721,118.03301 c -0.43214,1.77472 -2.69181,4.59633 -4.46653,4.1642 -1.77472,-0.43215 -2.39238,-3.95441 -1.96027,-5.72911 0.21607,-0.88737 0.77136,-1.60313 1.49446,-2.04304 0.72311,-0.43992 1.61404,-0.60397 2.5014,-0.3879 0.88735,0.21608 1.60313,0.77136 2.04303,1.49447 0.43992,0.72311 0.60397,1.61403 0.38791,2.50138 z"
       id="path1152-92-1-2"
       inkscape:connector-curvature="0"
       sodipodi:nodetypes="sssssss" />
    <path
       style="opacity:0.92000002;vector-effect:none;fill:none;fill-opacity:0.16019419;fill-rule:nonzero;stroke:#000000;stroke-width:0.25;stroke-linecap:round;stroke-linejoin:round;stroke-miterlimit:4;stroke-dasharray:none;stroke-dashoffset:0;stroke-opacity:1"
       d="m 91.771681,119.93554 c 0.737092,1.67124 0.661093,5.28535 -1.010149,6.02246 -1.671243,0.73709 -4.304843,-1.68201 -5.041953,-3.35322 -0.368548,-0.83563 -0.363496,-1.74152 -0.05741,-2.53063 0.306092,-0.78914 0.913219,-1.46149 1.74884,-1.83004 0.835622,-0.36853 1.741516,-0.3635 2.530639,-0.0574 0.789134,0.30608 1.46148,0.91321 1.830033,1.74883 z"
       id="path1152-92-1-24"
       inkscape:connector-curvature="0"
       sodipodi:nodetypes="sssssss" />
    <path
       style="opacity:0.92000002;vector-effect:none;fill:none;fill-opacity:0.16019419;fill-rule:nonzero;stroke:#000000;stroke-width:0.25;stroke-linecap:round;stroke-linejoin:round;stroke-miterlimit:4;stroke-dasharray:none;stroke-dashoffset:0;stroke-opacity:1"
       d="m 83.58693,112.76685 c 0.84902,1.61725 1.018931,5.22817 -0.598325,6.0772 -1.617258,0.84902 -4.409246,-1.38541 -5.25828,-3.00264 -0.424512,-0.80863 -0.481067,-1.71277 -0.229343,-2.52087 0.251727,-0.80812 0.811734,-1.5202 1.620363,-1.94471 0.80863,-0.4245 1.712774,-0.48106 2.520879,-0.22933 0.808119,0.25171 1.52019,0.81173 1.944706,1.62035 z"
       id="path1152-92-1-5"
       inkscape:connector-curvature="0"
       sodipodi:nodetypes="sssssss" />
    <path
       style="opacity:0.92000002;vector-effect:none;fill:none;fill-opacity:0.16019419;fill-rule:nonzero;stroke:#000000;stroke-width:0.25;stroke-linecap:round;stroke-linejoin:round;stroke-miterlimit:4;stroke-dasharray:none;stroke-dashoffset:0;stroke-opacity:1"
       d="m 81.354401,122.65296 c 0.875723,1.60296 1.105493,5.21056 -0.497461,6.0863 -1.602956,0.87572 -4.431614,-1.3121 -5.307352,-2.91503 -0.437863,-0.80148 -0.509404,-1.70456 -0.271116,-2.51672 0.238291,-0.81218 0.786411,-1.53345 1.587889,-1.97131 0.80148,-0.43785 1.704562,-0.5094 2.516734,-0.2711 0.812178,0.23827 1.533438,0.7864 1.971306,1.58786 z"
       id="path1152-92-1-1"
       inkscape:connector-curvature="0"
       sodipodi:nodetypes="sssssss" />
    <path
       style="opacity:0.92000002;vector-effect:none;fill:none;fill-opacity:0.16019419;fill-rule:nonzero;stroke:#000000;stroke-width:0.25;stroke-linecap:round;stroke-linejoin:round;stroke-miterlimit:4;stroke-dasharray:none;stroke-dashoffset:0;stroke-opacity:1"
       d="m 77.507973,131.99961 c 0.762677,1.65973 0.742202,5.27458 -0.91752,6.03727 -1.659723,0.76267 -4.330172,-1.61568 -5.092866,-3.27537 -0.38134,-0.82987 -0.390205,-1.73573 -0.09628,-2.52945 0.293934,-0.79375 0.890661,-1.47535 1.720523,-1.85669 0.829862,-0.38133 1.735727,-0.39021 2.529458,-0.0963 0.793742,0.29393 1.475337,0.89066 1.856681,1.72051 z"
       id="path1152-92-1-7"
       inkscape:connector-curvature="0"
       sodipodi:nodetypes="sssssss" />
    <path
       style="opacity:0.92000002;vector-effect:none;fill:none;fill-opacity:0.16019419;fill-rule:nonzero;stroke:#000000;stroke-width:0.25;stroke-linecap:round;stroke-linejoin:round;stroke-miterlimit:4;stroke-dasharray:none;stroke-dashoffset:0;stroke-opacity:1"
       d="m 81.259493,141.20924 c 0.599516,1.72538 0.231475,5.32151 -1.493906,5.92104 -1.725381,0.59951 -4.15471,-2.02465 -4.754245,-3.75 -0.29976,-0.8627 -0.221461,-1.76521 0.147442,-2.52698 0.36891,-0.7618 1.028425,-1.38285 1.891115,-1.68261 0.86269,-0.29975 1.765209,-0.22146 2.526991,0.14745 0.761795,0.3689 1.382837,1.02842 1.682603,1.8911 z"
       id="path1152-92-1-57"
       inkscape:connector-curvature="0"
       sodipodi:nodetypes="sssssss" />
    <path
       style="opacity:0.92000002;vector-effect:none;fill:none;fill-opacity:0.16019419;fill-rule:nonzero;stroke:#000000;stroke-width:0.25;stroke-linecap:round;stroke-linejoin:round;stroke-miterlimit:4;stroke-dasharray:none;stroke-dashoffset:0;stroke-opacity:1"
       d="m 116.67555,111.80666 c -0.77087,1.65592 -3.53872,3.98113 -5.19467,3.21026 -1.65593,-0.77087 -1.57282,-4.34592 -0.80199,-6.00184 0.38544,-0.82797 1.06998,-1.42132 1.86515,-1.71131 0.79519,-0.29001 1.701,-0.27667 2.52896,0.10877 0.82796,0.38544 1.42132,1.06999 1.71132,1.86517 0.29001,0.79518 0.27665,1.70098 -0.10877,2.52895 z"
       id="path1152-92-1-16"
       inkscape:connector-curvature="0"
       sodipodi:nodetypes="sssssss" />
    <path
       style="opacity:0.92000002;vector-effect:none;fill:none;fill-opacity:0.16019419;fill-rule:nonzero;stroke:#000000;stroke-width:0.25;stroke-linecap:round;stroke-linejoin:round;stroke-miterlimit:4;stroke-dasharray:none;stroke-dashoffset:0;stroke-opacity:1"
       d="m 113.53924,125.22652 c -0.81784,1.63324 -3.65096,3.87845 -5.28421,3.06062 -1.63324,-0.81785 -1.44809,-4.38906 -0.63028,-6.0223 0.40892,-0.81662 1.11014,-1.39018 1.91326,-1.65735 0.80314,-0.26718 1.7082,-0.22798 2.52483,0.18094 0.81661,0.40893 1.39018,1.11014 1.65735,1.91328 0.26718,0.80314 0.22796,1.70819 -0.18095,2.52481 z"
       id="path1152-92-1-9"
       inkscape:connector-curvature="0"
       sodipodi:nodetypes="sssssss" />
    <path
       style="opacity:0.92000002;vector-effect:none;fill:none;fill-opacity:0.16019419;fill-rule:nonzero;stroke:#000000;stroke-width:0.25;stroke-linecap:round;stroke-linejoin:round;stroke-miterlimit:4;stroke-dasharray:none;stroke-dashoffset:0;stroke-opacity:1"
       d="m 122.86221,120.19738 c -0.78759,1.64805 -3.57883,3.94513 -5.22689,3.15755 -1.64804,-0.78759 -1.52877,-4.36161 -0.74121,-6.00966 0.39379,-0.82402 1.0843,-1.41042 1.88237,-1.69235 0.79808,-0.28195 1.70371,-0.25943 2.52773,0.13436 0.82401,0.3938 1.41042,1.08431 1.69236,1.88238 0.28195,0.79808 0.25942,1.7037 -0.13436,2.52772 z"
       id="path1152-92-1-81"
       inkscape:connector-curvature="0"
       sodipodi:nodetypes="sssssss" />
    <path
       style="opacity:0.92000002;vector-effect:none;fill:none;fill-opacity:0.16019419;fill-rule:nonzero;stroke:#000000;stroke-width:0.25;stroke-linecap:round;stroke-linejoin:round;stroke-miterlimit:4;stroke-dasharray:none;stroke-dashoffset:0;stroke-opacity:1"
       d="m 120.97007,131.48383 c -0.59388,1.72733 -3.10401,4.32864 -4.83134,3.73477 -1.72733,-0.59388 -2.01771,-4.15808 -1.42386,-5.8854 0.29694,-0.86367 0.91584,-1.52521 1.6764,-1.89659 0.76059,-0.37139 1.66285,-0.45263 2.52651,-0.1557 0.86366,0.29696 1.5252,0.91585 1.89659,1.67643 0.3714,0.76057 0.45263,1.66283 0.1557,2.52649 z"
       id="path1152-92-1-33"
       inkscape:connector-curvature="0"
       sodipodi:nodetypes="sssssss" />
    <path
       style="opacity:0.92000002;vector-effect:none;fill:none;fill-opacity:0.16019419;fill-rule:nonzero;stroke:#000000;stroke-width:0.25;stroke-linecap:round;stroke-linejoin:round;stroke-miterlimit:4;stroke-dasharray:none;stroke-dashoffset:0;stroke-opacity:1"
       d="m 129.0876,133.1993 c -0.55196,1.74118 -2.9985,4.40239 -4.73968,3.85043 -1.74118,-0.55196 -2.11761,-4.10811 -1.56567,-5.84927 0.27599,-0.87059 0.87872,-1.5469 1.63009,-1.93655 0.75138,-0.38967 1.65141,-0.49269 2.522,-0.2167 0.87058,0.27599 1.5469,0.87871 1.93654,1.63009 0.38967,0.75138 0.49269,1.65141 0.21672,2.522 z"
       id="path1152-92-1-37"
       inkscape:connector-curvature="0"
       sodipodi:nodetypes="sssssss" />
    <path
       style="opacity:0.92000002;vector-effect:none;fill:none;fill-opacity:0.16019419;fill-rule:nonzero;stroke:#000000;stroke-width:0.25;stroke-linecap:round;stroke-linejoin:round;stroke-miterlimit:4;stroke-dasharray:none;stroke-dashoffset:0;stroke-opacity:1"
       d="m 129.10174,143.90022 c -0.79753,1.64325 -3.60261,3.92341 -5.24588,3.12588 -1.64326,-0.79754 -1.50237,-4.37078 -0.70487,-6.01402 0.39877,-0.82163 1.09281,-1.40384 1.89257,-1.68094 0.79977,-0.27712 1.70525,-0.24914 2.52687,0.14963 0.82162,0.39877 1.40384,1.09282 1.68094,1.89259 0.27712,0.79976 0.24913,1.70523 -0.14963,2.52686 z"
       id="path1152-92-1-98"
       inkscape:connector-curvature="0"
       sodipodi:nodetypes="sssssss" />
  </g>
</svg>
