<?xml version="1.0" standalone="no"?>
<!DOCTYPE svg PUBLIC "-//W3C//DTD SVG 1.1//EN" "http://www.w3.org/Graphics/SVG/1.1/DTD/svg11.dtd">
<svg width="252" height="112" viewBox="28 -134 252 112" xmlns="http://www.w3.org/2000/svg" version="1.1">
<title>OpenSCAD Model</title>
<path d="
M 153,-105 L 167,-105 L 167,-102 L 181,-102 L 181,-132.397 L 177.803,-131.073
 L 176.655,-133.844 L 163.721,-128.487 L 164.869,-125.715 L 151.934,-120.358 L 150.786,-123.129 L 137.852,-117.772
 L 139,-115 L 139,-102 L 153,-102 z
M 103,-105 L 117,-105 L 117,-102 L 131,-102 L 131,-132.397 L 127.803,-131.073
 L 126.655,-133.844 L 113.721,-128.487 L 114.869,-125.715 L 101.934,-120.358 L 100.786,-123.129 L 87.852,-117.772
 L 89,-115 L 89,-102 L 103,-102 z
M 53,-105 L 67,-105 L 67,-102 L 81,-102 L 81,-132.397 L 77.8029,-131.073
 L 76.6549,-133.844 L 63.7206,-128.487 L 64.8686,-125.715 L 51.9343,-120.358 L 50.7863,-123.129 L 37.852,-117.772
 L 39,-115 L 39,-102 L 53,-102 z
M 209,-103 L 223,-103 L 223,-100 L 230,-100 L 230,-106.667 L 233,-106.667
 L 233,-113.333 L 230,-113.333 L 230,-120 L 223,-120 L 223,-117 L 209,-117
 L 209,-120 L 190,-120 L 190,-100 L 209,-100 z
M 193.105,-110.845 L 192.699,-111.116 L 192.428,-111.522 L 192.333,-112 L 192.428,-112.478 L 192.699,-112.884
 L 193.105,-113.155 L 193.583,-113.25 L 194.062,-113.155 L 194.467,-112.884 L 194.738,-112.478 L 194.833,-112
 L 194.738,-111.522 L 194.467,-111.116 L 194.062,-110.845 L 193.583,-110.75 z
M 202.605,-110.845 L 202.199,-111.116 L 201.928,-111.522 L 201.833,-112 L 201.928,-112.478 L 202.199,-112.884
 L 202.605,-113.155 L 203.083,-113.25 L 203.562,-113.155 L 203.967,-112.884 L 204.238,-112.478 L 204.333,-112
 L 204.238,-111.522 L 203.967,-111.116 L 203.562,-110.845 L 203.083,-110.75 z
M 260,-110 L 260,-113 L 246,-113 L 246,-107 L 239,-107 L 239,-103
 L 236,-103 L 236,-89 L 239,-89 z
M 186.073,-60.1971 L 188.844,-61.3451 L 183.487,-74.2794 L 180.715,-73.1314 L 175.358,-86.0657 L 178.129,-87.2137
 L 172.772,-100.148 L 170,-99 L 157,-99 L 157,-85 L 160,-85 L 160,-71
 L 157,-71 L 157,-57 L 187.397,-57 z
M 280,-74 L 277,-74 L 277,-88 L 280,-88 L 280,-95 L 273.333,-95
 L 273.333,-98 L 266.667,-98 L 266.667,-95 L 260,-95 L 260,-88 L 263,-88
 L 263,-74 L 260,-74 L 260,-55 L 280,-55 z
M 267.522,-66.9285 L 267.116,-67.1994 L 266.845,-67.605 L 266.75,-68.0833 L 266.845,-68.5617 L 267.116,-68.9672
 L 267.522,-69.2382 L 268,-69.3333 L 268.478,-69.2382 L 268.884,-68.9672 L 269.155,-68.5617 L 269.25,-68.0833
 L 269.155,-67.605 L 268.884,-67.1994 L 268.478,-66.9285 L 268,-66.8333 z
M 267.522,-57.4285 L 267.116,-57.6995 L 266.845,-58.105 L 266.75,-58.5833 L 266.845,-59.0617 L 267.116,-59.4672
 L 267.522,-59.7382 L 268,-59.8333 L 268.478,-59.7382 L 268.884,-59.4672 L 269.155,-59.0617 L 269.25,-58.5833
 L 269.155,-58.105 L 268.884,-57.6995 L 268.478,-57.4285 L 268,-57.3333 z
M 91.985,-97.69 L 28.015,-97.69 L 28.015,-62.31 L 91.985,-62.31 z
M 58,-93.69 L 58,-95.69 L 62,-95.69 L 62,-93.69 z
M 30.015,-93.69 L 30.015,-95.69 L 34.015,-95.69 L 34.015,-93.69 z
M 85.985,-93.69 L 85.985,-95.69 L 89.985,-95.69 L 89.985,-93.69 z
M 67,-87.345 L 67,-90.345 L 81,-90.345 L 81,-87.345 z
M 39,-87.345 L 39,-90.345 L 53,-90.345 L 53,-87.345 z
M 57.7039,-74.4567 L 55.7574,-75.7574 L 54.4567,-77.7039 L 54.3978,-78 L 44.0075,-78 L 44.0075,-82
 L 54.3978,-82 L 54.4567,-82.2961 L 55.7574,-84.2426 L 57.7039,-85.5433 L 60,-86 L 62.2961,-85.5433
 L 64.2426,-84.2426 L 65.5433,-82.2961 L 65.6022,-82 L 75.9925,-82 L 75.9925,-78 L 65.6022,-78
 L 65.5433,-77.7039 L 64.2426,-75.7574 L 62.2961,-74.4567 L 60,-74 z
M 39,-69.655 L 39,-72.655 L 53,-72.655 L 53,-69.655 z
M 67,-69.655 L 67,-72.655 L 81,-72.655 L 81,-69.655 z
M 58,-64.31 L 58,-66.31 L 62,-66.31 L 62,-64.31 z
M 30.015,-64.31 L 30.015,-66.31 L 34.015,-66.31 L 34.015,-64.31 z
M 85.985,-64.31 L 85.985,-66.31 L 89.985,-66.31 L 89.985,-64.31 z
M 152.985,-97.69 L 97.015,-97.69 L 97.015,-62.31 L 152.985,-62.31 z
M 149.323,-93.0818 L 148.804,-93.4286 L 148.457,-93.9477 L 148.335,-94.56 L 148.457,-95.1723 L 148.804,-95.6913
 L 149.323,-96.0382 L 149.935,-96.16 L 150.547,-96.0382 L 151.066,-95.6913 L 151.413,-95.1723 L 151.535,-94.56
 L 151.413,-93.9477 L 151.066,-93.4286 L 150.547,-93.0818 L 149.935,-92.96 z
M 121.353,-93.0818 L 120.834,-93.4286 L 120.487,-93.9477 L 120.365,-94.56 L 120.487,-95.1723 L 120.834,-95.6913
 L 121.353,-96.0382 L 121.965,-96.16 L 122.577,-96.0382 L 123.096,-95.6913 L 123.443,-95.1723 L 123.565,-94.56
 L 123.443,-93.9477 L 123.096,-93.4286 L 122.577,-93.0818 L 121.965,-92.96 z
M 104,-87.345 L 104,-90.345 L 118,-90.345 L 118,-87.345 z
M 132,-87.345 L 132,-90.345 L 146,-90.345 L 146,-87.345 z
M 127.423,-83.1118 L 126.904,-83.4586 L 126.557,-83.9777 L 126.435,-84.59 L 126.557,-85.2023 L 126.904,-85.7214
 L 127.423,-86.0682 L 128.035,-86.19 L 128.647,-86.0682 L 129.166,-85.7214 L 129.513,-85.2023 L 129.635,-84.59
 L 129.513,-83.9777 L 129.166,-83.4586 L 128.647,-83.1118 L 128.035,-82.99 z
M 99.4527,-83.1118 L 98.9337,-83.4586 L 98.5868,-83.9777 L 98.465,-84.59 L 98.5868,-85.2023 L 98.9337,-85.7214
 L 99.4527,-86.0682 L 100.065,-86.19 L 100.677,-86.0682 L 101.196,-85.7214 L 101.543,-85.2023 L 101.665,-84.59
 L 101.543,-83.9777 L 101.196,-83.4586 L 100.677,-83.1118 L 100.065,-82.99 z
M 127.423,-73.7018 L 126.904,-74.0486 L 126.557,-74.5677 L 126.435,-75.18 L 126.557,-75.7923 L 126.904,-76.3114
 L 127.423,-76.6582 L 128.035,-76.78 L 128.647,-76.6582 L 129.166,-76.3114 L 129.513,-75.7923 L 129.635,-75.18
 L 129.513,-74.5677 L 129.166,-74.0486 L 128.647,-73.7018 L 128.035,-73.58 z
M 99.4527,-73.7018 L 98.9337,-74.0486 L 98.5868,-74.5677 L 98.465,-75.18 L 98.5868,-75.7923 L 98.9337,-76.3114
 L 99.4527,-76.6582 L 100.065,-76.78 L 100.677,-76.6582 L 101.196,-76.3114 L 101.543,-75.7923 L 101.665,-75.18
 L 101.543,-74.5677 L 101.196,-74.0486 L 100.677,-73.7018 L 100.065,-73.58 z
M 104,-69.655 L 104,-72.655 L 118,-72.655 L 118,-69.655 z
M 132,-69.655 L 132,-72.655 L 146,-72.655 L 146,-69.655 z
M 121.353,-63.7318 L 120.834,-64.0786 L 120.487,-64.5977 L 120.365,-65.21 L 120.487,-65.8223 L 120.834,-66.3414
 L 121.353,-66.6882 L 121.965,-66.81 L 122.577,-66.6882 L 123.096,-66.3414 L 123.443,-65.8223 L 123.565,-65.21
 L 123.443,-64.5977 L 123.096,-64.0786 L 122.577,-63.7318 L 121.965,-63.61 z
M 149.323,-63.7318 L 148.804,-64.0786 L 148.457,-64.5977 L 148.335,-65.21 L 148.457,-65.8223 L 148.804,-66.3414
 L 149.323,-66.6882 L 149.935,-66.81 L 150.547,-66.6882 L 151.066,-66.3414 L 151.413,-65.8223 L 151.535,-65.21
 L 151.413,-64.5977 L 151.066,-64.0786 L 150.547,-63.7318 L 149.935,-63.61 z
M 207,-78 L 221,-78 L 221,-75 L 228,-75 L 228,-81.6667 L 225,-81.6667
 L 225,-88.3333 L 228,-88.3333 L 228,-95 L 221,-95 L 221,-92 L 207,-92
 L 207,-95 L 188,-95 L 188,-75 L 207,-75 z
M 206.21,-82.6903 L 205.399,-83.2322 L 204.857,-84.0433 L 204.667,-85 L 204.857,-85.9567 L 205.399,-86.7678
 L 206.21,-87.3097 L 207.167,-87.5 L 208.123,-87.3097 L 208.934,-86.7678 L 209.476,-85.9567 L 209.667,-85
 L 209.476,-84.0433 L 208.934,-83.2322 L 208.123,-82.6903 L 207.167,-82.5 z
M 192.877,-82.6903 L 192.066,-83.2322 L 191.524,-84.0433 L 191.333,-85 L 191.524,-85.9567 L 192.066,-86.7678
 L 192.877,-87.3097 L 193.833,-87.5 L 194.79,-87.3097 L 195.601,-86.7678 L 196.143,-85.9567 L 196.333,-85
 L 196.143,-84.0433 L 195.601,-83.2322 L 194.79,-82.6903 L 193.833,-82.5 z
M 240,-55 L 240,-75 L 230,-75 L 230,-61 L 224,-55 L 200,-55
 L 200,-45 L 230,-45 z
M 235.522,-70.5951 L 235.116,-70.8661 L 234.845,-71.2716 L 234.75,-71.75 L 234.845,-72.2283 L 235.116,-72.6339
 L 235.522,-72.9048 L 236,-73 L 236.478,-72.9048 L 236.884,-72.6339 L 237.155,-72.2283 L 237.25,-71.75
 L 237.155,-71.2716 L 236.884,-70.8661 L 236.478,-70.5951 L 236,-70.5 z
M 235.522,-61.0952 L 235.116,-61.3661 L 234.845,-61.7717 L 234.75,-62.25 L 234.845,-62.7284 L 235.116,-63.1339
 L 235.522,-63.4049 L 236,-63.5 L 236.478,-63.4049 L 236.884,-63.1339 L 237.155,-62.7284 L 237.25,-62.25
 L 237.155,-61.7717 L 236.884,-61.3661 L 236.478,-61.0952 L 236,-61 z
M 219.043,-47.6903 L 218.232,-48.2322 L 217.69,-49.0433 L 217.5,-50 L 217.69,-50.9567 L 218.232,-51.7678
 L 219.043,-52.3097 L 220,-52.5 L 220.957,-52.3097 L 221.768,-51.7678 L 222.31,-50.9567 L 222.5,-50
 L 222.31,-49.0433 L 221.768,-48.2322 L 220.957,-47.6903 L 220,-47.5 z
M 209.043,-47.6903 L 208.232,-48.2322 L 207.69,-49.0433 L 207.5,-50 L 207.69,-50.9567 L 208.232,-51.7678
 L 209.043,-52.3097 L 210,-52.5 L 210.957,-52.3097 L 211.768,-51.7678 L 212.31,-50.9567 L 212.5,-50
 L 212.31,-49.0433 L 211.768,-48.2322 L 210.957,-47.6903 L 210,-47.5 z
M 212,-70 L 192,-70 L 192,-60 L 212,-60 z
M 206.272,-65.8451 L 205.866,-66.1161 L 205.595,-66.5216 L 205.5,-67 L 205.595,-67.4783 L 205.866,-67.8839
 L 206.272,-68.1548 L 206.75,-68.25 L 207.228,-68.1548 L 207.634,-67.8839 L 207.905,-67.4783 L 208,-67
 L 207.905,-66.5216 L 207.634,-66.1161 L 207.228,-65.8451 L 206.75,-65.75 z
M 196.772,-65.8451 L 196.366,-66.1161 L 196.095,-66.5216 L 196,-67 L 196.095,-67.4783 L 196.366,-67.8839
 L 196.772,-68.1548 L 197.25,-68.25 L 197.728,-68.1548 L 198.134,-67.8839 L 198.405,-67.4783 L 198.5,-67
 L 198.405,-66.5216 L 198.134,-66.1161 L 197.728,-65.8451 L 197.25,-65.75 z
M 152.985,-57.69 L 97.015,-57.69 L 97.015,-22.31 L 152.985,-22.31 z
M 121.353,-53.0818 L 120.834,-53.4286 L 120.487,-53.9477 L 120.365,-54.56 L 120.487,-55.1723 L 120.834,-55.6913
 L 121.353,-56.0382 L 121.965,-56.16 L 122.577,-56.0382 L 123.096,-55.6913 L 123.443,-55.1723 L 123.565,-54.56
 L 123.443,-53.9477 L 123.096,-53.4286 L 122.577,-53.0818 L 121.965,-52.96 z
M 149.323,-53.0818 L 148.804,-53.4286 L 148.457,-53.9477 L 148.335,-54.56 L 148.457,-55.1723 L 148.804,-55.6913
 L 149.323,-56.0382 L 149.935,-56.16 L 150.547,-56.0382 L 151.066,-55.6913 L 151.413,-55.1723 L 151.535,-54.56
 L 151.413,-53.9477 L 151.066,-53.4286 L 150.547,-53.0818 L 149.935,-52.96 z
M 104,-47.345 L 104,-50.345 L 118,-50.345 L 118,-47.345 z
M 132,-47.345 L 132,-50.345 L 146,-50.345 L 146,-47.345 z
M 127.423,-43.1118 L 126.904,-43.4586 L 126.557,-43.9777 L 126.435,-44.59 L 126.557,-45.2023 L 126.904,-45.7214
 L 127.423,-46.0682 L 128.035,-46.19 L 128.647,-46.0682 L 129.166,-45.7214 L 129.513,-45.2023 L 129.635,-44.59
 L 129.513,-43.9777 L 129.166,-43.4586 L 128.647,-43.1118 L 128.035,-42.99 z
M 99.4527,-43.1118 L 98.9337,-43.4586 L 98.5868,-43.9777 L 98.465,-44.59 L 98.5868,-45.2023 L 98.9337,-45.7214
 L 99.4527,-46.0682 L 100.065,-46.19 L 100.677,-46.0682 L 101.196,-45.7214 L 101.543,-45.2023 L 101.665,-44.59
 L 101.543,-43.9777 L 101.196,-43.4586 L 100.677,-43.1118 L 100.065,-42.99 z
M 127.423,-33.7018 L 126.904,-34.0486 L 126.557,-34.5677 L 126.435,-35.18 L 126.557,-35.7923 L 126.904,-36.3114
 L 127.423,-36.6582 L 128.035,-36.78 L 128.647,-36.6582 L 129.166,-36.3114 L 129.513,-35.7923 L 129.635,-35.18
 L 129.513,-34.5677 L 129.166,-34.0486 L 128.647,-33.7018 L 128.035,-33.58 z
M 99.4527,-33.7018 L 98.9337,-34.0486 L 98.5868,-34.5677 L 98.465,-35.18 L 98.5868,-35.7923 L 98.9337,-36.3114
 L 99.4527,-36.6582 L 100.065,-36.78 L 100.677,-36.6582 L 101.196,-36.3114 L 101.543,-35.7923 L 101.665,-35.18
 L 101.543,-34.5677 L 101.196,-34.0486 L 100.677,-33.7018 L 100.065,-33.58 z
M 132,-29.655 L 132,-32.655 L 146,-32.655 L 146,-29.655 z
M 104,-29.655 L 104,-32.655 L 118,-32.655 L 118,-29.655 z
M 121.353,-23.7318 L 120.834,-24.0786 L 120.487,-24.5977 L 120.365,-25.21 L 120.487,-25.8223 L 120.834,-26.3414
 L 121.353,-26.6882 L 121.965,-26.81 L 122.577,-26.6882 L 123.096,-26.3414 L 123.443,-25.8223 L 123.565,-25.21
 L 123.443,-24.5977 L 123.096,-24.0786 L 122.577,-23.7318 L 121.965,-23.61 z
M 149.323,-23.7318 L 148.804,-24.0786 L 148.457,-24.5977 L 148.335,-25.21 L 148.457,-25.8223 L 148.804,-26.3414
 L 149.323,-26.6882 L 149.935,-26.81 L 150.547,-26.6882 L 151.066,-26.3414 L 151.413,-25.8223 L 151.535,-25.21
 L 151.413,-24.5977 L 151.066,-24.0786 L 150.547,-23.7318 L 149.935,-23.61 z
M 91.985,-57.69 L 28.015,-57.69 L 28.015,-22.31 L 91.985,-22.31 z
M 58,-53.69 L 58,-55.69 L 62,-55.69 L 62,-53.69 z
M 85.985,-53.69 L 85.985,-55.69 L 89.985,-55.69 L 89.985,-53.69 z
M 30.015,-53.69 L 30.015,-55.69 L 34.015,-55.69 L 34.015,-53.69 z
M 67,-47.345 L 67,-50.345 L 81,-50.345 L 81,-47.345 z
M 39,-47.345 L 39,-50.345 L 53,-50.345 L 53,-47.345 z
M 57.7039,-34.4567 L 55.7574,-35.7574 L 54.4567,-37.7039 L 54.3978,-38 L 44.0075,-38 L 44.0075,-42
 L 54.3978,-42 L 54.4567,-42.2961 L 55.7574,-44.2426 L 57.7039,-45.5433 L 60,-46 L 62.2961,-45.5433
 L 64.2426,-44.2426 L 65.5433,-42.2961 L 65.6022,-42 L 75.9925,-42 L 75.9925,-38 L 65.6022,-38
 L 65.5433,-37.7039 L 64.2426,-35.7574 L 62.2961,-34.4567 L 60,-34 z
M 67,-29.655 L 67,-32.655 L 81,-32.655 L 81,-29.655 z
M 39,-29.655 L 39,-32.655 L 53,-32.655 L 53,-29.655 z
M 58,-24.31 L 58,-26.31 L 62,-26.31 L 62,-24.31 z
M 85.985,-24.31 L 85.985,-26.31 L 89.985,-26.31 L 89.985,-24.31 z
M 30.015,-24.31 L 30.015,-26.31 L 34.015,-26.31 L 34.015,-24.31 z
M 165,-38 L 171,-44 L 195,-44 L 195,-54 L 165,-54 L 155,-44
 L 155,-24 L 165,-24 z
M 184.043,-46.6903 L 183.232,-47.2322 L 182.69,-48.0433 L 182.5,-49 L 182.69,-49.9567 L 183.232,-50.7678
 L 184.043,-51.3097 L 185,-51.5 L 185.957,-51.3097 L 186.768,-50.7678 L 187.31,-49.9567 L 187.5,-49
 L 187.31,-48.0433 L 186.768,-47.2322 L 185.957,-46.6903 L 185,-46.5 z
M 174.043,-46.6903 L 173.232,-47.2322 L 172.69,-48.0433 L 172.5,-49 L 172.69,-49.9567 L 173.232,-50.7678
 L 174.043,-51.3097 L 175,-51.5 L 175.957,-51.3097 L 176.768,-50.7678 L 177.31,-49.9567 L 177.5,-49
 L 177.31,-48.0433 L 176.768,-47.2322 L 175.957,-46.6903 L 175,-46.5 z
M 158.522,-35.5951 L 158.116,-35.8661 L 157.845,-36.2716 L 157.75,-36.75 L 157.845,-37.2283 L 158.116,-37.6339
 L 158.522,-37.9048 L 159,-38 L 159.478,-37.9048 L 159.884,-37.6339 L 160.155,-37.2283 L 160.25,-36.75
 L 160.155,-36.2716 L 159.884,-35.8661 L 159.478,-35.5951 L 159,-35.5 z
M 158.522,-26.0952 L 158.116,-26.3661 L 157.845,-26.7717 L 157.75,-27.25 L 157.845,-27.7284 L 158.116,-28.1339
 L 158.522,-28.4049 L 159,-28.5 L 159.478,-28.4049 L 159.884,-28.1339 L 160.155,-27.7284 L 160.25,-27.25
 L 160.155,-26.7717 L 159.884,-26.3661 L 159.478,-26.0952 L 159,-26 z
M 259,-33 L 273,-33 L 273,-30 L 280,-30 L 280,-36.6667 L 277,-36.6667
 L 277,-43.3333 L 280,-43.3333 L 280,-50 L 273,-50 L 273,-47 L 259,-47
 L 259,-50 L 240,-50 L 240,-30 L 259,-30 z
M 244.877,-37.6903 L 244.066,-38.2322 L 243.524,-39.0433 L 243.333,-40 L 243.524,-40.9567 L 244.066,-41.7678
 L 244.877,-42.3097 L 245.833,-42.5 L 246.79,-42.3097 L 247.601,-41.7678 L 248.143,-40.9567 L 248.333,-40
 L 248.143,-39.0433 L 247.601,-38.2322 L 246.79,-37.6903 L 245.833,-37.5 z
M 258.21,-37.6903 L 257.399,-38.2322 L 256.857,-39.0433 L 256.667,-40 L 256.857,-40.9567 L 257.399,-41.7678
 L 258.21,-42.3097 L 259.167,-42.5 L 260.123,-42.3097 L 260.934,-41.7678 L 261.476,-40.9567 L 261.667,-40
 L 261.476,-39.0433 L 260.934,-38.2322 L 260.123,-37.6903 L 259.167,-37.5 z
M 219.799,-30.1005 L 221.92,-27.9792 L 231.82,-37.8787 L 229.698,-40 L 200,-40 L 197.879,-37.8787
 L 207.778,-27.9792 L 212.021,-32.2218 L 216.971,-27.2721 z
M 195,-37 L 175,-37 L 175,-27 L 195,-27 z
M 179.772,-32.8451 L 179.366,-33.1161 L 179.095,-33.5216 L 179,-34 L 179.095,-34.4783 L 179.366,-34.8839
 L 179.772,-35.1548 L 180.25,-35.25 L 180.728,-35.1548 L 181.134,-34.8839 L 181.405,-34.4783 L 181.5,-34
 L 181.405,-33.5216 L 181.134,-33.1161 L 180.728,-32.8451 L 180.25,-32.75 z
M 189.272,-32.8451 L 188.866,-33.1161 L 188.595,-33.5216 L 188.5,-34 L 188.595,-34.4783 L 188.866,-34.8839
 L 189.272,-35.1548 L 189.75,-35.25 L 190.228,-35.1548 L 190.634,-34.8839 L 190.905,-34.4783 L 191,-34
 L 190.905,-33.5216 L 190.634,-33.1161 L 190.228,-32.8451 L 189.75,-32.75 z
" stroke="black" fill="none" stroke-width="0.5"/></svg>
