<?xml version="1.0" standalone="no"?>
<!DOCTYPE svg PUBLIC "-//W3C//DTD SVG 20010904//EN" "http://www.w3.org/TR/2001/REC-SVG-20010904/DTD/svg10.dtd">
<!-- Created using Karbon, part of Calligra: http://www.calligra.org/karbon -->
<svg xmlns="http://www.w3.org/2000/svg" xmlns:xlink="http://www.w3.org/1999/xlink" width="4962.95pt" height="5653.33pt">
<defs/>
<g id="layer0">
  <path id="path0" transform="matrix(90 0 0 90 870.875 6816.16)" fill="none" stroke="#000000" stroke-width="0.02000000000" stroke-linecap="butt" stroke-linejoin="miter" stroke-miterlimit="2.00000000000" d="M0.000694444 0L0 0.000694444L0.000694444 0.00138889L0.00138889 0.000694444Z"/>
  <path id="path1" transform="matrix(90 0 0 90 904.425 6816.16)" fill="none" stroke="#000000" stroke-width="0.02000000000" stroke-linecap="butt" stroke-linejoin="miter" stroke-miterlimit="2.00000000000" d="M0.000694444 0L0 0.000694444L0.000694444 0.00138889L0.00138889 0.000694444Z"/>
  <path id="path2" transform="matrix(90 0 0 90 1787.83 6029.81)" fill="none" stroke="#000000" stroke-width="0.02000000000" stroke-linecap="butt" stroke-linejoin="miter" stroke-miterlimit="2.00000000000" d="M4.74735 1.31296L4.74735 0.98826L5.27363 0.983902L5.81842 0.982812L6.38174 0.983902L6.9625 0.98826L7.5585 0.993708L8.16758 1.00025L9.14822 1.01332L10.1539 1.02749L11.1781 1.04056L12.2884 1.05146L13.4063 1.05799L14.5232 1.0569L15.6335 1.0471L16.7274 1.0264L17.4019 1.00678L18.0644 0.981723L18.7148 0.950125L19.3523 0.911989L19.9733 0.866226L20.577 0.812836L21.1621 0.751819L21.7254 0.682085L22.2113 0.611261L22.6788 0.532811L23.1244 0.446733L23.5483 0.351938L23.9482 0.248427L24.323 0.135109L24.6727 0.0130751L24.7621 0L24.8471 0.0283294L24.9114 0.0915258L24.9419 0.175424L24.9321 0.264771L24.8852 0.341042L20.2904 4.93585L20.2283 4.97726L20.1553 4.9936L20.0812 4.98271L19.9799 4.96636L19.8796 4.98924L19.7957 5.04917L19.7391 5.13525L19.7194 5.23658L19.7391 5.33682L19.7957 5.4229L19.8796 5.48283L19.9799 5.50571L20.0812 5.49046L20.1553 5.47847L20.2283 5.49481L20.2904 5.53622L24.0724 9.31819L24.117 9.38684L24.1301 9.46747L24.1105 9.54592L24.0615 9.61129L23.9896 9.65052L23.9089 9.65815L23.8316 9.63309L23.3195 9.35197L22.7812 9.08175L22.219 8.82243L21.6349 8.57291L21.028 8.33429L20.4015 8.10548L19.6966 7.86795L18.9709 7.6424L18.2256 7.42775L17.464 7.22509L16.686 7.03223L15.895 6.85136L15.0919 6.68138L13.9522 6.46128L12.7962 6.2608L11.6303 6.07993L10.459 5.91867L9.28769 5.77593L8.35826 5.67569L7.43429 5.58525L6.51685 5.5068L5.61031 5.43925L4.71685 5.3815L3.83754 5.33355L2.97568 5.29542L2.13342 5.26709L1.82725 5.23658L1.5287 5.16467L1.24214 5.05026L0.975185 4.89772L0.732206 4.70922L0.517556 4.48912L0.336684 4.24069L0.191768 3.96939L0.0860778 3.67955L0.0217918 3.37883L0 3.07265L0 1.7379L4.32241 1.7379L4.39651 1.75206L4.4597 1.79238L4.50329 1.85231L4.5643 1.93621L4.65147 1.9896L4.7528 2.00812L4.85304 1.98633L4.93803 1.92858L4.99578 1.84359L5.01757 1.74335L5.00014 1.64202L4.94566 1.55485L4.86285 1.49383L4.80183 1.44916L4.76152 1.38596Z"/>
  <path id="path3" transform="matrix(90 0 0 90 6138.82 5192.51)" fill="none" stroke="#000000" stroke-width="0.02000000000" stroke-linecap="butt" stroke-linejoin="miter" stroke-miterlimit="2.00000000000" d="M0.198306 0.234262L0.128572 0.254965L0.0577484 0.234262L0.00980633 0.178693L0 0.10678L0.0305086 0.0403149L0.0915258 0L0.164528 0L0.226635 0.0403149L0.257144 0.10678L0.246248 0.178693Z"/>
  <path id="path4" transform="matrix(90 0 0 90 6138.82 5617.52)" fill="none" stroke="#000000" stroke-width="0.02000000000" stroke-linecap="butt" stroke-linejoin="miter" stroke-miterlimit="2.00000000000" d="M0.198306 0.234262L0.128572 0.254965L0.0577484 0.234262L0.00980633 0.178693L0 0.10678L0.0305086 0.0392253L0.0915258 0L0.164528 0L0.226635 0.0392253L0.257144 0.10678L0.246248 0.178693Z"/>
  <path id="path5" transform="matrix(90 0 0 90 6105.38 5168.88)" fill="none" stroke="#000000" stroke-width="0.02000000000" stroke-linecap="butt" stroke-linejoin="miter" stroke-miterlimit="2.00000000000" d="M0.999156 0.39988L0.999156 5.09711L0.979544 5.22133L0.922885 5.33247L0.834628 5.42072L0.723489 5.47738L0.599276 5.49699L0.39988 5.49699L0.276756 5.47738L0.164528 5.42072L0.0762715 5.33247L0.0196127 5.22133L0 5.09711L0 0.39988L0.0196127 0.276756L0.0762715 0.164528L0.164528 0.0762715L0.276756 0.0196127L0.39988 0L0.599276 0L0.723489 0.0196127L0.834628 0.0762715L0.922885 0.164528L0.979544 0.276756Z"/>
  <path id="path6" transform="matrix(90 0 0 90 3916.16 4891.37)" fill="none" stroke="#000000" stroke-width="0.02000000000" stroke-linecap="butt" stroke-linejoin="miter" stroke-miterlimit="2.00000000000" d="M4.00605 0.367683L4.32349 0.746004L0.367793 4.06523L0 3.62691L2.81907 1.26143L3.01463 1.10018L3.20785 0.947985L3.50306 0.724414L3.3806 0.712155L3.27762 0.697741L3.24027 0.692157L3.18174 0.681631L3.10272 0.666996L3.00321 0.648253L2.88321 0.6254L2.74496 0.599406L2.58622 0.569303L2.40852 0.535226L2.21033 0.497039L2.31868 0Z"/>
  <path id="path7" transform="matrix(90 0 0 90 3708.43 4626.78)" fill="none" stroke="#000000" stroke-width="0.02000000000" stroke-linecap="butt" stroke-linejoin="miter" stroke-miterlimit="2.00000000000" d="M0 5.13092L6.1148 0L7.07693 1.14663L7.50488 9.25516L6.33658 10.2355Z"/>
  <path id="path8" transform="matrix(90 0 0 90 4645.92 6176.69)" fill="none" stroke="#000000" stroke-width="0.02000000000" stroke-linecap="butt" stroke-linejoin="miter" stroke-miterlimit="2.00000000000" d="M2.39527 3.18446L3.72828 1.85145L4.00134 2.12451L2.29758 3.82827L2.04375 3.57444L2.04067 2.20681L2.03836 2.03836L2.03605 1.88529L2.03144 1.74838L2.02682 1.62684L2.0199 1.51531L2.01067 1.42147L2.00144 1.34455L1.9776 1.21763L1.9476 1.09995L1.91991 1.0138L1.88837 0.933031L1.83914 0.836113L1.77914 0.74381L1.72376 0.674582L1.663 0.609201L1.58454 0.538435L1.50223 0.483822L1.41762 0.442286L1.31532 0.413826L1.20763 0.406134L1.1161 0.414595L1.02687 0.439209L0.938415 0.479976L0.836882 0.546127L0.736887 0.633815L0.652276 0.726118L0.578433 0.826113L0.527666 0.907648L0.484592 0.992259L0.437671 1.11302L0.399211 1.25148L0.375366 1.37378L0.356136 1.50839L0 1.46301L0.023845 1.28532L0.0623046 1.11456L0.113841 0.953799L0.18076 0.802268L0.266141 0.653814L0.366905 0.51459L0.482284 0.385366L0.61997 0.261526L0.759194 0.160761L0.899956 0.0846112L1.01303 0.0423056L1.12687 0.0130763L1.24148 0L1.38686 0.00384597L1.52531 0.0315369L1.65915 0.0823037L1.75991 0.138455L1.8576 0.20999L1.95144 0.294601L2.03913 0.391519L2.11605 0.497668L2.1822 0.613047L2.24835 0.760732L2.30143 0.921493L2.32758 1.03533L2.34988 1.16225L2.36758 1.30455L2.38065 1.46224L2.38988 1.64223L2.3945 1.8376L2.39373 2.04913L2.38142 3.17061Z"/>
  <path id="path9" transform="matrix(90 0 0 90 4476.79 5829.51)" fill="none" stroke="#000000" stroke-width="0.02000000000" stroke-linecap="butt" stroke-linejoin="miter" stroke-miterlimit="2.00000000000" d="M1.07226 10.3903L0 9.318L0.913801 1.05841L1.97221 0L7.61655 5.64434Z"/>
  <path id="path10" transform="matrix(90 0 0 90 5757.63 6333.47)" fill="none" stroke="#000000" stroke-width="0.02000000000" stroke-linecap="butt" stroke-linejoin="miter" stroke-miterlimit="2.00000000000" d="M1.93955 0.194717L2.00808 0.245844L2.08641 0.318726L2.15167 0.398136L2.20606 0.48516L2.24958 0.579799L2.2746 0.658121L2.292 0.741882L2.30288 0.829994L2.30723 0.922457L2.30288 1.01927L2.29091 1.11065L2.27133 1.19658L2.24414 1.27817L2.20715 1.35867L2.16255 1.43264L2.10816 1.50117L2.04942 1.56209L1.98415 1.61539L1.91236 1.66434L1.83404 1.70676L1.74484 1.74484L1.64911 1.77747L1.54577 1.80249L1.54577 1.82316L1.66543 1.84165L1.77638 1.86667L1.87864 1.8993L1.97219 1.93847L2.05921 1.98742L2.13753 2.04289L2.20498 2.10599L2.26154 2.17234L2.30832 2.24414L2.34748 2.32246L2.37903 2.40513L2.40187 2.49868L2.41601 2.59767L2.42036 2.7021L2.41601 2.81741L2.40187 2.92728L2.37903 3.03062L2.34639 3.12743L2.30506 3.21772L2.2561 3.30148L2.19736 3.37872L2.12992 3.45051L2.05377 3.51578L1.96784 3.57561L1.87428 3.62891L1.77203 3.6746L1.66325 3.71376L1.54577 3.74531L1.42393 3.76924L1.29449 3.78664L1.15633 3.79752L1.01166 3.80078L0.85175 3.79752L0.69837 3.78664L0.58415 3.77359L0.474282 3.75618L0.338307 3.72573L0.205595 3.68548L0.102254 3.64632L0 3.60063L0 3.2014L0.137063 3.26341L0.279565 3.31671L0.394873 3.35152L0.512355 3.38198L0.662472 3.41135L0.808238 3.43202L0.919194 3.44072L1.02797 3.44398L1.15742 3.43963L1.27708 3.42876L1.38804 3.41026L1.4892 3.38524L1.58058 3.35152L1.66325 3.31127L1.73613 3.26341L1.80031 3.20793L1.85688 3.14266L1.90366 3.06869L1.93955 2.98711L1.96457 2.89682L1.98089 2.79892L1.98524 2.69231L1.98089 2.60203L1.96457 2.51718L1.93955 2.43994L1.90257 2.36815L1.85579 2.30397L1.79923 2.24631L1.73178 2.1941L1.65455 2.1495L1.56209 2.11034L1.45766 2.0777L1.34235 2.0516L1.21616 2.03419L1.07801 2.02331L0.928984 2.01896L0.56457 2.01896L0.56457 1.6589L0.933335 1.6589L1.05082 1.65455L1.16177 1.64367L1.26512 1.62518L1.36084 1.59907L1.45439 1.56317L1.54033 1.51966L1.61865 1.46745L1.68501 1.41088L1.74049 1.34888L1.78617 1.28143L1.82207 1.20746L1.84927 1.1237L1.86558 1.03341L1.87102 0.937686L1.86776 0.863716L1.85688 0.795184L1.83839 0.731004L1.81337 0.671175L1.77856 0.613521L1.73613 0.560219L1.68609 0.512355L1.6317 0.472107L1.57188 0.438385L1.50661 0.410102L1.4359 0.388346L1.35649 0.370941L1.27164 0.361151L1.18135 0.357887L1.04755 0.363326L0.918106 0.378556L0.819116 0.398136L0.723389 0.424243L0.640716 0.452526L0.55478 0.488424L0.463404 0.533024L0.35136 0.595028L0.23279 0.666823L0.0206683 0.383995L0.107693 0.319814L0.200156 0.261073L0.29697 0.206683L0.417716 0.151205L0.544989 0.102254L0.657033 0.0674438L0.771252 0.0402487L0.887647 0.0195805L1.02797 0.00435121L1.17156 0L1.31733 0.00435121L1.45439 0.0184927L1.58167 0.0435121L1.69915 0.077234L1.78509 0.109868L1.86558 0.149029Z"/>
  <path id="path11" transform="matrix(90 0 0 90 5625.07 5933.64)" fill="none" stroke="#000000" stroke-width="0.02000000000" stroke-linecap="butt" stroke-linejoin="miter" stroke-miterlimit="2.00000000000" d="M4.40669 0.48516L4.40669 8.3924L0 8.3924L3.08827 0Z"/>
  <path id="path12" transform="matrix(90 0 0 90 2929.49 5921.72)" fill="none" stroke="#000000" stroke-width="0.02000000000" stroke-linecap="butt" stroke-linejoin="miter" stroke-miterlimit="2.00000000000" d="M0.405751 0.57436L0.298058 0.593941L0.189278 0.57436L0.0957267 0.515619L0.0293707 0.428594L0 0.32199L0.00979023 0.213209L0.0587414 0.114219L0.140327 0.0402487L0.24258 0L0.352448 0L0.45579 0.0402487L0.536287 0.114219L0.585238 0.213209L0.596116 0.32199L0.565658 0.428594L0.499302 0.515619Z"/>
  <path id="path13" transform="matrix(90 0 0 90 2902.37 5517.19)" fill="none" stroke="#000000" stroke-width="0.02000000000" stroke-linecap="butt" stroke-linejoin="miter" stroke-miterlimit="2.00000000000" d="M4.74065 5.38789L4.74065 0L0 0L0 5.38789Z"/>
  <path id="path14" transform="matrix(90 0 0 90 896.938 6818.48)" fill="none" stroke="#000000" stroke-width="0.02000000000" stroke-linecap="butt" stroke-linejoin="miter" stroke-miterlimit="2.00000000000" d="M0 0.00111111L0 0.00125L0 0.00138889L0.000138889 0.00152778L0.000138889 0.00166667L0.000138889 0.00180556L0.000277778 0.00194444L0.000277778 0.00208333L0.000416667 0.00208333L0.000416667 0.00222222L0.000555556 0.00222222L0.000694444 0.00236111L0.000833333 0.00236111L0.000972222 0.00236111L0.00111111 0.00236111L0.00125 0.00236111L0.00138889 0.00236111L0.00152778 0.00236111L0.00166667 0.00236111L0.00180556 0.00222222L0.00194444 0.00208333L0.00208333 0.00194444L0.00208333 0.00180556L0.00222222 0.00180556L0.00222222 0.00166667L0.00222222 0.00152778L0.00222222 0.00138889L0.00222222 0.00125L0.00222222 0.00111111L0.00222222 0.000972222L0.00222222 0.000833333L0.00222222 0.000694444L0.00208333 0.000555556L0.00208333 0.000416667L0.00194444 0.000416667L0.00194444 0.000277778L0.00180556 0.000277778L0.00180556 0.000138889L0.00166667 0.000138889L0.00152778 0.000138889L0.00138889 0L0.00125 0L0.00111111 0L0.000972222 0L0.000833333 0.000138889L0.000694444 0.000138889L0.000555556 0.000138889L0.000416667 0.000277778L0.000277778 0.000416667L0.000138889 0.000555556L0.000138889 0.000694444L0.000138889 0.000833333L0.000138889 0.000972222Z"/>
  <path id="path15" transform="matrix(90 0 0 90 5598.42 5543.39)" fill="none" stroke="#000000" stroke-width="0.02000000000" stroke-linecap="butt" stroke-linejoin="miter" stroke-miterlimit="2.00000000000" d="M0.480809 3.60607L0.412277 3.55494L0.333956 3.48206L0.268687 3.40265L0.214297 3.31562L0.170785 3.22099L0.145766 3.14266L0.128361 3.0589L0.117483 2.97079L0.113132 2.87833L0.117483 2.78151L0.129449 2.69014L0.149029 2.6042L0.176224 2.52262L0.213209 2.44212L0.257809 2.36815L0.3122 2.29962L0.370941 2.2387L0.436209 2.1854L0.508004 2.13645L0.586326 2.09402L0.675526 2.05595L0.771252 2.02331L0.874594 1.99829L0.874594 1.97763L0.754935 1.95913L0.64398 1.93411L0.541726 1.90148L0.448175 1.86232L0.361151 1.81337L0.282829 1.75789L0.215385 1.6948L0.158819 1.62844L0.112044 1.55665L0.0728828 1.47832L0.0413365 1.39565L0.0184927 1.3021L0.00435121 1.20311L0 1.09868L0.00435121 0.983374L0.0184927 0.873506L0.0413365 0.770165L0.0739706 0.67335L0.115307 0.583063L0.164258 0.499302L0.223 0.422068L0.290443 0.350273L0.36659 0.285004L0.452526 0.225175L0.546077 0.171873L0.648331 0.126185L0.757111 0.0870243L0.874594 0.055478L0.996428 0.0315463L1.12588 0.0141414L1.26403 0.00326341L1.40871 0L1.56861 0.00326341L1.72199 0.0141414L1.83621 0.0271951L1.94608 0.0445999L2.08206 0.0750584L2.21477 0.115307L2.31811 0.154468L2.42036 0.200156L2.42036 0.59938L2.2833 0.537375L2.1408 0.484072L2.02549 0.449263L1.90801 0.418804L1.75789 0.389434L1.61212 0.368765L1.50117 0.360063L1.39239 0.356799L1.26294 0.361151L1.14328 0.372029L1.03233 0.390521L0.93116 0.415541L0.839784 0.449263L0.757111 0.489511L0.684228 0.537375L0.620048 0.592853L0.563482 0.658121L0.516707 0.732092L0.480809 0.813677L0.45579 0.903964L0.439472 1.00187L0.435121 1.10847L0.439472 1.19876L0.45579 1.28361L0.480809 1.36084L0.517794 1.43264L0.56457 1.49682L0.621136 1.55447L0.688579 1.60669L0.765813 1.65129L0.858277 1.69045L0.962706 1.72308L1.07801 1.74919L1.2042 1.76659L1.34235 1.77747L1.49138 1.78182L1.85579 1.78182L1.85579 2.14188L1.48703 2.14188L1.36954 2.14624L1.25859 2.15711L1.15525 2.17561L1.05952 2.20171L0.965969 2.23761L0.880033 2.28112L0.801711 2.33334L0.735355 2.3899L0.679877 2.45191L0.634189 2.51935L0.598292 2.59332L0.571097 2.67708L0.55478 2.76737L0.549341 2.8631L0.552604 2.93707L0.563482 3.0056L0.581975 3.06978L0.606994 3.12961L0.641804 3.18726L0.684228 3.24057L0.734267 3.28843L0.788657 3.32868L0.848487 3.3624L0.913755 3.39068L0.984462 3.41244L1.06387 3.42984L1.14872 3.43963L1.23901 3.4429L1.37281 3.43746L1.50226 3.42223L1.60125 3.40265L1.69697 3.37654L1.77965 3.34826L1.86558 3.31236L1.95696 3.26776L2.069 3.20576L2.18757 3.13396L2.39969 3.41679L2.31267 3.48097L2.22021 3.53971L2.12339 3.5941L2.00265 3.64958L1.87537 3.69853L1.76333 3.73334L1.64911 3.76054L1.53271 3.7812L1.39239 3.79643L1.2488 3.80078L1.10303 3.79643L0.965969 3.78229L0.838696 3.75727L0.721214 3.72355L0.635277 3.69092L0.55478 3.65176Z"/>
  <path id="path16" transform="matrix(90 0 0 90 5552.21 5529.98)" fill="none" stroke="#000000" stroke-width="0.02000000000" stroke-linecap="butt" stroke-linejoin="miter" stroke-miterlimit="2.00000000000" d="M0 7.90724L0 0L4.40669 0L1.31842 8.3924Z"/>
  <path id="path17" transform="matrix(90 0 0 90 3736.47 5908.56)" fill="none" stroke="#000000" stroke-width="0.02000000000" stroke-linecap="butt" stroke-linejoin="miter" stroke-miterlimit="2.00000000000" d="M0.190366 0.57436L0.298058 0.593941L0.406838 0.57436L0.500389 0.515619L0.566745 0.428594L0.596116 0.32199L0.586326 0.213209L0.537375 0.114219L0.45579 0.0402487L0.353536 0L0.243668 0L0.140327 0.0402487L0.0598292 0.114219L0.010878 0.213209L0 0.32199L0.0304585 0.428594L0.0968145 0.515619Z"/>
  <path id="path18" transform="matrix(90 0 0 90 3390.58 5504.02)" fill="none" stroke="#000000" stroke-width="0.02000000000" stroke-linecap="butt" stroke-linejoin="miter" stroke-miterlimit="2.00000000000" d="M0 5.38789L0 0L4.74065 0L4.74065 5.38789Z"/>
  <path id="path19" transform="matrix(90 0 0 90 4512.53 5081.17)" fill="none" stroke="#000000" stroke-width="0.02000000000" stroke-linecap="butt" stroke-linejoin="miter" stroke-miterlimit="2.00000000000" d="M0.317449 3.69755L0 3.31923L3.9557 0L4.32349 0.438319L1.50442 2.8038L1.30886 2.96505L1.11564 3.11725L0.820431 3.34082L0.942899 3.35308L1.04588 3.36749L1.08322 3.37307L1.14176 3.3836L1.22078 3.39824L1.32029 3.41698L1.44028 3.43983L1.57854 3.46583L1.73728 3.49593L1.91498 3.53001L2.11316 3.56819L2.00482 4.06523Z"/>
  <path id="path20" transform="matrix(90 0 0 90 4433.94 4790.43)" fill="none" stroke="#000000" stroke-width="0.02000000000" stroke-linecap="butt" stroke-linejoin="miter" stroke-miterlimit="2.00000000000" d="M7.50488 5.10455L1.39008 10.2355L0.427945 9.08884L0 0.980315L1.16829 0Z"/>
  <path id="path21" transform="matrix(90 0 0 90 3931.8 6254.94)" fill="none" stroke="#000000" stroke-width="0.02000000000" stroke-linecap="butt" stroke-linejoin="miter" stroke-miterlimit="2.00000000000" d="M1.60608 0.643815L0.273064 1.97683L0 1.70376L1.70376 0L1.9576 0.253834L1.96067 1.62146L1.96298 1.78991L1.96529 1.94298L1.9699 2.0799L1.97452 2.20143L1.98144 2.31296L1.99067 2.4068L1.9999 2.48372L2.02375 2.61064L2.05375 2.72833L2.08144 2.81448L2.11297 2.89524L2.1622 2.99216L2.2222 3.08446L2.27758 3.15369L2.33835 3.21907L2.4168 3.28984L2.49911 3.34445L2.58372 3.38599L2.68602 3.41445L2.79371 3.42214L2.88524 3.41368L2.97447 3.38906L3.06293 3.3483L3.16446 3.28215L3.26446 3.19446L3.34907 3.10216L3.42291 3.00216L3.47368 2.92063L3.51675 2.83601L3.56367 2.71525L3.60213 2.5768L3.62598 2.45449L3.64521 2.31989L4.00134 2.36527L3.9775 2.54295L3.93904 2.71371L3.8875 2.87447L3.82058 3.02601L3.7352 3.17446L3.63444 3.31368L3.51906 3.44291L3.38137 3.56675L3.24215 3.66751L3.10139 3.74366L2.98831 3.78597L2.87447 3.8152L2.75986 3.82827L2.61449 3.82443L2.47603 3.79674L2.34219 3.74597L2.24143 3.68982L2.14374 3.61828L2.0499 3.53367L1.96221 3.43675L1.88529 3.33061L1.81914 3.21523L1.75299 3.06754L1.69992 2.90678L1.67376 2.79294L1.65146 2.66602L1.63377 2.52372L1.62069 2.36604L1.61146 2.18605L1.60684 1.99067L1.60761 1.77914L1.61992 0.65766Z"/>
  <path id="path22" transform="matrix(90 0 0 90 3775.55 6011.53)" fill="none" stroke="#000000" stroke-width="0.02000000000" stroke-linecap="butt" stroke-linejoin="miter" stroke-miterlimit="2.00000000000" d="M6.54429 0L7.61655 1.07226L6.70275 9.33185L5.64434 10.3903L0 4.74592Z"/>
  <path id="path23" transform="matrix(90 0 0 90 5149.37 6565.04)" fill="none" stroke="#000000" stroke-width="0.02000000000" stroke-linecap="butt" stroke-linejoin="miter" stroke-miterlimit="2.00000000000" d="M0.728352 3.38024L2.60634 3.21593L2.64 3.60063L0.239683 3.81063L0.208396 3.45303L1.08513 2.40339L1.19164 2.27286L1.28827 2.15412L1.37274 2.04627L1.44732 1.9502L1.51371 1.86031L1.56696 1.78249L1.60933 1.71764L1.67265 1.60509L1.72532 1.49565L1.75948 1.41186L1.78724 1.32971L1.81182 1.22383L1.82519 1.11455L1.82727 1.02592L1.82274 0.936779L1.80813 0.832137L1.78018 0.737398L1.74207 0.651192L1.68199 0.563631L1.60444 0.488519L1.52889 0.436164L1.44471 0.397666L1.35075 0.372036L1.23045 0.357446L1.09748 0.360343L0.973334 0.376665L0.852492 0.4058L0.761193 0.435627L0.673808 0.472755L0.56024 0.535105L0.441781 0.616446L0.344901 0.694807L0.243645 0.785563L0 0.521878L0.132479 0.401092L0.271704 0.295003L0.414518 0.204979L0.563184 0.131915L0.724014 0.0730736L0.890695 0.0311919L1.06214 0.00636444L1.24722 0L1.41864 0.0123015L1.57542 0.0444474L1.68923 0.0847203L1.79523 0.135505L1.89143 0.199157L2.00032 0.29555L2.08859 0.40576L2.15848 0.53068L2.19958 0.638464L2.22843 0.756055L2.24593 0.881192L2.2508 1.0118L2.2415 1.14256L2.21801 1.27346L2.17375 1.42912L2.11107 1.58638L2.05793 1.6904L1.99344 1.80196L1.91552 1.92234L1.82418 2.05154L1.71555 2.19536L1.59351 2.34799L1.45695 2.50953L0.726645 3.36073Z"/>
  <path id="path24" transform="matrix(90 0 0 90 4788.55 6250.57)" fill="none" stroke="#000000" stroke-width="0.02000000000" stroke-linecap="butt" stroke-linejoin="miter" stroke-miterlimit="2.00000000000" d="M0.132163 7.38092L0 5.87029L6.00918 0.130456L7.5003 0L8.196 7.95192Z"/>
  <path id="path25" transform="matrix(90 0 0 90 4845.43 5559.24)" fill="none" stroke="#000000" stroke-width="0.02000000000" stroke-linecap="butt" stroke-linejoin="miter" stroke-miterlimit="2.00000000000" d="M1.60608 0.643815L0.273064 1.97683L0 1.70376L1.70376 0L1.9576 0.253834L1.96067 1.62146L1.96298 1.78991L1.96529 1.94298L1.9699 2.0799L1.97452 2.20143L1.98144 2.31296L1.99067 2.4068L1.9999 2.48372L2.02375 2.61064L2.05375 2.72833L2.08144 2.81448L2.11297 2.89524L2.1622 2.99216L2.2222 3.08446L2.27758 3.15369L2.33835 3.21907L2.4168 3.28984L2.49911 3.34445L2.58372 3.38599L2.68602 3.41445L2.79371 3.42214L2.88524 3.41368L2.97447 3.38906L3.06293 3.3483L3.16446 3.28215L3.26446 3.19446L3.34907 3.10216L3.42291 3.00216L3.47368 2.92063L3.51675 2.83601L3.56367 2.71525L3.60213 2.5768L3.62598 2.45449L3.64521 2.31989L4.00134 2.36527L3.9775 2.54295L3.93904 2.71371L3.8875 2.87447L3.82058 3.02601L3.7352 3.17446L3.63444 3.31368L3.51906 3.44291L3.38137 3.56675L3.24215 3.66751L3.10139 3.74366L2.98831 3.78597L2.87447 3.8152L2.75986 3.82827L2.61449 3.82443L2.47603 3.79674L2.34219 3.74597L2.24143 3.68982L2.14374 3.61828L2.0499 3.53367L1.96221 3.43675L1.88529 3.33061L1.81914 3.21523L1.75299 3.06754L1.69992 2.90678L1.67376 2.79294L1.65146 2.66602L1.63377 2.52372L1.62069 2.36604L1.61146 2.18605L1.60684 1.99067L1.60761 1.77914L1.61992 0.65766Z"/>
  <path id="path26" transform="matrix(90 0 0 90 4689.18 5315.83)" fill="none" stroke="#000000" stroke-width="0.02000000000" stroke-linecap="butt" stroke-linejoin="miter" stroke-miterlimit="2.00000000000" d="M6.54429 0L7.61655 1.07226L6.70275 9.33185L5.64434 10.3903L0 4.74592Z"/>
  <path id="path27" transform="matrix(90 0 0 90 4901.04 4587.52)" fill="none" stroke="#000000" stroke-width="0.02000000000" stroke-linecap="butt" stroke-linejoin="miter" stroke-miterlimit="2.00000000000" d="M4.00605 0.367683L4.32349 0.746004L0.367793 4.06523L0 3.62691L2.81907 1.26143L3.01463 1.10018L3.20785 0.947985L3.50306 0.724414L3.3806 0.712155L3.27762 0.697741L3.24027 0.692157L3.18174 0.681631L3.10272 0.666996L3.00321 0.648253L2.88321 0.6254L2.74496 0.599406L2.58622 0.569303L2.40852 0.535226L2.21033 0.497039L2.31868 0Z"/>
  <path id="path28" transform="matrix(90 0 0 90 4693.31 4322.94)" fill="none" stroke="#000000" stroke-width="0.02000000000" stroke-linecap="butt" stroke-linejoin="miter" stroke-miterlimit="2.00000000000" d="M0 5.13092L6.1148 0L7.07693 1.14663L7.50488 9.25516L6.33658 10.2355Z"/>
  <path id="path29" transform="matrix(90 0 0 90 5518.36 4798.28)" fill="none" stroke="#000000" stroke-width="0.02000000000" stroke-linecap="butt" stroke-linejoin="miter" stroke-miterlimit="2.00000000000" d="M0.317449 3.69755L0 3.31923L3.9557 0L4.32349 0.438319L1.50442 2.8038L1.30886 2.96505L1.11564 3.11725L0.820431 3.34082L0.942899 3.35308L1.04588 3.36749L1.08322 3.37307L1.14176 3.3836L1.22078 3.39824L1.32029 3.41698L1.44028 3.43983L1.57854 3.46583L1.73728 3.49593L1.91498 3.53001L2.11316 3.56819L2.00482 4.06523Z"/>
  <path id="path30" transform="matrix(90 0 0 90 5439.77 4507.54)" fill="none" stroke="#000000" stroke-width="0.02000000000" stroke-linecap="butt" stroke-linejoin="miter" stroke-miterlimit="2.00000000000" d="M7.50488 5.10455L1.39008 10.2355L0.427945 9.08884L0 0.980315L1.16829 0Z"/>
  <path id="path31" transform="matrix(90 0 0 90 2448.64 5554.24)" fill="none" stroke="#000000" stroke-width="0.02000000000" stroke-linecap="butt" stroke-linejoin="miter" stroke-miterlimit="2.00000000000" d="M0.194717 0.480809L0.245844 0.412277L0.318726 0.333956L0.398136 0.268687L0.48516 0.214297L0.579799 0.170785L0.658121 0.145766L0.741882 0.128361L0.829994 0.117483L0.922457 0.113132L1.01927 0.117483L1.11065 0.129449L1.19658 0.149029L1.27817 0.176224L1.35867 0.213209L1.43264 0.257809L1.50117 0.3122L1.56209 0.370941L1.61539 0.436209L1.66434 0.508004L1.70676 0.586326L1.74484 0.675526L1.77747 0.771252L1.80249 0.874594L1.82316 0.874594L1.84165 0.754935L1.86667 0.64398L1.8993 0.541726L1.93847 0.448175L1.98742 0.361151L2.04289 0.282829L2.10599 0.215385L2.17234 0.158819L2.24414 0.112044L2.32246 0.0728828L2.40513 0.0413365L2.49868 0.0184927L2.59767 0.00435121L2.7021 0L2.81741 0.00435121L2.92728 0.0184927L3.03062 0.0413365L3.12743 0.0739706L3.21772 0.115307L3.30148 0.164258L3.37872 0.223L3.45051 0.290443L3.51578 0.36659L3.57561 0.452526L3.62891 0.546077L3.6746 0.648331L3.71376 0.757111L3.74531 0.874594L3.76924 0.996428L3.78664 1.12588L3.79752 1.26403L3.80078 1.40871L3.79752 1.56861L3.78664 1.72199L3.77359 1.83621L3.75618 1.94608L3.72573 2.08206L3.68548 2.21477L3.64632 2.31811L3.60063 2.42036L3.2014 2.42036L3.26341 2.2833L3.31671 2.1408L3.35152 2.02549L3.38198 1.90801L3.41135 1.75789L3.43202 1.61212L3.44072 1.50117L3.44398 1.39239L3.43963 1.26294L3.42876 1.14328L3.41026 1.03233L3.38524 0.93116L3.35152 0.839784L3.31127 0.757111L3.26341 0.684228L3.20793 0.620048L3.14266 0.563482L3.06869 0.516707L2.98711 0.480809L2.89682 0.45579L2.79892 0.439472L2.69231 0.435121L2.60203 0.439472L2.51718 0.45579L2.43994 0.480809L2.36815 0.517794L2.30397 0.56457L2.24631 0.621136L2.1941 0.688579L2.1495 0.765813L2.11034 0.858277L2.0777 0.962706L2.0516 1.07801L2.03419 1.2042L2.02331 1.34235L2.01896 1.49138L2.01896 1.85579L1.6589 1.85579L1.6589 1.48703L1.65455 1.36954L1.64367 1.25859L1.62518 1.15525L1.59907 1.05952L1.56317 0.965969L1.51966 0.880033L1.46745 0.801711L1.41088 0.735355L1.34888 0.679877L1.28143 0.634189L1.20746 0.598292L1.1237 0.571097L1.03341 0.55478L0.937686 0.549341L0.863716 0.552604L0.795184 0.563482L0.731004 0.581975L0.671175 0.606994L0.613521 0.641804L0.560219 0.684228L0.512355 0.734267L0.472107 0.788657L0.438385 0.848487L0.410102 0.913755L0.388346 0.984462L0.370941 1.06387L0.361151 1.14872L0.357887 1.23901L0.363326 1.37281L0.378556 1.50226L0.398136 1.60125L0.424243 1.69697L0.452526 1.77965L0.488424 1.86558L0.533024 1.95696L0.595028 2.069L0.666823 2.18757L0.383995 2.39969L0.319814 2.31267L0.261073 2.22021L0.206683 2.12339L0.151205 2.00265L0.102254 1.87537L0.0674438 1.76333L0.0402487 1.64911L0.0195805 1.53271L0.00435121 1.39239L0 1.2488L0.00435121 1.10303L0.0184927 0.965969L0.0435121 0.838696L0.077234 0.721214L0.109868 0.635277L0.149029 0.55478Z"/>
  <path id="path32" transform="matrix(90 0 0 90 2048.81 5508.03)" fill="none" stroke="#000000" stroke-width="0.02000000000" stroke-linecap="butt" stroke-linejoin="miter" stroke-miterlimit="2.00000000000" d="M0.48516 0L8.3924 0L8.3924 4.40669L0 1.31842Z"/>
  <path id="path33" transform="matrix(90 0 0 90 1826.2 5734.4)" fill="none" stroke="#000000" stroke-width="0.02000000000" stroke-linecap="butt" stroke-linejoin="miter" stroke-miterlimit="2.00000000000" d="M3.60607 1.93955L3.55494 2.00808L3.48206 2.08641L3.40265 2.15167L3.31562 2.20606L3.22099 2.24958L3.14266 2.2746L3.0589 2.292L2.97079 2.30288L2.87833 2.30723L2.78151 2.30288L2.69014 2.29091L2.6042 2.27133L2.52262 2.24414L2.44212 2.20715L2.36815 2.16255L2.29962 2.10816L2.2387 2.04942L2.1854 1.98415L2.13645 1.91236L2.09402 1.83404L2.05595 1.74484L2.02331 1.64911L1.99829 1.54577L1.97763 1.54577L1.95913 1.66543L1.93411 1.77638L1.90148 1.87864L1.86232 1.97219L1.81337 2.05921L1.75789 2.13753L1.6948 2.20498L1.62844 2.26154L1.55665 2.30832L1.47832 2.34748L1.39565 2.37903L1.3021 2.40187L1.20311 2.41601L1.09868 2.42036L0.983374 2.41601L0.873506 2.40187L0.770165 2.37903L0.67335 2.34639L0.583063 2.30506L0.499302 2.2561L0.422068 2.19736L0.350273 2.12992L0.285004 2.05377L0.225175 1.96784L0.171873 1.87428L0.126185 1.77203L0.0870243 1.66325L0.055478 1.54577L0.0315463 1.42393L0.0141414 1.29449L0.00326341 1.15633L0 1.01166L0.00326341 0.85175L0.0141414 0.69837L0.0271951 0.58415L0.0445999 0.474282L0.0750584 0.338307L0.115307 0.205595L0.154468 0.102254L0.200156 0L0.59938 0L0.537375 0.137063L0.484072 0.279565L0.449263 0.394873L0.418804 0.512355L0.389434 0.662472L0.368765 0.808238L0.360063 0.919194L0.356799 1.02797L0.361151 1.15742L0.372029 1.27708L0.390521 1.38804L0.415541 1.4892L0.449263 1.58058L0.489511 1.66325L0.537375 1.73613L0.592853 1.80031L0.658121 1.85688L0.732092 1.90366L0.813677 1.93955L0.903964 1.96457L1.00187 1.98089L1.10847 1.98524L1.19876 1.98089L1.28361 1.96457L1.36084 1.93955L1.43264 1.90257L1.49682 1.85579L1.55447 1.79923L1.60669 1.73178L1.65129 1.65455L1.69045 1.56209L1.72308 1.45766L1.74919 1.34235L1.76659 1.21616L1.77747 1.07801L1.78182 0.928984L1.78182 0.56457L2.14188 0.56457L2.14188 0.933335L2.14624 1.05082L2.15711 1.16177L2.17561 1.26512L2.20171 1.36084L2.23761 1.45439L2.28112 1.54033L2.33334 1.61865L2.3899 1.68501L2.45191 1.74049L2.51935 1.78617L2.59332 1.82207L2.67708 1.84927L2.76737 1.86558L2.8631 1.87102L2.93707 1.86776L3.0056 1.85688L3.06978 1.83839L3.12961 1.81337L3.18726 1.77856L3.24057 1.73613L3.28843 1.68609L3.32868 1.6317L3.3624 1.57188L3.39068 1.50661L3.41244 1.4359L3.42984 1.35649L3.43963 1.27164L3.4429 1.18135L3.43746 1.04755L3.42223 0.918106L3.40265 0.819116L3.37654 0.723389L3.34826 0.640716L3.31236 0.55478L3.26776 0.463404L3.20576 0.35136L3.13396 0.23279L3.41679 0.0206683L3.48097 0.107693L3.53971 0.200156L3.5941 0.29697L3.64958 0.417716L3.69853 0.544989L3.73334 0.657033L3.76054 0.771252L3.7812 0.887647L3.79643 1.02797L3.80078 1.17156L3.79643 1.31733L3.78229 1.45439L3.75727 1.58167L3.72355 1.69915L3.69092 1.78509L3.65176 1.86558Z"/>
  <path id="path34" transform="matrix(90 0 0 90 1812.78 5601.84)" fill="none" stroke="#000000" stroke-width="0.02000000000" stroke-linecap="butt" stroke-linejoin="miter" stroke-miterlimit="2.00000000000" d="M7.90724 4.40669L0 4.40669L0 0L8.3924 3.08827Z"/>
  <path id="path35" transform="matrix(90 0 0 90 6147.2 5766.34)" fill="none" stroke="#000000" stroke-width="0.02000000000" stroke-linecap="butt" stroke-linejoin="miter" stroke-miterlimit="2.00000000000" d="M0.198306 0.234262L0.128572 0.254965L0.0577484 0.234262L0.00980633 0.178693L0 0.10678L0.0305086 0.0403149L0.0915258 0L0.164528 0L0.226635 0.0403149L0.257144 0.10678L0.246248 0.178693Z"/>
  <path id="path36" transform="matrix(90 0 0 90 6147.2 6191.35)" fill="none" stroke="#000000" stroke-width="0.02000000000" stroke-linecap="butt" stroke-linejoin="miter" stroke-miterlimit="2.00000000000" d="M0.198306 0.234262L0.128572 0.254965L0.0577484 0.234262L0.00980633 0.178693L0 0.10678L0.0305086 0.0392253L0.0915258 0L0.164528 0L0.226635 0.0392253L0.257144 0.10678L0.246248 0.178693Z"/>
  <path id="path37" transform="matrix(90 0 0 90 6113.76 5742.71)" fill="none" stroke="#000000" stroke-width="0.02000000000" stroke-linecap="butt" stroke-linejoin="miter" stroke-miterlimit="2.00000000000" d="M0.999156 0.39988L0.999156 5.09711L0.979544 5.22133L0.922885 5.33247L0.834628 5.42072L0.723489 5.47738L0.599276 5.49699L0.39988 5.49699L0.276756 5.47738L0.164528 5.42072L0.0762715 5.33247L0.0196127 5.22133L0 5.09711L0 0.39988L0.0196127 0.276756L0.0762715 0.164528L0.164528 0.0762715L0.276756 0.0196127L0.39988 0L0.599276 0L0.723489 0.0196127L0.834628 0.0762715L0.922885 0.164528L0.979544 0.276756Z"/>
  <path id="path38" transform="matrix(90 0 0 90 1624.21 4565.34)" fill="none" stroke="#000000" stroke-width="0.02000000000" stroke-linecap="butt" stroke-linejoin="miter" stroke-miterlimit="2.00000000000" d="M4.74735 8.34519L4.74735 8.66989L5.27363 8.67425L5.81842 8.67533L6.38174 8.67425L6.9625 8.66989L7.5585 8.66444L8.16758 8.6579L9.14822 8.64483L10.1539 8.63066L11.1781 8.61759L12.2884 8.60669L13.4063 8.60015L14.5232 8.60124L15.6335 8.61105L16.7274 8.63175L17.4019 8.65136L18.0644 8.67642L18.7148 8.70802L19.3523 8.74616L19.9733 8.79192L20.577 8.84531L21.1621 8.90633L21.7254 8.97606L22.2113 9.04689L22.6788 9.12534L23.1244 9.21141L23.5483 9.30621L23.9482 9.40972L24.323 9.52304L24.6727 9.64507L24.7621 9.65815L24.8471 9.62982L24.9114 9.56662L24.9419 9.48272L24.9321 9.39338L24.8852 9.3171L20.2904 4.72229L20.2283 4.68089L20.1553 4.66455L20.0812 4.67544L19.9799 4.69179L19.8796 4.6689L19.7957 4.60898L19.7391 4.5229L19.7194 4.42157L19.7391 4.32132L19.7957 4.23525L19.8796 4.17532L19.9799 4.15244L20.0812 4.16769L20.1553 4.17968L20.2283 4.16333L20.2904 4.12193L24.0724 0.339953L24.117 0.271309L24.1301 0.190679L24.1105 0.112228L24.0615 0.0468525L23.9896 0.00762715L23.9089 0L23.8316 0.0250606L23.3195 0.306175L22.7812 0.576394L22.219 0.835717L21.6349 1.08523L21.028 1.32385L20.4015 1.55267L19.6966 1.7902L18.9709 2.01575L18.2256 2.2304L17.464 2.43306L16.686 2.62592L15.895 2.80679L15.0919 2.97677L13.9522 3.19686L12.7962 3.39735L11.6303 3.57822L10.459 3.73948L9.28769 3.88222L8.35826 3.98246L7.43429 4.0729L6.51685 4.15135L5.61031 4.2189L4.71685 4.27665L3.83754 4.32459L2.97568 4.36273L2.13342 4.39106L1.82725 4.42157L1.5287 4.49348L1.24214 4.60789L0.975185 4.76043L0.732206 4.94893L0.517556 5.16903L0.336684 5.41745L0.191768 5.68876L0.0860778 5.97859L0.0217918 6.27932L0 6.5855L0 7.92025L4.32241 7.92025L4.39651 7.90608L4.4597 7.86577L4.50329 7.80584L4.5643 7.72194L4.65147 7.66855L4.7528 7.65003L4.85304 7.67182L4.93803 7.72957L4.99578 7.81456L5.01757 7.9148L5.00014 8.01613L4.94566 8.1033L4.86285 8.16432L4.80183 8.20899L4.76152 8.27219Z"/>
  <path id="path39" transform="matrix(90 0 0 90 445.587 5371.1)" fill="none" stroke="#000000" stroke-width="0.02000000000" stroke-linecap="butt" stroke-linejoin="miter" stroke-miterlimit="2.00000000000" d="M0 0.425C2.42322e-08 0.659721 0.190279 0.85 0.425 0.85C0.659721 0.85 0.85 0.659721 0.85 0.425C0.85 0.190279 0.659721 0 0.425 0C0.190279 0 2.42322e-08 0.190279 0 0.425Z"/>
  <path id="path40" transform="matrix(90 0 0 90 119.315 5044.83)" fill="none" stroke="#000000" stroke-width="0.02000000000" stroke-linecap="butt" stroke-linejoin="miter" stroke-miterlimit="2.00000000000" d="M0 9C-6.66134e-16 13.9706 4.02944 18 9 18C13.9706 18 18 13.9706 18 9C18 4.02944 13.9706 0 9 0C4.02944 0 -6.66134e-16 4.02944 0 9Z"/>
  <path id="path41" transform="matrix(90 0 0 90 794.315 5719.83)" fill="none" stroke="#000000" stroke-width="0.02000000000" stroke-linecap="butt" stroke-linejoin="miter" stroke-miterlimit="2.00000000000" d="M0 1.5C2.46891e-08 2.32843 0.671573 3 1.5 3C2.32843 3 3 2.32843 3 1.5C3 0.671573 2.32843 0 1.5 0C0.671573 0 2.46891e-08 0.671573 0 1.5Z"/>
  <path id="path42" transform="matrix(90 0 0 90 1272.9 5434.74)" fill="none" stroke="#000000" stroke-width="0.02000000000" stroke-linecap="butt" stroke-linejoin="miter" stroke-miterlimit="2.00000000000" d="M0 0.425C2.79809e-08 0.659721 0.190279 0.85 0.425 0.85C0.659721 0.85 0.85 0.659721 0.85 0.425C0.85 0.190279 0.659721 0 0.425 0C0.190279 0 2.79809e-08 0.190279 0 0.425Z"/>
  <path id="path43" transform="matrix(90 0 0 90 1548.65 6173.5)" fill="none" stroke="#000000" stroke-width="0.02000000000" stroke-linecap="butt" stroke-linejoin="miter" stroke-miterlimit="2.00000000000" d="M0 0.375C0 0.582107 0.167893 0.75 0.375 0.75C0.582107 0.75 0.75 0.582107 0.75 0.375C0.75 0.167893 0.582107 0 0.375 0C0.167893 0 0 0.167893 0 0.375Z"/>
  <path id="path44" transform="matrix(90 0 0 90 1247.99 6474.16)" fill="none" stroke="#000000" stroke-width="0.02000000000" stroke-linecap="butt" stroke-linejoin="miter" stroke-miterlimit="2.00000000000" d="M5.32907e-15 0.375C3.55271e-15 0.582107 0.167893 0.75 0.375 0.75C0.582107 0.75 0.75 0.582107 0.75 0.375C0.75 0.167893 0.582107 0 0.375 0C0.167893 0 3.55271e-15 0.167893 5.32907e-15 0.375Z"/>
  <path id="path45" transform="matrix(90 0 0 90 242.482 6173.5)" fill="none" stroke="#000000" stroke-width="0.02000000000" stroke-linecap="butt" stroke-linejoin="miter" stroke-miterlimit="2.00000000000" d="M0 0.375C6.17226e-09 0.582107 0.167893 0.75 0.375 0.75C0.582107 0.75 0.75 0.582107 0.75 0.375C0.75 0.167893 0.582107 0 0.375 0C0.167893 0 6.17226e-09 0.167893 0 0.375Z"/>
  <path id="path46" transform="matrix(90 0 0 90 1336.54 5371.1)" fill="none" stroke="#000000" stroke-width="0.02000000000" stroke-linecap="butt" stroke-linejoin="miter" stroke-miterlimit="2.00000000000" d="M0 0.425C0 0.659721 0.190279 0.85 0.425 0.85C0.659721 0.85 0.85 0.659721 0.85 0.425C0.85 0.190279 0.659721 0 0.425 0C0.190279 0 0 0.190279 0 0.425Z"/>
  <path id="path47" transform="matrix(90 0 0 90 509.227 5434.74)" fill="none" stroke="#000000" stroke-width="0.02000000000" stroke-linecap="butt" stroke-linejoin="miter" stroke-miterlimit="2.00000000000" d="M0 0.425C9.89275e-09 0.659721 0.190279 0.85 0.425 0.85C0.659721 0.85 0.85 0.659721 0.85 0.425C0.85 0.190279 0.659721 0 0.425 0C0.190279 0 9.89275e-09 0.190279 0 0.425Z"/>
  <path id="path48" transform="matrix(90 0 0 90 543.141 6474.16)" fill="none" stroke="#000000" stroke-width="0.02000000000" stroke-linecap="butt" stroke-linejoin="miter" stroke-miterlimit="2.00000000000" d="M0 0.375C0 0.582107 0.167893 0.75 0.375 0.75C0.582107 0.75 0.75 0.582107 0.75 0.375C0.75 0.167893 0.582107 0 0.375 0C0.167893 0 0 0.167893 0 0.375Z"/>
  <path id="path49" transform="matrix(90 0 0 90 466.962 5392.48)" fill="none" stroke="#000000" stroke-width="0.02000000000" stroke-linecap="butt" stroke-linejoin="miter" stroke-miterlimit="2.00000000000" d="M0 0.1875C1.63303e-08 0.291053 0.0839466 0.375 0.1875 0.375C0.291053 0.375 0.375 0.291053 0.375 0.1875C0.375 0.0839466 0.291053 0 0.1875 0C0.0839466 0 1.63303e-08 0.0839466 0 0.1875Z"/>
  <path id="path50" transform="matrix(90 0 0 90 1357.92 5392.48)" fill="none" stroke="#000000" stroke-width="0.02000000000" stroke-linecap="butt" stroke-linejoin="miter" stroke-miterlimit="2.00000000000" d="M0 0.1875C0 0.291053 0.0839466 0.375 0.1875 0.375C0.291053 0.375 0.375 0.291053 0.375 0.1875C0.375 0.0839466 0.291053 0 0.1875 0C0.0839466 0 0 0.0839466 0 0.1875Z"/>
  <path id="path51" transform="matrix(90 0 0 90 1294.28 5456.12)" fill="none" stroke="#000000" stroke-width="0.02000000000" stroke-linecap="butt" stroke-linejoin="miter" stroke-miterlimit="2.00000000000" d="M0 0.1875C0 0.291053 0.0839466 0.375 0.1875 0.375C0.291053 0.375 0.375 0.291053 0.375 0.1875C0.375 0.0839466 0.291053 0 0.1875 0C0.0839466 0 0 0.0839466 0 0.1875Z"/>
  <path id="path52" transform="matrix(90 0 0 90 530.602 5456.12)" fill="none" stroke="#000000" stroke-width="0.02000000000" stroke-linecap="butt" stroke-linejoin="miter" stroke-miterlimit="2.00000000000" d="M0 0.1875C6.17226e-09 0.291053 0.0839466 0.375 0.1875 0.375C0.291053 0.375 0.375 0.291053 0.375 0.1875C0.375 0.0839466 0.291053 0 0.1875 0C0.0839466 0 6.17226e-09 0.0839466 0 0.1875Z"/>
  <path id="path53" transform="matrix(90 0 0 90 1570.7 6195.55)" fill="none" stroke="#000000" stroke-width="0.02000000000" stroke-linecap="butt" stroke-linejoin="miter" stroke-miterlimit="2.00000000000" d="M0 0.13C0 0.201797 0.058203 0.26 0.13 0.26C0.201797 0.26 0.26 0.201797 0.26 0.13C0.26 0.058203 0.201797 0 0.13 0C0.058203 0 0 0.058203 0 0.13Z"/>
  <path id="path54" transform="matrix(90 0 0 90 264.532 6195.55)" fill="none" stroke="#000000" stroke-width="0.02000000000" stroke-linecap="butt" stroke-linejoin="miter" stroke-miterlimit="2.00000000000" d="M0 0.13C0 0.201797 0.058203 0.26 0.13 0.26C0.201797 0.26 0.26 0.201797 0.26 0.13C0.26 0.058203 0.201797 0 0.13 0C0.058203 0 0 0.058203 0 0.13Z"/>
  <path id="path55" transform="matrix(90 0 0 90 1270.04 6496.21)" fill="none" stroke="#000000" stroke-width="0.02000000000" stroke-linecap="butt" stroke-linejoin="miter" stroke-miterlimit="2.00000000000" d="M0 0.13C0 0.201797 0.058203 0.26 0.13 0.26C0.201797 0.26 0.26 0.201797 0.26 0.13C0.26 0.058203 0.201797 0 0.13 0C0.058203 0 0 0.058203 0 0.13Z"/>
  <path id="path56" transform="matrix(90 0 0 90 565.191 6496.21)" fill="none" stroke="#000000" stroke-width="0.02000000000" stroke-linecap="butt" stroke-linejoin="miter" stroke-miterlimit="2.00000000000" d="M0 0.13C0 0.201797 0.058203 0.26 0.13 0.26C0.201797 0.26 0.26 0.201797 0.26 0.13C0.26 0.058203 0.201797 0 0.13 0C0.058203 0 0 0.058203 0 0.13Z"/>
 </g>
</svg>
