<?xml version="1.0" standalone="no"?>
<!DOCTYPE svg PUBLIC "-//W3C//DTD SVG 20010904//EN" "http://www.w3.org/TR/2001/REC-SVG-20010904/DTD/svg10.dtd">
<!-- Created using Karbon, part of Calligra: http://www.calligra.org/karbon -->
<svg xmlns="http://www.w3.org/2000/svg" xmlns:xlink="http://www.w3.org/1999/xlink" width="1878.94pt" height="1498.04pt">
<defs/>
<g id="layer0">
  <path id="path0" transform="matrix(90 0 0 90 30.888 957.322)" fill="none" stroke="#000000" stroke-width="0.02000000000" stroke-linecap="butt" stroke-linejoin="miter" stroke-miterlimit="2.00000000000" d="M20.2062 8.35115L20.2062 8.67582L19.6804 8.68025L19.1348 8.6815L18.5709 8.68001L17.9902 8.67621L17.3944 8.67054L16.7848 8.66341L15.8028 8.65034L14.7967 8.63643L13.7723 8.62337L12.6612 8.61222L11.5431 8.60603L10.4253 8.60685L9.31514 8.61674L8.21981 8.63778L7.54599 8.65749L6.88259 8.68287L6.23137 8.7144L5.59411 8.7526L4.97258 8.79797L4.36855 8.851L3.7838 8.91221L3.2201 8.9821L2.73332 9.05267L2.26623 9.13099L1.8201 9.21745L1.39623 9.31241L0.995902 9.41622L0.620394 9.52926L0.270993 9.65188C0.182839 9.68535 0.0832819 9.6527 0.0320704 9.57352C-0.0191411 9.49435 -0.0080938 9.39016 0.0585823 9.32348L4.65549 4.72657C4.71029 4.67178 4.79181 4.65357 4.86471 4.67984C4.97674 4.7202 5.10198 4.68242 5.17299 4.58682C5.24399 4.49123 5.24399 4.36041 5.17299 4.26482C5.10198 4.16923 4.97674 4.13144 4.86471 4.17181C4.79181 4.19808 4.71029 4.17987 4.65549 4.12508L0.871852 0.341436C0.800942 0.270526 0.793509 0.158065 0.854468 0.0784387C0.915427 -0.00118784 1.02593 -0.0233601 1.11289 0.0265875L1.62519 0.30776L2.16315 0.578116L2.72541 0.837806L3.31061 1.08698L3.9174 1.3258L4.54443 1.5544L5.24993 1.79232L5.97614 2.01846L6.72129 2.23303L7.48362 2.43622L8.26136 2.62822L9.05277 2.80924L9.85607 2.97947L10.9973 3.20004L12.1536 3.40039L13.3201 3.58106L14.492 3.74259L15.6643 3.88551L16.5941 3.98629L17.5187 4.0759L18.4357 4.15464L19.3427 4.22276L20.2373 4.28054L21.117 4.32826L21.9793 4.36618L22.8219 4.39458C24.0104 4.42848 24.9562 5.40168 24.9562 6.59062L24.9562 7.92582L20.6316 7.92582C20.5541 7.92582 20.4836 7.88106 20.4506 7.81093C20.3999 7.70317 20.2846 7.64133 20.1668 7.65872C20.049 7.6761 19.9565 7.76861 19.9391 7.88641C19.9217 8.00421 19.9836 8.11949 20.0913 8.17016C20.1615 8.20313 20.2062 8.27365 20.2062 8.35115Z"/>
  <path id="path1" transform="matrix(90 0 0 90 102.614 -0.0013068)" fill="none" stroke="#000000" stroke-width="0.02000000000" stroke-linecap="butt" stroke-linejoin="miter" stroke-miterlimit="2.00000000000" d="M20.2062 8.35115L20.2062 8.67582L19.6804 8.68025L19.1348 8.6815L18.5709 8.68001L17.9902 8.67621L17.3944 8.67054L16.7848 8.66341L15.8028 8.65034L14.7967 8.63643L13.7723 8.62337L12.6612 8.61222L11.5431 8.60603L10.4253 8.60685L9.31514 8.61674L8.21981 8.63778L7.54599 8.65749L6.88259 8.68287L6.23137 8.7144L5.59411 8.7526L4.97258 8.79797L4.36855 8.851L3.7838 8.91221L3.2201 8.9821L2.73332 9.05267L2.26623 9.13099L1.8201 9.21745L1.39623 9.31241L0.995902 9.41622L0.620394 9.52926L0.270993 9.65188C0.182839 9.68535 0.0832819 9.6527 0.0320704 9.57352C-0.0191411 9.49435 -0.0080938 9.39016 0.0585823 9.32348L4.65549 4.72657C4.71029 4.67178 4.79181 4.65357 4.86471 4.67984C4.97674 4.7202 5.10198 4.68242 5.17299 4.58682C5.24399 4.49123 5.24399 4.36041 5.17299 4.26482C5.10198 4.16923 4.97674 4.13144 4.86471 4.17181C4.79181 4.19808 4.71029 4.17987 4.65549 4.12508L0.871852 0.341436C0.800942 0.270526 0.793509 0.158065 0.854468 0.0784387C0.915427 -0.00118784 1.02593 -0.0233601 1.11289 0.0265875L1.62519 0.30776L2.16315 0.578116L2.72541 0.837806L3.31061 1.08698L3.9174 1.3258L4.54443 1.5544L5.24993 1.79232L5.97614 2.01846L6.72129 2.23303L7.48362 2.43622L8.26136 2.62822L9.05277 2.80924L9.85607 2.97947L10.9973 3.20004L12.1536 3.40039L13.3201 3.58106L14.492 3.74259L15.6643 3.88551L16.5941 3.98629L17.5187 4.0759L18.4357 4.15464L19.3427 4.22276L20.2373 4.28054L21.117 4.32826L21.9793 4.36618L22.8219 4.39458C24.0104 4.42848 24.9562 5.40168 24.9562 6.59062L24.9562 7.92582L20.6316 7.92582C20.5541 7.92582 20.4836 7.88106 20.4506 7.81093C20.3999 7.70317 20.2846 7.64133 20.1668 7.65872C20.049 7.6761 19.9565 7.76861 19.9391 7.88641C19.9217 8.00421 19.9836 8.11949 20.0913 8.17016C20.1615 8.20313 20.2062 8.27365 20.2062 8.35115Z"/>
 </g>
</svg>
