<?xml version="1.0" standalone="no"?>
<!DOCTYPE svg PUBLIC "-//W3C//DTD SVG 20010904//EN" "http://www.w3.org/TR/2001/REC-SVG-20010904/DTD/svg10.dtd">
<!-- Created using Karbon, part of Calligra: http://www.calligra.org/karbon -->
<svg xmlns="http://www.w3.org/2000/svg" xmlns:xlink="http://www.w3.org/1999/xlink" width="4804.39pt" height="5653.33pt">
<defs/>
<g id="layer0">
  <path id="path0" transform="matrix(90 0 0 90 870.875 6816.16)" fill="none" stroke="#000000" stroke-width="0.02000000000" stroke-linecap="butt" stroke-linejoin="miter" stroke-miterlimit="2.00000000000" d="M0.000694444 0L0 0.000694444L0.000694444 0.00138889L0.00138889 0.000694444Z"/>
  <path id="path1" transform="matrix(90 0 0 90 904.425 6816.16)" fill="none" stroke="#000000" stroke-width="0.02000000000" stroke-linecap="butt" stroke-linejoin="miter" stroke-miterlimit="2.00000000000" d="M0.000694444 0L0 0.000694444L0.000694444 0.00138889L0.00138889 0.000694444Z"/>
  <path id="path2" transform="matrix(90 0 0 90 896.937 6818.48)" fill="none" stroke="#000000" stroke-width="0.02000000000" stroke-linecap="butt" stroke-linejoin="miter" stroke-miterlimit="2.00000000000" d="M0 0.00111111L0 0.00125L0 0.00138889L0.000138889 0.00152778L0.000138889 0.00166667L0.000138889 0.00180556L0.000277778 0.00194444L0.000277778 0.00208333L0.000416667 0.00208333L0.000416667 0.00222222L0.000555556 0.00222222L0.000694444 0.00236111L0.000833333 0.00236111L0.000972222 0.00236111L0.00111111 0.00236111L0.00125 0.00236111L0.00138889 0.00236111L0.00152778 0.00236111L0.00166667 0.00236111L0.00180556 0.00222222L0.00194444 0.00208333L0.00208333 0.00194444L0.00208333 0.00180556L0.00222222 0.00180556L0.00222222 0.00166667L0.00222222 0.00152778L0.00222222 0.00138889L0.00222222 0.00125L0.00222222 0.00111111L0.00222222 0.000972222L0.00222222 0.000833333L0.00222222 0.000694444L0.00208333 0.000555556L0.00208333 0.000416667L0.00194444 0.000416667L0.00194444 0.000277778L0.00180556 0.000277778L0.00180556 0.000138889L0.00166667 0.000138889L0.00152778 0.000138889L0.00138889 0L0.00125 0L0.00111111 0L0.000972222 0L0.000833333 0.000138889L0.000694444 0.000138889L0.000555556 0.000138889L0.000416667 0.000277778L0.000277778 0.000416667L0.000138889 0.000555556L0.000138889 0.000694444L0.000138889 0.000833333L0.000138889 0.000972222Z"/>
  <path id="path3" transform="matrix(90 0 0 90 870.875 6816.16)" fill="none" stroke="#000000" stroke-width="0.02000000000" stroke-linecap="butt" stroke-linejoin="miter" stroke-miterlimit="2.00000000000" d="M0.000694444 0L0 0.000694444L0.000694444 0.00138889L0.00138889 0.000694444Z"/>
  <path id="path4" transform="matrix(90 0 0 90 904.425 6816.16)" fill="none" stroke="#000000" stroke-width="0.02000000000" stroke-linecap="butt" stroke-linejoin="miter" stroke-miterlimit="2.00000000000" d="M0.000694444 0L0 0.000694444L0.000694444 0.00138889L0.00138889 0.000694444Z"/>
  <path id="path5" transform="matrix(90 0 0 90 896.937 6818.48)" fill="none" stroke="#000000" stroke-width="0.02000000000" stroke-linecap="butt" stroke-linejoin="miter" stroke-miterlimit="2.00000000000" d="M0 0.00111111L0 0.00125L0 0.00138889L0.000138889 0.00152778L0.000138889 0.00166667L0.000138889 0.00180556L0.000277778 0.00194444L0.000277778 0.00208333L0.000416667 0.00208333L0.000416667 0.00222222L0.000555556 0.00222222L0.000694444 0.00236111L0.000833333 0.00236111L0.000972222 0.00236111L0.00111111 0.00236111L0.00125 0.00236111L0.00138889 0.00236111L0.00152778 0.00236111L0.00166667 0.00236111L0.00180556 0.00222222L0.00194444 0.00208333L0.00208333 0.00194444L0.00208333 0.00180556L0.00222222 0.00180556L0.00222222 0.00166667L0.00222222 0.00152778L0.00222222 0.00138889L0.00222222 0.00125L0.00222222 0.00111111L0.00222222 0.000972222L0.00222222 0.000833333L0.00222222 0.000694444L0.00208333 0.000555556L0.00208333 0.000416667L0.00194444 0.000416667L0.00194444 0.000277778L0.00180556 0.000277778L0.00180556 0.000138889L0.00166667 0.000138889L0.00152778 0.000138889L0.00138889 0L0.00125 0L0.00111111 0L0.000972222 0L0.000833333 0.000138889L0.000694444 0.000138889L0.000555556 0.000138889L0.000416667 0.000277778L0.000277778 0.000416667L0.000138889 0.000555556L0.000138889 0.000694444L0.000138889 0.000833333L0.000138889 0.000972222Z"/>
  <path id="path6" transform="matrix(90 0 0 90 870.875 6816.16)" fill="none" stroke="#000000" stroke-width="0.02000000000" stroke-linecap="butt" stroke-linejoin="miter" stroke-miterlimit="2.00000000000" d="M0.000694444 0L0 0.000694444L0.000694444 0.00138889L0.00138889 0.000694444Z"/>
  <path id="path7" transform="matrix(90 0 0 90 904.425 6816.16)" fill="none" stroke="#000000" stroke-width="0.02000000000" stroke-linecap="butt" stroke-linejoin="miter" stroke-miterlimit="2.00000000000" d="M0.000694444 0L0 0.000694444L0.000694444 0.00138889L0.00138889 0.000694444Z"/>
  <path id="path8" transform="matrix(90 0 0 90 896.937 6818.48)" fill="none" stroke="#000000" stroke-width="0.02000000000" stroke-linecap="butt" stroke-linejoin="miter" stroke-miterlimit="2.00000000000" d="M0 0.00111111L0 0.00125L0 0.00138889L0.000138889 0.00152778L0.000138889 0.00166667L0.000138889 0.00180556L0.000277778 0.00194444L0.000277778 0.00208333L0.000416667 0.00208333L0.000416667 0.00222222L0.000555556 0.00222222L0.000694444 0.00236111L0.000833333 0.00236111L0.000972222 0.00236111L0.00111111 0.00236111L0.00125 0.00236111L0.00138889 0.00236111L0.00152778 0.00236111L0.00166667 0.00236111L0.00180556 0.00222222L0.00194444 0.00208333L0.00208333 0.00194444L0.00208333 0.00180556L0.00222222 0.00180556L0.00222222 0.00166667L0.00222222 0.00152778L0.00222222 0.00138889L0.00222222 0.00125L0.00222222 0.00111111L0.00222222 0.000972222L0.00222222 0.000833333L0.00222222 0.000694444L0.00208333 0.000555556L0.00208333 0.000416667L0.00194444 0.000416667L0.00194444 0.000277778L0.00180556 0.000277778L0.00180556 0.000138889L0.00166667 0.000138889L0.00152778 0.000138889L0.00138889 0L0.00125 0L0.00111111 0L0.000972222 0L0.000833333 0.000138889L0.000694444 0.000138889L0.000555556 0.000138889L0.000416667 0.000277778L0.000277778 0.000416667L0.000138889 0.000555556L0.000138889 0.000694444L0.000138889 0.000833333L0.000138889 0.000972222Z"/>
  <path id="path9" transform="matrix(90 0 0 90 189.235 6672.91)" fill="none" stroke="#000000" stroke-width="0.02000000000" stroke-linecap="butt" stroke-linejoin="miter" stroke-miterlimit="2.00000000000" d="M1.93955 0.194717L2.00808 0.245844L2.08641 0.318726L2.15167 0.398136L2.20606 0.48516L2.24958 0.579799L2.2746 0.658121L2.292 0.741882L2.30288 0.829994L2.30723 0.922457L2.30288 1.01927L2.29091 1.11065L2.27133 1.19658L2.24414 1.27817L2.20715 1.35867L2.16255 1.43264L2.10816 1.50117L2.04942 1.56209L1.98415 1.61539L1.91236 1.66434L1.83404 1.70676L1.74484 1.74484L1.64911 1.77747L1.54577 1.80249L1.54577 1.82316L1.66543 1.84165L1.77638 1.86667L1.87864 1.8993L1.97219 1.93847L2.05921 1.98742L2.13753 2.04289L2.20498 2.10599L2.26154 2.17234L2.30832 2.24414L2.34748 2.32246L2.37903 2.40513L2.40187 2.49868L2.41601 2.59767L2.42036 2.7021L2.41601 2.81741L2.40187 2.92728L2.37903 3.03062L2.34639 3.12743L2.30506 3.21772L2.2561 3.30148L2.19736 3.37872L2.12992 3.45051L2.05377 3.51578L1.96784 3.57561L1.87428 3.62891L1.77203 3.6746L1.66325 3.71376L1.54577 3.74531L1.42393 3.76924L1.29449 3.78664L1.15633 3.79752L1.01166 3.80078L0.85175 3.79752L0.69837 3.78664L0.58415 3.77359L0.474282 3.75618L0.338307 3.72573L0.205595 3.68548L0.102254 3.64632L0 3.60063L0 3.2014L0.137063 3.26341L0.279565 3.31671L0.394873 3.35152L0.512355 3.38198L0.662472 3.41135L0.808238 3.43202L0.919194 3.44072L1.02797 3.44398L1.15742 3.43963L1.27708 3.42876L1.38804 3.41026L1.4892 3.38524L1.58058 3.35152L1.66325 3.31127L1.73613 3.26341L1.80031 3.20793L1.85688 3.14266L1.90366 3.06869L1.93955 2.98711L1.96457 2.89682L1.98089 2.79892L1.98524 2.69231L1.98089 2.60203L1.96457 2.51718L1.93955 2.43994L1.90257 2.36815L1.85579 2.30397L1.79923 2.24631L1.73178 2.1941L1.65455 2.1495L1.56209 2.11034L1.45766 2.0777L1.34235 2.0516L1.21616 2.03419L1.07801 2.02331L0.928984 2.01896L0.56457 2.01896L0.56457 1.6589L0.933335 1.6589L1.05082 1.65455L1.16177 1.64367L1.26512 1.62518L1.36084 1.59907L1.45439 1.56317L1.54033 1.51966L1.61865 1.46745L1.68501 1.41088L1.74049 1.34888L1.78617 1.28143L1.82207 1.20746L1.84927 1.1237L1.86558 1.03341L1.87102 0.937686L1.86776 0.863716L1.85688 0.795184L1.83839 0.731004L1.81337 0.671175L1.77856 0.613521L1.73613 0.560219L1.68609 0.512355L1.6317 0.472107L1.57188 0.438385L1.50661 0.410102L1.4359 0.388346L1.35649 0.370941L1.27164 0.361151L1.18135 0.357887L1.04755 0.363326L0.918106 0.378556L0.819116 0.398136L0.723389 0.424243L0.640716 0.452526L0.55478 0.488424L0.463404 0.533024L0.35136 0.595028L0.23279 0.666823L0.0206683 0.383995L0.107693 0.319814L0.200156 0.261073L0.29697 0.206683L0.417716 0.151205L0.544989 0.102254L0.657033 0.0674438L0.771252 0.0402487L0.887647 0.0195805L1.02797 0.00435121L1.17156 0L1.31733 0.00435121L1.45439 0.0184927L1.58167 0.0435121L1.69915 0.077234L1.78509 0.109868L1.86558 0.149029Z"/>
  <path id="path10" transform="matrix(90 0 0 90 56.6753 6273.08)" fill="none" stroke="#000000" stroke-width="0.02000000000" stroke-linecap="butt" stroke-linejoin="miter" stroke-miterlimit="2.00000000000" d="M4.40669 0.48516L4.40669 8.3924L0 8.3924L3.08827 0Z"/>
 </g>
</svg>
