<?xml version="1.0" standalone="no"?>
<!DOCTYPE svg PUBLIC "-//W3C//DTD SVG 20010904//EN" "http://www.w3.org/TR/2001/REC-SVG-20010904/DTD/svg10.dtd">
<!-- Created using Karbon, part of Calligra: http://www.calligra.org/karbon -->
<svg xmlns="http://www.w3.org/2000/svg" xmlns:xlink="http://www.w3.org/1999/xlink" width="6236.79pt" height="5653.33pt">
<defs/>
<g id="layer0">
  <path id="path0" transform="matrix(90 0 0 90 870.875 6816.16)" fill="none" stroke="#000000" stroke-width="0.02000000000" stroke-linecap="butt" stroke-linejoin="miter" stroke-miterlimit="2.00000000000" d="M0.000694444 0L0 0.000694444L0.000694444 0.00138889L0.00138889 0.000694444Z"/>
  <path id="path1" transform="matrix(90 0 0 90 904.425 6816.16)" fill="none" stroke="#000000" stroke-width="0.02000000000" stroke-linecap="butt" stroke-linejoin="miter" stroke-miterlimit="2.00000000000" d="M0.000694444 0L0 0.000694444L0.000694444 0.00138889L0.00138889 0.000694444Z"/>
  <path id="path2" transform="matrix(90 0 0 90 896.937 6818.48)" fill="none" stroke="#000000" stroke-width="0.02000000000" stroke-linecap="butt" stroke-linejoin="miter" stroke-miterlimit="2.00000000000" d="M0 0.00111111L0 0.00125L0 0.00138889L0.000138889 0.00152778L0.000138889 0.00166667L0.000138889 0.00180556L0.000277778 0.00194444L0.000277778 0.00208333L0.000416667 0.00208333L0.000416667 0.00222222L0.000555556 0.00222222L0.000694444 0.00236111L0.000833333 0.00236111L0.000972222 0.00236111L0.00111111 0.00236111L0.00125 0.00236111L0.00138889 0.00236111L0.00152778 0.00236111L0.00166667 0.00236111L0.00180556 0.00222222L0.00194444 0.00208333L0.00208333 0.00194444L0.00208333 0.00180556L0.00222222 0.00180556L0.00222222 0.00166667L0.00222222 0.00152778L0.00222222 0.00138889L0.00222222 0.00125L0.00222222 0.00111111L0.00222222 0.000972222L0.00222222 0.000833333L0.00222222 0.000694444L0.00208333 0.000555556L0.00208333 0.000416667L0.00194444 0.000416667L0.00194444 0.000277778L0.00180556 0.000277778L0.00180556 0.000138889L0.00166667 0.000138889L0.00152778 0.000138889L0.00138889 0L0.00125 0L0.00111111 0L0.000972222 0L0.000833333 0.000138889L0.000694444 0.000138889L0.000555556 0.000138889L0.000416667 0.000277778L0.000277778 0.000416667L0.000138889 0.000555556L0.000138889 0.000694444L0.000138889 0.000833333L0.000138889 0.000972222Z"/>
  <path id="path3" transform="matrix(90 0 0 90 870.875 6816.16)" fill="none" stroke="#000000" stroke-width="0.02000000000" stroke-linecap="butt" stroke-linejoin="miter" stroke-miterlimit="2.00000000000" d="M0.000694444 0L0 0.000694444L0.000694444 0.00138889L0.00138889 0.000694444Z"/>
  <path id="path4" transform="matrix(90 0 0 90 904.425 6816.16)" fill="none" stroke="#000000" stroke-width="0.02000000000" stroke-linecap="butt" stroke-linejoin="miter" stroke-miterlimit="2.00000000000" d="M0.000694444 0L0 0.000694444L0.000694444 0.00138889L0.00138889 0.000694444Z"/>
  <path id="path5" transform="matrix(90 0 0 90 896.937 6818.48)" fill="none" stroke="#000000" stroke-width="0.02000000000" stroke-linecap="butt" stroke-linejoin="miter" stroke-miterlimit="2.00000000000" d="M0 0.00111111L0 0.00125L0 0.00138889L0.000138889 0.00152778L0.000138889 0.00166667L0.000138889 0.00180556L0.000277778 0.00194444L0.000277778 0.00208333L0.000416667 0.00208333L0.000416667 0.00222222L0.000555556 0.00222222L0.000694444 0.00236111L0.000833333 0.00236111L0.000972222 0.00236111L0.00111111 0.00236111L0.00125 0.00236111L0.00138889 0.00236111L0.00152778 0.00236111L0.00166667 0.00236111L0.00180556 0.00222222L0.00194444 0.00208333L0.00208333 0.00194444L0.00208333 0.00180556L0.00222222 0.00180556L0.00222222 0.00166667L0.00222222 0.00152778L0.00222222 0.00138889L0.00222222 0.00125L0.00222222 0.00111111L0.00222222 0.000972222L0.00222222 0.000833333L0.00222222 0.000694444L0.00208333 0.000555556L0.00208333 0.000416667L0.00194444 0.000416667L0.00194444 0.000277778L0.00180556 0.000277778L0.00180556 0.000138889L0.00166667 0.000138889L0.00152778 0.000138889L0.00138889 0L0.00125 0L0.00111111 0L0.000972222 0L0.000833333 0.000138889L0.000694444 0.000138889L0.000555556 0.000138889L0.000416667 0.000277778L0.000277778 0.000416667L0.000138889 0.000555556L0.000138889 0.000694444L0.000138889 0.000833333L0.000138889 0.000972222Z"/>
  <path id="path6" transform="matrix(90 0 0 90 870.875 6816.16)" fill="none" stroke="#000000" stroke-width="0.02000000000" stroke-linecap="butt" stroke-linejoin="miter" stroke-miterlimit="2.00000000000" d="M0.000694444 0L0 0.000694444L0.000694444 0.00138889L0.00138889 0.000694444Z"/>
  <path id="path7" transform="matrix(90 0 0 90 904.425 6816.16)" fill="none" stroke="#000000" stroke-width="0.02000000000" stroke-linecap="butt" stroke-linejoin="miter" stroke-miterlimit="2.00000000000" d="M0.000694444 0L0 0.000694444L0.000694444 0.00138889L0.00138889 0.000694444Z"/>
  <path id="path8" transform="matrix(90 0 0 90 896.937 6818.48)" fill="none" stroke="#000000" stroke-width="0.02000000000" stroke-linecap="butt" stroke-linejoin="miter" stroke-miterlimit="2.00000000000" d="M0 0.00111111L0 0.00125L0 0.00138889L0.000138889 0.00152778L0.000138889 0.00166667L0.000138889 0.00180556L0.000277778 0.00194444L0.000277778 0.00208333L0.000416667 0.00208333L0.000416667 0.00222222L0.000555556 0.00222222L0.000694444 0.00236111L0.000833333 0.00236111L0.000972222 0.00236111L0.00111111 0.00236111L0.00125 0.00236111L0.00138889 0.00236111L0.00152778 0.00236111L0.00166667 0.00236111L0.00180556 0.00222222L0.00194444 0.00208333L0.00208333 0.00194444L0.00208333 0.00180556L0.00222222 0.00180556L0.00222222 0.00166667L0.00222222 0.00152778L0.00222222 0.00138889L0.00222222 0.00125L0.00222222 0.00111111L0.00222222 0.000972222L0.00222222 0.000833333L0.00222222 0.000694444L0.00208333 0.000555556L0.00208333 0.000416667L0.00194444 0.000416667L0.00194444 0.000277778L0.00180556 0.000277778L0.00180556 0.000138889L0.00166667 0.000138889L0.00152778 0.000138889L0.00138889 0L0.00125 0L0.00111111 0L0.000972222 0L0.000833333 0.000138889L0.000694444 0.000138889L0.000555556 0.000138889L0.000416667 0.000277778L0.000277778 0.000416667L0.000138889 0.000555556L0.000138889 0.000694444L0.000138889 0.000833333L0.000138889 0.000972222Z"/>
  <path id="path9" transform="matrix(90 0 0 90 870.875 6816.16)" fill="none" stroke="#000000" stroke-width="0.02000000000" stroke-linecap="butt" stroke-linejoin="miter" stroke-miterlimit="2.00000000000" d="M0.000694444 0L0 0.000694444L0.000694444 0.00138889L0.00138889 0.000694444Z"/>
  <path id="path10" transform="matrix(90 0 0 90 904.425 6816.16)" fill="none" stroke="#000000" stroke-width="0.02000000000" stroke-linecap="butt" stroke-linejoin="miter" stroke-miterlimit="2.00000000000" d="M0.000694444 0L0 0.000694444L0.000694444 0.00138889L0.00138889 0.000694444Z"/>
  <path id="path11" transform="matrix(90 0 0 90 896.937 6818.48)" fill="none" stroke="#000000" stroke-width="0.02000000000" stroke-linecap="butt" stroke-linejoin="miter" stroke-miterlimit="2.00000000000" d="M0 0.00111111L0 0.00125L0 0.00138889L0.000138889 0.00152778L0.000138889 0.00166667L0.000138889 0.00180556L0.000277778 0.00194444L0.000277778 0.00208333L0.000416667 0.00208333L0.000416667 0.00222222L0.000555556 0.00222222L0.000694444 0.00236111L0.000833333 0.00236111L0.000972222 0.00236111L0.00111111 0.00236111L0.00125 0.00236111L0.00138889 0.00236111L0.00152778 0.00236111L0.00166667 0.00236111L0.00180556 0.00222222L0.00194444 0.00208333L0.00208333 0.00194444L0.00208333 0.00180556L0.00222222 0.00180556L0.00222222 0.00166667L0.00222222 0.00152778L0.00222222 0.00138889L0.00222222 0.00125L0.00222222 0.00111111L0.00222222 0.000972222L0.00222222 0.000833333L0.00222222 0.000694444L0.00208333 0.000555556L0.00208333 0.000416667L0.00194444 0.000416667L0.00194444 0.000277778L0.00180556 0.000277778L0.00180556 0.000138889L0.00166667 0.000138889L0.00152778 0.000138889L0.00138889 0L0.00125 0L0.00111111 0L0.000972222 0L0.000833333 0.000138889L0.000694444 0.000138889L0.000555556 0.000138889L0.000416667 0.000277778L0.000277778 0.000416667L0.000138889 0.000555556L0.000138889 0.000694444L0.000138889 0.000833333L0.000138889 0.000972222Z"/>
  <path id="path12" transform="matrix(90 0 0 90 176.899 6484.02)" fill="none" stroke="#000000" stroke-width="0.02000000000" stroke-linecap="butt" stroke-linejoin="miter" stroke-miterlimit="2.00000000000" d="M1.36628 0L1.86014 0L1.86014 5.1638L1.28796 5.1638L1.28796 1.48376L1.29013 1.23031L1.29775 0.984462L1.31624 0.614609L1.22813 0.700545L1.1509 0.770165L1.12261 0.795184L1.07693 0.833257L1.01492 0.884384L0.936599 0.948564L0.84196 1.0258L0.733179 1.115L0.608082 1.21725L0.467755 1.33147L0.311112 1.45874L0 1.05626Z"/>
  <path id="path13" transform="matrix(90 0 0 90 60.2971 6306.42)" fill="none" stroke="#000000" stroke-width="0.02000000000" stroke-linecap="butt" stroke-linejoin="miter" stroke-miterlimit="2.00000000000" d="M0 7.9823L0 0L1.49682 1.42109e-14L7.98339 4.88424L7.98339 6.40934Z"/>
 </g>
</svg>
