<?xml version="1.0" standalone="no"?>
<!DOCTYPE svg PUBLIC "-//W3C//DTD SVG 20010904//EN" "http://www.w3.org/TR/2001/REC-SVG-20010904/DTD/svg10.dtd">
<!-- Created using Karbon, part of Calligra: http://www.calligra.org/karbon -->
<svg xmlns="http://www.w3.org/2000/svg" xmlns:xlink="http://www.w3.org/1999/xlink" width="723.64pt" height="5653.33pt">
<defs/>
<g id="layer0">
  <path id="path0" transform="matrix(90 0 0 90 870.875 6816.16)" fill="none" stroke="#000000" stroke-width="0.02000000000" stroke-linecap="butt" stroke-linejoin="miter" stroke-miterlimit="2.00000000000" d="M0.000694444 0L0 0.000694444L0.000694444 0.00138889L0.00138889 0.000694444Z"/>
  <path id="path1" transform="matrix(90 0 0 90 904.425 6816.16)" fill="none" stroke="#000000" stroke-width="0.02000000000" stroke-linecap="butt" stroke-linejoin="miter" stroke-miterlimit="2.00000000000" d="M0.000694444 0L0 0.000694444L0.000694444 0.00138889L0.00138889 0.000694444Z"/>
  <path id="path2" transform="matrix(90 0 0 90 896.938 6818.48)" fill="none" stroke="#000000" stroke-width="0.02000000000" stroke-linecap="butt" stroke-linejoin="miter" stroke-miterlimit="2.00000000000" d="M0 0.00111111L0 0.00125L0 0.00138889L0.000138889 0.00152778L0.000138889 0.00166667L0.000138889 0.00180556L0.000277778 0.00194444L0.000277778 0.00208333L0.000416667 0.00208333L0.000416667 0.00222222L0.000555556 0.00222222L0.000694444 0.00236111L0.000833333 0.00236111L0.000972222 0.00236111L0.00111111 0.00236111L0.00125 0.00236111L0.00138889 0.00236111L0.00152778 0.00236111L0.00166667 0.00236111L0.00180556 0.00222222L0.00194444 0.00208333L0.00208333 0.00194444L0.00208333 0.00180556L0.00222222 0.00180556L0.00222222 0.00166667L0.00222222 0.00152778L0.00222222 0.00138889L0.00222222 0.00125L0.00222222 0.00111111L0.00222222 0.000972222L0.00222222 0.000833333L0.00222222 0.000694444L0.00208333 0.000555556L0.00208333 0.000416667L0.00194444 0.000416667L0.00194444 0.000277778L0.00180556 0.000277778L0.00180556 0.000138889L0.00166667 0.000138889L0.00152778 0.000138889L0.00138889 0L0.00125 0L0.00111111 0L0.000972222 0L0.000833333 0.000138889L0.000694444 0.000138889L0.000555556 0.000138889L0.000416667 0.000277778L0.000277778 0.000416667L0.000138889 0.000555556L0.000138889 0.000694444L0.000138889 0.000833333L0.000138889 0.000972222Z"/>
  <path id="path3" transform="matrix(90 0 0 90 870.875 6816.16)" fill="none" stroke="#000000" stroke-width="0.02000000000" stroke-linecap="butt" stroke-linejoin="miter" stroke-miterlimit="2.00000000000" d="M0.000694444 0L0 0.000694444L0.000694444 0.00138889L0.00138889 0.000694444Z"/>
  <path id="path4" transform="matrix(90 0 0 90 904.425 6816.16)" fill="none" stroke="#000000" stroke-width="0.02000000000" stroke-linecap="butt" stroke-linejoin="miter" stroke-miterlimit="2.00000000000" d="M0.000694444 0L0 0.000694444L0.000694444 0.00138889L0.00138889 0.000694444Z"/>
  <path id="path5" transform="matrix(90 0 0 90 896.938 6818.48)" fill="none" stroke="#000000" stroke-width="0.02000000000" stroke-linecap="butt" stroke-linejoin="miter" stroke-miterlimit="2.00000000000" d="M0 0.00111111L0 0.00125L0 0.00138889L0.000138889 0.00152778L0.000138889 0.00166667L0.000138889 0.00180556L0.000277778 0.00194444L0.000277778 0.00208333L0.000416667 0.00208333L0.000416667 0.00222222L0.000555556 0.00222222L0.000694444 0.00236111L0.000833333 0.00236111L0.000972222 0.00236111L0.00111111 0.00236111L0.00125 0.00236111L0.00138889 0.00236111L0.00152778 0.00236111L0.00166667 0.00236111L0.00180556 0.00222222L0.00194444 0.00208333L0.00208333 0.00194444L0.00208333 0.00180556L0.00222222 0.00180556L0.00222222 0.00166667L0.00222222 0.00152778L0.00222222 0.00138889L0.00222222 0.00125L0.00222222 0.00111111L0.00222222 0.000972222L0.00222222 0.000833333L0.00222222 0.000694444L0.00208333 0.000555556L0.00208333 0.000416667L0.00194444 0.000416667L0.00194444 0.000277778L0.00180556 0.000277778L0.00180556 0.000138889L0.00166667 0.000138889L0.00152778 0.000138889L0.00138889 0L0.00125 0L0.00111111 0L0.000972222 0L0.000833333 0.000138889L0.000694444 0.000138889L0.000555556 0.000138889L0.000416667 0.000277778L0.000277778 0.000416667L0.000138889 0.000555556L0.000138889 0.000694444L0.000138889 0.000833333L0.000138889 0.000972222Z"/>
  <path id="path6" transform="matrix(90 0 0 90 870.875 6816.16)" fill="none" stroke="#000000" stroke-width="0.02000000000" stroke-linecap="butt" stroke-linejoin="miter" stroke-miterlimit="2.00000000000" d="M0.000694444 0L0 0.000694444L0.000694444 0.00138889L0.00138889 0.000694444Z"/>
  <path id="path7" transform="matrix(90 0 0 90 904.425 6816.16)" fill="none" stroke="#000000" stroke-width="0.02000000000" stroke-linecap="butt" stroke-linejoin="miter" stroke-miterlimit="2.00000000000" d="M0.000694444 0L0 0.000694444L0.000694444 0.00138889L0.00138889 0.000694444Z"/>
  <path id="path8" transform="matrix(90 0 0 90 896.938 6818.48)" fill="none" stroke="#000000" stroke-width="0.02000000000" stroke-linecap="butt" stroke-linejoin="miter" stroke-miterlimit="2.00000000000" d="M0 0.00111111L0 0.00125L0 0.00138889L0.000138889 0.00152778L0.000138889 0.00166667L0.000138889 0.00180556L0.000277778 0.00194444L0.000277778 0.00208333L0.000416667 0.00208333L0.000416667 0.00222222L0.000555556 0.00222222L0.000694444 0.00236111L0.000833333 0.00236111L0.000972222 0.00236111L0.00111111 0.00236111L0.00125 0.00236111L0.00138889 0.00236111L0.00152778 0.00236111L0.00166667 0.00236111L0.00180556 0.00222222L0.00194444 0.00208333L0.00208333 0.00194444L0.00208333 0.00180556L0.00222222 0.00180556L0.00222222 0.00166667L0.00222222 0.00152778L0.00222222 0.00138889L0.00222222 0.00125L0.00222222 0.00111111L0.00222222 0.000972222L0.00222222 0.000833333L0.00222222 0.000694444L0.00208333 0.000555556L0.00208333 0.000416667L0.00194444 0.000416667L0.00194444 0.000277778L0.00180556 0.000277778L0.00180556 0.000138889L0.00166667 0.000138889L0.00152778 0.000138889L0.00138889 0L0.00125 0L0.00111111 0L0.000972222 0L0.000833333 0.000138889L0.000694444 0.000138889L0.000555556 0.000138889L0.000416667 0.000277778L0.000277778 0.000416667L0.000138889 0.000555556L0.000138889 0.000694444L0.000138889 0.000833333L0.000138889 0.000972222Z"/>
  <path id="path9" transform="matrix(90 0 0 90 870.875 6816.16)" fill="none" stroke="#000000" stroke-width="0.02000000000" stroke-linecap="butt" stroke-linejoin="miter" stroke-miterlimit="2.00000000000" d="M0.000694444 0L0 0.000694444L0.000694444 0.00138889L0.00138889 0.000694444Z"/>
  <path id="path10" transform="matrix(90 0 0 90 904.425 6816.16)" fill="none" stroke="#000000" stroke-width="0.02000000000" stroke-linecap="butt" stroke-linejoin="miter" stroke-miterlimit="2.00000000000" d="M0.000694444 0L0 0.000694444L0.000694444 0.00138889L0.00138889 0.000694444Z"/>
  <path id="path11" transform="matrix(90 0 0 90 896.938 6818.48)" fill="none" stroke="#000000" stroke-width="0.02000000000" stroke-linecap="butt" stroke-linejoin="miter" stroke-miterlimit="2.00000000000" d="M0 0.00111111L0 0.00125L0 0.00138889L0.000138889 0.00152778L0.000138889 0.00166667L0.000138889 0.00180556L0.000277778 0.00194444L0.000277778 0.00208333L0.000416667 0.00208333L0.000416667 0.00222222L0.000555556 0.00222222L0.000694444 0.00236111L0.000833333 0.00236111L0.000972222 0.00236111L0.00111111 0.00236111L0.00125 0.00236111L0.00138889 0.00236111L0.00152778 0.00236111L0.00166667 0.00236111L0.00180556 0.00222222L0.00194444 0.00208333L0.00208333 0.00194444L0.00208333 0.00180556L0.00222222 0.00180556L0.00222222 0.00166667L0.00222222 0.00152778L0.00222222 0.00138889L0.00222222 0.00125L0.00222222 0.00111111L0.00222222 0.000972222L0.00222222 0.000833333L0.00222222 0.000694444L0.00208333 0.000555556L0.00208333 0.000416667L0.00194444 0.000416667L0.00194444 0.000277778L0.00180556 0.000277778L0.00180556 0.000138889L0.00166667 0.000138889L0.00152778 0.000138889L0.00138889 0L0.00125 0L0.00111111 0L0.000972222 0L0.000833333 0.000138889L0.000694444 0.000138889L0.000555556 0.000138889L0.000416667 0.000277778L0.000277778 0.000416667L0.000138889 0.000555556L0.000138889 0.000694444L0.000138889 0.000833333L0.000138889 0.000972222Z"/>
  <path id="path12" transform="matrix(90 0 0 90 870.875 6816.16)" fill="none" stroke="#000000" stroke-width="0.02000000000" stroke-linecap="butt" stroke-linejoin="miter" stroke-miterlimit="2.00000000000" d="M0.000694444 0L0 0.000694444L0.000694444 0.00138889L0.00138889 0.000694444Z"/>
  <path id="path13" transform="matrix(90 0 0 90 904.425 6816.16)" fill="none" stroke="#000000" stroke-width="0.02000000000" stroke-linecap="butt" stroke-linejoin="miter" stroke-miterlimit="2.00000000000" d="M0.000694444 0L0 0.000694444L0.000694444 0.00138889L0.00138889 0.000694444Z"/>
  <path id="path14" transform="matrix(90 0 0 90 896.938 6818.48)" fill="none" stroke="#000000" stroke-width="0.02000000000" stroke-linecap="butt" stroke-linejoin="miter" stroke-miterlimit="2.00000000000" d="M0 0.00111111L0 0.00125L0 0.00138889L0.000138889 0.00152778L0.000138889 0.00166667L0.000138889 0.00180556L0.000277778 0.00194444L0.000277778 0.00208333L0.000416667 0.00208333L0.000416667 0.00222222L0.000555556 0.00222222L0.000694444 0.00236111L0.000833333 0.00236111L0.000972222 0.00236111L0.00111111 0.00236111L0.00125 0.00236111L0.00138889 0.00236111L0.00152778 0.00236111L0.00166667 0.00236111L0.00180556 0.00222222L0.00194444 0.00208333L0.00208333 0.00194444L0.00208333 0.00180556L0.00222222 0.00180556L0.00222222 0.00166667L0.00222222 0.00152778L0.00222222 0.00138889L0.00222222 0.00125L0.00222222 0.00111111L0.00222222 0.000972222L0.00222222 0.000833333L0.00222222 0.000694444L0.00208333 0.000555556L0.00208333 0.000416667L0.00194444 0.000416667L0.00194444 0.000277778L0.00180556 0.000277778L0.00180556 0.000138889L0.00166667 0.000138889L0.00152778 0.000138889L0.00138889 0L0.00125 0L0.00111111 0L0.000972222 0L0.000833333 0.000138889L0.000694444 0.000138889L0.000555556 0.000138889L0.000416667 0.000277778L0.000277778 0.000416667L0.000138889 0.000555556L0.000138889 0.000694444L0.000138889 0.000833333L0.000138889 0.000972222Z"/>
  <path id="path15" transform="matrix(90 0 0 90 870.875 6816.16)" fill="none" stroke="#000000" stroke-width="0.02000000000" stroke-linecap="butt" stroke-linejoin="miter" stroke-miterlimit="2.00000000000" d="M0.000694444 0L0 0.000694444L0.000694444 0.00138889L0.00138889 0.000694444Z"/>
  <path id="path16" transform="matrix(90 0 0 90 904.425 6816.16)" fill="none" stroke="#000000" stroke-width="0.02000000000" stroke-linecap="butt" stroke-linejoin="miter" stroke-miterlimit="2.00000000000" d="M0.000694444 0L0 0.000694444L0.000694444 0.00138889L0.00138889 0.000694444Z"/>
  <path id="path17" transform="matrix(90 0 0 90 896.938 6818.48)" fill="none" stroke="#000000" stroke-width="0.02000000000" stroke-linecap="butt" stroke-linejoin="miter" stroke-miterlimit="2.00000000000" d="M0 0.00111111L0 0.00125L0 0.00138889L0.000138889 0.00152778L0.000138889 0.00166667L0.000138889 0.00180556L0.000277778 0.00194444L0.000277778 0.00208333L0.000416667 0.00208333L0.000416667 0.00222222L0.000555556 0.00222222L0.000694444 0.00236111L0.000833333 0.00236111L0.000972222 0.00236111L0.00111111 0.00236111L0.00125 0.00236111L0.00138889 0.00236111L0.00152778 0.00236111L0.00166667 0.00236111L0.00180556 0.00222222L0.00194444 0.00208333L0.00208333 0.00194444L0.00208333 0.00180556L0.00222222 0.00180556L0.00222222 0.00166667L0.00222222 0.00152778L0.00222222 0.00138889L0.00222222 0.00125L0.00222222 0.00111111L0.00222222 0.000972222L0.00222222 0.000833333L0.00222222 0.000694444L0.00208333 0.000555556L0.00208333 0.000416667L0.00194444 0.000416667L0.00194444 0.000277778L0.00180556 0.000277778L0.00180556 0.000138889L0.00166667 0.000138889L0.00152778 0.000138889L0.00138889 0L0.00125 0L0.00111111 0L0.000972222 0L0.000833333 0.000138889L0.000694444 0.000138889L0.000555556 0.000138889L0.000416667 0.000277778L0.000277778 0.000416667L0.000138889 0.000555556L0.000138889 0.000694444L0.000138889 0.000833333L0.000138889 0.000972222Z"/>
  <path id="path18" transform="matrix(90 0 0 90 870.875 6816.16)" fill="none" stroke="#000000" stroke-width="0.02000000000" stroke-linecap="butt" stroke-linejoin="miter" stroke-miterlimit="2.00000000000" d="M0.000694444 0L0 0.000694444L0.000694444 0.00138889L0.00138889 0.000694444Z"/>
  <path id="path19" transform="matrix(90 0 0 90 904.425 6816.16)" fill="none" stroke="#000000" stroke-width="0.02000000000" stroke-linecap="butt" stroke-linejoin="miter" stroke-miterlimit="2.00000000000" d="M0.000694444 0L0 0.000694444L0.000694444 0.00138889L0.00138889 0.000694444Z"/>
  <path id="path20" transform="matrix(90 0 0 90 896.938 6818.48)" fill="none" stroke="#000000" stroke-width="0.02000000000" stroke-linecap="butt" stroke-linejoin="miter" stroke-miterlimit="2.00000000000" d="M0 0.00111111L0 0.00125L0 0.00138889L0.000138889 0.00152778L0.000138889 0.00166667L0.000138889 0.00180556L0.000277778 0.00194444L0.000277778 0.00208333L0.000416667 0.00208333L0.000416667 0.00222222L0.000555556 0.00222222L0.000694444 0.00236111L0.000833333 0.00236111L0.000972222 0.00236111L0.00111111 0.00236111L0.00125 0.00236111L0.00138889 0.00236111L0.00152778 0.00236111L0.00166667 0.00236111L0.00180556 0.00222222L0.00194444 0.00208333L0.00208333 0.00194444L0.00208333 0.00180556L0.00222222 0.00180556L0.00222222 0.00166667L0.00222222 0.00152778L0.00222222 0.00138889L0.00222222 0.00125L0.00222222 0.00111111L0.00222222 0.000972222L0.00222222 0.000833333L0.00222222 0.000694444L0.00208333 0.000555556L0.00208333 0.000416667L0.00194444 0.000416667L0.00194444 0.000277778L0.00180556 0.000277778L0.00180556 0.000138889L0.00166667 0.000138889L0.00152778 0.000138889L0.00138889 0L0.00125 0L0.00111111 0L0.000972222 0L0.000833333 0.000138889L0.000694444 0.000138889L0.000555556 0.000138889L0.000416667 0.000277778L0.000277778 0.000416667L0.000138889 0.000555556L0.000138889 0.000694444L0.000138889 0.000833333L0.000138889 0.000972222Z"/>
  <path id="path21" transform="matrix(90 0 0 90 81.477 6549.22)" fill="none" stroke="#000000" stroke-width="0.02000000000" stroke-linecap="butt" stroke-linejoin="miter" stroke-miterlimit="2.00000000000" d="M0.198306 0.234262L0.128572 0.254965L0.0577484 0.234262L0.00980633 0.178693L0 0.10678L0.0305086 0.0403149L0.0915258 0L0.164528 0L0.226635 0.0403149L0.257144 0.10678L0.246248 0.178693Z"/>
  <path id="path22" transform="matrix(90 0 0 90 81.477 6974.22)" fill="none" stroke="#000000" stroke-width="0.02000000000" stroke-linecap="butt" stroke-linejoin="miter" stroke-miterlimit="2.00000000000" d="M0.198306 0.234262L0.128572 0.254965L0.0577484 0.234262L0.00980633 0.178693L0 0.10678L0.0305086 0.0392253L0.0915258 0L0.164528 0L0.226635 0.0392253L0.257144 0.10678L0.246248 0.178693Z"/>
  <path id="path23" transform="matrix(90 0 0 90 48.0374 6525.58)" fill="none" stroke="#000000" stroke-width="0.02000000000" stroke-linecap="butt" stroke-linejoin="miter" stroke-miterlimit="2.00000000000" d="M0.999156 0.39988L0.999156 5.09711L0.979544 5.22133L0.922885 5.33247L0.834628 5.42072L0.723489 5.47738L0.599276 5.49699L0.39988 5.49699L0.276756 5.47738L0.164528 5.42072L0.0762715 5.33247L0.0196127 5.22133L0 5.09711L0 0.39988L0.0196127 0.276756L0.0762715 0.164528L0.164528 0.0762715L0.276756 0.0196127L0.39988 0L0.599276 0L0.723489 0.0196127L0.834628 0.0762715L0.922885 0.164528L0.979544 0.276756Z"/>
 </g>
</svg>
