<?xml version="1.0" standalone="no"?>
<!DOCTYPE svg PUBLIC "-//W3C//DTD SVG 20010904//EN" "http://www.w3.org/TR/2001/REC-SVG-20010904/DTD/svg10.dtd">
<!-- Created using Karbon, part of Calligra: http://www.calligra.org/karbon -->
<svg xmlns="http://www.w3.org/2000/svg" xmlns:xlink="http://www.w3.org/1999/xlink" width="723.64pt" height="5653.33pt">
<defs/>
<g id="layer0">
  <path id="path0" transform="matrix(90 0 0 90 870.875 6816.16)" fill="none" stroke="#000000" stroke-width="0.02000000000" stroke-linecap="butt" stroke-linejoin="miter" stroke-miterlimit="2.00000000000" d="M0.000694444 0L0 0.000694444L0.000694444 0.00138889L0.00138889 0.000694444Z"/>
  <path id="path1" transform="matrix(90 0 0 90 904.425 6816.16)" fill="none" stroke="#000000" stroke-width="0.02000000000" stroke-linecap="butt" stroke-linejoin="miter" stroke-miterlimit="2.00000000000" d="M0.000694444 0L0 0.000694444L0.000694444 0.00138889L0.00138889 0.000694444Z"/>
  <path id="path2" transform="matrix(90 0 0 90 896.938 6818.48)" fill="none" stroke="#000000" stroke-width="0.02000000000" stroke-linecap="butt" stroke-linejoin="miter" stroke-miterlimit="2.00000000000" d="M0 0.00111111L0 0.00125L0 0.00138889L0.000138889 0.00152778L0.000138889 0.00166667L0.000138889 0.00180556L0.000277778 0.00194444L0.000277778 0.00208333L0.000416667 0.00208333L0.000416667 0.00222222L0.000555556 0.00222222L0.000694444 0.00236111L0.000833333 0.00236111L0.000972222 0.00236111L0.00111111 0.00236111L0.00125 0.00236111L0.00138889 0.00236111L0.00152778 0.00236111L0.00166667 0.00236111L0.00180556 0.00222222L0.00194444 0.00208333L0.00208333 0.00194444L0.00208333 0.00180556L0.00222222 0.00180556L0.00222222 0.00166667L0.00222222 0.00152778L0.00222222 0.00138889L0.00222222 0.00125L0.00222222 0.00111111L0.00222222 0.000972222L0.00222222 0.000833333L0.00222222 0.000694444L0.00208333 0.000555556L0.00208333 0.000416667L0.00194444 0.000416667L0.00194444 0.000277778L0.00180556 0.000277778L0.00180556 0.000138889L0.00166667 0.000138889L0.00152778 0.000138889L0.00138889 0L0.00125 0L0.00111111 0L0.000972222 0L0.000833333 0.000138889L0.000694444 0.000138889L0.000555556 0.000138889L0.000416667 0.000277778L0.000277778 0.000416667L0.000138889 0.000555556L0.000138889 0.000694444L0.000138889 0.000833333L0.000138889 0.000972222Z"/>
  <path id="path3" transform="matrix(90 0 0 90 870.875 6816.16)" fill="none" stroke="#000000" stroke-width="0.02000000000" stroke-linecap="butt" stroke-linejoin="miter" stroke-miterlimit="2.00000000000" d="M0.000694444 0L0 0.000694444L0.000694444 0.00138889L0.00138889 0.000694444Z"/>
  <path id="path4" transform="matrix(90 0 0 90 904.425 6816.16)" fill="none" stroke="#000000" stroke-width="0.02000000000" stroke-linecap="butt" stroke-linejoin="miter" stroke-miterlimit="2.00000000000" d="M0.000694444 0L0 0.000694444L0.000694444 0.00138889L0.00138889 0.000694444Z"/>
  <path id="path5" transform="matrix(90 0 0 90 896.938 6818.48)" fill="none" stroke="#000000" stroke-width="0.02000000000" stroke-linecap="butt" stroke-linejoin="miter" stroke-miterlimit="2.00000000000" d="M0 0.00111111L0 0.00125L0 0.00138889L0.000138889 0.00152778L0.000138889 0.00166667L0.000138889 0.00180556L0.000277778 0.00194444L0.000277778 0.00208333L0.000416667 0.00208333L0.000416667 0.00222222L0.000555556 0.00222222L0.000694444 0.00236111L0.000833333 0.00236111L0.000972222 0.00236111L0.00111111 0.00236111L0.00125 0.00236111L0.00138889 0.00236111L0.00152778 0.00236111L0.00166667 0.00236111L0.00180556 0.00222222L0.00194444 0.00208333L0.00208333 0.00194444L0.00208333 0.00180556L0.00222222 0.00180556L0.00222222 0.00166667L0.00222222 0.00152778L0.00222222 0.00138889L0.00222222 0.00125L0.00222222 0.00111111L0.00222222 0.000972222L0.00222222 0.000833333L0.00222222 0.000694444L0.00208333 0.000555556L0.00208333 0.000416667L0.00194444 0.000416667L0.00194444 0.000277778L0.00180556 0.000277778L0.00180556 0.000138889L0.00166667 0.000138889L0.00152778 0.000138889L0.00138889 0L0.00125 0L0.00111111 0L0.000972222 0L0.000833333 0.000138889L0.000694444 0.000138889L0.000555556 0.000138889L0.000416667 0.000277778L0.000277778 0.000416667L0.000138889 0.000555556L0.000138889 0.000694444L0.000138889 0.000833333L0.000138889 0.000972222Z"/>
  <path id="path6" transform="matrix(90 0 0 90 870.875 6816.16)" fill="none" stroke="#000000" stroke-width="0.02000000000" stroke-linecap="butt" stroke-linejoin="miter" stroke-miterlimit="2.00000000000" d="M0.000694444 0L0 0.000694444L0.000694444 0.00138889L0.00138889 0.000694444Z"/>
  <path id="path7" transform="matrix(90 0 0 90 904.425 6816.16)" fill="none" stroke="#000000" stroke-width="0.02000000000" stroke-linecap="butt" stroke-linejoin="miter" stroke-miterlimit="2.00000000000" d="M0.000694444 0L0 0.000694444L0.000694444 0.00138889L0.00138889 0.000694444Z"/>
  <path id="path8" transform="matrix(90 0 0 90 896.938 6818.48)" fill="none" stroke="#000000" stroke-width="0.02000000000" stroke-linecap="butt" stroke-linejoin="miter" stroke-miterlimit="2.00000000000" d="M0 0.00111111L0 0.00125L0 0.00138889L0.000138889 0.00152778L0.000138889 0.00166667L0.000138889 0.00180556L0.000277778 0.00194444L0.000277778 0.00208333L0.000416667 0.00208333L0.000416667 0.00222222L0.000555556 0.00222222L0.000694444 0.00236111L0.000833333 0.00236111L0.000972222 0.00236111L0.00111111 0.00236111L0.00125 0.00236111L0.00138889 0.00236111L0.00152778 0.00236111L0.00166667 0.00236111L0.00180556 0.00222222L0.00194444 0.00208333L0.00208333 0.00194444L0.00208333 0.00180556L0.00222222 0.00180556L0.00222222 0.00166667L0.00222222 0.00152778L0.00222222 0.00138889L0.00222222 0.00125L0.00222222 0.00111111L0.00222222 0.000972222L0.00222222 0.000833333L0.00222222 0.000694444L0.00208333 0.000555556L0.00208333 0.000416667L0.00194444 0.000416667L0.00194444 0.000277778L0.00180556 0.000277778L0.00180556 0.000138889L0.00166667 0.000138889L0.00152778 0.000138889L0.00138889 0L0.00125 0L0.00111111 0L0.000972222 0L0.000833333 0.000138889L0.000694444 0.000138889L0.000555556 0.000138889L0.000416667 0.000277778L0.000277778 0.000416667L0.000138889 0.000555556L0.000138889 0.000694444L0.000138889 0.000833333L0.000138889 0.000972222Z"/>
  <path id="path9" transform="matrix(90 0 0 90 870.875 6816.16)" fill="none" stroke="#000000" stroke-width="0.02000000000" stroke-linecap="butt" stroke-linejoin="miter" stroke-miterlimit="2.00000000000" d="M0.000694444 0L0 0.000694444L0.000694444 0.00138889L0.00138889 0.000694444Z"/>
  <path id="path10" transform="matrix(90 0 0 90 904.425 6816.16)" fill="none" stroke="#000000" stroke-width="0.02000000000" stroke-linecap="butt" stroke-linejoin="miter" stroke-miterlimit="2.00000000000" d="M0.000694444 0L0 0.000694444L0.000694444 0.00138889L0.00138889 0.000694444Z"/>
  <path id="path11" transform="matrix(90 0 0 90 896.938 6818.48)" fill="none" stroke="#000000" stroke-width="0.02000000000" stroke-linecap="butt" stroke-linejoin="miter" stroke-miterlimit="2.00000000000" d="M0 0.00111111L0 0.00125L0 0.00138889L0.000138889 0.00152778L0.000138889 0.00166667L0.000138889 0.00180556L0.000277778 0.00194444L0.000277778 0.00208333L0.000416667 0.00208333L0.000416667 0.00222222L0.000555556 0.00222222L0.000694444 0.00236111L0.000833333 0.00236111L0.000972222 0.00236111L0.00111111 0.00236111L0.00125 0.00236111L0.00138889 0.00236111L0.00152778 0.00236111L0.00166667 0.00236111L0.00180556 0.00222222L0.00194444 0.00208333L0.00208333 0.00194444L0.00208333 0.00180556L0.00222222 0.00180556L0.00222222 0.00166667L0.00222222 0.00152778L0.00222222 0.00138889L0.00222222 0.00125L0.00222222 0.00111111L0.00222222 0.000972222L0.00222222 0.000833333L0.00222222 0.000694444L0.00208333 0.000555556L0.00208333 0.000416667L0.00194444 0.000416667L0.00194444 0.000277778L0.00180556 0.000277778L0.00180556 0.000138889L0.00166667 0.000138889L0.00152778 0.000138889L0.00138889 0L0.00125 0L0.00111111 0L0.000972222 0L0.000833333 0.000138889L0.000694444 0.000138889L0.000555556 0.000138889L0.000416667 0.000277778L0.000277778 0.000416667L0.000138889 0.000555556L0.000138889 0.000694444L0.000138889 0.000833333L0.000138889 0.000972222Z"/>
  <path id="path12" transform="matrix(90 0 0 90 870.875 6816.16)" fill="none" stroke="#000000" stroke-width="0.02000000000" stroke-linecap="butt" stroke-linejoin="miter" stroke-miterlimit="2.00000000000" d="M0.000694444 0L0 0.000694444L0.000694444 0.00138889L0.00138889 0.000694444Z"/>
  <path id="path13" transform="matrix(90 0 0 90 904.425 6816.16)" fill="none" stroke="#000000" stroke-width="0.02000000000" stroke-linecap="butt" stroke-linejoin="miter" stroke-miterlimit="2.00000000000" d="M0.000694444 0L0 0.000694444L0.000694444 0.00138889L0.00138889 0.000694444Z"/>
  <path id="path14" transform="matrix(90 0 0 90 896.938 6818.48)" fill="none" stroke="#000000" stroke-width="0.02000000000" stroke-linecap="butt" stroke-linejoin="miter" stroke-miterlimit="2.00000000000" d="M0 0.00111111L0 0.00125L0 0.00138889L0.000138889 0.00152778L0.000138889 0.00166667L0.000138889 0.00180556L0.000277778 0.00194444L0.000277778 0.00208333L0.000416667 0.00208333L0.000416667 0.00222222L0.000555556 0.00222222L0.000694444 0.00236111L0.000833333 0.00236111L0.000972222 0.00236111L0.00111111 0.00236111L0.00125 0.00236111L0.00138889 0.00236111L0.00152778 0.00236111L0.00166667 0.00236111L0.00180556 0.00222222L0.00194444 0.00208333L0.00208333 0.00194444L0.00208333 0.00180556L0.00222222 0.00180556L0.00222222 0.00166667L0.00222222 0.00152778L0.00222222 0.00138889L0.00222222 0.00125L0.00222222 0.00111111L0.00222222 0.000972222L0.00222222 0.000833333L0.00222222 0.000694444L0.00208333 0.000555556L0.00208333 0.000416667L0.00194444 0.000416667L0.00194444 0.000277778L0.00180556 0.000277778L0.00180556 0.000138889L0.00166667 0.000138889L0.00152778 0.000138889L0.00138889 0L0.00125 0L0.00111111 0L0.000972222 0L0.000833333 0.000138889L0.000694444 0.000138889L0.000555556 0.000138889L0.000416667 0.000277778L0.000277778 0.000416667L0.000138889 0.000555556L0.000138889 0.000694444L0.000138889 0.000833333L0.000138889 0.000972222Z"/>
  <path id="path15" transform="matrix(90 0 0 90 870.875 6816.16)" fill="none" stroke="#000000" stroke-width="0.02000000000" stroke-linecap="butt" stroke-linejoin="miter" stroke-miterlimit="2.00000000000" d="M0.000694444 0L0 0.000694444L0.000694444 0.00138889L0.00138889 0.000694444Z"/>
  <path id="path16" transform="matrix(90 0 0 90 904.425 6816.16)" fill="none" stroke="#000000" stroke-width="0.02000000000" stroke-linecap="butt" stroke-linejoin="miter" stroke-miterlimit="2.00000000000" d="M0.000694444 0L0 0.000694444L0.000694444 0.00138889L0.00138889 0.000694444Z"/>
  <path id="path17" transform="matrix(90 0 0 90 63.0679 6951.17)" fill="none" stroke="#000000" stroke-width="0.02000000000" stroke-linecap="butt" stroke-linejoin="miter" stroke-miterlimit="2.00000000000" d="M0.405751 0.57436L0.298058 0.593941L0.189278 0.57436L0.0957267 0.515619L0.0293707 0.428594L0 0.32199L0.00979023 0.213209L0.0587414 0.114219L0.140327 0.0402487L0.24258 0L0.352448 0L0.45579 0.0402487L0.536287 0.114219L0.585238 0.213209L0.596116 0.32199L0.565658 0.428594L0.499302 0.515619Z"/>
  <path id="path18" transform="matrix(90 0 0 90 35.949 6546.64)" fill="none" stroke="#000000" stroke-width="0.02000000000" stroke-linecap="butt" stroke-linejoin="miter" stroke-miterlimit="2.00000000000" d="M4.74065 5.38789L4.74065 0L0 0L0 5.38789Z"/>
  <path id="path19" transform="matrix(90 0 0 90 896.938 6818.48)" fill="none" stroke="#000000" stroke-width="0.02000000000" stroke-linecap="butt" stroke-linejoin="miter" stroke-miterlimit="2.00000000000" d="M0 0.00111111L0 0.00125L0 0.00138889L0.000138889 0.00152778L0.000138889 0.00166667L0.000138889 0.00180556L0.000277778 0.00194444L0.000277778 0.00208333L0.000416667 0.00208333L0.000416667 0.00222222L0.000555556 0.00222222L0.000694444 0.00236111L0.000833333 0.00236111L0.000972222 0.00236111L0.00111111 0.00236111L0.00125 0.00236111L0.00138889 0.00236111L0.00152778 0.00236111L0.00166667 0.00236111L0.00180556 0.00222222L0.00194444 0.00208333L0.00208333 0.00194444L0.00208333 0.00180556L0.00222222 0.00180556L0.00222222 0.00166667L0.00222222 0.00152778L0.00222222 0.00138889L0.00222222 0.00125L0.00222222 0.00111111L0.00222222 0.000972222L0.00222222 0.000833333L0.00222222 0.000694444L0.00208333 0.000555556L0.00208333 0.000416667L0.00194444 0.000416667L0.00194444 0.000277778L0.00180556 0.000277778L0.00180556 0.000138889L0.00166667 0.000138889L0.00152778 0.000138889L0.00138889 0L0.00125 0L0.00111111 0L0.000972222 0L0.000833333 0.000138889L0.000694444 0.000138889L0.000555556 0.000138889L0.000416667 0.000277778L0.000277778 0.000416667L0.000138889 0.000555556L0.000138889 0.000694444L0.000138889 0.000833333L0.000138889 0.000972222Z"/>
 </g>
</svg>
