<?xml version="1.0" standalone="no"?>
<!DOCTYPE svg PUBLIC "-//W3C//DTD SVG 20010904//EN" "http://www.w3.org/TR/2001/REC-SVG-20010904/DTD/svg10.dtd">
<!-- Created using Karbon, part of Calligra: http://www.calligra.org/karbon -->
<svg xmlns="http://www.w3.org/2000/svg" xmlns:xlink="http://www.w3.org/1999/xlink" width="1321.71pt" height="1471.22pt">
<defs/>
<g id="layer0">
  <path id="path0" transform="matrix(90 0 0 90 358.416 505.563)" fill="none" stroke="#000000" stroke-width="0.02000000000" stroke-linecap="butt" stroke-linejoin="miter" stroke-miterlimit="2.00000000000" d="M0 0.425C2.21209e-08 0.659721 0.190279 0.85 0.425 0.85C0.659721 0.85 0.85 0.659721 0.85 0.425C0.85 0.190279 0.659721 0 0.425 0C0.190279 0 2.21209e-08 0.190279 0 0.425Z"/>
  <path id="path1" transform="matrix(90 0 0 90 32.1428 179.29)" fill="none" stroke="#000000" stroke-width="0.02000000000" stroke-linecap="butt" stroke-linejoin="miter" stroke-miterlimit="2.00000000000" d="M0 9C1.4988e-15 13.9706 4.02944 18 9 18C13.9706 18 18 13.9706 18 9C18 4.02944 13.9706 2.22045e-16 9 0C4.02944 -2.22045e-16 1.4988e-15 4.02944 0 9Z"/>
  <path id="path2" transform="matrix(90 0 0 90 707.143 854.29)" fill="none" stroke="#000000" stroke-width="0.02000000000" stroke-linecap="butt" stroke-linejoin="miter" stroke-miterlimit="2.00000000000" d="M0 1.5C3.49156e-08 2.32843 0.671573 3 1.5 3C2.32843 3 3 2.32843 3 1.5C3 0.671573 2.32843 0 1.5 0C0.671573 0 3.49156e-08 0.671573 0 1.5Z"/>
  <path id="path3" transform="matrix(90 0 0 90 1185.73 569.203)" fill="none" stroke="#000000" stroke-width="0.02000000000" stroke-linecap="butt" stroke-linejoin="miter" stroke-miterlimit="2.00000000000" d="M0 0.425C1.97855e-08 0.659721 0.190279 0.85 0.425 0.85C0.659721 0.85 0.85 0.659721 0.85 0.425C0.85 0.190279 0.659721 0 0.425 0C0.190279 0 1.97855e-08 0.190279 0 0.425Z"/>
  <path id="path4" transform="matrix(90 0 0 90 1461.48 1307.96)" fill="none" stroke="#000000" stroke-width="0.02000000000" stroke-linecap="butt" stroke-linejoin="miter" stroke-miterlimit="2.00000000000" d="M0 0.375C-3.55271e-15 0.582107 0.167893 0.75 0.375 0.75C0.582107 0.75 0.75 0.582107 0.75 0.375C0.75 0.167893 0.582107 0 0.375 0C0.167893 0 -3.55271e-15 0.167893 0 0.375Z"/>
  <path id="path5" transform="matrix(90 0 0 90 1160.82 1608.62)" fill="none" stroke="#000000" stroke-width="0.02000000000" stroke-linecap="butt" stroke-linejoin="miter" stroke-miterlimit="2.00000000000" d="M0 0.375C0 0.582107 0.167893 0.75 0.375 0.75C0.582107 0.75 0.75 0.582107 0.75 0.375C0.75 0.167893 0.582107 0 0.375 0C0.167893 0 0 0.167893 0 0.375Z"/>
  <path id="path6" transform="matrix(90 0 0 90 155.31 1307.96)" fill="none" stroke="#000000" stroke-width="0.02000000000" stroke-linecap="butt" stroke-linejoin="miter" stroke-miterlimit="2.00000000000" d="M0 0.375C-2.22045e-16 0.582107 0.167893 0.75 0.375 0.75C0.582107 0.75 0.75 0.582107 0.75 0.375C0.75 0.167893 0.582107 0 0.375 0C0.167893 0 -2.22045e-16 0.167893 0 0.375Z"/>
  <path id="path7" transform="matrix(90 0 0 90 1249.37 505.563)" fill="none" stroke="#000000" stroke-width="0.02000000000" stroke-linecap="butt" stroke-linejoin="miter" stroke-miterlimit="2.00000000000" d="M0 0.425C-1.77636e-15 0.659721 0.190279 0.85 0.425 0.85C0.659721 0.85 0.85 0.659721 0.85 0.425C0.85 0.190279 0.659721 0 0.425 0C0.190279 0 -1.77636e-15 0.190279 0 0.425Z"/>
  <path id="path8" transform="matrix(90 0 0 90 422.055 569.203)" fill="none" stroke="#000000" stroke-width="0.02000000000" stroke-linecap="butt" stroke-linejoin="miter" stroke-miterlimit="2.00000000000" d="M0 0.425C0 0.659721 0.190279 0.85 0.425 0.85C0.659721 0.85 0.85 0.659721 0.85 0.425C0.85 0.190279 0.659721 0 0.425 0C0.190279 0 0 0.190279 0 0.425Z"/>
  <path id="path9" transform="matrix(90 0 0 90 455.97 1608.62)" fill="none" stroke="#000000" stroke-width="0.02000000000" stroke-linecap="butt" stroke-linejoin="miter" stroke-miterlimit="2.00000000000" d="M0 0.375C0 0.582107 0.167893 0.75 0.375 0.75C0.582107 0.75 0.75 0.582107 0.75 0.375C0.75 0.167893 0.582107 0 0.375 0C0.167893 0 0 0.167893 0 0.375Z"/>
  <path id="path10" transform="matrix(90 0 0 90 379.791 526.938)" fill="none" stroke="#000000" stroke-width="0.02000000000" stroke-linecap="butt" stroke-linejoin="miter" stroke-miterlimit="2.00000000000" d="M0 0.1875C1.63303e-08 0.291053 0.0839466 0.375 0.1875 0.375C0.291053 0.375 0.375 0.291053 0.375 0.1875C0.375 0.0839466 0.291053 0 0.1875 0C0.0839466 0 1.63303e-08 0.0839466 0 0.1875Z"/>
  <path id="path11" transform="matrix(90 0 0 90 1270.75 526.938)" fill="none" stroke="#000000" stroke-width="0.02000000000" stroke-linecap="butt" stroke-linejoin="miter" stroke-miterlimit="2.00000000000" d="M0 0.1875C0 0.291053 0.0839466 0.375 0.1875 0.375C0.291053 0.375 0.375 0.291053 0.375 0.1875C0.375 0.0839466 0.291053 0 0.1875 0C0.0839466 0 0 0.0839466 0 0.1875Z"/>
  <path id="path12" transform="matrix(90 0 0 90 1207.11 590.578)" fill="none" stroke="#000000" stroke-width="0.02000000000" stroke-linecap="butt" stroke-linejoin="miter" stroke-miterlimit="2.00000000000" d="M0 0.1875C1.77636e-15 0.291053 0.0839466 0.375 0.1875 0.375C0.291053 0.375 0.375 0.291053 0.375 0.1875C0.375 0.0839466 0.291053 0 0.1875 0C0.0839466 0 1.77636e-15 0.0839466 0 0.1875Z"/>
  <path id="path13" transform="matrix(90 0 0 90 443.43 590.578)" fill="none" stroke="#000000" stroke-width="0.02000000000" stroke-linecap="butt" stroke-linejoin="miter" stroke-miterlimit="2.00000000000" d="M0 0.1875C0 0.291053 0.0839466 0.375 0.1875 0.375C0.291053 0.375 0.375 0.291053 0.375 0.1875C0.375 0.0839466 0.291053 0 0.1875 0C0.0839466 0 0 0.0839466 0 0.1875Z"/>
  <path id="path14" transform="matrix(90 0 0 90 1483.53 1330.01)" fill="none" stroke="#000000" stroke-width="0.02000000000" stroke-linecap="butt" stroke-linejoin="miter" stroke-miterlimit="2.00000000000" d="M0 0.13C0 0.201797 0.058203 0.26 0.13 0.26C0.201797 0.26 0.26 0.201797 0.26 0.13C0.26 0.058203 0.201797 0 0.13 0C0.058203 0 0 0.058203 0 0.13Z"/>
  <path id="path15" transform="matrix(90 0 0 90 177.36 1330.01)" fill="none" stroke="#000000" stroke-width="0.02000000000" stroke-linecap="butt" stroke-linejoin="miter" stroke-miterlimit="2.00000000000" d="M0 0.13C3.02602e-09 0.201797 0.058203 0.26 0.13 0.26C0.201797 0.26 0.26 0.201797 0.26 0.13C0.26 0.058203 0.201797 0 0.13 0C0.058203 0 3.02602e-09 0.058203 0 0.13Z"/>
  <path id="path16" transform="matrix(90 0 0 90 1182.87 1630.67)" fill="none" stroke="#000000" stroke-width="0.02000000000" stroke-linecap="butt" stroke-linejoin="miter" stroke-miterlimit="2.00000000000" d="M0 0.13C0 0.201797 0.058203 0.26 0.13 0.26C0.201797 0.26 0.26 0.201797 0.26 0.13C0.26 0.058203 0.201797 0 0.13 0C0.058203 0 0 0.058203 0 0.13Z"/>
  <path id="path17" transform="matrix(90 0 0 90 478.02 1630.67)" fill="none" stroke="#000000" stroke-width="0.02000000000" stroke-linecap="butt" stroke-linejoin="miter" stroke-miterlimit="2.00000000000" d="M0 0.13C-8.88178e-16 0.201797 0.058203 0.26 0.13 0.26C0.201797 0.26 0.26 0.201797 0.26 0.13C0.26 0.058203 0.201797 0 0.13 0C0.058203 0 -8.88178e-16 0.058203 0 0.13Z"/>
 </g>
</svg>
