<?xml version="1.0" standalone="no"?>
<!DOCTYPE svg PUBLIC "-//W3C//DTD SVG 20010904//EN" "http://www.w3.org/TR/2001/REC-SVG-20010904/DTD/svg10.dtd">
<!-- Created using Karbon, part of Calligra: http://www.calligra.org/karbon -->
<svg xmlns="http://www.w3.org/2000/svg" xmlns:xlink="http://www.w3.org/1999/xlink" width="609.449pt" height="790.866pt">
<defs/>
<g id="layer0">
  <g id="text_annotations" transform="" fill="none"/>
  <path id="face0-cut" transform="matrix(90 0 0 90 108.141 848.251)" fill="none" stroke="#0000ff" stroke-width="0.05000000000" stroke-linecap="round" stroke-linejoin="round" d="M0.00814938 0.185935L0 0.187008M0 0.372227M0.0163771 0.373657M0.112529 0.356686M0.201011 0.315408M0.275796 0.252635M0.331785 0.172646M0.365164 0.0808905M0.372227 0M0.187008 0L0.180636 0.0484012L0.161954 0.0935039L0.132235 0.132235L0.0935039 0.161954L0.0484012 0.180636L0.00814938 0.185935"/>
  <path id="face1-cut" transform="matrix(90 0 0 90 636.839 848.251)" fill="none" stroke="#0000ff" stroke-width="0.05000000000" stroke-linecap="round" stroke-linejoin="round" d="M0.160043 0.373042M0.187008 0.371457M0.187008 0.185935L0.173618 0.185935L0.138609 0.185935L0.0935039 0.161954L0.0547733 0.132235L0.0250543 0.0935039L0.00637214 0.0484012L0 0M-0.184449 -1.42109e-14M-0.180303 0.0705044M-0.149539 0.163169M-0.0958401 0.244714M-0.0228657 0.309582M0.0644113 0.353352"/>
  <path id="face2-cut" transform="matrix(90 0 0 90 707.74 918.417)" fill="none" stroke="#0000ff" stroke-width="0.05000000000" stroke-linecap="round" stroke-linejoin="round" d="M0.0484012 0.180636L0 0.187008M0 0.374016M0.0968024 0.361271M0.187008 0.323907M0.264469 0.264469M0.323907 0.187008M0.361271 0.0968024M0.374016 0M0.187008 0L0.180636 0.0484012L0.161954 0.0935039L0.132235 0.132235L0.0935039 0.161954L0.0484012 0.180636"/>
  <path id="face3-cut" transform="matrix(90 0 0 90 707.74 889.265)" fill="none" stroke="#0000ff" stroke-width="0.05000000000" stroke-linecap="round" stroke-linejoin="round" d="M0.0968024 -0.0373643M0 -0.0501086M0 0.136899L0.0484012 0.143271L0.0935039 0.161954L0.132235 0.191673L0.161954 0.230403L0.180636 0.275506L0.187008 0.323907M0.374016 0.323907M0.361271 0.227105M0.323907 0.136899M0.264469 0.0594381M0.187008 0"/>
  <path id="face4-cut" transform="matrix(90 0 0 90 108.141 818.39)" fill="none" stroke="#0000ff" stroke-width="0.05000000000" stroke-linecap="round" stroke-linejoin="round" d="M0.0808905 -0.0333787M0 -0.040442M0 0.144777L0.0484012 0.151149L0.0935039 0.169831L0.132235 0.19955L0.161954 0.238281L0.180636 0.283384L0.185935 0.323636L0.187008 0.331785M0.372227 0.331785M0.373657 0.315408M0.356686 0.219256M0.315408 0.130774M0.252635 0.0559893M0.172646 0"/>
  <path id="face5-cut" transform="matrix(90 0 0 90 91.3104 848.251)" fill="none" stroke="#0000ff" stroke-width="0.05000000000" stroke-linecap="round" stroke-linejoin="round" d="M0.106117 0.365164M0.187008 0.372227M0.187008 0.187008L0.138607 0.180636L0.0935039 0.161954L0.0547733 0.132235L0.0250543 0.0935039L0.00637214 0.0484012L0.00107289 0.00814938L0 0M-0.185219 0M-0.186649 0.0163771M-0.169678 0.112529M-0.1284 0.201011M-0.0656272 0.275796M0.0143623 0.331785"/>
  <path id="face6-cut" transform="matrix(90 0 0 90 22.6995 901.586)" fill="none" stroke="#0000ff" stroke-width="0.05000000000" stroke-linecap="round" stroke-linejoin="round" d="M-0.0232195 0.146241M-0.0223353 0.187008M0.16156 0.187008L0.167932 0.138607L0.186614 0.0935039L0.216333 0.0547733L0.255064 0.0250543L0.300167 0.00637214L0.348568 0M0.348568 -0.183895M0.29172 -0.182662M0.197979 -0.155353M0.114501 -0.104712M0.0469738 -0.0341907M0 0.0514047"/>
  <path id="face7-cut" transform="matrix(90 0 0 90 653.67 848.251)" fill="none" stroke="#0000ff" stroke-width="0.05000000000" stroke-linecap="round" stroke-linejoin="round" d="M0.0484034 0.185935L0 0.185935M-9.50795e-08 0.371457M0.0705043 0.36731M0.163169 0.336547M0.244714 0.282848M0.309582 0.209874M0.353352 0.122597M0.373042 0.0269649M0.371457 0M0.187008 0L0.185245 0.0133902L0.180636 0.0484012L0.161953 0.0935039L0.132234 0.132235L0.0935038 0.161954L0.0484034 0.185935"/>
  <path id="face8-cut" transform="matrix(90 0 0 90 653.67 816.449)" fill="none" stroke="#0000ff" stroke-width="0.05000000000" stroke-linecap="round" stroke-linejoin="round" d="M0.0269649 -0.0196901M0 -0.0181044M0 0.166344L0.0133902 0.168107L0.0484012 0.172717L0.0935039 0.191399L0.132235 0.221118L0.161954 0.259848L0.180636 0.304951L0.187008 0.353352M0.371457 0.353352M0.36731 0.282848M0.336547 0.190183M0.282848 0.108639M0.209874 0.0437705M0.122597 0"/>
  <path id="face9-cut" transform="matrix(90 0 0 90 54.0706 918.417)" fill="none" stroke="#0000ff" stroke-width="0.05000000000" stroke-linecap="round" stroke-linejoin="round" d="M0.0484012 0.180636L0 0.187008M0 0.370903M0.0568481 0.36967M0.150589 0.342361M0.234067 0.29172M0.301594 0.221199M0.348568 0.135603M0.371787 0.0407666M0.370903 0M0.187008 0L0.180636 0.0484012L0.161954 0.0935039L0.132235 0.132235L0.0935039 0.161954L0.0484012 0.180636"/>
  <path id="face10-cut" transform="matrix(90 0 0 90 37.2399 918.417)" fill="none" stroke="#0000ff" stroke-width="0.05000000000" stroke-linecap="round" stroke-linejoin="round" d="M0.146241 0.371787M0.187008 0.370903M0.187008 0.187008L0.138607 0.180636L0.0935039 0.161954L0.0547733 0.132235L0.0250543 0.0935039L0.00637214 0.0484012L0 0M-0.183895 0M-0.182662 0.0568481M-0.155353 0.150589M-0.104712 0.234067M-0.0341907 0.301594M0.0514047 0.348568"/>
  <path id="face11-cut" transform="matrix(90 0 0 90 690.91 918.417)" fill="none" stroke="#0000ff" stroke-width="0.05000000000" stroke-linecap="round" stroke-linejoin="round" d="M0.0902055 0.361271M0.187008 0.374016M0.187008 0.187008L0.138607 0.180636L0.0935039 0.161954L0.0547733 0.132235L0.0250543 0.0935039L0.00637214 0.0484012L0 0M-0.187008 3.55271e-15M-0.174264 0.0968024M-0.136899 0.187008M-0.0774612 0.264469M0 0.323907"/>
  <path id="face12-cut" transform="matrix(90 0 0 90 0 0)" fill="none" stroke="#0000ff" stroke-width="0.05000000000" stroke-linecap="round" stroke-linejoin="round" d="M8.46457 10.9843L8.46457 1.38674e-16L1.38674e-16 1.38674e-16L1.38674e-16 10.9843L8.46457 10.9843M3.64173 6.51499L3.39712 6.32729L3.20942 6.08268L3.09143 5.79782L3.05118 5.49213L3.09143 5.18643L3.20942 4.90157L3.39712 4.65696L3.64173 4.46926L3.92659 4.35127L4.23228 4.31102L4.53798 4.35127L4.82283 4.46926L5.06745 4.65696L5.25515 4.90157L5.37314 5.18643L5.41339 5.49213L5.37314 5.79782L5.25515 6.08268L5.06745 6.32729L4.82283 6.51499L4.53798 6.63298L4.23228 6.67323L3.92659 6.63298L3.64173 6.51499M7.42617 9.76155M7.3335 9.79232M7.263 9.79646M7.23603 9.79805M7.1404 9.77836M7.05313 9.73459M6.98015 9.66972M6.92645 9.58818M6.89569 9.49551M6.89154 9.42501M6.88996 9.39804M6.90965 9.30241M6.95342 9.21513M7.01829 9.14216M7.09983 9.08846M7.19249 9.0577M7.263 9.05355M7.28996 9.05197M7.3856 9.07166M7.47287 9.11543M7.54585 9.18029M7.59955 9.26184M7.63031 9.3545M7.63446 9.42501M7.63604 9.45197M7.61635 9.5476M7.57258 9.63488M7.50771 9.70786M8.05079 10.5285M7.96059 10.5659M7.86378 10.5786M7.76698 10.5659M7.67678 10.5285M7.59931 10.4691M7.53988 10.3916M7.50251 10.3014M7.48977 10.2046M7.50251 10.1078M7.53988 10.0176M7.59931 9.94016M7.67678 9.88072M7.76698 9.84336M7.86378 9.83061M7.96059 9.84336M8.05079 9.88072M8.12825 9.94016M8.18769 10.0176M8.22505 10.1078M8.2378 10.2046M8.22505 10.3014M8.18769 10.3916M8.12825 10.4691M0.252216 10.069M0.29919 9.98343M0.366717 9.91291M0.450195 9.86227M0.543936 9.83496M0.600784 9.83373M0.641551 9.83284M0.736387 9.85606M0.821983 9.90304M0.892504 9.97056M0.943145 10.054M0.970454 10.1478M0.971687 10.2046M0.972571 10.2454M0.949352 10.3402M0.902378 10.4258M0.834851 10.4963M0.751373 10.547M0.657632 10.5743M0.600784 10.5755M0.560017 10.5764M0.465181 10.5532M0.379585 10.5062M0.309064 10.4387M0.258423 10.3552M0.231114 10.2615M0.229881 10.2046M0.228997 10.1639M1.20157 9.79723M1.12068 9.79017M1.02892 9.75679M0.948933 9.7008M0.88616 9.62602M0.844882 9.53754M0.827911 9.44138M0.829341 9.42501M0.836404 9.34412M0.869783 9.25236M0.925772 9.17237M1.00056 9.1096M1.08904 9.06832M1.18519 9.05135M1.20157 9.05278M1.28246 9.05984M1.37421 9.09322M1.4542 9.14921M1.51698 9.224M1.55825 9.31248M1.57523 9.40863M1.57379 9.42501M1.56673 9.5059M1.53335 9.59765M1.47736 9.67764M1.40258 9.74042M1.3141 9.78169M1.21795 9.79866"/>
  <path id="face13-cut" transform="matrix(90 0 0 90 690.91 901.586)" fill="none" stroke="#0000ff" stroke-width="0.05000000000" stroke-linecap="round" stroke-linejoin="round" d="M0.138607 0.00637214L0.187008 0M0.187008 -0.187008M0.0902055 -0.174264M0 -0.136899M-0.0774612 -0.0774612M-0.136899 1.06581e-14M-0.174264 0.0902055M-0.187008 0.187008M0 0.187008L0.00637214 0.138607L0.0250543 0.0935039L0.0547733 0.0547733L0.0935039 0.0250543L0.138607 0.00637214"/>
  <path id="face14-cut" transform="matrix(90 0 0 90 636.839 831.42)" fill="none" stroke="#0000ff" stroke-width="0.05000000000" stroke-linecap="round" stroke-linejoin="round" d="M0.138607 0.00637214L0.187008 0M0.187008 -0.184449M0.116503 -0.180303M0.023839 -0.149539M-0.0577059 -0.0958401M-0.122574 -0.0228657M-0.166344 0.0644113M-0.186035 0.160043M-0.184449 0.187008M0 0.187008L0.00176285 0.173618L0.00637214 0.138607L0.0250543 0.0935039L0.0547733 0.0547733L0.0935039 0.0250543L0.138607 0.00637214"/>
  <path id="face15-cut" transform="matrix(90 0 0 90 54.0706 901.586)" fill="none" stroke="#0000ff" stroke-width="0.05000000000" stroke-linecap="round" stroke-linejoin="round" d="M0.180636 0.138607L0.187008 0.187008M0.370903 0.187008M0.36967 0.13016M0.342361 0.0364191M0.29172 -0.0470592M0.221199 -0.114586M0.135603 -0.16156M0.0407666 -0.18478M0 -0.183895M0 0L0.0484012 0.00637214L0.0935039 0.0250543L0.132235 0.0547733L0.161954 0.0935039L0.180636 0.138607"/>
  <path id="face16-cut" transform="matrix(90 0 0 90 91.3104 831.42)" fill="none" stroke="#0000ff" stroke-width="0.05000000000" stroke-linecap="round" stroke-linejoin="round" d="M0.178858 0.00107289L0.187008 0M0.187008 -0.185219M0.170631 -0.186649M0.0744793 -0.169678M-0.0140036 -0.1284M-0.0887879 -0.0656272M-0.144777 0.0143623M-0.178156 0.106117M-0.185219 0.187008M0 0.187008L0.00637214 0.138607L0.0250543 0.0935039L0.0547733 0.0547733L0.0935039 0.0250543L0.138607 0.00637214L0.178858 0.00107289"/>
  <path id="face0-interior" transform="matrix(90 0 0 90 108.141 848.251)" fill="none" stroke="#ff0000" stroke-width="0.05000000000" stroke-linecap="round" stroke-linejoin="round" d="M0.00814938 0.185935M0 0.187008L0 0.372227L0.0163771 0.373657L0.112529 0.356686L0.201011 0.315408L0.275796 0.252635L0.331785 0.172646L0.365164 0.0808905L0.372227 0L0.187008 0M0.180636 0.0484012M0.161954 0.0935039M0.132235 0.132235M0.0935039 0.161954M0.0484012 0.180636"/>
  <path id="face1-interior" transform="matrix(90 0 0 90 620.239 848.251)" fill="none" stroke="#ff0000" stroke-width="0.05000000000" stroke-linecap="round" stroke-linejoin="round" d="M0.344492 0.373042L0.371457 0.371457L0.371457 0.185935M0.358066 0.185935M0.323058 0.185935M0.277953 0.161954M0.239222 0.132235M0.209503 0.0935039M0.190821 0.0484012M0.184449 1.42109e-14L0 0L0.0041463 0.0705044L0.03491 0.163169L0.0886087 0.244714L0.161583 0.309582L0.24886 0.353352L0.344492 0.373042"/>
  <path id="face2-interior" transform="matrix(90 0 0 90 707.74 918.417)" fill="none" stroke="#ff0000" stroke-width="0.05000000000" stroke-linecap="round" stroke-linejoin="round" d="M0.0484012 0.180636M0 0.187008L0 0.374016L0.0968024 0.361271L0.187008 0.323907L0.264469 0.264469L0.323907 0.187008L0.361271 0.0968024L0.374016 0L0.187008 0M0.180636 0.0484012M0.161954 0.0935039M0.132235 0.132235M0.0935039 0.161954"/>
  <path id="face3-interior" transform="matrix(90 0 0 90 707.74 884.755)" fill="none" stroke="#ff0000" stroke-width="0.05000000000" stroke-linecap="round" stroke-linejoin="round" d="M0.0968024 0.0127443L0 0L0 0.187008M0.0484012 0.19338M0.0935039 0.212062M0.132235 0.241781M0.161954 0.280512M0.180636 0.325615M0.187008 0.374016M0.374016 0.374016L0.361271 0.277213L0.323907 0.187008L0.264469 0.109547L0.187008 0.0501086L0.0968024 0.0127443"/>
  <path id="face4-interior" transform="matrix(90 0 0 90 108.141 814.75)" fill="none" stroke="#ff0000" stroke-width="0.05000000000" stroke-linecap="round" stroke-linejoin="round" d="M0.0808905 0.00706331L0 0L0 0.185219M0.0484012 0.191591M0.0935039 0.210273M0.132235 0.239992M0.161954 0.278723M0.180636 0.323826M0.185935 0.364078M0.187008 0.372227M0.372227 0.372227L0.373657 0.35585L0.356686 0.259698L0.315408 0.171215L0.252635 0.0964312L0.172646 0.040442L0.0808905 0.00706331"/>
  <path id="face5-interior" transform="matrix(90 0 0 90 74.512 848.251)" fill="none" stroke="#ff0000" stroke-width="0.05000000000" stroke-linecap="round" stroke-linejoin="round" d="M0.292767 0.365164L0.373657 0.372227M0.373657 0.187008M0.325256 0.180636M0.280153 0.161954M0.241422 0.132235M0.211703 0.0935039M0.193021 0.0484012M0.187722 0.00814938M0.186649 0L0.00143004 0L0 0.0163771L0.0169708 0.112529L0.0582491 0.201011L0.121022 0.275796L0.201011 0.331785L0.292767 0.365164"/>
  <path id="face6-interior" transform="matrix(90 0 0 90 20.6097 885.035)" fill="none" stroke="#ff0000" stroke-width="0.05000000000" stroke-linecap="round" stroke-linejoin="round" d="M0 0.330137L0.00088419 0.370903L0.18478 0.370903M0.191152 0.322502M0.209834 0.277399M0.239553 0.238669M0.278283 0.20895M0.323386 0.190267M0.371787 0.183895L0.371787 0L0.314939 0.00123298L0.221199 0.0285426L0.13772 0.0791835L0.0701934 0.149705L0.0232195 0.2353L0 0.330137"/>
  <path id="face7-interior" transform="matrix(90 0 0 90 653.67 848.251)" fill="none" stroke="#ff0000" stroke-width="0.05000000000" stroke-linecap="round" stroke-linejoin="round" d="M0.0484035 0.185935M9.50795e-08 0.185935M0 0.371457L0.0705044 0.36731L0.163169 0.336547L0.244714 0.282848L0.309582 0.209874L0.353352 0.122597L0.373042 0.0269649L0.371457 0L0.187008 0M0.185245 0.0133902M0.180636 0.0484012M0.161954 0.0935039M0.132235 0.132235M0.0935039 0.161954"/>
  <path id="face8-interior" transform="matrix(90 0 0 90 653.67 814.677)" fill="none" stroke="#ff0000" stroke-width="0.05000000000" stroke-linecap="round" stroke-linejoin="round" d="M0.0269649 0L0 0.00158578L0 0.186035M0.0133902 0.187797M0.0484012 0.192407M0.0935039 0.211089M0.132235 0.240808M0.161954 0.279539M0.180636 0.324641M0.187008 0.373042M0.371457 0.373042L0.36731 0.302538L0.336547 0.209874L0.282848 0.128329L0.209874 0.0634607L0.122597 0.0196901L0.0269649 0"/>
  <path id="face9-interior" transform="matrix(90 0 0 90 54.0706 918.417)" fill="none" stroke="#ff0000" stroke-width="0.05000000000" stroke-linecap="round" stroke-linejoin="round" d="M0.0484012 0.180636M0 0.187008L0 0.370903L0.0568481 0.36967L0.150589 0.342361L0.234067 0.29172L0.301594 0.221199L0.348568 0.135603L0.371787 0.0407666L0.370903 0L0.187008 0M0.180636 0.0484012M0.161954 0.0935039M0.132235 0.132235M0.0935039 0.161954"/>
  <path id="face10-interior" transform="matrix(90 0 0 90 20.6893 918.417)" fill="none" stroke="#ff0000" stroke-width="0.05000000000" stroke-linecap="round" stroke-linejoin="round" d="M0.330137 0.371787L0.370903 0.370903M0.370903 0.187008M0.322502 0.180636M0.277399 0.161954M0.238669 0.132235M0.20895 0.0935039M0.190267 0.0484012M0.183895 0M0 0L0.00123298 0.0568481L0.0285426 0.150589L0.0791835 0.234067L0.149705 0.301594L0.2353 0.348568L0.330137 0.371787"/>
  <path id="face11-interior" transform="matrix(90 0 0 90 674.079 918.417)" fill="none" stroke="#ff0000" stroke-width="0.05000000000" stroke-linecap="round" stroke-linejoin="round" d="M0.277213 0.361271L0.374016 0.374016M0.374016 0.187008M0.325615 0.180636M0.280512 0.161954M0.241781 0.132235M0.212062 0.0935039M0.19338 0.0484012M0.187008 0L0 3.55271e-15L0.0127443 0.0968024L0.0501086 0.187008L0.109547 0.264469L0.187008 0.323907L0.277213 0.361271"/>
  <path id="face12-interior" transform="matrix(90 0 0 90 54.0706 814.622)" fill="none" stroke="#ff0000" stroke-width="0.05000000000" stroke-linecap="round" stroke-linejoin="round" d="M7.86378 1.9329M7.86378 -9.05135M-0.600784 -9.05135M-0.600784 1.9329M3.04095 -2.53636M2.79633 -2.72406M2.60863 -2.96867M2.49064 -3.25353M2.4504 -3.55922M2.49064 -3.86492M2.60863 -4.14978M2.79633 -4.39439M3.04095 -4.58209M3.32581 -4.70008M3.6315 -4.74033M3.93719 -4.70008M4.22205 -4.58209M4.46666 -4.39439M4.65436 -4.14978M4.77236 -3.86492M4.8126 -3.55922M4.77236 -3.25353M4.65436 -2.96867M4.46666 -2.72406M4.22205 -2.53636M3.93719 -2.41837M3.6315 -2.37812M3.32581 -2.41837M6.82538 0.710204M6.73272 0.740967M6.66221 0.745114M6.63525 0.746699M6.53962 0.727009M6.45234 0.683239M6.37937 0.618371M6.32567 0.536826M6.2949 0.444161M6.29076 0.373657L6.28917 0.346692L6.30886 0.25106L6.35263 0.163783L6.4175 0.0908091L6.49905 0.0371103L6.59171 0.00634665L6.66221 0.00220035M6.68918 0.000614569M6.78481 0.0203047M6.87209 0.0640752M6.94506 0.128943M6.99876 0.210488M7.02953 0.303153M7.03367 0.373657M7.03526 0.400622M7.01557 0.496254M6.9718 0.583531M6.90693 0.656505M7.45001 1.47719M7.3598 1.51455M7.263 1.52729M7.1662 1.51455M7.07599 1.47719M6.99853 1.41775M6.93909 1.34029M6.90173 1.25008M6.88898 1.15328L6.90173 1.05648L6.93909 0.966271L6.99853 0.88881L7.07599 0.829372L7.1662 0.792008L7.263 0.779263M7.3598 0.792008M7.45001 0.829372M7.52747 0.88881M7.58691 0.966271M7.62427 1.05648M7.63701 1.15328M7.62427 1.25008M7.58691 1.34029M7.52747 1.41775M-0.348568 1.01768M-0.301594 0.93208M-0.234067 0.861559M-0.150589 0.810918M-0.0568481 0.783609M0 0.782376L0.0407666 0.781492L0.135603 0.804711L0.221199 0.851685L0.29172 0.919212L0.342361 1.00269L0.36967 1.09643L0.370903 1.15328M0.371787 1.19405M0.348568 1.28888M0.301594 1.37448M0.234067 1.445M0.150589 1.49564M0.0568481 1.52295M0 1.52418M-0.0407666 1.52507M-0.135603 1.50185M-0.221199 1.45487M-0.29172 1.38735M-0.342361 1.30387M-0.36967 1.21013M-0.370903 1.15328M-0.371787 1.11251M0.600784 0.745884M0.519894 0.738821M0.428138 0.705442M0.348149 0.649453M0.285376 0.574669M0.244098 0.486186M0.227127 0.390034M0.228557 0.373657L0.23562 0.292767L0.268999 0.201011L0.324988 0.121022L0.399773 0.0582491L0.488255 0.0169708L0.584407 0L0.600784 0.00143004M0.681675 0.00849335M0.77343 0.041872M0.853419 0.0978613M0.916192 0.172646M0.95747 0.261128M0.974441 0.35728M0.973011 0.373657M0.965948 0.454548M0.932569 0.546303M0.87658 0.626292M0.801795 0.689065M0.713313 0.730343M0.617161 0.747314"/>
  <path id="face13-interior" transform="matrix(90 0 0 90 699.325 903.841)" fill="none" stroke="#ff0000" stroke-width="0.05000000000" stroke-linecap="round" stroke-linejoin="round" d="M0.0563784 -0.0233527M0.11688 -0.0313179M0.11688 -0.265078M-0.00412308 -0.249147M-0.11688 -0.202442M-0.213706 -0.128144M-0.288004 -0.0313179M-0.334709 0.081439M-0.35064 0.202442M-0.11688 0.202442M-0.108915 0.14194M-0.085562 0.085562M-0.0484132 0.0371488M0 0"/>
  <path id="face14-interior" transform="matrix(90 0 0 90 645.255 833.675)" fill="none" stroke="#ff0000" stroke-width="0.05000000000" stroke-linecap="round" stroke-linejoin="round" d="M0.0563784 -0.0233527M0.11688 -0.0313179M0.11688 -0.261879M0.0287495 -0.256696M-0.0870812 -0.218241M-0.189012 -0.151118M-0.270097 -0.0599M-0.32481 0.0491962M-0.349423 0.168736M-0.347441 0.202442M-0.11688 0.202442M-0.114676 0.185704M-0.108915 0.14194M-0.085562 0.085562M-0.0484132 0.0371488M0 0"/>
  <path id="face15-interior" transform="matrix(90 0 0 90 68.6464 910.001)" fill="none" stroke="#ff0000" stroke-width="0.05000000000" stroke-linecap="round" stroke-linejoin="round" d="M0.0233527 0.0563784M0.0313179 0.11688M0.261187 0.11688M0.259646 0.0458197M0.225509 -0.0713561M0.162208 -0.175704M0.0740563 -0.260113M-0.032938 -0.31883M-0.151484 -0.347854M-0.202442 -0.346749M-0.202442 -0.11688M-0.14194 -0.108915M-0.085562 -0.085562M-0.0371488 -0.0484132M0 0"/>
  <path id="face16-interior" transform="matrix(90 0 0 90 103.785 831.993)" fill="none" stroke="#ff0000" stroke-width="0.05000000000" stroke-linecap="round" stroke-linejoin="round" d="M0.0503148 -0.00662407M0.0605015 -0.00796517M0.0605015 -0.239489M0.0400301 -0.241277M-0.0801593 -0.220063M-0.190763 -0.168465M-0.284243 -0.0899992M-0.35423 0.00998775M-0.395953 0.124682M-0.404782 0.225795M-0.173258 0.225795M-0.165293 0.165293M-0.14194 0.108915M-0.104792 0.0605015M-0.0563784 0.0233527M0 0"/>
  <path id="face0-interior1" transform="matrix(90 0 0 90 112.497 864.508)" fill="none" stroke="#00ff00" stroke-width="0.05000000000" stroke-linecap="round" stroke-linejoin="round" d="M-0.0503148 0.00662407M-0.0605015 0.00796517M-0.0605015 0.239489M-0.0400301 0.241277M0.0801593 0.220063M0.190763 0.168465M0.284243 0.0899992M0.35423 -0.00998775M0.395953 -0.124682M0.404782 -0.225795M0.173258 -0.225795M0.165293 -0.165293M0.14194 -0.108915M0.104792 -0.0605015M0.0563784 -0.0233527M0 0"/>
  <path id="face1-interior1" transform="matrix(90 0 0 90 642.636 880.052)" fill="none" stroke="#00ff00" stroke-width="0.05000000000" stroke-linecap="round" stroke-linejoin="round" d="M0.11954 0.0246127M0.153246 0.0226305M0.153246 -0.209272M0.136508 -0.209272M0.0927472 -0.209272M0.0363658 -0.239248M-0.0120474 -0.276397M-0.0491962 -0.32481M-0.0725489 -0.381189M-0.0805141 -0.44169M-0.311075 -0.44169M-0.305892 -0.35356M-0.267438 -0.237729M-0.200314 -0.135798M-0.109096 -0.0547132M0 0"/>
  <path id="face2-interior1" transform="matrix(90 0 0 90 716.156 932.993)" fill="none" stroke="#00ff00" stroke-width="0.05000000000" stroke-linecap="round" stroke-linejoin="round" d="M-0.0563784 0.0233527M-0.11688 0.0313179M-0.11688 0.265078M0.00412308 0.249147M0.11688 0.202442M0.213706 0.128144M0.288004 0.0313179M0.334709 -0.081439M0.35064 -0.202442M0.11688 -0.202442M0.108915 -0.14194M0.085562 -0.085562M0.0484132 -0.0371488M0 0"/>
  <path id="face3-interior1" transform="matrix(90 0 0 90 724.571 889.265)" fill="none" stroke="#00ff00" stroke-width="0.05000000000" stroke-linecap="round" stroke-linejoin="round" d="M-0.112757 -0.0467054M-0.23376 -0.0626358M-0.23376 0.171124M-0.173258 0.179089M-0.11688 0.202442M-0.0684667 0.239591M-0.0313179 0.288004M-0.00796517 0.344382M0 0.404884M0.23376 0.404884M0.217829 0.283881M0.171124 0.171124M0.0968265 0.0742976M0 0"/>
  <path id="face4-interior1" transform="matrix(90 0 0 90 123.679 818.39)" fill="none" stroke="#00ff00" stroke-width="0.05000000000" stroke-linecap="round" stroke-linejoin="round" d="M-0.114694 -0.0417233M-0.215807 -0.0505525M-0.215807 0.180971M-0.155305 0.188937M-0.098927 0.212289M-0.0505137 0.249438M-0.013365 0.297851M0.00998775 0.35423M0.0166118 0.404545M0.0179529 0.414731M0.249477 0.414731M0.251264 0.39426M0.230051 0.274071M0.178453 0.163467M0.0999869 0.0699866M0 0"/>
  <path id="face5-interior1" transform="matrix(90 0 0 90 92.603 878.111)" fill="none" stroke="#00ff00" stroke-width="0.05000000000" stroke-linecap="round" stroke-linejoin="round" d="M0.114694 0.0417233M0.215807 0.0505525M0.215807 -0.180971M0.155305 -0.188937M0.098927 -0.212289M0.0505137 -0.249438M0.013365 -0.297851M-0.00998775 -0.35423M-0.0166118 -0.404545M-0.0179529 -0.414731M-0.249477 -0.414731M-0.251264 -0.39426M-0.230051 -0.274071M-0.178453 -0.163467M-0.0999869 -0.0699866M0 0"/>
  <path id="face6-interior1" transform="matrix(90 0 0 90 22.6995 906.212)" fill="none" stroke="#00ff00" stroke-width="0.05000000000" stroke-linecap="round" stroke-linejoin="round" d="M-0.0290244 0.118546M-0.0279192 0.169504M0.20195 0.169504M0.209915 0.109002M0.233268 0.052624M0.270417 0.0042108M0.31883 -0.032938M0.375208 -0.0562907M0.43571 -0.0642559M0.43571 -0.294125M0.36465 -0.292584M0.247474 -0.258447M0.143126 -0.195146M0.0587173 -0.106994M0 0"/>
  <path id="face7-interior1" transform="matrix(90 0 0 90 662.085 862.827)" fill="none" stroke="#00ff00" stroke-width="0.05000000000" stroke-linecap="round" stroke-linejoin="round" d="M-0.0563755 0.0299768M-0.11688 0.0299768M-0.11688 0.261879M-0.0287495 0.256696M0.0870812 0.218241M0.189012 0.151118M0.270097 0.0599M0.32481 -0.0491962M0.349423 -0.168736M0.347441 -0.202442M0.11688 -0.202442M0.114676 -0.185704M0.108915 -0.14194M0.085562 -0.085562M0.0484132 -0.0371488M0 0"/>
  <path id="face8-interior1" transform="matrix(90 0 0 90 664.704 816.449)" fill="none" stroke="#00ff00" stroke-width="0.05000000000" stroke-linecap="round" stroke-linejoin="round" d="M-0.11954 -0.0246127M-0.153246 -0.0226305M-0.153246 0.207931M-0.136508 0.210134M-0.0927443 0.215896M-0.0363658 0.239248M0.0120474 0.276397M0.0491962 0.32481M0.0725489 0.381189M0.0805141 0.44169M0.311075 0.44169M0.305892 0.35356M0.267438 0.237729M0.200314 0.135798M0.109096 0.0547132M0 0"/>
  <path id="face9-interior1" transform="matrix(90 0 0 90 62.4859 932.993)" fill="none" stroke="#00ff00" stroke-width="0.05000000000" stroke-linecap="round" stroke-linejoin="round" d="M-0.0563784 0.0233527M-0.11688 0.0313179M-0.11688 0.261187M-0.0458197 0.259646M0.0713561 0.225509M0.175704 0.162208M0.260113 0.0740563M0.31883 -0.032938M0.347854 -0.151484M0.346749 -0.202442M0.11688 -0.202442M0.108915 -0.14194M0.085562 -0.085562M0.0484132 -0.0371488M0 0"/>
  <path id="face10-interior1" transform="matrix(90 0 0 90 41.8663 949.788)" fill="none" stroke="#00ff00" stroke-width="0.05000000000" stroke-linecap="round" stroke-linejoin="round" d="M0.118546 0.0290244M0.169504 0.0279192M0.169504 -0.20195M0.109002 -0.209915M0.052624 -0.233268M0.0042108 -0.270417M-0.032938 -0.31883M-0.0562907 -0.375208M-0.0642559 -0.43571M-0.294125 -0.43571M-0.292584 -0.36465M-0.258447 -0.247474M-0.195146 -0.143126M-0.106994 -0.0587173M0 0"/>
  <path id="face11-interior1" transform="matrix(90 0 0 90 690.91 947.568)" fill="none" stroke="#00ff00" stroke-width="0.05000000000" stroke-linecap="round" stroke-linejoin="round" d="M0.112757 0.0467054M0.23376 0.0626358M0.23376 -0.171124M0.173258 -0.179089M0.11688 -0.202442M0.0684667 -0.239591M0.0313179 -0.288004M0.00796517 -0.344382M0 -0.404884M-0.23376 -0.404884M-0.217829 -0.283881M-0.171124 -0.171124M-0.0968265 -0.0742976M0 0"/>
  <path id="face12-interior1" transform="matrix(90 0 0 90 109.615 881.88)" fill="none" stroke="#00ff00" stroke-width="0.05000000000" stroke-linecap="round" stroke-linejoin="round" d="M9.05828 1.48198M9.05828 -12.2483M-1.52243 -12.2483M-1.52243 1.48198M3.02973 -4.10459M2.72397 -4.33922M2.48934 -4.64498M2.34185 -5.00106M2.29155 -5.38317M2.34185 -5.76529M2.48934 -6.12136M2.72397 -6.42713M3.02973 -6.66175M3.38581 -6.80925M3.76792 -6.85955M4.15004 -6.80925M4.50611 -6.66175M4.81188 -6.42713M5.0465 -6.12136M5.19399 -5.76529M5.2443 -5.38317M5.19399 -5.00106M5.0465 -4.64498M4.81188 -4.33922M4.50611 -4.10459M4.15004 -3.9571M3.76792 -3.9068M3.38581 -3.9571M7.76028 -0.0463879M7.64445 -0.00793331M7.55632 -0.00275044M7.52261 -0.000768211M7.40307 -0.0253809M7.29398 -0.0800941M7.20276 -0.161179M7.13563 -0.26311M7.09718 -0.378941M7.092 -0.467071M7.09001 -0.500777M7.11463 -0.620317M7.16934 -0.729413M7.25043 -0.820631M7.35236 -0.887755M7.46819 -0.926209M7.55632 -0.931392M7.59002 -0.933374M7.70956 -0.908762M7.81866 -0.854049M7.90988 -0.772963M7.977 -0.671032M8.01546 -0.555202M8.02064 -0.467071M8.02262 -0.433365M7.99801 -0.313826M7.94329 -0.204729M7.86221 -0.113511M8.54106 0.91234M8.4283 0.959046M8.3073 0.974976M8.18629 0.959046M8.07354 0.91234M7.97671 0.838043M7.90241 0.741216M7.85571 0.628459M7.83978 0.507456M7.85571 0.386453M7.90241 0.273696M7.97671 0.17687M8.07354 0.102572M8.18629 0.0558669M8.3073 0.0399366M8.4283 0.0558669M8.54106 0.102572M8.63788 0.17687M8.71218 0.273696M8.75889 0.386453M8.77482 0.507456M8.75889 0.628459M8.71218 0.741216M8.63788 0.838043M-1.20716 0.337952M-1.14844 0.230958M-1.06404 0.142807M-0.959687 0.0795055M-0.842512 0.0453685M-0.771451 0.0438273M-0.720493 0.042722M-0.601947 0.0717464M-0.494953 0.130464M-0.406802 0.214872M-0.343501 0.31922M-0.309364 0.436396M-0.307822 0.507456M-0.306717 0.558415M-0.335742 0.67696M-0.394459 0.783955M-0.478868 0.872106M-0.583215 0.935407M-0.700391 0.969544M-0.771451 0.971085M-0.82241 0.972191M-0.940955 0.943166M-1.04795 0.884449M-1.1361 0.80004M-1.1994 0.695692M-1.23354 0.578516M-1.23508 0.507456M-1.23619 0.456498M-0.0204714 -0.00178755M-0.121584 -0.0106167M-0.236278 -0.05234M-0.336265 -0.122327M-0.414731 -0.215807M-0.466329 -0.326411M-0.487543 -0.4466M-0.485755 -0.467071M-0.476926 -0.568184M-0.435203 -0.682878M-0.365216 -0.782865M-0.271736 -0.861331M-0.161132 -0.912929M-0.0409427 -0.934143M-0.0204714 -0.932355M0.0806418 -0.923526M0.195336 -0.881803M0.295322 -0.811816M0.373789 -0.718336M0.425386 -0.607732M0.4466 -0.487543M0.444812 -0.467071M0.435983 -0.365958M0.39426 -0.251264M0.324273 -0.151277M0.230793 -0.0728114M0.120189 -0.0212134M0 0"/>
  <path id="face13-interior1" transform="matrix(90 0 0 90 699.325 903.841)" fill="none" stroke="#00ff00" stroke-width="0.05000000000" stroke-linecap="round" stroke-linejoin="round" d="M0.0563784 -0.0233527M0.11688 -0.0313179M0.11688 -0.265078M-0.00412308 -0.249147M-0.11688 -0.202442M-0.213706 -0.128144M-0.288004 -0.0313179M-0.334709 0.081439M-0.35064 0.202442M-0.11688 0.202442M-0.108915 0.14194M-0.085562 0.085562M-0.0484132 0.0371488M0 0"/>
  <path id="face14-interior1" transform="matrix(90 0 0 90 645.255 833.675)" fill="none" stroke="#00ff00" stroke-width="0.05000000000" stroke-linecap="round" stroke-linejoin="round" d="M0.0563784 -0.0233527M0.11688 -0.0313179M0.11688 -0.261879M0.0287495 -0.256696M-0.0870812 -0.218241M-0.189012 -0.151118M-0.270097 -0.0599M-0.32481 0.0491962M-0.349423 0.168736M-0.347441 0.202442M-0.11688 0.202442M-0.114676 0.185704M-0.108915 0.14194M-0.085562 0.085562M-0.0484132 0.0371488M0 0"/>
  <path id="face15-interior1" transform="matrix(90 0 0 90 68.6464 910.001)" fill="none" stroke="#00ff00" stroke-width="0.05000000000" stroke-linecap="round" stroke-linejoin="round" d="M0.0233527 0.0563784M0.0313179 0.11688M0.261187 0.11688M0.259646 0.0458197M0.225509 -0.0713561M0.162208 -0.175704M0.0740563 -0.260113M-0.032938 -0.31883M-0.151484 -0.347854M-0.202442 -0.346749M-0.202442 -0.11688M-0.14194 -0.108915M-0.085562 -0.085562M-0.0371488 -0.0484132M0 0"/>
  <path id="face16-interior1" transform="matrix(90 0 0 90 103.785 831.993)" fill="none" stroke="#00ff00" stroke-width="0.05000000000" stroke-linecap="round" stroke-linejoin="round" d="M0.0503148 -0.00662407M0.0605015 -0.00796517M0.0605015 -0.239489M0.0400301 -0.241277M-0.0801593 -0.220063M-0.190763 -0.168465M-0.284243 -0.0899992M-0.35423 0.00998775M-0.395953 0.124682M-0.404782 0.225795M-0.173258 0.225795M-0.165293 0.165293M-0.14194 0.108915M-0.104792 0.0605015M-0.0563784 0.0233527M0 0"/>
 </g>
</svg>
