<?xml version="1.0" standalone="no"?>
<!DOCTYPE svg PUBLIC "-//W3C//DTD SVG 1.1//EN" "http://www.w3.org/Graphics/SVG/1.1/DTD/svg11.dtd">
<svg width="8.464566920499978in" height="10.984251957300003in"
 viewBox="0 0 8.464566920499978 10.984251957300003"
 xmlns="http://www.w3.org/2000/svg" version="1.1"
 xmlns:xlink="http://www.w3.org/1999/xlink">
<desc>Output from Flights of Ideas SVG Sketchup Plugin</desc>

<g id="text_annotations" font-size="0.393700787402" stroke="#000000" stroke-width=".05">
</g>
  <path id="face0-cut"
 style="fill:none;stroke:#0000FF;stroke-width:.05;stroke-miterlimit:4;stroke-dasharray:none;stroke-linejoin:round;stroke-linecap:round"
        d="M 1.2097173913917418,9.610942877114134 L 1.201568008976132,9.612015763662942 M 1.201568008976132,9.797234873960015 M 1.2179450986933118,9.798664912283105 M 1.3140966166385175,9.781694155269836 M 1.4025794959338465,9.740415818719317 M 1.477363774580198,9.677642953051773 M 1.5333530275746858,9.59765342532539 M 1.566731679852346,9.505898389665774 M 1.5737949930982025,9.425007889837943 M 1.3885758828011332,9.425007889837943 L 1.382203744023107,9.473409089167983 L 1.3635215784163004,9.518511826750444 L 1.3338025446930681,9.557242425554879 L 1.2950719458886317,9.586961459278108 L 1.2499692083061726,9.60564362488492 L 1.2097173913917418,9.610942877114134 "
  />
  <path id="face1-cut"
 style="fill:none;stroke:#0000FF;stroke-width:.05;stroke-miterlimit:4;stroke-dasharray:none;stroke-linejoin:round;stroke-linecap:round"
        d="M 7.2360339872452695,9.798050343653632 M 7.2629989115238285,9.796464561926872 M 7.262999006603296,9.610942877114134 L 7.249608737956086,9.610942877114134 L 7.214600050464268,9.610942877114134 L 7.169494974611331,9.586961459278161 L 7.130764375806896,9.557242425554847 L 7.101045342083664,9.518511826750437 L 7.082363176476859,9.47340908916797 L 7.075991037698829,9.42500788983796 M 6.891542239434925,9.425007889837946 M 6.895688535127954,9.495512264752584 M 6.926452207690071,9.588176807309654 M 6.98015098194872,9.669721657789928 M 7.053125375179617,9.73458966939318 M 7.140402303079961,9.778360194327746 "
  />
  <path id="face2-cut"
 style="fill:none;stroke:#0000FF;stroke-width:.05;stroke-miterlimit:4;stroke-dasharray:none;stroke-linejoin:round;stroke-linecap:round"
        d="M 7.9121841153419314,10.38526565861595 L 7.863782916011894,10.391637797393976 M 7.863782916011894,10.578645671218979 M 7.960585314671976,10.56590139366292 M 8.050790789836894,10.528537062449306 M 8.128251987445763,10.469098995002838 M 8.187690054892224,10.391637797393976 M 8.225054386105844,10.301432322229047 M 8.237798663661897,10.204629923568973 M 8.050790789836894,10.204629923568973 L 8.044418651058868,10.253031122899003 L 8.02573648545206,10.298133860481467 L 7.996017451728827,10.336864459285913 L 7.957286852924396,10.366583493009134 L 7.9121841153419314,10.38526565861595 "
  />
  <path id="face3-cut"
 style="fill:none;stroke:#0000FF;stroke-width:.05;stroke-miterlimit:4;stroke-dasharray:none;stroke-linejoin:round;stroke-linecap:round"
        d="M 7.960585314671976,9.843358453475016 M 7.863782916011894,9.830614175918981 M 7.863782916011894,10.01762204974397 L 7.9121841153419314,10.023994188522003 L 7.957286852924396,10.042676354128808 L 7.996017451728827,10.072395387852037 L 8.02573648545206,10.111125986656468 L 8.044418651058868,10.156228724238936 L 8.050790789836894,10.204629923568973 M 8.237798663661897,10.204629923568973 M 8.225054386105844,10.107827524908888 M 8.187690054892224,10.01762204974398 M 8.128251987445763,9.940160852135097 M 8.050790789836894,9.88072278468863 "
  />
  <path id="face4-cut"
 style="fill:none;stroke:#0000FF;stroke-width:.05;stroke-miterlimit:4;stroke-dasharray:none;stroke-linejoin:round;stroke-linecap:round"
        d="M 1.2824585088039628,9.059844218961729 M 1.201568008976132,9.052780905715874 M 1.201568008976132,9.238000016012943 L 1.2499692083061726,9.244372154790966 L 1.2950719458886317,9.263054320397778 L 1.3338025446930681,9.292773354121007 L 1.3635215784163004,9.331503952925441 L 1.382203744023107,9.376606690507902 L 1.387502996252323,9.416858507422333 L 1.3885758828011332,9.425007889837943 M 1.5737949930982025,9.425007889837943 M 1.575225031421292,9.408630800120765 M 1.5582542744080288,9.312479282175559 M 1.5169759378575025,9.223996402880232 M 1.4542030721899606,9.14921212423388 M 1.3742135444635795,9.09322287123939 "
  />
  <path id="face5-cut"
 style="fill:none;stroke:#0000FF;stroke-width:.05;stroke-miterlimit:4;stroke-dasharray:none;stroke-linejoin:round;stroke-linecap:round"
        d="M 1.1206775091483012,9.790171560714157 M 1.201568008976132,9.797234873960015 M 1.201568008976132,9.612015763662942 L 1.1531668096460932,9.60564362488492 L 1.1080640720636323,9.586961459278108 L 1.069333473259196,9.557242425554879 L 1.0396144395359672,9.518511826750444 L 1.020932273929157,9.473409089167983 L 1.0156330216999445,9.433157272253556 L 1.0145601351511326,9.425007889837943 M 0.829341024854065,9.425007889837943 M 0.8279109865309736,9.441384979555124 M 0.8448817435442387,9.537536497500327 M 0.8861600800947614,9.62601937679566 M 0.9489329457623051,9.700803655442005 M 1.0289224734886864,9.756792908436495 "
  />
  <path id="face6-cut"
 style="fill:none;stroke:#0000FF;stroke-width:.05;stroke-miterlimit:4;stroke-dasharray:none;stroke-linejoin:round;stroke-linecap:round"
        d="M 0.2289966146446575,10.163863316601812 M 0.2298808047567055,10.204629923568973 M 0.41377613066306485,10.204629923568973 L 0.4201482694410893,10.156228724238932 L 0.4388304350479012,10.111125986656472 L 0.4685494687711299,10.072395387852037 L 0.5072800675755645,10.042676354128808 L 0.5523828051580254,10.023994188521996 L 0.600784004488066,10.017622049743974 M 0.600784004488066,9.83372672383761 M 0.5439358657873915,9.834959707543312 M 0.4501952268260184,9.862269295674295 M 0.36671696420259015,9.912910194818608 M 0.29918998356054527,9.983431311387612 M 0.25221613703702606,10.069026747828786 "
  />
  <path id="face7-cut"
 style="fill:none;stroke:#0000FF;stroke-width:.05;stroke-miterlimit:4;stroke-dasharray:none;stroke-linejoin:round;stroke-linecap:round"
        d="M 7.311402412028,9.610942877114134 L 7.262999006603296,9.610942877114134 M 7.2629989115238285,9.796464561926872 M 7.333503286438523,9.792318266233796 M 7.4261678289953235,9.761554593671725 M 7.507712679475828,9.707855819413023 M 7.572580691079034,9.634881426182094 M 7.616351216013625,9.547604498281771 M 7.636041365339539,9.451972814116488 M 7.6344555836127395,9.42500788983795 M 7.450006785348831,9.42500788983795 L 7.448243930367168,9.438398102815043 L 7.443634646570802,9.47340908916794 L 7.424952480963997,9.518511826750483 L 7.395233447240765,9.55724242555483 L 7.35650284843633,9.586961459278161 L 7.311402412028,9.610942877114134 "
  />
  <path id="face8-cut"
 style="fill:none;stroke:#0000FF;stroke-width:.05;stroke-miterlimit:4;stroke-dasharray:none;stroke-linejoin:round;stroke-linecap:round"
        d="M 7.289963835802391,9.051965436022229 M 7.2629989115238285,9.053551217749032 M 7.2629989115238285,9.23800001601295 L 7.276389124500929,9.23976287099459 L 7.311400110853869,9.244372154790959 L 7.35650284843633,9.263054320397764 L 7.395233447240765,9.292773354120992 L 7.424952480963997,9.331503952925441 L 7.443634646570802,9.37660669050792 L 7.450006785348831,9.42500788983795 M 7.6344555836127395,9.42500788983795 M 7.630309287919706,9.35450351492323 M 7.599545615357593,9.261838972366455 M 7.545846841098941,9.180294121885936 M 7.472872447868044,9.115426110282755 M 7.385595519967703,9.07165558534815 "
  />
  <path id="face9-cut"
 style="fill:none;stroke:#0000FF;stroke-width:.05;stroke-miterlimit:4;stroke-dasharray:none;stroke-linejoin:round;stroke-linecap:round"
        d="M 0.6491852038181066,10.38526565861595 L 0.600784004488066,10.391637797393972 M 0.600784004488066,10.575533123300335 M 0.6576321431887405,10.57430013959463 M 0.7513727821501136,10.546990551463647 M 0.8348510447735419,10.496349652319338 M 0.9023780254155885,10.42582853575033 M 0.9493518719391077,10.340233099309156 M 0.9725713943314745,10.245396530536134 M 0.9716872042194283,10.204629923568973 M 0.7877918783130654,10.204629923568973 L 0.7814197395350427,10.253031122899014 L 0.7627375739282326,10.298133860481474 L 0.7330185402050003,10.33686445928591 L 0.6942879414005657,10.366583493009134 L 0.6491852038181066,10.38526565861595 "
  />
  <path id="face10-cut"
 style="fill:none;stroke:#0000FF;stroke-width:.05;stroke-miterlimit:4;stroke-dasharray:none;stroke-linejoin:round;stroke-linecap:round"
        d="M 0.5600173975209072,10.576417313412382 M 0.600784004488066,10.575533123300335 M 0.600784004488066,10.391637797393972 L 0.5523828051580254,10.38526565861595 L 0.5072800675755645,10.366583493009134 L 0.4685494687711299,10.33686445928591 L 0.4388304350479012,10.298133860481474 L 0.4201482694410893,10.253031122899014 L 0.41377613066306485,10.204629923568973 M 0.2298808047567055,10.204629923568973 M 0.23111378846240718,10.261478062269646 M 0.25842337659338643,10.35521870123102 M 0.30906427573770234,10.43869696385445 M 0.37958539230670507,10.506223944496494 M 0.46518082874788125,10.553197791020011 "
  />
  <path id="face11-cut"
 style="fill:none;stroke:#0000FF;stroke-width:.05;stroke-miterlimit:4;stroke-dasharray:none;stroke-linejoin:round;stroke-linecap:round"
        d="M 7.766980517351813,10.56590139366292 M 7.863782916011894,10.578645671218979 M 7.863782916011894,10.391637797393976 L 7.815381716681857,10.385265658615957 L 7.7702789790993965,10.366583493009134 L 7.731548380294958,10.336864459285913 L 7.70182934657173,10.298133860481474 L 7.683147180964921,10.253031122899014 L 7.676775042186891,10.204629923568977 M 7.489767168361892,10.20462992356898 M 7.502511445917941,10.301432322229047 M 7.539875777131561,10.391637797393976 M 7.599313844578022,10.469098995002838 M 7.676775042186891,10.528537062449303 "
  />
  <path id="face12-cut"
 style="fill:none;stroke:#0000FF;stroke-width:.05;stroke-miterlimit:4;stroke-dasharray:none;stroke-linejoin:round;stroke-linecap:round"
        d="M 8.464566920499964,10.984251957300003 L 8.464566920499978,1.3867411423909767e-16 L 1.3867411423909767e-16,1.3867411423909767e-16 L 1.3867411423909767e-16,10.9842519573 L 8.464566920499964,10.984251957300003 M 3.6417322797499843,6.514990627745785 L 3.39711797151144,6.327291467388548 L 3.2094188111542064,6.082677159150009 L 3.091426186269091,5.797817763892358 L 3.051181099249984,5.492125978650002 L 3.091426186269091,5.186434193407649 L 3.2094188111542064,4.901574798150005 L 3.39711797151144,4.656960489911462 L 3.6417322797499843,4.469261329554225 L 3.9265916750076304,4.35126870466911 L 4.232283460249983,4.3110236176500045 L 4.537975245492339,4.35126870466911 L 4.822834640749987,4.469261329554225 L 5.067448948988529,4.656960489911462 L 5.255148109345766,4.901574798150005 L 5.373140734230882,5.186434193407649 L 5.413385821249987,5.492125978650002 L 5.373140734230882,5.797817763892358 L 5.255148109345766,6.082677159150009 L 5.067448948988529,6.327291467388548 L 4.822834640749987,6.514990627745785 L 4.537975245492339,6.6329832526309005 L 4.232283460249983,6.673228339650009 L 3.9265916750076304,6.6329832526309005 L 3.6417322797499843,6.514990627745785 M 7.4261678289953235,9.761554593671725 M 7.333503286438523,9.792318266233796 M 7.2629989115238285,9.796464561926872 M 7.2360339872452695,9.798050343653632 M 7.140402303079961,9.778360194327746 M 7.053125375179617,9.73458966939318 M 6.98015098194872,9.669721657789928 M 6.926452207690071,9.588176807309654 M 6.895688535127954,9.495512264752584 M 6.891542239434925,9.425007889837946 M 6.889956457708125,9.398042965559362 M 6.909646607034039,9.302411281394065 M 6.95341713196863,9.215134353493745 M 7.018285143571832,9.142159960262841 M 7.099829994052337,9.088461186004174 M 7.192494536609141,9.05769751344208 M 7.2629989115238285,9.053551217749032 M 7.289963835802391,9.051965436022229 M 7.385595519967703,9.07165558534815 M 7.472872447868044,9.115426110282755 M 7.545846841098941,9.180294121885936 M 7.599545615357593,9.261838972366455 M 7.630309287919706,9.35450351492323 M 7.6344555836127395,9.42500788983795 M 7.636041365339539,9.451972814116488 M 7.616351216013625,9.547604498281771 M 7.572580691079034,9.634881426182094 M 7.507712679475828,9.707855819413023 M 8.050790789836894,10.528537062449306 M 7.960585314671976,10.56590139366292 M 7.863782916011894,10.578645671218979 M 7.766980517351813,10.56590139366292 M 7.676775042186891,10.528537062449303 M 7.599313844578022,10.469098995002838 M 7.539875777131561,10.391637797393976 M 7.502511445917941,10.301432322229047 M 7.489767168361892,10.20462992356898 M 7.502511445917941,10.107827524908899 M 7.539875777131561,10.01762204974398 M 7.599313844578022,9.940160852135104 M 7.676775042186891,9.880722784688633 M 7.766980517351813,9.843358453475044 M 7.863782916011894,9.830614175918981 M 7.960585314671976,9.843358453475016 M 8.050790789836894,9.88072278468863 M 8.128251987445763,9.940160852135097 M 8.187690054892224,10.01762204974398 M 8.225054386105844,10.107827524908888 M 8.237798663661897,10.204629923568973 M 8.225054386105844,10.301432322229047 M 8.187690054892224,10.391637797393976 M 8.128251987445763,10.469098995002838 M 0.25221613703702606,10.069026747828786 M 0.29918998356054527,9.983431311387612 M 0.36671696420259015,9.912910194818608 M 0.4501952268260184,9.862269295674295 M 0.5439358657873915,9.834959707543312 M 0.600784004488066,9.83372672383761 M 0.6415506114552266,9.832842533725564 M 0.7363871802282526,9.856062056117935 M 0.8219826166694252,9.903035902641449 M 0.8925037332384315,9.970562883283495 M 0.9431446323827474,10.054041145906925 M 0.9704542205137267,10.1477817848683 M 0.9716872042194283,10.204629923568973 M 0.9725713943314745,10.245396530536134 M 0.9493518719391077,10.340233099309156 M 0.9023780254155885,10.42582853575033 M 0.8348510447735419,10.496349652319338 M 0.7513727821501136,10.546990551463647 M 0.6576321431887405,10.57430013959463 M 0.600784004488066,10.575533123300335 M 0.5600173975209072,10.576417313412382 M 0.46518082874788125,10.553197791020011 M 0.37958539230670507,10.506223944496494 M 0.30906427573770234,10.43869696385445 M 0.25842337659338643,10.35521870123102 M 0.23111378846240718,10.261478062269646 M 0.2298808047567055,10.204629923568973 M 0.2289966146446575,10.163863316601812 M 1.201568008976132,9.797234873960015 M 1.1206775091483012,9.790171560714157 M 1.0289224734886864,9.756792908436495 M 0.9489329457623051,9.700803655442005 M 0.8861600800947614,9.62601937679566 M 0.8448817435442387,9.537536497500327 M 0.8279109865309736,9.441384979555124 M 0.829341024854065,9.425007889837943 M 0.8364043380999197,9.344117390010112 M 0.8697829903775817,9.252362354350495 M 0.925772243372066,9.172372826624112 M 1.0005565220184194,9.109599960956569 M 1.0890394013137465,9.06832162440605 M 1.185190919258954,9.051350867392784 M 1.201568008976132,9.052780905715874 M 1.2824585088039628,9.059844218961729 M 1.3742135444635795,9.09322287123939 M 1.4542030721899606,9.14921212423388 M 1.5169759378575025,9.223996402880232 M 1.5582542744080288,9.312479282175559 M 1.575225031421292,9.408630800120765 M 1.5737949930982025,9.425007889837943 M 1.566731679852346,9.505898389665774 M 1.5333530275746858,9.59765342532539 M 1.477363774580198,9.677642953051773 M 1.4025794959338465,9.740415818719317 M 1.3140966166385175,9.781694155269836 M 1.2179450986933118,9.798664912283105 "
  />
  <path id="face13-cut"
 style="fill:none;stroke:#0000FF;stroke-width:.05;stroke-miterlimit:4;stroke-dasharray:none;stroke-linejoin:round;stroke-linecap:round"
        d="M 7.815381716681857,10.023994188522003 L 7.863782916011894,10.01762204974397 M 7.863782916011894,9.830614175918981 M 7.766980517351813,9.843358453475044 M 7.676775042186891,9.880722784688633 M 7.599313844578022,9.940160852135104 M 7.539875777131561,10.01762204974398 M 7.502511445917941,10.107827524908899 M 7.489767168361892,10.20462992356898 M 7.676775042186891,10.204629923568977 L 7.683147180964921,10.156228724238929 L 7.70182934657173,10.111125986656461 L 7.731548380294958,10.072395387852048 L 7.7702789790993965,10.04267635412879 L 7.815381716681857,10.023994188522003 "
  />
  <path id="face14-cut"
 style="fill:none;stroke:#0000FF;stroke-width:.05;stroke-miterlimit:4;stroke-dasharray:none;stroke-linejoin:round;stroke-linecap:round"
        d="M 7.214597712193795,9.244372154790959 L 7.2629989115238285,9.23800001601295 M 7.2629989115238285,9.053551217749032 M 7.192494536609141,9.05769751344208 M 7.099829994052337,9.088461186004174 M 7.018285143571832,9.142159960262841 M 6.95341713196863,9.215134353493745 M 6.909646607034039,9.302411281394065 M 6.889956457708125,9.398042965559362 M 6.891542239434925,9.425007889837946 M 7.075991037698829,9.42500788983796 L 7.077753892680493,9.411617676860836 L 7.082363176476859,9.376606690507899 L 7.101045342083664,9.331503952925448 L 7.130764375806896,9.292773354121017 L 7.169494974611331,9.263054320397778 L 7.214597712193795,9.244372154790959 "
  />
  <path id="face15-cut"
 style="fill:none;stroke:#0000FF;stroke-width:.05;stroke-miterlimit:4;stroke-dasharray:none;stroke-linejoin:round;stroke-linecap:round"
        d="M 0.7814197395350427,10.156228724238932 L 0.7877918783130654,10.204629923568973 M 0.9716872042194283,10.204629923568973 M 0.9704542205137267,10.1477817848683 M 0.9431446323827474,10.054041145906925 M 0.8925037332384315,9.970562883283495 M 0.8219826166694252,9.903035902641449 M 0.7363871802282526,9.856062056117935 M 0.6415506114552266,9.832842533725564 M 0.600784004488066,9.83372672383761 M 0.600784004488066,10.017622049743974 L 0.6491852038181066,10.023994188521996 L 0.6942879414005657,10.042676354128808 L 0.7330185402050003,10.072395387852037 L 0.7627375739282326,10.111125986656472 L 0.7814197395350427,10.156228724238932 "
  />
  <path id="face16-cut"
 style="fill:none;stroke:#0000FF;stroke-width:.05;stroke-miterlimit:4;stroke-dasharray:none;stroke-linejoin:round;stroke-linecap:round"
        d="M 1.1934186265605222,9.239072902561752 L 1.201568008976132,9.238000016012943 M 1.201568008976132,9.052780905715874 M 1.185190919258954,9.051350867392784 M 1.0890394013137465,9.06832162440605 M 1.0005565220184194,9.109599960956569 M 0.925772243372066,9.172372826624112 M 0.8697829903775817,9.252362354350495 M 0.8364043380999197,9.344117390010112 M 0.829341024854065,9.425007889837943 M 1.0145601351511326,9.425007889837943 L 1.020932273929157,9.376606690507902 L 1.0396144395359672,9.331503952925441 L 1.069333473259196,9.292773354121007 L 1.1080640720636323,9.263054320397778 L 1.1531668096460932,9.244372154790966 L 1.1934186265605222,9.239072902561752 "
  />
  <path id="face0-interior"
 style="fill:none;stroke:#FF0000;stroke-width:.05;stroke-miterlimit:4;stroke-dasharray:none;stroke-linejoin:round;stroke-linecap:round"
        d="M 1.2097173913917418,9.610942877114134 M 1.201568008976132,9.612015763662942 L 1.201568008976132,9.797234873960015 L 1.2179450986933118,9.798664912283105 L 1.3140966166385175,9.781694155269836 L 1.4025794959338465,9.740415818719317 L 1.477363774580198,9.677642953051773 L 1.5333530275746858,9.59765342532539 L 1.566731679852346,9.505898389665774 L 1.5737949930982025,9.425007889837943 L 1.3885758828011332,9.425007889837943 M 1.382203744023107,9.473409089167983 M 1.3635215784163004,9.518511826750444 M 1.3338025446930681,9.557242425554879 M 1.2950719458886317,9.586961459278108 M 1.2499692083061726,9.60564362488492 "
  />
  <path id="face1-interior"
 style="fill:none;stroke:#FF0000;stroke-width:.05;stroke-miterlimit:4;stroke-dasharray:none;stroke-linejoin:round;stroke-linecap:round"
        d="M 7.2360339872452695,9.798050343653632 L 7.2629989115238285,9.796464561926872 L 7.262999006603296,9.610942877114134 M 7.249608737956086,9.610942877114134 M 7.214600050464268,9.610942877114134 M 7.169494974611331,9.586961459278161 M 7.130764375806896,9.557242425554847 M 7.101045342083664,9.518511826750437 M 7.082363176476859,9.47340908916797 M 7.075991037698829,9.42500788983796 L 6.891542239434925,9.425007889837946 L 6.895688535127954,9.495512264752584 L 6.926452207690071,9.588176807309654 L 6.98015098194872,9.669721657789928 L 7.053125375179617,9.73458966939318 L 7.140402303079961,9.778360194327746 L 7.2360339872452695,9.798050343653632 "
  />
  <path id="face2-interior"
 style="fill:none;stroke:#FF0000;stroke-width:.05;stroke-miterlimit:4;stroke-dasharray:none;stroke-linejoin:round;stroke-linecap:round"
        d="M 7.9121841153419314,10.38526565861595 M 7.863782916011894,10.391637797393976 L 7.863782916011894,10.578645671218979 L 7.960585314671976,10.56590139366292 L 8.050790789836894,10.528537062449306 L 8.128251987445763,10.469098995002838 L 8.187690054892224,10.391637797393976 L 8.225054386105844,10.301432322229047 L 8.237798663661897,10.204629923568973 L 8.050790789836894,10.204629923568973 M 8.044418651058868,10.253031122899003 M 8.02573648545206,10.298133860481467 M 7.996017451728827,10.336864459285913 M 7.957286852924396,10.366583493009134 "
  />
  <path id="face3-interior"
 style="fill:none;stroke:#FF0000;stroke-width:.05;stroke-miterlimit:4;stroke-dasharray:none;stroke-linejoin:round;stroke-linecap:round"
        d="M 7.960585314671976,9.843358453475016 L 7.863782916011894,9.830614175918981 L 7.863782916011894,10.01762204974397 M 7.9121841153419314,10.023994188522003 M 7.957286852924396,10.042676354128808 M 7.996017451728827,10.072395387852037 M 8.02573648545206,10.111125986656468 M 8.044418651058868,10.156228724238936 M 8.050790789836894,10.204629923568973 M 8.237798663661897,10.204629923568973 L 8.225054386105844,10.107827524908888 L 8.187690054892224,10.01762204974398 L 8.128251987445763,9.940160852135097 L 8.050790789836894,9.88072278468863 L 7.960585314671976,9.843358453475016 "
  />
  <path id="face4-interior"
 style="fill:none;stroke:#FF0000;stroke-width:.05;stroke-miterlimit:4;stroke-dasharray:none;stroke-linejoin:round;stroke-linecap:round"
        d="M 1.2824585088039628,9.059844218961729 L 1.201568008976132,9.052780905715874 L 1.201568008976132,9.238000016012943 M 1.2499692083061726,9.244372154790966 M 1.2950719458886317,9.263054320397778 M 1.3338025446930681,9.292773354121007 M 1.3635215784163004,9.331503952925441 M 1.382203744023107,9.376606690507902 M 1.387502996252323,9.416858507422333 M 1.3885758828011332,9.425007889837943 M 1.5737949930982025,9.425007889837943 L 1.575225031421292,9.408630800120765 L 1.5582542744080288,9.312479282175559 L 1.5169759378575025,9.223996402880232 L 1.4542030721899606,9.14921212423388 L 1.3742135444635795,9.09322287123939 L 1.2824585088039628,9.059844218961729 "
  />
  <path id="face5-interior"
 style="fill:none;stroke:#FF0000;stroke-width:.05;stroke-miterlimit:4;stroke-dasharray:none;stroke-linejoin:round;stroke-linecap:round"
        d="M 1.1206775091483012,9.790171560714157 L 1.201568008976132,9.797234873960015 M 1.201568008976132,9.612015763662942 M 1.1531668096460932,9.60564362488492 M 1.1080640720636323,9.586961459278108 M 1.069333473259196,9.557242425554879 M 1.0396144395359672,9.518511826750444 M 1.020932273929157,9.473409089167983 M 1.0156330216999445,9.433157272253556 M 1.0145601351511326,9.425007889837943 L 0.829341024854065,9.425007889837943 L 0.8279109865309736,9.441384979555124 L 0.8448817435442387,9.537536497500327 L 0.8861600800947614,9.62601937679566 L 0.9489329457623051,9.700803655442005 L 1.0289224734886864,9.756792908436495 L 1.1206775091483012,9.790171560714157 "
  />
  <path id="face6-interior"
 style="fill:none;stroke:#FF0000;stroke-width:.05;stroke-miterlimit:4;stroke-dasharray:none;stroke-linejoin:round;stroke-linecap:round"
        d="M 0.2289966146446575,10.163863316601812 L 0.2298808047567055,10.204629923568973 L 0.41377613066306485,10.204629923568973 M 0.4201482694410893,10.156228724238932 M 0.4388304350479012,10.111125986656472 M 0.4685494687711299,10.072395387852037 M 0.5072800675755645,10.042676354128808 M 0.5523828051580254,10.023994188521996 M 0.600784004488066,10.017622049743974 L 0.600784004488066,9.83372672383761 L 0.5439358657873915,9.834959707543312 L 0.4501952268260184,9.862269295674295 L 0.36671696420259015,9.912910194818608 L 0.29918998356054527,9.983431311387612 L 0.25221613703702606,10.069026747828786 L 0.2289966146446575,10.163863316601812 "
  />
  <path id="face7-interior"
 style="fill:none;stroke:#FF0000;stroke-width:.05;stroke-miterlimit:4;stroke-dasharray:none;stroke-linejoin:round;stroke-linecap:round"
        d="M 7.311402412028,9.610942877114134 M 7.262999006603296,9.610942877114134 M 7.2629989115238285,9.796464561926872 L 7.333503286438523,9.792318266233796 L 7.4261678289953235,9.761554593671725 L 7.507712679475828,9.707855819413023 L 7.572580691079034,9.634881426182094 L 7.616351216013625,9.547604498281771 L 7.636041365339539,9.451972814116488 L 7.6344555836127395,9.42500788983795 L 7.450006785348831,9.42500788983795 M 7.448243930367168,9.438398102815043 M 7.443634646570802,9.47340908916794 M 7.424952480963997,9.518511826750483 M 7.395233447240765,9.55724242555483 M 7.35650284843633,9.586961459278161 "
  />
  <path id="face8-interior"
 style="fill:none;stroke:#FF0000;stroke-width:.05;stroke-miterlimit:4;stroke-dasharray:none;stroke-linejoin:round;stroke-linecap:round"
        d="M 7.289963835802391,9.051965436022229 L 7.2629989115238285,9.053551217749032 L 7.2629989115238285,9.23800001601295 M 7.276389124500929,9.23976287099459 M 7.311400110853869,9.244372154790959 M 7.35650284843633,9.263054320397764 M 7.395233447240765,9.292773354120992 M 7.424952480963997,9.331503952925441 M 7.443634646570802,9.37660669050792 M 7.450006785348831,9.42500788983795 M 7.6344555836127395,9.42500788983795 L 7.630309287919706,9.35450351492323 L 7.599545615357593,9.261838972366455 L 7.545846841098941,9.180294121885936 L 7.472872447868044,9.115426110282755 L 7.385595519967703,9.07165558534815 L 7.289963835802391,9.051965436022229 "
  />
  <path id="face9-interior"
 style="fill:none;stroke:#FF0000;stroke-width:.05;stroke-miterlimit:4;stroke-dasharray:none;stroke-linejoin:round;stroke-linecap:round"
        d="M 0.6491852038181066,10.38526565861595 M 0.600784004488066,10.391637797393972 L 0.600784004488066,10.575533123300335 L 0.6576321431887405,10.57430013959463 L 0.7513727821501136,10.546990551463647 L 0.8348510447735419,10.496349652319338 L 0.9023780254155885,10.42582853575033 L 0.9493518719391077,10.340233099309156 L 0.9725713943314745,10.245396530536134 L 0.9716872042194283,10.204629923568973 L 0.7877918783130654,10.204629923568973 M 0.7814197395350427,10.253031122899014 M 0.7627375739282326,10.298133860481474 M 0.7330185402050003,10.33686445928591 M 0.6942879414005657,10.366583493009134 "
  />
  <path id="face10-interior"
 style="fill:none;stroke:#FF0000;stroke-width:.05;stroke-miterlimit:4;stroke-dasharray:none;stroke-linejoin:round;stroke-linecap:round"
        d="M 0.5600173975209072,10.576417313412382 L 0.600784004488066,10.575533123300335 M 0.600784004488066,10.391637797393972 M 0.5523828051580254,10.38526565861595 M 0.5072800675755645,10.366583493009134 M 0.4685494687711299,10.33686445928591 M 0.4388304350479012,10.298133860481474 M 0.4201482694410893,10.253031122899014 M 0.41377613066306485,10.204629923568973 M 0.2298808047567055,10.204629923568973 L 0.23111378846240718,10.261478062269646 L 0.25842337659338643,10.35521870123102 L 0.30906427573770234,10.43869696385445 L 0.37958539230670507,10.506223944496494 L 0.46518082874788125,10.553197791020011 L 0.5600173975209072,10.576417313412382 "
  />
  <path id="face11-interior"
 style="fill:none;stroke:#FF0000;stroke-width:.05;stroke-miterlimit:4;stroke-dasharray:none;stroke-linejoin:round;stroke-linecap:round"
        d="M 7.766980517351813,10.56590139366292 L 7.863782916011894,10.578645671218979 M 7.863782916011894,10.391637797393976 M 7.815381716681857,10.385265658615957 M 7.7702789790993965,10.366583493009134 M 7.731548380294958,10.336864459285913 M 7.70182934657173,10.298133860481474 M 7.683147180964921,10.253031122899014 M 7.676775042186891,10.204629923568977 L 7.489767168361892,10.20462992356898 L 7.502511445917941,10.301432322229047 L 7.539875777131561,10.391637797393976 L 7.599313844578022,10.469098995002838 L 7.676775042186891,10.528537062449303 L 7.766980517351813,10.56590139366292 "
  />
  <path id="face12-interior"
 style="fill:none;stroke:#FF0000;stroke-width:.05;stroke-miterlimit:4;stroke-dasharray:none;stroke-linejoin:round;stroke-linecap:round"
        d="M 8.464566920499964,10.984251957300003 M 8.464566920499978,1.3867411423909767e-16 M 1.3867411423909767e-16,1.3867411423909767e-16 M 1.3867411423909767e-16,10.9842519573 M 3.6417322797499843,6.514990627745785 M 3.39711797151144,6.327291467388548 M 3.2094188111542064,6.082677159150009 M 3.091426186269091,5.797817763892358 M 3.051181099249984,5.492125978650002 M 3.091426186269091,5.186434193407649 M 3.2094188111542064,4.901574798150005 M 3.39711797151144,4.656960489911462 M 3.6417322797499843,4.469261329554225 M 3.9265916750076304,4.35126870466911 M 4.232283460249983,4.3110236176500045 M 4.537975245492339,4.35126870466911 M 4.822834640749987,4.469261329554225 M 5.067448948988529,4.656960489911462 M 5.255148109345766,4.901574798150005 M 5.373140734230882,5.186434193407649 M 5.413385821249987,5.492125978650002 M 5.373140734230882,5.797817763892358 M 5.255148109345766,6.082677159150009 M 5.067448948988529,6.327291467388548 M 4.822834640749987,6.514990627745785 M 4.537975245492339,6.6329832526309005 M 4.232283460249983,6.673228339650009 M 3.9265916750076304,6.6329832526309005 M 7.4261678289953235,9.761554593671725 M 7.333503286438523,9.792318266233796 M 7.2629989115238285,9.796464561926872 M 7.2360339872452695,9.798050343653632 M 7.140402303079961,9.778360194327746 M 7.053125375179617,9.73458966939318 M 6.98015098194872,9.669721657789928 M 6.926452207690071,9.588176807309654 M 6.895688535127954,9.495512264752584 M 6.891542239434925,9.425007889837946 L 6.889956457708125,9.398042965559362 L 6.909646607034039,9.302411281394065 L 6.95341713196863,9.215134353493745 L 7.018285143571832,9.142159960262841 L 7.099829994052337,9.088461186004174 L 7.192494536609141,9.05769751344208 L 7.2629989115238285,9.053551217749032 M 7.289963835802391,9.051965436022229 M 7.385595519967703,9.07165558534815 M 7.472872447868044,9.115426110282755 M 7.545846841098941,9.180294121885936 M 7.599545615357593,9.261838972366455 M 7.630309287919706,9.35450351492323 M 7.6344555836127395,9.42500788983795 M 7.636041365339539,9.451972814116488 M 7.616351216013625,9.547604498281771 M 7.572580691079034,9.634881426182094 M 7.507712679475828,9.707855819413023 M 8.050790789836894,10.528537062449306 M 7.960585314671976,10.56590139366292 M 7.863782916011894,10.578645671218979 M 7.766980517351813,10.56590139366292 M 7.676775042186891,10.528537062449303 M 7.599313844578022,10.469098995002838 M 7.539875777131561,10.391637797393976 M 7.502511445917941,10.301432322229047 M 7.489767168361892,10.20462992356898 L 7.502511445917941,10.107827524908899 L 7.539875777131561,10.01762204974398 L 7.599313844578022,9.940160852135104 L 7.676775042186891,9.880722784688633 L 7.766980517351813,9.843358453475044 L 7.863782916011894,9.830614175918981 M 7.960585314671976,9.843358453475016 M 8.050790789836894,9.88072278468863 M 8.128251987445763,9.940160852135097 M 8.187690054892224,10.01762204974398 M 8.225054386105844,10.107827524908888 M 8.237798663661897,10.204629923568973 M 8.225054386105844,10.301432322229047 M 8.187690054892224,10.391637797393976 M 8.128251987445763,10.469098995002838 M 0.25221613703702606,10.069026747828786 M 0.29918998356054527,9.983431311387612 M 0.36671696420259015,9.912910194818608 M 0.4501952268260184,9.862269295674295 M 0.5439358657873915,9.834959707543312 M 0.600784004488066,9.83372672383761 L 0.6415506114552266,9.832842533725564 L 0.7363871802282526,9.856062056117935 L 0.8219826166694252,9.903035902641449 L 0.8925037332384315,9.970562883283495 L 0.9431446323827474,10.054041145906925 L 0.9704542205137267,10.1477817848683 L 0.9716872042194283,10.204629923568973 M 0.9725713943314745,10.245396530536134 M 0.9493518719391077,10.340233099309156 M 0.9023780254155885,10.42582853575033 M 0.8348510447735419,10.496349652319338 M 0.7513727821501136,10.546990551463647 M 0.6576321431887405,10.57430013959463 M 0.600784004488066,10.575533123300335 M 0.5600173975209072,10.576417313412382 M 0.46518082874788125,10.553197791020011 M 0.37958539230670507,10.506223944496494 M 0.30906427573770234,10.43869696385445 M 0.25842337659338643,10.35521870123102 M 0.23111378846240718,10.261478062269646 M 0.2298808047567055,10.204629923568973 M 0.2289966146446575,10.163863316601812 M 1.201568008976132,9.797234873960015 M 1.1206775091483012,9.790171560714157 M 1.0289224734886864,9.756792908436495 M 0.9489329457623051,9.700803655442005 M 0.8861600800947614,9.62601937679566 M 0.8448817435442387,9.537536497500327 M 0.8279109865309736,9.441384979555124 M 0.829341024854065,9.425007889837943 L 0.8364043380999197,9.344117390010112 L 0.8697829903775817,9.252362354350495 L 0.925772243372066,9.172372826624112 L 1.0005565220184194,9.109599960956569 L 1.0890394013137465,9.06832162440605 L 1.185190919258954,9.051350867392784 L 1.201568008976132,9.052780905715874 M 1.2824585088039628,9.059844218961729 M 1.3742135444635795,9.09322287123939 M 1.4542030721899606,9.14921212423388 M 1.5169759378575025,9.223996402880232 M 1.5582542744080288,9.312479282175559 M 1.575225031421292,9.408630800120765 M 1.5737949930982025,9.425007889837943 M 1.566731679852346,9.505898389665774 M 1.5333530275746858,9.59765342532539 M 1.477363774580198,9.677642953051773 M 1.4025794959338465,9.740415818719317 M 1.3140966166385175,9.781694155269836 M 1.2179450986933118,9.798664912283105 "
  />
  <path id="face13-interior"
 style="fill:none;stroke:#FF0000;stroke-width:.05;stroke-miterlimit:4;stroke-dasharray:none;stroke-linejoin:round;stroke-linecap:round"
        d="M 7.815381716681857,10.023994188522003 M 7.863782916011894,10.01762204974397 M 7.863782916011894,9.830614175918981 M 7.766980517351813,9.843358453475044 M 7.676775042186891,9.880722784688633 M 7.599313844578022,9.940160852135104 M 7.539875777131561,10.01762204974398 M 7.502511445917941,10.107827524908899 M 7.489767168361892,10.20462992356898 M 7.676775042186891,10.204629923568977 M 7.683147180964921,10.156228724238929 M 7.70182934657173,10.111125986656461 M 7.731548380294958,10.072395387852048 M 7.7702789790993965,10.04267635412879 "
  />
  <path id="face14-interior"
 style="fill:none;stroke:#FF0000;stroke-width:.05;stroke-miterlimit:4;stroke-dasharray:none;stroke-linejoin:round;stroke-linecap:round"
        d="M 7.214597712193795,9.244372154790959 M 7.2629989115238285,9.23800001601295 M 7.2629989115238285,9.053551217749032 M 7.192494536609141,9.05769751344208 M 7.099829994052337,9.088461186004174 M 7.018285143571832,9.142159960262841 M 6.95341713196863,9.215134353493745 M 6.909646607034039,9.302411281394065 M 6.889956457708125,9.398042965559362 M 6.891542239434925,9.425007889837946 M 7.075991037698829,9.42500788983796 M 7.077753892680493,9.411617676860836 M 7.082363176476859,9.376606690507899 M 7.101045342083664,9.331503952925448 M 7.130764375806896,9.292773354121017 M 7.169494974611331,9.263054320397778 "
  />
  <path id="face15-interior"
 style="fill:none;stroke:#FF0000;stroke-width:.05;stroke-miterlimit:4;stroke-dasharray:none;stroke-linejoin:round;stroke-linecap:round"
        d="M 0.7814197395350427,10.156228724238932 M 0.7877918783130654,10.204629923568973 M 0.9716872042194283,10.204629923568973 M 0.9704542205137267,10.1477817848683 M 0.9431446323827474,10.054041145906925 M 0.8925037332384315,9.970562883283495 M 0.8219826166694252,9.903035902641449 M 0.7363871802282526,9.856062056117935 M 0.6415506114552266,9.832842533725564 M 0.600784004488066,9.83372672383761 M 0.600784004488066,10.017622049743974 M 0.6491852038181066,10.023994188521996 M 0.6942879414005657,10.042676354128808 M 0.7330185402050003,10.072395387852037 M 0.7627375739282326,10.111125986656472 "
  />
  <path id="face16-interior"
 style="fill:none;stroke:#FF0000;stroke-width:.05;stroke-miterlimit:4;stroke-dasharray:none;stroke-linejoin:round;stroke-linecap:round"
        d="M 1.1934186265605222,9.239072902561752 M 1.201568008976132,9.238000016012943 M 1.201568008976132,9.052780905715874 M 1.185190919258954,9.051350867392784 M 1.0890394013137465,9.06832162440605 M 1.0005565220184194,9.109599960956569 M 0.925772243372066,9.172372826624112 M 0.8697829903775817,9.252362354350495 M 0.8364043380999197,9.344117390010112 M 0.829341024854065,9.425007889837943 M 1.0145601351511326,9.425007889837943 M 1.020932273929157,9.376606690507902 M 1.0396144395359672,9.331503952925441 M 1.069333473259196,9.292773354121007 M 1.1080640720636323,9.263054320397778 M 1.1531668096460932,9.244372154790966 "
  />
  <path id="face0-interior"
 style="fill:none;stroke:#00FF00;stroke-width:.05;stroke-miterlimit:4;stroke-dasharray:none;stroke-linejoin:round;stroke-linecap:round"
        d="M 1.2097173913917418,9.610942877114134 M 1.201568008976132,9.612015763662942 M 1.201568008976132,9.797234873960015 M 1.2179450986933118,9.798664912283105 M 1.3140966166385175,9.781694155269836 M 1.4025794959338465,9.740415818719317 M 1.477363774580198,9.677642953051773 M 1.5333530275746858,9.59765342532539 M 1.566731679852346,9.505898389665774 M 1.5737949930982025,9.425007889837943 M 1.3885758828011332,9.425007889837943 M 1.382203744023107,9.473409089167983 M 1.3635215784163004,9.518511826750444 M 1.3338025446930681,9.557242425554879 M 1.2950719458886317,9.586961459278108 M 1.2499692083061726,9.60564362488492 "
  />
  <path id="face1-interior"
 style="fill:none;stroke:#00FF00;stroke-width:.05;stroke-miterlimit:4;stroke-dasharray:none;stroke-linejoin:round;stroke-linecap:round"
        d="M 7.2360339872452695,9.798050343653632 M 7.2629989115238285,9.796464561926872 M 7.262999006603296,9.610942877114134 M 7.249608737956086,9.610942877114134 M 7.214600050464268,9.610942877114134 M 7.169494974611331,9.586961459278161 M 7.130764375806896,9.557242425554847 M 7.101045342083664,9.518511826750437 M 7.082363176476859,9.47340908916797 M 7.075991037698829,9.42500788983796 M 6.891542239434925,9.425007889837946 M 6.895688535127954,9.495512264752584 M 6.926452207690071,9.588176807309654 M 6.98015098194872,9.669721657789928 M 7.053125375179617,9.73458966939318 M 7.140402303079961,9.778360194327746 "
  />
  <path id="face2-interior"
 style="fill:none;stroke:#00FF00;stroke-width:.05;stroke-miterlimit:4;stroke-dasharray:none;stroke-linejoin:round;stroke-linecap:round"
        d="M 7.9121841153419314,10.38526565861595 M 7.863782916011894,10.391637797393976 M 7.863782916011894,10.578645671218979 M 7.960585314671976,10.56590139366292 M 8.050790789836894,10.528537062449306 M 8.128251987445763,10.469098995002838 M 8.187690054892224,10.391637797393976 M 8.225054386105844,10.301432322229047 M 8.237798663661897,10.204629923568973 M 8.050790789836894,10.204629923568973 M 8.044418651058868,10.253031122899003 M 8.02573648545206,10.298133860481467 M 7.996017451728827,10.336864459285913 M 7.957286852924396,10.366583493009134 "
  />
  <path id="face3-interior"
 style="fill:none;stroke:#00FF00;stroke-width:.05;stroke-miterlimit:4;stroke-dasharray:none;stroke-linejoin:round;stroke-linecap:round"
        d="M 7.960585314671976,9.843358453475016 M 7.863782916011894,9.830614175918981 M 7.863782916011894,10.01762204974397 M 7.9121841153419314,10.023994188522003 M 7.957286852924396,10.042676354128808 M 7.996017451728827,10.072395387852037 M 8.02573648545206,10.111125986656468 M 8.044418651058868,10.156228724238936 M 8.050790789836894,10.204629923568973 M 8.237798663661897,10.204629923568973 M 8.225054386105844,10.107827524908888 M 8.187690054892224,10.01762204974398 M 8.128251987445763,9.940160852135097 M 8.050790789836894,9.88072278468863 "
  />
  <path id="face4-interior"
 style="fill:none;stroke:#00FF00;stroke-width:.05;stroke-miterlimit:4;stroke-dasharray:none;stroke-linejoin:round;stroke-linecap:round"
        d="M 1.2824585088039628,9.059844218961729 M 1.201568008976132,9.052780905715874 M 1.201568008976132,9.238000016012943 M 1.2499692083061726,9.244372154790966 M 1.2950719458886317,9.263054320397778 M 1.3338025446930681,9.292773354121007 M 1.3635215784163004,9.331503952925441 M 1.382203744023107,9.376606690507902 M 1.387502996252323,9.416858507422333 M 1.3885758828011332,9.425007889837943 M 1.5737949930982025,9.425007889837943 M 1.575225031421292,9.408630800120765 M 1.5582542744080288,9.312479282175559 M 1.5169759378575025,9.223996402880232 M 1.4542030721899606,9.14921212423388 M 1.3742135444635795,9.09322287123939 "
  />
  <path id="face5-interior"
 style="fill:none;stroke:#00FF00;stroke-width:.05;stroke-miterlimit:4;stroke-dasharray:none;stroke-linejoin:round;stroke-linecap:round"
        d="M 1.1206775091483012,9.790171560714157 M 1.201568008976132,9.797234873960015 M 1.201568008976132,9.612015763662942 M 1.1531668096460932,9.60564362488492 M 1.1080640720636323,9.586961459278108 M 1.069333473259196,9.557242425554879 M 1.0396144395359672,9.518511826750444 M 1.020932273929157,9.473409089167983 M 1.0156330216999445,9.433157272253556 M 1.0145601351511326,9.425007889837943 M 0.829341024854065,9.425007889837943 M 0.8279109865309736,9.441384979555124 M 0.8448817435442387,9.537536497500327 M 0.8861600800947614,9.62601937679566 M 0.9489329457623051,9.700803655442005 M 1.0289224734886864,9.756792908436495 "
  />
  <path id="face6-interior"
 style="fill:none;stroke:#00FF00;stroke-width:.05;stroke-miterlimit:4;stroke-dasharray:none;stroke-linejoin:round;stroke-linecap:round"
        d="M 0.2289966146446575,10.163863316601812 M 0.2298808047567055,10.204629923568973 M 0.41377613066306485,10.204629923568973 M 0.4201482694410893,10.156228724238932 M 0.4388304350479012,10.111125986656472 M 0.4685494687711299,10.072395387852037 M 0.5072800675755645,10.042676354128808 M 0.5523828051580254,10.023994188521996 M 0.600784004488066,10.017622049743974 M 0.600784004488066,9.83372672383761 M 0.5439358657873915,9.834959707543312 M 0.4501952268260184,9.862269295674295 M 0.36671696420259015,9.912910194818608 M 0.29918998356054527,9.983431311387612 M 0.25221613703702606,10.069026747828786 "
  />
  <path id="face7-interior"
 style="fill:none;stroke:#00FF00;stroke-width:.05;stroke-miterlimit:4;stroke-dasharray:none;stroke-linejoin:round;stroke-linecap:round"
        d="M 7.311402412028,9.610942877114134 M 7.262999006603296,9.610942877114134 M 7.2629989115238285,9.796464561926872 M 7.333503286438523,9.792318266233796 M 7.4261678289953235,9.761554593671725 M 7.507712679475828,9.707855819413023 M 7.572580691079034,9.634881426182094 M 7.616351216013625,9.547604498281771 M 7.636041365339539,9.451972814116488 M 7.6344555836127395,9.42500788983795 M 7.450006785348831,9.42500788983795 M 7.448243930367168,9.438398102815043 M 7.443634646570802,9.47340908916794 M 7.424952480963997,9.518511826750483 M 7.395233447240765,9.55724242555483 M 7.35650284843633,9.586961459278161 "
  />
  <path id="face8-interior"
 style="fill:none;stroke:#00FF00;stroke-width:.05;stroke-miterlimit:4;stroke-dasharray:none;stroke-linejoin:round;stroke-linecap:round"
        d="M 7.289963835802391,9.051965436022229 M 7.2629989115238285,9.053551217749032 M 7.2629989115238285,9.23800001601295 M 7.276389124500929,9.23976287099459 M 7.311400110853869,9.244372154790959 M 7.35650284843633,9.263054320397764 M 7.395233447240765,9.292773354120992 M 7.424952480963997,9.331503952925441 M 7.443634646570802,9.37660669050792 M 7.450006785348831,9.42500788983795 M 7.6344555836127395,9.42500788983795 M 7.630309287919706,9.35450351492323 M 7.599545615357593,9.261838972366455 M 7.545846841098941,9.180294121885936 M 7.472872447868044,9.115426110282755 M 7.385595519967703,9.07165558534815 "
  />
  <path id="face9-interior"
 style="fill:none;stroke:#00FF00;stroke-width:.05;stroke-miterlimit:4;stroke-dasharray:none;stroke-linejoin:round;stroke-linecap:round"
        d="M 0.6491852038181066,10.38526565861595 M 0.600784004488066,10.391637797393972 M 0.600784004488066,10.575533123300335 M 0.6576321431887405,10.57430013959463 M 0.7513727821501136,10.546990551463647 M 0.8348510447735419,10.496349652319338 M 0.9023780254155885,10.42582853575033 M 0.9493518719391077,10.340233099309156 M 0.9725713943314745,10.245396530536134 M 0.9716872042194283,10.204629923568973 M 0.7877918783130654,10.204629923568973 M 0.7814197395350427,10.253031122899014 M 0.7627375739282326,10.298133860481474 M 0.7330185402050003,10.33686445928591 M 0.6942879414005657,10.366583493009134 "
  />
  <path id="face10-interior"
 style="fill:none;stroke:#00FF00;stroke-width:.05;stroke-miterlimit:4;stroke-dasharray:none;stroke-linejoin:round;stroke-linecap:round"
        d="M 0.5600173975209072,10.576417313412382 M 0.600784004488066,10.575533123300335 M 0.600784004488066,10.391637797393972 M 0.5523828051580254,10.38526565861595 M 0.5072800675755645,10.366583493009134 M 0.4685494687711299,10.33686445928591 M 0.4388304350479012,10.298133860481474 M 0.4201482694410893,10.253031122899014 M 0.41377613066306485,10.204629923568973 M 0.2298808047567055,10.204629923568973 M 0.23111378846240718,10.261478062269646 M 0.25842337659338643,10.35521870123102 M 0.30906427573770234,10.43869696385445 M 0.37958539230670507,10.506223944496494 M 0.46518082874788125,10.553197791020011 "
  />
  <path id="face11-interior"
 style="fill:none;stroke:#00FF00;stroke-width:.05;stroke-miterlimit:4;stroke-dasharray:none;stroke-linejoin:round;stroke-linecap:round"
        d="M 7.766980517351813,10.56590139366292 M 7.863782916011894,10.578645671218979 M 7.863782916011894,10.391637797393976 M 7.815381716681857,10.385265658615957 M 7.7702789790993965,10.366583493009134 M 7.731548380294958,10.336864459285913 M 7.70182934657173,10.298133860481474 M 7.683147180964921,10.253031122899014 M 7.676775042186891,10.204629923568977 M 7.489767168361892,10.20462992356898 M 7.502511445917941,10.301432322229047 M 7.539875777131561,10.391637797393976 M 7.599313844578022,10.469098995002838 M 7.676775042186891,10.528537062449303 "
  />
  <path id="face12-interior"
 style="fill:none;stroke:#00FF00;stroke-width:.05;stroke-miterlimit:4;stroke-dasharray:none;stroke-linejoin:round;stroke-linecap:round"
        d="M 8.464566920499964,10.984251957300003 M 8.464566920499978,1.3867411423909767e-16 M 1.3867411423909767e-16,1.3867411423909767e-16 M 1.3867411423909767e-16,10.9842519573 M 3.6417322797499843,6.514990627745785 M 3.39711797151144,6.327291467388548 M 3.2094188111542064,6.082677159150009 M 3.091426186269091,5.797817763892358 M 3.051181099249984,5.492125978650002 M 3.091426186269091,5.186434193407649 M 3.2094188111542064,4.901574798150005 M 3.39711797151144,4.656960489911462 M 3.6417322797499843,4.469261329554225 M 3.9265916750076304,4.35126870466911 M 4.232283460249983,4.3110236176500045 M 4.537975245492339,4.35126870466911 M 4.822834640749987,4.469261329554225 M 5.067448948988529,4.656960489911462 M 5.255148109345766,4.901574798150005 M 5.373140734230882,5.186434193407649 M 5.413385821249987,5.492125978650002 M 5.373140734230882,5.797817763892358 M 5.255148109345766,6.082677159150009 M 5.067448948988529,6.327291467388548 M 4.822834640749987,6.514990627745785 M 4.537975245492339,6.6329832526309005 M 4.232283460249983,6.673228339650009 M 3.9265916750076304,6.6329832526309005 M 7.4261678289953235,9.761554593671725 M 7.333503286438523,9.792318266233796 M 7.2629989115238285,9.796464561926872 M 7.2360339872452695,9.798050343653632 M 7.140402303079961,9.778360194327746 M 7.053125375179617,9.73458966939318 M 6.98015098194872,9.669721657789928 M 6.926452207690071,9.588176807309654 M 6.895688535127954,9.495512264752584 M 6.891542239434925,9.425007889837946 M 6.889956457708125,9.398042965559362 M 6.909646607034039,9.302411281394065 M 6.95341713196863,9.215134353493745 M 7.018285143571832,9.142159960262841 M 7.099829994052337,9.088461186004174 M 7.192494536609141,9.05769751344208 M 7.2629989115238285,9.053551217749032 M 7.289963835802391,9.051965436022229 M 7.385595519967703,9.07165558534815 M 7.472872447868044,9.115426110282755 M 7.545846841098941,9.180294121885936 M 7.599545615357593,9.261838972366455 M 7.630309287919706,9.35450351492323 M 7.6344555836127395,9.42500788983795 M 7.636041365339539,9.451972814116488 M 7.616351216013625,9.547604498281771 M 7.572580691079034,9.634881426182094 M 7.507712679475828,9.707855819413023 M 8.050790789836894,10.528537062449306 M 7.960585314671976,10.56590139366292 M 7.863782916011894,10.578645671218979 M 7.766980517351813,10.56590139366292 M 7.676775042186891,10.528537062449303 M 7.599313844578022,10.469098995002838 M 7.539875777131561,10.391637797393976 M 7.502511445917941,10.301432322229047 M 7.489767168361892,10.20462992356898 M 7.502511445917941,10.107827524908899 M 7.539875777131561,10.01762204974398 M 7.599313844578022,9.940160852135104 M 7.676775042186891,9.880722784688633 M 7.766980517351813,9.843358453475044 M 7.863782916011894,9.830614175918981 M 7.960585314671976,9.843358453475016 M 8.050790789836894,9.88072278468863 M 8.128251987445763,9.940160852135097 M 8.187690054892224,10.01762204974398 M 8.225054386105844,10.107827524908888 M 8.237798663661897,10.204629923568973 M 8.225054386105844,10.301432322229047 M 8.187690054892224,10.391637797393976 M 8.128251987445763,10.469098995002838 M 0.25221613703702606,10.069026747828786 M 0.29918998356054527,9.983431311387612 M 0.36671696420259015,9.912910194818608 M 0.4501952268260184,9.862269295674295 M 0.5439358657873915,9.834959707543312 M 0.600784004488066,9.83372672383761 M 0.6415506114552266,9.832842533725564 M 0.7363871802282526,9.856062056117935 M 0.8219826166694252,9.903035902641449 M 0.8925037332384315,9.970562883283495 M 0.9431446323827474,10.054041145906925 M 0.9704542205137267,10.1477817848683 M 0.9716872042194283,10.204629923568973 M 0.9725713943314745,10.245396530536134 M 0.9493518719391077,10.340233099309156 M 0.9023780254155885,10.42582853575033 M 0.8348510447735419,10.496349652319338 M 0.7513727821501136,10.546990551463647 M 0.6576321431887405,10.57430013959463 M 0.600784004488066,10.575533123300335 M 0.5600173975209072,10.576417313412382 M 0.46518082874788125,10.553197791020011 M 0.37958539230670507,10.506223944496494 M 0.30906427573770234,10.43869696385445 M 0.25842337659338643,10.35521870123102 M 0.23111378846240718,10.261478062269646 M 0.2298808047567055,10.204629923568973 M 0.2289966146446575,10.163863316601812 M 1.201568008976132,9.797234873960015 M 1.1206775091483012,9.790171560714157 M 1.0289224734886864,9.756792908436495 M 0.9489329457623051,9.700803655442005 M 0.8861600800947614,9.62601937679566 M 0.8448817435442387,9.537536497500327 M 0.8279109865309736,9.441384979555124 M 0.829341024854065,9.425007889837943 M 0.8364043380999197,9.344117390010112 M 0.8697829903775817,9.252362354350495 M 0.925772243372066,9.172372826624112 M 1.0005565220184194,9.109599960956569 M 1.0890394013137465,9.06832162440605 M 1.185190919258954,9.051350867392784 M 1.201568008976132,9.052780905715874 M 1.2824585088039628,9.059844218961729 M 1.3742135444635795,9.09322287123939 M 1.4542030721899606,9.14921212423388 M 1.5169759378575025,9.223996402880232 M 1.5582542744080288,9.312479282175559 M 1.575225031421292,9.408630800120765 M 1.5737949930982025,9.425007889837943 M 1.566731679852346,9.505898389665774 M 1.5333530275746858,9.59765342532539 M 1.477363774580198,9.677642953051773 M 1.4025794959338465,9.740415818719317 M 1.3140966166385175,9.781694155269836 M 1.2179450986933118,9.798664912283105 "
  />
  <path id="face13-interior"
 style="fill:none;stroke:#00FF00;stroke-width:.05;stroke-miterlimit:4;stroke-dasharray:none;stroke-linejoin:round;stroke-linecap:round"
        d="M 7.815381716681857,10.023994188522003 M 7.863782916011894,10.01762204974397 M 7.863782916011894,9.830614175918981 M 7.766980517351813,9.843358453475044 M 7.676775042186891,9.880722784688633 M 7.599313844578022,9.940160852135104 M 7.539875777131561,10.01762204974398 M 7.502511445917941,10.107827524908899 M 7.489767168361892,10.20462992356898 M 7.676775042186891,10.204629923568977 M 7.683147180964921,10.156228724238929 M 7.70182934657173,10.111125986656461 M 7.731548380294958,10.072395387852048 M 7.7702789790993965,10.04267635412879 "
  />
  <path id="face14-interior"
 style="fill:none;stroke:#00FF00;stroke-width:.05;stroke-miterlimit:4;stroke-dasharray:none;stroke-linejoin:round;stroke-linecap:round"
        d="M 7.214597712193795,9.244372154790959 M 7.2629989115238285,9.23800001601295 M 7.2629989115238285,9.053551217749032 M 7.192494536609141,9.05769751344208 M 7.099829994052337,9.088461186004174 M 7.018285143571832,9.142159960262841 M 6.95341713196863,9.215134353493745 M 6.909646607034039,9.302411281394065 M 6.889956457708125,9.398042965559362 M 6.891542239434925,9.425007889837946 M 7.075991037698829,9.42500788983796 M 7.077753892680493,9.411617676860836 M 7.082363176476859,9.376606690507899 M 7.101045342083664,9.331503952925448 M 7.130764375806896,9.292773354121017 M 7.169494974611331,9.263054320397778 "
  />
  <path id="face15-interior"
 style="fill:none;stroke:#00FF00;stroke-width:.05;stroke-miterlimit:4;stroke-dasharray:none;stroke-linejoin:round;stroke-linecap:round"
        d="M 0.7814197395350427,10.156228724238932 M 0.7877918783130654,10.204629923568973 M 0.9716872042194283,10.204629923568973 M 0.9704542205137267,10.1477817848683 M 0.9431446323827474,10.054041145906925 M 0.8925037332384315,9.970562883283495 M 0.8219826166694252,9.903035902641449 M 0.7363871802282526,9.856062056117935 M 0.6415506114552266,9.832842533725564 M 0.600784004488066,9.83372672383761 M 0.600784004488066,10.017622049743974 M 0.6491852038181066,10.023994188521996 M 0.6942879414005657,10.042676354128808 M 0.7330185402050003,10.072395387852037 M 0.7627375739282326,10.111125986656472 "
  />
  <path id="face16-interior"
 style="fill:none;stroke:#00FF00;stroke-width:.05;stroke-miterlimit:4;stroke-dasharray:none;stroke-linejoin:round;stroke-linecap:round"
        d="M 1.1934186265605222,9.239072902561752 M 1.201568008976132,9.238000016012943 M 1.201568008976132,9.052780905715874 M 1.185190919258954,9.051350867392784 M 1.0890394013137465,9.06832162440605 M 1.0005565220184194,9.109599960956569 M 0.925772243372066,9.172372826624112 M 0.8697829903775817,9.252362354350495 M 0.8364043380999197,9.344117390010112 M 0.829341024854065,9.425007889837943 M 1.0145601351511326,9.425007889837943 M 1.020932273929157,9.376606690507902 M 1.0396144395359672,9.331503952925441 M 1.069333473259196,9.292773354121007 M 1.1080640720636323,9.263054320397778 M 1.1531668096460932,9.244372154790966 "
  />
</svg>
