<?xml version="1.0" encoding="UTF-8" standalone="no"?>
<!-- Created with Inkscape (http://www.inkscape.org/) -->

<svg
   xmlns:dc="http://purl.org/dc/elements/1.1/"
   xmlns:cc="http://creativecommons.org/ns#"
   xmlns:rdf="http://www.w3.org/1999/02/22-rdf-syntax-ns#"
   xmlns:svg="http://www.w3.org/2000/svg"
   xmlns="http://www.w3.org/2000/svg"
   xmlns:sodipodi="http://sodipodi.sourceforge.net/DTD/sodipodi-0.dtd"
   xmlns:inkscape="http://www.inkscape.org/namespaces/inkscape"
   width="210mm"
   height="297mm"
   viewBox="0 0 744.09448819 1052.3622047"
   id="svg4174"
   version="1.1"
   inkscape:version="0.91 r13725"
   sodipodi:docname="gear0.svg">
  <defs
     id="defs4176" />
  <sodipodi:namedview
     id="base"
     pagecolor="#ffffff"
     bordercolor="#666666"
     borderopacity="1.0"
     inkscape:pageopacity="0.0"
     inkscape:pageshadow="2"
     inkscape:zoom="0.35"
     inkscape:cx="-133.57143"
     inkscape:cy="520"
     inkscape:document-units="px"
     inkscape:current-layer="layer1"
     showgrid="false"
     inkscape:window-width="1148"
     inkscape:window-height="757"
     inkscape:window-x="1761"
     inkscape:window-y="292"
     inkscape:window-maximized="0" />
  <metadata
     id="metadata4179">
    <rdf:RDF>
      <cc:Work
         rdf:about="">
        <dc:format>image/svg+xml</dc:format>
        <dc:type
           rdf:resource="http://purl.org/dc/dcmitype/StillImage" />
        <dc:title></dc:title>
      </cc:Work>
    </rdf:RDF>
  </metadata>
  <g
     inkscape:label="Layer 1"
     inkscape:groupmode="layer"
     id="layer1">
    <g
       id="g4166"
       transform="translate(359.78999,-697.14107)">
      <path
         id="path20"
         style="fill:none;stroke:#000000"
         d="m 254.84524,1085.3325 0.63285,-3.6569 0.21187,-3.7052 -3.20153,-1.7528 -3.11421,-1.5539 -2.86088,-1.2939 -2.59271,-1.0557 -2.31101,-0.8399 -2.28513,-0.7332 -0.69329,-0.3492 -0.31998,-0.3616 0.46063,-8.0554 0.3591,-0.3228 0.72859,-0.2678 2.35381,-0.468 2.39169,-0.571 2.69615,-0.7533 2.98973,-0.9593 3.27104,-1.1888 3.38046,-1.3764 0.21187,-3.7052 -0.21187,-3.7052 -3.38046,-1.3764 -3.27104,-1.1888 -2.98973,-0.9593 -2.69615,-0.7533 -2.39169,-0.571 -2.35381,-0.468 -0.72859,-0.2678 -0.3591,-0.3228 -0.46063,-8.0554 0.31998,-0.3616 0.69329,-0.3492 2.28513,-0.7332 2.31101,-0.8399 2.59271,-1.0557 2.86088,-1.2939 3.11421,-1.5539 3.20153,-1.7528 -0.21187,-3.7052 -0.63285,-3.6569 -3.51532,-0.982 -3.38524,-0.8082 -3.07959,-0.6123 -2.76444,-0.441 -2.44119,-0.2946 -2.39182,-0.1967 -0.75437,-0.1831 -0.39356,-0.2797 -1.37586,-7.9503 0.27667,-0.3958 0.64897,-0.4259 2.18664,-0.989 2.20021,-1.0978 2.45548,-1.3444 2.69473,-1.6116 2.91678,-1.89874 2.98086,-2.10629 -0.63285,-3.65688 -1.04558,-3.5609 -3.60435,-0.57497 -3.4553,-0.41702 -3.12932,-0.25727 -2.79668,-0.12299 -2.45886,-0.0144 -2.39865,0.0773 -0.77032,-0.0959 -0.42289,-0.23307 -2.27316,-7.74167 0.22976,-0.4247 0.59619,-0.49713 2.05965,-1.23179 2.06072,-1.3415 2.28623,-1.61547 2.49346,-1.90827 2.68133,-2.21889 2.72132,-2.43236 -1.04557,-3.5609 -1.44468,-3.4185 -3.6464,-0.16036 -3.48031,-0.0204 -3.13825,0.10113 -2.79248,0.19661 -2.44447,0.26595 -2.3742,0.35021 -0.77623,-0.007 -0.4467,-0.18334 -3.14083,-7.4321 0.17984,-0.44812 0.53564,-0.56185 1.90582,-1.45854 1.89437,-1.56766 2.08717,-1.86555 2.25969,-2.18006 2.41091,-2.51008 2.42631,-2.72671 -1.44467,-3.4185 -1.82493,-3.23154 -3.64092,0.25634 -3.45995,0.37644 -3.10627,0.45819 -2.75186,0.51365 -2.39823,0.54286 -2.3188,0.61857 -0.77202,0.0811 -0.46468,-0.13122 -3.96756,-7.02563 0.12759,-0.46569 0.4681,-0.61925 1.72714,-1.66628 1.70332,-1.77339 1.86091,-2.09131 1.99645,-2.42343 2.10907,-2.76854 2.09968,-2.98552 -1.82494,-3.23154 -2.18141,-3.00245 -3.58795,0.66971 -3.39449,0.76838 -3.03379,0.8093 -2.67538,0.82399 -2.32071,0.8127 -2.23318,0.87886 -0.75774,0.16855 -0.47662,-0.0774 -4.74255,-6.52757 0.0737,-0.4772 0.39446,-0.66857 1.52594,-1.8523 1.49006,-1.95599 1.6104,-2.2898 1.70718,-2.63522 1.77973,-2.99091 1.74567,-3.2054 -2.18141,-3.00245 -2.50944,-2.73422 -3.48823,1.07434 -3.28477,1.15032 -2.92177,1.14985 -2.56401,1.12358 -2.21294,1.07195 -2.11844,1.12769 -0.73359,0.25383 -0.48233,-0.0226 -5.45572,-5.9444 0.0188,-0.48249 0.31568,-0.70918 1.30484,-2.01417 1.25739,-2.11309 1.33888,-2.45845 1.39566,-2.81265 1.42719,-3.17429 1.3689,-3.3835 -2.50944,-2.73421 -2.80476,-2.43034 -3.34303,1.46496 -3.13223,1.51726 -2.77165,1.47541 -2.41922,1.40853 -2.07632,1.31722 -1.97609,1.36183 -0.69987,0.3358 -0.48176,0.0326 -6.09777,-5.28375 -0.0363,-0.48149 0.23278,-0.74054 1.06674,-2.14978 1.00832,-2.24265 1.04991,-2.59505 1.06594,-2.9534 1.05605,-3.31628 0.97429,-3.51749 -2.80476,-2.43034 -3.06352,-2.09478 -3.15424,1.83649 -2.93887,1.86441 -2.58539,1.78174 -2.24289,1.67512 -1.91264,1.54532 -1.80797,1.57821 -0.65703,0.41339 -0.47491,0.0873 -6.66033,-4.55422 -0.091,-0.47421 0.14684,-0.76225 0.81473,-2.25736 0.74611,-2.34298 0.74725,-2.69781 0.72233,-3.05566 0.67114,-3.41505 0.56698,-3.60562 -3.06352,-2.09478 -3.28234,-1.73191 -2.92433,2.18408 -2.70719,2.18727 -2.36544,2.06483 -2.03731,1.91987 -1.72402,1.75327 -1.61628,1.77401 -0.60563,0.4856 -0.46187,0.14083 -7.13605,-3.76531 -0.14444,-0.46075 0.059,-0.77402 0.5521,-2.33552 0.47416,-2.41275 0.43485,-2.76541 0.36931,-3.11808 0.27748,-3.46929 0.15227,-3.64675 -3.28234,-1.73191 -3.45836,-1.34647 -2.65631,2.50319 -2.440211,2.48161 -2.114648,2.32102 -1.805188,2.13959 -1.512925,1.93837 -1.403522,1.94669 -0.546328,0.55146 -0.442799,0.19257 -7.518753,-2.92732 -0.19602,-0.44128 -0.02962,-0.7757 0.28227,-2.38323 0.196038,-2.45108 0.116788,-2.79695 0.01146,-3.13986 -0.119801,-3.47831 -0.26442,-3.64033 -3.458363,-1.34647 -3.589306,-0.94346 -2.353656,2.78967 -2.141419,2.74359 -1.836288,2.54694 -1.549525,2.33143 -1.282107,2.09819 -1.172468,2.09399 -0.479904,0.61015 -0.417962,0.24178 -7.803433,-2.05116 -0.245045,-0.41606 -0.117846,-0.76727 0.0088,-2.39987 -0.08464,-2.45745 -0.202802,-2.79203 -0.346528,-3.1207 -0.515518,-3.44198 -0.677663,-3.58646 -3.589306,-0.94347 -3.673457,-0.52816 -2.020315,3.03978 -1.814715,2.96981 -1.53399,2.73966 -1.273662,2.49287 -1.034574,2.23066 -0.926128,2.21399 -0.407225,0.66087 -0.387676,0.28786 -7.986384,-1.14827 -0.290874,-0.38542 -0.20454,-0.74883 -0.26486,-2.38523 -0.364217,-2.43178 -0.519748,-2.75071 -0.700002,-3.06086 -0.904514,-3.36078 -1.082072,-3.48584 -3.673457,-0.52816 -3.709718,-0.10598 -1.660637,3.25027 -1.464353,3.15732 -1.211694,2.89666 -0.981194,2.6218 -0.773554,2.33405 -0.667716,2.30513 -0.329237,0.70299 -0.352336,0.33017 -8.065219,-0.23041 -0.332912,-0.34974 -0.288567,-0.72064 -0.53503,-2.33949 -0.639044,-2.37441 -0.829919,-2.67354 -1.044351,-2.96111 -1.281717,-3.23576 -1.472375,-3.33977 -3.709718,-0.10598 -3.697618,0.31759 -1.27931,3.41838 -1.094901,3.30366 -0.873601,3.0159 -0.675936,2.71656 -0.50245,2.40702 -0.400598,2.36622 -0.246956,0.73593 -0.312403,0.36818 -8.038912,0.69046 -0.37061,-0.30951 -0.368833,-0.68305 -0.798224,-2.26325 -0.90554,-2.28609 -1.129271,-2.56151 -1.375084,-2.82276 -1.642212,-3.06857 -1.843483,-3.15016 -3.697618,0.31759 -3.637313,0.73701 -0.881305,3.54193 -0.711176,3.40694 -0.524119,3.09582 -0.361866,2.77591 -0.224795,2.4486 -0.128259,2.39646 -0.161456,0.75929 -0.268397,0.40139 -7.907805,1.60233 -0.403477,-0.26525 -0.44429,-0.63655 -1.051012,-2.15751 -1.160232,-2.16796 -1.4139,-2.41609 -1.687892,-2.64761 -1.981298,-2.86137 -2.190558,-2.91949 -3.637313,0.73702 -3.529591,1.14683 -0.471811,3.6193 -0.318179,3.4658 -0.167806,3.13539 -0.04308,2.79906 0.05579,2.45827 0.145754,2.39546 -0.07385,0.77274 -0.220892,0.42937 -7.673608,2.49331 -0.431084,-0.21753 -0.513954,-0.58176 -1.290099,-2.02364 -1.399799,-2.02157 -1.680096,-2.23917 -1.978696,-2.43795 -2.294555,-2.61686 -2.509075,-2.65076 -3.529591,1.14684 -3.375855,1.5417 -0.05617,3.64949 0.07897,3.47947 0.190696,3.13409 0.276272,2.78572 0.335648,2.43589 0.417865,2.36323 0.01472,0.77612 -0.170508,0.45176 -7.339374,3.35177 -0.45307,-0.16697 -0.57692,-0.51937 -1.51236,-1.86339 -1.62112,-1.84883 -1.92439,-2.03306 -2.2437,-2.1965 -2.5779,-2.33825 -2.79489,-2.34747 -3.37585,1.54171 -3.17811,1.91647 0.36021,3.6321 0.47508,3.4478 0.54671,3.09191 0.59202,2.73608 0.61113,2.38174 0.68453,2.3002 0.10309,0.76939 -0.1179,0.46824 -6.90946,4.16656 -0.46915,-0.11424 -0.63236,-0.45023 -1.71492,-1.67884 -1.8213,-1.65199 -2.1436,-1.80044 -2.47946,-1.92642 -2.82764,-2.02915 -3.04425,-2.01357 -3.17811,1.91647 -2.93894,2.26625 0.7719,3.56738 0.865,3.37116 0.8956,3.00944 0.90005,2.65076 0.87864,2.29655 0.94228,2.20717 0.19012,0.75263 -0.0638,0.47863 -6.38947,4.92701 -0.47911,-0.06 -0.67957,-0.37521 -1.89511,-1.47241 -1.99774,-1.43361 -2.33486,-1.54435 -2.6829,-1.63123 -3.04051,-1.6936 -3.25394,-1.65342 -2.93893,2.26625 -2.66145,2.5865 1.17351,3.45613 1.24365,3.25059 1.23282,2.88773 1.19634,2.53088 1.13471,2.18143 1.18772,2.08537 0.27468,0.72604 -0.009,0.48278 -5.78619,5.62325 -0.48283,-0.005 -0.7179,-0.29529 -2.05061,-1.2468 -2.14814,-1.19653 -2.49568,-1.26813 -2.85135,-1.31478 -3.21375,-1.33596 -3.42121,-1.27173 -2.66144,2.5865 -2.34926,2.87302 1.55983,3.29983 1.60608,3.08763 1.55396,2.72839 1.47704,2.378 1.37598,2.03787 1.4177,1.93639 0.35565,0.69 0.0463,0.48063 -5.10747,6.24617 -0.48026,0.0501 -0.74688,-0.21153 -2.17937,-1.00492 -2.27053,-0.94387 -2.62397,-0.97537 -2.98264,-0.98118 -3.34509,-0.96091 -3.54387,-0.87345 -2.34926,2.87302 -2.00644,3.12209 1.92581,3.10051 1.94758,2.88443 1.85484,2.53346 1.73849,2.19414 1.5993,1.86773 1.62919,1.76216 0.43199,0.64496 0.10079,0.47222 -4.36216,6.78766 -0.47142,0.10449 -0.76613,-0.12503 -2.27971,-0.74993 -2.36333,-0.67889 -2.71805,-0.66991 -3.07504,-0.63479 -3.43282,-0.57334 -3.62034,-0.46378 -2.00645,3.12209 -1.63747,3.33045 2.2667,2.86078 2.26368,2.64362 2.13154,2.30551 1.97727,1.98166 1.80178,1.67325 1.81944,1.56496 0.50269,0.59152 0.15397,0.45765 -3.56,7.24067 -0.45643,0.15754 -0.77539,-0.0369 -2.35034,-0.48518 -2.4253,-0.40507 -2.7767,-0.3557 -3.12736,-0.28012 -3.4758,-0.17829 -3.64961,-0.0481 -1.63747,3.33046 -1.24716,3.4954 2.57802,2.58375 2.55028,2.36834 2.38045,2.04751 2.19028,1.74335 1.98077,1.45696 1.98598,1.34736 0.56684,0.53036 0.20513,0.43712 -2.71142,7.59928 -0.4355,0.20854 -0.77454,0.0517 -2.39032,-0.2141 -2.45567,-0.12596 -2.79915,-0.0369 -3.13891,0.0782 -3.47346,0.21908 -3.6313,0.36827 -1.24716,3.4954 -0.84058,3.61478 2.85574,2.27304 2.80363,2.0622 2.59833,1.76281 2.37473,1.48231 2.13394,1.22167 2.12662,1.11219 0.6236,0.46229 0.25362,0.41089 -1.82749,7.85886 -0.40889,0.2568 -0.76359,0.1397 -2.39914,0.06 -2.45403,0.1548 -2.7851,0.2824 -3.10954,0.4355 -3.42585,0.6136 -3.56565,0.7798 -0.84058,3.6148 -0.42305,3.687 3.09624,1.9327 3.02042,1.7292 2.78234,1.4551 2.52822,1.202 2.2593,0.9704 2.23953,0.8626 0.67223,0.3881 0.29881,0.3793 -0.91974,8.016 -0.37695,0.3017 -0.74269,0.2259 -2.37669,0.3328 -2.42039,0.4335 -2.73475,0.5981 -3.03962,0.7871 -3.33358,1.0002 -3.45352,1.1811 -0.42304,3.6871 0,3.7112 3.29636,1.5671 3.19784,1.3736 2.93008,1.1285 2.64876,0.906 2.35519,0.7065 2.32326,0.6017 0.7121,0.309 0.34009,0.3428 0,8.0685 -0.34009,0.3427 -0.7121,0.3091 -2.32326,0.6016 -2.35519,0.7066 -2.64876,0.9059 -2.93008,1.1285 -3.19784,1.3736 -3.29636,1.5671 0,3.7112 0.42304,3.6871 3.45352,1.1812 3.33358,1.0001 3.03962,0.7871 2.73475,0.5981 2.42039,0.4335 2.37669,0.3329 0.74269,0.2258 0.37695,0.3018 0.91974,8.0159 -0.29881,0.3793 -0.67223,0.3882 -2.23953,0.8625 -2.2593,0.9704 -2.52822,1.202 -2.78234,1.4551 -3.02042,1.7292 -3.09624,1.9327 0.42305,3.687 0.84058,3.6148 3.56565,0.7798 3.42585,0.6136 3.10954,0.4355 2.7851,0.2825 2.45403,0.1547 2.39914,0.06 0.76359,0.1397 0.40889,0.2568 1.82749,7.8589 -0.25362,0.4109 -0.6236,0.4622 -2.12662,1.1122 -2.13394,1.2217 -2.37473,1.4823 -2.59833,1.7628 -2.80363,2.0622 -2.85574,2.2731 0.84058,3.6147 1.24716,3.4954 3.6313,0.3683 3.47346,0.2191 3.13891,0.078 2.79915,-0.037 2.45567,-0.1259 2.39032,-0.2141 0.77454,0.052 0.4355,0.2086 2.71142,7.5992 -0.20513,0.4372 -0.56684,0.5303 -1.98598,1.3474 -1.98077,1.4569 -2.19028,1.7434 -2.38045,2.0475 -2.55028,2.3683 -2.57802,2.5838 1.24716,3.4954 1.63747,3.3304 3.64961,-0.048 3.4758,-0.1783 3.12736,-0.2801 2.7767,-0.3558 2.4253,-0.405 2.35034,-0.4852 0.77539,-0.037 0.45643,0.1576 3.56,7.2406 -0.15397,0.4577 -0.50269,0.5915 -1.81944,1.565 -1.80178,1.6732 -1.97727,1.9817 -2.13154,2.3055 -2.26368,2.6436 -2.2667,2.8608 1.63747,3.3304 2.00645,3.1221 3.62034,-0.4638 3.43282,-0.5733 3.07504,-0.6348 2.71805,-0.6699 2.36333,-0.6789 2.27971,-0.7499 0.76613,-0.125 0.47142,0.1044 4.36216,6.7877 -0.10079,0.4722 -0.43199,0.645 -1.62919,1.7621 -1.5993,1.8678 -1.73849,2.1941 -1.85484,2.5335 -1.94758,2.8844 -1.92581,3.1005 2.00644,3.1221 2.34926,2.873 3.54387,-0.8734 3.34509,-0.9609 2.98264,-0.9812 2.62397,-0.9754 2.27053,-0.9439 2.17937,-1.0049 0.74688,-0.2115 0.48026,0.05 5.10747,6.2462 -0.0463,0.4807 -0.35565,0.69 -1.4177,1.9363 -1.37598,2.0379 -1.47704,2.378 -1.55396,2.7284 -1.60608,3.0876 -1.55983,3.2999 2.34926,2.873 2.66144,2.5865 3.42121,-1.2717 3.21375,-1.336 2.85135,-1.3148 2.49568,-1.2681 2.14814,-1.1966 2.05061,-1.2467 0.7179,-0.2953 0.48283,-0.01 5.78619,5.6233 0.009,0.4828 -0.27468,0.726 -1.18772,2.0854 -1.13471,2.1814 -1.19634,2.5309 -1.23282,2.8877 -1.24365,3.2506 -1.17351,3.4562 2.66145,2.5864 2.93893,2.2663 3.25394,-1.6534 3.04051,-1.6936 2.6829,-1.6312 2.33486,-1.5444 1.99774,-1.4336 1.89511,-1.4724 0.67957,-0.3752 0.47911,-0.06 6.38947,4.927 0.0638,0.4786 -0.19012,0.7526 -0.94228,2.2072 -0.87864,2.2966 -0.90005,2.6507 -0.8956,3.0095 -0.865,3.3711 -0.7719,3.5674 2.93894,2.2662 3.17811,1.9165 3.04425,-2.0136 2.82764,-2.0291 2.47946,-1.9264 2.1436,-1.8005 1.8213,-1.652 1.71492,-1.6788 0.63236,-0.4502 0.46915,-0.1143 6.90946,4.1666 0.1179,0.4682 -0.10309,0.7694 -0.68453,2.3002 -0.61113,2.3818 -0.59202,2.736 -0.54671,3.092 -0.47508,3.4477 -0.36021,3.6322 3.17811,1.9164 3.37585,1.5417 2.79489,-2.3474 2.5779,-2.3383 2.2437,-2.1965 1.92439,-2.033 1.62112,-1.8489 1.51236,-1.8634 0.57692,-0.5193 0.45307,-0.167 7.339374,3.3518 0.170508,0.4517 -0.01472,0.7761 -0.417865,2.3633 -0.335648,2.4359 -0.276272,2.7857 -0.190696,3.1341 -0.07897,3.4794 0.05617,3.6495 3.375855,1.5417 3.529591,1.1469 2.509075,-2.6508 2.294555,-2.6169 1.978696,-2.4379 1.680096,-2.2392 1.399799,-2.0215 1.290099,-2.0237 0.513954,-0.5817 0.431084,-0.2176 7.673608,2.4933 0.220892,0.4294 0.07385,0.7728 -0.145754,2.3954 -0.05579,2.4583 0.04308,2.799 0.167806,3.1354 0.318179,3.4658 0.471811,3.6193 3.529591,1.1469 3.637313,0.737 2.190558,-2.9195 1.981298,-2.8614 1.687892,-2.6476 1.4139,-2.4161 1.160232,-2.1679 1.051012,-2.1576 0.44429,-0.6365 0.403477,-0.2653 7.907805,1.6024 0.268397,0.4014 0.161456,0.7593 0.128259,2.3964 0.224795,2.4486 0.361866,2.7759 0.524119,3.0959 0.711176,3.4069 0.881305,3.5419 3.637313,0.737 3.697618,0.3176 1.843483,-3.1501 1.642212,-3.0686 1.375084,-2.8228 1.129271,-2.5615 0.90554,-2.2861 0.798224,-2.2632 0.368833,-0.6831 0.37061,-0.3095 8.038912,0.6905 0.312403,0.3682 0.246956,0.7359 0.400598,2.3662 0.50245,2.407 0.675936,2.7166 0.873601,3.0159 1.094901,3.3037 1.27931,3.4183 3.697618,0.3176 3.709718,-0.106 1.472375,-3.3397 1.281717,-3.2358 1.044351,-2.9611 0.829919,-2.6735 0.639044,-2.3745 0.53503,-2.3394 0.288567,-0.7207 0.332912,-0.3497 8.065219,-0.2304 0.352336,0.3301 0.329237,0.703 0.667716,2.3052 0.773554,2.334 0.981194,2.6218 1.211694,2.8967 1.464353,3.1573 1.660637,3.2503 3.709718,-0.106 3.673457,-0.5282 1.082072,-3.4858 0.904514,-3.3608 0.700002,-3.0609 0.519748,-2.7507 0.364217,-2.4318 0.26486,-2.3852 0.20454,-0.7488 0.290874,-0.3854 7.986384,-1.1483 0.387676,0.2879 0.407225,0.6608 0.926128,2.214 1.034574,2.2307 1.273662,2.4928 1.53399,2.7397 1.814715,2.9698 2.020315,3.0398 3.673457,-0.5282 3.589306,-0.9434 0.677663,-3.5865 0.515518,-3.442 0.346528,-3.1207 0.202802,-2.792 0.08464,-2.4574 -0.0088,-2.3999 0.117846,-0.7673 0.245045,-0.416 7.803433,-2.0512 0.417962,0.2418 0.479904,0.6101 1.172468,2.094 1.282107,2.0982 1.549525,2.3314 1.836288,2.547 2.141419,2.7436 2.353656,2.7896 3.589306,-0.9434 3.458363,-1.3465 0.26442,-3.6403 0.119801,-3.4783 -0.01146,-3.1399 -0.116788,-2.797 -0.196038,-2.451 -0.28227,-2.3833 0.02962,-0.7757 0.19602,-0.4412 7.518753,-2.9274 0.442799,0.1926 0.546328,0.5515 1.403522,1.9467 1.512925,1.9383 1.805188,2.1396 2.114648,2.321 2.440211,2.4816 2.65631,2.5032 3.45836,-1.3464 3.28234,-1.7319 -0.15227,-3.6468 -0.27748,-3.4693 -0.36931,-3.1181 -0.43485,-2.7654 -0.47416,-2.4127 -0.5521,-2.3355 -0.059,-0.7741 0.14444,-0.4607 7.13605,-3.7653 0.46187,0.1408 0.60563,0.4856 1.61628,1.774 1.72402,1.7533 2.03731,1.9199 2.36544,2.0648 2.70719,2.1873 2.92433,2.184 3.28234,-1.7319 3.06352,-2.0948 -0.56698,-3.6056 -0.67114,-3.415 -0.72233,-3.0557 -0.74725,-2.6978 -0.74611,-2.343 -0.81473,-2.2573 -0.14684,-0.7623 0.091,-0.4742 6.66033,-4.5542 0.47491,0.087 0.65703,0.4134 1.80797,1.5782 1.91264,1.5453 2.24289,1.6751 2.58539,1.7817 2.93887,1.8645 3.15424,1.8364 3.06352,-2.0947 2.80476,-2.4304 -0.97429,-3.5175 -1.05605,-3.3162 -1.06594,-2.9535 -1.04991,-2.595 -1.00832,-2.2427 -1.06674,-2.1497 -0.23278,-0.7406 0.0363,-0.4815 6.09777,-5.2837 0.48176,0.033 0.69987,0.3358 1.97609,1.3618 2.07632,1.3172 2.41922,1.4085 2.77165,1.4754 3.13223,1.5173 3.34303,1.465 2.80476,-2.4304 2.50944,-2.7342 -1.3689,-3.3835 -1.42719,-3.1743 -1.39566,-2.8126 -1.33888,-2.4585 -1.25739,-2.1131 -1.30484,-2.0141 -0.31568,-0.7092 -0.0188,-0.4825 5.45572,-5.9444 0.48233,-0.023 0.73359,0.2539 2.11844,1.1276 2.21294,1.072 2.56401,1.1236 2.92177,1.1498 3.28477,1.1503 3.48823,1.0744 2.50944,-2.7342 2.18141,-3.0025 -1.74567,-3.2054 -1.77973,-2.9909 -1.70718,-2.6352 -1.6104,-2.2898 -1.49006,-1.956 -1.52594,-1.8523 -0.39446,-0.6686 -0.0737,-0.4772 4.74255,-6.5275 0.47662,-0.077 0.75774,0.1685 2.23318,0.8789 2.32071,0.8127 2.67538,0.824 3.03379,0.8093 3.39449,0.7684 3.58795,0.6697 2.18141,-3.0025 1.82494,-3.2315 -2.09968,-2.9855 -2.10907,-2.7686 -1.99645,-2.4234 -1.86091,-2.0913 -1.70332,-1.7734 -1.72714,-1.6663 -0.4681,-0.6192 -0.12759,-0.4657 3.96756,-7.0257 0.46468,-0.1312 0.77202,0.081 2.3188,0.6186 2.39823,0.5428 2.75186,0.5137 3.10627,0.4582 3.45995,0.3764 3.64092,0.2563 1.82493,-3.2315 1.44467,-3.4185 -2.42631,-2.7267 -2.41091,-2.5101 -2.25969,-2.1801 -2.08717,-1.8655 -1.89437,-1.5677 -1.90582,-1.4585 -0.53564,-0.5619 -0.17984,-0.4481 3.14083,-7.4321 0.4467,-0.1833 0.77623,-0.01 2.3742,0.3503 2.44447,0.2659 2.79248,0.1966 3.13825,0.1011 3.48031,-0.02 3.6464,-0.1603 1.44468,-3.4186 1.04557,-3.5609 -2.72132,-2.4323 -2.68133,-2.2189 -2.49346,-1.9083 -2.28623,-1.6154 -2.06072,-1.3415 -2.05965,-1.2318 -0.59619,-0.4972 -0.22976,-0.4247 2.27316,-7.7416 0.42289,-0.2331 0.77032,-0.096 2.39865,0.077 2.45886,-0.014 2.79668,-0.123 3.12932,-0.2573 3.4553,-0.417 3.60435,-0.575 1.04558,-3.5609 0.63285,-3.6569 -2.98086,-2.1063 -2.91678,-1.8987 -2.69473,-1.6116 -2.45548,-1.3444 -2.20021,-1.0978 -2.18664,-0.989 -0.64897,-0.4259 -0.27667,-0.3958 1.37586,-7.9503 0.39356,-0.2797 0.75437,-0.1831 2.39182,-0.1967 2.44119,-0.2946 2.76444,-0.441 3.07959,-0.6123 3.38524,-0.8081 3.51532,-0.9821 0,0 z"
         inkscape:connector-curvature="0" />
      <path
         id="path22"
         style="fill:none;stroke:#000000"
         d="M 1.841737,1061.0269 0,1061.2205 l -1.841737,-0.1936 -1.761245,-0.5723 -1.603777,-0.9259 -1.376217,-1.2392 -1.088509,-1.4982 -0.753228,-1.6917 -0.385028,-1.8115 0,-1.8518 0.385028,-1.8115 0.753228,-1.6917 1.088509,-1.4982 1.376217,-1.2392 1.603777,-0.9259 1.761245,-0.5723 L 0,1043.5039 l 1.841737,0.1936 1.761245,0.5723 1.603777,0.9259 1.376217,1.2392 1.088509,1.4982 0.753228,1.6917 0.385028,1.8115 0,1.8518 -0.385028,1.8115 -0.753228,1.6917 -1.088509,1.4982 -1.376217,1.2392 -1.603777,0.9259 -1.761245,0.5723 0,0 z"
         inkscape:connector-curvature="0" />
    </g>
  </g>
</svg>
