<?xml version="1.0" encoding="UTF-8" standalone="no"?>
<!-- Created with Inkscape (http://www.inkscape.org/) -->

<svg
   xmlns:dc="http://purl.org/dc/elements/1.1/"
   xmlns:cc="http://creativecommons.org/ns#"
   xmlns:rdf="http://www.w3.org/1999/02/22-rdf-syntax-ns#"
   xmlns:svg="http://www.w3.org/2000/svg"
   xmlns="http://www.w3.org/2000/svg"
   xmlns:sodipodi="http://sodipodi.sourceforge.net/DTD/sodipodi-0.dtd"
   xmlns:inkscape="http://www.inkscape.org/namespaces/inkscape"
   width="210mm"
   height="297mm"
   viewBox="0 0 744.09448819 1052.3622047"
   id="svg4773"
   version="1.1"
   inkscape:version="0.91 r13725"
   sodipodi:docname="gear1.svg">
  <defs
     id="defs4775" />
  <sodipodi:namedview
     id="base"
     pagecolor="#ffffff"
     bordercolor="#666666"
     borderopacity="1.0"
     inkscape:pageopacity="0.0"
     inkscape:pageshadow="2"
     inkscape:zoom="0.35"
     inkscape:cx="-133.57143"
     inkscape:cy="520"
     inkscape:document-units="mm"
     inkscape:current-layer="layer1"
     showgrid="false"
     inkscape:window-width="1271"
     inkscape:window-height="700"
     inkscape:window-x="1723"
     inkscape:window-y="164"
     inkscape:window-maximized="0" />
  <metadata
     id="metadata4778">
    <rdf:RDF>
      <cc:Work
         rdf:about="">
        <dc:format>image/svg+xml</dc:format>
        <dc:type
           rdf:resource="http://purl.org/dc/dcmitype/StillImage" />
        <dc:title></dc:title>
      </cc:Work>
    </rdf:RDF>
  </metadata>
  <g
     inkscape:label="Layer 1"
     inkscape:groupmode="layer"
     id="layer1">
    <g
       id="g4170"
       transform="translate(-209.50225,-631.41832)">
      <path
         id="path24"
         style="fill:none;stroke:#000000"
         d="m 239.72704,1034.0765 -0.31395,3.7388 0,3.7519 0.16667,0.079 3.31266,1.4529 3.12057,1.266 2.92081,1.091 2.71389,0.9282 2.50035,0.7779 2.41656,0.6784 0.51872,0.2348 0.24813,0.2529 0,8.0685 -0.24813,0.2528 -0.51872,0.2348 -2.41656,0.6784 -2.50035,0.7779 -2.71389,0.9282 -2.92081,1.091 -3.12057,1.266 -3.31266,1.4529 -0.16667,0.079 0,3.7519 0.31395,3.7388 0.17268,0.064 3.42261,1.1706 3.21557,1.0004 3.00186,0.8428 2.78204,0.6978 2.55666,0.566 2.46486,0.4738 0.53654,0.1906 0.26843,0.2312 0.67515,8.0402 -0.2261,0.2727 -0.49726,0.2774 -2.35131,0.8782 -2.42648,0.9844 -2.62671,1.1521 -2.81927,1.3315 -3.0037,1.5227 -3.17947,1.725 -0.1595,0.092 0.31396,3.7387 0.6257,3.6994 0.17747,0.05 3.50857,0.8801 3.288,0.7278 3.06184,0.5886 2.83069,0.4626 2.59505,0.35 2.49586,0.266 0.55061,0.1449 0.28683,0.208 1.34557,7.9555 -0.20249,0.2907 -0.4723,0.318 -2.26958,1.0719 -2.3356,1.184 -2.52109,1.3678 -2.69796,1.5628 -2.86575,1.7687 -3.02397,1.985 -0.15121,0.1054 0.6257,3.6994 0.93307,3.634 0.18101,0.035 3.56991,0.5835 3.33737,0.4501 3.10037,0.3303 2.85946,0.2242 2.61524,0.1316 2.50936,0.056 0.56081,0.099 0.30322,0.1832 2.00656,7.815 -0.17746,0.3066 -0.44403,0.3564 -2.17192,1.2581 -2.22834,1.3753 -2.39779,1.5739 -2.55773,1.7831 -2.7077,2.0023 -2.84727,2.231 -0.14186,0.1177 0.93307,3.6341 1.23388,3.5432 0.1833,0.02 3.6062,0.2826 3.36334,0.1693 3.11713,0.07 2.86819,-0.016 2.61709,-0.088 2.50525,-0.1541 0.56708,0.051 0.31749,0.1572 2.65346,7.6197 -0.15118,0.3204 -0.41265,0.3923 -2.05903,1.4354 -2.10544,1.5569 -2.25768,1.7691 -2.39955,1.9908 -2.53066,2.2218 -2.65059,2.4615 -0.13152,0.1292 1.23389,3.5432 1.52604,3.4276 0.18429,0 3.61721,-0.02 3.3657,-0.1127 3.11204,-0.1913 2.8568,-0.2559 2.60057,-0.3064 2.48358,-0.3631 0.56937,0 0.32953,0.1301 3.28175,7.3709 -0.12383,0.3319 -0.37838,0.4255 -1.9317,1.6027 -1.96778,1.7276 -2.10172,1.9518 -2.22455,2.1847 -2.33587,2.4258 -2.43532,2.6746 -0.12025,0.1397 1.52605,3.4276 1.80751,3.2878 0.18398,-0.011 3.60285,-0.3227 3.34446,-0.3939 3.08511,-0.4511 2.82537,-0.4941 2.56582,-0.5228 2.44449,-0.5697 0.56766,-0.044 0.33925,0.1021 3.88704,7.0705 -0.0956,0.3411 -0.34145,0.4556 -1.79081,1.7587 -1.81632,1.8862 -1.93103,2.1209 -2.03394,2.3631 -2.12469,2.6127 -2.20297,2.8691 -0.10813,0.1493 1.8075,3.2878 2.07629,3.1251 0.18239,-0.027 3.56321,-0.623 3.29977,-0.6725 3.03654,-0.7076 2.77412,-0.7287 2.51307,-0.7358 2.38824,-0.7722 0.56198,-0.091 0.3466,0.073 4.46505,6.7204 -0.0668,0.3479 -0.30213,0.4826 -1.63736,1.9024 -1.65211,2.0316 -1.7468,2.275 -1.82906,2.525 -1.89861,2.7814 -1.95517,3.0433 -0.0953,0.1579 2.07628,3.125 2.33051,2.9404 0.17952,-0.042 3.49857,-0.919 3.23193,-0.9462 2.96668,-0.9592 2.70341,-0.9583 2.4427,-0.9435 2.31524,-0.9694 0.55235,-0.1382 0.35152,0.044 5.01174,6.3232 -0.0374,0.3523 -0.26069,0.5062 -1.47243,2.0327 -1.47632,2.1627 -1.5503,2.4132 -1.61136,2.6692 -1.65922,2.9305 -1.69364,3.1963 -0.0817,0.1652 2.33051,2.9404 2.56837,2.735 0.17539,-0.057 3.4094,-1.2086 3.14142,-1.2133 2.87601,-1.2041 2.61374,-1.1812 2.35518,-1.1445 2.22601,-1.1597 0.53885,-0.1839 0.35397,0.014 5.52328,5.8817 -0.008,0.3542 -0.21741,0.5262 -1.29718,2.1488 -1.29016,2.2787 -1.34294,2.5344 -1.38235,2.7947 -1.40818,3.0591 -1.42025,3.3268 -0.0676,0.1714 2.56838,2.7351 2.78823,2.5105 0.17003,-0.071 3.29631,-1.4896 3.02887,-1.4719 2.76517,-1.4406 2.50573,-1.3957 2.25115,-1.3376 2.12117,-1.3419 0.52156,-0.2284 0.35394,-0.015 5.99607,5.3989 0.0219,0.3536 -0.17262,0.5426 -1.11282,2.2498 -1.09497,2.3786 -1.12615,2.6379 -1.14365,2.9006 -1.14727,3.1661 -1.13689,3.434 -0.053,0.1765 2.78822,2.5106 2.98853,2.2684 0.16348,-0.085 3.1601,-1.7602 2.89508,-1.7202 2.63493,-1.6669 2.38016,-1.6005 2.13132,-1.5213 2.00144,-1.5147 0.50062,-0.2712 0.35143,-0.045 6.42681,4.8782 0.0514,0.3505 -0.12661,0.5552 -0.92066,2.335 -0.89208,2.4619 -0.90148,2.7229 -0.89691,2.9861 -0.87831,3.2511 -0.84556,3.517 -0.0381,0.1804 2.98853,2.2684 3.16786,2.0104 0.15578,-0.099 3.00173,-2.0184 2.74098,-1.9565 2.4862,-1.8815 2.23788,-1.7941 1.99655,-1.6943 1.86768,-1.6768 0.47617,-0.3122 0.34645,-0.074 6.81247,4.3233 0.0805,0.345 -0.0797,0.5638 -0.72204,2.4039 -0.68295,2.5279 -0.67047,2.7888 -0.6439,3.0507 -0.60319,3.3131 -0.54829,3.5755 -0.0228,0.1829 3.16786,2.0104 3.32498,1.7382 0.14698,-0.1112 2.8223,-2.2626 2.56766,-2.1789 2.32004,-2.083 2.07991,-1.9751 1.84777,-1.8554 1.72082,-1.8272 0.44838,-0.3509 0.33904,-0.1028 7.15034,3.7381 0.10912,0.3371 -0.0323,0.5684 -0.51836,2.4559 -0.46902,2.5762 -0.43476,2.8351 -0.38636,3.0939 -0.32384,3.352 -0.24718,3.6088 -0.007,0.1842 3.32498,1.7382 3.45876,1.454 0.13716,-0.1232 2.62308,-2.4908 2.37633,-2.3862 2.1376,-2.2698 1.90735,-2.1421 1.68603,-2.0035 1.56188,-1.9649 0.41744,-0.3872 0.32926,-0.1307 7.43806,3.1266 0.13694,0.3268 0.0154,0.5691 -0.31103,2.4907 -0.25181,2.6064 -0.196,2.8615 -0.12612,3.1154 -0.0422,3.3673 0.0557,3.6169 0.008,0.1841 3.45877,1.4539 3.5683,1.1595 0.12637,-0.1342 2.40546,-2.7016 2.16832,-2.5766 1.94017,-2.4408 1.72141,-2.2942 1.51247,-2.1376 1.39199,-2.0886 0.38358,-0.4208 0.31715,-0.1578 7.67361,2.4933 0.1638,0.3141 0.063,0.5659 -0.10154,2.5079 -0.0328,2.6184 0.0441,2.8678 0.135,3.115 0.23971,3.3591 0.35811,3.5995 0.0234,0.1828 3.5683,1.1594 3.6528,0.8568 0.1147,-0.1443 2.17096,-2.8934 1.94511,-2.749 1.72913,-2.5945 1.5234,-2.4302 1.32829,-2.2567 1.21234,-2.1978 0.34702,-0.4514 0.30284,-0.1838 7.85533,1.8424 0.18951,0.2993 0.11012,0.5587 0.10869,2.5076 0.18638,2.6119 0.28396,2.8542 0.39519,3.0927 0.51994,3.3272 0.65806,3.5569 0.0386,0.1803 3.6528,0.8567 3.71168,0.5481 0.10222,-0.1534 1.92124,-3.0648 1.70825,-2.9022 1.50596,-2.7301 1.31471,-2.5492 1.1348,-2.3599 1.02418,-2.2915 0.30803,-0.4788 0.28639,-0.2086 7.98195,1.1787 0.2139,0.2824 0.15648,0.5475 0.31814,2.4897 0.40429,2.5872 0.52179,2.8203 0.6526,3.0489 0.79653,3.272 0.95339,3.4894 0.0535,0.1764 3.71168,0.5481 3.74453,0.2355 0.089,-0.1614 1.65803,-3.2149 1.45942,-3.0349 1.27223,-2.8465 1.09678,-2.6503 0.93336,-2.4465 0.82883,-2.3692 0.26689,-0.503 0.26793,-0.2318 8.05259,0.5067 0.23677,0.2635 0.20175,0.5324 0.52535,2.4544 0.61937,2.5443 0.75596,2.7668 0.90543,2.9835 1.06754,3.194 1.24202,3.3973 0.0681,0.1713 3.74452,0.2356 3.75111,-0.079 0.0752,-0.1683 1.38321,-3.3423 1.20034,-3.1464 1.02958,-2.9431 0.87116,-2.7327 0.72537,-2.5161 0.62767,-2.4302 0.22386,-0.5235 0.24761,-0.2534 8.06673,-0.169 0.258,0.2428 0.24559,0.5137 0.72889,2.4018 0.83009,2.4835 0.98484,2.6939 1.15191,2.8973 1.33105,3.0934 1.52195,3.2815 0.0822,0.165 3.7511,-0.079 3.73138,-0.3922 0.0609,-0.174 1.09867,-3.4464 0.93285,-3.2358 0.7797,-3.0188 0.63944,-2.7961 0.51228,-2.5679 0.42211,-2.4743 0.17928,-0.5404 0.22553,-0.2732 8.02431,-0.8434 0.2774,0.2204 0.28771,0.4913 0.92732,2.3324 1.03499,2.4053 1.2068,2.602 1.39031,2.7908 1.58523,2.9712 1.79121,3.1426 0.0957,0.1575 3.73138,-0.3922 3.68547,-0.703 0.0461,-0.1785 0.80643,-3.5262 0.65881,-3.3025 0.52436,-3.0735 0.40323,-2.8398 0.2956,-2.6018 0.21359,-2.5009 0.13342,-0.5535 0.20188,-0.2911 7.9256,-1.5119 0.29487,0.1964 0.32782,0.4655 1.11923,2.2466 1.23263,2.3103 1.4203,2.4919 1.61896,2.6647 1.82829,2.828 2.04789,2.9818 0.10856,0.1489 3.68548,-0.703 3.61372,-1.009 0.031,-0.1817 0.50853,-3.5813 0.38016,-3.3461 0.26533,-3.1066 0.16419,-2.8635 0.0769,-2.6174 0.004,-2.51 0.0866,-0.5628 0.17682,-0.307 7.77128,-2.1697 0.31027,0.171 0.36562,0.4364 1.3033,2.1451 1.42164,2.1991 1.62383,2.3643 1.83626,2.5198 2.05852,2.6652 2.29021,2.7999 0.12065,0.1394 3.61372,-1.009 3.51661,-1.3078 0.0157,-0.1837 0.20707,-3.6113 0.0988,-3.3662 0.004,-3.1179 -0.076,-2.8672 -0.14244,-2.6147 -0.20646,-2.5015 0.0392,-0.568 0.1505,-0.3207 7.56247,-2.8125 0.32349,0.1445 0.40086,0.4043 1.47823,2.0285 1.60066,2.0724 1.81597,2.2202 2.04068,2.3573 2.27432,2.4836 2.51647,2.5984 0.13188,0.1288 3.51662,-1.3078 3.39485,-1.5975 2.6e-4,-0.1843 -0.0958,-3.616 -0.18319,-3.3626 -0.25647,-3.1074 -0.31565,-2.8508 -0.36073,-2.5936 -0.41506,-2.4754 -0.008,-0.5693 0.12314,-0.3322 7.30061,-3.4354 0.33444,0.1168 0.43329,0.3694 1.64279,1.8977 1.76845,1.9312 1.99538,2.0604 2.23078,2.1783 2.47416,2.2846 2.72508,2.3787 0.1422,0.1173 3.39485,-1.5975 3.24926,-1.8759 -0.0152,-0.1837 -0.39808,-3.5953 -0.46393,-3.3355 -0.51558,-3.075 -0.5531,-2.8144 -0.57649,-2.5543 -0.62074,-2.432 -0.056,-0.5667 0.0949,-0.3413 6.98754,-4.0342 0.34304,0.088 0.46269,0.3319 1.79582,1.7536 1.92384,1.7764 2.1608,1.8862 2.40522,1.984 2.65666,2.0695 2.91457,2.1424 0.15151,0.105 3.24927,-1.876 3.0809,-2.1413 -0.0305,-0.1818 -0.69754,-3.5493 -0.7414,-3.285 -0.77109,-3.0211 -0.78665,-2.7582 -0.78822,-2.4971 -0.82207,-2.3716 -0.10325,-0.5599 0.066,-0.3481 6.62545,-4.6048 0.34924,0.06 0.48883,0.2919 1.93626,1.5972 2.06575,1.6092 2.31105,1.6988 2.5628,1.7757 2.82051,1.84 3.08362,1.891 0.15977,0.092 3.0809,-2.1413 2.89091,-2.3915 -0.0456,-0.1786 -0.99209,-3.4786 -1.01368,-3.2114 -1.02118,-2.9459 -1.0147,-2.6828 -0.9944,-2.4224 -1.01763,-2.2944 -0.14975,-0.5494 0.0367,-0.3523 6.2169,-5.1431 0.35299,0.03 0.51154,0.2501 2.06312,1.4295 2.19315,1.4307 2.4451,1.4994 2.70241,1.5551 2.96458,1.5975 3.23104,1.6263 0.1669,0.078 2.89091,-2.3916 2.68066,-2.6251 -0.0604,-0.1741 -1.27969,-3.3834 -1.27885,-3.1153 -1.2641,-2.8502 -1.23563,-2.5884 -1.19362,-2.3307 -1.20605,-2.2012 -0.19519,-0.5349 0.007,-0.3542 5.76473,-5.6452 0.35426,3e-4 0.53068,0.2064 2.1755,1.2519 2.30518,1.2421 2.56198,1.2896 2.82307,1.3235 3.08785,1.3438 3.3558,1.3503 0.17286,0.064 2.68066,-2.6251 2.45159,-2.8402 -0.0747,-0.1685 -1.55831,-3.2644 -1.53505,-2.9974 -1.49816,-2.7343 -1.4479,-2.476 -1.38445,-2.2226 -1.38603,-2.0926 -0.23925,-0.5167 -0.0226,-0.3535 5.27213,-6.1079 0.35306,-0.029 0.54607,0.1612 2.27263,1.0654 2.40104,1.0449 2.66091,1.0707 2.92391,1.0827 3.18947,1.0807 3.45702,1.0647 0.17761,0.049 2.45159,-2.8402 2.20533,-3.0354 -0.0886,-0.1616 -1.82601,-3.1226 -1.78048,-2.8584 -1.72172,-2.5994 -1.64999,-2.3461 -1.56559,-2.099 -1.55626,-1.9693 -0.28166,-0.4948 -0.0521,-0.3505 4.74255,-6.5275 0.34937,-0.059 0.55765,0.1149 2.35381,0.8716 2.48006,0.8403 2.74117,0.8443 3.00425,0.8341 3.26871,0.8101 3.53399,0.7717 0.18112,0.034 2.20533,-3.0354 1.9436,-3.2093 -0.10179,-0.1536 -2.08089,-2.9589 -2.01342,-2.6994 -1.9332,-2.4462 -1.84053,-2.1998 -1.73573,-1.9607 -1.71559,-1.8321 -0.32207,-0.4695 -0.0813,-0.3449 4.17971,-6.9015 0.34323,-0.088 0.56532,0.068 2.41848,0.6715 2.54168,0.6299 2.8022,0.6119 3.06351,0.5799 3.32504,0.5336 3.58617,0.4733 0.18335,0.019 1.9436,-3.2092 1.66824,-3.3607 -0.11429,-0.1446 -2.32118,-2.7743 -2.23224,-2.5215 -2.13111,-2.2759 -2.01815,-2.0381 -1.89371,-1.8085 -1.86289,-1.6822 -0.36023,-0.4409 -0.10983,-0.3368 3.58754,-7.2271 0.33469,-0.1161 0.56901,0.02 2.4662,0.4668 2.58546,0.415 2.84358,0.3753 3.10129,0.3215 3.35803,0.2536 3.6132,0.1715 0.1843,0 1.66824,-3.3606 1.38118,-3.4885 -0.12599,-0.1346 -2.54519,-2.5703 -2.4354,-2.3258 -2.31408,-2.0896 -2.18162,-1.8621 -2.0384,-1.6437 -1.99711,-1.5204 -0.39587,-0.4092 -0.13762,-0.3265 2.97021,-7.5019 0.32379,-0.1437 0.56872,-0.027 2.49661,0.2588 2.61113,0.1972 2.865,0.136 3.11732,0.061 3.36747,-0.028 3.61488,-0.1314 0.18395,-0.012 1.38118,-3.4884 1.08443,-3.5918 -0.13681,-0.1236 -2.75134,-2.3483 -2.62148,-2.1139 -2.48082,-1.8886 -2.32978,-1.673 -2.16879,-1.4674 -2.11733,-1.3479 -0.42872,-0.3747 -0.16446,-0.3138 2.33205,-7.7241 0.31063,-0.1704 0.56444,-0.075 2.5095,0.049 2.61847,-0.022 2.86634,-0.1042 3.11148,-0.2002 3.35329,-0.31 3.59121,-0.4335 0.18231,-0.027 1.08443,-3.5918 0.78007,-3.67 -0.14667,-0.1116 -2.93819,-2.1099 -2.78917,-1.8871 -2.63016,-1.6745 -2.4616,-1.4721 -2.28397,-1.2808 -2.2227,-1.166 -0.45857,-0.3375 -0.19014,-0.2989 1.67754,-7.8922 0.29528,-0.1958 0.5562,-0.1218 2.5048,-0.1611 2.60744,-0.2411 2.84757,-0.3436 3.08381,-0.4599 3.3156,-0.5895 3.54234,-0.7324 0.1794,-0.042 0.78007,-3.6699 0.47024,-3.7224 -0.15549,-0.099 -3.10445,-1.8566 -2.93729,-1.6471 -2.76104,-1.4484 -2.57616,-1.2611 -2.38313,-1.0851 -2.31248,-0.976 -0.4852,-0.2979 -0.21449,-0.282 1.01126,-8.0049 0.27786,-0.2197 0.54406,-0.1679 2.48253,-0.3702 2.57813,-0.4584 2.80882,-0.5808 3.03452,-0.7163 3.25463,-0.8649 3.46864,-1.0262 0.17523,-0.057 0.47024,-3.7224 0.15711,-3.7486 -0.16323,-0.086 -3.24891,-1.5904 -3.06483,-1.3955 -2.87256,-1.2124 -2.67264,-1.041 -2.46557,-0.8819 -2.38604,-0.779 -0.50843,-0.2563 -0.23733,-0.2631 0.33788,-8.0614 0.2585,-0.2422 0.5281,-0.2129 2.44285,-0.5766 2.53072,-0.6725 2.75038,-0.8138 2.96394,-0.9677 3.17085,-1.1342 3.37059,-1.3129 0.16983,-0.072 0.15711,-3.7486 -0.15711,-3.7486 -0.16983,-0.072 -3.37059,-1.3129 -3.17085,-1.1342 -2.96394,-0.9677 -2.75038,-0.8138 -2.53072,-0.6725 -2.44285,-0.5766 -0.5281,-0.2129 -0.2585,-0.2422 -0.33788,-8.0614 0.23733,-0.2631 0.50843,-0.2562 2.38604,-0.7791 2.46557,-0.8819 2.67264,-1.041 2.87256,-1.2124 3.06483,-1.3955 3.24891,-1.5904 0.16323,-0.086 -0.15711,-3.7486 -0.47024,-3.7224 -0.17523,-0.057 -3.46864,-1.0262 -3.25463,-0.8649 -3.03452,-0.7163 -2.80882,-0.5808 -2.57813,-0.4584 -2.48253,-0.3702 -0.54406,-0.1679 -0.27786,-0.2197 -1.01126,-8.0049 0.21449,-0.282 0.4852,-0.2979 2.31248,-0.976 2.38313,-1.0851 2.57616,-1.261 2.76104,-1.4485 2.93729,-1.6471 3.10445,-1.85663 0.15549,-0.099 -0.47024,-3.72235 -0.78007,-3.66994 -0.1794,-0.0424 -3.54234,-0.7324 -3.3156,-0.58951 -3.08381,-0.45987 -2.84757,-0.34367 -2.60744,-0.24105 -2.5048,-0.16117 -0.5562,-0.1218 -0.29528,-0.19574 -1.67754,-7.8922 0.19014,-0.29891 0.45857,-0.3375 2.2227,-1.16604 2.28397,-1.28074 2.4616,-1.47218 2.63016,-1.67441 2.78917,-1.88711 2.93819,-2.10989 0.14667,-0.11165 -0.78007,-3.66995 -1.08443,-3.5918 -0.18231,-0.0272 -3.59121,-0.43342 -3.35329,-0.31 -3.11148,-0.20021 -2.86634,-0.10419 -2.61847,-0.022 -2.5095,0.049 -0.56444,-0.0748 -0.31063,-0.17035 -2.33205,-7.72414 0.16446,-0.31378 0.42872,-0.37468 2.11733,-1.34794 2.16879,-1.46737 2.32978,-1.67299 2.48082,-1.88863 2.62148,-2.11389 2.75134,-2.34835 0.13681,-0.12353 -1.08443,-3.5918 -1.38118,-3.48846 -0.18395,-0.0118 -3.61488,-0.1314 -3.36747,-0.0283 -3.11732,0.0608 -2.865,0.13602 -2.61113,0.19717 -2.49661,0.25881 -0.56872,-0.0273 -0.32379,-0.14375 -2.97021,-7.50192 0.13762,-0.32644 0.39587,-0.40924 1.99711,-1.52039 2.0384,-1.6437 2.18162,-1.86208 2.31408,-2.08959 2.4354,-2.32583 2.54519,-2.57034 0.12599,-0.13455 -1.38118,-3.48846 -1.66824,-3.36065 -0.1843,0.004 -3.6132,0.17155 -3.35803,0.25357 -3.10129,0.32148 -2.84358,0.37529 -2.58546,0.41497 -2.4662,0.46681 -0.56901,0.0204 -0.33469,-0.11616 -3.58754,-7.22706 0.10983,-0.33681 0.36023,-0.44093 1.86289,-1.68217 1.89371,-1.80851 2.01815,-2.0381 2.13111,-2.2759 2.23224,-2.52146 2.32118,-2.77431 0.11429,-0.14462 -1.66824,-3.36065 -1.9436,-3.20926 -0.18335,0.019 -3.58617,0.47329 -3.32504,0.53368 -3.06351,0.57987 -2.8022,0.61191 -2.54168,0.62986 -2.41848,0.67154 -0.56532,0.0679 -0.34323,-0.0877 -4.17971,-6.90152 0.0813,-0.34482 0.32207,-0.46953 1.71559,-1.83215 1.73573,-1.96063 1.84053,-2.19982 1.9332,-2.44625 2.01342,-2.69941 2.08089,-2.9588 0.10179,-0.15368 -1.9436,-3.20927 -2.20533,-3.03537 -0.18112,0.0343 -3.53399,0.77171 -3.26871,0.81004 -3.00425,0.83418 -2.74117,0.84425 -2.48006,0.84034 -2.35381,0.87155 -0.55765,0.11496 -0.34937,-0.0587 -4.74255,-6.52756 0.0521,-0.35041 0.28166,-0.49483 1.55626,-1.96929 1.56559,-2.09899 1.64999,-2.34612 1.72172,-2.59943 1.78048,-2.85843 1.82601,-3.12255 0.0886,-0.16165 -2.20533,-3.03538 -2.45159,-2.84019 -0.17761,0.0493 -3.45702,1.06473 -3.18947,1.08071 -2.92391,1.08265 -2.66091,1.07066 -2.40104,1.04492 -2.27263,1.06546 -0.54607,0.16121 -0.35306,-0.0293 -5.27213,-6.10782 0.0226,-0.35355 0.23925,-0.51666 1.38603,-2.09261 1.38445,-2.22263 1.4479,-2.47596 1.49816,-2.73439 1.53505,-2.99738 1.55831,-3.2644 0.0747,-0.1685 -2.45159,-2.84019 -2.68066,-2.62509 -0.17286,0.064 -3.3558,1.35027 -3.08785,1.34381 -2.82307,1.32352 -2.56198,1.28957 -2.30518,1.24216 -2.1755,1.25189 -0.53068,0.20635 -0.35426,3.7e-4 -5.76473,-5.64524 -0.007,-0.3542 0.19519,-0.53487 1.20605,-2.20124 1.19362,-2.3307 1.23563,-2.58843 1.2641,-2.85016 1.27885,-3.11532 1.27969,-3.38334 0.0604,-0.17416 -2.68066,-2.62509 -2.89091,-2.39157 -0.1669,0.0782 -3.23104,1.62634 -2.96458,1.59748 -2.70241,1.5551 -2.4451,1.49943 -2.19315,1.4307 -2.06312,1.42954 -0.51154,0.25003 -0.35299,0.03 -6.2169,-5.14307 -0.0367,-0.35236 0.14975,-0.54933 1.01763,-2.29445 0.9944,-2.42239 1.0147,-2.68275 1.02118,-2.94594 1.01368,-3.21141 0.99209,-3.47856 0.0456,-0.1786 -2.89091,-2.39157 -3.0809,-2.14128 -0.15977,0.0919 -3.08362,1.891 -2.82051,1.83994 -2.5628,1.77579 -2.31105,1.69877 -2.06575,1.60919 -1.93626,1.59717 -0.48883,0.29196 -0.34924,0.0594 -6.62545,-4.6048 -0.066,-0.34807 0.10325,-0.55993 0.82207,-2.37155 0.78822,-2.49711 0.78665,-2.75825 0.77109,-3.02106 0.7414,-3.28496 0.69754,-3.54938 0.0305,-0.18179 -3.0809,-2.14128 -3.24927,-1.87597 -0.15151,0.10499 -2.91457,2.1424 -2.65666,2.06951 -2.40522,1.984 -2.1608,1.8862 -1.92384,1.77641 -1.79582,1.75359 -0.46269,0.33183 -0.34304,0.0885 -6.98754,-4.03425 -0.0949,-0.34132 0.056,-0.56661 0.62074,-2.43202 0.57649,-2.55431 0.5531,-2.8144 0.51558,-3.07499 0.46393,-3.33548 0.39808,-3.59529 0.0152,-0.18371 -3.24926,-1.87597 -3.39485,-1.59749 -0.1422,0.11729 -2.72508,2.37878 -2.47416,2.28455 -2.23078,2.17831 -1.99538,2.06039 -1.76845,1.93117 -1.64279,1.8977 -0.43329,0.36939 -0.33444,0.11686 -7.30061,-3.43541 -0.12314,-0.33217 0.008,-0.56932 0.41506,-2.47543 0.36073,-2.59359 0.31565,-2.85081 0.25647,-3.10735 0.18319,-3.3626 0.0958,-3.616 -2.6e-4,-0.18433 -3.39485,-1.5975 -3.51662,-1.30781 -0.13188,0.12878 -2.51647,2.59846 -2.27432,2.48357 -2.04068,2.35734 -1.81597,2.22013 -1.60066,2.07237 -1.47823,2.02852 -0.40086,0.40435 -0.32349,0.14443 -7.56247,-2.81245 -0.1505,-0.32071 -0.0392,-0.56803 0.20646,-2.50148 0.14244,-2.61468 0.076,-2.86722 -0.004,-3.11791 -0.0988,-3.36614 -0.20707,-3.61134 -0.0157,-0.18366 -3.51661,-1.30782 -3.61372,-1.00897 -0.12065,0.13937 -2.29021,2.79992 -2.05852,2.66517 -1.83626,2.51983 -1.62383,2.3643 -1.42164,2.19905 -1.3033,2.14509 -0.36562,0.43648 -0.31027,0.17099 -7.77128,-2.16978 -0.17682,-0.30699 -0.0866,-0.56275 -0.004,-2.50998 -0.0769,-2.61743 -0.16419,-2.86353 -0.26533,-3.1066 -0.38016,-3.34607 -0.50853,-3.58134 -0.031,-0.1817 -3.61372,-1.00897 -3.68548,-0.70304 -0.10856,0.14897 -2.04789,2.98174 -1.82829,2.82808 -1.61896,2.66464 -1.4203,2.49189 -1.23263,2.31029 -1.11923,2.24663 -0.32782,0.46554 -0.29487,0.19636 -7.9256,-1.51189 -0.20188,-0.29112 -0.13342,-0.55352 -0.21359,-2.50088 -0.2956,-2.60182 -0.40323,-2.83975 -0.52436,-3.0735 -0.65881,-3.30252 -0.80643,-3.52623 -0.0461,-0.17848 -3.68547,-0.70304 -3.73138,-0.39218 -0.0957,0.15753 -1.79121,3.14265 -1.58523,2.97115 -1.39031,2.79077 -1.2068,2.60199 -1.03499,2.40534 -0.92732,2.3324 -0.28771,0.49134 -0.2774,0.22035 -8.02431,-0.84339 -0.22553,-0.27321 -0.17928,-0.54042 -0.42211,-2.47423 -0.51228,-2.56796 -0.63944,-2.79605 -0.7797,-3.01885 -0.93285,-3.23581 -1.09867,-3.44638 -0.0609,-0.17399 -3.73138,-0.39218 -3.7511,-0.0786 -0.0822,0.16499 -1.52195,3.28151 -1.33105,3.09338 -1.15191,2.89732 -0.98484,2.69385 -0.83009,2.48351 -0.72889,2.40182 -0.24559,0.51369 -0.258,0.24278 -8.06673,-0.16897 -0.24761,-0.25338 -0.22386,-0.52352 -0.62767,-2.43024 -0.72537,-2.51608 -0.87116,-2.73274 -1.02958,-2.94301 -1.20034,-3.14641 -1.38321,-3.34236 -0.0752,-0.16828 -3.75111,-0.0786 -3.74452,0.23559 -0.0681,0.17129 -1.24202,3.39735 -1.06754,3.19391 -0.90543,2.98354 -0.75596,2.76682 -0.61937,2.54426 -0.52535,2.45439 -0.20175,0.53243 -0.23677,0.26353 -8.05259,0.50662 -0.26793,-0.23177 -0.26689,-0.50295 -0.82883,-2.36919 -0.93336,-2.44657 -1.09678,-2.65025 -1.27223,-2.84654 -1.45942,-3.03493 -1.65803,-3.21489 -0.089,-0.16141 -3.74453,0.23559 -3.71168,0.54809 -0.0535,0.17639 -0.95339,3.48937 -0.79653,3.27203 -0.6526,3.04885 -0.52179,2.82037 -0.40429,2.58716 -0.31814,2.48974 -0.15648,0.54746 -0.2139,0.28241 -7.98195,1.17867 -0.28639,-0.20854 -0.30803,-0.47885 -1.02418,-2.29153 -1.1348,-2.35989 -1.31471,-2.54918 -1.50596,-2.7301 -1.70825,-2.90216 -1.92124,-3.06488 -0.10222,-0.15339 -3.71168,0.5481 -3.6528,0.85676 -0.0386,0.18024 -0.65806,3.55691 -0.51994,3.32721 -0.39519,3.09276 -0.28396,2.85415 -0.18638,2.61191 -0.10869,2.50764 -0.11012,0.55862 -0.18951,0.29932 -7.85533,1.84245 -0.30284,-0.18384 -0.34702,-0.4514 -1.21234,-2.19779 -1.32829,-2.25665 -1.5234,-2.43023 -1.72913,-2.59451 -1.94511,-2.74904 -2.17096,-2.89337 -0.1147,-0.14429 -3.6528,0.85675 -3.5683,1.15941 -0.0234,0.18285 -0.35811,3.5995 -0.23971,3.35904 -0.135,3.11499 -0.0441,2.8679 0.0328,2.61835 0.10154,2.50793 -0.063,0.56588 -0.1638,0.31413 -7.67361,2.4933 -0.31715,-0.15785 -0.38358,-0.42078 -1.39199,-2.08864 -1.51247,-2.13758 -1.72141,-2.29424 -1.94017,-2.44072 -2.16832,-2.57663 -2.40546,-2.70156 -0.12637,-0.13419 -3.5683,1.15941 -3.45877,1.45393 -0.008,0.18416 -0.0557,3.61684 0.0422,3.36732 0.12612,3.11537 0.196,2.86152 0.25181,2.60642 0.31103,2.49065 -0.0154,0.56916 -0.13694,0.32673 -7.43806,3.12668 -0.32926,-0.13076 -0.41744,-0.38721 -1.56188,-1.96484 -1.68603,-2.00352 -1.90735,-2.14215 -2.1376,-2.26981 -2.37633,-2.38616 -2.62308,-2.4908 -0.13716,-0.12314 -3.45876,1.45393 -3.32498,1.73826 0.007,0.18417 0.24718,3.60882 0.32384,3.35198 0.38636,3.09388 0.43476,2.83509 0.46902,2.57621 0.51836,2.45588 0.0323,0.56846 -0.10912,0.33705 -7.15034,3.73811 -0.33904,-0.10275 -0.44838,-0.35092 -1.72082,-1.82725 -1.84777,-1.85542 -2.07991,-1.97503 -2.32004,-2.08298 -2.56766,-2.17894 -2.8223,-2.26257 -0.14698,-0.11124 -3.32498,1.73826 -3.16786,2.01038 0.0228,0.18291 0.54829,3.57547 0.60319,3.31313 0.6439,3.0507 0.67047,2.78878 0.68295,2.52792 0.72204,2.40389 0.0797,0.56377 -0.0805,0.34499 -6.81247,4.32333 -0.34645,-0.074 -0.47617,-0.31217 -1.86768,-1.67685 -1.99655,-1.69429 -2.23788,-1.79406 -2.4862,-1.88154 -2.74098,-1.95644 -3.00173,-2.01848 -0.15578,-0.0985 -3.16786,2.01038 -2.98853,2.26842 0.0381,0.18035 0.84556,3.51706 0.87831,3.25103 0.89691,2.98612 0.90148,2.72289 0.89208,2.46191 0.92066,2.33505 0.12661,0.55512 -0.0514,0.35052 -6.42681,4.87821 -0.35143,-0.0448 -0.50062,-0.27123 -2.00144,-1.51468 -2.13132,-1.52128 -2.38016,-1.60051 -2.63493,-1.6669 -2.89508,-1.72022 -3.1601,-1.76022 -0.16348,-0.0852 -2.98853,2.26841 -2.78822,2.51053 0.053,0.17654 1.13689,3.43397 1.14727,3.16613 1.14365,2.9006 1.12615,2.6379 1.09497,2.37863 1.11282,2.24982 0.17262,0.54258 -0.0219,0.35359 -5.99607,5.39889 -0.35394,-0.0152 -0.52156,-0.22839 -2.12117,-1.34189 -2.25115,-1.3376 -2.50573,-1.39573 -2.76517,-1.44057 -3.02887,-1.47194 -3.29631,-1.48961 -0.17003,-0.0712 -2.78823,2.51054 -2.56838,2.73504 0.0676,0.17148 1.42025,3.32679 1.40818,3.05903 1.38235,2.79473 1.34294,2.53442 1.29016,2.27866 1.29718,2.1488 0.21741,0.52624 0.008,0.35418 -5.52328,5.88169 -0.35397,0.0145 -0.53885,-0.18394 -2.22601,-1.15969 -2.35518,-1.14454 -2.61374,-1.18116 -2.87601,-1.20414 -3.14142,-1.21332 -3.4094,-1.20856 -0.17539,-0.0567 -2.56837,2.73504 -2.33051,2.94037 0.0817,0.16522 1.69364,3.19628 1.65922,2.93047 1.61136,2.66925 1.5503,2.41316 1.47632,2.16271 1.47243,2.03273 0.26069,0.50619 0.0374,0.35229 -5.01174,6.32324 -0.35152,0.044 -0.55235,-0.13821 -2.31524,-0.96936 -2.4427,-0.94345 -2.70341,-0.9583 -2.96668,-0.95926 -3.23193,-0.9462 -3.49857,-0.91902 -0.17952,-0.0418 -2.33051,2.94037 -2.07628,3.12506 0.0953,0.1578 1.95517,3.04335 1.89861,2.78136 1.82906,2.52505 1.7468,2.27497 1.65211,2.03159 1.63736,1.90239 0.30213,0.4826 0.0668,0.34792 -4.46505,6.72044 -0.3466,0.0733 -0.56198,-0.0915 -2.38824,-0.77222 -2.51307,-0.73574 -2.77412,-0.72872 -3.03654,-0.70765 -3.29977,-0.67244 -3.56321,-0.62305 -0.18239,-0.0267 -2.07629,3.12506 -1.8075,3.28785 0.10813,0.14927 2.20297,2.86907 2.12469,2.61273 2.03394,2.36315 1.93103,2.12082 1.81632,1.88622 1.79081,1.75871 0.34145,0.45563 0.0956,0.34112 -3.88704,7.07048 -0.33925,0.10204 -0.56766,-0.0442 -2.44449,-0.56967 -2.56582,-0.52287 -2.82537,-0.49404 -3.08511,-0.45107 -3.34446,-0.39397 -3.60285,-0.3227 -0.18398,-0.0113 -1.80751,3.28784 -1.52605,3.42756 0.12025,0.13971 2.43532,2.67467 2.33587,2.42577 2.22455,2.18467 2.10172,1.95179 1.96778,1.72763 1.9317,1.60268 0.37838,0.42546 0.12383,0.33192 -3.28175,7.37095 -0.32953,0.13007 -0.56937,0.003 -2.48358,-0.36312 -2.60057,-0.30634 -2.8568,-0.25588 -3.11204,-0.19134 -3.3657,-0.11272 -3.61721,-0.0201 -0.18429,0.004 -1.52604,3.42756 -1.23389,3.54323 0.13152,0.12916 2.65059,2.4615 2.53066,2.22181 2.39955,1.99086 2.25768,1.76908 2.10544,1.55691 2.05903,1.43542 0.41265,0.39231 0.15118,0.32039 -2.65346,7.61971 -0.31749,0.15718 -0.56708,0.0511 -2.50525,-0.15403 -2.61709,-0.0877 -2.86819,-0.0159 -3.11713,0.0697 -3.36334,0.1693 -3.6062,0.28266 -0.1833,0.0195 -1.23388,3.54323 -0.93307,3.63406 0.14186,0.1177 2.84727,2.23108 2.7077,2.00225 2.55773,1.78309 2.39779,1.57396 2.22834,1.37526 2.17192,1.2581 0.44403,0.3564 0.17746,0.30662 -2.00656,7.81502 -0.30322,0.1832 -0.56081,0.0984 -2.50936,0.0562 -2.61524,0.13164 -2.85946,0.22413 -3.10037,0.33033 -3.33737,0.45015 -3.56991,0.58342 -0.18101,0.0348 -0.93307,3.63406 -0.6257,3.69939 0.15121,0.10541 3.02397,1.985 2.86575,1.76866 2.69796,1.56281 2.52109,1.3678 2.3356,1.18398 2.26958,1.07193 0.4723,0.318 0.20249,0.2907 -1.34557,7.95549 -0.28683,0.208 -0.55061,0.1449 -2.49586,0.266 -2.59505,0.35 -2.83069,0.4626 -3.06184,0.5886 -3.288,0.7278 -3.50857,0.8801 -0.17747,0.05 -0.6257,3.6994 -0.31396,3.7387 0.1595,0.092 3.17947,1.725 3.0037,1.5227 2.81927,1.3315 2.62671,1.1521 2.42648,0.9844 2.35131,0.8782 0.49726,0.2774 0.2261,0.2727 -0.67515,8.0402 -0.26843,0.2313 -0.53654,0.1905 -2.46486,0.4738 -2.55666,0.566 -2.78204,0.6978 -3.00186,0.8428 -3.21557,1.0004 -3.42261,1.1706 -0.17268,0.064 0,0 z"
         inkscape:connector-curvature="0" />
      <path
         id="path26"
         style="fill:none;stroke:#000000"
         d="m 584.28927,1043.7822 1.83201,-0.2705 1.84823,0.1163 1.78367,0.498 1.64114,0.858 1.4269,1.1804 1.15029,1.4513 0.82342,1.6588 0.46054,1.7937 0.0776,1.8502 -0.30884,1.826 -0.68172,1.7218 -1.02482,1.5425 -1.32312,1.2957 -1.56359,0.9923 -1.73574,0.6455 -1.83201,0.2705 -1.84823,-0.1163 -1.78367,-0.498 -1.64114,-0.858 -1.4269,-1.1804 -1.15029,-1.4513 -0.82341,-1.6588 -0.46055,-1.7937 -0.0775,-1.8502 0.30884,-1.826 0.68172,-1.7218 1.02482,-1.5425 1.32312,-1.2957 1.56359,-0.9922 1.73574,-0.6456 0,0 z"
         inkscape:connector-curvature="0" />
    </g>
  </g>
</svg>
