999
DXF generated by OpenJsCad
  0
SECTION
  2
HEADER
  0
ENDSEC
  0
SECTION
  2
TABLES
  0
TABLE
  2
LTYPE
  70
1
  0
LTYPE
  2
CONTINUOUS
  3
Solid Line
  72
65
  73
0
  40
0.0
  0
ENDTAB
  0
TABLE
  2
LAYER
  70
1
  0
LAYER
  2
OpenJsCad
  62
7
  6
continuous
  0
ENDTAB
  0
TABLE
  2
STYLE
  70
0
  0
ENDTAB
  0
TABLE
  2
VIEW
  70
0
  0
ENDTAB
  0
ENDSEC
  0
SECTION
  2
BLOCKS
  0
ENDSEC
  0
SECTION
  2
ENTITIES
  0
LWPOLYLINE
  8
OpenJsCad
  90
1046
  70
1
 10
71.92298966182294
 20
-9.304938894724543
 30
0.0
 10
72.10159324781958
 20
-8.272887137466821
 30
0.0
 10
72.16138761348516
 20
-7.227203292117566
 30
0.0
 10
71.25784719340155
 20
-6.73253134855877
 30
0.0
 10
70.37894740479696
 20
-6.293981646597568
 30
0.0
 10
69.5715439355688
 20
-5.928809571302231
 30
0.0
 10
68.83982259505912
 20
-5.63087802118095
 30
0.0
 10
68.18760347401597
 20
-5.39384244639436
 30
0.0
 10
67.54269061950323
 20
-5.186897652857553
 30
0.0
 10
67.34702667590858
 20
-5.088352162434293
 30
0.0
 10
67.25672295798947
 20
-4.986294758732892
 30
0.0
 10
67.38672060783789
 20
-2.712895904733711
 30
0.0
 10
67.4880693695619
 20
-2.6217975863214895
 30
0.0
 10
67.69369126317672
 20
-2.5461984502575077
 30
0.0
 10
68.35799033381699
 20
-2.4141171032190116
 30
0.0
 10
69.03297813738169
 20
-2.252973966206926
 30
0.0
 10
69.79389156199204
 20
-2.040394360029016
 30
0.0
 10
70.63765864144311
 20
-1.7696396327708215
 30
0.0
 10
71.56082042746544
 20
-1.4341355398823685
 30
0.0
 10
72.51485968423863
 20
-1.0456838453492492
 30
0.0
 10
72.57465404990423
 20
7.993605777301127e-15
 30
0.0
 10
72.51485968423867
 20
1.045683845349258
 30
0.0
 10
71.56082042745686
 20
1.4341355398858653
 30
0.0
 10
70.63765864144287
 20
1.7696396327713335
 30
0.0
 10
69.79389156199207
 20
2.0403943600287455
 30
0.0
 10
69.03297813738173
 20
2.252973966206625
 30
0.0
 10
68.35799033381616
 20
2.414117103219669
 30
0.0
 10
67.69369126318148
 20
2.546198450281523
 30
0.0
 10
67.48806936956223
 20
2.6217975863229
 30
0.0
 10
67.38672060783783
 20
2.712895904733378
 30
0.0
 10
67.25672295798957
 20
4.986294758732568
 30
0.0
 10
67.3470266759081
 20
5.088352162435657
 30
0.0
 10
67.54269061949576
 20
5.18689765288087
 30
0.0
 10
68.18760347401673
 20
5.393842446395109
 30
0.0
 10
68.8398225950591
 20
5.630878021180645
 30
0.0
 10
69.57154393556881
 20
5.92880957130196
 30
0.0
 10
70.37894740479715
 20
6.293981646598106
 30
0.0
 10
71.25784719340967
 20
6.732531348563222
 30
0.0
 10
72.16138761348512
 20
7.22720329211757
 30
0.0
 10
72.10159324781951
 20
8.272887137466828
 30
0.0
 10
71.92298966182284
 20
9.3049388947246
 30
0.0
 10
70.9308889290701
 20
9.582106278340447
 30
0.0
 10
69.9754999713214
 20
9.81019095321204
 30
0.0
 10
69.10636907590403
 20
9.982998630495736
 30
0.0
 10
68.32618323734997
 20
10.107454992465076
 30
0.0
 10
67.63722624954222
 20
10.190604944476945
 30
0.0
 10
66.96220111708583
 20
10.246100962712507
 30
0.0
 10
66.74930186928346
 20
10.297768194019723
 30
0.0
 10
66.63822929985581
 20
10.376719821241878
 30
0.0
 10
66.24993106848241
 20
12.620481444463735
 30
0.0
 10
66.32801249553066
 20
12.73216745912374
 30
0.0
 10
66.51116771035707
 20
12.852374612776323
 30
0.0
 10
67.12828692343294
 20
13.131485010901574
 30
0.0
 10
67.74923468826961
 20
13.441322902244039
 30
0.0
 10
68.44222483798156
 20
13.820722402925345
 30
0.0
 10
69.2027389580013
 20
14.275551249799243
 30
0.0
 10
70.02591894635547
 20
14.811429394800575
 30
0.0
 10
70.86718149857055
 20
15.405872782088682
 30
0.0
 10
70.6885779125739
 20
16.437924539346465
 30
0.0
 10
70.39349347712873
 20
17.442889835537205
 30
0.0
 10
69.3762648186788
 20
17.60515960751394
 30
0.0
 10
68.40110364533875
 20
17.72285143182415
 30
0.0
 10
67.51793938434098
 20
17.795459246785455
 30
0.0
 10
66.72865204738919
 20
17.83016988553651
 30
0.0
 10
66.03470748329929
 20
17.83424266576127
 30
0.0
 10
65.35775627394064
 20
17.812429879702616
 30
0.0
 10
65.14035513923768
 20
17.839491644900736
 30
0.0
 10
65.02100676291288
 20
17.90526732573277
 30
0.0
 10
64.3794700112859
 20
20.090140854027446
 30
0.0
 10
64.44431123665215
 20
20.20999948164152
 30
0.0
 10
64.61257001439223
 20
20.35030121442047
 30
0.0
 10
65.19385049331838
 20
20.69793858627283
 30
0.0
 10
65.77543189821749
 20
21.076539583422587
 30
0.0
 10
66.42065667073832
 20
21.532460981955747
 30
0.0
 10
67.12436697693857
 20
22.07101721081732
 30
0.0
 10
67.88109575499465
 20
22.697237807714778
 30
0.0
 10
68.64911329543595
 20
23.383703160099348
 30
0.0
 10
68.35402885999069
 20
24.388668456290077
 30
0.0
 10
67.94631045198634
 20
25.353446031881557
 30
0.0
 10
66.91721499905307
 20
25.398702757581866
 30
0.0
 10
65.93499432733294
 20
25.40446743841436
 30
0.0
 10
65.04931009752256
 20
25.375928837145914
 30
0.0
 10
64.26121082966962
 20
25.320441246419485
 30
0.0
 10
63.57132531794189
 20
25.24538375993838
 30
0.0
 10
62.90127312595844
 20
25.14654653261015
 30
0.0
 10
62.682204260617944
 20
25.148650040204178
 30
0.0
 10
62.556135966001186
 20
25.200392288055504
 30
0.0
 10
61.66972410678213
 20
27.297894553648256
 30
0.0
 10
61.720479825931825
 20
27.424363253705312
 30
0.0
 10
61.87164865609912
 20
27.58293051796
 30
0.0
 10
62.40951252087881
 20
27.994562878754536
 30
0.0
 10
62.944145762813356
 20
28.43699133871814
 30
0.0
 10
63.53319366648917
 20
28.96349100243135
 30
0.0
 10
64.1709262188424
 20
29.578753709221793
 30
0.0
 10
64.85133866971088
 20
30.287153014853843
 30
0.0
 10
65.53609891520733
 20
31.056691206653102
 30
0.0
 10
65.128380507203
 20
32.02146878224457
 30
0.0
 10
64.61334335961288
 20
32.933481286101824
 30
0.0
 10
63.58579694522378
 20
32.86113497489493
 30
0.0
 10
62.60932152369238
 20
32.75489736081912
 30
0.0
 10
61.7326635734844
 20
32.62558438763262
 30
0.0
 10
60.95602645392928
 20
32.48062193303115
 30
0.0
 10
60.27919370725301
 20
32.32741266896611
 30
0.0
 10
59.62477568768001
 20
32.152839494778576
 30
0.0
 10
59.40689498938433
 20
32.12995732233012
 30
0.0
 10
59.27575026949256
 20
32.16699159787044
 30
0.0
 10
58.15601903685857
 20
34.14977845101296
 30
0.0
 10
58.19202757137174
 20
34.2812085105988
 30
0.0
 10
58.324135737082074
 20
34.4559741395423
 30
0.0
 10
58.81157110968114
 20
34.92623523194549
 30
0.0
 10
59.292286426726335
 20
35.42672342314018
 30
0.0
 10
59.81747832130005
 20
36.01693762373949
 30
0.0
 10
60.38091930070008
 20
36.700885918152736
 30
0.0
 10
60.97614520752719
 20
37.48222886421335
 30
0.0
 10
61.56872126107288
 20
38.324807788240186
 30
0.0
 10
61.05368411348272
 20
39.23682029209743
 30
0.0
 10
60.43804252317349
 20
40.084178246489344
 30
0.0
 10
59.42544078626983
 20
39.89517204318124
 30
0.0
 10
58.467440465373514
 20
39.67831710396609
 30
0.0
 10
57.611237371824465
 20
39.449915551225715
 30
0.0
 10
56.85618705313396
 20
39.21736804003646
 30
0.0
 10
56.20123062144436
 20
38.988004315447924
 30
0.0
 10
55.57097811397031
 20
38.73997102270189
 30
0.0
 10
55.35712599082733
 20
38.692401474322594
 30
0.0
 10
55.222614517644345
 20
38.7142449791336
 30
0.0
 10
53.884161320621
 20
40.556467760913506
 30
0.0
 10
53.90495324418232
 20
40.69114578820506
 30
0.0
 10
54.01627851346226
 20
40.8798314445945
 30
0.0
 10
54.44693092836254
 20
41.40259069609521
 30
0.0
 10
54.86746146120138
 20
41.95461398955073
 30
0.0
 10
55.321950667149736
 20
42.60084838231503
 30
0.0
 10
55.80375475875817
 20
43.3445659523693
 30
0.0
 10
56.306034441567704
 20
44.188666538646544
 30
0.0
 10
56.79870116807643
 20
45.09330189006793
 30
0.0
 10
56.183059577767104
 20
45.94065984445979
 30
0.0
 10
55.4748393743708
 20
46.71231664258382
 30
0.0
 10
54.490383127167945
 20
46.4091145320824
 30
0.0
 10
53.56334690616227
 20
46.084469303497464
 30
0.0
 10
52.738760585990434
 20
45.75995673473837
 30
0.0
 10
52.015140303769314
 20
45.44285577940524
 30
0.0
 10
51.39059854578022
 20
45.140327701209834
 30
0.0
 10
50.792727855687055
 20
44.82206778319427
 30
0.0
 10
50.585692197166594
 20
44.75043100069552
 30
0.0
 10
50.449567533454115
 20
44.75679897128667
 30
0.0
 10
48.90984115636499
 20
46.434441490426806
 30
0.0
 10
48.91514541445368
 20
46.570611751374834
 30
0.0
 10
49.004236492168104
 20
46.770757629121654
 30
0.0
 10
49.372491736543395
 20
47.339200073419335
 30
0.0
 10
49.72735522656176
 20
47.93556200129467
 30
0.0
 10
50.10521678203356
 20
48.62939193262615
 30
0.0
 10
50.499102932691876
 20
49.42318328242634
 30
0.0
 10
50.901888407680644
 20
50.31903736689263
 30
0.0
 10
51.28822314293569
 20
51.27393584044127
 30
0.0
 10
50.580002939539334
 20
52.0455926385653
 30
0.0
 10
49.788436856490485
 20
52.731488553960936
 30
0.0
 10
48.84495999170252
 20
52.31804323946445
 30
0.0
 10
47.96097320544747
 20
51.889839968545225
 30
0.0
 10
47.17875340237852
 20
51.47344690137918
 30
0.0
 10
46.49599665364014
 20
51.07592639779836
 30
0.0
 10
45.91001142628048
 20
50.704177882152436
 30
0.0
 10
45.35231671233891
 20
50.3198403436145
 30
0.0
 10
45.15479654487004
 20
50.22507022201049
 30
0.0
 10
45.018833283795395
 20
50.21587964214657
 30
0.0
 10
43.29790641467385
 20
51.707071262786386
 30
0.0
 10
43.28765385817392
 20
51.84295856979384
 30
0.0
 10
43.35334930587758
 20
52.05195546129795
 30
0.0
 10
43.654406609443626
 20
52.65867058181051
 30
0.0
 10
43.93897686835536
 20
53.29159665435778
 30
0.0
 10
44.235284770110255
 20
54.023976990025396
 30
0.0
 10
44.536118071473396
 20
54.857493835379465
 30
0.0
 10
44.83415841399391
 20
55.793422590011524
 30
0.0
 10
45.109124693898366
 20
56.78613562375569
 30
0.0
 10
44.31755861084949
 20
57.472031539151324
 30
0.0
 10
43.45296592258493
 20
58.063224869618814
 30
0.0
 10
42.5627681040063
 20
57.54492624308484
 30
0.0
 10
41.733354872144275
 20
57.018747214320264
 30
0.0
 10
41.003699017562234
 20
56.5159019691689
 30
0.0
 10
40.37070658066827
 20
56.04314420503384
 30
0.0
 10
39.830917097525564
 20
55.60702156235492
 30
0.0
 10
39.320668763216
 20
55.16161683087797
 30
0.0
 10
39.13523906424982
 20
55.044948843636014
 30
0.0
 10
39.00120969485014
 20
55.020319526580735
 30
0.0
 10
37.12151724725362
 20
56.305620285461515
 30
0.0
 10
37.09584153391829
 20
56.43945313966873
 30
0.0
 10
37.13728491098213
 20
56.65457645082981
 30
0.0
 10
37.36721953137915
 20
57.29165478811017
 30
0.0
 10
37.577786750665226
 20
57.95289384603803
 30
0.0
 10
37.78867817205929
 20
58.71427688833501
 30
0.0
 10
37.992536801978765
 20
59.57665306246403
 30
0.0
 10
38.181946600372314
 20
60.54045522462666
 30
0.0
 10
38.34195981896089
 20
61.558041286012575
 30
0.0
 10
37.47736713069633
 20
62.14923461648003
 30
0.0
 10
36.55101912513177
 20
62.63801825284306
 30
0.0
 10
35.725705442709696
 20
62.02162312950406
 30
0.0
 10
34.96167843514207
 20
61.40432789122119
 30
0.0
 10
34.294098708976236
 20
60.821585824857756
 30
0.0
 10
33.71912260837876
 20
60.27975392061376
 30
0.0
 10
33.23256585086742
 20
59.78494267651279
 30
0.0
 10
32.77641576355181
 20
59.28427728393036
 30
0.0
 10
32.60549389279254
 20
59.147232376684876
 30
0.0
 10
32.47514569286944
 20
59.10748540325174
 30
0.0
 10
30.46119233247149
 20
60.1701394393673
 30
0.0
 10
30.420428184490046
 20
60.30017312484868
 30
0.0
 10
30.43707921311456
 20
60.51861839431706
 30
0.0
 10
30.59289360092599
 20
61.17775465795302
 30
0.0
 10
30.726712714861947
 20
61.85868643890658
 30
0.0
 10
30.849438363700475
 20
62.63914639549127
 30
0.0
 10
30.953664713173666
 20
63.51913950613108
 30
0.0
 10
31.03197472105325
 20
64.49825044069506
 30
0.0
 10
31.074948861312976
 20
65.52744373921526
 30
0.0
 10
30.148600855748356
 20
66.01622737557823
 30
0.0
 10
29.172573895802955
 20
66.39622927563859
 30
0.0
 10
28.422903575542446
 20
65.6897733085821
 30
0.0
 10
27.73422305274158
 20
64.98940924824336
 30
0.0
 10
27.137422377654136
 20
64.33436729469204
 30
0.0
 10
26.627958306137067
 20
63.73052485783603
 30
0.0
 10
26.20097728568389
 20
63.18347563359614
 30
0.0
 10
25.80487205934206
 20
62.63407651896958
 30
0.0
 10
25.65068624476635
 20
62.478441281669674
 30
0.0
 10
25.525718502447717
 20
62.42409481444254
 30
0.0
 10
23.40375919124583
 20
63.25024880731222
 30
0.0
 10
23.348438031627932
 20
63.374788136116635
 30
0.0
 10
23.340079640190535
 20
63.59370759573579
 30
0.0
 10
23.419742516583856
 20
64.26630893651188
 30
0.0
 10
23.475068988369582
 20
64.95805645337545
 30
0.0
 10
23.508028948135266
 20
65.7474188351541
 30
0.0
 10
23.511264267303137
 20
66.63355682633151
 30
0.0
 10
23.47745359395631
 20
67.6152123249076
 30
0.0
 10
23.402828422248447
 20
68.6425957519676
 30
0.0
 10
22.426801462303015
 20
69.02259765202786
 30
0.0
 10
21.41381955204048
 20
69.2888639098801
 30
0.0
 10
20.74956569303915
 20
68.50155683302201
 30
0.0
 10
20.145209658820875
 20
67.72725426722269
 30
0.0
 10
19.62696824430058
 20
67.00845190010557
 30
0.0
 10
19.189657845161022
 20
66.35047094025997
 30
0.0
 10
18.82781891235094
 20
65.75831535912307
 30
0.0
 10
18.49692238437312
 20
65.1673447801092
 30
0.0
 10
18.36148267387078
 20
64.99514815608651
 30
0.0
 10
18.243524534791266
 20
64.92691068437789
 30
0.0
 10
16.041222257525483
 20
65.50579445326493
 30
0.0
 10
15.972065282189565
 20
65.62321586478305
 30
0.0
 10
15.938806435105153
 20
65.8397555646027
 30
0.0
 10
15.941279272657916
 20
66.5170535954307
 30
0.0
 10
15.91739183712275
 20
67.2105988614305
 30
0.0
 10
15.860156424334274
 20
67.99857312258244
 30
0.0
 10
15.762358535863697
 20
68.87930383040904
 30
0.0
 10
15.616867955124297
 20
69.8507065123247
 30
0.0
 10
15.425616324686558
 20
70.86288655377237
 30
0.0
 10
14.41263441442402
 20
71.12915281162465
 30
0.0
 10
13.375903322200859
 20
71.278212239396
 30
0.0
 10
12.805725489356085
 20
70.42031780451397
 30
0.0
 10
12.293572648869876
 20
69.58217095134243
 30
0.0
 10
11.860646564303106
 20
68.80897885878143
 30
0.0
 10
11.501190847373902
 20
68.10543716401
 30
0.0
 10
11.209211126057419
 20
67.4758948795615
 30
0.0
 10
10.947837038726828
 20
66.85105704143076
 30
0.0
 10
10.832909096052594
 20
66.66454387702021
 30
0.0
 10
10.723498324948824
 20
66.5833049806296
 30
0.0
 10
8.46956345979057
 20
66.90737189031792
 30
0.0
 10
8.387472235672092
 20
67.01614461687774
 30
0.0
 10
8.329746512875264
 20
67.22748163075592
 30
0.0
 10
8.25499707436825
 20
67.90064673601013
 30
0.0
 10
8.152207140765519
 20
68.58694832796307
 30
0.0
 10
8.005522506558865
 20
69.36326201894286
 30
0.0
 10
7.8079663554886425
 20
70.22710377173811
 30
0.0
 10
7.5526925595757755
 20
71.17558991746566
 30
0.0
 10
7.2473077278925615
 20
72.15937125853075
 30
0.0
 10
6.210576635669406
 20
72.30843068630215
 30
0.0
 10
5.163611736748614
 20
72.33834006639466
 30
0.0
 10
4.694943070086159
 20
71.42104223942788
 30
0.0
 10
4.281670118844574
 20
70.52997762489562
 30
0.0
 10
3.9397032178187734
 20
69.71247554826219
 30
0.0
 10
3.662788238086767
 20
68.97254486048463
 30
0.0
 10
3.444474130456677
 20
68.31382291916312
 30
0.0
 10
3.256029894721817
 20
67.66326353870191
 30
0.0
 10
3.1631119813680857
 20
67.4648653182367
 30
0.0
 10
3.0636749149636073
 20
67.37168407041742
 30
0.0
 10
0.7874909498293409
 20
67.43670941314278
 30
0.0
 10
0.6935356615770386
 20
67.53541543590711
 30
0.0
 10
0.6120956061445654
 20
67.73879466266963
 30
0.0
 10
0.46109836482324523
 20
68.39905110572974
 30
0.0
 10
0.28074595713440265
 20
69.0691620328217
 30
0.0
 10
0.046524360041693746
 20
69.82369471744863
 30
0.0
 10
-0.24821460707577703
 20
70.65938601688914
 30
0.0
 10
-0.6099437338414307
 20
71.57259065899639
 30
0.0
 10
-1.0254806084632118
 20
72.51514820539853
 30
0.0
 10
-2.0724455073840238
 20
72.54505758549104
 30
0.0
 10
-3.115995424418567
 20
72.45542700339462
 30
0.0
 10
-3.477045112092404
 20
71.49068416434386
 30
0.0
 10
-3.7860505291504083
 20
70.55831817840901
 30
0.0
 10
-4.032600185109397
 20
69.70716350748035
 30
0.0
 10
-4.2233644173965175
 20
68.94048995479
 30
0.0
 10
-4.365166853078855
 20
68.26117580448599
 30
0.0
 10
-4.478224578416866
 20
67.59337591812094
 30
0.0
 10
-4.547921135349895
 20
67.38567906581584
 30
0.0
 10
-4.636088182825105
 20
67.28177022663557
 30
0.0
 10
-6.90484770897512
 20
67.08690629761209
 30
0.0
 10
-7.009442210492785
 20
67.1742588326228
 30
0.0
 10
-7.1135349028918275
 20
67.36702891302036
 30
0.0
 10
-7.338811467066312
 20
68.00576924141897
 30
0.0
 10
-7.594375179393579
 20
68.6509535829127
 30
0.0
 10
-7.913080302658474
 20
69.37386877373368
 30
0.0
 10
-8.301159712641658
 20
70.17051510570612
 30
0.0
 10
-8.764628477899308
 20
71.03653322511668
 30
0.0
 10
-9.284900236817212
 20
71.92557929778246
 30
0.0
 10
-10.328450153851765
 20
71.83594871568607
 30
0.0
 10
-11.354980819927615
 20
71.6279466431108
 30
0.0
 10
-11.603704693779658
 20
70.62833569026702
 30
0.0
 10
-11.804414218479849
 20
69.66682314942626
 30
0.0
 10
-11.952332477557496
 20
68.79311198701123
 30
0.0
 10
-12.054459058895574
 20
68.00969033164348
 30
0.0
 10
-12.117901211022165
 20
67.31863987118328
 30
0.0
 10
-12.15409854561404
 20
66.64230527170149
 30
0.0
 10
-12.199665144919598
 20
66.42801743365766
 30
0.0
 10
-12.27541278116758
 20
66.31473561374321
 30
0.0
 10
-14.507171118289456
 20
65.8625227622917
 30
0.0
 10
-14.621041283788522
 20
65.93738303566643
 30
0.0
 10
-14.746429605719458
 20
66.1170309168972
 30
0.0
 10
-15.043048668216988
 20
66.72592817362623
 30
0.0
 10
-15.370492021358173
 20
67.33777496494808
 30
0.0
 10
-15.769525862116824
 20
68.01964835689442
 30
0.0
 10
-16.24588650636563
 20
68.766864218148
 30
0.0
 10
-16.80505288597601
 20
69.57440594427133
 30
0.0
 10
-17.423276991159437
 20
70.39835046802288
 30
0.0
 10
-18.449807657235272
 20
70.19034839544753
 30
0.0
 10
-19.445936675243793
 20
69.86668645750747
 30
0.0
 10
-19.579092239204257
 20
68.845238848349
 30
0.0
 10
-19.66888931594651
 20
67.86711453901609
 30
0.0
 10
-19.716247837423918
 20
66.9822370462858
 30
0.0
 10
-19.728405391642735
 20
66.19228038760737
 30
0.0
 10
-19.71266019473834
 20
65.49850251656856
 30
0.0
 10
-19.671525250970983
 20
64.82245025979472
 30
0.0
 10
-19.692367862341985
 20
64.60436500569209
 30
0.0
 10
-19.75470860108317
 20
64.48318700680825
 30
0.0
 10
-21.920371366218024
 20
63.7795205190178
 30
0.0
 10
-22.042032723949244
 20
63.840912612609095
 30
0.0
 10
-22.18708204687898
 20
64.00509630980523
 30
0.0
 10
-22.551176724599507
 20
64.57621258793482
 30
0.0
 10
-22.94623099368634
 20
65.14674547046086
 30
0.0
 10
-23.42039153558085
 20
65.7786878010776
 30
0.0
 10
-23.978823324597776
 20
66.46673209014148
 30
0.0
 10
-24.626397729667904
 20
67.20526988160167
 30
0.0
 10
-25.334514684453882
 20
67.95337147951116
 30
0.0
 10
-26.330643702462417
 20
67.62970954157105
 30
0.0
 10
-27.283385007270862
 20
67.19460716660437
 30
0.0
 10
-27.299236374928316
 20
66.16463903281935
 30
0.0
 10
-27.276950361490364
 20
65.18265430121478
 30
0.0
 10
-27.223131754614545
 20
64.29814620953267
 30
0.0
 10
-27.145161789402277
 20
63.51195284067248
 30
0.0
 10
-27.050434506187727
 20
62.82449201460055
 30
0.0
 10
-26.932503540960933
 20
62.15753547559038
 30
0.0
 10
-26.9283504490835
 20
61.93849588023458
 30
0.0
 10
-26.976471583450518
 20
61.81100144291468
 30
0.0
 10
-29.047806050500473
 20
60.86505468757284
 30
0.0
 10
-29.17567255860875
 20
60.91217826155361
 30
0.0
 10
-29.338491942788544
 20
61.058757389135536
 30
0.0
 10
-29.765315704796933
 20
61.58464731457053
 30
0.0
 10
-30.22283075327423
 20
62.10642851965943
 30
0.0
 10
-30.76593658850592
 20
62.68020145423573
 30
0.0
 10
-31.39915950990977
 20
63.30010446157383
 30
0.0
 10
-32.126699817732145
 20
63.96001034881122
 30
0.0
 10
-32.915478234689694
 20
64.62251637247586
 30
0.0
 10
-33.86821953949812
 20
64.18741399750917
 30
0.0
 10
-34.76515269116829
 20
63.64654341037698
 30
0.0
 10
-34.6634932157038
 20
62.621481961722594
 30
0.0
 10
-34.529414644352876
 20
61.648438480574946
 30
0.0
 10
-34.37512051696942
 20
60.77583070559689
 30
0.0
 10
-34.2080394900623
 20
60.0036498594458
 30
0.0
 10
-34.035565035541
 20
59.33146818154444
 30
0.0
 10
-33.84237545933867
 20
58.6823021587625
 30
0.0
 10
-33.81328080611675
 20
58.46516373825689
 30
0.0
 10
-33.84655500353134
 20
58.333014947469
 30
0.0
 10
-35.79655816002059
 20
57.15711978717076
 30
0.0
 10
-35.92896288302611
 20
57.189360513687966
 30
0.0
 10
-36.107429728783025
 20
57.316424188563765
 30
0.0
 10
-36.59141827459869
 20
57.790231981881135
 30
0.0
 10
-37.105429694130464
 20
58.25645929356303
 30
0.0
 10
-37.71040060756374
 20
58.76458282442409
 30
0.0
 10
-38.41015963218438
 20
59.308263166316294
 30
0.0
 10
-39.20818124221703
 20
59.88093426689476
 30
0.0
 10
-40.06733818839995
 20
60.449207937123695
 30
0.0
 10
-40.96427134007011
 20
59.908337349991434
 30
0.0
 10
-41.79370344328754
 20
59.26874962595195
 30
0.0
 10
-41.575858411431916
 20
58.26195810604084
 30
0.0
 10
-41.33173520139232
 20
57.31054098520507
 30
0.0
 10
-41.07897701341411
 20
56.46120930375951
 30
0.0
 10
-40.82496308151538
 20
55.713107538545515
 30
0.0
 10
-40.576989923967695
 20
55.06496792495556
 30
0.0
 10
-40.311060258360996
 20
54.442055290280294
 30
0.0
 10
-40.25740333709389
 20
54.229648776006584
 30
0.0
 10
-40.27539681750643
 20
54.094568393334164
 30
0.0
 10
-42.07864739014467
 20
52.704054419793884
 30
0.0
 10
-42.21386422999612
 20
52.72099199167153
 30
0.0
 10
-42.40565194906584
 20
52.82688374452036
 30
0.0
 10
-42.94049574782898
 20
53.242432596538556
 30
0.0
 10
-43.50430261348247
 20
53.64702802880292
 30
0.0
 10
-44.16325188407698
 20
54.082877988649166
 30
0.0
 10
-44.92042458288496
 20
54.543247960386985
 30
0.0
 10
-45.77852406302435
 20
55.02121863072291
 30
0.0
 10
-46.696859113728
 20
55.487851631162236
 30
0.0
 10
-47.52629121694541
 20
54.84826390712263
 30
0.0
 10
-48.277409355791704
 20
54.11829705028198
 30
0.0
 10
-47.94621871068622
 20
53.14290052626535
 30
0.0
 10
-47.595233381339156
 20
52.22551294291654
 30
0.0
 10
-47.24730622229033
 20
51.41052969235651
 30
0.0
 10
-46.909670845466515
 20
50.69625965866338
 30
0.0
 10
-46.58943169422716
 20
50.08061160044976
 30
0.0
 10
-46.254228739094295
 20
49.49207297269626
 30
0.0
 10
-46.176709049808395
 20
49.28716740840191
 30
0.0
 10
-46.179187240684215
 20
49.150916413211895
 30
0.0
 10
-47.812177100540765
 20
47.56391110259174
 30
0.0
 10
-47.9484432989432
 20
47.56532471267772
 30
0.0
 10
-48.15105164510614
 20
47.64866408256062
 30
0.0
 10
-48.7297781899617
 20
48.000536678493546
 30
0.0
 10
-49.33603041701165
 20
48.33822571113183
 30
0.0
 10
-50.04036763329214
 20
48.696120129190064
 30
0.0
 10
-50.84508310221211
 20
49.06717810414677
 30
0.0
 10
-51.75207381344059
 20
49.44421726559038
 30
0.0
 10
-52.71761506686664
 20
49.80312632145615
 30
0.0
 10
-53.46873320571288
 20
49.073159464615465
 30
0.0
 10
-54.13174540656093
 20
48.262329709292956
 30
0.0
 10
-53.69152672475539
 20
47.33104396653816
 30
0.0
 10
-53.23825490663178
 20
46.459645470788736
 30
0.0
 10
-52.799694539116544
 20
45.689635204141545
 30
0.0
 10
-52.382839310851324
 20
45.01850850419369
 30
0.0
 10
-51.994508972999355
 20
44.44337791530758
 30
0.0
 10
-51.59440261148734
 20
43.89688579554247
 30
0.0
 10
-51.49403074188357
 20
43.702152438620715
 30
0.0
 10
-51.480961336214705
 20
43.56650707100446
 30
0.0
 10
-52.922401963130206
 20
41.80369946454017
 30
0.0
 10
-53.057941081795136
 20
41.789570684265186
 30
0.0
 10
-53.26872874540955
 20
41.8492712150446
 30
0.0
 10
-53.88379345079716
 20
42.13288035748447
 30
0.0
 10
-54.52458761432067
 20
42.399260697527424
 30
0.0
 10
-55.265130663528005
 20
42.674533872729285
 30
0.0
 10
-56.10689820576887
 20
42.95144254274128
 30
0.0
 10
-57.05095613710206
 20
43.222634913216076
 30
0.0
 10
-58.05111628640697
 20
43.46914109608436
 30
0.0
 10
-58.714128487255124
 20
42.65831134076184
 30
0.0
 10
-59.28039137212061
 20
41.77718909282257
 30
0.0
 10
-58.736883577359926
 20
40.90215486520431
 30
0.0
 10
-58.18723436179892
 20
40.08810546907861
 30
0.0
 10
-57.663758090899485
 20
39.37310644774894
 30
0.0
 10
-57.173117356591185
 20
38.753872244436195
 30
0.0
 10
-56.72175831195523
 20
38.226756831652615
 30
0.0
 10
-56.26196454237017
 20
37.72943558040898
 30
0.0
 10
-56.140048993267804
 20
37.547413077973594
 30
0.0
 10
-56.11160237074423
 20
37.414141682740826
 30
0.0
 10
-57.342702381747515
 20
35.49851267344946
 30
0.0
 10
-57.47574746098279
 20
35.46902569307157
 30
0.0
 10
-57.69196650249525
 20
35.504309097028596
 30
0.0
 10
-58.33535105935995
 20
35.71595750707942
 30
0.0
 10
-59.002333427467136
 20
35.90755647941835
 30
0.0
 10
-59.769428198440245
 20
36.09661980494902
 30
0.0
 10
-60.63727408677137
 20
36.27576924202547
 30
0.0
 10
-61.606091999323816
 20
36.43757941424704
 30
0.0
 10
-62.62783242741365
 20
36.56846913904159
 30
0.0
 10
-63.19409531227906
 20
35.68734689110231
 30
0.0
 10
-63.656226778470185
 20
34.747418926550914
 30
0.0
 10
-63.016515326047156
 20
33.94004362341857
 30
0.0
 10
-62.37765423115372
 20
33.19395570572319
 30
0.0
 10
-61.77608637061503
 20
32.54328903540414
 30
0.0
 10
-61.21805638257367
 20
31.984019993563358
 30
0.0
 10
-60.70955278656523
 20
31.511791512407054
 30
0.0
 10
-60.196065723857636
 20
31.070124472749704
 30
0.0
 10
-60.05419585088504
 20
30.903185766487464
 30
0.0
 10
-60.01074285673485
 20
30.774025740087385
 30
0.0
 10
-61.01545298045767
 20
28.730548481682053
 30
0.0
 10
-61.14426957418922
 20
28.686087709085008
 30
0.0
 10
-61.36310124772922
 20
28.696494013090053
 30
0.0
 10
-62.02641815444241
 20
28.8334225300523
 30
0.0
 10
-62.71089359194691
 20
28.94774234906992
 30
0.0
 10
-63.49453983122591
 20
29.048131095346008
 30
0.0
 10
-64.37715036729367
 20
29.127185812600857
 30
0.0
 10
-65.35809823795918
 20
29.177504343517526
 30
0.0
 10
-66.38809899580322
 20
29.19107126250563
 30
0.0
 10
-66.8502304619943
 20
28.25114329795413
 30
0.0
 10
-67.20220591911017
 20
27.264663015242984
 30
0.0
 10
-66.47463042611979
 20
26.535472008394358
 30
0.0
 10
-65.754885983278
 20
25.86707196613089
 30
0.0
 10
-65.08306889014165
 20
25.289220081936502
 30
0.0
 10
-64.46492442265823
 20
24.797207128819824
 30
0.0
 10
-63.905905397307315
 20
24.386021799723064
 30
0.0
 10
-63.345419130616804
 20
24.005766776956616
 30
0.0
 10
-63.18544442453019
 20
23.856088168203506
 30
0.0
 10
-63.12755153498492
 20
23.732723309105033
 30
0.0
 10
-63.89277383845844
 20
21.588037652744738
 30
0.0
 10
-64.01568262538738
 20
21.529182702093337
 30
0.0
 10
-64.23427412543042
 20
21.5145762440593
 30
0.0
 10
-64.90887603170061
 20
21.57499979530919
 30
0.0
 10
-65.6019213545043
 20
21.61055012733496
 30
0.0
 10
-66.39190303492771
 20
21.62095557352396
 30
0.0
 10
-67.2777720406156
 20
21.59888497181919
 30
0.0
 10
-68.25806171373367
 20
21.537055882428184
 30
0.0
 10
-69.28289516627018
 20
21.43312313007283
 30
0.0
 10
-69.63487062338608
 20
20.446642847361726
 30
0.0
 10
-69.87210153306616
 20
19.42647052560324
 30
0.0
 10
-69.06614705874287
 20
18.7849699349665
 30
0.0
 10
-68.27490223747242
 20
18.20297138487196
 30
0.0
 10
-67.54159407495928
 20
17.705467469823265
 30
0.0
 10
-66.87139358649756
 20
17.28712474671142
 30
0.0
 10
-66.26914679970905
 20
16.942342999265893
 30
0.0
 10
-65.66896812467523
 20
16.628457199137213
 30
0.0
 10
-65.49297410041818
 20
16.497989977462257
 30
0.0
 10
-65.42139603782884
 20
16.382028535265977
 30
0.0
 10
-65.93715467807058
 20
14.164093738355376
 30
0.0
 10
-66.05255335419456
 20
14.091611873938398
 30
0.0
 10
-66.26805500624495
 20
14.052183071383453
 30
0.0
 10
-66.94514744455327
 20
14.035313943524534
 30
0.0
 10
-67.63772774699716
 20
13.991631335613276
 30
0.0
 10
-68.4237462492394
 20
13.911917830811038
 30
0.0
 10
-69.30132506729625
 20
13.7890096341925
 30
0.0
 10
-70.26817696781791
 20
13.615838961229441
 30
0.0
 10
-71.27448284371236
 20
13.395761459902271
 30
0.0
 10
-71.51171375339253
 20
12.375589138143773
 30
0.0
 10
-71.6311074479313
 20
11.335024283704552
 30
0.0
 10
-70.75728084139628
 20
10.789577050527331
 30
0.0
 10
-69.90485072799544
 20
10.301567233754277
 30
0.0
 10
-69.11961128945417
 20
9.890897012218115
 30
0.0
 10
-68.40609186832081
 20
9.551678256279601
 30
0.0
 10
-67.7684685279782
 20
9.277794847838983
 30
0.0
 10
-67.13642169148514
 20
9.034370251779217
 30
0.0
 10
-66.94670270031204
 20
8.924815256940846
 30
0.0
 10
-66.862372594189
 20
8.81776896638596
 30
0.0
 10
-67.12194386857226
 20
6.555499200896896
 30
0.0
 10
-67.22832803566844
 20
6.470335334663745
 30
0.0
 10
-67.4379304461244
 20
6.406598202327778
 30
0.0
 10
-68.10868648105807
 20
6.312656310239693
 30
0.0
 10
-68.79177291973474
 20
6.1903102319894705
 30
0.0
 10
-69.56358129055873
 20
6.021516963637181
 30
0.0
 10
-70.42142933900732
 20
5.799373468411663
 30
0.0
 10
-71.36223907379987
 20
5.517118756429032
 30
0.0
 10
-72.33689863701345
 20
5.183765552924996
 30
0.0
 10
-72.45629233155223
 20
4.143200698485784
 30
0.0
 10
-72.45629233155223
 20
3.0958086655822745
 30
0.0
 10
-71.52598525896732
 20
2.653525528703099
 30
0.0
 10
-70.62348258358811
 20
2.2658663995279946
 30
0.0
 10
-69.79654866596904
 20
1.9473835858812512
 30
0.0
 10
-69.04901212900583
 20
1.6917110323679523
 30
0.0
 10
-68.38432463046976
 20
1.4922964520119606
 30
0.0
 10
-67.72864932962217
 20
1.3225064719006847
 30
0.0
 10
-67.52767864872077
 20
1.2352919207993918
 30
0.0
 10
-67.43169587096362
 20
1.1385562939894849
 30
0.0
 10
-67.4316958709637
 20
-1.138556293989182
 30
0.0
 10
-67.52767864872035
 20
-1.2352919208008075
 30
0.0
 10
-67.72864932961605
 20
-1.3225064719244155
 30
0.0
 10
-68.38432463047054
 20
-1.4922964520126907
 30
0.0
 10
-69.0490121290058
 20
-1.6917110323676734
 30
0.0
 10
-69.79654866596903
 20
-1.947383585881006
 30
0.0
 10
-70.62348258358833
 20
-2.265866399528548
 30
0.0
 10
-71.5259852589757
 20
-2.653525528707107
 30
0.0
 10
-72.4562923315524
 20
-3.0958086655823065
 30
0.0
 10
-72.45629233155243
 20
-4.143200698485836
 30
0.0
 10
-72.3368986370134
 20
-5.183765552925059
 30
0.0
 10
-71.36223907379109
 20
-5.517118756432089
 30
0.0
 10
-70.42142933900703
 20
-5.79937346841222
 30
0.0
 10
-69.56358129055876
 20
-6.021516963636969
 30
0.0
 10
-68.79177291973483
 20
-6.190310231989228
 30
0.0
 10
-68.10868648105719
 20
-6.3126563102403574
 30
0.0
 10
-67.43793044612778
 20
-6.4065982023520816
 30
0.0
 10
-67.22832803566868
 20
-6.4703353346652275
 30
0.0
 10
-67.12194386857222
 20
-6.555499200896615
 30
0.0
 10
-66.86237259418911
 20
-8.817768966385698
 30
0.0
 10
-66.94670270031148
 20
-8.924815256942233
 30
0.0
 10
-67.13642169147634
 20
-9.034370251802121
 30
0.0
 10
-67.76846852797891
 20
-9.277794847839825
 30
0.0
 10
-68.4060918683208
 20
-9.551678256279347
 30
0.0
 10
-69.11961128945418
 20
-9.890897012217899
 30
0.0
 10
-69.90485072799558
 20
-10.301567233754879
 30
0.0
 10
-70.75728084140414
 20
-10.789577050532294
 30
0.0
 10
-71.6311074479312
 20
-11.335024283704602
 30
0.0
 10
-71.5117137533924
 20
-12.375589138143845
 30
0.0
 10
-71.27448284371224
 20
-13.395761459902303
 30
0.0
 10
-70.26817696780886
 20
-13.615838961231479
 30
0.0
 10
-69.30132506729592
 20
-13.789009634193022
 30
0.0
 10
-68.42374624923947
 20
-13.911917830810829
 30
0.0
 10
-67.63772774699726
 20
-13.991631335613043
 30
0.0
 10
-66.94514744455233
 20
-14.035313943525095
 30
0.0
 10
-66.26805500624553
 20
-14.052183071407985
 30
0.0
 10
-66.05255335419463
 20
-14.091611873939899
 30
0.0
 10
-65.93715467807058
 20
-14.164093738355092
 30
0.0
 10
-65.42139603782897
 20
-16.382028535265725
 30
0.0
 10
-65.49297410041746
 20
-16.497989977463572
 30
0.0
 10
-65.66896812466388
 20
-16.628457199158966
 30
0.0
 10
-66.26914679970963
 20
-16.94234299926681
 30
0.0
 10
-66.87139358649759
 20
-17.287124746711168
 30
0.0
 10
-67.54159407495932
 20
-17.705467469823056
 30
0.0
 10
-68.2749022374725
 20
-18.20297138487258
 30
0.0
 10
-69.0661470587501
 20
-18.784969934972327
 30
0.0
 10
-69.87210153306614
 20
-19.426470525603303
 30
0.0
 10
-69.634870623386
 20
-20.446642847361765
 30
0.0
 10
-69.28289516627014
 20
-21.433123130072886
 30
0.0
 10
-68.25806171372444
 20
-21.537055882429176
 30
0.0
 10
-67.27777204061522
 20
-21.59888497181967
 30
0.0
 10
-66.39190303492781
 20
-21.62095557352376
 30
0.0
 10
-65.60192135450443
 20
-21.610550127334736
 30
0.0
 10
-64.90887603169962
 20
-21.574999795309637
 30
0.0
 10
-64.23427412542821
 20
-21.51457624408373
 30
0.0
 10
-64.0156826253873
 20
-21.52918270209483
 30
0.0
 10
-63.89277383845847
 20
-21.588037652744454
 30
0.0
 10
-63.12755153498509
 20
-23.7327233091048
 30
0.0
 10
-63.185444424529315
 20
-23.856088168204725
 30
0.0
 10
-63.34541913060306
 20
-24.00576677697693
 30
0.0
 10
-63.905905397307805
 20
-24.386021799724045
 30
0.0
 10
-64.46492442265829
 20
-24.797207128819576
 30
0.0
 10
-65.08306889014172
 20
-25.28922008193629
 30
0.0
 10
-65.754885983278
 20
-25.86707196613151
 30
0.0
 10
-66.47463042612631
 20
-26.535472008400973
 30
0.0
 10
-67.20220591911011
 20
-27.264663015243023
 30
0.0
 10
-66.8502304619942
 20
-28.251143297954155
 30
0.0
 10
-66.38809899580316
 20
-29.19107126250563
 30
0.0
 10
-65.35809823794992
 20
-29.177504343517434
 30
0.0
 10
-64.37715036729324
 20
-29.12718581260126
 30
0.0
 10
-63.494539831226035
 20
-29.04813109534579
 30
0.0
 10
-62.71089359194707
 20
-28.94774234906968
 30
0.0
 10
-62.02641815444138
 20
-28.833422530052612
 30
0.0
 10
-61.363101247724266
 20
-28.696494013114055
 30
0.0
 10
-61.14426957418897
 20
-28.68608770908646
 30
0.0
 10
-61.01545298045774
 20
-28.730548481681744
 30
0.0
 10
-60.010742856735064
 20
-30.774025740087147
 30
0.0
 10
-60.05419585088406
 20
-30.90318576648856
 30
0.0
 10
-60.19606572384168
 20
-31.070124472768295
 30
0.0
 10
-60.70955278656563
 20
-31.51179151240806
 30
0.0
 10
-61.21805638257377
 20
-31.98401999356309
 30
0.0
 10
-61.77608637061514
 20
-32.54328903540393
 30
0.0
 10
-62.37765423115367
 20
-33.193955705723795
 30
0.0
 10
-63.0165153260529
 20
-33.94004362342586
 30
0.0
 10
-63.65622677847013
 20
-34.74741892655092
 30
0.0
 10
-63.19409531227909
 20
-35.68734689110234
 30
0.0
 10
-62.627832427413736
 20
-36.56846913904168
 30
0.0
 10
-61.606091999314614
 20
-36.437579414245896
 30
0.0
 10
-60.6372740867709
 20
-36.27576924202583
 30
0.0
 10
-59.76942819844039
 20
-36.09661980494883
 30
0.0
 10
-59.00233342746732
 20
-35.90755647941815
 30
0.0
 10
-58.3353510593589
 20
-35.71595750707961
 30
0.0
 10
-57.69196650248759
 20
-35.504309097051866
 30
0.0
 10
-57.47574746098237
 20
-35.46902569307297
 30
0.0
 10
-57.34270238174763
 20
-35.49851267344916
 30
0.0
 10
-56.11160237074447
 20
-37.414141682740606
 30
0.0
 10
-56.1400489932667
 20
-37.547413077974554
 30
0.0
 10
-56.26196454235219
 20
-37.72943558042562
 30
0.0
 10
-56.7217583119555
 20
-38.226756831653645
 30
0.0
 10
-57.17311735659131
 20
-38.75387224443594
 30
0.0
 10
-57.66375809089961
 20
-39.373106447748725
 30
0.0
 10
-58.1872343617988
 20
-40.088105469079196
 30
0.0
 10
-58.73688357736481
 20
-40.90215486521221
 30
0.0
 10
-59.28039137212066
 20
-41.77718909282266
 30
0.0
 10
-58.714128487255195
 20
-42.65831134076202
 30
0.0
 10
-58.05111628640705
 20
-43.469141096084456
 30
0.0
 10
-57.05095613709306
 20
-43.22263491321388
 30
0.0
 10
-56.10689820576837
 20
-42.95144254274157
 30
0.0
 10
-55.265130663528176
 20
-42.6745338727291
 30
0.0
 10
-54.524587614320886
 20
-42.399260697527225
 30
0.0
 10
-53.8837934507961
 20
-42.13288035748453
 30
0.0
 10
-53.26872874539928
 20
-41.84927121506684
 30
0.0
 10
-53.05794108179457
 20
-41.78957068426653
 30
0.0
 10
-52.92240196313035
 20
-41.80369946453988
 30
0.0
 10
-51.48096133621497
 20
-43.56650707100427
 30
0.0
 10
-51.49403074188236
 20
-43.702152438621546
 30
0.0
 10
-51.594402611467586
 20
-43.89688579555695
 30
0.0
 10
-51.99450897299952
 20
-44.443377915308645
 30
0.0
 10
-52.38283931085148
 20
-45.01850850419345
 30
0.0
 10
-52.79969453911671
 20
-45.68963520414135
 30
0.0
 10
-53.23825490663161
 20
-46.45964547078929
 30
0.0
 10
-53.69152672475934
 20
-47.33104396654655
 30
0.0
 10
-54.131745406561016
 20
-48.26232970929305
 30
0.0
 10
-53.46873320571293
 20
-49.07315946461548
 30
0.0
 10
-52.71761506686672
 20
-49.803126321456205
 30
0.0
 10
-51.752073813431906
 20
-49.44421726558715
 30
0.0
 10
-50.84508310221159
 20
-49.06717810414699
 30
0.0
 10
-50.040367633292355
 20
-48.69612012918988
 30
0.0
 10
-49.3360304170119
 20
-48.338225711131635
 30
0.0
 10
-48.72977818996065
 20
-48.00053667849346
 30
0.0
 10
-48.15105164509342
 20
-47.64866408258153
 30
0.0
 10
-47.94844329894248
 20
-47.56532471267897
 30
0.0
 10
-47.81217710054095
 20
-47.56391110259145
 30
0.0
 10
-46.17918724068451
 20
-49.15091641321172
 30
0.0
 10
-46.176709049807116
 20
-49.28716740840258
 30
0.0
 10
-46.254228739073035
 20
-49.492072972708385
 30
0.0
 10
-46.58943169422721
 20
-50.08061160045081
 30
0.0
 10
-46.909670845466714
 20
-50.69625965866313
 30
0.0
 10
-47.24730622229052
 20
-51.410529692356306
 30
0.0
 10
-47.59523338133893
 20
-52.22551294291704
 30
0.0
 10
-47.946218710689195
 20
-53.14290052627412
 30
0.0
 10
-48.277409355791754
 20
-54.118297050281996
 30
0.0
 10
-47.52629121694543
 20
-54.84826390712274
 30
0.0
 10
-46.69685911372803
 20
-55.48785163116233
 30
0.0
 10
-45.77852406301604
 20
-55.02121863071875
 30
0.0
 10
-44.92042458288438
 20
-54.543247960387184
 30
0.0
 10
-44.16325188407716
 20
-54.082877988649045
 30
0.0
 10
-43.5043026134827
 20
-53.647028028802794
 30
0.0
 10
-42.94049574782791
 20
-53.2424325965384
 30
0.0
 10
-42.40565194905078
 20
-52.82688374453972
 30
0.0
 10
-42.21386422999523
 20
-52.72099199167273
 30
0.0
 10
-42.078647390144845
 20
-52.70405441979366
 30
0.0
 10
-40.275396817506696
 20
-54.09456839333406
 30
0.0
 10
-40.257403337092505
 20
-54.229648776007146
 30
0.0
 10
-40.31106025833844
 20
-54.44205529028995
 30
0.0
 10
-40.57698992396758
 20
-55.06496792495665
 30
0.0
 10
-40.82496308151555
 20
-55.71310753854533
 30
0.0
 10
-41.078977013414274
 20
-56.46120930375937
 30
0.0
 10
-41.331735201391986
 20
-57.31054098520559
 30
0.0
 10
-41.57585841143382
 20
-58.26195810604992
 30
0.0
 10
-41.793703443287505
 20
-59.26874962595199
 30
0.0
 10
-40.96427134007017
 20
-59.90833734999153
 30
0.0
 10
-40.06733818840007
 20
-60.44920793712387
 30
0.0
 10
-39.20818124220929
 20
-59.88093426688964
 30
0.0
 10
-38.41015963218382
 20
-59.30826316631637
 30
0.0
 10
-37.710400607563976
 20
-58.76458282442395
 30
0.0
 10
-37.105429694130734
 20
-58.25645929356289
 30
0.0
 10
-36.591418274597686
 20
-57.7902319818808
 30
0.0
 10
-36.1074297287659
 20
-57.31642418858125
 30
0.0
 10
-35.92896288302514
 20
-57.189360513689024
 30
0.0
 10
-35.79655816002085
 20
-57.157119787170515
 30
0.0
 10
-33.84655500353166
 20
-58.33301494746889
 30
0.0
 10
-33.81328080611535
 20
-58.465163738257246
 30
0.0
 10
-33.8423754593152
 20
-58.68230215876948
 30
0.0
 10
-34.0355650355408
 20
-59.33146818154547
 30
0.0
 10
-34.20803949006254
 20
-60.0036498594456
 30
0.0
 10
-34.375120516969645
 20
-60.775830705596725
 30
0.0
 10
-34.529414644352535
 20
-61.648438480575386
 30
0.0
 10
-34.66349321570472
 20
-62.6214819617318
 30
0.0
 10
-34.7651526911683
 20
-63.64654341037697
 30
0.0
 10
-33.86821953949809
 20
-64.18741399750922
 30
0.0
 10
-32.9154782346897
 20
-64.62251637247601
 30
0.0
 10
-32.12669981772499
 20
-63.9600103488053
 30
0.0
 10
-31.399159509909158
 20
-63.30010446157389
 30
0.0
 10
-30.76593658850612
 20
-62.68020145423565
 30
0.0
 10
-30.222830753274476
 20
-62.10642851965936
 30
0.0
 10
-29.765315704795913
 20
-61.58464731457014
 30
0.0
 10
-29.338491942769476
 20
-61.05875738915098
 30
0.0
 10
-29.175672558607605
 20
-60.91217826155459
 30
0.0
 10
-29.047806050500693
 20
-60.86505468757266
 30
0.0
 10
-26.9764715834508
 20
-61.811001442914645
 30
0.0
 10
-26.928350449082014
 20
-61.93849588023481
 30
0.0
 10
-26.932503540936775
 20
-62.15753547559467
 30
0.0
 10
-27.05043450618736
 20
-62.82449201460159
 30
0.0
 10
-27.14516178940249
 20
-63.51195284067235
 30
0.0
 10
-27.223131754614734
 20
-64.29814620953259
 30
0.0
 10
-27.276950361489924
 20
-65.18265430121522
 30
0.0
 10
-27.299236374928114
 20
-66.16463903282865
 30
0.0
 10
-27.28338500727079
 20
-67.19460716660436
 30
0.0
 10
-26.330643702462346
 20
-67.62970954157102
 30
0.0
 10
-25.334514684453858
 20
-67.95337147951122
 30
0.0
 10
-24.62639772966151
 20
-67.20526988159494
 30
0.0
 10
-23.978823324597187
 20
-66.46673209014143
 30
0.0
 10
-23.420391535581086
 20
-65.77868780107754
 30
0.0
 10
-22.94623099368662
 20
-65.1467454704608
 30
0.0
 10
-22.55117672459857
 20
-64.57621258793431
 30
0.0
 10
-22.187082046858304
 20
-64.00509630981838
 30
0.0
 10
-22.042032723948022
 20
-63.84091261260991
 30
0.0
 10
-21.920371366218294
 20
-63.77952051901763
 30
0.0
 10
-19.754708601083482
 20
-64.48318700680824
 30
0.0
 10
-19.692367862340518
 20
-64.60436500569213
 30
0.0
 10
-19.671525250946523
 20
-64.82245025979623
 30
0.0
 10
-19.71266019473789
 20
-65.49850251656954
 30
0.0
 10
-19.728405391642987
 20
-66.19228038760725
 30
0.0
 10
-19.716247837424145
 20
-66.98223704628572
 30
0.0
 10
-19.66888931594605
 20
-67.86711453901646
 30
0.0
 10
-19.57909223920303
 20
-68.84523884835819
 30
0.0
 10
-19.44593667524375
 20
-69.86668645750743
 30
0.0
 10
-18.449807657235247
 20
-70.19034839544751
 30
0.0
 10
-17.42327699115944
 20
-70.39835046802297
 30
0.0
 10
-16.805052885970436
 20
-69.57440594426393
 30
0.0
 10
-16.24588650636506
 20
-68.76686421814789
 30
0.0
 10
-15.769525862117082
 20
-68.01964835689438
 30
0.0
 10
-15.370492021358466
 20
-67.33777496494807
 30
0.0
 10
-15.043048668216128
 20
-66.72592817362559
 30
0.0
 10
-14.74642960569743
 20
-66.11703091690792
 30
0.0
 10
-14.621041283787228
 20
-65.93738303566711
 30
0.0
 10
-14.507171118289751
 20
-65.86252276229156
 30
0.0
 10
-12.275412781167907
 20
-66.31473561374322
 30
0.0
 10
-12.199665144918141
 20
-66.42801743365754
 30
0.0
 10
-12.154098545589578
 20
-66.6423052717002
 30
0.0
 10
-12.117901211021621
 20
-67.3186398711842
 30
0.0
 10
-12.054459058895855
 20
-68.00969033164338
 30
0.0
 10
-11.952332477557748
 20
-68.79311198701117
 30
0.0
 10
-11.804414218479366
 20
-69.66682314942658
 30
0.0
 10
-11.603704693777406
 20
-70.62833569027602
 30
0.0
 10
-11.354980819927615
 20
-71.6279466431109
 30
0.0
 10
-10.328450153851787
 20
-71.83594871568626
 30
0.0
 10
-9.284900236817217
 20
-71.92557929778246
 30
0.0
 10
-8.764628477894632
 20
-71.03653322510867
 30
0.0
 10
-8.301159712641125
 20
-70.17051510570596
 30
0.0
 10
-7.91308030265875
 20
-69.37386877373366
 30
0.0
 10
-7.594375179393892
 20
-68.65095358291272
 30
0.0
 10
-7.338811467065545
 20
-68.00576924141824
 30
0.0
 10
-7.1135349028687385
 20
-67.3670289130285
 30
0.0
 10
-7.0094422104914385
 20
-67.17425883262332
 30
0.0
 10
-6.904847708975445
 20
-67.08690629761199
 30
0.0
 10
-4.636088182825444
 20
-67.28177022663562
 30
0.0
 10
-4.5479211353484805
 20
-67.38567906581554
 30
0.0
 10
-4.478224578392728
 20
-67.59337591811688
 30
0.0
 10
-4.365166853078226
 20
-68.26117580448684
 30
0.0
 10
-4.223364417396822
 20
-68.94048995478992
 30
0.0
 10
-4.032600185109671
 20
-69.70716350748032
 30
0.0
 10
-3.7860505291499074
 20
-70.55831817840927
 30
0.0
 10
-3.4770451120891606
 20
-71.49068416435254
 30
0.0
 10
-3.115995424418567
 20
-72.4554270033946
 30
0.0
 10
-2.072445507383967
 20
-72.545057585491
 30
0.0
 10
-1.0254806084631816
 20
-72.5151482053985
 30
0.0
 10
-0.6099437338376631
 20
-71.5725906589879
 30
0.0
 10
-0.24821460707523013
 20
-70.65938601688893
 30
0.0
 10
0.046524360041450497
 20
-69.82369471744866
 30
0.0
 10
0.2807459571341251
 20
-69.06916203282172
 30
0.0
 10
0.46109836482395367
 20
-68.39905110572893
 30
0.0
 10
0.6120956061684618
 20
-67.73879466267509
 30
0.0
 10
0.6935356615784652
 20
-67.53541543590748
 30
0.0
 10
0.7874909498290364
 20
-67.43670941314271
 30
0.0
 10
3.063674914963307
 20
-67.37168407041752
 30
0.0
 10
3.163111981369488
 20
-67.46486531823625
 30
0.0
 10
3.2560298947453634
 20
-67.6632635386951
 30
0.0
 10
3.4444741304574302
 20
-68.31382291916388
 30
0.0
 10
3.6627882380864887
 20
-68.97254486048459
 30
0.0
 10
3.9397032178185283
 20
-69.71247554826218
 30
0.0
 10
4.281670118845134
 20
-70.5299776248958
 30
0.0
 10
4.694943070090404
 20
-71.42104223943612
 30
0.0
 10
5.163611736748646
 20
-72.33834006639465
 30
0.0
 10
6.210576635669493
 20
-72.30843068630215
 30
0.0
 10
7.24730772789264
 20
-72.15937125853074
 30
0.0
 10
7.552692559578599
 20
-71.17558991745679
 30
0.0
 10
7.807966355489208
 20
-70.22710377173782
 30
0.0
 10
8.00552250655867
 20
-69.3632620189429
 30
0.0
 10
8.152207140765293
 20
-68.58694832796314
 30
0.0
 10
8.254997074368905
 20
-67.90064673600924
 30
0.0
 10
8.329746512899671
 20
-67.2274816307586
 30
0.0
 10
8.387472235673595
 20
-67.01614461687794
 30
0.0
 10
8.469563459790304
 20
-66.90737189031788
 30
0.0
 10
10.72349832494858
 20
-66.58330498062972
 30
0.0
 10
10.832909096053982
 20
-66.6645438770196
 30
0.0
 10
10.947837038749489
 20
-66.85105704142131
 30
0.0
 10
11.209211126058298
 20
-67.47589487956216
 30
0.0
 10
11.501190847373667
 20
-68.10543716400998
 30
0.0
 10
11.860646564302908
 20
-68.80897885878144
 30
0.0
 10
12.293572648870498
 20
-69.58217095134255
 30
0.0
 10
12.805725489361288
 20
-70.42031780452167
 30
0.0
 10
13.37590332220094
 20
-71.278212239396
 30
0.0
 10
14.41263441442402
 20
-71.12915281162462
 30
0.0
 10
15.425616324686521
 20
-70.86288655377234
 30
0.0
 10
15.616867955125999
 20
-69.85070651231561
 30
0.0
 10
15.76235853586413
 20
-68.87930383040872
 30
0.0
 10
15.860156424333994
 20
-67.99857312258251
 30
0.0
 10
15.917391837122445
 20
-67.21059886143063
 30
0.0
 10
15.941279272658377
 20
-66.51705359542976
 30
0.0
 10
15.938806435129619
 20
-65.83975556460261
 30
0.0
 10
15.97206528219099
 20
-65.6232158647831
 30
0.0
 10
16.041222257525128
 20
-65.50579445326494
 30
0.0
 10
18.243524534790946
 20
-64.92691068437806
 30
0.0
 10
18.361482673872
 20
-64.99514815608576
 30
0.0
 10
18.49692238439447
 20
-65.16734478009725
 30
0.0
 10
18.8278189123518
 20
-65.75831535912366
 30
0.0
 10
19.1896578451607
 20
-66.35047094026001
 30
0.0
 10
19.626968244300294
 20
-67.00845190010564
 30
0.0
 10
20.145209658821415
 20
-67.72725426722276
 30
0.0
 10
20.749565693045103
 20
-68.5015568330291
 30
0.0
 10
21.41381955204047
 20
-69.2888639098801
 30
0.0
 10
22.426801462303036
 20
-69.02259765202783
 30
0.0
 10
23.402828422248504
 20
-68.64259575196766
 30
0.0
 10
23.477453593957005
 20
-67.61521232489837
 30
0.0
 10
23.511264267303577
 20
-66.63355682633112
 30
0.0
 10
23.50802894813504
 20
-65.7474188351542
 30
0.0
 10
23.475068988369337
 20
-64.9580564533756
 30
0.0
 10
23.41974251658425
 20
-64.26630893651087
 30
0.0
 10
23.34007964021487
 20
-63.59370759573291
 30
0.0
 10
23.3484380316294
 20
-63.37478813611651
 30
0.0
 10
23.403759191245516
 20
-63.25024880731226
 30
0.0
 10
25.525718502447464
 20
-62.42409481444273
 30
0.0
 10
25.65068624476752
 20
-62.47844128166879
 30
0.0
 10
25.804872059361948
 20
-62.63407651895527
 30
0.0
 10
26.20097728568486
 20
-63.18347563359662
 30
0.0
 10
26.627958306136794
 20
-63.7305248578361
 30
0.0
 10
27.137422377653902
 20
-64.33436729469213
 30
0.0
 10
27.734223052742173
 20
-64.98940924824338
 30
0.0
 10
28.422903575549217
 20
-65.68977330858847
 30
0.0
 10
29.172573895802966
 20
-66.39622927563855
 30
0.0
 10
30.148600855748462
 20
-66.01622737557825
 30
0.0
 10
31.074948861313068
 20
-65.52744373921529
 30
0.0
 10
31.03197472105293
 20
-64.49825044068578
 30
0.0
 10
30.953664713174096
 20
-63.51913950613063
 30
0.0
 10
30.849438363700305
 20
-62.63914639549138
 30
0.0
 10
30.726712714861762
 20
-61.85868643890673
 30
0.0
 10
30.592893600926306
 20
-61.177754657951965
 30
0.0
 10
30.43707921313845
 20
-60.51861839431138
 30
0.0
 10
30.420428184491527
 20
-60.300173124848364
 30
0.0
 10
30.461192332471224
 20
-60.170139439367354
 30
0.0
 10
32.475145692869255
 20
-59.10748540325193
 30
0.0
 10
32.605493892793646
 20
-59.14723237668384
 30
0.0
 10
32.776415763569986
 20
-59.284277283913845
 30
0.0
 10
33.23256585086848
 20
-59.78494267651313
 30
0.0
 10
33.71912260837855
 20
-60.279753920613835
 30
0.0
 10
34.29409870897606
 20
-60.82158582485784
 30
0.0
 10
34.96167843514271
 20
-61.4043278912211
 30
0.0
 10
35.72570544271719
 20
-62.02162312950957
 30
0.0
 10
36.55101912513186
 20
-62.63801825284307
 30
0.0
 10
37.47736713069647
 20
-62.1492346164801
 30
0.0
 10
38.34195981896099
 20
-61.55804128601257
 30
0.0
 10
38.18194660037095
 20
-60.54045522461747
 30
0.0
 10
37.99253680197914
 20
-59.57665306246352
 30
0.0
 10
37.78867817205914
 20
-58.714276888335135
 30
0.0
 10
37.57778675066504
 20
-57.95289384603821
 30
0.0
 10
37.36721953137934
 20
-57.291654788109085
 30
0.0
 10
37.13728491100521
 20
-56.65457645082146
 30
0.0
 10
37.09584153391972
 20
-56.43945313966824
 30
0.0
 10
37.12151724725336
 20
-56.305620285461615
 30
0.0
 10
39.00120969484996
 20
-55.020319526580955
 30
0.0
 10
39.13523906425078
 20
-55.04494884363486
 30
0.0
 10
39.32066876323215
 20
-55.16161683085949
 30
0.0
 10
39.830917097526644
 20
-55.60702156235514
 30
0.0
 10
40.37070658066804
 20
-56.04314420503394
 30
0.0
 10
41.00369901756206
 20
-56.515901969169015
 30
0.0
 10
41.73335487214488
 20
-57.01874721432011
 30
0.0
 10
42.56276810401436
 20
-57.54492624308946
 30
0.0
 10
43.452965922584994
 20
-58.06322486961876
 30
0.0
 10
44.317558610849474
 20
-57.47203153915134
 30
0.0
 10
45.109124693898345
 20
-56.78613562375568
 30
0.0
 10
44.83415841399143
 20
-55.7934225900026
 30
0.0
 10
44.53611807147364
 20
-54.857493835378975
 30
0.0
 10
44.23528477011004
 20
-54.023976990025595
 30
0.0
 10
43.93897686835514
 20
-53.29159665435802
 30
0.0
 10
43.654406609443626
 20
-52.65867058180946
 30
0.0
 10
43.35334930589949
 20
-52.051955461287065
 30
0.0
 10
43.28765385817522
 20
-51.842958569793254
 30
0.0
 10
43.297906414673534
 20
-51.70707126278655
 30
0.0
 10
45.01883328379519
 20
-50.21587964214685
 30
0.0
 10
45.154796544870806
 20
-50.22507022200928
 30
0.0
 10
45.3523167123528
 20
-50.31984034359435
 30
0.0
 10
45.910011426281514
 20
-50.70417788215259
 30
0.0
 10
46.49599665363987
 20
-51.07592639779854
 30
0.0
 10
47.1787534023783
 20
-51.473446901379354
 30
0.0
 10
47.96097320544799
 20
-51.88983996854505
 30
0.0
 10
48.84495999171099
 20
-52.318043239468174
 30
0.0
 10
49.78843685649044
 20
-52.73148855396091
 30
0.0
 10
50.58000293953936
 20
-52.04559263856523
 30
0.0
 10
51.288223142935735
 20
-51.27393584044127
 30
0.0
 10
50.90188840767718
 20
-50.31903736688403
 30
0.0
 10
50.49910293269209
 20
-49.42318328242581
 30
0.0
 10
50.10521678203339
 20
-48.62939193262635
 30
0.0
 10
49.72735522656159
 20
-47.93556200129491
 30
0.0
 10
49.3724917365433
 20
-47.33920007341827
 30
0.0
 10
49.00423649218867
 20
-46.770757629108324
 30
0.0
 10
48.915145414454926
 20
-46.570611751374074
 30
0.0
 10
48.90984115636472
 20
-46.434441490426984
 30
0.0
 10
50.449567533453965
 20
-44.756798971286955
 30
0.0
 10
50.58569219716725
 20
-44.750431000694206
 30
0.0
 10
50.79272785569858
 20
-44.822067783172656
 30
0.0
 10
51.3905985457813
 20
-45.14032770120984
 30
0.0
 10
52.015140303769094
 20
-45.44285577940543
 30
0.0
 10
52.73876058599025
 20
-45.759956734738545
 30
0.0
 10
53.5633469061628
 20
-46.08446930349721
 30
0.0
 10
54.49038312717682
 20
-46.40911453208511
 30
0.0
 10
55.47483937437083
 20
-46.712316642583815
 30
0.0
 10
56.18305957776719
 20
-45.940659844459766
 30
0.0
 10
56.79870116807644
 20
-45.09330189006783
 30
0.0
 10
56.306034441563305
 20
-44.18866653863836
 30
0.0
 10
55.80375475875833
 20
-43.344565952368704
 30
0.0
 10
55.321950667149615
 20
-42.60084838231521
 30
0.0
 10
54.86746146120126
 20
-41.95461398955096
 30
0.0
 10
54.44693092836234
 20
-41.40259069609413
 30
0.0
 10
54.01627851348118
 20
-40.879831444578876
 30
0.0
 10
53.90495324418349
 20
-40.69114578820413
 30
0.0
 10
53.88416132062077
 20
-40.556467760913684
 30
0.0
 10
55.22261451764424
 20
-38.714244979133866
 30
0.0
 10
55.35712599082784
 20
-38.69240147432119
 30
0.0
 10
55.570978113979315
 20
-38.739971022679065
 30
0.0
 10
56.20123062144544
 20
-38.988004315447775
 30
0.0
 10
56.85618705313378
 20
-39.21736804003663
 30
0.0
 10
57.61123737182432
 20
-39.449915551225885
 30
0.0
 10
58.46744046537402
 20
-39.678317103965725
 30
0.0
 10
59.42544078627897
 20
-39.89517204318288
 30
0.0
 10
60.438042523173415
 20
-40.084178246489195
 30
0.0
 10
61.05368411348268
 20
-39.236820292097384
 30
0.0
 10
61.568721261072945
 20
-38.32480778824023
 30
0.0
 10
60.97614520752185
 20
-37.48222886420577
 30
0.0
 10
60.380919300700135
 20
-36.70088591815218
 30
0.0
 10
59.817478321299916
 20
-36.01693762373973
 30
0.0
 10
59.2922864267262
 20
-35.426723423140466
 30
0.0
 10
58.81157110968079
 20
-34.92623523194449
 30
0.0
 10
58.324135737099056
 20
-34.45597413952468
 30
0.0
 10
58.19202757137277
 20
-34.2812085105978
 30
0.0
 10
58.15601903685832
 20
-34.14977845101322
 30
0.0
 10
59.27575026949246
 20
-32.16699159787077
 30
0.0
 10
59.40689498938465
 20
-32.12995732232872
 30
0.0
 10
59.624775687686316
 20
-32.15283949475492
 30
0.0
 10
60.27919370725403
 20
-32.32741266896589
 30
0.0
 10
60.95602645392909
 20
-32.48062193303141
 30
0.0
 10
61.732663573484245
 20
-32.625584387632856
 30
0.0
 10
62.609321523692806
 20
-32.754897360818774
 30
0.0
 10
63.585796945233
 20
-32.861134974895585
 30
0.0
 10
64.61334335961287
 20
-32.93348128610182
 30
0.0
 10
65.12838050720303
 20
-32.02146878224453
 30
0.0
 10
65.5360989152073
 20
-31.056691206653028
 30
0.0
 10
64.85133866970475
 20
-30.287153014846883
 30
0.0
 10
64.17092621884241
 20
-29.578753709221193
 30
0.0
 10
63.5331936664891
 20
-28.96349100243157
 30
0.0
 10
62.94414576281328
 20
-28.436991338718396
 30
0.0
 10
62.40951252087837
 20
-27.994562878753545
 30
0.0
 10
61.87164865611401
 20
-27.58293051794052
 30
0.0
 10
61.720479825932756
 20
-27.424363253704158
 30
0.0
 10
61.66972410678194
 20
-27.297894553648497
 30
0.0
 10
62.556135966001136
 20
-25.200392288055806
 30
0.0
 10
62.68220426061812
 20
-25.148650040202707
 30
0.0
 10
62.90127312596203
 20
-25.146546532585894
 30
0.0
 10
63.5713253179429
 20
-25.245383759938004
 30
0.0
 10
64.26121082966948
 20
-25.32044124641972
 30
0.0
 10
65.04931009752246
 20
-25.375928837146127
 30
0.0
 10
65.93499432733336
 20
-25.404467438413924
 30
0.0
 10
66.91721499906235
 20
-25.39870275758142
 30
0.0
 10
67.94631045198638
 20
-25.353446031881518
 30
0.0
 10
68.35402885999072
 20
-24.388668456290052
 30
0.0
 10
68.64911329543668
 20
-23.38370316009955
 30
0.0
 10
67.88109575498774
 20
-22.697237807708593
 30
0.0
 10
67.12436697693852
 20
-22.071017210816745
 30
0.0
 10
66.42065667073825
 20
-21.532460981956
 30
0.0
 10
65.77543189821743
 20
-21.076539583422882
 30
0.0
 10
65.19385049331783
 20
-20.69793858627192
 30
0.0
 10
64.6125700144048
 20
-20.35030121439944
 30
0.0
 10
64.44431123665292
 20
-20.209999481640295
 30
0.0
 10
64.37947001128573
 20
-20.090140854027727
 30
0.0
 10
65.02100676291285
 20
-17.905267325733092
 30
0.0
 10
65.14035513923768
 20
-17.839491644899276
 30
0.0
 10
65.35775627394143
 20
-17.81242987967813
 30
0.0
 10
66.03470748330024
 20
-17.8342426657608
 30
0.0
 10
66.72865204738908
 20
-17.83016988553678
 30
0.0
 10
67.51793938434089
 20
-17.7954592467857
 30
0.0
 10
68.40110364533909
 20
-17.722851431823695
 30
0.0
 10
69.37626481868796
 20
-17.605159607512466
 30
0.0
 10
70.3934934771288
 20
-17.442889835537212
 30
0.0
 10
70.68857791257392
 20
-16.437924539346415
 30
0.0
 10
70.86718149857057
 20
-15.405872782088618
 30
0.0
 10
70.02591894634793
 20
-14.811429394795166
 30
0.0
 10
69.2027389580012
 20
-14.275551249798628
 30
0.0
 10
68.44222483798154
 20
-13.820722402925552
 30
0.0
 10
67.74923468826961
 20
-13.441322902244286
 30
0.0
 10
67.12828692343228
 20
-13.131485010900686
 30
0.0
 10
66.51116771036716
 20
-12.852374612753952
 30
0.0
 10
66.32801249553131
 20
-12.73216745912238
 30
0.0
 10
66.2499310684823
 20
-12.620481444463987
 30
0.0
 10
66.63822929985584
 20
-10.376719821242153
 30
0.0
 10
66.7493018692833
 20
-10.297768194018225
 30
0.0
 10
66.96220111708385
 20
-10.246100962688045
 30
0.0
 10
67.63722624954312
 20
-10.190604944476325
 30
0.0
 10
68.32618323734988
 20
-10.107454992465309
 30
0.0
 10
69.10636907590398
 20
-9.98299863049594
 30
0.0
 10
69.97549997132171
 20
-9.810190953211496
 30
0.0
 10
70.93088892907903
 20
-9.58210627833789
 30
0.0
 10
71.92298966182294
 20
-9.304938894724543
 30
0.0
  0
LWPOLYLINE
  8
OpenJsCad
  90
31
  70
1
 10
0.5197792270443984
 20
-2.4453690018345142
 30
0.0
 10
1.5308084989341916e-16
 20
-2.5
 30
0.0
 10
-0.5197792270443974
 20
-2.4453690018345142
 30
0.0
 10
-1.0168416076895002
 20
-2.2838636441065026
 30
0.0
 10
-1.4694631307311832
 20
-2.022542485937368
 30
0.0
 10
-1.857862063693485
 20
-1.6728265158971463
 30
0.0
 10
-2.1650635094610964
 20
-1.2500000000000004
 30
0.0
 10
-2.377641290737884
 20
-0.7725424859373682
 30
0.0
 10
-2.4863047384206833
 20
-0.26132115816913265
 30
0.0
 10
-2.4863047384206833
 20
0.2613211581691354
 30
0.0
 10
-2.3776412907378837
 20
0.7725424859373687
 30
0.0
 10
-2.165063509461096
 20
1.2500000000000009
 30
0.0
 10
-1.857862063693485
 20
1.6728265158971458
 30
0.0
 10
-1.4694631307311827
 20
2.022542485937369
 30
0.0
 10
-1.0168416076895008
 20
2.283863644106502
 30
0.0
 10
-0.5197792270443978
 20
2.4453690018345142
 30
0.0
 10
1.2633038745185757e-15
 20
2.5
 30
0.0
 10
0.5197792270443982
 20
2.4453690018345142
 30
0.0
 10
1.0168416076895
 20
2.2838636441065026
 30
0.0
 10
1.469463130731183
 20
2.022542485937368
 30
0.0
 10
1.8578620636934862
 20
1.672826515897145
 30
0.0
 10
2.165063509461097
 20
1.2499999999999998
 30
0.0
 10
2.377641290737884
 20
0.7725424859373685
 30
0.0
 10
2.4863047384206833
 20
0.2613211581691335
 30
0.0
 10
2.4863047384206833
 20
-0.2613211581691335
 30
0.0
 10
2.3776412907378837
 20
-0.7725424859373685
 30
0.0
 10
2.1650635094610964
 20
-1.25
 30
0.0
 10
1.8578620636934853
 20
-1.6728265158971454
 30
0.0
 10
1.4694631307311832
 20
-2.0225424859373686
 30
0.0
 10
1.0168416076895006
 20
-2.283863644106502
 30
0.0
 10
0.5197792270443984
 20
-2.4453690018345142
 30
0.0
  0
LWPOLYLINE
  8
OpenJsCad
  90
1576
  70
1
 10
67.65629778451795
 20
5.160630642025684
 30
0.0
 10
67.56769312119363
 20
4.105465848303291
 30
0.0
 10
67.56769312119371
 20
3.046587418891302
 30
0.0
 10
67.61473221398865
 20
3.0243704985883326
 30
0.0
 10
68.54963892160073
 20
2.614330827516863
 30
0.0
 10
69.43033402155321
 20
2.257044878565253
 30
0.0
 10
70.25465150101675
 20
1.949144905442048
 30
0.0
 10
71.02057169764691
 20
1.6871847700145994
 30
0.0
 10
71.72622394789907
 20
1.4676455039927676
 30
0.0
 10
72.40823096029034
 20
1.2761767253674798
 30
0.0
 10
72.55462493212825
 20
1.2099172192966576
 30
0.0
 10
72.62465404990432
 20
1.1385562939893972
 30
0.0
 10
72.62465404990417
 20
-1.1385562939892706
 30
0.0
 10
72.55462493212794
 20
-1.2099172192956993
 30
0.0
 10
72.40823096029057
 20
-1.2761767253683187
 30
0.0
 10
71.7262239478904
 20
-1.467645503994932
 30
0.0
 10
71.0205716976468
 20
-1.6871847700148308
 30
0.0
 10
70.25465150101678
 20
-1.9491449054424024
 30
0.0
 10
69.43033402155427
 20
-2.2570448785631996
 30
0.0
 10
68.5496389216459
 20
-2.6143308274971333
 30
0.0
 10
67.61473221398862
 20
-3.0243704985884285
 30
0.0
 10
67.56769312119371
 20
-3.0465874188913724
 30
0.0
 10
67.56769312119371
 20
-4.105465848303342
 30
0.0
 10
67.65629778451789
 20
-5.160630642025724
 30
0.0
 10
67.70503096857018
 20
-5.17883351462475
 30
0.0
 10
68.67097006212602
 20
-5.50920414184659
 30
0.0
 10
69.5784733580659
 20
-5.79154237208969
 30
0.0
 10
70.42566424581892
 20
-6.029385387767437
 30
0.0
 10
71.21081851168746
 20
-6.226336241910248
 30
0.0
 10
71.93236651248455
 20
-6.386058094382187
 30
0.0
 10
72.62800332475136
 20
-6.519786489117093
 30
0.0
 10
72.77942832489329
 20
-6.573563681933818
 30
0.0
 10
72.8551831690246
 20
-6.638814448885975
 30
0.0
 10
73.04572703941136
 20
-8.907940882513886
 30
0.0
 10
72.98191485193564
 20
-8.984911420557161
 30
0.0
 10
72.84157875693096
 20
-9.063188477056128
 30
0.0
 10
72.17798533357707
 20
-9.311054623661933
 30
0.0
 10
71.49317847740328
 20
-9.588871393018621
 30
0.0
 10
70.7518647298781
 20
-9.914003347598891
 30
0.0
 10
69.95620265355198
 20
-10.289800581079433
 30
0.0
 10
69.108493192977
 20
-10.719528144495953
 30
0.0
 10
68.21117657008965
 20
-11.20636072576112
 30
0.0
 10
68.16616151399036
 20
-11.232435858034911
 30
0.0
 10
68.25476617731468
 20
-12.287600651757266
 30
0.0
 10
68.43135400591244
 20
-13.331650586896924
 30
0.0
 10
68.48143945295047
 20
-13.345711731719481
 30
0.0
 10
69.47163556373509
 20
-13.594096002512705
 30
0.0
 10
70.39958157208159
 20
-13.799506114221877
 30
0.0
 10
71.26370343275228
 20
-13.965623874589157
 30
0.0
 10
72.06258447481669
 20
-14.096183978714514
 30
0.0
 10
72.79496708536463
 20
-14.194968083601458
 30
0.0
 10
73.49935430508332
 20
-14.270018085840638
 30
0.0
 10
73.65474819595197
 20
-14.310935757034516
 30
0.0
 10
73.7356974006367
 20
-14.36961867838401
 30
0.0
 10
74.11544861306523
 20
-16.61484266609436
 30
0.0
 10
74.05830095253616
 20
-16.696882923853362
 30
0.0
 10
73.92500709123927
 20
-16.786628473469325
 30
0.0
 10
73.28448188800525
 20
-17.089153385127464
 30
0.0
 10
72.62532385396428
 20
-17.423298972794974
 30
0.0
 10
71.91381633884966
 20
-17.80932217947355
 30
0.0
 10
71.15239066344294
 20
-18.25038072573091
 30
0.0
 10
70.34361291498884
 20
-18.749535673531476
 30
0.0
 10
69.49018040825993
 20
-19.309746384201667
 30
0.0
 10
69.44750513713154
 20
-19.33949683012836
 30
0.0
 10
69.62409296572929
 20
-20.38354676526799
 30
0.0
 10
69.88742532286105
 20
-21.409158581678774
 30
0.0
 10
69.93851171946032
 20
-21.418979369896853
 30
0.0
 10
70.94601933321145
 20
-21.58363504706569
 30
0.0
 10
71.88789917944429
 20
-21.710676235894255
 30
0.0
 10
72.76289081905077
 20
-21.80390354421754
 30
0.0
 10
73.56989506079621
 20
-21.86715711300231
 30
0.0
 10
74.30797514329818
 20
-21.90431057078476
 30
0.0
 10
75.01617200022393
 20
-21.920155758685855
 30
0.0
 10
75.17444480532522
 20
-21.94792690019277
 30
0.0
 10
75.26002057005448
 20
-21.999630357409952
 30
0.0
 10
75.8263154426204
 20
-24.205203266120172
 30
0.0
 10
75.77623315881608
 20
-24.291737790132558
 30
0.0
 10
75.65091649189247
 20
-24.39232233231705
 30
0.0
 10
75.03795233286226
 20
-24.747384014136088
 30
0.0
 10
74.40906664095853
 20
-25.135514628900207
 30
0.0
 10
73.73235607225556
 20
-25.57972141223953
 30
0.0
 10
73.01050765179762
 20
-26.082947562471844
 30
0.0
 10
72.24633461026384
 20
-26.64802868133997
 30
0.0
 10
71.44277243553762
 20
-27.277688045790676
 30
0.0
 10
71.40273628574494
 20
-27.310905127367768
 30
0.0
 10
71.6660686428767
 20
-28.33651694377854
 30
0.0
 10
72.01429844126133
 20
-29.336496711469344
 30
0.0
 10
72.06602745305514
 20
-29.342008257309843
 30
0.0
 10
73.08377962775556
 20
-29.421780399583902
 30
0.0
 10
74.03298670149316
 20
-29.469561562871203
 30
0.0
 10
74.91271068236419
 20
-29.48924449656633
 30
0.0
 10
75.72217756886654
 20
-29.484747851673102
 30
0.0
 10
76.46077802185364
 20
-29.460010057539446
 30
0.0
 10
77.16781702387385
 20
-29.41653928849408
 30
0.0
 10
77.32785857319885
 20
-29.430969105709895
 30
0.0
 10
77.4174606454691
 20
-29.475330436191275
 30
0.0
 10
78.16632702652373
 20
-31.625781756648692
 30
0.0
 10
78.12366141068097
 20
-31.716203569403504
 30
0.0
 10
78.00720094450918
 20
-31.82692157586299
 30
0.0
 10
77.4260973328443
 20
-32.232029525256436
 30
0.0
 10
76.83189516435274
 20
-32.67142270972606
 30
0.0
 10
76.19472818048496
 20
-33.17069727830313
 30
0.0
 10
75.51752026299798
 20
-33.73256126263401
 30
0.0
 10
74.80331205321329
 20
-34.35960491453106
 30
0.0
 10
74.05525662178681
 20
-35.05429632473029
 30
0.0
 10
74.01814041815476
 20
-35.09074704799693
 30
0.0
 10
74.36637021653928
 20
-36.09072681568778
 30
0.0
 10
74.79705487434373
 20
-37.05806039507283
 30
0.0
 10
74.84906365948167
 20
-37.05922403900165
 30
0.0
 10
75.8699215948798
 20
-37.053553102119075
 30
0.0
 10
76.81979789050423
 20
-37.02173908933537
 30
0.0
 10
77.6980835809948
 20
-36.96773958676464
 30
0.0
 10
78.50433528364648
 20
-36.895524268926515
 30
0.0
 10
79.23827535562464
 20
-36.809068740728506
 30
0.0
 10
79.93919713214696
 20
-36.706586930947836
 30
0.0
 10
80.09988484921683
 20
-36.7075742090726
 30
0.0
 10
80.19288473487015
 20
-36.74428224995842
 30
0.0
 10
81.1190698648101
 20
-38.824528111247176
 30
0.0
 10
81.08412018556882
 20
-38.9182029686959
 30
0.0
 10
80.97733280664238
 20
-39.038277832165846
 30
0.0
 10
80.43216576665623
 20
-39.49059050793836
 30
0.0
 10
79.87681502285517
 20
-39.978164234628
 30
0.0
 10
79.28366089241058
 20
-40.52900453607255
 30
0.0
 10
78.65584360486247
 20
-41.145565282350624
 30
0.0
 10
77.99660988426064
 20
-41.83017320658878
 30
0.0
 10
77.3093082675083
 20
-42.58502390142907
 30
0.0
 10
77.27537235353746
 20
-42.62445259075133
 30
0.0
 10
77.70605701134187
 20
-43.591786170136345
 30
0.0
 10
78.21617558513799
 20
-44.51968841118453
 30
0.0
 10
78.26809933936066
 20
-44.51649599107559
 30
0.0
 10
79.28490245052507
 20
-44.42542175258406
 30
0.0
 10
80.22878526830769
 20
-44.31423571617068
 30
0.0
 10
81.09947212534644
 20
-44.186932545046034
 30
0.0
 10
81.89685336774431
 20
-44.04750509283102
 30
0.0
 10
82.62098499644387
 20
-43.89993825398076
 30
0.0
 10
83.31087308481759
 20
-43.7391642397273
 30
0.0
 10
83.47107986075108
 20
-43.72670205371432
 30
0.0
 10
83.56682523240993
 20
-43.75549932447245
 30
0.0
 10
84.66383258801177
 20
-45.75094829653021
 30
0.0
 10
84.63684399226055
 20
-45.84721913685315
 30
0.0
 10
84.54047873731595
 20
-45.97580861843999
 30
0.0
 10
84.03507222409209
 20
-46.47215337215723
 30
0.0
 10
83.5224682914303
 20
-47.0044876616954
 30
0.0
 10
82.97748756445331
 20
-47.60302994707099
 30
0.0
 10
82.40346459403017
 20
-48.269962724659415
 30
0.0
 10
81.8038294135024
 20
-49.00733288854026
 30
0.0
 10
81.18210253844019
 20
-49.81704813275678
 30
0.0
 10
81.15158495018403
 20
-49.85917822420856
 30
0.0
 10
81.66170352398035
 20
-50.78708046525665
 30
0.0
 10
82.24767789849278
 20
-51.669042800443734
 30
0.0
 10
82.29915241397143
 20
-51.66151670883039
 30
0.0
 10
83.30476855764934
 20
-51.485677989076166
 30
0.0
 10
84.23603723780226
 20
-51.2958998191915
 30
0.0
 10
85.09301801867473
 20
-51.09618591979117
 30
0.0
 10
85.87593574432103
 20
-50.89052431659806
 30
0.0
 10
86.58517966665451
 20
-50.68288124244346
 30
0.0
 10
87.25919499762358
 20
-50.46494273791125
 30
0.0
 10
87.41779709699595
 20
-50.439118501041335
 30
0.0
 10
87.51561636967105
 20
-50.45980300950823
 30
0.0
 10
88.77575123253393
 20
-52.35645845152409
 30
0.0
 10
88.75691302588069
 20
-52.45465000394688
 30
0.0
 10
88.67164582794307
 20
-52.59085214082869
 30
0.0
 10
88.20954490503765
 20
-53.12774747066656
 30
0.0
 10
87.74328333179737
 20
-53.70110838049381
 30
0.0
 10
87.25029865651963
 20
-54.34315430572058
 30
0.0
 10
86.734096361924
 20
-55.05578106037508
 30
0.0
 10
86.19826573142443
 20
-55.840741341998736
 30
0.0
 10
85.64647456537077
 20
-56.69964156493291
 30
0.0
 10
85.61958936178402
 20
-56.74417754619317
 30
0.0
 10
86.20556373629671
 20
-57.62613988138014
 30
0.0
 10
86.86328372231051
 20
-58.45597597861382
 30
0.0
 10
86.91394794230327
 20
-58.44416900562127
 30
0.0
 10
87.901323443781
 20
-58.18479918688348
 30
0.0
 10
88.81344580562859
 20
-57.917760041033844
 30
0.0
 10
89.65070940589675
 20
-57.64703626286789
 30
0.0
 10
90.4136720094717
 20
-57.37658307707544
 30
0.0
 10
91.10305338891494
 20
-57.11032023459035
 30
0.0
 10
91.75646822921202
 20
-56.83674592180007
 30
0.0
 10
91.91235317225156
 20
-56.79774077254017
 30
0.0
 10
92.01156021402818
 20
-56.810167431750735
 30
0.0
 10
93.4259836434948
 20
-58.59472566854402
 30
0.0
 10
93.41542796242396
 20
-58.694149189876946
 30
0.0
 10
93.34185690962241
 20
-58.8370086219246
 30
0.0
 10
92.9263028829906
 20
-59.41068859290306
 30
0.0
 10
92.50965415909963
 20
-60.02105440819618
 30
0.0
 10
92.0721234688092
 20
-60.70210048241801
 30
0.0
 10
91.61736263824683
 20
-61.45542264947633
 30
0.0
 10
91.14909502465464
 20
-62.28246711646039
 30
0.0
 10
90.67110998617801
 20
-63.1845277501673
 30
0.0
 10
90.64804574764688
 20
-63.231157233326556
 30
0.0
 10
91.30576573366068
 20
-64.06099333056017
 30
0.0
 10
92.03061789804497
 20
-64.83288248585474
 30
0.0
 10
92.0801164494509
 20
-64.81687744891522
 30
0.0
 10
93.04232557901388
 20
-64.47579582411535
 30
0.0
 10
93.92890373954683
 20
-64.13336879004153
 30
0.0
 10
94.74057735662785
 20
-63.79353406589902
 30
0.0
 10
95.47823320365522
 20
-63.46018633228518
 30
0.0
 10
96.14291652515134
 20
-63.137171364000054
 30
0.0
 10
96.77114763914959
 20
-62.80988017019307
 30
0.0
 10
96.9232220049841
 20
-62.75796770164009
 30
0.0
 10
97.02312094974434
 20
-62.762049347508494
 30
0.0
 10
98.5819117817188
 20
-64.42199298525144
 30
0.0
 10
98.57971266674885
 20
-64.52195109092803
 30
0.0
 10
98.51835380715805
 20
-64.67046576187009
 30
0.0
 10
98.1522614897215
 20
-65.27690642118118
 30
0.0
 10
97.78814810661622
 20
-65.91999586429316
 30
0.0
 10
97.40914036474011
 20
-66.63526503863031
 30
0.0
 10
97.01901081869222
 20
-67.42399860435175
 30
0.0
 10
96.62159078286695
 20
-68.28732613399093
 30
0.0
 10
96.22076459358047
 20
-69.2262198712548
 30
0.0
 10
96.20168309916657
 20
-69.27461578399188
 30
0.0
 10
96.92653526355086
 20
-70.04650493928648
 30
0.0
 10
97.71343528917804
 20
-70.7550329048192
 30
0.0
 10
97.76142097522371
 20
-70.7349420677672
 30
0.0
 10
98.69171452717435
 20
-70.31454107943642
 30
0.0
 10
99.54652977760198
 20
-69.89912803674893
 30
0.0
 10
100.32692010425879
 20
-69.49256606304883
 30
0.0
 10
101.03409506897668
 20
-69.09866197645492
 30
0.0
 10
101.66941805659964
 20
-68.72116060028631
 30
0.0
 10
102.26805885441786
 20
-68.34244823802878
 30
0.0
 10
102.41525595063626
 20
-68.27799257885056
 30
0.0
 10
102.51514607905989
 20
-68.2737005815637
 30
0.0
 10
104.20737051584558
 20
-69.79738630830538
 30
0.0
 10
104.21354339218794
 20
-69.89717786403415
 30
0.0
 10
104.16482711412166
 20
-70.0503060501616
 30
0.0
 10
103.85076438045022
 20
-70.68525365230727
 30
0.0
 10
103.54174033189803
 20
-71.35655591285378
 30
0.0
 10
103.22391400542882
 20
-72.1010310879685
 30
0.0
 10
102.90115222235323
 20
-72.91964365309381
 30
0.0
 10
102.57736738030029
 20
-73.81319862306768
 30
0.0
 10
102.25651154792857
 20
-74.7823397989158
 30
0.0
 10
102.24154664060534
 20
-74.83216267867526
 30
0.0
 10
103.02844666623247
 20
-75.540690644208
 30
0.0
 10
103.87187501480956
 20
-76.18088760537734
 30
0.0
 10
103.91801125038499
 20
-76.15685189099958
 30
0.0
 10
104.80986388387137
 20
-75.66008035001332
 30
0.0
 10
105.6269203093959
 20
-75.17459512273275
 30
0.0
 10
106.37055346819663
 20
-74.7041576396062
 30
0.0
 10
107.04228722633208
 20
-74.25246015417996
 30
0.0
 10
107.64379354580264
 20
-73.82312027104734
 30
0.0
 10
108.20864499236691
 20
-73.39564313545606
 30
0.0
 10
108.34993233710023
 20
-73.3190963957904
 30
0.0
 10
108.44911299170735
 20
-73.30646086062544
 30
0.0
 10
110.26290129474177
 20
-74.68320111575943
 30
0.0
 10
110.27740286410413
 20
-74.78212615547707
 30
0.0
 10
110.24167087725041
 20
-74.93879377258665
 30
0.0
 10
109.981840651767
 20
-75.5977946163471
 30
0.0
 10
109.730073519435
 20
-76.2926009913004
 30
0.0
 10
109.475657931695
 20
-77.06106020874392
 30
0.0
 10
109.22252785359595
 20
-77.9038097943011
 30
0.0
 10
108.97464932334324
 20
-78.82132455851364
 30
0.0
 10
108.7360144210158
 20
-79.81391534392442
 30
0.0
 10
108.72527106885579
 20
-79.8648157190023
 30
0.0
 10
109.56869941743292
 20
-80.5050126801716
 30
0.0
 10
110.46274004509698
 20
-81.07238811527603
 30
0.0
 10
110.50670321765853
 20
-81.04457611683915
 30
0.0
 10
111.35385922725197
 20
-80.47491851862759
 30
0.0
 10
112.12742576410255
 20
-79.9227664368027
 30
0.0
 10
112.82908570273793
 20
-79.3917532251849
 30
0.0
 10
113.46066652461762
 20
-78.88543067424243
 30
0.0
 10
114.0241370412864
 20
-78.40726379494572
 30
0.0
 10
114.5512371095443
 20
-77.93402033098491
 30
0.0
 10
114.68562367358403
 20
-77.84591943121183
 30
0.0
 10
114.78339917334377
 20
-77.82502898736934
 30
0.0
 10
116.70602892088624
 20
-79.04516692719238
 30
0.0
 10
116.72875746517887
 20
-79.14253156282282
 30
0.0
 10
116.70626040375208
 20
-79.30163970014605
 30
0.0
 10
116.50248520880072
 20
-79.98007136809376
 30
0.0
 10
116.30974095822779
 20
-80.69350828995125
 30
0.0
 10
116.12052065176763
 20
-81.4805613604504
 30
0.0
 10
115.93879780426929
 20
-82.34153668361147
 30
0.0
 10
115.76856427560608
 20
-83.27657553522519
 30
0.0
 10
115.61382415570375
 20
-84.28565361901447
 30
0.0
 10
115.60737771560315
 20
-84.33727445985171
 30
0.0
 10
116.50141834326742
 20
-84.90464989495594
 30
0.0
 10
117.439800197383
 20
-85.39522407297657
 30
0.0
 10
117.48128193686256
 20
-85.3638308716667
 30
0.0
 10
118.27779913183653
 20
-84.72528295498292
 30
0.0
 10
119.00244976656394
 20
-84.11033696874694
 30
0.0
 10
119.65721484470637
 20
-83.52247270478497
 30
0.0
 10
120.24421264465505
 20
-82.96507657722886
 30
0.0
 10
120.76569501770064
 20
-82.44143669886387
 30
0.0
 10
121.25134647939421
 20
-81.92574636940827
 30
0.0
 10
121.37788963755021
 20
-81.82670927403927
 30
0.0
 10
121.47357415758336
 20
-81.79771045297304
 30
0.0
 10
123.49155948336244
 20
-82.85268768650522
 30
0.0
 10
123.52235557817758
 20
-82.94780897508588
 30
0.0
 10
123.51325124289951
 20
-83.1082416033585
 30
0.0
 10
123.36696041506052
 20
-83.80134538479523
 30
0.0
 10
123.23459100867788
 20
-84.52840860615383
 30
0.0
 10
123.11189322799277
 20
-85.32853491791587
 30
0.0
 10
123.00285226630263
 20
-86.20169685539878
 30
0.0
 10
122.91145780511987
 20
-87.14770116869411
 30
0.0
 10
122.84169785840318
 20
-88.16618859312571
 30
0.0
 10
122.83959354750763
 20
-88.21816781661327
 30
0.0
 10
123.77797540162325
 20
-88.70874199463377
 30
0.0
 10
124.75411640771009
 20
-89.11907389018876
 30
0.0
 10
124.79282574950975
 20
-89.0843196867574
 30
0.0
 10
125.5331171340383
 20
-88.3813604064408
 30
0.0
 10
126.20376896310071
 20
-87.70793392004913
 30
0.0
 10
126.80704647417512
 20
-87.0673420491748
 30
0.0
 10
127.34534388438345
 20
-86.46278207835127
 30
0.0
 10
127.82118028964348
 20
-85.89734215843002
 30
0.0
 10
128.26197664870904
 20
-85.34282216061781
 30
0.0
 10
128.37978879164802
 20
-85.2335435437188
 30
0.0
 10
128.47271117379574
 20
-85.19663975132299
 30
0.0
 10
130.57189736067156
 20
-86.07905637127116
 30
0.0
 10
130.61054499353102
 20
-86.17126710530721
 30
0.0
 10
130.6148972447722
 20
-86.33189890491252
 30
0.0
 10
130.52711690909305
 20
-87.03481317480593
 30
0.0
 10
130.4560508231792
 20
-87.77040286956199
 30
0.0
 10
130.40073620504242
 20
-88.5779901113999
 30
0.0
 10
130.36514197316092
 20
-89.45721405957921
 30
0.0
 10
130.35322764593695
 20
-90.40754829400154
 30
0.0
 10
130.3689371883097
 20
-91.42830110157527
 30
0.0
 10
130.37118976684812
 20
-91.48027411080743
 30
0.0
 10
131.3473307729349
 20
-91.8906060063625
 30
0.0
 10
132.35438400319157
 20
-92.21781743602787
 30
0.0
 10
132.39004942909133
 20
-92.17994600624087
 30
0.0
 10
133.06892239101066
 20
-91.41750611656735
 30
0.0
 10
133.68087127368983
 20
-90.69032273296575
 30
0.0
 10
134.22842965941032
 20
-90.0014965468886
 30
0.0
 10
134.71425091031188
 20
-89.35401328661726
 30
0.0
 10
135.14110369729144
 20
-88.75073947990997
 30
0.0
 10
135.53395308398188
 20
-88.1612793731037
 30
0.0
 10
135.642207844169
 20
-88.0425257456557
 30
0.0
 10
135.73171630468522
 20
-87.99797583551863
 30
0.0
 10
137.89737906982
 20
-88.7016423233093
 30
0.0
 10
137.9436071553476
 20
-88.79029571075479
 30
0.0
 10
137.96138546519265
 20
-88.94999996503239
 30
0.0
 10
137.93273133765803
 20
-89.65779428482239
 30
0.0
 10
137.92346704974472
 20
-90.39675081978766
 30
0.0
 10
137.935923586459
 20
-91.20613434745059
 30
0.0
 10
137.97402575234838
 20
-92.08525318205132
 30
0.0
 10
138.04167512952827
 20
-93.03325142576035
 30
0.0
 10
138.14274396983797
 20
-94.04910976894097
 30
0.0
 10
138.14933763759043
 20
-94.10071201060052
 30
0.0
 10
139.15639086784708
 20
-94.42792344026589
 30
0.0
 10
140.1872925674301
 20
-94.66971925096351
 30
0.0
 10
140.2196639100928
 20
-94.62899623569037
 30
0.0
 10
140.83235664334455
 20
-93.8124237046737
 30
0.0
 10
141.3813101979132
 20
-93.03658409281762
 30
0.0
 10
141.86930872962407
 20
-92.30435521231205
 30
0.0
 10
142.29924613420584
 20
-91.61849029244763
 30
0.0
 10
142.67412123729758
 20
-90.9816141312567
 30
0.0
 10
143.0162680954272
 20
-90.36134855457912
 30
0.0
 10
143.11420614350067
 20
-90.23395288795429
 30
0.0
 10
143.1996728448466
 20
-90.18206934568651
 30
0.0
 10
145.41662161996948
 20
-90.7020499864915
 30
0.0
 10
145.47010590136003
 20
-90.7865241875309
 30
0.0
 10
145.50118556773913
 20
-90.94418068588435
 30
0.0
 10
145.53185863646573
 20
-91.6518903869671
 30
0.0
 10
145.58446112887628
 20
-92.38903051298834
 30
0.0
 10
145.66460144678658
 20
-93.194533082571
 30
0.0
 10
145.77613275112952
 20
-94.06738041661447
 30
0.0
 10
145.92287132093836
 20
-95.00639314306639
 30
0.0
 10
146.10859053388805
 20
-96.0102315054697
 30
0.0
 10
146.11947904101288
 20
-96.06110102690744
 30
0.0
 10
147.15038074059584
 20
-96.30289683760505
 30
0.0
 10
148.1978998747844
 20
-96.45758100545315
 30
0.0
 10
148.22675007250007
 20
-96.4142920473865
 30
0.0
 10
148.7689649777796
 20
-95.5493145446252
 30
0.0
 10
149.251072689475
 20
-94.7302606619518
 30
0.0
 10
149.6760884081028
 20
-93.95976514650883
 30
0.0
 10
150.04712626438126
 20
-93.2403294166709
 30
0.0
 10
150.36739420408438
 20
-92.57431812967222
 30
0.0
 10
150.65643861927552
 20
-91.92759780048353
 30
0.0
 10
150.74337299019652
 20
-91.79245368374957
 30
0.0
 10
150.82419844486992
 20
-91.7336004351218
 30
0.0
 10
153.07688292719894
 20
-92.06624793835147
 30
0.0
 10
153.13724825064693
 20
-92.1459504271591
 30
0.0
 10
153.18141127203108
 20
-92.30045332252851
 30
0.0
 10
153.2711963874804
 20
-93.00311432983965
 30
0.0
 10
153.3852966915254
 20
-93.73326753856726
 30
0.0
 10
153.5325586638823
 20
-94.5292391282968
 30
0.0
 10
153.71673679471394
 20
-95.38969256487462
 30
0.0
 10
153.94153529151603
 20
-96.31313327447312
 30
0.0
 10
154.210602190266
 20
-97.29791045124375
 30
0.0
 10
154.2257091617091
 20
-97.34769043931658
 30
0.0
 10
155.27322829589767
 20
-97.50237460716446
 30
0.0
 10
156.33001727060696
 20
-97.5688621338657
 30
0.0
 10
156.35514395996745
 20
-97.52331087394347
 30
0.0
 10
156.8230777892951
 20
-96.61599559513394
 30
0.0
 10
157.2349580189136
 20
-95.75947251614076
 30
0.0
 10
157.59400974456554
 20
-94.95611483820097
 30
0.0
 10
157.90354548856922
 20
-94.20815462312049
 30
0.0
 10
158.16695981539888
 20
-93.51767980096388
 30
0.0
 10
158.40087434875713
 20
-92.84904099770542
 30
0.0
 10
158.47619526037593
 20
-92.70709636974034
 30
0.0
 10
158.5518125358853
 20
-92.64168622800572
 30
0.0
 10
160.82443176232846
 20
-92.78466731043177
 30
0.0
 10
160.8912547084623
 20
-92.8590390313148
 30
0.0
 10
160.9481913129876
 20
-93.00930459689933
 30
0.0
 10
161.09645869708524
 20
-93.7019882483338
 30
0.0
 10
161.2712564811128
 20
-94.42003303962294
 30
0.0
 10
161.4846071709878
 20
-95.2008904807022
 30
0.0
 10
161.74014025105217
 20
-96.04291455719174
 30
0.0
 10
162.04142187490993
 20
-96.94430597685019
 30
0.0
 10
162.39194914848972
 20
-97.90311446365448
 30
0.0
 10
162.41116861970065
 20
-97.95145574751295
 30
0.0
 10
163.46795759440997
 20
-98.0179432742141
 30
0.0
 10
164.52660379428426
 20
-97.99576779754004
 30
0.0
 10
164.5478307296172
 20
-97.9482737451219
 30
0.0
 10
164.93820126339025
 20
-97.0049848550399
 30
0.0
 10
165.27696496705664
 20
-96.11700047371507
 30
0.0
 10
165.56753420985552
 20
-95.28641561017751
 30
0.0
 10
165.81339667074135
 20
-94.5151773133546
 30
0.0
 10
166.01810972245784
 20
-93.80508214081202
 30
0.0
 10
166.195253631599
 20
-93.11921488427232
 30
0.0
 10
166.25843276183858
 20
-92.97146538465421
 30
0.0
 10
166.32831145732715
 20
-92.89995715495986
 30
0.0
 10
168.60492463688564
 20
-92.85226890702089
 30
0.0
 10
168.67773649075042
 20
-92.92078819579332
 30
0.0
 10
168.74704730904503
 20
-93.06576242661606
 30
0.0
 10
168.9527569726215
 20
-93.74361004405156
 30
0.0
 10
169.1870261557687
 20
-94.44450984960581
 30
0.0
 10
169.4649690613646
 20
-95.20477598813093
 30
0.0
 10
169.7900647097053
 20
-96.02246451062906
 30
0.0
 10
170.16571618649792
 20
-96.8954840271874
 30
0.0
 10
170.5952451379369
 20
-97.82159847139337
 30
0.0
 10
170.61844229813434
 20
-97.8681619716643
 30
0.0
 10
171.67708849800857
 20
-97.8459864949901
 30
0.0
 10
172.73016628059196
 20
-97.73530355997661
 30
0.0
 10
172.74734457019755
 20
-97.68619985171588
 30
0.0
 10
173.05741363960243
 20
-96.71355384417316
 30
0.0
 10
173.32068463333687
 20
-95.80033673293582
 30
0.0
 10
173.5407332588182
 20
-94.9483506398438
 30
0.0
 10
173.721197888075
 20
-94.15924394379672
 30
0.0
 10
173.8657737497066
 20
-93.43450922830088
 30
0.0
 10
173.98490449738586
 20
-92.73622438448963
 30
0.0
 10
174.0354986900417
 20
-92.58370636980045
 30
0.0
 10
174.09914865666838
 20
-92.5066016309991
 30
0.0
 10
176.3637869836319
 20
-92.26857855149042
 30
0.0
 10
176.44207702238802
 20
-92.33076479457254
 30
0.0
 10
176.52327588886135
 20
-92.4694308005681
 30
0.0
 10
176.78498492642888
 20
-93.12768777000119
 30
0.0
 10
177.07708227869807
 20
-93.80652628128037
 30
0.0
 10
177.41766783023382
 20
-94.54086839654008
 30
0.0
 10
177.81004573445864
 20
-95.32848586756987
 30
0.0
 10
178.25743213898164
 20
-96.16700987638309
 30
0.0
 10
178.7629499313016
 20
-97.053934250577
 30
0.0
 10
178.78996206907388
 20
-97.09839335776203
 30
0.0
 10
179.8430398516572
 20
-96.98771042274834
 30
0.0
 10
180.88316263294018
 20
-96.78929639065869
 30
0.0
 10
180.89617178345944
 20
-96.73892745378787
 30
0.0
 10
181.12376447675857
 20
-95.74374674168212
 30
0.0
 10
181.30969610369993
 20
-94.81170246242202
 30
0.0
 10
181.4576806288607
 20
-93.94429121006742
 30
0.0
 10
181.57148159677791
 20
-93.14285113129654
 30
0.0
 10
181.6549061725329
 20
-92.4085603661555
 30
0.0
 10
181.71518814215054
 20
-91.70275590153506
 30
0.0
 10
181.75284251531306
 20
-91.54653917606379
 30
0.0
 10
181.80981729429445
 20
-91.46437876249846
 30
0.0
 10
184.04659595793973
 20
-91.03769041230346
 30
0.0
 10
184.1298150332166
 20
-91.09310741788086
 30
0.0
 10
184.22233239616165
 20
-91.22449255664857
 30
0.0
 10
184.53820510685938
 20
-91.85854167839561
 30
0.0
 10
184.8860817751961
 20
-92.51055733098792
 30
0.0
 10
185.28692100973802
 20
-93.21382454066773
 30
0.0
 10
185.743828920772
 20
-93.96584638957228
 30
0.0
 10
186.2598121588443
 20
-94.76399324719726
 30
0.0
 10
186.83777294794612
 20
-95.60550641414834
 30
0.0
 10
186.868410592555
 20
-95.6475492795542
 30
0.0
 10
187.908533373838
 20
-95.44913524746451
 30
0.0
 10
188.92840543983715
 20
-95.1643818501737
 30
0.0
 10
188.93715420142615
 20
-95.11310098659496
 30
0.0
 10
189.08067411940118
 20
-94.10236604758529
 30
0.0
 10
189.18796220277818
 20
-93.15803222124853
 30
0.0
 10
189.2628446225011
 20
-92.28128007633251
 30
0.0
 10
189.30918369705466
 20
-91.47312814115652
 30
0.0
 10
189.33087182347455
 20
-90.7344318485005
 30
0.0
 10
189.3318821803263
 20
-90.0260584742704
 30
0.0
 10
189.3563326156224
 20
-89.86723878610469
 30
0.0
 10
189.40623256982022
 20
-89.78059899404434
 30
0.0
 10
191.59946217494505
 20
-89.1682382853645
 30
0.0
 10
191.68702656472246
 20
-89.21649734296007
 30
0.0
 10
191.79021348131178
 20
-89.33968004215157
 30
0.0
 10
192.1580342450284
 20
-89.9450739171872
 30
0.0
 10
192.55925012455327
 20
-90.56569328976231
 30
0.0
 10
193.0175314428737
 20
-91.23295267968311
 30
0.0
 10
193.53576448000877
 20
-91.94410401351932
 30
0.0
 10
194.1167252999488
 20
-92.69627529321751
 30
0.0
 10
194.76307510616115
 20
-93.48647464268603
 30
0.0
 10
194.79712335654284
 20
-93.52580636581973
 30
0.0
 10
195.81699542254185
 20
-93.24105296852892
 30
0.0
 10
196.80946310349128
 20
-92.87195754652396
 30
0.0
 10
196.81389010987343
 20
-92.82012445464991
 30
0.0
 10
196.87233056341867
 20
-91.8009248681214
 30
0.0
 10
196.9002225544128
 20
-90.85092531799681
 30
0.0
 10
196.90147762232647
 20
-89.97098206687036
 30
0.0
 10
196.88002976820295
 20
-89.1617868804582
 30
0.0
 10
196.83982931866385
 20
-88.42386648402766
 30
0.0
 10
196.7815609758223
 20
-87.71789293044253
 30
0.0
 10
196.79263597101598
 20
-87.55758428558305
 30
0.0
 10
196.8351110881046
 20
-87.46707283091838
 30
0.0
 10
198.96940770486233
 20
-86.67333503414453
 30
0.0
 10
199.06070320786094
 20
-86.71409764114335
 30
0.0
 10
199.17383589601434
 20
-86.82821386263045
 30
0.0
 10
199.59102471437126
 20
-87.40070608789618
 30
0.0
 10
200.04276556396263
 20
-87.98557598146986
 30
0.0
 10
200.55527445188818
 20
-88.61214720643659
 30
0.0
 10
201.13119758271876
 20
-89.2774398095591
 30
0.0
 10
201.7730609617944
 20
-89.97835957023777
 30
0.0
 10
202.48326610562845
 20
-90.71170242154463
 30
0.0
 10
202.52048613777015
 20
-90.74804711862828
 30
0.0
 10
203.51295381871944
 20
-90.37895169662326
 30
0.0
 10
204.47105566692414
 20
-89.92810318909474
 30
0.0
 10
204.47112986583056
 20
-89.87608144082287
 30
0.0
 10
204.44408093715379
 20
-88.85556615958114
 30
0.0
 10
204.3923811934886
 20
-87.90656444993911
 30
0.0
 10
204.32000010619333
 20
-87.02960226227057
 30
0.0
 10
204.2309157646792
 20
-86.22503974744893
 30
0.0
 10
204.12910871645062
 20
-85.49307122862976
 30
0.0
 10
204.01197038447503
 20
-84.79444939292672
 30
0.0
 10
204.0095922564324
 20
-84.63377624133554
 30
0.0
 10
204.0443446039838
 20
-84.54002799688867
 30
0.0
 10
206.10473767509788
 20
-83.57048061236534
 30
0.0
 10
206.19912391895983
 20
-83.6034608483672
 30
0.0
 10
206.32140883415568
 20
-83.70771014884858
 30
0.0
 10
206.78503942734181
 20
-84.24328510271928
 30
0.0
 10
207.2841366095152
 20
-84.78830307521656
 30
0.0
 10
207.84727818543422
 20
-85.36979118827684
 30
0.0
 10
208.47685172299774
 20
-85.98455851108685
 30
0.0
 10
209.17511545078298
 20
-86.62931030423495
 30
0.0
 10
209.9441943534364
 20
-87.30065278418438
 30
0.0
 10
209.98432509555505
 20
-87.33375552328125
 30
0.0
 10
210.9424269437597
 20
-86.88290701575265
 30
0.0
 10
211.85944256314994
 20
-86.35346780104683
 30
0.0
 10
211.85516343412866
 20
-86.30162229156389
 30
0.0
 10
211.74281485202994
 20
-85.28694949706762
 30
0.0
 10
211.611886010261
 20
-84.34560219304448
 30
0.0
 10
211.46637646907845
 20
-83.47777232848388
 30
0.0
 10
211.31028050282237
 20
-82.68348591321687
 30
0.0
 10
211.1475809591994
 20
-81.96260350524994
 30
0.0
 10
210.97239427932482
 20
-81.27623371764733
 30
0.0
 10
210.95657970890542
 20
-81.11632306603939
 30
0.0
 10
210.98336552417103
 20
-81.01999560838706
 30
0.0
 10
212.95540287263796
 20
-79.88143931439785
 30
0.0
 10
213.05221780567902
 20
-79.9064058467435
 30
0.0
 10
213.18279720709882
 20
-80.00005699227924
 30
0.0
 10
213.6896175396211
 20
-80.4949580012636
 30
0.0
 10
214.2325702462443
 20
-80.99630114320226
 30
0.0
 10
214.8423944766184
 20
-81.52862742304164
 30
0.0
 10
215.52120241489683
 20
-82.08855731447933
 30
0.0
 10
216.27096867304306
 20
-82.6726186695215
 30
0.0
 10
217.09352679859614
 20
-83.27725179297553
 30
0.0
 10
217.13628676236982
 20
-83.30688038215538
 30
0.0
 10
218.05330238175992
 20
-82.77744116744941
 30
0.0
 10
218.92279956664038
 20
-82.17312488125563
 30
0.0
 10
218.91419712470687
 20
-82.12181926955964
 30
0.0
 10
218.71733693376729
 20
-81.12010616242084
 30
0.0
 10
218.5080973656474
 20
-80.19301613899724
 30
0.0
 10
218.2904800154605
 20
-79.34040580050957
 30
0.0
 10
218.06846732551097
 20
-78.56196683330629
 30
0.0
 10
217.84601650689262
 20
-77.85722700833017
 30
0.0
 10
217.61401028780696
 20
-77.18792365973202
 30
0.0
 10
217.5848702028595
 20
-77.02989716643269
 30
0.0
 10
217.60350160259082
 20
-76.93166616347916
 30
0.0
 10
219.473350803318
 20
-75.63208711437485
 30
0.0
 10
219.5719153383443
 20
-75.64886482077824
 30
0.0
 10
219.7098733053082
 20
-75.73126091587075
 30
0.0
 10
220.25632839668395
 20
-76.1820166049766
 30
0.0
 10
220.83932820463104
 20
-76.63616835443051
 30
0.0
 10
221.49155761064225
 20
-77.11559891467182
 30
0.0
 10
222.21483859967134
 20
-77.61676386885782
 30
0.0
 10
223.01084831658395
 20
-78.13603801503592
 30
0.0
 10
223.88111601079322
 20
-78.66972071506184
 30
0.0
 10
223.92620526579893
 20
-78.69566733105962
 30
0.0
 10
224.79570245067933
 20
-78.09135104486579
 30
0.0
 10
225.6115823030309
 20
-77.4163965317313
 30
0.0
 10
225.59871688813456
 20
-77.36599068982515
 30
0.0
 10
225.31872592114965
 20
-76.38426356776053
 30
0.0
 10
225.03264329191074
 20
-75.47793369533751
 30
0.0
 10
224.74444456207323
 20
-74.64652333184758
 30
0.0
 10
224.45807240793434
 20
-73.88939200275534
 30
0.0
 10
224.17743064698254
 20
-73.20573800428737
 30
0.0
 10
223.89023224561643
 20
-72.5581957767903
 30
0.0
 10
223.8479710428997
 20
-72.40316188410821
 30
0.0
 10
223.85831734121427
 20
-72.30371635576033
 30
0.0
 10
225.6128627455434
 20
-70.85223016482412
 30
0.0
 10
225.71248552316024
 20
-70.86070136172964
 30
0.0
 10
225.8568543796527
 20
-70.9312644569733
 30
0.0
 10
226.4391112400433
 20
-71.33471309890906
 30
0.0
 10
227.05806882454633
 20
-71.73848790766341
 30
0.0
 10
227.74812848553762
 20
-72.16165988739691
 30
0.0
 10
228.5108092288561
 20
-72.60054459226417
 30
0.0
 10
229.3474789683031
 20
-73.0513891945407
 30
0.0
 10
230.2593519285801
 20
-73.5103780704483
 30
0.0
 10
230.30645420609062
 20
-73.53246071639543
 30
0.0
 10
231.12233405844216
 20
-72.85750620326084
 30
0.0
 10
231.87887376730953
 20
-72.11664778414091
 30
0.0
 10
231.86183562109204
 20
-72.06749527278916
 30
0.0
 10
231.50067781352197
 20
-71.11264024619003
 30
0.0
 10
231.1397587872581
 20
-70.23342777762552
 30
0.0
 10
230.78300018478927
 20
-69.42904913546566
 30
0.0
 10
230.4342772613642
 20
-68.69853617675994
 30
0.0
 10
230.09741305839123
 20
-68.0407633463947
 30
0.0
 10
229.75703696517846
 20
-67.41952428346615
 30
0.0
 10
229.7019510766649
 20
-67.26857044276676
 30
0.0
 10
229.7039397017138
 20
-67.16860792795434
 30
0.0
 10
231.33087443427263
 20
-65.57539572792427
 30
0.0
 10
231.43085667227393
 20
-65.57550099597216
 30
0.0
 10
231.58062377449554
 20
-65.63373614195335
 30
0.0
 10
232.19459829037635
 20
-65.98704783437336
 30
0.0
 10
232.8451721087004
 20
-66.33761351225648
 30
0.0
 10
233.5682217519571
 20
-66.70155866409303
 30
0.0
 10
234.36495259213592
 20
-67.0750846587751
 30
0.0
 10
235.23641371704153
 20
-67.45433736619651
 30
0.0
 10
236.18349580974973
 20
-67.83541294080435
 30
0.0
 10
236.2322807211313
 20
-67.85347672280588
 30
0.0
 10
236.9888204299986
 20
-67.11261830368599
 30
0.0
 10
237.68071341289715
 20
-66.31105256808492
 30
0.0
 10
237.65962204571218
 20
-66.26349815683851
 30
0.0
 10
237.21983066008562
 20
-65.34221284765405
 30
0.0
 10
236.78660682444598
 20
-64.49628482670175
 30
0.0
 10
236.36379075461147
 20
-63.7245800441015
 30
0.0
 10
235.95516310265097
 20
-63.02580947931476
 30
0.0
 10
235.56443931800408
 20
-62.398531620848075
 30
0.0
 10
235.17327302667866
 20
-61.80795326815487
 30
0.0
 10
235.105748840297
 20
-61.66213831217049
 30
0.0
 10
235.09936584330444
 20
-61.56235997611201
 30
0.0
 10
236.587278125895
 20
-59.83859700584989
 30
0.0
 10
236.68691852071834
 20
-59.83033560666043
 30
0.0
 10
236.8410333600545
 20
-59.87583432567202
 30
0.0
 10
237.48241894133668
 20
-60.17653084090798
 30
0.0
 10
238.1600456855829
 20
-60.471428421570664
 30
0.0
 10
238.91101363736806
 20
-60.77359393176434
 30
0.0
 10
239.73620608001363
 20
-61.07914119978658
 30
0.0
 10
240.6363459167306
 20
-61.384141827103015
 30
0.0
 10
241.61199404146717
 20
-61.68463112905765
 30
0.0
 10
241.6621193956184
 20
-61.69854934266165
 30
0.0
 10
242.35401237851684
 20
-60.896983607060506
 30
0.0
 10
242.97640550329584
 20
-60.040332962689135
 30
0.0
 10
242.95140885593023
 20
-59.994710211575324
 30
0.0
 10
242.4360687128276
 20
-59.113456774306904
 30
0.0
 10
241.93357882174837
 20
-58.30674677823536
 30
0.0
 10
241.4476710354851
 20
-57.57312880977552
 30
0.0
 10
240.98200488436908
 20
-56.91100201235379
 30
0.0
 10
240.54016216466292
 20
-56.31861902926431
 30
0.0
 10
240.1009494257059
 20
-55.762843869620596
 30
0.0
 10
240.0214605751076
 20
-55.62319058549956
 30
0.0
 10
240.00675072821122
 20
-55.524296301531855
 30
0.0
 10
241.34520392523473
 20
-53.68207351975207
 30
0.0
 10
241.44380357110188
 20
-53.66550340110478
 30
0.0
 10
241.601185142686
 20
-53.69794655232367
 30
0.0
 10
242.26548293035182
 20
-53.94391872037138
 30
0.0
 10
242.9654095357834
 20
-54.18107970916887
 30
0.0
 10
243.73902829548496
 20
-54.419346103771275
 30
0.0
 10
244.58689420851212
 20
-54.65477145058393
 30
0.0
 10
245.50939892283543
 20
-54.883380637537385
 30
0.0
 10
246.50676960900762
 20
-55.10117595028688
 30
0.0
 10
246.557883812584
 20
-55.110850969225126
 30
0.0
 10
247.18027693736298
 20
-54.25420032485377
 30
0.0
 10
247.72880456344117
 20
-53.348473560479974
 30
0.0
 10
247.70007796941593
 20
-53.30510248031775
 30
0.0
 10
247.11280380966974
 20
-52.47006227464808
 30
0.0
 10
246.54457246869833
 20
-51.70822879445939
 30
0.0
 10
245.99898126000272
 20
-51.01784344308492
 30
0.0
 10
245.47954292320063
 20
-50.39700475677468
 30
0.0
 10
244.98968047765035
 20
-49.84367179006218
 30
0.0
 10
244.50550205285163
 20
-49.32659818688898
 30
0.0
 10
244.41460609521093
 20
-49.19408614207866
 30
0.0
 10
244.39167257741772
 20
-49.09676958254827
 30
0.0
 10
245.57127840137434
 20
-47.14900885842981
 30
0.0
 10
245.66814569261328
 20
-47.12424624780135
 30
0.0
 10
245.82769007779928
 20
-47.14340626583213
 30
0.0
 10
246.51024050016548
 20
-47.332928768663486
 30
0.0
 10
247.22755748454196
 20
-47.510689651659305
 30
0.0
 10
248.0184006724049
 20
-47.683385663106485
 30
0.0
 10
248.8829928856246
 20
-47.84703774905454
 30
0.0
 10
249.82139176980195
 20
-47.99765196645402
 30
0.0
 10
250.8334891786561
 20
-48.131225612365135
 30
0.0
 10
250.88523370224533
 20
-48.13658957333135
 30
0.0
 10
251.4337613283233
 20
-47.230862808957454
 30
0.0
 10
251.90457592851996
 20
-46.28241294706931
 30
0.0
 10
251.87232088425236
 20
-46.24159775482405
 30
0.0
 10
251.21723201413727
 20
-45.45862798782034
 30
0.0
 10
250.58724495785697
 20
-44.747014738001425
 30
0.0
 10
249.98579725705122
 20
-44.10470456091103
 30
0.0
 10
249.4162302212798
 20
-43.52950872302475
 30
0.0
 10
248.8817840829753
 20
-43.01910700588155
 30
0.0
 10
248.35603613610306
 20
-42.544361858988246
 30
0.0
 10
248.25437064125418
 20
-42.4199205302732
 30
0.0
 10
248.22337431471377
 20
-42.324864300923394
 30
0.0
 10
249.23585867829405
 20
-40.28522777648176
 30
0.0
 10
249.33031416045586
 20
-40.25244636579383
 30
0.0
 10
249.49090227001403
 20
-40.25818885687643
 30
0.0
 10
250.1869177262796
 20
-40.38993233030581
 30
0.0
 10
250.91659362634707
 20
-40.507046242626785
 30
0.0
 10
251.7191140456286
 20
-40.612960532480336
 30
0.0
 10
252.59436806587365
 20
-40.70369145576473
 30
0.0
 10
253.54207892597134
 20
-40.77525425309135
 30
0.0
 10
254.56180392137526
 20
-40.823669309010555
 30
0.0
 10
254.6138158143225
 20
-40.82468458767244
 30
0.0
 10
255.0846304145191
 20
-39.876234725784315
 30
0.0
 10
255.47442956269396
 20
-38.891714460702794
 30
0.0
 10
255.4388723141442
 20
-38.8537414456224
 30
0.0
 10
254.72056371140343
 20
-38.12833408763719
 30
0.0
 10
254.03323984636896
 20
-37.47193252384212
 30
0.0
 10
253.38015437693468
 20
-36.88220286542885
 30
0.0
 10
252.76445374571648
 20
-36.356684461491675
 30
0.0
 10
252.18917267031892
 20
-35.892794095240404
 30
0.0
 10
251.62554294547112
 20
-35.463707400728524
 30
0.0
 10
251.51382102381388
 20
-35.34820965461873
 30
0.0
 10
251.4749793054861
 20
-35.25608050660059
 30
0.0
 10
252.31324035834854
 20
-33.138874766577935
 30
0.0
 10
252.404621494092
 20
-33.09830449387307
 30
0.0
 10
252.56512691781626
 20
-33.09058917855855
 30
0.0
 10
253.26972535964182
 20
-33.1636295367774
 30
0.0
 10
254.00664202323276
 20
-33.2192750084748
 30
0.0
 10
254.8152105698017
 20
-33.25766466409072
 30
0.0
 10
255.69498711898933
 20
-33.27483801247469
 30
0.0
 10
256.645362444253
 20
-33.266847428123
 30
0.0
 10
257.66556238803537
 20
-33.2297642972192
 30
0.0
 10
257.71747682428213
 20
-33.22642377212647
 30
0.0
 10
258.1072759724568
 20
-32.24190350704501
 30
0.0
 10
258.4133255076558
 20
-31.22821854105287
 30
0.0
 10
258.3747154633745
 20
-31.193354056554497
 30
0.0
 10
257.59822554675225
 20
-30.53059731899959
 30
0.0
 10
256.85838595603525
 20
-29.934011626574502
 30
0.0
 10
256.1582436432993
 20
-29.400999016671975
 30
0.0
 10
255.50072811418204
 20
-28.928844180703063
 30
0.0
 10
254.88864728509645
 20
-28.514719022958182
 30
0.0
 10
254.2910892398255
 20
-28.13430051569137
 30
0.0
 10
254.17009454036824
 20
-28.028556485890775
 30
0.0
 10
254.1236798769994
 20
-27.94000063898295
 30
0.0
 10
254.78183782014793
 20
-25.76007636043531
 30
0.0
 10
254.86950363646298
 20
-25.712001797026836
 30
0.0
 10
255.0288005441289
 20
-25.690882792708674
 30
0.0
 10
255.73703971969837
 20
-25.70470771008351
 30
0.0
 10
256.47602820589157
 20
-25.698494428154607
 30
0.0
 10
257.28497335234954
 20
-25.66909017368168
 30
0.0
 10
258.1631014301057
 20
-25.612585488465335
 30
0.0
 10
259.10947502047236
 20
-25.525097570643343
 30
0.0
 10
260.1229939430402
 20
-25.40277636443563
 30
0.0
 10
260.1744467801168
 20
-25.395103466971662
 30
0.0
 10
260.48049631531546
 20
-24.381418500979386
 30
0.0
 10
260.70064951994505
 20
-23.345679105781297
 30
0.0
 10
260.65925750165184
 20
-23.31416770117371
 30
0.0
 10
259.83003279000593
 20
-22.71871034637298
 30
0.0
 10
259.0428669167614
 20
-22.186125145304025
 30
0.0
 10
258.30057875599596
 20
-21.713568284401656
 30
0.0
 10
257.60586032799216
 20
-21.29808884333255
 30
0.0
 10
256.9612730524551
 20
-20.936633684527152
 30
0.0
 10
256.33397812710376
 20
-20.607551727003557
 30
0.0
 10
256.20455934072857
 20
-20.51230313190423
 30
0.0
 10
256.1508972978333
 20
-20.42794174174549
 30
0.0
 10
256.6243356261825
 20
-18.20058952721344
 30
0.0
 10
256.7076712103556
 20
-18.145347881622143
 30
0.0
 10
256.86464224861055
 20
-18.110973322941643
 30
0.0
 10
257.5715543689764
 20
-18.06548582761027
 30
0.0
 10
258.3074312045037
 20
-17.997457373763552
 30
0.0
 10
259.11107878187454
 20
-17.90046545891999
 30
0.0
 10
259.98139895066805
 20
-17.77067907987156
 30
0.0
 10
260.9171326753697
 20
-17.604307493462795
 30
0.0
 10
261.9168614696936
 20
-17.39760620732506
 30
0.0
 10
261.96749180291647
 20
-17.385654757352548
 30
0.0
 10
262.18764500754594
 20
-16.349915362154434
 30
0.0
 10
262.3203576650558
 20
-15.29938650543004
 30
0.0
 10
262.2764740080188
 20
-15.271449210575609
 30
0.0
 10
261.4003309169044
 20
-14.747467944037473
 30
0.0
 10
260.57136016415507
 20
-14.282618936848205
 30
0.0
 10
259.7921327734747
 20
-13.873832471793596
 30
0.0
 10
259.0650843972023
 20
-13.517942715381832
 30
0.0
 10
258.3925119918163
 20
-13.211692903749745
 30
0.0
 10
257.7398802095751
 20
-12.936255769456345
 30
0.0
 10
257.6029451160812
 20
-12.85217070951688
 30
0.0
 10
257.5424120943343
 20
-12.772595510645612
 30
0.0
 10
257.8278099781758
 20
-10.51343863556374
 30
0.0
 10
257.9062307909605
 20
-10.451417388242376
 30
0.0
 10
258.05977492075465
 20
-10.404028388030595
 30
0.0
 10
258.76040150530827
 20
-10.299547542090044
 30
0.0
 10
259.48800504289517
 20
-10.170181087050873
 30
0.0
 10
260.28071804084357
 20
-10.006281840430695
 30
0.0
 10
261.13712563001445
 20
-9.804124125747833
 30
0.0
 10
262.05565598929616
 20
-9.560035847893138
 30
0.0
 10
263.03458227618796
 20
-9.270404342832956
 30
0.0
 10
263.0840349701476
 20
-9.254258171186379
 30
0.0
 10
263.2167476276573
 20
-8.20372931446201
 30
0.0
 10
263.2610888541089
 20
-7.1457797013372915
 30
0.0
 10
263.21502137065175
 20
-7.121612476286491
 30
0.0
 10
262.298105414345
 20
-6.672782650115686
 30
0.0
 10
261.43314441630685
 20
-6.278930418597987
 30
0.0
 10
260.62244351598304
 20
-5.936781692730824
 30
0.0
 10
259.868164913418
 20
-5.642977931911187
 30
0.0
 10
259.17232499036436
 20
-5.394081589840837
 30
0.0
 10
258.4989340942704
 20
-5.1742212723733845
 30
0.0
 10
258.3554431949508
 20
-5.101889543874226
 30
0.0
 10
258.288463790007
 20
-5.027658699135811
 30
0.0
 10
258.38381936824373
 20
-2.752543525780834
 30
0.0
 10
258.4567753439836
 20
-2.684177711217161
 30
0.0
 10
258.6058155635677
 20
-2.6241066692616384
 30
0.0
 10
259.2952422202179
 20
-2.461365330776799
 30
0.0
 10
260.00946884383075
 20
-2.271568287277602
 30
0.0
 10
260.78568695023966
 20
-2.0419113443344052
 30
0.0
 10
261.6221748758778
 20
-1.7688002851354927
 30
0.0
 10
262.5170590392323
 20
-1.44870741972683
 30
0.0
 10
263.46831635414713
 20
-1.0781772526522522
 30
0.0
 10
263.51624453372733
 20
-1.0579496131247144
 30
0.0
 10
263.5605857601787
 20
6.039613253960852e-14
 30
0.0
 10
263.5162445337273
 20
1.0579496131248032
 30
0.0
 10
263.46831635414713
 20
1.0781772526523667
 30
0.0
 10
262.5170590392783
 20
1.448707419709029
 30
0.0
 10
261.622174875879
 20
1.768800285133504
 30
0.0
 10
260.78568695023966
 20
2.041911344334781
 30
0.0
 10
260.00946884383063
 20
2.271568287277848
 30
0.0
 10
259.2952422202092
 20
2.4613653307786176
 30
0.0
 10
258.60581556356794
 20
2.6241066692625044
 30
0.0
 10
258.4567753439833
 20
2.6841777112162095
 30
0.0
 10
258.3838193682436
 20
2.752543525780721
 30
0.0
 10
258.28846379000714
 20
5.027658699135709
 30
0.0
 10
258.35544319495114
 20
5.1018895438733
 30
0.0
 10
258.4989340942701
 20
5.174221272374233
 30
0.0
 10
259.17232499037294
 20
5.394081589843381
 30
0.0
 10
259.8681649134181
 20
5.642977931911441
 30
0.0
 10
260.622443515983
 20
5.936781692731196
 30
0.0
 10
261.4331444163059
 20
6.278930418595907
 30
0.0
 10
262.29810541430066
 20
6.672782650094103
 30
0.0
 10
263.21502137065175
 20
7.1216124762866055
 30
0.0
 10
263.2610888541089
 20
7.145779701337382
 30
0.0
 10
263.2167476276575
 20
8.203729314462027
 30
0.0
 10
263.08403497014774
 20
9.254258171186443
 30
0.0
 10
263.0345822761879
 20
9.270404342833022
 30
0.0
 10
262.05565598934345
 20
9.560035847879202
 30
0.0
 10
261.13712563001576
 20
9.804124125745904
 30
0.0
 10
260.28071804084357
 20
10.006281840431026
 30
0.0
 10
259.48800504289505
 20
10.170181087051064
 30
0.0
 10
258.7604015052994
 20
10.299547542091084
 30
0.0
 10
258.05977492075476
 20
10.404028388031431
 30
0.0
 10
257.9062307909603
 20
10.451417388241364
 30
0.0
 10
257.82780997817565
 20
10.513438635563569
 30
0.0
 10
257.5424120943345
 20
12.77259551064548
 30
0.0
 10
257.60294511608157
 20
12.852170709515946
 30
0.0
 10
257.7398802095748
 20
12.936255769457127
 30
0.0
 10
258.3925119918247
 20
13.211692903752958
 30
0.0
 10
259.0650843972024
 20
13.517942715382048
 30
0.0
 10
259.79213277347463
 20
13.873832471793921
 30
0.0
 10
260.57136016415427
 20
14.28261893684601
 30
0.0
 10
261.40033091686206
 20
14.747467944012215
 30
0.0
 10
262.2764740080188
 20
15.271449210575684
 30
0.0
 10
262.32035766505567
 20
15.299386505430068
 30
0.0
 10
262.18764500754594
 20
16.34991536215452
 30
0.0
 10
261.96749180291675
 20
17.38565475735271
 30
0.0
 10
261.9168614696935
 20
17.39760620732516
 30
0.0
 10
260.917132675418
 20
17.60430749345291
 30
0.0
 10
259.9813989506695
 20
17.770679079869794
 30
0.0
 10
259.1110787818745
 20
17.90046545892036
 30
0.0
 10
258.3074312045036
 20
17.99745737376377
 30
0.0
 10
257.57155436896755
 20
18.06548582761061
 30
0.0
 10
256.8646422486106
 20
18.110973322942527
 30
0.0
 10
256.7076712103555
 20
18.14534788162116
 30
0.0
 10
256.6243356261824
 20
18.200589527213303
 30
0.0
 10
256.15089729783347
 20
20.427941741745418
 30
0.0
 10
256.204559340729
 20
20.51230313190338
 30
0.0
 10
256.33397812710336
 20
20.607551727004356
 30
0.0
 10
256.9612730524631
 20
20.936633684531092
 30
0.0
 10
257.6058603279922
 20
21.29808884333282
 30
0.0
 10
258.30057875599584
 20
21.71356828440202
 30
0.0
 10
259.0428669167608
 20
22.18612514530182
 30
0.0
 10
259.83003278996586
 20
22.71871034634431
 30
0.0
 10
260.65925750165184
 20
23.31416770117383
 30
0.0
 10
260.70064951994493
 20
23.345679105781368
 30
0.0
 10
260.4804963153154
 20
24.381418500979436
 30
0.0
 10
260.1744467801167
 20
25.39510346697164
 30
0.0
 10
260.12299394304017
 20
25.402776364435653
 30
0.0
 10
259.1094750205213
 20
25.52509757063745
 30
0.0
 10
258.16310143010736
 20
25.612585488463615
 30
0.0
 10
257.2849733523494
 20
25.669090173681973
 30
0.0
 10
256.4760282058914
 20
25.69849442815473
 30
0.0
 10
255.73703971968948
 20
25.70470771008302
 30
0.0
 10
255.0288005441289
 20
25.69088279270948
 30
0.0
 10
254.86950363646298
 20
25.712001797025774
 30
0.0
 10
254.7818378201478
 20
25.760076360435086
 30
0.0
 10
254.1236798769996
 20
27.940000638982813
 30
0.0
 10
254.17009454036884
 20
28.028556485889894
 30
0.0
 10
254.2910892398251
 20
28.134300515692054
 30
0.0
 10
254.88864728510413
 20
28.514719022962705
 30
0.0
 10
255.50072811418212
 20
28.92884418070325
 30
0.0
 10
256.1582436432992
 20
29.400999016672245
 30
0.0
 10
256.8583859560349
 20
29.934011626572172
 30
0.0
 10
257.59822554671473
 20
30.530597318967583
 30
0.0
 10
258.3747154633745
 20
31.193354056554536
 30
0.0
 10
258.41332550765554
 20
31.228218541052797
 30
0.0
 10
258.1072759724569
 20
32.24190350704498
 30
0.0
 10
257.71747682428213
 20
33.22642377212652
 30
0.0
 10
257.66556238803537
 20
33.22976429721925
 30
0.0
 10
256.64536244430224
 20
33.26684742812125
 30
0.0
 10
255.69498711899112
 20
33.27483801247314
 30
0.0
 10
254.81521056980165
 20
33.25766466409104
 30
0.0
 10
254.0066420232326
 20
33.219275008474945
 30
0.0
 10
253.26972535963296
 20
33.1636295367762
 30
0.0
 10
252.56512691781614
 20
33.09058917855939
 30
0.0
 10
252.40462149409205
 20
33.09830449387205
 30
0.0
 10
252.31324035834845
 20
33.13887476657774
 30
0.0
 10
251.47497930548633
 20
35.25608050660051
 30
0.0
 10
251.51382102381456
 20
35.34820965461793
 30
0.0
 10
251.62554294547064
 20
35.463707400729184
 30
0.0
 10
252.18917267032617
 20
35.892794095245584
 30
0.0
 10
252.76445374571654
 20
36.35668446149191
 30
0.0
 10
253.38015437693454
 20
36.88220286542916
 30
0.0
 10
254.03323984636873
 20
37.47193252383978
 30
0.0
 10
254.72056371136873
 20
38.12833408760219
 30
0.0
 10
255.4388723141442
 20
38.853741445622475
 30
0.0
 10
255.47442956269379
 20
38.89171446070278
 30
0.0
 10
255.084630414519
 20
39.87623472578436
 30
0.0
 10
254.61381581432255
 20
40.82468458767258
 30
0.0
 10
254.5618039213752
 20
40.82366930901066
 30
0.0
 10
253.54207892602057
 20
40.775254253093784
 30
0.0
 10
252.59436806587553
 20
40.703691455763376
 30
0.0
 10
251.71911404562843
 20
40.61296053248069
 30
0.0
 10
250.91659362634687
 20
40.50704624262697
 30
0.0
 10
250.18691772627085
 20
40.38993233030393
 30
0.0
 10
249.49090227001386
 20
40.25818885687731
 30
0.0
 10
249.330314160456
 20
40.25244636579286
 30
0.0
 10
249.235858678294
 20
40.28522777648161
 30
0.0
 10
248.22337431471396
 20
42.32486430092337
 30
0.0
 10
248.2543706412549
 20
42.419920530272506
 30
0.0
 10
248.3560361361025
 20
42.54436185898891
 30
0.0
 10
248.88178408298208
 20
43.01910700588736
 30
0.0
 10
249.4162302212798
 20
43.52950872302503
 30
0.0
 10
249.98579725705105
 20
44.10470456091136
 30
0.0
 10
250.5872449578569
 20
44.74701473799914
 30
0.0
 10
251.21723201410558
 20
45.458627987782606
 30
0.0
 10
251.8723208842523
 20
46.24159775482416
 30
0.0
 10
251.90457592851988
 20
46.28241294706937
 30
0.0
 10
251.43376132832321
 20
47.230862808957504
 30
0.0
 10
250.88523370224527
 20
48.13658957333145
 30
0.0
 10
250.833489178656
 20
48.131225612365235
 30
0.0
 10
249.82139176985083
 20
47.99765196646058
 30
0.0
 10
248.88299288562655
 20
47.847037749053364
 30
0.0
 10
248.01840067240477
 20
47.683385663106826
 30
0.0
 10
247.22755748454176
 20
47.510689651659476
 30
0.0
 10
246.51024050015695
 20
47.33292876866088
 30
0.0
 10
245.82769007779905
 20
47.14340626583298
 30
0.0
 10
245.6681456926135
 20
47.12424624780041
 30
0.0
 10
245.5712784013743
 20
47.14900885842964
 30
0.0
 10
244.39167257741792
 20
49.09676958254826
 30
0.0
 10
244.4146060952117
 20
49.19408614207803
 30
0.0
 10
244.505502052851
 20
49.326598186889605
 30
0.0
 10
244.98968047765663
 20
49.84367179006855
 30
0.0
 10
245.4795429232006
 20
50.39700475677495
 30
0.0
 10
245.99898126000252
 20
51.01784344308523
 30
0.0
 10
246.5445724686985
 20
51.708228794457106
 30
0.0
 10
247.11280380964132
 20
52.47006227460784
 30
0.0
 10
247.70007796941593
 20
53.30510248031787
 30
0.0
 10
247.72880456344106
 20
53.34847356048
 30
0.0
 10
247.18027693736306
 20
54.25420032485387
 30
0.0
 10
246.55788381258418
 20
55.11085096922531
 30
0.0
 10
246.50676960900756
 20
55.101175950286915
 30
0.0
 10
245.5093989228836
 20
54.883380637547965
 30
0.0
 10
244.58689420851422
 20
54.654771450582885
 30
0.0
 10
243.73902829548481
 20
54.41934610377156
 30
0.0
 10
242.96540953578324
 20
54.18107970916897
 30
0.0
 10
242.26548293034358
 20
53.943918720368025
 30
0.0
 10
241.60118514268572
 20
53.69794655232447
 30
0.0
 10
241.4438035711022
 20
53.665503401103805
 30
0.0
 10
241.34520392523473
 20
53.68207351975187
 30
0.0
 10
240.00675072821144
 20
55.52429630153182
 30
0.0
 10
240.02146057510845
 20
55.62319058549896
 30
0.0
 10
240.10094942570527
 20
55.76284386962113
 30
0.0
 10
240.5401621646687
 20
56.31861902927114
 30
0.0
 10
240.98200488436908
 20
56.911002012354025
 30
0.0
 10
241.44767103548492
 20
57.573128809775774
 30
0.0
 10
241.93357882174874
 20
58.306746778233055
 30
0.0
 10
242.4360687128027
 20
59.11345677426438
 30
0.0
 10
242.95140885593025
 20
59.9947102115754
 30
0.0
 10
242.9764055032959
 20
60.040332962689234
 30
0.0
 10
242.35401237851693
 20
60.89698360706056
 30
0.0
 10
241.6621193956185
 20
61.69854934266175
 30
0.0
 10
241.61199404146714
 20
61.684631129057635
 30
0.0
 10
240.6363459167777
 20
61.38414182711754
 30
0.0
 10
239.7362060800158
 20
61.07914119978567
 30
0.0
 10
238.9110136373679
 20
60.773593931764566
 30
0.0
 10
238.1600456855827
 20
60.47142842157071
 30
0.0
 10
237.48241894132875
 20
60.176530840903915
 30
0.0
 10
236.84103336005415
 20
59.875834325672756
 30
0.0
 10
236.68691852071873
 20
59.83033560665945
 30
0.0
 10
236.58727812589507
 20
59.83859700584965
 30
0.0
 10
235.09936584330467
 20
61.56235997611197
 30
0.0
 10
235.1057488402979
 20
61.66213831216992
 30
0.0
 10
235.17327302667798
 20
61.8079532681553
 30
0.0
 10
235.56443931800928
 20
62.39853162085532
 30
0.0
 10
235.95516310265094
 20
63.02580947931496
 30
0.0
 10
236.36379075461127
 20
63.7245800441017
 30
0.0
 10
236.7866068244466
 20
64.49628482669945
 30
0.0
 10
237.21983066006436
 20
65.34221284760955
 30
0.0
 10
237.6596220457122
 20
66.26349815683854
 30
0.0
 10
237.68071341289715
 20
66.31105256808483
 30
0.0
 10
236.9888204299986
 20
67.11261830368606
 30
0.0
 10
236.23228072113136
 20
67.8534767228061
 30
0.0
 10
236.18349580974962
 20
67.83541294080442
 30
0.0
 10
235.2364137170872
 20
67.454337366215
 30
0.0
 10
234.36495259213814
 20
67.07508465877444
 30
0.0
 10
233.56822175195686
 20
66.70155866409331
 30
0.0
 10
232.84517210870013
 20
66.33761351225658
 30
0.0
 10
232.19459829036873
 20
65.9870478343687
 30
0.0
 10
231.58062377449505
 20
65.63373614195413
 30
0.0
 10
231.4308566722744
 20
65.57550099597128
 30
0.0
 10
231.3308744342726
 20
65.5753957279241
 30
0.0
 10
229.703939701714
 20
67.16860792795438
 30
0.0
 10
229.70195107666575
 20
67.2685704427663
 30
0.0
 10
229.7570369651777
 20
67.41952428346659
 30
0.0
 10
230.09741305839572
 20
68.0407633464024
 30
0.0
 10
230.43427726136406
 20
68.6985361767602
 30
0.0
 10
230.783000184789
 20
69.42904913546592
 30
0.0
 10
231.1397587872588
 20
70.23342777762333
 30
0.0
 10
231.50067781350447
 20
71.11264024614395
 30
0.0
 10
231.86183562109196
 20
72.06749527278927
 30
0.0
 10
231.87887376730953
 20
72.116647784141
 30
0.0
 10
231.12233405844222
 20
72.85750620326085
 30
0.0
 10
230.30645420609062
 20
73.53246071639545
 30
0.0
 10
230.25935192858006
 20
73.5103780704483
 30
0.0
 10
229.34747896834713
 20
73.05138919456289
 30
0.0
 10
228.5108092288584
 20
72.60054459226365
 30
0.0
 10
227.7481284855374
 20
72.16165988739712
 30
0.0
 10
227.05806882454613
 20
71.73848790766341
 30
0.0
 10
226.43911124003614
 20
71.33471309890373
 30
0.0
 10
225.85685437965222
 20
70.93126445697393
 30
0.0
 10
225.7124855231608
 20
70.86070136172874
 30
0.0
 10
225.6128627455434
 20
70.85223016482388
 30
0.0
 10
223.8583173412145
 20
72.30371635576033
 30
0.0
 10
223.84797104290067
 20
72.40316188410779
 30
0.0
 10
223.89023224561566
 20
72.55819577679063
 30
0.0
 10
224.17743064698647
 20
73.20573800429537
 30
0.0
 10
224.45807240793425
 20
73.88939200275551
 30
0.0
 10
224.744444562073
 20
74.64652333184772
 30
0.0
 10
225.03264329191168
 20
75.47793369533532
 30
0.0
 10
225.3187259211361
 20
76.38426356771309
 30
0.0
 10
225.59871688813453
 20
77.3659906898252
 30
0.0
 10
225.6115823030309
 20
77.41639653173122
 30
0.0
 10
224.79570245067933
 20
78.09135104486585
 30
0.0
 10
223.92620526579898
 20
78.6956673310597
 30
0.0
 10
223.88111601079316
 20
78.6697207150618
 30
0.0
 10
223.01084831662598
 20
78.1360380150617
 30
0.0
 10
222.2148385996737
 20
77.61676386885749
 30
0.0
 10
221.49155761064202
 20
77.11559891467199
 30
0.0
 10
220.83932820463085
 20
76.63616835443051
 30
0.0
 10
220.25632839667728
 20
76.18201660497066
 30
0.0
 10
219.7098733053077
 20
75.73126091587136
 30
0.0
 10
219.57191533834495
 20
75.64886482077739
 30
0.0
 10
219.47335080331806
 20
75.63208711437461
 30
0.0
 10
217.60350160259105
 20
76.93166616347916
 30
0.0
 10
217.58487020286051
 20
77.02989716643236
 30
0.0
 10
217.6140102878062
 20
77.18792365973228
 30
0.0
 10
217.84601650689584
 20
77.85722700833848
 30
0.0
 10
218.06846732551088
 20
78.56196683330647
 30
0.0
 10
218.29048001546028
 20
79.34040580050971
 30
0.0
 10
218.50809736564852
 20
80.19301613899513
 30
0.0
 10
218.71733693375774
 20
81.12010616237242
 30
0.0
 10
218.91419712470687
 20
82.12181926955967
 30
0.0
 10
218.92279956664032
 20
82.17312488125557
 30
0.0
 10
218.05330238175995
 20
82.77744116744935
 30
0.0
 10
217.13628676236982
 20
83.3068803821554
 30
0.0
 10
217.09352679859612
 20
83.2772517929755
 30
0.0
 10
216.2709686730828
 20
82.67261866955073
 30
0.0
 10
215.52120241489922
 20
82.0885573144792
 30
0.0
 10
214.84239447661818
 20
81.5286274230418
 30
0.0
 10
214.2325702462441
 20
80.99630114320223
 30
0.0
 10
213.68961753961494
 20
80.49495800125715
 30
0.0
 10
213.18279720709825
 20
80.00005699227982
 30
0.0
 10
213.05221780567973
 20
79.9064058467427
 30
0.0
 10
212.95540287263805
 20
79.88143931439764
 30
0.0
 10
210.9833655241713
 20
81.0199956083871
 30
0.0
 10
210.95657970890647
 20
81.11632306603916
 30
0.0
 10
210.97239427932405
 20
81.27623371764753
 30
0.0
 10
211.14758095920192
 20
81.9626035052585
 30
0.0
 10
211.31028050282228
 20
82.68348591321705
 30
0.0
 10
211.4663764690782
 20
83.47777232848401
 30
0.0
 10
211.6118860102623
 20
84.34560219304251
 30
0.0
 10
211.74281485202448
 20
85.2869494970186
 30
0.0
 10
211.85516343412866
 20
86.30162229156392
 30
0.0
 10
211.85944256314986
 20
86.3534678010467
 30
0.0
 10
210.94242694375976
 20
86.88290701575268
 30
0.0
 10
209.98432509555514
 20
87.3337555232815
 30
0.0
 10
209.94419435343636
 20
87.30065278418434
 30
0.0
 10
209.1751154508201
 20
86.6293103042674
 30
0.0
 10
208.4768517230001
 20
85.9845585110869
 30
0.0
 10
207.84727818543396
 20
85.36979118827696
 30
0.0
 10
207.28413660951497
 20
84.7883030752165
 30
0.0
 10
206.78503942733624
 20
84.2432851027123
 30
0.0
 10
206.32140883415508
 20
83.70771014884909
 30
0.0
 10
206.19912391896062
 20
83.60346084836648
 30
0.0
 10
206.10473767509797
 20
83.57048061236512
 30
0.0
 10
204.04434460398403
 20
84.54002799688871
 30
0.0
 10
204.00959225643345
 20
84.63377624133538
 30
0.0
 10
204.01197038447424
 20
84.79444939292684
 30
0.0
 10
204.1291087164524
 20
85.49307122863848
 30
0.0
 10
204.23091576467908
 20
86.2250397474491
 30
0.0
 10
204.32000010619305
 20
87.02960226227066
 30
0.0
 10
204.39238119349005
 20
87.90656444993722
 30
0.0
 10
204.44408093715248
 20
88.85556615953183
 30
0.0
 10
204.47112986583053
 20
89.87608144082292
 30
0.0
 10
204.47105566692403
 20
89.92810318909451
 30
0.0
 10
203.51295381871932
 20
90.37895169662305
 30
0.0
 10
202.5204861377701
 20
90.74804711862822
 30
0.0
 10
202.4832661056284
 20
90.71170242154462
 30
0.0
 10
201.7730609618287
 20
89.97835957027321
 30
0.0
 10
201.1311975827211
 20
89.27743980955938
 30
0.0
 10
200.55527445188793
 20
88.61214720643672
 30
0.0
 10
200.0427655639624
 20
87.98557598146984
 30
0.0
 10
199.59102471436623
 20
87.4007060878888
 30
0.0
 10
199.17383589601368
 20
86.82821386263092
 30
0.0
 10
199.06070320786176
 20
86.71409764114271
 30
0.0
 10
198.96940770486242
 20
86.67333503414433
 30
0.0
 10
196.8351110881048
 20
87.46707283091847
 30
0.0
 10
196.79263597101703
 20
87.55758428558298
 30
0.0
 10
196.78156097582146
 20
87.7178929304426
 30
0.0
 10
196.8398293186649
 20
88.42386648403652
 30
0.0
 10
196.8800297682028
 20
89.16178688045837
 30
0.0
 10
196.90147762232615
 20
89.97098206687046
 30
0.0
 10
196.9002225544144
 20
90.85092531799506
 30
0.0
 10
196.87233056342146
 20
91.80092486807216
 30
0.0
 10
196.8138901098734
 20
92.82012445464997
 30
0.0
 10
196.80946310349117
 20
92.87195754652383
 30
0.0
 10
195.81699542254185
 20
93.24105296852886
 30
0.0
 10
194.79712335654278
 20
93.52580636581982
 30
0.0
 10
194.76307510616107
 20
93.48647464268602
 30
0.0
 10
194.11672529997995
 20
92.69627529325571
 30
0.0
 10
193.535764480011
 20
91.94410401351978
 30
0.0
 10
193.01753144287338
 20
91.23295267968322
 30
0.0
 10
192.55925012455302
 20
90.56569328976224
 30
0.0
 10
192.158034245024
 20
89.94507391717944
 30
0.0
 10
191.790213481311
 20
89.33968004215201
 30
0.0
 10
191.6870265647233
 20
89.21649734295953
 30
0.0
 10
191.59946217494513
 20
89.1682382853643
 30
0.0
 10
189.40623256982036
 20
89.78059899404445
 30
0.0
 10
189.3563326156234
 20
89.86723878610472
 30
0.0
 10
189.3318821803254
 20
90.02605847427041
 30
0.0
 10
189.3308718234748
 20
90.73443184850946
 30
0.0
 10
189.30918369705446
 20
91.47312814115669
 30
0.0
 10
189.26284462250075
 20
92.28128007633255
 30
0.0
 10
189.1879622027799
 20
93.15803222124694
 30
0.0
 10
189.08067411940803
 20
94.10236604753646
 30
0.0
 10
188.93715420142607
 20
95.11310098659503
 30
0.0
 10
188.9284054398371
 20
95.16438185017375
 30
0.0
 10
187.908533373838
 20
95.4491352474646
 30
0.0
 10
186.868410592555
 20
95.64754927955431
 30
0.0
 10
186.83777294794604
 20
95.60550641414832
 30
0.0
 10
186.2598121588722
 20
94.76399324723792
 30
0.0
 10
185.7438289207742
 20
93.96584638957295
 30
0.0
 10
185.2869210097377
 20
93.2138245406678
 30
0.0
 10
184.88608177519586
 20
92.51055733098785
 30
0.0
 10
184.53820510685566
 20
91.85854167838751
 30
0.0
 10
184.22233239616088
 20
91.22449255664893
 30
0.0
 10
184.1298150332175
 20
91.09310741788036
 30
0.0
 10
184.04659595793984
 20
91.03769041230329
 30
0.0
 10
181.80981729429462
 20
91.46437876249857
 30
0.0
 10
181.7528425153141
 20
91.54653917606393
 30
0.0
 10
181.71518814214969
 20
91.702755901535
 30
0.0
 10
181.6549061725324
 20
92.4085603661644
 30
0.0
 10
181.57148159677774
 20
93.14285113129671
 30
0.0
 10
181.45768062886037
 20
93.94429121006746
 30
0.0
 10
181.30969610370178
 20
94.81170246242057
 30
0.0
 10
181.1237644767695
 20
95.74374674163404
 30
0.0
 10
180.89617178345938
 20
96.73892745378791
 30
0.0
 10
180.88316263294018
 20
96.78929639065855
 30
0.0
 10
179.84303985165718
 20
96.98771042274821
 30
0.0
 10
178.7899620690738
 20
97.09839335776202
 30
0.0
 10
178.76294993130148
 20
97.05393425057697
 30
0.0
 10
178.25743213900597
 20
96.16700987642598
 30
0.0
 10
177.81004573446077
 20
95.32848586757072
 30
0.0
 10
177.41766783023346
 20
94.54086839654015
 30
0.0
 10
177.07708227869782
 20
93.8065262812803
 30
0.0
 10
176.7849849264258
 20
93.1276877699928
 30
0.0
 10
176.5232758888605
 20
92.46943080056843
 30
0.0
 10
176.44207702238893
 20
92.33076479457216
 30
0.0
 10
176.363786983632
 20
92.26857855149025
 30
0.0
 10
174.09914865666852
 20
92.50660163099924
 30
0.0
 10
174.03549869004266
 20
92.58370636980067
 30
0.0
 10
173.98490449738497
 20
92.73622438448953
 30
0.0
 10
173.86577374970534
 20
93.43450922830975
 30
0.0
 10
173.72119788807478
 20
94.15924394379685
 30
0.0
 10
173.54073325881782
 20
94.94835063984382
 30
0.0
 10
173.32068463333877
 20
95.80033673293455
 30
0.0
 10
173.05741363961732
 20
96.71355384412617
 30
0.0
 10
172.74734457019747
 20
97.68619985171594
 30
0.0
 10
172.7301662805919
 20
97.73530355997656
 30
0.0
 10
171.6770884980085
 20
97.84598649499027
 30
0.0
 10
170.61844229813425
 20
97.86816197166455
 30
0.0
 10
170.59524513793676
 20
97.82159847139334
 30
0.0
 10
170.16571618651855
 20
96.89548402723217
 30
0.0
 10
169.79006470970734
 20
96.0224645106301
 30
0.0
 10
169.4649690613642
 20
95.20477598813096
 30
0.0
 10
169.18702615576842
 20
94.4445098496057
 30
0.0
 10
168.95275697261914
 20
93.74361004404294
 30
0.0
 10
168.74704730904415
 20
93.06576242661629
 30
0.0
 10
168.67773649075133
 20
92.92078819579298
 30
0.0
 10
168.60492463688573
 20
92.85226890702074
 30
0.0
 10
166.32831145732723
 20
92.89995715496002
 30
0.0
 10
166.25843276183952
 20
92.97146538465452
 30
0.0
 10
166.19525363159812
 20
93.11921488427211
 30
0.0
 10
166.0181097224558
 20
93.80508214082074
 30
0.0
 10
165.8133966707411
 20
94.51517731335471
 30
0.0
 10
165.56753420985513
 20
95.28641561017749
 30
0.0
 10
165.27696496705863
 20
96.11700047371396
 30
0.0
 10
164.93820126340898
 20
97.0049848549943
 30
0.0
 10
164.54783072961706
 20
97.94827374512194
 30
0.0
 10
164.52660379428414
 20
97.99576779753997
 30
0.0
 10
163.46795759441
 20
98.01794327421412
 30
0.0
 10
162.41116861970062
 20
97.95145574751314
 30
0.0
 10
162.3919491484897
 20
97.90311446365445
 30
0.0
 10
162.0414218749268
 20
96.9443059768965
 30
0.0
 10
161.74014025105419
 20
96.04291455719294
 30
0.0
 10
161.4846071709875
 20
95.20089048070221
 30
0.0
 10
161.2712564811126
 20
94.42003303962281
 30
0.0
 10
161.09645869708365
 20
93.70198824832502
 30
0.0
 10
160.94819131298678
 20
93.00930459689951
 30
0.0
 10
160.89125470846332
 20
92.85903903131455
 30
0.0
 10
160.82443176232863
 20
92.78466731043164
 30
0.0
 10
158.55181253588543
 20
92.64168622800587
 30
0.0
 10
158.4761952603769
 20
92.70709636974071
 30
0.0
 10
158.40087434875633
 20
92.84904099770516
 30
0.0
 10
158.16695981539624
 20
93.51767980097239
 30
0.0
 10
157.90354548856902
 20
94.2081546231206
 30
0.0
 10
157.59400974456523
 20
94.95611483820092
 30
0.0
 10
157.23495801891576
 20
95.75947251613982
 30
0.0
 10
156.82307778931767
 20
96.61599559509011
 30
0.0
 10
156.3551439599674
 20
97.52331087394349
 30
0.0
 10
156.33001727060693
 20
97.56886213386564
 30
0.0
 10
155.27322829589764
 20
97.50237460716444
 30
0.0
 10
154.22570916170906
 20
97.34769043931661
 30
0.0
 10
154.21060219026597
 20
97.29791045124368
 30
0.0
 10
153.941535291529
 20
96.31313327452068
 30
0.0
 10
153.71673679471587
 20
95.38969256487597
 30
0.0
 10
153.532558663882
 20
94.52923912829678
 30
0.0
 10
153.38529669152527
 20
93.73326753856712
 30
0.0
 10
153.27119638747956
 20
93.00311432983077
 30
0.0
 10
153.1814112720303
 20
92.30045332252861
 30
0.0
 10
153.13724825064799
 20
92.14595042715892
 30
0.0
 10
153.07688292719916
 20
92.06624793835134
 30
0.0
 10
150.8241984448701
 20
91.73360043512197
 30
0.0
 10
150.74337299019749
 20
91.79245368375003
 30
0.0
 10
150.65643861927478
 20
91.92759780048316
 30
0.0
 10
150.36739420408102
 20
92.57431812968048
 30
0.0
 10
150.0471262643811
 20
93.24032941667099
 30
0.0
 10
149.67608840810252
 20
93.95976514650876
 30
0.0
 10
149.25107268947724
 20
94.73026066195104
 30
0.0
 10
148.76896497780578
 20
95.5493145445834
 30
0.0
 10
148.22675007250004
 20
96.41429204738651
 30
0.0
 10
148.19789987478438
 20
96.457581005453
 30
0.0
 10
147.15038074059584
 20
96.30289683760508
 30
0.0
 10
146.1194790410128
 20
96.06110102690747
 30
0.0
 10
146.108590533888
 20
96.01023150546966
 30
0.0
 10
145.92287132094725
 20
95.00639314311489
 30
0.0
 10
145.77613275113129
 20
94.06738041661599
 30
0.0
 10
145.66460144678626
 20
93.19453308257094
 30
0.0
 10
145.58446112887611
 20
92.3890305129882
 30
0.0
 10
145.5318586364656
 20
91.65189038695819
 30
0.0
 10
145.50118556773828
 20
90.94418068588438
 30
0.0
 10
145.47010590136105
 20
90.78652418753082
 30
0.0
 10
145.41662161996965
 20
90.7020499864914
 30
0.0
 10
143.19967284484667
 20
90.18206934568668
 30
0.0
 10
143.11420614350155
 20
90.23395288795481
 30
0.0
 10
143.01626809542643
 20
90.36134855457871
 30
0.0
 10
142.67412123729352
 20
90.98161413126465
 30
0.0
 10
142.29924613420562
 20
91.61849029244769
 30
0.0
 10
141.86930872962375
 20
92.30435521231195
 30
0.0
 10
141.38131019791544
 20
93.03658409281705
 30
0.0
 10
140.83235664337408
 20
93.81242370463424
 30
0.0
 10
140.21966391009272
 20
94.6289962356904
 30
0.0
 10
140.18729256743
 20
94.66971925096338
 30
0.0
 10
139.15639086784708
 20
94.42792344026574
 30
0.0
 10
138.14933763759043
 20
94.10071201060047
 30
0.0
 10
138.14274396983788
 20
94.04910976894092
 30
0.0
 10
138.0416751295331
 20
93.03325142580941
 30
0.0
 10
137.97402575235003
 20
92.08525318205298
 30
0.0
 10
137.93592358645867
 20
91.2061343474505
 30
0.0
 10
137.92346704974454
 20
90.39675081978748
 30
0.0
 10
137.93273133765868
 20
89.65779428481349
 30
0.0
 10
137.9613854651918
 20
88.94999996503233
 30
0.0
 10
137.94360715534862
 20
88.7902957107548
 30
0.0
 10
137.89737906982018
 20
88.7016423233092
 30
0.0
 10
135.7317163046853
 20
87.99797583551882
 30
0.0
 10
135.64220784416983
 20
88.0425257456563
 30
0.0
 10
135.53395308398117
 20
88.16127937310324
 30
0.0
 10
135.14110369728672
 20
88.75073947991754
 30
0.0
 10
134.71425091031165
 20
89.35401328661733
 30
0.0
 10
134.22842965941
 20
90.00149654688849
 30
0.0
 10
133.68087127369213
 20
90.6903227329654
 30
0.0
 10
133.0689223910434
 20
91.41750611653049
 30
0.0
 10
132.39004942909128
 20
92.17994600624087
 30
0.0
 10
132.35438400319157
 20
92.21781743602783
 30
0.0
 10
131.34733077293484
 20
91.89060600636245
 30
0.0
 10
130.37118976684806
 20
91.48027411080737
 30
0.0
 10
130.36893718830953
 20
91.42830110157519
 30
0.0
 10
130.35322764593758
 20
90.4075482940508
 30
0.0
 10
130.36514197316234
 20
89.45721405958098
 30
0.0
 10
130.400736205042
 20
88.57799011139977
 30
0.0
 10
130.45605082317894
 20
87.77040286956178
 30
0.0
 10
130.52711690909433
 20
87.0348131747971
 30
0.0
 10
130.61489724477127
 20
86.33189890491239
 30
0.0
 10
130.61054499353196
 20
86.17126710530725
 30
0.0
 10
130.57189736067164
 20
86.07905637127104
 30
0.0
 10
128.47271117379574
 20
85.19663975132316
 30
0.0
 10
128.3797887916487
 20
85.23354354371943
 30
0.0
 10
128.26197664870827
 20
85.34282216061725
 30
0.0
 10
127.82118028963805
 20
85.89734215843714
 30
0.0
 10
127.34534388438314
 20
86.46278207835125
 30
0.0
 10
126.80704647417471
 20
87.06734204917461
 30
0.0
 10
126.20376896310293
 20
87.7079339200489
 30
0.0
 10
125.53311713407393
 20
88.38136040640676
 30
0.0
 10
124.79282574950957
 20
89.08431968675735
 30
0.0
 10
124.75411640770997
 20
89.1190738901888
 30
0.0
 10
123.77797540162325
 20
88.70874199463375
 30
0.0
 10
122.83959354750753
 20
88.21816781661336
 30
0.0
 10
122.84169785840311
 20
88.16618859312563
 30
0.0
 10
122.91145780511643
 20
87.14770116874328
 30
0.0
 10
123.00285226630396
 20
86.2016968554007
 30
0.0
 10
123.11189322799244
 20
85.32853491791575
 30
0.0
 10
123.23459100867771
 20
84.52840860615362
 30
0.0
 10
123.36696041506261
 20
83.80134538478656
 30
0.0
 10
123.51325124289866
 20
83.1082416033583
 30
0.0
 10
123.52235557817855
 20
82.94780897508605
 30
0.0
 10
123.49155948336261
 20
82.85268768650515
 30
0.0
 10
121.47357415758339
 20
81.79771045297323
 30
0.0
 10
121.37788963755091
 20
81.82670927404
 30
0.0
 10
121.25134647939356
 20
81.9257463694077
 30
0.0
 10
120.7656950176947
 20
82.44143669887056
 30
0.0
 10
120.2442126446548
 20
82.96507657722886
 30
0.0
 10
119.65721484470609
 20
83.5224727047848
 30
0.0
 10
119.00244976656626
 20
84.11033696874696
 30
0.0
 10
118.27779913187494
 20
84.72528295495202
 30
0.0
 10
117.48128193686244
 20
85.3638308716667
 30
0.0
 10
117.43980019738304
 20
85.3952240729764
 30
0.0
 10
116.50141834326747
 20
84.90464989495588
 30
0.0
 10
115.60737771560315
 20
84.3372744598518
 30
0.0
 10
115.61382415570375
 20
84.28565361901443
 30
0.0
 10
115.7685642755986
 20
83.27657553527395
 30
0.0
 10
115.93879780427052
 20
82.34153668361351
 30
0.0
 10
116.12052065176741
 20
81.48056136045027
 30
0.0
 10
116.30974095822774
 20
80.69350828995108
 30
0.0
 10
116.50248520880362
 20
79.98007136808533
 30
0.0
 10
116.70626040375133
 20
79.30163970014584
 30
0.0
 10
116.72875746517991
 20
79.14253156282314
 30
0.0
 10
116.7060289208865
 20
79.0451669271924
 30
0.0
 10
114.78339917334385
 20
77.82502898736958
 30
0.0
 10
114.68562367358473
 20
77.84591943121268
 30
0.0
 10
114.55123710954379
 20
77.93402033098432
 30
0.0
 10
114.02413704128
 20
78.40726379495194
 30
0.0
 10
113.46066652461744
 20
78.88543067424246
 30
0.0
 10
112.8290857027377
 20
79.39175322518477
 30
0.0
 10
112.12742576410491
 20
79.92276643680296
 30
0.0
 10
111.3538592272929
 20
80.47491851860009
 30
0.0
 10
110.5067032176585
 20
81.0445761168392
 30
0.0
 10
110.46274004509706
 20
81.07238811527598
 30
0.0
 10
109.56869941743275
 20
80.50501268017172
 30
0.0
 10
108.72527106885559
 20
79.86481571900244
 30
0.0
 10
108.7360144210157
 20
79.81391534392432
 30
0.0
 10
108.97464932333162
 20
78.82132455856154
 30
0.0
 10
109.2225278535969
 20
77.90380979430319
 30
0.0
 10
109.47565793169468
 20
77.06106020874373
 30
0.0
 10
109.73007351943485
 20
76.29260099130016
 30
0.0
 10
109.98184065177048
 20
75.5977946163389
 30
0.0
 10
110.24167087724959
 20
74.93879377258632
 30
0.0
 10
110.27740286410506
 20
74.7821261554774
 30
0.0
 10
110.26290129474194
 20
74.68320111575937
 30
0.0
 10
108.44911299170734
 20
73.30646086062562
 30
0.0
 10
108.34993233710078
 20
73.31909639579122
 30
0.0
 10
108.20864499236635
 20
73.39564313545534
 30
0.0
 10
107.64379354579565
 20
73.82312027105296
 30
0.0
 10
107.0422872263318
 20
74.2524601541799
 30
0.0
 10
106.37055346819635
 20
74.70415763960594
 30
0.0
 10
105.62692030939817
 20
75.17459512273315
 30
0.0
 10
104.80986388391439
 20
75.66008034998926
 30
0.0
 10
103.91801125038488
 20
76.15685189099955
 30
0.0
 10
103.87187501480953
 20
76.18088760537725
 30
0.0
 10
103.02844666623248
 20
75.54069064420793
 30
0.0
 10
102.2415466406053
 20
74.83216267867526
 30
0.0
 10
102.25651154792857
 20
74.78233979891576
 30
0.0
 10
102.57736738028478
 20
73.81319862311449
 30
0.0
 10
102.90115222235409
 20
72.91964365309603
 30
0.0
 10
103.2239140054286
 20
72.1010310879683
 30
0.0
 10
103.54174033189796
 20
71.35655591285357
 30
0.0
 10
103.85076438045445
 20
70.68525365229944
 30
0.0
 10
104.16482711412095
 20
70.05030605016123
 30
0.0
 10
104.21354339218891
 20
69.89717786403459
 30
0.0
 10
104.20737051584582
 20
69.79738630830538
 30
0.0
 10
102.51514607905993
 20
68.27370058156393
 30
0.0
 10
102.4152559506368
 20
68.27799257885148
 30
0.0
 10
102.26805885441742
 20
68.3424482380281
 30
0.0
 10
101.66941805659226
 20
68.72116060029134
 30
0.0
 10
101.03409506897648
 20
69.09866197645489
 30
0.0
 10
100.32692010425858
 20
69.49256606304861
 30
0.0
 10
99.54652977760428
 20
69.89912803674956
 30
0.0
 10
98.69171452721929
 20
70.3145410794161
 30
0.0
 10
97.76142097522367
 20
70.73494206776721
 30
0.0
 10
97.71343528917805
 20
70.75503290481917
 30
0.0
 10
96.92653526355083
 20
70.04650493928635
 30
0.0
 10
96.20168309916653
 20
69.27461578399179
 30
0.0
 10
96.2207645935804
 20
69.22621987125467
 30
0.0
 10
96.62159078284749
 20
68.28732613403622
 30
0.0
 10
97.0190108186928
 20
67.42399860435395
 30
0.0
 10
97.40914036473983
 20
66.63526503863002
 30
0.0
 10
97.78814810661612
 20
65.91999586429286
 30
0.0
 10
98.1522614897263
 20
65.27690642117365
 30
0.0
 10
98.51835380715731
 20
64.67046576186961
 30
0.0
 10
98.57971266674969
 20
64.52195109092847
 30
0.0
 10
98.58191178171899
 20
64.42199298525138
 30
0.0
 10
97.02312094974428
 20
62.76204934750865
 30
0.0
 10
96.9232220049845
 20
62.75796770164096
 30
0.0
 10
96.77114763914918
 20
62.809880170192265
 30
0.0
 10
96.14291652514349
 20
63.13717136400437
 30
0.0
 10
95.47823320365495
 20
63.460186332285055
 30
0.0
 10
94.74057735662761
 20
63.79353406589871
 30
0.0
 10
93.92890373954897
 20
64.13336879004224
 30
0.0
 10
93.04232557906029
 20
64.47579582409875
 30
0.0
 10
92.08011644945078
 20
64.81687744891512
 30
0.0
 10
92.03061789804497
 20
64.83288248585457
 30
0.0
 10
91.30576573366076
 20
64.06099333056005
 30
0.0
 10
90.64804574764682
 20
63.231157233326485
 30
0.0
 10
90.67110998617798
 20
63.18452775016723
 30
0.0
 10
91.14909502463152
 20
62.28246711650394
 30
0.0
 10
91.61736263824729
 20
61.455422649478635
 30
0.0
 10
92.07212346880897
 20
60.702100482417755
 30
0.0
 10
92.50965415909957
 20
60.021054408195944
 30
0.0
 10
92.92630288299604
 20
59.41068859289599
 30
0.0
 10
93.34185690962174
 20
58.8370086219241
 30
0.0
 10
93.41542796242483
 20
58.694149189877514
 30
0.0
 10
93.42598364349502
 20
58.59472566854405
 30
0.0
 10
92.01156021402815
 20
56.81016743175094
 30
0.0
 10
91.91235317225191
 20
56.79774077254113
 30
0.0
 10
91.75646822921168
 20
56.8367459217993
 30
0.0
 10
91.10305338890682
 20
57.11032023459404
 30
0.0
 10
90.41367200947147
 20
57.37658307707534
 30
0.0
 10
89.65070940589654
 20
57.64703626286763
 30
0.0
 10
88.81344580563072
 20
57.91776004103481
 30
0.0
 10
87.90132344382866
 20
58.184799186870904
 30
0.0
 10
86.9139479423032
 20
58.444169005621234
 30
0.0
 10
86.8632837223105
 20
58.455975978613736
 30
0.0
 10
86.20556373629672
 20
57.62613988138017
 30
0.0
 10
85.6195893617841
 20
56.744177546193214
 30
0.0
 10
85.64647456537082
 20
56.699641564932904
 30
0.0
 10
86.1982657313978
 20
55.84074134204025
 30
0.0
 10
86.7340963619243
 20
55.05578106037746
 30
0.0
 10
87.25029865651948
 20
54.34315430572036
 30
0.0
 10
87.74328333179741
 20
53.70110838049362
 30
0.0
 10
88.20954490504373
 20
53.12774747066005
 30
0.0
 10
88.67164582794247
 20
52.5908521408282
 30
0.0
 10
88.75691302588156
 20
52.45465000394758
 30
0.0
 10
88.7757512325342
 20
52.35645845152418
 30
0.0
 10
87.51561636967105
 20
50.4598030095085
 30
0.0
 10
87.41779709699627
 20
50.43911850104239
 30
0.0
 10
87.25919499762338
 20
50.464942737910505
 30
0.0
 10
86.58517966664614
 20
50.68288124244653
 30
0.0
 10
85.87593574432087
 20
50.89052431659801
 30
0.0
 10
85.09301801867461
 20
51.09618591979095
 30
0.0
 10
84.23603723780438
 20
51.2958998191927
 30
0.0
 10
83.30476855769795
 20
51.48567798906768
 30
0.0
 10
82.29915241397141
 20
51.66151670883041
 30
0.0
 10
82.24767789849294
 20
51.66904280044372
 30
0.0
 10
81.66170352398024
 20
50.787080465256665
 30
0.0
 10
81.1515849501838
 20
49.859178224208634
 30
0.0
 10
81.18210253844018
 20
49.81704813275668
 30
0.0
 10
81.80382941347231
 20
49.00733288857932
 30
0.0
 10
82.40346459403023
 20
48.269962724661724
 30
0.0
 10
82.97748756445314
 20
47.6030299470707
 30
0.0
 10
83.5224682914303
 20
47.00448766169515
 30
0.0
 10
84.03507222409863
 20
46.47215337215116
 30
0.0
 10
84.54047873731535
 20
45.97580861843936
 30
0.0
 10
84.63684399226129
 20
45.84721913685384
 30
0.0
 10
84.66383258801196
 20
45.75094829653025
 30
0.0
 10
83.56682523240984
 20
43.75549932447265
 30
0.0
 10
83.47107986075127
 20
43.726702053715314
 30
0.0
 10
83.31087308481739
 20
43.73916423972647
 30
0.0
 10
82.62098499643523
 20
43.89993825398304
 30
0.0
 10
81.89685336774411
 20
44.047505092830875
 30
0.0
 10
81.09947212534628
 20
44.18693254504572
 30
0.0
 10
80.22878526830961
 20
44.314235716171964
 30
0.0
 10
79.28490245057417
 20
44.42542175257958
 30
0.0
 10
78.26809933936057
 20
44.51649599107552
 30
0.0
 10
78.21617558513793
 20
44.51968841118446
 30
0.0
 10
77.70605701134167
 20
43.59178617013639
 30
0.0
 10
77.2753723535372
 20
42.62445259075136
 30
0.0
 10
77.30930826750829
 20
42.585023901428954
 30
0.0
 10
77.99660988422737
 20
41.830173206625176
 30
0.0
 10
78.65584360486233
 20
41.145565282352926
 30
0.0
 10
79.28366089241041
 20
40.52900453607223
 30
0.0
 10
79.87681502285517
 20
39.97816423462774
 30
0.0
 10
80.43216576666325
 20
39.49059050793285
 30
0.0
 10
80.97733280664183
 20
39.038277832165164
 30
0.0
 10
81.08412018556949
 20
38.91820296869665
 30
0.0
 10
81.11906986481029
 20
38.82452811124722
 30
0.0
 10
80.19288473487008
 20
36.74428224995858
 30
0.0
 10
80.09988484921695
 20
36.70757420907358
 30
0.0
 10
79.93919713214682
 20
36.70658693094697
 30
0.0
 10
79.23827535561584
 20
36.80906874073005
 30
0.0
 10
78.50433528364626
 20
36.895524268926344
 30
0.0
 10
77.69808358099469
 20
36.967739586764296
 30
0.0
 10
76.81979789050601
 20
37.021739089336805
 30
0.0
 10
75.8699215949291
 20
37.05355310211872
 30
0.0
 10
74.84906365948163
 20
37.05922403900157
 30
0.0
 10
74.79705487434367
 20
37.05806039507275
 30
0.0
 10
74.36637021653927
 20
36.09072681568761
 30
0.0
 10
74.01814041815476
 20
35.09074704799674
 30
0.0
 10
74.05525662178678
 20
35.05429632473008
 30
0.0
 10
74.80331205317708
 20
34.35960491456445
 30
0.0
 10
75.5175202629976
 20
33.73256126263621
 30
0.0
 10
76.19472818048477
 20
33.170697278302704
 30
0.0
 10
76.83189516435273
 20
32.671422709725704
 30
0.0
 10
77.42609733285173
 20
32.23202952525144
 30
0.0
 10
78.00720094450868
 20
31.826921575862176
 30
0.0
 10
78.12366141068154
 20
31.716203569404204
 30
0.0
 10
78.16632702652387
 20
31.62578175664867
 30
0.0
 10
77.41746064546898
 20
29.475330436191353
 30
0.0
 10
77.32785857319882
 20
29.430969105710805
 30
0.0
 10
77.16781702387374
 20
29.41653928849312
 30
0.0
 10
76.46077802184472
 20
29.46001005754015
 30
0.0
 10
75.72217756886634
 20
29.484747851672825
 30
0.0
 10
74.91271068236406
 20
29.48924449656589
 30
0.0
 10
74.03298670149479
 20
29.469561562872684
 30
0.0
 10
73.08377962780466
 20
29.42178039958757
 30
0.0
 10
72.06602745305503
 20
29.342008257309654
 30
0.0
 10
72.01429844126126
 20
29.336496711469188
 30
0.0
 10
71.66606864287675
 20
28.33651694377842
 30
0.0
 10
71.40273628574485
 20
27.310905127367683
 30
0.0
 10
71.4427724355376
 20
27.277688045790548
 30
0.0
 10
72.24633461022499
 20
26.64802868137029
 30
0.0
 10
73.0105076517971
 20
26.08294756247407
 30
0.0
 10
73.73235607225543
 20
25.579721412239167
 30
0.0
 10
74.40906664095857
 20
25.135514628899926
 30
0.0
 10
75.03795233287013
 20
24.747384014131807
 30
0.0
 10
75.65091649189205
 20
24.39232233231626
 30
0.0
 10
75.77623315881662
 20
24.291737790133382
 30
0.0
 10
75.82631544262057
 20
24.205203266120225
 30
0.0
 10
75.26002057005435
 20
21.999630357410087
 30
0.0
 10
75.17444480532515
 20
21.94792690019375
 30
0.0
 10
75.01617200022393
 20
21.92015575868496
 30
0.0
 10
74.30797514328926
 20
21.90431057078479
 30
0.0
 10
73.56989506079604
 20
21.867157113002087
 30
0.0
 10
72.7628908190507
 20
21.803903544217164
 30
0.0
 10
71.88789917944582
 20
21.710676235895953
 30
0.0
 10
70.94601933326011
 20
21.583635047073535
 30
0.0
 10
69.93851171946025
 20
21.418979369896736
 30
0.0
 10
69.88742532286099
 20
21.409158581678682
 30
0.0
 10
69.62409296572928
 20
20.383546765268
 30
0.0
 10
69.44750513713102
 20
19.339496830128418
 30
0.0
 10
69.49018040825993
 20
19.309746384201613
 30
0.0
 10
70.34361291494761
 20
18.749535673558512
 30
0.0
 10
71.15239066344223
 20
18.250380725733155
 30
0.0
 10
71.91381633884959
 20
17.80932217947325
 30
0.0
 10
72.62532385396435
 20
17.42329897279477
 30
0.0
 10
73.28448188801343
 20
17.08915338512392
 30
0.0
 10
73.92500709123891
 20
16.786628473468575
 30
0.0
 10
74.05830095253664
 20
16.696882923854297
 30
0.0
 10
74.1154486130654
 20
16.614842666094503
 30
0.0
 10
73.73569740063658
 20
14.3696186783842
 30
0.0
 10
73.65474819595183
 20
14.310935757035551
 30
0.0
 10
73.49935430508339
 20
14.270018085839814
 30
0.0
 10
72.79496708535572
 20
14.194968083600811
 30
0.0
 10
72.06258447481653
 20
14.096183978714345
 30
0.0
 10
71.26370343275225
 20
13.965623874588847
 30
0.0
 10
70.39958157208298
 20
13.799506114223766
 30
0.0
 10
69.47163556378293
 20
13.594096002524664
 30
0.0
 10
68.48143945295043
 20
13.345711731719437
 30
0.0
 10
68.43135400591243
 20
13.331650586896897
 30
0.0
 10
68.25476617731472
 20
12.287600651757243
 30
0.0
 10
68.1661615139904
 20
11.232435858034867
 30
0.0
 10
68.2111765700897
 20
11.206360725761057
 30
0.0
 10
69.10849319293364
 20
10.719528144519426
 30
0.0
 10
69.9562026535511
 20
10.289800581081604
 30
0.0
 10
70.75186472987806
 20
9.914003347598571
 30
0.0
 10
71.49317847740338
 20
9.588871393018414
 30
0.0
 10
72.17798533358554
 20
9.311054623659084
 30
0.0
 10
72.84157875693067
 20
9.063188477055343
 30
0.0
 10
72.98191485193607
 20
8.984911420558122
 30
0.0
 10
73.04572703941155
 20
8.907940882514033
 30
0.0
 10
72.85518316902447
 20
6.638814448886146
 30
0.0
 10
72.77942832489308
 20
6.573563681934832
 30
0.0
 10
72.62800332475153
 20
6.519786489116271
 30
0.0
 10
71.93236651247574
 20
6.386058094380788
 30
0.0
 10
71.21081851168735
 20
6.2263362419100625
 30
0.0
 10
70.42566424581894
 20
6.029385387767116
 30
0.0
 10
69.57847335806717
 20
5.79154237209168
 30
0.0
 10
68.6709700621727
 20
5.509204141862504
 30
0.0
 10
67.70503096857017
 20
5.1788335146246895
 30
0.0
 10
67.65629778451795
 20
5.160630642025684
 30
0.0
  0
LWPOLYLINE
  8
OpenJsCad
  90
31
  70
1
 10
164.89941609765899
 20
2.4214579028215777
 30
0.0
 10
165.41645168124813
 20
2.497807075247146
 30
0.0
 10
165.9380626823614
 20
2.4649900926762625
 30
0.0
 10
166.4414521972828
 20
2.3244412147206295
 30
0.0
 10
166.9046196886795
 20
2.0823031017752487
 30
0.0
 10
167.30732251465312
 20
1.749158351283415
 30
0.0
 10
167.63196062932616
 20
1.3395669874474927
 30
0.0
 10
167.86434578930087
 20
0.8714301183045386
 30
0.0
 10
167.9943216479786
 20
0.365207571406029
 30
0.0
 10
168.0162076366418
 20
-0.15697629882328426
 30
0.0
 10
167.92904723256527
 20
-0.6722995515381636
 30
0.0
 10
167.73664976364915
 20
-1.1582400877996544
 30
0.0
 10
167.4474239225106
 20
-1.593559974371724
 30
0.0
 10
167.0740102662669
 20
-1.9592336433145994
 30
0.0
 10
166.63272876353344
 20
-2.239279400598532
 30
0.0
 10
166.14286553348327
 20
-2.4214579028215777
 30
0.0
 10
165.62582994989413
 20
-2.497807075247146
 30
0.0
 10
165.10421894878087
 20
-2.4649900926762625
 30
0.0
 10
164.60082943385945
 20
-2.3244412147206295
 30
0.0
 10
164.13766194246276
 20
-2.0823031017752487
 30
0.0
 10
163.7349591164891
 20
-1.7491583512834137
 30
0.0
 10
163.4103210018161
 20
-1.3395669874474923
 30
0.0
 10
163.1779358418414
 20
-0.871430118304539
 30
0.0
 10
163.04795998316365
 20
-0.3652075714060298
 30
0.0
 10
163.02607399450045
 20
0.15697629882328232
 30
0.0
 10
163.113234398577
 20
0.6722995515381633
 30
0.0
 10
163.3056318674931
 20
1.1582400877996537
 30
0.0
 10
163.59485770863165
 20
1.5935599743717235
 30
0.0
 10
163.96827136487536
 20
1.959233643314599
 30
0.0
 10
164.40955286760882
 20
2.239279400598532
 30
0.0
 10
164.89941609765899
 20
2.4214579028215777
 30
0.0
  0
ENDSEC
  0
EOF
