<?xml version="1.0" standalone="no"?>
<!DOCTYPE svg PUBLIC "-//W3C//DTD SVG 1.1//EN" "http://www.w3.org/Graphics/SVG/1.1/DTD/svg11.dtd">
<svg width="268" height="112" viewBox="28 -134 268 112" xmlns="http://www.w3.org/2000/svg" version="1.1">
<title>OpenSCAD Model</title>
<path d="
M 53,-105 L 67,-105 L 67,-102 L 81,-102 L 81,-132.397 L 77.8029,-131.073
 L 76.6549,-133.844 L 63.7206,-128.487 L 64.8686,-125.715 L 51.9343,-120.358 L 50.7863,-123.129 L 37.852,-117.772
 L 39,-115 L 39,-102 L 53,-102 z
M 103,-105 L 117,-105 L 117,-102 L 131,-102 L 131,-132.397 L 127.803,-131.073
 L 126.655,-133.844 L 113.721,-128.487 L 114.869,-125.715 L 101.934,-120.358 L 100.786,-123.129 L 87.852,-117.772
 L 89,-115 L 89,-102 L 103,-102 z
M 153,-105 L 167,-105 L 167,-102 L 181,-102 L 181,-132.397 L 177.803,-131.073
 L 176.655,-133.844 L 163.721,-128.487 L 164.869,-125.715 L 151.934,-120.358 L 150.786,-123.129 L 137.852,-117.772
 L 139,-115 L 139,-102 L 153,-102 z
M 209,-113 L 223,-113 L 223,-110 L 230,-110 L 230,-116.667 L 233,-116.667
 L 233,-123.333 L 230,-123.333 L 230,-130 L 223,-130 L 223,-127 L 209,-127
 L 209,-130 L 190,-130 L 190,-110 L 209,-110 z
M 202.605,-120.845 L 202.199,-121.116 L 201.928,-121.522 L 201.833,-122 L 201.928,-122.478 L 202.199,-122.884
 L 202.605,-123.155 L 203.083,-123.25 L 203.562,-123.155 L 203.967,-122.884 L 204.238,-122.478 L 204.333,-122
 L 204.238,-121.522 L 203.967,-121.116 L 203.562,-120.845 L 203.083,-120.75 z
M 193.105,-120.845 L 192.699,-121.116 L 192.428,-121.522 L 192.333,-122 L 192.428,-122.478 L 192.699,-122.884
 L 193.105,-123.155 L 193.583,-123.25 L 194.062,-123.155 L 194.467,-122.884 L 194.738,-122.478 L 194.833,-122
 L 194.738,-121.522 L 194.467,-121.116 L 194.062,-120.845 L 193.583,-120.75 z
M 260,-125 L 260,-128 L 246,-128 L 246,-125 L 239,-125 L 239,-118
 L 236,-118 L 236,-104 L 239,-104 z
M 275,-115 L 255,-115 L 255,-105 L 275,-105 z
M 259.772,-110.845 L 259.366,-111.116 L 259.095,-111.522 L 259,-112 L 259.095,-112.478 L 259.366,-112.884
 L 259.772,-113.155 L 260.25,-113.25 L 260.728,-113.155 L 261.134,-112.884 L 261.405,-112.478 L 261.5,-112
 L 261.405,-111.522 L 261.134,-111.116 L 260.728,-110.845 L 260.25,-110.75 z
M 269.272,-110.845 L 268.866,-111.116 L 268.595,-111.522 L 268.5,-112 L 268.595,-112.478 L 268.866,-112.884
 L 269.272,-113.155 L 269.75,-113.25 L 270.228,-113.155 L 270.634,-112.884 L 270.905,-112.478 L 271,-112
 L 270.905,-111.522 L 270.634,-111.116 L 270.228,-110.845 L 269.75,-110.75 z
M 204,-88 L 218,-88 L 218,-85 L 228,-85 L 228,-91.6667 L 225,-91.6667
 L 225,-98.3333 L 228,-98.3333 L 228,-105 L 218,-105 L 218,-102 L 204,-102
 L 204,-105 L 185,-105 L 185,-85 L 204,-85 z
M 189.877,-92.6903 L 189.066,-93.2322 L 188.524,-94.0433 L 188.333,-95 L 188.524,-95.9567 L 189.066,-96.7678
 L 189.877,-97.3097 L 190.833,-97.5 L 191.79,-97.3097 L 192.601,-96.7678 L 193.143,-95.9567 L 193.333,-95
 L 193.143,-94.0433 L 192.601,-93.2322 L 191.79,-92.6903 L 190.833,-92.5 z
M 203.21,-92.6903 L 202.399,-93.2322 L 201.857,-94.0433 L 201.667,-95 L 201.857,-95.9567 L 202.399,-96.7678
 L 203.21,-97.3097 L 204.167,-97.5 L 205.123,-97.3097 L 205.934,-96.7678 L 206.476,-95.9567 L 206.667,-95
 L 206.476,-94.0433 L 205.934,-93.2322 L 205.123,-92.6903 L 204.167,-92.5 z
M 280,-77 L 277,-77 L 277,-91 L 280,-91 L 280,-98 L 273.333,-98
 L 273.333,-101 L 266.667,-101 L 266.667,-98 L 260,-98 L 260,-91 L 263,-91
 L 263,-77 L 260,-77 L 260,-58 L 280,-58 z
M 267.522,-69.9285 L 267.116,-70.1994 L 266.845,-70.605 L 266.75,-71.0833 L 266.845,-71.5617 L 267.116,-71.9672
 L 267.522,-72.2382 L 268,-72.3333 L 268.478,-72.2382 L 268.884,-71.9672 L 269.155,-71.5617 L 269.25,-71.0833
 L 269.155,-70.605 L 268.884,-70.1994 L 268.478,-69.9285 L 268,-69.8333 z
M 267.522,-60.4285 L 267.116,-60.6995 L 266.845,-61.105 L 266.75,-61.5833 L 266.845,-62.0617 L 267.116,-62.4672
 L 267.522,-62.7382 L 268,-62.8333 L 268.478,-62.7382 L 268.884,-62.4672 L 269.155,-62.0617 L 269.25,-61.5833
 L 269.155,-61.105 L 268.884,-60.6995 L 268.478,-60.4285 L 268,-60.3333 z
M 255,-100 L 235,-100 L 235,-90 L 255,-90 z
M 249.272,-95.8451 L 248.866,-96.1161 L 248.595,-96.5216 L 248.5,-97 L 248.595,-97.4783 L 248.866,-97.8839
 L 249.272,-98.1548 L 249.75,-98.25 L 250.228,-98.1548 L 250.634,-97.8839 L 250.905,-97.4783 L 251,-97
 L 250.905,-96.5216 L 250.634,-96.1161 L 250.228,-95.8451 L 249.75,-95.75 z
M 239.772,-95.8451 L 239.366,-96.1161 L 239.095,-96.5216 L 239,-97 L 239.095,-97.4783 L 239.366,-97.8839
 L 239.772,-98.1548 L 240.25,-98.25 L 240.728,-98.1548 L 241.134,-97.8839 L 241.405,-97.4783 L 241.5,-97
 L 241.405,-96.5216 L 241.134,-96.1161 L 240.728,-95.8451 L 240.25,-95.75 z
M 152.985,-97.69 L 97.015,-97.69 L 97.015,-62.31 L 152.985,-62.31 z
M 149.323,-93.0818 L 148.804,-93.4286 L 148.457,-93.9477 L 148.335,-94.56 L 148.457,-95.1723 L 148.804,-95.6913
 L 149.323,-96.0382 L 149.935,-96.16 L 150.547,-96.0382 L 151.066,-95.6913 L 151.413,-95.1723 L 151.535,-94.56
 L 151.413,-93.9477 L 151.066,-93.4286 L 150.547,-93.0818 L 149.935,-92.96 z
M 121.353,-93.0818 L 120.834,-93.4286 L 120.487,-93.9477 L 120.365,-94.56 L 120.487,-95.1723 L 120.834,-95.6913
 L 121.353,-96.0382 L 121.965,-96.16 L 122.577,-96.0382 L 123.096,-95.6913 L 123.443,-95.1723 L 123.565,-94.56
 L 123.443,-93.9477 L 123.096,-93.4286 L 122.577,-93.0818 L 121.965,-92.96 z
M 132,-87.345 L 132,-90.345 L 146,-90.345 L 146,-87.345 z
M 104,-87.345 L 104,-90.345 L 118,-90.345 L 118,-87.345 z
M 99.4527,-83.1118 L 98.9337,-83.4586 L 98.5868,-83.9777 L 98.465,-84.59 L 98.5868,-85.2023 L 98.9337,-85.7214
 L 99.4527,-86.0682 L 100.065,-86.19 L 100.677,-86.0682 L 101.196,-85.7214 L 101.543,-85.2023 L 101.665,-84.59
 L 101.543,-83.9777 L 101.196,-83.4586 L 100.677,-83.1118 L 100.065,-82.99 z
M 127.423,-83.1118 L 126.904,-83.4586 L 126.557,-83.9777 L 126.435,-84.59 L 126.557,-85.2023 L 126.904,-85.7214
 L 127.423,-86.0682 L 128.035,-86.19 L 128.647,-86.0682 L 129.166,-85.7214 L 129.513,-85.2023 L 129.635,-84.59
 L 129.513,-83.9777 L 129.166,-83.4586 L 128.647,-83.1118 L 128.035,-82.99 z
M 99.4527,-73.7018 L 98.9337,-74.0486 L 98.5868,-74.5677 L 98.465,-75.18 L 98.5868,-75.7923 L 98.9337,-76.3114
 L 99.4527,-76.6582 L 100.065,-76.78 L 100.677,-76.6582 L 101.196,-76.3114 L 101.543,-75.7923 L 101.665,-75.18
 L 101.543,-74.5677 L 101.196,-74.0486 L 100.677,-73.7018 L 100.065,-73.58 z
M 127.423,-73.7018 L 126.904,-74.0486 L 126.557,-74.5677 L 126.435,-75.18 L 126.557,-75.7923 L 126.904,-76.3114
 L 127.423,-76.6582 L 128.035,-76.78 L 128.647,-76.6582 L 129.166,-76.3114 L 129.513,-75.7923 L 129.635,-75.18
 L 129.513,-74.5677 L 129.166,-74.0486 L 128.647,-73.7018 L 128.035,-73.58 z
M 132,-69.655 L 132,-72.655 L 146,-72.655 L 146,-69.655 z
M 104,-69.655 L 104,-72.655 L 118,-72.655 L 118,-69.655 z
M 121.353,-63.7318 L 120.834,-64.0786 L 120.487,-64.5977 L 120.365,-65.21 L 120.487,-65.8223 L 120.834,-66.3414
 L 121.353,-66.6882 L 121.965,-66.81 L 122.577,-66.6882 L 123.096,-66.3414 L 123.443,-65.8223 L 123.565,-65.21
 L 123.443,-64.5977 L 123.096,-64.0786 L 122.577,-63.7318 L 121.965,-63.61 z
M 149.323,-63.7318 L 148.804,-64.0786 L 148.457,-64.5977 L 148.335,-65.21 L 148.457,-65.8223 L 148.804,-66.3414
 L 149.323,-66.6882 L 149.935,-66.81 L 150.547,-66.6882 L 151.066,-66.3414 L 151.413,-65.8223 L 151.535,-65.21
 L 151.413,-64.5977 L 151.066,-64.0786 L 150.547,-63.7318 L 149.935,-63.61 z
M 91.985,-97.69 L 28.015,-97.69 L 28.015,-62.31 L 91.985,-62.31 z
M 30.015,-93.69 L 30.015,-95.69 L 34.015,-95.69 L 34.015,-93.69 z
M 85.985,-93.69 L 85.985,-95.69 L 89.985,-95.69 L 89.985,-93.69 z
M 58,-93.69 L 58,-95.69 L 62,-95.69 L 62,-93.69 z
M 67,-87.345 L 67,-90.345 L 81,-90.345 L 81,-87.345 z
M 39,-87.345 L 39,-90.345 L 53,-90.345 L 53,-87.345 z
M 57.7039,-74.4567 L 55.7574,-75.7574 L 54.4567,-77.7039 L 54.3978,-78 L 44.0075,-78 L 44.0075,-82
 L 54.3978,-82 L 54.4567,-82.2961 L 55.7574,-84.2426 L 57.7039,-85.5433 L 60,-86 L 62.2961,-85.5433
 L 64.2426,-84.2426 L 65.5433,-82.2961 L 65.6022,-82 L 75.9925,-82 L 75.9925,-78 L 65.6022,-78
 L 65.5433,-77.7039 L 64.2426,-75.7574 L 62.2961,-74.4567 L 60,-74 z
M 67,-69.655 L 67,-72.655 L 81,-72.655 L 81,-69.655 z
M 39,-69.655 L 39,-72.655 L 53,-72.655 L 53,-69.655 z
M 30.015,-64.31 L 30.015,-66.31 L 34.015,-66.31 L 34.015,-64.31 z
M 85.985,-64.31 L 85.985,-66.31 L 89.985,-66.31 L 89.985,-64.31 z
M 58,-64.31 L 58,-66.31 L 62,-66.31 L 62,-64.31 z
M 186,-74 L 165,-95 L 162,-95 L 162,-81 L 165,-81 L 165,-74
 L 172,-74 L 172,-71 L 186,-71 z
M 214.142,-29.8579 L 201.768,-42.2322 L 203.536,-47.5355 L 228.284,-72.2843 L 214.142,-86.4264 L 185.858,-58.1421
 L 192.929,-36.9289 L 207.071,-22.7868 z
M 213.185,-69.9746 L 212.374,-70.5165 L 211.832,-71.3275 L 211.642,-72.2843 L 211.832,-73.241 L 212.374,-74.052
 L 213.185,-74.5939 L 214.142,-74.7843 L 215.099,-74.5939 L 215.91,-74.052 L 216.452,-73.241 L 216.642,-72.2843
 L 216.452,-71.3275 L 215.91,-70.5165 L 215.099,-69.9746 L 214.142,-69.7843 z
M 201.4,-58.1894 L 200.589,-58.7314 L 200.047,-59.5424 L 199.857,-60.4991 L 200.047,-61.4559 L 200.589,-62.2669
 L 201.4,-62.8088 L 202.357,-62.9991 L 203.314,-62.8088 L 204.125,-62.2669 L 204.667,-61.4559 L 204.857,-60.4991
 L 204.667,-59.5424 L 204.125,-58.7314 L 203.314,-58.1894 L 202.357,-57.9991 z
M 200.406,-33.476 L 200,-33.747 L 199.729,-34.1525 L 199.634,-34.6308 L 199.729,-35.1092 L 200,-35.5147
 L 200.406,-35.7857 L 200.884,-35.8808 L 201.362,-35.7857 L 201.768,-35.5147 L 202.039,-35.1092 L 202.134,-34.6308
 L 202.039,-34.1525 L 201.768,-33.747 L 201.362,-33.476 L 200.884,-33.3808 z
M 207.123,-26.7585 L 206.718,-27.0294 L 206.447,-27.435 L 206.351,-27.9133 L 206.447,-28.3917 L 206.718,-28.7972
 L 207.123,-29.0682 L 207.601,-29.1633 L 208.08,-29.0682 L 208.485,-28.7972 L 208.756,-28.3917 L 208.851,-27.9133
 L 208.756,-27.435 L 208.485,-27.0294 L 208.08,-26.7585 L 207.601,-26.6633 z
M 254.142,-50.8578 L 247.071,-72.0711 L 232.929,-86.2132 L 225.858,-79.1421 L 238.232,-66.7678 L 236.464,-61.4645
 L 211.716,-36.7157 L 225.858,-22.5736 z
M 231.92,-79.9318 L 231.515,-80.2028 L 231.244,-80.6083 L 231.149,-81.0867 L 231.244,-81.565 L 231.515,-81.9706
 L 231.92,-82.2415 L 232.399,-82.3367 L 232.877,-82.2415 L 233.282,-81.9706 L 233.553,-81.565 L 233.649,-81.0867
 L 233.553,-80.6083 L 233.282,-80.2028 L 232.877,-79.9318 L 232.399,-79.8367 z
M 238.638,-73.2143 L 238.232,-73.4853 L 237.961,-73.8908 L 237.866,-74.3692 L 237.961,-74.8475 L 238.232,-75.253
 L 238.638,-75.524 L 239.116,-75.6192 L 239.594,-75.524 L 240,-75.253 L 240.271,-74.8475 L 240.366,-74.3692
 L 240.271,-73.8908 L 240,-73.4853 L 239.594,-73.2143 L 239.116,-73.1192 z
M 236.686,-46.1911 L 235.875,-46.7331 L 235.333,-47.5441 L 235.143,-48.5009 L 235.333,-49.4576 L 235.875,-50.2686
 L 236.686,-50.8105 L 237.643,-51.0009 L 238.6,-50.8105 L 239.411,-50.2686 L 239.953,-49.4576 L 240.143,-48.5009
 L 239.953,-47.5441 L 239.411,-46.7331 L 238.6,-46.1911 L 237.643,-46.0008 z
M 224.901,-34.4061 L 224.09,-34.948 L 223.548,-35.759 L 223.358,-36.7157 L 223.548,-37.6725 L 224.09,-38.4835
 L 224.901,-39.0254 L 225.858,-39.2157 L 226.815,-39.0254 L 227.626,-38.4835 L 228.168,-37.6725 L 228.358,-36.7157
 L 228.168,-35.759 L 227.626,-34.948 L 226.815,-34.4061 L 225.858,-34.2157 z
M 186.073,-27.1971 L 188.844,-28.3451 L 183.487,-41.2794 L 180.715,-40.1314 L 175.358,-53.0657 L 178.129,-54.2137
 L 172.772,-67.148 L 170,-66 L 157,-66 L 157,-52 L 160,-52 L 160,-38
 L 157,-38 L 157,-24 L 187.397,-24 z
M 272.903,-30.3785 L 271.755,-33.1502 L 284.689,-38.5077 L 285.837,-35.7361 L 295.076,-39.5629 L 292.525,-45.7221
 L 289.753,-44.5741 L 287.202,-50.7333 L 289.974,-51.8813 L 287.422,-58.0405 L 278.184,-54.2137 L 279.332,-51.442
 L 266.397,-46.0845 L 265.249,-48.8561 L 247.696,-41.5851 L 255.349,-23.1075 z
M 268.273,-37.3714 L 267.462,-37.9134 L 266.92,-38.7244 L 266.73,-39.6811 L 266.92,-40.6378 L 267.462,-41.4489
 L 268.273,-41.9908 L 269.23,-42.1811 L 270.187,-41.9908 L 270.998,-41.4488 L 271.54,-40.6378 L 271.73,-39.6811
 L 271.54,-38.7244 L 270.998,-37.9133 L 270.187,-37.3714 L 269.23,-37.1811 z
M 255.955,-32.269 L 255.144,-32.8109 L 254.602,-33.6219 L 254.412,-34.5786 L 254.602,-35.5354 L 255.144,-36.3464
 L 255.955,-36.8884 L 256.912,-37.0787 L 257.868,-36.8884 L 258.679,-36.3464 L 259.221,-35.5354 L 259.412,-34.5787
 L 259.221,-33.622 L 258.679,-32.8109 L 257.868,-32.269 L 256.912,-32.0787 z
M 91.985,-57.69 L 28.015,-57.69 L 28.015,-22.31 L 91.985,-22.31 z
M 30.015,-53.69 L 30.015,-55.69 L 34.015,-55.69 L 34.015,-53.69 z
M 58,-53.69 L 58,-55.69 L 62,-55.69 L 62,-53.69 z
M 85.985,-53.69 L 85.985,-55.69 L 89.985,-55.69 L 89.985,-53.69 z
M 39,-47.345 L 39,-50.345 L 53,-50.345 L 53,-47.345 z
M 67,-47.345 L 67,-50.345 L 81,-50.345 L 81,-47.345 z
M 57.7039,-34.4567 L 55.7574,-35.7574 L 54.4567,-37.7039 L 54.3978,-38 L 44.0075,-38 L 44.0075,-42
 L 54.3978,-42 L 54.4567,-42.2961 L 55.7574,-44.2426 L 57.7039,-45.5433 L 60,-46 L 62.2961,-45.5433
 L 64.2426,-44.2426 L 65.5433,-42.2961 L 65.6022,-42 L 75.9925,-42 L 75.9925,-38 L 65.6022,-38
 L 65.5433,-37.7039 L 64.2426,-35.7574 L 62.2961,-34.4567 L 60,-34 z
M 39,-29.655 L 39,-32.655 L 53,-32.655 L 53,-29.655 z
M 67,-29.655 L 67,-32.655 L 81,-32.655 L 81,-29.655 z
M 85.985,-24.31 L 85.985,-26.31 L 89.985,-26.31 L 89.985,-24.31 z
M 58,-24.31 L 58,-26.31 L 62,-26.31 L 62,-24.31 z
M 30.015,-24.31 L 30.015,-26.31 L 34.015,-26.31 L 34.015,-24.31 z
M 152.985,-57.69 L 97.015,-57.69 L 97.015,-22.31 L 152.985,-22.31 z
M 149.323,-53.0818 L 148.804,-53.4286 L 148.457,-53.9477 L 148.335,-54.56 L 148.457,-55.1723 L 148.804,-55.6913
 L 149.323,-56.0382 L 149.935,-56.16 L 150.547,-56.0382 L 151.066,-55.6913 L 151.413,-55.1723 L 151.535,-54.56
 L 151.413,-53.9477 L 151.066,-53.4286 L 150.547,-53.0818 L 149.935,-52.96 z
M 121.353,-53.0818 L 120.834,-53.4286 L 120.487,-53.9477 L 120.365,-54.56 L 120.487,-55.1723 L 120.834,-55.6913
 L 121.353,-56.0382 L 121.965,-56.16 L 122.577,-56.0382 L 123.096,-55.6913 L 123.443,-55.1723 L 123.565,-54.56
 L 123.443,-53.9477 L 123.096,-53.4286 L 122.577,-53.0818 L 121.965,-52.96 z
M 104,-47.345 L 104,-50.345 L 118,-50.345 L 118,-47.345 z
M 132,-47.345 L 132,-50.345 L 146,-50.345 L 146,-47.345 z
M 99.4527,-43.1118 L 98.9337,-43.4586 L 98.5868,-43.9777 L 98.465,-44.59 L 98.5868,-45.2023 L 98.9337,-45.7214
 L 99.4527,-46.0682 L 100.065,-46.19 L 100.677,-46.0682 L 101.196,-45.7214 L 101.543,-45.2023 L 101.665,-44.59
 L 101.543,-43.9777 L 101.196,-43.4586 L 100.677,-43.1118 L 100.065,-42.99 z
M 127.423,-43.1118 L 126.904,-43.4586 L 126.557,-43.9777 L 126.435,-44.59 L 126.557,-45.2023 L 126.904,-45.7214
 L 127.423,-46.0682 L 128.035,-46.19 L 128.647,-46.0682 L 129.166,-45.7214 L 129.513,-45.2023 L 129.635,-44.59
 L 129.513,-43.9777 L 129.166,-43.4586 L 128.647,-43.1118 L 128.035,-42.99 z
M 99.4527,-33.7018 L 98.9337,-34.0486 L 98.5868,-34.5677 L 98.465,-35.18 L 98.5868,-35.7923 L 98.9337,-36.3114
 L 99.4527,-36.6582 L 100.065,-36.78 L 100.677,-36.6582 L 101.196,-36.3114 L 101.543,-35.7923 L 101.665,-35.18
 L 101.543,-34.5677 L 101.196,-34.0486 L 100.677,-33.7018 L 100.065,-33.58 z
M 127.423,-33.7018 L 126.904,-34.0486 L 126.557,-34.5677 L 126.435,-35.18 L 126.557,-35.7923 L 126.904,-36.3114
 L 127.423,-36.6582 L 128.035,-36.78 L 128.647,-36.6582 L 129.166,-36.3114 L 129.513,-35.7923 L 129.635,-35.18
 L 129.513,-34.5677 L 129.166,-34.0486 L 128.647,-33.7018 L 128.035,-33.58 z
M 104,-29.655 L 104,-32.655 L 118,-32.655 L 118,-29.655 z
M 132,-29.655 L 132,-32.655 L 146,-32.655 L 146,-29.655 z
M 121.353,-23.7318 L 120.834,-24.0786 L 120.487,-24.5977 L 120.365,-25.21 L 120.487,-25.8223 L 120.834,-26.3414
 L 121.353,-26.6882 L 121.965,-26.81 L 122.577,-26.6882 L 123.096,-26.3414 L 123.443,-25.8223 L 123.565,-25.21
 L 123.443,-24.5977 L 123.096,-24.0786 L 122.577,-23.7318 L 121.965,-23.61 z
M 149.323,-23.7318 L 148.804,-24.0786 L 148.457,-24.5977 L 148.335,-25.21 L 148.457,-25.8223 L 148.804,-26.3414
 L 149.323,-26.6882 L 149.935,-26.81 L 150.547,-26.6882 L 151.066,-26.3414 L 151.413,-25.8223 L 151.535,-25.21
 L 151.413,-24.5977 L 151.066,-24.0786 L 150.547,-23.7318 L 149.935,-23.61 z
" stroke="black" fill="none" stroke-width="0.5"/></svg>
