G04 ( created by brdgerber.py ( brdgerber.py v0.1 2014-03-12 ) ) date 2020-10-08 04:24:04 EDT*
G04 Gerber Fmt 3.4, Leading zero omitted, Abs format*
%MOIN*%
%FSLAX34Y34*%
G01*
G70*
G90*
G04 APERTURE LIST*
%ADD10R,0.0550X0.0550*%
%ADD15R,0.0590X0.0354*%
%ADD17R,0.0629X0.0709*%
%ADD13C,0.0120*%
%ADD12C,0.0000*%
%ADD16C,0.0050*%
%ADD14C,0.2440*%
%ADD18C,0.0060*%
%ADD11C,0.0550*%
%ADD19C,0.0200*%
G04 APERTURE END LIST*
G54D10*
D10*
X01550Y-15000D03*
D11*
X01550Y-16000D03*
D10*
X31500Y-16000D03*
D11*
X31500Y-15000D03*
D14*
G01X02000Y-42000D02*
G01X02000Y-42000D01*
D10*
X31500Y-23000D03*
D11*
X31500Y-22000D03*
D10*
X31500Y-20000D03*
D11*
X31500Y-19000D03*
D11*
X31500Y-18000D03*
D10*
X01550Y-22000D03*
D11*
X01550Y-23000D03*
D10*
X01550Y-18000D03*
D11*
X01550Y-19000D03*
D11*
X01550Y-20000D03*
D15*
X12936Y03249D03*
D15*
X12936Y01951D03*
D15*
X14864Y03249D03*
D15*
X14864Y01951D03*
D17*
X13391Y00700D03*
D17*
X14509Y00700D03*
D15*
X17836Y-40501D03*
D15*
X17836Y-41799D03*
D15*
X19764Y-40501D03*
D15*
X19764Y-41799D03*
D15*
X25186Y03299D03*
D15*
X25186Y02001D03*
D15*
X27114Y03299D03*
D15*
X27114Y02001D03*
D15*
X24336Y-35651D03*
D15*
X24336Y-36949D03*
D15*
X26264Y-35651D03*
D15*
X26264Y-36949D03*
D15*
X30036Y-04901D03*
D15*
X30036Y-06199D03*
D15*
X31964Y-04901D03*
D15*
X31964Y-06199D03*
D15*
X29964Y-14649D03*
D15*
X29964Y-13351D03*
D15*
X28036Y-14649D03*
D15*
X28036Y-13351D03*
D15*
X25786Y-26501D03*
D15*
X25786Y-27799D03*
D15*
X27714Y-26501D03*
D15*
X27714Y-27799D03*
D15*
X05086Y-40451D03*
D15*
X05086Y-41749D03*
D15*
X07014Y-40451D03*
D15*
X07014Y-41749D03*
D15*
X00936Y-33901D03*
D15*
X00936Y-35199D03*
D15*
X02864Y-33901D03*
D15*
X02864Y-35199D03*
D15*
X04114Y-27849D03*
D15*
X04114Y-26551D03*
D15*
X02186Y-27849D03*
D15*
X02186Y-26551D03*
D15*
X06564Y-14349D03*
D15*
X06564Y-13051D03*
D15*
X04636Y-14349D03*
D15*
X04636Y-13051D03*
D15*
X08264Y-06199D03*
D15*
X08264Y-04901D03*
D15*
X06336Y-06199D03*
D15*
X06336Y-04901D03*
D15*
X11014Y-20199D03*
D15*
X11014Y-18901D03*
D15*
X09086Y-20199D03*
D15*
X09086Y-18901D03*
D15*
X21686Y-18901D03*
D15*
X21686Y-20199D03*
D15*
X23614Y-18901D03*
D15*
X23614Y-20199D03*
D15*
X13364Y-10099D03*
D15*
X13364Y-08801D03*
D15*
X11436Y-10099D03*
D15*
X11436Y-08801D03*
D15*
X23236Y-08151D03*
D15*
X23236Y-09449D03*
D15*
X25164Y-08151D03*
D15*
X25164Y-09449D03*
D15*
X21614Y-30999D03*
D15*
X21614Y-29701D03*
D15*
X19686Y-30999D03*
D15*
X19686Y-29701D03*
D15*
X14914Y-33099D03*
D15*
X14914Y-31801D03*
D15*
X12986Y-33099D03*
D15*
X12986Y-31801D03*
D15*
X10014Y-30149D03*
D15*
X10014Y-28851D03*
D15*
X08086Y-30149D03*
D15*
X08086Y-28851D03*
D17*
X25591Y00550D03*
D17*
X26709Y00550D03*
D17*
X30591Y-07550D03*
D17*
X31709Y-07550D03*
D17*
X29609Y-11950D03*
D17*
X28491Y-11950D03*
D17*
X26241Y-29150D03*
D17*
X27359Y-29150D03*
D17*
X24791Y-38300D03*
D17*
X25909Y-38300D03*
D17*
X18341Y-43100D03*
D17*
X19459Y-43100D03*
D17*
X05541Y-43150D03*
D17*
X06659Y-43150D03*
D17*
X01441Y-36600D03*
D17*
X02559Y-36600D03*
D17*
X03659Y-25250D03*
D17*
X02541Y-25250D03*
D17*
X06109Y-11550D03*
D17*
X04991Y-11550D03*
D17*
X07809Y-03500D03*
D17*
X06691Y-03500D03*
D17*
X12859Y-07400D03*
D17*
X11741Y-07400D03*
D17*
X18491Y-07900D03*
D17*
X19609Y-07900D03*
D17*
X23691Y-10850D03*
D17*
X24809Y-10850D03*
D17*
X10559Y-17450D03*
D17*
X09441Y-17450D03*
D17*
X22091Y-21650D03*
D17*
X23209Y-21650D03*
D17*
X21159Y-28400D03*
D17*
X20041Y-28400D03*
D17*
X14509Y-30500D03*
D17*
X13391Y-30500D03*
D17*
X09559Y-27450D03*
D17*
X08441Y-27450D03*
D15*
X18036Y-05301D03*
D15*
X18036Y-06599D03*
D15*
X19964Y-05301D03*
D15*
X19964Y-06599D03*
D14*
G01X30000Y04000D02*
G01X30000Y04000D01*
D14*
G01X30000Y-42000D02*
G01X30000Y-42000D01*
D14*
G01X02000Y04000D02*
G01X02000Y04000D01*
D19*
G01X29450Y-12100D02*
G01X29600Y-11950D01*
D19*
G01X29450Y-14250D02*
G01X29450Y-12100D01*
D19*
G01X25800Y-27800D02*
G01X25250Y-27800D01*
D19*
G01X26650Y-28750D02*
G01X26250Y-29150D01*
D19*
G01X14750Y-33100D02*
G01X14150Y-32500D01*
D19*
G01X14900Y-33100D02*
G01X14750Y-33100D01*
D19*
G01X06700Y-04550D02*
G01X06350Y-04900D01*
D19*
G01X06700Y-03450D02*
G01X06700Y-04550D01*
D19*
G01X19750Y-09600D02*
G01X22300Y-09600D01*
D19*
G01X18500Y-08350D02*
G01X19750Y-09600D01*
D19*
G01X18500Y-07900D02*
G01X18500Y-08350D01*
D19*
G01X12150Y-18900D02*
G01X21700Y-18900D01*
D19*
G01X05050Y-12650D02*
G01X04650Y-13050D01*
D19*
G01X05050Y-11450D02*
G01X05050Y-12650D01*
D19*
G01X08250Y-06200D02*
G01X08050Y-06200D01*
D19*
G01X07650Y-03650D02*
G01X07800Y-03500D01*
D19*
G01X07650Y-05800D02*
G01X07650Y-03650D01*
D19*
G01X08050Y-06200D02*
G01X07650Y-05800D01*
D19*
G01X09450Y-18550D02*
G01X09100Y-18900D01*
D19*
G01X09450Y-17400D02*
G01X09450Y-18550D01*
D19*
G01X06550Y-03350D02*
G01X06700Y-03500D01*
D19*
G01X17850Y-40500D02*
G01X18100Y-40500D01*
D19*
G01X09550Y-27450D02*
G01X09550Y-28000D01*
D19*
G01X24900Y-19400D02*
G01X24900Y-24000D01*
D19*
G01X02600Y-26150D02*
G01X02200Y-26550D01*
D19*
G01X02500Y-35550D02*
G01X02850Y-35200D01*
D19*
G01X02600Y-25150D02*
G01X02600Y-26150D01*
D19*
G01X02500Y-36600D02*
G01X02500Y-35550D01*
D19*
G01X03250Y-25600D02*
G01X03700Y-25150D01*
D19*
G01X03250Y-27200D02*
G01X03250Y-25600D01*
D19*
G01X03900Y-27850D02*
G01X03250Y-27200D01*
D19*
G01X04100Y-27850D02*
G01X03900Y-27850D01*
D19*
G01X08450Y-28500D02*
G01X08100Y-28850D01*
D19*
G01X08450Y-27400D02*
G01X08450Y-28500D01*
D19*
G01X01550Y-19000D02*
G01X01700Y-19000D01*
D19*
G01X17750Y-29400D02*
G01X14500Y-29400D01*
D19*
G01X18700Y-40650D02*
G01X18700Y-40250D01*
D19*
G01X14900Y-31800D02*
G01X18900Y-31800D01*
D19*
G01X09500Y-31700D02*
G01X10000Y-31200D01*
D19*
G01X08050Y-31700D02*
G01X09500Y-31700D01*
D19*
G01X22200Y-26700D02*
G01X22200Y-29100D01*
D19*
G01X01050Y-22500D02*
G01X01550Y-23000D01*
D19*
G01X27550Y02400D02*
G01X27650Y02400D01*
D19*
G01X12950Y03250D02*
G01X12950Y03100D01*
D19*
G01X12950Y03100D02*
G01X13650Y02400D01*
D19*
G01X01050Y-20900D02*
G01X01050Y-22500D01*
D19*
G01X08100Y-30150D02*
G01X07800Y-30150D01*
D19*
G01X19800Y-33100D02*
G01X14900Y-33100D01*
D19*
G01X25200Y03300D02*
G01X25400Y03300D01*
D19*
G01X02600Y-21950D02*
G01X01550Y-23000D01*
D19*
G01X25550Y-24400D02*
G01X23000Y-26950D01*
D19*
G01X01050Y-20500D02*
G01X01550Y-20000D01*
D19*
G01X31500Y-17600D02*
G01X32150Y-16950D01*
D19*
G01X23000Y-26950D02*
G01X23000Y-29600D01*
D19*
G01X28200Y03100D02*
G01X28200Y-01850D01*
D19*
G01X07100Y-37950D02*
G01X06500Y-37350D01*
D19*
G01X30950Y-19300D02*
G01X31150Y-19500D01*
D19*
G01X06100Y-12250D02*
G01X05950Y-12400D01*
D19*
G01X04200Y-27850D02*
G01X08050Y-31700D01*
D19*
G01X04100Y-27850D02*
G01X04200Y-27850D01*
D19*
G01X24250Y-11550D02*
G01X27350Y-14650D01*
D19*
G01X16300Y-07350D02*
G01X16300Y-05600D01*
D19*
G01X09100Y-20200D02*
G01X09150Y-20200D01*
D19*
G01X01450Y-36600D02*
G01X01450Y-36800D01*
D19*
G01X08900Y-18900D02*
G01X09100Y-18900D01*
D19*
G01X23200Y-21650D02*
G01X23200Y-22100D01*
D19*
G01X16600Y-05300D02*
G01X18050Y-05300D01*
D19*
G01X11650Y-26500D02*
G01X14550Y-29400D01*
D19*
G01X18500Y-07900D02*
G01X16850Y-07900D01*
D19*
G01X12750Y-33950D02*
G01X13600Y-33950D01*
D19*
G01X11450Y-08800D02*
G01X11450Y-07750D01*
D19*
G01X11450Y-07750D02*
G01X11800Y-07400D01*
D19*
G01X02300Y-34650D02*
G01X02850Y-35200D01*
D19*
G01X20050Y-28400D02*
G01X20050Y-24350D01*
D19*
G01X29300Y-15450D02*
G01X29300Y-16450D01*
D19*
G01X02300Y-31650D02*
G01X02300Y-34650D01*
D19*
G01X09150Y-26500D02*
G01X11650Y-26500D01*
D19*
G01X08450Y-27450D02*
G01X08450Y-27200D01*
D19*
G01X29950Y-14650D02*
G01X29850Y-14650D01*
D19*
G01X10000Y-30150D02*
G01X10000Y-30250D01*
D19*
G01X29850Y-14650D02*
G01X29450Y-14250D01*
D19*
G01X24900Y-24000D02*
G01X22200Y-26700D01*
D19*
G01X28500Y-11950D02*
G01X28500Y-12900D01*
D19*
G01X28500Y-12900D02*
G01X28050Y-13350D01*
D19*
G01X21700Y-18900D02*
G01X21800Y-18900D01*
D19*
G01X21800Y-18900D02*
G01X22400Y-19500D01*
D19*
G01X22400Y-19500D02*
G01X22400Y-21300D01*
D19*
G01X22400Y-21300D02*
G01X22050Y-21650D01*
D19*
G01X23150Y-21650D02*
G01X23150Y-20650D01*
D19*
G01X23150Y-20650D02*
G01X23600Y-20200D01*
D19*
G01X14150Y-32500D02*
G01X14150Y-30800D01*
D19*
G01X13400Y-30450D02*
G01X13400Y-31400D01*
D19*
G01X13400Y-31400D02*
G01X13000Y-31800D01*
D19*
G01X14150Y-30800D02*
G01X14500Y-30450D01*
D19*
G01X27350Y-29200D02*
G01X27350Y-28150D01*
D19*
G01X27350Y-28150D02*
G01X27700Y-27800D01*
D19*
G01X20100Y-28350D02*
G01X20100Y-29300D01*
D19*
G01X20100Y-29300D02*
G01X19700Y-29700D01*
D19*
G01X21600Y-31000D02*
G01X21250Y-31000D01*
D19*
G01X21250Y-31000D02*
G01X20800Y-30550D01*
D19*
G01X20800Y-30550D02*
G01X20800Y-28750D01*
D19*
G01X20800Y-28750D02*
G01X21200Y-28350D01*
D19*
G01X24850Y-34250D02*
G01X26250Y-35650D01*
D19*
G01X26700Y-06400D02*
G01X29600Y-09300D01*
D19*
G01X21600Y-31000D02*
G01X21600Y-31300D01*
D19*
G01X24350Y-35650D02*
G01X23450Y-35650D01*
D19*
G01X25900Y-38300D02*
G01X25900Y-37300D01*
D19*
G01X25900Y-37300D02*
G01X26250Y-36950D01*
D19*
G01X19750Y-41800D02*
G01X19650Y-41800D01*
D19*
G01X19650Y-41800D02*
G01X19450Y-42000D01*
D19*
G01X19450Y-42000D02*
G01X19450Y-43150D01*
D19*
G01X23200Y-22100D02*
G01X22600Y-22700D01*
D19*
G01X07000Y-41450D02*
G01X06500Y-40950D01*
D19*
G01X16300Y-05600D02*
G01X16600Y-05300D01*
D19*
G01X23600Y-18900D02*
G01X24400Y-18900D01*
D19*
G01X10000Y-31200D02*
G01X12750Y-33950D01*
D19*
G01X02200Y-26550D02*
G01X02200Y-26800D01*
D19*
G01X01550Y-16000D02*
G01X01650Y-16000D01*
D19*
G01X31500Y-18000D02*
G01X31500Y-18050D01*
D19*
G01X28250Y-27050D02*
G01X26650Y-27050D01*
D19*
G01X06650Y-42100D02*
G01X07000Y-41750D01*
D19*
G01X31500Y-16000D02*
G01X29300Y-16000D01*
D19*
G01X25550Y-26500D02*
G01X24500Y-25450D01*
D19*
G01X11700Y-18300D02*
G01X11700Y-18450D01*
D19*
G01X13400Y00700D02*
G01X13400Y00400D01*
D19*
G01X25800Y-26500D02*
G01X25550Y-26500D01*
D19*
G01X31500Y-23000D02*
G01X32000Y-23000D01*
D19*
G01X06650Y-43100D02*
G01X06650Y-42100D01*
D19*
G01X31900Y-19500D02*
G01X31150Y-19500D01*
D19*
G01X16500Y-40450D02*
G01X17850Y-41800D01*
D19*
G01X01550Y-22000D02*
G01X01550Y-21450D01*
D19*
G01X01550Y-21450D02*
G01X02100Y-20900D01*
D19*
G01X31500Y-19000D02*
G01X31900Y-19000D01*
D19*
G01X24250Y-11350D02*
G01X24250Y-11550D01*
D19*
G01X24400Y-18900D02*
G01X24900Y-19400D01*
D19*
G01X08250Y-06200D02*
G01X08300Y-06200D01*
D19*
G01X13650Y00950D02*
G01X13400Y00700D01*
D19*
G01X13650Y02400D02*
G01X13650Y00950D01*
D19*
G01X14850Y01950D02*
G01X14850Y01050D01*
D19*
G01X14850Y01050D02*
G01X14500Y00700D01*
D19*
G01X18700Y-40250D02*
G01X16400Y-37950D01*
D19*
G01X32150Y-15650D02*
G01X31500Y-15000D01*
D19*
G01X10550Y-17450D02*
G01X10550Y-16700D01*
D19*
G01X16400Y-37950D02*
G01X07100Y-37950D01*
D19*
G01X10550Y-16700D02*
G01X08200Y-14350D01*
D19*
G01X13350Y-08800D02*
G01X13250Y-08800D01*
D19*
G01X02600Y-16950D02*
G01X02600Y-21950D01*
D19*
G01X27650Y02400D02*
G01X27850Y02200D01*
D19*
G01X18900Y-31800D02*
G01X19700Y-31000D01*
D19*
G01X32150Y-16950D02*
G01X32150Y-15650D01*
D19*
G01X31500Y-22000D02*
G01X31500Y-21700D01*
D19*
G01X24850Y-28200D02*
G01X24850Y-34250D01*
D19*
G01X26250Y-36950D02*
G01X26400Y-36950D01*
D19*
G01X25250Y-27800D02*
G01X24850Y-28200D01*
D19*
G01X25750Y-00400D02*
G01X26700Y00550D01*
D19*
G01X06050Y-40800D02*
G01X05100Y-41750D01*
D19*
G01X32000Y-19600D02*
G01X31900Y-19500D01*
D19*
G01X27200Y04100D02*
G01X28200Y03100D01*
D19*
G01X26650Y-27000D02*
G01X26650Y-28750D01*
D19*
G01X01000Y-15000D02*
G01X01550Y-15000D01*
D19*
G01X22600Y-22700D02*
G01X06000Y-22700D01*
D19*
G01X19750Y-41700D02*
G01X18700Y-40650D01*
D19*
G01X25550Y-18500D02*
G01X25550Y-24400D01*
D19*
G01X25050Y-18000D02*
G01X25550Y-18500D01*
D19*
G01X32000Y-21200D02*
G01X32000Y-19600D01*
D19*
G01X24300Y04100D02*
G01X27200Y04100D01*
D19*
G01X05950Y-12400D02*
G01X05950Y-13750D01*
D19*
G01X02950Y-31000D02*
G01X02300Y-31650D01*
D19*
G01X02950Y-27550D02*
G01X02950Y-31000D01*
D19*
G01X05550Y-43400D02*
G01X05900Y-43750D01*
D19*
G01X21600Y-31300D02*
G01X19800Y-33100D01*
D19*
G01X01450Y-36800D02*
G01X05100Y-40450D01*
D19*
G01X14450Y-33100D02*
G01X14900Y-33100D01*
D19*
G01X19950Y-07550D02*
G01X19600Y-07900D01*
D19*
G01X19950Y-06600D02*
G01X19950Y-07550D01*
D19*
G01X28150Y-13350D02*
G01X28950Y-14150D01*
D19*
G01X29950Y-14650D02*
G01X30250Y-14650D01*
D19*
G01X28950Y-15100D02*
G01X29300Y-15450D01*
D19*
G01X28500Y-09650D02*
G01X28300Y-09450D01*
D19*
G01X28050Y-13350D02*
G01X28150Y-13350D01*
D19*
G01X22200Y-29100D02*
G01X21600Y-29700D01*
D19*
G01X14500Y-29400D02*
G01X13400Y-30500D01*
D19*
G01X23000Y-29600D02*
G01X21600Y-31000D01*
D19*
G01X01050Y-20900D02*
G01X01050Y-20500D01*
D19*
G01X00950Y-35100D02*
G01X01900Y-34150D01*
D19*
G01X02100Y-19400D02*
G01X02100Y-20900D01*
D19*
G01X06100Y-11550D02*
G01X06100Y-12250D01*
D19*
G01X01700Y-19000D02*
G01X02100Y-19400D01*
D19*
G01X31500Y-21700D02*
G01X32000Y-21200D01*
D19*
G01X01900Y-28150D02*
G01X02200Y-27850D01*
D19*
G01X19750Y-41800D02*
G01X19750Y-41700D01*
D19*
G01X27350Y-14650D02*
G01X28050Y-14650D01*
D19*
G01X30850Y-20000D02*
G01X31500Y-20000D01*
D19*
G01X28950Y-14150D02*
G01X28950Y-15100D01*
D19*
G01X05950Y-13750D02*
G01X06550Y-14350D01*
D19*
G01X00950Y-35200D02*
G01X00950Y-35100D01*
D19*
G01X05950Y-14750D02*
G01X05950Y-15950D01*
D19*
G01X19700Y-29700D02*
G01X18050Y-29700D01*
D19*
G01X28500Y-11950D02*
G01X28500Y-09650D01*
D19*
G01X05950Y-15950D02*
G01X08900Y-18900D01*
D19*
G01X25250Y-37850D02*
G01X24800Y-38300D01*
D19*
G01X19750Y-40500D02*
G01X20800Y-40500D01*
D19*
G01X20800Y-40500D02*
G01X24350Y-36950D01*
D19*
G01X25900Y-39100D02*
G01X25900Y-38300D01*
D19*
G01X19750Y-41800D02*
G01X23200Y-41800D01*
D19*
G01X23200Y-41800D02*
G01X25900Y-39100D01*
D19*
G01X20900Y-33100D02*
G01X19600Y-33100D01*
D19*
G01X23450Y-35650D02*
G01X20900Y-33100D01*
D19*
G01X18750Y-42700D02*
G01X18350Y-43100D01*
D19*
G01X18750Y-41150D02*
G01X18750Y-42700D01*
D19*
G01X18100Y-40500D02*
G01X18750Y-41150D01*
D19*
G01X07000Y-40450D02*
G01X16500Y-40450D01*
D19*
G01X09550Y-28000D02*
G01X09150Y-28400D01*
D19*
G01X23500Y-18000D02*
G01X25050Y-18000D01*
D19*
G01X16900Y-20200D02*
G01X21700Y-20200D01*
D19*
G01X22600Y-18900D02*
G01X23500Y-18000D01*
D19*
G01X16850Y-07900D02*
G01X16300Y-07350D01*
D19*
G01X21700Y-18900D02*
G01X22600Y-18900D01*
D19*
G01X31500Y-18000D02*
G01X31500Y-17600D01*
D19*
G01X13000Y-33100D02*
G01X13000Y-32900D01*
D19*
G01X13000Y-32900D02*
G01X11200Y-31100D01*
D19*
G01X11200Y-31100D02*
G01X11200Y-30050D01*
D19*
G01X09150Y-29300D02*
G01X10000Y-30150D01*
D19*
G01X09150Y-28400D02*
G01X09150Y-29300D01*
D19*
G01X06500Y-36400D02*
G01X02950Y-32850D01*
D19*
G01X02950Y-32850D02*
G01X02950Y-30950D01*
D19*
G01X06500Y-40950D02*
G01X06500Y-36400D01*
D19*
G01X07000Y-41750D02*
G01X07000Y-41450D01*
D19*
G01X02850Y-33900D02*
G01X02950Y-33900D01*
D19*
G01X02950Y-33900D02*
G01X06050Y-37000D01*
D19*
G01X06050Y-37000D02*
G01X06050Y-40800D01*
D19*
G01X31500Y-18050D02*
G01X30950Y-18600D01*
D19*
G01X10000Y-30150D02*
G01X10000Y-31200D01*
D19*
G01X11200Y-30050D02*
G01X10000Y-28850D01*
D19*
G01X30950Y-18600D02*
G01X30950Y-19300D01*
D19*
G01X28200Y-01850D02*
G01X29850Y-03500D01*
D19*
G01X01900Y-34150D02*
G01X01900Y-28150D01*
D19*
G01X01650Y-16000D02*
G01X02600Y-16950D01*
D19*
G01X05550Y-43150D02*
G01X05550Y-43400D01*
D19*
G01X04200Y-26550D02*
G01X04100Y-26550D01*
D19*
G01X00950Y-33900D02*
G01X00900Y-33900D01*
D19*
G01X00900Y-33900D02*
G01X00200Y-34600D01*
D19*
G01X00200Y-34600D02*
G01X00200Y-35650D01*
D19*
G01X00200Y-35650D02*
G01X01150Y-36600D01*
D19*
G01X01150Y-36600D02*
G01X01450Y-36600D01*
D19*
G01X08450Y-27200D02*
G01X09150Y-26500D01*
D19*
G01X20050Y-24350D02*
G01X18400Y-22700D01*
D19*
G01X07800Y-30150D02*
G01X04200Y-26550D01*
D19*
G01X13600Y-33950D02*
G01X14450Y-33100D01*
D19*
G01X18050Y-29700D02*
G01X17750Y-29400D01*
D19*
G01X02200Y-26800D02*
G01X02950Y-27550D01*
D19*
G01X11000Y-20200D02*
G01X11250Y-20200D01*
D19*
G01X11250Y-20200D02*
G01X11700Y-19750D01*
D19*
G01X11700Y-19750D02*
G01X11700Y-18300D01*
D19*
G01X11700Y-18300D02*
G01X10850Y-17450D01*
D19*
G01X10850Y-17450D02*
G01X10550Y-17450D01*
D19*
G01X11700Y-18450D02*
G01X12150Y-18900D01*
D19*
G01X01550Y-18000D02*
G01X01550Y-17050D01*
D19*
G01X01550Y-17050D02*
G01X01000Y-16500D01*
D19*
G01X01000Y-16500D02*
G01X01000Y-10350D01*
D19*
G01X27850Y-04000D02*
G01X29150Y-05300D01*
D19*
G01X01550Y-19000D02*
G01X01550Y-18900D01*
D19*
G01X01550Y-18900D02*
G01X01000Y-18350D01*
D19*
G01X01000Y-18350D02*
G01X01000Y-17050D01*
D19*
G01X01000Y-17050D02*
G01X00650Y-16700D01*
D19*
G01X00650Y-16700D02*
G01X00650Y-10000D01*
D19*
G01X27850Y02200D02*
G01X27850Y-04000D01*
D19*
G01X01550Y-20000D02*
G01X01550Y-19750D01*
D19*
G01X01550Y-19750D02*
G01X00550Y-18750D01*
D19*
G01X00550Y-18750D02*
G01X00550Y-17050D01*
D19*
G01X00550Y-17050D02*
G01X00300Y-16800D01*
D19*
G01X00300Y-16800D02*
G01X00300Y-07300D01*
D19*
G01X01850Y-02700D02*
G01X01850Y-02000D01*
D19*
G01X01850Y-02000D02*
G01X07100Y03250D01*
D19*
G01X07100Y03250D02*
G01X12950Y03250D01*
D19*
G01X27100Y02850D02*
G01X27550Y02400D01*
D19*
G01X27100Y03300D02*
G01X27100Y02850D01*
D19*
G01X08150Y01950D02*
G01X12950Y01950D01*
D19*
G01X04650Y-13050D02*
G01X04650Y-13450D01*
D19*
G01X04650Y-13450D02*
G01X05950Y-14750D01*
D19*
G01X10350Y-19550D02*
G01X11000Y-18900D01*
D19*
G01X07000Y-00150D02*
G01X13650Y-00150D01*
D19*
G01X13650Y-00150D02*
G01X14500Y00700D01*
D19*
G01X14850Y03250D02*
G01X20050Y03250D01*
D19*
G01X20050Y03250D02*
G01X21300Y02000D01*
D19*
G01X21300Y02000D02*
G01X25200Y02000D01*
D19*
G01X12950Y03250D02*
G01X13100Y03250D01*
D19*
G01X13100Y03250D02*
G01X13950Y04100D01*
D19*
G01X13950Y04100D02*
G01X24400Y04100D01*
D19*
G01X24400Y04100D02*
G01X25200Y03300D01*
D19*
G01X13550Y-00150D02*
G01X24450Y-00150D01*
D19*
G01X24450Y-00150D02*
G01X24700Y-00400D01*
D19*
G01X24700Y-00400D02*
G01X25750Y-00400D01*
D19*
G01X26700Y00550D02*
G01X26700Y01600D01*
D19*
G01X26700Y01600D02*
G01X27100Y02000D01*
D19*
G01X17650Y-43750D02*
G01X22850Y-43750D01*
D19*
G01X04500Y-42100D02*
G01X05550Y-43150D01*
D19*
G01X04500Y-40750D02*
G01X04500Y-42100D01*
D19*
G01X29100Y-05250D02*
G01X30050Y-06200D01*
D19*
G01X30050Y-04900D02*
G01X30100Y-04900D01*
D19*
G01X30100Y-04900D02*
G01X30800Y-05600D01*
D19*
G01X30800Y-05600D02*
G01X30800Y-07350D01*
D19*
G01X30800Y-07350D02*
G01X30600Y-07550D01*
D19*
G01X31700Y-07550D02*
G01X31700Y-06450D01*
D19*
G01X31700Y-06450D02*
G01X31950Y-06200D01*
D19*
G01X23250Y-09450D02*
G01X23850Y-09450D01*
D19*
G01X23850Y-09450D02*
G01X24250Y-09850D01*
D19*
G01X24250Y-09850D02*
G01X24250Y-11350D01*
D19*
G01X09150Y-20200D02*
G01X09900Y-20950D01*
D19*
G01X26150Y-26500D02*
G01X26650Y-27000D01*
D19*
G01X25800Y-26500D02*
G01X26150Y-26500D01*
D19*
G01X25250Y-36250D02*
G01X25250Y-37850D01*
D19*
G01X27350Y-36000D02*
G01X27350Y-29150D01*
D19*
G01X26400Y-36950D02*
G01X27350Y-36000D01*
D19*
G01X31900Y-19000D02*
G01X32300Y-19400D01*
D19*
G01X25200Y03300D02*
G01X25350Y03300D01*
D19*
G01X25350Y03300D02*
G01X25900Y02750D01*
D19*
G01X25900Y02750D02*
G01X25900Y00850D01*
D19*
G01X25900Y00850D02*
G01X25600Y00550D01*
D19*
G01X22850Y-43750D02*
G01X28850Y-37750D01*
D19*
G01X28850Y-37750D02*
G01X28850Y-27650D01*
D19*
G01X04800Y-40450D02*
G01X04500Y-40750D01*
D19*
G01X24800Y-10850D02*
G01X24800Y-09800D01*
D19*
G01X24800Y-09800D02*
G01X25150Y-09450D01*
D19*
G01X25150Y-09450D02*
G01X28400Y-09450D01*
D19*
G01X28400Y-09450D02*
G01X28550Y-09300D01*
D19*
G01X28550Y-09300D02*
G01X29950Y-09300D01*
D19*
G01X30000Y-09300D02*
G01X30750Y-09300D01*
D19*
G01X30750Y-09300D02*
G01X31700Y-08350D01*
D19*
G01X31700Y-08350D02*
G01X31700Y-07550D01*
D19*
G01X23050Y-10850D02*
G01X23700Y-10850D01*
D19*
G01X22300Y-10100D02*
G01X23050Y-10850D01*
D19*
G01X22300Y-08650D02*
G01X22300Y-10100D01*
D19*
G01X22800Y-08150D02*
G01X22300Y-08650D01*
D19*
G01X23250Y-08150D02*
G01X22800Y-08150D01*
D19*
G01X09900Y-20950D02*
G01X16150Y-20950D01*
D19*
G01X31450Y-04100D02*
G01X32500Y-04100D01*
D19*
G01X32300Y-22700D02*
G01X32000Y-23000D01*
D19*
G01X32300Y-19400D02*
G01X32300Y-22700D01*
D19*
G01X24650Y-35650D02*
G01X25250Y-36250D01*
D19*
G01X24350Y-35650D02*
G01X24650Y-35650D01*
D19*
G01X16150Y-20950D02*
G01X16900Y-20200D01*
D19*
G01X28850Y-27650D02*
G01X28250Y-27050D01*
D19*
G01X05100Y-40450D02*
G01X04800Y-40450D01*
D19*
G01X29850Y-03500D02*
G01X30850Y-03500D01*
D19*
G01X30850Y-03500D02*
G01X31450Y-04100D01*
D19*
G01X25150Y-09450D02*
G01X25150Y-09350D01*
D19*
G01X25150Y-09350D02*
G01X24150Y-08350D01*
D19*
G01X24150Y-08350D02*
G01X24150Y-07800D01*
D19*
G01X24150Y-07800D02*
G01X22950Y-06600D01*
D19*
G01X22950Y-06600D02*
G01X19950Y-06600D01*
D19*
G01X25150Y-08150D02*
G01X25150Y-07750D01*
D19*
G01X25150Y-07750D02*
G01X23550Y-06150D01*
D19*
G01X23550Y-06150D02*
G01X18500Y-06150D01*
D19*
G01X18500Y-06150D02*
G01X18050Y-06600D01*
D19*
G01X12850Y-07400D02*
G01X12850Y-08050D01*
D19*
G01X12850Y-08050D02*
G01X12650Y-08250D01*
D19*
G01X12650Y-08250D02*
G01X12650Y-09400D01*
D19*
G01X12650Y-09400D02*
G01X13350Y-10100D01*
D19*
G01X13350Y-08800D02*
G01X13350Y-08150D01*
D19*
G01X13350Y-08150D02*
G01X15550Y-05950D01*
D19*
G01X15550Y-05950D02*
G01X15550Y-05550D01*
D19*
G01X15550Y-05550D02*
G01X16500Y-04600D01*
D19*
G01X16500Y-04600D02*
G01X19250Y-04600D01*
D19*
G01X19250Y-04600D02*
G01X19950Y-05300D01*
D19*
G01X13350Y-10100D02*
G01X14700Y-10100D01*
D19*
G01X14700Y-10100D02*
G01X16900Y-07900D01*
D19*
G01X11750Y-07400D02*
G01X11750Y-07000D01*
D19*
G01X11750Y-07000D02*
G01X14900Y-03850D01*
D19*
G01X14900Y-03850D02*
G01X14900Y-02400D01*
D19*
G01X14900Y-02400D02*
G01X17150Y-00150D01*
D19*
G01X26700Y00550D02*
G01X26700Y-06400D01*
D19*
G01X08250Y-04900D02*
G01X08650Y-04900D01*
D19*
G01X08650Y-04900D02*
G01X10200Y-06450D01*
D19*
G01X10200Y-06450D02*
G01X10200Y-08850D01*
D19*
G01X10200Y-08850D02*
G01X11450Y-10100D01*
D19*
G01X08250Y-06200D02*
G01X08250Y-06300D01*
D19*
G01X08250Y-06300D02*
G01X09700Y-07750D01*
D19*
G01X09700Y-07750D02*
G01X09700Y-09700D01*
D19*
G01X09700Y-09700D02*
G01X10950Y-10950D01*
D19*
G01X10950Y-10950D02*
G01X13850Y-10950D01*
D19*
G01X13850Y-10950D02*
G01X14700Y-10100D01*
D19*
G01X06700Y-03500D02*
G01X06700Y-03150D01*
D19*
G01X06700Y-03150D02*
G01X05350Y-01800D01*
D19*
G01X06350Y-06200D02*
G01X06350Y-08500D01*
D19*
G01X06350Y-08500D02*
G01X07250Y-09400D01*
D19*
G01X07250Y-09400D02*
G01X07250Y-12350D01*
D19*
G01X07250Y-12350D02*
G01X06550Y-13050D01*
D19*
G01X06550Y-14350D02*
G01X08200Y-14350D01*
D19*
G01X08200Y-14350D02*
G01X10950Y-11600D01*
D19*
G01X10950Y-11600D02*
G01X10950Y-10950D01*
D19*
G01X17700Y-43750D02*
G01X18350Y-43100D01*
D19*
G01X05900Y-43750D02*
G01X17700Y-43750D01*
D19*
G01X04650Y-14350D02*
G01X04650Y-16300D01*
D19*
G01X04650Y-16300D02*
G01X07900Y-19550D01*
D19*
G01X07900Y-19550D02*
G01X10350Y-19550D01*
D19*
G01X00300Y-07300D02*
G01X00300Y-04900D01*
D19*
G01X00300Y-04900D02*
G01X01850Y-03350D01*
D19*
G01X01850Y-03350D02*
G01X01850Y-02600D01*
D19*
G01X07050Y-00150D02*
G01X06750Y-00150D01*
D19*
G01X06750Y-00150D02*
G01X05350Y-01550D01*
D19*
G01X05350Y-01550D02*
G01X05350Y-01800D01*
D19*
G01X08200Y01950D02*
G01X07200Y01950D01*
D19*
G01X07200Y01950D02*
G01X02750Y-02500D01*
D19*
G01X02750Y-02500D02*
G01X02750Y-03450D01*
D19*
G01X02750Y-03450D02*
G01X00650Y-05550D01*
D19*
G01X00650Y-05550D02*
G01X00650Y-10050D01*
D19*
G01X01000Y-10450D02*
G01X01000Y-06300D01*
D19*
G01X01000Y-06300D02*
G01X05350Y-01950D01*
D19*
G01X05350Y-01950D02*
G01X05350Y-01700D01*
D19*
G01X01550Y-15000D02*
G01X02400Y-15000D01*
D19*
G01X02400Y-15000D02*
G01X04350Y-13050D01*
D19*
G01X04350Y-13050D02*
G01X04650Y-13050D01*
D19*
G01X30050Y-04900D02*
G01X30050Y-03700D01*
D19*
G01X30050Y-03700D02*
G01X29750Y-03400D01*
D19*
G01X29950Y-14650D02*
G01X31150Y-14650D01*
D19*
G01X31150Y-14650D02*
G01X31500Y-15000D01*
D19*
G01X29950Y-13350D02*
G01X30100Y-13350D01*
D19*
G01X30100Y-13350D02*
G01X32550Y-10900D01*
D19*
G01X32550Y-10900D02*
G01X32550Y-05500D01*
D19*
G01X32550Y-05500D02*
G01X31950Y-04900D01*
D19*
G01X32450Y-04100D02*
G01X32650Y-04100D01*
D19*
G01X32650Y-04100D02*
G01X33000Y-04450D01*
D19*
G01X33000Y-04450D02*
G01X33000Y-13500D01*
D19*
G01X33000Y-13500D02*
G01X31500Y-15000D01*
D19*
G01X30800Y-20000D02*
G01X30350Y-20000D01*
D19*
G01X30350Y-20000D02*
G01X29300Y-18950D01*
D19*
G01X29300Y-18950D02*
G01X29300Y-16350D01*
D19*
G01X27700Y-26500D02*
G01X28000Y-26500D01*
D19*
G01X28000Y-26500D02*
G01X31500Y-23000D01*
D19*
G01X00950Y-23600D02*
G01X01550Y-23000D01*
D19*
G01X02550Y-25250D02*
G01X02550Y-25100D01*
D19*
G01X02550Y-25100D02*
G01X04950Y-22700D01*
D19*
G01X04950Y-22700D02*
G01X06150Y-22700D01*
D19*
G01X00950Y-33900D02*
G01X00950Y-23600D01*
D19*
G01X05000Y-22700D02*
G01X05000Y-19100D01*
D19*
G01X05000Y-19100D02*
G01X03350Y-17450D01*
D19*
G01X03350Y-17450D02*
G01X03350Y-15950D01*
D19*
G01X03350Y-15950D02*
G01X02400Y-15000D01*
M02*
