G04 ( created by brdgerber.py ( brdgerber.py v0.1 2014-03-12 ) ) date 2020-10-08 04:24:02 EDT*
G04 Gerber Fmt 3.4, Leading zero omitted, Abs format*
%MOIN*%
%FSLAX34Y34*%
G01*
G70*
G90*
G04 APERTURE LIST*
%ADD11C,0.0550*%
%ADD12C,0.2440*%
%ADD10R,0.0550X0.0550*%
%ADD13R,0.0590X0.0354*%
%ADD14R,0.0629X0.0709*%
G04 APERTURE END LIST*
G54D11*
D10*
X01550Y-15000D03*
D11*
X01550Y-16000D03*
D10*
X31500Y-16000D03*
D11*
X31500Y-15000D03*
D12*
G01X02000Y-42000D02*
G01X02000Y-42000D01*
D10*
X31500Y-23000D03*
D11*
X31500Y-22000D03*
D10*
X31500Y-20000D03*
D11*
X31500Y-19000D03*
D11*
X31500Y-18000D03*
D10*
X01550Y-22000D03*
D11*
X01550Y-23000D03*
D10*
X01550Y-18000D03*
D11*
X01550Y-19000D03*
D11*
X01550Y-20000D03*
D13*
X12936Y03249D03*
D13*
X12936Y01951D03*
D13*
X14864Y03249D03*
D13*
X14864Y01951D03*
D14*
X13391Y00700D03*
D14*
X14509Y00700D03*
D13*
X17836Y-40501D03*
D13*
X17836Y-41799D03*
D13*
X19764Y-40501D03*
D13*
X19764Y-41799D03*
D13*
X25186Y03299D03*
D13*
X25186Y02001D03*
D13*
X27114Y03299D03*
D13*
X27114Y02001D03*
D13*
X24336Y-35651D03*
D13*
X24336Y-36949D03*
D13*
X26264Y-35651D03*
D13*
X26264Y-36949D03*
D13*
X30036Y-04901D03*
D13*
X30036Y-06199D03*
D13*
X31964Y-04901D03*
D13*
X31964Y-06199D03*
D13*
X29964Y-14649D03*
D13*
X29964Y-13351D03*
D13*
X28036Y-14649D03*
D13*
X28036Y-13351D03*
D13*
X25786Y-26501D03*
D13*
X25786Y-27799D03*
D13*
X27714Y-26501D03*
D13*
X27714Y-27799D03*
D13*
X05086Y-40451D03*
D13*
X05086Y-41749D03*
D13*
X07014Y-40451D03*
D13*
X07014Y-41749D03*
D13*
X00936Y-33901D03*
D13*
X00936Y-35199D03*
D13*
X02864Y-33901D03*
D13*
X02864Y-35199D03*
D13*
X04114Y-27849D03*
D13*
X04114Y-26551D03*
D13*
X02186Y-27849D03*
D13*
X02186Y-26551D03*
D13*
X06564Y-14349D03*
D13*
X06564Y-13051D03*
D13*
X04636Y-14349D03*
D13*
X04636Y-13051D03*
D13*
X08264Y-06199D03*
D13*
X08264Y-04901D03*
D13*
X06336Y-06199D03*
D13*
X06336Y-04901D03*
D13*
X11014Y-20199D03*
D13*
X11014Y-18901D03*
D13*
X09086Y-20199D03*
D13*
X09086Y-18901D03*
D13*
X21686Y-18901D03*
D13*
X21686Y-20199D03*
D13*
X23614Y-18901D03*
D13*
X23614Y-20199D03*
D13*
X13364Y-10099D03*
D13*
X13364Y-08801D03*
D13*
X11436Y-10099D03*
D13*
X11436Y-08801D03*
D13*
X23236Y-08151D03*
D13*
X23236Y-09449D03*
D13*
X25164Y-08151D03*
D13*
X25164Y-09449D03*
D13*
X21614Y-30999D03*
D13*
X21614Y-29701D03*
D13*
X19686Y-30999D03*
D13*
X19686Y-29701D03*
D13*
X14914Y-33099D03*
D13*
X14914Y-31801D03*
D13*
X12986Y-33099D03*
D13*
X12986Y-31801D03*
D13*
X10014Y-30149D03*
D13*
X10014Y-28851D03*
D13*
X08086Y-30149D03*
D13*
X08086Y-28851D03*
D14*
X25591Y00550D03*
D14*
X26709Y00550D03*
D14*
X30591Y-07550D03*
D14*
X31709Y-07550D03*
D14*
X29609Y-11950D03*
D14*
X28491Y-11950D03*
D14*
X26241Y-29150D03*
D14*
X27359Y-29150D03*
D14*
X24791Y-38300D03*
D14*
X25909Y-38300D03*
D14*
X18341Y-43100D03*
D14*
X19459Y-43100D03*
D14*
X05541Y-43150D03*
D14*
X06659Y-43150D03*
D14*
X01441Y-36600D03*
D14*
X02559Y-36600D03*
D14*
X03659Y-25250D03*
D14*
X02541Y-25250D03*
D14*
X06109Y-11550D03*
D14*
X04991Y-11550D03*
D14*
X07809Y-03500D03*
D14*
X06691Y-03500D03*
D14*
X12859Y-07400D03*
D14*
X11741Y-07400D03*
D14*
X18491Y-07900D03*
D14*
X19609Y-07900D03*
D14*
X23691Y-10850D03*
D14*
X24809Y-10850D03*
D14*
X10559Y-17450D03*
D14*
X09441Y-17450D03*
D14*
X22091Y-21650D03*
D14*
X23209Y-21650D03*
D14*
X21159Y-28400D03*
D14*
X20041Y-28400D03*
D14*
X14509Y-30500D03*
D14*
X13391Y-30500D03*
D14*
X09559Y-27450D03*
D14*
X08441Y-27450D03*
D13*
X18036Y-05301D03*
D13*
X18036Y-06599D03*
D13*
X19964Y-05301D03*
D13*
X19964Y-06599D03*
D12*
G01X30000Y04000D02*
G01X30000Y04000D01*
D12*
G01X30000Y-42000D02*
G01X30000Y-42000D01*
D12*
G01X02000Y04000D02*
G01X02000Y04000D01*
M02*
