<?xml version="1.0" encoding="UTF-8" standalone="no"?>
<!-- Created with Inkscape (http://www.inkscape.org/) -->

<svg
   xmlns:dc="http://purl.org/dc/elements/1.1/"
   xmlns:cc="http://creativecommons.org/ns#"
   xmlns:rdf="http://www.w3.org/1999/02/22-rdf-syntax-ns#"
   xmlns:svg="http://www.w3.org/2000/svg"
   xmlns="http://www.w3.org/2000/svg"
   xmlns:sodipodi="http://sodipodi.sourceforge.net/DTD/sodipodi-0.dtd"
   xmlns:inkscape="http://www.inkscape.org/namespaces/inkscape"
   width="210mm"
   height="297mm"
   viewBox="0 0 744.09448819 1052.3622047"
   id="svg4185"
   version="1.1"
   inkscape:version="0.91 r13725"
   sodipodi:docname="gear0.svg">
  <defs
     id="defs4187" />
  <sodipodi:namedview
     id="base"
     pagecolor="#ffffff"
     bordercolor="#666666"
     borderopacity="1.0"
     inkscape:pageopacity="0.0"
     inkscape:pageshadow="2"
     inkscape:zoom="0.35"
     inkscape:cx="-133.57143"
     inkscape:cy="520"
     inkscape:document-units="px"
     inkscape:current-layer="layer1"
     showgrid="false"
     inkscape:window-width="1920"
     inkscape:window-height="1055"
     inkscape:window-x="1440"
     inkscape:window-y="0"
     inkscape:window-maximized="1" />
  <metadata
     id="metadata4190">
    <rdf:RDF>
      <cc:Work
         rdf:about="">
        <dc:format>image/svg+xml</dc:format>
        <dc:type
           rdf:resource="http://purl.org/dc/dcmitype/StillImage" />
        <dc:title></dc:title>
      </cc:Work>
    </rdf:RDF>
  </metadata>
  <g
     inkscape:label="Layer 1"
     inkscape:groupmode="layer"
     id="layer1">
    <g
       transform="translate(139.89478,-908.56507)"
       id="g4166">
      <path
         inkscape:connector-curvature="0"
         id="path20"
         style="fill:none;stroke:#000000"
         d="m 127.43104,1068.7987 0.308,-1.7798 0.10312,-1.8033 -1.61861,-0.8862 -1.55559,-0.7762 -1.42889,-0.6462 -1.29479,-0.5272 -1.15391,-0.4194 -1.21637,-0.3903 -0.34729,-0.178 -0.1605,-0.1842 0.23224,-4.0612 0.18045,-0.1648 0.36531,-0.1372 1.25294,-0.2491 1.19419,-0.2851 1.34644,-0.3761 1.49324,-0.4792 1.63393,-0.5938 1.70908,-0.6959 0.10311,-1.8033 -0.10311,-1.8033 -1.70908,-0.6959 -1.63393,-0.5938 -1.49324,-0.4791 -1.34644,-0.3762 -1.19419,-0.2851 -1.25294,-0.2491 -0.36531,-0.1372 -0.18045,-0.1647 -0.23224,-4.0613 0.1605,-0.1842 0.34729,-0.178 1.21637,-0.3903 1.15391,-0.4194 1.29479,-0.5272 1.42889,-0.6462 1.55559,-0.7762 1.61861,-0.8862 -0.10312,-1.8033 -0.308,-1.7798 -1.77726,-0.4965 -1.69097,-0.4037 -1.53813,-0.3058 -1.38054,-0.2202 -1.21891,-0.1471 -1.27317,-0.1047 -0.37857,-0.095 -0.19805,-0.1431 -0.69367,-4.0083 0.13845,-0.2013 0.32474,-0.2164 1.16395,-0.5264 1.09859,-0.5482 1.22625,-0.6713 1.34591,-0.805 1.45697,-0.9484 1.50704,-1.0649 -0.308,-1.7798 -0.50888,-1.7331 -1.82227,-0.2907 -1.72596,-0.2083 -1.56297,-0.1285 -1.39665,-0.061 -1.22773,-0.01 -1.2768,0.041 -0.3869,-0.051 -0.21306,-0.1195 -1.14607,-3.9032 0.1146,-0.2157 0.29796,-0.252 1.09636,-0.6557 1.02893,-0.6698 1.14173,-0.8068 1.24538,-0.9531 1.33936,-1.1084 1.37583,-1.2297 -0.50887,-1.7331 -0.70312,-1.6637 -1.84353,-0.081 -1.73846,-0.01 -1.56742,0.05 -1.39455,0.098 -1.22055,0.1328 -1.26379,0.1864 -0.39017,-0.01 -0.22531,-0.095 -1.58352,-3.747 0.0893,-0.2275 0.26729,-0.2843 1.01447,-0.7764 0.94587,-0.7827 1.04232,-0.9317 1.12862,-1.0888 1.20428,-1.25382 1.22669,-1.37856 -0.70311,-1.66376 -0.88819,-1.57278 -1.84076,0.12961 -1.72829,0.18803 -1.55145,0.22885 -1.37426,0.25651 -1.19746,0.27106 -1.2343,0.32926 -0.38837,0.038 -0.23461,-0.0682 -2.00033,-3.54213 0.0627,-0.23612 0.23314,-0.31294 0.91935,-0.88696 0.85049,-0.88547 0.92933,-1.04438 0.99714,-1.21041 1.0535,-1.38292 1.06155,-1.50941 -0.88818,-1.57277 -1.06168,-1.46127 -1.81399,0.33859 -1.69559,0.38381 -1.51525,0.40421 -1.33607,0.4115 -1.158749,0.40579 -1.188722,0.46782 -0.381503,0.0821 -0.240854,-0.041 -2.391068,-3.29102 0.03543,-0.24173 0.195945,-0.33747 0.812256,-0.98598 0.744005,-0.97665 0.80422,-1.14351 0.852667,-1.31618 0.888997,-1.494 0.882576,-1.62057 -1.061685,-1.46128 -1.221331,-1.33073 -1.763567,0.54316 -1.640784,0.5746 -1.459301,0.5743 -1.280449,0.56112 -1.104943,0.53523 -1.127646,0.60027 -0.369661,0.12503 -0.243958,-0.0133 -2.750631,-2.99702 0.0076,-0.24419 0.1562,-0.35761 0.694568,-1.07214 0.627826,-1.05509 0.668628,-1.22773 0.697075,-1.40481 0.712899,-1.58559 0.692085,-1.71062 -1.221331,-1.33072 -1.365061,-1.18284 -1.690156,0.74065 -1.564589,0.75789 -1.384324,0.73691 -1.20814,0.70341 -1.036729,0.6577 -1.05187,0.7249 -0.353,0.16635 -0.243881,0.0146 -3.074335,-2.66393 -0.02024,-0.24348 0.114417,-0.37308 0.567826,-1.14433 0.503463,-1.11978 0.524318,-1.29594 0.532396,-1.47511 0.527509,-1.65652 0.492578,-1.77836 -1.365061,-1.18283 -1.490996,-1.01952 -1.594712,0.92849 -1.467998,0.93129 -1.291299,0.88991 -1.120083,0.83654 -0.954998,0.77159 -0.962382,0.84008 -0.331737,0.20551 -0.240625,0.0423 -3.357961,-2.29612 -0.04786,-0.23958 0.07114,-0.38369 0.433681,-1.2016 0.372536,-1.16987 0.373174,-1.34727 0.360776,-1.52618 0.335241,-1.70585 0.286649,-1.82292 -1.490996,-1.01952 -1.597493,-0.84291 -1.478477,1.10422 -1.35227,1.09257 -1.181441,1.0313 -1.017422,0.95877 -0.860819,0.87542 -0.860347,0.94431 -0.306149,0.24198 -0.234233,0.0695 -3.597809,-1.89837 -0.07486,-0.23256 0.02694,-0.3893 0.293883,-1.2432 0.236753,-1.20471 0.217164,-1.38103 0.184453,-1.55736 0.138603,-1.73295 0.07698,-1.84371 -1.597493,-0.84291 -1.683166,-0.65531 -1.342968,1.26555 -1.218913,1.23959 -1.05618,1.15925 -0.901498,1.0685 -0.755418,0.96785 -0.747096,1.03622 -0.27657,0.2753 -0.224786,0.0957 -3.790756,-1.47587 -0.100886,-0.22252 -0.01761,-0.38983 0.150253,-1.2686 0.09788,-1.22384 0.05832,-1.39679 0.0057,-1.56823 -0.05984,-1.73745 -0.133684,-1.84047 -1.683166,-0.65532 -1.746894,-0.45917 -1.189953,1.41039 -1.069664,1.37046 -0.917151,1.27209 -0.773822,1.1643 -0.640168,1.04764 -0.624105,1.11463 -0.243386,0.30503 -0.21241,0.12073 -3.934284,-1.03415 -0.125592,-0.20956 -0.06193,-0.38529 0.0047,-1.27745 -0.04226,-1.22703 -0.101278,-1.39432 -0.173077,-1.55866 -0.257507,-1.71931 -0.342611,-1.81323 -1.746894,-0.45918 -1.78785,-0.25706 -1.021424,1.53685 -0.906471,1.48345 -0.766166,1.36835 -0.636058,1.24492 -0.516572,1.11379 -0.492979,1.17851 -0.207028,0.33079 -0.197264,0.14414 -4.026523,-0.57892 -0.148663,-0.19389 -0.105448,-0.37571 -0.140986,-1.26966 -0.181856,-1.21421 -0.259559,-1.37369 -0.349623,-1.52877 -0.451815,-1.67875 -0.54707,-1.76236 -1.78785,-0.25705 -1.805498,-0.0516 -0.839579,1.64326 -0.731462,1.57711 -0.605191,1.44677 -0.490002,1.30931 -0.386243,1.16541 -0.355425,1.22702 -0.167972,0.35223 -0.179547,0.1657 -4.066269,-0.11617 -0.169795,-0.17567 -0.14759,-0.36124 -0.284796,-1.24532 -0.319081,-1.18556 -0.414456,-1.33515 -0.52161,-1.47895 -0.640233,-1.61631 -0.744398,-1.6885 -1.805498,-0.0516 -1.79961,0.15457 -0.646788,1.72825 -0.546917,1.65021 -0.436328,1.50632 -0.337558,1.35664 -0.250877,1.20184 -0.213239,1.25954 -0.126726,0.36908 -0.159489,0.18509 -4.053005,0.34811 -0.188714,-0.15518 -0.187806,-0.34206 -0.424895,-1.20473 -0.452145,-1.14147 -0.56395,-1.2792 -0.686798,-1.40985 -0.820305,-1.53279 -0.932021,-1.59265 -1.799609,0.15457 -1.77026,0.3587 -0.445567,1.79072 -0.35524,1.7018 -0.261777,1.54624 -0.180713,1.38627 -0.112242,1.22261 -0.06827,1.27564 -0.08383,0.38112 -0.137351,0.20205 -3.986906,0.80785 -0.205172,-0.13265 -0.225574,-0.31842 -0.559455,-1.14845 -0.579315,-1.08248 -0.706091,-1.20658 -0.843033,-1.32237 -0.989683,-1.42929 -1.107494,-1.47603 -1.770259,0.35871 -1.717832,0.55815 -0.238536,1.82984 -0.158934,1.7312 -0.08381,1.566 -0.02151,1.39783 0.02786,1.22744 0.07758,1.2751 -0.03984,0.3882 -0.113424,0.21639 -3.86883,1.25706 -0.218955,-0.1084 -0.260403,-0.29064 -0.68672,-1.07718 -0.698933,-1.00939 -0.839028,-1.11822 -0.988278,-1.21766 -1.146157,-1.30716 -1.26853,-1.34016 -1.717831,0.55816 -1.643009,0.75034 -0.0284,1.84509 0.03945,1.73804 0.09524,1.56535 0.137968,1.39117 0.167592,1.21626 0.22243,1.25795 0.0047,0.3902 -0.08802,0.22792 -3.700317,1.68988 -0.229885,-0.0827 -0.291835,-0.25906 -0.805034,-0.99188 -0.809439,-0.92314 -0.961028,-1.01529 -1.120638,-1.09707 -1.287691,-1.16798 -1.413027,-1.18682 -1.643009,0.75034 -1.546768,0.93273 0.182114,1.83631 0.237309,1.72221 0.27306,1.54429 0.295651,1.36637 0.305143,1.18923 0.364375,1.2244 0.04912,0.38712 -0.06146,0.23647 -3.483566,2.10066 -0.237817,-0.056 -0.319464,-0.2241 -0.912853,-0.89365 -0.909392,-0.82485 -1.070499,-0.89913 -1.238389,-0.96217 -1.412438,-1.01359 -1.539104,-1.01801 -1.546767,0.93274 -1.430362,1.10297 0.39025,1.80358 0.43208,1.68393 0.447315,1.5031 0.449479,1.32377 0.438716,1.14669 0.501571,1.17488 0.09293,0.379 -0.03411,0.24193 -3.221401,2.48407 -0.242649,-0.0285 -0.342928,-0.18623 -1.008771,-0.78377 -0.99749,-0.71581 -1.166014,-0.77124 -1.339996,-0.81474 -1.518771,-0.84597 -1.645117,-0.83593 -1.430361,1.10297 -1.295309,1.25884 0.593299,1.74733 0.621218,1.62371 0.615739,1.44231 0.597447,1.2639 0.566569,1.08921 0.632228,1.11004 0.13553,0.36594 -0.0063,0.24424 -2.917241,2.83509 -0.244317,-6.7e-4 -0.361921,-0.14592 -1.091539,-0.66367 -1.072585,-0.59744 -1.246327,-0.6333 -1.424135,-0.65667 -1.605305,-0.66733 -1.729682,-0.64296 -1.295309,1.25884 -1.143369,1.39828 0.788613,1.66832 0.802257,1.54231 0.776137,1.36271 0.737626,1.18756 0.687037,1.01753 0.754642,1.03074 0.176361,0.3481 0.02157,0.24337 -2.575049,3.14915 -0.242802,0.0272 -0.376195,-0.10372 -1.160077,-0.53492 -1.133697,-0.47128 -1.310393,-0.4871 -1.489707,-0.49005 -1.670913,-0.47999 -1.79169,-0.44159 -1.14337,1.39828 -0.97653,1.5195 0.97365,1.56755 0.97284,1.4408 0.92641,1.26536 0.86819,1.09574 0.79855,0.93257 0.867215,0.938 0.214892,0.32574 0.04917,0.23932 -2.199287,3.42215 -0.23812,0.0547 -0.38557,-0.0602 -1.21349,-0.39919 -1.18003,-0.33898 -1.35738,-0.33454 -1.53586,-0.31705 -1.71473,-0.28639 -1.83036,-0.23448 -0.97652,1.5195 -0.79695,1.62091 1.14599,1.44634 1.13073,1.32052 1.06462,1.15151 0.98743,0.98963 0.89965,0.83547 0.96849,0.83303 0.25062,0.29911 0.0761,0.23216 -1.79486,3.65052 -0.23033,0.082 -0.38991,-0.016 -1.25109,-0.2583 -1.21098,-0.2022 -1.38666,-0.1777 -1.56199,-0.1399 -1.7362,-0.089 -1.84516,-0.024 -0.79695,1.6209 -0.60698,1.7012 1.30339,1.3062 1.27389,1.1831 1.18894,1.0226 1.09381,0.8706 0.98902,0.7275 1.05713,0.7172 0.28309,0.2686 0.1021,0.222 -1.36703,3.8313 -0.21954,0.1072 -0.38917,0.029 -1.27237,-0.1139 -1.22614,-0.063 -1.39788,-0.018 -1.56775,0.039 -1.73504,0.1095 -1.8359,0.1861 -0.60699,1.7012 -0.4091,1.7593 1.44379,1.1492 1.40045,1.0301 1.29776,0.8805 1.18592,0.7402 1.0655,0.61 1.132,0.592 0.31186,0.2346 0.12674,0.2089 -0.92138,3.9622 -0.20589,0.1315 -0.38336,0.073 -1.27707,0.032 -1.22532,0.077 -1.39086,0.1411 -1.55308,0.2175 -1.71126,0.3065 -1.80271,0.3943 -0.4091,1.7592 -0.2059,1.7945 1.56539,0.9771 1.50873,0.8638 1.38967,0.7267 1.26258,0.6003 1.12808,0.4846 1.19211,0.4591 0.33656,0.1975 0.14972,0.193 -0.4637,4.0415 -0.18956,0.1541 -0.37255,0.1161 -1.26512,0.1772 -1.20852,0.2165 -1.36572,0.2986 -1.51816,0.3932 -1.66517,0.4996 -1.74601,0.5971 -0.2059,1.7945 0,1.8062 1.66657,0.7923 1.59736,0.6862 1.46345,0.5636 1.32277,0.4524 1.17597,0.3528 1.23667,0.3203 0.35689,0.1578 0.17075,0.1747 0,4.068 -0.17075,0.1747 -0.35689,0.1579 -1.23667,0.3202 -1.17597,0.3528 -1.32277,0.4524 -1.46345,0.5636 -1.59736,0.6862 -1.66657,0.7923 0,1.8062 0.2059,1.7945 1.74601,0.5972 1.66517,0.4995 1.51816,0.3932 1.36572,0.2986 1.20852,0.2165 1.26512,0.1772 0.37255,0.1161 0.18956,0.1542 0.4637,4.0414 -0.14972,0.193 -0.33656,0.1975 -1.19211,0.4592 -1.12808,0.4845 -1.26258,0.6003 -1.38967,0.7267 -1.50873,0.8638 -1.56539,0.9771 0.2059,1.7945 0.4091,1.7593 1.80271,0.3942 1.71126,0.3065 1.55308,0.2175 1.39086,0.1411 1.22532,0.077 1.27707,0.032 0.38336,0.073 0.20589,0.1315 0.92138,3.9622 -0.12674,0.2089 -0.31186,0.2346 -1.132,0.592 -1.0655,0.61 -1.18592,0.7402 -1.29776,0.8805 -1.40045,1.0301 -1.44379,1.1492 0.4091,1.7593 0.60699,1.7012 1.8359,0.1862 1.73504,0.1094 1.56775,0.039 1.39788,-0.018 1.22614,-0.063 1.27237,-0.1139 0.38917,0.029 0.21954,0.1072 1.36703,3.8314 -0.1021,0.2219 -0.28309,0.2686 -1.05713,0.7172 -0.98902,0.7275 -1.09381,0.8706 -1.18894,1.0227 -1.27389,1.183 -1.30339,1.3063 0.60698,1.7011 0.79695,1.621 1.84516,-0.024 1.7362,-0.089 1.56199,-0.1399 1.38666,-0.1777 1.21098,-0.2022 1.25109,-0.2583 0.38991,-0.016 0.23033,0.082 1.79486,3.6505 -0.0761,0.2322 -0.25062,0.2991 -0.96849,0.833 -0.89965,0.8355 -0.98743,0.9896 -1.06462,1.1515 -1.13073,1.3206 -1.14599,1.4463 0.79695,1.6209 0.97652,1.5195 1.83036,-0.2345 1.71473,-0.2863 1.53586,-0.3171 1.35738,-0.3345 1.18003,-0.339 1.21349,-0.3992 0.38557,-0.06 0.23812,0.055 2.199287,3.4222 -0.04917,0.2393 -0.214892,0.3257 -0.867215,0.938 -0.79855,0.9326 -0.86819,1.0957 -0.92641,1.2654 -0.97284,1.4408 -0.97365,1.5676 0.97653,1.5195 1.14337,1.3982 1.79169,-0.4416 1.670913,-0.4799 1.489707,-0.4901 1.310393,-0.4871 1.133697,-0.4713 1.160077,-0.5349 0.376195,-0.1037 0.242802,0.027 2.575049,3.1491 -0.02157,0.2434 -0.176361,0.3481 -0.754642,1.0307 -0.687037,1.0176 -0.737626,1.1875 -0.776137,1.3627 -0.802257,1.5423 -0.788613,1.6684 1.143369,1.3982 1.295309,1.2589 1.729682,-0.643 1.605305,-0.6673 1.424135,-0.6567 1.246327,-0.6333 1.072585,-0.5974 1.091539,-0.6637 0.361921,-0.1459 0.244317,-7e-4 2.917241,2.8351 0.0063,0.2442 -0.13553,0.366 -0.632228,1.11 -0.566569,1.0892 -0.597447,1.2639 -0.615739,1.4423 -0.621218,1.6238 -0.593299,1.7473 1.295309,1.2588 1.430361,1.103 1.645117,-0.8359 1.518771,-0.846 1.339996,-0.8147 1.166014,-0.7713 0.99749,-0.7158 1.008771,-0.7838 0.342928,-0.1862 0.242649,-0.029 3.221401,2.4841 0.03411,0.2419 -0.09293,0.379 -0.501571,1.1749 -0.438716,1.1467 -0.449479,1.3237 -0.447315,1.5031 -0.43208,1.684 -0.39025,1.8035 1.430362,1.103 1.546767,0.9328 1.539104,-1.0181 1.412438,-1.0135 1.238389,-0.9622 1.070499,-0.8991 0.909392,-0.8249 0.912853,-0.8936 0.319464,-0.2241 0.237817,-0.056 3.483566,2.1006 0.06146,0.2365 -0.04912,0.3871 -0.364375,1.2244 -0.305143,1.1892 -0.295651,1.3664 -0.27306,1.5443 -0.237309,1.7222 -0.182114,1.8363 1.546768,0.9328 1.643009,0.7503 1.413027,-1.1868 1.287691,-1.168 1.120638,-1.0971 0.961028,-1.0153 0.809439,-0.9231 0.805034,-0.9919 0.291835,-0.259 0.229885,-0.083 3.700317,1.6899 0.08802,0.2279 -0.0047,0.3902 -0.22243,1.258 -0.167592,1.2162 -0.137968,1.3912 -0.09524,1.5653 -0.03945,1.7381 0.0284,1.8451 1.643009,0.7503 1.717831,0.5582 1.26853,-1.3402 1.146157,-1.3071 0.988278,-1.2177 0.839028,-1.1182 0.698933,-1.0094 0.68672,-1.0772 0.260403,-0.2906 0.218955,-0.1084 3.86883,1.257 0.113424,0.2164 0.03984,0.3882 -0.07758,1.2751 -0.02786,1.2275 0.02151,1.3978 0.08381,1.566 0.158934,1.7312 0.238536,1.8298 1.717832,0.5582 1.770259,0.3587 1.107494,-1.476 0.989683,-1.4293 0.843033,-1.3224 0.706091,-1.2066 0.579315,-1.0825 0.559455,-1.1484 0.225574,-0.3184 0.205172,-0.1327 3.986906,0.8079 0.137351,0.202 0.08383,0.3811 0.06827,1.2757 0.112242,1.2226 0.180713,1.3863 0.261777,1.5462 0.35524,1.7018 0.445567,1.7907 1.77026,0.3587 1.799609,0.1546 0.932021,-1.5927 0.820305,-1.5327 0.686798,-1.4099 0.56395,-1.2792 0.452145,-1.1415 0.424895,-1.2047 0.187806,-0.3421 0.188714,-0.1551 4.053005,0.3481 0.159489,0.1851 0.126726,0.369 0.213239,1.2596 0.250877,1.2018 0.337558,1.3567 0.436328,1.5063 0.546917,1.6502 0.646788,1.7282 1.79961,0.1546 1.805498,-0.052 0.744398,-1.6885 0.640233,-1.6163 0.52161,-1.4789 0.414456,-1.3352 0.319081,-1.1855 0.284796,-1.2454 0.14759,-0.3612 0.169795,-0.1757 4.066269,-0.1161 0.179547,0.1657 0.167972,0.3522 0.355425,1.227 0.386243,1.1654 0.490002,1.3093 0.605191,1.4468 0.731462,1.5771 0.839579,1.6433 1.805498,-0.052 1.78785,-0.2571 0.54707,-1.7623 0.451815,-1.6788 0.349623,-1.5287 0.259559,-1.3737 0.181856,-1.2142 0.140986,-1.2697 0.105448,-0.3757 0.148663,-0.1939 4.026523,-0.5789 0.197264,0.1441 0.207028,0.3308 0.492979,1.1785 0.516572,1.1138 0.636058,1.2449 0.766166,1.3684 0.906471,1.4834 1.021424,1.5369 1.78785,-0.2571 1.746894,-0.4592 0.342611,-1.8132 0.257507,-1.7193 0.173077,-1.5587 0.101278,-1.3943 0.04226,-1.227 -0.0047,-1.2775 0.06193,-0.3852 0.125592,-0.2096 3.934284,-1.0342 0.21241,0.1208 0.243386,0.305 0.624105,1.1146 0.640168,1.0477 0.773822,1.1643 0.917151,1.2721 1.069664,1.3704 1.189953,1.4104 1.746894,-0.4592 1.683166,-0.6553 0.133684,-1.8404 0.05984,-1.7375 -0.0057,-1.5682 -0.05832,-1.3968 -0.09788,-1.2239 -0.150253,-1.2686 0.01761,-0.3898 0.100886,-0.2225 3.790756,-1.4759 0.224786,0.096 0.27657,0.2753 0.747096,1.0363 0.755418,0.9678 0.901498,1.0685 1.05618,1.1593 1.218913,1.2396 1.342968,1.2655 1.683166,-0.6553 1.597493,-0.8429 -0.07698,-1.8437 -0.138603,-1.733 -0.184453,-1.5573 -0.217164,-1.3811 -0.236753,-1.2047 -0.293883,-1.2432 -0.02694,-0.3893 0.07486,-0.2325 3.597809,-1.8984 0.234233,0.07 0.306149,0.2419 0.860347,0.9443 0.860819,0.8755 1.017422,0.9587 1.181441,1.0313 1.35227,1.0926 1.478477,1.1042 1.597493,-0.8429 1.490996,-1.0195 -0.286649,-1.8229 -0.335241,-1.7059 -0.360776,-1.5262 -0.373174,-1.3472 -0.372536,-1.1699 -0.433681,-1.2016 -0.07114,-0.3837 0.04786,-0.2396 3.357961,-2.2961 0.240625,0.042 0.331737,0.2055 0.962382,0.8401 0.954998,0.7716 1.120083,0.8366 1.291299,0.8899 1.467998,0.9313 1.594712,0.9285 1.490996,-1.0196 1.365061,-1.1828 -0.492578,-1.7784 -0.527509,-1.6565 -0.532396,-1.4751 -0.524318,-1.2959 -0.503463,-1.1198 -0.567826,-1.1443 -0.114417,-0.3731 0.02024,-0.2435 3.074335,-2.6639 0.243881,0.015 0.353,0.1663 1.05187,0.7249 1.036729,0.6577 1.20814,0.7035 1.384324,0.7369 1.564589,0.7578 1.690156,0.7407 1.365061,-1.1828 1.221331,-1.3308 -0.692085,-1.7106 -0.712899,-1.5856 -0.697075,-1.4048 -0.668628,-1.2277 -0.627826,-1.0551 -0.694568,-1.0721 -0.1562,-0.3576 -0.0076,-0.2442 2.750631,-2.9971 0.243958,-0.013 0.369661,0.125 1.127646,0.6003 1.104943,0.5352 1.280449,0.5611 1.459301,0.5743 1.640784,0.5746 1.763567,0.5432 1.221331,-1.3308 1.061685,-1.4612 -0.882576,-1.6206 -0.888997,-1.494 -0.852667,-1.3162 -0.80422,-1.1435 -0.744005,-0.9766 -0.812256,-0.986 -0.195945,-0.3375 -0.03543,-0.2417 2.391068,-3.2911 0.240854,-0.041 0.381503,0.082 1.188722,0.4678 1.158749,0.4058 1.33607,0.4115 1.51525,0.4042 1.69559,0.3838 1.81399,0.3386 1.06168,-1.4612 0.88818,-1.5728 -1.06155,-1.5094 -1.0535,-1.3829 -0.99714,-1.2104 -0.92933,-1.0444 -0.85049,-0.8855 -0.91935,-0.887 -0.23314,-0.3129 -0.0627,-0.2361 2.00033,-3.5421 0.23461,-0.068 0.38837,0.038 1.2343,0.3293 1.19746,0.271 1.37426,0.2565 1.55145,0.2289 1.72829,0.188 1.84076,0.1296 0.88819,-1.5727 0.70311,-1.6638 -1.22669,-1.3786 -1.20428,-1.2538 -1.12862,-1.0888 -1.04232,-0.9317 -0.94587,-0.7827 -1.01447,-0.7764 -0.26729,-0.2843 -0.0893,-0.2275 1.58352,-3.747 0.22531,-0.094 0.39017,-0.01 1.26379,0.1864 1.22055,0.1328 1.39455,0.098 1.56742,0.05 1.73846,-0.01 1.84353,-0.081 0.70312,-1.6637 0.50887,-1.7331 -1.37583,-1.2297 -1.33936,-1.1084 -1.24538,-0.9531 -1.14173,-0.8068 -1.02893,-0.6698 -1.09636,-0.6557 -0.29796,-0.252 -0.1146,-0.2157 1.14607,-3.9032 0.21306,-0.1195 0.3869,-0.051 1.2768,0.041 1.22773,-0.01 1.39665,-0.061 1.56297,-0.1285 1.72596,-0.2083 1.82227,-0.2907 0.50888,-1.7331 0.308,-1.7798 -1.50704,-1.0649 -1.45697,-0.9484 -1.34591,-0.805 -1.22625,-0.6713 -1.09859,-0.5482 -1.16395,-0.5264 -0.32474,-0.2164 -0.13845,-0.2013 0.69367,-4.0083 0.19805,-0.1431 0.37857,-0.095 1.27317,-0.1047 1.21891,-0.1471 1.38054,-0.2202 1.53813,-0.3058 1.69097,-0.4037 1.77726,-0.4965 0,0 z" />
      <path
         inkscape:connector-curvature="0"
         id="path22"
         style="fill:none;stroke:#000000"
         d="M 1.841737,1061.0269 0,1061.2205 l -1.841737,-0.1936 -1.761245,-0.5723 -1.603777,-0.9259 -1.376217,-1.2392 -1.088509,-1.4982 -0.753228,-1.6917 -0.385028,-1.8115 0,-1.8518 0.385028,-1.8115 0.753228,-1.6917 1.088509,-1.4982 1.376217,-1.2392 1.603777,-0.9259 1.761245,-0.5723 L 0,1043.5039 l 1.841737,0.1936 1.761245,0.5723 1.603777,0.9259 1.376217,1.2392 1.088509,1.4982 0.753228,1.6917 0.385028,1.8115 0,1.8518 -0.385028,1.8115 -0.753228,1.6917 -1.088509,1.4982 -1.376217,1.2392 -1.603777,0.9259 -1.761245,0.5723 0,0 z" />
    </g>
  </g>
</svg>
