<?xml version="1.0" encoding="UTF-8" standalone="no"?>
<svg
   xmlns:dc="http://purl.org/dc/elements/1.1/"
   xmlns:cc="http://creativecommons.org/ns#"
   xmlns:rdf="http://www.w3.org/1999/02/22-rdf-syntax-ns#"
   xmlns:svg="http://www.w3.org/2000/svg"
   xmlns="http://www.w3.org/2000/svg"
   xmlns:sodipodi="http://sodipodi.sourceforge.net/DTD/sodipodi-0.dtd"
   xmlns:inkscape="http://www.inkscape.org/namespaces/inkscape"
   width="744.094488189"
   height="1052.36220472"
   id="svg2"
   version="1.1"
   inkscape:version="0.91 r13725"
   sodipodi:docname="gear0_gear1.svg">
  <metadata
     id="metadata32">
    <rdf:RDF>
      <cc:Work
         rdf:about="">
        <dc:format>image/svg+xml</dc:format>
        <dc:type
           rdf:resource="http://purl.org/dc/dcmitype/StillImage" />
        <dc:title></dc:title>
      </cc:Work>
    </rdf:RDF>
  </metadata>
  <sodipodi:namedview
     pagecolor="#ffffff"
     bordercolor="#666666"
     borderopacity="1"
     objecttolerance="10"
     gridtolerance="10"
     guidetolerance="10"
     inkscape:pageopacity="0"
     inkscape:pageshadow="2"
     inkscape:window-width="1245"
     inkscape:window-height="805"
     id="namedview30"
     showgrid="false"
     inkscape:document-units="mm"
     inkscape:zoom="0.22425739"
     inkscape:cx="372.04724"
     inkscape:cy="526.18109"
     inkscape:window-x="1871"
     inkscape:window-y="131"
     inkscape:window-maximized="0"
     inkscape:current-layer="g18" />
  <desc
     id="desc4">/home/abe/play/art/laser-relief/gears/sz-70-100/openjscad.dxf - scale = 1.000000, origin = (0.000000, 0.000000), auto = False</desc>
  <defs
     id="defs6">
    <marker
       id="DistanceX"
       orient="auto"
       refX="0.0"
       refY="0.0"
       style="overflow:visible">
      <path
         d="M 3,-3 L -3,3 M 0,-5 L  0,5"
         style="stroke:#000000; stroke-width:0.5"
         id="path9" />
    </marker>
    <pattern
       height="8"
       id="Hatch"
       patternUnits="userSpaceOnUse"
       width="8"
       x="0"
       y="0">
      <path
         d="M8 4 l-4,4"
         linecap="square"
         stroke="#000000"
         stroke-width="0.25"
         id="path12" />
      <path
         d="M6 2 l-4,4"
         linecap="square"
         stroke="#000000"
         stroke-width="0.25"
         id="path14" />
      <path
         d="M4 0 l-4,4"
         linecap="square"
         stroke="#000000"
         stroke-width="0.25"
         id="path16" />
    </pattern>
  </defs>
  <g
     inkscape:groupmode="layer"
     inkscape:label="OpenJsCad"
     id="g18">
    <g
       id="g4166"
       transform="translate(147.15234,-900.75068)">
      <path
         id="path20"
         style="fill:none;stroke:#000000"
         d="m 127.43104,1068.7987 0.308,-1.7798 0.10312,-1.8033 -1.61861,-0.8862 -1.55559,-0.7762 -1.42889,-0.6462 -1.29479,-0.5272 -1.15391,-0.4194 -1.21637,-0.3903 -0.34729,-0.178 -0.1605,-0.1842 0.23224,-4.0612 0.18045,-0.1648 0.36531,-0.1372 1.25294,-0.2491 1.19419,-0.2851 1.34644,-0.3761 1.49324,-0.4792 1.63393,-0.5938 1.70908,-0.6959 0.10311,-1.8033 -0.10311,-1.8033 -1.70908,-0.6959 -1.63393,-0.5938 -1.49324,-0.4791 -1.34644,-0.3762 -1.19419,-0.2851 -1.25294,-0.2491 -0.36531,-0.1372 -0.18045,-0.1647 -0.23224,-4.0613 0.1605,-0.1842 0.34729,-0.178 1.21637,-0.3903 1.15391,-0.4194 1.29479,-0.5272 1.42889,-0.6462 1.55559,-0.7762 1.61861,-0.8862 -0.10312,-1.8033 -0.308,-1.7798 -1.77726,-0.4965 -1.69097,-0.4037 -1.53813,-0.3058 -1.38054,-0.2202 -1.21891,-0.1471 -1.27317,-0.1047 -0.37857,-0.095 -0.19805,-0.1431 -0.69367,-4.0083 0.13845,-0.2013 0.32474,-0.2164 1.16395,-0.5264 1.09859,-0.5482 1.22625,-0.6713 1.34591,-0.805 1.45697,-0.9484 1.50704,-1.0649 -0.308,-1.7798 -0.50888,-1.7331 -1.82227,-0.2907 -1.72596,-0.2083 -1.56297,-0.1285 -1.39665,-0.061 -1.22773,-0.01 -1.2768,0.041 -0.3869,-0.051 -0.21306,-0.1195 -1.14607,-3.9032 0.1146,-0.2157 0.29796,-0.252 1.09636,-0.6557 1.02893,-0.6698 1.14173,-0.8068 1.24538,-0.9531 1.33936,-1.1084 1.37583,-1.2297 -0.50887,-1.7331 -0.70312,-1.6637 -1.84353,-0.081 -1.73846,-0.01 -1.56742,0.05 -1.39455,0.098 -1.22055,0.1328 -1.26379,0.1864 -0.39017,-0.01 -0.22531,-0.095 -1.58352,-3.747 0.0893,-0.2275 0.26729,-0.2843 1.01447,-0.7764 0.94587,-0.7827 1.04232,-0.9317 1.12862,-1.0888 1.20428,-1.25382 1.22669,-1.37856 -0.70311,-1.66376 -0.88819,-1.57278 -1.84076,0.12961 -1.72829,0.18803 -1.55145,0.22885 -1.37426,0.25651 -1.19746,0.27106 -1.2343,0.32926 -0.38837,0.038 -0.23461,-0.0682 -2.00033,-3.54213 0.0627,-0.23612 0.23314,-0.31294 0.91935,-0.88696 0.85049,-0.88547 0.92933,-1.04438 0.99714,-1.21041 1.0535,-1.38292 1.06155,-1.50941 -0.88818,-1.57277 -1.06168,-1.46127 -1.81399,0.33859 -1.69559,0.38381 -1.51525,0.40421 -1.33607,0.4115 -1.158749,0.40579 -1.188722,0.46782 -0.381503,0.0821 -0.240854,-0.041 -2.391068,-3.29102 0.03543,-0.24173 0.195945,-0.33747 0.812256,-0.98598 0.744005,-0.97665 0.80422,-1.14351 0.852667,-1.31618 0.888997,-1.494 0.882574,-1.62057 -1.061683,-1.46128 -1.221331,-1.33073 -1.763567,0.54316 -1.640784,0.5746 -1.459301,0.5743 -1.280449,0.56112 -1.104943,0.53523 -1.127646,0.60027 -0.369661,0.12503 -0.243958,-0.0133 -2.750631,-2.99702 0.0076,-0.24419 0.1562,-0.35761 0.694568,-1.07214 0.627826,-1.05509 0.668628,-1.22773 0.697075,-1.40481 0.712899,-1.58559 0.692085,-1.71062 -1.221331,-1.33072 -1.365061,-1.18284 -1.690156,0.74065 -1.564589,0.75789 -1.384324,0.73691 -1.20814,0.70341 -1.036729,0.6577 -1.05187,0.7249 -0.353,0.16635 -0.243881,0.0146 -3.074335,-2.66393 -0.02024,-0.24348 0.114417,-0.37308 0.567826,-1.14433 0.503463,-1.11978 0.524318,-1.29594 0.532396,-1.47511 0.527509,-1.65652 0.492578,-1.77836 -1.365061,-1.18283 -1.490996,-1.01952 -1.594712,0.92849 -1.467998,0.93129 -1.291299,0.88991 -1.120083,0.83654 -0.954998,0.77159 -0.962382,0.84008 -0.331737,0.20551 -0.240625,0.0423 -3.357961,-2.29612 -0.04786,-0.23958 0.07114,-0.38369 0.433681,-1.2016 0.372536,-1.16987 0.373174,-1.34727 0.360776,-1.52618 0.335241,-1.70585 0.286649,-1.82292 -1.490996,-1.01952 -1.597493,-0.84291 -1.478477,1.10422 -1.35227,1.09257 -1.181441,1.0313 -1.017422,0.95877 -0.860819,0.87542 -0.860347,0.94431 -0.306149,0.24198 -0.234233,0.0695 -3.597809,-1.89837 -0.07486,-0.23256 0.02694,-0.3893 0.293883,-1.2432 0.236753,-1.20471 0.217164,-1.38103 0.184453,-1.55736 0.138603,-1.73295 0.07698,-1.84371 -1.597493,-0.84291 -1.683166,-0.65531 -1.342968,1.26555 -1.218913,1.23959 -1.05618,1.15925 -0.901498,1.0685 -0.755418,0.96785 -0.747096,1.03622 -0.27657,0.2753 -0.224786,0.0957 -3.790756,-1.47587 -0.100886,-0.22252 -0.01761,-0.38983 0.150253,-1.2686 0.09788,-1.22384 0.05832,-1.39679 0.0057,-1.56823 -0.05984,-1.73745 -0.133684,-1.84047 -1.683166,-0.65532 -1.746894,-0.45917 -1.189953,1.41039 -1.069664,1.37046 -0.917151,1.27209 -0.773822,1.1643 -0.640168,1.04764 -0.624105,1.11463 -0.243386,0.30503 -0.21241,0.12073 -3.934284,-1.03415 -0.125592,-0.20956 -0.06193,-0.38529 0.0047,-1.27745 -0.04226,-1.22703 -0.101278,-1.39432 -0.173077,-1.55866 -0.257507,-1.71931 -0.342611,-1.81323 -1.746894,-0.45918 -1.78785,-0.25706 -1.021424,1.53685 -0.906471,1.48345 -0.766166,1.36835 -0.636058,1.24492 -0.516572,1.11379 -0.492979,1.17851 -0.207028,0.33079 -0.197264,0.14414 -4.026523,-0.57892 -0.148663,-0.19389 -0.105448,-0.37571 -0.140986,-1.26966 -0.181856,-1.21421 -0.259559,-1.37369 -0.349623,-1.52877 -0.451815,-1.67875 -0.54707,-1.76236 -1.78785,-0.25705 -1.805498,-0.0516 -0.839579,1.64326 -0.731462,1.57711 -0.605191,1.44677 -0.490002,1.30931 -0.386243,1.16541 -0.355425,1.22702 -0.167972,0.35223 -0.179547,0.1657 -4.066269,-0.11617 -0.169795,-0.17567 -0.14759,-0.36124 -0.284796,-1.24532 -0.319081,-1.18556 -0.414456,-1.33515 -0.52161,-1.47895 -0.640233,-1.61631 -0.744398,-1.6885 -1.805498,-0.0516 -1.79961,0.15457 -0.646788,1.72825 -0.546917,1.65021 -0.436328,1.50632 -0.337558,1.35664 -0.250877,1.20184 -0.213239,1.25954 -0.126726,0.36908 -0.159489,0.18509 -4.053005,0.34811 -0.188714,-0.15518 -0.187806,-0.34206 -0.424895,-1.20473 -0.452145,-1.14147 -0.56395,-1.2792 -0.686798,-1.40985 -0.820305,-1.53279 -0.932021,-1.59265 -1.799609,0.15457 -1.77026,0.3587 -0.445567,1.79072 -0.35524,1.7018 -0.261777,1.54624 -0.180713,1.38627 -0.112242,1.22261 -0.06827,1.27564 -0.08383,0.38112 -0.137351,0.20205 -3.986906,0.80785 -0.205172,-0.13265 -0.225574,-0.31842 -0.559455,-1.14845 -0.579315,-1.08248 -0.706091,-1.20658 -0.843033,-1.32237 -0.989683,-1.42929 -1.107494,-1.47603 -1.770259,0.35871 -1.717832,0.55815 -0.238536,1.82984 -0.158934,1.7312 -0.08381,1.566 -0.02151,1.39783 0.02786,1.22744 0.07758,1.2751 -0.03984,0.3882 -0.113424,0.21639 -3.86883,1.25706 -0.218955,-0.1084 -0.260403,-0.29064 -0.68672,-1.07718 -0.698933,-1.00939 -0.839028,-1.11822 -0.988278,-1.21766 -1.146157,-1.30716 -1.26853,-1.34016 -1.717831,0.55816 -1.643009,0.75034 -0.0284,1.84509 0.03945,1.73804 0.09524,1.56535 0.137968,1.39117 0.167592,1.21626 0.22243,1.25795 0.0047,0.3902 -0.08802,0.22792 -3.700317,1.68988 -0.229885,-0.0827 -0.291835,-0.25906 -0.805034,-0.99188 -0.809439,-0.92314 -0.961028,-1.01529 -1.120638,-1.09707 -1.287691,-1.16798 -1.413027,-1.18682 -1.643009,0.75034 -1.546768,0.93273 0.182114,1.83631 0.237309,1.72221 0.27306,1.54429 0.295651,1.36637 0.305143,1.18923 0.364375,1.2244 0.04912,0.38712 -0.06146,0.23647 -3.483566,2.10066 -0.237817,-0.056 -0.319464,-0.2241 -0.912853,-0.89365 -0.909392,-0.82485 -1.070499,-0.89913 -1.238389,-0.96217 -1.412438,-1.01359 -1.539104,-1.01801 -1.546767,0.93274 -1.430362,1.10297 0.39025,1.80358 0.43208,1.68393 0.447315,1.5031 0.449479,1.32377 0.438716,1.14669 0.501571,1.17488 0.09293,0.379 -0.03411,0.24193 -3.221401,2.48407 -0.242649,-0.0285 -0.342928,-0.18623 -1.008771,-0.78377 -0.99749,-0.71581 -1.166014,-0.77124 -1.339996,-0.81474 -1.518771,-0.84597 -1.645117,-0.83593 -1.430361,1.10297 -1.295309,1.25884 0.593299,1.74733 0.621218,1.62371 0.615739,1.44231 0.597447,1.2639 0.566569,1.08921 0.632228,1.11004 0.13553,0.36594 -0.0063,0.24424 -2.917241,2.83509 -0.244317,-6.7e-4 -0.361921,-0.14592 -1.091539,-0.66367 -1.072585,-0.59744 -1.246327,-0.6333 -1.424135,-0.65667 -1.605305,-0.66733 -1.729682,-0.64296 -1.295309,1.25884 -1.143369,1.39828 0.788613,1.66832 0.802257,1.54231 0.776137,1.36271 0.737626,1.18756 0.687037,1.01753 0.754642,1.03074 0.176361,0.3481 0.02157,0.24337 -2.575049,3.14915 -0.242802,0.0272 -0.376195,-0.10372 -1.160077,-0.53492 -1.133697,-0.47128 -1.310393,-0.4871 -1.489707,-0.49005 -1.670916,-0.47999 -1.79169,-0.44159 -1.14337,1.39828 -0.97653,1.5195 0.97365,1.56755 0.97284,1.4408 0.92641,1.26536 0.86819,1.09574 0.79855,0.93257 0.867218,0.938 0.214892,0.32574 0.04917,0.23932 -2.199284,3.42215 -0.23812,0.0547 -0.38557,-0.0602 -1.21349,-0.39919 -1.18003,-0.33898 -1.35738,-0.33454 -1.53586,-0.31705 -1.71473,-0.28639 -1.83036,-0.23448 -0.97652,1.5195 -0.79695,1.62091 1.14599,1.44634 1.13073,1.32052 1.06462,1.15151 0.98743,0.98963 0.89965,0.83547 0.96849,0.83303 0.25062,0.29911 0.0761,0.23216 -1.79486,3.65053 -0.23033,0.082 -0.38991,-0.016 -1.25109,-0.2583 -1.21098,-0.2022 -1.38666,-0.1777 -1.56199,-0.1399 -1.7362,-0.089 -1.84516,-0.024 -0.79695,1.6209 -0.60698,1.7012 1.30339,1.3062 1.27389,1.1831 1.18894,1.0226 1.09381,0.8706 0.98902,0.7275 1.05713,0.7172 0.28309,0.2686 0.1021,0.222 -1.36703,3.8313 -0.21954,0.1072 -0.38917,0.029 -1.27237,-0.1139 -1.22614,-0.063 -1.39788,-0.018 -1.56775,0.039 -1.73504,0.1095 -1.8359,0.1861 -0.60699,1.7012 -0.4091,1.7593 1.44379,1.1492 1.40045,1.0301 1.29776,0.8805 1.18592,0.7402 1.0655,0.61 1.132,0.592 0.31186,0.2346 0.12674,0.2089 -0.92138,3.9622 -0.20589,0.1315 -0.38336,0.073 -1.27707,0.032 -1.22532,0.077 -1.39086,0.1411 -1.55308,0.2175 -1.71126,0.3065 -1.80271,0.3943 -0.4091,1.7592 -0.2059,1.7945 1.56539,0.9771 1.50873,0.8638 1.38967,0.7267 1.26258,0.6003 1.12808,0.4846 1.19211,0.4591 0.33656,0.1975 0.14972,0.193 -0.4637,4.0415 -0.18956,0.1541 -0.37255,0.1161 -1.26512,0.1772 -1.20852,0.2165 -1.36572,0.2986 -1.51816,0.3932 -1.66517,0.4996 -1.74601,0.5971 -0.2059,1.7945 0,1.8062 1.66657,0.7923 1.59736,0.6862 1.46345,0.5636 1.32277,0.4524 1.17597,0.3528 1.23667,0.3203 0.35689,0.1578 0.17075,0.1747 0,4.068 -0.17075,0.1747 -0.35689,0.1579 -1.23667,0.3202 -1.17597,0.3528 -1.32277,0.4524 -1.46345,0.5636 -1.59736,0.6862 -1.66657,0.7923 0,1.8062 0.2059,1.7945 1.74601,0.5972 1.66517,0.4995 1.51816,0.3932 1.36572,0.2986 1.20852,0.2165 1.26512,0.1772 0.37255,0.1161 0.18956,0.1542 0.4637,4.0414 -0.14972,0.193 -0.33656,0.1975 -1.19211,0.4592 -1.12808,0.4845 -1.26258,0.6003 -1.38967,0.7267 -1.50873,0.8638 -1.56539,0.9771 0.2059,1.7945 0.4091,1.7593 1.80271,0.3942 1.71126,0.3065 1.55308,0.2175 1.39086,0.1411 1.22532,0.077 1.27707,0.032 0.38336,0.073 0.20589,0.1315 0.92138,3.9622 -0.12674,0.2089 -0.31186,0.2346 -1.132,0.592 -1.0655,0.61 -1.18592,0.7402 -1.29776,0.8805 -1.40045,1.0301 -1.44379,1.1492 0.4091,1.7593 0.60699,1.7012 1.8359,0.1862 1.73504,0.1094 1.56775,0.039 1.39788,-0.018 1.22614,-0.063 1.27237,-0.1139 0.38917,0.029 0.21954,0.1072 1.36703,3.8314 -0.1021,0.2219 -0.28309,0.2686 -1.05713,0.7172 -0.98902,0.7275 -1.09381,0.8706 -1.18894,1.0227 -1.27389,1.183 -1.30339,1.3063 0.60698,1.7011 0.79695,1.621 1.84516,-0.024 1.7362,-0.089 1.56199,-0.1399 1.38666,-0.1777 1.21098,-0.2022 1.25109,-0.2583 0.38991,-0.016 0.23033,0.082 1.79486,3.6505 -0.0761,0.2322 -0.25062,0.2991 -0.96849,0.833 -0.89965,0.8355 -0.98743,0.9896 -1.06462,1.1515 -1.13073,1.3206 -1.14599,1.4463 0.79695,1.6209 0.97652,1.5195 1.83036,-0.2345 1.71473,-0.2863 1.53586,-0.3171 1.35738,-0.3345 1.18003,-0.339 1.21349,-0.3992 0.38557,-0.06 0.23812,0.055 2.199284,3.4222 -0.04917,0.2393 -0.214892,0.3257 -0.867218,0.938 -0.79855,0.9326 -0.86819,1.0957 -0.92641,1.2654 -0.97284,1.4408 -0.97365,1.5676 0.97653,1.5195 1.14337,1.3982 1.79169,-0.4416 1.670916,-0.4799 1.489707,-0.4901 1.310393,-0.4871 1.133697,-0.4713 1.160077,-0.5349 0.376195,-0.1037 0.242802,0.027 2.575049,3.1491 -0.02157,0.2434 -0.176361,0.3481 -0.754642,1.0307 -0.687037,1.0176 -0.737626,1.1875 -0.776137,1.3627 -0.802257,1.5423 -0.788613,1.6684 1.143369,1.3982 1.295309,1.2589 1.729682,-0.643 1.605305,-0.6673 1.424135,-0.6567 1.246327,-0.6333 1.072585,-0.5974 1.091539,-0.6637 0.361921,-0.1459 0.244317,-7e-4 2.917241,2.8351 0.0063,0.2442 -0.13553,0.366 -0.632228,1.11 -0.566569,1.0892 -0.597447,1.2639 -0.615739,1.4423 -0.621218,1.6238 -0.593299,1.7473 1.295309,1.2588 1.430361,1.103 1.645117,-0.8359 1.518771,-0.846 1.339996,-0.8147 1.166014,-0.7713 0.99749,-0.7158 1.008771,-0.7838 0.342928,-0.1862 0.242649,-0.029 3.221401,2.4841 0.03411,0.2419 -0.09293,0.379 -0.501571,1.1749 -0.438716,1.1467 -0.449479,1.3237 -0.447315,1.5031 -0.43208,1.684 -0.39025,1.8035 1.430362,1.103 1.546767,0.9328 1.539104,-1.0181 1.412438,-1.0135 1.238389,-0.9622 1.070499,-0.8991 0.909392,-0.8249 0.912853,-0.8936 0.319464,-0.2241 0.237817,-0.056 3.483566,2.1006 0.06146,0.2365 -0.04912,0.3871 -0.364375,1.2244 -0.305143,1.1892 -0.295651,1.3664 -0.27306,1.5443 -0.237309,1.7222 -0.182114,1.8363 1.546768,0.9328 1.643009,0.7503 1.413027,-1.1868 1.287691,-1.168 1.120638,-1.0971 0.961028,-1.0153 0.809439,-0.9231 0.805034,-0.9919 0.291835,-0.259 0.229885,-0.083 3.700317,1.6899 0.08802,0.2279 -0.0047,0.3902 -0.22243,1.258 -0.167592,1.2162 -0.137968,1.3912 -0.09524,1.5653 -0.03945,1.7381 0.0284,1.8451 1.643009,0.7503 1.717831,0.5582 1.26853,-1.3402 1.146157,-1.3071 0.988278,-1.2177 0.839028,-1.1182 0.698933,-1.0094 0.68672,-1.0772 0.260403,-0.2906 0.218955,-0.1084 3.86883,1.257 0.113424,0.2164 0.03984,0.3882 -0.07758,1.2751 -0.02786,1.2275 0.02151,1.3978 0.08381,1.566 0.158934,1.7312 0.238536,1.8298 1.717832,0.5582 1.770259,0.3587 1.107494,-1.476 0.989683,-1.4293 0.843033,-1.3224 0.706091,-1.2066 0.579315,-1.0825 0.559455,-1.1484 0.225574,-0.3184 0.205172,-0.1327 3.986906,0.8079 0.137351,0.202 0.08383,0.3811 0.06827,1.2757 0.112242,1.2226 0.180713,1.3863 0.261777,1.5462 0.35524,1.7018 0.445567,1.7907 1.77026,0.3587 1.799609,0.1546 0.932021,-1.5927 0.820305,-1.5327 0.686798,-1.4099 0.56395,-1.2792 0.452145,-1.1415 0.424895,-1.2047 0.187806,-0.3421 0.188714,-0.1551 4.053005,0.3481 0.159489,0.1851 0.126726,0.369 0.213239,1.2596 0.250877,1.2018 0.337558,1.3567 0.436328,1.5063 0.546917,1.6502 0.646788,1.7282 1.79961,0.1546 1.805498,-0.052 0.744398,-1.6885 0.640233,-1.6163 0.52161,-1.4789 0.414456,-1.3352 0.319081,-1.1855 0.284796,-1.2454 0.14759,-0.3612 0.169795,-0.1757 4.066269,-0.1161 0.179547,0.1657 0.167972,0.3522 0.355425,1.227 0.386243,1.1654 0.490002,1.3093 0.605191,1.4468 0.731462,1.5771 0.839579,1.6433 1.805498,-0.052 1.78785,-0.2571 0.54707,-1.7623 0.451815,-1.6788 0.349623,-1.5287 0.259559,-1.3737 0.181856,-1.2142 0.140986,-1.2697 0.105448,-0.3757 0.148663,-0.1939 4.026523,-0.5789 0.197264,0.1441 0.207028,0.3308 0.492979,1.1785 0.516572,1.1138 0.636058,1.2449 0.766166,1.3684 0.906471,1.4834 1.021424,1.5369 1.78785,-0.2571 1.746894,-0.4592 0.342611,-1.8132 0.257507,-1.7193 0.173077,-1.5587 0.101278,-1.3943 0.04226,-1.227 -0.0047,-1.2775 0.06193,-0.3852 0.125592,-0.2096 3.934284,-1.0342 0.21241,0.1208 0.243386,0.305 0.624105,1.1146 0.640168,1.0477 0.773822,1.1643 0.917151,1.2721 1.069664,1.3704 1.189953,1.4104 1.746894,-0.4592 1.683166,-0.6553 0.133684,-1.8404 0.05984,-1.7375 -0.0057,-1.5682 -0.05832,-1.3968 -0.09788,-1.2239 -0.150253,-1.2686 0.01761,-0.3898 0.100886,-0.2225 3.790756,-1.4759 0.224786,0.096 0.27657,0.2753 0.747096,1.0363 0.755418,0.9678 0.901498,1.0685 1.05618,1.1593 1.218913,1.2396 1.342968,1.2655 1.683166,-0.6553 1.597493,-0.8429 -0.07698,-1.8437 -0.138603,-1.733 -0.184453,-1.5573 -0.217164,-1.3811 -0.236753,-1.2047 -0.293883,-1.2432 -0.02694,-0.3893 0.07486,-0.2325 3.597809,-1.8984 0.234233,0.07 0.306149,0.2419 0.860347,0.9443 0.860819,0.8755 1.017422,0.9587 1.181441,1.0313 1.35227,1.0926 1.478477,1.1042 1.597493,-0.8429 1.490996,-1.0195 -0.286649,-1.8229 -0.335241,-1.7059 -0.360776,-1.5262 -0.373174,-1.3472 -0.372536,-1.1699 -0.433681,-1.2016 -0.07114,-0.3837 0.04786,-0.2396 3.357961,-2.2961 0.240625,0.042 0.331737,0.2055 0.962382,0.8401 0.954998,0.7716 1.120083,0.8366 1.291299,0.8899 1.467998,0.9313 1.594712,0.9285 1.490996,-1.0196 1.365061,-1.1828 -0.492578,-1.7784 -0.527509,-1.6565 -0.532396,-1.4751 -0.524318,-1.2959 -0.503463,-1.1198 -0.567826,-1.1443 -0.114417,-0.3731 0.02024,-0.2435 3.074335,-2.6639 0.243881,0.015 0.353,0.1663 1.05187,0.7249 1.036729,0.6577 1.20814,0.7035 1.384324,0.7369 1.564589,0.7578 1.690156,0.7407 1.365061,-1.1828 1.221331,-1.3308 -0.692085,-1.7106 -0.712899,-1.5856 -0.697075,-1.4048 -0.668628,-1.2277 -0.627826,-1.0551 -0.694568,-1.0721 -0.1562,-0.3576 -0.0076,-0.2442 2.750631,-2.9971 0.243958,-0.013 0.369661,0.125 1.127646,0.6003 1.104943,0.5352 1.280449,0.5611 1.459301,0.5743 1.640784,0.5746 1.763567,0.5432 1.221331,-1.3308 1.061683,-1.4612 -0.882574,-1.6206 -0.888997,-1.494 -0.852667,-1.3162 -0.80422,-1.1435 -0.744005,-0.9766 -0.812256,-0.986 -0.195945,-0.3375 -0.03543,-0.2417 2.391068,-3.2911 0.240854,-0.041 0.381503,0.082 1.188722,0.4678 1.158749,0.4058 1.33607,0.4115 1.51525,0.4042 1.69559,0.3838 1.81399,0.3386 1.06168,-1.4612 0.88818,-1.5728 -1.06155,-1.5094 -1.0535,-1.3829 -0.99714,-1.2104 -0.92933,-1.0444 -0.85049,-0.8855 -0.91935,-0.887 -0.23314,-0.3129 -0.0627,-0.2361 2.00033,-3.5421 0.23461,-0.068 0.38837,0.038 1.2343,0.3293 1.19746,0.271 1.37426,0.2565 1.55145,0.2289 1.72829,0.188 1.84076,0.1296 0.88819,-1.5727 0.70311,-1.6638 -1.22669,-1.3786 -1.20428,-1.2538 -1.12862,-1.0888 -1.04232,-0.9317 -0.94587,-0.7827 -1.01447,-0.7764 -0.26729,-0.2843 -0.0893,-0.2275 1.58352,-3.747 0.22531,-0.094 0.39017,-0.01 1.26379,0.1864 1.22055,0.1328 1.39455,0.098 1.56742,0.05 1.73846,-0.01 1.84353,-0.081 0.70312,-1.6637 0.50887,-1.7331 -1.37583,-1.2297 -1.33936,-1.1084 -1.24538,-0.9531 -1.14173,-0.8068 -1.02893,-0.6698 -1.09636,-0.6557 -0.29796,-0.252 -0.1146,-0.2157 1.14607,-3.9032 0.21306,-0.1195 0.3869,-0.051 1.2768,0.041 1.22773,-0.01 1.39665,-0.061 1.56297,-0.1285 1.72596,-0.2083 1.82227,-0.2907 0.50888,-1.7331 0.308,-1.7798 -1.50704,-1.0649 -1.45697,-0.9484 -1.34591,-0.805 -1.22625,-0.6713 -1.09859,-0.5482 -1.16395,-0.5264 -0.32474,-0.2164 -0.13845,-0.2013 0.69367,-4.0083 0.19805,-0.1431 0.37857,-0.095 1.27317,-0.1047 1.21891,-0.1471 1.38054,-0.2202 1.53813,-0.3058 1.69097,-0.4037 1.77726,-0.4965 0,0 z"
         inkscape:connector-curvature="0" />
      <path
         id="path22"
         style="fill:none;stroke:#000000"
         d="M 1.841737,1061.0269 0,1061.2205 l -1.841737,-0.1936 -1.761245,-0.5723 -1.603777,-0.9259 -1.376217,-1.2392 -1.088509,-1.4982 -0.753228,-1.6917 -0.385028,-1.8115 0,-1.8518 0.385028,-1.8115 0.753228,-1.6917 1.088509,-1.4982 1.376217,-1.2392 1.603777,-0.9259 1.761245,-0.5723 L 0,1043.5039 l 1.841737,0.1936 1.761245,0.5723 1.603777,0.9259 1.376217,1.2392 1.088509,1.4982 0.753228,1.6917 0.385028,1.8115 0,1.8518 -0.385028,1.8115 -0.753228,1.6917 -1.088509,1.4982 -1.376217,1.2392 -1.603777,0.9259 -1.761245,0.5723 0,0 z"
         inkscape:connector-curvature="0" />
    </g>
    <g
       id="g4170"
       transform="translate(-111.47904,-579.69103)">
      <path
         id="path24"
         style="fill:none;stroke:#000000"
         d="m 119.85939,1043.2685 -0.15285,1.8202 0,1.8267 0.10182,0.048 1.65519,0.7259 1.55914,0.6325 1.45923,0.5451 1.35577,0.4637 1.24898,0.3886 1.28313,0.3602 0.25994,0.1198 0.12457,0.1289 0,4.068 -0.12457,0.1289 -0.25994,0.1198 -1.28313,0.3602 -1.24898,0.3886 -1.35577,0.4637 -1.45923,0.5451 -1.55914,0.6325 -1.65519,0.7259 -0.10182,0.048 0,1.8267 0.15285,1.8202 0.10549,0.039 1.71013,0.5849 1.60659,0.4998 1.49973,0.4211 1.38982,0.3486 1.27711,0.2827 1.30878,0.2516 0.26905,0.098 0.13492,0.118 0.34039,4.0537 -0.11335,0.1388 -0.24899,0.1412 -1.24849,0.4663 -1.21208,0.4918 -1.31221,0.5755 -1.40852,0.6652 -1.50073,0.7608 -1.58864,0.8619 -0.0974,0.056 0.15285,1.8203 0.30463,1.801 0.10841,0.03 1.75308,0.4397 1.64278,0.3637 1.5297,0.294 1.41411,0.2311 1.2963,0.1749 1.32523,0.1412 0.27628,0.075 0.14432,0.1063 0.67841,4.011 -0.10134,0.1478 -0.2363,0.1616 -1.20509,0.5691 -1.16669,0.5915 -1.25945,0.6833 -1.3479,0.7807 -1.43182,0.8837 -1.51094,0.9918 -0.0924,0.064 0.30463,1.8011 0.45427,1.7692 0.11058,0.021 1.78373,0.2915 1.66745,0.2249 1.54894,0.1651 1.42849,0.1119 1.30638,0.066 1.3324,0.03 0.28157,0.051 0.15271,0.094 1.01166,3.9401 -0.0886,0.1558 -0.22196,0.1808 -1.15323,0.668 -1.11311,0.687 -1.19786,0.7863 -1.27784,0.8908 -1.35285,1.0004 -1.42265,1.1147 -0.0867,0.072 0.45426,1.7693 0.60073,1.725 0.11197,0.012 1.80186,0.1412 1.68042,0.085 1.55732,0.035 1.43285,-0.01 1.3073,-0.044 1.33023,-0.082 0.28488,0.028 0.16004,0.081 1.3378,3.8417 -0.0753,0.1627 -0.20606,0.1987 -1.0933,0.7621 -1.05171,0.7777 -1.12786,0.8838 -1.19882,0.9946 -1.2644,1.1101 -1.32438,1.2299 -0.0803,0.079 0.60072,1.7251 0.74297,1.6687 0.11257,0 1.80736,-0.01 1.68161,-0.056 1.55478,-0.096 1.42715,-0.1279 1.29905,-0.153 1.31872,-0.1928 0.28621,0 0.16622,0.067 1.65458,3.7163 -0.0614,0.1684 -0.18871,0.2152 -1.02568,0.851 -0.98296,0.863 -1.04995,0.975 -1.11138,1.0915 -1.16707,1.212 -1.21683,1.3364 -0.0735,0.085 0.74296,1.6687 0.87999,1.6007 0.1124,-0.01 1.80018,-0.1612 1.671,-0.1968 1.54132,-0.2254 1.41145,-0.2468 1.28169,-0.2612 1.29796,-0.3025 0.28552,-0.02 0.17126,0.053 1.95974,3.5647 -0.0471,0.173 -0.17005,0.2302 -0.95087,0.9338 -0.9073,0.9423 -0.96468,1.0594 -1.01615,1.1807 -1.06156,1.3054 -1.10073,1.4335 -0.0661,0.091 0.88,1.6007 1.01085,1.5215 0.11142,-0.016 1.78037,-0.3113 1.64867,-0.336 1.51706,-0.3535 1.38585,-0.3641 1.25534,-0.3675 1.2681,-0.41 0.28282,-0.044 0.17509,0.038 2.25115,3.3883 -0.0324,0.1763 -0.15018,0.2437 -0.8694,1.0101 -0.82527,1.0148 -0.87264,1.1365 -0.9138,1.2615 -0.9486,1.3897 -0.97691,1.5206 -0.0582,0.096 1.01085,1.5215 1.13462,1.4315 0.10966,-0.026 1.74809,-0.4592 1.61477,-0.4727 1.48215,-0.4793 1.35053,-0.4787 1.22019,-0.4713 1.22934,-0.5147 0.27814,-0.067 0.17769,0.024 2.52678,3.188 -0.0176,0.1784 -0.12927,0.2554 -0.78182,1.0793 -0.73746,1.0803 -0.77448,1.2056 -0.80503,1.3335 -0.829,1.4642 -0.84624,1.597 -0.0499,0.101 1.13461,1.4315 1.25043,1.3316 0.10714,-0.035 1.70353,-0.6038 1.56955,-0.6063 1.43685,-0.6016 1.30574,-0.59 1.17647,-0.5717 1.18195,-0.6158 0.27152,-0.091 0.17904,0.01 2.78469,2.9654 -0.003,0.1792 -0.10745,0.2653 -0.68877,1.141 -0.64447,1.1382 -0.67088,1.2661 -0.69063,1.3963 -0.70357,1.5284 -0.70963,1.6622 -0.0413,0.1048 1.25042,1.3315 1.35746,1.2223 0.10387,-0.043 1.64702,-0.7443 1.51332,-0.7354 1.38148,-0.7197 1.25178,-0.6973 1.1245,-0.6681 1.12628,-0.7125 0.26299,-0.113 0.17914,-0.01 3.02306,2.7219 0.0124,0.1788 -0.0849,0.2734 -0.59087,1.1946 -0.54697,1.1882 -0.56259,1.3178 -0.57136,1.4491 -0.57321,1.5819 -0.56806,1.7158 -0.0324,0.1079 1.35746,1.2222 1.45498,1.1044 0.0999,-0.052 1.57897,-0.8795 1.44647,-0.8595 1.31641,-0.8328 1.18904,-0.7995 1.06465,-0.7599 1.06272,-0.8043 0.25261,-0.1346 0.17798,-0.021 3.24023,2.4595 0.0274,0.1771 -0.0617,0.2795 -0.48885,1.2399 -0.44562,1.2298 -0.45034,1.3602 -0.4481,1.4919 -0.43883,1.6243 -0.42249,1.7573 -0.0232,0.1102 1.45497,1.1044 1.54229,0.9788 0.0952,-0.06 1.49984,-1.0086 1.36947,-0.9775 1.24211,-0.94 1.11797,-0.8962 0.99733,-0.8464 0.99168,-0.8904 0.24047,-0.1552 0.17557,-0.036 3.43467,2.1797 0.0421,0.1742 -0.0381,0.2837 -0.38339,1.2764 -0.34115,1.2628 -0.33494,1.3931 -0.32169,1.5242 -0.30138,1.6553 -0.27395,1.7865 -0.014,0.1118 1.54229,0.9787 1.61878,0.8463 0.0898,-0.068 1.41018,-1.1306 1.28288,-1.0886 1.15909,-1.0407 1.03905,-0.9866 0.92301,-0.9269 0.91371,-0.9702 0.22663,-0.1748 0.17194,-0.051 3.60501,1.8847 0.0565,0.1701 -0.0142,0.2858 -0.27523,1.3041 -0.23429,1.2868 -0.21719,1.4164 -0.19303,1.5457 -0.1618,1.6747 -0.12351,1.8032 -0.005,0.1125 1.61878,0.8463 1.68391,0.7078 0.0838,-0.075 1.31064,-1.2446 1.18728,-1.1922 1.06795,-1.134 0.95285,-1.0701 0.84221,-1.0008 0.82932,-1.0433 0.2112,-0.1932 0.1671,-0.065 3.75007,1.5764 0.0705,0.1648 0.01,0.2861 -0.16515,1.3224 -0.12579,1.302 -0.0979,1.4295 -0.063,1.5565 -0.0211,1.6824 0.0278,1.8072 0.005,0.1125 1.68391,0.7078 1.73725,0.5645 0.0772,-0.082 1.2019,-1.3498 1.08336,-1.2874 0.9693,-1.2194 0.85996,-1.1461 0.75552,-1.0678 0.73911,-1.109 0.1943,-0.2102 0.16108,-0.079 3.86883,1.257 0.0841,0.1583 0.0336,0.2843 -0.0539,1.3316 -0.0164,1.308 0.0221,1.4327 0.0675,1.5562 0.11976,1.6783 0.17894,1.7985 0.0143,0.1117 1.73724,0.5645 1.77838,0.4171 0.0701,-0.088 1.08473,-1.4456 0.97183,-1.3736 0.86388,-1.2962 0.76104,-1.214 0.66351,-1.1273 0.64372,-1.167 0.17603,-0.2257 0.15393,-0.092 3.96045,0.9289 0.097,0.1507 0.0573,0.2805 0.0577,1.3314 0.0931,1.3048 0.14185,1.4258 0.19744,1.5451 0.25978,1.6624 0.3288,1.7772 0.0236,0.1102 1.77838,0.4171 1.80705,0.2668 0.0625,-0.094 0.95996,-1.5314 0.85349,-1.45 0.75238,-1.3639 0.65678,-1.2735 0.56687,-1.1788 0.5438,-1.2168 0.15653,-0.2396 0.14571,-0.1044 4.02429,0.5942 0.10931,0.1421 0.0806,0.2746 0.16892,1.322 0.20195,1.2924 0.26067,1.4089 0.32604,1.5232 0.39797,1.6349 0.47637,1.7434 0.0327,0.1078 1.80705,0.2668 1.82303,0.1147 0.0544,-0.099 0.82845,-1.6063 0.72917,-1.5164 0.63561,-1.4221 0.54791,-1.324 0.46623,-1.2221 0.44009,-1.258 0.13593,-0.2519 0.13646,-0.1162 4.0599,0.2554 0.12082,0.1325 0.10328,0.2669 0.27895,1.3032 0.30939,1.2709 0.37765,1.3822 0.45236,1.4906 0.53337,1.5958 0.62058,1.6975 0.0416,0.1046 1.82304,0.1147 1.82624,-0.038 0.046,-0.1028 0.69112,-1.67 0.59973,-1.5721 0.51438,-1.4703 0.4352,-1.3652 0.36234,-1.2568 0.33328,-1.2904 0.11437,-0.2624 0.12625,-0.1273 4.06704,-0.085 0.13147,0.1219 0.12526,0.2574 0.38702,1.2753 0.41465,1.2405 0.49199,1.3458 0.5755,1.4475 0.66503,1.5455 0.76046,1.6397 0.0502,0.1007 1.82624,-0.038 1.81664,-0.1909 0.0372,-0.1063 0.54896,-1.722 0.46608,-1.6167 0.38954,-1.5083 0.31944,-1.3968 0.2559,-1.2827 0.22413,-1.3138 0.092,-0.271 0.11517,-0.1374 4.04564,-0.4252 0.14121,0.1104 0.14636,0.246 0.49238,1.2384 0.517,1.2016 0.60288,1.2998 0.6946,1.3943 0.79202,1.4845 0.89499,1.5702 0.0585,0.096 1.81664,-0.191 1.79429,-0.3423 0.0282,-0.109 0.40293,-1.7619 0.32917,-1.65 0.26197,-1.5355 0.20144,-1.4187 0.14765,-1.2997 0.11342,-1.3279 0.069,-0.2777 0.10327,-0.1466 3.99587,-0.7622 0.14996,0.098 0.16642,0.2329 0.59428,1.1929 0.61574,1.154 0.70953,1.2449 0.80883,1.3312 0.91347,1.413 1.02324,1.4899 0.0663,0.091 1.79429,-0.3423 1.75935,-0.4912 0.0189,-0.111 0.25409,-1.7895 0.18994,-1.6718 0.13256,-1.552 0.082,-1.4305 0.0384,-1.3075 0.002,-1.3327 0.0455,-0.2826 0.0906,-0.1547 3.91808,-1.0939 0.15765,0.085 0.18532,0.2181 0.69202,1.139 0.71014,1.0985 0.81121,1.1811 0.9174,1.2589 1.0285,1.3316 1.14432,1.399 0.0737,0.085 1.75935,-0.4913 1.71208,-0.6367 0.01,-0.1122 0.10346,-1.8044 0.0494,-1.6818 0.002,-1.5577 -0.038,-1.4324 -0.0712,-1.3061 -0.10962,-1.3282 0.0217,-0.2854 0.0774,-0.1617 3.8128,-1.418 0.16423,0.072 0.20293,0.2018 0.7849,1.0771 0.79957,1.0352 0.9072,1.1091 1.01952,1.1777 1.13632,1.2409 1.25737,1.2983 0.0806,0.079 1.71209,-0.6367 1.65279,-0.7778 1.6e-4,-0.1126 -0.0479,-1.8067 -0.0915,-1.6801 -0.12813,-1.5524 -0.15769,-1.4242 -0.1802,-1.2955 -0.22038,-1.3144 -0.002,-0.2862 0.0636,-0.1676 3.68078,-1.7321 0.16966,0.058 0.21911,0.1841 0.87228,1.0077 0.88338,0.9646 0.99683,1.0293 1.11449,1.0883 1.23617,1.1414 1.3616,1.1886 0.0869,0.072 1.6528,-0.7778 1.58192,-0.9133 -0.009,-0.1122 -0.19891,-1.7964 -0.23179,-1.6665 -0.25759,-1.5363 -0.2763,-1.406 -0.28798,-1.2759 -0.32959,-1.2914 -0.0262,-0.285 0.0493,-0.1723 3.52293,-2.034 0.17391,0.043 0.23376,0.1652 0.95353,0.9311 0.96101,0.8874 1.07946,0.9423 1.20165,0.9912 1.32734,1.034 1.45629,1.0704 0.0926,0.064 1.58192,-0.9133 1.49994,-1.0425 -0.0186,-0.1111 -0.34853,-1.7735 -0.37042,-1.6412 -0.38524,-1.5094 -0.39298,-1.3779 -0.39374,-1.2473 -0.43649,-1.2593 -0.0499,-0.2818 0.0347,-0.1759 3.34038,-2.3216 0.17694,0.029 0.24675,0.1451 1.0281,0.848 1.03189,0.8039 1.15452,0.8486 1.28038,0.8872 1.40921,0.9193 1.54076,0.9449 0.0976,0.056 1.49995,-1.0425 1.40746,-1.1643 -0.0279,-0.1091 -0.49571,-1.7381 -0.50646,-1.6045 -0.51018,-1.4718 -0.50691,-1.3402 -0.49673,-1.2101 -0.54034,-1.2183 -0.0734,-0.2766 0.0199,-0.1782 3.1344,-2.593 0.17871,0.014 0.25803,0.1239 1.09546,0.7591 1.09554,0.7147 1.22148,0.749 1.35013,0.777 1.48119,0.7981 1.61441,0.8126 0.10196,0.048 1.40745,-1.1643 1.30509,-1.2781 -0.0369,-0.1064 -0.63941,-1.6905 -0.63895,-1.5565 -0.63155,-1.4239 -0.61728,-1.2931 -0.59623,-1.1643 -0.64039,-1.1688 -0.0962,-0.2695 0.005,-0.1792 2.90642,-2.8462 0.17925,-0 0.26749,0.1019 1.15514,0.6647 1.15149,0.6205 1.27988,0.6442 1.41041,0.6613 1.54278,0.6714 1.67675,0.6746 0.1056,0.039 1.30508,-1.278 1.19357,-1.3827 -0.0457,-0.103 -0.77862,-1.6311 -0.76696,-1.4975 -0.74849,-1.3661 -0.72331,-1.2369 -0.69157,-1.1103 -0.73594,-1.1111 -0.11847,-0.2606 -0.0101,-0.179 2.65806,-3.0794 0.17853,-0.016 0.27507,0.079 1.20671,0.5657 1.19937,0.522 1.3293,0.5349 1.46079,0.5408 1.59356,0.54 1.72732,0.532 0.1085,0.03 1.19356,-1.3827 1.07368,-1.4778 -0.0541,-0.099 -0.91237,-1.5602 -0.88958,-1.4281 -0.86018,-1.2987 -0.82428,-1.1721 -0.78205,-1.0485 -0.82633,-1.0456 -0.13985,-0.2497 -0.025,-0.1775 2.39107,-3.291 0.17654,-0.031 0.28073,0.056 1.24981,0.4628 1.23885,0.4198 1.36939,0.4217 1.50093,0.4168 1.63315,0.4047 1.76578,0.3856 0.11064,0.021 1.07367,-1.4777 0.94625,-1.5625 -0.0622,-0.094 -1.03973,-1.4784 -1.00596,-1.3487 -0.96583,-1.2221 -0.91946,-1.099 -0.86704,-0.9793 -0.91094,-0.9729 -0.16026,-0.2371 -0.0398,-0.1748 2.1073,-3.4796 0.17332,-0.046 0.28442,0.032 1.28415,0.3566 1.26963,0.3146 1.39988,0.3057 1.53054,0.2897 1.66129,0.2667 1.79185,0.2365 0.112,0.012 0.94625,-1.5625 0.81219,-1.6361 -0.0698,-0.088 -1.1598,-1.3862 -1.11529,-1.2598 -1.06471,-1.137 -1.00819,-1.0182 -0.94596,-0.9034 -0.98914,-0.8931 -0.17954,-0.223 -0.0543,-0.1708 1.80874,-3.6437 0.1689,-0.06 0.28611,0.01 1.30948,0.2478 1.2915,0.2073 1.42056,0.1875 1.54941,0.1606 1.67777,0.1267 1.80536,0.086 0.11258,0 0.81219,-1.6361 0.67243,-1.6984 -0.077,-0.082 -1.27172,-1.2843 -1.2168,-1.162 -1.15612,-1.044 -1.08986,-0.9302 -1.01823,-0.8211 -1.06041,-0.8073 -0.19757,-0.2071 -0.0684,-0.1657 1.4975,-3.7823 0.16327,-0.074 0.2858,-0.016 1.32564,0.1374 1.30431,0.098 1.43126,0.068 1.55742,0.03 1.68249,-0.014 1.80619,-0.066 0.11238,-0.01 0.67243,-1.6984 0.52796,-1.7487 -0.0836,-0.075 -1.37472,-1.1733 -1.30977,-1.0562 -1.23942,-0.9435 -1.16388,-0.8358 -1.08336,-0.733 -1.12425,-0.7157 -0.2142,-0.1899 -0.082,-0.1594 1.17576,-3.8943 0.15651,-0.087 0.28348,-0.04 1.33248,0.026 1.30799,-0.011 1.43192,-0.052 1.5545,-0.1 1.6754,-0.1549 1.79437,-0.2166 0.11138,-0.017 0.52795,-1.7487 0.37978,-1.7867 -0.0896,-0.068 -1.46809,-1.0542 -1.39355,-0.9429 -1.31403,-0.8365 -1.22973,-0.7355 -1.1409,-0.6397 -1.18019,-0.6192 -0.22934,-0.1712 -0.095,-0.152 0.84577,-3.979 0.14865,-0.1002 0.27916,-0.063 1.32999,-0.086 1.30248,-0.1204 1.42255,-0.1717 1.54067,-0.2297 1.65657,-0.2946 1.76996,-0.3659 0.10959,-0.026 0.37978,-1.7867 0.22894,-1.8122 -0.095,-0.061 -1.55115,-0.9277 -1.46757,-0.8229 -1.37941,-0.7237 -1.28696,-0.63 -1.19044,-0.542 -1.22786,-0.5182 -0.24286,-0.1515 -0.10744,-0.1435 0.50985,-4.0358 0.13974,-0.1123 0.27291,-0.086 1.31816,-0.1966 1.28783,-0.229 1.4032,-0.2901 1.51604,-0.3578 1.62612,-0.4322 1.73312,-0.5127 0.10704,-0.035 0.22894,-1.8122 0.0765,-1.8251 -0.0997,-0.052 -1.62334,-0.7946 -1.53128,-0.6973 -1.43513,-0.6056 -1.33516,-0.5201 -1.23162,-0.4405 -1.26692,-0.4137 -0.25468,-0.1306 -0.11907,-0.134 0.17035,-4.0644 0.12986,-0.1235 0.26472,-0.1089 1.29709,-0.3062 1.26416,-0.3359 1.374,-0.4065 1.48078,-0.4835 1.58425,-0.5667 1.68414,-0.656 0.10374,-0.044 0.0765,-1.825 -0.0765,-1.825 -0.10374,-0.044 -1.68414,-0.656 -1.58425,-0.5667 -1.48078,-0.4835 -1.374,-0.4065 -1.26416,-0.3359 -1.29709,-0.3062 -0.26472,-0.1089 -0.12986,-0.1235 -0.17035,-4.0644 0.11907,-0.134 0.25468,-0.1306 1.26692,-0.4136 1.23162,-0.4406 1.33516,-0.52 1.43513,-0.6057 1.53128,-0.6973 1.62334,-0.7946 0.0997,-0.052 -0.0765,-1.8251 -0.22894,-1.8122 -0.10704,-0.035 -1.73312,-0.5127 -1.62612,-0.4321 -1.51604,-0.3579 -1.4032,-0.2901 -1.28783,-0.229 -1.31816,-0.1966 -0.27291,-0.086 -0.13974,-0.1123 -0.50985,-4.0358 0.10744,-0.1435 0.24286,-0.1515 1.22786,-0.5182 1.19044,-0.542 1.28696,-0.63 1.37941,-0.7237 1.46757,-0.8229 1.55115,-0.9277 0.095,-0.06 -0.22894,-1.8123 -0.37978,-1.7867 -0.10959,-0.026 -1.76996,-0.3659 -1.65657,-0.2946 -1.54067,-0.2297 -1.42255,-0.1717 -1.30248,-0.1204 -1.32999,-0.086 -0.27916,-0.063 -0.14865,-0.1001 -0.84577,-3.9791 0.095,-0.152 0.22934,-0.1712 1.18019,-0.6192 1.1409,-0.6397 1.22973,-0.7355 1.31403,-0.8365 1.39355,-0.9429 1.46809,-1.0542 0.0896,-0.068 -0.37978,-1.7867 -0.52795,-1.7487 -0.11138,-0.017 -1.79437,-0.2166 -1.6754,-0.1549 -1.5545,-0.1 -1.43192,-0.052 -1.30799,-0.011 -1.33248,0.026 -0.28348,-0.04 -0.15651,-0.087 -1.17576,-3.8943 0.082,-0.1594 0.2142,-0.1899 1.12425,-0.7157 1.08336,-0.733 1.16388,-0.8357 1.23942,-0.9436 1.30977,-1.05616 1.37472,-1.17337 0.0836,-0.0755 -0.52796,-1.74868 -0.67243,-1.69837 -0.11238,-0.007 -1.80619,-0.0657 -1.68249,-0.0141 -1.55742,0.0304 -1.43126,0.068 -1.30431,0.0985 -1.32564,0.13741 -0.2858,-0.0157 -0.16327,-0.074 -1.4975,-3.78226 0.0684,-0.1657 0.19757,-0.20711 1.06041,-0.80729 1.01823,-0.82107 1.08986,-0.93023 1.15612,-1.04396 1.2168,-1.16206 1.27172,-1.28428 0.077,-0.0822 -0.67243,-1.69837 -0.81219,-1.63614 -0.11258,0.002 -1.80536,0.0857 -1.67777,0.12669 -1.54941,0.16061 -1.42056,0.18748 -1.2915,0.20729 -1.30948,0.24787 -0.28611,0.008 -0.1689,-0.0601 -1.80874,-3.64369 0.0543,-0.17085 0.17954,-0.22291 0.98914,-0.89319 0.94596,-0.9034 1.00819,-1.01816 1.06471,-1.13704 1.11529,-1.2598 1.1598,-1.3862 0.0698,-0.0883 -0.81219,-1.63615 -0.94625,-1.56245 -0.112,0.0116 -1.79185,0.23649 -1.66129,0.26664 -1.53054,0.2897 -1.39988,0.30569 -1.26963,0.31463 -1.28415,0.35657 -0.28442,0.0321 -0.17332,-0.0457 -2.1073,-3.47956 0.0398,-0.17479 0.16026,-0.23716 0.91094,-0.97282 0.86704,-0.97938 0.91946,-1.09896 0.96583,-1.22215 1.00596,-1.3487 1.03973,-1.47839 0.0622,-0.0939 -0.94625,-1.56245 -1.07367,-1.47779 -0.11064,0.0209 -1.76578,0.3856 -1.63315,0.40471 -1.50093,0.41676 -1.36939,0.42176 -1.23885,0.41977 -1.24981,0.46277 -0.28073,0.0558 -0.17654,-0.031 -2.39107,-3.29102 0.025,-0.1775 0.13985,-0.24974 0.82633,-1.04564 0.78205,-1.0485 0.82428,-1.17204 0.86018,-1.29868 0.88958,-1.42815 0.91237,-1.5602 0.0541,-0.0988 -1.07368,-1.47778 -1.19356,-1.38276 -0.1085,0.0301 -1.72732,0.532 -1.59356,0.53996 -1.46079,0.54089 -1.3293,0.53487 -1.19937,0.52195 -1.20671,0.56574 -0.27507,0.0791 -0.17853,-0.0162 -2.65806,-3.0794 0.0101,-0.17897 0.11847,-0.26057 0.73594,-1.11111 0.69157,-1.11026 0.72331,-1.23691 0.74849,-1.3661 0.76696,-1.49758 0.77862,-1.63108 0.0457,-0.10293 -1.19357,-1.38276 -1.30508,-1.27804 -0.1056,0.0391 -1.67675,0.67467 -1.54278,0.67141 -1.41041,0.66123 -1.27988,0.64422 -1.15149,0.62049 -1.15514,0.66473 -0.26749,0.10186 -0.17925,-0.001 -2.90642,-2.84618 -0.005,-0.17918 0.0962,-0.26957 0.64039,-1.1688 0.59623,-1.16424 0.61728,-1.29309 0.63155,-1.42394 0.63895,-1.55651 0.63941,-1.6905 0.0369,-0.1064 -1.30509,-1.27803 -1.40745,-1.16435 -0.10196,0.0478 -1.61441,0.81261 -1.48119,0.79815 -1.35013,0.77693 -1.22148,0.74906 -1.09554,0.71467 -1.09546,0.75905 -0.25803,0.12389 -0.17871,0.0138 -3.1344,-2.593 -0.0199,-0.17814 0.0734,-0.27667 0.54034,-1.21829 0.49673,-1.21005 0.50691,-1.34021 0.51018,-1.47179 0.50646,-1.60452 0.49571,-1.73808 0.0279,-0.10911 -1.40746,-1.16434 -1.49995,-1.0425 -0.0976,0.0562 -1.54076,0.94485 -1.40921,0.91929 -1.28038,0.88718 -1.15452,0.84865 -1.03189,0.80383 -1.0281,0.84806 -0.24675,0.14505 -0.17694,0.0287 -3.34038,-2.32162 -0.0347,-0.17586 0.0499,-0.28184 0.43649,-1.25923 0.39374,-1.24736 0.39298,-1.37793 0.38524,-1.50932 0.37042,-1.64127 0.34853,-1.77347 0.0186,-0.11105 -1.49994,-1.04249 -1.58192,-0.91332 -0.0926,0.0641 -1.45629,1.07046 -1.32734,1.03399 -1.20165,0.99121 -1.07946,0.94228 -0.96101,0.88736 -0.95353,0.93111 -0.23376,0.16519 -0.17391,0.0434 -3.52293,-2.03396 -0.0493,-0.17233 0.0262,-0.28503 0.32959,-1.29134 0.28798,-1.27594 0.2763,-1.40598 0.25759,-1.53626 0.23179,-1.66651 0.19891,-1.79641 0.009,-0.11222 -1.58192,-0.91333 -1.6528,-0.77774 -0.0869,0.0716 -1.3616,1.18857 -1.23617,1.14143 -1.11449,1.08828 -0.99683,1.02931 -0.88338,0.96466 -0.87228,1.00763 -0.21911,0.18417 -0.16966,0.0578 -3.68078,-1.73204 -0.0636,-0.1676 0.002,-0.28622 0.22038,-1.31439 0.1802,-1.29556 0.15769,-1.42417 0.12813,-1.55243 0.0915,-1.68006 0.0479,-1.80675 -1.6e-4,-0.11261 -1.65279,-0.77774 -1.71209,-0.63672 -0.0806,0.0787 -1.25737,1.29833 -1.13632,1.24087 -1.01952,1.17773 -0.9072,1.1091 -0.79957,1.0352 -0.7849,1.07709 -0.20293,0.20186 -0.16423,0.0718 -3.8128,-1.41797 -0.0774,-0.16168 -0.0217,-0.28541 0.10962,-1.32822 0.0712,-1.30609 0.038,-1.43237 -0.002,-1.55771 -0.0494,-1.68183 -0.10346,-1.80442 -0.01,-0.1122 -1.71208,-0.63672 -1.75935,-0.49122 -0.0737,0.0851 -1.14432,1.39899 -1.0285,1.33161 -0.9174,1.2589 -0.81121,1.18113 -0.71014,1.09848 -0.69202,1.13899 -0.18532,0.21813 -0.15765,0.0853 -3.91808,-1.09395 -0.0906,-0.15464 -0.0455,-0.28259 -0.002,-1.33274 -0.0384,-1.30747 -0.082,-1.43052 -0.13256,-1.55206 -0.18994,-1.67179 -0.25409,-1.78944 -0.0189,-0.111 -1.75935,-0.49122 -1.79429,-0.34228 -0.0663,0.091 -1.02324,1.48985 -0.91347,1.41299 -0.80883,1.33126 -0.70953,1.24486 -0.61574,1.15405 -0.59428,1.1929 -0.16642,0.23287 -0.14996,0.0982 -3.99587,-0.76226 -0.10327,-0.14652 -0.069,-0.27778 -0.11342,-1.3279 -0.14765,-1.29967 -0.20144,-1.41864 -0.26197,-1.53553 -0.32917,-1.65004 -0.40293,-1.7619 -0.0282,-0.10903 -1.79429,-0.34228 -1.81664,-0.19093 -0.0585,0.0962 -0.89499,1.57024 -0.79202,1.48448 -0.6946,1.39427 -0.60288,1.29987 -0.517,1.20152 -0.49238,1.23845 -0.14636,0.24598 -0.14121,0.11042 -4.04564,-0.42522 -0.11517,-0.13736 -0.092,-0.27104 -0.22413,-1.31375 -0.2559,-1.28276 -0.31944,-1.39681 -0.38954,-1.50822 -0.46608,-1.6167 -0.54896,-1.72201 -0.0372,-0.10629 -1.81664,-0.19093 -1.82624,-0.0383 -0.0502,0.10079 -0.76046,1.63963 -0.66503,1.54554 -0.5755,1.4475 -0.49199,1.34576 -0.41465,1.24057 -0.38702,1.27531 -0.12526,0.25736 -0.13147,0.12185 -4.06704,-0.0852 -0.12625,-0.12725 -0.11437,-0.26238 -0.33328,-1.2904 -0.36234,-1.25684 -0.4352,-1.36518 -0.51438,-1.47034 -0.59973,-1.57203 -0.69112,-1.67003 -0.046,-0.10281 -1.82624,-0.0383 -1.82304,0.11469 -0.0416,0.10464 -0.62058,1.69751 -0.53337,1.59577 -0.45236,1.49058 -0.37765,1.38221 -0.30939,1.27092 -0.27895,1.30322 -0.10328,0.26694 -0.12082,0.13242 -4.0599,0.25543 -0.13646,-0.11624 -0.13593,-0.25189 -0.44009,-1.25798 -0.46623,-1.22212 -0.54791,-1.32397 -0.63561,-1.42214 -0.72917,-1.51634 -0.82845,-1.60634 -0.0544,-0.0986 -1.82303,0.1147 -1.80705,0.26684 -0.0327,0.10775 -0.47637,1.74349 -0.39797,1.6348 -0.32604,1.52321 -0.26067,1.40896 -0.20195,1.29235 -0.16892,1.32199 -0.0806,0.27465 -0.10931,0.14206 -4.02429,0.59426 -0.14571,-0.10441 -0.15653,-0.23964 -0.5438,-1.21674 -0.56687,-1.17882 -0.65678,-1.27348 -0.75238,-1.36396 -0.85349,-1.45001 -0.95996,-1.53138 -0.0625,-0.0937 -1.80705,0.26684 -1.77838,0.41711 -0.0236,0.11011 -0.3288,1.77723 -0.25978,1.66238 -0.19744,1.54515 -0.14185,1.42583 -0.0931,1.30471 -0.0577,1.33149 -0.0573,0.28043 -0.097,0.15071 -3.96045,0.92892 -0.15393,-0.0919 -0.17603,-0.2257 -0.64372,-1.16697 -0.66351,-1.12725 -0.76104,-1.21406 -0.86388,-1.29622 -0.97183,-1.3735 -1.08473,-1.44569 -0.0701,-0.0882 -1.77838,0.41712 -1.73724,0.56446 -0.0143,0.1117 -0.17894,1.79851 -0.11976,1.67828 -0.0675,1.55625 -0.0221,1.4327 0.0164,1.30793 0.0539,1.33165 -0.0336,0.28424 -0.0841,0.15831 -3.86883,1.25706 -0.16108,-0.0786 -0.1943,-0.21017 -0.73911,-1.10902 -0.75552,-1.06777 -0.85996,-1.14612 -0.9693,-1.21939 -1.08336,-1.28736 -1.2019,-1.34985 -0.0772,-0.082 -1.73725,0.56447 -1.68391,0.70785 -0.005,0.1125 -0.0278,1.80717 0.0211,1.68242 0.063,1.55644 0.0979,1.42952 0.12579,1.30197 0.16515,1.32247 -0.01,0.28606 -0.0705,0.16479 -3.75007,1.57638 -0.1671,-0.0649 -0.2112,-0.19318 -0.82932,-1.04328 -0.84221,-1.00081 -0.95285,-1.07014 -1.06795,-1.134 -1.18728,-1.19219 -1.31064,-1.24455 -0.0838,-0.0752 -1.68391,0.70785 -1.61878,0.84627 0.005,0.11252 0.12351,1.80316 0.1618,1.67475 0.19303,1.54571 0.21719,1.41632 0.23429,1.28687 0.27523,1.30401 0.0142,0.28588 -0.0565,0.17011 -3.60501,1.88465 -0.17194,-0.0507 -0.22663,-0.17483 -0.91371,-0.97022 -0.92301,-0.92683 -1.03905,-0.98665 -1.15909,-1.04066 -1.28288,-1.08867 -1.41018,-1.1305 -0.0898,-0.068 -1.61878,0.84628 -1.54229,0.97877 0.014,0.11173 0.27395,1.78651 0.30138,1.65534 0.32169,1.52413 0.33494,1.39317 0.34115,1.26277 0.38339,1.2764 0.0381,0.28368 -0.0421,0.17425 -3.43467,2.1797 -0.17557,-0.0361 -0.24047,-0.15526 -0.99168,-0.89036 -0.99733,-0.84634 -1.11797,-0.89625 -1.24211,-0.94002 -1.36947,-0.9775 -1.49984,-1.00854 -0.0952,-0.0602 -1.54229,0.97876 -1.45497,1.10439 0.0232,0.11018 0.42249,1.75731 0.43883,1.62432 0.4481,1.49187 0.45034,1.36026 0.44562,1.22978 0.48885,1.23985 0.0617,0.2795 -0.0274,0.17716 -3.24023,2.45946 -0.17798,-0.0213 -0.25261,-0.13459 -1.06272,-0.80426 -1.06465,-0.75992 -1.18904,-0.79956 -1.31641,-0.83278 -1.44647,-0.85948 -1.57897,-0.8795 -0.0999,-0.052 -1.45498,1.10439 -1.35746,1.22227 0.0324,0.10784 0.56806,1.7158 0.57321,1.5819 0.57136,1.44914 0.56259,1.31781 0.54697,1.18818 0.59087,1.19459 0.0849,0.27336 -0.0124,0.17882 -3.02306,2.72198 -0.17914,-0.006 -0.26299,-0.11298 -1.12628,-0.71251 -1.1245,-0.66817 -1.25178,-0.69725 -1.38148,-0.71971 -1.51332,-0.73543 -1.64702,-0.74429 -0.10387,-0.0435 -1.35746,1.22227 -1.25042,1.33156 0.0413,0.10476 0.70963,1.66225 0.70357,1.52838 0.69063,1.39625 0.67088,1.26611 0.64447,1.13825 0.68877,1.14096 0.10745,0.26529 0.003,0.17924 -2.78469,2.96539 -0.17904,0.009 -0.27152,-0.0906 -1.18195,-0.61577 -1.17647,-0.57173 -1.30574,-0.59006 -1.43685,-0.60159 -1.56955,-0.60621 -1.70353,-0.60386 -0.10714,-0.0347 -1.25043,1.33157 -1.13461,1.43153 0.0499,0.10093 0.84624,1.59704 0.829,1.46415 0.80503,1.33356 0.77448,1.20553 0.73746,1.08033 0.78182,1.07932 0.12927,0.25538 0.0176,0.17839 -2.52678,3.18801 -0.17769,0.0236 -0.27814,-0.0675 -1.22934,-0.5147 -1.22019,-0.47127 -1.35053,-0.47874 -1.48215,-0.47924 -1.61477,-0.47276 -1.74809,-0.45919 -0.10966,-0.0256 -1.13462,1.43153 -1.01085,1.52145 0.0582,0.0964 0.97691,1.52063 0.9486,1.38965 0.9138,1.26152 0.87264,1.13649 0.82527,1.01483 0.8694,1.01012 0.15018,0.24366 0.0324,0.1763 -2.25115,3.38826 -0.17509,0.0384 -0.28282,-0.044 -1.2681,-0.41002 -1.25534,-0.36753 -1.38585,-0.36404 -1.51706,-0.35354 -1.64867,-0.33598 -1.78037,-0.31131 -0.11142,-0.0163 -1.01085,1.52145 -0.88,1.6007 0.0661,0.0912 1.10073,1.43354 1.06156,1.3054 1.01615,1.18063 0.96468,1.05949 0.9073,0.94222 0.95087,0.93382 0.17005,0.23024 0.0471,0.17297 -1.95974,3.56475 -0.17126,0.0529 -0.28552,-0.0202 -1.29796,-0.30248 -1.28169,-0.26119 -1.41145,-0.2468 -1.54132,-0.22536 -1.671,-0.19684 -1.80018,-0.16124 -0.1124,-0.007 -0.87999,1.6007 -0.74296,1.66872 0.0735,0.0853 1.21683,1.33641 1.16707,1.21199 1.11138,1.09147 1.04995,0.97505 0.98296,0.86299 1.02568,0.85098 0.18871,0.2152 0.0614,0.16842 -1.65458,3.71624 -0.16622,0.0671 -0.28621,0.004 -1.31872,-0.19281 -1.29905,-0.15303 -1.42715,-0.12783 -1.55478,-0.0956 -1.68161,-0.0563 -1.80736,-0.01 -0.11257,0.003 -0.74297,1.66872 -0.60072,1.72504 0.0803,0.0789 1.32438,1.22991 1.2644,1.11008 1.19882,0.99463 1.12786,0.88377 1.05171,0.77772 1.0933,0.76217 0.20606,0.19866 0.0753,0.16269 -1.3378,3.84169 -0.16004,0.081 -0.28488,0.028 -1.33023,-0.082 -1.3073,-0.044 -1.43285,-0.01 -1.55732,0.035 -1.68042,0.085 -1.80186,0.1412 -0.11197,0.012 -0.60073,1.725 -0.45426,1.7693 0.0867,0.072 1.42265,1.1147 1.35285,1.0004 1.27784,0.8909 1.19786,0.7863 1.11311,0.6869 1.15323,0.668 0.22196,0.1808 0.0886,0.1558 -1.01166,3.9401 -0.15271,0.094 -0.28157,0.051 -1.3324,0.03 -1.30638,0.066 -1.42849,0.112 -1.54894,0.165 -1.66745,0.2249 -1.78373,0.2915 -0.11058,0.021 -0.45427,1.7692 -0.30463,1.8011 0.0924,0.064 1.51094,0.9918 1.43182,0.8837 1.3479,0.7808 1.25945,0.6833 1.16669,0.5914 1.20509,0.5692 0.2363,0.1615 0.10134,0.1478 -0.67841,4.011 -0.14432,0.1063 -0.27628,0.075 -1.32523,0.1412 -1.2963,0.1749 -1.41411,0.2311 -1.5297,0.294 -1.64278,0.3637 -1.75308,0.4397 -0.10841,0.031 -0.30463,1.801 -0.15285,1.8203 0.0974,0.056 1.58864,0.8619 1.50073,0.7608 1.40852,0.6652 1.31221,0.5756 1.21208,0.4917 1.24849,0.4663 0.24899,0.1412 0.11335,0.1389 -0.34039,4.0536 -0.13492,0.118 -0.26905,0.098 -1.30878,0.2516 -1.27711,0.2827 -1.38982,0.3486 -1.49973,0.4211 -1.60659,0.4998 -1.71013,0.5849 -0.10549,0.039 0,0 z"
         inkscape:connector-curvature="0" />
      <path
         id="path26"
         style="fill:none;stroke:#000000"
         d="m 291.04315,1043.7822 1.83202,-0.2705 1.84823,0.1163 1.78366,0.498 1.64115,0.858 1.4269,1.1804 1.15029,1.4513 0.82341,1.6588 0.46055,1.7937 0.0775,1.8502 -0.30883,1.826 -0.68173,1.7218 -1.02481,1.5425 -1.32312,1.2957 -1.5636,0.9923 -1.73573,0.6455 -1.83202,0.2705 -1.84823,-0.1163 -1.78366,-0.498 -1.64115,-0.858 -1.4269,-1.1804 -1.15029,-1.4513 -0.82341,-1.6588 -0.46054,-1.7937 -0.0776,-1.8502 0.30883,-1.826 0.68173,-1.7218 1.02481,-1.5425 1.32312,-1.2957 1.5636,-0.9922 1.73573,-0.6456 0,0 z"
         inkscape:connector-curvature="0" />
    </g>
  </g>
  <g
     inkscape:groupmode="layer"
     inkscape:label="0"
     id="g28" />
</svg>
