999
DXF generated by OpenJsCad
  0
SECTION
  2
HEADER
  0
ENDSEC
  0
SECTION
  2
TABLES
  0
TABLE
  2
LTYPE
  70
1
  0
LTYPE
  2
CONTINUOUS
  3
Solid Line
  72
65
  73
0
  40
0.0
  0
ENDTAB
  0
TABLE
  2
LAYER
  70
1
  0
LAYER
  2
OpenJsCad
  62
7
  6
continuous
  0
ENDTAB
  0
TABLE
  2
STYLE
  70
0
  0
ENDTAB
  0
TABLE
  2
VIEW
  70
0
  0
ENDTAB
  0
ENDSEC
  0
SECTION
  2
BLOCKS
  0
ENDSEC
  0
SECTION
  2
ENTITIES
  0
LWPOLYLINE
  8
OpenJsCad
  90
1046
  70
1
 10
35.96387129759753
 20
-4.6387371552267735
 30
0.0
 10
36.05079662390984
 20
-4.136443568733414
 30
0.0
 10
36.07989819383695
 20
-3.62751532426798
 30
0.0
 10
35.62308955383661
 20
-3.3774209037411143
 30
0.0
 10
35.18406857641333
 20
-3.158360071892123
 30
0.0
 10
34.78080359560653
 20
-2.975971569057605
 30
0.0
 10
34.41538688282316
 20
-2.827186558080654
 30
0.0
 10
34.08972783974247
 20
-2.7088325019507535
 30
0.0
 10
33.74644030815253
 20
-2.5986756538739297
 30
0.0
 10
33.64842740227238
 20
-2.5484509683922227
 30
0.0
 10
33.603130981433864
 20
-2.4964641281080997
 30
0.0
 10
33.66867234628364
 20
-1.350276763081644
 30
0.0
 10
33.71959956628306
 20
-1.303792189654944
 30
0.0
 10
33.822698780813624
 20
-1.2650675112980425
 30
0.0
 10
34.17630560784066
 20
-1.1947605244303332
 30
0.0
 10
34.51333326481795
 20
-1.1143002648251428
 30
0.0
 10
34.89332830793135
 20
-1.0081394402136215
 30
0.0
 10
35.31475542345499
 20
-0.8729085376320552
 30
0.0
 10
35.77588579902617
 20
-0.7053202224506736
 30
0.0
 10
36.258225455024984
 20
-0.5089282444654355
 30
0.0
 10
36.28732702495213
 20
3.9968028886505635e-15
 30
0.0
 10
36.258225455024984
 20
0.5089282444654326
 30
0.0
 10
35.77588579903364
 20
0.7053202224476345
 30
0.0
 10
35.314755423454486
 20
0.8729085376318645
 30
0.0
 10
34.89332830793131
 20
1.0081394402138764
 30
0.0
 10
34.51333326481809
 20
1.1143002648253675
 30
0.0
 10
34.17630560784182
 20
1.194760524430469
 30
0.0
 10
33.82269878081295
 20
1.2650675112945773
 30
0.0
 10
33.71959956628322
 20
1.3037921896555316
 30
0.0
 10
33.66867234628375
 20
1.3502767630819121
 30
0.0
 10
33.60313098143373
 20
2.496464128108355
 30
0.0
 10
33.648427402272155
 20
2.548450968392789
 30
0.0
 10
33.746440308153595
 20
2.5986756538705644
 30
0.0
 10
34.0897278397413
 20
2.708832501950756
 30
0.0
 10
34.41538688282301
 20
2.8271865580808626
 30
0.0
 10
34.78080359560654
 20
2.975971569057863
 30
0.0
 10
35.18406857641386
 20
3.158360071891991
 30
0.0
 10
35.62308955382954
 20
3.3774209037372436
 30
0.0
 10
36.07989819383695
 20
3.627515324267976
 30
0.0
 10
36.050796623909804
 20
4.136443568733416
 30
0.0
 10
35.963871297597464
 20
4.638737155226796
 30
0.0
 10
35.462288660674375
 20
4.778866420888516
 30
0.0
 10
34.98506042659304
 20
4.892797449426263
 30
0.0
 10
34.55096512329404
 20
4.9791078101316
 30
0.0
 10
34.16134556636546
 20
5.041260479676764
 30
0.0
 10
33.81734296641969
 20
5.082778020225007
 30
0.0
 10
33.45802664971416
 20
5.112318586781946
 30
0.0
 10
33.35118518246616
 20
5.139038422617951
 30
0.0
 10
33.29529107750158
 20
5.179414731682982
 30
0.0
 10
33.09952141487518
 20
6.31065979153863
 30
0.0
 10
33.138596528435045
 20
6.367471170714066
 30
0.0
 10
33.23024537754777
 20
6.428541107728756
 30
0.0
 10
33.558738335731285
 20
6.577111754043518
 30
0.0
 10
33.868783301259505
 20
6.7318166805776825
 30
0.0
 10
34.21485791802921
 20
6.921286237764727
 30
0.0
 10
34.59470358838107
 20
7.14845462778971
 30
0.0
 10
35.005891857804585
 20
7.416132183345364
 30
0.0
 10
35.43121428259925
 20
7.7166686831798454
 30
0.0
 10
35.344288956286924
 20
8.21896226967323
 30
0.0
 10
35.200673078153116
 20
8.708073033135596
 30
0.0
 10
34.68638635704235
 20
8.79011278719884
 30
0.0
 10
34.19928166431661
 20
8.84890126389806
 30
0.0
 10
33.7581772693835
 20
8.885165895180245
 30
0.0
 10
33.36401248541045
 20
8.902500154561302
 30
0.0
 10
33.01751954246963
 20
8.904533731418743
 30
0.0
 10
32.65717797377917
 20
8.892922771206972
 30
0.0
 10
32.547987095731465
 20
8.90728943059518
 30
0.0
 10
32.48785477093899
 20
8.941031108362596
 30
0.0
 10
32.164408967479666
 20
10.042586353675881
 30
0.0
 10
32.19675336989802
 20
10.10348164853296
 30
0.0
 10
32.280843379334996
 20
10.174600697061143
 30
0.0
 10
32.59025935603917
 20
10.359648296026242
 30
0.0
 10
32.880648333735586
 20
10.5486872776564
 30
0.0
 10
33.20286924260895
 20
10.776371355619215
 30
0.0
 10
33.55434373329324
 20
11.045358145461798
 30
0.0
 10
33.932338826801235
 20
11.358162838431124
 30
0.0
 10
34.32063030812926
 20
11.705223464682689
 30
0.0
 10
34.1770144299954
 20
12.194334228145056
 30
0.0
 10
33.978580252643624
 20
12.663885861776137
 30
0.0
 10
33.458293961255045
 20
12.686766590583058
 30
0.0
 10
32.967662964485186
 20
12.68964611774459
 30
0.0
 10
32.52529994828816
 20
12.675392254675254
 30
0.0
 10
32.131728478027064
 20
12.647682125311839
 30
0.0
 10
31.78726225749509
 20
12.610205227694188
 30
0.0
 10
31.430593040239003
 20
12.557594107336739
 30
0.0
 10
31.320476221472852
 20
12.559420298901054
 30
0.0
 10
31.256889593666706
 20
12.586087470999908
 30
0.0
 10
30.809984260069143
 20
13.643592444536539
 30
0.0
 10
30.835176292596092
 20
13.707777791779447
 30
0.0
 10
30.91061122048521
 20
13.788018806260995
 30
0.0
 10
31.196916505262948
 20
14.007130979430093
 30
0.0
 10
31.46386383071058
 20
14.228039603932833
 30
0.0
 10
31.758030389367065
 20
14.490969992517249
 30
0.0
 10
32.07655169288676
 20
14.798268528009556
 30
0.0
 10
32.41642586636637
 20
15.152122470846576
 30
0.0
 10
32.76262443095328
 20
15.541182757491201
 30
0.0
 10
32.56419025360154
 20
16.0107343911223
 30
0.0
 10
32.31352466999962
 20
16.454605571291058
 30
0.0
 10
31.794021535816814
 20
16.418028989550088
 30
0.0
 10
31.306260360369144
 20
16.364962028133714
 30
0.0
 10
30.868405601331364
 20
16.30037549161644
 30
0.0
 10
30.480558250787077
 20
16.227982217421985
 30
0.0
 10
30.142609396641774
 20
16.151483414003216
 30
0.0
 10
29.794262259522252
 20
16.058557999912292
 30
0.0
 10
29.68465504117225
 20
16.04781991645287
 30
0.0
 10
29.618443059289095
 20
16.06706493551267
 30
0.0
 10
29.053904290030367
 20
17.066733442697178
 30
0.0
 10
29.07161553599566
 20
17.133372088165764
 30
0.0
 10
29.13741197268904
 20
17.221689004264093
 30
0.0
 10
29.39687413830576
 20
17.472009289371044
 30
0.0
 10
29.636899744874082
 20
17.721907674989776
 30
0.0
 10
29.89917704235183
 20
18.016656674480387
 30
0.0
 10
30.18059274639999
 20
18.35826084925974
 30
0.0
 10
30.47791522022935
 20
18.74855101466971
 30
0.0
 10
30.777507640343224
 20
19.174538965879925
 30
0.0
 10
30.52684205674133
 20
19.618410146048692
 30
0.0
 10
30.227212876115203
 20
20.030814333108182
 30
0.0
 10
29.71526541696988
 20
19.935257272498998
 30
0.0
 10
29.23673277570094
 20
19.826935631502238
 30
0.0
 10
28.80909438021902
 20
19.712858405812895
 30
0.0
 10
28.43202733274196
 20
19.596725743827772
 30
0.0
 10
28.105001525123278
 20
19.48220231350029
 30
0.0
 10
27.76951770580096
 20
19.350174030559668
 30
0.0
 10
27.661848985580935
 20
19.32701165941619
 30
0.0
 10
27.593874824062794
 20
19.338583637182026
 30
0.0
 10
26.91906224535097
 20
20.267383470227315
 30
0.0
 10
26.92906181157759
 20
20.335606677267222
 30
0.0
 10
26.984361999900248
 20
20.430848148917676
 30
0.0
 10
27.213598560230896
 20
20.70911323823058
 30
0.0
 10
27.42357334706643
 20
20.98474357733843
 30
0.0
 10
27.65054219769139
 20
21.307468683766384
 30
0.0
 10
27.891183618195903
 20
21.67892516499827
 30
0.0
 10
28.14207833923252
 20
22.100563523803192
 30
0.0
 10
28.3911589695097
 20
22.5579257351704
 30
0.0
 10
28.091529788883513
 20
22.970329922229865
 30
0.0
 10
27.74684313582629
 20
23.345890796910776
 30
0.0
 10
27.249125369771182
 20
23.19259898985413
 30
0.0
 10
26.78605966748127
 20
23.030434807523974
 30
0.0
 10
26.374212556028947
 20
22.868354063758073
 30
0.0
 10
26.012841457232714
 20
22.70999598083327
 30
0.0
 10
25.701001977664472
 20
22.558940911652407
 30
0.0
 10
25.382755020780607
 20
22.389530950441454
 30
0.0
 10
25.27842842511671
 20
22.35424624854405
 30
0.0
 10
25.209578231112058
 20
22.357994326588692
 30
0.0
 10
24.43328905690347
 20
23.203817159254733
 30
0.0
 10
24.435446583753293
 20
23.272735534028257
 30
0.0
 10
24.479529601179703
 20
23.37365994299481
 30
0.0
 10
24.675552107088233
 20
23.67624222552286
 30
0.0
 10
24.85273873172953
 20
23.97401125512728
 30
0.0
 10
25.041440249429684
 20
24.320505253185846
 30
0.0
 10
25.23817025746064
 20
24.71697153756794
 30
0.0
 10
25.439366429321787
 20
25.164461388948027
 30
0.0
 10
25.634688122826883
 20
25.647235444601705
 30
0.0
 10
25.290001469769653
 20
26.02279631928263
 30
0.0
 10
24.904750861934293
 20
26.356617871237233
 30
0.0
 10
24.427751301211075
 20
26.14758971086763
 30
0.0
 10
23.986189307497256
 20
25.933697045318908
 30
0.0
 10
23.595502537011303
 20
25.725725753841978
 30
0.0
 10
23.254538411814565
 20
25.527206689765904
 30
0.0
 10
22.96195056480996
 20
25.34158921556739
 30
0.0
 10
22.66508930614352
 20
25.13700609400963
 30
0.0
 10
22.565464891757202
 20
25.090059051408534
 30
0.0
 10
22.496636232837684
 20
25.08593436780272
 30
0.0
 10
21.62899057969943
 20
25.837753605946407
 30
0.0
 10
21.62327794051046
 20
25.906468692041294
 30
0.0
 10
21.655569097492176
 20
26.011760334309077
 30
0.0
 10
21.815822095836285
 20
26.33471518725956
 30
0.0
 10
21.957910659659127
 20
26.650741032680624
 30
0.0
 10
22.105884831569476
 20
27.01648684321083
 30
0.0
 10
22.25613875061243
 20
27.432794386409167
 30
0.0
 10
22.405013473507996
 20
27.900302015804154
 30
0.0
 10
22.544029913260125
 20
28.4021942176211
 30
0.0
 10
22.158779305424737
 20
28.736015769575673
 30
0.0
 10
21.737987073649233
 20
29.023746124359924
 30
0.0
 10
21.287924137008787
 20
28.761706612415207
 30
0.0
 10
20.87362228774116
 20
28.49887388165002
 30
0.0
 10
20.509189057753268
 20
28.247723266297566
 30
0.0
 10
20.193076894965394
 20
28.011631220666224
 30
0.0
 10
19.923555010565575
 20
27.793871149091576
 30
0.0
 10
19.65194949061406
 20
27.55678192104609
 30
0.0
 10
19.558326014102747
 20
27.49878456423785
 30
0.0
 10
19.490416177097252
 20
27.48684089054027
 30
0.0
 10
18.542725133011
 20
28.134855420633055
 30
0.0
 10
18.529216800771415
 20
28.202471411815882
 30
0.0
 10
18.54929513269423
 20
28.31075764980512
 30
0.0
 10
18.671689480565128
 20
28.649874862774034
 30
0.0
 10
18.77682764184363
 20
28.980037643817436
 30
0.0
 10
18.882145398335986
 20
29.360267210842892
 30
0.0
 10
18.983964438772457
 20
29.790988807371555
 30
0.0
 10
19.07857690301496
 20
30.2724195378715
 30
0.0
 10
19.15947579712369
 20
30.786886953455774
 30
0.0
 10
18.738683565348147
 20
31.074617308239997
 30
0.0
 10
18.287835379892506
 20
31.312505460652492
 30
0.0
 10
17.87057632599649
 20
31.000870682908637
 30
0.0
 10
17.488935679373277
 20
30.692524313523357
 30
0.0
 10
17.15550693436513
 20
30.401468506651863
 30
0.0
 10
16.868367739459313
 20
30.13088130033631
 30
0.0
 10
16.625425447608023
 20
29.883817466939615
 30
0.0
 10
16.382616459691118
 20
29.617312953075206
 30
0.0
 10
16.296214446249785
 20
29.54902136630135
 30
0.0
 10
16.230108739738387
 20
29.529414406564147
 30
0.0
 10
15.21472690677047
 20
30.065176368195775
 30
0.0
 10
15.193598983249343
 20
30.130811786616142
 30
0.0
 10
15.201202738350792
 20
30.24068094361219
 30
0.0
 10
15.284142838245947
 20
30.591539605115546
 30
0.0
 10
15.350959960259752
 20
30.93153514501148
 30
0.0
 10
15.412248323315497
 20
31.321291594639835
 30
0.0
 10
15.464305118241235
 20
31.76081212978428
 30
0.0
 10
15.50342190566816
 20
32.249889775563716
 30
0.0
 10
15.525148613329886
 20
32.77022553537671
 30
0.0
 10
15.074300427874178
 20
33.00811368778911
 30
0.0
 10
14.59927378431917
 20
33.19305840195999
 30
0.0
 10
14.22025822305063
 20
32.83589099432892
 30
0.0
 10
13.876254048544718
 20
32.4860507528035
 30
0.0
 10
13.578176542121042
 20
32.158884111968014
 30
0.0
 10
13.323753613625676
 20
31.857329263012378
 30
0.0
 10
13.110558038629557
 20
31.584182522697397
 30
0.0
 10
12.899710969233242
 20
31.291737016918415
 30
0.0
 10
12.821656801241952
 20
31.214041485451062
 30
0.0
 10
12.758217014204678
 20
31.187026846379393
 30
0.0
 10
11.688381447374207
 20
31.603551763037668
 30
0.0
 10
11.659909367365634
 20
31.666350950640034
 30
0.0
 10
11.654939419069523
 20
31.776370714158226
 30
0.0
 10
11.697344019946266
 20
32.13439684497416
 30
0.0
 10
11.724969039326304
 20
32.479792781903924
 30
0.0
 10
11.741429021404528
 20
32.873995042758594
 30
0.0
 10
11.743044930887075
 20
33.31658469418319
 30
0.0
 10
11.726156094352893
 20
33.80693338018151
 30
0.0
 10
11.688427374706523
 20
34.326354111843045
 30
0.0
 10
11.21340073115149
 20
34.5112988260139
 30
0.0
 10
10.720388328255527
 20
34.64088906475754
 30
0.0
 10
10.384557307085172
 20
34.24284525061483
 30
0.0
 10
10.082674225197822
 20
33.856071839509234
 30
0.0
 10
9.82383385350565
 20
33.49705948220995
 30
0.0
 10
9.605443983383397
 20
33.16846821923907
 30
0.0
 10
9.424774455603131
 20
32.872799457489904
 30
0.0
 10
9.24863801872602
 20
32.55822543420195
 30
0.0
 10
9.179949251633003
 20
32.47213883811377
 30
0.0
 10
9.120002418712536
 20
32.4380686968415
 30
0.0
 10
8.009660060735781
 20
32.72992652924502
 30
0.0
 10
7.974215001345108
 20
32.78907080258
 30
0.0
 10
7.956736140528033
 20
32.89780689674934
 30
0.0
 10
7.958052433564459
 20
33.258333078732264
 30
0.0
 10
7.946125215936087
 20
33.60462664844297
 30
0.0
 10
7.917542235998107
 20
33.99813569119906
 30
0.0
 10
7.868696194186141
 20
34.438024625943854
 30
0.0
 10
7.796021905503221
 20
34.923251907147396
 30
0.0
 10
7.699329610107991
 20
35.43498616706868
 30
0.0
 10
7.206317207211999
 20
35.564576405812275
 30
0.0
 10
6.701746215612121
 20
35.637122762183914
 30
0.0
 10
6.413477805488251
 20
35.20339165137643
 30
0.0
 10
6.157651323862539
 20
34.78472725359813
 30
0.0
 10
5.941422466992208
 20
34.39854945495109
 30
0.0
 10
5.761912701184371
 20
34.04720546759335
 30
0.0
 10
5.6161245242130065
 20
33.7328691788865
 30
0.0
 10
5.476994927675757
 20
33.40026759156209
 30
0.0
 10
5.418567024606004
 20
33.30691220128559
 30
0.0
 10
5.362894644446325
 20
33.266230714207765
 30
0.0
 10
4.226520506009303
 20
33.429616649172125
 30
0.0
 10
4.184564547791918
 20
33.48433497218729
 30
0.0
 10
4.154804638135101
 20
33.59036985572985
 30
0.0
 10
4.1150154634384695
 20
33.948696078743886
 30
0.0
 10
4.063691498323804
 20
34.291372814966586
 30
0.0
 10
3.9904381792251415
 20
34.67905864745725
 30
0.0
 10
3.8917669689740744
 20
35.11051224053441
 30
0.0
 10
3.764254648636401
 20
35.58429243727322
 30
0.0
 10
3.6098593094346008
 20
36.0816689867795
 30
0.0
 10
3.1052883178347046
 20
36.15421534315108
 30
0.0
 10
2.5957365920482873
 20
36.168772064449975
 30
0.0
 10
2.358788812546593
 20
35.705008005313424
 30
0.0
 10
2.1523540206066896
 20
35.259910551552125
 30
0.0
 10
1.9815555523869217
 20
34.851601729745504
 30
0.0
 10
1.8432660752156123
 20
34.4820853241875
 30
0.0
 10
1.7342598208942535
 20
34.15317936276167
 30
0.0
 10
1.6339508317590246
 20
33.80688618174015
 30
0.0
 10
1.5865454897830102
 20
33.70747902755623
 30
0.0
 10
1.535873336999432
 20
33.660716540071235
 30
0.0
 10
0.38828179285693415
 20
33.693500592067586
 30
0.0
 10
0.34036189589157123
 20
33.74307962774155
 30
0.0
 10
0.2987089033293047
 20
33.8450309737909
 30
0.0
 10
0.21833297364148643
 20
34.19648590752972
 30
0.0
 10
0.12828134741568498
 20
34.53107849495124
 30
0.0
 10
0.01131265819730673
 20
34.907887039460896
 30
0.0
 10
-0.13589739036907061
 20
35.32528063346143
 30
0.0
 10
-0.31658542426093644
 20
35.78143729631756
 30
0.0
 10
-0.5266710279055826
 20
36.25797207144658
 30
0.0
 10
-1.0362227536920112
 20
36.2725287927455
 30
0.0
 10
-1.5441124276603952
 20
36.22890610984799
 30
0.0
 10
-1.7266505998691875
 20
35.74115497612887
 30
0.0
 10
-1.8810025089090194
 20
35.27542699238319
 30
0.0
 10
-2.0041439692423872
 20
34.85031007733711
 30
0.0
 10
-2.0994103429557414
 20
34.46743846502781
 30
0.0
 10
-2.170213611398436
 20
34.128250623087006
 30
0.0
 10
-2.2303943120554393
 20
33.77278030957015
 30
0.0
 10
-2.2661590918079306
 20
33.668617315757274
 30
0.0
 10
-2.3111704282108025
 20
33.61638344840347
 30
0.0
 10
-3.4550187672658024
 20
33.5181382271773
 30
0.0
 10
-3.5082778938381636
 20
33.56193163695868
 30
0.0
 10
-3.561280958847788
 20
33.658470353804574
 30
0.0
 10
-3.6811958203641697
 20
33.99847224572586
 30
0.0
 10
-3.808801147037041
 20
34.32061875827573
 30
0.0
 10
-3.967960340630619
 20
34.681637739172295
 30
0.0
 10
-4.1617901194004885
 20
35.079529970277186
 30
0.0
 10
-4.3932983219980315
 20
35.51211639954861
 30
0.0
 10
-4.656335402957488
 20
35.96159704074052
 30
0.0
 10
-5.164225076925881
 20
35.91797435784299
 30
0.0
 10
-5.663831580458908
 20
35.81674095913297
 30
0.0
 10
-5.789580481143897
 20
35.311361332778546
 30
0.0
 10
-5.889837294098502
 20
34.83107429555576
 30
0.0
 10
-5.963716409289432
 20
34.39469133639038
 30
0.0
 10
-6.014717736672338
 20
34.00345583432289
 30
0.0
 10
-6.046394990352572
 20
33.658407944107765
 30
0.0
 10
-6.0656628550637635
 20
33.29839459725407
 30
0.0
 10
-6.089320823993479
 20
33.19083368773333
 30
0.0
 10
-6.128084552409666
 20
33.13380938885309
 30
0.0
 10
-7.253277873987005
 20
32.90581567110977
 30
0.0
 10
-7.311181916002157
 20
32.9432525409287
 30
0.0
 10
-7.374844077448996
 20
33.0331200987601
 30
0.0
 10
-7.532734597187931
 20
33.35723650423677
 30
0.0
 10
-7.696230093727494
 20
33.662737269464316
 30
0.0
 10
-7.895504908205163
 20
34.00326025222443
 30
0.0
 10
-8.133427549587818
 20
34.37646398670346
 30
0.0
 10
-8.412737857424014
 20
34.779840756728966
 30
0.0
 10
-8.72529732508461
 20
35.19640759643386
 30
0.0
 10
-9.224903828617634
 20
35.095174197723765
 30
0.0
 10
-9.709714026892058
 20
34.93764981536978
 30
0.0
 10
-9.777034326824678
 20
34.42123009268818
 30
0.0
 10
-9.821889042814156
 20
33.93264527802284
 30
0.0
 10
-9.845542685612589
 20
33.4906851939726
 30
0.0
 10
-9.851614086366132
 20
33.096186155233966
 30
0.0
 10
-9.84375236383807
 20
32.749776443676225
 30
0.0
 10
-9.82185620652054
 20
32.38991338803135
 30
0.0
 10
-9.833098946822275
 20
32.28035678375158
 30
0.0
 10
-9.865109722770393
 20
32.21928545228823
 30
0.0
 10
-10.9569794111619
 20
31.864515484810013
 30
0.0
 10
-11.018773500879355
 20
31.895107767816068
 30
0.0
 10
-11.092264825130222
 20
31.977132605581946
 30
0.0
 10
-11.286072658704482
 20
32.281138171596446
 30
0.0
 10
-11.48332691127921
 20
32.56601051982372
 30
0.0
 10
-11.720119494682702
 20
32.881598266604314
 30
0.0
 10
-11.999033313191932
 20
33.22524822303702
 30
0.0
 10
-12.322504489254074
 20
33.59415670073403
 30
0.0
 10
-12.680511652956728
 20
33.97237915313938
 30
0.0
 10
-13.16532185123118
 20
33.81485477078542
 30
0.0
 10
-13.6290155018909
 20
33.60309297601418
 30
0.0
 10
-13.637029578008365
 20
33.082365477852626
 30
0.0
 10
-13.625897447213346
 20
32.59185233599808
 30
0.0
 10
-13.599017256211818
 20
32.15007675264941
 30
0.0
 10
-13.560079580342165
 20
31.75745707551811
 30
0.0
 10
-13.512781371181916
 20
31.414201522973283
 30
0.0
 10
-13.450006641732154
 20
31.05918012380719
 30
0.0
 10
-13.448687587092525
 20
30.949056062650403
 30
0.0
 10
-13.473528101153912
 20
30.88473385680613
 30
0.0
 10
-14.517839965171925
 20
30.40781260866983
 30
0.0
 10
-14.582718522130337
 20
30.431161487669158
 30
0.0
 10
-14.665080937383127
 20
30.504274286168407
 30
0.0
 10
-14.892279503291192
 20
30.78420583525115
 30
0.0
 10
-15.120721001057268
 20
31.044736019762908
 30
0.0
 10
-15.391944399934335
 20
31.331274361655442
 30
0.0
 10
-15.708213327402163
 20
31.64089053731484
 30
0.0
 10
-16.071628430224873
 20
31.97052143650378
 30
0.0
 10
-16.470416119089386
 20
32.30546879352595
 30
0.0
 10
-16.934109769749078
 20
32.093706998754634
 30
0.0
 10
-17.370641916929646
 20
31.830468430408708
 30
0.0
 10
-17.319245293493818
 20
31.312221636055828
 30
0.0
 10
-17.252271440263616
 20
30.82617475595931
 30
0.0
 10
-17.17520783985979
 20
30.39034289364985
 30
0.0
 10
-17.0917686995194
 20
30.004720976051704
 30
0.0
 10
-17.005650608216655
 20
29.66909444358891
 30
0.0
 10
-16.902815671234617
 20
29.323542947774992
 30
0.0
 10
-16.888952017548082
 20
29.21428706529141
 30
0.0
 10
-16.906298435633282
 20
29.14755252338753
 30
0.0
 10
-17.88943827306116
 20
28.55469739241965
 30
0.0
 10
-17.95655550605161
 20
28.570498479066995
 30
0.0
 10
-18.046715292266423
 20
28.633746101159563
 30
0.0
 10
-18.30434270974625
 20
28.885954297468125
 30
0.0
 10
-18.56099336842406
 20
29.118745908879678
 30
0.0
 10
-18.863111770987604
 20
29.37249938039367
 30
0.0
 10
-19.2126127582735
 20
29.644045454933124
 30
0.0
 10
-19.611234116219713
 20
29.930101532737584
 30
0.0
 10
-20.04560352285452
 20
30.217407243341697
 30
0.0
 10
-20.482135670035085
 20
29.954168674995767
 30
0.0
 10
-20.885815449608142
 20
29.642885050385136
 30
0.0
 10
-20.775678160206535
 20
29.133875099361696
 30
0.0
 10
-20.653735691141314
 20
28.658630845418166
 30
0.0
 10
-20.52749332322004
 20
28.234424438992054
 30
0.0
 10
-20.40064047520697
 20
27.860827452355668
 30
0.0
 10
-20.276825182782506
 20
27.537205345100197
 30
0.0
 10
-20.135270648937517
 20
27.205628544839282
 30
0.0
 10
-20.10904313013161
 20
27.09866515854242
 30
0.0
 10
-20.11866931515295
 20
27.03038826738998
 30
0.0
 10
-21.027820394691226
 20
26.32932802687776
 30
0.0
 10
-21.096301327939106
 20
26.337375329844022
 30
0.0
 10
-21.193083114421007
 20
26.389933246051157
 30
0.0
 10
-21.477780816095397
 20
26.611130170043932
 30
0.0
 10
-21.759294801852462
 20
26.81314841369165
 30
0.0
 10
-22.088369632694526
 20
27.03080895025999
 30
0.0
 10
-22.466546399936345
 20
27.26074490532168
 30
0.0
 10
-22.89517737399243
 20
27.499496983301086
 30
0.0
 10
-23.359465828899644
 20
27.73541557817197
 30
0.0
 10
-23.763145608472712
 20
27.42413195356132
 30
0.0
 10
-24.12871043716291
 20
27.06886133077976
 30
0.0
 10
-23.96126828979612
 20
26.575723946227715
 30
0.0
 10
-23.78594691146712
 20
26.117477854079745
 30
0.0
 10
-23.61217153835707
 20
25.71042708278483
 30
0.0
 10
-23.4435587035416
 20
25.35372543517396
 30
0.0
 10
-23.283660331683258
 20
25.046326662210113
 30
0.0
 10
-23.105231580803746
 20
24.733047168174974
 30
0.0
 10
-23.066982112695925
 20
24.629770709384623
 30
0.0
 10
-23.0687625726103
 20
24.56084156267584
 30
0.0
 10
-23.892072719569803
 20
23.760715604987812
 30
0.0
 10
-23.961024599382135
 20
23.760904215372065
 30
0.0
 10
-24.06316668753567
 20
23.802087252879037
 30
0.0
 10
-24.371223203474273
 20
23.989389264374683
 30
0.0
 10
-24.673930550986103
 20
24.158000523505528
 30
0.0
 10
-25.02567181643156
 20
24.33673058716516
 30
0.0
 10
-25.427594251121477
 20
24.522058855933132
 30
0.0
 10
-25.880646981034026
 20
24.710394435626775
 30
0.0
 10
-26.36880177416629
 20
24.891850355089332
 30
0.0
 10
-26.734366602856433
 20
24.536579732307743
 30
0.0
 10
-27.057050784062362
 20
24.141953607239525
 30
0.0
 10
-26.83448664319113
 20
23.67111758912297
 30
0.0
 10
-26.608071937884358
 20
23.2358435973788
 30
0.0
 10
-26.3890289873292
 20
22.851254990522825
 30
0.0
 10
-26.18085429187325
 20
22.51609883341895
 30
0.0
 10
-25.986957360391244
 20
22.22893080785815
 30
0.0
 10
-25.77398048411653
 20
21.938032697352764
 30
0.0
 10
-25.724207707018596
 20
21.839789532650244
 30
0.0
 10
-25.71811923080817
 20
21.77110672722602
 30
0.0
 10
-26.44485533833269
 20
20.882345917855595
 30
0.0
 10
-26.51337927150781
 20
20.874673376833034
 30
0.0
 10
-26.619550083007702
 20
20.903944651764604
 30
0.0
 10
-26.946949425413536
 20
21.054909982601757
 30
0.0
 10
-27.26690388147409
 20
21.187916151595275
 30
0.0
 10
-27.63672609620893
 20
21.325385722633996
 30
0.0
 10
-28.057154524749613
 20
21.463690267701796
 30
0.0
 10
-28.528722775329356
 20
21.59915410680622
 30
0.0
 10
-29.034380062421626
 20
21.723781795449167
 30
0.0
 10
-29.357064243627573
 20
21.32915567038094
 30
0.0
 10
-29.632661095565446
 20
20.90031859806929
 30
0.0
 10
-29.35787642513393
 20
20.457922013935224
 30
0.0
 10
-29.083320054789727
 20
20.051294584742998
 30
0.0
 10
-28.82186508663297
 20
19.694181842968813
 30
0.0
 10
-28.57684240605397
 20
19.384940449435064
 30
0.0
 10
-28.351474657977313
 20
19.121746845657384
 30
0.0
 10
-28.106726135595796
 20
18.85702242042352
 30
0.0
 10
-28.04607891377487
 20
18.765093299704287
 30
0.0
 10
-28.03220087403816
 20
18.69755222097013
 30
0.0
 10
-28.65288882556648
 20
17.73174291625194
 30
0.0
 10
-28.7200914978416
 20
17.716309247128432
 30
0.0
 10
-28.828906933792624
 20
17.73328716365122
 30
0.0
 10
-29.171380951544666
 20
17.8459477498707
 30
0.0
 10
-29.504411420511914
 20
17.941614889907342
 30
0.0
 10
-29.887493386396876
 20
18.036031842234042
 30
0.0
 10
-30.320946881259893
 20
18.125509652347176
 30
0.0
 10
-30.804883039189836
 20
18.206335772554418
 30
0.0
 10
-31.321450804201724
 20
18.272510517862823
 30
0.0
 10
-31.597047656139534
 20
17.84367344555117
 30
0.0
 10
-31.82196435237321
 20
17.386215973055396
 30
0.0
 10
-31.49854139078954
 20
16.97802613893641
 30
0.0
 10
-31.179422617575195
 20
16.605346282692164
 30
0.0
 10
-30.878964097170606
 20
16.28036491672234
 30
0.0
 10
-30.6002876768238
 20
16.001069721247184
 30
0.0
 10
-30.346387125404213
 20
15.765281670380615
 30
0.0
 10
-30.07305762819976
 20
15.530182018145021
 30
0.0
 10
-30.002326590940257
 20
15.445765378085126
 30
0.0
 10
-29.980839909148962
 20
15.380246527293108
 30
0.0
 10
-30.487388088013024
 20
14.349979528529117
 30
0.0
 10
-30.552393409781796
 20
14.32698593278445
 30
0.0
 10
-30.662434894564562
 20
14.331449157792196
 30
0.0
 10
-31.015518915094905
 20
14.404336296360484
 30
0.0
 10
-31.357283835501402
 20
14.461417239965833
 30
0.0
 10
-31.748631493262817
 20
14.511550704214818
 30
0.0
 10
-32.189459325260934
 20
14.551035299279786
 30
0.0
 10
-32.679454542637494
 20
14.57617000850532
 30
0.0
 10
-33.200198534763494
 20
14.583029121472867
 30
0.0
 10
-33.42511523099716
 20
14.12557164897706
 30
0.0
 10
-33.59641963842544
 20
13.645457434042182
 30
0.0
 10
-33.22857469860555
 20
13.276795728671923
 30
0.0
 10
-32.86905372375918
 20
12.942921897242185
 30
0.0
 10
-32.533508587412314
 20
12.654308536177085
 30
0.0
 10
-32.224811400617575
 20
12.408600578760495
 30
0.0
 10
-31.94568802783367
 20
12.203291938639428
 30
0.0
 10
-31.647340823805933
 20
12.000881942907577
 30
0.0
 10
-31.567448058347708
 20
11.925078283508808
 30
0.0
 10
-31.53863284625862
 20
11.862435799077174
 30
0.0
 10
-31.92443762228133
 20
10.781142212186579
 30
0.0
 10
-31.98639814976168
 20
10.750888446505453
 30
0.0
 10
-32.09623112433528
 20
10.742778795034564
 30
0.0
 10
-32.4553221574639
 20
10.774942290633902
 30
0.0
 10
-32.80136610091006
 20
10.792692900414012
 30
0.0
 10
-33.1958776353399
 20
10.797889310209543
 30
0.0
 10
-33.638332939523735
 20
10.786865948145769
 30
0.0
 10
-34.127999379337304
 20
10.755981577016257
 30
0.0
 10
-34.646130904264695
 20
10.703435638615716
 30
0.0
 10
-34.817435311693
 20
10.22332142368085
 30
0.0
 10
-34.93289421538886
 20
9.726809489338654
 30
0.0
 10
-34.525422718669596
 20
9.402481981842016
 30
0.0
 10
-34.13018644791479
 20
9.111766731213692
 30
0.0
 10
-33.76392903962808
 20
8.863283891592053
 30
0.0
 10
-33.42923542630678
 20
8.654366351220846
 30
0.0
 10
-33.12852803218698
 20
8.482213633948355
 30
0.0
 10
-32.8090525334037
 20
8.315132018560806
 30
0.0
 10
-32.72103956412474
 20
8.248929556450184
 30
0.0
 10
-32.68527147209463
 20
8.18998007896283
 30
0.0
 10
-32.94530329000817
 20
7.071756219476169
 30
0.0
 10
-33.003411272967966
 20
7.034636687961411
 30
0.0
 10
-33.11160389654096
 20
7.014059881720923
 30
0.0
 10
-33.47202064149205
 20
7.005080433998448
 30
0.0
 10
-33.817832395969056
 20
6.983269303608777
 30
0.0
 10
-34.21036474588839
 20
6.943460915802284
 30
0.0
 10
-34.64867944071975
 20
6.882073302992325
 30
0.0
 10
-35.13163355207902
 20
6.795572476517002
 30
0.0
 10
-35.64039797300043
 20
6.684306503414119
 30
0.0
 10
-35.75585687669626
 20
6.187794569071887
 30
0.0
 10
-35.8139650932783
 20
5.68135770770362
 30
0.0
 10
-35.37217905376671
 20
5.405592503135825
 30
0.0
 10
-34.94637999632872
 20
5.161825751192529
 30
0.0
 10
-34.55418504153771
 20
4.956712786834344
 30
0.0
 10
-34.19785824478741
 20
4.787309223145461
 30
0.0
 10
-33.879487010086756
 20
4.650556702664845
 30
0.0
 10
-33.543048068249384
 20
4.520981631996575
 30
0.0
 10
-33.44806227880273
 20
4.46524341751133
 30
0.0
 10
-33.40580759861145
 20
4.410755443558908
 30
0.0
 10
-33.536676546001914
 20
3.2701790695875825
 30
0.0
 10
-33.590174458018566
 20
3.2266776820994925
 30
0.0
 10
-33.69531627428338
 20
3.19390197122692
 30
0.0
 10
-34.05236014760015
 20
3.143896641015989
 30
0.0
 10
-34.39343152803745
 20
3.082808111896989
 30
0.0
 10
-34.77886743396424
 20
2.9985138897026147
 30
0.0
 10
-35.20732741708003
 20
2.8875623075597043
 30
0.0
 10
-35.67727315456035
 20
2.7465726962976382
 30
0.0
 10
-36.17003794919413
 20
2.5780372106111673
 30
0.0
 10
-36.228146165776145
 20
2.0716003492428943
 30
0.0
 10
-36.22814616577611
 20
1.5618407398318594
 30
0.0
 10
-35.75780494012197
 20
1.3382328593629844
 30
0.0
 10
-35.30699403789025
 20
1.144592478509498
 30
0.0
 10
-34.893974397615516
 20
0.9855233505850288
 30
0.0
 10
-34.52065968216347
 20
0.8578421981005143
 30
0.0
 10
-34.18877506281232
 20
0.7582726526522653
 30
0.0
 10
-33.83975867404476
 20
0.6678933359089637
 30
0.0
 10
-33.739038349457886
 20
0.6233460019155218
 30
0.0
 10
-33.69084793548194
 20
0.5740298655671213
 30
0.0
 10
-33.69084793548182
 20
-0.5740298655673967
 30
0.0
 10
-33.739038349457694
 20
-0.6233460019161129
 30
0.0
 10
-33.839758674045626
 20
-0.667893335905556
 30
0.0
 10
-34.188775062811146
 20
-0.7582726526523474
 30
0.0
 10
-34.52065968216333
 20
-0.8578421981007439
 30
0.0
 10
-34.89397439761553
 20
-0.9855233505852982
 30
0.0
 10
-35.30699403789077
 20
-1.1445924785093506
 30
0.0
 10
-35.75780494011469
 20
-1.3382328593595374
 30
0.0
 10
-36.22814616577607
 20
-1.5618407398318697
 30
0.0
 10
-36.22814616577606
 20
-2.071600349242918
 30
0.0
 10
-36.17003794919408
 20
-2.5780372106111904
 30
0.0
 10
-35.67727315456797
 20
-2.7465726962950585
 30
0.0
 10
-35.20732741707953
 20
-2.8875623075595143
 30
0.0
 10
-34.77886743396418
 20
-2.9985138897028953
 30
0.0
 10
-34.393431528037574
 20
-3.0828081118972483
 30
0.0
 10
-34.05236014760129
 20
-3.1438966410162186
 30
0.0
 10
-33.695316274282895
 20
-3.19390197122345
 30
0.0
 10
-33.590174458018694
 20
-3.226677682100116
 30
0.0
 10
-33.536676546002
 20
-3.2701790695878845
 30
0.0
 10
-33.4058075986113
 20
-4.4107554435591805
 30
0.0
 10
-33.44806227880247
 20
-4.465243417511908
 30
0.0
 10
-33.543048068250634
 20
-4.520981631993302
 30
0.0
 10
-33.87948701008558
 20
-4.650556702664808
 30
0.0
 10
-34.19785824478725
 20
-4.787309223145687
 30
0.0
 10
-34.5541850415377
 20
-4.956712786834629
 30
0.0
 10
-34.94637999632925
 20
-5.161825751192455
 30
0.0
 10
-35.372179053759865
 20
-5.405592503131584
 30
0.0
 10
-35.81396509327822
 20
-5.681357707703635
 30
0.0
 10
-35.7558568766962
 20
-6.187794569071922
 30
0.0
 10
-35.64039797300044
 20
-6.684306503414147
 30
0.0
 10
-35.131633552086896
 20
-6.795572476515309
 30
0.0
 10
-34.64867944071927
 20
-6.882073302992078
 30
0.0
 10
-34.210364745888306
 20
-6.9434609158025555
 30
0.0
 10
-33.817832395969134
 20
-6.983269303609047
 30
0.0
 10
-33.47202064149317
 20
-7.005080433998808
 30
0.0
 10
-33.11160389654088
 20
-7.014059881717421
 30
0.0
 10
-33.003411272968016
 20
-7.0346366879620446
 30
0.0
 10
-32.945303290008226
 20
-7.07175621947648
 30
0.0
 10
-32.68527147209445
 20
-8.189980078963083
 30
0.0
 10
-32.721039564124425
 20
-8.24892955645073
 30
0.0
 10
-32.80905253340532
 20
-8.315132018557698
 30
0.0
 10
-33.12852803218582
 20
-8.482213633948184
 30
0.0
 10
-33.4292354263066
 20
-8.654366351221052
 30
0.0
 10
-33.76392903962803
 20
-8.863283891592335
 30
0.0
 10
-34.130186447915314
 20
-9.11176673121368
 30
0.0
 10
-34.525422718663286
 20
-9.402481981837022
 30
0.0
 10
-34.93289421538885
 20
-9.72680948933867
 30
0.0
 10
-34.817435311693025
 20
-10.223321423680883
 30
0.0
 10
-34.64613090426474
 20
-10.703435638615758
 30
0.0
 10
-34.12799937934531
 20
-10.75598157701547
 30
0.0
 10
-33.6383329395233
 20
-10.786865948145469
 30
0.0
 10
-33.195877635339784
 20
-10.797889310209802
 30
0.0
 10
-32.801366100910116
 20
-10.79269290041429
 30
0.0
 10
-32.45532215746497
 20
-10.774942290634385
 30
0.0
 10
-32.0962311243356
 20
-10.742778795031075
 30
0.0
 10
-31.986398149761662
 20
-10.750888446506089
 30
0.0
 10
-31.924437622281353
 20
-10.78114221218689
 30
0.0
 10
-31.538632846258412
 20
-11.862435799077405
 30
0.0
 10
-31.567448058347328
 20
-11.925078283509313
 30
0.0
 10
-31.647340823807898
 20
-12.000881942904671
 30
0.0
 10
-31.945688027832542
 20
-12.203291938639124
 30
0.0
 10
-32.22481140061737
 20
-12.408600578760678
 30
0.0
 10
-32.53350858741224
 20
-12.65430853617736
 30
0.0
 10
-32.86905372375971
 20
-12.942921897242233
 30
0.0
 10
-33.22857469859985
 20
-13.276795728666242
 30
0.0
 10
-33.59641963842544
 20
-13.6454574340422
 30
0.0
 10
-33.425115230997115
 20
-14.125571648977086
 30
0.0
 10
-33.20019853476349
 20
-14.583029121472876
 30
0.0
 10
-32.67945454264555
 20
-14.576170008505441
 30
0.0
 10
-32.189459325260536
 20
-14.551035299279427
 30
0.0
 10
-31.748631493262682
 20
-14.511550704215049
 30
0.0
 10
-31.35728383550143
 20
-14.461417239966105
 30
0.0
 10
-31.015518915095917
 20
-14.404336296361073
 30
0.0
 10
-30.662434894565287
 20
-14.331449157788755
 30
0.0
 10
-30.552393409781715
 20
-14.326985932785066
 30
0.0
 10
-30.487388088013013
 20
-14.349979528529415
 30
0.0
 10
-29.980839909148735
 20
-15.380246527293304
 30
0.0
 10
-30.002326590939827
 20
-15.44576537808557
 30
0.0
 10
-30.07305762820205
 20
-15.530182018142348
 30
0.0
 10
-30.346387125403133
 20
-15.765281670380174
 30
0.0
 10
-30.600287676823573
 20
-16.001069721247333
 30
0.0
 10
-30.878964097170513
 20
-16.280364916722597
 30
0.0
 10
-31.179422617575728
 20
-16.605346282692263
 30
0.0
 10
-31.498541390784535
 20
-16.978026138930108
 30
0.0
 10
-31.821964352373165
 20
-17.38621597305539
 30
0.0
 10
-31.597047656139516
 20
-17.843673445551154
 30
0.0
 10
-31.32145080420171
 20
-18.27251051786283
 30
0.0
 10
-30.80488303919783
 20
-18.206335772555455
 30
0.0
 10
-30.320946881259538
 20
-18.12550965234678
 30
0.0
 10
-29.887493386396716
 20
-18.036031842234255
 30
0.0
 10
-29.504411420511914
 20
-17.941614889907612
 30
0.0
 10
-29.171380951545604
 20
-17.845947749871403
 30
0.0
 10
-28.828906933793732
 20
-17.733287163647876
 30
0.0
 10
-28.720091497841448
 20
-17.716309247129033
 30
0.0
 10
-28.652888825566436
 20
-17.73174291625223
 30
0.0
 10
-28.032200874037915
 20
-18.697552220970294
 30
0.0
 10
-28.046078913774394
 20
-18.765093299704677
 30
0.0
 10
-28.10672613559837
 20
-18.857022420421117
 30
0.0
 10
-28.35147465797629
 20
-19.121746845656816
 30
0.0
 10
-28.576842406053732
 20
-19.384940449435174
 30
0.0
 10
-28.82186508663285
 20
-19.69418184296905
 30
0.0
 10
-29.083320054790246
 20
-20.051294584743154
 30
0.0
 10
-29.357876425129675
 20
-20.45792201392839
 30
0.0
 10
-29.632661095565407
 20
-20.900318598069283
 30
0.0
 10
-29.357064243627562
 20
-21.329155670380988
 30
0.0
 10
-29.03438006242162
 20
-21.72378179544918
 30
0.0
 10
-28.528722775337183
 20
-21.59915410680816
 30
0.0
 10
-28.05715452474931
 20
-21.463690267701352
 30
0.0
 10
-27.636726096208744
 20
-21.325385722634184
 30
0.0
 10
-27.266903881474057
 20
-21.187916151595537
 30
0.0
 10
-26.94694942541439
 20
-21.054909982602556
 30
0.0
 10
-26.619550083009187
 20
-20.903944651761407
 30
0.0
 10
-26.513379271507592
 20
-20.874673376833613
 30
0.0
 10
-26.444855338332612
 20
-20.88234591785588
 30
0.0
 10
-25.718119230807908
 20
-21.77110672722615
 30
0.0
 10
-25.72420770701808
 20
-21.839789532650574
 30
0.0
 10
-25.77398048411937
 20
-21.93803269735067
 30
0.0
 10
-25.986957360390292
 20
-22.22893080785747
 30
0.0
 10
-26.180854291873
 20
-22.516098833419033
 30
0.0
 10
-26.389028987329056
 20
-22.851254990523046
 30
0.0
 10
-26.60807193788486
 20
-23.235843597379006
 30
0.0
 10
-26.83448664318768
 20
-23.671117589115692
 30
0.0
 10
-27.05705078406237
 20
-24.141953607239543
 30
0.0
 10
-26.734366602856454
 20
-24.536579732307736
 30
0.0
 10
-26.36880177416632
 20
-24.89185035508935
 30
0.0
 10
-25.880646981041586
 20
-24.710394435629578
 30
0.0
 10
-25.42759425112124
 20
-24.52205885593264
 30
0.0
 10
-25.025671816431366
 20
-24.33673058716532
 30
0.0
 10
-24.67393055098605
 20
-24.158000523505777
 30
0.0
 10
-24.371223203475044
 20
-23.989389264375564
 30
0.0
 10
-24.06316668753752
 20
-23.802087252876028
 30
0.0
 10
-23.961024599381858
 20
-23.760904215372605
 30
0.0
 10
-23.892072719569708
 20
-23.760715604988082
 30
0.0
 10
-23.068762572610034
 20
-24.560841562675936
 30
0.0
 10
-23.066982112695374
 20
-24.629770709384882
 30
0.0
 10
-23.10523158080681
 20
-24.73304716817321
 30
0.0
 10
-23.2836603316824
 20
-25.046326662209324
 30
0.0
 10
-23.44355870354135
 20
-25.353725435174006
 30
0.0
 10
-23.612171538356908
 20
-25.71042708278502
 30
0.0
 10
-23.7859469114676
 20
-26.117477854080004
 30
0.0
 10
-23.961268289793534
 20
-26.575723946220073
 30
0.0
 10
-24.12871043716291
 20
-27.068861330779757
 30
0.0
 10
-23.763145608472716
 20
-27.424131953561382
 30
0.0
 10
-23.35946582889965
 20
-27.735415578172002
 30
0.0
 10
-22.895177373999594
 20
-27.499496983304752
 30
0.0
 10
-22.466546399936135
 20
-27.260744905321186
 30
0.0
 10
-22.088369632694288
 20
-27.030808950260145
 30
0.0
 10
-21.75929480185236
 20
-26.813148413691913
 30
0.0
 10
-21.477780816096036
 20
-26.611130170044916
 30
0.0
 10
-21.193083114423164
 20
-26.389933246048397
 30
0.0
 10
-21.096301327938747
 20
-26.337375329844544
 30
0.0
 10
-21.027820394691076
 20
-26.32932802687803
 30
0.0
 10
-20.11866931515265
 20
-27.03038826739006
 30
0.0
 10
-20.109043130131013
 20
-27.09866515854263
 30
0.0
 10
-20.13527064894074
 20
-27.2056285448379
 30
0.0
 10
-20.27682518278172
 20
-27.53720534509933
 30
0.0
 10
-20.400640475206693
 20
-27.860827452355704
 30
0.0
 10
-20.52749332321983
 20
-28.234424438992246
 30
0.0
 10
-20.65373569114174
 20
-28.658630845418497
 30
0.0
 10
-20.7756781602048
 20
-29.13387509935383
 30
0.0
 10
-20.885815449608113
 20
-29.642885050385143
 30
0.0
 10
-20.482135670035085
 20
-29.954168674995753
 30
0.0
 10
-20.045603522854545
 20
-30.217407243341732
 30
0.0
 10
-19.61123411622643
 20
-29.930101532742025
 30
0.0
 10
-19.212612758273373
 20
-29.644045454932588
 30
0.0
 10
-18.86311177098737
 20
-29.372499380393773
 30
0.0
 10
-18.560993368423947
 20
-29.118745908879905
 30
0.0
 10
-18.304342709746802
 20
-28.885954297469155
 30
0.0
 10
-18.046715292268907
 20
-28.633746101157044
 30
0.0
 10
-17.95655550605122
 20
-28.570498479067453
 30
0.0
 10
-17.889438273061003
 20
-28.554697392419886
 30
0.0
 10
-16.906298435632994
 20
-29.147552523387557
 30
0.0
 10
-16.888952017547485
 20
-29.214287065291533
 30
0.0
 10
-16.902815671237995
 20
-29.323542947773966
 30
0.0
 10
-17.005650608215994
 20
-29.66909444358794
 30
0.0
 10
-17.091768699519143
 20
-30.00472097605169
 30
0.0
 10
-17.175207839859585
 20
-30.39034289365
 30
0.0
 10
-17.25227144026402
 20
-30.826174755959663
 30
0.0
 10
-17.31924529349302
 20
-31.3122216360478
 30
0.0
 10
-17.370641916929642
 20
-31.830468430408693
 30
0.0
 10
-16.934109769749053
 20
-32.09370699875463
 30
0.0
 10
-16.470416119089347
 20
-32.30546879352594
 30
0.0
 10
-16.071628430231016
 20
-31.97052143650898
 30
0.0
 10
-15.708213327402069
 20
-31.640890537314316
 30
0.0
 10
-15.391944399934065
 20
-31.33127436165554
 30
0.0
 10
-15.120721001057104
 20
-31.04473601976314
 30
0.0
 10
-14.892279503291588
 20
-30.78420583525226
 30
0.0
 10
-14.665080937385852
 20
-30.50427428616621
 30
0.0
 10
-14.582718522129866
 20
-30.431161487669588
 30
0.0
 10
-14.517839965171712
 20
-30.407812608670064
 30
0.0
 10
-13.4735281011536
 20
-30.88473385680614
 30
0.0
 10
-13.448687587091893
 20
-30.94905606265048
 30
0.0
 10
-13.450006641735602
 20
-31.059180123806577
 30
0.0
 10
-13.512781371181342
 20
-31.41420152297226
 30
0.0
 10
-13.560079580341883
 20
-31.75745707551809
 30
0.0
 10
-13.59901725621157
 20
-32.150076752649554
 30
0.0
 10
-13.625897447213681
 20
-32.59185233599849
 30
0.0
 10
-13.637029578008459
 20
-33.082365477844576
 30
0.0
 10
-13.629015501890866
 20
-33.60309297601418
 30
0.0
 10
-13.165321851231166
 20
-33.8148547707855
 30
0.0
 10
-12.680511652956751
 20
-33.97237915313948
 30
0.0
 10
-12.322504489259602
 20
-33.594156700739894
 30
0.0
 10
-11.999033313191914
 20
-33.22524822303648
 30
0.0
 10
-11.720119494682438
 20
-32.88159826660437
 30
0.0
 10
-11.483326911279034
 20
-32.566010519823934
 30
0.0
 10
-11.286072658704766
 20
-32.28113817159758
 30
0.0
 10
-11.092264825133196
 20
-31.977132605580064
 30
0.0
 10
-11.018773500878853
 20
-31.89510776781643
 30
0.0
 10
-10.956979411161676
 20
-31.864515484810216
 30
0.0
 10
-9.865109722770093
 20
-32.219285452288204
 30
0.0
 10
-9.833098946821654
 20
-32.280356783751586
 30
0.0
 10
-9.82185620652405
 20
-32.38991338803113
 30
0.0
 10
-9.84375236383763
 20
-32.74977644367514
 30
0.0
 10
-9.85161408636587
 20
-33.0961861552339
 30
0.0
 10
-9.84554268561234
 20
-33.4906851939727
 30
0.0
 10
-9.821889042814457
 20
-33.93264527802329
 30
0.0
 10
-9.777034326825707
 20
-34.42123009268018
 30
0.0
 10
-9.709714026892069
 20
-34.93764981536984
 30
0.0
 10
-9.224903828617634
 20
-35.09517419772378
 30
0.0
 10
-8.725297325084613
 20
-35.19640759643388
 30
0.0
 10
-8.412737857428846
 20
-34.77984075673541
 30
0.0
 10
-8.133427549587868
 20
-34.37646398670293
 30
0.0
 10
-7.8955049082049005
 20
-34.00326025222445
 30
0.0
 10
-7.696230093727304
 20
-33.6627372694645
 30
0.0
 10
-7.532734597188089
 20
-33.357236504237925
 30
0.0
 10
-7.3748440774521695
 20
-33.03312009875857
 30
0.0
 10
-7.3111819160016225
 20
-32.943252540928995
 30
0.0
 10
-7.253277873986766
 20
-32.90581567110995
 30
0.0
 10
-6.128084552409379
 20
-33.133809388853024
 30
0.0
 10
-6.089320823992868
 20
-33.19083368773325
 30
0.0
 10
-6.065662855067284
 20
-33.29839459725423
 30
0.0
 10
-6.046394990352266
 20
-33.658407944106635
 30
0.0
 10
-6.01471773667209
 20
-34.00345583432279
 30
0.0
 10
-5.963716409289178
 20
-34.394691336390444
 30
0.0
 10
-5.889837294098757
 20
-34.83107429555623
 30
0.0
 10
-5.789580481145837
 20
-35.31136133277072
 30
0.0
 10
-5.663831580458902
 20
-35.81674095913295
 30
0.0
 10
-5.164225076925879
 20
-35.917974357843036
 30
0.0
 10
-4.656335402957503
 20
-35.961597040740614
 30
0.0
 10
-4.3932983220021065
 20
-35.51211639955557
 30
0.0
 10
-4.161790119400608
 20
-35.07952997027665
 30
0.0
 10
-3.9679603406303636
 20
-34.681637739172295
 30
0.0
 10
-3.808801147036839
 20
-34.32061875827589
 30
0.0
 10
-3.681195820364203
 20
-33.99847224572702
 30
0.0
 10
-3.561280958851124
 20
-33.658470353803416
 30
0.0
 10
-3.508277893837607
 20
-33.56193163695893
 30
0.0
 10
-3.455018767265554
 20
-33.518138227177445
 30
0.0
 10
-2.311170428210533
 20
-33.616383448403376
 30
0.0
 10
-2.2661590918073404
 20
-33.66861731575713
 30
0.0
 10
-2.230394312058924
 20
-33.772780309570734
 30
0.0
 10
-2.1702136113982697
 20
-34.12825062308585
 30
0.0
 10
-2.099410342955516
 20
-34.46743846502769
 30
0.0
 10
-2.004143969242136
 20
-34.85031007733716
 30
0.0
 10
-1.8810025089092268
 20
-35.275426992383686
 30
0.0
 10
-1.7266505998720152
 20
-35.74115497612132
 30
0.0
 10
-1.5441124276603995
 20
-36.22890610984798
 30
0.0
 10
-1.0362227536919826
 20
-36.2725287927455
 30
0.0
 10
-0.5266710279055706
 20
-36.25797207144661
 30
0.0
 10
-0.3165854242641735
 20
-35.781437296324945
 30
0.0
 10
-0.13589739036923248
 20
-35.32528063346092
 30
0.0
 10
0.011312658197575681
 20
-34.90788703946086
 30
0.0
 10
0.12828134741591934
 20
-34.53107849495137
 30
0.0
 10
0.2183329736416025
 20
-34.196485907530885
 30
0.0
 10
0.29870890332587346
 20
-33.845030973790124
 30
0.0
 10
0.34036189589216753
 20
-33.74307962774173
 30
0.0
 10
0.3882817928572127
 20
-33.6935005920677
 30
0.0
 10
1.5358733369997037
 20
-33.66071654007111
 30
0.0
 10
1.586545489783595
 20
-33.707479027556026
 30
0.0
 10
1.6339508317556428
 20
-33.80688618174111
 30
0.0
 10
1.7342598208943023
 20
-34.1531793627605
 30
0.0
 10
1.8432660752158385
 20
-34.48208532418736
 30
0.0
 10
1.9815555523871922
 20
-34.85160172974552
 30
0.0
 10
2.152354020606557
 20
-35.25991055155264
 30
0.0
 10
2.3587888125429397
 20
-35.70500800530624
 30
0.0
 10
2.5957365920482975
 20
-36.16877206444996
 30
0.0
 10
3.105288317834744
 20
-36.15421534315104
 30
0.0
 10
3.6098593094346314
 20
-36.08166898677946
 30
0.0
 10
3.7642546486340493
 20
-35.58429243728091
 30
0.0
 10
3.891766968973879
 20
-35.11051224053392
 30
0.0
 10
3.9904381792254293
 20
-34.67905864745719
 30
0.0
 10
4.063691498324074
 20
-34.29137281496669
 30
0.0
 10
4.1150154634387395
 20
-33.94869607874502
 30
0.0
 10
4.154804638131625
 20
-33.59036985572947
 30
0.0
 10
4.184564547792553
 20
-33.4843349721874
 30
0.0
 10
4.226520506009614
 20
-33.429616649172196
 30
0.0
 10
5.362894644446602
 20
-33.2662307142076
 30
0.0
 10
5.418567024606584
 20
-33.30691220128531
 30
0.0
 10
5.476994927672529
 20
-33.400267591563434
 30
0.0
 10
5.616124524212944
 20
-33.73286917888533
 30
0.0
 10
5.761912701184601
 20
-34.04720546759317
 30
0.0
 10
5.941422466992501
 20
-34.398549454951066
 30
0.0
 10
6.157651323862489
 20
-34.78472725359865
 30
0.0
 10
6.413477805483826
 20
-35.203391651369714
 30
0.0
 10
6.701746215612146
 20
-35.63712276218384
 30
0.0
 10
7.206317207212001
 20
-35.56457640581226
 30
0.0
 10
7.69932961010799
 20
-35.43498616706872
 30
0.0
 10
7.796021905501714
 20
-34.92325190715532
 30
0.0
 10
7.868696194185842
 20
-34.43802462594339
 30
0.0
 10
7.917542235998339
 20
-33.99813569119898
 30
0.0
 10
7.946125215936323
 20
-33.60462664844305
 30
0.0
 10
7.958052433564814
 20
-33.25833307873338
 30
0.0
 10
7.956736140524491
 20
-32.897806896749366
 30
0.0
 10
7.974215001345707
 20
-32.78907080258005
 30
0.0
 10
8.009660060736056
 20
-32.72992652924508
 30
0.0
 10
9.12000241871275
 20
-32.43806869684132
 30
0.0
 10
9.179949251633504
 20
-32.47213883811344
 30
0.0
 10
9.248638018722922
 20
-32.55822543420366
 30
0.0
 10
9.424774455602892
 20
-32.87279945748876
 30
0.0
 10
9.60544398338356
 20
-33.168468219238875
 30
0.0
 10
9.823833853505894
 20
-33.49705948220991
 30
0.0
 10
10.082674225197788
 20
-33.856071839509774
 30
0.0
 10
10.384557307079964
 20
-34.24284525060866
 30
0.0
 10
10.720388328255522
 20
-34.640889064757566
 30
0.0
 10
11.21340073115153
 20
-34.51129882601396
 30
0.0
 10
11.688427374706535
 20
-34.32635411184306
 30
0.0
 10
11.726156094352323
 20
-33.80693338018955
 30
0.0
 10
11.743044930886748
 20
-33.31658469418277
 30
0.0
 10
11.741429021404771
 20
-32.87399504275848
 30
0.0
 10
11.724969039326568
 20
-32.479792781903974
 30
0.0
 10
11.697344019946767
 20
-32.13439684497522
 30
0.0
 10
11.65493941906603
 20
-31.776370714158656
 30
0.0
 10
11.659909367366254
 20
-31.666350950640002
 30
0.0
 10
11.688381447374505
 20
-31.603551763037686
 30
0.0
 10
12.758217014204892
 20
-31.187026846379187
 30
0.0
 10
12.821656801242431
 20
-31.214041485450675
 30
0.0
 10
12.89971096923038
 20
-31.291737016920468
 30
0.0
 10
13.110558038629211
 20
-31.58418252269628
 30
0.0
 10
13.32375361362584
 20
-31.857329263012165
 30
0.0
 10
13.578176542121303
 20
-32.15888411196794
 30
0.0
 10
13.876254048544766
 20
-32.48605075280404
 30
0.0
 10
14.220258223044775
 20
-32.835890994323385
 30
0.0
 10
14.599273784319186
 20
-33.19305840196
 30
0.0
 10
15.074300427874238
 20
-33.00811368778914
 30
0.0
 10
15.525148613329927
 20
-32.77022553537672
 30
0.0
 10
15.50342190566853
 20
-32.24988977557175
 30
0.0
 10
15.464305118240883
 20
-31.760812129783886
 30
0.0
 10
15.412248323315746
 20
-31.32129159463968
 30
0.0
 10
15.350959960260042
 20
-30.93153514501149
 30
0.0
 10
15.284142838246586
 20
-30.59153960511653
 30
0.0
 10
15.201202738347392
 20
-30.240680943613
 30
0.0
 10
15.193598983249979
 20
-30.13081178661603
 30
0.0
 10
15.214726906770787
 20
-30.065176368195743
 30
0.0
 10
16.230108739738597
 20
-29.5294144065639
 30
0.0
 10
16.296214446250236
 20
-29.5490213663009
 30
0.0
 10
16.38261645968853
 20
-29.61731295307756
 30
0.0
 10
16.625425447607572
 20
-29.883817466938535
 30
0.0
 10
16.868367739459472
 20
-30.13088130033607
 30
0.0
 10
17.155506934365402
 20
-30.40146850665175
 30
0.0
 10
17.488935679373412
 20
-30.692524313523876
 30
0.0
 10
17.870576325990065
 20
-31.00087068290379
 30
0.0
 10
18.287835379892517
 20
-31.31250546065243
 30
0.0
 10
18.738683565348214
 20
-31.074617308240022
 30
0.0
 10
19.159475797123754
 20
-30.786886953455802
 30
0.0
 10
19.07857690301625
 20
-30.272419537879443
 30
0.0
 10
18.983964438772063
 20
-29.7909888073712
 30
0.0
 10
18.88214539833622
 20
-29.36026721084271
 30
0.0
 10
18.77682764184392
 20
-28.98003764381741
 30
0.0
 10
18.67168948056587
 20
-28.64987486277494
 30
0.0
 10
18.54929513269094
 20
-28.310757649806316
 30
0.0
 10
18.529216800772026
 20
-28.202471411815697
 30
0.0
 10
18.54272513301131
 20
-28.13485542063299
 30
0.0
 10
19.490416177097423
 20
-27.48684089054
 30
0.0
 10
19.558326014103137
 20
-27.498784564237347
 30
0.0
 10
19.651949490611756
 20
-27.556781921048717
 30
0.0
 10
19.923555010564996
 20
-27.793871149090553
 30
0.0
 10
20.19307689496552
 20
-28.01163122066597
 30
0.0
 10
20.509189057753517
 20
-28.24772326629742
 30
0.0
 10
20.873622287741345
 20
-28.49887388165052
 30
0.0
 10
21.28792413700185
 20
-28.761706612411132
 30
0.0
 10
21.737987073649247
 20
-29.02374612435988
 30
0.0
 10
22.15877930542474
 20
-28.736015769575673
 30
0.0
 10
22.544029913260122
 20
-28.402194217621094
 30
0.0
 10
22.40501347351014
 20
-27.900302015811928
 30
0.0
 10
22.25613875061196
 20
-27.43279438640889
 30
0.0
 10
22.105884831569647
 20
-27.01648684321065
 30
0.0
 10
21.957910659659376
 20
-26.650741032680592
 30
0.0
 10
21.815822095837095
 20
-26.3347151872604
 30
0.0
 10
21.655569097489014
 20
-26.01176033431066
 30
0.0
 10
21.623277940511013
 20
-25.906468692041067
 30
0.0
 10
21.6289905796997
 20
-25.837753605946332
 30
0.0
 10
22.496636232837794
 20
-25.085934367802462
 30
0.0
 10
22.565464891757504
 20
-25.090059051408016
 30
0.0
 10
22.6650893061415
 20
-25.137006094012534
 30
0.0
 10
22.96195056480924
 20
-25.341589215566465
 30
0.0
 10
23.25453841181463
 20
-25.527206689765656
 30
0.0
 10
23.595502537011505
 20
-25.725725753841836
 30
0.0
 10
23.986189307497465
 20
-25.933697045319413
 30
0.0
 10
24.427751301203685
 20
-26.1475897108644
 30
0.0
 10
24.904750861934247
 20
-26.356617871237187
 30
0.0
 10
25.290001469769646
 20
-26.022796319282595
 30
0.0
 10
25.634688122826926
 20
-25.64723544460173
 30
0.0
 10
25.439366429324817
 20
-25.164461388955495
 30
0.0
 10
25.23817025746016
 20
-24.7169715375677
 30
0.0
 10
25.041440249429847
 20
-24.320505253185637
 30
0.0
 10
24.85273873172979
 20
-23.974011255127213
 30
0.0
 10
24.675552107089146
 20
-23.67624222552359
 30
0.0
 10
24.479529601176754
 20
-23.373659942996735
 30
0.0
 10
24.435446583753833
 20
-23.272735534027955
 30
0.0
 10
24.43328905690374
 20
-23.20381715925462
 30
0.0
 10
25.20957823111215
 20
-22.35799432658841
 30
0.0
 10
25.278428425116964
 20
-22.35424624854349
 30
0.0
 10
25.38275502077894
 20
-22.38953095044456
 30
0.0
 10
25.701001977663662
 20
-22.55894091165156
 30
0.0
 10
26.01284145723276
 20
-22.70999598083301
 30
0.0
 10
26.374212556029146
 20
-22.868354063757895
 30
0.0
 10
26.786059667481545
 20
-23.030434807524436
 30
0.0
 10
27.249125369763483
 20
-23.19259898985175
 30
0.0
 10
27.746843135826325
 20
-23.345890796910798
 30
0.0
 10
28.091529788883566
 20
-22.97032992222986
 30
0.0
 10
28.39115896950976
 20
-22.557925735170404
 30
0.0
 10
28.14207833923639
 20
-22.100563523810248
 30
0.0
 10
27.891183618195402
 20
-21.678925164998073
 30
0.0
 10
27.65054219769154
 20
-21.30746868376614
 30
0.0
 10
27.423573347066686
 20
-20.984743577338314
 30
0.0
 10
27.213598560231894
 20
-20.709113238231186
 30
0.0
 10
26.984361999897548
 20
-20.43084814891991
 30
0.0
 10
26.9290618115781
 20
-20.33560667726685
 30
0.0
 10
26.91906224535123
 20
-20.267383470227152
 30
0.0
 10
27.593874824062866
 20
-19.33858363718172
 30
0.0
 10
27.66184898558113
 20
-19.327011659415586
 30
0.0
 10
27.769517705799668
 20
-19.350174030562926
 30
0.0
 10
28.105001525122386
 20
-19.482202313499528
 30
0.0
 10
28.43202733274199
 20
-19.59672574382749
 30
0.0
 10
28.809094380219204
 20
-19.712858405812682
 30
0.0
 10
29.236732775701277
 20
-19.82693563150264
 30
0.0
 10
29.71526541696197
 20
-19.935257272497488
 30
0.0
 10
30.227212876115203
 20
-20.03081433310814
 30
0.0
 10
30.526842056741355
 20
-19.618410146048703
 30
0.0
 10
30.777507640343266
 20
-19.174538965879957
 30
0.0
 10
30.47791522023398
 20
-18.748551014676305
 30
0.0
 10
30.180592746399455
 20
-18.35826084925963
 30
0.0
 10
29.89917704235193
 20
-18.016656674480156
 30
0.0
 10
29.636899744874306
 20
-17.72190767498966
 30
0.0
 10
29.396874138306803
 20
-17.472009289371563
 30
0.0
 10
29.137411972686593
 20
-17.221689004266647
 30
0.0
 10
29.07161553599611
 20
-17.13337208816536
 30
0.0
 10
29.053904290030594
 20
-17.06673344269701
 30
0.0
 10
29.618443059289113
 20
-16.067064935512384
 30
0.0
 10
29.68465504117236
 20
-16.047819916452273
 30
0.0
 10
29.79426225952132
 20
-16.0585579999157
 30
0.0
 10
30.142609396640786
 20
-16.151483414002584
 30
0.0
 10
30.480558250787055
 20
-16.22798221742173
 30
0.0
 10
30.868405601331503
 20
-16.30037549161623
 30
0.0
 10
31.306260360369507
 20
-16.364962028134116
 30
0.0
 10
31.794021535808767
 20
-16.418028989549526
 30
0.0
 10
32.313524669999616
 20
-16.454605571291058
 30
0.0
 10
32.56419025360152
 20
-16.010734391122263
 30
0.0
 10
32.762624430953316
 20
-15.541182757491198
 30
0.0
 10
32.41642586637173
 20
-15.15212247085258
 30
0.0
 10
32.07655169288623
 20
-14.798268528009485
 30
0.0
 10
31.75803038936715
 20
-14.490969992516987
 30
0.0
 10
31.4638638307108
 20
-14.22803960393267
 30
0.0
 10
31.196916505264056
 20
-14.007130979430467
 30
0.0
 10
30.910611220483087
 20
-13.788018806263791
 30
0.0
 10
30.8351762925965
 20
-13.707777791778975
 30
0.0
 10
30.809984260069363
 20
-13.64359244453633
 30
0.0
 10
31.256889593666706
 20
-12.586087470999601
 30
0.0
 10
31.3204762214729
 20
-12.559420298900429
 30
0.0
 10
31.430593040238477
 20
-12.557594107340213
 30
0.0
 10
31.787262257494046
 20
-12.610205227693653
 30
0.0
 10
32.13172847802703
 20
-12.647682125311567
 30
0.0
 10
32.525299948288286
 20
-12.675392254675009
 30
0.0
 10
32.967662964485605
 20
-12.689646117744923
 30
0.0
 10
33.458293961246994
 20
-12.686766590583394
 30
0.0
 10
33.97858025264364
 20
-12.663885861776125
 30
0.0
 10
34.177014429995374
 20
-12.194334228145037
 30
0.0
 10
34.32063030812926
 20
-11.705223464682687
 30
0.0
 10
33.932338826807246
 20
-11.35816283843649
 30
0.0
 10
33.5543437332927
 20
-11.0453581454618
 30
0.0
 10
33.202869242609
 20
-10.776371355618954
 30
0.0
 10
32.880648333735785
 20
-10.548687277656226
 30
0.0
 10
32.59025935604031
 20
-10.3596482960265
 30
0.0
 10
32.2808433793332
 20
-10.174600697064173
 30
0.0
 10
32.196753369898374
 20
-10.103481648532453
 30
0.0
 10
32.16440896747985
 20
-10.042586353675658
 30
0.0
 10
32.48785477093895
 20
-8.941031108362305
 30
0.0
 10
32.54798709573144
 20
-8.907289430594565
 30
0.0
 10
32.65717797377904
 20
-8.892922771210493
 30
0.0
 10
33.01751954246853
 20
-8.904533731418342
 30
0.0
 10
33.36401248541037
 20
-8.902500154561048
 30
0.0
 10
33.758177269383594
 20
-8.88516589518
 30
0.0
 10
34.199281664317056
 20
-8.848901263898355
 30
0.0
 10
34.686386357034394
 20
-8.790112787200101
 30
0.0
 10
35.200673078153166
 20
-8.708073033135605
 30
0.0
 10
35.34428895628705
 20
-8.218962269673218
 30
0.0
 10
35.43121428259937
 20
-7.716668683179832
 30
0.0
 10
35.00589185781117
 20
-7.416132183349985
 30
0.0
 10
34.59470358838054
 20
-7.14845462778975
 30
0.0
 10
34.21485791802924
 20
-6.9212862377644395
 30
0.0
 10
33.86878330125969
 20
-6.731816680577463
 30
0.0
 10
33.55873833573246
 20
-6.577111754043619
 30
0.0
 10
33.23024537754633
 20
-6.428541107731948
 30
0.0
 10
33.13859652843534
 20
-6.3674711707135
 30
0.0
 10
33.09952141487535
 20
-6.310659791538363
 30
0.0
 10
33.29529107750151
 20
-5.179414731682675
 30
0.0
 10
33.351185182466075
 20
-5.139038422617318
 30
0.0
 10
33.45802664971444
 20
-5.112318586785436
 30
0.0
 10
33.81734296641856
 20
-5.082778020224708
 30
0.0
 10
34.16134556636536
 20
-5.041260479676496
 30
0.0
 10
34.55096512329412
 20
-4.979107810131321
 30
0.0
 10
34.98506042659353
 20
-4.89279744942648
 30
0.0
 10
35.462288660666616
 20
-4.778866420890654
 30
0.0
 10
35.96387129759753
 20
-4.6387371552267735
 30
0.0
  0
LWPOLYLINE
  8
OpenJsCad
  90
31
  70
1
 10
0.5197792270443984
 20
-2.4453690018345142
 30
0.0
 10
1.5308084989341916e-16
 20
-2.5
 30
0.0
 10
-0.5197792270443974
 20
-2.4453690018345142
 30
0.0
 10
-1.0168416076895002
 20
-2.2838636441065026
 30
0.0
 10
-1.4694631307311832
 20
-2.022542485937368
 30
0.0
 10
-1.857862063693485
 20
-1.6728265158971463
 30
0.0
 10
-2.1650635094610964
 20
-1.2500000000000004
 30
0.0
 10
-2.377641290737884
 20
-0.7725424859373682
 30
0.0
 10
-2.4863047384206833
 20
-0.26132115816913265
 30
0.0
 10
-2.4863047384206833
 20
0.2613211581691354
 30
0.0
 10
-2.3776412907378837
 20
0.7725424859373687
 30
0.0
 10
-2.165063509461096
 20
1.2500000000000009
 30
0.0
 10
-1.857862063693485
 20
1.6728265158971458
 30
0.0
 10
-1.4694631307311827
 20
2.022542485937369
 30
0.0
 10
-1.0168416076895008
 20
2.283863644106502
 30
0.0
 10
-0.5197792270443978
 20
2.4453690018345142
 30
0.0
 10
1.2633038745185757e-15
 20
2.5
 30
0.0
 10
0.5197792270443982
 20
2.4453690018345142
 30
0.0
 10
1.0168416076895
 20
2.2838636441065026
 30
0.0
 10
1.469463130731183
 20
2.022542485937368
 30
0.0
 10
1.8578620636934862
 20
1.672826515897145
 30
0.0
 10
2.165063509461097
 20
1.2499999999999998
 30
0.0
 10
2.377641290737884
 20
0.7725424859373685
 30
0.0
 10
2.4863047384206833
 20
0.2613211581691335
 30
0.0
 10
2.4863047384206833
 20
-0.2613211581691335
 30
0.0
 10
2.3776412907378837
 20
-0.7725424859373685
 30
0.0
 10
2.1650635094610964
 20
-1.25
 30
0.0
 10
1.8578620636934853
 20
-1.6728265158971454
 30
0.0
 10
1.4694631307311832
 20
-2.0225424859373686
 30
0.0
 10
1.0168416076895006
 20
-2.283863644106502
 30
0.0
 10
0.5197792270443984
 20
-2.4453690018345142
 30
0.0
  0
LWPOLYLINE
  8
OpenJsCad
  90
1576
  70
1
 10
33.82698412579988
 20
2.5664444871938272
 30
0.0
 10
33.783846560596835
 20
2.052732924151644
 30
0.0
 10
33.78384656059679
 20
1.5372133614434094
 30
0.0
 10
33.812582461201636
 20
1.5236411776355046
 30
0.0
 10
34.279713912993614
 20
1.3187625247385166
 30
0.0
 10
34.71973574430216
 20
1.1402516898681707
 30
0.0
 10
35.131565202850304
 20
0.9864246967795487
 30
0.0
 10
35.514192714190244
 20
0.855558380510751
 30
0.0
 10
35.8666832058798
 20
0.7458931682214898
 30
0.0
 10
36.228811251161844
 20
0.6442282098107368
 30
0.0
 10
36.302170043169866
 20
0.61040651656266
 30
0.0
 10
36.33732702495223
 20
0.5740298655677283
 30
0.0
 10
36.33732702495214
 20
-0.5740298655674063
 30
0.0
 10
36.30217004317073
 20
-0.6104065165651269
 30
0.0
 10
36.228811251167805
 20
-0.6442282098319929
 30
0.0
 10
35.86668320587997
 20
-0.745893168222497
 30
0.0
 10
35.514192714190166
 20
-0.8555583805104197
 30
0.0
 10
35.13156520285031
 20
-0.9864246967791885
 30
0.0
 10
34.71973574429695
 20
-1.1402516898715938
 30
0.0
 10
34.27971391296011
 20
-1.3187625247532573
 30
0.0
 10
33.81258246120157
 20
-1.5236411776355765
 30
0.0
 10
33.783846560596835
 20
-1.5372133614434542
 30
0.0
 10
33.78384656059684
 20
-2.0527329241516714
 30
0.0
 10
33.82698412579984
 20
-2.5664444871938574
 30
0.0
 10
33.85675493662701
 20
-2.577564513254031
 30
0.0
 10
34.339391896487825
 20
-2.7426360754398917
 30
0.0
 10
34.79280791097408
 20
-2.8837007698238235
 30
0.0
 10
35.216064936673845
 20
-3.0025272690844345
 30
0.0
 10
35.60830113058674
 20
-3.1009171738140404
 30
0.0
 10
35.968731936961674
 20
-3.1807021306286405
 30
0.0
 10
36.33809705268148
 20
-3.2517084418815063
 30
0.0
 10
36.41402869142949
 20
-3.2792730121862466
 30
0.0
 10
36.452106292431296
 20
-3.3125802247324856
 30
0.0
 10
36.54817345474927
 20
-4.4566135488005605
 30
0.0
 10
36.516183693154474
 20
-4.495804482176742
 30
0.0
 10
36.4459123071108
 20
-4.53564606350917
 30
0.0
 10
36.09356140030808
 20
-4.667256562421038
 30
0.0
 10
35.75148369083869
 20
-4.806032807513785
 30
0.0
 10
35.381148719146324
 20
-4.968457602140431
 30
0.0
 10
34.983635515497575
 20
-5.156206103229296
 30
0.0
 10
34.56009430433088
 20
-5.3709109533529436
 30
0.0
 10
34.11174495214067
 20
-5.61415962039868
 30
0.0
 10
34.08424552345428
 20
-5.630088762836471
 30
0.0
 10
34.127383088657325
 20
-6.143800325878636
 30
0.0
 10
34.213355640037804
 20
-6.652100571741274
 30
0.0
 10
34.24395254023965
 20
-6.660690441060638
 30
0.0
 10
34.73870965667005
 20
-6.78479705413039
 30
0.0
 10
35.202339466771356
 20
-6.887426140551648
 30
0.0
 10
35.6340552156972
 20
-6.970418663468657
 30
0.0
 10
36.033148837104044
 20
-7.0356420221704425
 30
0.0
 10
36.39899179502682
 20
-7.084987089363741
 30
0.0
 10
36.773003150286094
 20
-7.124836695203243
 30
0.0
 10
36.85097502988509
 20
-7.145950796909076
 30
0.0
 10
36.89170616309401
 20
-7.17595494484181
 30
0.0
 10
37.083166645610554
 20
-8.307937290061297
 30
0.0
 10
37.05456848939535
 20
-8.34966760957695
 30
0.0
 10
36.987877412594116
 20
-8.395249618908032
 30
0.0
 10
36.64777513272395
 20
-8.55588250525341
 30
0.0
 10
36.31850963482439
 20
-8.722796367502248
 30
0.0
 10
35.96306483652064
 20
-8.915640347254518
 30
0.0
 10
35.58265615728725
 20
-9.135993435501819
 30
0.0
 10
35.178566403573086
 20
-9.385386300609053
 30
0.0
 10
34.75214399951824
 20
-9.665298767192807
 30
0.0
 10
34.726073931484166
 20
-9.683473136771378
 30
0.0
 10
34.81204648286465
 20
-10.191773382633995
 30
0.0
 10
34.94025098474577
 20
-10.691096950305603
 30
0.0
 10
34.97145935905126
 20
-10.697096411122683
 30
0.0
 10
35.474866266361985
 20
-10.779367556356117
 30
0.0
 10
35.945457842078035
 20
-10.842841165512354
 30
0.0
 10
36.3826041384386
 20
-10.889417579167544
 30
0.0
 10
36.78575583233361
 20
-10.921016896843136
 30
0.0
 10
37.154444816312186
 20
-10.939575954223152
 30
0.0
 10
37.53047899018058
 20
-10.94798933829623
 30
0.0
 10
37.60994419391789
 20
-10.962504871150148
 30
0.0
 10
37.65304315969975
 20
-10.98899549692958
 30
0.0
 10
37.93855400469417
 20
-12.100986820476958
 30
0.0
 10
37.913548049376665
 20
-12.144963817923875
 30
0.0
 10
37.850905071804135
 20
-12.19596653020878
 30
0.0
 10
37.52543699199668
 20
-12.384495079704525
 30
0.0
 10
37.211293266557774
 20
-12.578375778293223
 30
0.0
 10
36.873231831515994
 20
-12.800286281211365
 30
0.0
 10
36.51259597025954
 20
-13.05169833802652
 30
0.0
 10
36.13079207328213
 20
-13.334029906357141
 30
0.0
 10
35.72928766414303
 20
-13.648642787642661
 30
0.0
 10
35.704829819557126
 20
-13.668934904217696
 30
0.0
 10
35.83303432143831
 20
-14.168258471889274
 30
0.0
 10
36.002571511354326
 20
-14.655102965306085
 30
0.0
 10
36.034172455440846
 20
-14.65846993571387
 30
0.0
 10
36.54269811587447
 20
-14.698328540138919
 30
0.0
 10
37.0169505954212
 20
-14.722201450267624
 30
0.0
 10
37.45646117203669
 20
-14.732035054584314
 30
0.0
 10
37.86084311895126
 20
-14.72978868472429
 30
0.0
 10
38.229792040665714
 20
-14.717431553838166
 30
0.0
 10
38.60521142359373
 20
-14.694349702300556
 30
0.0
 10
38.68561256016079
 20
-14.70216485026899
 30
0.0
 10
38.7307770502372
 20
-14.724956141188763
 30
0.0
 10
39.108335604271126
 20
-15.809156622894012
 30
0.0
 10
39.08709724866111
 20
-15.855071831232532
 30
0.0
 10
39.028941765796056
 20
-15.911137499089978
 30
0.0
 10
38.720390810782646
 20
-16.126239319418953
 30
0.0
 10
38.42357235032642
 20
-16.345726920550003
 30
0.0
 10
38.10526553661662
 20
-16.595147403898522
 30
0.0
 10
37.7669320947873
 20
-16.875854954342287
 30
0.0
 10
37.41009213455821
 20
-17.189144872799407
 30
0.0
 10
37.03632198528444
 20
-17.536251385473516
 30
0.0
 10
37.01364791835367
 20
-17.55851891442708
 30
0.0
 10
37.18318510826967
 20
-18.045363407843872
 30
0.0
 10
37.392865804645474
 20
-18.516313962681906
 30
0.0
 10
37.42463766059551
 20
-18.517024825802142
 30
0.0
 10
37.93471513201928
 20
-18.51419130994713
 30
0.0
 10
38.4093019750026
 20
-18.498296069736412
 30
0.0
 10
38.84809398096598
 20
-18.47131788904575
 30
0.0
 10
39.25086973209054
 20
-18.435241588320675
 30
0.0
 10
39.61749067994448
 20
-18.39205494556299
 30
0.0
 10
39.98966197469931
 20
-18.337639761018938
 30
0.0
 10
40.07043508789125
 20
-18.338699706454065
 30
0.0
 10
40.117348305814964
 20
-18.357631797983895
 30
0.0
 10
40.5843062669073
 20
-19.40643655046482
 30
0.0
 10
40.56698448280963
 20
-19.453967907498487
 30
0.0
 10
40.5137244135797
 20
-19.51470327055158
 30
0.0
 10
40.224254846616205
 20
-19.754869576994622
 30
0.0
 10
39.94684361937897
 20
-19.998424532847714
 30
0.0
 10
39.6505241205962
 20
-20.273605491144288
 30
0.0
 10
39.33686626419622
 20
-20.581639573438395
 30
0.0
 10
39.0074932166473
 20
-20.923690338342542
 30
0.0
 10
38.66407905628253
 20
-21.30085577961451
 30
0.0
 10
38.64334780929504
 20
-21.32494253023021
 30
0.0
 10
38.853028505670885
 20
-21.7958930850682
 30
0.0
 10
39.10138194907688
 20
-22.247646321562733
 30
0.0
 10
39.13310186014898
 20
-22.245696091201392
 30
0.0
 10
39.64115331559101
 20
-22.200190330144153
 30
0.0
 10
40.11274563629758
 20
-22.144638433283387
 30
0.0
 10
40.54774126095862
 20
-22.08103770013912
 30
0.0
 10
40.946085633793025
 20
-22.011384517877786
 30
0.0
 10
41.307807025254036
 20
-21.937671286517933
 30
0.0
 10
41.67411971760769
 20
-21.85230445238976
 30
0.0
 10
41.754698242070866
 20
-21.84660176053591
 30
0.0
 10
41.803031125325255
 20
-21.86154185765642
 30
0.0
 10
42.35611311888775
 20
-22.867594269139545
 30
0.0
 10
42.3428294061722
 20
-22.916408376549985
 30
0.0
 10
42.294838331695736
 20
-22.981387419865214
 30
0.0
 10
42.0264805738108
 20
-23.244933618341875
 30
0.0
 10
41.77042242023194
 20
-23.5108475658957
 30
0.0
 10
41.4981687047549
 20
-23.809858802435123
 30
0.0
 10
41.21138651828402
 20
-24.143058778814467
 30
0.0
 10
40.91179069868963
 20
-24.511471149812955
 30
0.0
 10
40.601141330826096
 20
-24.916049975105263
 30
0.0
 10
40.58249831858417
 20
-24.94178699613383
 30
0.0
 10
40.830851761990175
 20
-25.39354023262834
 30
0.0
 10
41.116135931462495
 20
-25.82292742640962
 30
0.0
 10
41.14758140527121
 20
-25.81832978203146
 30
0.0
 10
41.650043228806055
 20
-25.730470965989973
 30
0.0
 10
42.115333145944724
 20
-25.635652069121644
 30
0.0
 10
42.54348120754037
 20
-25.535874896969723
 30
0.0
 10
42.93460010251921
 20
-25.433133400199953
 30
0.0
 10
43.28888472192265
 20
-25.329410625593024
 30
0.0
 10
43.646769391533574
 20
-25.213690928886162
 30
0.0
 10
43.72658812681448
 20
-25.201265600029323
 30
0.0
 10
43.776001654950626
 20
-25.212108908693644
 30
0.0
 10
44.41132820818733
 20
-26.168352244360072
 30
0.0
 10
44.402175742554256
 20
-26.218106706256698
 30
0.0
 10
44.359790285737155
 20
-26.28687364853258
 30
0.0
 10
44.11442667378758
 20
-26.571951151818233
 30
0.0
 10
43.88151765783691
 20
-26.858358895789596
 30
0.0
 10
43.635239389865646
 20
-27.179103061586822
 30
0.0
 10
43.37734444430926
 20
-27.535131773620954
 30
0.0
 10
43.10962730208453
 20
-27.927321602635168
 30
0.0
 10
42.83392170883654
 20
-28.356475982177866
 30
0.0
 10
42.817497698675965
 20
-28.383682746908846
 30
0.0
 10
43.10278186814831
 20
-28.813069940690106
 30
0.0
 10
43.42299570021457
 20
-29.21707924910804
 30
0.0
 10
43.45394616935475
 20
-29.209866439884923
 30
0.0
 10
43.94729395230862
 20
-29.08027083532725
 30
0.0
 10
44.40301779142101
 20
-28.946850024885613
 30
0.0
 10
44.8213151389231
 20
-28.81159627889888
 30
0.0
 10
45.202465138016656
 20
-28.67648712540085
 30
0.0
 10
45.54682793331055
 20
-28.54348234828601
 30
0.0
 10
45.89377427636121
 20
-28.398221479528363
 30
0.0
 10
45.972273351381524
 20
-28.379160668422877
 30
0.0
 10
46.022420924003136
 20
-28.38583113061163
 30
0.0
 10
46.73553567762457
 20
-29.285558030521557
 30
0.0
 10
46.73057865704436
 20
-29.335903855102696
 30
0.0
 10
46.6940961214123
 20
-29.407976345648144
 30
0.0
 10
46.473447704842386
 20
-29.712585539885144
 30
0.0
 10
46.265321515921904
 20
-30.01747813573377
 30
0.0
 10
46.04674616055554
 20
-30.3577054409201
 30
0.0
 10
45.819547403659456
 20
-30.734065603000367
 30
0.0
 10
45.58558678220262
 20
-31.147281960167774
 30
0.0
 10
45.346758840212594
 20
-31.59800168433538
 30
0.0
 10
45.33266903476408
 20
-31.62648735686217
 30
0.0
 10
45.652882866830346
 20
-32.03049666528008
 30
0.0
 10
46.00578029153188
 20
-32.406294253316396
 30
0.0
 10
46.036018660700314
 20
-32.39651687192267
 30
0.0
 10
46.51679192284569
 20
-32.22609349890047
 30
0.0
 10
46.95975310863754
 20
-32.05500662600805
 30
0.0
 10
47.36526568669961
 20
-31.88522501403492
 30
0.0
 10
47.73377329652012
 20
-31.71869589744463
 30
0.0
 10
48.06579881011982
 20
-31.557342050769535
 30
0.0
 10
48.3993732472943
 20
-31.383558910585652
 30
0.0
 10
48.47600204744427
 20
-31.35799631512625
 30
0.0
 10
48.52653191536039
 20
-31.36044714233991
 30
0.0
 10
49.312432881742154
 20
-32.19734666874334
 30
0.0
 10
49.31170607615256
 20
-32.24793071622298
 30
0.0
 10
49.28138236048033
 20
-32.322803218300834
 30
0.0
 10
49.08699682939664
 20
-32.64480748885301
 30
0.0
 10
48.90511332318317
 20
-32.966046334084055
 30
0.0
 10
48.715774029493424
 20
-33.32337032856658
 30
0.0
 10
48.52086509729519
 20
-33.7174220445704
 30
0.0
 10
48.32230206226528
 20
-34.148766514041014
 30
0.0
 10
48.12202697794864
 20
-34.617890107810155
 30
0.0
 10
48.110370207073885
 20
-34.647454881606954
 30
0.0
 10
48.46326763177542
 20
-35.02325246964325
 30
0.0
 10
48.846373327234446
 20
-35.368202387228024
 30
0.0
 10
48.87568749599767
 20
-35.35592901496915
 30
0.0
 10
49.3405139583357
 20
-35.14587327099514
 30
0.0
 10
49.767605436355865
 20
-34.93832038713952
 30
0.0
 10
50.157488865603185
 20
-34.73520180520006
 30
0.0
 10
50.51076927004011
 20
-34.53842080761938
 30
0.0
 10
50.82812858152772
 20
-34.3498496726859
 30
0.0
 10
51.145991327822166
 20
-34.14876322494113
 30
0.0
 10
51.220212357126435
 20
-34.11687814836828
 30
0.0
 10
51.2707700896193
 20
-34.115092149814856
 30
0.0
 10
52.12394473815128
 20
-34.88329405384555
 30
0.0
 10
52.1274532455713
 20
-34.93376151347521
 30
0.0
 10
52.10350104893678
 20
-35.01090885027921
 30
0.0
 10
51.93674187817406
 20
-35.34804956854839
 30
0.0
 10
51.78237683678058
 20
-35.68338140347234
 30
0.0
 10
51.62360168387259
 20
-36.05529571616672
 30
0.0
 10
51.4623497224897
 20
-36.46427499643209
 30
0.0
 10
51.30057705091011
 20
-36.91072200667314
 30
0.0
 10
51.14025961008589
 20
-37.39495890509838
 30
0.0
 10
51.13111763765722
 20
-37.42539540451922
 30
0.0
 10
51.514223333116185
 20
-37.77034532210403
 30
0.0
 10
51.92485008814008
 20
-38.082027993411636
 30
0.0
 10
51.95303443866642
 20
-38.06734471917556
 30
0.0
 10
52.39865367754118
 20
-37.81912999436888
 30
0.0
 10
52.80687970793616
 20
-37.57656693390378
 30
0.0
 10
53.1783992362434
 20
-37.3415361129098
 30
0.0
 10
53.51397442709124
 20
-37.115883511649805
 30
0.0
 10
53.81444148891902
 20
-36.9014177794813
 30
0.0
 10
54.11436296555223
 20
-36.6744385011262
 30
0.0
 10
54.185655616817996
 20
-36.636454594342624
 30
0.0
 10
54.235886587719826
 20
-36.630444297518736
 30
0.0
 10
55.15035051124772
 20
-37.324560194772246
 30
0.0
 10
55.158069722018666
 20
-37.37455707358343
 30
0.0
 10
55.140657051871614
 20
-37.45343811197619
 30
0.0
 10
55.00269393719647
 20
-37.80335047805898
 30
0.0
 10
54.87693012047721
 20
-38.150423190789446
 30
0.0
 10
54.749832801968836
 20
-38.53431911001218
 30
0.0
 10
54.623368878051025
 20
-38.955357258739234
 30
0.0
 10
54.49952128897938
 20
-39.413775304745634
 30
0.0
 10
54.38028600330705
 20
-39.90972893390822
 30
0.0
 10
54.37372295369259
 20
-39.94082366877824
 30
0.0
 10
54.784349708716434
 20
-40.25250634008586
 30
0.0
 10
55.21961727165356
 20
-40.528735535120774
 30
0.0
 10
55.2464741109745
 20
-40.51174535152639
 30
0.0
 10
55.66976042760225
 20
-40.22711269383953
 30
0.0
 10
56.0562575980788
 20
-39.95124086235279
 30
0.0
 10
56.40680728289132
 20
-39.68594637464416
 30
0.0
 10
56.72232344129671
 20
-39.433004960571516
 30
0.0
 10
57.00379069291124
 20
-39.19414895418572
 30
0.0
 10
57.28366716621792
 20
-38.942868941773554
 30
0.0
 10
57.35153137272022
 20
-38.899052634593964
 30
0.0
 10
57.40108324786106
 20
-38.888860197413436
 30
0.0
 10
58.37042213900274
 20
-39.5040213635921
 30
0.0
 10
58.382297908407295
 20
-39.55319696940268
 30
0.0
 10
58.3715469021178
 20
-39.633258415575796
 30
0.0
 10
58.263347555653326
 20
-39.99348804563582
 30
0.0
 10
58.1670671064214
 20
-40.34986717046439
 30
0.0
 10
58.072539118682684
 20
-40.74305194217098
 30
0.0
 10
57.98175028579202
 20
-41.17319567926191
 30
0.0
 10
57.89669648108128
 20
-41.64036928781382
 30
0.0
 10
57.81937970041939
 20
-42.14456088934739
 30
0.0
 10
57.81544160869657
 20
-42.176095752443075
 30
0.0
 10
58.2507091716337
 20
-42.452324947478004
 30
0.0
 10
58.70756445326944
 20
-42.691163116907454
 30
0.0
 10
58.7329053999538
 20
-42.67198519788515
 30
0.0
 10
59.13088974495419
 20
-42.3529311009035
 30
0.0
 10
59.49294705555927
 20
-42.04568554107936
 30
0.0
 10
59.82006804270769
 20
-41.75198823687351
 30
0.0
 10
60.11331204951748
 20
-41.473532212269795
 30
0.0
 10
60.3738052003826
 20
-41.211961334933726
 30
0.0
 10
60.63167353799348
 20
-40.93814313720711
 30
0.0
 10
60.695633281084085
 20
-40.88880176954439
 30
0.0
 10
60.74415848966279
 20
-40.874498684630794
 30
0.0
 10
61.76157313256593
 20
-41.40639020614656
 30
0.0
 10
61.777522160614446
 20
-41.45439960741437
 30
0.0
 10
61.773508228767064
 20
-41.53507988784703
 30
0.0
 10
61.69583159118756
 20
-41.90310002985406
 30
0.0
 10
61.62970984761694
 20
-42.26628582327811
 30
0.0
 10
61.568414236563584
 20
-42.66600153879788
 30
0.0
 10
61.51393731313112
 20
-43.102233714994846
 30
0.0
 10
61.46827388411026
 20
-43.574885998892036
 30
0.0
 10
61.43341793012313
 20
-44.083779030973005
 30
0.0
 10
61.43213241917587
 20
-44.11553282788747
 30
0.0
 10
61.88898770081161
 20
-44.35437099731691
 30
0.0
 10
62.36422618959536
 20
-44.554142862987334
 30
0.0
 10
62.387873495109545
 20
-44.532911727859805
 30
0.0
 10
62.75776429425376
 20
-44.18167412683363
 30
0.0
 10
63.0928421730913
 20
-43.84520994551862
 30
0.0
 10
63.39423994388689
 20
-43.525169900383354
 30
0.0
 10
63.66315490308883
 20
-43.22315243419078
 30
0.0
 10
63.9008467809153
 20
-42.940701417670525
 30
0.0
 10
64.13489822172016
 20
-42.64626567254841
 30
0.0
 10
64.19450486975632
 20
-42.591745338645
 30
0.0
 10
64.24166304230002
 20
-42.573431931862245
 30
0.0
 10
65.30001700425606
 20
-43.0183229718552
 30
0.0
 10
65.31992741997615
 20
-43.06482941712509
 30
0.0
 10
65.32267871741877
 20
-43.14556261761875
 30
0.0
 10
65.27606963452628
 20
-43.5187918746987
 30
0.0
 10
65.24057039313968
 20
-43.88623684932599
 30
0.0
 10
65.21293710344241
 20
-44.28967979010992
 30
0.0
 10
65.1951542059444
 20
-44.72894055012929
 30
0.0
 10
65.18920144875888
 20
-45.20375619320043
 30
0.0
 10
65.19705081091975
 20
-45.71378113684787
 30
0.0
 10
65.19842689768375
 20
-45.745531137510866
 30
0.0
 10
65.67366538646746
 20
-45.94530300318127
 30
0.0
 10
66.1639536258588
 20
-46.10460730899082
 30
0.0
 10
66.18574142134517
 20
-46.08147187891645
 30
0.0
 10
66.52494415644338
 20
-45.70051445325309
 30
0.0
 10
66.83069227294645
 20
-45.337191704929964
 30
0.0
 10
67.10425273858108
 20
-44.99305376983343
 30
0.0
 10
67.3469524049515
 20
-44.66959329757809
 30
0.0
 10
67.56017577199775
 20
-44.36824333281376
 30
0.0
 10
67.7687686133051
 20
-44.0552552954964
 30
0.0
 10
67.82360406847812
 20
-43.99593841632183
 30
0.0
 10
67.86906442428952
 20
-43.97374314306032
 30
0.0
 10
68.96093411268163
 20
-44.328513110538694
 30
0.0
 10
68.98466625881262
 20
-44.373190390511915
 30
0.0
 10
68.99416348717048
 20
-44.45341022567183
 30
0.0
 10
68.97894888819293
 20
-44.82923066275114
 30
0.0
 10
68.97432115066252
 20
-45.19835745609352
 30
0.0
 10
68.98054400999406
 20
-45.60269775978537
 30
0.0
 10
68.99957987267946
 20
-46.041906005004016
 30
0.0
 10
69.03337954164388
 20
-46.515554516667535
 30
0.0
 10
69.08387916231696
 20
-47.02313391335419
 30
0.0
 10
69.08790719453228
 20
-47.05465741432332
 30
0.0
 10
69.57819543392358
 20
-47.21396172013291
 30
0.0
 10
70.08009440419471
 20
-47.33168106083642
 30
0.0
 10
70.09986986392249
 20
-47.30680361423436
 30
0.0
 10
70.40600527150482
 20
-46.89879850655731
 30
0.0
 10
70.68027902231586
 20
-46.511165639258515
 30
0.0
 10
70.92408335267602
 20
-46.145343694552665
 30
0.0
 10
71.1388653624348
 20
-45.80270905904139
 30
0.0
 10
71.32612460998178
 20
-45.48457389951617
 30
0.0
 10
71.50779572288359
 20
-45.15522895620374
 30
0.0
 10
71.55747535387466
 20
-45.09153159704628
 30
0.0
 10
71.60091902122097
 20
-45.065610141200686
 30
0.0
 10
72.71864575469236
 20
-45.32777057974449
 30
0.0
 10
72.74603316728067
 20
-45.3703053154026
 30
0.0
 10
72.7622097103206
 20
-45.449449100723015
 30
0.0
 10
72.77849631473812
 20
-45.825224607462175
 30
0.0
 10
72.80477254131765
 20
-46.19344406028158
 30
0.0
 10
72.84480790079093
 20
-46.59584557016907
 30
0.0
 10
72.90052900076024
 20
-47.03192057031745
 30
0.0
 10
72.97384401548186
 20
-47.501079646580024
 30
0.0
 10
73.06663967611203
 20
-48.00265319153342
 30
0.0
 10
73.0732914000268
 20
-48.033729078099114
 30
0.0
 10
73.5751903702979
 20
-48.1514484188026
 30
0.0
 10
74.08517961078634
 20
-48.226757077806134
 30
0.0
 10
74.1028040241142
 20
-48.200312112089925
 30
0.0
 10
74.37372478425445
 20
-47.76812118507826
 30
0.0
 10
74.61460033607693
 20
-47.35889716485407
 30
0.0
 10
74.82693841895833
 20
-46.97395718863831
 30
0.0
 10
75.01229623062767
 20
-46.61455172565657
 30
0.0
 10
75.17227786959941
 20
-46.28186286093473
 30
0.0
 10
75.3257529617692
 20
-45.938471129770555
 30
0.0
 10
75.36992830166169
 20
-45.87084008183821
 30
0.0
 10
75.4110505544307
 20
-45.84137426379673
 30
0.0
 10
76.54679428303162
 20
-46.0090863062916
 30
0.0
 10
76.57764485905577
 20
-46.049180147025126
 30
0.0
 10
76.60038724995117
 20
-46.126692745716745
 30
0.0
 10
76.64806081893569
 20
-46.49978752693032
 30
0.0
 10
76.70505670077515
 20
-46.86451684433053
 30
0.0
 10
76.7786237411088
 20
-47.26215700294688
 30
0.0
 10
76.87063923488131
 20
-47.69204000521844
 30
0.0
 10
76.9829553432086
 20
-48.15341883225039
 30
0.0
 10
77.11739614891016
 20
-48.64546834743278
 30
0.0
 10
77.12662490746038
 20
-48.67587864457871
 30
0.0
 10
77.6366141479488
 20
-48.751187303582306
 30
0.0
 10
78.1511164505593
 20
-48.78355704475227
 30
0.0
 10
78.16646619489083
 20
-48.755730052355645
 30
0.0
 10
78.40027199311291
 20
-48.302384814833616
 30
0.0
 10
78.60605977701965
 20
-47.874440054158846
 30
0.0
 10
78.78544221333557
 20
-47.47308212378733
 30
0.0
 10
78.94007567504602
 20
-47.09942680442548
 30
0.0
 10
79.0716575491918
 20
-46.75451780785641
 30
0.0
 10
79.19586010312966
 20
-46.39948793510799
 30
0.0
 10
79.23422129365417
 20
-46.32839758160918
 30
0.0
 10
79.27273368878902
 20
-46.29559408291422
 30
0.0
 10
80.41852798629405
 20
-46.36768134988297
 30
0.0
 10
80.45262533112935
 20
-46.405053066206555
 30
0.0
 10
80.48177404834848
 20
-46.480390783082285
 30
0.0
 10
80.56050018606699
 20
-46.848187846948285
 30
0.0
 10
80.64781593800676
 20
-47.20686871482539
 30
0.0
 10
80.75439863927069
 20
-47.596958362161956
 30
0.0
 10
80.88206310427063
 20
-48.017634046166265
 30
0.0
 10
81.03259248940269
 20
-48.46799638299621
 30
0.0
 10
81.20773543451922
 20
-48.947070494595685
 30
0.0
 10
81.21947649459452
 20
-48.97660189593714
 30
0.0
 10
81.73397879720497
 20
-49.00897163710711
 30
0.0
 10
82.24938529795409
 20
-48.99817540996682
 30
0.0
 10
82.26235270586159
 20
-48.969161577247796
 30
0.0
 10
82.4574035624802
 20
-48.497841920328504
 30
0.0
 10
82.62666012502542
 20
-48.05417814422141
 30
0.0
 10
82.77182867587119
 20
-47.63921749720043
 30
0.0
 10
82.89465314499284
 20
-47.25393324505281
 30
0.0
 10
82.99691230200696
 20
-46.899223405430675
 30
0.0
 10
83.09097112603648
 20
-46.53504567056673
 30
0.0
 10
83.12324909100394
 20
-46.46099465925288
 30
0.0
 10
83.15888149172386
 20
-46.42508357287851
 30
0.0
 10
84.3066894343881
 20
-46.40104042393801
 30
0.0
 10
84.34379437965943
 20
-46.43542788011319
 30
0.0
 10
84.37914496589431
 20
-46.5080622752192
 30
0.0
 10
84.48837146505537
 20
-46.86798178959644
 30
0.0
 10
84.60539462983186
 20
-47.21809831937413
 30
0.0
 10
84.74424539095628
 20
-47.59790125683388
 30
0.0
 10
84.90666335268845
 20
-48.0064188849027
 30
0.0
 10
85.0943501591438
 20
-48.442605763322675
 30
0.0
 10
85.30896674175534
 20
-48.90534411066063
 30
0.0
 10
85.32313774825523
 20
-48.933789474635475
 30
0.0
 10
85.83854424900431
 20
-48.92299324749515
 30
0.0
 10
86.35123974160832
 20
-48.86910677982081
 30
0.0
 10
86.3617338560424
 20
-48.83910961796961
 30
0.0
 10
86.51666162944221
 20
-48.353121510403646
 30
0.0
 10
86.64819975745034
 20
-47.896850701481625
 30
0.0
 10
86.75813616974526
 20
-47.471197988601205
 30
0.0
 10
86.84829012087647
 20
-47.07698729587028
 30
0.0
 10
86.92050928624558
 20
-46.71496464786136
 30
0.0
 10
86.98376462529733
 20
-46.34419349603062
 30
0.0
 10
87.0097329579752
 20
-46.26770124154054
 30
0.0
 10
87.04223542859098
 20
-46.228934457955596
 30
0.0
 10
88.1840059683955
 20
-46.10892953852066
 30
0.0
 10
88.22385824957165
 20
-46.14009153124971
 30
0.0
 10
88.26516274585921
 20
-46.2095131264921
 30
0.0
 10
88.40412346105033
 20
-46.559030514589026
 30
0.0
 10
88.55003320524366
 20
-46.898126890369284
 30
0.0
 10
88.72017808790343
 20
-47.264979073233974
 30
0.0
 10
88.91621030106343
 20
-47.658473187725924
 30
0.0
 10
89.13973804074757
 20
-48.07742507018364
 30
0.0
 10
89.3923228797289
 20
-48.52058187623054
 30
0.0
 10
89.40882443322462
 20
-48.54774167904843
 30
0.0
 10
89.92151992582862
 20
-48.49385521137412
 30
0.0
 10
90.42790821977813
 20
-48.39725647801921
 30
0.0
 10
90.43585543206605
 20
-48.36648639557321
 30
0.0
 10
90.54957341523212
 20
-47.86923869475318
 30
0.0
 10
90.64247046324517
 20
-47.4035612649107
 30
0.0
 10
90.71640361204618
 20
-46.97020213412065
 30
0.0
 10
90.7732546799953
 20
-46.56983010557594
 30
0.0
 10
90.81492728816374
 20
-46.2030339779431
 30
0.0
 10
90.84693545148318
 20
-45.828270102376955
 30
0.0
 10
90.86641200267594
 20
-45.74987314291627
 30
0.0
 10
90.89555656170923
 20
-45.708522583253696
 30
0.0
 10
92.02328099867829
 20
-45.49339764161075
 30
0.0
 10
92.06560108064062
 20
-45.52111559190455
 30
0.0
 10
92.11256976561666
 20
-45.58683744467202
 30
0.0
 10
92.2802899872639
 20
-45.92350109313904
 30
0.0
 10
92.45406285885458
 20
-46.2491987974862
 30
0.0
 10
92.65430841894675
 20
-46.600527021275944
 30
0.0
 10
92.8825798584082
 20
-46.976237543702986
 30
0.0
 10
93.14038064483171
 20
-47.37501578375954
 30
0.0
 10
93.42916203901933
 20
-47.795482621928684
 30
0.0
 10
93.4478783929695
 20
-47.82116635708721
 30
0.0
 10
93.95426668691901
 20
-47.724567623732284
 30
0.0
 10
94.45079583217147
 20
-47.58593419540513
 30
0.0
 10
94.4561403983291
 20
-47.55460702238438
 30
0.0
 10
94.52785094131575
 20
-47.04958756365955
 30
0.0
 10
94.58145530328837
 20
-46.577769905478185
 30
0.0
 10
94.61886660067752
 20
-46.139744059712896
 30
0.0
 10
94.64201601605033
 20
-45.736019017467726
 30
0.0
 10
94.65284976361352
 20
-45.367022221503674
 30
0.0
 10
94.6533862369328
 20
-44.990894321521736
 30
0.0
 10
94.66623439262771
 20
-44.91114255543293
 30
0.0
 10
94.69181661193721
 20
-44.867498264158435
 30
0.0
 10
95.79758476941437
 20
-44.55876224720605
 30
0.0
 10
95.84207580719487
 20
-44.58284173355859
 30
0.0
 10
95.89437922928121
 20
-44.64440285227508
 30
0.0
 10
96.08968252053654
 20
-44.9658513075107
 30
0.0
 10
96.290099627686
 20
-45.27586580504221
 30
0.0
 10
96.51904128648276
 20
-45.60920575469613
 30
0.0
 10
96.77795079211066
 20
-45.964497345691086
 30
0.0
 10
97.06821633798637
 20
-46.34030480051422
 30
0.0
 10
97.39116869338922
 20
-46.735132398040875
 30
0.0
 10
97.4119685660185
 20
-46.75915991259163
 30
0.0
 10
97.90849771127094
 20
-46.62052648426448
 30
0.0
 10
98.39168491262811
 20
-46.440830774856735
 30
0.0
 10
98.39438934436387
 20
-46.40916624887155
 30
0.0
 10
98.42358944923603
 20
-45.89991738088889
 30
0.0
 10
98.43752512908367
 20
-45.42526895624027
 30
0.0
 10
98.43815216168977
 20
-44.98564883208664
 30
0.0
 10
98.42743754797024
 20
-44.58140261723632
 30
0.0
 10
98.40735644397307
 20
-44.2127934003409
 30
0.0
 10
98.3764174643173
 20
-43.83793974291403
 30
0.0
 10
98.38254710393355
 20
-43.75739257153465
 30
0.0
 10
98.4043875426316
 20
-43.711760681993134
 30
0.0
 10
99.4804432514855
 20
-43.31157915106372
 30
0.0
 10
99.5267931724209
 20
-43.331851273179325
 30
0.0
 10
99.58406446069156
 20
-43.38881985082864
 30
0.0
 10
99.80558090929205
 20
-43.69279838287976
 30
0.0
 10
100.0312364699931
 20
-43.984955144640566
 30
0.0
 10
100.28726836625236
 20
-44.29796867991625
 30
0.0
 10
100.57499987389095
 20
-44.63034922424494
 30
0.0
 10
100.89569417497006
 20
-44.98054987455637
 30
0.0
 10
101.25055221285591
 20
-45.34696879952711
 30
0.0
 10
101.27328970800255
 20
-45.36917155771921
 30
0.0
 10
101.75647690935969
 20
-45.189475848311574
 30
0.0
 10
102.22293295577356
 20
-44.969978294113716
 30
0.0
 10
102.22297828344198
 20
-44.938198519062816
 30
0.0
 10
102.20946313244423
 20
-44.42829225673642
 30
0.0
 10
102.18363238138548
 20
-43.954142383285024
 30
0.0
 10
102.14747075102531
 20
-43.51601160004737
 30
0.0
 10
102.10296726353027
 20
-43.11407970933858
 30
0.0
 10
102.05211216248902
 20
-42.748443600322965
 30
0.0
 10
101.98991474457088
 20
-42.377493514526016
 30
0.0
 10
101.9892828730907
 20
-42.296715918390234
 30
0.0
 10
102.00722833619216
 20
-42.24941650550036
 30
0.0
 10
103.04602383877014
 20
-41.76059644650334
 30
0.0
 10
103.09390753146744
 20
-41.776919010010886
 30
0.0
 10
103.15574496898459
 20
-41.82889545295267
 30
0.0
 10
103.40192079620265
 20
-42.113271870825244
 30
0.0
 10
103.6512319988303
 20
-42.38552162704594
 30
0.0
 10
103.93255825275844
 20
-42.67601318289334
 30
0.0
 10
104.24709353261643
 20
-42.98315126985239
 30
0.0
 10
104.59596714879542
 20
-43.305288709709
 30
0.0
 10
104.98024179499365
 20
-43.6407287966368
 30
0.0
 10
105.00475742546601
 20
-43.66095106207418
 30
0.0
 10
105.47121347187988
 20
-43.44145350787633
 30
0.0
 10
105.91766650933303
 20
-43.18369372652225
 30
0.0
 10
105.91505241499314
 20
-43.15202161469394
 30
0.0
 10
105.85891680719908
 20
-42.64503458408689
 30
0.0
 10
105.79350080939328
 20
-42.17470908251876
 30
0.0
 10
105.72080416392174
 20
-41.741140812844975
 30
0.0
 10
105.64282396264024
 20
-41.34434250970337
 30
0.0
 10
105.56155157654936
 20
-40.984244183163106
 30
0.0
 10
105.46853199056675
 20
-40.61979961732069
 30
0.0
 10
105.46114304011456
 20
-40.539358193226754
 30
0.0
 10
105.47506765308961
 20
-40.49072302838538
 30
0.0
 10
106.46931654531461
 20
-39.91669316281789
 30
0.0
 10
106.51839814007394
 20
-39.92895167666211
 30
0.0
 10
106.58436798164351
 20
-39.97557140749416
 30
0.0
 10
106.85347644092829
 20
-40.23835101494097
 30
0.0
 10
107.12469454652594
 20
-40.488784129192844
 30
0.0
 10
107.42934185658432
 20
-40.754716116065595
 30
0.0
 10
107.7684746696668
 20
-41.034457392653394
 30
0.0
 10
108.1430805031935
 20
-41.32627205937001
 30
0.0
 10
108.554076347162
 20
-41.628380437058446
 30
0.0
 10
108.5801981534268
 20
-41.64648036507883
 30
0.0
 10
109.02665119087996
 20
-41.38872058372472
 30
0.0
 10
109.44996967209084
 20
-41.09450657488042
 30
0.0
 10
109.4447144917361
 20
-41.06316428338275
 30
0.0
 10
109.34635217810103
 20
-40.56265263424507
 30
0.0
 10
109.24180977977147
 20
-40.09945050002531
 30
0.0
 10
109.13308803392405
 20
-39.67348591380876
 30
0.0
 10
109.02217809393937
 20
-39.28460445323168
 30
0.0
 10
108.9110584901932
 20
-38.93256974019718
 30
0.0
 10
108.78786920170731
 20
-38.577187011085606
 30
0.0
 10
108.7737750004616
 20
-38.497645997826474
 30
0.0
 10
108.783581092155
 20
-38.44801622177064
 30
0.0
 10
109.72630943241492
 20
-37.79280295669975
 30
0.0
 10
109.7762446571141
 20
-37.800911436213745
 30
0.0
 10
109.84588417169677
 20
-37.841847451020506
 30
0.0
 10
110.13603766056055
 20
-38.081187037902204
 30
0.0
 10
110.42726026898738
 20
-38.308046901824724
 30
0.0
 10
110.7530917531847
 20
-38.547553997906775
 30
0.0
 10
111.11444332647449
 20
-38.7979362800619
 30
0.0
 10
111.51215378658065
 20
-39.057381303420065
 30
0.0
 10
111.94698798777407
 20
-39.32403889866422
 30
0.0
 10
111.9745327441289
 20
-39.33988953127729
 30
0.0
 10
112.3978512253397
 20
-39.04567552243296
 30
0.0
 10
112.79506587531634
 20
-38.71707098597794
 30
0.0
 10
112.78720647026122
 20
-38.686278358466446
 30
0.0
 10
112.64730739174206
 20
-38.19575282039971
 30
0.0
 10
112.50437188269942
 20
-37.7429230836896
 30
0.0
 10
112.36038764140679
 20
-37.32755001644748
 30
0.0
 10
112.21732591625926
 20
-36.94931312246994
 30
0.0
 10
112.07713851903871
 20
-36.60781129351652
 30
0.0
 10
111.92464361239688
 20
-36.263983155638385
 30
0.0
 10
111.90394302105273
 20
-36.18590047627192
 30
0.0
 10
111.90956180877691
 20
-36.1356242062217
 30
0.0
 10
112.79415703511421
 20
-35.403823391931816
 30
0.0
 10
112.8445956300304
 20
-35.40772496195774
 30
0.0
 10
112.91741634646728
 20
-35.44269012400782
 30
0.0
 10
113.22657964666068
 20
-35.65691089508769
 30
0.0
 10
113.53576404056173
 20
-35.858606249734024
 30
0.0
 10
113.88049422514597
 20
-36.07000848483197
 30
0.0
 10
114.26152993698717
 20
-36.28927552074452
 30
0.0
 10
114.6795553705497
 20
-36.51453108031637
 30
0.0
 10
115.13517787947461
 20
-36.74386748167882
 30
0.0
 10
115.16395237924448
 20
-36.757357638085445
 30
0.0
 10
115.56116702922115
 20
-36.42875310163048
 30
0.0
 10
115.92949167259242
 20
-36.068062962286014
 30
0.0
 10
115.91908317091631
 20
-36.03803598691816
 30
0.0
 10
115.73862861903154
 20
-35.56093724412979
 30
0.0
 10
115.55830258917271
 20
-35.121656180174625
 30
0.0
 10
115.380065798435
 20
-34.7197881755285
 30
0.0
 10
115.20585576333681
 20
-34.35484890819891
 30
0.0
 10
115.0375838865089
 20
-34.02627535328798
 30
0.0
 10
114.85685300391378
 20
-33.696413513990315
 30
0.0
 10
114.8296912222461
 20
-33.62033686240994
 30
0.0
 10
114.83108329424229
 20
-33.5697667502763
 30
0.0
 10
115.651340606725
 20
-32.76651144368147
 30
0.0
 10
115.70192878135495
 20
-32.76617873750888
 30
0.0
 10
115.77741991464185
 20
-32.79492779131292
 30
0.0
 10
116.10342446774752
 20
-32.98252714179927
 30
0.0
 10
116.42840194074826
 20
-33.15764323917448
 30
0.0
 10
116.78961279116284
 20
-33.33945777850141
 30
0.0
 10
117.18765994981068
 20
-33.5260715674576
 30
0.0
 10
117.62306820876401
 20
-33.71555765733863
 30
0.0
 10
118.09628316088464
 20
-33.90596423474179
 30
0.0
 10
118.1260855716281
 20
-33.916999291187444
 30
0.0
 10
118.49441021499936
 20
-33.55630915184303
 30
0.0
 10
118.83126131903288
 20
-33.166063391781144
 30
0.0
 10
118.81837672889657
 20
-33.137012686214774
 30
0.0
 10
118.59863246267125
 20
-32.67668724359048
 30
0.0
 10
118.3821807695316
 20
-32.25403609343089
 30
0.0
 10
118.17094163237287
 20
-31.86849196669159
 30
0.0
 10
117.96680524555052
 20
-31.519410112761772
 30
0.0
 10
117.77162919542802
 20
-31.20606953930124
 30
0.0
 10
117.56393003416608
 20
-30.892487742381313
 30
0.0
 10
117.53049758255753
 20
-30.81895074163688
 30
0.0
 10
117.5276531744409
 20
-30.76844150042185
 30
0.0
 10
118.277819057376
 20
-29.89936596035972
 30
0.0
 10
118.32820197202223
 20
-29.89480131168335
 30
0.0
 10
118.40583400609944
 20
-29.917132603285104
 30
0.0
 10
118.74639312441131
 20
-30.07679465852418
 30
0.0
 10
119.08488419303463
 20
-30.224103185025946
 30
0.0
 10
119.46004207469352
 20
-30.375054730222047
 30
0.0
 10
119.87230866532659
 20
-30.527706310574178
 30
0.0
 10
120.32204567357456
 20
-30.680093821989438
 30
0.0
 10
120.80953380600624
 20
-30.83023501009977
 30
0.0
 10
120.84015508522495
 20
-30.83873756359216
 30
0.0
 10
121.17700618925846
 20
-30.44849180353028
 30
0.0
 10
121.48002098548663
 20
-30.031427716366572
 30
0.0
 10
121.46475068303236
 20
-30.003557050428356
 30
0.0
 10
121.207258050608
 20
-29.563233760204753
 30
0.0
 10
120.95619894729461
 20
-29.160177117984688
 30
0.0
 10
120.71343915448693
 20
-28.79366118418821
 30
0.0
 10
120.48080828602215
 20
-28.46288530204851
 30
0.0
 10
120.26009708236286
 20
-28.166975569026317
 30
0.0
 10
120.02688650281868
 20
-27.871873365481314
 30
0.0
 10
119.98741788589615
 20
-27.80139182479677
 30
0.0
 10
119.98035694914591
 20
-27.75129774053664
 30
0.0
 10
120.65516952785808
 20
-26.82249790749084
 30
0.0
 10
120.7049937825744
 20
-26.81373333404146
 30
0.0
 10
120.78422218450143
 20
-26.829490225475343
 30
0.0
 10
121.13694709049594
 20
-26.96009507086669
 30
0.0
 10
121.48657748310093
 20
-27.07856276302261
 30
0.0
 10
121.87305093301488
 20
-27.197592497456867
 30
0.0
 10
122.296645201713
 20
-27.31521112804878
 30
0.0
 10
122.75755637727835
 20
-27.42943117209597
 30
0.0
 10
123.25589831103181
 20
-27.53825383835517
 30
0.0
 10
123.28712367245339
 20
-27.544164249590594
 30
0.0
 10
123.59013846868154
 20
-27.1271001624269
 30
0.0
 10
123.8571915260247
 20
-26.68614315307277
 30
0.0
 10
123.83964262145244
 20
-26.659648019459173
 30
0.0
 10
123.54620774863733
 20
-26.242415433145332
 30
0.0
 10
123.2623022343742
 20
-25.86178045161417
 30
0.0
 10
122.98972457144143
 20
-25.516863556694755
 30
0.0
 10
122.73023095973149
 20
-25.20671380149625
 30
0.0
 10
122.4855327330483
 20
-24.930310503078697
 30
0.0
 10
122.22844653987583
 20
-24.655757822835845
 30
0.0
 10
122.18321860162885
 20
-24.588826119578176
 30
0.0
 10
122.17199066364303
 20
-24.539498566281488
 30
0.0
 10
122.76671661274476
 20
-23.557489303739054
 30
0.0
 10
122.81563272618304
 20
-23.544586282702078
 30
0.0
 10
122.89590176564587
 20
-23.553658250695996
 30
0.0
 10
123.25831834753994
 20
-23.654289787088647
 30
0.0
 10
123.61663565813159
 20
-23.743085679157172
 30
0.0
 10
124.01171384273025
 20
-23.82935869476528
 30
0.0
 10
124.44366458005055
 20
-23.91111936541223
 30
0.0
 10
124.91251696220093
 20
-23.98637077054935
 30
0.0
 10
125.4182171866691
 20
-24.05311160214259
 30
0.0
 10
125.44982760681859
 20
-24.05638841383292
 30
0.0
 10
125.71688066416165
 20
-23.615431404478734
 30
0.0
 10
125.94609879729983
 20
-23.15367446952752
 30
0.0
 10
125.92639438356632
 20
-23.12874071256416
 30
0.0
 10
125.59907550516056
 20
-22.737525416971874
 30
0.0
 10
125.28431497314443
 20
-22.381981977039196
 30
0.0
 10
124.98383137654528
 20
-22.061083465192265
 30
0.0
 10
124.6992951828304
 20
-21.773735314625373
 30
0.0
 10
124.43232631536807
 20
-21.51877722135536
 30
0.0
 10
124.15316778349623
 20
-21.26669985420073
 30
0.0
 10
124.1024977654154
 20
-21.20378746617794
 30
0.0
 10
124.08718158211168
 20
-21.155572441189257
 30
0.0
 10
124.59764932638004
 20
-20.12724183855426
 30
0.0
 10
124.64531418715067
 20
-20.11029087535145
 30
0.0
 10
124.72606083451072
 20
-20.11261428656812
 30
0.0
 10
125.09562700037833
 20
-20.18256665603794
 30
0.0
 10
125.46011789047344
 20
-20.241067908635973
 30
0.0
 10
125.86102962015514
 20
-20.293979062200503
 30
0.0
 10
126.29830700203152
 20
-20.339308280542877
 30
0.0
 10
126.77181192817608
 20
-20.37506321223095
 30
0.0
 10
127.28132331962941
 20
-20.399254070177818
 30
0.0
 10
127.31309707412149
 20
-20.399874297843404
 30
0.0
 10
127.54231520725958
 20
-19.93811736289217
 30
0.0
 10
127.7320906156818
 20
-19.458799395470674
 30
0.0
 10
127.71036890509183
 20
-19.435601907547785
 30
0.0
 10
127.35146192784916
 20
-19.073147996887833
 30
0.0
 10
127.00805419705699
 20
-18.745189980327154
 30
0.0
 10
126.68177234332441
 20
-18.450560724048053
 30
0.0
 10
126.37418938456454
 20
-18.18802971892964
 30
0.0
 10
126.08682247111146
 20
-17.956305178644325
 30
0.0
 10
125.78754969706621
 20
-17.72847126619117
 30
0.0
 10
125.73179301292197
 20
-17.67001947860274
 30
0.0
 10
125.7124960163216
 20
-17.623255175679915
 30
0.0
 10
126.1351249913011
 20
-16.555816233275312
 30
0.0
 10
126.18120426465295
 20
-16.534936226734292
 30
0.0
 10
126.26186214019535
 20
-16.5304947841134
 30
0.0
 10
126.63598564891586
 20
-16.569277321049263
 30
0.0
 10
127.00409347680679
 20
-16.59707358992292
 30
0.0
 10
127.40802664384245
 20
-16.616251747718238
 30
0.0
 10
127.84756348362444
 20
-16.624831561858358
 30
0.0
 10
128.32239965691912
 20
-16.620839224941474
 30
0.0
 10
128.83214835902996
 20
-16.60231042775459
 30
0.0
 10
128.86386257780634
 20
-16.600269720943995
 30
0.0
 10
129.0536379862285
 20
-16.120951753522533
 30
0.0
 10
129.20263953179798
 20
-15.627434824782704
 30
0.0
 10
129.1790528865444
 20
-15.606136319610705
 30
0.0
 10
128.79107528503584
 20
-15.274986147643599
 30
0.0
 10
128.42142911396104
 20
-14.976913944303577
 30
0.0
 10
128.07163763586578
 20
-14.710620556134279
 30
0.0
 10
127.74316538551858
 20
-14.474748162836981
 30
0.0
 10
127.43741609849977
 20
-14.267882556692605
 30
0.0
 10
127.12012826576382
 20
-14.065890190138346
 30
0.0
 10
127.05967600863434
 20
-14.012309000276659
 30
0.0
 10
127.0365335533036
 20
-13.967323437404591
 30
0.0
 10
127.36835932039327
 20
-12.868263472457532
 30
0.0
 10
127.41252979333167
 20
-12.843600880821915
 30
0.0
 10
127.49253314001211
 20
-12.83242573789228
 30
0.0
 10
127.86858978397922
 20
-12.839766410662794
 30
0.0
 10
128.2377325377384
 20
-12.836662724957517
 30
0.0
 10
128.6418538411869
 20
-12.821973365986176
 30
0.0
 10
129.08056710375016
 20
-12.793743594692435
 30
0.0
 10
129.55340388960857
 20
-12.750031992545573
 30
0.0
 10
130.05981438148564
 20
-12.688913506424274
 30
0.0
 10
130.09124661208813
 20
-12.684226179229508
 30
0.0
 10
130.24024815765773
 20
-12.190709250489693
 30
0.0
 10
130.34743070158996
 20
-11.686455027095294
 30
0.0
 10
130.32214456504212
 20
-11.667204898384966
 30
0.0
 10
129.9078177233808
 20
-11.36968124563598
 30
0.0
 10
129.514525914323
 20
-11.103585617858474
 30
0.0
 10
129.1436783477591
 20
-10.867495954585436
 30
0.0
 10
128.79662080265373
 20
-10.659936648474162
 30
0.0
 10
128.47463375363705
 20
-10.479380990065097
 30
0.0
 10
128.1415564083861
 20
-10.304647000729798
 30
0.0
 10
128.07683260742024
 20
-10.2563122421437
 30
0.0
 10
128.05000702105542
 20
-10.213420960723859
 30
0.0
 10
128.28870206091563
 20
-9.090449089214948
 30
0.0
 10
128.33065390930935
 20
-9.062176902845014
 30
0.0
 10
128.40944156113318
 20
-9.044346445204953
 30
0.0
 10
128.7847935731858
 20
-9.020193764264903
 30
0.0
 10
129.15238198162433
 20
-8.986211894105919
 30
0.0
 10
129.55385680090268
 20
-8.937758053666812
 30
0.0
 10
129.9886692279254
 20
-8.872916708501773
 30
0.0
 10
130.45619001602756
 20
-8.789792446607253
 30
0.0
 10
130.9557101919257
 20
-8.686512973818111
 30
0.0
 10
130.98663995984072
 20
-8.679211904471618
 30
0.0
 10
131.09382250377303
 20
-8.174957681077224
 30
0.0
 10
131.15843423753293
 20
-7.663503144099183
 30
0.0
 10
131.13162597377055
 20
-7.646436417672232
 30
0.0
 10
130.69385609705722
 20
-7.384626198794947
 30
0.0
 10
130.27967730947728
 20
-7.152373616219369
 30
0.0
 10
129.89037488367055
 20
-6.948143677200273
 30
0.0
 10
129.52716640312545
 20
-6.77035333767623
 30
0.0
 10
129.19120009991238
 20
-6.617374095217157
 30
0.0
 10
128.8446695404076
 20
-6.471124116489806
 30
0.0
 10
128.7761281865652
 20
-6.4283748227823025
 30
0.0
 10
128.7458076313805
 20
-6.3878786743365
 30
0.0
 10
128.8896976698087
 20
-5.2488717370902
 30
0.0
 10
128.92913663158367
 20
-5.217188265059799
 30
0.0
 10
129.0061559497822
 20
-5.1928275605584915
 30
0.0
 10
129.3781705052458
 20
-5.137350939610993
 30
0.0
 10
129.74162619979037
 20
-5.072729243401525
 30
0.0
 10
130.13763847750064
 20
-4.9908507903712955
 30
0.0
 10
130.56550017221957
 20
-4.8898526867828505
 30
0.0
 10
131.02442564015013
 20
-4.767898822113163
 30
0.0
 10
131.51355172494019
 20
-4.623182793951594
 30
0.0
 10
131.54376208006886
 20
-4.61331919420903
 30
0.0
 10
131.60837381382873
 20
-4.101864657231017
 30
0.0
 10
131.6299615325274
 20
-3.58679729276664
 30
0.0
 10
131.6018191822591
 20
-3.572033679446538
 30
0.0
 10
131.1436769116417
 20
-3.347773305015998
 30
0.0
 10
130.71151631214738
 20
-3.1509928526358633
 30
0.0
 10
130.30648970390146
 20
-2.980055164153916
 30
0.0
 10
129.9296779344427
 20
-2.8332808627066854
 30
0.0
 10
129.58208893925885
 20
-2.7089510756680184
 30
0.0
 10
129.2245358283933
 20
-2.5922109460689216
 30
0.0
 10
129.15265769002463
 20
-2.5553469728200477
 30
0.0
 10
129.1190548429294
 20
-2.517530008733191
 30
0.0
 10
129.16713059469092
 20
-1.3704773210389254
 30
0.0
 10
129.20378003386708
 20
-1.3356048001398053
 30
0.0
 10
129.27849078326147
 20
-1.3048847216161863
 30
0.0
 10
129.6445584673216
 20
-1.218473289297288
 30
0.0
 10
130.00133206741754
 20
-1.1236650418056238
 30
0.0
 10
130.38910406196598
 20
-1.008936294702693
 30
0.0
 10
130.80701388201084
 20
-0.8724898618204762
 30
0.0
 10
131.2541249973498
 20
-0.712561813112548
 30
0.0
 10
131.7294261229836
 20
-0.5274243085377823
 30
0.0
 10
131.7587051613907
 20
-0.5150673644643549
 30
0.0
 10
131.7802928800893
 20
3.197442310920451e-14
 30
0.0
 10
131.7587051613907
 20
0.5150673644644099
 30
0.0
 10
131.7294261229835
 20
0.5274243085378616
 30
0.0
 10
131.25412499731573
 20
0.7125618131258824
 30
0.0
 10
130.8070138820055
 20
0.8724898618236872
 30
0.0
 10
130.389104061966
 20
1.0089362947023428
 30
0.0
 10
130.00133206741748
 20
1.1236650418052996
 30
0.0
 10
129.6445584673217
 20
1.2184732892983114
 30
0.0
 10
129.27849078326653
 20
1.3048847216376827
 30
0.0
 10
129.20378003386787
 20
1.3356048001423162
 30
0.0
 10
129.16713059469083
 20
1.3704773210386088
 30
0.0
 10
129.11905484292947
 20
2.5175300087328827
 30
0.0
 10
129.15265769002363
 20
2.555346972822486
 30
0.0
 10
129.22453582838648
 20
2.592210946089919
 30
0.0
 10
129.58208893925865
 20
2.708951075669028
 30
0.0
 10
129.9296779344428
 20
2.833280862706367
 30
0.0
 10
130.3064897039015
 20
2.9800551641535646
 30
0.0
 10
130.71151631215247
 20
3.1509928526395106
 30
0.0
 10
131.14367691167456
 20
3.3477733050321383
 30
0.0
 10
131.60181918225916
 20
3.572033679446622
 30
0.0
 10
131.62996153252737
 20
3.5867972927666933
 30
0.0
 10
131.6083738138288
 20
4.101864657231015
 30
0.0
 10
131.54376208006877
 20
4.613319194209051
 30
0.0
 10
131.51355172494013
 20
4.623182793951645
 30
0.0
 10
131.02442564011506
 20
4.767898822123577
 30
0.0
 10
130.56550017221394
 20
4.889852686785581
 30
0.0
 10
130.1376384775007
 20
4.990850790370929
 30
0.0
 10
129.74162619979035
 20
5.0727292434011755
 30
0.0
 10
129.37817050524583
 20
5.137350939612
 30
0.0
 10
129.00615594978547
 20
5.192827560580316
 30
0.0
 10
128.9291366315842
 20
5.217188265062344
 30
0.0
 10
128.88969766980867
 20
5.248871737089858
 30
0.0
 10
128.74580763138061
 20
6.387878674336183
 30
0.0
 10
128.776128186564
 20
6.4283748227846305
 30
0.0
 10
128.84466954039902
 20
6.471124116510136
 30
0.0
 10
129.1912000999121
 20
6.617374095218125
 30
0.0
 10
129.52716640312556
 20
6.770353337675901
 30
0.0
 10
129.89037488367057
 20
6.9481436771999014
 30
0.0
 10
130.27967730948203
 20
7.152373616223407
 30
0.0
 10
130.69385609708863
 20
7.38462619881376
 30
0.0
 10
131.1316259737706
 20
7.646436417672299
 30
0.0
 10
131.15843423753287
 20
7.6635031440992005
 30
0.0
 10
131.093822503773
 20
8.174957681077268
 30
0.0
 10
130.98663995984066
 20
8.679211904471657
 30
0.0
 10
130.95571019192562
 20
8.686512973818179
 30
0.0
 10
130.45619001599172
 20
8.789792446614715
 30
0.0
 10
129.9886692279196
 20
8.872916708504045
 30
0.0
 10
129.55385680090276
 20
8.937758053666471
 30
0.0
 10
129.15238198162433
 20
8.986211894105589
 30
0.0
 10
128.78479357318574
 20
9.020193764265933
 30
0.0
 10
128.4094415611346
 20
9.044346445226996
 30
0.0
 10
128.3306539093097
 20
9.062176902847618
 30
0.0
 10
128.2887020609156
 20
9.090449089214623
 30
0.0
 10
128.0500070210556
 20
10.213420960723575
 30
0.0
 10
128.07683260741888
 20
10.256312242145944
 30
0.0
 10
128.14155640837583
 20
10.30464700074936
 30
0.0
 10
128.47463375363668
 20
10.479380990066058
 30
0.0
 10
128.79662080265388
 20
10.659936648473863
 30
0.0
 10
129.14367834775916
 20
10.867495954585092
 30
0.0
 10
129.51452591432738
 20
11.103585617862915
 30
0.0
 10
129.90781772341046
 20
11.369681245657373
 30
0.0
 10
130.32214456504215
 20
11.667204898385059
 30
0.0
 10
130.34743070159
 20
11.686455027095358
 30
0.0
 10
130.24024815765773
 20
12.190709250489723
 30
0.0
 10
130.09124661208816
 20
12.684226179229523
 30
0.0
 10
130.05981438148558
 20
12.688913506424296
 30
0.0
 10
129.55340388957225
 20
12.750031992549971
 30
0.0
 10
129.0805671037442
 20
12.793743594694172
 30
0.0
 10
128.64185384118701
 20
12.821973365985805
 30
0.0
 10
128.23773253773845
 20
12.836662724957149
 30
0.0
 10
127.8685897839791
 20
12.839766410663778
 30
0.0
 10
127.49253314001169
 20
12.83242573791432
 30
0.0
 10
127.4125297933318
 20
12.843600880824498
 30
0.0
 10
127.3683593203933
 20
12.868263472457167
 30
0.0
 10
127.0365335533038
 20
13.96732343740428
 30
0.0
 10
127.0596760086328
 20
14.012309000278737
 30
0.0
 10
127.12012826575199
 20
14.065890190156942
 30
0.0
 10
127.43741609849931
 20
14.267882556693491
 30
0.0
 10
127.74316538551875
 20
14.474748162836654
 30
0.0
 10
128.0716376358659
 20
14.710620556133897
 30
0.0
 10
128.42142911396505
 20
14.976913944308334
 30
0.0
 10
128.79107528506367
 20
15.274986147667358
 30
0.0
 10
129.17905288654444
 20
15.606136319610757
 30
0.0
 10
129.20263953179807
 20
15.627434824782743
 30
0.0
 10
129.0536379862285
 20
16.120951753522508
 30
0.0
 10
128.86386257780626
 20
16.600269720943988
 30
0.0
 10
128.8321483590299
 20
16.60231042775462
 30
0.0
 10
128.32239965688254
 20
16.620839224942834
 30
0.0
 10
127.84756348361833
 20
16.624831561859608
 30
0.0
 10
127.40802664384262
 20
16.6162517477179
 30
0.0
 10
127.00409347680684
 20
16.597073589922573
 30
0.0
 10
126.63598564891565
 20
16.56927732105025
 30
0.0
 10
126.26186214019307
 20
16.53049478413535
 30
0.0
 10
126.18120426465286
 20
16.53493622673689
 30
0.0
 10
126.13512499130114
 20
16.555816233274967
 30
0.0
 10
125.71249601632181
 20
17.62325517567964
 30
0.0
 10
125.73179301292026
 20
17.670019478604704
 30
0.0
 10
125.78754969705285
 20
17.72847126620873
 30
0.0
 10
126.08682247111093
 20
17.956305178645188
 30
0.0
 10
126.37418938456474
 20
18.18802971892935
 30
0.0
 10
126.68177234332455
 20
18.4505607240477
 30
0.0
 10
127.0080541970606
 20
18.74518998033225
 30
0.0
 10
127.35146192787488
 20
19.073147996913864
 30
0.0
 10
127.71036890509188
 20
19.435601907547863
 30
0.0
 10
127.73209061568176
 20
19.45879939547069
 30
0.0
 10
127.54231520725959
 20
19.93811736289221
 30
0.0
 10
127.31309707412146
 20
20.399874297843446
 30
0.0
 10
127.28132331962932
 20
20.39925407017787
 30
0.0
 10
126.7718119281395
 20
20.37506321222927
 30
0.0
 10
126.29830700202533
 20
20.33930828054364
 30
0.0
 10
125.8610296201553
 20
20.2939790622002
 30
0.0
 10
125.46011789047353
 20
20.241067908635657
 30
0.0
 10
125.09562700037802
 20
20.182566656038926
 30
0.0
 10
124.7260608345066
 20
20.112614286589825
 30
0.0
 10
124.64531418715035
 20
20.11029087535406
 30
0.0
 10
124.5976493263801
 20
20.127241838553942
 30
0.0
 10
124.0871815821119
 20
21.15557244118902
 30
0.0
 10
124.10249776541352
 20
21.203787466179783
 30
0.0
 10
124.15316778348145
 20
21.266699854217133
 30
0.0
 10
124.43232631536748
 20
21.5187772213562
 30
0.0
 10
124.69929518283061
 20
21.773735314625124
 30
0.0
 10
124.98383137654542
 20
22.06108346519195
 30
0.0
 10
125.28431497314759
 20
22.381981977044596
 30
0.0
 10
125.599075505184
 20
22.73752541699999
 30
0.0
 10
125.92639438356633
 20
23.128740712564262
 30
0.0
 10
125.94609879729973
 20
23.15367446952754
 30
0.0
 10
125.71688066416162
 20
23.615431404478766
 30
0.0
 10
125.44982760681856
 20
24.05638841383299
 30
0.0
 10
125.418217186669
 20
24.053111602142632
 30
0.0
 10
124.91251696216463
 20
23.986370770544617
 30
0.0
 10
124.44366458004433
 20
23.911119365412475
 30
0.0
 10
124.01171384273044
 20
23.829358694764988
 30
0.0
 10
123.61663565813168
 20
23.743085679156863
 30
0.0
 10
123.25831834753956
 20
23.6542897870896
 30
0.0
 10
122.89590176563996
 20
23.553658250717277
 30
0.0
 10
122.81563272618251
 20
23.54458628270465
 30
0.0
 10
122.76671661274486
 20
23.55748930373874
 30
0.0
 10
122.17199066364327
 20
24.539498566281267
 30
0.0
 10
122.18321860162683
 20
24.588826119579853
 30
0.0
 10
122.22844653985972
 20
24.655757822850944
 30
0.0
 10
122.48553273304763
 20
24.930310503079482
 30
0.0
 10
122.73023095973171
 20
25.20671380149602
 30
0.0
 10
122.9897245714416
 20
25.516863556694453
 30
0.0
 10
123.26230223437688
 20
25.86178045161981
 30
0.0
 10
123.54620774865833
 20
26.242415433175307
 30
0.0
 10
123.83964262145244
 20
26.659648019459276
 30
0.0
 10
123.85719152602461
 20
26.68614315307277
 30
0.0
 10
123.59013846868153
 20
27.127100162426935
 30
0.0
 10
123.28712367245342
 20
27.5441642495907
 30
0.0
 10
123.25589831103176
 20
27.538253838355185
 30
0.0
 10
122.7575563772426
 20
27.4294311720882
 30
0.0
 10
122.29664520170678
 20
27.315211128048475
 30
0.0
 10
121.87305093301512
 20
27.19759249745658
 30
0.0
 10
121.48657748310109
 20
27.07856276302229
 30
0.0
 10
121.13694709049548
 20
26.96009507086759
 30
0.0
 10
120.78422218449376
 20
26.829490225496038
 30
0.0
 10
120.70499378257368
 20
26.813733334043956
 30
0.0
 10
120.6551695278582
 20
26.822497907490515
 30
0.0
 10
119.9803569491462
 20
27.751297740536426
 30
0.0
 10
119.98741788589402
 20
27.801391824798248
 30
0.0
 10
120.02688650280139
 20
27.871873365495
 30
0.0
 10
120.26009708236217
 20
28.166975569027024
 30
0.0
 10
120.48080828602242
 20
28.462885302048278
 30
0.0
 10
120.71343915448713
 20
28.793661184187894
 30
0.0
 10
120.95619894729683
 20
29.160177117990514
 30
0.0
 10
121.20725805062645
 20
29.563233760236358
 30
0.0
 10
121.46475068303238
 20
30.00355705042844
 30
0.0
 10
121.48002098548668
 20
30.031427716366657
 30
0.0
 10
121.17700618925852
 20
30.44849180353033
 30
0.0
 10
120.84015508522504
 20
30.83873756359222
 30
0.0
 10
120.80953380600619
 20
30.83023501009976
 30
0.0
 10
120.32204567353959
 20
30.680093821978677
 30
0.0
 10
119.87230866532042
 20
30.527706310573333
 30
0.0
 10
119.4600420746938
 20
30.37505473022176
 30
0.0
 10
119.08488419303481
 20
30.224103185025616
 30
0.0
 10
118.74639312441082
 20
30.076794658525028
 30
0.0
 10
118.40583400609009
 20
29.917132603305067
 30
0.0
 10
118.32820197202129
 20
29.89480131168576
 30
0.0
 10
118.27781905737616
 20
29.899365960359397
 30
0.0
 10
117.52765317444118
 20
30.768441500421638
 30
0.0
 10
117.53049758255528
 20
30.81895074163815
 30
0.0
 10
117.56393003414769
 20
30.89248774239348
 30
0.0
 10
117.77162919542725
 20
31.20606953930187
 30
0.0
 10
117.96680524555083
 20
31.519410112761545
 30
0.0
 10
118.17094163237311
 20
31.86849196669128
 30
0.0
 10
118.38218076953333
 20
32.254036093436866
 30
0.0
 10
118.598632462687
 20
32.6766872436235
 30
0.0
 10
118.8183767288966
 20
33.137012686214845
 30
0.0
 10
118.8312613190329
 20
33.166063391781165
 30
0.0
 10
118.49441021499936
 20
33.556309151843074
 30
0.0
 10
118.12608557162807
 20
33.916999291187466
 30
0.0
 10
118.09628316088455
 20
33.905964234741816
 30
0.0
 10
117.62306820873003
 20
33.71555765732502
 30
0.0
 10
117.18765994980458
 20
33.526071567456285
 30
0.0
 10
116.7896127911631
 20
33.339457778501185
 30
0.0
 10
116.42840194074843
 20
33.15764323917421
 30
0.0
 10
116.10342446774692
 20
32.9825271418001
 30
0.0
 10
115.77741991463083
 20
32.794927791332064
 30
0.0
 10
115.70192878135379
 20
32.76617873751123
 30
0.0
 10
115.65134060672517
 20
32.76651144368119
 30
0.0
 10
114.83108329424259
 20
33.569766750276145
 30
0.0
 10
114.82969122224371
 20
33.62033686241106
 30
0.0
 10
114.85685300389441
 20
33.69641351400093
 30
0.0
 10
115.03758388650806
 20
34.02627535328857
 30
0.0
 10
115.20585576333708
 20
34.35484890819873
 30
0.0
 10
115.38006579843523
 20
34.71978817552824
 30
0.0
 10
115.5583025891739
 20
35.12165618018076
 30
0.0
 10
115.73862861904445
 20
35.56093724416405
 30
0.0
 10
115.9190831709163
 20
36.03803598691825
 30
0.0
 10
115.9294916725924
 20
36.06806296228606
 30
0.0
 10
115.56116702922115
 20
36.42875310163045
 30
0.0
 10
115.16395237924442
 20
36.757357638085416
 30
0.0
 10
115.13517787947455
 20
36.74386748167879
 30
0.0
 10
114.67955537051701
 20
36.514531080299925
 30
0.0
 10
114.26152993698123
 20
36.28927552074266
 30
0.0
 10
113.88049422514628
 20
36.070008484831725
 30
0.0
 10
113.53576404056196
 20
35.85860624973373
 30
0.0
 10
113.22657964666003
 20
35.65691089508844
 30
0.0
 10
112.91741634645471
 20
35.44269012402593
 30
0.0
 10
112.84459563002908
 20
35.40772496195995
 30
0.0
 10
112.79415703511441
 20
35.40382339193151
 30
0.0
 10
111.90956180877724
 20
36.13562420622154
 30
0.0
 10
111.90394302105028
 20
36.1859004762728
 30
0.0
 10
111.92464361237671
 20
36.26398315564732
 30
0.0
 10
112.07713851903785
 20
36.60781129351701
 30
0.0
 10
112.21732591625957
 20
36.94931312246975
 30
0.0
 10
112.36038764140707
 20
37.32755001644721
 30
0.0
 10
112.50437188270011
 20
37.74292308369577
 30
0.0
 10
112.64730739175208
 20
38.19575282043489
 30
0.0
 10
112.78720647026122
 20
38.68627835846651
 30
0.0
 10
112.79506587531634
 20
38.71707098597797
 30
0.0
 10
112.39785122533968
 20
39.045675522432944
 30
0.0
 10
111.97453274412887
 20
39.33988953127726
 30
0.0
 10
111.94698798777401
 20
39.32403889866419
 30
0.0
 10
111.51215378654945
 20
39.05738130340095
 30
0.0
 10
111.11444332646873
 20
38.79793628005955
 30
0.0
 10
110.75309175318505
 20
38.547553997906554
 30
0.0
 10
110.42726026898764
 20
38.308046901824454
 30
0.0
 10
110.13603766055984
 20
38.081187037902886
 30
0.0
 10
109.84588417168274
 20
37.8418474510375
 30
0.0
 10
109.7762446571126
 20
37.80091143621585
 30
0.0
 10
109.72630943241515
 20
37.79280295669947
 30
0.0
 10
108.78358109215533
 20
38.44801622177051
 30
0.0
 10
108.7737750004591
 20
38.49764599782715
 30
0.0
 10
108.78786920168648
 20
38.577187011092825
 30
0.0
 10
108.9110584901923
 20
38.93256974019759
 30
0.0
 10
109.02217809393971
 20
39.28460445323154
 30
0.0
 10
109.13308803392437
 20
39.67348591380853
 30
0.0
 10
109.24180977977166
 20
40.099450500031516
 30
0.0
 10
109.34635217810806
 20
40.562652634280965
 30
0.0
 10
109.44471449173611
 20
41.06316428338282
 30
0.0
 10
109.44996967209079
 20
41.09450657488036
 30
0.0
 10
109.02665119087996
 20
41.38872058372469
 30
0.0
 10
108.5801981534268
 20
41.64648036507883
 30
0.0
 10
108.55407634716194
 20
41.62838043705842
 30
0.0
 10
108.14308050316401
 20
41.32627205934835
 30
0.0
 10
107.76847466966126
 20
41.03445739265057
 30
0.0
 10
107.42934185658467
 20
40.7547161160654
 30
0.0
 10
107.12469454652623
 20
40.48878412919259
 30
0.0
 10
106.85347644092754
 20
40.23835101494159
 30
0.0
 10
106.58436798162812
 20
39.97557140750993
 30
0.0
 10
106.51839814007226
 20
39.92895167666408
 30
0.0
 10
106.46931654531488
 20
39.91669316281764
 30
0.0
 10
105.47506765308997
 20
40.49072302838528
 30
0.0
 10
105.46114304011203
 20
40.539358193227216
 30
0.0
 10
105.46853199054539
 20
40.61979961732613
 30
0.0
 10
105.56155157654844
 20
40.98424418316345
 30
0.0
 10
105.64282396264059
 20
41.344342509703246
 30
0.0
 10
105.72080416392208
 20
41.741140812844755
 30
0.0
 10
105.79350080939295
 20
42.17470908252498
 30
0.0
 10
105.85891680720309
 20
42.64503458412326
 30
0.0
 10
105.91505241499314
 20
43.152021614694014
 30
0.0
 10
105.91766650933306
 20
43.183693726522286
 30
0.0
 10
105.4712134718799
 20
43.441453507876396
 30
0.0
 10
105.00475742546608
 20
43.66095106207435
 30
0.0
 10
104.98024179499359
 20
43.64072879663676
 30
0.0
 10
104.59596714876784
 20
43.30528870968494
 30
0.0
 10
104.24709353261115
 20
42.98315126984911
 30
0.0
 10
103.9325582527588
 20
42.67601318289318
 30
0.0
 10
103.6512319988306
 20
42.38552162704571
 30
0.0
 10
103.40192079620184
 20
42.11327187082581
 30
0.0
 10
103.15574496896792
 20
41.828895452967096
 30
0.0
 10
103.0939075314656
 20
41.776919010012705
 30
0.0
 10
103.04602383877041
 20
41.76059644650311
 30
0.0
 10
102.00722833619253
 20
42.24941650550029
 30
0.0
 10
101.98928287308811
 20
42.296715918390476
 30
0.0
 10
101.98991474454913
 20
42.377493514529654
 30
0.0
 10
102.05211216248807
 20
42.748443600323235
 30
0.0
 10
102.10296726353063
 20
43.11407970933849
 30
0.0
 10
102.14747075102566
 20
43.51601160004719
 30
0.0
 10
102.18363238138463
 20
43.95414238329118
 30
0.0
 10
102.20946313244518
 20
44.42829225677299
 30
0.0
 10
102.22297828344198
 20
44.93819851906288
 30
0.0
 10
102.22293295577356
 20
44.96997829411379
 30
0.0
 10
101.7564769093597
 20
45.189475848311616
 30
0.0
 10
101.27328970800252
 20
45.36917155771926
 30
0.0
 10
101.25055221285585
 20
45.346968799527076
 30
0.0
 10
100.8956941749446
 20
44.9805498745301
 30
0.0
 10
100.57499987388594
 20
44.630349224241236
 30
0.0
 10
100.28726836625273
 20
44.297968679916124
 30
0.0
 10
100.03123646999342
 20
43.984955144640374
 30
0.0
 10
99.80558090929118
 20
43.69279838288026
 30
0.0
 10
99.58406446067374
 20
43.38881985084162
 30
0.0
 10
99.5267931724189
 20
43.33185127318099
 30
0.0
 10
99.48044325148578
 20
43.311579151063505
 30
0.0
 10
98.40438754263195
 20
43.7117606819931
 30
0.0
 10
98.38254710393095
 20
43.75739257153469
 30
0.0
 10
98.37641746429532
 20
43.837939742915836
 30
0.0
 10
98.40735644397209
 20
44.21279340034109
 30
0.0
 10
98.4274375479706
 20
44.581402617236265
 30
0.0
 10
98.43815216169011
 20
44.98564883208648
 30
0.0
 10
98.43752512908229
 20
45.425268956246335
 30
0.0
 10
98.42358944923393
 20
45.899917380925416
 30
0.0
 10
98.39438934436384
 20
46.40916624887163
 30
0.0
 10
98.3916849126281
 20
46.4408307748568
 30
0.0
 10
97.90849771127093
 20
46.62052648426445
 30
0.0
 10
97.41196856601847
 20
46.7591599125916
 30
0.0
 10
97.39116869338913
 20
46.73513239804083
 30
0.0
 10
97.06821633796318
 20
46.34030480048591
 30
0.0
 10
96.77795079210595
 20
45.96449734568698
 30
0.0
 10
96.51904128648312
 20
45.60920575469605
 30
0.0
 10
96.2900996276863
 20
45.275865805042045
 30
0.0
 10
96.08968252053562
 20
44.96585130751112
 30
0.0
 10
95.89437922926234
 20
44.64440285228654
 30
0.0
 10
95.84207580719273
 20
44.582841733560095
 30
0.0
 10
95.79758476941466
 20
44.55876224720588
 30
0.0
 10
94.69181661193754
 20
44.867498264158435
 30
0.0
 10
94.6662343926251
 20
44.91114255543276
 30
0.0
 10
94.65338623691072
 20
44.990894321521715
 30
0.0
 10
94.65284976361251
 20
45.36702222150378
 30
0.0
 10
94.64201601605068
 20
45.73601901746771
 30
0.0
 10
94.61886660067788
 20
46.13974405971278
 30
0.0
 10
94.58145530328648
 20
46.57776990548413
 30
0.0
 10
94.52785094131056
 20
47.04958756369578
 30
0.0
 10
94.45614039832904
 20
47.55460702238446
 30
0.0
 10
94.45079583217145
 20
47.58593419540513
 30
0.0
 10
93.95426668691898
 20
47.724567623732284
 30
0.0
 10
93.44787839296947
 20
47.821166357087215
 30
0.0
 10
93.42916203901927
 20
47.79548262192864
 30
0.0
 10
93.14038064481096
 20
47.37501578372939
 30
0.0
 10
92.88257985840387
 20
46.97623754369852
 30
0.0
 10
92.65430841894712
 20
46.60052702127588
 30
0.0
 10
92.45406285885491
 20
46.24919879748605
 30
0.0
 10
92.28028998726295
 20
45.92350109313939
 30
0.0
 10
92.1125697655969
 20
45.58683744468186
 30
0.0
 10
92.06560108063837
 20
45.52111559190586
 30
0.0
 10
92.0232809986786
 20
45.49339764161061
 30
0.0
 10
90.89555656170957
 20
45.708522583253725
 30
0.0
 10
90.86641200267337
 20
45.749873142915874
 30
0.0
 10
90.84693545146119
 20
45.82827010237508
 30
0.0
 10
90.81492728816274
 20
46.20303397794313
 30
0.0
 10
90.77325467999566
 20
46.56983010557594
 30
0.0
 10
90.71640361204655
 20
46.97020213412056
 30
0.0
 10
90.6424704632428
 20
47.403561264916455
 30
0.0
 10
90.54957341522392
 20
47.86923869478884
 30
0.0
 10
90.435855432066
 20
48.366486395573276
 30
0.0
 10
90.42790821977812
 20
48.39725647801924
 30
0.0
 10
89.9215199258286
 20
48.49385521137416
 30
0.0
 10
89.40882443322458
 20
48.54774167904847
 30
0.0
 10
89.39232287972881
 20
48.520581876230494
 30
0.0
 10
89.1397380407294
 20
48.07742507015187
 30
0.0
 10
88.91621030105946
 20
47.6584731877211
 30
0.0
 10
88.72017808790379
 20
47.26497907323395
 30
0.0
 10
88.55003320524398
 20
46.898126890369184
 30
0.0
 10
88.40412346104934
 20
46.5590305145893
 30
0.0
 10
88.26516274583868
 20
46.20951312650025
 30
0.0
 10
88.22385824956928
 20
46.14009153125083
 30
0.0
 10
88.18400596839581
 20
46.10892953852054
 30
0.0
 10
87.04223542859131
 20
46.22893445795565
 30
0.0
 10
87.00973295797264
 20
46.26770124153994
 30
0.0
 10
86.98376462527555
 20
46.34419349602692
 30
0.0
 10
86.92050928624455
 20
46.71496464786131
 30
0.0
 10
86.8482901208768
 20
47.076987295870325
 30
0.0
 10
86.7581361697456
 20
47.471197988601155
 30
0.0
 10
86.64819975744747
 20
47.89685070148717
 30
0.0
 10
86.51666162943104
 20
48.353121510438505
 30
0.0
 10
86.36173385604233
 20
48.83910961796968
 30
0.0
 10
86.35123974160827
 20
48.869106779820854
 30
0.0
 10
85.83854424900427
 20
48.92299324749516
 30
0.0
 10
85.32313774825518
 20
48.93378947463547
 30
0.0
 10
85.30896674175526
 20
48.90534411066057
 30
0.0
 10
85.09435015912835
 20
48.44260576328949
 30
0.0
 10
84.9066633526849
 20
48.006418884897556
 30
0.0
 10
84.74424539095662
 20
47.597901256833886
 30
0.0
 10
84.60539462983216
 20
47.21809831937404
 30
0.0
 10
84.48837146505434
 20
46.86798178959663
 30
0.0
 10
84.37914496587317
 20
46.50806227522561
 30
0.0
 10
84.34379437965696
 20
46.4354278801141
 30
0.0
 10
84.3066894343884
 20
46.40104042393791
 30
0.0
 10
83.15888149172417
 20
46.4250835728786
 30
0.0
 10
83.12324909100144
 20
46.46099465925208
 30
0.0
 10
83.09097112601508
 20
46.53504567056121
 30
0.0
 10
82.99691230200594
 20
46.899223405430526
 30
0.0
 10
82.89465314499316
 20
47.25393324505287
 30
0.0
 10
82.77182867587153
 20
47.6392174972004
 30
0.0
 10
82.6266601250221
 20
48.0541781442267
 30
0.0
 10
82.45740356246614
 20
48.49784192036231
 30
0.0
 10
82.2623527058615
 20
48.96916157724786
 30
0.0
 10
82.24938529795402
 20
48.99817540996677
 30
0.0
 10
81.73397879720498
 20
49.00897163710709
 30
0.0
 10
81.21947649459449
 20
48.97660189593717
 30
0.0
 10
81.20773543451918
 20
48.94707049459562
 30
0.0
 10
81.03259248939011
 20
48.46799638296185
 30
0.0
 10
80.88206310426756
 20
48.01763404616084
 30
0.0
 10
80.75439863927107
 20
47.596958362162
 30
0.0
 10
80.64781593800711
 20
47.20686871482533
 30
0.0
 10
80.560500186066
 20
46.8481878469484
 30
0.0
 10
80.48177404832691
 20
46.4803907830869
 30
0.0
 10
80.45262533112685
 20
46.405053066207266
 30
0.0
 10
80.41852798629441
 20
46.36768134988291
 30
0.0
 10
79.27273368878936
 20
46.295594082914334
 30
0.0
 10
79.23422129365179
 20
46.32839758160815
 30
0.0
 10
79.19586010310886
 20
46.3994879351007
 30
0.0
 10
79.07165754919082
 20
46.754517807856175
 30
0.0
 10
78.94007567504637
 20
47.099426804425576
 30
0.0
 10
78.78544221333595
 20
47.473082123787336
 30
0.0
 10
78.60605977701594
 20
47.87444005416384
 30
0.0
 10
78.40027199309611
 20
48.30238481486612
 30
0.0
 10
78.16646619489077
 20
48.755730052355695
 30
0.0
 10
78.15111645055927
 20
48.783557044752264
 30
0.0
 10
77.63661414794882
 20
48.751187303582284
 30
0.0
 10
77.12662490746037
 20
48.675878644578724
 30
0.0
 10
77.11739614891013
 20
48.64546834743271
 30
0.0
 10
76.98295534319895
 20
48.15341883221509
 30
0.0
 10
76.87063923487872
 20
47.692040005212775
 30
0.0
 10
76.77862374110919
 20
47.26215700294694
 30
0.0
 10
76.70505670077551
 20
46.8645168443305
 30
0.0
 10
76.64806081893471
 20
46.499787526930334
 30
0.0
 10
76.6003872499293
 20
46.12669274571954
 30
0.0
 10
76.57764485905322
 20
46.049180147025616
 30
0.0
 10
76.54679428303197
 20
46.00908630629155
 30
0.0
 10
75.41105055443104
 20
45.84137426379688
 30
0.0
 10
75.3699283016594
 20
45.870840081837
 30
0.0
 10
75.32575296174907
 20
45.93847112976155
 30
0.0
 10
75.17227786959847
 20
46.28186286093441
 30
0.0
 10
75.01229623062802
 20
46.614551725656696
 30
0.0
 10
74.82693841895872
 20
46.97395718863835
 30
0.0
 10
74.61460033607283
 20
47.35889716485873
 30
0.0
 10
74.37372478423501
 20
47.76812118510926
 30
0.0
 10
74.10280402411416
 20
48.200312112089975
 30
0.0
 10
74.08517961078633
 20
48.226757077806184
 30
0.0
 10
73.57519037029789
 20
48.151448418802595
 30
0.0
 10
73.07329140002678
 20
48.033729078099036
 30
0.0
 10
73.06663967611199
 20
48.00265319153335
 30
0.0
 10
72.97384401547517
 20
47.50107964654404
 30
0.0
 10
72.90052900075811
 20
47.031920570311605
 30
0.0
 10
72.84480790079128
 20
46.595845570169175
 30
0.0
 10
72.804772541318
 20
46.193444060281585
 30
0.0
 10
72.77849631473711
 20
45.82522460746211
 30
0.0
 10
72.76220971029855
 20
45.44944910072397
 30
0.0
 10
72.74603316727809
 20
45.37030531540288
 30
0.0
 10
72.7186457546927
 20
45.327770579744474
 30
0.0
 10
71.60091902122127
 20
45.06561014120085
 30
0.0
 10
71.55747535387248
 20
45.09153159704487
 30
0.0
 10
71.50779572286427
 20
45.15522895619309
 30
0.0
 10
71.32612460998085
 20
45.48457389951578
 30
0.0
 10
71.13886536243513
 20
45.80270905904154
 30
0.0
 10
70.92408335267639
 20
46.145343694552736
 30
0.0
 10
70.68027902231135
 20
46.51116563926281
 30
0.0
 10
70.40600527148284
 20
46.89879850658656
 30
0.0
 10
70.09986986392242
 20
47.30680361423441
 30
0.0
 10
70.08009440419465
 20
47.33168106083643
 30
0.0
 10
69.57819543392354
 20
47.213961720132964
 30
0.0
 10
69.08790719453224
 20
47.05465741432339
 30
0.0
 10
69.08387916231692
 20
47.023133913354116
 30
0.0
 10
69.03337954164023
 20
46.51555451663112
 30
0.0
 10
68.99957987267783
 20
46.041906004998005
 30
0.0
 10
68.9805440099944
 20
45.602697759785514
 30
0.0
 10
68.97432115066286
 20
45.198357456093554
 30
0.0
 10
68.97894888819192
 20
44.829230662750994
 30
0.0
 10
68.99416348714843
 20
44.45341022567094
 30
0.0
 10
68.98466625881001
 20
44.37319039051197
 30
0.0
 10
68.96093411268197
 20
44.328513110538715
 30
0.0
 10
67.8690644242898
 20
43.97374314306052
 30
0.0
 10
67.82360406847604
 20
43.995938416320236
 30
0.0
 10
67.76876861328674
 20
44.05525529548417
 30
0.0
 10
67.56017577199685
 20
44.3682433328133
 30
0.0
 10
67.3469524049518
 20
44.66959329757826
 30
0.0
 10
67.10425273858144
 20
44.99305376983353
 30
0.0
 10
66.83069227294159
 20
45.33719170493387
 30
0.0
 10
66.52494415641902
 20
45.700514453280405
 30
0.0
 10
66.1857414213451
 20
46.081471878916496
 30
0.0
 10
66.16395362585872
 20
46.104607308990836
 30
0.0
 10
65.6736653864674
 20
45.94530300318124
 30
0.0
 10
65.19842689768369
 20
45.74553113751078
 30
0.0
 10
65.19705081091966
 20
45.713781136847786
 30
0.0
 10
65.18920144875824
 20
45.20375619316382
 30
0.0
 10
65.19515420594323
 20
44.72894055012314
 30
0.0
 10
65.2129371034427
 20
44.28967979011007
 30
0.0
 10
65.24057039313998
 20
43.88623684932604
 30
0.0
 10
65.27606963452524
 20
43.518791874698444
 30
0.0
 10
65.32267871739681
 20
43.145562617615994
 30
0.0
 10
65.3199274199735
 20
43.06482941712492
 30
0.0
 10
65.30001700425635
 20
43.01832297185523
 30
0.0
 10
64.24166304230023
 20
42.57343193186244
 30
0.0
 10
64.19450486975433
 20
42.59174533864323
 30
0.0
 10
64.13489822170285
 20
42.64626567253467
 30
0.0
 10
63.90084678091439
 20
42.94070141766997
 30
0.0
 10
63.66315490308906
 20
43.223152434190965
 30
0.0
 10
63.394239943887186
 20
43.52516990038346
 30
0.0
 10
63.09284217308608
 20
43.84520994552209
 30
0.0
 10
62.757764294227144
 20
44.18167412685879
 30
0.0
 10
62.38787349510942
 20
44.53291172785981
 30
0.0
 10
62.364226189595286
 20
44.55414286298728
 30
0.0
 10
61.8889877008116
 20
44.35437099731689
 30
0.0
 10
61.43213241917581
 20
44.11553282788751
 30
0.0
 10
61.43341793012309
 20
44.08377903097293
 30
0.0
 10
61.46827388411272
 20
43.574885998855535
 30
0.0
 10
61.5139373131305
 20
43.10223371498865
 30
0.0
 10
61.568414236563896
 20
42.66600153879807
 30
0.0
 10
61.629709847617264
 20
42.266285823278196
 30
0.0
 10
61.69583159118659
 20
41.90310002985375
 30
0.0
 10
61.773508228745456
 20
41.53507988784248
 30
0.0
 10
61.77752216061186
 20
41.45439960741401
 30
0.0
 10
61.761573132566255
 20
41.406390206146625
 30
0.0
 10
60.74415848966303
 20
40.87449868463102
 30
0.0
 10
60.6956332810823
 20
40.88880176954248
 30
0.0
 10
60.6316735379774
 20
40.93814313719198
 30
0.0
 10
60.37380520038179
 20
41.211961334933115
 30
0.0
 10
60.11331204951774
 20
41.473532212270015
 30
0.0
 10
59.820068042708016
 20
41.75198823687367
 30
0.0
 10
59.49294705555382
 20
42.045685541082385
 30
0.0
 10
59.1308897449256
 20
42.35293110092635
 30
0.0
 10
58.73290539995371
 20
42.67198519788517
 30
0.0
 10
58.70756445326941
 20
42.691163116907425
 30
0.0
 10
58.25070917163374
 20
42.452324947478
 30
0.0
 10
57.81544160869655
 20
42.176095752443075
 30
0.0
 10
57.819379700419404
 20
42.144560889347325
 30
0.0
 10
57.89669648108682
 20
41.64036928777766
 30
0.0
 10
57.981750285791954
 20
41.17319567925571
 30
0.0
 10
58.07253911868301
 20
40.743051942171206
 30
0.0
 10
58.16706710642176
 20
40.349867170464535
 30
0.0
 10
58.263347555652416
 20
39.99348804563545
 30
0.0
 10
58.3715469020967
 20
39.633258415569465
 30
0.0
 10
58.38229790840478
 20
39.553196969402116
 30
0.0
 10
58.3704221390031
 20
39.50402136359222
 30
0.0
 10
57.401083247861315
 20
38.88886019741371
 30
0.0
 10
57.35153137271864
 20
38.89905263459193
 30
0.0
 10
57.2836671662032
 20
38.94286894175716
 30
0.0
 10
57.003790692910506
 20
39.19414895418508
 30
0.0
 10
56.722323441296986
 20
39.43300496057179
 30
0.0
 10
56.40680728289166
 20
39.68594637464436
 30
0.0
 10
56.05625759807316
 20
39.951240862355384
 30
0.0
 10
55.66976042757188
 20
40.227112693859944
 30
0.0
 10
55.24647411097445
 20
40.51174535152643
 30
0.0
 10
55.21961727165353
 20
40.52873553512083
 30
0.0
 10
54.78434970871636
 20
40.252506340085894
 30
0.0
 10
54.37372295369248
 20
39.94082366877828
 30
0.0
 10
54.38028600330701
 20
39.909728933908134
 30
0.0
 10
54.49952128898788
 20
39.41377530471003
 30
0.0
 10
54.62336887805144
 20
38.95535725873302
 30
0.0
 10
54.749832801969106
 20
38.534319110012405
 30
0.0
 10
54.87693012047751
 20
38.15042319078958
 30
0.0
 10
55.00269393719555
 20
37.803350478058505
 30
0.0
 10
55.140657051851065
 20
37.453438111968076
 30
0.0
 10
55.158069722016165
 20
37.37455707358263
 30
0.0
 10
55.15035051124802
 20
37.32456019477236
 30
0.0
 10
54.23588658772002
 20
36.63044429751899
 30
0.0
 10
54.18565561681654
 20
36.636454594340435
 30
0.0
 10
54.114362965538895
 20
36.67443850110859
 30
0.0
 10
53.81444148891831
 20
36.90141777948055
 30
0.0
 10
53.51397442709145
 20
37.11588351165007
 30
0.0
 10
53.17839923624369
 20
37.341536112910006
 30
0.0
 10
52.80687970793027
 20
37.57656693390586
 30
0.0
 10
52.398653677509174
 20
37.81912999438665
 30
0.0
 10
51.95303443866632
 20
38.06734471917556
 30
0.0
 10
51.92485008814004
 20
38.08202799341161
 30
0.0
 10
51.51422333311624
 20
37.770345322104
 30
0.0
 10
51.131117637657226
 20
37.42539540451917
 30
0.0
 10
51.140259610085906
 20
37.3949589050983
 30
0.0
 10
51.30057705092159
 20
36.9107220066384
 30
0.0
 10
51.462349722490664
 20
36.46427499642594
 30
0.0
 10
51.62360168387286
 20
36.055295716166995
 30
0.0
 10
51.7823768367809
 20
35.683381403472524
 30
0.0
 10
51.93674187817322
 20
35.348049568547864
 30
0.0
 10
52.10350104891701
 20
35.01090885026943
 30
0.0
 10
52.1274532455689
 20
34.933761513474224
 30
0.0
 10
52.1239447381516
 20
34.883294053845724
 30
0.0
 10
51.270770089619496
 20
34.11509214981515
 30
0.0
 10
51.220212357125206
 20
34.116878148366
 30
0.0
 10
51.14599132781038
 20
34.148763224922504
 30
0.0
 10
50.8281285815271
 20
34.34984967268511
 30
0.0
 10
50.51076927004033
 20
34.53842080761969
 30
0.0
 10
50.15748886560348
 20
34.73520180520032
 30
0.0
 10
49.76760543634986
 20
34.938320387141125
 30
0.0
 10
49.34051395830235
 20
35.145873271010196
 30
0.0
 10
48.875687495997596
 20
35.355929014969156
 30
0.0
 10
48.84637332723442
 20
35.368202387228024
 30
0.0
 10
48.463267631775395
 20
35.02325246964319
 30
0.0
 10
48.11037020707387
 20
34.64745488160689
 30
0.0
 10
48.12202697794862
 20
34.617890107810055
 30
0.0
 10
48.3223020622796
 20
34.14876651400731
 30
0.0
 10
48.52086509729663
 20
33.717422044564316
 30
0.0
 10
48.71577402949365
 20
33.323370328566845
 30
0.0
 10
48.90511332318344
 20
32.96604633408422
 30
0.0
 10
49.086996829395815
 20
32.64480748885237
 30
0.0
 10
49.28138236046141
 20
32.3228032182894
 30
0.0
 10
49.31170607615022
 20
32.24793071622176
 30
0.0
 10
49.312432881742424
 20
32.19734666874349
 30
0.0
 10
48.526531915360536
 20
31.36044714234019
 30
0.0
 10
48.4760020474432
 20
31.357996315123838
 30
0.0
 10
48.39937324728409
 20
31.383558910566055
 30
0.0
 10
48.06579881011925
 20
31.55734205076867
 30
0.0
 10
47.73377329652027
 20
31.7186958974449
 30
0.0
 10
47.365265686699864
 20
31.885225014035154
 30
0.0
 10
46.95975310863139
 20
32.055006626009096
 30
0.0
 10
46.51679192281116
 20
32.22609349891264
 30
0.0
 10
46.03601866070021
 20
32.39651687192264
 30
0.0
 10
46.005780291531835
 20
32.40629425331637
 30
0.0
 10
45.652882866830325
 20
32.03049666528011
 30
0.0
 10
45.33266903476407
 20
31.626487356862153
 30
0.0
 10
45.34675884021261
 20
31.598001684335305
 30
0.0
 10
45.58558678221973
 20
31.147281960135423
 30
0.0
 10
45.81954740366143
 20
30.73406560299446
 30
0.0
 10
46.046746160555756
 20
30.357705440920405
 30
0.0
 10
46.26532151592218
 20
30.017478135733988
 30
0.0
 10
46.47344770484164
 20
29.71258553988447
 30
0.0
 10
46.694096121394445
 20
29.407976345635195
 30
0.0
 10
46.73057865704216
 20
29.33590385510131
 30
0.0
 10
46.73553567762485
 20
29.285558030521763
 30
0.0
 10
46.02242092400328
 20
28.385831130611948
 30
0.0
 10
45.97227335138068
 20
28.37916066842041
 30
0.0
 10
45.89377427635268
 20
28.398221479508006
 30
0.0
 10
45.54682793331007
 20
28.54348234828512
 30
0.0
 10
45.20246513801681
 20
28.676487125401163
 30
0.0
 10
44.821315138923346
 20
28.811596278899156
 30
0.0
 10
44.403017791414804
 20
28.946850024886174
 30
0.0
 10
43.94729395227322
 20
29.080270835336513
 30
0.0
 10
43.45394616935466
 20
29.209866439884912
 30
0.0
 10
43.422995700214535
 20
29.21707924910802
 30
0.0
 10
43.1027818681483
 20
28.813069940690152
 30
0.0
 10
42.81749769867602
 20
28.38368274690881
 30
0.0
 10
42.83392170883658
 20
28.356475982177823
 30
0.0
 10
43.10962730210431
 20
27.92732160260439
 30
0.0
 10
43.37734444431173
 20
27.535131773615255
 30
0.0
 10
43.63523938986586
 20
27.179103061587174
 30
0.0
 10
43.88151765783718
 20
26.858358895789866
 30
0.0
 10
44.11442667378691
 20
26.571951151817526
 30
0.0
 10
44.359790285720464
 20
26.28687364851821
 30
0.0
 10
44.40217574255219
 20
26.218106706255163
 30
0.0
 10
44.41132820818761
 20
26.168352244360328
 30
0.0
 10
43.77600165495076
 20
25.212108908694
 30
0.0
 10
43.726588126813866
 20
25.201265600026826
 30
0.0
 10
43.6467693915268
 20
25.213690928865198
 30
0.0
 10
43.28888472192226
 20
25.329410625592132
 30
0.0
 10
42.93460010251936
 20
25.43313340020031
 30
0.0
 10
42.54348120754061
 20
25.535874896970057
 30
0.0
 10
42.11533314593851
 20
25.635652069121722
 30
0.0
 10
41.650043228770016
 20
25.730470965996275
 30
0.0
 10
41.147581405271154
 20
25.818329782031473
 30
0.0
 10
41.11613593146248
 20
25.822927426409642
 30
0.0
 10
40.83085176199008
 20
25.393540232628347
 30
0.0
 10
40.58249831858406
 20
24.94178699613383
 30
0.0
 10
40.601141330826124
 20
24.916049975105174
 30
0.0
 10
40.91179069871188
 20
24.5114711497839
 30
0.0
 10
41.21138651828694
 20
24.143058778808953
 30
0.0
 10
41.49816870475506
 20
23.80985880243545
 30
0.0
 10
41.77042242023216
 20
23.51084756589595
 30
0.0
 10
42.026480573810176
 20
23.24493361834108
 30
0.0
 10
42.29483833168027
 20
22.98138741984946
 30
0.0
 10
42.34282940617025
 20
22.916408376548247
 30
0.0
 10
42.35611311888799
 20
22.86759426913978
 30
0.0
 10
41.803031125325326
 20
21.86154185765675
 30
0.0
 10
41.754698242070454
 20
21.84660176053334
 30
0.0
 10
41.674119717602665
 20
21.852304452368266
 30
0.0
 10
41.307807025253695
 20
21.93767128651697
 30
0.0
 10
40.946085633793125
 20
22.011384517878113
 30
0.0
 10
40.54774126095881
 20
22.081037700139433
 30
0.0
 10
40.11274563629137
 20
22.1446384332829
 30
0.0
 10
39.641153315554554
 20
22.20019033014738
 30
0.0
 10
39.13310186014889
 20
22.245696091201356
 30
0.0
 10
39.10138194907684
 20
22.24764632156269
 30
0.0
 10
38.85302850567085
 20
21.795893085068187
 30
0.0
 10
38.643347809294944
 20
21.324942530230203
 30
0.0
 10
38.66407905628255
 20
21.300855779614416
 30
0.0
 10
39.007493216671904
 20
20.92369033831544
 30
0.0
 10
39.336866264199585
 20
20.581639573433144
 30
0.0
 10
39.65052412059633
 20
20.273605491144618
 30
0.0
 10
39.946843619379166
 20
19.998424532847984
 30
0.0
 10
40.224254846615636
 20
19.754869576993766
 30
0.0
 10
40.513724413565605
 20
19.51470327053458
 30
0.0
 10
40.56698448280783
 20
19.45396790749658
 30
0.0
 10
40.584306266907504
 20
19.406436550465074
 30
0.0
 10
40.117348305815014
 20
18.357631797984226
 30
0.0
 10
40.07043508789104
 20
18.338699706451447
 30
0.0
 10
39.989661974696105
 20
18.337639760997092
 30
0.0
 10
39.617490679944225
 20
18.392054945561995
 30
0.0
 10
39.25086973209061
 20
18.435241588321002
 30
0.0
 10
38.848093980966134
 20
18.471317889046066
 30
0.0
 10
38.40930197499645
 20
18.498296069735403
 30
0.0
 10
37.93471513198268
 20
18.51419130994728
 30
0.0
 10
37.42463766059542
 20
18.517024825802093
 30
0.0
 10
37.39286580464545
 20
18.516313962681853
 30
0.0
 10
37.1831851082696
 20
18.04536340784382
 30
0.0
 10
37.01364791835357
 20
17.55851891442701
 30
0.0
 10
37.03632198528446
 20
17.53625138547338
 30
0.0
 10
37.41009213458498
 20
17.18914487277442
 30
0.0
 10
37.76693209479107
 20
16.87585495433729
 30
0.0
 10
38.10526553661669
 20
16.595147403898817
 30
0.0
 10
38.423572350326566
 20
16.345726920550245
 30
0.0
 10
38.720390810782135
 20
16.126239319418012
 30
0.0
 10
39.02894176578342
 20
15.911137499071817
 30
0.0
 10
39.087097248659454
 20
15.855071831230436
 30
0.0
 10
39.1083356042713
 20
15.809156622894237
 30
0.0
 10
38.7307770502372
 20
14.72495614118905
 30
0.0
 10
38.68561256016078
 20
14.702164850266325
 30
0.0
 10
38.60521142359235
 20
14.694349702278473
 30
0.0
 10
38.22979204066552
 20
14.71743155383711
 30
0.0
 10
37.86084311895128
 20
14.729788684724582
 30
0.0
 10
37.45646117203681
 20
14.732035054584598
 30
0.0
 10
37.01695059541513
 20
14.722201450266057
 30
0.0
 10
36.542698115837965
 20
14.698328540135963
 30
0.0
 10
36.034172455440746
 20
14.658469935713772
 30
0.0
 10
36.002571511354326
 20
14.65510296530598
 30
0.0
 10
35.833034321438355
 20
14.168258471889215
 30
0.0
 10
35.70482981955719
 20
13.668934904217622
 30
0.0
 10
35.729287664143065
 20
13.648642787642565
 30
0.0
 10
36.130792073310914
 20
13.334029906334521
 30
0.0
 10
36.51259597026374
 20
13.051698338021893
 30
0.0
 10
36.87323183151607
 20
12.800286281211706
 30
0.0
 10
37.21129326655793
 20
12.578375778293513
 30
0.0
 10
37.52543699199626
 20
12.384495079703576
 30
0.0
 10
37.85090507179308
 20
12.19596653018966
 30
0.0
 10
37.9135480493752
 20
12.144963817921688
 30
0.0
 10
37.93855400469433
 20
12.100986820477235
 30
0.0
 10
37.653043159699735
 20
10.9889954969299
 30
0.0
 10
37.60994419391811
 20
10.96250487114753
 30
0.0
 10
37.530478990181074
 20
10.947989338274144
 30
0.0
 10
37.1544448163121
 20
10.939575954222118
 30
0.0
 10
36.7857558323336
 20
10.921016896843462
 30
0.0
 10
36.38260413843872
 20
10.889417579167876
 30
0.0
 10
35.945457842072145
 20
10.842841165510322
 30
0.0
 10
35.474866266325876
 20
10.77936755635016
 30
0.0
 10
34.97145935905118
 20
10.697096411122612
 30
0.0
 10
34.9402509847458
 20
10.691096950305536
 30
0.0
 10
34.81204648286462
 20
10.191773382634
 30
0.0
 10
34.726073931483896
 20
9.6834731367714
 30
0.0
 10
34.75214399951829
 20
9.665298767192748
 30
0.0
 10
35.17856640360367
 20
9.385386300588953
 30
0.0
 10
35.58265615729182
 20
9.135993435497593
 30
0.0
 10
35.96306483652067
 20
8.915640347254897
 30
0.0
 10
36.318509634824515
 20
8.722796367502582
 30
0.0
 10
36.647775132723616
 20
8.555882505252464
 30
0.0
 10
36.987877412584695
 20
8.395249618888087
 30
0.0
 10
37.05456848939408
 20
8.349667609574682
 30
0.0
 10
37.083166645610696
 20
8.307937290061618
 30
0.0
 10
36.89170616309398
 20
7.175954944842162
 30
0.0
 10
36.85097502988554
 20
7.145950796906517
 30
0.0
 10
36.77300315028844
 20
7.12483669518131
 30
0.0
 10
36.39899179502682
 20
7.084987089362738
 30
0.0
 10
36.03314883710403
 20
7.035642022170802
 30
0.0
 10
35.63405521569728
 20
6.97041866346903
 30
0.0
 10
35.20233946676564
 20
6.887426140549163
 30
0.0
 10
34.73870965663455
 20
6.784797054121464
 30
0.0
 10
34.243952540239576
 20
6.6606904410605985
 30
0.0
 10
34.2133556400378
 20
6.652100571741253
 30
0.0
 10
34.12738308865736
 20
6.143800325878619
 30
0.0
 10
34.084245523454314
 20
5.63008876283644
 30
0.0
 10
34.111744952140725
 20
5.61415962039862
 30
0.0
 10
34.560094304363034
 20
5.370910953335468
 30
0.0
 10
34.98363551550249
 20
5.1562061032254665
 30
0.0
 10
35.381148719146346
 20
4.968457602140807
 30
0.0
 10
35.7514836908388
 20
4.806032807514125
 30
0.0
 10
36.09356140030784
 20
4.667256562420064
 30
0.0
 10
36.445912307103086
 20
4.535646063488504
 30
0.0
 10
36.516183693153415
 20
4.495804482174372
 30
0.0
 10
36.54817345474939
 20
4.45661354880089
 30
0.0
 10
36.45210629243124
 20
3.3125802247328306
 30
0.0
 10
36.414028691430154
 20
3.2792730121837317
 30
0.0
 10
36.338097052685654
 20
3.2517084418598428
 30
0.0
 10
35.96873193696175
 20
3.1807021306276395
 30
0.0
 10
35.60830113058669
 20
3.100917173814394
 30
0.0
 10
35.2160649366739
 20
3.0025272690848097
 30
0.0
 10
34.79280791096861
 20
2.883700769820865
 30
0.0
 10
34.339391896453215
 20
2.7426360754280226
 30
0.0
 10
33.856754936626956
 20
2.5775645132539817
 30
0.0
 10
33.82698412579988
 20
2.5664444871938272
 30
0.0
  0
LWPOLYLINE
  8
OpenJsCad
  90
31
  70
1
 10
82.13884568987342
 20
2.4214579028215777
 30
0.0
 10
82.65588127346257
 20
2.497807075247146
 30
0.0
 10
83.17749227457581
 20
2.4649900926762625
 30
0.0
 10
83.68088178949726
 20
2.3244412147206295
 30
0.0
 10
84.14404928089392
 20
2.0823031017752487
 30
0.0
 10
84.54675210686757
 20
1.749158351283415
 30
0.0
 10
84.87139022154061
 20
1.3395669874474927
 30
0.0
 10
85.10377538151529
 20
0.8714301183045386
 30
0.0
 10
85.23375124019303
 20
0.365207571406029
 30
0.0
 10
85.25563722885624
 20
-0.15697629882328426
 30
0.0
 10
85.16847682477972
 20
-0.6722995515381636
 30
0.0
 10
84.9760793558636
 20
-1.1582400877996544
 30
0.0
 10
84.68685351472504
 20
-1.593559974371724
 30
0.0
 10
84.31343985848135
 20
-1.9592336433145994
 30
0.0
 10
83.87215835574789
 20
-2.239279400598532
 30
0.0
 10
83.38229512569771
 20
-2.4214579028215777
 30
0.0
 10
82.86525954210856
 20
-2.497807075247146
 30
0.0
 10
82.3436485409953
 20
-2.4649900926762625
 30
0.0
 10
81.84025902607387
 20
-2.3244412147206295
 30
0.0
 10
81.3770915346772
 20
-2.0823031017752487
 30
0.0
 10
80.97438870870356
 20
-1.7491583512834137
 30
0.0
 10
80.64975059403052
 20
-1.3395669874474923
 30
0.0
 10
80.41736543405584
 20
-0.871430118304539
 30
0.0
 10
80.2873895753781
 20
-0.3652075714060298
 30
0.0
 10
80.26550358671489
 20
0.15697629882328232
 30
0.0
 10
80.35266399079141
 20
0.6722995515381633
 30
0.0
 10
80.54506145970753
 20
1.1582400877996537
 30
0.0
 10
80.83428730084609
 20
1.5935599743717235
 30
0.0
 10
81.20770095708978
 20
1.959233643314599
 30
0.0
 10
81.64898245982324
 20
2.239279400598532
 30
0.0
 10
82.13884568987342
 20
2.4214579028215777
 30
0.0
  0
ENDSEC
  0
EOF
