<?xml version="1.0" standalone="no"?>
<!DOCTYPE svg PUBLIC "-//W3C//DTD SVG 1.1//EN" "http://www.w3.org/Graphics/SVG/1.1/DTD/svg11.dtd">
<svg width="120" height="115" viewBox="-60 -40 120 115" xmlns="http://www.w3.org/2000/svg" version="1.1">
<title>OpenSCAD Model</title>
<path d="
M -41.5,-0 L -34.5,-0 L -34.5,-20 L 34.5,-20 L 34.5,-0 L 41.5,-0
 L 41.5,3 L 47.5,3 L 47.5,-0 L 54.5,-0 L 54.5,-20 L 29.5,-40
 L -29.5,-40 L -54.5,-20 L -54.5,-0 L -47.5,-0 L -47.5,3 L -41.5,3
 z
M -29.5,35 L -24.96,25 L -18.15,25 L -18.15,20 L -17.5866,18.266 L -16.1116,17.1944
 L -14.2884,17.1944 L -12.8134,18.266 L -12.25,20 L -12.25,25 L -8.94724,25 L -8.94724,22.0269
 L -8.52887,20.1263 L -7.7117,18.36 L -6.53395,16.8107 L -5.05067,15.5508 L -3.33124,14.6392 L -1.45602,14.1186
 L 0.487244,14.0132 L 2.40775,14.328 L 4.21567,15.0484 L 5.82646,16.1405 L 7.16483,17.5534 L 8.16817,19.221
 L 8.78958,21.0653 L 9,23 L 9,25 L 12.25,25 L 12.25,20 L 12.8134,18.266
 L 14.2884,17.1944 L 16.1116,17.1944 L 17.5866,18.266 L 18.15,20 L 18.15,25 L 24.96,25
 L 29.5,35 L 29.5,75 L 59.5,75 L 59.5,35 L 39.5,35 L 29.5,10
 L 29.5,-10 L -29.5,-10 L -29.5,10 L -39.5,35 L -59.5,35 L -59.5,75
 L -29.5,75 z
M -50.5,44.5 L -50.5,41.5 L -44.5,41.5 L -44.5,44.5 z
M 44.5,44.5 L 44.5,41.5 L 50.5,41.5 L 50.5,44.5 z
M -36,53 L -36,47 L -33,47 L -33,53 z
M 33,53 L 33,47 L 36,47 L 36,53 z
M -50.5,58.5 L -50.5,55.5 L -44.5,55.5 L -44.5,58.5 z
M 44.5,58.5 L 44.5,55.5 L 50.5,55.5 L 50.5,58.5 z
M -47.5,71.5 L -47.5,68.5 L -41.5,68.5 L -41.5,71.5 z
M 41.5,71.5 L 41.5,68.5 L 47.5,68.5 L 47.5,71.5 z
" stroke="black" fill="none" stroke-width="0.5"/></svg>
