<?xml version="1.0" standalone="no"?>
<!DOCTYPE svg PUBLIC "-//W3C//DTD SVG 1.1//EN" "http://www.w3.org/Graphics/SVG/1.1/DTD/svg11.dtd">
<svg width="287" height="187" viewBox="3 -182 287 187" xmlns="http://www.w3.org/2000/svg" version="1.1">
<title>OpenSCAD Model</title>
<path d="
M 141.841,-90.3511 L 142.939,-90.9549 L 143.853,-91.8129 L 144.524,-92.8711 L 144.911,-94.0631 L 144.99,-95.3139
 L 144.99,-147.314 L 144.755,-148.545 L 144.222,-149.679 L 143.423,-150.645 L 142.409,-151.382 L 77.4088,-181.382
 L 76.2435,-181.843 L 75,-182 L 8,-182 L 6.75656,-181.843 L 5.59123,-181.382 L 4.57727,-180.645
 L 3.77837,-179.679 L 3.24472,-178.545 L 3.00987,-177.314 L 3.08858,-176.063 L 3.47588,-174.871 L 4.14745,-173.813
 L 5.06108,-172.955 L 6.15938,-172.351 L 7.37334,-172.039 L 73.8347,-172.039 L 135.01,-143.805 L 135.01,-100
 L 8,-100 L 6.75656,-99.8429 L 5.59123,-99.3815 L 4.57727,-98.6448 L 3.77837,-97.6791 L 3.24472,-96.5451
 L 3.00987,-95.3139 L 3.08858,-94.0631 L 3.47588,-92.8711 L 4.14745,-91.8129 L 5.06108,-90.9549 L 6.15938,-90.3511
 L 7.37334,-90.0394 L 140.627,-90.0394 z
M 7.81201,-175.512 L 7.44781,-175.605 L 7.11833,-175.786 L 6.84424,-176.044 L 6.64276,-176.361 L 6.52658,-176.719
 L 6.50296,-177.094 L 6.57343,-177.464 L 6.73352,-177.804 L 6.97319,-178.093 L 7.27737,-178.314 L 7.62697,-178.453
 L 8,-178.5 L 8.37305,-178.453 L 8.72264,-178.314 L 9.02682,-178.093 L 9.26649,-177.804 L 9.42659,-177.464
 L 9.49706,-177.094 L 9.47343,-176.719 L 9.35725,-176.361 L 9.15578,-176.044 L 8.88168,-175.786 L 8.5522,-175.605
 L 8.188,-175.512 z
M 74.812,-175.512 L 74.4478,-175.605 L 74.1183,-175.786 L 73.8442,-176.044 L 73.6428,-176.361 L 73.5266,-176.719
 L 73.503,-177.094 L 73.5734,-177.464 L 73.7335,-177.804 L 73.9732,-178.093 L 74.2774,-178.314 L 74.627,-178.453
 L 75,-178.5 L 75.373,-178.453 L 75.7226,-178.314 L 76.0268,-178.093 L 76.2665,-177.804 L 76.4266,-177.464
 L 76.4971,-177.094 L 76.4734,-176.719 L 76.3573,-176.361 L 76.1558,-176.044 L 75.8817,-175.786 L 75.5522,-175.605
 L 75.188,-175.512 z
M 139.812,-145.512 L 139.448,-145.605 L 139.118,-145.786 L 138.844,-146.044 L 138.643,-146.361 L 138.527,-146.719
 L 138.503,-147.094 L 138.573,-147.464 L 138.734,-147.804 L 138.973,-148.093 L 139.277,-148.314 L 139.627,-148.453
 L 140,-148.5 L 140.373,-148.453 L 140.723,-148.314 L 141.027,-148.093 L 141.266,-147.804 L 141.427,-147.464
 L 141.497,-147.094 L 141.473,-146.719 L 141.357,-146.361 L 141.156,-146.044 L 140.882,-145.786 L 140.552,-145.605
 L 140.188,-145.512 z
M 139.812,-93.5118 L 139.448,-93.6053 L 139.118,-93.7865 L 138.844,-94.0439 L 138.643,-94.3613 L 138.527,-94.7189
 L 138.503,-95.0942 L 138.573,-95.4635 L 138.734,-95.8037 L 138.973,-96.0934 L 139.277,-96.3145 L 139.627,-96.4529
 L 140,-96.5 L 140.373,-96.4529 L 140.723,-96.3145 L 141.027,-96.0934 L 141.266,-95.8037 L 141.427,-95.4635
 L 141.497,-95.0942 L 141.473,-94.7189 L 141.357,-94.3613 L 141.156,-94.0439 L 140.882,-93.7865 L 140.552,-93.6053
 L 140.188,-93.5118 z
M 7.81201,-93.5118 L 7.44781,-93.6053 L 7.11833,-93.7865 L 6.84424,-94.0439 L 6.64276,-94.3613 L 6.52658,-94.7189
 L 6.50296,-95.0942 L 6.57343,-95.4635 L 6.73352,-95.8037 L 6.97319,-96.0934 L 7.27737,-96.3145 L 7.62697,-96.4529
 L 8,-96.5 L 8.37305,-96.4529 L 8.72264,-96.3145 L 9.02682,-96.0934 L 9.26649,-95.8037 L 9.42659,-95.4635
 L 9.49706,-95.0942 L 9.47343,-94.7189 L 9.35725,-94.3613 L 9.15578,-94.0439 L 8.88168,-93.7865 L 8.5522,-93.6053
 L 8.188,-93.5118 z
M 286.841,-90.3511 L 287.939,-90.9549 L 288.853,-91.8129 L 289.524,-92.8711 L 289.911,-94.0631 L 289.99,-95.3139
 L 289.99,-147.314 L 289.755,-148.545 L 289.222,-149.679 L 288.423,-150.645 L 287.409,-151.382 L 222.409,-181.382
 L 221.243,-181.843 L 220,-182 L 153,-182 L 151.757,-181.843 L 150.591,-181.382 L 149.577,-180.645
 L 148.778,-179.679 L 148.245,-178.545 L 148.01,-177.314 L 148.089,-176.063 L 148.476,-174.871 L 149.147,-173.813
 L 150.061,-172.955 L 151.159,-172.351 L 152.373,-172.039 L 218.835,-172.039 L 280.01,-143.805 L 280.01,-100
 L 153,-100 L 151.757,-99.8429 L 150.591,-99.3815 L 149.577,-98.6448 L 148.778,-97.6791 L 148.245,-96.5451
 L 148.01,-95.3139 L 148.089,-94.0631 L 148.476,-92.8711 L 149.147,-91.8129 L 150.061,-90.9549 L 151.159,-90.3511
 L 152.373,-90.0394 L 285.627,-90.0394 z
M 219.812,-175.512 L 219.448,-175.605 L 219.118,-175.786 L 218.844,-176.044 L 218.643,-176.361 L 218.527,-176.719
 L 218.503,-177.094 L 218.573,-177.464 L 218.734,-177.804 L 218.973,-178.093 L 219.277,-178.314 L 219.627,-178.453
 L 220,-178.5 L 220.373,-178.453 L 220.723,-178.314 L 221.027,-178.093 L 221.266,-177.804 L 221.427,-177.464
 L 221.497,-177.094 L 221.473,-176.719 L 221.357,-176.361 L 221.156,-176.044 L 220.882,-175.786 L 220.552,-175.605
 L 220.188,-175.512 z
M 152.812,-175.512 L 152.448,-175.605 L 152.118,-175.786 L 151.844,-176.044 L 151.643,-176.361 L 151.527,-176.719
 L 151.503,-177.094 L 151.573,-177.464 L 151.734,-177.804 L 151.973,-178.093 L 152.277,-178.314 L 152.627,-178.453
 L 153,-178.5 L 153.373,-178.453 L 153.723,-178.314 L 154.027,-178.093 L 154.266,-177.804 L 154.427,-177.464
 L 154.497,-177.094 L 154.473,-176.719 L 154.357,-176.361 L 154.156,-176.044 L 153.882,-175.786 L 153.552,-175.605
 L 153.188,-175.512 z
M 284.812,-145.512 L 284.448,-145.605 L 284.118,-145.786 L 283.844,-146.044 L 283.643,-146.361 L 283.527,-146.719
 L 283.503,-147.094 L 283.573,-147.464 L 283.734,-147.804 L 283.973,-148.093 L 284.277,-148.314 L 284.627,-148.453
 L 285,-148.5 L 285.373,-148.453 L 285.723,-148.314 L 286.027,-148.093 L 286.266,-147.804 L 286.427,-147.464
 L 286.497,-147.094 L 286.473,-146.719 L 286.357,-146.361 L 286.156,-146.044 L 285.882,-145.786 L 285.552,-145.605
 L 285.188,-145.512 z
M 152.812,-93.5118 L 152.448,-93.6053 L 152.118,-93.7865 L 151.844,-94.0439 L 151.643,-94.3613 L 151.527,-94.7189
 L 151.503,-95.0942 L 151.573,-95.4635 L 151.734,-95.8037 L 151.973,-96.0934 L 152.277,-96.3145 L 152.627,-96.4529
 L 153,-96.5 L 153.373,-96.4529 L 153.723,-96.3145 L 154.027,-96.0934 L 154.266,-95.8037 L 154.427,-95.4635
 L 154.497,-95.0942 L 154.473,-94.7189 L 154.357,-94.3613 L 154.156,-94.0439 L 153.882,-93.7865 L 153.552,-93.6053
 L 153.188,-93.5118 z
M 284.812,-93.5118 L 284.448,-93.6053 L 284.118,-93.7865 L 283.844,-94.0439 L 283.643,-94.3613 L 283.527,-94.7189
 L 283.503,-95.0942 L 283.573,-95.4635 L 283.734,-95.8037 L 283.973,-96.0934 L 284.277,-96.3145 L 284.627,-96.4529
 L 285,-96.5 L 285.373,-96.4529 L 285.723,-96.3145 L 286.027,-96.0934 L 286.266,-95.8037 L 286.427,-95.4635
 L 286.497,-95.0942 L 286.473,-94.7189 L 286.357,-94.3613 L 286.156,-94.0439 L 285.882,-93.7865 L 285.552,-93.6053
 L 285.188,-93.5118 z
M 166.7,-124.769 L 167.947,-125.356 L 169.009,-126.235 L 169.82,-127.35 L 170.327,-128.632 L 170.5,-130
 L 170.5,-159 L 170.327,-160.368 L 169.82,-161.65 L 169.009,-162.765 L 167.947,-163.644 L 166.7,-164.231
 L 165.345,-164.489 L 163.969,-164.403 L 162.658,-163.977 L 161.494,-163.238 L 160.55,-162.233 L 159.886,-161.025
 L 159.543,-159.689 L 159.543,-129.311 L 159.886,-127.975 L 160.55,-126.767 L 161.494,-125.762 L 162.658,-125.023
 L 163.969,-124.597 L 165.345,-124.511 z
M 164.719,-157.527 L 164.361,-157.643 L 164.044,-157.844 L 163.786,-158.118 L 163.605,-158.448 L 163.512,-158.812
 L 163.512,-159.188 L 163.605,-159.552 L 163.786,-159.882 L 164.044,-160.156 L 164.361,-160.357 L 164.719,-160.473
 L 165.094,-160.497 L 165.464,-160.427 L 165.804,-160.266 L 166.093,-160.027 L 166.314,-159.723 L 166.453,-159.373
 L 166.5,-159 L 166.453,-158.627 L 166.314,-158.277 L 166.093,-157.973 L 165.804,-157.734 L 165.464,-157.573
 L 165.094,-157.503 z
M 164.719,-128.527 L 164.361,-128.643 L 164.044,-128.844 L 163.786,-129.118 L 163.605,-129.448 L 163.512,-129.812
 L 163.512,-130.188 L 163.605,-130.552 L 163.786,-130.882 L 164.044,-131.156 L 164.361,-131.357 L 164.719,-131.473
 L 165.094,-131.497 L 165.464,-131.427 L 165.804,-131.266 L 166.093,-131.027 L 166.314,-130.723 L 166.453,-130.373
 L 166.5,-130 L 166.453,-129.627 L 166.314,-129.277 L 166.093,-128.973 L 165.804,-128.734 L 165.464,-128.573
 L 165.094,-128.503 z
M 179.7,-124.769 L 180.947,-125.356 L 182.009,-126.235 L 182.82,-127.35 L 183.327,-128.632 L 183.5,-130
 L 183.5,-159 L 183.327,-160.368 L 182.82,-161.65 L 182.009,-162.765 L 180.947,-163.644 L 179.7,-164.231
 L 178.345,-164.489 L 176.969,-164.403 L 175.658,-163.977 L 174.494,-163.238 L 173.55,-162.233 L 172.886,-161.025
 L 172.543,-159.689 L 172.543,-129.311 L 172.886,-127.975 L 173.55,-126.767 L 174.494,-125.762 L 175.658,-125.023
 L 176.969,-124.597 L 178.345,-124.511 z
M 177.719,-157.527 L 177.361,-157.643 L 177.044,-157.844 L 176.786,-158.118 L 176.605,-158.448 L 176.512,-158.812
 L 176.512,-159.188 L 176.605,-159.552 L 176.786,-159.882 L 177.044,-160.156 L 177.361,-160.357 L 177.719,-160.473
 L 178.094,-160.497 L 178.464,-160.427 L 178.804,-160.266 L 179.093,-160.027 L 179.314,-159.723 L 179.453,-159.373
 L 179.5,-159 L 179.453,-158.627 L 179.314,-158.277 L 179.093,-157.973 L 178.804,-157.734 L 178.464,-157.573
 L 178.094,-157.503 z
M 177.719,-128.527 L 177.361,-128.643 L 177.044,-128.844 L 176.786,-129.118 L 176.605,-129.448 L 176.512,-129.812
 L 176.512,-130.188 L 176.605,-130.552 L 176.786,-130.882 L 177.044,-131.156 L 177.361,-131.357 L 177.719,-131.473
 L 178.094,-131.497 L 178.464,-131.427 L 178.804,-131.266 L 179.093,-131.027 L 179.314,-130.723 L 179.453,-130.373
 L 179.5,-130 L 179.453,-129.627 L 179.314,-129.277 L 179.093,-128.973 L 178.804,-128.734 L 178.464,-128.573
 L 178.094,-128.503 z
M 206.7,-124.769 L 207.947,-125.356 L 209.009,-126.235 L 209.82,-127.35 L 210.327,-128.632 L 210.5,-130
 L 210.5,-159 L 210.327,-160.368 L 209.82,-161.65 L 209.009,-162.765 L 207.947,-163.644 L 206.7,-164.231
 L 205.345,-164.489 L 203.969,-164.403 L 202.658,-163.977 L 201.494,-163.238 L 200.55,-162.233 L 199.886,-161.025
 L 199.543,-159.689 L 199.543,-129.311 L 199.886,-127.975 L 200.55,-126.767 L 201.494,-125.762 L 202.658,-125.023
 L 203.969,-124.597 L 205.345,-124.511 z
M 204.719,-157.527 L 204.361,-157.643 L 204.044,-157.844 L 203.786,-158.118 L 203.605,-158.448 L 203.512,-158.812
 L 203.512,-159.188 L 203.605,-159.552 L 203.786,-159.882 L 204.044,-160.156 L 204.361,-160.357 L 204.719,-160.473
 L 205.094,-160.497 L 205.464,-160.427 L 205.804,-160.266 L 206.093,-160.027 L 206.314,-159.723 L 206.453,-159.373
 L 206.5,-159 L 206.453,-158.627 L 206.314,-158.277 L 206.093,-157.973 L 205.804,-157.734 L 205.464,-157.573
 L 205.094,-157.503 z
M 204.719,-128.527 L 204.361,-128.643 L 204.044,-128.844 L 203.786,-129.118 L 203.605,-129.448 L 203.512,-129.812
 L 203.512,-130.188 L 203.605,-130.552 L 203.786,-130.882 L 204.044,-131.156 L 204.361,-131.357 L 204.719,-131.473
 L 205.094,-131.497 L 205.464,-131.427 L 205.804,-131.266 L 206.093,-131.027 L 206.314,-130.723 L 206.453,-130.373
 L 206.5,-130 L 206.453,-129.627 L 206.314,-129.277 L 206.093,-128.973 L 205.804,-128.734 L 205.464,-128.573
 L 205.094,-128.503 z
M 191.7,-124.769 L 192.947,-125.356 L 194.009,-126.235 L 194.82,-127.35 L 195.327,-128.632 L 195.5,-130
 L 195.5,-159 L 195.327,-160.368 L 194.82,-161.65 L 194.009,-162.765 L 192.947,-163.644 L 191.7,-164.231
 L 190.345,-164.489 L 188.969,-164.403 L 187.658,-163.977 L 186.494,-163.238 L 185.55,-162.233 L 184.886,-161.025
 L 184.543,-159.689 L 184.543,-129.311 L 184.886,-127.975 L 185.55,-126.767 L 186.494,-125.762 L 187.658,-125.023
 L 188.969,-124.597 L 190.345,-124.511 z
M 189.719,-157.527 L 189.361,-157.643 L 189.044,-157.844 L 188.786,-158.118 L 188.605,-158.448 L 188.512,-158.812
 L 188.512,-159.188 L 188.605,-159.552 L 188.786,-159.882 L 189.044,-160.156 L 189.361,-160.357 L 189.719,-160.473
 L 190.094,-160.497 L 190.464,-160.427 L 190.804,-160.266 L 191.093,-160.027 L 191.314,-159.723 L 191.453,-159.373
 L 191.5,-159 L 191.453,-158.627 L 191.314,-158.277 L 191.093,-157.973 L 190.804,-157.734 L 190.464,-157.573
 L 190.094,-157.503 z
M 189.719,-128.527 L 189.361,-128.643 L 189.044,-128.844 L 188.786,-129.118 L 188.605,-129.448 L 188.512,-129.812
 L 188.512,-130.188 L 188.605,-130.552 L 188.786,-130.882 L 189.044,-131.156 L 189.361,-131.357 L 189.719,-131.473
 L 190.094,-131.497 L 190.464,-131.427 L 190.804,-131.266 L 191.093,-131.027 L 191.314,-130.723 L 191.453,-130.373
 L 191.5,-130 L 191.453,-129.627 L 191.314,-129.277 L 191.093,-128.973 L 190.804,-128.734 L 190.464,-128.573
 L 190.094,-128.503 z
M 43.8406,-102.351 L 44.9389,-102.955 L 45.8526,-103.813 L 46.5241,-104.871 L 46.9114,-106.063 L 46.9901,-107.314
 L 46.9901,-153.314 L 46.7553,-154.545 L 46.2216,-155.679 L 45.4227,-156.645 L 44.4088,-157.382 L 43.2434,-157.843
 L 42,-158 L 18,-158 L 16.7566,-157.843 L 15.5912,-157.382 L 14.5773,-156.645 L 13.7784,-155.679
 L 13.2447,-154.545 L 13.0099,-153.314 L 13.0099,-107.314 L 13.0886,-106.063 L 13.4759,-104.871 L 14.1474,-103.813
 L 15.0611,-102.955 L 16.1594,-102.351 L 17.3733,-102.039 L 42.6267,-102.039 z
M 17.812,-151.512 L 17.4478,-151.605 L 17.1183,-151.786 L 16.8442,-152.044 L 16.6428,-152.361 L 16.5266,-152.719
 L 16.503,-153.094 L 16.5734,-153.464 L 16.7335,-153.804 L 16.9732,-154.093 L 17.2774,-154.314 L 17.627,-154.453
 L 18,-154.5 L 18.373,-154.453 L 18.7226,-154.314 L 19.0268,-154.093 L 19.2665,-153.804 L 19.4266,-153.464
 L 19.4971,-153.094 L 19.4734,-152.719 L 19.3573,-152.361 L 19.1558,-152.044 L 18.8817,-151.786 L 18.5522,-151.605
 L 18.188,-151.512 z
M 41.812,-151.512 L 41.4478,-151.605 L 41.1183,-151.786 L 40.8442,-152.044 L 40.6427,-152.361 L 40.5266,-152.719
 L 40.5029,-153.094 L 40.5734,-153.464 L 40.7335,-153.804 L 40.9732,-154.093 L 41.2774,-154.314 L 41.627,-154.453
 L 42,-154.5 L 42.373,-154.453 L 42.7226,-154.314 L 43.0268,-154.093 L 43.2665,-153.804 L 43.4266,-153.464
 L 43.497,-153.094 L 43.4734,-152.719 L 43.3572,-152.361 L 43.1558,-152.044 L 42.8817,-151.786 L 42.5522,-151.605
 L 42.188,-151.512 z
M 29.5613,-139.028 L 28.7116,-139.246 L 27.9428,-139.668 L 27.3032,-140.269 L 26.8331,-141.01 L 26.562,-141.844
 L 26.5069,-142.72 L 26.6713,-143.582 L 27.0449,-144.375 L 27.6041,-145.051 L 28.3139,-145.567 L 29.1296,-145.89
 L 30,-146 L 30.8704,-145.89 L 31.6861,-145.567 L 32.3959,-145.051 L 32.9551,-144.375 L 33.3287,-143.582
 L 33.4931,-142.72 L 33.438,-141.844 L 33.1669,-141.01 L 32.6968,-140.269 L 32.0572,-139.668 L 31.2884,-139.246
 L 30.4387,-139.028 z
M 29.5613,-114.028 L 28.7116,-114.246 L 27.9428,-114.668 L 27.3032,-115.269 L 26.8331,-116.01 L 26.562,-116.844
 L 26.5069,-117.72 L 26.6713,-118.582 L 27.0449,-119.375 L 27.6041,-120.051 L 28.3139,-120.567 L 29.1296,-120.89
 L 30,-121 L 30.8704,-120.89 L 31.6861,-120.567 L 32.3959,-120.051 L 32.9551,-119.375 L 33.3287,-118.582
 L 33.4931,-117.72 L 33.438,-116.844 L 33.1669,-116.01 L 32.6968,-115.269 L 32.0572,-114.668 L 31.2884,-114.246
 L 30.4387,-114.028 z
M 17.812,-105.512 L 17.4478,-105.605 L 17.1183,-105.786 L 16.8442,-106.044 L 16.6428,-106.361 L 16.5266,-106.719
 L 16.503,-107.094 L 16.5734,-107.464 L 16.7335,-107.804 L 16.9732,-108.093 L 17.2774,-108.314 L 17.627,-108.453
 L 18,-108.5 L 18.373,-108.453 L 18.7226,-108.314 L 19.0268,-108.093 L 19.2665,-107.804 L 19.4266,-107.464
 L 19.4971,-107.094 L 19.4734,-106.719 L 19.3573,-106.361 L 19.1558,-106.044 L 18.8817,-105.786 L 18.5522,-105.605
 L 18.188,-105.512 z
M 41.812,-105.512 L 41.4478,-105.605 L 41.1183,-105.786 L 40.8442,-106.044 L 40.6427,-106.361 L 40.5266,-106.719
 L 40.5029,-107.094 L 40.5734,-107.464 L 40.7335,-107.804 L 40.9732,-108.093 L 41.2774,-108.314 L 41.627,-108.453
 L 42,-108.5 L 42.373,-108.453 L 42.7226,-108.314 L 43.0268,-108.093 L 43.2665,-107.804 L 43.4266,-107.464
 L 43.497,-107.094 L 43.4734,-106.719 L 43.3572,-106.361 L 43.1558,-106.044 L 42.8817,-105.786 L 42.5522,-105.605
 L 42.188,-105.512 z
M 83.8406,-102.351 L 84.9389,-102.955 L 85.8526,-103.813 L 86.5241,-104.871 L 86.9114,-106.063 L 86.9901,-107.314
 L 86.9901,-153.314 L 86.7553,-154.545 L 86.2216,-155.679 L 85.4227,-156.645 L 84.4088,-157.382 L 83.2434,-157.843
 L 82,-158 L 58,-158 L 56.7566,-157.843 L 55.5912,-157.382 L 54.5773,-156.645 L 53.7784,-155.679
 L 53.2447,-154.545 L 53.0099,-153.314 L 53.0099,-107.314 L 53.0886,-106.063 L 53.4759,-104.871 L 54.1474,-103.813
 L 55.0611,-102.955 L 56.1594,-102.351 L 57.3733,-102.039 L 82.6267,-102.039 z
M 81.812,-151.512 L 81.4478,-151.605 L 81.1183,-151.786 L 80.8442,-152.044 L 80.6427,-152.361 L 80.5266,-152.719
 L 80.5029,-153.094 L 80.5734,-153.464 L 80.7335,-153.804 L 80.9732,-154.093 L 81.2774,-154.314 L 81.627,-154.453
 L 82,-154.5 L 82.373,-154.453 L 82.7226,-154.314 L 83.0268,-154.093 L 83.2665,-153.804 L 83.4266,-153.464
 L 83.497,-153.094 L 83.4734,-152.719 L 83.3572,-152.361 L 83.1558,-152.044 L 82.8817,-151.786 L 82.5522,-151.605
 L 82.188,-151.512 z
M 57.812,-151.512 L 57.4478,-151.605 L 57.1183,-151.786 L 56.8442,-152.044 L 56.6428,-152.361 L 56.5266,-152.719
 L 56.503,-153.094 L 56.5734,-153.464 L 56.7335,-153.804 L 56.9732,-154.093 L 57.2774,-154.314 L 57.627,-154.453
 L 58,-154.5 L 58.373,-154.453 L 58.7226,-154.314 L 59.0268,-154.093 L 59.2665,-153.804 L 59.4266,-153.464
 L 59.4971,-153.094 L 59.4734,-152.719 L 59.3573,-152.361 L 59.1558,-152.044 L 58.8817,-151.786 L 58.5522,-151.605
 L 58.188,-151.512 z
M 64.4444,-109.111 L 63.2305,-109.422 L 62.1322,-110.026 L 61.2185,-110.884 L 60.5469,-111.942 L 60.1596,-113.134
 L 60.0809,-114.385 L 60.0809,-146.243 L 60.3158,-147.474 L 60.8494,-148.608 L 61.6483,-149.574 L 62.6623,-150.31
 L 63.8276,-150.772 L 65.0711,-150.929 L 74.9289,-150.929 L 76.1724,-150.772 L 77.3377,-150.31 L 78.3517,-149.574
 L 79.1506,-148.608 L 79.6842,-147.474 L 79.9191,-146.243 L 79.9191,-114.385 L 79.8404,-113.134 L 79.4531,-111.942
 L 78.7815,-110.884 L 77.8678,-110.026 L 76.7695,-109.422 L 75.5556,-109.111 z
M 57.812,-105.512 L 57.4478,-105.605 L 57.1183,-105.786 L 56.8442,-106.044 L 56.6428,-106.361 L 56.5266,-106.719
 L 56.503,-107.094 L 56.5734,-107.464 L 56.7335,-107.804 L 56.9732,-108.093 L 57.2774,-108.314 L 57.627,-108.453
 L 58,-108.5 L 58.373,-108.453 L 58.7226,-108.314 L 59.0268,-108.093 L 59.2665,-107.804 L 59.4266,-107.464
 L 59.4971,-107.094 L 59.4734,-106.719 L 59.3573,-106.361 L 59.1558,-106.044 L 58.8817,-105.786 L 58.5522,-105.605
 L 58.188,-105.512 z
M 81.812,-105.512 L 81.4478,-105.605 L 81.1183,-105.786 L 80.8442,-106.044 L 80.6427,-106.361 L 80.5266,-106.719
 L 80.5029,-107.094 L 80.5734,-107.464 L 80.7335,-107.804 L 80.9732,-108.093 L 81.2774,-108.314 L 81.627,-108.453
 L 82,-108.5 L 82.373,-108.453 L 82.7226,-108.314 L 83.0268,-108.093 L 83.2665,-107.804 L 83.4266,-107.464
 L 83.497,-107.094 L 83.4734,-106.719 L 83.3572,-106.361 L 83.1558,-106.044 L 82.8817,-105.786 L 82.5522,-105.605
 L 82.188,-105.512 z
M 219.7,-124.769 L 220.947,-125.356 L 222.009,-126.235 L 222.82,-127.35 L 223.327,-128.632 L 223.5,-130
 L 223.5,-146 L 223.327,-147.368 L 222.82,-148.65 L 222.009,-149.765 L 220.947,-150.644 L 219.7,-151.231
 L 218.345,-151.489 L 216.969,-151.403 L 215.658,-150.977 L 214.494,-150.238 L 213.55,-149.233 L 212.886,-148.025
 L 212.543,-146.689 L 212.543,-129.311 L 212.886,-127.975 L 213.55,-126.767 L 214.494,-125.762 L 215.658,-125.023
 L 216.969,-124.597 L 218.345,-124.511 z
M 217.719,-144.527 L 217.361,-144.643 L 217.044,-144.844 L 216.786,-145.118 L 216.605,-145.448 L 216.512,-145.812
 L 216.512,-146.188 L 216.605,-146.552 L 216.786,-146.882 L 217.044,-147.156 L 217.361,-147.357 L 217.719,-147.473
 L 218.094,-147.497 L 218.464,-147.427 L 218.804,-147.266 L 219.093,-147.027 L 219.314,-146.723 L 219.453,-146.373
 L 219.5,-146 L 219.453,-145.627 L 219.314,-145.277 L 219.093,-144.973 L 218.804,-144.734 L 218.464,-144.573
 L 218.094,-144.503 z
M 217.719,-128.527 L 217.361,-128.643 L 217.044,-128.844 L 216.786,-129.118 L 216.605,-129.448 L 216.512,-129.812
 L 216.512,-130.188 L 216.605,-130.552 L 216.786,-130.882 L 217.044,-131.156 L 217.361,-131.357 L 217.719,-131.473
 L 218.094,-131.497 L 218.464,-131.427 L 218.804,-131.266 L 219.093,-131.027 L 219.314,-130.723 L 219.453,-130.373
 L 219.5,-130 L 219.453,-129.627 L 219.314,-129.277 L 219.093,-128.973 L 218.804,-128.734 L 218.464,-128.573
 L 218.094,-128.503 z
M 231.7,-124.769 L 232.947,-125.356 L 234.009,-126.235 L 234.82,-127.35 L 235.327,-128.632 L 235.5,-130
 L 235.5,-146 L 235.327,-147.368 L 234.82,-148.65 L 234.009,-149.765 L 232.947,-150.644 L 231.7,-151.231
 L 230.345,-151.489 L 228.969,-151.403 L 227.658,-150.977 L 226.494,-150.238 L 225.55,-149.233 L 224.886,-148.025
 L 224.543,-146.689 L 224.543,-129.311 L 224.886,-127.975 L 225.55,-126.767 L 226.494,-125.762 L 227.658,-125.023
 L 228.969,-124.597 L 230.345,-124.511 z
M 229.719,-144.527 L 229.361,-144.643 L 229.044,-144.844 L 228.786,-145.118 L 228.605,-145.448 L 228.512,-145.812
 L 228.512,-146.188 L 228.605,-146.552 L 228.786,-146.882 L 229.044,-147.156 L 229.361,-147.357 L 229.719,-147.473
 L 230.094,-147.497 L 230.464,-147.427 L 230.804,-147.266 L 231.093,-147.027 L 231.314,-146.723 L 231.453,-146.373
 L 231.5,-146 L 231.453,-145.627 L 231.314,-145.277 L 231.093,-144.973 L 230.804,-144.734 L 230.464,-144.573
 L 230.094,-144.503 z
M 229.719,-128.527 L 229.361,-128.643 L 229.044,-128.844 L 228.786,-129.118 L 228.605,-129.448 L 228.512,-129.812
 L 228.512,-130.188 L 228.605,-130.552 L 228.786,-130.882 L 229.044,-131.156 L 229.361,-131.357 L 229.719,-131.473
 L 230.094,-131.497 L 230.464,-131.427 L 230.804,-131.266 L 231.093,-131.027 L 231.314,-130.723 L 231.453,-130.373
 L 231.5,-130 L 231.453,-129.627 L 231.314,-129.277 L 231.093,-128.973 L 230.804,-128.734 L 230.464,-128.573
 L 230.094,-128.503 z
M 246.7,-124.769 L 247.947,-125.356 L 249.009,-126.235 L 249.82,-127.35 L 250.327,-128.632 L 250.5,-130
 L 250.5,-146 L 250.327,-147.368 L 249.82,-148.65 L 249.009,-149.765 L 247.947,-150.644 L 246.7,-151.231
 L 245.345,-151.489 L 243.969,-151.403 L 242.658,-150.977 L 241.494,-150.238 L 240.55,-149.233 L 239.886,-148.025
 L 239.543,-146.689 L 239.543,-129.311 L 239.886,-127.975 L 240.55,-126.767 L 241.494,-125.762 L 242.658,-125.023
 L 243.969,-124.597 L 245.345,-124.511 z
M 244.719,-144.527 L 244.361,-144.643 L 244.044,-144.844 L 243.786,-145.118 L 243.605,-145.448 L 243.512,-145.812
 L 243.512,-146.188 L 243.605,-146.552 L 243.786,-146.882 L 244.044,-147.156 L 244.361,-147.357 L 244.719,-147.473
 L 245.094,-147.497 L 245.464,-147.427 L 245.804,-147.266 L 246.093,-147.027 L 246.314,-146.723 L 246.453,-146.373
 L 246.5,-146 L 246.453,-145.627 L 246.314,-145.277 L 246.093,-144.973 L 245.804,-144.734 L 245.464,-144.573
 L 245.094,-144.503 z
M 244.719,-128.527 L 244.361,-128.643 L 244.044,-128.844 L 243.786,-129.118 L 243.605,-129.448 L 243.512,-129.812
 L 243.512,-130.188 L 243.605,-130.552 L 243.786,-130.882 L 244.044,-131.156 L 244.361,-131.357 L 244.719,-131.473
 L 245.094,-131.497 L 245.464,-131.427 L 245.804,-131.266 L 246.093,-131.027 L 246.314,-130.723 L 246.453,-130.373
 L 246.5,-130 L 246.453,-129.627 L 246.314,-129.277 L 246.093,-128.973 L 245.804,-128.734 L 245.464,-128.573
 L 245.094,-128.503 z
M 141.841,4.64888 L 142.939,4.04507 L 143.853,3.18712 L 144.524,2.12889 L 144.911,0.936905 L 144.99,-0.313934
 L 144.99,-52.3139 L 144.755,-53.5451 L 144.222,-54.6791 L 143.423,-55.6448 L 142.409,-56.3815 L 77.4088,-86.3815
 L 76.2435,-86.8429 L 75,-87 L 8,-87 L 6.75656,-86.8429 L 5.59123,-86.3815 L 4.57727,-85.6448
 L 3.77837,-84.6791 L 3.24472,-83.5451 L 3.00987,-82.3139 L 3.00987,-0.31395 L 3.08858,0.93689 L 3.47588,2.12888
 L 4.14745,3.1871 L 5.06108,4.04506 L 6.15938,4.64886 L 7.37334,4.96056 L 140.627,4.96057 z
M 7.81201,-80.5118 L 7.44781,-80.6053 L 7.11833,-80.7865 L 6.84424,-81.0439 L 6.64276,-81.3613 L 6.52658,-81.7189
 L 6.50296,-82.0942 L 6.57343,-82.4635 L 6.73352,-82.8037 L 6.97319,-83.0934 L 7.27737,-83.3145 L 7.62697,-83.4529
 L 8,-83.5 L 8.37305,-83.4529 L 8.72264,-83.3145 L 9.02682,-83.0934 L 9.26649,-82.8037 L 9.42659,-82.4635
 L 9.49706,-82.0942 L 9.47343,-81.7189 L 9.35725,-81.3613 L 9.15578,-81.0439 L 8.88168,-80.7865 L 8.5522,-80.6053
 L 8.188,-80.5118 z
M 74.812,-80.5118 L 74.4478,-80.6053 L 74.1183,-80.7865 L 73.8442,-81.0439 L 73.6428,-81.3613 L 73.5266,-81.7189
 L 73.503,-82.0942 L 73.5734,-82.4635 L 73.7335,-82.8037 L 73.9732,-83.0934 L 74.2774,-83.3145 L 74.627,-83.4529
 L 75,-83.5 L 75.373,-83.4529 L 75.7226,-83.3145 L 76.0268,-83.0934 L 76.2665,-82.8037 L 76.4266,-82.4635
 L 76.4971,-82.0942 L 76.4734,-81.7189 L 76.3573,-81.3613 L 76.1558,-81.0439 L 75.8817,-80.7865 L 75.5522,-80.6053
 L 75.188,-80.5118 z
M 39.9683,-68.7598 L 39.6649,-68.8378 L 39.3903,-68.9887 L 39.1619,-69.2032 L 38.994,-69.4678 L 38.8972,-69.7658
 L 38.8775,-70.0785 L 38.9362,-70.3863 L 39.0696,-70.6698 L 39.2693,-70.9112 L 39.5228,-71.0954 L 39.8141,-71.2107
 L 40.125,-71.25 L 40.4359,-71.2107 L 40.7272,-71.0954 L 40.9807,-70.9112 L 41.1804,-70.6698 L 41.3138,-70.3863
 L 41.3725,-70.0785 L 41.3529,-69.7658 L 41.256,-69.4678 L 41.0882,-69.2032 L 40.8597,-68.9887 L 40.5852,-68.8378
 L 40.2817,-68.7598 z
M 63.2183,-68.7598 L 62.9148,-68.8378 L 62.6403,-68.9887 L 62.4118,-69.2032 L 62.244,-69.4678 L 62.1471,-69.7658
 L 62.1275,-70.0785 L 62.1862,-70.3863 L 62.3196,-70.6698 L 62.5193,-70.9112 L 62.7728,-71.0954 L 63.0641,-71.2107
 L 63.375,-71.25 L 63.6859,-71.2107 L 63.9772,-71.0954 L 64.2307,-70.9112 L 64.4304,-70.6698 L 64.5638,-70.3863
 L 64.6225,-70.0785 L 64.6028,-69.7658 L 64.506,-69.4678 L 64.3381,-69.2032 L 64.1097,-68.9887 L 63.8351,-68.8378
 L 63.5317,-68.7598 z
M 139.812,-50.5118 L 139.448,-50.6053 L 139.118,-50.7865 L 138.844,-51.0439 L 138.643,-51.3613 L 138.527,-51.7189
 L 138.503,-52.0942 L 138.573,-52.4635 L 138.734,-52.8037 L 138.973,-53.0934 L 139.277,-53.3145 L 139.627,-53.4529
 L 140,-53.5 L 140.373,-53.4529 L 140.723,-53.3145 L 141.027,-53.0934 L 141.266,-52.8037 L 141.427,-52.4635
 L 141.497,-52.0942 L 141.473,-51.7189 L 141.357,-51.3613 L 141.156,-51.0439 L 140.882,-50.7865 L 140.552,-50.6053
 L 140.188,-50.5118 z
M 21.937,-39.5118 L 21.5728,-39.6053 L 21.2433,-39.7865 L 20.9692,-40.0439 L 20.7678,-40.3613 L 20.6516,-40.7189
 L 20.628,-41.0942 L 20.6984,-41.4635 L 20.8585,-41.8037 L 21.0982,-42.0934 L 21.4024,-42.3145 L 21.752,-42.4529
 L 22.125,-42.5 L 22.498,-42.4529 L 22.8476,-42.3145 L 23.1518,-42.0934 L 23.3915,-41.8037 L 23.5516,-41.4635
 L 23.6221,-41.0942 L 23.5984,-40.7189 L 23.4823,-40.3613 L 23.2808,-40.0439 L 23.0067,-39.7865 L 22.6772,-39.6053
 L 22.313,-39.5118 z
M 21.937,-10.5118 L 21.5728,-10.6053 L 21.2433,-10.7865 L 20.9692,-11.0439 L 20.7678,-11.3613 L 20.6516,-11.7189
 L 20.628,-12.0942 L 20.6984,-12.4635 L 20.8585,-12.8037 L 21.0982,-13.0935 L 21.4024,-13.3145 L 21.752,-13.4529
 L 22.125,-13.5 L 22.498,-13.4529 L 22.8476,-13.3145 L 23.1518,-13.0935 L 23.3915,-12.8037 L 23.5516,-12.4635
 L 23.6221,-12.0942 L 23.5984,-11.7189 L 23.4823,-11.3613 L 23.2808,-11.0439 L 23.0067,-10.7865 L 22.6772,-10.6053
 L 22.313,-10.5118 z
M 63.2183,-10.7599 L 62.9148,-10.8378 L 62.6403,-10.9887 L 62.4118,-11.2032 L 62.244,-11.4678 L 62.1471,-11.7658
 L 62.1275,-12.0785 L 62.1862,-12.3863 L 62.3196,-12.6698 L 62.5193,-12.9112 L 62.7728,-13.0954 L 63.0641,-13.2107
 L 63.375,-13.25 L 63.6859,-13.2107 L 63.9772,-13.0954 L 64.2307,-12.9112 L 64.4304,-12.6698 L 64.5638,-12.3863
 L 64.6225,-12.0785 L 64.6028,-11.7658 L 64.506,-11.4678 L 64.3381,-11.2032 L 64.1097,-10.9887 L 63.8351,-10.8378
 L 63.5317,-10.7599 z
M 39.9683,-10.7599 L 39.6649,-10.8378 L 39.3903,-10.9887 L 39.1619,-11.2032 L 38.994,-11.4678 L 38.8972,-11.7658
 L 38.8775,-12.0785 L 38.9362,-12.3863 L 39.0696,-12.6698 L 39.2693,-12.9112 L 39.5228,-13.0954 L 39.8141,-13.2107
 L 40.125,-13.25 L 40.4359,-13.2107 L 40.7272,-13.0954 L 40.9807,-12.9112 L 41.1804,-12.6698 L 41.3138,-12.3863
 L 41.3725,-12.0785 L 41.3529,-11.7658 L 41.256,-11.4678 L 41.0882,-11.2032 L 40.8597,-10.9887 L 40.5852,-10.8378
 L 40.2817,-10.7599 z
M 7.81201,1.48814 L 7.44781,1.39464 L 7.11833,1.2135 L 6.84424,0.956116 L 6.64276,0.638641 L 6.52658,0.281052
 L 6.50296,-0.0941772 L 6.57343,-0.463516 L 6.73352,-0.803726 L 6.97319,-1.09344 L 7.27737,-1.31445 L 7.62697,-1.45287
 L 8,-1.5 L 8.37305,-1.45287 L 8.72264,-1.31445 L 9.02682,-1.09344 L 9.26649,-0.803726 L 9.42659,-0.463516
 L 9.49706,-0.0941772 L 9.47343,0.281052 L 9.35725,0.638641 L 9.15578,0.956116 L 8.88168,1.2135 L 8.5522,1.39464
 L 8.188,1.48814 z
M 139.812,1.48816 L 139.448,1.39465 L 139.118,1.21352 L 138.844,0.956116 L 138.643,0.638641 L 138.527,0.281052
 L 138.503,-0.0941772 L 138.573,-0.463516 L 138.734,-0.803726 L 138.973,-1.09344 L 139.277,-1.31445 L 139.627,-1.45287
 L 140,-1.5 L 140.373,-1.45287 L 140.723,-1.31445 L 141.027,-1.09344 L 141.266,-0.803711 L 141.427,-0.463501
 L 141.497,-0.094162 L 141.473,0.281067 L 141.357,0.638657 L 141.156,0.956131 L 140.882,1.21352 L 140.552,1.39465
 L 140.188,1.48816 z
M 286.841,4.64888 L 287.939,4.04507 L 288.853,3.18712 L 289.524,2.12889 L 289.911,0.936905 L 289.99,-0.313934
 L 289.99,-52.3139 L 289.755,-53.5451 L 289.222,-54.6791 L 288.423,-55.6448 L 287.409,-56.3815 L 222.409,-86.3815
 L 221.243,-86.8429 L 220,-87 L 153,-87 L 151.757,-86.8429 L 150.591,-86.3815 L 149.577,-85.6448
 L 148.778,-84.6791 L 148.245,-83.5451 L 148.01,-82.3139 L 148.01,-0.31395 L 148.089,0.93689 L 148.476,2.12888
 L 149.147,3.1871 L 150.061,4.04506 L 151.159,4.64886 L 152.373,4.96056 L 285.627,4.96057 z
M 219.812,-80.5118 L 219.448,-80.6053 L 219.118,-80.7865 L 218.844,-81.0439 L 218.643,-81.3613 L 218.527,-81.7189
 L 218.503,-82.0942 L 218.573,-82.4635 L 218.734,-82.8037 L 218.973,-83.0934 L 219.277,-83.3145 L 219.627,-83.4529
 L 220,-83.5 L 220.373,-83.4529 L 220.723,-83.3145 L 221.027,-83.0934 L 221.266,-82.8037 L 221.427,-82.4635
 L 221.497,-82.0942 L 221.473,-81.7189 L 221.357,-81.3613 L 221.156,-81.0439 L 220.882,-80.7865 L 220.552,-80.6053
 L 220.188,-80.5118 z
M 152.812,-80.5118 L 152.448,-80.6053 L 152.118,-80.7865 L 151.844,-81.0439 L 151.643,-81.3613 L 151.527,-81.7189
 L 151.503,-82.0942 L 151.573,-82.4635 L 151.734,-82.8037 L 151.973,-83.0934 L 152.277,-83.3145 L 152.627,-83.4529
 L 153,-83.5 L 153.373,-83.4529 L 153.723,-83.3145 L 154.027,-83.0934 L 154.266,-82.8037 L 154.427,-82.4635
 L 154.497,-82.0942 L 154.473,-81.7189 L 154.357,-81.3613 L 154.156,-81.0439 L 153.882,-80.7865 L 153.552,-80.6053
 L 153.188,-80.5118 z
M 168.812,-67.5118 L 168.448,-67.6053 L 168.118,-67.7865 L 167.844,-68.0439 L 167.643,-68.3613 L 167.527,-68.7189
 L 167.503,-69.0942 L 167.573,-69.4635 L 167.734,-69.8037 L 167.973,-70.0934 L 168.277,-70.3145 L 168.627,-70.4529
 L 169,-70.5 L 169.373,-70.4529 L 169.723,-70.3145 L 170.027,-70.0934 L 170.266,-69.8037 L 170.427,-69.4635
 L 170.497,-69.0942 L 170.473,-68.7189 L 170.357,-68.3613 L 170.156,-68.0439 L 169.882,-67.7865 L 169.552,-67.6053
 L 169.188,-67.5118 z
M 168.812,-51.5118 L 168.448,-51.6053 L 168.118,-51.7865 L 167.844,-52.0439 L 167.643,-52.3613 L 167.527,-52.7189
 L 167.503,-53.0942 L 167.573,-53.4635 L 167.734,-53.8037 L 167.973,-54.0934 L 168.277,-54.3145 L 168.627,-54.4529
 L 169,-54.5 L 169.373,-54.4529 L 169.723,-54.3145 L 170.027,-54.0934 L 170.266,-53.8037 L 170.427,-53.4635
 L 170.497,-53.0942 L 170.473,-52.7189 L 170.357,-52.3613 L 170.156,-52.0439 L 169.882,-51.7865 L 169.552,-51.6053
 L 169.188,-51.5118 z
M 284.812,-50.5118 L 284.448,-50.6053 L 284.118,-50.7865 L 283.844,-51.0439 L 283.643,-51.3613 L 283.527,-51.7189
 L 283.503,-52.0942 L 283.573,-52.4635 L 283.734,-52.8037 L 283.973,-53.0934 L 284.277,-53.3145 L 284.627,-53.4529
 L 285,-53.5 L 285.373,-53.4529 L 285.723,-53.3145 L 286.027,-53.0934 L 286.266,-52.8037 L 286.427,-52.4635
 L 286.497,-52.0942 L 286.473,-51.7189 L 286.357,-51.3613 L 286.156,-51.0439 L 285.882,-50.7865 L 285.552,-50.6053
 L 285.188,-50.5118 z
M 219.036,-44.5734 L 218.696,-44.7335 L 218.407,-44.9732 L 218.186,-45.2774 L 218.047,-45.627 L 218,-46
 L 218.047,-46.373 L 218.186,-46.7226 L 218.407,-47.0268 L 218.696,-47.2665 L 219.036,-47.4266 L 219.406,-47.497
 L 219.781,-47.4734 L 220.139,-47.3572 L 220.456,-47.1558 L 220.714,-46.8817 L 220.895,-46.5522 L 220.988,-46.188
 L 220.988,-45.812 L 220.895,-45.4478 L 220.714,-45.1183 L 220.456,-44.8442 L 220.139,-44.6427 L 219.781,-44.5266
 L 219.406,-44.5029 z
M 265.036,-44.5734 L 264.696,-44.7335 L 264.407,-44.9732 L 264.186,-45.2774 L 264.047,-45.627 L 264,-46
 L 264.047,-46.373 L 264.186,-46.7226 L 264.407,-47.0268 L 264.696,-47.2665 L 265.036,-47.4266 L 265.406,-47.497
 L 265.781,-47.4734 L 266.139,-47.3572 L 266.456,-47.1558 L 266.714,-46.8817 L 266.895,-46.5522 L 266.988,-46.188
 L 266.988,-45.812 L 266.895,-45.4478 L 266.714,-45.1183 L 266.456,-44.8442 L 266.139,-44.6427 L 265.781,-44.5266
 L 265.406,-44.5029 z
M 226.257,-24.0809 L 225.026,-24.3158 L 223.892,-24.8494 L 222.926,-25.6483 L 222.19,-26.6623 L 221.728,-27.8276
 L 221.571,-29.0711 L 221.571,-38.9289 L 221.728,-40.1724 L 222.19,-41.3377 L 222.926,-42.3517 L 223.892,-43.1506
 L 225.026,-43.6842 L 226.257,-43.9191 L 258.115,-43.9191 L 259.366,-43.8404 L 260.558,-43.4531 L 261.616,-42.7815
 L 262.474,-41.8678 L 263.078,-40.7695 L 263.389,-39.5556 L 263.389,-28.4444 L 263.078,-27.2305 L 262.474,-26.1322
 L 261.616,-25.2185 L 260.558,-24.5469 L 259.366,-24.1596 L 258.115,-24.0809 z
M 265.036,-20.5734 L 264.696,-20.7335 L 264.407,-20.9732 L 264.186,-21.2774 L 264.047,-21.627 L 264,-22
 L 264.047,-22.373 L 264.186,-22.7226 L 264.407,-23.0268 L 264.696,-23.2665 L 265.036,-23.4266 L 265.406,-23.4971
 L 265.781,-23.4734 L 266.139,-23.3573 L 266.456,-23.1558 L 266.714,-22.8817 L 266.895,-22.5522 L 266.988,-22.188
 L 266.988,-21.812 L 266.895,-21.4478 L 266.714,-21.1183 L 266.456,-20.8442 L 266.139,-20.6428 L 265.781,-20.5266
 L 265.406,-20.503 z
M 219.036,-20.5734 L 218.696,-20.7335 L 218.407,-20.9732 L 218.186,-21.2774 L 218.047,-21.627 L 218,-22
 L 218.047,-22.373 L 218.186,-22.7226 L 218.407,-23.0268 L 218.696,-23.2665 L 219.036,-23.4266 L 219.406,-23.4971
 L 219.781,-23.4734 L 220.139,-23.3573 L 220.456,-23.1558 L 220.714,-22.8817 L 220.895,-22.5522 L 220.988,-22.188
 L 220.988,-21.812 L 220.895,-21.4478 L 220.714,-21.1183 L 220.456,-20.8442 L 220.139,-20.6428 L 219.781,-20.5266
 L 219.406,-20.503 z
M 284.812,1.48816 L 284.448,1.39465 L 284.118,1.21352 L 283.844,0.956116 L 283.643,0.638641 L 283.527,0.281052
 L 283.503,-0.0941772 L 283.573,-0.463516 L 283.734,-0.803726 L 283.973,-1.09344 L 284.277,-1.31445 L 284.627,-1.45287
 L 285,-1.5 L 285.373,-1.45287 L 285.723,-1.31445 L 286.027,-1.09344 L 286.266,-0.803711 L 286.427,-0.463501
 L 286.497,-0.094162 L 286.473,0.281067 L 286.357,0.638657 L 286.156,0.956131 L 285.882,1.21352 L 285.552,1.39465
 L 285.188,1.48816 z
M 152.812,1.48814 L 152.448,1.39464 L 152.118,1.2135 L 151.844,0.956116 L 151.643,0.638641 L 151.527,0.281052
 L 151.503,-0.0941772 L 151.573,-0.463516 L 151.734,-0.803726 L 151.973,-1.09344 L 152.277,-1.31445 L 152.627,-1.45287
 L 153,-1.5 L 153.373,-1.45287 L 153.723,-1.31445 L 154.027,-1.09344 L 154.266,-0.803726 L 154.427,-0.463516
 L 154.497,-0.0941772 L 154.473,0.281052 L 154.357,0.638641 L 154.156,0.956116 L 153.882,1.2135 L 153.552,1.39464
 L 153.188,1.48814 z
" stroke="black" fill="none" stroke-width="0.5"/></svg>
