  0
SECTION
  2
BLOCKS
  0
ENDSEC
  0
SECTION
  2
ENTITIES
  0
LINE
  8
0
 10
92.44284780092318
 20
-9.262507029732813
 11
92.58277062544404
 21
-8.214620222305143
  0
LINE
  8
0
 10
92.58277062544404
 20
-8.214620222305143
 11
92.6295335614102
 21
-7.158467588533517
  0
LINE
  8
0
 10
92.6295335614102
 20
-7.158467588533517
 11
92.59743653643989
 21
-7.141273542627913
  0
LINE
  8
0
 10
92.59743653643989
 20
-7.141273542627913
 11
91.67575502612296
 21
-6.681994041672059
  0
LINE
  8
0
 10
91.67575502612296
 20
-6.681994041672059
 11
90.80850048631522
 21
-6.281317354651567
  0
LINE
  8
0
 10
90.80850048631522
 20
-6.281317354651567
 11
89.99826905927763
 21
-5.935606134476859
  0
LINE
  8
0
 10
89.99826905927763
 20
-5.935606134476859
 11
89.24748890682774
 21
-5.641122627704367
  0
LINE
  8
0
 10
89.24748890682774
 20
-5.641122627704367
 11
88.55841659844288
 21
-5.394035440775724
  0
LINE
  8
0
 10
88.55841659844288
 20
-5.394035440775724
 11
87.88943046921943
 21
-5.176195458832904
  0
LINE
  8
0
 10
87.88943046921943
 20
-5.176195458832904
 11
87.7378561461225
 21
-5.099799304158983
  0
LINE
  8
0
 10
87.7378561461225
 20
-5.099799304158983
 11
87.66722666617494
 21
-5.021285828970354
  0
LINE
  8
0
 10
87.66722666617494
 20
-5.021285828970354
 11
87.76795097681128
 21
-2.7464020184052553
  0
LINE
  8
0
 10
87.76795097681128
 20
-2.7464020184052553
 11
87.84524310018674
 21
-2.6744380212410332
  0
LINE
  8
0
 10
87.84524310018674
 20
-2.6744380212410332
 11
88.00297618611195
 21
-2.611736972766608
  0
LINE
  8
0
 10
88.00297618611195
 20
-2.611736972766608
 11
88.68859717399289
 21
-2.4538745015820354
  0
LINE
  8
0
 10
88.68859717399289
 20
-2.4538745015820354
 11
89.39681061125374
 21
-2.2686544934696773
  0
LINE
  8
0
 10
89.39681061125374
 20
-2.2686544934696773
 11
90.17067931051527
 21
-2.0416773814585154
  0
LINE
  8
0
 10
90.17067931051527
 20
-2.0416773814585154
 11
91.00829415162293
 21
-1.7689273290686056
  0
LINE
  8
0
 10
91.00829415162293
 20
-1.7689273290686056
 11
91.90756681758539
 21
-1.4464666081673736
  0
LINE
  8
0
 10
91.90756681758539
 20
-1.4464666081673736
 11
92.86623279452436
 21
-1.070442657892257
  0
LINE
  8
0
 10
92.86623279452436
 20
-1.070442657892257
 11
92.89972382970082
 21
-1.056152633771596
  0
LINE
  8
0
 10
92.89972382970082
 20
-1.056152633771596
 11
92.94648676566693
 21
1.7763568394002505e-15
  0
LINE
  8
0
 10
92.94648676566693
 20
1.7763568394002505e-15
 11
92.89972382970076
 21
1.056152633771632
  0
LINE
  8
0
 10
92.89972382970076
 20
1.056152633771632
 11
92.86623279452449
 21
1.0704426578922202
  0
LINE
  8
0
 10
92.86623279452449
 20
1.0704426578922202
 11
91.90756681761377
 21
1.4464666081562572
  0
LINE
  8
0
 10
91.90756681761377
 20
1.4464666081562572
 11
91.00829415161803
 21
1.768927329069289
  0
LINE
  8
0
 10
91.00829415161803
 20
1.768927329069289
 11
90.1706793105154
 21
2.0416773814591282
  0
LINE
  8
0
 10
90.1706793105154
 20
2.0416773814591282
 11
89.39681061125388
 21
2.2686544934704944
  0
LINE
  8
0
 10
89.39681061125388
 20
2.2686544934704944
 11
88.68859717398954
 21
2.453874501583498
  0
LINE
  8
0
 10
88.68859717398954
 20
2.453874501583498
 11
88.00297618612954
 21
2.611736972842846
  0
LINE
  8
0
 10
88.00297618612954
 20
2.611736972842846
 11
87.84524310018685
 21
2.6744380212411585
  0
LINE
  8
0
 10
87.84524310018685
 20
2.6744380212411585
 11
87.7679509768116
 21
2.7464020184064397
  0
LINE
  8
0
 10
87.7679509768116
 20
2.7464020184064397
 11
87.6672266661745
 21
5.0212858289715046
  0
LINE
  8
0
 10
87.6672266661745
 20
5.0212858289715046
 11
87.73785614612238
 21
5.099799304159099
  0
LINE
  8
0
 10
87.73785614612238
 20
5.099799304159099
 11
87.88943046919516
 21
5.176195458907287
  0
LINE
  8
0
 10
87.88943046919516
 20
5.176195458907287
 11
88.55841659844607
 21
5.394035440777476
  0
LINE
  8
0
 10
88.55841659844607
 20
5.394035440777476
 11
89.24748890682753
 21
5.641122627705169
  0
LINE
  8
0
 10
89.24748890682753
 20
5.641122627705169
 11
89.99826905927746
 21
5.935606134477458
  0
LINE
  8
0
 10
89.99826905927746
 20
5.935606134477458
 11
90.80850048632006
 21
6.28131735465268
  0
LINE
  8
0
 10
90.80850048632006
 20
6.28131735465268
 11
91.67575502609567
 21
6.681994041658477
  0
LINE
  8
0
 10
91.67575502609567
 20
6.681994041658477
 11
92.59743653643977
 21
7.141273542627865
  0
LINE
  8
0
 10
92.59743653643977
 20
7.141273542627865
 11
92.62953356141023
 21
7.158467588533556
  0
LINE
  8
0
 10
92.62953356141023
 20
7.158467588533556
 11
92.58277062544413
 21
8.214620222305156
  0
LINE
  8
0
 10
92.58277062544413
 20
8.214620222305156
 11
92.4428478009232
 21
9.26250702973286
  0
LINE
  8
0
 10
92.4428478009232
 20
9.26250702973286
 11
92.40822486829994
 21
9.273781193254548
  0
LINE
  8
0
 10
92.40822486829994
 20
9.273781193254548
 11
91.42007728587213
 21
9.563606695583838
  0
LINE
  8
0
 10
91.42007728587213
 20
9.563606695583838
 11
90.49582452157874
 21
9.80532775803986
  0
LINE
  8
0
 10
90.49582452157874
 20
9.80532775803986
 11
89.63738173822287
 21
10.002982003676694
  0
LINE
  8
0
 10
89.63738173822287
 20
10.002982003676694
 11
88.84648106397144
 21
10.160676317278504
  0
LINE
  8
0
 10
88.84648106397144
 20
10.160676317278504
 11
88.12466922820548
 21
10.282579548881815
  0
LINE
  8
0
 10
88.12466922820548
 20
10.282579548881815
 11
87.42777929553824
 21
10.379229021582237
  0
LINE
  8
0
 10
87.42777929553824
 20
10.379229021582237
 11
87.26512192200968
 21
10.427744242988002
  0
LINE
  8
0
 10
87.26512192200968
 20
10.427744242988002
 11
87.1817720708687
 21
10.492595546279722
  0
LINE
  8
0
 10
87.1817720708687
 20
10.492595546279722
 11
86.88038744325597
 21
12.749675306625615
  0
LINE
  8
0
 10
86.88038744325597
 20
12.749675306625615
 11
86.94380150833267
 21
12.834123785440736
  0
LINE
  8
0
 10
86.94380150833267
 20
12.834123785440736
 11
87.08803079396291
 21
12.92361714297005
  0
LINE
  8
0
 10
87.08803079396291
 20
12.92361714297005
 11
87.73514634107752
 21
13.199729742309357
  0
LINE
  8
0
 10
87.73514634107752
 20
13.199729742309357
 11
88.39968459548771
 21
13.506750315801485
  0
LINE
  8
0
 10
88.39968459548771
 20
13.506750315801485
 11
89.12150032848778
 21
13.866435484618915
  0
LINE
  8
0
 10
89.12150032848778
 20
13.866435484618915
 11
89.89800718199632
 21
14.282402213548979
  0
LINE
  8
0
 10
89.89800718199632
 20
14.282402213548979
 11
90.7264561529442
 21
14.758159028325991
  0
LINE
  8
0
 10
90.7264561529442
 20
14.758159028325991
 11
91.60393978921299
 21
15.297099595180404
  0
LINE
  8
0
 10
91.60393978921299
 20
15.297099595180404
 11
91.63439160123819
 21
15.317063096149358
  0
LINE
  8
0
 10
91.63439160123819
 20
15.317063096149358
 11
91.49446877671731
 21
16.364949903577028
  0
LINE
  8
0
 10
91.49446877671731
 20
16.364949903577028
 11
91.2624811494579
 21
17.39636974961523
  0
LINE
  8
0
 10
91.2624811494579
 20
17.39636974961523
 11
91.22699729077907
 21
17.40453981692241
  0
LINE
  8
0
 10
91.22699729077907
 20
17.40453981692241
 11
90.21710169744668
 21
17.605898593801285
  0
LINE
  8
0
 10
90.21710169744668
 20
17.605898593801285
 11
89.27510236588445
 21
17.764988202749052
  0
LINE
  8
0
 10
89.27510236588445
 20
17.764988202749052
 11
88.40255011897483
 21
17.88599972917124
  0
LINE
  8
0
 10
88.40255011897483
 20
17.88599972917124
 11
87.60080733985227
 21
17.973177072549706
  0
LINE
  8
0
 10
87.60080733985227
 20
17.973177072549706
 11
86.8710462618682
 21
18.030809469573512
  0
LINE
  8
0
 10
86.8710462618682
 20
18.030809469573512
 11
86.16834149299514
 21
18.06548953054893
  0
LINE
  8
0
 10
86.16834149299514
 20
18.06548953054893
 11
86.00203284636763
 21
18.099439227575278
  0
LINE
  8
0
 10
86.00203284636763
 20
18.099439227575278
 11
85.913277593056
 21
18.156670287616535
  0
LINE
  8
0
 10
85.913277593056
 20
18.156670287616535
 11
85.41359139181105
 21
20.37828128835671
  0
LINE
  8
0
 10
85.41359139181105
 20
20.37828128835671
 11
85.46929374097739
 21
20.468003846953145
  0
LINE
  8
0
 10
85.46929374097739
 20
20.468003846953145
 11
85.60504919945177
 21
20.569894000401337
  0
LINE
  8
0
 10
85.60504919945177
 20
20.569894000401337
 11
86.22522960788217
 21
20.902118261752637
  0
LINE
  8
0
 10
86.22522960788217
 20
20.902118261752637
 11
86.86003289546609
 21
21.266669369547746
  0
LINE
  8
0
 10
86.86003289546609
 20
21.266669369547746
 11
87.54723502223163
 21
21.68874117628515
  0
LINE
  8
0
 10
87.54723502223163
 20
21.68874117628515
 11
88.28394008325051
 21
22.171707910327644
  0
LINE
  8
0
 10
88.28394008325051
 20
22.171707910327644
 11
89.06709974892036
 21
22.71882141074531
  0
LINE
  8
0
 10
89.06709974892036
 20
22.71882141074531
 11
89.89351801192376
 21
23.333205102826483
  0
LINE
  8
0
 10
89.89351801192376
 20
23.333205102826483
 11
89.92208628428651
 21
23.35578181739609
  0
LINE
  8
0
 10
89.92208628428651
 20
23.35578181739609
 11
89.69009865702712
 21
24.387201663434258
  0
LINE
  8
0
 10
89.69009865702712
 20
24.387201663434258
 11
89.36786184475304
 21
25.39408228933701
  0
LINE
  8
0
 10
89.36786184475304
 20
25.39408228933701
 11
89.33179476932352
 21
25.39908431857562
  0
LINE
  8
0
 10
89.33179476932352
 20
25.39908431857562
 11
88.3080549673714
 21
25.510400464562682
  0
LINE
  8
0
 10
88.3080549673714
 20
25.510400464562682
 11
87.35568149051971
 21
25.58561352811051
  0
LINE
  8
0
 10
87.35568149051971
 20
25.58561352811051
 11
86.47584868443849
 21
25.629035256050305
  0
LINE
  8
0
 10
86.47584868443849
 20
25.629035256050305
 11
85.66953852473443
 21
25.645013348294082
  0
LINE
  8
0
 10
85.66953852473443
 20
25.645013348294082
 11
84.93753957441415
 21
25.63792385909079
  0
LINE
  8
0
 10
84.93753957441415
 20
25.63792385909079
 11
84.23451958691402
 21
25.61036308984311
  0
LINE
  8
0
 10
84.23451958691402
 20
25.61036308984311
 11
84.065861257837
 21
25.62948156008011
  0
LINE
  8
0
 10
84.065861257837
 20
25.62948156008011
 11
83.9723952325507
 21
25.678644466229336
  0
LINE
  8
0
 10
83.9723952325507
 20
25.678644466229336
 11
83.2783181796979
 21
27.84739958911148
  0
LINE
  8
0
 10
83.2783181796979
 20
27.84739958911148
 11
83.32587286654761
 21
27.941694026817874
  0
LINE
  8
0
 10
83.32587286654761
 20
27.941694026817874
 11
83.45209202733949
 21
28.055183547586438
  0
LINE
  8
0
 10
83.45209202733949
 20
28.055183547586438
 11
84.04048354451808
 21
28.440919365658353
  0
LINE
  8
0
 10
84.04048354451808
 20
28.440919365658353
 11
84.64058366885226
 21
28.860147901061286
  0
LINE
  8
0
 10
84.64058366885226
 20
28.860147901061286
 11
85.28779390099824
 21
29.341303061564822
  0
LINE
  8
0
 10
85.28779390099824
 20
29.341303061564822
 11
85.97893145356336
 21
29.88748993119537
  0
LINE
  8
0
 10
85.97893145356336
 20
29.88748993119537
 11
86.71067252772417
 21
30.50167821230902
  0
LINE
  8
0
 10
86.71067252772417
 20
30.50167821230902
 11
87.4795575740549
 21
31.18669664421423
  0
LINE
  8
0
 10
87.4795575740549
 20
31.18669664421423
 11
87.5060187212898
 21
31.211709878982354
  0
LINE
  8
0
 10
87.5060187212898
 20
31.211709878982354
 11
87.18378190901568
 21
32.21859050488507
  0
LINE
  8
0
 10
87.18378190901568
 20
32.21859050488507
 11
86.77381785168767
 21
33.19305170457549
  0
LINE
  8
0
 10
86.77381785168767
 20
33.19305170457549
 11
86.73744983327421
 21
33.1948465480847
  0
LINE
  8
0
 10
86.73744983327421
 20
33.1948465480847
 11
85.70787797469039
 21
33.21524886340959
  0
LINE
  8
0
 10
85.70787797469039
 20
33.21524886340959
 11
84.75258396628128
 21
33.20599673735758
  0
LINE
  8
0
 10
84.75258396628128
 20
33.20599673735758
 11
83.87235648565742
 21
33.1714888329205
  0
LINE
  8
0
 10
83.87235648565742
 20
33.1714888329205
 11
83.06778941560731
 21
33.11614262379388
  0
LINE
  8
0
 10
83.06778941560731
 20
33.11614262379388
 11
82.33928147721791
 21
33.04438673322879
  0
LINE
  8
0
 10
82.33928147721791
 20
33.04438673322879
 11
81.64144835568263
 21
32.95480083414564
  0
LINE
  8
0
 10
81.64144835568263
 20
32.95480083414564
 11
81.47176032425654
 21
32.95893844964191
  0
LINE
  8
0
 10
81.47176032425654
 20
32.95893844964191
 11
81.37431502536936
 21
32.99964843550096
  0
LINE
  8
0
 10
81.37431502536936
 20
32.99964843550096
 11
80.49127921491173
 21
35.098574231181644
  0
LINE
  8
0
 10
80.49127921491173
 20
35.098574231181644
 11
80.53031405954317
 21
35.196702566173826
  0
LINE
  8
0
 10
80.53031405954317
 20
35.196702566173826
 11
80.64600908658511
 21
35.320903244887965
  0
LINE
  8
0
 10
80.64600908658511
 20
35.320903244887965
 11
81.19800675111925
 21
35.75713171390413
  0
LINE
  8
0
 10
81.19800675111925
 20
35.75713171390413
 11
81.75870711508495
 21
36.227756645214306
  0
LINE
  8
0
 10
81.75870711508495
 20
36.227756645214306
 11
82.36086015502478
 21
36.764229467978765
  0
LINE
  8
0
 10
82.36086015502478
 20
36.764229467978765
 11
83.00102111070836
 21
37.36936182039498
  0
LINE
  8
0
 10
83.00102111070836
 20
37.36936182039498
 11
83.67561672732364
 21
38.045818026157654
  0
LINE
  8
0
 10
83.67561672732364
 20
38.045818026157654
 11
84.38095098900126
 21
38.796109999874915
  0
LINE
  8
0
 10
84.38095098900126
 20
38.796109999874915
 11
84.40509791675382
 21
38.82336399236529
  0
LINE
  8
0
 10
84.40509791675382
 20
38.82336399236529
 11
83.99513385942579
 21
39.797825192055654
  0
LINE
  8
0
 10
83.99513385942579
 20
39.797825192055654
 11
83.5006510816424
 21
40.73224048542288
  0
LINE
  8
0
 10
83.5006510816424
 20
40.73224048542288
 11
83.4642667492986
 21
40.730814096118664
  0
LINE
  8
0
 10
83.4642667492986
 20
40.730814096118664
 11
82.4369206298216
 21
40.660142905001486
  0
LINE
  8
0
 10
82.4369206298216
 20
40.660142905001486
 11
81.48618256070635
 21
40.56649799978049
  0
LINE
  8
0
 10
81.48618256070635
 20
40.56649799978049
 11
80.6124493790323
 21
40.45433053410631
  0
LINE
  8
0
 10
80.6124493790323
 20
40.45433053410631
 11
79.8159222268316
 21
40.32809318273687
  0
LINE
  8
0
 10
79.8159222268316
 20
40.32809318273687
 11
79.09660686273857
 21
40.19223247794388
  0
LINE
  8
0
 10
79.09660686273857
 20
40.19223247794388
 11
78.40942209750126
 21
40.04132258015064
  0
LINE
  8
0
 10
78.40942209750126
 20
40.04132258015064
 11
78.24003240264355
 21
40.03044695845494
  0
LINE
  8
0
 10
78.24003240264355
 20
40.03044695845494
 11
78.13937047174048
 21
40.062385413187826
  0
LINE
  8
0
 10
78.13937047174048
 20
40.062385413187826
 11
77.07428685615905
 21
42.075054941487075
  0
LINE
  8
0
 10
77.07428685615905
 20
42.075054941487075
 11
77.10449635798763
 21
42.17624918649641
  0
LINE
  8
0
 10
77.10449635798763
 20
42.17624918649641
 11
77.20876178082787
 21
42.31018898444769
  0
LINE
  8
0
 10
77.20876178082787
 20
42.31018898444769
 11
77.72004546256647
 21
42.79349602517764
  0
LINE
  8
0
 10
77.72004546256647
 20
42.79349602517764
 11
78.23695782559003
 21
43.31183407421069
  0
LINE
  8
0
 10
78.23695782559003
 20
43.31183407421069
 11
78.78934100935692
 21
43.8994259320212
  0
LINE
  8
0
 10
78.78934100935692
 20
43.8994259320212
 11
79.37351524071846
 21
44.55876778609666
  0
LINE
  8
0
 10
79.37351524071846
 20
44.55876778609666
 11
79.98568577443763
 21
45.29219772952504
  0
LINE
  8
0
 10
79.98568577443763
 20
45.29219772952504
 11
80.621949054537
 21
46.101891193076554
  0
LINE
  8
0
 10
80.621949054537
 20
46.101891193076554
 11
80.64359278035799
 21
46.13117264384565
  0
LINE
  8
0
 10
80.64359278035799
 20
46.13117264384565
 11
80.14911000257447
 21
47.06558793721278
  0
LINE
  8
0
 10
80.14911000257447
 20
47.06558793721278
 11
79.57397850251613
 21
47.952644257658974
  0
LINE
  8
0
 10
79.57397850251613
 20
47.952644257658974
 11
79.53786261297445
 21
47.948007798971716
  0
LINE
  8
0
 10
79.53786261297445
 20
47.948007798971716
 11
78.52078260891653
 21
47.786816199302514
  0
LINE
  8
0
 10
78.52078260891653
 20
47.786816199302514
 11
77.58204129354431
 21
47.609511413264336
  0
LINE
  8
0
 10
77.58204129354431
 20
47.609511413264336
 11
76.72164055761785
 21
47.42056224885421
  0
LINE
  8
0
 10
76.72164055761785
 20
47.42056224885421
 11
75.93938722820398
 21
47.22442173367535
  0
LINE
  8
0
 10
75.93938722820398
 20
47.22442173367535
 11
75.23489405641513
 21
47.02551950887622
  0
LINE
  8
0
 10
75.23489405641513
 20
47.02551950887622
 11
74.56373579998333
 21
46.814466686934324
  0
LINE
  8
0
 10
74.56373579998333
 20
46.814466686934324
 11
74.3959701457233
 21
46.78866294453213
  0
LINE
  8
0
 10
74.3959701457233
 20
46.78866294453213
 11
74.29287939889618
 21
46.81157990642681
  0
LINE
  8
0
 10
74.29287939889618
 20
46.81157990642681
 11
73.0540837015766
 21
48.722241299407486
  0
LINE
  8
0
 10
73.0540837015766
 20
48.722241299407486
 11
73.07523143029091
 21
48.82570947226255
  0
LINE
  8
0
 10
73.07523143029091
 20
48.82570947226255
 11
73.16725123062746
 21
48.968340128929704
  0
LINE
  8
0
 10
73.16725123062746
 20
48.968340128929704
 11
73.63381944153691
 21
49.494943208487825
  0
LINE
  8
0
 10
73.63381944153691
 20
49.494943208487825
 11
74.10289826352198
 21
50.056937677221356
  0
LINE
  8
0
 10
74.10289826352198
 20
50.056937677221356
 11
74.60118844375411
 21
50.69104986710408
  0
LINE
  8
0
 10
74.60118844375411
 20
50.69104986710408
 11
75.12480399538053
 21
51.3994409788619
  0
LINE
  8
0
 10
75.12480399538053
 20
51.3994409788619
 11
75.66975838176575
 21
52.1841045762276
  0
LINE
  8
0
 10
75.66975838176575
 20
52.1841045762276
 11
76.23197105744245
 21
53.046862580438116
  0
LINE
  8
0
 10
76.23197105744245
 20
53.046862580438116
 11
76.2509421898315
 21
53.07794232243233
  0
LINE
  8
0
 10
76.2509421898315
 20
53.07794232243233
 11
75.67581068977319
 21
53.96499864287853
  0
LINE
  8
0
 10
75.67581068977319
 20
53.96499864287853
 11
75.02453165122024
 21
54.79775357198098
  0
LINE
  8
0
 10
75.02453165122024
 20
54.79775357198098
 11
74.98896686028398
 21
54.789943330486146
  0
LINE
  8
0
 10
74.98896686028398
 20
54.789943330486146
 11
73.99011300168495
 21
54.539492865083965
  0
LINE
  8
0
 10
73.99011300168495
 20
54.539492865083965
 11
73.07071536364101
 21
54.27991584857808
  0
LINE
  8
0
 10
73.07071536364101
 20
54.27991584857808
 11
72.23038087579525
 21
54.01566376883027
  0
LINE
  8
0
 10
72.23038087579525
 20
54.01566376883027
 11
71.46852356208913
 21
53.75115515531041
  0
LINE
  8
0
 10
71.46852356208913
 20
53.75115515531041
 11
70.78436619686087
 21
53.49076809009579
  0
LINE
  8
0
 10
70.78436619686087
 20
53.49076809009579
 11
70.13448717258113
 21
53.22122411849292
  0
LINE
  8
0
 10
70.13448717258113
 20
53.22122411849292
 11
69.96965855262845
 21
53.18069420465453
  0
LINE
  8
0
 10
69.96965855262845
 20
53.18069420465453
 11
69.86494581474678
 21
53.19441031741222
  0
LINE
  8
0
 10
69.86494581474678
 20
53.19441031741222
 11
68.46213329164188
 21
54.98811005910379
  0
LINE
  8
0
 10
68.46213329164188
 20
54.98811005910379
 11
68.47405373759159
 21
55.09304238106466
  0
LINE
  8
0
 10
68.47405373759159
 20
55.09304238106466
 11
68.55310773572177
 21
55.24324761817348
  0
LINE
  8
0
 10
68.55310773572177
 20
55.24324761817348
 11
68.97130894695512
 21
55.80902535346737
  0
LINE
  8
0
 10
68.97130894695512
 20
55.80902535346737
 11
69.38888305011908
 21
56.410277873203285
  0
LINE
  8
0
 10
69.38888305011908
 20
56.410277873203285
 11
69.82918043054939
 21
57.0859476075113
  0
LINE
  8
0
 10
69.82918043054939
 20
57.0859476075113
 11
70.28813930080497
 21
57.83784385602983
  0
LINE
  8
0
 10
70.28813930080497
 20
57.83784385602983
 11
70.76161253290633
 21
58.667600050797226
  0
LINE
  8
0
 10
70.76161253290633
 20
58.667600050797226
 11
71.24537452769705
 21
59.57667034451326
  0
LINE
  8
0
 10
71.24537452769705
 20
59.57667034451326
 11
71.26152459182147
 21
59.60930513661218
  0
LINE
  8
0
 10
71.26152459182147
 20
59.60930513661218
 11
70.61024555326844
 21
60.44206006571454
  0
LINE
  8
0
 10
70.61024555326844
 20
60.44206006571454
 11
69.88791611773398
 21
61.213996167061936
  0
LINE
  8
0
 10
69.88791611773398
 20
61.213996167061936
 11
69.85318076811278
 21
61.2030732684888
  0
LINE
  8
0
 10
69.85318076811278
 20
61.2030732684888
 11
68.88037044071228
 21
60.86532405181871
  0
LINE
  8
0
 10
68.88037044071228
 20
60.86532405181871
 11
67.98751201307975
 21
60.52550634694679
  0
LINE
  8
0
 10
67.98751201307975
 20
60.52550634694679
 11
67.17382053004965
 21
60.18801948267154
  0
LINE
  8
0
 10
67.17382053004965
 20
60.18801948267154
 11
66.43832179849535
 21
59.857212909345485
  0
LINE
  8
0
 10
66.43832179849535
 20
59.857212909345485
 11
65.77985469882543
 21
59.53737888554653
  0
LINE
  8
0
 10
65.77985469882543
 20
59.53737888554653
 11
65.15634109120133
 21
59.21145331132171
  0
LINE
  8
0
 10
65.15634109120133
 20
59.21145331132171
 11
64.99573951299
 21
59.1565144275754
  0
LINE
  8
0
 10
64.99573951299
 20
59.1565144275754
 11
64.89022430320249
 21
59.160922344016775
  0
LINE
  8
0
 10
64.89022430320249
 20
59.160922344016775
 11
63.33437386430906
 21
60.823622301952504
  0
LINE
  8
0
 10
63.33437386430906
 20
60.823622301952504
 11
63.33697373384227
 21
60.92919753532733
  0
LINE
  8
0
 10
63.33697373384227
 20
60.92919753532733
 11
63.40244322504534
 21
61.08580179324165
  0
LINE
  8
0
 10
63.40244322504534
 20
61.08580179324165
 11
63.76900444510655
 21
61.686326206382844
  0
LINE
  8
0
 10
63.76900444510655
 20
61.686326206382844
 11
64.13180574592425
 21
62.32213116094592
  0
LINE
  8
0
 10
64.13180574592425
 20
62.32213116094592
 11
64.51066440257361
 21
63.03407040790138
  0
LINE
  8
0
 10
64.51066440257361
 20
63.03407040790138
 11
64.90137461601918
 21
63.82358718557734
  0
LINE
  8
0
 10
64.90137461601918
 20
63.82358718557734
 11
65.29966112383674
 21
64.69194201049734
  0
LINE
  8
0
 10
65.29966112383674
 20
64.69194201049734
 11
65.70118634422352
 21
65.6402098861075
  0
LINE
  8
0
 10
65.70118634422352
 20
65.6402098861075
 11
65.71438894393431
 21
65.67414431681499
  0
LINE
  8
0
 10
65.71438894393431
 20
65.67414431681499
 11
64.99205950839999
 21
66.44608041816244
  0
LINE
  8
0
 10
64.99205950839999
 20
66.44608041816244
 11
64.20433288308772
 21
67.15115624513221
  0
LINE
  8
0
 10
64.20433288308772
 20
67.15115624513221
 11
64.17069882598827
 21
67.13720617597188
  0
LINE
  8
0
 10
64.17069882598827
 20
67.13720617597188
 11
63.23154558958317
 21
66.71480155359164
  0
LINE
  8
0
 10
63.23154558958317
 20
66.71480155359164
 11
62.37221420014046
 21
66.29740269463619
  0
LINE
  8
0
 10
62.37221420014046
 20
66.29740269463619
 11
61.591533961024446
 21
65.88932233812805
  0
LINE
  8
0
 10
61.591533961024446
 20
65.88932233812805
 11
60.888150086422414
 21
65.49480681495622
  0
LINE
  8
0
 10
60.888150086422414
 20
65.49480681495622
 11
60.260526650148435
 21
65.11802896745614
  0
LINE
  8
0
 10
60.260526650148435
 20
65.11802896745614
 11
59.66825829855058
 21
64.7382726001339
  0
LINE
  8
0
 10
59.66825829855058
 20
64.7382726001339
 11
59.51314068718182
 21
64.66935471773387
  0
LINE
  8
0
 10
59.51314068718182
 20
64.66935471773387
 11
59.40764880506785
 21
64.6644199399363
  0
LINE
  8
0
 10
59.40764880506785
 20
64.6644199399363
 11
57.71093708957024
 21
66.18310723257343
  0
LINE
  8
0
 10
57.71093708957024
 20
66.18310723257343
 11
57.70419603518283
 21
66.28849910801686
  0
LINE
  8
0
 10
57.70419603518283
 20
66.28849910801686
 11
57.7555686319233
 21
66.45027674608662
  0
LINE
  8
0
 10
57.7555686319233
 20
66.45027674608662
 11
58.06762102226331
 21
67.08084791932119
  0
LINE
  8
0
 10
58.06762102226331
 20
67.08084791932119
 11
58.37281010865167
 21
67.74622927288574
  0
LINE
  8
0
 10
58.37281010865167
 20
67.74622927288574
 11
58.68726495885623
 21
68.4888661425983
  0
LINE
  8
0
 10
58.68726495885623
 20
68.4888661425983
 11
59.00666867832711
 21
69.30982441017998
  0
LINE
  8
0
 10
59.00666867832711
 20
69.30982441017998
 11
59.32665132992038
 21
70.20998181138862
  0
LINE
  8
0
 10
59.32665132992038
 20
70.20998181138862
 11
59.642797296645654
 21
71.19002578705715
  0
LINE
  8
0
 10
59.642797296645654
 20
71.19002578705715
 11
59.65294910369925
 21
71.22499427344279
  0
LINE
  8
0
 10
59.65294910369925
 20
71.22499427344279
 11
58.86522247838709
 21
71.93007010041262
  0
LINE
  8
0
 10
58.86522247838709
 20
71.93007010041262
 11
58.01826369217944
 21
72.56276747868174
  0
LINE
  8
0
 10
58.01826369217944
 20
72.56276747868174
 11
57.985994159701285
 21
72.54589941713961
  0
LINE
  8
0
 10
57.985994159701285
 20
72.54589941713961
 11
57.0878481617175
 21
72.04214527793668
  0
LINE
  8
0
 10
57.0878481617175
 20
72.04214527793668
 11
56.26876924371157
 21
71.55043197689932
  0
LINE
  8
0
 10
56.26876924371157
 20
71.55043197689932
 11
55.52721012986609
 21
71.07495191024375
  0
LINE
  8
0
 10
55.52721012986609
 20
71.07495191024375
 11
54.8614460447182
 21
70.61981505609889
  0
LINE
  8
0
 10
54.8614460447182
 20
70.61981505609889
 11
54.26957827619231
 21
70.18904218240866
  0
LINE
  8
0
 10
54.26957827619231
 20
70.18904218240866
 11
53.7131904834991
 21
69.75842713045601
  0
LINE
  8
0
 10
53.7131904834991
 20
69.75842713045601
 11
53.56477084459806
 21
69.67606962527438
  0
LINE
  8
0
 10
53.56477084459806
 20
69.67606962527438
 11
53.460127907166374
 21
69.66183077456493
  0
LINE
  8
0
 10
53.460127907166374
 20
69.66183077456493
 11
51.635833984725096
 21
71.02461961472623
  0
LINE
  8
0
 10
51.635833984725096
 20
71.02461961472623
 11
51.61980476430752
 21
71.12900329791736
  0
LINE
  8
0
 10
51.61980476430752
 20
71.12900329791736
 11
51.65667840636235
 21
71.2946881867784
  0
LINE
  8
0
 10
51.65667840636235
 20
71.2946881867784
 11
51.91177973393048
 21
71.9503710457158
  0
LINE
  8
0
 10
51.91177973393048
 20
71.9503710457158
 11
52.156968087497866
 21
72.64012128703281
  0
LINE
  8
0
 10
52.156968087497866
 20
72.64012128703281
 11
52.40455809570114
 21
73.40764363909271
  0
LINE
  8
0
 10
52.40455809570114
 20
73.40764363909271
 11
52.65015555402887
 21
74.2536182850399
  0
LINE
  8
0
 10
52.65015555402887
 20
74.2536182850399
 11
52.88933005130064
 21
75.17853331039422
  0
LINE
  8
0
 10
52.88933005130064
 20
75.17853331039422
 11
53.11762249352825
 21
76.1826832132188
  0
LINE
  8
0
 10
53.11762249352825
 20
76.1826832132188
 11
53.12464405627022
 21
76.21841207946471
  0
LINE
  8
0
 10
53.12464405627022
 20
76.21841207946471
 11
52.27768527006258
 21
76.85110945773374
  0
LINE
  8
0
 10
52.27768527006258
 20
76.85110945773374
 11
51.37812292381067
 21
77.40647667247427
  0
LINE
  8
0
 10
51.37812292381067
 20
77.40647667247427
 11
51.347470468798086
 21
77.38682263400247
  0
LINE
  8
0
 10
51.347470468798086
 20
77.38682263400247
 11
50.49736091942119
 21
76.80566153713126
  0
LINE
  8
0
 10
50.49736091942119
 20
76.80566153713126
 11
49.72494487593366
 21
76.24348211728213
  0
LINE
  8
0
 10
49.72494487593366
 20
76.24348211728213
 11
49.028310592867584
 21
75.70432361668043
  0
LINE
  8
0
 10
49.028310592867584
 20
75.70432361668043
 11
48.40537680381642
 21
75.19212749454354
  0
LINE
  8
0
 10
48.40537680381642
 20
75.19212749454354
 11
47.85389687081131
 21
74.71073097646324
  0
LINE
  8
0
 10
47.85389687081131
 20
74.71073097646324
 11
47.337744125879
 21
74.23262738651117
  0
LINE
  8
0
 10
47.337744125879
 20
74.23262738651117
 11
47.19718404435488
 21
74.1374748176904
  0
LINE
  8
0
 10
47.19718404435488
 20
74.1374748176904
 11
47.09420902447101
 21
74.11404333238167
  0
LINE
  8
0
 10
47.09420902447101
 20
74.11404333238167
 11
45.1566104684983
 21
75.31026804965548
  0
LINE
  8
0
 10
45.1566104684983
 20
75.31026804965548
 11
45.13141853243353
 21
75.41282659674468
  0
LINE
  8
0
 10
45.13141853243353
 20
75.41282659674468
 11
45.15350463355852
 21
75.58112202749781
  0
LINE
  8
0
 10
45.15350463355852
 20
75.58112202749781
 11
45.34965838458738
 21
76.25678496475915
  0
LINE
  8
0
 10
45.34965838458738
 20
76.25678496475915
 11
45.53292707402847
 21
76.96550586299239
  0
LINE
  8
0
 10
45.53292707402847
 20
76.96550586299239
 11
45.71171451272132
 21
77.75190679434948
  0
LINE
  8
0
 10
45.71171451272132
 20
77.75190679434948
 11
45.88158357680117
 21
78.61627692004285
  0
LINE
  8
0
 10
45.88158357680117
 20
78.61627692004285
 11
46.03807805502551
 21
79.55871085542329
  0
LINE
  8
0
 10
46.03807805502551
 20
79.55871085542329
 11
46.17673027486469
 21
80.57910785093753
  0
LINE
  8
0
 10
46.17673027486469
 20
80.57910785093753
 11
46.18056664004642
 21
80.6153174702224
  0
LINE
  8
0
 10
46.18056664004642
 20
80.6153174702224
 11
45.281004293794524
 21
81.1706846849629
  0
LINE
  8
0
 10
45.281004293794524
 20
81.1706846849629
 11
44.33587868252938
 21
81.6443752347247
  0
LINE
  8
0
 10
44.33587868252938
 20
81.6443752347247
 11
44.30708320200304
 21
81.62208903882225
  0
LINE
  8
0
 10
44.30708320200304
 20
81.62208903882225
 11
43.511663361078035
 21
80.96806935783307
  0
LINE
  8
0
 10
43.511663361078035
 20
80.96806935783307
 11
42.79195539492957
 21
80.33982363536353
  0
LINE
  8
0
 10
42.79195539492957
 20
80.33982363536353
 11
42.14569805043954
 21
79.74120634710101
  0
LINE
  8
0
 10
42.14569805043954
 20
79.74120634710101
 11
41.57046985898927
 21
79.17595958608902
  0
LINE
  8
0
 10
41.57046985898927
 20
79.17595958608902
 11
41.063693839704854
 21
78.64770700407414
  0
LINE
  8
0
 10
41.063693839704854
 20
78.64770700407414
 11
40.59181573758829
 21
78.12585668495085
  0
LINE
  8
0
 10
40.59181573758829
 20
78.12585668495085
 11
40.46021528665743
 21
78.01865375035459
  0
LINE
  8
0
 10
40.46021528665743
 20
78.01865375035459
 11
40.35971410347066
 21
77.98621301358865
  0
LINE
  8
0
 10
40.35971410347066
 20
77.98621301358865
 11
38.32397524976022
 21
79.0065115276609
  0
LINE
  8
0
 10
38.32397524976022
 20
79.0065115276609
 11
38.28981775910444
 21
79.10644227896319
  0
LINE
  8
0
 10
38.28981775910444
 20
79.10644227896319
 11
38.29694346561284
 21
79.27603111167937
  0
LINE
  8
0
 10
38.29694346561284
 20
79.27603111167937
 11
38.43261447104556
 21
79.96638614868294
  0
LINE
  8
0
 10
38.43261447104556
 20
79.96638614868294
 11
38.552529170380595
 21
80.68853100188441
  0
LINE
  8
0
 10
38.552529170380595
 20
80.68853100188441
 11
38.661114785446294
 21
81.48765585900905
  0
LINE
  8
0
 10
38.661114785446294
 20
81.48765585900905
 11
38.75392599953483
 21
82.36365659625869
  0
LINE
  8
0
 10
38.75392599953483
 20
82.36365659625869
 11
38.826515677236586
 21
83.31623361832175
  0
LINE
  8
0
 10
38.826515677236586
 20
83.31623361832175
 11
38.87444253307547
 21
84.34489171653041
  0
LINE
  8
0
 10
38.87444253307547
 20
84.34489171653041
 11
38.875063675937795
 21
84.38129869948838
  0
LINE
  8
0
 10
38.875063675937795
 20
84.38129869948838
 11
37.929938064672726
 21
84.8549892492503
  0
LINE
  8
0
 10
37.929938064672726
 20
84.8549892492503
 11
36.94664607775134
 21
85.24329586322834
  0
LINE
  8
0
 10
36.94664607775134
 20
85.24329586322834
 11
36.919932935388644
 21
85.21855192959484
  0
LINE
  8
0
 10
36.919932935388644
 20
85.21855192959484
 11
36.18542804164084
 21
84.49679225524412
  0
LINE
  8
0
 10
36.18542804164084
 20
84.49679225524412
 11
35.524060843482694
 21
83.8073971047395
  0
LINE
  8
0
 10
35.524060843482694
 20
83.8073971047395
 11
34.93323827751745
 21
83.15400602073214
  0
LINE
  8
0
 10
34.93323827751745
 20
83.15400602073214
 11
34.41021762418937
 21
82.54013244313984
  0
LINE
  8
0
 10
34.41021762418937
 20
82.54013244313984
 11
33.95211172808886
 21
81.96915808987596
  0
LINE
  8
0
 10
33.95211172808886
 20
81.96915808987596
 11
33.52820135473309
 21
81.40764522787939
  0
LINE
  8
0
 10
33.52820135473309
 20
81.40764522787939
 11
33.406590486354496
 21
81.28923093582196
  0
LINE
  8
0
 10
33.406590486354496
 20
81.28923093582196
 11
33.309349697887804
 21
81.24803484034882
  0
LINE
  8
0
 10
33.309349697887804
 20
81.24803484034882
 11
31.19140296312666
 21
82.08442193197502
  0
LINE
  8
0
 10
31.19140296312666
 20
82.08442193197502
 11
31.14854724655671
 21
82.18094279387033
  0
LINE
  8
0
 10
31.14854724655671
 20
82.18094279387033
 11
31.1406567901337
 21
82.35049776599655
  0
LINE
  8
0
 10
31.1406567901337
 20
82.35049776599655
 11
31.21478324040321
 21
83.05014193855985
  0
LINE
  8
0
 10
31.21478324040321
 20
83.05014193855985
 11
31.270405454523544
 21
83.78005898413305
  0
LINE
  8
0
 10
31.270405454523544
 20
83.78005898413305
 11
31.307939416298375
 21
84.58565353152468
  0
LINE
  8
0
 10
31.307939416298375
 20
84.58565353152468
 11
31.322966406807275
 21
85.46642898683595
  0
LINE
  8
0
 10
31.322966406807275
 20
85.46642898683595
 11
31.311083171337696
 21
86.42169388883232
  0
LINE
  8
0
 10
31.311083171337696
 20
86.42169388883232
 11
31.2679095705477
 21
87.45056244541071
  0
LINE
  8
0
 10
31.2679095705477
 20
87.45056244541071
 11
31.265310629805647
 21
87.48688185803793
  0
LINE
  8
0
 10
31.265310629805647
 20
87.48688185803793
 11
30.2820186428843
 21
87.87518847201596
  0
LINE
  8
0
 10
30.2820186428843
 20
87.87518847201596
 11
29.268255873300728
 21
88.17507212447008
  0
LINE
  8
0
 10
29.268255873300728
 20
88.17507212447008
 11
29.243834135659714
 21
88.1480641079353
  0
LINE
  8
0
 10
29.243834135659714
 20
88.1480641079353
 11
28.57599268576123
 21
87.36421318827274
  0
LINE
  8
0
 10
28.57599268576123
 20
87.36421318827274
 11
27.97814235063377
 21
86.61906406150226
  0
LINE
  8
0
 10
27.97814235063377
 20
86.61906406150226
 11
27.447378550838827
 21
85.9160128528828
  0
LINE
  8
0
 10
27.447378550838827
 20
85.9160128528828
 11
26.98065878138286
 21
85.25831685177539
  0
LINE
  8
0
 10
26.98065878138286
 20
85.25831685177539
 11
26.574808308226167
 21
84.64908937573246
  0
LINE
  8
0
 10
26.574808308226167
 20
84.64908937573246
 11
26.202183337061623
 21
84.05230857033499
  0
LINE
  8
0
 10
26.202183337061623
 20
84.05230857033499
 11
26.09151382116647
 21
83.92360967320379
  0
LINE
  8
0
 10
26.09151382116647
 20
83.92360967320379
 11
25.99829446843354
 21
83.87398063432622
  0
LINE
  8
0
 10
25.99829446843354
 20
83.87398063432622
 11
23.81471565743951
 21
84.51991044049889
  0
LINE
  8
0
 10
23.81471565743951
 20
84.51991044049889
 11
23.76349711904347
 21
84.6122660063751
  0
LINE
  8
0
 10
23.76349711904347
 20
84.6122660063751
 11
23.74065225320884
 21
84.7804601203633
  0
LINE
  8
0
 10
23.74065225320884
 20
84.7804601203633
 11
23.75265400833743
 21
85.48391776422338
  0
LINE
  8
0
 10
23.75265400833743
 20
85.48391776422338
 11
23.743548418002177
 21
86.21589441162862
  0
LINE
  8
0
 10
23.743548418002177
 20
86.21589441162862
 11
23.70973697234483
 21
87.02165377968848
  0
LINE
  8
0
 10
23.70973697234483
 20
87.02165377968848
 11
23.64686213269901
 21
87.90031069092404
  0
LINE
  8
0
 10
23.64686213269901
 20
87.90031069092404
 11
23.550598986487536
 21
88.85078722979958
  0
LINE
  8
0
 10
23.550598986487536
 20
88.85078722979958
 11
23.41666282103179
 21
89.87181395330093
  0
LINE
  8
0
 10
23.41666282103179
 20
89.87181395330093
 11
23.41086413692033
 21
89.90776154694964
  0
LINE
  8
0
 10
23.41086413692033
 20
89.90776154694964
 11
22.39710136733685
 21
90.20764519940386
  0
LINE
  8
0
 10
22.39710136733685
 20
90.20764519940386
 11
21.360801883273584
 21
90.41675889415656
  0
LINE
  8
0
 10
21.360801883273584
 20
90.41675889415656
 11
21.338862683563505
 21
90.38769816906873
  0
LINE
  8
0
 10
21.338862683563505
 20
90.38769816906873
 11
20.7429114423527
 21
89.54789070032506
  0
LINE
  8
0
 10
20.7429114423527
 20
89.54789070032506
 11
20.213256959723743
 21
88.7528193995162
  0
LINE
  8
0
 10
20.213256959723743
 20
88.7528193995162
 11
19.74670587246865
 21
88.00561039522412
  0
LINE
  8
0
 10
19.74670587246865
 20
88.00561039522412
 11
19.339939701882834
 21
87.30923933354748
  0
LINE
  8
0
 10
19.339939701882834
 20
87.30923933354748
 11
18.98952098189482
 21
86.66652676574668
  0
LINE
  8
0
 10
18.98952098189482
 20
86.66652676574668
 11
18.671097708544476
 21
86.0391486358959
  0
LINE
  8
0
 10
18.671097708544476
 20
86.0391486358959
 11
18.57223568414592
 21
85.90117237705736
  0
LINE
  8
0
 10
18.57223568414592
 20
85.90117237705736
 11
18.483767334973354
 21
85.84349880929415
  0
LINE
  8
0
 10
18.483767334973354
 20
85.84349880929415
 11
16.251645912548046
 21
86.29391605349596
  0
LINE
  8
0
 10
16.251645912548046
 20
86.29391605349596
 11
16.192465406833524
 21
86.38138351582975
  0
LINE
  8
0
 10
16.192465406833524
 20
86.38138351582975
 11
16.154844923636645
 21
86.54690042469203
  0
LINE
  8
0
 10
16.154844923636645
 20
86.54690042469203
 11
16.104628053617844
 21
87.24866603000254
  0
LINE
  8
0
 10
16.104628053617844
 20
87.24866603000254
 11
16.030865922417203
 21
87.97697356952325
  0
LINE
  8
0
 10
16.030865922417203
 20
87.97697356952325
 11
15.925973689733198
 21
88.77659159870733
  0
LINE
  8
0
 10
15.925973689733198
 20
88.77659159870733
 11
15.785689100801743
 21
89.6462532842097
  0
LINE
  8
0
 10
15.785689100801743
 20
89.6462532842097
 11
15.605799433485883
 21
90.584502692344
  0
LINE
  8
0
 10
15.605799433485883
 20
90.584502692344
 11
15.382148935456435
 21
91.5896966642977
  0
LINE
  8
0
 10
15.382148935456435
 20
91.5896966642977
 11
15.373195890540952
 21
91.62499110030826
  0
LINE
  8
0
 10
15.373195890540952
 20
91.62499110030826
 11
14.336896406477738
 21
91.83410479506094
  0
LINE
  8
0
 10
14.336896406477738
 20
91.83410479506094
 11
13.286170656464243
 21
91.95081193392366
  0
LINE
  8
0
 10
13.286170656464243
 20
91.95081193392366
 11
13.26688569866911
 21
91.91992593985864
  0
LINE
  8
0
 10
13.26688569866911
 20
91.91992593985864
 11
12.747488792629015
 21
91.03073455412984
  0
LINE
  8
0
 10
12.747488792629015
 20
91.03073455412984
 11
12.29017542695722
 21
90.19196359020894
  0
LINE
  8
0
 10
12.29017542695722
 20
90.19196359020894
 11
11.891488447073092
 21
89.40644471380627
  0
LINE
  8
0
 10
11.891488447073092
 20
89.40644471380627
 11
11.547859372156216
 21
88.67684863929279
  0
LINE
  8
0
 10
11.547859372156216
 20
88.67684863929279
 11
11.255614906936044
 21
88.00568107699904
  0
LINE
  8
0
 10
11.255614906936044
 20
88.00568107699904
 11
10.993885425248097
 21
87.35261570719172
  0
LINE
  8
0
 10
10.993885425248097
 20
87.35261570719172
 11
10.907604621729144
 21
87.20644193794641
  0
LINE
  8
0
 10
10.907604621729144
 20
87.20644193794641
 11
10.824579660899039
 21
87.14117521516201
  0
LINE
  8
0
 10
10.824579660899039
 20
87.14117521516201
 11
8.561385003595003
 21
87.39255477175884
  0
LINE
  8
0
 10
8.561385003595003
 20
87.39255477175884
 11
8.494705698259116
 21
87.47444957906468
  0
LINE
  8
0
 10
8.494705698259116
 20
87.47444957906468
 11
8.442604028988738
 21
87.63599388857301
  0
LINE
  8
0
 10
8.442604028988738
 20
87.63599388857301
 11
8.330561548917002
 21
88.33057518798346
  0
LINE
  8
0
 10
8.330561548917002
 20
88.33057518798346
 11
8.192720165538004
 21
89.04951362564704
  0
LINE
  8
0
 10
8.192720165538004
 20
89.04951362564704
 11
8.017568069766238
 21
89.83673222071477
  0
LINE
  8
0
 10
8.017568069766238
 20
89.83673222071477
 11
7.800971648662413
 21
90.69059239866402
  0
LINE
  8
0
 10
7.800971648662413
 20
90.69059239866402
 11
7.538863340792336
 21
91.60927160231286
  0
LINE
  8
0
 10
7.538863340792336
 20
91.60927160231286
 11
7.227248878572818
 21
92.59076581699601
  0
LINE
  8
0
 10
7.227248878572818
 20
92.59076581699601
 11
7.215211542568722
 21
92.62513086855243
  0
LINE
  8
0
 10
7.215211542568722
 20
92.62513086855243
 11
6.16448579255527
 21
92.74183800741528
  0
LINE
  8
0
 10
6.16448579255527
 20
92.74183800741528
 11
5.107557130212097
 21
92.76522519878944
  0
LINE
  8
0
 10
5.107557130212097
 20
92.76522519878944
 11
5.09107734527415
 21
92.73275566052745
  0
LINE
  8
0
 10
5.09107734527415
 20
92.73275566052745
 11
4.652299759418882
 21
91.80113948601706
  0
LINE
  8
0
 10
4.652299759418882
 20
91.80113948601706
 11
4.270906607839008
 21
90.92523337902453
  0
LINE
  8
0
 10
4.270906607839008
 20
90.92523337902453
 11
3.9432040015032257
 21
90.10755238076494
  0
LINE
  8
0
 10
3.9432040015032257
 20
90.10755238076494
 11
3.6654013856760317
 21
89.35044137192062
  0
LINE
  8
0
 10
3.6654013856760317
 20
89.35044137192062
 11
3.4336183844037453
 21
88.65607161131149
  0
LINE
  8
0
 10
3.4336183844037453
 20
88.65607161131149
 11
3.230631082438347
 21
87.98243012352513
  0
LINE
  8
0
 10
3.230631082438347
 20
87.98243012352513
 11
3.157606764070369
 21
87.82920285180711
  0
LINE
  8
0
 10
3.157606764070369
 20
87.82920285180711
 11
3.080674974470625
 21
87.7568537745992
  0
LINE
  8
0
 10
3.080674974470625
 20
87.7568537745992
 11
0.804119649033993
 21
87.80722825772766
  0
LINE
  8
0
 10
0.804119649033993
 20
87.80722825772766
 11
0.7304634000481336
 21
87.88290947210132
  0
LINE
  8
0
 10
0.7304634000481336
 20
87.88290947210132
 11
0.6642883109083509
 21
88.03921687900394
  0
LINE
  8
0
 10
0.6642883109083509
 20
88.03921687900394
 11
0.4912971051030456
 21
88.72117783209829
  0
LINE
  8
0
 10
0.4912971051030456
 20
88.72117783209829
 11
0.2904552652628894
 21
89.42512049985726
  0
LINE
  8
0
 10
0.2904552652628894
 20
89.42512049985726
 11
0.04641410903276591
 21
90.19377860795183
  0
LINE
  8
0
 10
0.04641410903276591
 20
90.19377860795183
 11
-0.24479898357600918
 21
91.02515466474908
  0
LINE
  8
0
 10
-0.24479898357600918
 20
91.02515466474908
 11
-0.5870745791116437
 21
91.91707375355259
  0
LINE
  8
0
 10
-0.5870745791116437
 20
91.91707375355259
 11
-0.98421419985186
 21
92.86718668797627
  0
LINE
  8
0
 10
-0.98421419985186
 20
92.86718668797627
 11
-0.9992416184694743
 21
92.90035340195656
  0
LINE
  8
0
 10
-0.9992416184694743
 20
92.90035340195656
 11
-2.0561702808126454
 21
92.92374059333062
  0
LINE
  8
0
 10
-2.0561702808126454
 20
92.92374059333062
 11
-3.1110299556658703
 21
92.85362480073381
  0
LINE
  8
0
 10
-3.1110299556658703
 20
92.85362480073381
 11
-3.1245755910853625
 21
92.81982583643563
  0
LINE
  8
0
 10
-3.1245755910853625
 20
92.81982583643563
 11
-3.4792998272298488
 21
91.8530760328411
  0
LINE
  8
0
 10
-3.4792998272298488
 20
91.8530760328411
 11
-3.7817878461947427
 21
90.94688993566153
  0
LINE
  8
0
 10
-3.7817878461947427
 20
90.94688993566153
 11
-4.035941361771986
 21
90.10344627800929
  0
LINE
  8
0
 10
-4.035941361771986
 20
90.10344627800929
 11
-4.245743336381941
 21
89.32474575500736
  0
LINE
  8
0
 10
-4.245743336381941
 20
89.32474575500736
 11
-4.415250857458379
 21
88.61260818092096
  0
LINE
  8
0
 10
-4.415250857458379
 20
88.61260818092096
 11
-4.557907328842991
 21
87.92366273315437
  0
LINE
  8
0
 10
-4.557907328842991
 20
87.92366273315437
 11
-4.617103647758737
 21
87.76458117011805
  0
LINE
  8
0
 10
-4.617103647758737
 20
87.76458117011805
 11
-4.687340170566524
 21
87.68571596811026
  0
LINE
  8
0
 10
-4.687340170566524
 20
87.68571596811026
 11
-6.959439032046422
 21
87.53469112913963
  0
LINE
  8
0
 10
-6.959439032046422
 20
87.53469112913963
 11
-7.039495764667107
 21
87.60356644246625
  0
LINE
  8
0
 10
-7.039495764667107
 20
87.60356644246625
 11
-7.119226363880273
 21
87.75341362937476
  0
LINE
  8
0
 10
-7.119226363880273
 20
87.75341362937476
 11
-7.351812404683574
 21
88.41741696705822
  0
LINE
  8
0
 10
-7.351812404683574
 20
88.41741696705822
 11
-7.61408284127671
 21
89.1008545590966
  0
LINE
  8
0
 10
-7.61408284127671
 20
89.1008545590966
 11
-7.925103105034462
 21
89.84493638833698
  0
LINE
  8
0
 10
-7.925103105034462
 20
89.84493638833698
 11
-8.288653731857222
 21
90.64732167911647
  0
LINE
  8
0
 10
-8.288653731857222
 20
90.64732167911647
 11
-8.708417844448942
 21
91.50550017689619
  0
LINE
  8
0
 10
-8.708417844448942
 20
91.50550017689619
 11
-9.187974467715765
 21
92.4167959091378
  0
LINE
  8
0
 10
-9.187974467715765
 20
92.4167959091378
 11
-9.2058743590213
 21
92.44850471103581
  0
LINE
  8
0
 10
-9.2058743590213
 20
92.44850471103581
 11
-10.260734033874467
 21
92.37838891843903
  0
LINE
  8
0
 10
-10.260734033874467
 20
92.37838891843903
 11
-11.305269014050396
 21
92.21531889301505
  0
LINE
  8
0
 10
-11.305269014050396
 20
92.21531889301505
 11
-11.31577448698843
 21
92.18045502540261
  0
LINE
  8
0
 10
-11.31577448698843
 20
92.18045502540261
 11
-11.58366917532141
 21
91.18613772070489
  0
LINE
  8
0
 10
-11.58366917532141
 20
91.18613772070489
 11
-11.804884682794508
 21
90.25676376820124
  0
LINE
  8
0
 10
-11.804884682794508
 20
90.25676376820124
 11
-11.983500011759748
 21
89.39415854136065
  0
LINE
  8
0
 10
-11.983500011759748
 20
89.39415854136065
 11
-12.123659360241112
 21
88.5999628915948
  0
LINE
  8
0
 10
-12.123659360241112
 20
88.5999628915948
 11
-12.229564774942487
 21
87.87563094610015
  0
LINE
  8
0
 10
-12.229564774942487
 20
87.87563094610015
 11
-12.31077393543694
 21
87.17677347058887
  0
LINE
  8
0
 10
-12.31077393543694
 20
87.17677347058887
 11
-12.355678963443598
 21
87.01308264515573
  0
LINE
  8
0
 10
-12.355678963443598
 20
87.01308264515573
 11
-12.418670523438264
 21
86.92831854548321
  0
LINE
  8
0
 10
-12.418670523438264
 20
86.92831854548321
 11
-14.668530666744857
 21
86.57707635854547
  0
LINE
  8
0
 10
-14.668530666744857
 20
86.57707635854547
 11
-14.754361330522677
 21
86.63860672811367
  0
LINE
  8
0
 10
-14.754361330522677
 20
86.63860672811367
 11
-14.847023439767643
 21
86.78082093762016
  0
LINE
  8
0
 10
-14.847023439767643
 20
86.78082093762016
 11
-15.137384014447846
 21
87.42166993348637
  0
LINE
  8
0
 10
-15.137384014447846
 20
87.42166993348637
 11
-15.459030426028217
 21
88.07925362400753
  0
LINE
  8
0
 10
-15.459030426028217
 20
88.07925362400753
 11
-15.834595642052834
 21
88.7929357252165
  0
LINE
  8
0
 10
-15.834595642052834
 20
88.7929357252165
 11
-16.26763852651453
 21
89.5600504971637
  0
LINE
  8
0
 10
-16.26763852651453
 20
89.5600504971637
 11
-16.761605932844095
 21
90.37777199361308
  0
LINE
  8
0
 10
-16.761605932844095
 20
90.37777199361308
 11
-17.31982637785356
 21
91.24311839898742
  0
LINE
  8
0
 10
-17.31982637785356
 20
91.24311839898742
 11
-17.34045865092799
 21
91.27312112443602
  0
LINE
  8
0
 10
-17.34045865092799
 20
91.27312112443602
 11
-18.384993631103903
 21
91.11005109901198
  0
LINE
  8
0
 10
-18.384993631103903
 20
91.11005109901198
 11
-19.41102901414978
 21
90.85530308480804
  0
LINE
  8
0
 10
-19.41102901414978
 20
90.85530308480804
 11
-19.418412105036772
 21
90.81964717091567
  0
LINE
  8
0
 10
-19.418412105036772
 20
90.81964717091567
 11
-19.59738060639699
 21
89.80554424616926
  0
LINE
  8
0
 10
-19.59738060639699
 20
89.80554424616926
 11
-19.735592291097248
 21
88.86025604961165
  0
LINE
  8
0
 10
-19.735592291097248
 20
88.86025604961165
 11
-19.837271526325722
 21
87.98524030904613
  0
LINE
  8
0
 10
-19.837271526325722
 20
87.98524030904613
 11
-19.906691311741557
 21
87.18176519028606
  0
LINE
  8
0
 10
-19.906691311741557
 20
87.18176519028606
 11
-19.948165766605964
 21
86.45090775294219
  0
LINE
  8
0
 10
-19.948165766605964
 20
86.45090775294219
 11
-19.967292044421935
 21
85.74760775697807
  0
LINE
  8
0
 10
-19.967292044421935
 20
85.74760775697807
 11
-19.997554338790867
 21
85.58058877179738
  0
LINE
  8
0
 10
-19.997554338790867
 20
85.58058877179738
 11
-20.05280794160834
 21
85.49058916846745
  0
LINE
  8
0
 10
-20.05280794160834
 20
85.49058916846745
 11
-22.262821160647125
 21
84.94187857990715
  0
LINE
  8
0
 10
-22.262821160647125
 20
84.94187857990715
 11
-22.35375401426451
 21
84.99558244714909
  0
LINE
  8
0
 10
-22.35375401426451
 20
84.99558244714909
 11
-22.4586224269005
 21
85.12905066024304
  0
LINE
  8
0
 10
-22.4586224269005
 20
85.12905066024304
 11
-22.804485070275316
 21
85.74172980200414
  0
LINE
  8
0
 10
-22.804485070275316
 20
85.74172980200414
 11
-23.182990137567987
 21
86.36831310704486
  0
LINE
  8
0
 10
-23.182990137567987
 20
86.36831310704486
 11
-23.62016099883394
 21
87.04600995013448
  0
LINE
  8
0
 10
-23.62016099883394
 20
87.04600995013448
 11
-24.11930699322242
 21
87.77185049006626
  0
LINE
  8
0
 10
-24.11930699322242
 20
87.77185049006626
 11
-24.683611728589522
 21
88.5427152057678
  0
LINE
  8
0
 10
-24.683611728589522
 20
88.5427152057678
 11
-25.316127163496187
 21
89.3553397753728
  0
LINE
  8
0
 10
-25.316127163496187
 20
89.3553397753728
 11
-25.339330342828408
 21
89.38340161236599
  0
LINE
  8
0
 10
-25.339330342828408
 20
89.38340161236599
 11
-26.365365725874288
 21
89.12865359816215
  0
LINE
  8
0
 10
-26.365365725874288
 20
89.12865359816215
 11
-27.3648713937676
 21
88.78422134378975
  0
LINE
  8
0
 10
-27.3648713937676
 20
88.78422134378975
 11
-27.369074319906996
 21
88.7480524394877
  0
LINE
  8
0
 10
-27.369074319906996
 20
88.7480524394877
 11
-27.45771596311686
 21
87.72210062505027
  0
LINE
  8
0
 10
-27.45771596311686
 20
87.72210062505027
 11
-27.51184213121716
 21
86.76829634624586
  0
LINE
  8
0
 10
-27.51184213121716
 20
86.76829634624586
 11
-27.535789494831405
 21
85.88771827651554
  0
LINE
  8
0
 10
-27.535789494831405
 20
85.88771827651554
 11
-27.53392641323801
 21
85.08125197095734
  0
LINE
  8
0
 10
-27.53392641323801
 20
85.08125197095734
 11
-27.51064531442299
 21
84.3495889921446
  0
LINE
  8
0
 10
-27.51064531442299
 20
84.3495889921446
 11
-27.467539020504205
 21
83.64735075176547
  0
LINE
  8
0
 10
-27.467539020504205
 20
83.64735075176547
 11
-27.48292173775084
 21
83.47831075684897
  0
LINE
  8
0
 10
-27.48292173775084
 20
83.47831075684897
 11
-27.530004949033472
 21
83.38378001878367
  0
LINE
  8
0
 10
-27.530004949033472
 20
83.38378001878367
 11
-29.682874893918807
 21
82.64189543292562
  0
LINE
  8
0
 10
-29.682874893918807
 20
82.64189543292562
 11
-29.778198264504873
 21
82.68735249226573
  0
LINE
  8
0
 10
-29.778198264504873
 20
82.68735249226573
 11
-29.894452243017167
 21
82.81103013921678
  0
LINE
  8
0
 10
-29.894452243017167
 20
82.81103013921678
 11
-30.29311011096428
 21
83.39074438188742
  0
LINE
  8
0
 10
-30.29311011096428
 20
83.39074438188742
 11
-30.72551151862155
 21
83.98142343753268
  0
LINE
  8
0
 10
-30.72551151862155
 20
83.98142343753268
 11
-31.220866570401267
 21
84.61783112585046
  0
LINE
  8
0
 10
-31.220866570401267
 20
84.61783112585046
 11
-31.782209180543283
 21
85.29671674741087
  0
LINE
  8
0
 10
-31.782209180543283
 20
85.29671674741087
 11
-32.41243479528106
 21
86.0146916207872
  0
LINE
  8
0
 10
-32.41243479528106
 20
86.0146916207872
 11
-33.114294929210644
 21
86.76823446556857
  0
LINE
  8
0
 10
-33.114294929210644
 20
86.76823446556857
 11
-33.13988741846237
 21
86.79413579218433
  0
LINE
  8
0
 10
-33.13988741846237
 20
86.79413579218433
 11
-34.13939308635566
 21
86.44970353781197
  0
LINE
  8
0
 10
-34.13939308635566
 20
86.44970353781197
 11
-35.10454655206529
 21
86.01828269266005
  0
LINE
  8
0
 10
-35.10454655206529
 20
86.01828269266005
 11
-35.1055364198615
 21
85.98188386866403
  0
LINE
  8
0
 10
-35.1055364198615
 20
85.98188386866403
 11
-35.103157463878105
 21
84.95211262852048
  0
LINE
  8
0
 10
-35.103157463878105
 20
84.95211262852048
 11
-35.072774504726105
 21
83.99725707916654
  0
LINE
  8
0
 10
-35.072774504726105
 20
83.99725707916654
 11
-35.01880257613679
 21
83.11800839759891
  0
LINE
  8
0
 10
-35.01880257613679
 20
83.11800839759891
 11
-34.945671208673694
 21
82.31486259753103
  0
LINE
  8
0
 10
-34.945671208673694
 20
82.31486259753103
 11
-34.857816762343155
 21
81.58812033208397
  0
LINE
  8
0
 10
-34.857816762343155
 20
81.58812033208397
 11
-34.7528152618852
 21
80.89243981365057
  0
LINE
  8
0
 10
-34.7528152618852
 20
80.89243981365057
 11
-34.75319801139043
 21
80.72270177615138
  0
LINE
  8
0
 10
-34.75319801139043
 20
80.72270177615138
 11
-34.791742341172146
 21
80.62437973454557
  0
LINE
  8
0
 10
-34.791742341172146
 20
80.62437973454557
 11
-36.870619885616364
 21
79.6951274041584
  0
LINE
  8
0
 10
-36.870619885616364
 20
79.6951274041584
 11
-36.96958773855208
 21
79.7319818924744
  0
LINE
  8
0
 10
-36.96958773855208
 20
79.7319818924744
 11
-37.09631743793584
 21
79.8449010280068
  0
LINE
  8
0
 10
-37.09631743793584
 20
79.8449010280068
 11
-37.54465049211825
 21
80.38711332163247
  0
LINE
  8
0
 10
-37.54465049211825
 20
80.38711332163247
 11
-38.027564112853696
 21
80.9372652633996
  0
LINE
  8
0
 10
-38.027564112853696
 20
80.9372652633996
 11
-38.577226530239805
 21
81.527403043911
  0
LINE
  8
0
 10
-38.577226530239805
 20
81.527403043911
 11
-39.196372489114566
 21
82.15402054664418
  0
LINE
  8
0
 10
-39.196372489114566
 20
82.15402054664418
 11
-39.8875866132962
 21
82.81348645084482
  0
LINE
  8
0
 10
-39.8875866132962
 20
82.81348645084482
 11
-40.65329843908357
 21
83.50205007635101
  0
LINE
  8
0
 10
-40.65329843908357
 20
83.50205007635101
 11
-40.68107994232683
 21
83.5255881795903
  0
LINE
  8
0
 10
-40.68107994232683
 20
83.5255881795903
 11
-41.646233408036416
 21
83.09416733443838
  0
LINE
  8
0
 10
-41.646233408036416
 20
83.09416733443838
 11
-42.56948103708973
 21
82.5791343515622
  0
LINE
  8
0
 10
-42.56948103708973
 20
82.5791343515622
 11
-42.567250099485136
 21
82.54279047802136
  0
LINE
  8
0
 10
-42.567250099485136
 20
82.54279047802136
 11
-42.47386916286455
 21
81.51725916834124
  0
LINE
  8
0
 10
-42.47386916286455
 20
81.51725916834124
 11
-42.35921486431035
 21
80.56882538775248
  0
LINE
  8
0
 10
-42.35921486431035
 20
80.56882538775248
 11
-42.227746047036554
 21
79.69778740741025
  0
LINE
  8
0
 10
-42.227746047036554
 20
79.69778740741025
 11
-42.08391874580933
 21
78.90424781766353
  0
LINE
  8
0
 10
-42.08391874580933
 20
78.90424781766353
 11
-41.93217853212327
 21
78.18811400916286
  0
LINE
  8
0
 10
-41.93217853212327
 20
78.18811400916286
 11
-41.76610360423353
 21
77.50443585597041
  0
LINE
  8
0
 10
-41.76610360423353
 20
77.50443585597041
 11
-41.751483390463505
 21
77.33532820617131
  0
LINE
  8
0
 10
-41.751483390463505
 20
77.33532820617131
 11
-41.78118717710345
 21
77.23398436431052
  0
LINE
  8
0
 10
-41.78118717710345
 20
77.23398436431052
 11
-43.7698022856749
 21
76.12463694880638
  0
LINE
  8
0
 10
-43.7698022856749
 20
76.12463694880638
 11
-43.871640063325465
 21
76.15260042975802
  0
LINE
  8
0
 10
-43.871640063325465
 20
76.15260042975802
 11
-44.00785365185654
 21
76.25387730853481
  0
LINE
  8
0
 10
-44.00785365185654
 20
76.25387730853481
 11
-44.50235307825287
 21
76.75434410675928
  0
LINE
  8
0
 10
-44.50235307825287
 20
76.75434410675928
 11
-45.031999458225755
 21
77.25966324978039
  0
LINE
  8
0
 10
-45.031999458225755
 20
77.25966324978039
 11
-45.63166738754235
 21
77.79891249421455
  0
LINE
  8
0
 10
-45.63166738754235
 20
77.79891249421455
 11
-46.30377103855254
 21
78.3683577465622
  0
LINE
  8
0
 10
-46.30377103855254
 20
78.3683577465622
 11
-47.05056398447357
 21
78.96415346674988
  0
LINE
  8
0
 10
-47.05056398447357
 20
78.96415346674988
 11
-47.87413476889149
 21
79.58234892902222
  0
LINE
  8
0
 10
-47.87413476889149
 20
79.58234892902222
 11
-47.903887858195816
 21
79.60333959131297
  0
LINE
  8
0
 10
-47.903887858195816
 20
79.60333959131297
 11
-48.82713548724914
 21
79.08830660843677
  0
LINE
  8
0
 10
-48.82713548724914
 20
79.08830660843677
 11
-49.70125161516343
 21
78.49369231923494
  0
LINE
  8
0
 10
-49.70125161516343
 20
78.49369231923494
 11
-49.6958173322696
 21
78.45768783623657
  0
LINE
  8
0
 10
-49.6958173322696
 20
78.45768783623657
 11
-49.51216524745144
 21
77.44442262998486
  0
LINE
  8
0
 10
-49.51216524745144
 20
77.44442262998486
 11
-49.314136934835275
 21
76.50983339842843
  0
LINE
  8
0
 10
-49.314136934835275
 20
76.50983339842843
 11
-49.10620015062415
 21
75.6538231725047
  0
LINE
  8
0
 10
-49.10620015062415
 20
75.6538231725047
 11
-48.89280255927316
 21
74.87610031628965
  0
LINE
  8
0
 10
-48.89280255927316
 20
74.87610031628965
 11
-48.678364151140656
 21
74.176179682757
  0
LINE
  8
0
 10
-48.678364151140656
 20
74.176179682757
 11
-48.452515557302576
 21
73.50985460331935
  0
LINE
  8
0
 10
-48.452515557302576
 20
73.50985460331935
 11
-48.42300680325288
 21
73.34270083786464
  0
LINE
  8
0
 10
-48.42300680325288
 20
73.34270083786464
 11
-48.443637574346695
 21
73.23912834871848
  0
LINE
  8
0
 10
-48.443637574346695
 20
73.23912834871848
 11
-50.326426637556814
 21
71.9583679957325
  0
LINE
  8
0
 10
-50.326426637556814
 20
71.9583679957325
 11
-50.43033732123535
 21
71.97722161716707
  0
LINE
  8
0
 10
-50.43033732123535
 20
71.97722161716707
 11
-50.574968742898285
 21
72.06606361029556
  0
LINE
  8
0
 10
-50.574968742898285
 20
72.06606361029556
 11
-51.11176441302985
 21
72.52086808186475
  0
LINE
  8
0
 10
-51.11176441302985
 20
72.52086808186475
 11
-51.68399835119579
 21
72.97739961870867
  0
LINE
  8
0
 10
-51.68399835119579
 20
72.97739961870867
 11
-52.32897857783615
 21
73.46153997058673
  0
LINE
  8
0
 10
-52.32897857783615
 20
73.46153997058673
 11
-53.0487797986408
 21
73.96935629136684
  0
LINE
  8
0
 10
-53.0487797986408
 20
73.96935629136684
 11
-53.84530689896011
 21
74.49681891822138
  0
LINE
  8
0
 10
-53.84530689896011
 20
74.49681891822138
 11
-54.720291083981955
 21
75.03980799958723
  0
LINE
  8
0
 10
-54.720291083981955
 20
75.03980799958723
 11
-54.751782901082834
 21
75.05808694053688
  0
LINE
  8
0
 10
-54.751782901082834
 20
75.05808694053688
 11
-55.625899028997075
 21
74.463472651335
  0
LINE
  8
0
 10
-55.625899028997075
 20
74.463472651335
 11
-56.444042511900896
 21
73.79393071882821
  0
LINE
  8
0
 10
-56.444042511900896
 20
73.79393071882821
 11
-56.4354474143496
 21
73.75854741026853
  0
LINE
  8
0
 10
-56.4354474143496
 20
73.75854741026853
 11
-56.162961507902274
 21
72.76547848151992
  0
LINE
  8
0
 10
-56.162961507902274
 20
72.76547848151992
 11
-55.88310902126705
 21
71.85204822689566
  0
LINE
  8
0
 10
-55.88310902126705
 20
71.85204822689566
 11
-55.600331657386185
 21
71.01776519602986
  0
LINE
  8
0
 10
-55.600331657386185
 20
71.01776519602986
 11
-55.3190339013989
 21
70.26194580917196
  0
LINE
  8
0
 10
-55.3190339013989
 20
70.26194580917196
 11
-55.04357557010993
 21
69.58371617855218
  0
LINE
  8
0
 10
-55.04357557010993
 20
69.58371617855218
 11
-54.759720881787125
 21
68.93995907005288
  0
LINE
  8
0
 10
-54.759720881787125
 20
68.93995907005288
 11
-54.71555453346766
 21
68.77606739379269
  0
LINE
  8
0
 10
-54.71555453346766
 20
68.77606739379269
 11
-54.7269508252593
 21
68.67107685251749
  0
LINE
  8
0
 10
-54.7269508252593
 20
68.67107685251749
 11
-56.4891784659087
 21
67.22892724833086
  0
LINE
  8
0
 10
-56.4891784659087
 20
67.22892724833086
 11
-56.594348813628116
 21
67.23852345509793
  0
LINE
  8
0
 10
-56.594348813628116
 20
67.23852345509793
 11
-56.746266131449865
 21
67.31423525352547
  0
LINE
  8
0
 10
-56.746266131449865
 20
67.31423525352547
 11
-57.32115689138343
 21
67.71981793680267
  0
LINE
  8
0
 10
-57.32115689138343
 20
67.71981793680267
 11
-57.93149988131282
 21
68.12398888920526
  0
LINE
  8
0
 10
-57.93149988131282
 20
68.12398888920526
 11
-58.61674456050697
 21
68.54923129385202
  0
LINE
  8
0
 10
-58.61674456050697
 20
68.54923129385202
 11
-59.37860993061073
 21
68.99144433183167
  0
LINE
  8
0
 10
-59.37860993061073
 20
68.99144433183167
 11
-60.21863728079695
 21
69.44644575513766
  0
LINE
  8
0
 10
-60.21863728079695
 20
69.44644575513766
 11
-61.138186928827515
 21
69.90997882982352
  0
LINE
  8
0
 10
-61.138186928827515
 20
69.90997882982352
 11
-61.171171007558
 21
69.92540299193564
  0
LINE
  8
0
 10
-61.171171007558
 20
69.92540299193564
 11
-61.989314490461844
 21
69.2558610594289
  0
LINE
  8
0
 10
-61.989314490461844
 20
69.2558610594289
 11
-62.745082246321545
 21
68.51663155703758
  0
LINE
  8
0
 10
-62.745082246321545
 20
68.51663155703758
 11
-62.73339360240474
 21
68.48214634528048
  0
LINE
  8
0
 10
-62.73339360240474
 20
68.48214634528048
 11
-62.374206445996236
 21
67.51704580485502
  0
LINE
  8
0
 10
-62.374206445996236
 20
67.51704580485502
 11
-62.01472001048792
 21
66.63192335737989
  0
LINE
  8
0
 10
-62.01472001048792
 20
66.63192335737989
 11
-61.65931518321339
 21
65.82589691745126
  0
LINE
  8
0
 10
-61.65931518321339
 20
65.82589691745126
 11
-61.312318798928004
 21
65.09789631143052
  0
LINE
  8
0
 10
-61.312318798928004
 20
65.09789631143052
 11
-60.97799637940511
 21
64.4466657501609
  0
LINE
  8
0
 10
-60.97799637940511
 20
64.4466657501609
 11
-60.63835714439813
 21
63.830514884812104
  0
LINE
  8
0
 10
-60.63835714439813
 20
63.830514884812104
 11
-60.57987886336742
 21
63.6711679723257
  0
LINE
  8
0
 10
-60.57987886336742
 20
63.6711679723257
 11
-60.58195148442197
 21
63.5655810722584
  0
LINE
  8
0
 10
-60.58195148442197
 20
63.5655810722584
 11
-62.20982588190603
 21
61.97332899286259
  0
LINE
  8
0
 10
-62.20982588190603
 20
61.97332899286259
 11
-62.31543279310018
 21
61.973592681633185
  0
LINE
  8
0
 10
-62.31543279310018
 20
61.973592681633185
 11
-62.473447048091664
 21
62.035581737883206
  0
LINE
  8
0
 10
-62.473447048091664
 20
62.035581737883206
 11
-63.081933598165065
 21
62.38876839846245
  0
LINE
  8
0
 10
-63.081933598165065
 20
62.38876839846245
 11
-63.7256088784281
 21
62.737415580725944
  0
LINE
  8
0
 10
-63.7256088784281
 20
62.737415580725944
 11
-64.44575504147225
 21
63.10043193976009
  0
LINE
  8
0
 10
-64.44575504147225
 20
63.10043193976009
 11
-65.24372193137881
 21
63.47358077834248
  0
LINE
  8
0
 10
-65.24372193137881
 20
63.47358077834248
 11
-66.12067517846556
 21
63.852559995048836
  0
LINE
  8
0
 10
-66.12067517846556
 20
63.852559995048836
 11
-67.07759356673753
 21
64.23300928826391
  0
LINE
  8
0
 10
-67.07759356673753
 20
64.23300928826391
 11
-67.11181176195996
 21
64.245457956557
  0
LINE
  8
0
 10
-67.11181176195996
 20
64.245457956557
 11
-67.8675795178197
 21
63.50622845416575
  0
LINE
  8
0
 10
-67.8675795178197
 20
63.50622845416575
 11
-68.55505663923805
 21
62.703096855030665
  0
LINE
  8
0
 10
-68.55505663923805
 20
62.703096855030665
 11
-68.54036592844243
 21
62.66977963361493
  0
LINE
  8
0
 10
-68.54036592844243
 20
62.66977963361493
 11
-68.0972886485756
 21
61.74020070177313
  0
LINE
  8
0
 10
-68.0972886485756
 20
61.74020070177313
 11
-67.66098173296177
 21
60.89031334469197
  0
LINE
  8
0
 10
-67.66098173296177
 20
60.89031334469197
 11
-67.23573096694267
 21
60.118851745444005
  0
LINE
  8
0
 10
-67.23573096694267
 20
60.118851745444005
 11
-66.8257516715413
 21
59.42436751206221
  0
LINE
  8
0
 10
-66.8257516715413
 20
59.42436751206221
 11
-66.43518169000833
 21
58.805232782255764
  0
LINE
  8
0
 10
-66.43518169000833
 20
58.805232782255764
 11
-66.04241604583098
 21
58.22151037598702
  0
LINE
  8
0
 10
-66.04241604583098
 20
58.22151037598702
 11
-65.97008350392589
 21
58.06795533291515
  0
LINE
  8
0
 10
-65.97008350392589
 20
58.06795533291515
 11
-65.96281623317343
 21
57.96259843470878
  0
LINE
  8
0
 10
-65.96281623317343
 20
57.96259843470878
 11
-67.44359706317815
 21
56.232705411480204
  0
LINE
  8
0
 10
-67.44359706317815
 20
56.232705411480204
 11
-67.54881402057981
 21
56.22363451853218
  0
LINE
  8
0
 10
-67.54881402057981
 20
56.22363451853218
 11
-67.7116885369521
 21
56.27141568419167
  0
LINE
  8
0
 10
-67.7116885369521
 20
56.27141568419167
 11
-68.34900864489443
 21
56.569442157585755
  0
LINE
  8
0
 10
-68.34900864489443
 20
56.569442157585755
 11
-69.02097858369585
 21
56.859836932795616
  0
LINE
  8
0
 10
-69.02097858369585
 20
56.859836932795616
 11
-69.77039011045396
 21
57.15778615101194
  0
LINE
  8
0
 10
-69.77039011045396
 20
57.15778615101194
 11
-70.59821334732631
 21
57.45895039460127
  0
LINE
  8
0
 10
-70.59821334732631
 20
57.45895039460127
 11
-71.50522914313797
 21
57.75894137849825
  0
LINE
  8
0
 10
-71.50522914313797
 20
57.75894137849825
 11
-72.4920270878252
 21
58.0533293586909
  0
LINE
  8
0
 10
-72.4920270878252
 20
58.0533293586909
 11
-72.52721159576737
 21
58.06270510545721
  0
LINE
  8
0
 10
-72.52721159576737
 20
58.06270510545721
 11
-73.21468871718562
 21
57.25957350632212
  0
LINE
  8
0
 10
-73.21468871718562
 20
57.25957350632212
 11
-73.82849476357138
 21
56.39882540413238
  0
LINE
  8
0
 10
-73.82849476357138
 20
56.39882540413238
 11
-73.81091696062732
 21
56.366936925488744
  0
LINE
  8
0
 10
-73.81091696062732
 20
56.366936925488744
 11
-73.28741723776349
 21
55.480154817741955
  0
LINE
  8
0
 10
-73.28741723776349
 20
55.480154817741955
 11
-72.7777045352256
 21
54.672154071943815
  0
LINE
  8
0
 10
-72.7777045352256
 20
54.672154071943815
 11
-72.28593599428233
 21
53.94129504637692
  0
LINE
  8
0
 10
-72.28593599428233
 20
53.94129504637692
 11
-71.81618243162195
 21
53.28576246637681
  0
LINE
  8
0
 10
-71.81618243162195
 20
53.28576246637681
 11
-71.37242162773879
 21
52.70356913674814
  0
LINE
  8
0
 10
-71.37242162773879
 20
52.70356913674814
 11
-70.92960349808813
 21
52.15684360882861
  0
LINE
  8
0
 10
-70.92960349808813
 20
52.15684360882861
 11
-70.84398279552113
 21
52.010282211580936
  0
LINE
  8
0
 10
-70.84398279552113
 20
52.010282211580936
 11
-70.82743250920862
 21
51.905979875812115
  0
LINE
  8
0
 10
-70.82743250920862
 20
51.905979875812115
 11
-72.14953065402236
 21
50.05198466713319
  0
LINE
  8
0
 10
-72.14953065402236
 20
50.05198466713319
 11
-72.25353419228145
 21
50.03365018450263
  0
LINE
  8
0
 10
-72.25353419228145
 20
50.03365018450263
 11
-72.41999425611048
 21
50.06684950716621
  0
LINE
  8
0
 10
-72.41999425611048
 20
50.06684950716621
 11
-73.08116002796655
 21
50.3073833321416
  0
LINE
  8
0
 10
-73.08116002796655
 20
50.3073833321416
 11
-73.77616554944473
 21
50.53725296745001
  0
LINE
  8
0
 10
-73.77616554944473
 20
50.53725296745001
 11
-74.54897727863022
 21
50.76780318824148
  0
LINE
  8
0
 10
-74.54897727863022
 20
50.76780318824148
 11
-75.40017802323557
 21
50.9946258182981
  0
LINE
  8
0
 10
-75.40017802323557
 20
50.9946258182981
 11
-76.33015773939248
 21
51.213280733193905
  0
LINE
  8
0
 10
-76.33015773939248
 20
51.213280733193905
 11
-77.3391122086277
 21
51.41930341527316
  0
LINE
  8
0
 10
-77.3391122086277
 20
51.41930341527316
 11
-77.37498766280993
 21
51.42553286258204
  0
LINE
  8
0
 10
-77.37498766280993
 20
51.42553286258204
 11
-77.98879370919569
 21
50.564784760392335
  0
LINE
  8
0
 10
-77.98879370919569
 20
50.564784760392335
 11
-78.52412481600697
 21
49.6531566760931
  0
LINE
  8
0
 10
-78.52412481600697
 20
49.6531566760931
 11
-78.50379749105542
 21
49.62294651080293
  0
LINE
  8
0
 10
-78.50379749105542
 20
49.62294651080293
 11
-77.90397242031315
 21
48.78590149948789
  0
LINE
  8
0
 10
-77.90397242031315
 20
48.78590149948789
 11
-77.32484312384258
 21
48.026111066336526
  0
LINE
  8
0
 10
-77.32484312384258
 20
48.026111066336526
 11
-76.77040556357245
 21
47.34157457726106
  0
LINE
  8
0
 10
-76.77040556357245
 20
47.34157457726106
 11
-76.24455419219633
 21
46.73012408188506
  0
LINE
  8
0
 10
-76.24455419219633
 20
46.73012408188506
 11
-75.75107559592647
 21
46.1894286046054
  0
LINE
  8
0
 10
-75.75107559592647
 20
46.1894286046054
 11
-75.26167063306198
 21
45.68397882356892
  0
LINE
  8
0
 10
-75.26167063306198
 20
45.68397882356892
 11
-75.16343186791953
 21
45.54555811379418
  0
LINE
  8
0
 10
-75.16343186791953
 20
45.54555811379418
 11
-75.13772809447707
 21
45.443126647658644
  0
LINE
  8
0
 10
-75.13772809447707
 20
45.443126647658644
 11
-76.29079634354977
 21
43.479539279776894
  0
LINE
  8
0
 10
-76.29079634354977
 20
43.479539279776894
 11
-76.39277249396618
 21
43.452084699649205
  0
LINE
  8
0
 10
-76.39277249396618
 20
43.452084699649205
 11
-76.5615153295576
 21
43.470442349603715
  0
LINE
  8
0
 10
-76.5615153295576
 20
43.470442349603715
 11
-77.24135224672096
 21
43.65160102285215
  0
LINE
  8
0
 10
-77.24135224672096
 20
43.65160102285215
 11
-77.95395399034702
 21
43.819146476694065
  0
LINE
  8
0
 10
-77.95395399034702
 20
43.819146476694065
 11
-78.74411762236211
 21
43.98049333199146
  0
LINE
  8
0
 10
-78.74411762236211
 20
43.98049333199146
 11
-79.61203407477333
 21
44.13119915389767
  0
LINE
  8
0
 10
-79.61203407477333
 20
44.13119915389767
 11
-80.55769935908344
 21
44.26680672861995
  0
LINE
  8
0
 10
-80.55769935908344
 20
44.26680672861995
 11
-81.58091391615386
 21
44.38285170576267
  0
LINE
  8
0
 10
-81.58091391615386
 20
44.38285170576267
 11
-81.61719954250549
 21
44.38588609974275
  0
LINE
  8
0
 10
-81.61719954250549
 20
44.38588609974275
 11
-82.15253064931679
 21
43.47425801544352
  0
LINE
  8
0
 10
-82.15253064931679
 20
43.47425801544352
 11
-82.60519712481408
 21
42.518884674825436
  0
LINE
  8
0
 10
-82.60519712481408
 20
42.518884674825436
 11
-82.58227936673353
 21
42.490589258392575
  0
LINE
  8
0
 10
-82.58227936673353
 20
42.490589258392575
 11
-81.91082339256428
 21
41.709832355630404
  0
LINE
  8
0
 10
-81.91082339256428
 20
41.709832355630404
 11
-81.26680997411844
 21
41.004198625427165
  0
LINE
  8
0
 10
-81.26680997411844
 20
41.004198625427165
 11
-80.65404262016479
 21
40.371342098999015
  0
LINE
  8
0
 10
-80.65404262016479
 20
40.371342098999015
 11
-80.07620894002956
 21
39.80875911740866
  0
LINE
  8
0
 10
-80.07620894002956
 20
39.80875911740866
 11
-79.53687469047182
 21
39.31379316768975
  0
LINE
  8
0
 10
-79.53687469047182
 20
39.31379316768975
 11
-79.00471315178774
 21
38.85357496338707
  0
LINE
  8
0
 10
-79.00471315178774
 20
38.85357496338707
 11
-78.89462517560408
 21
38.72437827081699
  0
LINE
  8
0
 10
-78.89462517560408
 20
38.72437827081699
 11
-78.85996908190933
 21
38.62461933941896
  0
LINE
  8
0
 10
-78.85996908190933
 20
38.62461933941896
 11
-79.83498311280425
 21
36.5668075458182
  0
LINE
  8
0
 10
-79.83498311280425
 20
36.5668075458182
 11
-79.93413377373662
 21
36.530447737507174
  0
LINE
  8
0
 10
-79.93413377373662
 20
36.530447737507174
 11
-80.10383873961193
 21
36.5338200412515
  0
LINE
  8
0
 10
-80.10383873961193
 20
36.5338200412515
 11
-80.79702615644884
 21
36.65418575053082
  0
LINE
  8
0
 10
-80.79702615644884
 20
36.65418575053082
 11
-81.52164704739772
 21
36.75809575256339
  0
LINE
  8
0
 10
-81.52164704739772
 20
36.75809575256339
 11
-82.32297848047848
 21
36.84897648446185
  0
LINE
  8
0
 10
-82.32297848047848
 20
36.84897648446185
 11
-83.20081801769084
 21
36.92238602082674
  0
LINE
  8
0
 10
-83.20081801769084
 20
36.92238602082674
 11
-84.15476775712403
 21
36.97388494223975
  0
LINE
  8
0
 10
-84.15476775712403
 20
36.97388494223975
 11
-85.184234360795
 21
36.999044005160194
  0
LINE
  8
0
 10
-85.184234360795
 20
36.999044005160194
 11
-85.22064617509189
 21
36.99885959756436
  0
LINE
  8
0
 10
-85.22064617509189
 20
36.99885959756436
 11
-85.67331265058914
 21
36.04348625694631
  0
LINE
  8
0
 10
-85.67331265058914
 20
36.04348625694631
 11
-86.0397717658538
 21
35.051844751742784
  0
LINE
  8
0
 10
-86.0397717658538
 20
35.051844751742784
 11
-86.01444293717434
 21
35.025685534165206
  0
LINE
  8
0
 10
-86.01444293717434
 20
35.025685534165206
 11
-85.27661111296963
 21
34.30732722130934
  0
LINE
  8
0
 10
-85.27661111296963
 20
34.30732722130934
 11
-84.57275385073352
 21
33.66137273472665
  0
LINE
  8
0
 10
-84.57275385073352
 20
33.66137273472665
 11
-83.90645243846171
 21
33.0851491313237
  0
LINE
  8
0
 10
-83.90645243846171
 20
33.0851491313237
 11
-83.28115878157033
 21
32.57583663812814
  0
LINE
  8
0
 10
-83.28115878157033
 20
32.57583663812814
 11
-82.70018990048388
 21
32.13047399562617
  0
LINE
  8
0
 10
-82.70018990048388
 20
32.13047399562617
 11
-82.12943667155166
 21
31.719089199492853
  0
LINE
  8
0
 10
-82.12943667155166
 20
31.719089199492853
 11
-82.00836107200327
 21
31.600127663418156
  0
LINE
  8
0
 10
-82.00836107200327
 20
31.600127663418156
 11
-81.96502388897785
 21
31.50382201565397
  0
LINE
  8
0
 10
-81.96502388897785
 20
31.50382201565397
 11
-82.75435289493038
 21
29.36789096370348
  0
LINE
  8
0
 10
-82.75435289493038
 20
29.36789096370348
 11
-82.84990207802346
 21
29.322910492007594
  0
LINE
  8
0
 10
-82.84990207802346
 20
29.322910492007594
 11
-83.01924100273018
 21
29.311271056692608
  0
LINE
  8
0
 10
-83.01924100273018
 20
29.311271056692608
 11
-83.72035378784562
 21
29.36990177712983
  0
LINE
  8
0
 10
-83.72035378784562
 20
29.36990177712983
 11
-84.45132268516838
 21
29.409363090700783
  0
LINE
  8
0
 10
-84.45132268516838
 20
29.409363090700783
 11
-85.25755041436562
 21
29.429066434252544
  0
LINE
  8
0
 10
-85.25755041436562
 20
29.429066434252544
 11
-86.13844275178158
 21
29.42460515592173
  0
LINE
  8
0
 10
-86.13844275178158
 20
29.42460515592173
 11
-87.09321099621397
 21
29.391592375140576
  0
LINE
  8
0
 10
-87.09321099621397
 20
29.391592375140576
 11
-88.12087267450934
 21
29.32566862005948
  0
LINE
  8
0
 10
-88.12087267450934
 20
29.32566862005948
 11
-88.15712570493572
 21
29.322266854127278
  0
LINE
  8
0
 10
-88.15712570493572
 20
29.322266854127278
 11
-88.52358482020034
 21
28.330625348923718
  0
LINE
  8
0
 10
-88.52358482020034
 20
28.330625348923718
 11
-88.80096853579168
 21
27.310476618430133
  0
LINE
  8
0
 10
-88.80096853579168
 20
27.310476618430133
 11
-88.77342686893982
 21
27.286658331053353
  0
LINE
  8
0
 10
-88.77342686893982
 20
27.286658331053353
 11
-87.97499372911342
 21
26.6363207358881
  0
LINE
  8
0
 10
-87.97499372911342
 20
26.6363207358881
 11
-87.21680126048898
 21
26.055100962600918
  0
LINE
  8
0
 10
-87.21680126048898
 20
26.055100962600918
 11
-86.5021805018549
 21
25.54002001319265
  0
LINE
  8
0
 10
-86.5021805018549
 20
25.54002001319265
 11
-85.83432063887697
 21
25.087964069202528
  0
LINE
  8
0
 10
-85.83432063887697
 20
25.087964069202528
 11
-85.21626399546308
 21
24.69569030044006
  0
LINE
  8
0
 10
-85.21626399546308
 20
24.69569030044006
 11
-84.61138599415494
 21
24.336358556281972
  0
LINE
  8
0
 10
-84.61138599415494
 20
24.336358556281972
 11
-84.48027035196863
 21
24.22856321201645
  0
LINE
  8
0
 10
-84.48027035196863
 20
24.22856321201645
 11
-84.42859125182845
 21
24.13646457015589
  0
LINE
  8
0
 10
-84.42859125182845
 20
24.13646457015589
 11
-85.02605766315517
 21
21.93913081633953
  0
LINE
  8
0
 10
-85.02605766315517
 20
21.93913081633953
 11
-85.1172575665009
 21
21.88588171443659
  0
LINE
  8
0
 10
-85.1172575665009
 20
21.88588171443659
 11
-85.28490514335502
 21
21.859321634424955
  0
LINE
  8
0
 10
-85.28490514335502
 20
21.859321634424955
 11
-85.98845613860165
 21
21.855758501138194
  0
LINE
  8
0
 10
-85.98845613860165
 20
21.855758501138194
 11
-86.72005221959243
 21
21.830462287965197
  0
LINE
  8
0
 10
-86.72005221959243
 20
21.830462287965197
 11
-87.52486641980123
 21
21.778834037792187
  0
LINE
  8
0
 10
-87.52486641980123
 20
21.778834037792187
 11
-88.40191738052256
 21
21.696536860317437
  0
LINE
  8
0
 10
-88.40191738052256
 20
21.696536860317437
 11
-89.35003177391879
 21
21.579270747112133
  0
LINE
  8
0
 10
-89.35003177391879
 20
21.579270747112133
 11
-90.3678456808507
 21
21.42278011679573
  0
LINE
  8
0
 10
-90.3678456808507
 20
21.42278011679573
 11
-90.40365619828982
 21
21.41618761595781
  0
LINE
  8
0
 10
-90.40365619828982
 20
21.41618761595781
 11
-90.68103991388118
 21
20.39603888546433
  0
LINE
  8
0
 10
-90.68103991388118
 20
20.39603888546433
 11
-90.86717732613414
 21
19.355366976665657
  0
LINE
  8
0
 10
-90.86717732613414
 20
19.355366976665657
 11
-90.83763837199521
 21
19.334076029882382
  0
LINE
  8
0
 10
-90.83763837199521
 20
19.334076029882382
 11
-89.98485273842194
 21
18.756848925850203
  0
LINE
  8
0
 10
-89.98485273842194
 20
18.756848925850203
 11
-89.17825894747149
 21
18.244912698631403
  0
LINE
  8
0
 10
-89.17825894747149
 20
18.244912698631403
 11
-88.42091171883008
 21
17.79500561001948
  0
LINE
  8
0
 10
-88.42091171883008
 20
17.79500561001948
 11
-87.71571255871129
 21
17.403744165916624
  0
LINE
  8
0
 10
-87.71571255871129
 20
17.403744165916624
 11
-87.06540528419681
 21
17.067629344998657
  0
LINE
  8
0
 10
-87.06540528419681
 20
17.067629344998657
 11
-86.43113650099691
 21
16.763162910913827
  0
LINE
  8
0
 10
-86.43113650099691
 20
16.763162910913827
 11
-86.29100697384592
 21
16.667377403180684
  0
LINE
  8
0
 10
-86.29100697384592
 20
16.667377403180684
 11
-86.2313904156187
 21
16.58020656396827
  0
LINE
  8
0
 10
-86.2313904156187
 20
16.58020656396827
 11
-86.63231824757611
 21
14.338667224164864
  0
LINE
  8
0
 10
-86.63231824757611
 20
14.338667224164864
 11
-86.7184551082774
 21
14.277566238475055
  0
LINE
  8
0
 10
-86.7184551082774
 20
14.277566238475055
 11
-86.88309926768504
 21
14.236293382404352
  0
LINE
  8
0
 10
-86.88309926768504
 20
14.236293382404352
 11
-87.58358223261533
 21
14.170564281742653
  0
LINE
  8
0
 10
-87.58358223261533
 20
14.170564281742653
 11
-88.3100797660058
 21
14.080708518991662
  0
LINE
  8
0
 10
-88.3100797660058
 20
14.080708518991662
 11
-89.1071816749021
 21
13.95815273615166
  0
LINE
  8
0
 10
-89.1071816749021
 20
13.95815273615166
 11
-89.97352714601149
 21
13.798663746529348
  0
LINE
  8
0
 10
-89.97352714601149
 20
13.798663746529348
 11
-90.90756740774225
 21
13.598062067230991
  0
LINE
  8
0
 10
-90.90756740774225
 20
13.598062067230991
 11
-91.90756776948588
 21
13.35222931303935
  0
LINE
  8
0
 10
-91.90756776948588
 20
13.35222931303935
 11
-91.94265550808501
 21
13.342497672553225
  0
LINE
  8
0
 10
-91.94265550808501
 20
13.342497672553225
 11
-92.12879292033787
 21
12.301825763754536
  0
LINE
  8
0
 10
-92.12879292033787
 20
12.301825763754536
 11
-92.22222725162703
 21
11.248775345332202
  0
LINE
  8
0
 10
-92.22222725162703
 20
11.248775345332202
 11
-92.19092219256775
 21
11.230178369668383
  0
LINE
  8
0
 10
-92.19092219256775
 20
11.230178369668383
 11
-91.29045826907979
 21
10.730579341491765
  0
LINE
  8
0
 10
-91.29045826907979
 20
10.730579341491765
 11
-90.44177584583781
 21
10.29193325542812
  0
LINE
  8
0
 10
-90.44177584583781
 20
10.29193325542812
 11
-89.64762941610253
 21
9.910721160587514
  0
LINE
  8
0
 10
-89.64762941610253
 20
9.910721160587514
 11
-88.91061009841516
 21
9.583316367663906
  0
LINE
  8
0
 10
-88.91061009841516
 20
9.583316367663906
 11
-88.23314172894237
 21
9.305991048785438
  0
LINE
  8
0
 10
-88.23314172894237
 20
9.305991048785438
 11
-87.57444617705265
 21
9.058772787431424
  0
LINE
  8
0
 10
-87.57444617705265
 20
9.058772787431424
 11
-87.42639946848159
 21
8.975746767699464
  0
LINE
  8
0
 10
-87.42639946848159
 20
8.975746767699464
 11
-87.35931203256655
 21
8.89418596114262
  0
LINE
  8
0
 10
-87.35931203256655
 20
8.89418596114262
 11
-87.56056348127152
 21
6.625984119877495
  0
LINE
  8
0
 10
-87.56056348127152
 20
6.625984119877495
 11
-87.64096316160472
 21
6.557509448457623
  0
LINE
  8
0
 10
-87.64096316160472
 20
6.557509448457623
 11
-87.8013153397857
 21
6.501846832386407
  0
LINE
  8
0
 10
-87.8013153397857
 20
6.501846832386407
 11
-88.49324804544919
 21
6.374466183681256
  0
LINE
  8
0
 10
-88.49324804544919
 20
6.374466183681256
 11
-89.20896120301877
 21
6.2207541145267395
  0
LINE
  8
0
 10
-89.20896120301877
 20
6.2207541145267395
 11
-89.99211241741476
 21
6.028229964187741
  0
LINE
  8
0
 10
-89.99211241741476
 20
6.028229964187741
 11
-90.84097207096619
 21
5.792797380004824
  0
LINE
  8
0
 10
-90.84097207096619
 20
5.792797380004824
 11
-91.75362806956483
 21
5.5104301147397345
  0
LINE
  8
0
 10
-91.75362806956483
 20
5.5104301147397345
 11
-92.72798852743895
 21
5.177179211286768
  0
LINE
  8
0
 10
-92.72798852743895
 20
5.177179211286768
 11
-92.76207887806996
 21
5.164384594433892
  0
LINE
  8
0
 10
-92.76207887806996
 20
5.164384594433892
 11
-92.85551320935905
 21
4.1113341760115585
  0
LINE
  8
0
 10
-92.85551320935905
 20
4.1113341760115585
 11
-92.85551320935902
 21
3.0541467952682395
  0
LINE
  8
0
 10
-92.85551320935902
 20
3.0541467952682395
 11
-92.82268704991144
 21
3.038389337273147
  0
LINE
  8
0
 10
-92.82268704991144
 20
3.038389337273147
 11
-91.8815921876042
 21
2.6203284247289678
  0
LINE
  8
0
 10
-91.8815921876042
 20
2.6203284247289678
 11
-90.9974632227187
 21
2.258405480182271
  0
LINE
  8
0
 10
-90.9974632227187
 20
2.258405480182271
 11
-90.17273286444573
 21
1.9488718806215701
  0
LINE
  8
0
 10
-90.17273286444573
 20
1.9488718806215701
 11
-89.40966156463841
 21
1.6878861252936612
  0
LINE
  8
0
 10
-89.40966156463841
 20
1.6878861252936612
 11
-88.710334208744
 21
1.4715207550864835
  0
LINE
  8
0
 10
-88.710334208744
 20
1.4715207550864835
 11
-88.03236707395043
 21
1.2834854845492885
  0
LINE
  8
0
 10
-88.03236707395043
 20
1.2834854845492885
 11
-87.87756185018301
 21
1.2138687439937503
  0
LINE
  8
0
 10
-87.87756185018301
 20
1.2138687439937503
 11
-87.80352858672671
 21
1.1385562939880138
  0
LINE
  8
0
 10
-87.80352858672671
 20
1.1385562939880138
 11
-87.80352858672632
 21
-1.1385562939892147
  0
LINE
  8
0
 10
-87.80352858672632
 20
-1.1385562939892147
 11
-87.87756185018289
 21
-1.213868743993903
  0
LINE
  8
0
 10
-87.87756185018289
 20
-1.213868743993903
 11
-88.03236707392946
 21
-1.2834854846247055
  0
LINE
  8
0
 10
-88.03236707392946
 20
-1.2834854846247055
 11
-88.71033420874728
 21
-1.4715207550881262
  0
LINE
  8
0
 10
-88.71033420874728
 20
-1.4715207550881262
 11
-89.40966156463823
 21
-1.6878861252945054
  0
LINE
  8
0
 10
-89.40966156463823
 20
-1.6878861252945054
 11
-90.17273286444559
 21
-1.948871880622211
  0
LINE
  8
0
 10
-90.17273286444559
 20
-1.948871880622211
 11
-90.99746322272358
 21
-2.2584054801832045
  0
LINE
  8
0
 10
-90.99746322272358
 20
-2.2584054801832045
 11
-91.88159218757633
 21
-2.6203284247166416
  0
LINE
  8
0
 10
-91.88159218757633
 20
-2.6203284247166416
 11
-92.82268704991131
 21
-3.0383893372731396
  0
LINE
  8
0
 10
-92.82268704991131
 20
-3.0383893372731396
 11
-92.85551320935893
 21
-3.054146795268313
  0
LINE
  8
0
 10
-92.85551320935893
 20
-3.054146795268313
 11
-92.85551320935892
 21
-4.111334176011617
  0
LINE
  8
0
 10
-92.85551320935892
 20
-4.111334176011617
 11
-92.76207887806993
 21
-5.164384594433963
  0
LINE
  8
0
 10
-92.76207887806993
 20
-5.164384594433963
 11
-92.72798852743907
 21
-5.177179211286769
  0
LINE
  8
0
 10
-92.72798852743907
 20
-5.177179211286769
 11
-91.75362806959367
 21
-5.510430114729916
  0
LINE
  8
0
 10
-91.75362806959367
 20
-5.510430114729916
 11
-90.84097207096126
 21
-5.792797380005322
  0
LINE
  8
0
 10
-90.84097207096126
 20
-5.792797380005322
 11
-89.99211241741484
 21
-6.028229964188391
  0
LINE
  8
0
 10
-89.99211241741484
 20
-6.028229964188391
 11
-89.20896120301887
 21
-6.220754114527595
  0
LINE
  8
0
 10
-89.20896120301887
 20
-6.220754114527595
 11
-88.49324804544578
 21
-6.374466183682601
  0
LINE
  8
0
 10
-88.49324804544578
 20
-6.374466183682601
 11
-87.80131533979993
 21
-6.501846832463381
  0
LINE
  8
0
 10
-87.80131533979993
 20
-6.501846832463381
 11
-87.64096316160482
 21
-6.557509448457784
  0
LINE
  8
0
 10
-87.64096316160482
 20
-6.557509448457784
 11
-87.5605634812718
 21
-6.625984119878725
  0
LINE
  8
0
 10
-87.5605634812718
 20
-6.625984119878725
 11
-87.35931203256607
 21
-8.894185961143782
  0
LINE
  8
0
 10
-87.35931203256607
 20
-8.894185961143782
 11
-87.42639946848146
 21
-8.975746767699606
  0
LINE
  8
0
 10
-87.42639946848146
 20
-8.975746767699606
 11
-87.57444617702511
 21
-9.058772787504694
  0
LINE
  8
0
 10
-87.57444617702511
 20
-9.058772787504694
 11
-88.2331417289455
 21
-9.305991048787364
  0
LINE
  8
0
 10
-88.2331417289455
 20
-9.305991048787364
 11
-88.9106100984149
 21
-9.58331636766473
  0
LINE
  8
0
 10
-88.9106100984149
 20
-9.58331636766473
 11
-89.64762941610233
 21
-9.910721160588139
  0
LINE
  8
0
 10
-89.64762941610233
 20
-9.910721160588139
 11
-90.44177584584259
 21
-10.291933255429479
  0
LINE
  8
0
 10
-90.44177584584259
 20
-10.291933255429479
 11
-91.29045826905315
 21
-10.730579341477025
  0
LINE
  8
0
 10
-91.29045826905315
 20
-10.730579341477025
 11
-92.19092219256764
 21
-11.230178369668364
  0
LINE
  8
0
 10
-92.19092219256764
 20
-11.230178369668364
 11
-92.22222725162692
 21
-11.248775345332264
  0
LINE
  8
0
 10
-92.22222725162692
 20
-11.248775345332264
 11
-92.12879292033782
 21
-12.301825763754595
  0
LINE
  8
0
 10
-92.12879292033782
 20
-12.301825763754595
 11
-91.94265550808505
 21
-13.342497672553307
  0
LINE
  8
0
 10
-91.94265550808505
 20
-13.342497672553307
 11
-91.90756776948601
 21
-13.352229313039361
  0
LINE
  8
0
 10
-91.90756776948601
 20
-13.352229313039361
 11
-90.90756740777184
 21
-13.59806206722376
  0
LINE
  8
0
 10
-90.90756740777184
 20
-13.59806206722376
 11
-89.97352714600653
 21
-13.798663746529408
  0
LINE
  8
0
 10
-89.97352714600653
 20
-13.798663746529408
 11
-89.10718167490212
 21
-13.958152736152316
  0
LINE
  8
0
 10
-89.10718167490212
 20
-13.958152736152316
 11
-88.31007976600581
 21
-14.080708518992523
  0
LINE
  8
0
 10
-88.31007976600581
 20
-14.080708518992523
 11
-87.58358223261182
 21
-14.170564281743692
  0
LINE
  8
0
 10
-87.58358223261182
 20
-14.170564281743692
 11
-86.8830992676924
 21
-14.236293382482282
  0
LINE
  8
0
 10
-86.8830992676924
 20
-14.236293382482282
 11
-86.7184551082775
 21
-14.277566238475229
  0
LINE
  8
0
 10
-86.7184551082775
 20
-14.277566238475229
 11
-86.63231824757628
 21
-14.338667224166114
  0
LINE
  8
0
 10
-86.63231824757628
 20
-14.338667224166114
 11
-86.23139041561811
 21
-16.58020656396938
  0
LINE
  8
0
 10
-86.23139041561811
 20
-16.58020656396938
 11
-86.29100697384578
 21
-16.66737740318081
  0
LINE
  8
0
 10
-86.29100697384578
 20
-16.66737740318081
 11
-86.431136500963
 21
-16.763162910984374
  0
LINE
  8
0
 10
-86.431136500963
 20
-16.763162910984374
 11
-87.06540528419977
 21
-17.067629345000853
  0
LINE
  8
0
 10
-87.06540528419977
 20
-17.067629345000853
 11
-87.71571255871096
 21
-17.403744165917427
  0
LINE
  8
0
 10
-87.71571255871096
 20
-17.403744165917427
 11
-88.42091171882984
 21
-17.795005610020088
  0
LINE
  8
0
 10
-88.42091171882984
 20
-17.795005610020088
 11
-89.17825894747612
 21
-18.244912698633183
  0
LINE
  8
0
 10
-89.17825894747612
 20
-18.244912698633183
 11
-89.98485273839668
 21
-18.756848925833168
  0
LINE
  8
0
 10
-89.98485273839668
 20
-18.756848925833168
 11
-90.83763837199511
 21
-19.334076029882354
  0
LINE
  8
0
 10
-90.83763837199511
 20
-19.334076029882354
 11
-90.86717732613393
 21
-19.3553669766657
  0
LINE
  8
0
 10
-90.86717732613393
 20
-19.3553669766657
 11
-90.68103991388102
 21
-20.396038885464378
  0
LINE
  8
0
 10
-90.68103991388102
 20
-20.396038885464378
 11
-90.40365619828981
 21
-21.416187615957966
  0
LINE
  8
0
 10
-90.40365619828981
 20
-21.416187615957966
 11
-90.36784568085082
 21
-21.422780116795835
  0
LINE
  8
0
 10
-90.36784568085082
 20
-21.422780116795835
 11
-89.35003177394887
 21
-21.579270747107625
  0
LINE
  8
0
 10
-89.35003177394887
 20
-21.579270747107625
 11
-88.4019173805176
 21
-21.69653686031714
  0
LINE
  8
0
 10
-88.4019173805176
 20
-21.69653686031714
 11
-87.52486641980119
 21
-21.778834037792922
  0
LINE
  8
0
 10
-87.52486641980119
 20
-21.778834037792922
 11
-86.72005221959238
 21
-21.830462287966128
  0
LINE
  8
0
 10
-86.72005221959238
 20
-21.830462287966128
 11
-85.98845613859802
 21
-21.85575850113899
  0
LINE
  8
0
 10
-85.98845613859802
 20
-21.85575850113899
 11
-85.28490514335543
 21
-21.8593216345033
  0
LINE
  8
0
 10
-85.28490514335543
 20
-21.8593216345033
 11
-85.11725756650097
 21
-21.88588171443684
  0
LINE
  8
0
 10
-85.11725756650097
 20
-21.88588171443684
 11
-85.02605766315521
 21
-21.93913081634086
  0
LINE
  8
0
 10
-85.02605766315521
 20
-21.93913081634086
 11
-84.42859125182774
 21
-24.13646457015702
  0
LINE
  8
0
 10
-84.42859125182774
 20
-24.13646457015702
 11
-84.48027035196844
 21
-24.228563212016635
  0
LINE
  8
0
 10
-84.48027035196844
 20
-24.228563212016635
 11
-84.61138599411493
 21
-24.336358556349317
  0
LINE
  8
0
 10
-84.61138599411493
 20
-24.336358556349317
 11
-85.2162639954658
 21
-24.69569030044257
  0
LINE
  8
0
 10
-85.2162639954658
 20
-24.69569030044257
 11
-85.83432063887656
 21
-25.087964069203366
  0
LINE
  8
0
 10
-85.83432063887656
 20
-25.087964069203366
 11
-86.50218050185458
 21
-25.540020013193303
  0
LINE
  8
0
 10
-86.50218050185458
 20
-25.540020013193303
 11
-87.21680126049341
 21
-26.055100962603177
  0
LINE
  8
0
 10
-87.21680126049341
 20
-26.055100962603177
 11
-87.97499372908975
 21
-26.636320735868978
  0
LINE
  8
0
 10
-87.97499372908975
 20
-26.636320735868978
 11
-88.7734268689397
 21
-27.286658331053395
  0
LINE
  8
0
 10
-88.7734268689397
 20
-27.286658331053395
 11
-88.80096853579177
 21
-27.310476618430314
  0
LINE
  8
0
 10
-88.80096853579177
 20
-27.310476618430314
 11
-88.52358482020043
 21
-28.330625348923792
  0
LINE
  8
0
 10
-88.52358482020043
 20
-28.330625348923792
 11
-88.15712570493577
 21
-29.32226685412736
  0
LINE
  8
0
 10
-88.15712570493577
 20
-29.32226685412736
 11
-88.12087267450946
 21
-29.325668620059517
  0
LINE
  8
0
 10
-88.12087267450946
 20
-29.325668620059517
 11
-87.09321099624437
 21
-29.39159237513868
  0
LINE
  8
0
 10
-87.09321099624437
 20
-29.39159237513868
 11
-86.13844275177671
 21
-29.42460515592091
  0
LINE
  8
0
 10
-86.13844275177671
 20
-29.42460515592091
 11
-85.25755041436554
 21
-29.42906643425319
  0
LINE
  8
0
 10
-85.25755041436554
 20
-29.42906643425319
 11
-84.45132268516826
 21
-29.409363090701635
  0
LINE
  8
0
 10
-84.45132268516826
 20
-29.409363090701635
 11
-83.720353787842
 21
-29.369901777130234
  0
LINE
  8
0
 10
-83.720353787842
 20
-29.369901777130234
 11
-83.0192410027237
 21
-29.311271056770615
  0
LINE
  8
0
 10
-83.0192410027237
 20
-29.311271056770615
 11
-82.84990207802352
 21
-29.32291049200778
  0
LINE
  8
0
 10
-82.84990207802352
 20
-29.32291049200778
 11
-82.75435289493034
 21
-29.367890963704735
  0
LINE
  8
0
 10
-82.75435289493034
 20
-29.367890963704735
 11
-81.96502388897709
 21
-31.503822015654965
  0
LINE
  8
0
 10
-81.96502388897709
 20
-31.503822015654965
 11
-82.0083610720031
 21
-31.60012766341826
  0
LINE
  8
0
 10
-82.0083610720031
 20
-31.60012766341826
 11
-82.12943667150587
 21
-31.719089199556326
  0
LINE
  8
0
 10
-82.12943667150587
 20
-31.719089199556326
 11
-82.70018990048641
 21
-32.13047399562885
  0
LINE
  8
0
 10
-82.70018990048641
 20
-32.13047399562885
 11
-83.28115878156986
 21
-32.57583663812888
  0
LINE
  8
0
 10
-83.28115878156986
 20
-32.57583663812888
 11
-83.90645243846137
 21
-33.085149131324265
  0
LINE
  8
0
 10
-83.90645243846137
 20
-33.085149131324265
 11
-84.57275385073777
 21
-33.66137273472922
  0
LINE
  8
0
 10
-84.57275385073777
 20
-33.66137273472922
 11
-85.27661111294779
 21
-34.307327221288126
  0
LINE
  8
0
 10
-85.27661111294779
 20
-34.307327221288126
 11
-86.01444293717422
 21
-35.025685534165156
  0
LINE
  8
0
 10
-86.01444293717422
 20
-35.025685534165156
 11
-86.03977176585376
 21
-35.05184475174284
  0
LINE
  8
0
 10
-86.03977176585376
 20
-35.05184475174284
 11
-85.67331265058914
 21
-36.043486256946395
  0
LINE
  8
0
 10
-85.67331265058914
 20
-36.043486256946395
 11
-85.22064617509196
 21
-36.99885959756454
  0
LINE
  8
0
 10
-85.22064617509196
 20
-36.99885959756454
 11
-85.1842343607951
 21
-36.99904400516028
  0
LINE
  8
0
 10
-85.1842343607951
 20
-36.99904400516028
 11
-84.15476775715447
 21
-36.97388494224057
  0
LINE
  8
0
 10
-84.15476775715447
 20
-36.97388494224057
 11
-83.20081801768602
 21
-36.922386020825535
  0
LINE
  8
0
 10
-83.20081801768602
 20
-36.922386020825535
 11
-82.32297848047833
 21
-36.84897648446253
  0
LINE
  8
0
 10
-82.32297848047833
 20
-36.84897648446253
 11
-81.52164704739751
 21
-36.75809575256427
  0
LINE
  8
0
 10
-81.52164704739751
 20
-36.75809575256427
 11
-80.79702615644516
 21
-36.65418575053094
  0
LINE
  8
0
 10
-80.79702615644516
 20
-36.65418575053094
 11
-80.10383873959857
 21
-36.53382004132867
  0
LINE
  8
0
 10
-80.10383873959857
 20
-36.53382004132867
 11
-79.93413377373665
 21
-36.5304477375074
  0
LINE
  8
0
 10
-79.93413377373665
 20
-36.5304477375074
 11
-79.83498311280408
 21
-36.566807545819486
  0
LINE
  8
0
 10
-79.83498311280408
 20
-36.566807545819486
 11
-78.85996908190846
 21
-38.624619339419915
  0
LINE
  8
0
 10
-78.85996908190846
 20
-38.624619339419915
 11
-78.89462517560389
 21
-38.72437827081713
  0
LINE
  8
0
 10
-78.89462517560389
 20
-38.72437827081713
 11
-79.00471315173648
 21
-38.853574963446285
  0
LINE
  8
0
 10
-79.00471315173648
 20
-38.853574963446285
 11
-79.53687469047406
 21
-39.31379316769269
  0
LINE
  8
0
 10
-79.53687469047406
 20
-39.31379316769269
 11
-80.07620894002902
 21
-39.808759117409394
  0
LINE
  8
0
 10
-80.07620894002902
 20
-39.808759117409394
 11
-80.65404262016438
 21
-40.37134209899958
  0
LINE
  8
0
 10
-80.65404262016438
 20
-40.37134209899958
 11
-81.26680997412244
 21
-41.00419862543014
  0
LINE
  8
0
 10
-81.26680997412244
 20
-41.00419862543014
 11
-81.91082339254437
 21
-41.70983235560738
  0
LINE
  8
0
 10
-81.91082339254437
 20
-41.70983235560738
 11
-82.58227936673342
 21
-42.49058925839256
  0
LINE
  8
0
 10
-82.58227936673342
 20
-42.49058925839256
 11
-82.6051971248141
 21
-42.518884674825564
  0
LINE
  8
0
 10
-82.6051971248141
 20
-42.518884674825564
 11
-82.15253064931682
 21
-43.47425801544365
  0
LINE
  8
0
 10
-82.15253064931682
 20
-43.47425801544365
 11
-81.61719954250543
 21
-44.385886099742834
  0
LINE
  8
0
 10
-81.61719954250543
 20
-44.385886099742834
 11
-81.58091391615395
 21
-44.38285170576277
  0
LINE
  8
0
 10
-81.58091391615395
 20
-44.38285170576277
 11
-80.5576993591137
 21
-44.26680672862346
  0
LINE
  8
0
 10
-80.5576993591137
 20
-44.26680672862346
 11
-79.61203407476866
 21
-44.13119915389604
  0
LINE
  8
0
 10
-79.61203407476866
 20
-44.13119915389604
 11
-78.7441176223619
 21
-43.980493331992115
  0
LINE
  8
0
 10
-78.7441176223619
 20
-43.980493331992115
 11
-77.95395399034673
 21
-43.81914647669492
  0
LINE
  8
0
 10
-77.95395399034673
 20
-43.81914647669492
 11
-77.2413522467173
 21
-43.65160102285194
  0
LINE
  8
0
 10
-77.2413522467173
 20
-43.65160102285194
 11
-76.56151532953747
 21
-43.470442349679395
  0
LINE
  8
0
 10
-76.56151532953747
 20
-43.470442349679395
 11
-76.39277249396619
 21
-43.45208469964943
  0
LINE
  8
0
 10
-76.39277249396619
 20
-43.45208469964943
 11
-76.29079634354947
 21
-43.47953927977816
  0
LINE
  8
0
 10
-76.29079634354947
 20
-43.47953927977816
 11
-75.13772809447612
 21
-45.44312664765952
  0
LINE
  8
0
 10
-75.13772809447612
 20
-45.44312664765952
 11
-75.16343186791933
 21
-45.54555811379429
  0
LINE
  8
0
 10
-75.16343186791933
 20
-45.54555811379429
 11
-75.26167063300572
 21
-45.68397882362338
  0
LINE
  8
0
 10
-75.26167063300572
 20
-45.68397882362338
 11
-75.75107559592846
 21
-46.18942860460852
  0
LINE
  8
0
 10
-75.75107559592846
 20
-46.18942860460852
 11
-76.24455419219574
 21
-46.730124081885734
  0
LINE
  8
0
 10
-76.24455419219574
 20
-46.730124081885734
 11
-76.770405563572
 21
-47.34157457726158
  0
LINE
  8
0
 10
-76.770405563572
 20
-47.34157457726158
 11
-77.3248431238463
 21
-48.02611106633984
  0
LINE
  8
0
 10
-77.3248431238463
 20
-48.02611106633984
 11
-77.90397242029536
 21
-48.7859014994632
  0
LINE
  8
0
 10
-77.90397242029536
 20
-48.7859014994632
 11
-78.50379749105531
 21
-49.622946510802905
  0
LINE
  8
0
 10
-78.50379749105531
 20
-49.622946510802905
 11
-78.52412481600696
 21
-49.653156676093204
  0
LINE
  8
0
 10
-78.52412481600696
 20
-49.653156676093204
 11
-77.9887937091957
 21
-50.56478476039237
  0
LINE
  8
0
 10
-77.9887937091957
 20
-50.56478476039237
 11
-77.37498766280991
 21
-51.42553286258205
  0
LINE
  8
0
 10
-77.37498766280991
 20
-51.42553286258205
 11
-77.33911220862782
 21
-51.419303415273205
  0
LINE
  8
0
 10
-77.33911220862782
 20
-51.419303415273205
 11
-76.33015773942233
 21
-51.213280733200016
  0
LINE
  8
0
 10
-76.33015773942233
 20
-51.213280733200016
 11
-75.40017802323109
 21
-50.994625818296
  0
LINE
  8
0
 10
-75.40017802323109
 20
-50.994625818296
 11
-74.54897727862998
 21
-50.76780318824206
  0
LINE
  8
0
 10
-74.54897727862998
 20
-50.76780318824206
 11
-73.77616554944441
 21
-50.537252967450776
  0
LINE
  8
0
 10
-73.77616554944441
 20
-50.537252967450776
 11
-73.08116002796295
 21
-50.30738333214101
  0
LINE
  8
0
 10
-73.08116002796295
 20
-50.30738333214101
 11
-72.41999425608378
 21
-50.06684950723976
  0
LINE
  8
0
 10
-72.41999425608378
 20
-50.06684950723976
 11
-72.25353419228148
 21
-50.03365018450281
  0
LINE
  8
0
 10
-72.25353419228148
 20
-50.03365018450281
 11
-72.14953065402199
 21
-50.05198466713437
  0
LINE
  8
0
 10
-72.14953065402199
 20
-50.05198466713437
 11
-70.82743250920764
 21
-51.90597987581285
  0
LINE
  8
0
 10
-70.82743250920764
 20
-51.90597987581285
 11
-70.84398279552097
 21
-52.010282211580964
  0
LINE
  8
0
 10
-70.84398279552097
 20
-52.010282211580964
 11
-70.92960349802729
 21
-52.15684360887782
  0
LINE
  8
0
 10
-70.92960349802729
 20
-52.15684360887782
 11
-71.37242162774052
 21
-52.70356913675136
  0
LINE
  8
0
 10
-71.37242162774052
 20
-52.70356913675136
 11
-71.81618243162134
 21
-53.28576246637737
  0
LINE
  8
0
 10
-71.81618243162134
 20
-53.28576246637737
 11
-72.28593599428187
 21
-53.941295046377334
  0
LINE
  8
0
 10
-72.28593599428187
 20
-53.941295046377334
 11
-72.77770453522905
 21
-54.672154071947375
  0
LINE
  8
0
 10
-72.77770453522905
 20
-54.672154071947375
 11
-73.287417237748
 21
-55.48015481771572
  0
LINE
  8
0
 10
-73.287417237748
 20
-55.48015481771572
 11
-73.81091696062727
 21
-56.36693692548865
  0
LINE
  8
0
 10
-73.81091696062727
 20
-56.36693692548865
 11
-73.82849476357134
 21
-56.39882540413241
  0
LINE
  8
0
 10
-73.82849476357134
 20
-56.39882540413241
 11
-73.21468871718552
 21
-57.25957350632219
  0
LINE
  8
0
 10
-73.21468871718552
 20
-57.25957350632219
 11
-72.52721159576727
 21
-58.06270510545732
  0
LINE
  8
0
 10
-72.52721159576727
 20
-58.06270510545732
 11
-72.49202708782526
 21
-58.05332935869106
  0
LINE
  8
0
 10
-72.49202708782526
 20
-58.05332935869106
 11
-71.50522914316711
 21
-57.758941378507075
  0
LINE
  8
0
 10
-71.50522914316711
 20
-57.758941378507075
 11
-70.59821334732194
 21
-57.45895039459888
  0
LINE
  8
0
 10
-70.59821334732194
 20
-57.45895039459888
 11
-69.7703901104536
 21
-57.157786151012594
  0
LINE
  8
0
 10
-69.7703901104536
 20
-57.157786151012594
 11
-69.0209785836954
 21
-56.85983693279645
  0
LINE
  8
0
 10
-69.0209785836954
 20
-56.85983693279645
 11
-68.34900864489082
 21
-56.569442157584945
  0
LINE
  8
0
 10
-68.34900864489082
 20
-56.569442157584945
 11
-67.71168853691894
 21
-56.27141568426267
  0
LINE
  8
0
 10
-67.71168853691894
 20
-56.27141568426267
 11
-67.54881402057975
 21
-56.22363451853246
  0
LINE
  8
0
 10
-67.54881402057975
 20
-56.22363451853246
 11
-67.4435970631776
 21
-56.23270541148144
  0
LINE
  8
0
 10
-67.4435970631776
 20
-56.23270541148144
 11
-65.96281623317232
 21
-57.96259843470951
  0
LINE
  8
0
 10
-65.96281623317232
 20
-57.96259843470951
 11
-65.97008350392565
 21
-58.06795533291526
  0
LINE
  8
0
 10
-65.97008350392565
 20
-58.06795533291526
 11
-66.04241604576598
 21
-58.22151037603076
  0
LINE
  8
0
 10
-66.04241604576598
 20
-58.22151037603076
 11
-66.43518169000971
 21
-58.80523278225921
  0
LINE
  8
0
 10
-66.43518169000971
 20
-58.80523278225921
 11
-66.82575167154056
 21
-59.42436751206281
  0
LINE
  8
0
 10
-66.82575167154056
 20
-59.42436751206281
 11
-67.23573096694209
 21
-60.11885174544447
  0
LINE
  8
0
 10
-67.23573096694209
 20
-60.11885174544447
 11
-67.66098173296481
 21
-60.89031334469592
  0
LINE
  8
0
 10
-67.66098173296481
 20
-60.89031334469592
 11
-68.09728864856241
 21
-61.74020070174572
  0
LINE
  8
0
 10
-68.09728864856241
 20
-61.74020070174572
 11
-68.5403659284423
 21
-62.66977963361492
  0
LINE
  8
0
 10
-68.5403659284423
 20
-62.66977963361492
 11
-68.55505663923793
 21
-62.70309685503077
  0
LINE
  8
0
 10
-68.55505663923793
 20
-62.70309685503077
 11
-67.8675795178197
 21
-63.506228454165836
  0
LINE
  8
0
 10
-67.8675795178197
 20
-63.506228454165836
 11
-67.11181176195994
 21
-64.24545795655706
  0
LINE
  8
0
 10
-67.11181176195994
 20
-64.24545795655706
 11
-67.07759356673763
 21
-64.233009288264
  0
LINE
  8
0
 10
-67.07759356673763
 20
-64.233009288264
 11
-66.12067517849387
 21
-63.85255999506015
  0
LINE
  8
0
 10
-66.12067517849387
 20
-63.85255999506015
 11
-65.24372193137475
 21
-63.47358077833966
  0
LINE
  8
0
 10
-65.24372193137475
 20
-63.47358077833966
 11
-64.44575504147193
 21
-63.10043193976066
  0
LINE
  8
0
 10
-64.44575504147193
 20
-63.10043193976066
 11
-63.725608878427614
 21
-62.73741558072668
  0
LINE
  8
0
 10
-63.725608878427614
 20
-62.73741558072668
 11
-63.08193359816159
 21
-62.388768398461266
  0
LINE
  8
0
 10
-63.08193359816159
 20
-62.388768398461266
 11
-62.473447048052414
 21
-62.03558173795094
  0
LINE
  8
0
 10
-62.473447048052414
 20
-62.03558173795094
 11
-62.31543279310016
 21
-61.97359268163339
  0
LINE
  8
0
 10
-62.31543279310016
 20
-61.97359268163339
 11
-62.20982588190543
 21
-61.97332899286371
  0
LINE
  8
0
 10
-62.20982588190543
 20
-61.97332899286371
 11
-60.58195148442084
 21
-63.56558107225898
  0
LINE
  8
0
 10
-60.58195148442084
 20
-63.56558107225898
 11
-60.57987886336723
 21
-63.67116797232574
  0
LINE
  8
0
 10
-60.57987886336723
 20
-63.67116797232574
 11
-60.638357144329554
 21
-63.83051488484987
  0
LINE
  8
0
 10
-60.638357144329554
 20
-63.83051488484987
 11
-60.97799637940623
 21
-64.44666575016441
  0
LINE
  8
0
 10
-60.97799637940623
 20
-64.44666575016441
 11
-61.31231879892727
 21
-65.09789631143099
  0
LINE
  8
0
 10
-61.31231879892727
 20
-65.09789631143099
 11
-61.65931518321284
 21
-65.82589691745162
  0
LINE
  8
0
 10
-61.65931518321284
 20
-65.82589691745162
 11
-62.01472001049067
 21
-66.63192335738403
  0
LINE
  8
0
 10
-62.01472001049067
 20
-66.63192335738403
 11
-62.37420644598557
 21
-67.5170458048265
  0
LINE
  8
0
 10
-62.37420644598557
 20
-67.5170458048265
 11
-62.73339360240467
 21
-68.4821463452804
  0
LINE
  8
0
 10
-62.73339360240467
 20
-68.4821463452804
 11
-62.745082246321516
 21
-68.51663155703766
  0
LINE
  8
0
 10
-62.745082246321516
 20
-68.51663155703766
 11
-61.98931449046173
 21
-69.25586105942895
  0
LINE
  8
0
 10
-61.98931449046173
 20
-69.25586105942895
 11
-61.17117100755785
 21
-69.92540299193564
  0
LINE
  8
0
 10
-61.17117100755785
 20
-69.92540299193564
 11
-61.13818692882756
 21
-69.90997882982364
  0
LINE
  8
0
 10
-61.13818692882756
 20
-69.90997882982364
 11
-60.21863728082409
 21
-69.44644575515144
  0
LINE
  8
0
 10
-60.21863728082409
 20
-69.44644575515144
 11
-59.37860993060688
 21
-68.99144433182852
  0
LINE
  8
0
 10
-59.37860993060688
 20
-68.99144433182852
 11
-58.616744560506525
 21
-68.54923129385257
  0
LINE
  8
0
 10
-58.616744560506525
 20
-68.54923129385257
 11
-57.93149988131224
 21
-68.12398888920598
  0
LINE
  8
0
 10
-57.93149988131224
 20
-68.12398888920598
 11
-57.32115689138004
 21
-67.7198179368012
  0
LINE
  8
0
 10
-57.32115689138004
 20
-67.7198179368012
 11
-56.74626613140474
 21
-67.31423525358947
  0
LINE
  8
0
 10
-56.74626613140474
 20
-67.31423525358947
 11
-56.59434881362803
 21
-67.23852345509816
  0
LINE
  8
0
 10
-56.59434881362803
 20
-67.23852345509816
 11
-56.489178465907976
 21
-67.22892724833196
  0
LINE
  8
0
 10
-56.489178465907976
 20
-67.22892724833196
 11
-54.72695082525809
 21
-68.67107685251798
  0
LINE
  8
0
 10
-54.72695082525809
 20
-68.67107685251798
 11
-54.715554533467426
 21
-68.77606739379272
  0
LINE
  8
0
 10
-54.715554533467426
 20
-68.77606739379272
 11
-54.75972088171545
 21
-68.93995907008446
  0
LINE
  8
0
 10
-54.75972088171545
 20
-68.93995907008446
 11
-55.043575570110704
 21
-69.58371617855579
  0
LINE
  8
0
 10
-55.043575570110704
 20
-69.58371617855579
 11
-55.31903390139809
 21
-70.2619458091724
  0
LINE
  8
0
 10
-55.31903390139809
 20
-70.2619458091724
 11
-55.60033165738556
 21
-71.01776519603017
  0
LINE
  8
0
 10
-55.60033165738556
 20
-71.01776519603017
 11
-55.88310902126939
 21
-71.85204822690007
  0
LINE
  8
0
 10
-55.88310902126939
 20
-71.85204822690007
 11
-56.16296150789413
 21
-72.76547848149059
  0
LINE
  8
0
 10
-56.16296150789413
 20
-72.76547848149059
 11
-56.4354474143495
 21
-73.75854741026846
  0
LINE
  8
0
 10
-56.4354474143495
 20
-73.75854741026846
 11
-56.44404251190077
 21
-73.79393071882822
  0
LINE
  8
0
 10
-56.44404251190077
 20
-73.79393071882822
 11
-55.62589902899696
 21
-74.46347265133494
  0
LINE
  8
0
 10
-55.62589902899696
 20
-74.46347265133494
 11
-54.751782901082734
 21
-75.05808694053692
  0
LINE
  8
0
 10
-54.751782901082734
 20
-75.05808694053692
 11
-54.720291083981984
 21
-75.03980799958732
  0
LINE
  8
0
 10
-54.720291083981984
 20
-75.03980799958732
 11
-53.845306898985925
 21
-74.4968189182375
  0
LINE
  8
0
 10
-53.845306898985925
 20
-74.4968189182375
 11
-53.048779798637256
 21
-73.96935629136335
  0
LINE
  8
0
 10
-53.048779798637256
 20
-73.96935629136335
 11
-52.32897857783566
 21
-73.46153997058722
  0
LINE
  8
0
 10
-52.32897857783566
 20
-73.46153997058722
 11
-51.68399835119515
 21
-72.97739961870933
  0
LINE
  8
0
 10
-51.68399835119515
 20
-72.97739961870933
 11
-51.111764413026606
 21
-72.52086808186299
  0
LINE
  8
0
 10
-51.111764413026606
 20
-72.52086808186299
 11
-50.57496874284768
 21
-72.06606361035533
  0
LINE
  8
0
 10
-50.57496874284768
 20
-72.06606361035533
 11
-50.43033732123525
 21
-71.97722161716729
  0
LINE
  8
0
 10
-50.43033732123525
 20
-71.97722161716729
 11
-50.326426637556
 21
-71.95836799573352
  0
LINE
  8
0
 10
-50.326426637556
 20
-71.95836799573352
 11
-48.44363757434545
 21
-73.23912834871886
  0
LINE
  8
0
 10
-48.44363757434545
 20
-73.23912834871886
 11
-48.42300680325265
 21
-73.34270083786464
  0
LINE
  8
0
 10
-48.42300680325265
 20
-73.34270083786464
 11
-48.45251555722839
 21
-73.50985460334448
  0
LINE
  8
0
 10
-48.45251555722839
 20
-73.50985460334448
 11
-48.6783641511411
 21
-74.17617968276065
  0
LINE
  8
0
 10
-48.6783641511411
 20
-74.17617968276065
 11
-48.89280255927232
 21
-74.87610031628999
  0
LINE
  8
0
 10
-48.89280255927232
 20
-74.87610031628999
 11
-49.1062001506235
 21
-75.65382317250497
  0
LINE
  8
0
 10
-49.1062001506235
 20
-75.65382317250497
 11
-49.3141369348372
 21
-76.50983339843302
  0
LINE
  8
0
 10
-49.3141369348372
 20
-76.50983339843302
 11
-49.51216524744593
 21
-77.44442262995491
  0
LINE
  8
0
 10
-49.51216524744593
 20
-77.44442262995491
 11
-49.6958173322695
 21
-78.45768783623649
  0
LINE
  8
0
 10
-49.6958173322695
 20
-78.45768783623649
 11
-49.701251615163315
 21
-78.49369231923495
  0
LINE
  8
0
 10
-49.701251615163315
 20
-78.49369231923495
 11
-48.82713548724909
 21
-79.08830660843682
  0
LINE
  8
0
 10
-48.82713548724909
 20
-79.08830660843682
 11
-47.903887858195766
 21
-79.60333959131303
  0
LINE
  8
0
 10
-47.903887858195766
 20
-79.60333959131303
 11
-47.87413476889155
 21
-79.58234892902232
  0
LINE
  8
0
 10
-47.87413476889155
 20
-79.58234892902232
 11
-47.05056398449791
 21
-78.96415346676818
  0
LINE
  8
0
 10
-47.05056398449791
 20
-78.96415346676818
 11
-46.30377103854935
 21
-78.36835774655839
  0
LINE
  8
0
 10
-46.30377103854935
 20
-78.36835774655839
 11
-45.63166738754186
 21
-77.79891249421496
  0
LINE
  8
0
 10
-45.63166738754186
 20
-77.79891249421496
 11
-45.0319994582251
 21
-77.25966324978094
  0
LINE
  8
0
 10
-45.0319994582251
 20
-77.25966324978094
 11
-44.50235307824983
 21
-76.7543441067572
  0
LINE
  8
0
 10
-44.50235307824983
 20
-76.7543441067572
 11
-44.00785365180089
 21
-76.25387730858985
  0
LINE
  8
0
 10
-44.00785365180089
 20
-76.25387730858985
 11
-43.87164006332539
 21
-76.1526004297582
  0
LINE
  8
0
 10
-43.87164006332539
 20
-76.1526004297582
 11
-43.76980228567404
 21
-76.1246369488073
  0
LINE
  8
0
 10
-43.76980228567404
 20
-76.1246369488073
 11
-41.78118717710221
 21
-77.23398436431076
  0
LINE
  8
0
 10
-41.78118717710221
 20
-77.23398436431076
 11
-41.751483390463314
 21
-77.33532820617127
  0
LINE
  8
0
 10
-41.751483390463314
 20
-77.33532820617127
 11
-41.76610360415744
 21
-77.50443585598885
  0
LINE
  8
0
 10
-41.76610360415744
 20
-77.50443585598885
 11
-41.93217853212343
 21
-78.18811400916651
  0
LINE
  8
0
 10
-41.93217853212343
 20
-78.18811400916651
 11
-42.0839187458085
 21
-78.90424781766377
  0
LINE
  8
0
 10
-42.0839187458085
 20
-78.90424781766377
 11
-42.22774604703592
 21
-79.69778740741043
  0
LINE
  8
0
 10
-42.22774604703592
 20
-79.69778740741043
 11
-42.359214864311916
 21
-80.56882538775719
  0
LINE
  8
0
 10
-42.359214864311916
 20
-80.56882538775719
 11
-42.473869162861746
 21
-81.5172591683109
  0
LINE
  8
0
 10
-42.473869162861746
 20
-81.5172591683109
 11
-42.567250099485086
 21
-82.54279047802125
  0
LINE
  8
0
 10
-42.567250099485086
 20
-82.54279047802125
 11
-42.56948103708968
 21
-82.57913435156225
  0
LINE
  8
0
 10
-42.56948103708968
 20
-82.57913435156225
 11
-41.646233408036416
 21
-83.09416733443841
  0
LINE
  8
0
 10
-41.646233408036416
 20
-83.09416733443841
 11
-40.68107994232675
 21
-83.52558817959029
  0
LINE
  8
0
 10
-40.68107994232675
 20
-83.52558817959029
 11
-40.65329843908362
 21
-83.50205007635111
  0
LINE
  8
0
 10
-40.65329843908362
 20
-83.50205007635111
 11
-39.88758661331882
 21
-82.81348645086523
  0
LINE
  8
0
 10
-39.88758661331882
 20
-82.81348645086523
 11
-39.19637248911172
 21
-82.15402054664011
  0
LINE
  8
0
 10
-39.19637248911172
 20
-82.15402054664011
 11
-38.57722653023928
 21
-81.52740304391138
  0
LINE
  8
0
 10
-38.57722653023928
 20
-81.52740304391138
 11
-38.027564112853
 21
-80.9372652634001
  0
LINE
  8
0
 10
-38.027564112853
 20
-80.9372652634001
 11
-37.54465049211541
 21
-80.38711332163012
  0
LINE
  8
0
 10
-37.54465049211541
 20
-80.38711332163012
 11
-37.096317437875534
 21
-79.8449010280567
  0
LINE
  8
0
 10
-37.096317437875534
 20
-79.8449010280567
 11
-36.96958773855198
 21
-79.73198189247456
  0
LINE
  8
0
 10
-36.96958773855198
 20
-79.73198189247456
 11
-36.87061988561541
 21
-79.69512740415924
  0
LINE
  8
0
 10
-36.87061988561541
 20
-79.69512740415924
 11
-34.791742341170895
 21
-80.6243797345457
  0
LINE
  8
0
 10
-34.791742341170895
 20
-80.6243797345457
 11
-34.75319801139023
 21
-80.72270177615133
  0
LINE
  8
0
 10
-34.75319801139023
 20
-80.72270177615133
 11
-34.75281526180779
 21
-80.8924398136622
  0
LINE
  8
0
 10
-34.75281526180779
 20
-80.8924398136622
 11
-34.85781676234299
 21
-81.58812033208764
  0
LINE
  8
0
 10
-34.85781676234299
 20
-81.58812033208764
 11
-34.94567120867285
 21
-82.3148625975312
  0
LINE
  8
0
 10
-34.94567120867285
 20
-82.3148625975312
 11
-35.018802576136146
 21
-83.11800839759904
  0
LINE
  8
0
 10
-35.018802576136146
 20
-83.11800839759904
 11
-35.072774504727235
 21
-83.99725707917136
  0
LINE
  8
0
 10
-35.072774504727235
 20
-83.99725707917136
 11
-35.103157463877984
 21
-84.95211262849001
  0
LINE
  8
0
 10
-35.103157463877984
 20
-84.95211262849001
 11
-35.10553641986146
 21
-85.98188386866391
  0
LINE
  8
0
 10
-35.10553641986146
 20
-85.98188386866391
 11
-35.104546552065194
 21
-86.01828269266004
  0
LINE
  8
0
 10
-35.104546552065194
 20
-86.01828269266004
 11
-34.139393086355554
 21
-86.44970353781198
  0
LINE
  8
0
 10
-34.139393086355554
 20
-86.44970353781198
 11
-33.13988741846224
 21
-86.79413579218438
  0
LINE
  8
0
 10
-33.13988741846224
 20
-86.79413579218438
 11
-33.11429492921062
 21
-86.7682344655687
  0
LINE
  8
0
 10
-33.11429492921062
 20
-86.7682344655687
 11
-32.41243479530173
 21
-86.01469162080953
  0
LINE
  8
0
 10
-32.41243479530173
 20
-86.01469162080953
 11
-31.782209180540764
 21
-85.29671674740658
  0
LINE
  8
0
 10
-31.782209180540764
 20
-85.29671674740658
 11
-31.220866570400652
 21
-84.61783112585083
  0
LINE
  8
0
 10
-31.220866570400652
 20
-84.61783112585083
 11
-30.72551151862076
 21
-83.98142343753315
  0
LINE
  8
0
 10
-30.72551151862076
 20
-83.98142343753315
 11
-30.293110110961607
 21
-83.39074438188487
  0
LINE
  8
0
 10
-30.293110110961607
 20
-83.39074438188487
 11
-29.894452242952642
 21
-82.81103013926118
  0
LINE
  8
0
 10
-29.894452242952642
 20
-82.81103013926118
 11
-29.778198264504717
 21
-82.6873524922659
  0
LINE
  8
0
 10
-29.778198264504717
 20
-82.6873524922659
 11
-29.682874893917745
 21
-82.64189543292639
  0
LINE
  8
0
 10
-29.682874893917745
 20
-82.64189543292639
 11
-27.530004949032158
 21
-83.38378001878371
  0
LINE
  8
0
 10
-27.530004949032158
 20
-83.38378001878371
 11
-27.482921737750605
 21
-83.47831075684893
  0
LINE
  8
0
 10
-27.482921737750605
 20
-83.47831075684893
 11
-27.46753902042602
 21
-83.64735075177023
  0
LINE
  8
0
 10
-27.46753902042602
 20
-83.64735075177023
 11
-27.510645314422455
 21
-84.34958899214826
  0
LINE
  8
0
 10
-27.510645314422455
 20
-84.34958899214826
 11
-27.5339264132371
 21
-85.08125197095747
  0
LINE
  8
0
 10
-27.5339264132371
 20
-85.08125197095747
 11
-27.535789494830695
 21
-85.88771827651563
  0
LINE
  8
0
 10
-27.535789494830695
 20
-85.88771827651563
 11
-27.511842131217815
 21
-86.76829634625079
  0
LINE
  8
0
 10
-27.511842131217815
 20
-86.76829634625079
 11
-27.457715963119377
 21
-87.72210062501995
  0
LINE
  8
0
 10
-27.457715963119377
 20
-87.72210062501995
 11
-27.369074319906904
 21
-88.7480524394876
  0
LINE
  8
0
 10
-27.369074319906904
 20
-88.7480524394876
 11
-27.364871393767483
 21
-88.78422134378982
  0
LINE
  8
0
 10
-27.364871393767483
 20
-88.78422134378982
 11
-26.36536572587421
 21
-89.12865359816219
  0
LINE
  8
0
 10
-26.36536572587421
 20
-89.12865359816219
 11
-25.339330342828312
 21
-89.383401612366
  0
LINE
  8
0
 10
-25.339330342828312
 20
-89.383401612366
 11
-25.316127163496198
 21
-89.3553397753729
  0
LINE
  8
0
 10
-25.316127163496198
 20
-89.3553397753729
 11
-24.683611728608177
 21
-88.54271520579186
  0
LINE
  8
0
 10
-24.683611728608177
 20
-88.54271520579186
 11
-24.11930699322032
 21
-87.77185049006175
  0
LINE
  8
0
 10
-24.11930699322032
 20
-87.77185049006175
 11
-23.620160998833327
 21
-87.04600995013477
  0
LINE
  8
0
 10
-23.620160998833327
 20
-87.04600995013477
 11
-23.182990137567195
 21
-86.36831310704522
  0
LINE
  8
0
 10
-23.182990137567195
 20
-86.36831310704522
 11
-22.804485070272918
 21
-85.74172980200134
  0
LINE
  8
0
 10
-22.804485070272918
 20
-85.74172980200134
 11
-22.458622426832342
 21
-85.12905066028155
  0
LINE
  8
0
 10
-22.458622426832342
 20
-85.12905066028155
 11
-22.35375401426438
 21
-84.99558244714923
  0
LINE
  8
0
 10
-22.35375401426438
 20
-84.99558244714923
 11
-22.26282116064604
 21
-84.94187857990782
  0
LINE
  8
0
 10
-22.26282116064604
 20
-84.94187857990782
 11
-20.052807941607067
 21
-85.49058916846735
  0
LINE
  8
0
 10
-20.052807941607067
 20
-85.49058916846735
 11
-19.99755433879068
 21
-85.5805887717973
  0
LINE
  8
0
 10
-19.99755433879068
 20
-85.5805887717973
 11
-19.967292044343676
 21
-85.74760775697588
  0
LINE
  8
0
 10
-19.967292044343676
 20
-85.74760775697588
 11
-19.948165766605143
 21
-86.45090775294575
  0
LINE
  8
0
 10
-19.948165766605143
 20
-86.45090775294575
 11
-19.906691311740673
 21
-87.18176519028607
  0
LINE
  8
0
 10
-19.906691311740673
 20
-87.18176519028607
 11
-19.837271526325043
 21
-87.98524030904613
  0
LINE
  8
0
 10
-19.837271526325043
 20
-87.98524030904613
 11
-19.735592291097497
 21
-88.8602560496166
  0
LINE
  8
0
 10
-19.735592291097497
 20
-88.8602560496166
 11
-19.59738060640222
 21
-89.80554424613926
  0
LINE
  8
0
 10
-19.59738060640222
 20
-89.80554424613926
 11
-19.41841210503673
 21
-90.81964717091556
  0
LINE
  8
0
 10
-19.41841210503673
 20
-90.81964717091556
 11
-19.4110290141497
 21
-90.85530308480811
  0
LINE
  8
0
 10
-19.4110290141497
 20
-90.85530308480811
 11
-18.384993631103868
 21
-91.11005109901195
  0
LINE
  8
0
 10
-18.384993631103868
 20
-91.11005109901195
 11
-17.340458650927932
 21
-91.273121124436
  0
LINE
  8
0
 10
-17.340458650927932
 20
-91.273121124436
 11
-17.319826377853605
 21
-91.24311839898753
  0
LINE
  8
0
 10
-17.319826377853605
 20
-91.24311839898753
 11
-16.761605932860586
 21
-90.3777719936387
  0
LINE
  8
0
 10
-16.761605932860586
 20
-90.3777719936387
 11
-16.267638526512876
 21
-89.56005049715903
  0
LINE
  8
0
 10
-16.267638526512876
 20
-89.56005049715903
 11
-15.834595642052244
 21
-88.79293572521672
  0
LINE
  8
0
 10
-15.834595642052244
 20
-88.79293572521672
 11
-15.459030426027432
 21
-88.07925362400783
  0
LINE
  8
0
 10
-15.459030426027432
 20
-88.07925362400783
 11
-15.137384014445738
 21
-87.42166993348337
  0
LINE
  8
0
 10
-15.137384014445738
 20
-87.42166993348337
 11
-14.847023439696382
 21
-86.78082093765249
  0
LINE
  8
0
 10
-14.847023439696382
 20
-86.78082093765249
 11
-14.754361330522565
 21
-86.6386067281138
  0
LINE
  8
0
 10
-14.754361330522565
 20
-86.6386067281138
 11
-14.66853066674375
 21
-86.57707635854604
  0
LINE
  8
0
 10
-14.66853066674375
 20
-86.57707635854604
 11
-12.41867052343704
 21
-86.92831854548301
  0
LINE
  8
0
 10
-12.41867052343704
 20
-86.92831854548301
 11
-12.355678963443449
 21
-87.01308264515565
  0
LINE
  8
0
 10
-12.355678963443449
 20
-87.01308264515565
 11
-12.310773935359213
 21
-87.17677347057977
  0
LINE
  8
0
 10
-12.310773935359213
 20
-87.17677347057977
 11
-12.229564774941393
 21
-87.87563094610364
  0
LINE
  8
0
 10
-12.229564774941393
 20
-87.87563094610364
 11
-12.123659360240271
 21
-88.59996289159477
  0
LINE
  8
0
 10
-12.123659360240271
 20
-88.59996289159477
 11
-11.983500011759116
 21
-89.3941585413606
  0
LINE
  8
0
 10
-11.983500011759116
 20
-89.3941585413606
 11
-11.80488468279436
 21
-90.25676376820618
  0
LINE
  8
0
 10
-11.80488468279436
 20
-90.25676376820618
 11
-11.583669175329312
 21
-91.18613772067546
  0
LINE
  8
0
 10
-11.583669175329312
 20
-91.18613772067546
 11
-11.315774486988442
 21
-92.1804550254025
  0
LINE
  8
0
 10
-11.315774486988442
 20
-92.1804550254025
 11
-11.30526901405035
 21
-92.21531889301508
  0
LINE
  8
0
 10
-11.30526901405035
 20
-92.21531889301508
 11
-10.260734033874481
 21
-92.37838891843911
  0
LINE
  8
0
 10
-10.260734033874481
 20
-92.37838891843911
 11
-9.205874359021248
 21
-92.44850471103584
  0
LINE
  8
0
 10
-9.205874359021248
 20
-92.44850471103584
 11
-9.187974467715803
 21
-92.41679590913792
  0
LINE
  8
0
 10
-9.187974467715803
 20
-92.41679590913792
 11
-8.70841784446311
 21
-91.50550017692316
  0
LINE
  8
0
 10
-8.70841784446311
 20
-91.50550017692316
 11
-8.288653731855987
 21
-90.64732167911167
  0
LINE
  8
0
 10
-8.288653731855987
 20
-90.64732167911167
 11
-7.925103105033852
 21
-89.84493638833716
  0
LINE
  8
0
 10
-7.925103105033852
 20
-89.84493638833716
 11
-7.614082841275899
 21
-89.10085455909683
  0
LINE
  8
0
 10
-7.614082841275899
 20
-89.10085455909683
 11
-7.351812404681738
 21
-88.41741696705506
  0
LINE
  8
0
 10
-7.351812404681738
 20
-88.41741696705506
 11
-7.1192263638064315
 21
-87.75341362940067
  0
LINE
  8
0
 10
-7.1192263638064315
 20
-87.75341362940067
 11
-7.039495764666981
 21
-87.60356644246639
  0
LINE
  8
0
 10
-7.039495764666981
 20
-87.60356644246639
 11
-6.959439032045269
 21
-87.5346911291401
  0
LINE
  8
0
 10
-6.959439032045269
 20
-87.5346911291401
 11
-4.687340170565321
 21
-87.68571596810996
  0
LINE
  8
0
 10
-4.687340170565321
 20
-87.68571596810996
 11
-4.6171036477585945
 21
-87.76458117011794
  0
LINE
  8
0
 10
-4.6171036477585945
 20
-87.76458117011794
 11
-4.55790732876637
 21
-87.92366273313847
  0
LINE
  8
0
 10
-4.55790732876637
 20
-87.92366273313847
 11
-4.415250857456977
 21
-88.61260818092434
  0
LINE
  8
0
 10
-4.415250857456977
 20
-88.61260818092434
 11
-4.245743336381106
 21
-89.32474575500726
  0
LINE
  8
0
 10
-4.245743336381106
 20
-89.32474575500726
 11
-4.035941361771357
 21
-90.10344627800919
  0
LINE
  8
0
 10
-4.035941361771357
 20
-90.10344627800919
 11
-3.7817878461941543
 21
-90.94688993566645
  0
LINE
  8
0
 10
-3.7817878461941543
 20
-90.94688993566645
 11
-3.4792998272403204
 21
-91.85307603281248
  0
LINE
  8
0
 10
-3.4792998272403204
 20
-91.85307603281248
 11
-3.1245755910853825
 21
-92.81982583643551
  0
LINE
  8
0
 10
-3.1245755910853825
 20
-92.81982583643551
 11
-3.1110299556658125
 21
-92.8536248007338
  0
LINE
  8
0
 10
-3.1110299556658125
 20
-92.8536248007338
 11
-2.0561702808125633
 21
-92.92374059333058
  0
LINE
  8
0
 10
-2.0561702808125633
 20
-92.92374059333058
 11
-0.9992416184693793
 21
-92.90035340195655
  0
LINE
  8
0
 10
-0.9992416184693793
 20
-92.90035340195655
 11
-0.9842141998518438
 21
-92.86718668797639
  0
LINE
  8
0
 10
-0.9842141998518438
 20
-92.86718668797639
 11
-0.5870745791233306
 21
-91.91707375358072
  0
LINE
  8
0
 10
-0.5870745791233306
 20
-91.91707375358072
 11
-0.24479898357516358
 21
-91.02515466474419
  0
LINE
  8
0
 10
-0.24479898357516358
 20
-91.02515466474419
 11
0.04641410903342999
 21
-90.19377860795196
  0
LINE
  8
0
 10
0.04641410903342999
 20
-90.19377860795196
 11
0.2904552652637575
 21
-89.42512049985743
  0
LINE
  8
0
 10
0.2904552652637575
 20
-89.42512049985743
 11
0.49129710510463565
 21
-88.721177832095
  0
LINE
  8
0
 10
0.49129710510463565
 20
-88.721177832095
 11
0.6642883109842331
 21
-88.03921687902323
  0
LINE
  8
0
 10
0.6642883109842331
 20
-88.03921687902323
 11
0.7304634000483095
 21
-87.88290947210143
  0
LINE
  8
0
 10
0.7304634000483095
 20
-87.88290947210143
 11
0.804119649035222
 21
-87.80722825772801
  0
LINE
  8
0
 10
0.804119649035222
 20
-87.80722825772801
 11
3.0806749744718376
 21
-87.75685377459878
  0
LINE
  8
0
 10
3.0806749744718376
 20
-87.75685377459878
 11
3.1576067640705396
 21
-87.82920285180698
  0
LINE
  8
0
 10
3.1576067640705396
 20
-87.82920285180698
 11
3.230631082513303
 21
-87.98243012350252
  0
LINE
  8
0
 10
3.230631082513303
 20
-87.98243012350252
 11
3.433618384405481
 21
-88.65607161131474
  0
LINE
  8
0
 10
3.433618384405481
 20
-88.65607161131474
 11
3.665401385676892
 21
-89.35044137192041
  0
LINE
  8
0
 10
3.665401385676892
 20
-89.35044137192041
 11
3.9432040015038834
 21
-90.10755238076479
  0
LINE
  8
0
 10
3.9432040015038834
 20
-90.10755238076479
 11
4.270906607840068
 21
-90.92523337902938
  0
LINE
  8
0
 10
4.270906607840068
 20
-90.92523337902938
 11
4.652299759405962
 21
-91.8011394859895
  0
LINE
  8
0
 10
4.652299759405962
 20
-91.8011394859895
 11
5.09107734527416
 21
-92.73275566052733
  0
LINE
  8
0
 10
5.09107734527416
 20
-92.73275566052733
 11
5.107557130212188
 21
-92.76522519878942
  0
LINE
  8
0
 10
5.107557130212188
 20
-92.76522519878942
 11
6.164485792555236
 21
-92.74183800741537
  0
LINE
  8
0
 10
6.164485792555236
 20
-92.74183800741537
 11
7.215211542568701
 21
-92.62513086855249
  0
LINE
  8
0
 10
7.215211542568701
 20
-92.62513086855249
 11
7.227248878572721
 21
-92.59076581699613
  0
LINE
  8
0
 10
7.227248878572721
 20
-92.59076581699613
 11
7.538863340783057
 21
-91.6092716023419
  0
LINE
  8
0
 10
7.538863340783057
 20
-91.6092716023419
 11
7.800971648662702
 21
-90.69059239865908
  0
LINE
  8
0
 10
7.800971648662702
 20
-90.69059239865908
 11
8.01756806976679
 21
-89.83673222071484
  0
LINE
  8
0
 10
8.01756806976679
 20
-89.83673222071484
 11
8.192720165538763
 21
-89.04951362564712
  0
LINE
  8
0
 10
8.192720165538763
 20
-89.04951362564712
 11
8.330561548918174
 21
-88.33057518798003
  0
LINE
  8
0
 10
8.330561548918174
 20
-88.33057518798003
 11
8.44260402906591
 21
-87.63599388858553
  0
LINE
  8
0
 10
8.44260402906591
 20
-87.63599388858553
 11
8.494705698259184
 21
-87.4744495790648
  0
LINE
  8
0
 10
8.494705698259184
 20
-87.4744495790648
 11
8.561385003596142
 21
-87.39255477175908
  0
LINE
  8
0
 10
8.561385003596142
 20
-87.39255477175908
 11
10.824579660900092
 21
-87.1411752151615
  0
LINE
  8
0
 10
10.824579660900092
 20
-87.1411752151615
 11
10.907604621729185
 21
-87.20644193794628
  0
LINE
  8
0
 10
10.907604621729185
 20
-87.20644193794628
 11
10.993885425320642
 21
-87.35261570716257
  0
LINE
  8
0
 10
10.993885425320642
 20
-87.35261570716257
 11
11.255614906937941
 21
-88.00568107700212
  0
LINE
  8
0
 10
11.255614906937941
 20
-88.00568107700212
 11
11.547859372156935
 21
-88.67684863929252
  0
LINE
  8
0
 10
11.547859372156935
 20
-88.67684863929252
 11
11.891488447073613
 21
-89.40644471380607
  0
LINE
  8
0
 10
11.891488447073613
 20
-89.40644471380607
 11
12.290175426958584
 21
-90.1919635902137
  0
LINE
  8
0
 10
12.290175426958584
 20
-90.1919635902137
 11
12.747488792613588
 21
-91.03073455410352
  0
LINE
  8
0
 10
12.747488792613588
 20
-91.03073455410352
 11
13.266885698668988
 21
-91.91992593985854
  0
LINE
  8
0
 10
13.266885698668988
 20
-91.91992593985854
 11
13.286170656464218
 21
-91.95081193392372
  0
LINE
  8
0
 10
13.286170656464218
 20
-91.95081193392372
 11
14.336896406477797
 21
-91.83410479506085
  0
LINE
  8
0
 10
14.336896406477797
 20
-91.83410479506085
 11
15.373195890541052
 21
-91.6249911003081
  0
LINE
  8
0
 10
15.373195890541052
 20
-91.6249911003081
 11
15.382148935456511
 21
-91.5896966642978
  0
LINE
  8
0
 10
15.382148935456511
 20
-91.5896966642978
 11
15.60579943347937
 21
-90.58450269237375
  0
LINE
  8
0
 10
15.60579943347937
 20
-90.58450269237375
 11
15.78568910080175
 21
-89.64625328420473
  0
LINE
  8
0
 10
15.78568910080175
 20
-89.64625328420473
 11
15.92597368973391
 21
-88.77659159870733
  0
LINE
  8
0
 10
15.92597368973391
 20
-88.77659159870733
 11
16.030865922418123
 21
-87.97697356952325
  0
LINE
  8
0
 10
16.030865922418123
 20
-87.97697356952325
 11
16.104628053618868
 21
-87.24866602999899
  0
LINE
  8
0
 10
16.104628053618868
 20
-87.24866602999899
 11
16.154844923714773
 21
-86.54690042469763
  0
LINE
  8
0
 10
16.154844923714773
 20
-86.54690042469763
 11
16.19246540683375
 21
-86.38138351582982
  0
LINE
  8
0
 10
16.19246540683375
 20
-86.38138351582982
 11
16.25164591254935
 21
-86.29391605349609
  0
LINE
  8
0
 10
16.25164591254935
 20
-86.29391605349609
 11
18.48376733497451
 21
-85.84349880929352
  0
LINE
  8
0
 10
18.48376733497451
 20
-85.84349880929352
 11
18.5722356841461
 21
-85.9011723770572
  0
LINE
  8
0
 10
18.5722356841461
 20
-85.9011723770572
 11
18.67109770861431
 21
-86.03914863586041
  0
LINE
  8
0
 10
18.67109770861431
 20
-86.03914863586041
 11
18.98952098189713
 21
-86.66652676574955
  0
LINE
  8
0
 10
18.98952098189713
 20
-86.66652676574955
 11
19.339939701883686
 21
-87.30923933354714
  0
LINE
  8
0
 10
19.339939701883686
 20
-87.30923933354714
 11
19.74670587246931
 21
-88.00561039522384
  0
LINE
  8
0
 10
19.74670587246931
 20
-88.00561039522384
 11
20.213256959725683
 21
-88.75281939952077
  0
LINE
  8
0
 10
20.213256959725683
 20
-88.75281939952077
 11
20.74291144233517
 21
-89.54789070030019
  0
LINE
  8
0
 10
20.74291144233517
 20
-89.54789070030019
 11
21.338862683563537
 21
-90.3876981690686
  0
LINE
  8
0
 10
21.338862683563537
 20
-90.3876981690686
 11
21.3608018832737
 21
-90.41675889415647
  0
LINE
  8
0
 10
21.3608018832737
 20
-90.41675889415647
 11
22.397101367336923
 21
-90.20764519940381
  0
LINE
  8
0
 10
22.397101367336923
 20
-90.20764519940381
 11
23.41086413692043
 21
-89.90776154694962
  0
LINE
  8
0
 10
23.41086413692043
 20
-89.90776154694962
 11
23.416662821031856
 21
-89.87181395330104
  0
LINE
  8
0
 10
23.416662821031856
 20
-89.87181395330104
 11
23.55059898648366
 21
-88.85078722982979
  0
LINE
  8
0
 10
23.55059898648366
 20
-88.85078722982979
 11
23.646862132698562
 21
-87.9003106909191
  0
LINE
  8
0
 10
23.646862132698562
 20
-87.9003106909191
 11
23.70973697234552
 21
-87.02165377968844
  0
LINE
  8
0
 10
23.70973697234552
 20
-87.02165377968844
 11
23.743548418003073
 21
-86.21589441162854
  0
LINE
  8
0
 10
23.743548418003073
 20
-86.21589441162854
 11
23.75265400833811
 21
-85.48391776421975
  0
LINE
  8
0
 10
23.75265400833811
 20
-85.48391776421975
 11
23.74065225328714
 21
-84.78046012036201
  0
LINE
  8
0
 10
23.74065225328714
 20
-84.78046012036201
 11
23.763497119043684
 21
-84.61226600637517
  0
LINE
  8
0
 10
23.763497119043684
 20
-84.61226600637517
 11
23.814715657440804
 21
-84.51991044049892
  0
LINE
  8
0
 10
23.814715657440804
 20
-84.51991044049892
 11
25.99829446843461
 21
-83.87398063432552
  0
LINE
  8
0
 10
25.99829446843461
 20
-83.87398063432552
 11
26.091513821166618
 21
-83.92360967320363
  0
LINE
  8
0
 10
26.091513821166618
 20
-83.92360967320363
 11
26.202183337128034
 21
-84.0523085702935
  0
LINE
  8
0
 10
26.202183337128034
 20
-84.0523085702935
 11
26.574808308228704
 21
-84.64908937573512
  0
LINE
  8
0
 10
26.574808308228704
 20
-84.64908937573512
 11
26.980658781383656
 21
-85.25831685177496
  0
LINE
  8
0
 10
26.980658781383656
 20
-85.25831685177496
 11
27.447378550839435
 21
-85.91601285288247
  0
LINE
  8
0
 10
27.447378550839435
 20
-85.91601285288247
 11
27.978142350636087
 21
-86.61906406150666
  0
LINE
  8
0
 10
27.978142350636087
 20
-86.61906406150666
 11
28.57599268574155
 21
-87.36421318824954
  0
LINE
  8
0
 10
28.57599268574155
 20
-87.36421318824954
 11
29.243834135659718
 21
-88.1480641079352
  0
LINE
  8
0
 10
29.243834135659718
 20
-88.1480641079352
 11
29.268255873300827
 21
-88.17507212447002
  0
LINE
  8
0
 10
29.268255873300827
 20
-88.17507212447002
 11
30.282018642884292
 21
-87.87518847201581
  0
LINE
  8
0
 10
30.282018642884292
 20
-87.87518847201581
 11
31.265310629805676
 21
-87.48688185803776
  0
LINE
  8
0
 10
31.265310629805676
 20
-87.48688185803776
 11
31.26790957054777
 21
-87.45056244541084
  0
LINE
  8
0
 10
31.26790957054777
 20
-87.45056244541084
 11
31.311083171336485
 21
-86.42169388886278
  0
LINE
  8
0
 10
31.311083171336485
 20
-86.42169388886278
 11
31.322966406806376
 21
-85.46642898683108
  0
LINE
  8
0
 10
31.322966406806376
 20
-85.46642898683108
 11
31.307939416299043
 21
-84.5856535315246
  0
LINE
  8
0
 10
31.307939416299043
 20
-84.5856535315246
 11
31.27040545452441
 21
-83.7800589841329
  0
LINE
  8
0
 10
31.27040545452441
 20
-83.7800589841329
 11
31.214783240403552
 21
-83.0501419385562
  0
LINE
  8
0
 10
31.214783240403552
 20
-83.0501419385562
 11
31.14065679021157
 21
-82.35049776598834
  0
LINE
  8
0
 10
31.14065679021157
 20
-82.35049776598834
 11
31.148547246556912
 21
-82.18094279387039
  0
LINE
  8
0
 10
31.148547246556912
 20
-82.18094279387039
 11
31.19140296312794
 21
-82.08442193197493
  0
LINE
  8
0
 10
31.19140296312794
 20
-82.08442193197493
 11
33.3093496978888
 21
-81.24803484034801
  0
LINE
  8
0
 10
33.3093496978888
 20
-81.24803484034801
 11
33.406590486354624
 21
-81.28923093582179
  0
LINE
  8
0
 10
33.406590486354624
 20
-81.28923093582179
 11
33.52820135479556
 21
-81.40764522783219
  0
LINE
  8
0
 10
33.52820135479556
 20
-81.40764522783219
 11
33.952111728091616
 21
-81.96915808987842
  0
LINE
  8
0
 10
33.952111728091616
 20
-81.96915808987842
 11
34.41021762419012
 21
-82.54013244313936
  0
LINE
  8
0
 10
34.41021762419012
 20
-82.54013244313936
 11
34.933238277518015
 21
-83.15400602073177
  0
LINE
  8
0
 10
34.933238277518015
 20
-83.15400602073177
 11
35.52406084348538
 21
-83.80739710474369
  0
LINE
  8
0
 10
35.52406084348538
 20
-83.80739710474369
 11
36.18542804161917
 21
-84.49679225522274
  0
LINE
  8
0
 10
36.18542804161917
 20
-84.49679225522274
 11
36.91993293538862
 21
-85.21855192959474
  0
LINE
  8
0
 10
36.91993293538862
 20
-85.21855192959474
 11
36.94664607775144
 21
-85.24329586322833
  0
LINE
  8
0
 10
36.94664607775144
 20
-85.24329586322833
 11
37.92993806467286
 21
-84.85498924925028
  0
LINE
  8
0
 10
37.92993806467286
 20
-84.85498924925028
 11
38.8750636759379
 21
-84.3812986994883
  0
LINE
  8
0
 10
38.8750636759379
 20
-84.3812986994883
 11
38.87444253307557
 21
-84.3448917165305
  0
LINE
  8
0
 10
38.87444253307557
 20
-84.3448917165305
 11
38.8265156772381
 21
-83.31623361835216
  0
LINE
  8
0
 10
38.8265156772381
 20
-83.31623361835216
 11
38.753925999533536
 21
-82.3636565962539
  0
LINE
  8
0
 10
38.753925999533536
 20
-82.3636565962539
 11
38.66111478544699
 21
-81.48765585900887
  0
LINE
  8
0
 10
38.66111478544699
 20
-81.48765585900887
 11
38.55252917038148
 21
-80.68853100188417
  0
LINE
  8
0
 10
38.55252917038148
 20
-80.68853100188417
 11
38.43261447104562
 21
-79.96638614867926
  0
LINE
  8
0
 10
38.43261447104562
 20
-79.96638614867926
 11
38.296943465689715
 21
-79.2760311116643
  0
LINE
  8
0
 10
38.296943465689715
 20
-79.2760311116643
 11
38.289817759104686
 21
-79.1064422789632
  0
LINE
  8
0
 10
38.289817759104686
 20
-79.1064422789632
 11
38.32397524976151
 21
-79.00651152766069
  0
LINE
  8
0
 10
38.32397524976151
 20
-79.00651152766069
 11
40.35971410347161
 21
-77.98621301358774
  0
LINE
  8
0
 10
40.35971410347161
 20
-77.98621301358774
 11
40.460215286657565
 21
-78.01865375035439
  0
LINE
  8
0
 10
40.460215286657565
 20
-78.01865375035439
 11
40.59181573764638
 21
-78.12585668489828
  0
LINE
  8
0
 10
40.59181573764638
 20
-78.12585668489828
 11
41.063693839707845
 21
-78.64770700407631
  0
LINE
  8
0
 10
41.063693839707845
 20
-78.64770700407631
 11
41.57046985899
 21
-79.17595958608845
  0
LINE
  8
0
 10
41.57046985899
 20
-79.17595958608845
 11
42.14569805044011
 21
-79.74120634710059
  0
LINE
  8
0
 10
42.14569805044011
 20
-79.74120634710059
 11
42.79195539493265
 21
-80.33982363536744
  0
LINE
  8
0
 10
42.79195539493265
 20
-80.33982363536744
 11
43.51166336105459
 21
-80.96806935781368
  0
LINE
  8
0
 10
43.51166336105459
 20
-80.96806935781368
 11
44.307083202003035
 21
-81.62208903882214
  0
LINE
  8
0
 10
44.307083202003035
 20
-81.62208903882214
 11
44.33587868252952
 21
-81.64437523472465
  0
LINE
  8
0
 10
44.33587868252952
 20
-81.64437523472465
 11
45.28100429379454
 21
-81.17068468496277
  0
LINE
  8
0
 10
45.28100429379454
 20
-81.17068468496277
 11
46.18056664004644
 21
-80.61531747022224
  0
LINE
  8
0
 10
46.18056664004644
 20
-80.61531747022224
 11
46.17673027486478
 21
-80.57910785093762
  0
LINE
  8
0
 10
46.17673027486478
 20
-80.57910785093762
 11
46.038078055029686
 21
-79.55871085545343
  0
LINE
  8
0
 10
46.038078055029686
 20
-79.55871085545343
 11
45.881583576799436
 21
-78.61627692003817
  0
LINE
  8
0
 10
45.881583576799436
 20
-78.61627692003817
 11
45.71171451272198
 21
-77.75190679434925
  0
LINE
  8
0
 10
45.71171451272198
 20
-77.75190679434925
 11
45.53292707402932
 21
-76.96550586299207
  0
LINE
  8
0
 10
45.53292707402932
 20
-76.96550586299207
 11
45.349658384587094
 21
-76.25678496475548
  0
LINE
  8
0
 10
45.349658384587094
 20
-76.25678496475548
 11
45.15350463363374
 21
-75.581122027476
  0
LINE
  8
0
 10
45.15350463363374
 20
-75.581122027476
 11
45.131418532433756
 21
-75.41282659674468
  0
LINE
  8
0
 10
45.131418532433756
 20
-75.41282659674468
 11
45.156610468499565
 21
-75.31026804965515
  0
LINE
  8
0
 10
45.156610468499565
 20
-75.31026804965515
 11
47.094209024471866
 21
-74.11404333238069
  0
LINE
  8
0
 10
47.094209024471866
 20
-74.11404333238069
 11
47.19718404435499
 21
-74.1374748176902
  0
LINE
  8
0
 10
47.19718404435499
 20
-74.1374748176902
 11
47.33774412593219
 21
-74.23262738645371
  0
LINE
  8
0
 10
47.33774412593219
 20
-74.23262738645371
 11
47.85389687081447
 21
-74.71073097646514
  0
LINE
  8
0
 10
47.85389687081447
 20
-74.71073097646514
 11
48.40537680381707
 21
-75.19212749454294
  0
LINE
  8
0
 10
48.40537680381707
 20
-75.19212749454294
 11
49.02831059286809
 21
-75.70432361667994
  0
LINE
  8
0
 10
49.02831059286809
 20
-75.70432361667994
 11
49.724944875937055
 21
-76.24348211728577
  0
LINE
  8
0
 10
49.724944875937055
 20
-76.24348211728577
 11
50.49736091939611
 21
-76.805661537114
  0
LINE
  8
0
 10
50.49736091939611
 20
-76.805661537114
 11
51.34747046879806
 21
-77.38682263400236
  0
LINE
  8
0
 10
51.34747046879806
 20
-77.38682263400236
 11
51.37812292381072
 21
-77.40647667247418
  0
LINE
  8
0
 10
51.37812292381072
 20
-77.40647667247418
 11
52.277685270062626
 21
-76.8511094577337
  0
LINE
  8
0
 10
52.277685270062626
 20
-76.8511094577337
 11
53.12464405627031
 21
-76.21841207946463
  0
LINE
  8
0
 10
53.12464405627031
 20
-76.21841207946463
 11
53.117622493528344
 21
-76.18268321321888
  0
LINE
  8
0
 10
53.117622493528344
 20
-76.18268321321888
 11
52.88933005130747
 21
-75.17853331042389
  0
LINE
  8
0
 10
52.88933005130747
 20
-75.17853331042389
 11
52.65015555402673
 21
-74.25361828503543
  0
LINE
  8
0
 10
52.65015555402673
 20
-74.25361828503543
 11
52.404558095701766
 21
-73.40764363909243
  0
LINE
  8
0
 10
52.404558095701766
 20
-73.40764363909243
 11
52.156968087498676
 21
-72.64012128703244
  0
LINE
  8
0
 10
52.156968087498676
 20
-72.64012128703244
 11
51.911779733929855
 21
-71.95037104571217
  0
LINE
  8
0
 10
51.911779733929855
 20
-71.95037104571217
 11
51.65667840643534
 21
-71.29468818675004
  0
LINE
  8
0
 10
51.65667840643534
 20
-71.29468818675004
 11
51.61980476430774
 21
-71.12900329791735
  0
LINE
  8
0
 10
51.61980476430774
 20
-71.12900329791735
 11
51.63583398472632
 21
-71.02461961472582
  0
LINE
  8
0
 10
51.63583398472632
 20
-71.02461961472582
 11
53.46012790716713
 21
-69.66183077456391
  0
LINE
  8
0
 10
53.46012790716713
 20
-69.66183077456391
 11
53.56477084459814
 21
-69.67606962527417
  0
LINE
  8
0
 10
53.56477084459814
 20
-69.67606962527417
 11
53.713190483546995
 21
-69.75842713039407
  0
LINE
  8
0
 10
53.713190483546995
 20
-69.75842713039407
 11
54.269578276195624
 21
-70.18904218241029
  0
LINE
  8
0
 10
54.269578276195624
 20
-70.18904218241029
 11
54.8614460447188
 21
-70.61981505609823
  0
LINE
  8
0
 10
54.8614460447188
 20
-70.61981505609823
 11
55.527210129866546
 21
-71.07495191024326
  0
LINE
  8
0
 10
55.527210129866546
 20
-71.07495191024326
 11
56.26876924371526
 21
-71.55043197690266
  0
LINE
  8
0
 10
56.26876924371526
 20
-71.55043197690266
 11
57.087848161690985
 21
-72.04214527792175
  0
LINE
  8
0
 10
57.087848161690985
 20
-72.04214527792175
 11
57.985994159701235
 21
-72.54589941713951
  0
LINE
  8
0
 10
57.985994159701235
 20
-72.54589941713951
 11
58.0182636921795
 21
-72.56276747868162
  0
LINE
  8
0
 10
58.0182636921795
 20
-72.56276747868162
 11
58.86522247838718
 21
-71.93007010041254
  0
LINE
  8
0
 10
58.86522247838718
 20
-71.93007010041254
 11
59.65294910369937
 21
-71.22499427344275
  0
LINE
  8
0
 10
59.65294910369937
 20
-71.22499427344275
 11
59.64279729664579
 21
-71.19002578705722
  0
LINE
  8
0
 10
59.64279729664579
 20
-71.19002578705722
 11
59.32665132992983
 21
-70.20998181141756
  0
LINE
  8
0
 10
59.32665132992983
 20
-70.20998181141756
 11
59.006668678324615
 21
-69.30982441017568
  0
LINE
  8
0
 10
59.006668678324615
 20
-69.30982441017568
 11
58.68726495885687
 21
-68.48886614259796
  0
LINE
  8
0
 10
58.68726495885687
 20
-68.48886614259796
 11
58.37281010865249
 21
-67.74622927288529
  0
LINE
  8
0
 10
58.37281010865249
 20
-67.74622927288529
 11
58.06762102226241
 21
-67.08084791931762
  0
LINE
  8
0
 10
58.06762102226241
 20
-67.08084791931762
 11
57.75556863199353
 21
-66.4502767460519
  0
LINE
  8
0
 10
57.75556863199353
 20
-66.4502767460519
 11
57.70419603518309
 21
-66.28849910801682
  0
LINE
  8
0
 10
57.70419603518309
 20
-66.28849910801682
 11
57.71093708957145
 21
-66.18310723257288
  0
LINE
  8
0
 10
57.71093708957145
 20
-66.18310723257288
 11
59.407648805068554
 21
-64.66441993993519
  0
LINE
  8
0
 10
59.407648805068554
 20
-64.66441993993519
 11
59.51314068718191
 21
-64.66935471773365
  0
LINE
  8
0
 10
59.51314068718191
 20
-64.66935471773365
 11
59.66825829859286
 21
-64.73827260006796
  0
LINE
  8
0
 10
59.66825829859286
 20
-64.73827260006796
 11
60.26052665015191
 21
-65.11802896745745
  0
LINE
  8
0
 10
60.26052665015191
 20
-65.11802896745745
 11
60.88815008642298
 21
-65.4948068149555
  0
LINE
  8
0
 10
60.88815008642298
 20
-65.4948068149555
 11
61.591533961024886
 21
-65.88932233812749
  0
LINE
  8
0
 10
61.591533961024886
 20
-65.88932233812749
 11
62.37221420014448
 21
-66.29740269463917
  0
LINE
  8
0
 10
62.37221420014448
 20
-66.29740269463917
 11
63.23154558955547
 21
-66.71480155357908
  0
LINE
  8
0
 10
63.23154558955547
 20
-66.71480155357908
 11
64.17069882598823
 21
-67.13720617597177
  0
LINE
  8
0
 10
64.17069882598823
 20
-67.13720617597177
 11
64.20433288308786
 21
-67.15115624513216
  0
LINE
  8
0
 10
64.20433288308786
 20
-67.15115624513216
 11
64.99205950839992
 21
-66.44608041816241
  0
LINE
  8
0
 10
64.99205950839992
 20
-66.44608041816241
 11
65.71438894393421
 21
-65.67414431681483
  0
LINE
  8
0
 10
65.71438894393421
 20
-65.67414431681483
 11
65.70118634422356
 21
-65.64020988610763
  0
LINE
  8
0
 10
65.70118634422356
 20
-65.64020988610763
 11
65.29966112384862
 21
-64.69194201052541
  0
LINE
  8
0
 10
65.29966112384862
 20
-64.69194201052541
 11
64.90137461601624
 21
-63.823587185573345
  0
LINE
  8
0
 10
64.90137461601624
 20
-63.823587185573345
 11
64.51066440257412
 21
-63.03407040790103
  0
LINE
  8
0
 10
64.51066440257412
 20
-63.03407040790103
 11
64.13180574592494
 21
-62.32213116094545
  0
LINE
  8
0
 10
64.13180574592494
 20
-62.32213116094545
 11
63.76900444510527
 21
-61.68632620637943
  0
LINE
  8
0
 10
63.76900444510527
 20
-61.68632620637943
 11
63.40244322511215
 21
-61.08580179320092
  0
LINE
  8
0
 10
63.40244322511215
 20
-61.08580179320092
 11
63.33697373384245
 21
-60.92919753532732
  0
LINE
  8
0
 10
63.33697373384245
 20
-60.92919753532732
 11
63.334373864310145
 21
-60.82362230195191
  0
LINE
  8
0
 10
63.334373864310145
 20
-60.82362230195191
 11
64.890224303203
 21
-59.16092234401565
  0
LINE
  8
0
 10
64.890224303203
 20
-59.16092234401565
 11
64.99573951298999
 21
-59.15651442757522
  0
LINE
  8
0
 10
64.99573951298999
 20
-59.15651442757522
 11
65.15634109123752
 21
-59.21145331125234
  0
LINE
  8
0
 10
65.15634109123752
 20
-59.21145331125234
 11
65.77985469882891
 21
-59.53737888554759
  0
LINE
  8
0
 10
65.77985469882891
 20
-59.53737888554759
 11
66.43832179849578
 21
-59.857212909344774
  0
LINE
  8
0
 10
66.43832179849578
 20
-59.857212909344774
 11
67.17382053004995
 21
-60.188019482671
  0
LINE
  8
0
 10
67.17382053004995
 20
-60.188019482671
 11
67.98751201308392
 21
-60.52550634694946
  0
LINE
  8
0
 10
67.98751201308392
 20
-60.52550634694946
 11
68.88037044068349
 21
-60.8653240518087
  0
LINE
  8
0
 10
68.88037044068349
 20
-60.8653240518087
 11
69.85318076811267
 21
-61.203073268488744
  0
LINE
  8
0
 10
69.85318076811267
 20
-61.203073268488744
 11
69.88791611773401
 21
-61.21399616706189
  0
LINE
  8
0
 10
69.88791611773401
 20
-61.21399616706189
 11
70.6102455532684
 21
-60.44206006571441
  0
LINE
  8
0
 10
70.6102455532684
 20
-60.44206006571441
 11
71.26152459182141
 21
-59.60930513661198
  0
LINE
  8
0
 10
71.26152459182141
 20
-59.60930513661198
 11
71.24537452769715
 21
-59.576670344513296
  0
LINE
  8
0
 10
71.24537452769715
 20
-59.576670344513296
 11
70.7616125329207
 21
-58.667600050824056
  0
LINE
  8
0
 10
70.7616125329207
 20
-58.667600050824056
 11
70.28813930080173
 21
-57.837843856026055
  0
LINE
  8
0
 10
70.28813930080173
 20
-57.837843856026055
 11
69.82918043054991
 21
-57.08594760751085
  0
LINE
  8
0
 10
69.82918043054991
 20
-57.08594760751085
 11
69.38888305011974
 21
-56.410277873202695
  0
LINE
  8
0
 10
69.38888305011974
 20
-56.410277873202695
 11
68.97130894695357
 21
-55.809025353464015
  0
LINE
  8
0
 10
68.97130894695357
 20
-55.809025353464015
 11
68.55310773578475
 21
-55.243247618126944
  0
LINE
  8
0
 10
68.55310773578475
 20
-55.243247618126944
 11
68.47405373759179
 21
-55.09304238106458
  0
LINE
  8
0
 10
68.47405373759179
 20
-55.09304238106458
 11
68.46213329164294
 21
-54.98811005910304
  0
LINE
  8
0
 10
68.46213329164294
 20
-54.98811005910304
 11
69.86494581474723
 21
-53.194410317411
  0
LINE
  8
0
 10
69.86494581474723
 20
-53.194410317411
 11
69.96965855262846
 21
-53.180694204654294
  0
LINE
  8
0
 10
69.96965855262846
 20
-53.180694204654294
 11
70.13448717261112
 21
-53.22122411842057
  0
LINE
  8
0
 10
70.13448717261112
 20
-53.22122411842057
 11
70.78436619686448
 21
-53.49076809009648
  0
LINE
  8
0
 10
70.78436619686448
 20
-53.49076809009648
 11
71.46852356208952
 21
-53.75115515530958
  0
LINE
  8
0
 10
71.46852356208952
 20
-53.75115515530958
 11
72.23038087579555
 21
-54.01566376882964
  0
LINE
  8
0
 10
72.23038087579555
 20
-54.01566376882964
 11
73.07071536364545
 21
-54.27991584858031
  0
LINE
  8
0
 10
73.07071536364545
 20
-54.27991584858031
 11
73.99011300165543
 21
-54.539492865076475
  0
LINE
  8
0
 10
73.99011300165543
 20
-54.539492865076475
 11
74.9889668602839
 21
-54.78994333048604
  0
LINE
  8
0
 10
74.9889668602839
 20
-54.78994333048604
 11
75.02453165122027
 21
-54.797753571980856
  0
LINE
  8
0
 10
75.02453165122027
 20
-54.797753571980856
 11
75.67581068977331
 21
-53.96499864287851
  0
LINE
  8
0
 10
75.67581068977331
 20
-53.96499864287851
 11
76.25094218983158
 21
-53.077942322432264
  0
LINE
  8
0
 10
76.25094218983158
 20
-53.077942322432264
 11
76.23197105744254
 21
-53.046862580438166
  0
LINE
  8
0
 10
76.23197105744254
 20
-53.046862580438166
 11
75.66975838178243
 21
-52.18410457625308
  0
LINE
  8
0
 10
75.66975838178243
 20
-52.18410457625308
 11
75.12480399537695
 21
-51.39944097885845
  0
LINE
  8
0
 10
75.12480399537695
 20
-51.39944097885845
 11
74.6011884437546
 21
-50.691049867103594
  0
LINE
  8
0
 10
74.6011884437546
 20
-50.691049867103594
 11
74.10289826352258
 21
-50.05693767722072
  0
LINE
  8
0
 10
74.10289826352258
 20
-50.05693767722072
 11
73.63381944153505
 21
-49.494943208484635
  0
LINE
  8
0
 10
73.63381944153505
 20
-49.494943208484635
 11
73.16725123068608
 21
-48.96834012887781
  0
LINE
  8
0
 10
73.16725123068608
 20
-48.96834012887781
 11
73.07523143029108
 21
-48.82570947226247
  0
LINE
  8
0
 10
73.07523143029108
 20
-48.82570947226247
 11
73.05408370157758
 21
-48.72224129940667
  0
LINE
  8
0
 10
73.05408370157758
 20
-48.72224129940667
 11
74.2928793988965
 21
-46.81157990642558
  0
LINE
  8
0
 10
74.2928793988965
 20
-46.81157990642558
 11
74.39597014572328
 21
-46.788662944531914
  0
LINE
  8
0
 10
74.39597014572328
 20
-46.788662944531914
 11
74.56373580000678
 21
-46.814466686859625
  0
LINE
  8
0
 10
74.56373580000678
 20
-46.814466686859625
 11
75.23489405641878
 21
-47.025519508876606
  0
LINE
  8
0
 10
75.23489405641878
 20
-47.025519508876606
 11
75.9393872282043
 21
-47.224421733674525
  0
LINE
  8
0
 10
75.9393872282043
 20
-47.224421733674525
 11
76.72164055761807
 21
-47.42056224885358
  0
LINE
  8
0
 10
76.72164055761807
 20
-47.42056224885358
 11
77.5820412935489
 21
-47.60951141326619
  0
LINE
  8
0
 10
77.5820412935489
 20
-47.60951141326619
 11
78.52078260888646
 21
-47.78681619929768
  0
LINE
  8
0
 10
78.52078260888646
 20
-47.78681619929768
 11
79.53786261297434
 21
-47.94800779897164
  0
LINE
  8
0
 10
79.53786261297434
 20
-47.94800779897164
 11
79.57397850251614
 21
-47.95264425765888
  0
LINE
  8
0
 10
79.57397850251614
 20
-47.95264425765888
 11
80.14911000257447
 21
-47.06558793721265
  0
LINE
  8
0
 10
80.14911000257447
 20
-47.06558793721265
 11
80.64359278035802
 21
-46.131172643845524
  0
LINE
  8
0
 10
80.64359278035802
 20
-46.131172643845524
 11
80.62194905453713
 21
-46.10189119307656
  0
LINE
  8
0
 10
80.62194905453713
 20
-46.10189119307656
 11
79.98568577445651
 21
-45.2921977295489
  0
LINE
  8
0
 10
79.98568577445651
 20
-45.2921977295489
 11
79.37351524071461
 21
-44.55876778609349
  0
LINE
  8
0
 10
79.37351524071461
 20
-44.55876778609349
 11
78.78934100935736
 21
-43.89942593202065
  0
LINE
  8
0
 10
78.78934100935736
 20
-43.89942593202065
 11
78.23695782559061
 21
-43.31183407420996
  0
LINE
  8
0
 10
78.23695782559061
 20
-43.31183407420996
 11
77.72004546256437
 21
-42.7934960251746
  0
LINE
  8
0
 10
77.72004546256437
 20
-42.7934960251746
 11
77.20876178088169
 21
-42.31018898439078
  0
LINE
  8
0
 10
77.20876178088169
 20
-42.31018898439078
 11
77.10449635798783
 21
-42.17624918649628
  0
LINE
  8
0
 10
77.10449635798783
 20
-42.17624918649628
 11
77.07428685615997
 21
-42.07505494148614
  0
LINE
  8
0
 10
77.07428685615997
 20
-42.07505494148614
 11
78.13937047174073
 21
-40.062385413186526
  0
LINE
  8
0
 10
78.13937047174073
 20
-40.062385413186526
 11
78.24003240264354
 21
-40.03044695845468
  0
LINE
  8
0
 10
78.24003240264354
 20
-40.03044695845468
 11
78.40942209751803
 21
-40.04132258007412
  0
LINE
  8
0
 10
78.40942209751803
 20
-40.04132258007412
 11
79.09660686274226
 21
-40.19223247794391
  0
LINE
  8
0
 10
79.09660686274226
 20
-40.19223247794391
 11
79.81592222683187
 21
-40.328093182735984
  0
LINE
  8
0
 10
79.81592222683187
 20
-40.328093182735984
 11
80.6124493790325
 21
-40.454330534105615
  0
LINE
  8
0
 10
80.6124493790325
 20
-40.454330534105615
 11
81.48618256071113
 21
-40.566497999781895
  0
LINE
  8
0
 10
81.48618256071113
 20
-40.566497999781895
 11
82.43692062979125
 21
-40.6601429049993
  0
LINE
  8
0
 10
82.43692062979125
 20
-40.6601429049993
 11
83.46426674929852
 21
-40.73081409611856
  0
LINE
  8
0
 10
83.46426674929852
 20
-40.73081409611856
 11
83.50065108164236
 21
-40.73224048542269
  0
LINE
  8
0
 10
83.50065108164236
 20
-40.73224048542269
 11
83.99513385942585
 21
-39.7978251920556
  0
LINE
  8
0
 10
83.99513385942585
 20
-39.7978251920556
 11
84.405097916754
 21
-38.82336399236526
  0
LINE
  8
0
 10
84.405097916754
 20
-38.82336399236526
 11
84.38095098900138
 21
-38.79610999987493
  0
LINE
  8
0
 10
84.38095098900138
 20
-38.79610999987493
 11
83.67561672734455
 21
-38.04581802617978
  0
LINE
  8
0
 10
83.67561672734455
 20
-38.04581802617978
 11
83.00102111070426
 21
-37.3693618203922
  0
LINE
  8
0
 10
83.00102111070426
 20
-37.3693618203922
 11
82.36086015502516
 21
-36.7642294679782
  0
LINE
  8
0
 10
82.36086015502516
 20
-36.7642294679782
 11
81.75870711508544
 21
-36.22775664521356
  0
LINE
  8
0
 10
81.75870711508544
 20
-36.22775664521356
 11
81.19800675111686
 21
-35.757131713901316
  0
LINE
  8
0
 10
81.19800675111686
 20
-35.757131713901316
 11
80.64600908663367
 21
-35.320903244826546
  0
LINE
  8
0
 10
80.64600908663367
 20
-35.320903244826546
 11
80.53031405954334
 21
-35.1967025661737
  0
LINE
  8
0
 10
80.53031405954334
 20
-35.1967025661737
 11
80.49127921491255
 21
-35.098574231180656
  0
LINE
  8
0
 10
80.49127921491255
 20
-35.098574231180656
 11
81.37431502536947
 21
-32.99964843549967
  0
LINE
  8
0
 10
81.37431502536947
 20
-32.99964843549967
 11
81.4717603242565
 21
-32.958938449641686
  0
LINE
  8
0
 10
81.4717603242565
 20
-32.958938449641686
 11
81.64144835569256
 21
-32.95480083406797
  0
LINE
  8
0
 10
81.64144835569256
 20
-32.95480083406797
 11
82.33928147722158
 21
-33.04438673322852
  0
LINE
  8
0
 10
82.33928147722158
 20
-33.04438673322852
 11
83.06778941560748
 21
-33.116142623793
  0
LINE
  8
0
 10
83.06778941560748
 20
-33.116142623793
 11
83.87235648565753
 21
-33.17148883291982
  0
LINE
  8
0
 10
83.87235648565753
 20
-33.17148883291982
 11
84.75258396628612
 21
-33.205996737358575
  0
LINE
  8
0
 10
84.75258396628612
 20
-33.205996737358575
 11
85.70787797465994
 21
-33.21524886341012
  0
LINE
  8
0
 10
85.70787797465994
 20
-33.21524886341012
 11
86.7374498332741
 21
-33.19484654808462
  0
LINE
  8
0
 10
86.7374498332741
 20
-33.19484654808462
 11
86.77381785168775
 21
-33.193051704575396
  0
LINE
  8
0
 10
86.77381785168775
 20
-33.193051704575396
 11
87.18378190901572
 21
-32.2185905048851
  0
LINE
  8
0
 10
87.18378190901572
 20
-32.2185905048851
 11
87.50601872128979
 21
-31.21170987898234
  0
LINE
  8
0
 10
87.50601872128979
 20
-31.21170987898234
 11
87.47955757405498
 21
-31.186696644214333
  0
LINE
  8
0
 10
87.47955757405498
 20
-31.186696644214333
 11
86.71067252774692
 21
-30.50167821232932
  0
LINE
  8
0
 10
86.71067252774692
 20
-30.50167821232932
 11
85.97893145355897
 21
-29.887489931193063
  0
LINE
  8
0
 10
85.97893145355897
 20
-29.887489931193063
 11
85.28779390099855
 21
-29.34130306156432
  0
LINE
  8
0
 10
85.28779390099855
 20
-29.34130306156432
 11
84.64058366885266
 21
-28.8601479010606
  0
LINE
  8
0
 10
84.64058366885266
 20
-28.8601479010606
 11
84.04048354451544
 21
-28.440919365655855
  0
LINE
  8
0
 10
84.04048354451544
 20
-28.440919365655855
 11
83.4520920273824
 21
-28.055183547521064
  0
LINE
  8
0
 10
83.4520920273824
 20
-28.055183547521064
 11
83.32587286654775
 21
-27.941694026817828
  0
LINE
  8
0
 10
83.32587286654775
 20
-27.941694026817828
 11
83.27831817969862
 21
-27.847399589110516
  0
LINE
  8
0
 10
83.27831817969862
 20
-27.847399589110516
 11
83.97239523255067
 21
-25.678644466228143
  0
LINE
  8
0
 10
83.97239523255067
 20
-25.678644466228143
 11
84.0658612578369
 21
-25.62948156007999
  0
LINE
  8
0
 10
84.0658612578369
 20
-25.62948156007999
 11
84.23451958691702
 21
-25.610363089764956
  0
LINE
  8
0
 10
84.23451958691702
 20
-25.610363089764956
 11
84.93753957441777
 21
-25.637923859090293
  0
LINE
  8
0
 10
84.93753957441777
 20
-25.637923859090293
 11
85.66953852473449
 21
-25.645013348293286
  0
LINE
  8
0
 10
85.66953852473449
 20
-25.645013348293286
 11
86.4758486844385
 21
-25.629035256049715
  0
LINE
  8
0
 10
86.4758486844385
 20
-25.629035256049715
 11
87.35568149052462
 21
-25.585613528111168
  0
LINE
  8
0
 10
87.35568149052462
 20
-25.585613528111168
 11
88.3080549673411
 21
-25.510400464565993
  0
LINE
  8
0
 10
88.3080549673411
 20
-25.510400464565993
 11
89.33179476932338
 21
-25.399084318575653
  0
LINE
  8
0
 10
89.33179476932338
 20
-25.399084318575653
 11
89.36786184475298
 21
-25.39408228933699
  0
LINE
  8
0
 10
89.36786184475298
 20
-25.39408228933699
 11
89.69009865702712
 21
-24.3872016634342
  0
LINE
  8
0
 10
89.69009865702712
 20
-24.3872016634342
 11
89.92208628428631
 21
-23.355781817395968
  0
LINE
  8
0
 10
89.92208628428631
 20
-23.355781817395968
 11
89.89351801192387
 21
-23.333205102826522
  0
LINE
  8
0
 10
89.89351801192387
 20
-23.333205102826522
 11
89.06709974894483
 21
-22.718821410763454
  0
LINE
  8
0
 10
89.06709974894483
 20
-22.718821410763454
 11
88.28394008324595
 21
-22.17170791032567
  0
LINE
  8
0
 10
88.28394008324595
 20
-22.17170791032567
 11
87.5472350222319
 21
-21.68874117628456
  0
LINE
  8
0
 10
87.5472350222319
 20
-21.68874117628456
 11
86.86003289546643
 21
-21.26666936954697
  0
LINE
  8
0
 10
86.86003289546643
 20
-21.26666936954697
 11
86.22522960787933
 21
-20.902118261750328
  0
LINE
  8
0
 10
86.22522960787933
 20
-20.902118261750328
 11
85.60504919948875
 21
-20.569894000332372
  0
LINE
  8
0
 10
85.60504919948875
 20
-20.569894000332372
 11
85.46929374097753
 21
-20.468003846953035
  0
LINE
  8
0
 10
85.46929374097753
 20
-20.468003846953035
 11
85.41359139181169
 21
-20.378281288355634
  0
LINE
  8
0
 10
85.41359139181169
 20
-20.378281288355634
 11
85.91327759305588
 21
-18.15667028761529
  0
LINE
  8
0
 10
85.91327759305588
 20
-18.15667028761529
 11
86.00203284636753
 21
-18.099439227575115
  0
LINE
  8
0
 10
86.00203284636753
 20
-18.099439227575115
 11
86.16834149299123
 21
-18.065489530470764
  0
LINE
  8
0
 10
86.16834149299123
 20
-18.065489530470764
 11
86.87104626187175
 21
-18.030809469572645
  0
LINE
  8
0
 10
86.87104626187175
 20
-18.030809469572645
 11
87.60080733985225
 21
-17.973177072548847
  0
LINE
  8
0
 10
87.60080733985225
 20
-17.973177072548847
 11
88.40255011897482
 21
-17.885999729170585
  0
LINE
  8
0
 10
88.40255011897482
 20
-17.885999729170585
 11
89.27510236588941
 21
-17.764988202749215
  0
LINE
  8
0
 10
89.27510236588941
 20
-17.764988202749215
 11
90.2171016974168
 21
-17.605898593807204
  0
LINE
  8
0
 10
90.2171016974168
 20
-17.605898593807204
 11
91.22699729077897
 21
-17.404539816922398
  0
LINE
  8
0
 10
91.22699729077897
 20
-17.404539816922398
 11
91.26248114945797
 21
-17.396369749615168
  0
LINE
  8
0
 10
91.26248114945797
 20
-17.396369749615168
 11
91.49446877671738
 21
-16.36494990357702
  0
LINE
  8
0
 10
91.49446877671738
 20
-16.36494990357702
 11
91.63439160123825
 21
-15.31706309614932
  0
LINE
  8
0
 10
91.63439160123825
 20
-15.31706309614932
 11
91.6039397892131
 21
-15.29709959518046
  0
LINE
  8
0
 10
91.6039397892131
 20
-15.29709959518046
 11
90.72645615297017
 21
-14.758159028341929
  0
LINE
  8
0
 10
90.72645615297017
 20
-14.758159028341929
 11
89.8980071819916
 21
-14.282402213547442
  0
LINE
  8
0
 10
89.8980071819916
 20
-14.282402213547442
 11
89.121500328488
 21
-13.866435484618329
  0
LINE
  8
0
 10
89.121500328488
 20
-13.866435484618329
 11
88.39968459548798
 21
-13.506750315800703
  0
LINE
  8
0
 10
88.39968459548798
 20
-13.506750315800703
 11
87.73514634107448
 21
-13.199729742307326
  0
LINE
  8
0
 10
87.73514634107448
 20
-13.199729742307326
 11
87.08803079399367
 21
-12.9236171428981
  0
LINE
  8
0
 10
87.08803079399367
 20
-12.9236171428981
 11
86.9438015083328
 21
-12.83412378544063
  0
LINE
  8
0
 10
86.9438015083328
 20
-12.83412378544063
 11
86.88038744325651
 21
-12.749675306624507
  0
LINE
  8
0
 10
86.88038744325651
 20
-12.749675306624507
 11
87.18177207086849
 21
-10.492595546278512
  0
LINE
  8
0
 10
87.18177207086849
 20
-10.492595546278512
 11
87.26512192200958
 21
-10.427744242987865
  0
LINE
  8
0
 10
87.26512192200958
 20
-10.427744242987865
 11
87.42777929552744
 21
-10.37922902150474
  0
LINE
  8
0
 10
87.42777929552744
 20
-10.37922902150474
 11
88.12466922820893
 21
-10.282579548880653
  0
LINE
  8
0
 10
88.12466922820893
 20
-10.282579548880653
 11
88.84648106397137
 21
-10.160676317277675
  0
LINE
  8
0
 10
88.84648106397137
 20
-10.160676317277675
 11
89.6373817382228
 21
-10.00298200367607
  0
LINE
  8
0
 10
89.6373817382228
 20
-10.00298200367607
 11
90.49582452158369
 21
-9.805327758039613
  0
LINE
  8
0
 10
90.49582452158369
 20
-9.805327758039613
 11
91.42007728584288
 21
-9.563606695592403
  0
LINE
  8
0
 10
91.42007728584288
 20
-9.563606695592403
 11
92.40822486829981
 21
-9.273781193254576
  0
LINE
  8
0
 10
92.40822486829981
 20
-9.273781193254576
 11
92.44284780092318
 21
-9.262507029732813
  0
LINE
  8
0
 10
0.41582338163551874
 20
-1.9562952014676114
 11
1.2246467991473532e-16
 21
-2
  0
LINE
  8
0
 10
1.2246467991473532e-16
 20
-2
 11
-0.41582338163551785
 21
-1.9562952014676114
  0
LINE
  8
0
 10
-0.41582338163551785
 20
-1.9562952014676114
 11
-0.8134732861516002
 21
-1.827090915285202
  0
LINE
  8
0
 10
-0.8134732861516002
 20
-1.827090915285202
 11
-1.1755705045849467
 21
-1.6180339887498945
  0
LINE
  8
0
 10
-1.1755705045849467
 20
-1.6180339887498945
 11
-1.486289650954788
 21
-1.338261212717717
  0
LINE
  8
0
 10
-1.486289650954788
 20
-1.338261212717717
 11
-1.7320508075688772
 21
-1.0000000000000002
  0
LINE
  8
0
 10
-1.7320508075688772
 20
-1.0000000000000002
 11
-1.9021130325903073
 21
-0.6180339887498946
  0
LINE
  8
0
 10
-1.9021130325903073
 20
-0.6180339887498946
 11
-1.9890437907365468
 21
-0.20905692653530608
  0
LINE
  8
0
 10
-1.9890437907365468
 20
-0.20905692653530608
 11
-1.9890437907365466
 21
0.20905692653530836
  0
LINE
  8
0
 10
-1.9890437907365466
 20
0.20905692653530836
 11
-1.902113032590307
 21
0.618033988749895
  0
LINE
  8
0
 10
-1.902113032590307
 20
0.618033988749895
 11
-1.7320508075688767
 21
1.0000000000000009
  0
LINE
  8
0
 10
-1.7320508075688767
 20
1.0000000000000009
 11
-1.486289650954788
 21
1.338261212717717
  0
LINE
  8
0
 10
-1.486289650954788
 20
1.338261212717717
 11
-1.175570504584946
 21
1.618033988749895
  0
LINE
  8
0
 10
-1.175570504584946
 20
1.618033988749895
 11
-0.8134732861516005
 21
1.8270909152852017
  0
LINE
  8
0
 10
-0.8134732861516005
 20
1.8270909152852017
 11
-0.41582338163551824
 21
1.9562952014676114
  0
LINE
  8
0
 10
-0.41582338163551824
 20
1.9562952014676114
 11
1.0106430996148606e-15
 21
2
  0
LINE
  8
0
 10
1.0106430996148606e-15
 20
2
 11
0.4158233816355185
 21
1.9562952014676114
  0
LINE
  8
0
 10
0.4158233816355185
 20
1.9562952014676114
 11
0.8134732861516
 21
1.827090915285202
  0
LINE
  8
0
 10
0.8134732861516
 20
1.827090915285202
 11
1.1755705045849465
 21
1.618033988749895
  0
LINE
  8
0
 10
1.1755705045849465
 20
1.618033988749895
 11
1.486289650954789
 21
1.3382612127177158
  0
LINE
  8
0
 10
1.486289650954789
 20
1.3382612127177158
 11
1.7320508075688774
 21
0.9999999999999997
  0
LINE
  8
0
 10
1.7320508075688774
 20
0.9999999999999997
 11
1.9021130325903073
 21
0.6180339887498948
  0
LINE
  8
0
 10
1.9021130325903073
 20
0.6180339887498948
 11
1.9890437907365468
 21
0.20905692653530678
  0
LINE
  8
0
 10
1.9890437907365468
 20
0.20905692653530678
 11
1.9890437907365466
 21
-0.2090569265353068
  0
LINE
  8
0
 10
1.9890437907365466
 20
-0.2090569265353068
 11
1.902113032590307
 21
-0.6180339887498948
  0
LINE
  8
0
 10
1.902113032590307
 20
-0.6180339887498948
 11
1.7320508075688772
 21
-1.0000000000000002
  0
LINE
  8
0
 10
1.7320508075688772
 20
-1.0000000000000002
 11
1.4862896509547885
 21
-1.3382612127177165
  0
LINE
  8
0
 10
1.4862896509547885
 20
-1.3382612127177165
 11
1.1755705045849463
 21
-1.618033988749895
  0
LINE
  8
0
 10
1.1755705045849463
 20
-1.618033988749895
 11
0.8134732861516004
 21
-1.8270909152852017
  0
LINE
  8
0
 10
0.8134732861516004
 20
-1.8270909152852017
 11
0.41582338163551874
 21
-1.9562952014676114
  0
ENDSEC
  0
SECTION
  2
OBJECTS
  0
DICTIONARY
  0
ENDSEC
  0
EOF
