  0
SECTION
  2
BLOCKS
  0
ENDSEC
  0
SECTION
  2
ENTITIES
  0
LINE
  8
0
 10
39.59845328598851
 20
-9.422254622245909
 11
39.85331858694728
 21
-8.471084369981492
  0
LINE
  8
0
 10
39.85331858694728
 20
-8.471084369981492
 11
40.00736334434527
 21
-7.498484049632132
  0
LINE
  8
0
 10
40.00736334434527
 20
-7.498484049632132
 11
39.240138939112185
 21
-6.922818324905341
  0
LINE
  8
0
 10
39.240138939112185
 20
-6.922818324905341
 11
38.33161295705225
 21
-6.335477569732794
  0
LINE
  8
0
 10
38.33161295705225
 20
-6.335477569732794
 11
37.538632600320696
 21
-5.8980589093794595
  0
LINE
  8
0
 10
37.538632600320696
 20
-5.8980589093794595
 11
36.87693594471671
 21
-5.591166092373533
  0
LINE
  8
0
 10
36.87693594471671
 20
-5.591166092373533
 11
36.36009086942849
 21
-5.393991056856294
  0
LINE
  8
0
 10
36.36009086942849
 20
-5.393991056856294
 11
35.804885954332796
 21
-5.225500361658252
  0
LINE
  8
0
 10
35.804885954332796
 20
-5.225500361658252
 11
35.446219897457524
 21
-5.04535168701019
  0
LINE
  8
0
 10
35.446219897457524
 20
-5.04535168701019
 11
35.286671313537056
 21
-4.853606383835872
  0
LINE
  8
0
 10
35.286671313537056
 20
-4.853606383835872
 11
35.52469439304584
 21
-2.5889680568727083
  0
LINE
  8
0
 10
35.52469439304584
 20
-2.5889680568727083
 11
35.72062254779749
 21
-2.4345848644712365
  0
LINE
  8
0
 10
35.72062254779749
 20
-2.4345848644712365
 11
36.10890590633938
 21
-2.3329437369131303
  0
LINE
  8
0
 10
36.10890590633938
 20
-2.3329437369131303
 11
36.68700944728138
 21
-2.283568560306692
  0
LINE
  8
0
 10
36.68700944728138
 20
-2.283568560306692
 11
37.233555212647275
 21
-2.198160405884875
  0
LINE
  8
0
 10
37.233555212647275
 20
-2.198160405884875
 11
37.944598813223344
 21
-2.0355484037231784
  0
LINE
  8
0
 10
37.944598813223344
 20
-2.0355484037231784
 11
38.81119509985932
 21
-1.7725582773361934
  0
LINE
  8
0
 10
38.81119509985932
 20
-1.7725582773361934
 11
39.82198261890108
 21
-1.3869454999361046
  0
LINE
  8
0
 10
39.82198261890108
 20
-1.3869454999361046
 11
40.69212896428594
 21
-0.9833743757948937
  0
LINE
  8
0
 10
40.69212896428594
 20
-0.9833743757948937
 11
40.743665431525216
 21
7.823900491013153e-15
  0
LINE
  8
0
 10
40.743665431525216
 20
7.823900491013153e-15
 11
40.69212896428595
 21
0.9833743757948923
  0
LINE
  8
0
 10
40.69212896428595
 20
0.9833743757948923
 11
39.821982618909004
 21
1.3869454999324284
  0
LINE
  8
0
 10
39.821982618909004
 20
1.3869454999324284
 11
38.81119509985865
 21
1.7725582773356903
  0
LINE
  8
0
 10
38.81119509985865
 20
1.7725582773356903
 11
37.944598813223344
 21
2.035548403723172
  0
LINE
  8
0
 10
37.944598813223344
 20
2.035548403723172
 11
37.2335552126472
 21
2.198160405884878
  0
LINE
  8
0
 10
37.2335552126472
 20
2.198160405884878
 11
36.6870094472815
 21
2.2835685603066618
  0
LINE
  8
0
 10
36.6870094472815
 20
2.2835685603066618
 11
36.108905906339345
 21
2.3329437369127217
  0
LINE
  8
0
 10
36.108905906339345
 20
2.3329437369127217
 11
35.72062254779748
 21
2.4345848644712222
  0
LINE
  8
0
 10
35.72062254779748
 20
2.4345848644712222
 11
35.52469439304587
 21
2.5889680568726736
  0
LINE
  8
0
 10
35.52469439304587
 20
2.5889680568726736
 11
35.28667131353704
 21
4.8536063838358325
  0
LINE
  8
0
 10
35.28667131353704
 20
4.8536063838358325
 11
35.44621989745754
 21
5.045351687010177
  0
LINE
  8
0
 10
35.44621989745754
 20
5.045351687010177
 11
35.80488595433292
 21
5.2255003616578595
  0
LINE
  8
0
 10
35.80488595433292
 20
5.2255003616578595
 11
36.36009086942839
 21
5.393991056856241
  0
LINE
  8
0
 10
36.36009086942839
 20
5.393991056856241
 11
36.8769359447168
 21
5.591166092373553
  0
LINE
  8
0
 10
36.8769359447168
 20
5.591166092373553
 11
37.5386326003207
 21
5.898058909379455
  0
LINE
  8
0
 10
37.5386326003207
 20
5.898058909379455
 11
38.33161295705301
 21
6.335477569732443
  0
LINE
  8
0
 10
38.33161295705301
 20
6.335477569732443
 11
39.2401389391052
 21
6.922818324900098
  0
LINE
  8
0
 10
39.2401389391052
 20
6.922818324900098
 11
40.00736334434527
 21
7.498484049632129
  0
LINE
  8
0
 10
40.00736334434527
 20
7.498484049632129
 11
39.85331858694728
 21
8.471084369981504
  0
LINE
  8
0
 10
39.85331858694728
 20
8.471084369981504
 11
39.59845328598852
 21
9.422254622245887
  0
LINE
  8
0
 10
39.59845328598852
 20
9.422254622245887
 11
38.66341457118612
 21
9.636093151120248
  0
LINE
  8
0
 10
38.66341457118612
 20
9.636093151120248
 11
37.59454178002449
 21
9.803124822006302
  0
LINE
  8
0
 10
37.59454178002449
 20
9.803124822006302
 11
36.69220397960174
 21
9.880192483938158
  0
LINE
  8
0
 10
36.69220397960174
 20
9.880192483938158
 11
35.96288945136436
 21
9.891416746462216
  0
LINE
  8
0
 10
35.96288945136436
 20
9.891416746462216
 11
35.41052966848522
 21
9.861325273606518
  0
LINE
  8
0
 10
35.41052966848522
 20
9.861325273606518
 11
34.834793400484344
 21
9.789426999474527
  0
LINE
  8
0
 10
34.834793400484344
 20
9.789426999474527
 11
34.43386258623445
 21
9.808118374940916
  0
LINE
  8
0
 10
34.43386258623445
 20
9.808118374940916
 11
34.21011786118192
 21
9.91839217024881
  0
LINE
  8
0
 10
34.21011786118192
 20
9.91839217024881
 11
33.506451373391485
 21
12.084054935383314
  0
LINE
  8
0
 10
33.506451373391485
 20
12.084054935383314
 11
33.62264734776445
 21
12.304782159485763
  0
LINE
  8
0
 10
33.62264734776445
 20
12.304782159485763
 11
33.936020675217186
 21
12.55556501969167
  0
LINE
  8
0
 10
33.936020675217186
 20
12.55556501969167
 11
34.444061845507676
 21
12.835807381593765
  0
LINE
  8
0
 10
34.444061845507676
 20
12.835807381593765
 11
34.908617620830654
 21
13.13613180300367
  0
LINE
  8
0
 10
34.908617620830654
 20
13.13613180300367
 11
35.492048012439675
 21
13.573892746115497
  0
LINE
  8
0
 10
35.492048012439675
 20
13.573892746115497
 11
36.176755392537196
 21
14.166622646009452
  0
LINE
  8
0
 10
36.176755392537196
 20
14.166622646009452
 11
36.943312892592786
 21
14.930021769570214
  0
LINE
  8
0
 10
36.943312892592786
 20
14.930021769570214
 11
37.574083969627914
 21
15.65262274037165
  0
LINE
  8
0
 10
37.574083969627914
 20
15.65262274037165
 11
37.22119048267972
 21
16.571941704222095
  0
LINE
  8
0
 10
37.22119048267972
 20
16.571941704222095
 11
36.77413518463276
 21
17.44933712871076
  0
LINE
  8
0
 10
36.77413518463276
 20
17.44933712871076
 11
35.81506977905532
 21
17.46409729249903
  0
LINE
  8
0
 10
35.81506977905532
 20
17.46409729249903
 11
34.7348265857769
 21
17.40524777134327
  0
LINE
  8
0
 10
34.7348265857769
 20
17.40524777134327
 11
33.83618376334234
 21
17.29302474218141
  0
LINE
  8
0
 10
33.83618376334234
 20
17.29302474218141
 11
33.12047285196708
 21
17.15237071093553
  0
LINE
  8
0
 10
33.12047285196708
 20
17.15237071093553
 11
32.58643982460263
 21
17.00809475256105
  0
LINE
  8
0
 10
32.58643982460263
 20
17.00809475256105
 11
32.038233267143795
 21
16.818065327276774
  0
LINE
  8
0
 10
32.038233267143795
 20
16.818065327276774
 11
31.642177597648082
 21
16.752990047852002
  0
LINE
  8
0
 10
31.642177597648082
 20
16.752990047852002
 11
31.400395020425755
 21
16.814334952059
  0
LINE
  8
0
 10
31.400395020425755
 20
16.814334952059
 11
30.261838726436572
 21
18.786372300525553
  0
LINE
  8
0
 10
30.261838726436572
 20
18.786372300525553
 11
30.329603769611765
 21
19.026434606696093
  0
LINE
  8
0
 10
30.329603769611765
 20
19.026434606696093
 11
30.5839884495001
 21
19.336891238079552
  0
LINE
  8
0
 10
30.5839884495001
 20
19.336891238079552
 11
31.022662037991918
 21
19.71663733071819
  0
LINE
  8
0
 10
31.022662037991918
 20
19.71663733071819
 11
31.414625196781923
 21
20.106985519688614
  0
LINE
  8
0
 10
31.414625196781923
 20
20.106985519688614
 11
31.894290616673118
 21
20.656482335082313
  0
LINE
  8
0
 10
31.894290616673118
 20
20.656482335082313
 11
32.44080002203504
 21
21.378618333658245
  0
LINE
  8
0
 10
32.44080002203504
 20
21.378618333658245
 11
33.031886798990605
 21
22.28471162071709
  0
LINE
  8
0
 10
33.031886798990605
 20
22.28471162071709
 11
33.49863682497892
 21
23.122666707739743
  0
LINE
  8
0
 10
33.49863682497892
 20
23.122666707739743
 11
32.96231774723097
 21
23.948525664989173
  0
LINE
  8
0
 10
32.96231774723097
 20
23.948525664989173
 11
32.34261091382981
 21
24.713799871441594
  0
LINE
  8
0
 10
32.34261091382981
 20
24.713799871441594
 11
31.40143457780747
 21
24.5288365801591
  0
LINE
  8
0
 10
31.40143457780747
 20
24.5288365801591
 11
30.357032793540462
 21
24.24667787342737
  0
LINE
  8
0
 10
30.357032793540462
 20
24.24667787342737
 11
29.50135995260118
 21
23.950068838052
  0
LINE
  8
0
 10
29.50135995260118
 20
23.950068838052
 11
28.830532659277125
 21
23.663683769134558
  0
LINE
  8
0
 10
28.830532659277125
 20
23.663683769134558
 11
28.338166193297965
 21
23.411528876935115
  0
LINE
  8
0
 10
28.338166193297965
 20
23.411528876935115
 11
27.841448603529052
 21
23.111673498245832
  0
LINE
  8
0
 10
27.841448603529052
 20
23.111673498245832
 11
27.467577612030443
 21
22.965675665906595
  0
LINE
  8
0
 10
27.467577612030443
 20
22.965675665906595
 11
27.218324241464458
 21
22.97541061233335
  0
LINE
  8
0
 10
27.218324241464458
 20
22.97541061233335
 11
25.694638514723113
 21
24.667635049118864
  0
LINE
  8
0
 10
25.694638514723113
 20
24.667635049118864
 11
25.71101096914102
 21
24.9165405626311
  0
LINE
  8
0
 10
25.71101096914102
 20
24.9165405626311
 11
25.89528917028072
 21
25.273102520664445
  0
LINE
  8
0
 10
25.89528917028072
 20
25.273102520664445
 11
26.245423036167335
 21
25.735755617567396
  0
LINE
  8
0
 10
26.245423036167335
 20
25.735755617567396
 11
26.547662907537333
 21
26.1990674851419
  0
LINE
  8
0
 10
26.547662907537333
 20
26.1990674851419
 11
26.9025996751714
 21
26.836284525206505
  0
LINE
  8
0
 10
26.9025996751714
 20
26.836284525206505
 11
27.28702602234033
 21
27.65626581413367
  0
LINE
  8
0
 10
27.28702602234033
 20
27.65626581413367
 11
27.67680874769387
 21
28.665452640128134
  0
LINE
  8
0
 10
27.67680874769387
 20
28.665452640128134
 11
27.959138506784548
 21
29.582139185114496
  0
LINE
  8
0
 10
27.959138506784548
 20
29.582139185114496
 11
27.26283355547891
 21
30.27844413642014
  0
LINE
  8
0
 10
27.26283355547891
 20
30.27844413642014
 11
26.497559349026478
 21
30.898150969821295
  0
LINE
  8
0
 10
26.497559349026478
 20
30.898150969821295
 11
25.615406004708554
 21
30.521548006849432
  0
LINE
  8
0
 10
25.615406004708554
 20
30.521548006849432
 11
24.652490999021225
 21
30.02841180397359
  0
LINE
  8
0
 10
24.652490999021225
 20
30.02841180397359
 11
23.877185148700104
 21
29.560380000518688
  0
LINE
  8
0
 10
23.877185148700104
 20
29.560380000518688
 11
23.28055984513201
 21
29.1407802956694
  0
LINE
  8
0
 10
23.28055984513201
 20
29.1407802956694
 11
22.851378717737873
 21
28.79176684840754
  0
LINE
  8
0
 10
22.851378717737873
 20
28.79176684840754
 11
22.42785903784722
 21
28.395190635227706
  0
LINE
  8
0
 10
22.42785903784722
 20
28.395190635227706
 11
22.092512680706264
 21
28.174651055822558
  0
LINE
  8
0
 10
22.092512680706264
 20
28.174651055822558
 11
21.84668208514072
 21
28.132350580596757
  0
LINE
  8
0
 10
21.84668208514072
 20
28.132350580596757
 11
20.004459303361124
 21
29.470803777619953
  0
LINE
  8
0
 10
20.004459303361124
 20
29.470803777619953
 11
19.96872361419993
 21
29.717674133152222
  0
LINE
  8
0
 10
19.96872361419993
 20
29.717674133152222
 11
20.074841494936262
 21
30.104757949295298
  0
LINE
  8
0
 10
20.074841494936262
 20
30.104757949295298
 11
20.321133108149745
 21
30.630097890072026
  0
LINE
  8
0
 10
20.321133108149745
 20
30.630097890072026
 11
20.520440359413055
 21
31.146124484420604
  0
LINE
  8
0
 10
20.520440359413055
 20
31.146124484420604
 11
20.73513603486881
 21
31.843212306798684
  0
LINE
  8
0
 10
20.73513603486881
 20
31.843212306798684
 11
20.940678047791188
 21
32.72520176904419
  0
LINE
  8
0
 10
20.940678047791188
 20
32.72520176904419
 11
21.11212134605972
 21
33.793375827062654
  0
LINE
  8
0
 10
21.11212134605972
 20
33.793375827062654
 11
21.197691673012017
 21
34.74873022924673
  0
LINE
  8
0
 10
21.197691673012017
 20
34.74873022924673
 11
20.371832715762597
 21
35.28504930699469
  0
LINE
  8
0
 10
20.371832715762597
 20
35.28504930699469
 11
19.494437291273933
 21
35.732104605041634
  0
LINE
  8
0
 10
19.494437291273933
 20
35.732104605041634
 11
18.70986127284851
 21
35.18032132700378
  0
LINE
  8
0
 10
18.70986127284851
 20
35.18032132700378
 11
17.870517052068234
 21
34.49776004637956
  0
LINE
  8
0
 10
17.870517052068234
 20
34.49776004637956
 11
17.20946277835454
 21
33.87876071052186
  0
LINE
  8
0
 10
17.20946277835454
 20
33.87876071052186
 11
16.713114853234178
 21
33.34428489030541
  0
LINE
  8
0
 10
16.713114853234178
 20
33.34428489030541
 11
16.36587633913172
 21
32.9136664503788
  0
LINE
  8
0
 10
16.36587633913172
 20
32.9136664503788
 11
16.034064411403453
 21
32.437701686208186
  0
LINE
  8
0
 10
16.034064411403453
 20
32.437701686208186
 11
15.75189893359757
 21
32.15225899762345
  0
LINE
  8
0
 10
15.75189893359757
 20
32.15225899762345
 11
15.520235089684762
 21
32.059771834492665
  0
LINE
  8
0
 10
15.520235089684762
 20
32.059771834492665
 11
13.439989228396364
 21
32.985956964432596
  0
LINE
  8
0
 10
13.439989228396364
 20
32.985956964432596
 11
13.35370721675128
 21
33.22000274283275
  0
LINE
  8
0
 10
13.35370721675128
 20
33.22000274283275
 11
13.377026916485983
 21
33.62069099688587
  0
LINE
  8
0
 10
13.377026916485983
 20
33.62069099688587
 11
13.508712151690617
 21
34.18575790526371
  0
LINE
  8
0
 10
13.508712151690617
 20
34.18575790526371
 11
13.59637609958473
 21
34.73194638804301
  0
LINE
  8
0
 10
13.59637609958473
 20
34.73194638804301
 11
13.661447451620603
 21
35.45843890989815
  0
LINE
  8
0
 10
13.661447451620603
 20
35.45843890989815
 11
13.679121958031715
 21
36.363889373706876
  0
LINE
  8
0
 10
13.679121958031715
 20
36.363889373706876
 11
13.624732934404683
 21
37.4443663317461
  0
LINE
  8
0
 10
13.624732934404683
 20
37.4443663317461
 11
13.509803995318798
 21
38.39663501945342
  0
LINE
  8
0
 10
13.509803995318798
 20
38.39663501945342
 11
12.59048503146836
 21
38.749528506401646
  0
LINE
  8
0
 10
12.59048503146836
 20
38.749528506401646
 11
11.639314779203973
 21
39.00439380736038
  0
LINE
  8
0
 10
11.639314779203973
 20
39.00439380736038
 11
10.98660582348968
 21
38.30154579125673
  0
LINE
  8
0
 10
10.98660582348968
 20
38.30154579125673
 11
10.307515757684987
 21
37.45939063613981
  0
LINE
  8
0
 10
10.307515757684987
 20
37.45939063613981
 11
9.789604304430352
 21
36.71647700914467
  0
LINE
  8
0
 10
9.789604304430352
 20
36.71647700914467
 11
9.41522654382708
 21
36.09048423160406
  0
LINE
  8
0
 10
9.41522654382708
 20
36.09048423160406
 11
9.165106632317835
 21
35.597080891174016
  0
LINE
  8
0
 10
9.165106632317835
 20
35.597080891174016
 11
8.939504230203958
 21
35.062529520139215
  0
LINE
  8
0
 10
8.939504230203958
 20
35.062529520139215
 11
8.722851617093445
 21
34.724658937572016
  0
LINE
  8
0
 10
8.722851617093445
 20
34.724658937572016
 11
8.515479346458822
 21
34.586027219367715
  0
LINE
  8
0
 10
8.515479346458822
 20
34.586027219367715
 11
6.288127131927069
 21
35.05946554771667
  0
LINE
  8
0
 10
6.288127131927069
 20
35.05946554771667
 11
6.155069735734009
 21
35.27045782539237
  0
LINE
  8
0
 10
6.155069735734009
 20
35.27045782539237
 11
6.09457207168834
 21
35.667238517937854
  0
LINE
  8
0
 10
6.09457207168834
 20
35.667238517937854
 11
6.105895652209819
 21
36.24733625852884
  0
LINE
  8
0
 10
6.105895652209819
 20
36.24733625852884
 11
6.078084961553466
 21
36.79981557213827
  0
LINE
  8
0
 10
6.078084961553466
 20
36.79981557213827
 11
5.990688059838502
 21
37.5239615841675
  0
LINE
  8
0
 10
5.990688059838502
 20
37.5239615841675
 11
5.8197225989964885
 21
38.41330051943762
  0
LINE
  8
0
 10
5.8197225989964885
 20
38.41330051943762
 11
5.541878314793888
 21
39.45885834972763
  0
LINE
  8
0
 10
5.541878314793888
 20
39.45885834972763
 11
5.23147305579811
 21
40.366422611813235
  0
LINE
  8
0
 10
5.23147305579811
 20
40.366422611813235
 11
4.258872735448735
 21
40.520467369211254
  0
LINE
  8
0
 10
4.258872735448735
 20
40.520467369211254
 11
3.2754983596538487
 21
40.5720038364505
  0
LINE
  8
0
 10
3.2754983596538487
 20
40.5720038364505
 11
2.7831829800604653
 21
39.74880891322374
  0
LINE
  8
0
 10
2.7831829800604653
 20
39.74880891322374
 11
2.2940265637426918
 21
38.78386610500153
  0
LINE
  8
0
 10
2.2940265637426918
 20
38.78386610500153
 11
1.9418931466692273
 21
37.94950707726372
  0
LINE
  8
0
 10
1.9418931466692273
 20
37.94950707726372
 11
1.7058476551852149
 21
37.25935623062409
  0
LINE
  8
0
 10
1.7058476551852149
 20
37.25935623062409
 11
1.5637777866106357
 21
36.72473208327932
  0
LINE
  8
0
 10
1.5637777866106357
 20
36.72473208327932
 11
1.4542448176439615
 21
36.15495656535662
  0
LINE
  8
0
 10
1.4542448176439615
 20
36.15495656535662
 11
1.3125738280363293
 21
35.779424654548095
  0
LINE
  8
0
 10
1.3125738280363293
 20
35.779424654548095
 11
1.1385562939891791
 21
35.60070725258459
  0
LINE
  8
0
 10
1.1385562939891791
 20
35.60070725258459
 11
-1.1385562939891494
 21
35.60070725258457
  0
LINE
  8
0
 10
-1.1385562939891494
 20
35.60070725258457
 11
-1.3125738280363222
 21
35.77942465454811
  0
LINE
  8
0
 10
-1.3125738280363222
 20
35.77942465454811
 11
-1.4542448176435658
 21
36.154956565356706
  0
LINE
  8
0
 10
-1.4542448176435658
 20
36.154956565356706
 11
-1.5637777866106006
 21
36.724732083279214
  0
LINE
  8
0
 10
-1.5637777866106006
 20
36.724732083279214
 11
-1.7058476551852322
 21
37.259356230624164
  0
LINE
  8
0
 10
-1.7058476551852322
 20
37.259356230624164
 11
-1.9418931466692282
 21
37.949507077263725
  0
LINE
  8
0
 10
-1.9418931466692282
 20
37.949507077263725
 11
-2.294026563742268
 21
38.78386610500224
  0
LINE
  8
0
 10
-2.294026563742268
 20
38.78386610500224
 11
-2.783182980055987
 21
39.748808913216244
  0
LINE
  8
0
 10
-2.783182980055987
 20
39.748808913216244
 11
-3.275498359653854
 21
40.57200383645049
  0
LINE
  8
0
 10
-3.275498359653854
 20
40.57200383645049
 11
-4.258872735448748
 21
40.520467369211254
  0
LINE
  8
0
 10
-4.258872735448748
 20
40.520467369211254
 11
-5.231473055798106
 21
40.36642261181325
  0
LINE
  8
0
 10
-5.231473055798106
 20
40.36642261181325
 11
-5.541878314791059
 21
39.4588583497359
  0
LINE
  8
0
 10
-5.541878314791059
 20
39.4588583497359
 11
-5.819722598995916
 21
38.41330051943701
  0
LINE
  8
0
 10
-5.819722598995916
 20
38.41330051943701
 11
-5.990688059838494
 21
37.52396158416751
  0
LINE
  8
0
 10
-5.990688059838494
 20
37.52396158416751
 11
-6.078084961553458
 21
36.7998155721382
  0
LINE
  8
0
 10
-6.078084961553458
 20
36.7998155721382
 11
-6.105895652209797
 21
36.24733625852897
  0
LINE
  8
0
 10
-6.105895652209797
 20
36.24733625852897
 11
-6.094572071687926
 21
35.66723851793786
  0
LINE
  8
0
 10
-6.094572071687926
 20
35.66723851793786
 11
-6.155069735733991
 21
35.27045782539237
  0
LINE
  8
0
 10
-6.155069735733991
 20
35.27045782539237
 11
-6.288127131927033
 21
35.059465547716705
  0
LINE
  8
0
 10
-6.288127131927033
 20
35.059465547716705
 11
-8.515479346458777
 21
34.58602721936771
  0
LINE
  8
0
 10
-8.515479346458777
 20
34.58602721936771
 11
-8.722851617093431
 21
34.72465893757204
  0
LINE
  8
0
 10
-8.722851617093431
 20
34.72465893757204
 11
-8.93950423020358
 21
35.062529520139385
  0
LINE
  8
0
 10
-8.93950423020358
 20
35.062529520139385
 11
-9.16510663231777
 21
35.597080891173924
  0
LINE
  8
0
 10
-9.16510663231777
 20
35.597080891173924
 11
-9.415226543827103
 21
36.09048423160414
  0
LINE
  8
0
 10
-9.415226543827103
 20
36.09048423160414
 11
-9.789604304430345
 21
36.716477009144675
  0
LINE
  8
0
 10
-9.789604304430345
 20
36.716477009144675
 11
-10.307515757684712
 21
37.459390636140604
  0
LINE
  8
0
 10
-10.307515757684712
 20
37.459390636140604
 11
-10.986605823483734
 21
38.301545791250334
  0
LINE
  8
0
 10
-10.986605823483734
 20
38.301545791250334
 11
-11.639314779203968
 21
39.00439380736039
  0
LINE
  8
0
 10
-11.639314779203968
 20
39.00439380736039
 11
-12.590485031468365
 21
38.749528506401646
  0
LINE
  8
0
 10
-12.590485031468365
 20
38.749528506401646
 11
-13.509803995318785
 21
38.39663501945343
  0
LINE
  8
0
 10
-13.509803995318785
 20
38.39663501945343
 11
-13.624732934403626
 21
37.44436633175477
  0
LINE
  8
0
 10
-13.624732934403626
 20
37.44436633175477
 11
-13.67912195803102
 21
36.36388937370639
  0
LINE
  8
0
 10
-13.67912195803102
 20
36.36388937370639
 11
-13.661447451620587
 21
35.458438909898156
  0
LINE
  8
0
 10
-13.661447451620587
 20
35.458438909898156
 11
-13.596376099584697
 21
34.731946388042935
  0
LINE
  8
0
 10
-13.596376099584697
 20
34.731946388042935
 11
-13.508712151690615
 21
34.18575790526384
  0
LINE
  8
0
 10
-13.508712151690615
 20
34.18575790526384
 11
-13.377026916485574
 21
33.62069099688596
  0
LINE
  8
0
 10
-13.377026916485574
 20
33.62069099688596
 11
-13.353707216751255
 21
33.220002742832754
  0
LINE
  8
0
 10
-13.353707216751255
 20
33.220002742832754
 11
-13.43998922839633
 21
32.98595696443263
  0
LINE
  8
0
 10
-13.43998922839633
 20
32.98595696443263
 11
-15.520235089684713
 21
32.059771834492665
  0
LINE
  8
0
 10
-15.520235089684713
 20
32.059771834492665
 11
-15.751898933597552
 21
32.15225899762346
  0
LINE
  8
0
 10
-15.751898933597552
 20
32.15225899762346
 11
-16.034064411403115
 21
32.437701686208435
  0
LINE
  8
0
 10
-16.034064411403115
 20
32.437701686208435
 11
-16.365876339131635
 21
32.91366645037873
  0
LINE
  8
0
 10
-16.365876339131635
 20
32.91366645037873
 11
-16.713114853234217
 21
33.34428489030549
  0
LINE
  8
0
 10
-16.713114853234217
 20
33.34428489030549
 11
-17.20946277835453
 21
33.878760710521874
  0
LINE
  8
0
 10
-17.20946277835453
 20
33.878760710521874
 11
-17.870517052068127
 21
34.49776004638039
  0
LINE
  8
0
 10
-17.870517052068127
 20
34.49776004638039
 11
-18.70986127284136
 21
35.18032132699876
  0
LINE
  8
0
 10
-18.70986127284136
 20
35.18032132699876
 11
-19.49443729127392
 21
35.732104605041634
  0
LINE
  8
0
 10
-19.49443729127392
 20
35.732104605041634
 11
-20.37183271576261
 21
35.28504930699469
  0
LINE
  8
0
 10
-20.37183271576261
 20
35.28504930699469
 11
-21.197691673012017
 21
34.748730229246746
  0
LINE
  8
0
 10
-21.197691673012017
 20
34.748730229246746
 11
-21.112121346060494
 21
33.79337582707135
  0
LINE
  8
0
 10
-21.112121346060494
 20
33.79337582707135
 11
-20.940678047790417
 21
32.72520176904387
  0
LINE
  8
0
 10
-20.940678047790417
 20
32.72520176904387
 11
-20.735136034868802
 21
31.84321230679869
  0
LINE
  8
0
 10
-20.735136034868802
 20
31.84321230679869
 11
-20.52044035941302
 21
31.14612448442054
  0
LINE
  8
0
 10
-20.52044035941302
 20
31.14612448442054
 11
-20.321133108149777
 21
30.630097890072143
  0
LINE
  8
0
 10
-20.321133108149777
 20
30.630097890072143
 11
-20.074841494935892
 21
30.10475794929547
  0
LINE
  8
0
 10
-20.074841494935892
 20
30.10475794929547
 11
-19.968723614199916
 21
29.71767413315223
  0
LINE
  8
0
 10
-19.968723614199916
 20
29.71767413315223
 11
-20.004459303361106
 21
29.47080377761999
  0
LINE
  8
0
 10
-20.004459303361106
 20
29.47080377761999
 11
-21.846682085140674
 21
28.13235058059677
  0
LINE
  8
0
 10
-21.846682085140674
 20
28.13235058059677
 11
-22.092512680706257
 21
28.17465105582258
  0
LINE
  8
0
 10
-22.092512680706257
 20
28.17465105582258
 11
-22.427859037846936
 21
28.395190635228012
  0
LINE
  8
0
 10
-22.427859037846936
 20
28.395190635228012
 11
-22.85137871773777
 21
28.79176684840748
  0
LINE
  8
0
 10
-22.85137871773777
 20
28.79176684840748
 11
-23.280559845132068
 21
29.14078029566946
  0
LINE
  8
0
 10
-23.280559845132068
 20
29.14078029566946
 11
-23.8771851487001
 21
29.560380000518702
  0
LINE
  8
0
 10
-23.8771851487001
 20
29.560380000518702
 11
-24.652490999021296
 21
30.028411803974436
  0
LINE
  8
0
 10
-24.652490999021296
 20
30.028411803974436
 11
-25.61540600470052
 21
30.521548006846007
  0
LINE
  8
0
 10
-25.61540600470052
 20
30.521548006846007
 11
-26.497559349026474
 21
30.898150969821298
  0
LINE
  8
0
 10
-26.497559349026474
 20
30.898150969821298
 11
-27.262833555478924
 21
30.27844413642014
  0
LINE
  8
0
 10
-27.262833555478924
 20
30.27844413642014
 11
-27.959138506784548
 21
29.582139185114507
  0
LINE
  8
0
 10
-27.959138506784548
 20
29.582139185114507
 11
-27.676808747696438
 21
28.66545264013649
  0
LINE
  8
0
 10
-27.676808747696438
 20
28.66545264013649
 11
-27.287026022339504
 21
27.65626581413352
  0
LINE
  8
0
 10
-27.287026022339504
 20
27.65626581413352
 11
-26.90259967517139
 21
26.836284525206516
  0
LINE
  8
0
 10
-26.90259967517139
 20
26.836284525206516
 11
-26.54766290753728
 21
26.199067485141846
  0
LINE
  8
0
 10
-26.54766290753728
 20
26.199067485141846
 11
-26.245423036167384
 21
25.735755617567506
  0
LINE
  8
0
 10
-26.245423036167384
 20
25.735755617567506
 11
-25.895289170280382
 21
25.273102520664697
  0
LINE
  8
0
 10
-25.895289170280382
 20
25.273102520664697
 11
-25.711010969141
 21
24.916540562631113
  0
LINE
  8
0
 10
-25.711010969141
 20
24.916540562631113
 11
-25.694638514723103
 21
24.667635049118914
  0
LINE
  8
0
 10
-25.694638514723103
 20
24.667635049118914
 11
-27.218324241464412
 21
22.975410612333366
  0
LINE
  8
0
 10
-27.218324241464412
 20
22.975410612333366
 11
-27.46757761203044
 21
22.965675665906616
  0
LINE
  8
0
 10
-27.46757761203044
 20
22.965675665906616
 11
-27.84144860352884
 21
23.11167349824619
  0
LINE
  8
0
 10
-27.84144860352884
 20
23.11167349824619
 11
-28.338166193297855
 21
23.411528876935083
  0
LINE
  8
0
 10
-28.338166193297855
 20
23.411528876935083
 11
-28.830532659277186
 21
23.663683769134607
  0
LINE
  8
0
 10
-28.830532659277186
 20
23.663683769134607
 11
-29.501359952601177
 21
23.950068838052008
  0
LINE
  8
0
 10
-29.501359952601177
 20
23.950068838052008
 11
-30.357032793540707
 21
24.246677873428172
  0
LINE
  8
0
 10
-30.357032793540707
 20
24.246677873428172
 11
-31.4014345777989
 21
24.52883658015742
  0
LINE
  8
0
 10
-31.4014345777989
 20
24.52883658015742
 11
-32.3426109138298
 21
24.713799871441594
  0
LINE
  8
0
 10
-32.3426109138298
 20
24.713799871441594
 11
-32.96231774723096
 21
23.948525664989162
  0
LINE
  8
0
 10
-32.96231774723096
 20
23.948525664989162
 11
-33.49863682497891
 21
23.12266670773975
  0
LINE
  8
0
 10
-33.49863682497891
 20
23.12266670773975
 11
-33.03188679899484
 21
22.28471162072472
  0
LINE
  8
0
 10
-33.03188679899484
 20
22.28471162072472
 11
-32.440800022034196
 21
21.378618333658263
  0
LINE
  8
0
 10
-32.440800022034196
 20
21.378618333658263
 11
-31.894290616673104
 21
20.65648233508232
  0
LINE
  8
0
 10
-31.894290616673104
 20
20.65648233508232
 11
-31.41462519678185
 21
20.106985519688568
  0
LINE
  8
0
 10
-31.41462519678185
 20
20.106985519688568
 11
-31.02266203799198
 21
19.71663733071828
  0
LINE
  8
0
 10
-31.02266203799198
 20
19.71663733071828
 11
-30.583988449499827
 21
19.33689123807986
  0
LINE
  8
0
 10
-30.583988449499827
 20
19.33689123807986
 11
-30.329603769611744
 21
19.026434606696107
  0
LINE
  8
0
 10
-30.329603769611744
 20
19.026434606696107
 11
-30.26183872643656
 21
18.786372300525596
  0
LINE
  8
0
 10
-30.26183872643656
 20
18.786372300525596
 11
-31.400395020425712
 21
16.814334952059024
  0
LINE
  8
0
 10
-31.400395020425712
 20
16.814334952059024
 11
-31.64217759764808
 21
16.75299004785202
  0
LINE
  8
0
 10
-31.64217759764808
 20
16.75299004785202
 11
-32.03823326714365
 21
16.818065327277164
  0
LINE
  8
0
 10
-32.03823326714365
 20
16.818065327277164
 11
-32.58643982460251
 21
17.008094752561036
  0
LINE
  8
0
 10
-32.58643982460251
 20
17.008094752561036
 11
-33.12047285196714
 21
17.152370710935564
  0
LINE
  8
0
 10
-33.12047285196714
 20
17.152370710935564
 11
-33.83618376334233
 21
17.29302474218142
  0
LINE
  8
0
 10
-33.83618376334233
 20
17.29302474218142
 11
-34.7348265857773
 21
17.405247771344005
  0
LINE
  8
0
 10
-34.7348265857773
 20
17.405247771344005
 11
-35.81506977904658
 21
17.46409729249917
  0
LINE
  8
0
 10
-35.81506977904658
 20
17.46409729249917
 11
-36.774135184632755
 21
17.449337128710763
  0
LINE
  8
0
 10
-36.774135184632755
 20
17.449337128710763
 11
-37.221190482679724
 21
16.57194170422208
  0
LINE
  8
0
 10
-37.221190482679724
 20
16.57194170422208
 11
-37.574083969627914
 21
15.652622740371653
  0
LINE
  8
0
 10
-37.574083969627914
 20
15.652622740371653
 11
-36.94331289259853
 21
14.930021769576795
  0
LINE
  8
0
 10
-36.94331289259853
 20
14.930021769576795
 11
-36.17675539253638
 21
14.16662264600964
  0
LINE
  8
0
 10
-36.17675539253638
 20
14.16662264600964
 11
-35.492048012439675
 21
13.573892746115503
  0
LINE
  8
0
 10
-35.492048012439675
 20
13.573892746115503
 11
-34.90861762083059
 21
13.136131803003638
  0
LINE
  8
0
 10
-34.90861762083059
 20
13.136131803003638
 11
-34.44406184550776
 21
12.835807381593838
  0
LINE
  8
0
 10
-34.44406184550776
 20
12.835807381593838
 11
-33.93602067521698
 21
12.555565019692027
  0
LINE
  8
0
 10
-33.93602067521698
 20
12.555565019692027
 11
-33.622647347764435
 21
12.304782159485773
  0
LINE
  8
0
 10
-33.622647347764435
 20
12.304782159485773
 11
-33.50645137339149
 21
12.084054935383355
  0
LINE
  8
0
 10
-33.50645137339149
 20
12.084054935383355
 11
-34.2101178611819
 21
9.918392170248838
  0
LINE
  8
0
 10
-34.2101178611819
 20
9.918392170248838
 11
-34.433862586234454
 21
9.808118374940932
  0
LINE
  8
0
 10
-34.433862586234454
 20
9.808118374940932
 11
-34.8347934004843
 21
9.789426999474934
  0
LINE
  8
0
 10
-34.8347934004843
 20
9.789426999474934
 11
-35.41052966848511
 21
9.861325273606523
  0
LINE
  8
0
 10
-35.41052966848511
 20
9.861325273606523
 11
-35.96288945136444
 21
9.89141674646223
  0
LINE
  8
0
 10
-35.96288945136444
 20
9.89141674646223
 11
-36.69220397960175
 21
9.880192483938163
  0
LINE
  8
0
 10
-36.69220397960175
 20
9.880192483938163
 11
-37.59454178002504
 21
9.803124822006932
  0
LINE
  8
0
 10
-37.59454178002504
 20
9.803124822006932
 11
-38.663414571177604
 21
9.636093151122198
  0
LINE
  8
0
 10
-38.663414571177604
 20
9.636093151122198
 11
-39.59845328598852
 21
9.422254622245887
  0
LINE
  8
0
 10
-39.59845328598852
 20
9.422254622245887
 11
-39.85331858694728
 21
8.471084369981497
  0
LINE
  8
0
 10
-39.85331858694728
 20
8.471084369981497
 11
-40.00736334434527
 21
7.498484049632137
  0
LINE
  8
0
 10
-40.00736334434527
 20
7.498484049632137
 11
-39.240138939112185
 21
6.922818324905346
  0
LINE
  8
0
 10
-39.240138939112185
 20
6.922818324905346
 11
-38.33161295705225
 21
6.335477569732799
  0
LINE
  8
0
 10
-38.33161295705225
 20
6.335477569732799
 11
-37.538632600320696
 21
5.898058909379464
  0
LINE
  8
0
 10
-37.538632600320696
 20
5.898058909379464
 11
-36.87693594471671
 21
5.591166092373538
  0
LINE
  8
0
 10
-36.87693594471671
 20
5.591166092373538
 11
-36.36009086942849
 21
5.393991056856298
  0
LINE
  8
0
 10
-36.36009086942849
 20
5.393991056856298
 11
-35.804885954332796
 21
5.2255003616582565
  0
LINE
  8
0
 10
-35.804885954332796
 20
5.2255003616582565
 11
-35.446219897457524
 21
5.045351687010195
  0
LINE
  8
0
 10
-35.446219897457524
 20
5.045351687010195
 11
-35.286671313537056
 21
4.853606383835876
  0
LINE
  8
0
 10
-35.286671313537056
 20
4.853606383835876
 11
-35.52469439304584
 21
2.5889680568727127
  0
LINE
  8
0
 10
-35.52469439304584
 20
2.5889680568727127
 11
-35.72062254779749
 21
2.434584864471241
  0
LINE
  8
0
 10
-35.72062254779749
 20
2.434584864471241
 11
-36.10890590633938
 21
2.3329437369131347
  0
LINE
  8
0
 10
-36.10890590633938
 20
2.3329437369131347
 11
-36.68700944728138
 21
2.2835685603066964
  0
LINE
  8
0
 10
-36.68700944728138
 20
2.2835685603066964
 11
-37.233555212647275
 21
2.1981604058848796
  0
LINE
  8
0
 10
-37.233555212647275
 20
2.1981604058848796
 11
-37.944598813223344
 21
2.035548403723183
  0
LINE
  8
0
 10
-37.944598813223344
 20
2.035548403723183
 11
-38.81119509985932
 21
1.772558277336198
  0
LINE
  8
0
 10
-38.81119509985932
 20
1.772558277336198
 11
-39.82198261890108
 21
1.3869454999361095
  0
LINE
  8
0
 10
-39.82198261890108
 20
1.3869454999361095
 11
-40.69212896428594
 21
0.9833743757948987
  0
LINE
  8
0
 10
-40.69212896428594
 20
0.9833743757948987
 11
-40.74366543152521
 21
-1.4929327848614153e-14
  0
LINE
  8
0
 10
-40.74366543152521
 20
-1.4929327848614153e-14
 11
-40.69212896428594
 21
-0.9833743757948985
  0
LINE
  8
0
 10
-40.69212896428594
 20
-0.9833743757948985
 11
-39.821982618909004
 21
-1.3869454999324364
  0
LINE
  8
0
 10
-39.821982618909004
 20
-1.3869454999324364
 11
-38.81119509985865
 21
-1.7725582773356974
  0
LINE
  8
0
 10
-38.81119509985865
 20
-1.7725582773356974
 11
-37.944598813223344
 21
-2.0355484037231792
  0
LINE
  8
0
 10
-37.944598813223344
 20
-2.0355484037231792
 11
-37.2335552126472
 21
-2.198160405884885
  0
LINE
  8
0
 10
-37.2335552126472
 20
-2.198160405884885
 11
-36.6870094472815
 21
-2.283568560306668
  0
LINE
  8
0
 10
-36.6870094472815
 20
-2.283568560306668
 11
-36.108905906339345
 21
-2.332943736912728
  0
LINE
  8
0
 10
-36.108905906339345
 20
-2.332943736912728
 11
-35.72062254779748
 21
-2.4345848644712285
  0
LINE
  8
0
 10
-35.72062254779748
 20
-2.4345848644712285
 11
-35.52469439304586
 21
-2.5889680568726807
  0
LINE
  8
0
 10
-35.52469439304586
 20
-2.5889680568726807
 11
-35.286671313537035
 21
-4.853606383835839
  0
LINE
  8
0
 10
-35.286671313537035
 20
-4.853606383835839
 11
-35.44621989745753
 21
-5.045351687010183
  0
LINE
  8
0
 10
-35.44621989745753
 20
-5.045351687010183
 11
-35.804885954332924
 21
-5.225500361657867
  0
LINE
  8
0
 10
-35.804885954332924
 20
-5.225500361657867
 11
-36.36009086942838
 21
-5.393991056856248
  0
LINE
  8
0
 10
-36.36009086942838
 20
-5.393991056856248
 11
-36.87693594471679
 21
-5.59116609237356
  0
LINE
  8
0
 10
-36.87693594471679
 20
-5.59116609237356
 11
-37.538632600320696
 21
-5.898058909379462
  0
LINE
  8
0
 10
-37.538632600320696
 20
-5.898058909379462
 11
-38.33161295705301
 21
-6.335477569732448
  0
LINE
  8
0
 10
-38.33161295705301
 20
-6.335477569732448
 11
-39.2401389391052
 21
-6.922818324900105
  0
LINE
  8
0
 10
-39.2401389391052
 20
-6.922818324900105
 11
-40.007363344345265
 21
-7.498484049632137
  0
LINE
  8
0
 10
-40.007363344345265
 20
-7.498484049632137
 11
-39.85331858694728
 21
-8.471084369981504
  0
LINE
  8
0
 10
-39.85331858694728
 20
-8.471084369981504
 11
-39.59845328598852
 21
-9.422254622245887
  0
LINE
  8
0
 10
-39.59845328598852
 20
-9.422254622245887
 11
-38.66341457118612
 21
-9.636093151120248
  0
LINE
  8
0
 10
-38.66341457118612
 20
-9.636093151120248
 11
-37.59454178002449
 21
-9.803124822006302
  0
LINE
  8
0
 10
-37.59454178002449
 20
-9.803124822006302
 11
-36.69220397960174
 21
-9.880192483938158
  0
LINE
  8
0
 10
-36.69220397960174
 20
-9.880192483938158
 11
-35.96288945136436
 21
-9.891416746462216
  0
LINE
  8
0
 10
-35.96288945136436
 20
-9.891416746462216
 11
-35.41052966848522
 21
-9.861325273606518
  0
LINE
  8
0
 10
-35.41052966848522
 20
-9.861325273606518
 11
-34.834793400484344
 21
-9.789426999474527
  0
LINE
  8
0
 10
-34.834793400484344
 20
-9.789426999474527
 11
-34.43386258623445
 21
-9.808118374940916
  0
LINE
  8
0
 10
-34.43386258623445
 20
-9.808118374940916
 11
-34.21011786118192
 21
-9.91839217024881
  0
LINE
  8
0
 10
-34.21011786118192
 20
-9.91839217024881
 11
-33.506451373391485
 21
-12.084054935383314
  0
LINE
  8
0
 10
-33.506451373391485
 20
-12.084054935383314
 11
-33.62264734776445
 21
-12.304782159485763
  0
LINE
  8
0
 10
-33.62264734776445
 20
-12.304782159485763
 11
-33.936020675217186
 21
-12.55556501969167
  0
LINE
  8
0
 10
-33.936020675217186
 20
-12.55556501969167
 11
-34.444061845507676
 21
-12.835807381593765
  0
LINE
  8
0
 10
-34.444061845507676
 20
-12.835807381593765
 11
-34.908617620830654
 21
-13.13613180300367
  0
LINE
  8
0
 10
-34.908617620830654
 20
-13.13613180300367
 11
-35.492048012439675
 21
-13.573892746115497
  0
LINE
  8
0
 10
-35.492048012439675
 20
-13.573892746115497
 11
-36.176755392537196
 21
-14.166622646009452
  0
LINE
  8
0
 10
-36.176755392537196
 20
-14.166622646009452
 11
-36.943312892592786
 21
-14.930021769570214
  0
LINE
  8
0
 10
-36.943312892592786
 20
-14.930021769570214
 11
-37.574083969627914
 21
-15.65262274037165
  0
LINE
  8
0
 10
-37.574083969627914
 20
-15.65262274037165
 11
-37.22119048267972
 21
-16.571941704222095
  0
LINE
  8
0
 10
-37.22119048267972
 20
-16.571941704222095
 11
-36.77413518463276
 21
-17.449337128710752
  0
LINE
  8
0
 10
-36.77413518463276
 20
-17.449337128710752
 11
-35.81506977905532
 21
-17.464097292499023
  0
LINE
  8
0
 10
-35.81506977905532
 20
-17.464097292499023
 11
-34.7348265857769
 21
-17.405247771343262
  0
LINE
  8
0
 10
-34.7348265857769
 20
-17.405247771343262
 11
-33.83618376334234
 21
-17.2930247421814
  0
LINE
  8
0
 10
-33.83618376334234
 20
-17.2930247421814
 11
-33.12047285196708
 21
-17.152370710935525
  0
LINE
  8
0
 10
-33.12047285196708
 20
-17.152370710935525
 11
-32.58643982460263
 21
-17.008094752561046
  0
LINE
  8
0
 10
-32.58643982460263
 20
-17.008094752561046
 11
-32.038233267143795
 21
-16.81806532727677
  0
LINE
  8
0
 10
-32.038233267143795
 20
-16.81806532727677
 11
-31.642177597648082
 21
-16.752990047851995
  0
LINE
  8
0
 10
-31.642177597648082
 20
-16.752990047851995
 11
-31.400395020425755
 21
-16.814334952058996
  0
LINE
  8
0
 10
-31.400395020425755
 20
-16.814334952058996
 11
-30.261838726436572
 21
-18.78637230052555
  0
LINE
  8
0
 10
-30.261838726436572
 20
-18.78637230052555
 11
-30.329603769611765
 21
-19.02643460669609
  0
LINE
  8
0
 10
-30.329603769611765
 20
-19.02643460669609
 11
-30.5839884495001
 21
-19.336891238079545
  0
LINE
  8
0
 10
-30.5839884495001
 20
-19.336891238079545
 11
-31.022662037991918
 21
-19.716637330718186
  0
LINE
  8
0
 10
-31.022662037991918
 20
-19.716637330718186
 11
-31.414625196781923
 21
-20.10698551968861
  0
LINE
  8
0
 10
-31.414625196781923
 20
-20.10698551968861
 11
-31.894290616673118
 21
-20.656482335082313
  0
LINE
  8
0
 10
-31.894290616673118
 20
-20.656482335082313
 11
-32.44080002203504
 21
-21.378618333658242
  0
LINE
  8
0
 10
-32.44080002203504
 20
-21.378618333658242
 11
-33.031886798990605
 21
-22.284711620717083
  0
LINE
  8
0
 10
-33.031886798990605
 20
-22.284711620717083
 11
-33.49863682497892
 21
-23.12266670773974
  0
LINE
  8
0
 10
-33.49863682497892
 20
-23.12266670773974
 11
-32.962317747230976
 21
-23.94852566498916
  0
LINE
  8
0
 10
-32.962317747230976
 20
-23.94852566498916
 11
-32.342610913829816
 21
-24.713799871441584
  0
LINE
  8
0
 10
-32.342610913829816
 20
-24.713799871441584
 11
-31.401434577807475
 21
-24.528836580159094
  0
LINE
  8
0
 10
-31.401434577807475
 20
-24.528836580159094
 11
-30.357032793540473
 21
-24.246677873427362
  0
LINE
  8
0
 10
-30.357032793540473
 20
-24.246677873427362
 11
-29.50135995260119
 21
-23.950068838051994
  0
LINE
  8
0
 10
-29.50135995260119
 20
-23.950068838051994
 11
-28.830532659277132
 21
-23.663683769134547
  0
LINE
  8
0
 10
-28.830532659277132
 20
-23.663683769134547
 11
-28.338166193297976
 21
-23.411528876935108
  0
LINE
  8
0
 10
-28.338166193297976
 20
-23.411528876935108
 11
-27.84144860352906
 21
-23.11167349824582
  0
LINE
  8
0
 10
-27.84144860352906
 20
-23.11167349824582
 11
-27.467577612030453
 21
-22.965675665906588
  0
LINE
  8
0
 10
-27.467577612030453
 20
-22.965675665906588
 11
-27.21832424146446
 21
-22.975410612333338
  0
LINE
  8
0
 10
-27.21832424146446
 20
-22.975410612333338
 11
-25.694638514723124
 21
-24.667635049118857
  0
LINE
  8
0
 10
-25.694638514723124
 20
-24.667635049118857
 11
-25.71101096914103
 21
-24.91654056263109
  0
LINE
  8
0
 10
-25.71101096914103
 20
-24.91654056263109
 11
-25.895289170280723
 21
-25.273102520664438
  0
LINE
  8
0
 10
-25.895289170280723
 20
-25.273102520664438
 11
-26.24542303616734
 21
-25.73575561756739
  0
LINE
  8
0
 10
-26.24542303616734
 20
-25.73575561756739
 11
-26.54766290753734
 21
-26.199067485141892
  0
LINE
  8
0
 10
-26.54766290753734
 20
-26.199067485141892
 11
-26.90259967517141
 21
-26.836284525206494
  0
LINE
  8
0
 10
-26.90259967517141
 20
-26.836284525206494
 11
-27.28702602234034
 21
-27.65626581413366
  0
LINE
  8
0
 10
-27.28702602234034
 20
-27.65626581413366
 11
-27.67680874769388
 21
-28.665452640128127
  0
LINE
  8
0
 10
-27.67680874769388
 20
-28.665452640128127
 11
-27.959138506784555
 21
-29.582139185114485
  0
LINE
  8
0
 10
-27.959138506784555
 20
-29.582139185114485
 11
-27.262833555478924
 21
-30.278444136420134
  0
LINE
  8
0
 10
-27.262833555478924
 20
-30.278444136420134
 11
-26.497559349026492
 21
-30.89815096982128
  0
LINE
  8
0
 10
-26.497559349026492
 20
-30.89815096982128
 11
-25.615406004708568
 21
-30.52154800684942
  0
LINE
  8
0
 10
-25.615406004708568
 20
-30.52154800684942
 11
-24.652490999021236
 21
-30.028411803973583
  0
LINE
  8
0
 10
-24.652490999021236
 20
-30.028411803973583
 11
-23.877185148700114
 21
-29.56038000051868
  0
LINE
  8
0
 10
-23.877185148700114
 20
-29.56038000051868
 11
-23.28055984513202
 21
-29.14078029566939
  0
LINE
  8
0
 10
-23.28055984513202
 20
-29.14078029566939
 11
-22.851378717737887
 21
-28.79176684840753
  0
LINE
  8
0
 10
-22.851378717737887
 20
-28.79176684840753
 11
-22.42785903784723
 21
-28.3951906352277
  0
LINE
  8
0
 10
-22.42785903784723
 20
-28.3951906352277
 11
-22.092512680706275
 21
-28.174651055822547
  0
LINE
  8
0
 10
-22.092512680706275
 20
-28.174651055822547
 11
-21.84668208514073
 21
-28.13235058059675
  0
LINE
  8
0
 10
-21.84668208514073
 20
-28.13235058059675
 11
-20.004459303361134
 21
-29.470803777619942
  0
LINE
  8
0
 10
-20.004459303361134
 20
-29.470803777619942
 11
-19.96872361419994
 21
-29.717674133152215
  0
LINE
  8
0
 10
-19.96872361419994
 20
-29.717674133152215
 11
-20.074841494936276
 21
-30.104757949295283
  0
LINE
  8
0
 10
-20.074841494936276
 20
-30.104757949295283
 11
-20.32113310814976
 21
-30.630097890072015
  0
LINE
  8
0
 10
-20.32113310814976
 20
-30.630097890072015
 11
-20.52044035941307
 21
-31.146124484420596
  0
LINE
  8
0
 10
-20.52044035941307
 20
-31.146124484420596
 11
-20.735136034868823
 21
-31.843212306798677
  0
LINE
  8
0
 10
-20.735136034868823
 20
-31.843212306798677
 11
-20.940678047791202
 21
-32.72520176904418
  0
LINE
  8
0
 10
-20.940678047791202
 20
-32.72520176904418
 11
-21.11212134605973
 21
-33.79337582706265
  0
LINE
  8
0
 10
-21.11212134605973
 20
-33.79337582706265
 11
-21.19769167301203
 21
-34.748730229246725
  0
LINE
  8
0
 10
-21.19769167301203
 20
-34.748730229246725
 11
-20.371832715762604
 21
-35.28504930699469
  0
LINE
  8
0
 10
-20.371832715762604
 20
-35.28504930699469
 11
-19.494437291273936
 21
-35.73210460504163
  0
LINE
  8
0
 10
-19.494437291273936
 20
-35.73210460504163
 11
-18.709861272848514
 21
-35.18032132700378
  0
LINE
  8
0
 10
-18.709861272848514
 20
-35.18032132700378
 11
-17.870517052068237
 21
-34.49776004637956
  0
LINE
  8
0
 10
-17.870517052068237
 20
-34.49776004637956
 11
-17.209462778354546
 21
-33.87876071052186
  0
LINE
  8
0
 10
-17.209462778354546
 20
-33.87876071052186
 11
-16.713114853234185
 21
-33.34428489030541
  0
LINE
  8
0
 10
-16.713114853234185
 20
-33.34428489030541
 11
-16.365876339131724
 21
-32.9136664503788
  0
LINE
  8
0
 10
-16.365876339131724
 20
-32.9136664503788
 11
-16.03406441140346
 21
-32.437701686208186
  0
LINE
  8
0
 10
-16.03406441140346
 20
-32.437701686208186
 11
-15.751898933597573
 21
-32.15225899762345
  0
LINE
  8
0
 10
-15.751898933597573
 20
-32.15225899762345
 11
-15.520235089684766
 21
-32.059771834492665
  0
LINE
  8
0
 10
-15.520235089684766
 20
-32.059771834492665
 11
-13.43998922839637
 21
-32.985956964432596
  0
LINE
  8
0
 10
-13.43998922839637
 20
-32.985956964432596
 11
-13.353707216751285
 21
-33.22000274283275
  0
LINE
  8
0
 10
-13.353707216751285
 20
-33.22000274283275
 11
-13.377026916485987
 21
-33.62069099688587
  0
LINE
  8
0
 10
-13.377026916485987
 20
-33.62069099688587
 11
-13.508712151690622
 21
-34.18575790526371
  0
LINE
  8
0
 10
-13.508712151690622
 20
-34.18575790526371
 11
-13.596376099584733
 21
-34.73194638804301
  0
LINE
  8
0
 10
-13.596376099584733
 20
-34.73194638804301
 11
-13.661447451620607
 21
-35.45843890989815
  0
LINE
  8
0
 10
-13.661447451620607
 20
-35.45843890989815
 11
-13.679121958031718
 21
-36.363889373706876
  0
LINE
  8
0
 10
-13.679121958031718
 20
-36.363889373706876
 11
-13.624732934404687
 21
-37.4443663317461
  0
LINE
  8
0
 10
-13.624732934404687
 20
-37.4443663317461
 11
-13.509803995318803
 21
-38.39663501945342
  0
LINE
  8
0
 10
-13.509803995318803
 20
-38.39663501945342
 11
-12.590485031468356
 21
-38.74952850640165
  0
LINE
  8
0
 10
-12.590485031468356
 20
-38.74952850640165
 11
-11.63931477920397
 21
-39.00439380736039
  0
LINE
  8
0
 10
-11.63931477920397
 20
-39.00439380736039
 11
-10.986605823489679
 21
-38.301545791256736
  0
LINE
  8
0
 10
-10.986605823489679
 20
-38.301545791256736
 11
-10.307515757684984
 21
-37.459390636139815
  0
LINE
  8
0
 10
-10.307515757684984
 20
-37.459390636139815
 11
-9.78960430443035
 21
-36.71647700914467
  0
LINE
  8
0
 10
-9.78960430443035
 20
-36.71647700914467
 11
-9.415226543827076
 21
-36.09048423160406
  0
LINE
  8
0
 10
-9.415226543827076
 20
-36.09048423160406
 11
-9.165106632317832
 21
-35.59708089117402
  0
LINE
  8
0
 10
-9.165106632317832
 20
-35.59708089117402
 11
-8.939504230203957
 21
-35.06252952013922
  0
LINE
  8
0
 10
-8.939504230203957
 20
-35.06252952013922
 11
-8.722851617093442
 21
-34.72465893757202
  0
LINE
  8
0
 10
-8.722851617093442
 20
-34.72465893757202
 11
-8.515479346458818
 21
-34.586027219367715
  0
LINE
  8
0
 10
-8.515479346458818
 20
-34.586027219367715
 11
-6.288127131927066
 21
-35.05946554771668
  0
LINE
  8
0
 10
-6.288127131927066
 20
-35.05946554771668
 11
-6.155069735734006
 21
-35.27045782539237
  0
LINE
  8
0
 10
-6.155069735734006
 20
-35.27045782539237
 11
-6.0945720716883365
 21
-35.667238517937854
  0
LINE
  8
0
 10
-6.0945720716883365
 20
-35.667238517937854
 11
-6.105895652209815
 21
-36.24733625852885
  0
LINE
  8
0
 10
-6.105895652209815
 20
-36.24733625852885
 11
-6.078084961553462
 21
-36.79981557213828
  0
LINE
  8
0
 10
-6.078084961553462
 20
-36.79981557213828
 11
-5.990688059838498
 21
-37.52396158416751
  0
LINE
  8
0
 10
-5.990688059838498
 20
-37.52396158416751
 11
-5.819722598996485
 21
-38.41330051943763
  0
LINE
  8
0
 10
-5.819722598996485
 20
-38.41330051943763
 11
-5.541878314793885
 21
-39.458858349727635
  0
LINE
  8
0
 10
-5.541878314793885
 20
-39.458858349727635
 11
-5.231473055798107
 21
-40.36642261181324
  0
LINE
  8
0
 10
-5.231473055798107
 20
-40.36642261181324
 11
-4.258872735448722
 21
-40.520467369211254
  0
LINE
  8
0
 10
-4.258872735448722
 20
-40.520467369211254
 11
-3.2754983596538363
 21
-40.5720038364505
  0
LINE
  8
0
 10
-3.2754983596538363
 20
-40.5720038364505
 11
-2.783182980060453
 21
-39.74880891322374
  0
LINE
  8
0
 10
-2.783182980060453
 20
-39.74880891322374
 11
-2.2940265637426793
 21
-38.78386610500153
  0
LINE
  8
0
 10
-2.2940265637426793
 20
-38.78386610500153
 11
-1.9418931466692153
 21
-37.949507077263725
  0
LINE
  8
0
 10
-1.9418931466692153
 20
-37.949507077263725
 11
-1.7058476551852029
 21
-37.25935623062409
  0
LINE
  8
0
 10
-1.7058476551852029
 20
-37.25935623062409
 11
-1.5637777866106242
 21
-36.72473208327933
  0
LINE
  8
0
 10
-1.5637777866106242
 20
-36.72473208327933
 11
-1.45424481764395
 21
-36.15495656535663
  0
LINE
  8
0
 10
-1.45424481764395
 20
-36.15495656535663
 11
-1.3125738280363182
 21
-35.779424654548095
  0
LINE
  8
0
 10
-1.3125738280363182
 20
-35.779424654548095
 11
-1.138556293989168
 21
-35.60070725258459
  0
LINE
  8
0
 10
-1.138556293989168
 20
-35.60070725258459
 11
1.1385562939891605
 21
-35.60070725258457
  0
LINE
  8
0
 10
1.1385562939891605
 20
-35.60070725258457
 11
1.3125738280363337
 21
-35.77942465454811
  0
LINE
  8
0
 10
1.3125738280363337
 20
-35.77942465454811
 11
1.4542448176435774
 21
-36.154956565356706
  0
LINE
  8
0
 10
1.4542448176435774
 20
-36.154956565356706
 11
1.5637777866106122
 21
-36.724732083279214
  0
LINE
  8
0
 10
1.5637777866106122
 20
-36.724732083279214
 11
1.7058476551852442
 21
-37.259356230624164
  0
LINE
  8
0
 10
1.7058476551852442
 20
-37.259356230624164
 11
1.9418931466692406
 21
-37.949507077263725
  0
LINE
  8
0
 10
1.9418931466692406
 20
-37.949507077263725
 11
2.2940265637422805
 21
-38.78386610500224
  0
LINE
  8
0
 10
2.2940265637422805
 20
-38.78386610500224
 11
2.7831829800560004
 21
-39.748808913216244
  0
LINE
  8
0
 10
2.7831829800560004
 20
-39.748808913216244
 11
3.2754983596538674
 21
-40.57200383645049
  0
LINE
  8
0
 10
3.2754983596538674
 20
-40.57200383645049
 11
4.258872735448745
 21
-40.520467369211254
  0
LINE
  8
0
 10
4.258872735448745
 20
-40.520467369211254
 11
5.231473055798102
 21
-40.36642261181325
  0
LINE
  8
0
 10
5.231473055798102
 20
-40.36642261181325
 11
5.541878314791053
 21
-39.4588583497359
  0
LINE
  8
0
 10
5.541878314791053
 20
-39.4588583497359
 11
5.819722598995912
 21
-38.41330051943701
  0
LINE
  8
0
 10
5.819722598995912
 20
-38.41330051943701
 11
5.990688059838488
 21
-37.5239615841675
  0
LINE
  8
0
 10
5.990688059838488
 20
-37.5239615841675
 11
6.078084961553454
 21
-36.7998155721382
  0
LINE
  8
0
 10
6.078084961553454
 20
-36.7998155721382
 11
6.105895652209793
 21
-36.24733625852897
  0
LINE
  8
0
 10
6.105895652209793
 20
-36.24733625852897
 11
6.094572071687923
 21
-35.66723851793786
  0
LINE
  8
0
 10
6.094572071687923
 20
-35.66723851793786
 11
6.155069735733986
 21
-35.27045782539237
  0
LINE
  8
0
 10
6.155069735733986
 20
-35.27045782539237
 11
6.2881271319270295
 21
-35.059465547716705
  0
LINE
  8
0
 10
6.2881271319270295
 20
-35.059465547716705
 11
8.515479346458774
 21
-34.58602721936771
  0
LINE
  8
0
 10
8.515479346458774
 20
-34.58602721936771
 11
8.722851617093427
 21
-34.72465893757204
  0
LINE
  8
0
 10
8.722851617093427
 20
-34.72465893757204
 11
8.939504230203575
 21
-35.062529520139385
  0
LINE
  8
0
 10
8.939504230203575
 20
-35.062529520139385
 11
9.165106632317766
 21
-35.597080891173924
  0
LINE
  8
0
 10
9.165106632317766
 20
-35.597080891173924
 11
9.4152265438271
 21
-36.09048423160414
  0
LINE
  8
0
 10
9.4152265438271
 20
-36.09048423160414
 11
9.78960430443034
 21
-36.716477009144675
  0
LINE
  8
0
 10
9.78960430443034
 20
-36.716477009144675
 11
10.307515757684707
 21
-37.459390636140604
  0
LINE
  8
0
 10
10.307515757684707
 20
-37.459390636140604
 11
10.98660582348373
 21
-38.301545791250334
  0
LINE
  8
0
 10
10.98660582348373
 20
-38.301545791250334
 11
11.639314779203962
 21
-39.00439380736039
  0
LINE
  8
0
 10
11.639314779203962
 20
-39.00439380736039
 11
12.590485031468377
 21
-38.74952850640164
  0
LINE
  8
0
 10
12.590485031468377
 20
-38.74952850640164
 11
13.5098039953188
 21
-38.396635019453434
  0
LINE
  8
0
 10
13.5098039953188
 20
-38.396635019453434
 11
13.624732934403637
 21
-37.44436633175478
  0
LINE
  8
0
 10
13.624732934403637
 20
-37.44436633175478
 11
13.67912195803103
 21
-36.36388937370639
  0
LINE
  8
0
 10
13.67912195803103
 20
-36.36388937370639
 11
13.6614474516206
 21
-35.45843890989815
  0
LINE
  8
0
 10
13.6614474516206
 20
-35.45843890989815
 11
13.596376099584708
 21
-34.731946388042935
  0
LINE
  8
0
 10
13.596376099584708
 20
-34.731946388042935
 11
13.508712151690625
 21
-34.185757905263834
  0
LINE
  8
0
 10
13.508712151690625
 20
-34.185757905263834
 11
13.377026916485585
 21
-33.62069099688596
  0
LINE
  8
0
 10
13.377026916485585
 20
-33.62069099688596
 11
13.353707216751268
 21
-33.22000274283275
  0
LINE
  8
0
 10
13.353707216751268
 20
-33.22000274283275
 11
13.439989228396342
 21
-32.98595696443263
  0
LINE
  8
0
 10
13.439989228396342
 20
-32.98595696443263
 11
15.520235089684723
 21
-32.059771834492665
  0
LINE
  8
0
 10
15.520235089684723
 20
-32.059771834492665
 11
15.751898933597563
 21
-32.15225899762346
  0
LINE
  8
0
 10
15.751898933597563
 20
-32.15225899762346
 11
16.034064411403126
 21
-32.43770168620843
  0
LINE
  8
0
 10
16.034064411403126
 20
-32.43770168620843
 11
16.365876339131646
 21
-32.91366645037872
  0
LINE
  8
0
 10
16.365876339131646
 20
-32.91366645037872
 11
16.713114853234227
 21
-33.34428489030548
  0
LINE
  8
0
 10
16.713114853234227
 20
-33.34428489030548
 11
17.209462778354542
 21
-33.87876071052187
  0
LINE
  8
0
 10
17.209462778354542
 20
-33.87876071052187
 11
17.870517052068138
 21
-34.49776004638039
  0
LINE
  8
0
 10
17.870517052068138
 20
-34.49776004638039
 11
18.70986127284137
 21
-35.18032132699876
  0
LINE
  8
0
 10
18.70986127284137
 20
-35.18032132699876
 11
19.494437291273933
 21
-35.73210460504163
  0
LINE
  8
0
 10
19.494437291273933
 20
-35.73210460504163
 11
20.37183271576259
 21
-35.2850493069947
  0
LINE
  8
0
 10
20.37183271576259
 20
-35.2850493069947
 11
21.197691673011995
 21
-34.74873022924675
  0
LINE
  8
0
 10
21.197691673011995
 20
-34.74873022924675
 11
21.112121346060476
 21
-33.793375827071365
  0
LINE
  8
0
 10
21.112121346060476
 20
-33.793375827071365
 11
20.9406780477904
 21
-32.725201769043885
  0
LINE
  8
0
 10
20.9406780477904
 20
-32.725201769043885
 11
20.735136034868788
 21
-31.8432123067987
  0
LINE
  8
0
 10
20.735136034868788
 20
-31.8432123067987
 11
20.520440359412998
 21
-31.14612448442055
  0
LINE
  8
0
 10
20.520440359412998
 20
-31.14612448442055
 11
20.32113310814976
 21
-30.630097890072154
  0
LINE
  8
0
 10
20.32113310814976
 20
-30.630097890072154
 11
20.074841494935875
 21
-30.104757949295482
  0
LINE
  8
0
 10
20.074841494935875
 20
-30.104757949295482
 11
19.9687236141999
 21
-29.71767413315224
  0
LINE
  8
0
 10
19.9687236141999
 20
-29.71767413315224
 11
20.004459303361088
 21
-29.470803777620002
  0
LINE
  8
0
 10
20.004459303361088
 20
-29.470803777620002
 11
21.84668208514066
 21
-28.13235058059678
  0
LINE
  8
0
 10
21.84668208514066
 20
-28.13235058059678
 11
22.092512680706236
 21
-28.174651055822586
  0
LINE
  8
0
 10
22.092512680706236
 20
-28.174651055822586
 11
22.42785903784692
 21
-28.395190635228026
  0
LINE
  8
0
 10
22.42785903784692
 20
-28.395190635228026
 11
22.851378717737752
 21
-28.79176684840749
  0
LINE
  8
0
 10
22.851378717737752
 20
-28.79176684840749
 11
23.28055984513205
 21
-29.140780295669476
  0
LINE
  8
0
 10
23.28055984513205
 20
-29.140780295669476
 11
23.877185148700086
 21
-29.560380000518713
  0
LINE
  8
0
 10
23.877185148700086
 20
-29.560380000518713
 11
24.652490999021282
 21
-30.028411803974446
  0
LINE
  8
0
 10
24.652490999021282
 20
-30.028411803974446
 11
25.615406004700503
 21
-30.52154800684602
  0
LINE
  8
0
 10
25.615406004700503
 20
-30.52154800684602
 11
26.497559349026456
 21
-30.89815096982131
  0
LINE
  8
0
 10
26.497559349026456
 20
-30.89815096982131
 11
27.262833555478917
 21
-30.27844413642015
  0
LINE
  8
0
 10
27.262833555478917
 20
-30.27844413642015
 11
27.95913850678454
 21
-29.582139185114507
  0
LINE
  8
0
 10
27.95913850678454
 20
-29.582139185114507
 11
27.676808747696427
 21
-28.665452640136493
  0
LINE
  8
0
 10
27.676808747696427
 20
-28.665452640136493
 11
27.287026022339496
 21
-27.65626581413352
  0
LINE
  8
0
 10
27.287026022339496
 20
-27.65626581413352
 11
26.902599675171384
 21
-26.836284525206516
  0
LINE
  8
0
 10
26.902599675171384
 20
-26.836284525206516
 11
26.54766290753727
 21
-26.19906748514185
  0
LINE
  8
0
 10
26.54766290753727
 20
-26.19906748514185
 11
26.245423036167374
 21
-25.735755617567506
  0
LINE
  8
0
 10
26.245423036167374
 20
-25.735755617567506
 11
25.895289170280375
 21
-25.2731025206647
  0
LINE
  8
0
 10
25.895289170280375
 20
-25.2731025206647
 11
25.711010969140993
 21
-24.916540562631116
  0
LINE
  8
0
 10
25.711010969140993
 20
-24.916540562631116
 11
25.694638514723092
 21
-24.667635049118914
  0
LINE
  8
0
 10
25.694638514723092
 20
-24.667635049118914
 11
27.218324241464405
 21
-22.97541061233337
  0
LINE
  8
0
 10
27.218324241464405
 20
-22.97541061233337
 11
27.467577612030432
 21
-22.96567566590662
  0
LINE
  8
0
 10
27.467577612030432
 20
-22.96567566590662
 11
27.841448603528832
 21
-23.111673498246194
  0
LINE
  8
0
 10
27.841448603528832
 20
-23.111673498246194
 11
28.338166193297848
 21
-23.411528876935087
  0
LINE
  8
0
 10
28.338166193297848
 20
-23.411528876935087
 11
28.83053265927718
 21
-23.66368376913461
  0
LINE
  8
0
 10
28.83053265927718
 20
-23.66368376913461
 11
29.50135995260117
 21
-23.95006883805201
  0
LINE
  8
0
 10
29.50135995260117
 20
-23.95006883805201
 11
30.357032793540697
 21
-24.246677873428172
  0
LINE
  8
0
 10
30.357032793540697
 20
-24.246677873428172
 11
31.401434577798884
 21
-24.528836580157424
  0
LINE
  8
0
 10
31.401434577798884
 20
-24.528836580157424
 11
32.34261091382979
 21
-24.713799871441598
  0
LINE
  8
0
 10
32.34261091382979
 20
-24.713799871441598
 11
32.96231774723098
 21
-23.948525664989155
  0
LINE
  8
0
 10
32.96231774723098
 20
-23.948525664989155
 11
33.49863682497892
 21
-23.122666707739743
  0
LINE
  8
0
 10
33.49863682497892
 20
-23.122666707739743
 11
33.031886798994854
 21
-22.284711620724714
  0
LINE
  8
0
 10
33.031886798994854
 20
-22.284711620724714
 11
32.44080002203421
 21
-21.378618333658256
  0
LINE
  8
0
 10
32.44080002203421
 20
-21.378618333658256
 11
31.894290616673114
 21
-20.656482335082313
  0
LINE
  8
0
 10
31.894290616673114
 20
-20.656482335082313
 11
31.414625196781856
 21
-20.106985519688557
  0
LINE
  8
0
 10
31.414625196781856
 20
-20.106985519688557
 11
31.022662037991992
 21
-19.716637330718275
  0
LINE
  8
0
 10
31.022662037991992
 20
-19.716637330718275
 11
30.583988449499834
 21
-19.336891238079854
  0
LINE
  8
0
 10
30.583988449499834
 20
-19.336891238079854
 11
30.32960376961175
 21
-19.026434606696096
  0
LINE
  8
0
 10
30.32960376961175
 20
-19.026434606696096
 11
30.26183872643657
 21
-18.78637230052559
  0
LINE
  8
0
 10
30.26183872643657
 20
-18.78637230052559
 11
31.40039502042572
 21
-16.814334952059017
  0
LINE
  8
0
 10
31.40039502042572
 20
-16.814334952059017
 11
31.642177597648086
 21
-16.752990047852013
  0
LINE
  8
0
 10
31.642177597648086
 20
-16.752990047852013
 11
32.03823326714367
 21
-16.818065327277157
  0
LINE
  8
0
 10
32.03823326714367
 20
-16.818065327277157
 11
32.586439824602515
 21
-17.00809475256103
  0
LINE
  8
0
 10
32.586439824602515
 20
-17.00809475256103
 11
33.12047285196716
 21
-17.152370710935553
  0
LINE
  8
0
 10
33.12047285196716
 20
-17.152370710935553
 11
33.83618376334235
 21
-17.29302474218141
  0
LINE
  8
0
 10
33.83618376334235
 20
-17.29302474218141
 11
34.734826585777306
 21
-17.405247771343998
  0
LINE
  8
0
 10
34.734826585777306
 20
-17.405247771343998
 11
35.81506977904659
 21
-17.464097292499158
  0
LINE
  8
0
 10
35.81506977904659
 20
-17.464097292499158
 11
36.77413518463276
 21
-17.449337128710752
  0
LINE
  8
0
 10
36.77413518463276
 20
-17.449337128710752
 11
37.22119048267971
 21
-16.571941704222102
  0
LINE
  8
0
 10
37.22119048267971
 20
-16.571941704222102
 11
37.57408396962791
 21
-15.652622740371674
  0
LINE
  8
0
 10
37.57408396962791
 20
-15.652622740371674
 11
36.94331289259853
 21
-14.930021769576816
  0
LINE
  8
0
 10
36.94331289259853
 20
-14.930021769576816
 11
36.17675539253638
 21
-14.166622646009662
  0
LINE
  8
0
 10
36.17675539253638
 20
-14.166622646009662
 11
35.492048012439675
 21
-13.573892746115524
  0
LINE
  8
0
 10
35.492048012439675
 20
-13.573892746115524
 11
34.908617620830576
 21
-13.136131803003655
  0
LINE
  8
0
 10
34.908617620830576
 20
-13.136131803003655
 11
34.44406184550776
 21
-12.835807381593858
  0
LINE
  8
0
 10
34.44406184550776
 20
-12.835807381593858
 11
33.93602067521698
 21
-12.555565019692047
  0
LINE
  8
0
 10
33.93602067521698
 20
-12.555565019692047
 11
33.622647347764435
 21
-12.304782159485793
  0
LINE
  8
0
 10
33.622647347764435
 20
-12.304782159485793
 11
33.506451373391485
 21
-12.084054935383373
  0
LINE
  8
0
 10
33.506451373391485
 20
-12.084054935383373
 11
34.210117861181885
 21
-9.918392170248858
  0
LINE
  8
0
 10
34.210117861181885
 20
-9.918392170248858
 11
34.43386258623445
 21
-9.808118374940952
  0
LINE
  8
0
 10
34.43386258623445
 20
-9.808118374940952
 11
34.834793400484294
 21
-9.789426999474953
  0
LINE
  8
0
 10
34.834793400484294
 20
-9.789426999474953
 11
35.410529668485104
 21
-9.861325273606544
  0
LINE
  8
0
 10
35.410529668485104
 20
-9.861325273606544
 11
35.96288945136443
 21
-9.89141674646225
  0
LINE
  8
0
 10
35.96288945136443
 20
-9.89141674646225
 11
36.69220397960174
 21
-9.880192483938185
  0
LINE
  8
0
 10
36.69220397960174
 20
-9.880192483938185
 11
37.59454178002504
 21
-9.803124822006954
  0
LINE
  8
0
 10
37.59454178002504
 20
-9.803124822006954
 11
38.663414571177604
 21
-9.63609315112222
  0
LINE
  8
0
 10
38.663414571177604
 20
-9.63609315112222
 11
39.59845328598851
 21
-9.422254622245909
  0
LINE
  8
0
 10
0.41582338163551874
 20
-1.9562952014676114
 11
1.2246467991473532e-16
 21
-2
  0
LINE
  8
0
 10
1.2246467991473532e-16
 20
-2
 11
-0.41582338163551785
 21
-1.9562952014676114
  0
LINE
  8
0
 10
-0.41582338163551785
 20
-1.9562952014676114
 11
-0.8134732861516002
 21
-1.827090915285202
  0
LINE
  8
0
 10
-0.8134732861516002
 20
-1.827090915285202
 11
-1.1755705045849467
 21
-1.6180339887498945
  0
LINE
  8
0
 10
-1.1755705045849467
 20
-1.6180339887498945
 11
-1.486289650954788
 21
-1.338261212717717
  0
LINE
  8
0
 10
-1.486289650954788
 20
-1.338261212717717
 11
-1.7320508075688772
 21
-1.0000000000000002
  0
LINE
  8
0
 10
-1.7320508075688772
 20
-1.0000000000000002
 11
-1.9021130325903073
 21
-0.6180339887498946
  0
LINE
  8
0
 10
-1.9021130325903073
 20
-0.6180339887498946
 11
-1.9890437907365468
 21
-0.20905692653530608
  0
LINE
  8
0
 10
-1.9890437907365468
 20
-0.20905692653530608
 11
-1.9890437907365466
 21
0.20905692653530836
  0
LINE
  8
0
 10
-1.9890437907365466
 20
0.20905692653530836
 11
-1.902113032590307
 21
0.618033988749895
  0
LINE
  8
0
 10
-1.902113032590307
 20
0.618033988749895
 11
-1.7320508075688767
 21
1.0000000000000009
  0
LINE
  8
0
 10
-1.7320508075688767
 20
1.0000000000000009
 11
-1.486289650954788
 21
1.338261212717717
  0
LINE
  8
0
 10
-1.486289650954788
 20
1.338261212717717
 11
-1.175570504584946
 21
1.618033988749895
  0
LINE
  8
0
 10
-1.175570504584946
 20
1.618033988749895
 11
-0.8134732861516005
 21
1.8270909152852017
  0
LINE
  8
0
 10
-0.8134732861516005
 20
1.8270909152852017
 11
-0.41582338163551824
 21
1.9562952014676114
  0
LINE
  8
0
 10
-0.41582338163551824
 20
1.9562952014676114
 11
1.0106430996148606e-15
 21
2
  0
LINE
  8
0
 10
1.0106430996148606e-15
 20
2
 11
0.4158233816355185
 21
1.9562952014676114
  0
LINE
  8
0
 10
0.4158233816355185
 20
1.9562952014676114
 11
0.8134732861516
 21
1.827090915285202
  0
LINE
  8
0
 10
0.8134732861516
 20
1.827090915285202
 11
1.1755705045849465
 21
1.618033988749895
  0
LINE
  8
0
 10
1.1755705045849465
 20
1.618033988749895
 11
1.486289650954789
 21
1.3382612127177158
  0
LINE
  8
0
 10
1.486289650954789
 20
1.3382612127177158
 11
1.7320508075688774
 21
0.9999999999999997
  0
LINE
  8
0
 10
1.7320508075688774
 20
0.9999999999999997
 11
1.9021130325903073
 21
0.6180339887498948
  0
LINE
  8
0
 10
1.9021130325903073
 20
0.6180339887498948
 11
1.9890437907365468
 21
0.20905692653530678
  0
LINE
  8
0
 10
1.9890437907365468
 20
0.20905692653530678
 11
1.9890437907365466
 21
-0.2090569265353068
  0
LINE
  8
0
 10
1.9890437907365466
 20
-0.2090569265353068
 11
1.902113032590307
 21
-0.6180339887498948
  0
LINE
  8
0
 10
1.902113032590307
 20
-0.6180339887498948
 11
1.7320508075688772
 21
-1.0000000000000002
  0
LINE
  8
0
 10
1.7320508075688772
 20
-1.0000000000000002
 11
1.4862896509547885
 21
-1.3382612127177165
  0
LINE
  8
0
 10
1.4862896509547885
 20
-1.3382612127177165
 11
1.1755705045849463
 21
-1.618033988749895
  0
LINE
  8
0
 10
1.1755705045849463
 20
-1.618033988749895
 11
0.8134732861516004
 21
-1.8270909152852017
  0
LINE
  8
0
 10
0.8134732861516004
 20
-1.8270909152852017
 11
0.41582338163551874
 21
-1.9562952014676114
  0
ENDSEC
  0
SECTION
  2
OBJECTS
  0
DICTIONARY
  0
ENDSEC
  0
EOF
