<?xml version="1.0" standalone="no"?>
<!DOCTYPE svg PUBLIC "-//W3C//DTD SVG 1.1//EN" "http://www.w3.org/Graphics/SVG/1.1/DTD/svg11.dtd">
<svg width="316" height="386" viewBox="-193 -193 316 386" xmlns="http://www.w3.org/2000/svg" version="1.1">
<title>OpenSCAD Model</title>
<path d="
M 58.9541,-67.6807 L 59.3721,-68.5928 L 59.749,-69.5215 L 60.0469,-70.3613 L 60.2734,-71.1045 L 60.4395,-71.749
 L 60.5742,-72.3926 L 60.666,-72.6318 L 60.7754,-72.748 L 63.0508,-72.8242 L 63.167,-72.7158 L 63.2744,-72.4824
 L 63.4521,-71.8496 L 63.6611,-71.2178 L 63.9365,-70.4912 L 64.29,-69.6738 L 64.7275,-68.7715 L 65.2061,-67.8896
 L 66.2451,-67.9248 L 67.2705,-68.0977 L 67.5625,-69.0576 L 67.8125,-70.0283 L 67.9951,-70.8994 L 68.1211,-71.667
 L 68.1992,-72.3271 L 68.2471,-72.9834 L 68.3066,-73.2324 L 68.3994,-73.3623 L 70.6445,-73.7412 L 70.7744,-73.6484
 L 70.9121,-73.4326 L 71.1729,-72.8291 L 71.4629,-72.2305 L 71.834,-71.5469 L 72.292,-70.7842 L 72.8467,-69.9482
 L 73.4375,-69.1377 L 74.4629,-69.3105 L 75.4561,-69.6191 L 75.6182,-70.6094 L 75.7363,-71.6045 L 75.8018,-72.4922
 L 75.8232,-73.2695 L 75.8135,-73.9346 L 75.7734,-74.5908 L 75.7988,-74.8457 L 75.873,-74.9873 L 78.0479,-75.6621
 L 78.1895,-75.5879 L 78.3545,-75.3916 L 78.6934,-74.8281 L 79.0605,-74.2734 L 79.5195,-73.6455 L 80.0752,-72.9502
 L 80.7363,-72.1963 L 81.4297,-71.4717 L 82.4229,-71.7803 L 83.3662,-72.2178 L 83.3945,-73.2207 L 83.3789,-74.2227
 L 83.3252,-75.1113 L 83.2441,-75.8848 L 83.1445,-76.543 L 83.0186,-77.1875 L 83.0088,-77.4443 L 83.0635,-77.5938
 L 85.1299,-78.5518 L 85.2793,-78.4971 L 85.4688,-78.3252 L 85.8799,-77.8115 L 86.3184,-77.3115 L 86.8564,-76.75
 L 87.5,-76.1357 L 88.2549,-75.4756 L 89.04,-74.8506 L 89.9824,-75.2881 L 90.8594,-75.8477 L 90.7539,-76.8457
 L 90.6045,-77.8369 L 90.4336,-78.71 L 90.249,-79.4658 L 90.0635,-80.1045 L 89.8516,-80.7266 L 89.8086,-80.9795
 L 89.8438,-81.1357 L 91.7627,-82.3604 L 91.918,-82.3262 L 92.1299,-82.1807 L 92.6045,-81.7266 L 93.1064,-81.2891
 L 93.7139,-80.8047 L 94.4346,-80.2812 L 95.2705,-79.7285 L 96.1318,-79.2129 L 97.0078,-79.7725 L 97.8018,-80.4443
 L 97.5645,-81.4189 L 97.2842,-82.3818 L 96.998,-83.2246 L 96.7148,-83.9482 L 96.4453,-84.5566 L 96.1533,-85.1455
 L 96.0762,-85.3906 L 96.0898,-85.5488 L 97.8291,-87.0195 L 97.9883,-87.0059 L 98.2168,-86.8896 L 98.748,-86.5039
 L 99.3027,-86.1367 L 99.9707,-85.7373 L 100.754,-85.3145 L 101.656,-84.8779 L 102.578,-84.4824 L 103.372,-85.1533
 L 104.069,-85.9248 L 103.705,-86.8594 L 103.299,-87.7754 L 102.902,-88.5732 L 102.525,-89.2529 L 102.178,-89.8203
 L 101.809,-90.3643 L 101.7,-90.5967 L 101.692,-90.7559 L 103.22,-92.4443 L 103.38,-92.4531 L 103.621,-92.3682
 L 104.2,-92.0566 L 104.799,-91.7666 L 105.514,-91.46 L 106.346,-91.1455 L 107.299,-90.833 L 108.266,-90.5635
 L 108.963,-91.335 L 109.551,-92.1914 L 109.064,-93.0693 L 108.54,-93.9238 L 108.041,-94.6611 L 107.577,-95.2852
 L 107.156,-95.7998 L 106.719,-96.291 L 106.58,-96.5068 L 106.552,-96.6631 L 107.84,-98.541 L 107.997,-98.5693
 L 108.248,-98.5186 L 108.863,-98.2861 L 109.495,-98.0791 L 110.244,-97.8701 L 111.111,-97.6689 L 112.098,-97.4873
 L 113.091,-97.3486 L 113.68,-98.2061 L 114.148,-99.1338 L 113.55,-99.9385 L 112.916,-100.716 L 112.323,-101.38
 L 111.779,-101.936 L 111.294,-102.391 L 110.795,-102.818 L 110.629,-103.014 L 110.579,-103.165 L 111.606,-105.198
 L 111.758,-105.248 L 112.014,-105.23 L 112.654,-105.082 L 113.309,-104.961 L 114.078,-104.854 L 114.965,-104.771
 L 115.966,-104.721 L 116.97,-104.716 L 117.438,-105.645 L 117.779,-106.626 L 117.078,-107.344 L 116.347,-108.029
 L 115.671,-108.608 L 115.059,-109.088 L 114.517,-109.474 L 113.965,-109.831 L 113.774,-110.003 L 113.705,-110.146
 L 114.452,-112.298 L 114.596,-112.367 L 114.851,-112.384 L 115.506,-112.322 L 116.17,-112.289 L 116.947,-112.286
 L 117.837,-112.321 L 118.836,-112.406 L 119.831,-112.535 L 120.172,-113.518 L 120.379,-114.536 L 119.589,-115.154
 L 118.772,-115.736 L 118.025,-116.22 L 117.354,-116.613 L 116.766,-116.924 L 116.172,-117.204 L 115.96,-117.349
 L 115.872,-117.481 L 116.325,-119.713 L 116.458,-119.801 L 116.71,-119.852 L 117.366,-119.878 L 118.029,-119.935
 L 118.801,-120.034 L 119.678,-120.188 L 120.656,-120.405 L 121.625,-120.666 L 121.832,-121.685 L 121.901,-122.722
 L 121.036,-123.229 L 120.149,-123.697 L 119.345,-124.077 L 118.627,-124.377 L 118.002,-124.606 L 117.376,-124.805
 L 117.146,-124.92 L 117.042,-125.04 L 117.194,-127.312 L 117.313,-127.417 L 117.557,-127.501 L 118.204,-127.614
 L 118.854,-127.759 L 119.604,-127.961 L 120.453,-128.229 L 121.394,-128.575 L 122.319,-128.963 L 122.389,-130
 L 122.319,-131.037 L 121.394,-131.425 L 120.453,-131.771 L 119.604,-132.039 L 118.854,-132.241 L 118.204,-132.386
 L 117.557,-132.499 L 117.313,-132.583 L 117.194,-132.688 L 117.042,-134.96 L 117.146,-135.08 L 117.376,-135.195
 L 118.002,-135.394 L 118.627,-135.623 L 119.345,-135.923 L 120.149,-136.303 L 121.036,-136.771 L 121.901,-137.278
 L 121.832,-138.315 L 121.625,-139.334 L 120.656,-139.595 L 119.678,-139.812 L 118.801,-139.966 L 118.029,-140.065
 L 117.366,-140.122 L 116.71,-140.148 L 116.458,-140.199 L 116.325,-140.287 L 115.872,-142.519 L 115.96,-142.651
 L 116.172,-142.796 L 116.766,-143.076 L 117.354,-143.387 L 118.025,-143.78 L 118.772,-144.264 L 119.589,-144.846
 L 120.379,-145.464 L 120.172,-146.482 L 119.831,-147.465 L 118.836,-147.594 L 117.837,-147.679 L 116.947,-147.714
 L 116.17,-147.711 L 115.506,-147.678 L 114.851,-147.616 L 114.596,-147.633 L 114.452,-147.702 L 113.705,-149.854
 L 113.774,-149.997 L 113.965,-150.169 L 114.517,-150.526 L 115.059,-150.912 L 115.671,-151.392 L 116.347,-151.971
 L 117.078,-152.656 L 117.779,-153.374 L 117.438,-154.355 L 116.97,-155.284 L 115.966,-155.279 L 114.965,-155.229
 L 114.078,-155.146 L 113.309,-155.039 L 112.654,-154.918 L 112.014,-154.77 L 111.758,-154.752 L 111.606,-154.802
 L 110.579,-156.835 L 110.629,-156.986 L 110.795,-157.182 L 111.294,-157.609 L 111.779,-158.064 L 112.323,-158.62
 L 112.916,-159.284 L 113.55,-160.062 L 114.148,-160.866 L 113.68,-161.794 L 113.091,-162.651 L 112.098,-162.513
 L 111.111,-162.331 L 110.244,-162.13 L 109.495,-161.921 L 108.863,-161.714 L 108.248,-161.481 L 107.997,-161.431
 L 107.84,-161.459 L 106.552,-163.337 L 106.58,-163.493 L 106.719,-163.709 L 107.156,-164.2 L 107.577,-164.715
 L 108.041,-165.339 L 108.54,-166.076 L 109.064,-166.931 L 109.551,-167.809 L 108.963,-168.665 L 108.266,-169.437
 L 107.299,-169.167 L 106.346,-168.854 L 105.514,-168.54 L 104.799,-168.233 L 104.2,-167.943 L 103.621,-167.632
 L 103.38,-167.547 L 103.22,-167.556 L 101.692,-169.244 L 101.7,-169.403 L 101.809,-169.636 L 102.178,-170.18
 L 102.525,-170.747 L 102.902,-171.427 L 103.299,-172.225 L 103.705,-173.141 L 104.069,-174.075 L 103.372,-174.847
 L 102.578,-175.518 L 101.656,-175.122 L 100.754,-174.686 L 99.9707,-174.263 L 99.3027,-173.863 L 98.748,-173.496
 L 98.2168,-173.11 L 97.9883,-172.994 L 97.8291,-172.98 L 96.0898,-174.451 L 96.0762,-174.609 L 96.1533,-174.854
 L 96.4453,-175.443 L 96.7148,-176.052 L 96.998,-176.775 L 97.2842,-177.618 L 97.5645,-178.581 L 97.8018,-179.556
 L 97.0078,-180.228 L 96.1318,-180.787 L 95.2705,-180.271 L 94.4346,-179.719 L 93.7139,-179.195 L 93.1064,-178.711
 L 92.6045,-178.273 L 92.1299,-177.819 L 91.918,-177.674 L 91.7627,-177.64 L 89.8438,-178.864 L 89.8086,-179.021
 L 89.8516,-179.273 L 90.0635,-179.896 L 90.249,-180.534 L 90.4336,-181.29 L 90.6045,-182.163 L 90.7539,-183.154
 L 90.8594,-184.152 L 89.9824,-184.712 L 89.04,-185.149 L 88.2549,-184.524 L 87.5,-183.864 L 86.8564,-183.25
 L 86.3184,-182.688 L 85.8799,-182.188 L 85.4688,-181.675 L 85.2793,-181.503 L 85.1299,-181.448 L 83.0635,-182.406
 L 83.0088,-182.556 L 83.0186,-182.812 L 83.1445,-183.457 L 83.2441,-184.115 L 83.3252,-184.889 L 83.3789,-185.777
 L 83.3945,-186.779 L 83.3662,-187.782 L 82.4229,-188.22 L 81.4297,-188.528 L 80.7363,-187.804 L 80.0752,-187.05
 L 79.5195,-186.354 L 79.0605,-185.727 L 78.6934,-185.172 L 78.3545,-184.608 L 78.1895,-184.412 L 78.0479,-184.338
 L 75.873,-185.013 L 75.7988,-185.154 L 75.7734,-185.409 L 75.8135,-186.065 L 75.8232,-186.73 L 75.8018,-187.508
 L 75.7363,-188.396 L 75.6182,-189.391 L 75.4561,-190.381 L 74.4629,-190.689 L 73.4375,-190.862 L 72.8467,-190.052
 L 72.292,-189.216 L 71.834,-188.453 L 71.4629,-187.77 L 71.1729,-187.171 L 70.9121,-186.567 L 70.7744,-186.352
 L 70.6445,-186.259 L 68.3994,-186.638 L 68.3066,-186.768 L 68.2471,-187.017 L 68.1992,-187.673 L 68.1211,-188.333
 L 67.9951,-189.101 L 67.8125,-189.972 L 67.5625,-190.942 L 67.2705,-191.902 L 66.2451,-192.075 L 65.2061,-192.11
 L 64.7275,-191.229 L 64.29,-190.326 L 63.9365,-189.509 L 63.6611,-188.782 L 63.4521,-188.15 L 63.2744,-187.518
 L 63.167,-187.284 L 63.0508,-187.176 L 60.7754,-187.252 L 60.666,-187.368 L 60.5742,-187.607 L 60.4395,-188.251
 L 60.2734,-188.896 L 60.0469,-189.639 L 59.749,-190.479 L 59.3721,-191.407 L 58.9541,-192.319 L 57.915,-192.354
 L 56.8809,-192.25 L 56.5244,-191.312 L 56.2109,-190.359 L 55.9697,-189.503 L 55.793,-188.745 L 55.6709,-188.092
 L 55.5791,-187.44 L 55.5039,-187.195 L 55.4023,-187.072 L 53.1367,-186.845 L 53.0137,-186.945 L 52.8906,-187.17
 L 52.6709,-187.79 L 52.4209,-188.406 L 52.0967,-189.113 L 51.6904,-189.905 L 51.1934,-190.775 L 50.6572,-191.624
 L 49.623,-191.52 L 48.6113,-191.278 L 48.3838,-190.302 L 48.1992,-189.316 L 48.0752,-188.435 L 48.001,-187.66
 L 47.9668,-186.996 L 47.9629,-186.339 L 47.9199,-186.086 L 47.8369,-185.95 L 45.6221,-185.423 L 45.4863,-185.506
 L 45.334,-185.713 L 45.0342,-186.297 L 44.7041,-186.875 L 44.2881,-187.532 L 43.7803,-188.263 L 43.1709,-189.06
 L 42.5273,-189.829 L 41.5156,-189.588 L 40.5459,-189.214 L 40.4502,-188.215 L 40.3984,-187.214 L 40.3926,-186.324
 L 40.4229,-185.547 L 40.4775,-184.884 L 40.5605,-184.231 L 40.5527,-183.976 L 40.4883,-183.83 L 38.3633,-183.012
 L 38.2168,-183.076 L 38.0391,-183.261 L 37.6641,-183.8 L 37.2598,-184.329 L 36.7607,-184.925 L 36.1592,-185.581
 L 35.4492,-186.289 L 34.709,-186.966 L 33.7383,-186.592 L 32.8271,-186.093 L 32.8652,-185.09 L 32.9473,-184.091
 L 33.0605,-183.208 L 33.1934,-182.441 L 33.3359,-181.792 L 33.5059,-181.157 L 33.5322,-180.902 L 33.4873,-180.749
 L 31.4902,-179.654 L 31.3369,-179.699 L 31.1367,-179.858 L 30.6924,-180.343 L 30.2217,-180.813 L 29.6475,-181.337
 L 28.9639,-181.907 L 28.166,-182.515 L 27.3418,-183.087 L 26.4297,-182.587 L 25.5928,-181.971 L 25.7646,-180.981
 L 25.9795,-180.003 L 26.209,-179.143 L 26.4424,-178.401 L 26.6709,-177.776 L 26.9238,-177.169 L 26.9834,-176.92
 L 26.96,-176.763 L 25.126,-175.411 L 24.9688,-175.436 L 24.748,-175.566 L 24.2432,-175.987 L 23.7139,-176.391
 L 23.0752,-176.834 L 22.3223,-177.308 L 21.4502,-177.804 L 20.5566,-178.26 L 19.7197,-177.644 L 18.9727,-176.921
 L 19.2744,-175.964 L 19.6182,-175.021 L 19.96,-174.2 L 20.291,-173.496 L 20.6006,-172.907 L 20.9316,-172.34
 L 21.0244,-172.101 L 21.0215,-171.941 L 19.3848,-170.358 L 19.2256,-170.36 L 18.9893,-170.461 L 18.4326,-170.812
 L 17.8545,-171.141 L 17.1621,-171.494 L 16.3525,-171.863 L 15.4229,-172.238 L 14.4766,-172.572 L 13.7295,-171.85
 L 13.085,-171.033 L 13.5117,-170.125 L 13.9775,-169.238 L 14.4268,-168.469 L 14.8477,-167.815 L 15.2334,-167.273
 L 15.6367,-166.755 L 15.7607,-166.53 L 15.7793,-166.372 L 14.3682,-164.585 L 14.21,-164.565 L 13.9629,-164.634
 L 13.3643,-164.907 L 12.7471,-165.155 L 12.0137,-165.414 L 11.1621,-165.673 L 10.1904,-165.92 L 9.20801,-166.125
 L 8.56445,-165.309 L 8.03418,-164.414 L 8.57812,-163.571 L 9.1582,-162.754 L 9.70605,-162.052 L 10.21,-161.46
 L 10.6641,-160.974 L 11.1338,-160.514 L 11.2861,-160.308 L 11.3262,-160.153 L 10.165,-158.193 L 10.0107,-158.154
 L 9.75684,-158.188 L 9.12793,-158.38 L 8.4834,-158.544 L 7.72168,-158.702 L 6.84277,-158.845 L 5.84766,-158.961
 L 4.84668,-159.032 L 4.31641,-158.138 L 3.91113,-157.181 L 4.5625,-156.418 L 5.24609,-155.685 L 5.88184,-155.062
 L 6.46191,-154.543 L 6.97656,-154.121 L 7.50293,-153.729 L 7.68164,-153.544 L 7.74121,-153.396 L 6.85254,-151.3
 L 6.7041,-151.24 L 6.44824,-151.24 L 5.79883,-151.346 L 5.13867,-151.423 L 4.3623,-151.479 L 3.47266,-151.502
 L 2.4707,-151.484 L 1.46875,-151.422 L 1.06348,-150.465 L 0.789062,-149.462 L 1.53613,-148.793 L 2.31152,-148.158
 L 3.02441,-147.625 L 3.66797,-147.188 L 4.23438,-146.839 L 4.80859,-146.52 L 5.00977,-146.36 L 5.08887,-146.223
 L 4.4873,-144.026 L 4.34863,-143.947 L 4.09473,-143.913 L 3.4375,-143.931 L 2.77246,-143.919 L 1.99609,-143.871
 L 1.11133,-143.776 L 0.120117,-143.625 L -0.864258,-143.43 L -1.13867,-142.427 L -1.27734,-141.396 L -0.447266,-140.833
 L 0.40625,-140.307 L 1.18359,-139.874 L 1.87988,-139.526 L 2.4873,-139.256 L 3.09961,-139.016 L 3.32031,-138.886
 L 3.41699,-138.759 L 3.11328,-136.502 L 2.98633,-136.405 L 2.73926,-136.338 L 2.08594,-136.268 L 1.42773,-136.167
 L 0.665039,-136.016 L -0.199219,-135.804 L -1.16113,-135.522 L -2.11133,-135.197 L -2.24902,-134.167 L -2.24902,-133.128
 L -1.35156,-132.679 L -0.435547,-132.271 L 0.392578,-131.946 L 1.12891,-131.694 L 1.7666,-131.508 L 2.40527,-131.351
 L 2.6416,-131.251 L 2.75391,-131.139 L 2.75391,-128.861 L 2.6416,-128.749 L 2.40527,-128.649 L 1.7666,-128.492
 L 1.12891,-128.306 L 0.392578,-128.054 L -0.435547,-127.729 L -1.35156,-127.321 L -2.24902,-126.872 L -2.24902,-125.833
 L -2.11133,-124.803 L -1.16113,-124.478 L -0.199219,-124.196 L 0.665039,-123.984 L 1.42773,-123.833 L 2.08594,-123.732
 L 2.73926,-123.662 L 2.98633,-123.595 L 3.11328,-123.498 L 3.41699,-121.241 L 3.32031,-121.114 L 3.09961,-120.984
 L 2.4873,-120.744 L 1.87988,-120.474 L 1.18359,-120.126 L 0.40625,-119.693 L -0.447266,-119.167 L -1.27734,-118.604
 L -1.13867,-117.573 L -0.864258,-116.57 L 0.120117,-116.375 L 1.11133,-116.224 L 1.99609,-116.129 L 2.77246,-116.081
 L 3.4375,-116.069 L 4.09473,-116.087 L 4.34863,-116.053 L 4.4873,-115.974 L 5.08887,-113.777 L 5.00977,-113.64
 L 4.80859,-113.48 L 4.23438,-113.161 L 3.66797,-112.812 L 3.02441,-112.375 L 2.31152,-111.842 L 1.53613,-111.207
 L 0.789062,-110.538 L 1.06348,-109.535 L 1.46875,-108.578 L 2.4707,-108.516 L 3.47266,-108.498 L 4.3623,-108.521
 L 5.13867,-108.577 L 5.79883,-108.654 L 6.44824,-108.76 L 6.7041,-108.76 L 6.85254,-108.7 L 7.74121,-106.604
 L 7.68164,-106.456 L 7.50293,-106.271 L 6.97656,-105.879 L 6.46191,-105.457 L 5.88184,-104.938 L 5.24609,-104.315
 L 4.5625,-103.582 L 3.91113,-102.819 L 4.31641,-101.862 L 4.84668,-100.968 L 5.84766,-101.039 L 6.84277,-101.155
 L 7.72168,-101.298 L 8.4834,-101.456 L 9.12793,-101.62 L 9.75684,-101.812 L 10.0107,-101.846 L 10.165,-101.807
 L 11.3262,-99.8467 L 11.2861,-99.6924 L 11.1338,-99.4863 L 10.6641,-99.0264 L 10.21,-98.54 L 9.70605,-97.9482
 L 9.1582,-97.2461 L 8.57812,-96.4287 L 8.03418,-95.5859 L 8.56445,-94.6914 L 9.20801,-93.875 L 10.1904,-94.0801
 L 11.1621,-94.3271 L 12.0137,-94.5859 L 12.7471,-94.8447 L 13.3643,-95.0928 L 13.9629,-95.3662 L 14.21,-95.4346
 L 14.3682,-95.415 L 15.7793,-93.6279 L 15.7607,-93.4697 L 15.6367,-93.2451 L 15.2334,-92.7266 L 14.8477,-92.1846
 L 14.4268,-91.5312 L 13.9775,-90.7617 L 13.5117,-89.875 L 13.085,-88.9668 L 13.7295,-88.1504 L 14.4766,-87.4277
 L 15.4229,-87.7617 L 16.3525,-88.1367 L 17.1621,-88.5059 L 17.8545,-88.8594 L 18.4326,-89.1885 L 18.9893,-89.5391
 L 19.2256,-89.6396 L 19.3848,-89.6416 L 21.0215,-88.0586 L 21.0244,-87.8994 L 20.9316,-87.6602 L 20.6006,-87.0928
 L 20.291,-86.5039 L 19.96,-85.7998 L 19.6182,-84.9785 L 19.2744,-84.0361 L 18.9727,-83.0791 L 19.7197,-82.3564
 L 20.5566,-81.7402 L 21.4502,-82.1963 L 22.3223,-82.6924 L 23.0752,-83.166 L 23.7139,-83.6094 L 24.2432,-84.0127
 L 24.748,-84.4336 L 24.9688,-84.5645 L 25.126,-84.5889 L 26.96,-83.2373 L 26.9834,-83.0801 L 26.9238,-82.8311
 L 26.6709,-82.2236 L 26.4424,-81.5986 L 26.209,-80.8574 L 25.9795,-79.9971 L 25.7646,-79.0186 L 25.5928,-78.0293
 L 26.4297,-77.4131 L 27.3418,-76.9131 L 28.166,-77.4854 L 28.9639,-78.0928 L 29.6475,-78.6631 L 30.2217,-79.1865
 L 30.6924,-79.6572 L 31.1367,-80.1416 L 31.3369,-80.3008 L 31.4902,-80.3457 L 33.4873,-79.251 L 33.5322,-79.0977
 L 33.5059,-78.8428 L 33.3359,-78.208 L 33.1934,-77.5586 L 33.0605,-76.792 L 32.9473,-75.9092 L 32.8652,-74.9102
 L 32.8271,-73.9072 L 33.7383,-73.4082 L 34.709,-73.0342 L 35.4492,-73.7109 L 36.1592,-74.4189 L 36.7607,-75.0752
 L 37.2598,-75.6709 L 37.6641,-76.2002 L 38.0391,-76.7393 L 38.2168,-76.9238 L 38.3633,-76.9883 L 40.4883,-76.1699
 L 40.5527,-76.0244 L 40.5605,-75.7686 L 40.4775,-75.1162 L 40.4229,-74.4531 L 40.3926,-73.6758 L 40.3984,-72.7861
 L 40.4502,-71.7852 L 40.5459,-70.7861 L 41.5156,-70.4121 L 42.5273,-70.1709 L 43.1709,-70.9404 L 43.7803,-71.7373
 L 44.2881,-72.4678 L 44.7041,-73.125 L 45.0342,-73.7031 L 45.334,-74.2871 L 45.4863,-74.4941 L 45.6221,-74.5771
 L 47.8369,-74.0498 L 47.9199,-73.9141 L 47.9629,-73.6611 L 47.9668,-73.0039 L 48.001,-72.3398 L 48.0752,-71.5654
 L 48.1992,-70.6836 L 48.3838,-69.6982 L 48.6113,-68.7217 L 49.623,-68.4805 L 50.6572,-68.376 L 51.1934,-69.2246
 L 51.6904,-70.0947 L 52.0967,-70.8867 L 52.4209,-71.5938 L 52.6709,-72.21 L 52.8906,-72.8301 L 53.0137,-73.0547
 L 53.1367,-73.1553 L 55.4023,-72.9277 L 55.5039,-72.8047 L 55.5791,-72.5596 L 55.6709,-71.9082 L 55.793,-71.2549
 L 55.9697,-70.4971 L 56.2109,-69.6406 L 56.5244,-68.6885 L 56.8809,-67.75 L 57.915,-67.6465 z
M 59.584,-128.044 L 59.1865,-128.173 L 58.8242,-128.382 L 58.5137,-128.662 L 58.2676,-129 L 58.0977,-129.382
 L 58.0107,-129.791 L 58.0107,-130.209 L 58.0977,-130.618 L 58.2676,-131 L 58.5137,-131.338 L 58.8242,-131.618
 L 59.1865,-131.827 L 59.584,-131.956 L 60,-132 L 60.416,-131.956 L 60.8135,-131.827 L 61.1758,-131.618
 L 61.4863,-131.338 L 61.7324,-131 L 61.9023,-130.618 L 61.9893,-130.209 L 61.9893,-129.791 L 61.9023,-129.382
 L 61.7324,-129 L 61.4863,-128.662 L 61.1758,-128.382 L 60.8135,-128.173 L 60.416,-128.044 L 60,-128
 z
M -45.7412,-99.4795 L -44.7686,-99.6338 L -44.458,-100.541 L -44.1807,-101.587 L -44.0098,-102.476 L -43.9219,-103.2
 L -43.8945,-103.753 L -43.9053,-104.333 L -43.8447,-104.729 L -43.7119,-104.94 L -41.4844,-105.414 L -41.2773,-105.275
 L -41.0605,-104.938 L -40.835,-104.403 L -40.585,-103.909 L -40.21,-103.283 L -39.6924,-102.541 L -39.0137,-101.698
 L -38.3604,-100.996 L -37.4092,-101.25 L -36.4902,-101.604 L -36.375,-102.556 L -36.3213,-103.636 L -36.3389,-104.542
 L -36.4033,-105.268 L -36.4912,-105.814 L -36.623,-106.379 L -36.6465,-106.78 L -36.5596,-107.014 L -34.4795,-107.94
 L -34.248,-107.848 L -33.9658,-107.562 L -33.6338,-107.086 L -33.2871,-106.655 L -32.791,-106.121 L -32.1299,-105.502
 L -31.29,-104.819 L -30.5059,-104.268 L -29.6279,-104.715 L -28.8027,-105.251 L -28.8877,-106.207 L -29.0596,-107.274
 L -29.2646,-108.157 L -29.4795,-108.854 L -29.6787,-109.37 L -29.9248,-109.896 L -30.0312,-110.282 L -29.9951,-110.529
 L -28.1533,-111.867 L -27.9072,-111.825 L -27.5723,-111.604 L -27.1484,-111.208 L -26.7197,-110.859 L -26.123,-110.439
 L -25.3477,-109.972 L -24.3848,-109.479 L -23.502,-109.102 L -22.7373,-109.722 L -22.041,-110.418 L -22.3232,-111.335
 L -22.7129,-112.344 L -23.0977,-113.164 L -23.4521,-113.801 L -23.7549,-114.265 L -24.1045,-114.727 L -24.2891,-115.083
 L -24.3057,-115.332 L -22.7812,-117.024 L -22.5322,-117.034 L -22.1582,-116.889 L -21.6621,-116.589 L -21.1699,-116.336
 L -20.499,-116.05 L -19.6426,-115.753 L -18.5986,-115.471 L -17.6572,-115.286 L -17.0381,-116.052 L -16.501,-116.877
 L -16.9678,-117.715 L -17.5596,-118.621 L -18.1055,-119.344 L -18.585,-119.893 L -18.9775,-120.283 L -19.416,-120.663
 L -19.6699,-120.974 L -19.7383,-121.214 L -18.5996,-123.186 L -18.3574,-123.247 L -17.9619,-123.182 L -17.4131,-122.992
 L -16.8799,-122.848 L -16.1641,-122.707 L -15.2656,-122.595 L -14.1846,-122.536 L -13.2256,-122.551 L -12.7793,-123.428
 L -12.4258,-124.348 L -13.0566,-125.07 L -13.8232,-125.833 L -14.5078,-126.426 L -15.0918,-126.864 L -15.5557,-127.164
 L -16.0645,-127.444 L -16.377,-127.695 L -16.4932,-127.916 L -15.79,-130.082 L -15.5664,-130.191 L -15.165,-130.211
 L -14.5898,-130.139 L -14.0371,-130.108 L -13.3076,-130.12 L -12.4053,-130.197 L -11.3369,-130.364 L -10.4014,-130.578
 L -10.1465,-131.529 L -9.99219,-132.502 L -10.7598,-133.077 L -11.668,-133.664 L -12.4609,-134.102 L -13.123,-134.409
 L -13.6396,-134.606 L -14.1953,-134.774 L -14.5537,-134.955 L -14.7129,-135.146 L -14.4756,-137.411 L -14.2793,-137.565
 L -13.8906,-137.667 L -13.3135,-137.717 L -12.7666,-137.802 L -12.0557,-137.965 L -11.1885,-138.228 L -10.1777,-138.613
 L -9.30762,-139.017 L -9.25586,-140 L -9.30762,-140.983 L -10.1777,-141.387 L -11.1885,-141.772 L -12.0557,-142.035
 L -12.7666,-142.198 L -13.3135,-142.283 L -13.8906,-142.333 L -14.2793,-142.435 L -14.4756,-142.589 L -14.7129,-144.854
 L -14.5537,-145.045 L -14.1953,-145.226 L -13.6396,-145.394 L -13.123,-145.591 L -12.4609,-145.898 L -11.668,-146.336
 L -10.7598,-146.923 L -9.99219,-147.498 L -10.1465,-148.471 L -10.4014,-149.422 L -11.3369,-149.636 L -12.4053,-149.803
 L -13.3076,-149.88 L -14.0371,-149.892 L -14.5898,-149.861 L -15.165,-149.789 L -15.5664,-149.809 L -15.79,-149.918
 L -16.4932,-152.084 L -16.377,-152.305 L -16.0645,-152.556 L -15.5557,-152.836 L -15.0918,-153.136 L -14.5078,-153.574
 L -13.8232,-154.167 L -13.0566,-154.93 L -12.4258,-155.652 L -12.7793,-156.572 L -13.2256,-157.449 L -14.1846,-157.464
 L -15.2656,-157.405 L -16.1641,-157.293 L -16.8799,-157.152 L -17.4131,-157.008 L -17.9619,-156.818 L -18.3574,-156.753
 L -18.5996,-156.814 L -19.7383,-158.786 L -19.6699,-159.026 L -19.416,-159.337 L -18.9775,-159.717 L -18.585,-160.107
 L -18.1055,-160.656 L -17.5596,-161.379 L -16.9678,-162.285 L -16.501,-163.123 L -17.0381,-163.948 L -17.6572,-164.714
 L -18.5986,-164.529 L -19.6426,-164.247 L -20.499,-163.95 L -21.1699,-163.664 L -21.6621,-163.411 L -22.1582,-163.111
 L -22.5322,-162.966 L -22.7812,-162.976 L -24.3057,-164.668 L -24.2891,-164.917 L -24.1045,-165.273 L -23.7549,-165.735
 L -23.4521,-166.199 L -23.0977,-166.836 L -22.7129,-167.656 L -22.3232,-168.665 L -22.041,-169.582 L -22.7373,-170.278
 L -23.502,-170.898 L -24.3848,-170.521 L -25.3477,-170.028 L -26.123,-169.561 L -26.7197,-169.141 L -27.1484,-168.792
 L -27.5723,-168.396 L -27.9072,-168.175 L -28.1533,-168.133 L -29.9951,-169.471 L -30.0312,-169.718 L -29.9248,-170.104
 L -29.6787,-170.63 L -29.4795,-171.146 L -29.2646,-171.843 L -29.0596,-172.726 L -28.8877,-173.793 L -28.8027,-174.749
 L -29.6279,-175.285 L -30.5059,-175.732 L -31.29,-175.181 L -32.1299,-174.498 L -32.791,-173.879 L -33.2871,-173.345
 L -33.6338,-172.914 L -33.9658,-172.438 L -34.248,-172.152 L -34.4795,-172.06 L -36.5596,-172.986 L -36.6465,-173.22
 L -36.623,-173.621 L -36.4912,-174.186 L -36.4033,-174.732 L -36.3389,-175.458 L -36.3213,-176.364 L -36.375,-177.444
 L -36.4902,-178.396 L -37.4092,-178.75 L -38.3604,-179.004 L -39.0137,-178.302 L -39.6924,-177.459 L -40.21,-176.717
 L -40.585,-176.091 L -40.835,-175.597 L -41.0605,-175.062 L -41.2773,-174.725 L -41.4844,-174.586 L -43.7119,-175.06
 L -43.8447,-175.271 L -43.9053,-175.667 L -43.8945,-176.247 L -43.9219,-176.8 L -44.0098,-177.524 L -44.1807,-178.413
 L -44.458,-179.459 L -44.7686,-180.366 L -45.7412,-180.521 L -46.7246,-180.572 L -47.2168,-179.749 L -47.7061,-178.784
 L -48.0586,-177.949 L -48.2939,-177.26 L -48.4365,-176.725 L -48.5459,-176.155 L -48.6875,-175.779 L -48.8613,-175.601
 L -51.1387,-175.601 L -51.3125,-175.779 L -51.4541,-176.155 L -51.5635,-176.725 L -51.7061,-177.26 L -51.9414,-177.949
 L -52.2939,-178.784 L -52.7832,-179.749 L -53.2754,-180.572 L -54.2588,-180.521 L -55.2314,-180.366 L -55.542,-179.459
 L -55.8193,-178.413 L -55.9902,-177.524 L -56.0781,-176.8 L -56.1055,-176.247 L -56.0947,-175.667 L -56.1553,-175.271
 L -56.2881,-175.06 L -58.5156,-174.586 L -58.7227,-174.725 L -58.9395,-175.062 L -59.165,-175.597 L -59.415,-176.091
 L -59.79,-176.717 L -60.3076,-177.459 L -60.9863,-178.302 L -61.6396,-179.004 L -62.5908,-178.75 L -63.5098,-178.396
 L -63.625,-177.444 L -63.6787,-176.364 L -63.6611,-175.458 L -63.5967,-174.732 L -63.5088,-174.186 L -63.377,-173.621
 L -63.3535,-173.22 L -63.4404,-172.986 L -65.5205,-172.06 L -65.752,-172.152 L -66.0342,-172.438 L -66.3662,-172.914
 L -66.7129,-173.345 L -67.209,-173.879 L -67.8701,-174.498 L -68.71,-175.181 L -69.4941,-175.732 L -70.3721,-175.285
 L -71.1973,-174.749 L -71.1123,-173.793 L -70.9404,-172.726 L -70.7354,-171.843 L -70.5205,-171.146 L -70.3213,-170.63
 L -70.0752,-170.104 L -69.9688,-169.718 L -70.0049,-169.471 L -71.8467,-168.133 L -72.0928,-168.175 L -72.4277,-168.396
 L -72.8516,-168.792 L -73.2803,-169.141 L -73.877,-169.561 L -74.6523,-170.028 L -75.6152,-170.521 L -76.498,-170.898
 L -77.2627,-170.278 L -77.959,-169.582 L -77.6768,-168.665 L -77.2871,-167.656 L -76.9023,-166.836 L -76.5479,-166.199
 L -76.2451,-165.735 L -75.8955,-165.273 L -75.7109,-164.917 L -75.6943,-164.668 L -77.2188,-162.976 L -77.4678,-162.966
 L -77.8418,-163.111 L -78.3379,-163.411 L -78.8301,-163.664 L -79.501,-163.95 L -80.3574,-164.247 L -81.4014,-164.529
 L -82.3428,-164.714 L -82.9619,-163.948 L -83.499,-163.123 L -83.0322,-162.285 L -82.4404,-161.379 L -81.8945,-160.656
 L -81.415,-160.107 L -81.0225,-159.717 L -80.584,-159.337 L -80.3301,-159.026 L -80.2617,-158.786 L -81.4004,-156.814
 L -81.6426,-156.753 L -82.0381,-156.818 L -82.5869,-157.008 L -83.1201,-157.152 L -83.8359,-157.293 L -84.7344,-157.405
 L -85.8154,-157.464 L -86.7744,-157.449 L -87.2207,-156.572 L -87.5742,-155.652 L -86.9434,-154.93 L -86.1768,-154.167
 L -85.4922,-153.574 L -84.9082,-153.136 L -84.4443,-152.836 L -83.9355,-152.556 L -83.623,-152.305 L -83.5068,-152.084
 L -84.21,-149.918 L -84.4336,-149.809 L -84.835,-149.789 L -85.4102,-149.861 L -85.9629,-149.892 L -86.6924,-149.88
 L -87.5947,-149.803 L -88.6631,-149.636 L -89.5986,-149.422 L -89.8535,-148.471 L -90.0078,-147.498 L -89.2402,-146.923
 L -88.332,-146.336 L -87.5391,-145.898 L -86.877,-145.591 L -86.3604,-145.394 L -85.8047,-145.226 L -85.4463,-145.045
 L -85.2871,-144.854 L -85.5244,-142.589 L -85.7207,-142.435 L -86.1094,-142.333 L -86.6865,-142.283 L -87.2334,-142.198
 L -87.9443,-142.035 L -88.8115,-141.772 L -89.8223,-141.387 L -90.6924,-140.983 L -90.7441,-140 L -90.6924,-139.017
 L -89.8223,-138.613 L -88.8115,-138.228 L -87.9443,-137.965 L -87.2334,-137.802 L -86.6865,-137.717 L -86.1094,-137.667
 L -85.7207,-137.565 L -85.5244,-137.411 L -85.2871,-135.146 L -85.4463,-134.955 L -85.8047,-134.774 L -86.3604,-134.606
 L -86.877,-134.409 L -87.5391,-134.102 L -88.332,-133.664 L -89.2402,-133.077 L -90.0078,-132.502 L -89.8535,-131.529
 L -89.5986,-130.578 L -88.6631,-130.364 L -87.5947,-130.197 L -86.6924,-130.12 L -85.9629,-130.108 L -85.4102,-130.139
 L -84.835,-130.211 L -84.4336,-130.191 L -84.21,-130.082 L -83.5068,-127.916 L -83.623,-127.695 L -83.9355,-127.444
 L -84.4443,-127.164 L -84.9082,-126.864 L -85.4922,-126.426 L -86.1768,-125.833 L -86.9434,-125.07 L -87.5742,-124.348
 L -87.2207,-123.428 L -86.7744,-122.551 L -85.8154,-122.536 L -84.7344,-122.595 L -83.8359,-122.707 L -83.1201,-122.848
 L -82.5869,-122.992 L -82.0381,-123.182 L -81.6426,-123.247 L -81.4004,-123.186 L -80.2617,-121.214 L -80.3301,-120.974
 L -80.584,-120.663 L -81.0225,-120.283 L -81.415,-119.893 L -81.8945,-119.344 L -82.4404,-118.621 L -83.0322,-117.715
 L -83.499,-116.877 L -82.9619,-116.052 L -82.3428,-115.286 L -81.4014,-115.471 L -80.3574,-115.753 L -79.501,-116.05
 L -78.8301,-116.336 L -78.3379,-116.589 L -77.8418,-116.889 L -77.4678,-117.034 L -77.2188,-117.024 L -75.6943,-115.332
 L -75.7109,-115.083 L -75.8955,-114.727 L -76.2451,-114.265 L -76.5479,-113.801 L -76.9023,-113.164 L -77.2871,-112.344
 L -77.6768,-111.335 L -77.959,-110.418 L -77.2627,-109.722 L -76.498,-109.102 L -75.6152,-109.479 L -74.6523,-109.972
 L -73.877,-110.439 L -73.2803,-110.859 L -72.8516,-111.208 L -72.4277,-111.604 L -72.0928,-111.825 L -71.8467,-111.867
 L -70.0049,-110.529 L -69.9688,-110.282 L -70.0752,-109.896 L -70.3213,-109.37 L -70.5205,-108.854 L -70.7354,-108.157
 L -70.9404,-107.274 L -71.1123,-106.207 L -71.1973,-105.251 L -70.3721,-104.715 L -69.4941,-104.268 L -68.71,-104.819
 L -67.8701,-105.502 L -67.209,-106.121 L -66.7129,-106.655 L -66.3662,-107.086 L -66.0342,-107.562 L -65.752,-107.848
 L -65.5205,-107.94 L -63.4404,-107.014 L -63.3535,-106.78 L -63.377,-106.379 L -63.5088,-105.814 L -63.5967,-105.268
 L -63.6611,-104.542 L -63.6787,-103.636 L -63.625,-102.556 L -63.5098,-101.604 L -62.5908,-101.25 L -61.6396,-100.996
 L -60.9863,-101.698 L -60.3076,-102.541 L -59.79,-103.283 L -59.415,-103.909 L -59.165,-104.403 L -58.9395,-104.938
 L -58.7227,-105.275 L -58.5156,-105.414 L -56.2881,-104.94 L -56.1553,-104.729 L -56.0947,-104.333 L -56.1055,-103.753
 L -56.0781,-103.2 L -55.9902,-102.476 L -55.8193,-101.587 L -55.542,-100.541 L -55.2314,-99.6338 L -54.2588,-99.4795
 L -53.2754,-99.4277 L -52.7832,-100.251 L -52.2939,-101.216 L -51.9414,-102.051 L -51.7061,-102.74 L -51.5635,-103.275
 L -51.4541,-103.845 L -51.3125,-104.221 L -51.1387,-104.399 L -48.8613,-104.399 L -48.6875,-104.221 L -48.5459,-103.845
 L -48.4365,-103.275 L -48.2939,-102.74 L -48.0586,-102.051 L -47.7061,-101.216 L -47.2168,-100.251 L -46.7246,-99.4277
 z
M -50.416,-138.044 L -50.8135,-138.173 L -51.1758,-138.382 L -51.4863,-138.662 L -51.7324,-139 L -51.9023,-139.382
 L -51.9893,-139.791 L -51.9893,-140.209 L -51.9023,-140.618 L -51.7324,-141 L -51.4863,-141.338 L -51.1758,-141.618
 L -50.8135,-141.827 L -50.416,-141.956 L -50,-142 L -49.584,-141.956 L -49.1865,-141.827 L -48.8242,-141.618
 L -48.5137,-141.338 L -48.2676,-141 L -48.0977,-140.618 L -48.0107,-140.209 L -48.0107,-139.791 L -48.0977,-139.382
 L -48.2676,-139 L -48.5137,-138.662 L -48.8242,-138.382 L -49.1865,-138.173 L -49.584,-138.044 L -50,-138
 z
M -100.999,92.9004 L -100.587,91.917 L -100.245,91.0254 L -99.9531,90.1934 L -99.71,89.4248 L -99.5088,88.7207
 L -99.3359,88.0391 L -99.2695,87.8828 L -99.1963,87.8076 L -96.9189,87.7568 L -96.8428,87.8291 L -96.7695,87.9824
 L -96.5664,88.6562 L -96.335,89.3506 L -96.0566,90.1074 L -95.7295,90.9248 L -95.3477,91.8008 L -94.8926,92.7656
 L -93.8359,92.7422 L -92.7852,92.625 L -92.7725,92.5908 L -92.4609,91.6094 L -92.1992,90.6904 L -91.9824,89.8369
 L -91.8076,89.0498 L -91.6699,88.3311 L -91.5576,87.6357 L -91.5049,87.4746 L -91.4385,87.3926 L -89.1758,87.1416
 L -89.0928,87.2061 L -89.0059,87.3525 L -88.7441,88.0059 L -88.4521,88.6768 L -88.1084,89.4062 L -87.71,90.1924
 L -87.2529,91.0303 L -86.7334,91.9199 L -86.7139,91.9512 L -85.6631,91.834 L -84.627,91.625 L -84.3945,90.585
 L -84.2139,89.6465 L -84.0742,88.7764 L -83.9688,87.9766 L -83.8955,87.249 L -83.8447,86.5469 L -83.8076,86.3818
 L -83.748,86.2939 L -81.5166,85.8438 L -81.4277,85.9014 L -81.3291,86.0391 L -81.0107,86.667 L -80.6602,87.3096
 L -80.2529,88.0059 L -79.7871,88.7529 L -79.2568,89.5479 L -78.6396,90.417 L -77.6025,90.208 L -76.5889,89.9082
 L -76.583,89.8721 L -76.4492,88.8506 L -76.3535,87.9004 L -76.29,87.0215 L -76.2568,86.2158 L -76.2471,85.4844
 L -76.2598,84.7803 L -76.2363,84.6123 L -76.1855,84.5195 L -74.002,83.874 L -73.9082,83.9238 L -73.7979,84.0527
 L -73.4248,84.6494 L -73.0195,85.2588 L -72.5527,85.916 L -72.0215,86.6191 L -71.4238,87.3643 L -70.7559,88.1484
 L -70.7314,88.1748 L -69.7178,87.875 L -68.7344,87.4873 L -68.6885,86.4219 L -68.6768,85.4668 L -68.6924,84.5859
 L -68.7295,83.7803 L -68.7852,83.0498 L -68.8594,82.3506 L -68.8516,82.1807 L -68.8086,82.084 L -66.6904,81.248
 L -66.5938,81.2891 L -66.4717,81.4072 L -66.0479,81.9688 L -65.5898,82.54 L -65.0664,83.1543 L -64.4756,83.8076
 L -63.8145,84.4971 L -63.0801,85.2188 L -63.0537,85.2432 L -62.0703,84.8555 L -61.125,84.3809 L -61.1738,83.3164
 L -61.2461,82.3633 L -61.3389,81.4873 L -61.4473,80.6885 L -61.5674,79.9668 L -61.7031,79.2764 L -61.71,79.1064
 L -61.6758,79.0068 L -59.6406,77.9863 L -59.54,78.0186 L -59.4082,78.126 L -58.9365,78.6475 L -58.4297,79.1758
 L -57.8545,79.7412 L -57.208,80.3398 L -56.4883,80.9678 L -55.6934,81.6221 L -55.6641,81.6445 L -54.7188,81.1709
 L -53.8193,80.6152 L -53.9619,79.5586 L -54.1182,78.6162 L -54.2881,77.752 L -54.4668,76.9658 L -54.6504,76.2568
 L -54.8467,75.5811 L -54.8682,75.4131 L -54.8438,75.3105 L -52.9062,74.1143 L -52.8027,74.1377 L -52.6621,74.2324
 L -52.1465,74.7109 L -51.5947,75.1924 L -50.9717,75.7041 L -50.2754,76.2432 L -49.5029,76.8057 L -48.6221,77.4062
 L -47.7227,76.8516 L -46.875,76.2188 L -47.1104,75.1787 L -47.3496,74.2539 L -47.5957,73.4072 L -47.8428,72.6396
 L -48.0879,71.9502 L -48.3438,71.2949 L -48.3799,71.1289 L -48.3643,71.0244 L -46.54,69.6621 L -46.4355,69.6758
 L -46.2871,69.7588 L -45.7305,70.1895 L -45.1387,70.6201 L -44.4727,71.0752 L -43.7314,71.5508 L -42.9121,72.042
 L -42.0137,72.5459 L -41.9814,72.5625 L -41.1348,71.9297 L -40.3467,71.2246 L -40.6738,70.21 L -40.9932,69.3096
 L -41.3125,68.4893 L -41.627,67.7461 L -41.9326,67.0811 L -42.2441,66.4502 L -42.2959,66.2881 L -42.2891,66.1836
 L -40.5928,64.6641 L -40.4873,64.6689 L -40.332,64.7383 L -39.7393,65.1182 L -39.1123,65.4951 L -38.4082,65.8896
 L -37.6279,66.2979 L -36.7686,66.7148 L -35.7959,67.1514 L -35.0078,66.4463 L -34.2852,65.6738 L -34.7002,64.6924
 L -35.0986,63.8232 L -35.4893,63.0342 L -35.8682,62.3223 L -36.2314,61.6865 L -36.5977,61.0859 L -36.6631,60.9287
 L -36.666,60.8232 L -35.1094,59.1611 L -35.0039,59.1562 L -34.8438,59.2119 L -34.2197,59.5371 L -33.5615,59.8574
 L -32.8262,60.1885 L -32.0127,60.5254 L -31.1201,60.8652 L -30.1465,61.2031 L -30.1123,61.2139 L -29.3896,60.4424
 L -28.7383,59.6094 L -29.2383,58.668 L -29.7119,57.8379 L -30.1709,57.0859 L -30.6113,56.4102 L -31.0283,55.8086
 L -31.4473,55.2432 L -31.5264,55.0928 L -31.5381,54.9883 L -30.1348,53.1943 L -30.0303,53.1807 L -29.8652,53.2217
 L -29.2158,53.4912 L -28.5312,53.751 L -27.7695,54.0156 L -26.9297,54.2803 L -26.0098,54.5391 L -24.9756,54.7979
 L -24.3242,53.9648 L -23.749,53.0781 L -23.7676,53.0469 L -24.3301,52.1846 L -24.875,51.3994 L -25.3984,50.6914
 L -25.8975,50.0566 L -26.3662,49.4951 L -26.833,48.9688 L -26.9248,48.8262 L -26.9463,48.7227 L -25.707,46.8115
 L -25.6045,46.7891 L -25.4365,46.8145 L -24.7646,47.0254 L -24.0605,47.2246 L -23.2783,47.4209 L -22.418,47.6094
 L -21.4795,47.7871 L -20.4258,47.9531 L -19.8506,47.0654 L -19.3564,46.1309 L -19.3779,46.1016 L -20.0146,45.292
 L -20.627,44.5586 L -21.2109,43.8994 L -21.7627,43.3115 L -22.2803,42.7939 L -22.791,42.3105 L -22.8955,42.1758
 L -22.9258,42.0752 L -21.8604,40.0625 L -21.7598,40.0303 L -21.5908,40.041 L -20.9033,40.1924 L -20.1836,40.3281
 L -19.3877,40.4541 L -18.5137,40.5664 L -17.5635,40.6602 L -16.499,40.7324 L -16.0049,39.7979 L -15.5947,38.8232
 L -16.3242,38.0459 L -16.999,37.3691 L -17.6387,36.7646 L -18.2412,36.2275 L -18.8018,35.7568 L -19.3535,35.3213
 L -19.4697,35.1963 L -19.5088,35.0986 L -18.626,33 L -18.5283,32.959 L -18.3584,32.9551 L -17.6611,33.0439
 L -16.9326,33.1162 L -16.1279,33.1719 L -15.2471,33.2061 L -14.292,33.2148 L -13.2627,33.1953 L -13.2266,33.1934
 L -12.8164,32.2188 L -12.4941,31.2119 L -12.5205,31.1865 L -13.2891,30.502 L -14.0215,29.8877 L -14.7119,29.3408
 L -15.3594,28.8604 L -15.96,28.4414 L -16.5479,28.0557 L -16.6738,27.9414 L -16.7217,27.8477 L -16.0273,25.6787
 L -15.9346,25.6299 L -15.7656,25.6104 L -15.0625,25.6377 L -14.3301,25.6445 L -13.5244,25.6289 L -12.6445,25.5859
 L -11.6924,25.5107 L -10.6318,25.3945 L -10.3096,24.3867 L -10.0781,23.3555 L -10.1064,23.333 L -10.9326,22.7188
 L -11.7158,22.1719 L -12.4531,21.6885 L -13.1396,21.2666 L -13.7744,20.9023 L -14.3945,20.5703 L -14.5303,20.4678
 L -14.5859,20.3779 L -14.0869,18.1562 L -13.998,18.0996 L -13.832,18.0654 L -13.1289,18.0312 L -12.3994,17.9736
 L -11.5977,17.8857 L -10.7246,17.7646 L -9.7832,17.6055 L -8.7373,17.3965 L -8.50586,16.3652 L -8.36523,15.3174
 L -8.39648,15.2969 L -9.27344,14.7578 L -10.1016,14.2822 L -10.8789,13.8662 L -11.6006,13.5068 L -12.2646,13.2002
 L -12.9121,12.9238 L -13.0566,12.834 L -13.1191,12.75 L -12.8184,10.4922 L -12.7354,10.4277 L -12.5723,10.3789
 L -11.875,10.2822 L -11.1533,10.1611 L -10.3623,10.0029 L -9.50391,9.80566 L -8.58008,9.56348 L -7.55762,9.2627
 L -7.41699,8.21484 L -7.37012,7.1582 L -8.32422,6.68164 L -9.19141,6.28125 L -10.002,5.93555 L -10.7529,5.6416
 L -11.4414,5.39355 L -12.1104,5.17578 L -12.2617,5.09961 L -12.333,5.02148 L -12.2324,2.74609 L -12.1543,2.6748
 L -11.9971,2.61133 L -11.3115,2.4541 L -10.6035,2.26855 L -9.8291,2.04199 L -8.99219,1.76855 L -8.09277,1.44629
 L -7.10059,1.05664 L -7.05371,-0 L -7.10059,-1.05664 L -8.09277,-1.44629 L -8.99219,-1.76855 L -9.8291,-2.04199
 L -10.6035,-2.26855 L -11.3115,-2.4541 L -11.9971,-2.61133 L -12.1543,-2.6748 L -12.2324,-2.74609 L -12.333,-5.02148
 L -12.2617,-5.09961 L -12.1104,-5.17578 L -11.4414,-5.39355 L -10.7529,-5.6416 L -10.002,-5.93555 L -9.19141,-6.28125
 L -8.32422,-6.68164 L -7.37012,-7.1582 L -7.41699,-8.21484 L -7.55762,-9.2627 L -8.58008,-9.56348 L -9.50391,-9.80566
 L -10.3623,-10.0029 L -11.1533,-10.1611 L -11.875,-10.2822 L -12.5723,-10.3789 L -12.7354,-10.4277 L -12.8184,-10.4922
 L -13.1191,-12.75 L -13.0566,-12.834 L -12.9121,-12.9238 L -12.2646,-13.2002 L -11.6006,-13.5068 L -10.8789,-13.8662
 L -10.1016,-14.2822 L -9.27344,-14.7578 L -8.39648,-15.2969 L -8.36523,-15.3174 L -8.50586,-16.3652 L -8.7373,-17.3965
 L -9.7832,-17.6055 L -10.7246,-17.7646 L -11.5977,-17.8857 L -12.3994,-17.9736 L -13.1289,-18.0312 L -13.832,-18.0654
 L -13.998,-18.0996 L -14.0869,-18.1562 L -14.5859,-20.3779 L -14.5303,-20.4678 L -14.3945,-20.5703 L -13.7744,-20.9023
 L -13.1396,-21.2666 L -12.4531,-21.6885 L -11.7158,-22.1719 L -10.9326,-22.7188 L -10.1064,-23.333 L -10.0781,-23.3555
 L -10.3096,-24.3867 L -10.6318,-25.3945 L -11.6924,-25.5107 L -12.6445,-25.5859 L -13.5244,-25.6289 L -14.3301,-25.6445
 L -15.0625,-25.6377 L -15.7656,-25.6104 L -15.9346,-25.6299 L -16.0273,-25.6787 L -16.7217,-27.8477 L -16.6738,-27.9414
 L -16.5479,-28.0557 L -15.96,-28.4414 L -15.3594,-28.8604 L -14.7119,-29.3408 L -14.0215,-29.8877 L -13.2891,-30.502
 L -12.5205,-31.1865 L -12.4941,-31.2119 L -12.8164,-32.2188 L -13.2266,-33.1934 L -13.2627,-33.1953 L -14.292,-33.2148
 L -15.2471,-33.2061 L -16.1279,-33.1719 L -16.9326,-33.1162 L -17.6611,-33.0439 L -18.3584,-32.9551 L -18.5283,-32.959
 L -18.626,-33 L -19.5088,-35.0986 L -19.4697,-35.1963 L -19.3535,-35.3213 L -18.8018,-35.7568 L -18.2412,-36.2275
 L -17.6387,-36.7646 L -16.999,-37.3691 L -16.3242,-38.0459 L -15.5947,-38.8232 L -16.0049,-39.7979 L -16.499,-40.7324
 L -17.5635,-40.6602 L -18.5137,-40.5664 L -19.3877,-40.4541 L -20.1836,-40.3281 L -20.9033,-40.1924 L -21.5908,-40.041
 L -21.7598,-40.0303 L -21.8604,-40.0625 L -22.9258,-42.0752 L -22.8955,-42.1758 L -22.791,-42.3105 L -22.2803,-42.7939
 L -21.7627,-43.3115 L -21.2109,-43.8994 L -20.627,-44.5586 L -20.0146,-45.292 L -19.3779,-46.1016 L -19.3564,-46.1309
 L -19.8506,-47.0654 L -20.4258,-47.9531 L -21.4795,-47.7871 L -22.418,-47.6094 L -23.2783,-47.4209 L -24.0605,-47.2246
 L -24.7646,-47.0254 L -25.4365,-46.8145 L -25.6045,-46.7891 L -25.707,-46.8115 L -26.9463,-48.7227 L -26.9248,-48.8262
 L -26.833,-48.9688 L -26.3662,-49.4951 L -25.8975,-50.0566 L -25.3984,-50.6914 L -24.875,-51.3994 L -24.3301,-52.1846
 L -23.7676,-53.0469 L -23.749,-53.0781 L -24.3242,-53.9648 L -24.9756,-54.7979 L -26.0098,-54.5391 L -26.9297,-54.2803
 L -27.7695,-54.0156 L -28.5312,-53.751 L -29.2158,-53.4912 L -29.8652,-53.2217 L -30.0303,-53.1807 L -30.1348,-53.1943
 L -31.5381,-54.9883 L -31.5264,-55.0928 L -31.4473,-55.2432 L -31.0283,-55.8086 L -30.6113,-56.4102 L -30.1709,-57.0859
 L -29.7119,-57.8379 L -29.2383,-58.668 L -28.7383,-59.6094 L -29.3896,-60.4424 L -30.1123,-61.2139 L -30.1465,-61.2031
 L -31.1201,-60.8652 L -32.0127,-60.5254 L -32.8262,-60.1885 L -33.5615,-59.8574 L -34.2197,-59.5371 L -34.8438,-59.2119
 L -35.0039,-59.1562 L -35.1094,-59.1611 L -36.666,-60.8232 L -36.6631,-60.9287 L -36.5977,-61.0859 L -36.2314,-61.6865
 L -35.8682,-62.3223 L -35.4893,-63.0342 L -35.0986,-63.8232 L -34.7002,-64.6924 L -34.2852,-65.6738 L -35.0078,-66.4463
 L -35.7959,-67.1514 L -36.7686,-66.7148 L -37.6279,-66.2979 L -38.4082,-65.8896 L -39.1123,-65.4951 L -39.7393,-65.1182
 L -40.332,-64.7383 L -40.4873,-64.6689 L -40.5928,-64.6641 L -42.2891,-66.1836 L -42.2959,-66.2881 L -42.2441,-66.4502
 L -41.9326,-67.0811 L -41.627,-67.7461 L -41.3125,-68.4893 L -40.9932,-69.3096 L -40.6738,-70.21 L -40.3467,-71.2246
 L -41.1348,-71.9297 L -41.9814,-72.5625 L -42.0137,-72.5459 L -42.9121,-72.042 L -43.7314,-71.5508 L -44.4727,-71.0752
 L -45.1387,-70.6201 L -45.7305,-70.1895 L -46.2871,-69.7588 L -46.4355,-69.6758 L -46.54,-69.6621 L -48.3643,-71.0244
 L -48.3799,-71.1289 L -48.3438,-71.2949 L -48.0879,-71.9502 L -47.8428,-72.6396 L -47.5957,-73.4072 L -47.3496,-74.2539
 L -47.1104,-75.1787 L -46.875,-76.2188 L -47.7227,-76.8516 L -48.6221,-77.4062 L -49.5029,-76.8057 L -50.2754,-76.2432
 L -50.9717,-75.7041 L -51.5947,-75.1924 L -52.1465,-74.7109 L -52.6621,-74.2324 L -52.8027,-74.1377 L -52.9062,-74.1143
 L -54.8438,-75.3105 L -54.8682,-75.4131 L -54.8467,-75.5811 L -54.6504,-76.2568 L -54.4668,-76.9658 L -54.2881,-77.752
 L -54.1182,-78.6162 L -53.9619,-79.5586 L -53.8193,-80.6152 L -54.7188,-81.1709 L -55.6641,-81.6445 L -55.6934,-81.6221
 L -56.4883,-80.9678 L -57.208,-80.3398 L -57.8545,-79.7412 L -58.4297,-79.1758 L -58.9365,-78.6475 L -59.4082,-78.126
 L -59.54,-78.0186 L -59.6406,-77.9863 L -61.6758,-79.0068 L -61.71,-79.1064 L -61.7031,-79.2764 L -61.5674,-79.9668
 L -61.4473,-80.6885 L -61.3389,-81.4873 L -61.2461,-82.3633 L -61.1738,-83.3164 L -61.125,-84.3809 L -62.0703,-84.8555
 L -63.0537,-85.2432 L -63.0801,-85.2188 L -63.8145,-84.4971 L -64.4756,-83.8076 L -65.0664,-83.1543 L -65.5898,-82.54
 L -66.0479,-81.9688 L -66.4717,-81.4072 L -66.5938,-81.2891 L -66.6904,-81.248 L -68.8086,-82.084 L -68.8516,-82.1807
 L -68.8594,-82.3506 L -68.7852,-83.0498 L -68.7295,-83.7803 L -68.6924,-84.5859 L -68.6768,-85.4668 L -68.6885,-86.4219
 L -68.7344,-87.4873 L -69.7178,-87.875 L -70.7314,-88.1748 L -70.7559,-88.1484 L -71.4238,-87.3643 L -72.0215,-86.6191
 L -72.5527,-85.916 L -73.0195,-85.2588 L -73.4248,-84.6494 L -73.7979,-84.0527 L -73.9082,-83.9238 L -74.002,-83.874
 L -76.1855,-84.5195 L -76.2363,-84.6123 L -76.2598,-84.7803 L -76.2471,-85.4844 L -76.2568,-86.2158 L -76.29,-87.0215
 L -76.3535,-87.9004 L -76.4492,-88.8506 L -76.583,-89.8721 L -76.5889,-89.9082 L -77.6025,-90.208 L -78.6396,-90.417
 L -79.2568,-89.5479 L -79.7871,-88.7529 L -80.2529,-88.0059 L -80.6602,-87.3096 L -81.0107,-86.667 L -81.3291,-86.0391
 L -81.4277,-85.9014 L -81.5166,-85.8438 L -83.748,-86.2939 L -83.8076,-86.3818 L -83.8447,-86.5469 L -83.8955,-87.249
 L -83.9688,-87.9766 L -84.0742,-88.7764 L -84.2139,-89.6465 L -84.3945,-90.585 L -84.627,-91.625 L -85.6631,-91.834
 L -86.7139,-91.9512 L -86.7334,-91.9199 L -87.2529,-91.0303 L -87.71,-90.1924 L -88.1084,-89.4062 L -88.4521,-88.6768
 L -88.7441,-88.0059 L -89.0059,-87.3525 L -89.0928,-87.2061 L -89.1758,-87.1416 L -91.4385,-87.3926 L -91.5049,-87.4746
 L -91.5576,-87.6357 L -91.6699,-88.3311 L -91.8076,-89.0498 L -91.9824,-89.8369 L -92.1992,-90.6904 L -92.4609,-91.6094
 L -92.7725,-92.5908 L -92.7852,-92.625 L -93.8359,-92.7422 L -94.8926,-92.7656 L -95.3477,-91.8008 L -95.7295,-90.9248
 L -96.0566,-90.1074 L -96.335,-89.3506 L -96.5664,-88.6562 L -96.7695,-87.9824 L -96.8428,-87.8291 L -96.9189,-87.7568
 L -99.1963,-87.8076 L -99.2695,-87.8828 L -99.3359,-88.0391 L -99.5088,-88.7207 L -99.71,-89.4248 L -99.9531,-90.1934
 L -100.245,-91.0254 L -100.587,-91.917 L -100.999,-92.9004 L -102.057,-92.9238 L -103.111,-92.8535 L -103.125,-92.8203
 L -103.479,-91.8535 L -103.782,-90.9473 L -104.036,-90.1035 L -104.246,-89.3252 L -104.415,-88.6123 L -104.558,-87.9238
 L -104.617,-87.7646 L -104.688,-87.6855 L -106.959,-87.5352 L -107.039,-87.6035 L -107.119,-87.7529 L -107.352,-88.417
 L -107.614,-89.1006 L -107.925,-89.8447 L -108.289,-90.6475 L -108.708,-91.5059 L -109.188,-92.417 L -109.206,-92.4482
 L -110.261,-92.3779 L -111.306,-92.2148 L -111.584,-91.1865 L -111.805,-90.2568 L -111.983,-89.3945 L -112.124,-88.5996
 L -112.229,-87.876 L -112.311,-87.1768 L -112.355,-87.0127 L -112.419,-86.9287 L -114.669,-86.5771 L -114.754,-86.6387
 L -114.847,-86.7812 L -115.138,-87.4219 L -115.459,-88.0791 L -115.835,-88.793 L -116.268,-89.5596 L -116.762,-90.3779
 L -117.341,-91.2734 L -118.385,-91.1104 L -119.411,-90.8555 L -119.598,-89.8057 L -119.735,-88.8604 L -119.837,-87.9854
 L -119.906,-87.1816 L -119.948,-86.4512 L -119.968,-85.748 L -119.997,-85.5811 L -120.053,-85.4902 L -122.263,-84.9414
 L -122.354,-84.9951 L -122.459,-85.1289 L -122.805,-85.7422 L -123.183,-86.3682 L -123.62,-87.0459 L -124.119,-87.7715
 L -124.684,-88.543 L -125.339,-89.3838 L -126.365,-89.1289 L -127.365,-88.7842 L -127.458,-87.7217 L -127.512,-86.7686
 L -127.536,-85.8877 L -127.534,-85.0811 L -127.511,-84.3496 L -127.468,-83.6475 L -127.483,-83.4785 L -127.53,-83.3838
 L -129.683,-82.6416 L -129.778,-82.6875 L -129.895,-82.8105 L -130.293,-83.3906 L -130.726,-83.9814 L -131.221,-84.6182
 L -131.782,-85.2969 L -132.412,-86.0146 L -133.114,-86.7686 L -133.14,-86.7939 L -134.14,-86.4492 L -135.104,-86.0186
 L -135.105,-85.9814 L -135.104,-84.9521 L -135.073,-83.9971 L -135.019,-83.1182 L -134.945,-82.3145 L -134.857,-81.5879
 L -134.753,-80.8926 L -134.753,-80.7227 L -134.792,-80.624 L -136.871,-79.6953 L -136.97,-79.7324 L -137.097,-79.8447
 L -137.545,-80.3867 L -138.027,-80.9375 L -138.577,-81.5273 L -139.196,-82.1543 L -139.888,-82.8135 L -140.681,-83.5254
 L -141.646,-83.0938 L -142.569,-82.5791 L -142.567,-82.543 L -142.474,-81.5176 L -142.359,-80.5684 L -142.228,-79.6982
 L -142.084,-78.9043 L -141.933,-78.1885 L -141.766,-77.5049 L -141.752,-77.335 L -141.781,-77.2344 L -143.77,-76.125
 L -143.872,-76.1523 L -144.008,-76.2539 L -144.502,-76.7539 L -145.032,-77.2598 L -145.632,-77.7988 L -146.304,-78.3682
 L -147.051,-78.9639 L -147.904,-79.6035 L -148.827,-79.0879 L -149.701,-78.4941 L -149.696,-78.458 L -149.512,-77.4443
 L -149.314,-76.5098 L -149.106,-75.6543 L -148.893,-74.876 L -148.679,-74.1758 L -148.452,-73.5098 L -148.423,-73.3428
 L -148.443,-73.2393 L -150.326,-71.958 L -150.431,-71.9775 L -150.575,-72.0664 L -151.111,-72.5205 L -151.684,-72.9775
 L -152.329,-73.4619 L -153.049,-73.9697 L -153.846,-74.4971 L -154.721,-75.04 L -154.752,-75.0576 L -155.626,-74.4639
 L -156.444,-73.7939 L -156.163,-72.7656 L -155.883,-71.8516 L -155.601,-71.0176 L -155.319,-70.2617 L -155.044,-69.584
 L -154.76,-68.9404 L -154.716,-68.7764 L -154.727,-68.6709 L -156.489,-67.2285 L -156.595,-67.2383 L -156.746,-67.3145
 L -157.321,-67.7197 L -157.932,-68.124 L -158.617,-68.5488 L -159.379,-68.9912 L -160.219,-69.4463 L -161.171,-69.9258
 L -161.989,-69.2559 L -162.745,-68.5166 L -162.374,-67.5166 L -162.015,-66.6318 L -161.659,-65.8262 L -161.312,-65.0977
 L -160.978,-64.4463 L -160.639,-63.8301 L -160.58,-63.6709 L -160.582,-63.5654 L -162.21,-61.9736 L -162.315,-61.9736
 L -162.474,-62.0352 L -163.082,-62.3887 L -163.726,-62.7373 L -164.445,-63.1006 L -165.244,-63.4736 L -166.121,-63.8525
 L -167.077,-64.2334 L -167.111,-64.2451 L -167.867,-63.5059 L -168.555,-62.7031 L -168.54,-62.6699 L -168.098,-61.7402
 L -167.661,-60.8906 L -167.235,-60.1191 L -166.826,-59.4248 L -166.436,-58.8057 L -166.042,-58.2217 L -165.97,-58.0684
 L -165.963,-57.9629 L -167.443,-56.2324 L -167.549,-56.2236 L -167.712,-56.2715 L -168.349,-56.5693 L -169.021,-56.8594
 L -169.771,-57.1582 L -170.599,-57.459 L -171.505,-57.7588 L -172.492,-58.0537 L -172.527,-58.0625 L -173.215,-57.2598
 L -173.828,-56.3984 L -173.287,-55.4805 L -172.777,-54.6719 L -172.286,-53.9414 L -171.816,-53.2861 L -171.372,-52.7031
 L -170.93,-52.1572 L -170.844,-52.0107 L -170.827,-51.9062 L -172.149,-50.0518 L -172.254,-50.0332 L -172.42,-50.0664
 L -173.081,-50.3076 L -173.776,-50.5371 L -174.549,-50.7676 L -175.4,-50.9941 L -176.33,-51.2129 L -177.375,-51.4258
 L -177.989,-50.5645 L -178.524,-49.6533 L -177.904,-48.7861 L -177.325,-48.0264 L -176.771,-47.3418 L -176.244,-46.7305
 L -175.751,-46.1895 L -175.262,-45.6836 L -175.163,-45.5459 L -175.138,-45.4434 L -176.291,-43.4795 L -176.393,-43.4521
 L -176.562,-43.4707 L -177.241,-43.6514 L -177.954,-43.8193 L -178.744,-43.9805 L -179.612,-44.1309 L -180.558,-44.2666
 L -181.581,-44.3828 L -181.617,-44.3857 L -182.152,-43.4746 L -182.605,-42.5186 L -181.911,-41.71 L -181.267,-41.0039
 L -180.654,-40.3711 L -180.076,-39.8086 L -179.537,-39.3135 L -179.005,-38.8535 L -178.895,-38.7246 L -178.86,-38.625
 L -179.835,-36.5664 L -179.935,-36.5303 L -180.104,-36.5342 L -180.797,-36.6543 L -181.521,-36.7578 L -182.323,-36.8486
 L -183.201,-36.9229 L -184.154,-36.9736 L -185.221,-36.999 L -185.673,-36.0439 L -186.04,-35.0518 L -186.015,-35.0254
 L -185.276,-34.3076 L -184.572,-33.6611 L -183.906,-33.085 L -183.281,-32.5762 L -182.7,-32.1309 L -182.13,-31.7188
 L -182.009,-31.6006 L -181.965,-31.5039 L -182.754,-29.3682 L -182.85,-29.3232 L -183.02,-29.3115 L -183.721,-29.3701
 L -184.451,-29.4092 L -185.258,-29.4287 L -186.139,-29.4248 L -187.093,-29.3916 L -188.157,-29.3223 L -188.523,-28.3311
 L -188.801,-27.3105 L -187.975,-26.6367 L -187.217,-26.0547 L -186.502,-25.54 L -185.834,-25.0879 L -185.216,-24.6953
 L -184.611,-24.3359 L -184.48,-24.2285 L -184.429,-24.1367 L -185.026,-21.9395 L -185.117,-21.8857 L -185.285,-21.8594
 L -185.988,-21.8555 L -186.72,-21.8301 L -187.524,-21.7793 L -188.402,-21.6963 L -189.35,-21.5791 L -190.368,-21.4229
 L -190.403,-21.416 L -190.681,-20.3965 L -190.867,-19.3555 L -190.838,-19.334 L -189.984,-18.7568 L -189.179,-18.2451
 L -188.421,-17.7949 L -187.716,-17.4033 L -187.065,-17.0674 L -186.431,-16.7627 L -186.291,-16.667 L -186.231,-16.5801
 L -186.632,-14.3389 L -186.719,-14.2773 L -186.883,-14.2363 L -187.584,-14.1709 L -188.311,-14.0811 L -189.107,-13.958
 L -189.974,-13.7988 L -190.907,-13.5977 L -191.907,-13.3525 L -191.942,-13.3428 L -192.129,-12.3018 L -192.223,-11.249
 L -192.191,-11.2305 L -191.29,-10.7305 L -190.441,-10.292 L -189.647,-9.91113 L -188.91,-9.58301 L -188.233,-9.30566
 L -187.574,-9.05859 L -187.427,-8.97559 L -187.359,-8.89453 L -187.561,-6.62598 L -187.641,-6.55762 L -187.802,-6.50195
 L -188.493,-6.37402 L -189.209,-6.2207 L -189.992,-6.02832 L -190.841,-5.79297 L -191.754,-5.51074 L -192.762,-5.16406
 L -192.855,-4.11133 L -192.855,-3.05371 L -191.882,-2.62012 L -190.997,-2.25879 L -190.173,-1.94922 L -189.409,-1.6875
 L -188.71,-1.47168 L -188.032,-1.2832 L -187.878,-1.21387 L -187.804,-1.13867 L -187.804,1.13867 L -187.878,1.21387
 L -188.032,1.2832 L -188.71,1.47168 L -189.409,1.6875 L -190.173,1.94922 L -190.997,2.25879 L -191.882,2.62012
 L -192.855,3.05371 L -192.855,4.11133 L -192.762,5.16406 L -191.754,5.51074 L -190.841,5.79297 L -189.992,6.02832
 L -189.209,6.2207 L -188.493,6.37402 L -187.802,6.50195 L -187.641,6.55762 L -187.561,6.62598 L -187.359,8.89453
 L -187.427,8.97559 L -187.574,9.05859 L -188.233,9.30566 L -188.91,9.58301 L -189.647,9.91113 L -190.441,10.292
 L -191.29,10.7305 L -192.191,11.2305 L -192.223,11.249 L -192.129,12.3018 L -191.942,13.3428 L -191.907,13.3525
 L -190.907,13.5977 L -189.974,13.7988 L -189.107,13.958 L -188.311,14.0811 L -187.584,14.1709 L -186.883,14.2363
 L -186.719,14.2773 L -186.632,14.3389 L -186.231,16.5801 L -186.291,16.667 L -186.431,16.7627 L -187.065,17.0674
 L -187.716,17.4033 L -188.421,17.7949 L -189.179,18.2451 L -189.984,18.7568 L -190.838,19.334 L -190.867,19.3555
 L -190.681,20.3965 L -190.403,21.416 L -190.368,21.4229 L -189.35,21.5791 L -188.402,21.6963 L -187.524,21.7793
 L -186.72,21.8301 L -185.988,21.8555 L -185.285,21.8594 L -185.117,21.8857 L -185.026,21.9395 L -184.429,24.1367
 L -184.48,24.2285 L -184.611,24.3359 L -185.216,24.6953 L -185.834,25.0879 L -186.502,25.54 L -187.217,26.0547
 L -187.975,26.6367 L -188.801,27.3105 L -188.523,28.3311 L -188.157,29.3223 L -187.093,29.3916 L -186.139,29.4248
 L -185.258,29.4287 L -184.451,29.4092 L -183.721,29.3701 L -183.02,29.3115 L -182.85,29.3232 L -182.754,29.3682
 L -181.965,31.5039 L -182.009,31.6006 L -182.13,31.7188 L -182.7,32.1309 L -183.281,32.5762 L -183.906,33.085
 L -184.572,33.6611 L -185.276,34.3076 L -186.015,35.0254 L -186.04,35.0518 L -185.673,36.0439 L -185.221,36.999
 L -184.154,36.9736 L -183.201,36.9229 L -182.323,36.8486 L -181.521,36.7578 L -180.797,36.6543 L -180.104,36.5342
 L -179.935,36.5303 L -179.835,36.5664 L -178.86,38.625 L -178.895,38.7246 L -179.005,38.8535 L -179.537,39.3135
 L -180.076,39.8086 L -180.654,40.3711 L -181.267,41.0039 L -181.911,41.71 L -182.605,42.5186 L -182.152,43.4746
 L -181.617,44.3857 L -181.581,44.3828 L -180.558,44.2666 L -179.612,44.1309 L -178.744,43.9805 L -177.954,43.8193
 L -177.241,43.6514 L -176.562,43.4707 L -176.393,43.4521 L -176.291,43.4795 L -175.138,45.4434 L -175.163,45.5459
 L -175.262,45.6836 L -175.751,46.1895 L -176.244,46.7305 L -176.771,47.3418 L -177.325,48.0264 L -177.904,48.7861
 L -178.524,49.6533 L -177.989,50.5645 L -177.375,51.4258 L -176.33,51.2129 L -175.4,50.9941 L -174.549,50.7676
 L -173.776,50.5371 L -173.081,50.3076 L -172.42,50.0664 L -172.254,50.0332 L -172.149,50.0518 L -170.827,51.9062
 L -170.844,52.0107 L -170.93,52.1572 L -171.372,52.7031 L -171.816,53.2861 L -172.286,53.9414 L -172.777,54.6719
 L -173.287,55.4805 L -173.828,56.3984 L -173.215,57.2598 L -172.527,58.0625 L -172.492,58.0537 L -171.505,57.7588
 L -170.599,57.459 L -169.771,57.1582 L -169.021,56.8594 L -168.349,56.5693 L -167.712,56.2715 L -167.549,56.2236
 L -167.443,56.2324 L -165.963,57.9629 L -165.97,58.0684 L -166.042,58.2217 L -166.436,58.8057 L -166.826,59.4248
 L -167.235,60.1191 L -167.661,60.8906 L -168.098,61.7402 L -168.54,62.6699 L -168.555,62.7031 L -167.867,63.5059
 L -167.111,64.2451 L -167.077,64.2334 L -166.121,63.8525 L -165.244,63.4736 L -164.445,63.1006 L -163.726,62.7373
 L -163.082,62.3887 L -162.474,62.0352 L -162.315,61.9736 L -162.21,61.9736 L -160.582,63.5654 L -160.58,63.6709
 L -160.639,63.8301 L -160.978,64.4463 L -161.312,65.0977 L -161.659,65.8262 L -162.015,66.6318 L -162.374,67.5166
 L -162.745,68.5166 L -161.989,69.2559 L -161.171,69.9258 L -160.219,69.4463 L -159.379,68.9912 L -158.617,68.5488
 L -157.932,68.124 L -157.321,67.7197 L -156.746,67.3145 L -156.595,67.2383 L -156.489,67.2285 L -154.727,68.6709
 L -154.716,68.7764 L -154.76,68.9404 L -155.044,69.584 L -155.319,70.2617 L -155.601,71.0176 L -155.883,71.8516
 L -156.163,72.7656 L -156.444,73.7939 L -155.626,74.4639 L -154.752,75.0576 L -154.721,75.04 L -153.846,74.4971
 L -153.049,73.9697 L -152.329,73.4619 L -151.684,72.9775 L -151.111,72.5205 L -150.575,72.0664 L -150.431,71.9775
 L -150.326,71.958 L -148.443,73.2393 L -148.423,73.3428 L -148.452,73.5098 L -148.679,74.1758 L -148.893,74.876
 L -149.106,75.6543 L -149.314,76.5098 L -149.512,77.4443 L -149.696,78.458 L -149.701,78.4941 L -148.827,79.0879
 L -147.904,79.6035 L -147.051,78.9639 L -146.304,78.3682 L -145.632,77.7988 L -145.032,77.2598 L -144.502,76.7539
 L -144.008,76.2539 L -143.872,76.1523 L -143.77,76.125 L -141.781,77.2344 L -141.752,77.335 L -141.766,77.5049
 L -141.933,78.1885 L -142.084,78.9043 L -142.228,79.6982 L -142.359,80.5684 L -142.474,81.5176 L -142.567,82.543
 L -142.569,82.5791 L -141.646,83.0938 L -140.681,83.5254 L -139.888,82.8135 L -139.196,82.1543 L -138.577,81.5273
 L -138.027,80.9375 L -137.545,80.3867 L -137.097,79.8447 L -136.97,79.7324 L -136.871,79.6953 L -134.792,80.624
 L -134.753,80.7227 L -134.753,80.8926 L -134.857,81.5879 L -134.945,82.3145 L -135.019,83.1182 L -135.073,83.9971
 L -135.104,84.9521 L -135.105,85.9814 L -135.104,86.0186 L -134.14,86.4492 L -133.14,86.7939 L -133.114,86.7686
 L -132.412,86.0146 L -131.782,85.2969 L -131.221,84.6182 L -130.726,83.9814 L -130.293,83.3906 L -129.895,82.8105
 L -129.778,82.6875 L -129.683,82.6416 L -127.53,83.3838 L -127.483,83.4785 L -127.468,83.6475 L -127.511,84.3496
 L -127.534,85.0811 L -127.536,85.8877 L -127.512,86.7686 L -127.458,87.7217 L -127.365,88.7842 L -126.365,89.1289
 L -125.339,89.3838 L -124.684,88.543 L -124.119,87.7715 L -123.62,87.0459 L -123.183,86.3682 L -122.805,85.7422
 L -122.459,85.1289 L -122.354,84.9951 L -122.263,84.9414 L -120.053,85.4902 L -119.997,85.5811 L -119.968,85.748
 L -119.948,86.4512 L -119.906,87.1816 L -119.837,87.9854 L -119.735,88.8604 L -119.598,89.8057 L -119.411,90.8555
 L -118.385,91.1104 L -117.341,91.2734 L -116.762,90.3779 L -116.268,89.5596 L -115.835,88.793 L -115.459,88.0791
 L -115.138,87.4219 L -114.847,86.7812 L -114.754,86.6387 L -114.669,86.5771 L -112.419,86.9287 L -112.355,87.0127
 L -112.311,87.1768 L -112.229,87.876 L -112.124,88.5996 L -111.983,89.3945 L -111.805,90.2568 L -111.584,91.1865
 L -111.306,92.2148 L -110.261,92.3779 L -109.206,92.4482 L -109.188,92.417 L -108.708,91.5059 L -108.289,90.6475
 L -107.925,89.8447 L -107.614,89.1006 L -107.352,88.417 L -107.119,87.7529 L -107.039,87.6035 L -106.959,87.5352
 L -104.688,87.6855 L -104.617,87.7646 L -104.558,87.9238 L -104.415,88.6123 L -104.246,89.3252 L -104.036,90.1035
 L -103.782,90.9473 L -103.479,91.8535 L -103.125,92.8203 L -103.111,92.8535 L -102.057,92.9238 z
M -100.416,1.95605 L -100.813,1.82715 L -101.176,1.61816 L -101.486,1.33789 L -101.732,1 L -101.902,0.618164
 L -101.989,0.208984 L -101.989,-0.208984 L -101.902,-0.618164 L -101.732,-1 L -101.486,-1.33789 L -101.176,-1.61816
 L -100.813,-1.82715 L -100.416,-1.95605 L -100,-2 L -99.584,-1.95605 L -99.1865,-1.82715 L -98.8242,-1.61816
 L -98.5137,-1.33789 L -98.2676,-1 L -98.0977,-0.618164 L -98.0107,-0.208984 L -98.0107,0.208984 L -98.0977,0.618164
 L -98.2676,1 L -98.5137,1.33789 L -98.8242,1.61816 L -99.1865,1.82715 L -99.584,1.95605 L -100,2
 z
M 58.9541,62.3193 L 59.3721,61.4072 L 59.749,60.4785 L 60.0469,59.6387 L 60.2734,58.8955 L 60.4395,58.251
 L 60.5742,57.6074 L 60.666,57.3682 L 60.7754,57.252 L 63.0508,57.1758 L 63.167,57.2842 L 63.2744,57.5176
 L 63.4521,58.1504 L 63.6611,58.7822 L 63.9365,59.5088 L 64.29,60.3262 L 64.7275,61.2285 L 65.2061,62.1104
 L 66.2451,62.0752 L 67.2705,61.9023 L 67.5625,60.9424 L 67.8125,59.9717 L 67.9951,59.1006 L 68.1211,58.333
 L 68.1992,57.6729 L 68.2471,57.0166 L 68.3066,56.7676 L 68.3994,56.6377 L 70.6445,56.2588 L 70.7744,56.3516
 L 70.9121,56.5674 L 71.1729,57.1709 L 71.4629,57.7695 L 71.834,58.4531 L 72.292,59.2158 L 72.8467,60.0518
 L 73.4375,60.8623 L 74.4629,60.6895 L 75.4561,60.3809 L 75.6182,59.3906 L 75.7363,58.3955 L 75.8018,57.5078
 L 75.8232,56.7305 L 75.8135,56.0654 L 75.7734,55.4092 L 75.7988,55.1543 L 75.873,55.0127 L 78.0479,54.3379
 L 78.1895,54.4121 L 78.3545,54.6084 L 78.6934,55.1719 L 79.0605,55.7266 L 79.5195,56.3545 L 80.0752,57.0498
 L 80.7363,57.8037 L 81.4297,58.5283 L 82.4229,58.2197 L 83.3662,57.7822 L 83.3945,56.7793 L 83.3789,55.7773
 L 83.3252,54.8887 L 83.2441,54.1152 L 83.1445,53.457 L 83.0186,52.8125 L 83.0088,52.5557 L 83.0635,52.4062
 L 85.1299,51.4482 L 85.2793,51.5029 L 85.4688,51.6748 L 85.8799,52.1885 L 86.3184,52.6885 L 86.8564,53.25
 L 87.5,53.8643 L 88.2549,54.5244 L 89.04,55.1494 L 89.9824,54.7119 L 90.8594,54.1523 L 90.7539,53.1543
 L 90.6045,52.1631 L 90.4336,51.29 L 90.249,50.5342 L 90.0635,49.8955 L 89.8516,49.2734 L 89.8086,49.0205
 L 89.8438,48.8643 L 91.7627,47.6396 L 91.918,47.6738 L 92.1299,47.8193 L 92.6045,48.2734 L 93.1064,48.7109
 L 93.7139,49.1953 L 94.4346,49.7188 L 95.2705,50.2715 L 96.1318,50.7871 L 97.0078,50.2275 L 97.8018,49.5557
 L 97.5645,48.5811 L 97.2842,47.6182 L 96.998,46.7754 L 96.7148,46.0518 L 96.4453,45.4434 L 96.1533,44.8545
 L 96.0762,44.6094 L 96.0898,44.4512 L 97.8291,42.9805 L 97.9883,42.9941 L 98.2168,43.1104 L 98.748,43.4961
 L 99.3027,43.8633 L 99.9707,44.2627 L 100.754,44.6855 L 101.656,45.1221 L 102.578,45.5176 L 103.372,44.8467
 L 104.069,44.0752 L 103.705,43.1406 L 103.299,42.2246 L 102.902,41.4268 L 102.525,40.7471 L 102.178,40.1797
 L 101.809,39.6357 L 101.7,39.4033 L 101.692,39.2441 L 103.22,37.5557 L 103.38,37.5469 L 103.621,37.6318
 L 104.2,37.9434 L 104.799,38.2334 L 105.514,38.54 L 106.346,38.8545 L 107.299,39.167 L 108.266,39.4365
 L 108.963,38.665 L 109.551,37.8086 L 109.064,36.9307 L 108.54,36.0762 L 108.041,35.3389 L 107.577,34.7148
 L 107.156,34.2002 L 106.719,33.709 L 106.58,33.4932 L 106.552,33.3369 L 107.84,31.459 L 107.997,31.4307
 L 108.248,31.4814 L 108.863,31.7139 L 109.495,31.9209 L 110.244,32.1299 L 111.111,32.3311 L 112.098,32.5127
 L 113.091,32.6514 L 113.68,31.7939 L 114.148,30.8662 L 113.55,30.0615 L 112.916,29.2842 L 112.323,28.6201
 L 111.779,28.0645 L 111.294,27.6094 L 110.795,27.1816 L 110.629,26.9863 L 110.579,26.835 L 111.606,24.8018
 L 111.758,24.752 L 112.014,24.7695 L 112.654,24.918 L 113.309,25.0391 L 114.078,25.1465 L 114.965,25.2295
 L 115.966,25.2793 L 116.97,25.2842 L 117.438,24.3555 L 117.779,23.374 L 117.078,22.6562 L 116.347,21.9707
 L 115.671,21.3916 L 115.059,20.9121 L 114.517,20.5264 L 113.965,20.1689 L 113.774,19.9971 L 113.705,19.8535
 L 114.452,17.7021 L 114.596,17.6328 L 114.851,17.6162 L 115.506,17.6777 L 116.17,17.7109 L 116.947,17.7139
 L 117.837,17.6787 L 118.836,17.5938 L 119.831,17.4648 L 120.172,16.4824 L 120.379,15.4639 L 119.589,14.8457
 L 118.772,14.2637 L 118.025,13.7803 L 117.354,13.3867 L 116.766,13.0762 L 116.172,12.7959 L 115.96,12.6514
 L 115.872,12.5186 L 116.325,10.2871 L 116.458,10.1992 L 116.71,10.1484 L 117.366,10.1221 L 118.029,10.0654
 L 118.801,9.96582 L 119.678,9.81152 L 120.656,9.59473 L 121.625,9.33398 L 121.832,8.31543 L 121.901,7.27832
 L 121.036,6.77148 L 120.149,6.30273 L 119.345,5.92285 L 118.627,5.62305 L 118.002,5.39355 L 117.376,5.19531
 L 117.146,5.08008 L 117.042,4.95996 L 117.194,2.6875 L 117.313,2.58301 L 117.557,2.49902 L 118.204,2.38574
 L 118.854,2.24121 L 119.604,2.03906 L 120.453,1.77051 L 121.394,1.4248 L 122.319,1.03711 L 122.389,-0
 L 122.319,-1.03711 L 121.394,-1.4248 L 120.453,-1.77051 L 119.604,-2.03906 L 118.854,-2.24121 L 118.204,-2.38574
 L 117.557,-2.49902 L 117.313,-2.58301 L 117.194,-2.6875 L 117.042,-4.95996 L 117.146,-5.08008 L 117.376,-5.19531
 L 118.002,-5.39355 L 118.627,-5.62305 L 119.345,-5.92285 L 120.149,-6.30273 L 121.036,-6.77148 L 121.901,-7.27832
 L 121.832,-8.31543 L 121.625,-9.33398 L 120.656,-9.59473 L 119.678,-9.81152 L 118.801,-9.96582 L 118.029,-10.0654
 L 117.366,-10.1221 L 116.71,-10.1484 L 116.458,-10.1992 L 116.325,-10.2871 L 115.872,-12.5186 L 115.96,-12.6514
 L 116.172,-12.7959 L 116.766,-13.0762 L 117.354,-13.3867 L 118.025,-13.7803 L 118.772,-14.2637 L 119.589,-14.8457
 L 120.379,-15.4639 L 120.172,-16.4824 L 119.831,-17.4648 L 118.836,-17.5938 L 117.837,-17.6787 L 116.947,-17.7139
 L 116.17,-17.7109 L 115.506,-17.6777 L 114.851,-17.6162 L 114.596,-17.6328 L 114.452,-17.7021 L 113.705,-19.8535
 L 113.774,-19.9971 L 113.965,-20.1689 L 114.517,-20.5264 L 115.059,-20.9121 L 115.671,-21.3916 L 116.347,-21.9707
 L 117.078,-22.6562 L 117.779,-23.374 L 117.438,-24.3555 L 116.97,-25.2842 L 115.966,-25.2793 L 114.965,-25.2295
 L 114.078,-25.1465 L 113.309,-25.0391 L 112.654,-24.918 L 112.014,-24.7695 L 111.758,-24.752 L 111.606,-24.8018
 L 110.579,-26.835 L 110.629,-26.9863 L 110.795,-27.1816 L 111.294,-27.6094 L 111.779,-28.0645 L 112.323,-28.6201
 L 112.916,-29.2842 L 113.55,-30.0615 L 114.148,-30.8662 L 113.68,-31.7939 L 113.091,-32.6514 L 112.098,-32.5127
 L 111.111,-32.3311 L 110.244,-32.1299 L 109.495,-31.9209 L 108.863,-31.7139 L 108.248,-31.4814 L 107.997,-31.4307
 L 107.84,-31.459 L 106.552,-33.3369 L 106.58,-33.4932 L 106.719,-33.709 L 107.156,-34.2002 L 107.577,-34.7148
 L 108.041,-35.3389 L 108.54,-36.0762 L 109.064,-36.9307 L 109.551,-37.8086 L 108.963,-38.665 L 108.266,-39.4365
 L 107.299,-39.167 L 106.346,-38.8545 L 105.514,-38.54 L 104.799,-38.2334 L 104.2,-37.9434 L 103.621,-37.6318
 L 103.38,-37.5469 L 103.22,-37.5557 L 101.692,-39.2441 L 101.7,-39.4033 L 101.809,-39.6357 L 102.178,-40.1797
 L 102.525,-40.7471 L 102.902,-41.4268 L 103.299,-42.2246 L 103.705,-43.1406 L 104.069,-44.0752 L 103.372,-44.8467
 L 102.578,-45.5176 L 101.656,-45.1221 L 100.754,-44.6855 L 99.9707,-44.2627 L 99.3027,-43.8633 L 98.748,-43.4961
 L 98.2168,-43.1104 L 97.9883,-42.9941 L 97.8291,-42.9805 L 96.0898,-44.4512 L 96.0762,-44.6094 L 96.1533,-44.8545
 L 96.4453,-45.4434 L 96.7148,-46.0518 L 96.998,-46.7754 L 97.2842,-47.6182 L 97.5645,-48.5811 L 97.8018,-49.5557
 L 97.0078,-50.2275 L 96.1318,-50.7871 L 95.2705,-50.2715 L 94.4346,-49.7188 L 93.7139,-49.1953 L 93.1064,-48.7109
 L 92.6045,-48.2734 L 92.1299,-47.8193 L 91.918,-47.6738 L 91.7627,-47.6396 L 89.8438,-48.8643 L 89.8086,-49.0205
 L 89.8516,-49.2734 L 90.0635,-49.8955 L 90.249,-50.5342 L 90.4336,-51.29 L 90.6045,-52.1631 L 90.7539,-53.1543
 L 90.8594,-54.1523 L 89.9824,-54.7119 L 89.04,-55.1494 L 88.2549,-54.5244 L 87.5,-53.8643 L 86.8564,-53.25
 L 86.3184,-52.6885 L 85.8799,-52.1885 L 85.4688,-51.6748 L 85.2793,-51.5029 L 85.1299,-51.4482 L 83.0635,-52.4062
 L 83.0088,-52.5557 L 83.0186,-52.8125 L 83.1445,-53.457 L 83.2441,-54.1152 L 83.3252,-54.8887 L 83.3789,-55.7773
 L 83.3945,-56.7793 L 83.3662,-57.7822 L 82.4229,-58.2197 L 81.4297,-58.5283 L 80.7363,-57.8037 L 80.0752,-57.0498
 L 79.5195,-56.3545 L 79.0605,-55.7266 L 78.6934,-55.1719 L 78.3545,-54.6084 L 78.1895,-54.4121 L 78.0479,-54.3379
 L 75.873,-55.0127 L 75.7988,-55.1543 L 75.7734,-55.4092 L 75.8135,-56.0654 L 75.8232,-56.7305 L 75.8018,-57.5078
 L 75.7363,-58.3955 L 75.6182,-59.3906 L 75.4561,-60.3809 L 74.4629,-60.6895 L 73.4375,-60.8623 L 72.8467,-60.0518
 L 72.292,-59.2158 L 71.834,-58.4531 L 71.4629,-57.7695 L 71.1729,-57.1709 L 70.9121,-56.5674 L 70.7744,-56.3516
 L 70.6445,-56.2588 L 68.3994,-56.6377 L 68.3066,-56.7676 L 68.2471,-57.0166 L 68.1992,-57.6729 L 68.1211,-58.333
 L 67.9951,-59.1006 L 67.8125,-59.9717 L 67.5625,-60.9424 L 67.2705,-61.9023 L 66.2451,-62.0752 L 65.2061,-62.1104
 L 64.7275,-61.2285 L 64.29,-60.3262 L 63.9365,-59.5088 L 63.6611,-58.7822 L 63.4521,-58.1504 L 63.2744,-57.5176
 L 63.167,-57.2842 L 63.0508,-57.1758 L 60.7754,-57.252 L 60.666,-57.3682 L 60.5742,-57.6074 L 60.4395,-58.251
 L 60.2734,-58.8955 L 60.0469,-59.6387 L 59.749,-60.4785 L 59.3721,-61.4072 L 58.9541,-62.3193 L 57.915,-62.3535
 L 56.8809,-62.25 L 56.5244,-61.3115 L 56.2109,-60.3594 L 55.9697,-59.5029 L 55.793,-58.7451 L 55.6709,-58.0918
 L 55.5791,-57.4404 L 55.5039,-57.1953 L 55.4023,-57.0723 L 53.1367,-56.8447 L 53.0137,-56.9453 L 52.8906,-57.1699
 L 52.6709,-57.79 L 52.4209,-58.4062 L 52.0967,-59.1133 L 51.6904,-59.9053 L 51.1934,-60.7754 L 50.6572,-61.624
 L 49.623,-61.5195 L 48.6113,-61.2783 L 48.3838,-60.3018 L 48.1992,-59.3164 L 48.0752,-58.4346 L 48.001,-57.6602
 L 47.9668,-56.9961 L 47.9629,-56.3389 L 47.9199,-56.0859 L 47.8369,-55.9502 L 45.6221,-55.4229 L 45.4863,-55.5059
 L 45.334,-55.7129 L 45.0342,-56.2969 L 44.7041,-56.875 L 44.2881,-57.5322 L 43.7803,-58.2627 L 43.1709,-59.0596
 L 42.5273,-59.8291 L 41.5156,-59.5879 L 40.5459,-59.2139 L 40.4502,-58.2148 L 40.3984,-57.2139 L 40.3926,-56.3242
 L 40.4229,-55.5469 L 40.4775,-54.8838 L 40.5605,-54.2314 L 40.5527,-53.9756 L 40.4883,-53.8301 L 38.3633,-53.0117
 L 38.2168,-53.0762 L 38.0391,-53.2607 L 37.6641,-53.7998 L 37.2598,-54.3291 L 36.7607,-54.9248 L 36.1592,-55.5811
 L 35.4492,-56.2891 L 34.709,-56.9658 L 33.7383,-56.5918 L 32.8271,-56.0928 L 32.8652,-55.0898 L 32.9473,-54.0908
 L 33.0605,-53.208 L 33.1934,-52.4414 L 33.3359,-51.792 L 33.5059,-51.1572 L 33.5322,-50.9023 L 33.4873,-50.749
 L 31.4902,-49.6543 L 31.3369,-49.6992 L 31.1367,-49.8584 L 30.6924,-50.3428 L 30.2217,-50.8135 L 29.6475,-51.3369
 L 28.9639,-51.9072 L 28.166,-52.5146 L 27.3418,-53.0869 L 26.4297,-52.5869 L 25.5928,-51.9707 L 25.7646,-50.9814
 L 25.9795,-50.0029 L 26.209,-49.1426 L 26.4424,-48.4014 L 26.6709,-47.7764 L 26.9238,-47.1689 L 26.9834,-46.9199
 L 26.96,-46.7627 L 25.126,-45.4111 L 24.9688,-45.4355 L 24.748,-45.5664 L 24.2432,-45.9873 L 23.7139,-46.3906
 L 23.0752,-46.834 L 22.3223,-47.3076 L 21.4502,-47.8037 L 20.5566,-48.2598 L 19.7197,-47.6436 L 18.9727,-46.9209
 L 19.2744,-45.9639 L 19.6182,-45.0215 L 19.96,-44.2002 L 20.291,-43.4961 L 20.6006,-42.9072 L 20.9316,-42.3398
 L 21.0244,-42.1006 L 21.0215,-41.9414 L 19.3848,-40.3584 L 19.2256,-40.3604 L 18.9893,-40.4609 L 18.4326,-40.8115
 L 17.8545,-41.1406 L 17.1621,-41.4941 L 16.3525,-41.8633 L 15.4229,-42.2383 L 14.4766,-42.5723 L 13.7295,-41.8496
 L 13.085,-41.0332 L 13.5117,-40.125 L 13.9775,-39.2383 L 14.4268,-38.4688 L 14.8477,-37.8154 L 15.2334,-37.2734
 L 15.6367,-36.7549 L 15.7607,-36.5303 L 15.7793,-36.3721 L 14.3682,-34.585 L 14.21,-34.5654 L 13.9629,-34.6338
 L 13.3643,-34.9072 L 12.7471,-35.1553 L 12.0137,-35.4141 L 11.1621,-35.6729 L 10.1904,-35.9199 L 9.20801,-36.125
 L 8.56445,-35.3086 L 8.03418,-34.4141 L 8.57812,-33.5713 L 9.1582,-32.7539 L 9.70605,-32.0518 L 10.21,-31.46
 L 10.6641,-30.9736 L 11.1338,-30.5137 L 11.2861,-30.3076 L 11.3262,-30.1533 L 10.165,-28.1934 L 10.0107,-28.1543
 L 9.75684,-28.1885 L 9.12793,-28.3799 L 8.4834,-28.5439 L 7.72168,-28.7021 L 6.84277,-28.8447 L 5.84766,-28.9609
 L 4.84668,-29.0322 L 4.31641,-28.1377 L 3.91113,-27.1807 L 4.5625,-26.418 L 5.24609,-25.6846 L 5.88184,-25.0615
 L 6.46191,-24.543 L 6.97656,-24.1211 L 7.50293,-23.7285 L 7.68164,-23.5439 L 7.74121,-23.3965 L 6.85254,-21.2998
 L 6.7041,-21.2402 L 6.44824,-21.2402 L 5.79883,-21.3457 L 5.13867,-21.4229 L 4.3623,-21.4785 L 3.47266,-21.502
 L 2.4707,-21.4844 L 1.46875,-21.4219 L 1.06348,-20.4648 L 0.789062,-19.4619 L 1.53613,-18.793 L 2.31152,-18.1582
 L 3.02441,-17.625 L 3.66797,-17.1875 L 4.23438,-16.8389 L 4.80859,-16.5195 L 5.00977,-16.3604 L 5.08887,-16.2227
 L 4.4873,-14.0264 L 4.34863,-13.9473 L 4.09473,-13.9131 L 3.4375,-13.9307 L 2.77246,-13.9189 L 1.99609,-13.8711
 L 1.11133,-13.7764 L 0.120117,-13.625 L -0.864258,-13.4297 L -1.13867,-12.4268 L -1.27734,-11.3965 L -0.447266,-10.833
 L 0.40625,-10.3066 L 1.18359,-9.87402 L 1.87988,-9.52637 L 2.4873,-9.25586 L 3.09961,-9.01562 L 3.32031,-8.88574
 L 3.41699,-8.75879 L 3.11328,-6.50195 L 2.98633,-6.40527 L 2.73926,-6.33789 L 2.08594,-6.26758 L 1.42773,-6.16699
 L 0.665039,-6.01562 L -0.199219,-5.80371 L -1.16113,-5.52246 L -2.11133,-5.19727 L -2.24902,-4.16699 L -2.24902,-3.12793
 L -1.35156,-2.67871 L -0.435547,-2.27148 L 0.392578,-1.94629 L 1.12891,-1.69434 L 1.7666,-1.50781 L 2.40527,-1.35059
 L 2.6416,-1.25098 L 2.75391,-1.13867 L 2.75391,1.13867 L 2.6416,1.25098 L 2.40527,1.35059 L 1.7666,1.50781
 L 1.12891,1.69434 L 0.392578,1.94629 L -0.435547,2.27148 L -1.35156,2.67871 L -2.24902,3.12793 L -2.24902,4.16699
 L -2.11133,5.19727 L -1.16113,5.52246 L -0.199219,5.80371 L 0.665039,6.01562 L 1.42773,6.16699 L 2.08594,6.26758
 L 2.73926,6.33789 L 2.98633,6.40527 L 3.11328,6.50195 L 3.41699,8.75879 L 3.32031,8.88574 L 3.09961,9.01562
 L 2.4873,9.25586 L 1.87988,9.52637 L 1.18359,9.87402 L 0.40625,10.3066 L -0.447266,10.833 L -1.27734,11.3965
 L -1.13867,12.4268 L -0.864258,13.4297 L 0.120117,13.625 L 1.11133,13.7764 L 1.99609,13.8711 L 2.77246,13.9189
 L 3.4375,13.9307 L 4.09473,13.9131 L 4.34863,13.9473 L 4.4873,14.0264 L 5.08887,16.2227 L 5.00977,16.3604
 L 4.80859,16.5195 L 4.23438,16.8389 L 3.66797,17.1875 L 3.02441,17.625 L 2.31152,18.1582 L 1.53613,18.793
 L 0.789062,19.4619 L 1.06348,20.4648 L 1.46875,21.4219 L 2.4707,21.4844 L 3.47266,21.502 L 4.3623,21.4785
 L 5.13867,21.4229 L 5.79883,21.3457 L 6.44824,21.2402 L 6.7041,21.2402 L 6.85254,21.2998 L 7.74121,23.3965
 L 7.68164,23.5439 L 7.50293,23.7285 L 6.97656,24.1211 L 6.46191,24.543 L 5.88184,25.0615 L 5.24609,25.6846
 L 4.5625,26.418 L 3.91113,27.1807 L 4.31641,28.1377 L 4.84668,29.0322 L 5.84766,28.9609 L 6.84277,28.8447
 L 7.72168,28.7021 L 8.4834,28.5439 L 9.12793,28.3799 L 9.75684,28.1885 L 10.0107,28.1543 L 10.165,28.1934
 L 11.3262,30.1533 L 11.2861,30.3076 L 11.1338,30.5137 L 10.6641,30.9736 L 10.21,31.46 L 9.70605,32.0518
 L 9.1582,32.7539 L 8.57812,33.5713 L 8.03418,34.4141 L 8.56445,35.3086 L 9.20801,36.125 L 10.1904,35.9199
 L 11.1621,35.6729 L 12.0137,35.4141 L 12.7471,35.1553 L 13.3643,34.9072 L 13.9629,34.6338 L 14.21,34.5654
 L 14.3682,34.585 L 15.7793,36.3721 L 15.7607,36.5303 L 15.6367,36.7549 L 15.2334,37.2734 L 14.8477,37.8154
 L 14.4268,38.4688 L 13.9775,39.2383 L 13.5117,40.125 L 13.085,41.0332 L 13.7295,41.8496 L 14.4766,42.5723
 L 15.4229,42.2383 L 16.3525,41.8633 L 17.1621,41.4941 L 17.8545,41.1406 L 18.4326,40.8115 L 18.9893,40.4609
 L 19.2256,40.3604 L 19.3848,40.3584 L 21.0215,41.9414 L 21.0244,42.1006 L 20.9316,42.3398 L 20.6006,42.9072
 L 20.291,43.4961 L 19.96,44.2002 L 19.6182,45.0215 L 19.2744,45.9639 L 18.9727,46.9209 L 19.7197,47.6436
 L 20.5566,48.2598 L 21.4502,47.8037 L 22.3223,47.3076 L 23.0752,46.834 L 23.7139,46.3906 L 24.2432,45.9873
 L 24.748,45.5664 L 24.9688,45.4355 L 25.126,45.4111 L 26.96,46.7627 L 26.9834,46.9199 L 26.9238,47.1689
 L 26.6709,47.7764 L 26.4424,48.4014 L 26.209,49.1426 L 25.9795,50.0029 L 25.7646,50.9814 L 25.5928,51.9707
 L 26.4297,52.5869 L 27.3418,53.0869 L 28.166,52.5146 L 28.9639,51.9072 L 29.6475,51.3369 L 30.2217,50.8135
 L 30.6924,50.3428 L 31.1367,49.8584 L 31.3369,49.6992 L 31.4902,49.6543 L 33.4873,50.749 L 33.5322,50.9023
 L 33.5059,51.1572 L 33.3359,51.792 L 33.1934,52.4414 L 33.0605,53.208 L 32.9473,54.0908 L 32.8652,55.0898
 L 32.8271,56.0928 L 33.7383,56.5918 L 34.709,56.9658 L 35.4492,56.2891 L 36.1592,55.5811 L 36.7607,54.9248
 L 37.2598,54.3291 L 37.6641,53.7998 L 38.0391,53.2607 L 38.2168,53.0762 L 38.3633,53.0117 L 40.4883,53.8301
 L 40.5527,53.9756 L 40.5605,54.2314 L 40.4775,54.8838 L 40.4229,55.5469 L 40.3926,56.3242 L 40.3984,57.2139
 L 40.4502,58.2148 L 40.5459,59.2139 L 41.5156,59.5879 L 42.5273,59.8291 L 43.1709,59.0596 L 43.7803,58.2627
 L 44.2881,57.5322 L 44.7041,56.875 L 45.0342,56.2969 L 45.334,55.7129 L 45.4863,55.5059 L 45.6221,55.4229
 L 47.8369,55.9502 L 47.9199,56.0859 L 47.9629,56.3389 L 47.9668,56.9961 L 48.001,57.6602 L 48.0752,58.4346
 L 48.1992,59.3164 L 48.3838,60.3018 L 48.6113,61.2783 L 49.623,61.5195 L 50.6572,61.624 L 51.1934,60.7754
 L 51.6904,59.9053 L 52.0967,59.1133 L 52.4209,58.4062 L 52.6709,57.79 L 52.8906,57.1699 L 53.0137,56.9453
 L 53.1367,56.8447 L 55.4023,57.0723 L 55.5039,57.1953 L 55.5791,57.4404 L 55.6709,58.0918 L 55.793,58.7451
 L 55.9697,59.5029 L 56.2109,60.3594 L 56.5244,61.3115 L 56.8809,62.25 L 57.915,62.3535 z
M 59.584,1.95605 L 59.1865,1.82715 L 58.8242,1.61816 L 58.5137,1.33789 L 58.2676,1 L 58.0977,0.618164
 L 58.0107,0.208984 L 58.0107,-0.208984 L 58.0977,-0.618164 L 58.2676,-1 L 58.5137,-1.33789 L 58.8242,-1.61816
 L 59.1865,-1.82715 L 59.584,-1.95605 L 60,-2 L 60.416,-1.95605 L 60.8135,-1.82715 L 61.1758,-1.61816
 L 61.4863,-1.33789 L 61.7324,-1 L 61.9023,-0.618164 L 61.9893,-0.208984 L 61.9893,0.208984 L 61.9023,0.618164
 L 61.7324,1 L 61.4863,1.33789 L 61.1758,1.61816 L 60.8135,1.82715 L 60.416,1.95605 L 60,2
 z
M 58.9541,192.319 L 59.3721,191.407 L 59.749,190.479 L 60.0469,189.639 L 60.2734,188.896 L 60.4395,188.251
 L 60.5742,187.607 L 60.666,187.368 L 60.7754,187.252 L 63.0508,187.176 L 63.167,187.284 L 63.2744,187.518
 L 63.4521,188.15 L 63.6611,188.782 L 63.9365,189.509 L 64.29,190.326 L 64.7275,191.229 L 65.2061,192.11
 L 66.2451,192.075 L 67.2705,191.902 L 67.5625,190.942 L 67.8125,189.972 L 67.9951,189.101 L 68.1211,188.333
 L 68.1992,187.673 L 68.2471,187.017 L 68.3066,186.768 L 68.3994,186.638 L 70.6445,186.259 L 70.7744,186.352
 L 70.9121,186.567 L 71.1729,187.171 L 71.4629,187.77 L 71.834,188.453 L 72.292,189.216 L 72.8467,190.052
 L 73.4375,190.862 L 74.4629,190.689 L 75.4561,190.381 L 75.6182,189.391 L 75.7363,188.396 L 75.8018,187.508
 L 75.8232,186.73 L 75.8135,186.065 L 75.7734,185.409 L 75.7988,185.154 L 75.873,185.013 L 78.0479,184.338
 L 78.1895,184.412 L 78.3545,184.608 L 78.6934,185.172 L 79.0605,185.727 L 79.5195,186.354 L 80.0752,187.05
 L 80.7363,187.804 L 81.4297,188.528 L 82.4229,188.22 L 83.3662,187.782 L 83.3945,186.779 L 83.3789,185.777
 L 83.3252,184.889 L 83.2441,184.115 L 83.1445,183.457 L 83.0186,182.812 L 83.0088,182.556 L 83.0635,182.406
 L 85.1299,181.448 L 85.2793,181.503 L 85.4688,181.675 L 85.8799,182.188 L 86.3184,182.688 L 86.8564,183.25
 L 87.5,183.864 L 88.2549,184.524 L 89.04,185.149 L 89.9824,184.712 L 90.8594,184.152 L 90.7539,183.154
 L 90.6045,182.163 L 90.4336,181.29 L 90.249,180.534 L 90.0635,179.896 L 89.8516,179.273 L 89.8086,179.021
 L 89.8438,178.864 L 91.7627,177.64 L 91.918,177.674 L 92.1299,177.819 L 92.6045,178.273 L 93.1064,178.711
 L 93.7139,179.195 L 94.4346,179.719 L 95.2705,180.271 L 96.1318,180.787 L 97.0078,180.228 L 97.8018,179.556
 L 97.5645,178.581 L 97.2842,177.618 L 96.998,176.775 L 96.7148,176.052 L 96.4453,175.443 L 96.1533,174.854
 L 96.0762,174.609 L 96.0898,174.451 L 97.8291,172.98 L 97.9883,172.994 L 98.2168,173.11 L 98.748,173.496
 L 99.3027,173.863 L 99.9707,174.263 L 100.754,174.686 L 101.656,175.122 L 102.578,175.518 L 103.372,174.847
 L 104.069,174.075 L 103.705,173.141 L 103.299,172.225 L 102.902,171.427 L 102.525,170.747 L 102.178,170.18
 L 101.809,169.636 L 101.7,169.403 L 101.692,169.244 L 103.22,167.556 L 103.38,167.547 L 103.621,167.632
 L 104.2,167.943 L 104.799,168.233 L 105.514,168.54 L 106.346,168.854 L 107.299,169.167 L 108.266,169.437
 L 108.963,168.665 L 109.551,167.809 L 109.064,166.931 L 108.54,166.076 L 108.041,165.339 L 107.577,164.715
 L 107.156,164.2 L 106.719,163.709 L 106.58,163.493 L 106.552,163.337 L 107.84,161.459 L 107.997,161.431
 L 108.248,161.481 L 108.863,161.714 L 109.495,161.921 L 110.244,162.13 L 111.111,162.331 L 112.098,162.513
 L 113.091,162.651 L 113.68,161.794 L 114.148,160.866 L 113.55,160.062 L 112.916,159.284 L 112.323,158.62
 L 111.779,158.064 L 111.294,157.609 L 110.795,157.182 L 110.629,156.986 L 110.579,156.835 L 111.606,154.802
 L 111.758,154.752 L 112.014,154.77 L 112.654,154.918 L 113.309,155.039 L 114.078,155.146 L 114.965,155.229
 L 115.966,155.279 L 116.97,155.284 L 117.438,154.355 L 117.779,153.374 L 117.078,152.656 L 116.347,151.971
 L 115.671,151.392 L 115.059,150.912 L 114.517,150.526 L 113.965,150.169 L 113.774,149.997 L 113.705,149.854
 L 114.452,147.702 L 114.596,147.633 L 114.851,147.616 L 115.506,147.678 L 116.17,147.711 L 116.947,147.714
 L 117.837,147.679 L 118.836,147.594 L 119.831,147.465 L 120.172,146.482 L 120.379,145.464 L 119.589,144.846
 L 118.772,144.264 L 118.025,143.78 L 117.354,143.387 L 116.766,143.076 L 116.172,142.796 L 115.96,142.651
 L 115.872,142.519 L 116.325,140.287 L 116.458,140.199 L 116.71,140.148 L 117.366,140.122 L 118.029,140.065
 L 118.801,139.966 L 119.678,139.812 L 120.656,139.595 L 121.625,139.334 L 121.832,138.315 L 121.901,137.278
 L 121.036,136.771 L 120.149,136.303 L 119.345,135.923 L 118.627,135.623 L 118.002,135.394 L 117.376,135.195
 L 117.146,135.08 L 117.042,134.96 L 117.194,132.688 L 117.313,132.583 L 117.557,132.499 L 118.204,132.386
 L 118.854,132.241 L 119.604,132.039 L 120.453,131.771 L 121.394,131.425 L 122.319,131.037 L 122.389,130
 L 122.319,128.963 L 121.394,128.575 L 120.453,128.229 L 119.604,127.961 L 118.854,127.759 L 118.204,127.614
 L 117.557,127.501 L 117.313,127.417 L 117.194,127.312 L 117.042,125.04 L 117.146,124.92 L 117.376,124.805
 L 118.002,124.606 L 118.627,124.377 L 119.345,124.077 L 120.149,123.697 L 121.036,123.229 L 121.901,122.722
 L 121.832,121.685 L 121.625,120.666 L 120.656,120.405 L 119.678,120.188 L 118.801,120.034 L 118.029,119.935
 L 117.366,119.878 L 116.71,119.852 L 116.458,119.801 L 116.325,119.713 L 115.872,117.481 L 115.96,117.349
 L 116.172,117.204 L 116.766,116.924 L 117.354,116.613 L 118.025,116.22 L 118.772,115.736 L 119.589,115.154
 L 120.379,114.536 L 120.172,113.518 L 119.831,112.535 L 118.836,112.406 L 117.837,112.321 L 116.947,112.286
 L 116.17,112.289 L 115.506,112.322 L 114.851,112.384 L 114.596,112.367 L 114.452,112.298 L 113.705,110.146
 L 113.774,110.003 L 113.965,109.831 L 114.517,109.474 L 115.059,109.088 L 115.671,108.608 L 116.347,108.029
 L 117.078,107.344 L 117.779,106.626 L 117.438,105.645 L 116.97,104.716 L 115.966,104.721 L 114.965,104.771
 L 114.078,104.854 L 113.309,104.961 L 112.654,105.082 L 112.014,105.23 L 111.758,105.248 L 111.606,105.198
 L 110.579,103.165 L 110.629,103.014 L 110.795,102.818 L 111.294,102.391 L 111.779,101.936 L 112.323,101.38
 L 112.916,100.716 L 113.55,99.9385 L 114.148,99.1338 L 113.68,98.2061 L 113.091,97.3486 L 112.098,97.4873
 L 111.111,97.6689 L 110.244,97.8701 L 109.495,98.0791 L 108.863,98.2861 L 108.248,98.5186 L 107.997,98.5693
 L 107.84,98.541 L 106.552,96.6631 L 106.58,96.5068 L 106.719,96.291 L 107.156,95.7998 L 107.577,95.2852
 L 108.041,94.6611 L 108.54,93.9238 L 109.064,93.0693 L 109.551,92.1914 L 108.963,91.335 L 108.266,90.5635
 L 107.299,90.833 L 106.346,91.1455 L 105.514,91.46 L 104.799,91.7666 L 104.2,92.0566 L 103.621,92.3682
 L 103.38,92.4531 L 103.22,92.4443 L 101.692,90.7559 L 101.7,90.5967 L 101.809,90.3643 L 102.178,89.8203
 L 102.525,89.2529 L 102.902,88.5732 L 103.299,87.7754 L 103.705,86.8594 L 104.069,85.9248 L 103.372,85.1533
 L 102.578,84.4824 L 101.656,84.8779 L 100.754,85.3145 L 99.9707,85.7373 L 99.3027,86.1367 L 98.748,86.5039
 L 98.2168,86.8896 L 97.9883,87.0059 L 97.8291,87.0195 L 96.0898,85.5488 L 96.0762,85.3906 L 96.1533,85.1455
 L 96.4453,84.5566 L 96.7148,83.9482 L 96.998,83.2246 L 97.2842,82.3818 L 97.5645,81.4189 L 97.8018,80.4443
 L 97.0078,79.7725 L 96.1318,79.2129 L 95.2705,79.7285 L 94.4346,80.2812 L 93.7139,80.8047 L 93.1064,81.2891
 L 92.6045,81.7266 L 92.1299,82.1807 L 91.918,82.3262 L 91.7627,82.3604 L 89.8438,81.1357 L 89.8086,80.9795
 L 89.8516,80.7266 L 90.0635,80.1045 L 90.249,79.4658 L 90.4336,78.71 L 90.6045,77.8369 L 90.7539,76.8457
 L 90.8594,75.8477 L 89.9824,75.2881 L 89.04,74.8506 L 88.2549,75.4756 L 87.5,76.1357 L 86.8564,76.75
 L 86.3184,77.3115 L 85.8799,77.8115 L 85.4688,78.3252 L 85.2793,78.4971 L 85.1299,78.5518 L 83.0635,77.5938
 L 83.0088,77.4443 L 83.0186,77.1875 L 83.1445,76.543 L 83.2441,75.8848 L 83.3252,75.1113 L 83.3789,74.2227
 L 83.3945,73.2207 L 83.3662,72.2178 L 82.4229,71.7803 L 81.4297,71.4717 L 80.7363,72.1963 L 80.0752,72.9502
 L 79.5195,73.6455 L 79.0605,74.2734 L 78.6934,74.8281 L 78.3545,75.3916 L 78.1895,75.5879 L 78.0479,75.6621
 L 75.873,74.9873 L 75.7988,74.8457 L 75.7734,74.5908 L 75.8135,73.9346 L 75.8232,73.2695 L 75.8018,72.4922
 L 75.7363,71.6045 L 75.6182,70.6094 L 75.4561,69.6191 L 74.4629,69.3105 L 73.4375,69.1377 L 72.8467,69.9482
 L 72.292,70.7842 L 71.834,71.5469 L 71.4629,72.2305 L 71.1729,72.8291 L 70.9121,73.4326 L 70.7744,73.6484
 L 70.6445,73.7412 L 68.3994,73.3623 L 68.3066,73.2324 L 68.2471,72.9834 L 68.1992,72.3271 L 68.1211,71.667
 L 67.9951,70.8994 L 67.8125,70.0283 L 67.5625,69.0576 L 67.2705,68.0977 L 66.2451,67.9248 L 65.2061,67.8896
 L 64.7275,68.7715 L 64.29,69.6738 L 63.9365,70.4912 L 63.6611,71.2178 L 63.4521,71.8496 L 63.2744,72.4824
 L 63.167,72.7158 L 63.0508,72.8242 L 60.7754,72.748 L 60.666,72.6318 L 60.5742,72.3926 L 60.4395,71.749
 L 60.2734,71.1045 L 60.0469,70.3613 L 59.749,69.5215 L 59.3721,68.5928 L 58.9541,67.6807 L 57.915,67.6465
 L 56.8809,67.75 L 56.5244,68.6885 L 56.2109,69.6406 L 55.9697,70.4971 L 55.793,71.2549 L 55.6709,71.9082
 L 55.5791,72.5596 L 55.5039,72.8047 L 55.4023,72.9277 L 53.1367,73.1553 L 53.0137,73.0547 L 52.8906,72.8301
 L 52.6709,72.21 L 52.4209,71.5938 L 52.0967,70.8867 L 51.6904,70.0947 L 51.1934,69.2246 L 50.6572,68.376
 L 49.623,68.4805 L 48.6113,68.7217 L 48.3838,69.6982 L 48.1992,70.6836 L 48.0752,71.5654 L 48.001,72.3398
 L 47.9668,73.0039 L 47.9629,73.6611 L 47.9199,73.9141 L 47.8369,74.0498 L 45.6221,74.5771 L 45.4863,74.4941
 L 45.334,74.2871 L 45.0342,73.7031 L 44.7041,73.125 L 44.2881,72.4678 L 43.7803,71.7373 L 43.1709,70.9404
 L 42.5273,70.1709 L 41.5156,70.4121 L 40.5459,70.7861 L 40.4502,71.7852 L 40.3984,72.7861 L 40.3926,73.6758
 L 40.4229,74.4531 L 40.4775,75.1162 L 40.5605,75.7686 L 40.5527,76.0244 L 40.4883,76.1699 L 38.3633,76.9883
 L 38.2168,76.9238 L 38.0391,76.7393 L 37.6641,76.2002 L 37.2598,75.6709 L 36.7607,75.0752 L 36.1592,74.4189
 L 35.4492,73.7109 L 34.709,73.0342 L 33.7383,73.4082 L 32.8271,73.9072 L 32.8652,74.9102 L 32.9473,75.9092
 L 33.0605,76.792 L 33.1934,77.5586 L 33.3359,78.208 L 33.5059,78.8428 L 33.5322,79.0977 L 33.4873,79.251
 L 31.4902,80.3457 L 31.3369,80.3008 L 31.1367,80.1416 L 30.6924,79.6572 L 30.2217,79.1865 L 29.6475,78.6631
 L 28.9639,78.0928 L 28.166,77.4854 L 27.3418,76.9131 L 26.4297,77.4131 L 25.5928,78.0293 L 25.7646,79.0186
 L 25.9795,79.9971 L 26.209,80.8574 L 26.4424,81.5986 L 26.6709,82.2236 L 26.9238,82.8311 L 26.9834,83.0801
 L 26.96,83.2373 L 25.126,84.5889 L 24.9688,84.5645 L 24.748,84.4336 L 24.2432,84.0127 L 23.7139,83.6094
 L 23.0752,83.166 L 22.3223,82.6924 L 21.4502,82.1963 L 20.5566,81.7402 L 19.7197,82.3564 L 18.9727,83.0791
 L 19.2744,84.0361 L 19.6182,84.9785 L 19.96,85.7998 L 20.291,86.5039 L 20.6006,87.0928 L 20.9316,87.6602
 L 21.0244,87.8994 L 21.0215,88.0586 L 19.3848,89.6416 L 19.2256,89.6396 L 18.9893,89.5391 L 18.4326,89.1885
 L 17.8545,88.8594 L 17.1621,88.5059 L 16.3525,88.1367 L 15.4229,87.7617 L 14.4766,87.4277 L 13.7295,88.1504
 L 13.085,88.9668 L 13.5117,89.875 L 13.9775,90.7617 L 14.4268,91.5312 L 14.8477,92.1846 L 15.2334,92.7266
 L 15.6367,93.2451 L 15.7607,93.4697 L 15.7793,93.6279 L 14.3682,95.415 L 14.21,95.4346 L 13.9629,95.3662
 L 13.3643,95.0928 L 12.7471,94.8447 L 12.0137,94.5859 L 11.1621,94.3271 L 10.1904,94.0801 L 9.20801,93.875
 L 8.56445,94.6914 L 8.03418,95.5859 L 8.57812,96.4287 L 9.1582,97.2461 L 9.70605,97.9482 L 10.21,98.54
 L 10.6641,99.0264 L 11.1338,99.4863 L 11.2861,99.6924 L 11.3262,99.8467 L 10.165,101.807 L 10.0107,101.846
 L 9.75684,101.812 L 9.12793,101.62 L 8.4834,101.456 L 7.72168,101.298 L 6.84277,101.155 L 5.84766,101.039
 L 4.84668,100.968 L 4.31641,101.862 L 3.91113,102.819 L 4.5625,103.582 L 5.24609,104.315 L 5.88184,104.938
 L 6.46191,105.457 L 6.97656,105.879 L 7.50293,106.271 L 7.68164,106.456 L 7.74121,106.604 L 6.85254,108.7
 L 6.7041,108.76 L 6.44824,108.76 L 5.79883,108.654 L 5.13867,108.577 L 4.3623,108.521 L 3.47266,108.498
 L 2.4707,108.516 L 1.46875,108.578 L 1.06348,109.535 L 0.789062,110.538 L 1.53613,111.207 L 2.31152,111.842
 L 3.02441,112.375 L 3.66797,112.812 L 4.23438,113.161 L 4.80859,113.48 L 5.00977,113.64 L 5.08887,113.777
 L 4.4873,115.974 L 4.34863,116.053 L 4.09473,116.087 L 3.4375,116.069 L 2.77246,116.081 L 1.99609,116.129
 L 1.11133,116.224 L 0.120117,116.375 L -0.864258,116.57 L -1.13867,117.573 L -1.27734,118.604 L -0.447266,119.167
 L 0.40625,119.693 L 1.18359,120.126 L 1.87988,120.474 L 2.4873,120.744 L 3.09961,120.984 L 3.32031,121.114
 L 3.41699,121.241 L 3.11328,123.498 L 2.98633,123.595 L 2.73926,123.662 L 2.08594,123.732 L 1.42773,123.833
 L 0.665039,123.984 L -0.199219,124.196 L -1.16113,124.478 L -2.11133,124.803 L -2.24902,125.833 L -2.24902,126.872
 L -1.35156,127.321 L -0.435547,127.729 L 0.392578,128.054 L 1.12891,128.306 L 1.7666,128.492 L 2.40527,128.649
 L 2.6416,128.749 L 2.75391,128.861 L 2.75391,131.139 L 2.6416,131.251 L 2.40527,131.351 L 1.7666,131.508
 L 1.12891,131.694 L 0.392578,131.946 L -0.435547,132.271 L -1.35156,132.679 L -2.24902,133.128 L -2.24902,134.167
 L -2.11133,135.197 L -1.16113,135.522 L -0.199219,135.804 L 0.665039,136.016 L 1.42773,136.167 L 2.08594,136.268
 L 2.73926,136.338 L 2.98633,136.405 L 3.11328,136.502 L 3.41699,138.759 L 3.32031,138.886 L 3.09961,139.016
 L 2.4873,139.256 L 1.87988,139.526 L 1.18359,139.874 L 0.40625,140.307 L -0.447266,140.833 L -1.27734,141.396
 L -1.13867,142.427 L -0.864258,143.43 L 0.120117,143.625 L 1.11133,143.776 L 1.99609,143.871 L 2.77246,143.919
 L 3.4375,143.931 L 4.09473,143.913 L 4.34863,143.947 L 4.4873,144.026 L 5.08887,146.223 L 5.00977,146.36
 L 4.80859,146.52 L 4.23438,146.839 L 3.66797,147.188 L 3.02441,147.625 L 2.31152,148.158 L 1.53613,148.793
 L 0.789062,149.462 L 1.06348,150.465 L 1.46875,151.422 L 2.4707,151.484 L 3.47266,151.502 L 4.3623,151.479
 L 5.13867,151.423 L 5.79883,151.346 L 6.44824,151.24 L 6.7041,151.24 L 6.85254,151.3 L 7.74121,153.396
 L 7.68164,153.544 L 7.50293,153.729 L 6.97656,154.121 L 6.46191,154.543 L 5.88184,155.062 L 5.24609,155.685
 L 4.5625,156.418 L 3.91113,157.181 L 4.31641,158.138 L 4.84668,159.032 L 5.84766,158.961 L 6.84277,158.845
 L 7.72168,158.702 L 8.4834,158.544 L 9.12793,158.38 L 9.75684,158.188 L 10.0107,158.154 L 10.165,158.193
 L 11.3262,160.153 L 11.2861,160.308 L 11.1338,160.514 L 10.6641,160.974 L 10.21,161.46 L 9.70605,162.052
 L 9.1582,162.754 L 8.57812,163.571 L 8.03418,164.414 L 8.56445,165.309 L 9.20801,166.125 L 10.1904,165.92
 L 11.1621,165.673 L 12.0137,165.414 L 12.7471,165.155 L 13.3643,164.907 L 13.9629,164.634 L 14.21,164.565
 L 14.3682,164.585 L 15.7793,166.372 L 15.7607,166.53 L 15.6367,166.755 L 15.2334,167.273 L 14.8477,167.815
 L 14.4268,168.469 L 13.9775,169.238 L 13.5117,170.125 L 13.085,171.033 L 13.7295,171.85 L 14.4766,172.572
 L 15.4229,172.238 L 16.3525,171.863 L 17.1621,171.494 L 17.8545,171.141 L 18.4326,170.812 L 18.9893,170.461
 L 19.2256,170.36 L 19.3848,170.358 L 21.0215,171.941 L 21.0244,172.101 L 20.9316,172.34 L 20.6006,172.907
 L 20.291,173.496 L 19.96,174.2 L 19.6182,175.021 L 19.2744,175.964 L 18.9727,176.921 L 19.7197,177.644
 L 20.5566,178.26 L 21.4502,177.804 L 22.3223,177.308 L 23.0752,176.834 L 23.7139,176.391 L 24.2432,175.987
 L 24.748,175.566 L 24.9688,175.436 L 25.126,175.411 L 26.96,176.763 L 26.9834,176.92 L 26.9238,177.169
 L 26.6709,177.776 L 26.4424,178.401 L 26.209,179.143 L 25.9795,180.003 L 25.7646,180.981 L 25.5928,181.971
 L 26.4297,182.587 L 27.3418,183.087 L 28.166,182.515 L 28.9639,181.907 L 29.6475,181.337 L 30.2217,180.813
 L 30.6924,180.343 L 31.1367,179.858 L 31.3369,179.699 L 31.4902,179.654 L 33.4873,180.749 L 33.5322,180.902
 L 33.5059,181.157 L 33.3359,181.792 L 33.1934,182.441 L 33.0605,183.208 L 32.9473,184.091 L 32.8652,185.09
 L 32.8271,186.093 L 33.7383,186.592 L 34.709,186.966 L 35.4492,186.289 L 36.1592,185.581 L 36.7607,184.925
 L 37.2598,184.329 L 37.6641,183.8 L 38.0391,183.261 L 38.2168,183.076 L 38.3633,183.012 L 40.4883,183.83
 L 40.5527,183.976 L 40.5605,184.231 L 40.4775,184.884 L 40.4229,185.547 L 40.3926,186.324 L 40.3984,187.214
 L 40.4502,188.215 L 40.5459,189.214 L 41.5156,189.588 L 42.5273,189.829 L 43.1709,189.06 L 43.7803,188.263
 L 44.2881,187.532 L 44.7041,186.875 L 45.0342,186.297 L 45.334,185.713 L 45.4863,185.506 L 45.6221,185.423
 L 47.8369,185.95 L 47.9199,186.086 L 47.9629,186.339 L 47.9668,186.996 L 48.001,187.66 L 48.0752,188.435
 L 48.1992,189.316 L 48.3838,190.302 L 48.6113,191.278 L 49.623,191.52 L 50.6572,191.624 L 51.1934,190.775
 L 51.6904,189.905 L 52.0967,189.113 L 52.4209,188.406 L 52.6709,187.79 L 52.8906,187.17 L 53.0137,186.945
 L 53.1367,186.845 L 55.4023,187.072 L 55.5039,187.195 L 55.5791,187.44 L 55.6709,188.092 L 55.793,188.745
 L 55.9697,189.503 L 56.2109,190.359 L 56.5244,191.312 L 56.8809,192.25 L 57.915,192.354 z
M 59.584,131.956 L 59.1865,131.827 L 58.8242,131.618 L 58.5137,131.338 L 58.2676,131 L 58.0977,130.618
 L 58.0107,130.209 L 58.0107,129.791 L 58.0977,129.382 L 58.2676,129 L 58.5137,128.662 L 58.8242,128.382
 L 59.1865,128.173 L 59.584,128.044 L 60,128 L 60.416,128.044 L 60.8135,128.173 L 61.1758,128.382
 L 61.4863,128.662 L 61.7324,129 L 61.9023,129.382 L 61.9893,129.791 L 61.9893,130.209 L 61.9023,130.618
 L 61.7324,131 L 61.4863,131.338 L 61.1758,131.618 L 60.8135,131.827 L 60.416,131.956 L 60,132
 z
M -39.0928,122.829 L -38.7109,122.171 L -38.2207,120.995 L -37.9746,120.084 L -37.8926,119.477 L -37.8926,119.194
 L -37.9424,118.805 L -37.8896,118.055 L -37.6484,117.656 L -35.415,117.212 L -35.04,117.488 L -34.7041,118.16
 L -34.6016,118.54 L -34.4932,118.801 L -34.1855,119.33 L -33.6094,120.078 L -32.7061,120.977 L -32.1016,121.438
 L -31.2295,121.174 L -30.4258,120.744 L -30.3242,119.99 L -30.3213,118.716 L -30.4424,117.78 L -30.5996,117.188
 L -30.707,116.927 L -30.9033,116.586 L -31.1406,115.873 L -31.0713,115.412 L -29.1777,114.147 L -28.7256,114.259
 L -28.1582,114.752 L -27.918,115.063 L -27.7178,115.262 L -27.2305,115.634 L -26.4121,116.104 L -25.2344,116.589
 L -24.499,116.784 L -23.7939,116.206 L -23.2158,115.501 L -23.4111,114.766 L -23.8965,113.588 L -24.3662,112.77
 L -24.7383,112.282 L -24.9365,112.082 L -25.248,111.842 L -25.7412,111.274 L -25.8525,110.822 L -24.5879,108.929
 L -24.127,108.859 L -23.4141,109.097 L -23.0732,109.293 L -22.8125,109.4 L -22.2197,109.558 L -21.2842,109.679
 L -20.0098,109.676 L -19.2559,109.574 L -18.8262,108.771 L -18.5615,107.898 L -19.0234,107.294 L -19.9219,106.391
 L -20.6699,105.814 L -21.1992,105.507 L -21.46,105.398 L -21.8398,105.296 L -22.5117,104.96 L -22.7881,104.585
 L -22.3438,102.352 L -21.9453,102.11 L -21.1953,102.058 L -20.8057,102.107 L -20.5234,102.107 L -19.916,102.025
 L -19.0049,101.779 L -17.8291,101.289 L -17.1709,100.907 L -17.082,100 L -17.1709,99.0928 L -17.8291,98.7109
 L -19.0049,98.2207 L -19.916,97.9746 L -20.5234,97.8926 L -20.8057,97.8926 L -21.1953,97.9424 L -21.9453,97.8896
 L -22.3438,97.6484 L -22.7881,95.415 L -22.5117,95.04 L -21.8398,94.7041 L -21.46,94.6016 L -21.1992,94.4932
 L -20.6699,94.1855 L -19.9219,93.6094 L -19.0234,92.7061 L -18.5615,92.1016 L -18.8262,91.2295 L -19.2559,90.4258
 L -20.0098,90.3242 L -21.2842,90.3213 L -22.2197,90.4424 L -22.8125,90.5996 L -23.0732,90.707 L -23.4141,90.9033
 L -24.127,91.1406 L -24.5879,91.0713 L -25.8525,89.1777 L -25.7412,88.7256 L -25.248,88.1582 L -24.9365,87.918
 L -24.7383,87.7178 L -24.3662,87.2305 L -23.8965,86.4121 L -23.4111,85.2344 L -23.2158,84.499 L -23.7939,83.7939
 L -24.499,83.2158 L -25.2344,83.4111 L -26.4121,83.8965 L -27.2305,84.3662 L -27.7178,84.7383 L -27.918,84.9365
 L -28.1582,85.248 L -28.7256,85.7412 L -29.1777,85.8525 L -31.0713,84.5879 L -31.1406,84.127 L -30.9033,83.4141
 L -30.707,83.0732 L -30.5996,82.8125 L -30.4424,82.2197 L -30.3213,81.2842 L -30.3242,80.0098 L -30.4258,79.2559
 L -31.2295,78.8262 L -32.1016,78.5615 L -32.7061,79.0234 L -33.6094,79.9219 L -34.1855,80.6699 L -34.4932,81.1992
 L -34.6016,81.46 L -34.7041,81.8398 L -35.04,82.5117 L -35.415,82.7881 L -37.6484,82.3438 L -37.8896,81.9453
 L -37.9424,81.1953 L -37.8926,80.8057 L -37.8926,80.5234 L -37.9746,79.916 L -38.2207,79.0049 L -38.7109,77.8291
 L -39.0928,77.1709 L -40,77.082 L -40.9072,77.1709 L -41.2891,77.8291 L -41.7793,79.0049 L -42.0254,79.916
 L -42.1074,80.5234 L -42.1074,80.8057 L -42.0576,81.1953 L -42.1104,81.9453 L -42.3516,82.3438 L -44.585,82.7881
 L -44.96,82.5117 L -45.2959,81.8398 L -45.3984,81.46 L -45.5068,81.1992 L -45.8145,80.6699 L -46.3906,79.9219
 L -47.2939,79.0234 L -47.8984,78.5615 L -48.7705,78.8262 L -49.5742,79.2559 L -49.6758,80.0098 L -49.6787,81.2842
 L -49.5576,82.2197 L -49.4004,82.8125 L -49.293,83.0732 L -49.0967,83.4141 L -48.8594,84.127 L -48.9287,84.5879
 L -50.8223,85.8525 L -51.2744,85.7412 L -51.8418,85.248 L -52.082,84.9365 L -52.2822,84.7383 L -52.7695,84.3662
 L -53.5879,83.8965 L -54.7656,83.4111 L -55.501,83.2158 L -56.2061,83.7939 L -56.7842,84.499 L -56.5889,85.2344
 L -56.1035,86.4121 L -55.6338,87.2305 L -55.2617,87.7178 L -55.0635,87.918 L -54.752,88.1582 L -54.2588,88.7256
 L -54.1475,89.1777 L -55.4121,91.0713 L -55.873,91.1406 L -56.5859,90.9033 L -56.9268,90.707 L -57.1875,90.5996
 L -57.7803,90.4424 L -58.7158,90.3213 L -59.9902,90.3242 L -60.7441,90.4258 L -61.1738,91.2295 L -61.4385,92.1016
 L -60.9766,92.7061 L -60.0781,93.6094 L -59.3301,94.1855 L -58.8008,94.4932 L -58.54,94.6016 L -58.1602,94.7041
 L -57.4883,95.04 L -57.2119,95.415 L -57.6562,97.6484 L -58.0547,97.8896 L -58.8047,97.9424 L -59.1943,97.8926
 L -59.4766,97.8926 L -60.084,97.9746 L -60.9951,98.2207 L -62.1709,98.7109 L -62.8291,99.0928 L -62.918,100
 L -62.8291,100.907 L -62.1709,101.289 L -60.9951,101.779 L -60.084,102.025 L -59.4766,102.107 L -59.1943,102.107
 L -58.8047,102.058 L -58.0547,102.11 L -57.6562,102.352 L -57.2119,104.585 L -57.4883,104.96 L -58.1602,105.296
 L -58.54,105.398 L -58.8008,105.507 L -59.3301,105.814 L -60.0781,106.391 L -60.9766,107.294 L -61.4385,107.898
 L -61.1738,108.771 L -60.7441,109.574 L -59.9902,109.676 L -58.7158,109.679 L -57.7803,109.558 L -57.1875,109.4
 L -56.9268,109.293 L -56.5859,109.097 L -55.873,108.859 L -55.4121,108.929 L -54.1475,110.822 L -54.2588,111.274
 L -54.752,111.842 L -55.0635,112.082 L -55.2617,112.282 L -55.6338,112.77 L -56.1035,113.588 L -56.5889,114.766
 L -56.7842,115.501 L -56.2061,116.206 L -55.501,116.784 L -54.7656,116.589 L -53.5879,116.104 L -52.7695,115.634
 L -52.2822,115.262 L -52.082,115.063 L -51.8418,114.752 L -51.2744,114.259 L -50.8223,114.147 L -48.9287,115.412
 L -48.8594,115.873 L -49.0967,116.586 L -49.293,116.927 L -49.4004,117.188 L -49.5576,117.78 L -49.6787,118.716
 L -49.6758,119.99 L -49.5742,120.744 L -48.7705,121.174 L -47.8984,121.438 L -47.2939,120.977 L -46.3906,120.078
 L -45.8145,119.33 L -45.5068,118.801 L -45.3984,118.54 L -45.2959,118.16 L -44.96,117.488 L -44.585,117.212
 L -42.3516,117.656 L -42.1104,118.055 L -42.0576,118.805 L -42.1074,119.194 L -42.1074,119.477 L -42.0254,120.084
 L -41.7793,120.995 L -41.2891,122.171 L -40.9072,122.829 L -40,122.918 z
M -40.416,101.956 L -40.8135,101.827 L -41.1758,101.618 L -41.4863,101.338 L -41.7324,101 L -41.9023,100.618
 L -41.9893,100.209 L -41.9893,99.791 L -41.9023,99.3818 L -41.7324,99 L -41.4863,98.6621 L -41.1758,98.3818
 L -40.8135,98.1729 L -40.416,98.0439 L -40,98 L -39.584,98.0439 L -39.1865,98.1729 L -38.8242,98.3818
 L -38.5137,98.6621 L -38.2676,99 L -38.0977,99.3818 L -38.0107,99.791 L -38.0107,100.209 L -38.0977,100.618
 L -38.2676,101 L -38.5137,101.338 L -38.8242,101.618 L -39.1865,101.827 L -39.584,101.956 L -40,102
 z
" stroke="black" fill="lightgray" stroke-width="0.5"/></svg>
