<?xml version="1.0" encoding="UTF-8" standalone="no"?>
<svg
   xmlns:dc="http://purl.org/dc/elements/1.1/"
   xmlns:cc="http://creativecommons.org/ns#"
   xmlns:rdf="http://www.w3.org/1999/02/22-rdf-syntax-ns#"
   xmlns:svg="http://www.w3.org/2000/svg"
   xmlns="http://www.w3.org/2000/svg"
   id="svg2"
   version="1.1"
   viewBox="-193 -193 316 386"
   height="386"
   width="316">
  <metadata
     id="metadata12">
    <rdf:RDF>
      <cc:Work
         rdf:about="">
        <dc:format>image/svg+xml</dc:format>
        <dc:type
           rdf:resource="http://purl.org/dc/dcmitype/StillImage" />
        <dc:title>OpenSCAD Model</dc:title>
      </cc:Work>
    </rdf:RDF>
  </metadata>
  <defs
     id="defs10" />
  <title
     id="title4">OpenSCAD Model</title>
  <path
     d="m 59.584,-128.044 -0.3975,-0.129 -0.3623,-0.209 -0.3105,-0.28 -0.2461,-0.338 -0.1699,-0.382 -0.087,-0.409 0,-0.418 0.087,-0.409 0.1699,-0.382 0.2461,-0.338 0.3105,-0.28 0.3623,-0.209 0.3975,-0.129 L 60,-132 l 0.416,0.044 0.3975,0.129 0.3623,0.209 0.3105,0.28 0.2461,0.338 0.1699,0.382 0.087,0.409 0,0.418 -0.087,0.409 -0.1699,0.382 -0.2461,0.338 -0.3105,0.28 -0.3623,0.209 -0.3975,0.129 L 60,-128 Z m -0.6299,60.3633 0.418,-0.9121 0.3769,-0.9287 0.2979,-0.8398 0.2265,-0.7432 0.1661,-0.6445 0.1347,-0.6436 0.0918,-0.2392 0.1094,-0.1162 2.2754,-0.0762 0.1162,0.1084 0.1074,0.2334 0.1777,0.6328 0.209,0.6318 0.2754,0.7266 0.3535,0.8174 0.4375,0.9023 0.4786,0.8819 1.039,-0.0352 1.0254,-0.1729 0.292,-0.9599 0.25,-0.9707 0.1826,-0.8711 0.126,-0.7676 0.0781,-0.6601 0.0479,-0.6563 0.0595,-0.249 0.0928,-0.1299 2.2451,-0.3789 0.1299,0.0928 0.1377,0.2158 0.2608,0.6035 0.29,0.5986 0.3711,0.6836 0.458,0.7627 0.5547,0.836 0.5908,0.8105 1.0254,-0.1728 0.9932,-0.3086 0.1621,-0.9903 0.1181,-0.9951 0.0655,-0.8877 0.0214,-0.7773 -0.0097,-0.6651 -0.0401,-0.6562 0.0254,-0.2549 0.0742,-0.1416 2.1749,-0.6748 0.1416,0.0742 0.165,0.1963 0.3389,0.5635 0.3671,0.5547 0.459,0.6279 0.5557,0.6953 0.6611,0.7539 0.6934,0.7246 0.9932,-0.3086 0.9433,-0.4375 0.0283,-1.0029 -0.0156,-1.002 -0.0537,-0.8886 -0.0811,-0.7735 -0.0996,-0.6582 -0.1259,-0.6445 -0.0098,-0.2568 0.0547,-0.1495 2.0664,-0.958 0.1494,0.0547 0.1895,0.1719 0.4111,0.5137 0.4385,0.5 0.538,0.5615 0.6436,0.6143 0.7549,0.6601 0.7851,0.625 0.9424,-0.4375 0.877,-0.5596 -0.1055,-0.998 -0.1494,-0.9912 -0.1709,-0.8731 -0.1846,-0.7558 -0.1855,-0.6387 -0.2119,-0.6221 -0.043,-0.2529 0.0352,-0.1562 1.9189,-1.2247 0.1553,0.0342 0.2119,0.1455 0.4746,0.4541 0.5019,0.4375 0.6075,0.4844 0.7207,0.5235 0.8359,0.5527 0.8613,0.5156 0.876,-0.5596 0.794,-0.6718 -0.2373,-0.9746 -0.2803,-0.9629 -0.2862,-0.8428 -0.2832,-0.7236 -0.2695,-0.6084 -0.292,-0.5889 -0.0771,-0.2451 0.0136,-0.1582 1.7393,-1.4707 0.1592,0.0136 0.2285,0.1163 0.5312,0.3857 0.5547,0.3672 0.668,0.3994 0.7833,0.4228 0.902,0.4366 0.922,0.3955 0.794,-0.6709 0.697,-0.7715 -0.364,-0.9346 -0.406,-0.916 -0.397,-0.7978 -0.377,-0.6797 -0.347,-0.5674 -0.369,-0.544 -0.109,-0.2324 -0.008,-0.1592 1.528,-1.6884 0.16,-0.0088 0.241,0.0849 0.579,0.3116 0.599,0.29 0.715,0.3066 0.832,0.3145 0.953,0.3125 0.967,0.2695 0.697,-0.7715 0.588,-0.8564 -0.487,-0.8779 -0.524,-0.8545 -0.499,-0.7373 -0.464,-0.6241 -0.421,-0.5146 -0.437,-0.4912 -0.139,-0.2158 -0.028,-0.1563 1.288,-1.8779 0.157,-0.0283 0.251,0.0507 0.615,0.2325 0.632,0.207 0.749,0.209 0.867,0.2012 0.987,0.1816 0.993,0.1387 0.589,-0.8575 0.468,-0.9277 -0.598,-0.8047 -0.634,-0.7775 -0.593,-0.664 -0.544,-0.556 -0.485,-0.455 -0.499,-0.427 -0.166,-0.196 -0.05,-0.151 1.027,-2.033 0.152,-0.05 0.256,0.018 0.64,0.148 0.655,0.121 0.769,0.107 0.887,0.083 1.001,0.05 1.004,0.005 0.468,-0.929 0.341,-0.981 -0.701,-0.718 -0.731,-0.685 -0.676,-0.579 -0.612,-0.48 -0.542,-0.386 -0.552,-0.357 -0.191,-0.172 -0.069,-0.143 0.747,-2.152 0.144,-0.069 0.255,-0.017 0.655,0.062 0.664,0.033 0.777,0.003 0.89,-0.035 0.999,-0.085 0.995,-0.129 0.341,-0.983 0.207,-1.018 -0.79,-0.618 -0.817,-0.582 -0.747,-0.484 -0.671,-0.393 -0.588,-0.311 -0.594,-0.28 -0.212,-0.145 -0.088,-0.132 0.453,-2.232 0.133,-0.088 0.252,-0.051 0.656,-0.026 0.663,-0.057 0.772,-0.099 0.877,-0.154 0.978,-0.217 0.969,-0.261 0.207,-1.019 0.069,-1.037 -0.865,-0.507 -0.887,-0.468 -0.804,-0.38 -0.718,-0.3 -0.625,-0.229 -0.626,-0.199 -0.23,-0.115 -0.104,-0.12 0.152,-2.272 0.119,-0.105 0.244,-0.084 0.647,-0.113 0.65,-0.145 0.75,-0.202 0.849,-0.268 0.941,-0.346 0.925,-0.388 0.07,-1.037 -0.07,-1.037 -0.925,-0.388 -0.941,-0.346 -0.849,-0.268 -0.75,-0.202 -0.65,-0.145 -0.647,-0.113 -0.244,-0.084 -0.119,-0.105 -0.152,-2.272 0.104,-0.12 0.23,-0.115 0.626,-0.199 0.625,-0.229 0.718,-0.3 0.804,-0.38 0.887,-0.468 0.865,-0.507 -0.069,-1.037 -0.207,-1.019 -0.969,-0.261 -0.978,-0.217 -0.877,-0.154 -0.772,-0.099 -0.663,-0.057 -0.656,-0.026 -0.252,-0.051 -0.133,-0.088 -0.453,-2.232 0.088,-0.132 0.212,-0.145 0.594,-0.28 0.588,-0.311 0.671,-0.393 0.747,-0.484 0.817,-0.582 0.79,-0.618 -0.207,-1.018 -0.341,-0.983 -0.995,-0.129 -0.999,-0.085 -0.89,-0.035 -0.777,0.003 -0.664,0.033 -0.655,0.062 -0.255,-0.017 -0.144,-0.069 -0.747,-2.152 0.069,-0.143 0.191,-0.172 0.552,-0.357 0.542,-0.386 0.612,-0.48 0.676,-0.579 0.731,-0.685 0.701,-0.718 -0.341,-0.981 -0.468,-0.929 -1.004,0.005 -1.001,0.05 -0.887,0.083 -0.769,0.107 -0.655,0.121 -0.64,0.148 -0.256,0.018 -0.152,-0.05 -1.027,-2.033 0.05,-0.151 0.166,-0.196 0.499,-0.427 0.485,-0.455 0.544,-0.556 0.593,-0.664 0.634,-0.778 0.598,-0.804 -0.468,-0.928 -0.589,-0.857 -0.993,0.138 -0.987,0.182 -0.867,0.201 -0.749,0.209 -0.632,0.207 -0.615,0.233 -0.251,0.05 -0.157,-0.028 -1.288,-1.878 0.028,-0.156 0.139,-0.216 0.437,-0.491 0.421,-0.515 0.464,-0.624 0.499,-0.737 0.524,-0.855 0.487,-0.878 -0.588,-0.856 -0.697,-0.772 -0.967,0.27 -0.953,0.313 -0.832,0.314 -0.715,0.307 -0.599,0.29 -0.579,0.311 -0.241,0.085 -0.16,-0.009 -1.528,-1.688 0.008,-0.159 0.109,-0.233 0.369,-0.544 0.347,-0.567 0.377,-0.68 0.397,-0.798 0.406,-0.916 0.364,-0.934 -0.697,-0.772 -0.794,-0.671 -0.922,0.396 -0.902,0.436 -0.7833,0.423 -0.668,0.4 -0.5547,0.367 -0.5312,0.386 -0.2285,0.116 -0.1592,0.014 -1.7393,-1.471 -0.0136,-0.158 0.0771,-0.245 0.292,-0.589 0.2695,-0.609 0.2832,-0.723 0.2862,-0.843 0.2803,-0.963 0.2373,-0.975 -0.794,-0.672 -0.876,-0.559 -0.8613,0.516 -0.8359,0.552 -0.7207,0.524 -0.6075,0.484 -0.5019,0.438 -0.4746,0.454 -0.2119,0.145 -0.1553,0.034 -1.9189,-1.224 -0.0352,-0.157 0.043,-0.252 0.2119,-0.623 0.1855,-0.638 0.1846,-0.756 0.1709,-0.873 0.1494,-0.991 0.1055,-0.998 -0.877,-0.56 -0.9424,-0.437 -0.7851,0.625 -0.7549,0.66 -0.6436,0.614 -0.538,0.562 -0.4385,0.5 -0.4111,0.513 -0.1895,0.172 -0.1494,0.055 -2.0664,-0.958 -0.0547,-0.15 0.0098,-0.256 0.1259,-0.645 0.0996,-0.658 0.0811,-0.774 0.0537,-0.888 0.0156,-1.002 -0.0283,-1.003 -0.9433,-0.438 -0.9932,-0.308 -0.6934,0.724 -0.6611,0.754 -0.5557,0.696 -0.459,0.627 -0.3671,0.555 -0.3389,0.564 -0.165,0.196 -0.1416,0.074 -2.1749,-0.675 -0.0742,-0.141 -0.0254,-0.255 0.0401,-0.656 0.0097,-0.665 -0.0214,-0.778 -0.0655,-0.888 -0.1181,-0.995 -0.1621,-0.99 -0.9932,-0.308 -1.0254,-0.173 -0.5908,0.81 -0.5547,0.836 -0.458,0.763 -0.3711,0.683 -0.29,0.599 -0.2608,0.604 -0.1377,0.215 -0.1299,0.093 -2.2451,-0.379 -0.0928,-0.13 -0.0595,-0.249 -0.0479,-0.656 -0.0781,-0.66 -0.126,-0.768 -0.1826,-0.871 -0.25,-0.97 -0.292,-0.96 -1.0254,-0.173 -1.039,-0.035 -0.4786,0.881 -0.4375,0.903 -0.3535,0.817 -0.2754,0.727 -0.209,0.632 -0.1777,0.632 -0.1074,0.234 -0.1162,0.108 -2.2754,-0.076 -0.1094,-0.116 -0.0918,-0.239 -0.1347,-0.644 -0.1661,-0.645 -0.2265,-0.743 -0.2979,-0.84 -0.3769,-0.928 -0.418,-0.912 -1.0391,-0.035 -1.0341,0.104 -0.3565,0.938 -0.3135,0.953 -0.2412,0.856 -0.1767,0.758 -0.1221,0.653 -0.0918,0.652 -0.0752,0.245 -0.1016,0.123 -2.2656,0.227 -0.123,-0.1 -0.1231,-0.225 -0.2197,-0.62 -0.25,-0.616 -0.3242,-0.707 -0.4063,-0.792 -0.497,-0.87 -0.5362,-0.849 -1.0342,0.104 -1.0117,0.242 -0.2275,0.976 -0.1846,0.986 -0.124,0.881 -0.0742,0.775 -0.0342,0.664 -0.0039,0.657 -0.043,0.253 -0.083,0.136 -2.2148,0.527 -0.1358,-0.083 -0.1523,-0.207 -0.2998,-0.584 -0.3301,-0.578 -0.416,-0.657 -0.5078,-0.731 -0.6094,-0.797 -0.6436,-0.769 -1.0117,0.241 -0.9697,0.374 -0.0957,0.999 -0.0518,1.001 -0.0058,0.89 0.0303,0.777 0.0546,0.663 0.083,0.653 -0.0078,0.255 -0.0644,0.146 -2.125,0.818 -0.1465,-0.064 -0.1777,-0.185 -0.375,-0.539 -0.4043,-0.529 -0.4991,-0.596 -0.6015,-0.656 -0.71,-0.708 -0.7402,-0.677 -0.9707,0.374 -0.9112,0.499 0.0381,1.003 0.0821,0.999 0.1132,0.883 0.1329,0.767 0.1425,0.649 0.17,0.635 0.0263,0.255 -0.0449,0.153 -1.9971,1.095 -0.1533,-0.045 -0.2002,-0.159 -0.4443,-0.485 -0.4707,-0.47 -0.5742,-0.524 -0.6836,-0.57 -0.7979,-0.608 -0.8242,-0.572 -0.9121,0.5 -0.8369,0.616 0.1718,0.99 0.2149,0.978 0.2295,0.86 0.2334,0.742 0.2285,0.625 0.2529,0.607 0.0596,0.249 -0.0234,0.157 -1.834,1.352 -0.1572,-0.025 -0.2208,-0.13 -0.5048,-0.421 -0.5293,-0.404 -0.6387,-0.443 -0.7529,-0.474 -0.8721,-0.496 -0.8936,-0.456 -0.8369,0.616 -0.747,0.723 0.3017,0.957 0.3438,0.943 0.3418,0.821 0.331,0.704 0.3096,0.589 0.331,0.567 0.0928,0.239 -0.0029,0.16 -1.6367,1.583 -0.1592,-0.002 -0.2363,-0.101 -0.5567,-0.351 -0.5781,-0.329 -0.6924,-0.353 -0.8096,-0.369 -0.9296,-0.375 -0.9463,-0.334 -0.7471,0.722 -0.6445,0.817 0.4267,0.908 0.4658,0.887 0.4493,0.769 0.4209,0.654 0.3857,0.542 0.4033,0.518 0.124,0.225 0.0186,0.158 -1.4111,1.787 -0.1582,0.02 -0.2471,-0.069 -0.5986,-0.273 -0.6172,-0.248 -0.7334,-0.259 -0.8516,-0.259 -0.9717,-0.247 -0.98239,-0.205 -0.64356,0.816 -0.53027,0.895 0.54394,0.843 0.58008,0.817 0.54785,0.702 0.50395,0.592 0.4541,0.486 0.4697,0.46 0.1523,0.206 0.0401,0.155 -1.1612,1.96 -0.1543,0.039 -0.25386,-0.034 -0.62891,-0.192 -0.64453,-0.164 -0.76172,-0.158 -0.87891,-0.143 -0.99511,-0.116 -1.00098,-0.071 -0.53027,0.894 -0.40528,0.957 0.65137,0.763 0.68359,0.733 0.63575,0.623 0.58007,0.519 0.51465,0.422 0.52637,0.392 0.17871,0.185 0.05957,0.148 -0.88867,2.096 -0.14844,0.06 -0.25586,0 -0.64941,-0.106 -0.66016,-0.077 -0.77637,-0.056 -0.88964,-0.023 -1.00196,0.018 -1.00195,0.062 -0.40527,0.957 -0.274418,1.003 0.747068,0.669 0.77539,0.635 0.71289,0.533 0.64356,0.437 0.56641,0.349 0.57421,0.319 0.20118,0.16 0.0791,0.137 -0.60157,2.197 -0.13867,0.079 -0.2539,0.034 -0.65723,-0.018 -0.66504,0.012 -0.77637,0.048 -0.88476,0.095 -0.991213,0.151 -0.984375,0.195 -0.274412,1.003 -0.13867,1.031 0.830074,0.563 0.853516,0.526 0.77734,0.433 0.69629,0.348 0.60742,0.27 0.61231,0.24 0.2207,0.13 0.09668,0.127 -0.30371,2.257 -0.12695,0.097 -0.24707,0.067 -0.65332,0.07 -0.65821,0.101 -0.762691,0.151 -0.864258,0.212 -0.961911,0.282 -0.9502,0.325 -0.13769,1.03 0,1.039 0.89746,0.449 0.916013,0.408 0.828125,0.325 0.736332,0.252 0.63769,0.186 0.63867,0.157 0.23633,0.1 0.11231,0.112 0,2.278 -0.11231,0.112 -0.23633,0.1 -0.63867,0.157 -0.63769,0.186 -0.736332,0.252 -0.828125,0.325 -0.916013,0.408 -0.89746,0.449 0,1.039 0.13769,1.03 0.9502,0.325 0.961911,0.282 0.864258,0.212 0.762691,0.151 0.65821,0.101 0.65332,0.07 0.24707,0.067 0.12695,0.097 0.30371,2.257 -0.09668,0.127 -0.2207,0.13 -0.61231,0.24 -0.60742,0.27 -0.69629,0.348 -0.77734,0.433 -0.853516,0.526 -0.830074,0.563 0.13867,1.031 0.274412,1.003 0.984375,0.195 0.991213,0.151 0.88476,0.095 0.77637,0.048 0.66504,0.012 0.65723,-0.018 0.2539,0.034 0.13867,0.079 0.60157,2.197 -0.0791,0.137 -0.20118,0.16 -0.57421,0.319 -0.56641,0.349 -0.64356,0.437 -0.71289,0.533 -0.77539,0.635 -0.747068,0.669 0.274418,1.003 0.40527,0.957 1.00195,0.062 1.00196,0.018 0.88964,-0.023 0.77637,-0.056 0.66016,-0.077 0.64941,-0.106 0.25586,0 0.14844,0.06 0.88867,2.096 -0.05957,0.148 -0.17871,0.185 -0.52637,0.392 -0.51465,0.422 -0.58007,0.519 -0.63575,0.623 -0.68359,0.733 -0.65137,0.763 0.40528,0.957 0.53027,0.894 1.00098,-0.071 0.99511,-0.116 0.87891,-0.143 0.76172,-0.158 0.64453,-0.164 0.62891,-0.192 0.25386,-0.034 0.1543,0.039 1.1612,1.9603 -0.0401,0.1543 -0.1523,0.2061 -0.4697,0.4599 -0.4541,0.4864 -0.50395,0.5918 -0.54785,0.7021 -0.58008,0.8174 -0.54394,0.8428 0.53027,0.8945 0.64356,0.8164 0.98239,-0.2051 0.9717,-0.247 0.8516,-0.2588 0.7334,-0.2588 0.6172,-0.2481 0.5986,-0.2734 0.2471,-0.0684 0.1582,0.0196 1.4111,1.7871 -0.0186,0.1582 -0.124,0.2246 -0.4033,0.5185 -0.3857,0.542 -0.4209,0.6534 -0.4493,0.7695 -0.4658,0.8867 -0.4267,0.9082 0.6445,0.8164 0.7471,0.7227 0.9463,-0.334 0.9296,-0.375 0.8096,-0.3692 0.6924,-0.3535 0.5781,-0.3291 0.5567,-0.3506 0.2363,-0.1005 0.1592,-0.002 1.6367,1.583 0.0029,0.1592 -0.0928,0.2392 -0.331,0.5674 -0.3096,0.5889 -0.331,0.7041 -0.3418,0.8213 -0.3438,0.9424 -0.3017,0.957 0.747,0.7227 0.8369,0.6162 0.8936,-0.4561 0.8721,-0.4961 0.7529,-0.4736 0.6387,-0.4434 0.5293,-0.4033 0.5048,-0.4209 0.2208,-0.1309 0.1572,-0.0244 1.834,1.3516 0.0234,0.1572 -0.0596,0.249 -0.2529,0.6075 -0.2285,0.625 -0.2334,0.7412 -0.2295,0.8603 -0.2149,0.9785 -0.1718,0.9893 0.8369,0.6162 0.9121,0.5 0.8242,-0.5723 0.7979,-0.6074 0.6836,-0.5703 0.5742,-0.5234 0.4707,-0.4707 0.4443,-0.4844 0.2002,-0.1592 0.1533,-0.0449 1.9971,1.0947 0.0449,0.1533 -0.0263,0.2549 -0.17,0.6348 -0.1425,0.6494 -0.1329,0.7666 -0.1132,0.8828 -0.0821,0.999 -0.0381,1.003 0.9112,0.499 0.9707,0.374 0.7402,-0.6767 0.71,-0.708 0.6015,-0.6563 0.4991,-0.5957 0.4043,-0.5293 0.375,-0.5391 0.1777,-0.1845 0.1465,-0.0645 2.125,0.8184 0.0644,0.1455 0.0078,0.2558 -0.083,0.6524 -0.0546,0.6631 -0.0303,0.7773 0.0058,0.8897 0.0518,1.0009 0.0957,0.9991 0.9697,0.374 1.0117,0.2412 0.6436,-0.7695 0.6094,-0.7969 0.5078,-0.7305 0.416,-0.6572 0.3301,-0.5781 0.2998,-0.584 0.1523,-0.207 0.1358,-0.083 2.2148,0.5273 0.083,0.1357 0.043,0.253 0.0039,0.6572 0.0342,0.6641 0.0742,0.7744 0.124,0.8818 0.1846,0.9854 0.2275,0.9765 1.0117,0.2412 1.0342,0.1045 0.5362,-0.8486 0.497,-0.8701 0.4063,-0.792 0.3242,-0.7071 0.25,-0.6162 0.2197,-0.6201 0.1231,-0.2246 0.123,-0.1006 2.2656,0.2276 0.1016,0.123 0.0752,0.2451 0.0918,0.6514 0.1221,0.6533 0.1767,0.7578 0.2412,0.8565 0.3135,0.9521 0.3565,0.9385 1.0341,0.1035 z"
     id="path3360" />
  <path
     d="m -50.416,-138.044 -0.3975,-0.129 -0.3623,-0.209 -0.3105,-0.28 -0.2461,-0.338 -0.1699,-0.382 -0.087,-0.409 0,-0.418 0.087,-0.409 0.1699,-0.382 0.2461,-0.338 0.3105,-0.28 0.3623,-0.209 0.3975,-0.129 0.416,-0.044 0.416,0.044 0.3975,0.129 0.3623,0.209 0.3105,0.28 0.2461,0.338 0.1699,0.382 0.087,0.409 0,0.418 -0.087,0.409 -0.1699,0.382 -0.2461,0.338 -0.3105,0.28 -0.3623,0.209 -0.3975,0.129 L -50,-138 Z m 4.6748,38.5645 0.9726,-0.1543 0.3106,-0.9072 0.2773,-1.046 0.1709,-0.889 0.0879,-0.724 0.0274,-0.553 -0.0108,-0.58 0.0606,-0.396 0.1328,-0.211 2.2275,-0.474 0.2071,0.139 0.2168,0.337 0.2255,0.535 0.25,0.494 0.375,0.626 0.5176,0.742 0.6787,0.843 0.6533,0.702 0.9512,-0.254 0.919,-0.354 0.1152,-0.952 0.0537,-1.08 -0.0176,-0.906 -0.0644,-0.726 -0.0879,-0.546 -0.1318,-0.565 -0.0235,-0.401 0.0869,-0.234 2.0801,-0.926 0.2315,0.092 0.2822,0.286 0.332,0.476 0.3467,0.431 0.4961,0.534 0.6611,0.619 0.8399,0.683 0.7841,0.551 0.878,-0.447 0.8252,-0.536 -0.085,-0.956 -0.1719,-1.067 -0.205,-0.883 -0.2149,-0.697 -0.1992,-0.516 -0.2461,-0.526 -0.1064,-0.386 0.0361,-0.247 1.8418,-1.338 0.2461,0.042 0.3349,0.221 0.4239,0.396 0.4287,0.349 0.5967,0.42 0.7753,0.467 0.9629,0.493 0.8828,0.377 0.7647,-0.62 0.6963,-0.696 -0.2822,-0.917 -0.3897,-1.009 -0.3848,-0.82 -0.3544,-0.637 -0.3028,-0.464 -0.3496,-0.462 -0.1846,-0.356 -0.0166,-0.249 1.5245,-1.692 0.249,-0.01 0.374,0.145 0.4961,0.3 0.4922,0.253 0.6709,0.286 0.8564,0.297 1.044,0.282 0.9414,0.185 0.6191,-0.766 0.5371,-0.825 -0.4668,-0.838 -0.5918,-0.906 -0.5459,-0.723 -0.4795,-0.549 -0.3925,-0.39 -0.4385,-0.38 -0.2539,-0.311 -0.0684,-0.24 1.1387,-1.972 0.2422,-0.061 0.3955,0.065 0.5488,0.19 0.5332,0.144 0.7158,0.141 0.8985,0.112 1.081,0.059 0.959,-0.015 0.4463,-0.877 0.3535,-0.92 -0.6308,-0.722 -0.7666,-0.763 -0.6846,-0.593 -0.584,-0.438 -0.4639,-0.3 -0.5088,-0.28 -0.3125,-0.251 -0.1162,-0.221 0.7032,-2.166 0.2236,-0.109 0.4014,-0.02 0.5752,0.072 0.5527,0.031 0.7295,-0.012 0.9023,-0.077 1.0684,-0.167 0.9355,-0.214 0.2549,-0.951 0.15431,-0.973 -0.76761,-0.575 -0.9082,-0.587 -0.7929,-0.438 -0.6621,-0.307 -0.5166,-0.197 -0.5557,-0.168 -0.3584,-0.181 -0.1592,-0.191 0.2373,-2.265 0.1963,-0.154 0.3887,-0.102 0.5771,-0.05 0.5469,-0.085 0.7109,-0.163 0.8672,-0.263 1.0108,-0.385 0.87008,-0.404 0.05176,-0.983 -0.05176,-0.983 -0.87008,-0.404 -1.0108,-0.385 -0.8672,-0.263 -0.7109,-0.163 -0.5469,-0.085 -0.5771,-0.05 -0.3887,-0.102 -0.1963,-0.154 -0.2373,-2.265 0.1592,-0.191 0.3584,-0.181 0.5557,-0.168 0.5166,-0.197 0.6621,-0.307 0.7929,-0.438 0.9082,-0.587 0.76761,-0.575 -0.15431,-0.973 -0.2549,-0.951 -0.9355,-0.214 -1.0684,-0.167 -0.9023,-0.077 -0.7295,-0.012 -0.5527,0.031 -0.5752,0.072 -0.4014,-0.02 -0.2236,-0.109 -0.7032,-2.166 0.1162,-0.221 0.3125,-0.251 0.5088,-0.28 0.4639,-0.3 0.584,-0.438 0.6846,-0.593 0.7666,-0.763 0.6308,-0.722 -0.3535,-0.92 -0.4463,-0.877 -0.959,-0.015 -1.081,0.059 -0.8985,0.112 -0.7158,0.141 -0.5332,0.144 -0.5488,0.19 -0.3955,0.065 -0.2422,-0.061 -1.1387,-1.972 0.0684,-0.24 0.2539,-0.311 0.4385,-0.38 0.3925,-0.39 0.4795,-0.549 0.5459,-0.723 0.5918,-0.906 0.4668,-0.838 -0.5371,-0.825 -0.6191,-0.766 -0.9414,0.185 -1.044,0.282 -0.8564,0.297 -0.6709,0.286 -0.4922,0.253 -0.4961,0.3 -0.374,0.145 -0.249,-0.01 -1.5245,-1.692 0.0166,-0.249 0.1846,-0.356 0.3496,-0.462 0.3028,-0.464 0.3544,-0.637 0.3848,-0.82 0.3897,-1.009 0.2822,-0.917 -0.6963,-0.696 -0.7647,-0.62 -0.8828,0.377 -0.9629,0.493 -0.7753,0.467 -0.5967,0.42 -0.4287,0.349 -0.4239,0.396 -0.3349,0.221 -0.2461,0.042 -1.8418,-1.338 -0.0361,-0.247 0.1064,-0.386 0.2461,-0.526 0.1992,-0.516 0.2149,-0.697 0.205,-0.883 0.1719,-1.067 0.085,-0.956 -0.8252,-0.536 -0.878,-0.447 -0.7841,0.551 -0.8399,0.683 -0.6611,0.619 -0.4961,0.534 -0.3467,0.431 -0.332,0.476 -0.2822,0.286 -0.2315,0.092 -2.0801,-0.926 -0.0869,-0.234 0.0235,-0.401 0.1318,-0.565 0.0879,-0.546 0.0644,-0.726 0.0176,-0.906 -0.0537,-1.08 -0.1152,-0.952 -0.919,-0.354 -0.9512,-0.254 -0.6533,0.702 -0.6787,0.843 -0.5176,0.742 -0.375,0.626 -0.25,0.494 -0.2255,0.535 -0.2168,0.337 -0.2071,0.139 -2.2275,-0.474 -0.1328,-0.211 -0.0606,-0.396 0.0108,-0.58 -0.0274,-0.553 -0.0879,-0.724 -0.1709,-0.889 -0.2773,-1.046 -0.3106,-0.907 -0.9726,-0.155 -0.9834,-0.051 -0.4922,0.823 -0.4893,0.965 -0.3525,0.835 -0.2353,0.689 -0.1426,0.535 -0.1094,0.57 -0.1416,0.376 -0.1738,0.178 -2.2774,0 -0.1738,-0.178 -0.1416,-0.376 -0.1094,-0.57 -0.1426,-0.535 -0.2353,-0.689 -0.3525,-0.835 -0.4893,-0.965 -0.4922,-0.823 -0.9834,0.051 -0.9726,0.155 -0.3106,0.907 -0.2773,1.046 -0.1709,0.889 -0.0879,0.724 -0.0274,0.553 0.0108,0.58 -0.0606,0.396 -0.1328,0.211 -2.2275,0.474 -0.2071,-0.139 -0.2168,-0.337 -0.2255,-0.535 -0.25,-0.494 -0.375,-0.626 -0.5176,-0.742 -0.6787,-0.843 -0.6533,-0.702 -0.9512,0.254 -0.919,0.354 -0.1152,0.952 -0.0537,1.08 0.0176,0.906 0.0644,0.726 0.0879,0.546 0.1318,0.565 0.0235,0.401 -0.0869,0.234 -2.0801,0.926 -0.2315,-0.092 -0.2822,-0.286 -0.332,-0.476 -0.3467,-0.431 -0.4961,-0.534 -0.6611,-0.619 -0.8399,-0.683 -0.7841,-0.551 -0.878,0.447 -0.8252,0.536 0.085,0.956 0.1719,1.067 0.205,0.883 0.2149,0.697 0.1992,0.516 0.2461,0.526 0.1064,0.386 -0.0361,0.247 -1.8418,1.338 -0.2461,-0.042 -0.3349,-0.221 -0.4239,-0.396 -0.4287,-0.349 -0.5967,-0.42 -0.7753,-0.467 -0.9629,-0.493 -0.8828,-0.377 -0.7647,0.62 -0.6963,0.696 0.2822,0.917 0.3897,1.009 0.3848,0.82 0.3544,0.637 0.3028,0.464 0.3496,0.462 0.1846,0.356 0.0166,0.249 -1.5245,1.692 -0.249,0.01 -0.374,-0.145 -0.4961,-0.3 -0.4922,-0.253 -0.6709,-0.286 -0.8564,-0.297 -1.044,-0.282 -0.9414,-0.185 -0.6191,0.766 -0.5371,0.825 0.4668,0.838 0.5918,0.906 0.5459,0.723 0.4795,0.549 0.3925,0.39 0.4385,0.38 0.2539,0.311 0.0684,0.24 -1.1387,1.972 -0.2422,0.061 -0.3955,-0.065 -0.5488,-0.19 -0.5332,-0.144 -0.7158,-0.141 -0.8985,-0.112 -1.081,-0.059 -0.959,0.015 -0.4463,0.877 -0.3535,0.92 0.6308,0.722 0.7666,0.763 0.6846,0.593 0.584,0.438 0.4639,0.3 0.5088,0.28 0.3125,0.251 0.1162,0.221 -0.7032,2.166 -0.2236,0.109 -0.4014,0.02 -0.5752,-0.072 -0.5527,-0.031 -0.7295,0.012 -0.9023,0.077 -1.0684,0.167 -0.9355,0.214 -0.2549,0.951 -0.1543,0.973 0.7676,0.575 0.9082,0.587 0.7929,0.438 0.6621,0.307 0.5166,0.197 0.5557,0.168 0.3584,0.181 0.1592,0.191 -0.2373,2.265 -0.1963,0.154 -0.3887,0.102 -0.5771,0.05 -0.5469,0.085 -0.7109,0.163 -0.8672,0.263 -1.0108,0.385 -0.8701,0.404 -0.0517,0.983 0.0517,0.983 0.8701,0.404 1.0108,0.385 0.8672,0.263 0.7109,0.163 0.5469,0.085 0.5771,0.05 0.3887,0.102 0.1963,0.154 0.2373,2.265 -0.1592,0.191 -0.3584,0.181 -0.5557,0.168 -0.5166,0.197 -0.6621,0.307 -0.7929,0.438 -0.9082,0.587 -0.7676,0.575 0.1543,0.973 0.2549,0.951 0.9355,0.214 1.0684,0.167 0.9023,0.077 0.7295,0.012 0.5527,-0.031 0.5752,-0.072 0.4014,0.02 0.2236,0.109 0.7032,2.166 -0.1162,0.221 -0.3125,0.251 -0.5088,0.28 -0.4639,0.3 -0.584,0.438 -0.6846,0.593 -0.7666,0.763 -0.6308,0.722 0.3535,0.92 0.4463,0.877 0.959,0.015 1.081,-0.059 0.8985,-0.112 0.7158,-0.141 0.5332,-0.144 0.5488,-0.19 0.3955,-0.065 0.2422,0.061 1.1387,1.972 -0.0684,0.24 -0.2539,0.311 -0.4385,0.38 -0.3925,0.39 -0.4795,0.549 -0.5459,0.723 -0.5918,0.906 -0.4668,0.838 0.5371,0.825 0.6191,0.766 0.9414,-0.185 1.044,-0.282 0.8564,-0.297 0.6709,-0.286 0.4922,-0.253 0.4961,-0.3 0.374,-0.145 0.249,0.01 1.5245,1.692 -0.0166,0.249 -0.1846,0.356 -0.3496,0.462 -0.3028,0.464 -0.3544,0.637 -0.3848,0.82 -0.3897,1.009 -0.2822,0.917 0.6963,0.696 0.7647,0.62 0.8828,-0.377 0.9629,-0.493 0.7753,-0.467 0.5967,-0.42 0.4287,-0.349 0.4239,-0.396 0.3349,-0.221 0.2461,-0.042 1.8418,1.338 0.0361,0.247 -0.1064,0.386 -0.2461,0.526 -0.1992,0.516 -0.2149,0.697 -0.205,0.883 -0.1719,1.067 -0.085,0.956 0.8252,0.536 0.878,0.447 0.7841,-0.551 0.8399,-0.683 0.6611,-0.619 0.4961,-0.534 0.3467,-0.431 0.332,-0.476 0.2822,-0.286 0.2315,-0.092 2.0801,0.926 0.0869,0.234 -0.0235,0.401 -0.1318,0.565 -0.0879,0.546 -0.0644,0.726 -0.0176,0.906 0.0537,1.08 0.1152,0.952 0.919,0.354 0.9512,0.254 0.6533,-0.702 0.6787,-0.843 0.5176,-0.742 0.375,-0.626 0.25,-0.494 0.2255,-0.535 0.2168,-0.337 0.2071,-0.139 2.2275,0.474 0.1328,0.211 0.0606,0.396 -0.0108,0.58 0.0274,0.553 0.0879,0.724 0.1709,0.889 0.2773,1.046 0.3106,0.9072 0.9726,0.1543 0.9834,0.0518 0.4922,-0.8233 0.4893,-0.965 0.3525,-0.835 0.2353,-0.689 0.1426,-0.535 0.1094,-0.57 0.1416,-0.376 0.1738,-0.178 2.2774,0 0.1738,0.178 0.1416,0.376 0.1094,0.57 0.1426,0.535 0.2353,0.689 0.3525,0.835 0.4893,0.965 0.4922,0.8233 z"
     id="path3356" />
  <path
     d="m -100.416,1.95605 -0.397,-0.1289 -0.363,-0.20899 -0.31,-0.28027 L -101.732,1 l -0.17,-0.381836 -0.087,-0.40918 0,-0.417968 0.087,-0.40918 0.17,-0.381836 0.246,-0.33789 0.31,-0.28027 0.363,-0.20899 0.397,-0.1289 L -100,-2 l 0.416,0.04395 0.3975,0.1289 0.3623,0.20899 0.3105,0.28027 0.2461,0.33789 0.1699,0.381836 0.087,0.40918 0,0.417968 -0.087,0.40918 L -98.2676,1 -98.5137,1.33789 -98.8242,1.61816 -99.1865,1.82715 -99.584,1.95605 -100,2 Z m -0.583,90.94435 0.412,-0.9834 0.342,-0.8916 0.2919,-0.832 0.2431,-0.7686 0.2012,-0.7041 0.1729,-0.6816 0.0664,-0.1563 0.0732,-0.0752 2.2774,-0.0508 0.0761,0.0723 0.0733,0.1533 0.2031,0.6738 0.2314,0.6944 0.2784,0.7568 0.3271,0.8174 0.3818,0.876 0.4551,0.9648 1.0567,-0.0234 1.0507,-0.1172 0.0127,-0.0342 0.3116,-0.9814 0.2617,-0.919 0.2168,-0.8535 0.1748,-0.7871 0.1377,-0.7187 0.1123,-0.6954 0.0527,-0.1611 0.0664,-0.082 2.2627,-0.251 0.083,0.0645 0.0869,0.1464 0.2618,0.6534 0.292,0.6709 0.3437,0.7294 0.3984,0.7862 0.4571,0.8379 0.5195,0.8896 0.0195,0.0313 1.0508,-0.1172 1.0361,-0.209 0.2325,-1.04 0.1806,-0.9385 0.1397,-0.8701 0.1054,-0.7998 0.0733,-0.7276 0.0508,-0.7021 0.0371,-0.1651 0.0596,-0.0879 2.2314,-0.4501 0.0889,0.0576 0.0986,0.1377 0.3184,0.6279 0.3505,0.6426 0.4073,0.6963 0.4658,0.747 0.5303,0.795 0.6172,0.8691 1.0371,-0.209 1.0136,-0.2998 0.0059,-0.0361 0.1338,-1.0215 0.0957,-0.9502 0.0635,-0.8789 0.0332,-0.8057 0.0097,-0.7314 -0.0127,-0.7041 0.0235,-0.168 0.0508,-0.0928 2.1835,-0.6455 0.0938,0.0498 0.1103,0.1289 0.3731,0.5967 0.4053,0.6094 0.4668,0.6572 0.5312,0.7031 0.5977,0.7452 0.6679,0.7841 0.0245,0.0264 1.0136,-0.2998 0.9834,-0.3877 0.0459,-1.0654 0.0117,-0.9551 -0.0156,-0.8809 -0.0371,-0.8056 -0.0557,-0.7305 -0.0742,-0.6992 0.0078,-0.1699 0.043,-0.0967 2.1182,-0.836 0.0966,0.0411 0.1221,0.1181 0.4238,0.5616 0.4581,0.5712 0.5234,0.6143 0.5908,0.6533 0.6611,0.6895 0.7344,0.7217 0.0264,0.0244 0.9834,-0.3877 0.9453,-0.4746 -0.0488,-1.0645 -0.0723,-0.9531 -0.0928,-0.876 -0.1084,-0.7988 -0.1201,-0.7217 -0.1357,-0.6904 -0.0069,-0.17 0.0342,-0.0996 2.0352,-1.0205 0.1006,0.0323 0.1318,0.1074 0.4717,0.5215 0.5068,0.5283 0.5752,0.5654 0.6465,0.5986 0.7197,0.628 0.7949,0.6543 0.0293,0.0224 0.9453,-0.4736 0.8995,-0.5557 -0.1426,-1.0566 -0.1563,-0.9424 -0.1699,-0.8642 -0.1787,-0.7862 -0.1836,-0.709 -0.1963,-0.6757 -0.0215,-0.168 0.0244,-0.1026 1.9376,-1.1962 0.1035,0.0234 0.1406,0.0947 0.5156,0.4785 0.5518,0.4815 0.623,0.5117 0.6963,0.5391 0.7725,0.5625 0.8808,0.6005 0.8994,-0.5546 0.8477,-0.6328 -0.2354,-1.0401 -0.2392,-0.9248 -0.2461,-0.8467 -0.2471,-0.7676 -0.2451,-0.6894 -0.2559,-0.6553 -0.0361,-0.166 0.0156,-0.1045 1.8243,-1.3623 0.1045,0.0137 0.1484,0.083 0.5566,0.4307 0.5918,0.4306 0.666,0.4551 0.7413,0.4756 0.8193,0.4912 0.8984,0.5039 0.0323,0.0166 0.8466,-0.6328 0.7881,-0.7051 -0.3271,-1.0146 -0.3194,-0.9004 -0.3193,-0.8203 -0.3145,-0.7432 -0.3056,-0.665 -0.3115,-0.6309 -0.0518,-0.1621 0.0068,-0.1045 1.6963,-1.5195 0.1055,0.0048 0.1553,0.0694 0.5927,0.3799 0.627,0.3769 0.7041,0.3945 0.7803,0.4083 0.8593,0.4169 0.9727,0.4366 0.7881,-0.7051 0.7226,-0.7725 -0.415,-0.9814 -0.3984,-0.8692 -0.3907,-0.789 -0.3789,-0.7119 -0.3632,-0.6358 -0.3663,-0.6006 -0.0654,-0.1572 -0.0029,-0.1055 1.5566,-1.6621 0.1055,-0.0049 0.1601,0.0557 0.6241,0.3252 0.6582,0.3203 0.7353,0.3311 0.8135,0.3369 0.8926,0.3398 0.9736,0.3379 0.0342,0.0108 0.7227,-0.7715 0.6513,-0.833 -0.5,-0.9414 -0.4736,-0.8301 -0.459,-0.752 -0.4404,-0.6757 -0.417,-0.6016 -0.419,-0.5654 -0.0791,-0.1504 -0.0117,-0.1045 1.4033,-1.794 0.1045,-0.0136 0.1651,0.041 0.6494,0.2695 0.6846,0.2598 0.7617,0.2646 0.8398,0.2647 0.9199,0.2588 1.0342,0.2588 0.6514,-0.8331 0.5752,-0.8867 -0.0186,-0.0312 -0.5625,-0.8623 -0.5449,-0.7852 -0.5234,-0.708 -0.4991,-0.6348 -0.4687,-0.5615 -0.4668,-0.5263 -0.0918,-0.1426 -0.0215,-0.1035 1.2393,-1.9112 0.1025,-0.0224 0.168,0.0254 0.6719,0.2109 0.7041,0.1992 0.7822,0.1963 0.8603,0.1885 0.9385,0.1777 1.0537,0.166 0.5752,-0.8877 0.4942,-0.9345 -0.0215,-0.0293 -0.6367,-0.8096 -0.6124,-0.7334 -0.5839,-0.6592 -0.5518,-0.5879 -0.5176,-0.5176 -0.5107,-0.4834 -0.1045,-0.1347 -0.0303,-0.1006 1.0654,-2.0127 0.1006,-0.0322 0.169,0.0107 0.6875,0.1514 0.7197,0.1357 0.7959,0.126 0.874,0.1123 0.9502,0.0938 1.0645,0.0722 0.4941,-0.9345 0.4102,-0.9747 -0.7295,-0.7773 -0.6748,-0.6768 -0.6397,-0.6045 -0.6025,-0.5371 -0.5606,-0.4707 -0.5517,-0.4355 -0.1162,-0.125 -0.0391,-0.0977 0.8828,-2.0986 0.0977,-0.041 0.1699,-0.0039 0.6973,0.0888 0.7285,0.0723 0.8047,0.0557 0.8808,0.0342 0.9551,0.0087 1.0293,-0.0195 0.0361,-0.0019 0.4102,-0.9746 0.3223,-1.0069 -0.0264,-0.0254 -0.7686,-0.6845 -0.7324,-0.6143 -0.6904,-0.5469 -0.6475,-0.4804 -0.6006,-0.419 -0.5879,-0.3857 -0.1259,-0.1143 -0.0479,-0.0937 0.6944,-2.169 0.0927,-0.0488 0.169,-0.0195 0.7031,0.0273 0.7324,0.0068 0.8057,-0.0156 0.8799,-0.043 0.9521,-0.0752 1.0606,-0.1162 0.3222,-1.0078 0.2315,-1.0312 -0.0283,-0.0225 -0.8262,-0.6142 -0.7832,-0.5469 -0.7373,-0.4834 -0.6865,-0.4219 -0.6348,-0.3643 -0.6201,-0.332 -0.1358,-0.1025 -0.0556,-0.0899 0.499,-2.2217 0.0889,-0.0566 0.166,-0.0342 0.7031,-0.0342 0.7295,-0.0576 0.8017,-0.0879 0.8731,-0.1211 0.9414,-0.1591 1.0459,-0.209 0.23144,-1.0313 0.14063,-1.0478 -0.03125,-0.0205 -0.87696,-0.5391 -0.82816,-0.4756 -0.7773,-0.416 -0.7217,-0.3594 -0.664,-0.3066 -0.6475,-0.2764 -0.1445,-0.0898 -0.0625,-0.084 0.3007,-2.2578 0.083,-0.0645 0.1631,-0.0488 0.6973,-0.0967 0.7217,-0.1211 0.791,-0.1582 L -9.50391,9.80566 -8.58008,9.56348 -7.55762,9.2627 -7.41699,8.21484 -7.37012,7.1582 -8.32422,6.68164 -9.19141,6.28125 -10.002,5.93555 -10.7529,5.6416 -11.4414,5.39355 -12.1104,5.17578 -12.2617,5.09961 -12.333,5.02148 -12.2324,2.74609 -12.1543,2.6748 -11.9971,2.61133 -11.3115,2.4541 -10.6035,2.26855 -9.8291,2.04199 -8.99219,1.76855 -8.09277,1.44629 -7.10059,1.05664 -7.05371,0 -7.10059,-1.05664 -8.09277,-1.44629 -8.99219,-1.76855 -9.8291,-2.04199 l -0.7744,-0.22656 -0.708,-0.18555 -0.6856,-0.15723 -0.1572,-0.06347 -0.0781,-0.07129 -0.1006,-2.27539 0.0713,-0.07813 0.1513,-0.07617 0.669,-0.21777 0.6885,-0.24805 0.7509,-0.29395 0.81059,-0.3457 0.86719,-0.40039 0.9541,-0.47656 -0.04687,-1.05664 -0.14063,-1.04786 -1.02246,-0.30078 -0.92383,-0.24218 -0.85839,-0.19724 -0.791,-0.1582 -0.7217,-0.1211 -0.6973,-0.0967 -0.1631,-0.0488 -0.083,-0.0645 -0.3007,-2.2578 0.0625,-0.084 0.1445,-0.0898 0.6475,-0.2764 0.664,-0.3066 0.7217,-0.3594 0.7773,-0.416 0.82816,-0.4756 0.87696,-0.5391 0.03125,-0.0205 -0.14063,-1.0478 -0.23144,-1.0313 -1.0459,-0.209 -0.9414,-0.1591 -0.8731,-0.1211 -0.8017,-0.0879 -0.7295,-0.0576 -0.7031,-0.0342 -0.166,-0.0342 -0.0889,-0.0566 -0.499,-2.2217 0.0556,-0.0899 0.1358,-0.1025 0.6201,-0.332 0.6348,-0.3643 0.6865,-0.4219 0.7373,-0.4834 0.7832,-0.5469 0.8262,-0.6142 0.0283,-0.0225 -0.2315,-1.0312 -0.3222,-1.0078 -1.0606,-0.1162 -0.9521,-0.0752 -0.8799,-0.043 -0.8057,-0.0156 -0.7324,0.0068 -0.7031,0.0273 -0.169,-0.0195 -0.0927,-0.0488 -0.6944,-2.169 0.0479,-0.0937 0.1259,-0.1143 0.5879,-0.3857 0.6006,-0.419 0.6475,-0.4804 0.6904,-0.5469 0.7324,-0.6143 0.7686,-0.6845 0.0264,-0.0254 -0.3223,-1.0069 -0.4102,-0.9746 -0.0361,-0.0019 -1.0293,-0.0195 -0.9551,0.0087 -0.8808,0.0342 -0.8047,0.0557 -0.7285,0.0723 -0.6973,0.0888 -0.1699,-0.0039 -0.0977,-0.041 -0.8828,-2.0986 0.0391,-0.0977 0.1162,-0.125 0.5517,-0.4355 0.5606,-0.4707 0.6025,-0.5371 0.6397,-0.6045 0.6748,-0.6768 0.7295,-0.7773 -0.4102,-0.9747 -0.4941,-0.9345 -1.0645,0.0722 -0.9502,0.0938 -0.874,0.1123 -0.7959,0.126 -0.7197,0.1357 -0.6875,0.1514 -0.169,0.0107 -0.1006,-0.0322 -1.0654,-2.0127 0.0303,-0.1006 0.1045,-0.1347 0.5107,-0.4834 0.5176,-0.5176 0.5518,-0.5879 0.5839,-0.6592 0.6124,-0.7334 0.6367,-0.8096 0.0215,-0.0293 -0.4942,-0.9345 -0.5752,-0.8877 -1.0537,0.166 -0.9385,0.1777 -0.8603,0.1885 -0.7822,0.1963 -0.7041,0.1992 -0.6719,0.2109 -0.168,0.0254 -0.1025,-0.0224 -1.2393,-1.9112 0.0215,-0.1035 0.0918,-0.1426 0.4668,-0.5263 0.4687,-0.5615 0.4991,-0.6348 0.5234,-0.708 0.5449,-0.7852 0.5625,-0.8623 0.0186,-0.0312 -0.5752,-0.8867 -0.6514,-0.8331 -1.0342,0.2588 -0.9199,0.2588 -0.8398,0.2647 -0.7617,0.2646 -0.6846,0.2598 -0.6494,0.2695 -0.1651,0.041 -0.1045,-0.0136 -1.4033,-1.794 0.0117,-0.1045 0.0791,-0.1504 0.419,-0.5654 0.417,-0.6016 0.4404,-0.6757 0.459,-0.752 0.4736,-0.8301 0.5,-0.9414 -0.6513,-0.833 -0.7227,-0.7715 -0.0342,0.0108 -0.9736,0.3379 -0.8926,0.3398 -0.8135,0.3369 -0.7353,0.3311 -0.6582,0.3203 -0.6241,0.3252 -0.1601,0.0557 -0.1055,-0.0049 -1.5566,-1.6621 0.0029,-0.1055 0.0654,-0.1572 0.3663,-0.6006 0.3632,-0.6358 0.3789,-0.7119 0.3907,-0.789 0.3984,-0.8692 0.415,-0.9814 -0.7226,-0.7725 -0.7881,-0.7051 -0.9727,0.4366 -0.8593,0.4169 -0.7803,0.4083 -0.7041,0.3945 -0.627,0.3769 -0.5927,0.3799 -0.1553,0.0694 -0.1055,0.0048 -1.6963,-1.5195 -0.0068,-0.1045 0.0518,-0.1621 0.3115,-0.6309 0.3056,-0.665 0.3145,-0.7432 0.3193,-0.8203 0.3194,-0.9004 0.3271,-1.0146 -0.7881,-0.7051 -0.8466,-0.6328 -0.0323,0.0166 -0.8984,0.5039 -0.8193,0.4912 -0.7413,0.4756 -0.666,0.4551 -0.5918,0.4306 -0.5566,0.4307 -0.1484,0.083 -0.1045,0.0137 -1.8243,-1.3623 -0.0156,-0.1045 0.0361,-0.166 0.2559,-0.6553 0.2451,-0.6894 0.2471,-0.7676 0.2461,-0.8467 0.2392,-0.9248 0.2354,-1.0401 -0.8477,-0.6328 -0.8994,-0.5546 -0.8808,0.6005 -0.7725,0.5625 -0.6963,0.5391 -0.623,0.5117 -0.5518,0.4815 -0.5156,0.4785 -0.1406,0.0947 -0.1035,0.0234 -1.9376,-1.1962 -0.0244,-0.1026 0.0215,-0.168 0.1963,-0.6757 0.1836,-0.709 0.1787,-0.7862 0.1699,-0.8642 0.1563,-0.9424 0.1426,-1.0566 -0.8995,-0.5557 -0.9453,-0.4736 -0.0293,0.0224 -0.7949,0.6543 -0.7197,0.628 -0.6465,0.5986 -0.5752,0.5654 -0.5068,0.5283 -0.4717,0.5215 -0.1318,0.1074 -0.1006,0.0323 -2.0352,-1.0205 -0.0342,-0.0996 0.0069,-0.17 0.1357,-0.6904 0.1201,-0.7217 0.1084,-0.7988 0.0928,-0.876 0.0723,-0.9531 0.0488,-1.0645 -0.9453,-0.4746 -0.9834,-0.3877 -0.0264,0.0244 -0.7344,0.7217 -0.6611,0.6895 -0.5908,0.6533 -0.5234,0.6143 -0.4581,0.5712 -0.4238,0.5616 -0.1221,0.1181 -0.0966,0.0411 -2.1182,-0.836 -0.043,-0.0967 -0.0078,-0.1699 0.0742,-0.6992 0.0557,-0.7305 0.0371,-0.8056 0.0156,-0.8809 -0.0117,-0.9551 -0.0459,-1.0654 -0.9834,-0.3877 -1.0136,-0.2998 -0.0245,0.0264 -0.6679,0.7841 -0.5977,0.7452 -0.5312,0.7031 -0.4668,0.6572 -0.4053,0.6094 -0.3731,0.5967 -0.1103,0.1289 -0.0938,0.0498 -2.1835,-0.6455 -0.0508,-0.0928 -0.0235,-0.168 0.0127,-0.7041 -0.0097,-0.7314 -0.0332,-0.8057 -0.0635,-0.8789 -0.0957,-0.9502 -0.1338,-1.0215 -0.0059,-0.0361 -1.0136,-0.2998 -1.0371,-0.209 -0.6172,0.8691 -0.5303,0.795 -0.4658,0.747 -0.4073,0.6963 -0.3505,0.6426 -0.3184,0.6279 -0.0986,0.1377 -0.0889,0.0576 -2.2314,-0.4501 -0.0596,-0.0879 -0.0371,-0.1651 -0.0508,-0.7021 -0.0733,-0.7276 -0.1054,-0.7998 -0.1397,-0.8701 -0.1806,-0.9385 -0.2325,-1.04 -1.0361,-0.209 -1.0508,-0.1172 -0.0195,0.0313 -0.5195,0.8896 -0.4571,0.8379 -0.3984,0.7862 -0.3437,0.7294 -0.292,0.6709 -0.2618,0.6534 -0.0869,0.1464 -0.083,0.0645 -2.2627,-0.251 -0.0664,-0.082 -0.0527,-0.1611 -0.1123,-0.6954 -0.1377,-0.7187 -0.1748,-0.7871 -0.2168,-0.8535 -0.2617,-0.919 -0.3116,-0.9814 -0.0127,-0.0342 -1.0507,-0.1172 -1.0567,-0.0234 -0.4551,0.9648 -0.3818,0.876 -0.3271,0.8174 -0.2784,0.7568 -0.2314,0.6944 -0.2031,0.6738 -0.0733,0.1533 -0.0761,0.0723 -2.2774,-0.0508 -0.0732,-0.0752 -0.0664,-0.1563 -0.1729,-0.6816 -0.2012,-0.7041 -0.2431,-0.7686 -0.2919,-0.832 -0.342,-0.8916 -0.412,-0.9834 -1.058,-0.0234 -1.054,0.0703 -0.014,0.0332 -0.354,0.9668 -0.303,0.9062 -0.254,0.8438 -0.21,0.7783 -0.169,0.7129 -0.143,0.6885 -0.059,0.1592 -0.071,0.0791 -2.271,0.1503 -0.08,-0.0683 -0.08,-0.1494 -0.233,-0.6641 -0.262,-0.6836 -0.311,-0.7441 -0.364,-0.8028 -0.419,-0.8584 -0.48,-0.9111 -0.018,-0.0312 -1.055,0.0703 -1.045,0.1631 -0.278,1.0283 -0.221,0.9297 -0.178,0.8623 -0.141,0.7949 -0.105,0.7236 -0.082,0.6992 -0.044,0.1641 -0.064,0.084 -2.25,0.3516 -0.085,-0.0616 -0.093,-0.1425 -0.291,-0.6407 -0.321,-0.6572 -0.376,-0.7139 -0.433,-0.7666 -0.494,-0.8183 -0.579,-0.8955 -1.044,0.163 -1.026,0.2549 -0.187,1.0498 -0.137,0.9453 -0.102,0.875 -0.069,0.8038 -0.042,0.7304 -0.02,0.7032 -0.029,0.1669 -0.056,0.0909 -2.21,0.5488 -0.091,-0.0537 -0.105,-0.1338 -0.346,-0.6133 -0.378,-0.626 -0.437,-0.6777 -0.499,-0.7256 -0.565,-0.7715 -0.655,-0.8408 -1.026,0.2549 -1,0.3447 -0.093,1.0625 -0.054,0.9531 -0.024,0.8809 0.002,0.8066 0.023,0.7315 0.043,0.7021 -0.015,0.169 -0.047,0.0947 -2.153,0.7422 -0.095,-0.0459 -0.117,-0.123 -0.398,-0.5801 -0.433,-0.5908 -0.495,-0.6368 -0.561,-0.6787 -0.63,-0.7177 -0.702,-0.754 -0.026,-0.0253 -1,0.3447 -0.964,0.4306 -10e-4,0.0372 10e-4,1.0293 0.031,0.955 0.054,0.8789 0.074,0.8037 0.088,0.7266 0.104,0.6953 0,0.1699 -0.039,0.0987 -2.079,0.9287 -0.099,-0.0371 -0.127,-0.1123 -0.448,-0.542 -0.482,-0.5508 -0.55,-0.5898 -0.619,-0.627 -0.692,-0.6592 -0.793,-0.7119 -0.965,0.4316 -0.923,0.5147 0.002,0.0361 0.093,1.0254 0.115,0.9492 0.131,0.8702 0.144,0.7939 0.151,0.7158 0.167,0.6836 0.014,0.1699 -0.029,0.1006 -1.989,1.1094 -0.102,-0.0273 -0.136,-0.1016 -0.494,-0.5 -0.53,-0.5059 -0.6,-0.539 -0.672,-0.5694 -0.747,-0.5957 -0.853,-0.6396 -0.923,0.5156 -0.874,0.5938 0.005,0.0361 0.184,1.0137 0.198,0.9345 0.208,0.8555 0.213,0.7783 0.214,0.7002 0.227,0.666 0.029,0.167 -0.02,0.1035 -1.883,1.2813 -0.105,-0.0195 -0.144,-0.0889 -0.536,-0.4541 -0.573,-0.457 -0.645,-0.4844 -0.72,-0.5078 -0.797,-0.5274 -0.875,-0.5429 -0.031,-0.0176 -0.874,0.5937 -0.818,0.67 0.281,1.0283 0.28,0.914 0.282,0.834 0.282,0.7559 0.275,0.6777 0.284,0.6436 0.044,0.164 -0.011,0.1055 -1.762,1.4424 -0.106,-0.0098 -0.151,-0.0762 -0.575,-0.4052 -0.611,-0.4043 -0.685,-0.4248 -0.762,-0.4424 -0.84,-0.4551 -0.952,-0.4795 -0.818,0.6699 -0.756,0.7393 0.371,1 0.359,0.8848 0.356,0.8056 0.347,0.7285 0.334,0.6514 0.339,0.6162 0.059,0.1592 -0.002,0.1055 -1.628,1.5918 -0.105,0 -0.159,-0.0616 -0.608,-0.3535 -0.644,-0.3486 -0.719,-0.3633 -0.799,-0.373 -0.877,-0.3789 -0.956,-0.3809 -0.034,-0.0117 -0.756,0.7392 -0.688,0.8028 0.015,0.0332 0.442,0.9297 0.437,0.8496 0.426,0.7715 0.409,0.6943 0.39,0.6191 0.394,0.584 0.072,0.1533 0.007,0.1055 -1.48,1.7305 -0.106,0.0088 -0.163,-0.0479 -0.637,-0.2978 -0.672,-0.2901 -0.75,-0.2988 -0.828,-0.3008 -0.906,-0.2998 -0.987,-0.2949 -0.035,-0.0088 -0.688,0.8027 -0.613,0.8614 0.541,0.9179 0.51,0.8086 0.491,0.7305 0.47,0.6553 0.444,0.583 0.442,0.5459 0.086,0.1465 0.017,0.1045 -1.322,1.8544 -0.105,0.0186 -0.166,-0.0332 -0.661,-0.2412 -0.695,-0.2295 -0.773,-0.2305 -0.851,-0.2265 -0.93,-0.2188 -1.045,-0.2129 -0.614,0.8613 -0.535,0.9112 0.62,0.8672 0.579,0.7597 0.554,0.6846 0.527,0.6113 0.493,0.541 0.489,0.5059 0.099,0.1377 0.025,0.1025 -1.153,1.9639 -0.102,0.0274 -0.169,-0.0186 -0.679,-0.1807 -0.713,-0.1679 -0.79,-0.1612 -0.868,-0.1504 -0.946,-0.1357 -1.023,-0.1162 -0.036,-0.0029 -0.535,0.9111 -0.453,0.956 0.694,0.8086 0.644,0.7061 0.613,0.6328 0.578,0.5625 0.539,0.4951 0.532,0.46 0.11,0.1289 0.035,0.0996 -0.975,2.0586 -0.1,0.0361 -0.169,-0.0039 -0.693,-0.1201 -0.724,-0.1035 -0.802,-0.0908 -0.878,-0.0743 -0.953,-0.0507 -1.067,-0.0254 -0.452,0.9551 -0.367,0.9921 0.025,0.0264 0.739,0.7178 0.704,0.6465 0.666,0.5761 0.625,0.5088 0.581,0.4453 0.57,0.4121 0.121,0.1182 0.044,0.0967 -0.789,2.1357 -0.096,0.045 -0.17,0.0117 -0.701,-0.0586 -0.73,-0.0391 -0.807,-0.0195 -0.881,0.0039 -0.954,0.0332 -1.064,0.0693 -0.366,0.9912 -0.278,1.0206 0.826,0.6738 0.758,0.582 0.715,0.5147 0.668,0.4521 0.618,0.3926 0.605,0.3594 0.131,0.1074 0.051,0.0918 -0.597,2.1972 -0.091,0.0538 -0.168,0.0263 -0.703,0.0039 -0.732,0.0254 -0.804,0.0508 -0.878,0.083 -0.948,0.1172 -1.018,0.1562 -0.035,0.0069 -0.278,1.0195 -0.186,1.041 0.029,0.0215 0.854,0.5772 0.805,0.5117 0.758,0.4502 0.705,0.3916 0.651,0.3359 0.634,0.3047 0.14,0.0957 0.06,0.0869 -0.401,2.2412 -0.087,0.0616 -0.164,0.041 -0.701,0.0654 -0.727,0.0898 -0.796,0.1231 -0.867,0.1592 -0.933,0.2011 -1,0.2452 -0.035,0.0097 -0.187,1.041 -0.094,1.0528 0.032,0.0185 0.901,0.5 0.849,0.4385 0.794,0.38087 0.737,0.32812 0.677,0.27735 0.659,0.24707 0.147,0.083 0.068,0.08106 -0.202,2.26855 -0.08,0.06836 -0.161,0.05567 -0.691,0.12793 -0.716,0.15332 -0.783,0.19238 -0.849,0.23535 -0.913,0.28223 -1.008,0.34668 -0.093,1.05273 0,1.05762 0.973,0.43359 0.885,0.36133 0.824,0.30957 0.764,0.26172 0.699,0.21582 0.678,0.18848 0.154,0.06933 0.074,0.0752 0,2.27734 -0.074,0.0752 -0.154,0.06933 -0.678,0.18848 -0.699,0.21582 -0.764,0.26172 -0.824,0.30957 -0.885,0.36133 -0.973,0.43359 0,1.05762 0.093,1.05273 1.008,0.34668 0.913,0.28223 0.849,0.23535 0.783,0.19238 0.716,0.15332 0.691,0.12793 0.161,0.05567 0.08,0.06836 0.202,2.26855 -0.068,0.08106 -0.147,0.083 -0.659,0.24707 -0.677,0.27735 -0.737,0.32812 -0.794,0.38087 -0.849,0.4385 -0.901,0.5 -0.032,0.0185 0.094,1.0528 0.187,1.041 0.035,0.0097 1,0.2452 0.933,0.2011 0.867,0.1592 0.796,0.1231 0.727,0.0898 0.701,0.0654 0.164,0.041 0.087,0.0616 0.401,2.2412 -0.06,0.0869 -0.14,0.0957 -0.634,0.3047 -0.651,0.3359 -0.705,0.3916 -0.758,0.4502 -0.805,0.5117 -0.854,0.5772 -0.029,0.0215 0.186,1.041 0.278,1.0195 0.035,0.0069 1.018,0.1562 0.948,0.1172 0.878,0.083 0.804,0.0508 0.732,0.0254 0.703,0.0039 0.168,0.0263 0.091,0.0538 0.597,2.1972 -0.051,0.0918 -0.131,0.1074 -0.605,0.3594 -0.618,0.3926 -0.668,0.4521 -0.715,0.5147 -0.758,0.582 -0.826,0.6738 0.278,1.0206 0.366,0.9912 1.064,0.0693 0.954,0.0332 0.881,0.0039 0.807,-0.0195 0.73,-0.0391 0.701,-0.0586 0.17,0.0117 0.096,0.045 0.789,2.1357 -0.044,0.0967 -0.121,0.1182 -0.57,0.4121 -0.581,0.4453 -0.625,0.5088 -0.666,0.5761 -0.704,0.6465 -0.739,0.7178 -0.025,0.0264 0.367,0.9921 0.452,0.9551 1.067,-0.0254 0.953,-0.0507 0.878,-0.0743 0.802,-0.0908 0.724,-0.1035 0.693,-0.1201 0.169,-0.0039 0.1,0.0361 0.975,2.0586 -0.035,0.0996 -0.11,0.1289 -0.532,0.46 -0.539,0.4951 -0.578,0.5625 -0.613,0.6328 -0.644,0.7061 -0.694,0.8086 0.453,0.956 0.535,0.9111 0.036,-0.0029 1.023,-0.1162 0.946,-0.1357 0.868,-0.1504 0.79,-0.1612 0.713,-0.1679 0.679,-0.1807 0.169,-0.0186 0.102,0.0274 1.153,1.9639 -0.025,0.1025 -0.099,0.1377 -0.489,0.5059 -0.493,0.541 -0.527,0.6113 -0.554,0.6846 -0.579,0.7597 -0.62,0.8672 0.535,0.9112 0.614,0.8613 1.045,-0.2129 0.93,-0.2188 0.851,-0.2265 0.773,-0.2305 0.695,-0.2295 0.661,-0.2412 0.166,-0.0332 0.105,0.0186 1.322,1.8544 -0.017,0.1045 -0.086,0.1465 -0.442,0.5459 -0.444,0.583 -0.47,0.6553 -0.491,0.7305 -0.51,0.8086 -0.541,0.9179 0.613,0.8614 0.688,0.8027 0.035,-0.0088 0.987,-0.2949 0.906,-0.2998 0.828,-0.3008 0.75,-0.2988 0.672,-0.2901 0.637,-0.2978 0.163,-0.0479 0.106,0.0088 1.48,1.7305 -0.007,0.1055 -0.072,0.1533 -0.394,0.584 -0.39,0.6191 -0.409,0.6943 -0.426,0.7715 -0.437,0.8496 -0.442,0.9297 -0.015,0.0332 0.688,0.8028 0.756,0.7392 0.034,-0.0117 0.956,-0.3809 0.877,-0.3789 0.799,-0.373 0.719,-0.3633 0.644,-0.3486 0.608,-0.3535 0.159,-0.0616 0.105,0 1.628,1.5918 0.002,0.1055 -0.059,0.1592 -0.339,0.6162 -0.334,0.6514 -0.347,0.7285 -0.356,0.8056 -0.359,0.8848 -0.371,1 0.756,0.7393 0.818,0.6699 0.952,-0.4795 0.84,-0.4551 0.762,-0.4424 0.685,-0.4248 0.611,-0.4043 0.575,-0.4052 0.151,-0.0762 0.106,-0.0098 1.762,1.4424 0.011,0.1055 -0.044,0.164 -0.284,0.6436 -0.275,0.6777 -0.282,0.7559 -0.282,0.834 -0.28,0.914 -0.281,1.0283 0.818,0.67 0.874,0.5937 0.031,-0.0176 0.875,-0.5429 0.797,-0.5274 0.72,-0.5078 0.645,-0.4844 0.573,-0.457 0.536,-0.4541 0.144,-0.0889 0.105,-0.0195 1.883,1.2813 0.02,0.1035 -0.029,0.167 -0.227,0.666 -0.214,0.7002 -0.213,0.7783 -0.208,0.8555 -0.198,0.9345 -0.184,1.0137 -0.005,0.0361 0.874,0.5938 0.923,0.5156 0.853,-0.6396 0.747,-0.5957 0.672,-0.5694 0.6,-0.539 0.53,-0.5059 0.494,-0.5 0.136,-0.1016 0.102,-0.0273 1.989,1.1094 0.029,0.1006 -0.014,0.1699 -0.167,0.6836 -0.151,0.7158 -0.144,0.7939 -0.131,0.8702 -0.115,0.9492 -0.093,1.0254 -0.002,0.0361 0.923,0.5147 0.965,0.4316 0.793,-0.7119 0.692,-0.6592 0.619,-0.627 0.55,-0.5898 0.482,-0.5508 0.448,-0.542 0.127,-0.1123 0.099,-0.0371 2.079,0.9287 0.039,0.0987 0,0.1699 -0.104,0.6953 -0.088,0.7266 -0.074,0.8037 -0.054,0.8789 -0.031,0.955 -10e-4,1.0293 10e-4,0.0372 0.964,0.4306 1,0.3447 0.026,-0.0253 0.702,-0.754 0.63,-0.7177 0.561,-0.6787 0.495,-0.6368 0.433,-0.5908 0.398,-0.5801 0.117,-0.123 0.095,-0.0459 2.153,0.7422 0.047,0.0947 0.015,0.169 -0.043,0.7021 -0.023,0.7315 -0.002,0.8066 0.024,0.8809 0.054,0.9531 0.093,1.0625 1,0.3447 1.026,0.2549 0.655,-0.8408 0.565,-0.7715 0.499,-0.7256 0.437,-0.6777 0.378,-0.626 0.346,-0.6133 0.105,-0.1338 0.091,-0.0537 2.21,0.5488 0.056,0.0909 0.029,0.1669 0.02,0.7032 0.042,0.7304 0.069,0.8038 0.102,0.875 0.137,0.9453 0.187,1.0498 1.026,0.2549 1.044,0.163 0.579,-0.8955 0.494,-0.8183 0.433,-0.7666 0.376,-0.7139 0.321,-0.6572 0.291,-0.6407 0.093,-0.1425 0.085,-0.0616 2.25,0.3516 0.064,0.084 0.044,0.1641 0.082,0.6992 0.105,0.7236 0.141,0.7949 0.178,0.8623 0.221,0.9297 0.278,1.0283 1.045,0.1631 1.055,0.0703 0.018,-0.0312 0.48,-0.9111 0.419,-0.8584 0.364,-0.8028 0.311,-0.7441 0.262,-0.6836 0.233,-0.6641 0.08,-0.1494 0.08,-0.0683 2.271,0.1503 0.071,0.0791 0.059,0.1592 0.143,0.6885 0.169,0.7129 0.21,0.7783 0.254,0.8438 0.303,0.9062 0.354,0.9668 0.014,0.0332 1.054,0.0703 z"
     id="path3352" />
  <path
     d="M 59.584,1.95605 59.1865,1.82715 58.8242,1.61816 58.5137,1.33789 58.2676,1 58.0977,0.618164 l -0.087,-0.40918 0,-0.417968 0.087,-0.40918 L 58.2676,-1 58.5137,-1.33789 58.8242,-1.61816 59.1865,-1.82715 59.584,-1.95605 60,-2 l 0.416,0.04395 0.3975,0.1289 0.3623,0.20899 0.3105,0.28027 0.2461,0.33789 0.1699,0.381836 0.087,0.40918 0,0.417968 -0.087,0.40918 L 61.7324,1 61.4863,1.33789 61.1758,1.61816 60.8135,1.82715 60.416,1.95605 60,2 Z m -0.6299,60.36325 0.418,-0.9121 0.3769,-0.9287 0.2979,-0.8398 0.2265,-0.7432 0.1661,-0.6445 0.1347,-0.6436 0.0918,-0.2392 0.1094,-0.1162 2.2754,-0.0762 0.1162,0.1084 0.1074,0.2334 0.1777,0.6328 0.209,0.6318 0.2754,0.7266 0.3535,0.8174 0.4375,0.9023 0.4786,0.8819 1.039,-0.0352 1.0254,-0.1729 0.292,-0.9599 0.25,-0.9707 0.1826,-0.8711 0.126,-0.7676 0.0781,-0.6601 0.0479,-0.6563 0.0595,-0.249 0.0928,-0.1299 2.2451,-0.3789 0.1299,0.0928 0.1377,0.2158 0.2608,0.6035 0.29,0.5986 0.3711,0.6836 0.458,0.7627 0.5547,0.836 0.5908,0.8105 1.0254,-0.1728 0.9932,-0.3086 0.1621,-0.9903 0.1181,-0.9951 0.0655,-0.8877 0.0214,-0.7773 -0.0097,-0.6651 -0.0401,-0.6562 0.0254,-0.2549 0.0742,-0.1416 2.1749,-0.6748 0.1416,0.0742 0.165,0.1963 0.3389,0.5635 0.3671,0.5547 0.459,0.6279 0.5557,0.6953 0.6611,0.7539 0.6934,0.7246 0.9932,-0.3086 0.9433,-0.4375 0.0283,-1.0029 -0.0156,-1.002 -0.0537,-0.8886 -0.0811,-0.7735 -0.0996,-0.6582 -0.1259,-0.6445 -0.0098,-0.2568 0.0547,-0.1495 2.0664,-0.958 0.1494,0.0547 0.1895,0.1719 0.4111,0.5137 0.4385,0.5 0.538,0.5615 0.6436,0.6143 0.7549,0.6601 0.7851,0.625 0.9424,-0.4375 0.877,-0.5596 -0.1055,-0.998 -0.1494,-0.9912 -0.1709,-0.8731 -0.1846,-0.7558 -0.1855,-0.6387 -0.2119,-0.6221 -0.043,-0.2529 0.0352,-0.1562 1.9189,-1.2247 0.1553,0.0342 0.2119,0.1455 0.4746,0.4541 0.5019,0.4375 0.6075,0.4844 0.7207,0.5235 0.8359,0.5527 0.8613,0.5156 0.876,-0.5596 0.794,-0.6718 -0.2373,-0.9746 -0.2803,-0.9629 -0.2862,-0.8428 -0.2832,-0.7236 -0.2695,-0.6084 -0.292,-0.5889 -0.0771,-0.2451 0.0136,-0.1582 1.7393,-1.4707 0.1592,0.0136 0.2285,0.1163 0.5312,0.3857 0.5547,0.3672 0.668,0.3994 0.7833,0.4228 0.902,0.4366 0.922,0.3955 0.794,-0.6709 0.697,-0.7715 -0.364,-0.9346 -0.406,-0.916 -0.397,-0.7978 -0.377,-0.6797 -0.347,-0.5674 -0.369,-0.544 -0.109,-0.2324 -0.008,-0.1592 1.528,-1.6884 0.16,-0.0088 0.241,0.0849 0.579,0.3116 0.599,0.29 0.715,0.3066 0.832,0.3145 0.953,0.3125 0.967,0.2695 0.697,-0.7715 0.588,-0.8564 -0.487,-0.8779 -0.524,-0.8545 -0.499,-0.7373 -0.464,-0.6241 -0.421,-0.5146 -0.437,-0.4912 -0.139,-0.2158 -0.028,-0.1563 1.288,-1.8779 0.157,-0.0283 0.251,0.0507 0.615,0.2325 0.632,0.207 0.749,0.209 0.867,0.2012 0.987,0.1816 0.993,0.1387 0.589,-0.8575 0.468,-0.9277 -0.598,-0.8047 -0.634,-0.7773 -0.593,-0.6641 -0.544,-0.5556 -0.485,-0.4551 -0.499,-0.4278 -0.166,-0.1953 -0.05,-0.1513 1.027,-2.0332 0.152,-0.0498 0.256,0.0175 0.64,0.1485 0.655,0.1211 0.769,0.1074 0.887,0.083 1.001,0.0498 1.004,0.0049 0.468,-0.9287 0.341,-0.9815 -0.701,-0.7178 -0.731,-0.6855 -0.676,-0.5791 -0.612,-0.4795 -0.542,-0.3857 -0.552,-0.3575 -0.191,-0.1718 -0.069,-0.1436 0.747,-2.1514 0.144,-0.0693 0.255,-0.0166 0.655,0.0615 0.664,0.0332 0.777,0.003 0.89,-0.0352 0.999,-0.0849 0.995,-0.129 0.341,-0.9824 0.207,-1.0185 -0.79,-0.6182 -0.817,-0.582 -0.747,-0.4834 -0.671,-0.3936 -0.588,-0.3105 -0.594,-0.2803 -0.212,-0.1445 -0.088,-0.1328 0.453,-2.2315 0.133,-0.0879 0.252,-0.0508 0.656,-0.0263 0.663,-0.0567 0.772,-0.09958 0.877,-0.1543 0.978,-0.21679 0.969,-0.26075 0.207,-1.01855 0.069,-1.03711 -0.865,-0.50684 -0.887,-0.46875 -0.804,-0.37988 -0.718,-0.2998 -0.625,-0.2295 -0.626,-0.19824 -0.23,-0.11523 -0.104,-0.12012 0.152,-2.27246 0.119,-0.10449 0.244,-0.08399 0.647,-0.11328 0.65,-0.14453 0.75,-0.20215 0.849,-0.26855 0.941,-0.34571 0.925,-0.38769 0.07,-1.03711 -0.07,-1.03711 -0.925,-0.38769 -0.941,-0.34571 -0.849,-0.26855 -0.75,-0.20215 -0.65,-0.14453 -0.647,-0.11328 -0.244,-0.08399 -0.119,-0.10449 -0.152,-2.27246 0.104,-0.12012 0.23,-0.11523 0.626,-0.19824 0.625,-0.2295 0.718,-0.2998 0.804,-0.37988 0.887,-0.46875 0.865,-0.50684 -0.069,-1.03711 -0.207,-1.01855 -0.969,-0.26075 -0.978,-0.21679 -0.877,-0.1543 -0.772,-0.09958 -0.663,-0.0567 -0.656,-0.0263 -0.252,-0.0508 -0.133,-0.0879 -0.453,-2.2315 0.088,-0.1328 0.212,-0.1445 0.594,-0.2803 0.588,-0.3105 0.671,-0.3936 0.747,-0.4834 0.817,-0.582 0.79,-0.6182 -0.207,-1.0185 -0.341,-0.9824 -0.995,-0.129 -0.999,-0.0849 -0.89,-0.0352 -0.777,0.003 -0.664,0.0332 -0.655,0.0615 -0.255,-0.0166 -0.144,-0.0693 -0.747,-2.1514 0.069,-0.1436 0.191,-0.1718 0.552,-0.3575 0.542,-0.3857 0.612,-0.4795 0.676,-0.5791 0.731,-0.6855 0.701,-0.7178 -0.341,-0.9815 -0.468,-0.9287 -1.004,0.0049 -1.001,0.0498 -0.887,0.083 -0.769,0.1074 -0.655,0.1211 -0.64,0.1485 -0.256,0.0175 -0.152,-0.0498 -1.027,-2.0332 0.05,-0.1513 0.166,-0.1953 0.499,-0.4278 0.485,-0.4551 0.544,-0.5556 0.593,-0.6641 0.634,-0.7773 0.598,-0.8047 -0.468,-0.9277 -0.589,-0.8575 -0.993,0.1387 -0.987,0.1816 -0.867,0.2012 -0.749,0.209 -0.632,0.207 -0.615,0.2325 -0.251,0.0507 -0.157,-0.0283 -1.288,-1.8779 0.028,-0.1563 0.139,-0.2158 0.437,-0.4912 0.421,-0.5146 0.464,-0.6241 0.499,-0.7373 0.524,-0.8545 0.487,-0.8779 -0.588,-0.8564 -0.697,-0.7715 -0.967,0.2695 -0.953,0.3125 -0.832,0.3145 -0.715,0.3066 -0.599,0.29 -0.579,0.3116 -0.241,0.0849 -0.16,-0.0088 -1.528,-1.6884 0.008,-0.1592 0.109,-0.2324 0.369,-0.544 0.347,-0.5674 0.377,-0.6797 0.397,-0.7978 0.406,-0.916 0.364,-0.9346 -0.697,-0.7715 -0.794,-0.6709 -0.922,0.3955 -0.902,0.4366 -0.7833,0.4228 -0.668,0.3994 -0.5547,0.3672 -0.5312,0.3857 -0.2285,0.1163 -0.1592,0.0136 -1.7393,-1.4707 -0.0136,-0.1582 0.0771,-0.2451 0.292,-0.5889 0.2695,-0.6084 0.2832,-0.7236 0.2862,-0.8428 0.2803,-0.9629 0.2373,-0.9746 -0.794,-0.6718 -0.876,-0.5596 -0.8613,0.5156 -0.8359,0.5527 -0.7207,0.5235 -0.6075,0.4844 -0.5019,0.4375 -0.4746,0.4541 -0.2119,0.1455 -0.1553,0.0342 -1.9189,-1.2247 -0.0352,-0.1562 0.043,-0.2529 0.2119,-0.6221 0.1855,-0.6387 0.1846,-0.7558 0.1709,-0.8731 0.1494,-0.9912 0.1055,-0.998 -0.877,-0.5596 -0.9424,-0.4375 -0.7851,0.625 -0.7549,0.6601 -0.6436,0.6143 -0.538,0.5615 -0.4385,0.5 -0.4111,0.5137 -0.1895,0.1719 -0.1494,0.0547 -2.0664,-0.958 -0.0547,-0.1495 0.0098,-0.2568 0.1259,-0.6445 0.0996,-0.6582 0.0811,-0.7735 0.0537,-0.8886 0.0156,-1.002 -0.0283,-1.0029 -0.9433,-0.4375 -0.9932,-0.3086 -0.6934,0.7246 -0.6611,0.7539 -0.5557,0.6953 -0.459,0.6279 -0.3671,0.5547 -0.3389,0.5635 -0.165,0.1963 -0.1416,0.0742 -2.1749,-0.6748 -0.0742,-0.1416 -0.0254,-0.2549 0.0401,-0.6562 0.0097,-0.6651 -0.0214,-0.7773 -0.0655,-0.8877 -0.1181,-0.9951 -0.1621,-0.9903 -0.9932,-0.3086 -1.0254,-0.1728 -0.5908,0.8105 -0.5547,0.836 -0.458,0.7627 -0.3711,0.6836 -0.29,0.5986 -0.2608,0.6035 -0.1377,0.2158 -0.1299,0.0928 -2.2451,-0.3789 -0.0928,-0.1299 -0.0595,-0.249 -0.0479,-0.6563 -0.0781,-0.6601 -0.126,-0.7676 -0.1826,-0.8711 -0.25,-0.9707 -0.292,-0.9599 -1.0254,-0.1729 -1.039,-0.0352 -0.4786,0.8819 -0.4375,0.9023 -0.3535,0.8174 -0.2754,0.7266 -0.209,0.6318 -0.1777,0.6328 -0.1074,0.2334 -0.1162,0.1084 -2.2754,-0.0762 -0.1094,-0.1162 -0.0918,-0.2392 -0.1347,-0.6436 -0.1661,-0.6445 -0.2265,-0.7432 -0.2979,-0.8398 -0.3769,-0.9287 -0.418,-0.9121 -1.0391,-0.0342 -1.0341,0.1035 -0.3565,0.9385 -0.3135,0.9521 -0.2412,0.8565 -0.1767,0.7578 -0.1221,0.6533 -0.0918,0.6514 -0.0752,0.2451 -0.1016,0.123 -2.2656,0.2276 -0.123,-0.1006 -0.1231,-0.2246 -0.2197,-0.6201 -0.25,-0.6162 -0.3242,-0.7071 -0.4063,-0.792 -0.497,-0.8701 -0.5362,-0.8486 -1.0342,0.1045 -1.0117,0.2412 -0.2275,0.9765 -0.1846,0.9854 -0.124,0.8818 -0.0742,0.7744 -0.0342,0.6641 -0.0039,0.6572 -0.043,0.253 -0.083,0.1357 -2.2148,0.5273 -0.1358,-0.083 -0.1523,-0.207 -0.2998,-0.584 -0.3301,-0.5781 -0.416,-0.6572 -0.5078,-0.7305 -0.6094,-0.7969 -0.6436,-0.7695 -1.0117,0.2412 -0.9697,0.374 -0.0957,0.9991 -0.0518,1.0009 -0.0058,0.8897 0.0303,0.7773 0.0546,0.6631 0.083,0.6524 -0.0078,0.2558 -0.0644,0.1455 -2.125,0.8184 -0.1465,-0.0645 -0.1777,-0.1845 -0.375,-0.5391 -0.4043,-0.5293 -0.4991,-0.5957 -0.6015,-0.6563 -0.71,-0.708 -0.7402,-0.6767 -0.9707,0.374 -0.9112,0.499 0.0381,1.003 0.0821,0.999 0.1132,0.8828 0.1329,0.7666 0.1425,0.6494 0.17,0.6348 0.0263,0.2549 -0.0449,0.1533 -1.9971,1.0947 -0.1533,-0.0449 -0.2002,-0.1592 -0.4443,-0.4844 -0.4707,-0.4707 -0.5742,-0.5234 -0.6836,-0.5703 -0.7979,-0.6074 -0.8242,-0.5723 -0.9121,0.5 -0.8369,0.6162 0.1718,0.9893 0.2149,0.9785 0.2295,0.8603 0.2334,0.7412 0.2285,0.625 0.2529,0.6075 0.0596,0.249 -0.0234,0.1572 -1.834,1.3516 -0.1572,-0.0244 -0.2208,-0.1309 -0.5048,-0.4209 -0.5293,-0.4033 -0.6387,-0.4434 -0.7529,-0.4736 -0.8721,-0.4961 -0.8936,-0.4561 -0.8369,0.6162 -0.747,0.7227 0.3017,0.957 0.3438,0.9424 0.3418,0.8213 0.331,0.7041 0.3096,0.5889 0.331,0.5674 0.0928,0.2392 -0.0029,0.1592 -1.6367,1.583 -0.1592,-0.002 -0.2363,-0.1005 -0.5567,-0.3506 -0.5781,-0.3291 -0.6924,-0.3535 -0.8096,-0.3692 -0.9296,-0.375 -0.9463,-0.334 -0.7471,0.7227 -0.6445,0.8164 0.4267,0.9082 0.4658,0.8867 0.4493,0.7695 0.4209,0.6534 0.3857,0.542 0.4033,0.5185 0.124,0.2246 0.0186,0.1582 -1.4111,1.7871 -0.1582,0.0196 -0.2471,-0.0684 -0.5986,-0.2734 -0.6172,-0.2481 -0.7334,-0.2588 -0.8516,-0.2588 -0.9717,-0.247 -0.98239,-0.2051 -0.64356,0.8164 -0.53027,0.8945 0.54394,0.8428 0.58008,0.8174 0.54785,0.7021 0.50395,0.5918 0.4541,0.4864 0.4697,0.4599 0.1523,0.2061 0.0401,0.1543 -1.1612,1.9599 -0.1543,0.0391 -0.25386,-0.0342 -0.62891,-0.1914 -0.64453,-0.164 -0.76172,-0.1582 -0.87891,-0.1426 -0.99511,-0.1162 -1.00098,-0.0713 -0.53027,0.8945 -0.40528,0.957 0.65137,0.7627 0.68359,0.7334 0.63575,0.6231 0.58007,0.5185 0.51465,0.4219 0.52637,0.3926 0.17871,0.1846 0.05957,0.1474 -0.88867,2.0967 -0.14844,0.0596 -0.25586,0 -0.64941,-0.1055 -0.66016,-0.0772 -0.77637,-0.0556 -0.88964,-0.0235 -1.00196,0.0176 -1.00195,0.0625 -0.40527,0.9571 -0.274418,1.0029 0.747068,0.6689 0.77539,0.6348 0.71289,0.5332 0.64356,0.4375 0.56641,0.3486 0.57421,0.3194 0.20118,0.1591 0.0791,0.1377 -0.60157,2.1963 -0.13867,0.0791 -0.2539,0.0342 -0.65723,-0.0176 -0.66504,0.0118 -0.77637,0.0478 -0.88476,0.0947 -0.991213,0.1514 -0.984375,0.1953 -0.274412,1.0029 -0.13867,1.0303 0.830074,0.5635 0.853516,0.5264 0.77734,0.43258 0.69629,0.34765 0.60742,0.27051 0.61231,0.24024 0.2207,0.12988 0.09668,0.12695 -0.30371,2.25684 -0.12695,0.09668 -0.24707,0.06738 -0.65332,0.07031 -0.65821,0.10059 -0.762691,0.15137 -0.864258,0.21191 -0.961911,0.28125 -0.9502,0.32519 -0.13769,1.03028 0,1.03906 0.89746,0.44922 0.916013,0.40723 0.828125,0.32519 0.736332,0.25195 0.63769,0.18653 0.63867,0.15722 0.23633,0.09961 0.11231,0.11231 0,2.27734 L 2.6416,1.25098 2.40527,1.35059 1.7666,1.50781 1.12891,1.69434 0.392578,1.94629 -0.435547,2.27148 -1.35156,2.67871 l -0.89746,0.44922 0,1.03906 0.13769,1.03028 0.9502,0.32519 0.961911,0.28125 L 0.665039,6.01562 1.42773,6.16699 2.08594,6.26758 2.73926,6.33789 2.98633,6.40527 3.11328,6.50195 3.41699,8.75879 3.32031,8.88574 3.09961,9.01562 2.4873,9.25586 1.87988,9.52637 1.18359,9.87402 0.40625,10.3066 l -0.853516,0.5264 -0.830074,0.5635 0.13867,1.0303 0.274412,1.0029 0.984375,0.1953 0.991213,0.1514 0.88476,0.0947 0.77637,0.0478 0.66504,0.0118 0.65723,-0.0176 0.2539,0.0342 0.13867,0.0791 0.60157,2.1963 -0.0791,0.1377 -0.20118,0.1591 -0.57421,0.3194 -0.56641,0.3486 -0.64356,0.4375 -0.71289,0.5332 -0.77539,0.6348 -0.747068,0.6689 0.274418,1.0029 0.40527,0.9571 1.00195,0.0625 1.00196,0.0176 0.88964,-0.0235 0.77637,-0.0556 0.66016,-0.0772 0.64941,-0.1055 0.25586,0 0.14844,0.0596 0.88867,2.0967 -0.05957,0.1474 -0.17871,0.1846 -0.52637,0.3926 -0.51465,0.4219 -0.58007,0.5185 -0.63575,0.6231 -0.68359,0.7334 -0.65137,0.7627 0.40528,0.957 0.53027,0.8945 1.00098,-0.0713 0.99511,-0.1162 0.87891,-0.1426 0.76172,-0.1582 0.64453,-0.164 0.62891,-0.1914 0.25386,-0.0342 0.1543,0.0391 1.1612,1.9599 -0.0401,0.1543 -0.1523,0.2061 -0.4697,0.4599 -0.4541,0.4864 -0.50395,0.5918 -0.54785,0.7021 -0.58008,0.8174 -0.54394,0.8428 0.53027,0.8945 0.64356,0.8164 0.98239,-0.2051 0.9717,-0.247 0.8516,-0.2588 0.7334,-0.2588 0.6172,-0.2481 0.5986,-0.2734 0.2471,-0.0684 0.1582,0.0196 1.4111,1.7871 -0.0186,0.1582 -0.124,0.2246 -0.4033,0.5185 -0.3857,0.542 -0.4209,0.6534 -0.4493,0.7695 -0.4658,0.8867 -0.4267,0.9082 0.6445,0.8164 0.7471,0.7227 0.9463,-0.334 0.9296,-0.375 0.8096,-0.3692 0.6924,-0.3535 0.5781,-0.3291 0.5567,-0.3506 0.2363,-0.1005 0.1592,-0.002 1.6367,1.583 0.0029,0.1592 -0.0928,0.2392 -0.331,0.5674 -0.3096,0.5889 -0.331,0.7041 -0.3418,0.8213 -0.3438,0.9424 -0.3017,0.957 0.747,0.7227 0.8369,0.6162 0.8936,-0.4561 0.8721,-0.4961 0.7529,-0.4736 0.6387,-0.4434 0.5293,-0.4033 0.5048,-0.4209 0.2208,-0.1309 0.1572,-0.0244 1.834,1.3516 0.0234,0.1572 -0.0596,0.249 -0.2529,0.6075 -0.2285,0.625 -0.2334,0.7412 -0.2295,0.8603 -0.2149,0.9785 -0.1718,0.9893 0.8369,0.6162 0.9121,0.5 0.8242,-0.5723 0.7979,-0.6074 0.6836,-0.5703 0.5742,-0.5234 0.4707,-0.4707 0.4443,-0.4844 0.2002,-0.1592 0.1533,-0.0449 1.9971,1.0947 0.0449,0.1533 -0.0263,0.2549 -0.17,0.6348 -0.1425,0.6494 -0.1329,0.7666 -0.1132,0.8828 -0.0821,0.999 -0.0381,1.003 0.9112,0.499 0.9707,0.374 0.7402,-0.6767 0.71,-0.708 0.6015,-0.6563 0.4991,-0.5957 0.4043,-0.5293 0.375,-0.5391 0.1777,-0.1845 0.1465,-0.0645 2.125,0.8184 0.0644,0.1455 0.0078,0.2558 -0.083,0.6524 -0.0546,0.6631 -0.0303,0.7773 0.0058,0.8897 0.0518,1.0009 0.0957,0.9991 0.9697,0.374 1.0117,0.2412 0.6436,-0.7695 0.6094,-0.7969 0.5078,-0.7305 0.416,-0.6572 0.3301,-0.5781 0.2998,-0.584 0.1523,-0.207 0.1358,-0.083 2.2148,0.5273 0.083,0.1357 0.043,0.253 0.0039,0.6572 0.0342,0.6641 0.0742,0.7744 0.124,0.8818 0.1846,0.9854 0.2275,0.9765 1.0117,0.2412 1.0342,0.1045 0.5362,-0.8486 0.497,-0.8701 0.4063,-0.792 0.3242,-0.7071 0.25,-0.6162 0.2197,-0.6201 0.1231,-0.2246 0.123,-0.1006 2.2656,0.2276 0.1016,0.123 0.0752,0.2451 0.0918,0.6514 0.1221,0.6533 0.1767,0.7578 0.2412,0.8565 0.3135,0.9521 0.3565,0.9385 1.0341,0.1035 z"
     id="path3348" />
  <path
     d="m 59.584,131.956 -0.3975,-0.129 -0.3623,-0.209 -0.3105,-0.28 -0.2461,-0.338 -0.1699,-0.382 -0.087,-0.409 0,-0.418 0.087,-0.409 0.1699,-0.382 0.2461,-0.338 0.3105,-0.28 0.3623,-0.209 0.3975,-0.129 L 60,128 l 0.416,0.044 0.3975,0.129 0.3623,0.209 0.3105,0.28 0.2461,0.338 0.1699,0.382 0.087,0.409 0,0.418 -0.087,0.409 -0.1699,0.382 -0.2461,0.338 -0.3105,0.28 -0.3623,0.209 -0.3975,0.129 L 60,132 Z m -0.6299,60.363 0.418,-0.912 0.3769,-0.928 0.2979,-0.84 0.2265,-0.743 0.1661,-0.645 0.1347,-0.644 0.0918,-0.239 0.1094,-0.116 2.2754,-0.076 0.1162,0.108 0.1074,0.234 0.1777,0.632 0.209,0.632 0.2754,0.727 0.3535,0.817 0.4375,0.903 0.4786,0.881 1.039,-0.035 1.0254,-0.173 0.292,-0.96 0.25,-0.97 0.1826,-0.871 0.126,-0.768 0.0781,-0.66 0.0479,-0.656 0.0595,-0.249 0.0928,-0.13 2.2451,-0.379 0.1299,0.093 0.1377,0.215 0.2608,0.604 0.29,0.599 0.3711,0.683 0.458,0.763 0.5547,0.836 0.5908,0.81 1.0254,-0.173 0.9932,-0.308 0.1621,-0.99 0.1181,-0.995 0.0655,-0.888 0.0214,-0.778 -0.0097,-0.665 -0.0401,-0.656 0.0254,-0.255 0.0742,-0.141 2.1749,-0.675 0.1416,0.074 0.165,0.196 0.3389,0.564 0.3671,0.555 0.459,0.627 0.5557,0.696 0.6611,0.754 0.6934,0.724 0.9932,-0.308 0.9433,-0.438 0.0283,-1.003 -0.0156,-1.002 -0.0537,-0.888 -0.0811,-0.774 -0.0996,-0.658 -0.1259,-0.645 -0.0098,-0.256 0.0547,-0.15 2.0664,-0.958 0.1494,0.055 0.1895,0.172 0.4111,0.513 0.4385,0.5 0.538,0.562 0.6436,0.614 0.7549,0.66 0.7851,0.625 0.9424,-0.437 0.877,-0.56 -0.1055,-0.998 -0.1494,-0.991 -0.1709,-0.873 -0.1846,-0.756 -0.1855,-0.638 -0.2119,-0.623 -0.043,-0.252 0.0352,-0.157 1.9189,-1.224 0.1553,0.034 0.2119,0.145 0.4746,0.454 0.5019,0.438 0.6075,0.484 0.7207,0.524 0.8359,0.552 0.8613,0.516 0.876,-0.559 0.794,-0.672 -0.2373,-0.975 -0.2803,-0.963 -0.2862,-0.843 -0.2832,-0.723 -0.2695,-0.609 -0.292,-0.589 -0.0771,-0.245 0.0136,-0.158 1.7393,-1.471 0.1592,0.014 0.2285,0.116 0.5312,0.386 0.5547,0.367 0.668,0.4 0.7833,0.423 0.902,0.436 0.922,0.396 0.794,-0.671 0.697,-0.772 -0.364,-0.934 -0.406,-0.916 -0.397,-0.798 -0.377,-0.68 -0.347,-0.567 -0.369,-0.544 -0.109,-0.233 -0.008,-0.159 1.528,-1.688 0.16,-0.009 0.241,0.085 0.579,0.311 0.599,0.29 0.715,0.307 0.832,0.314 0.953,0.313 0.967,0.27 0.697,-0.772 0.588,-0.856 -0.487,-0.878 -0.524,-0.855 -0.499,-0.737 -0.464,-0.624 -0.421,-0.515 -0.437,-0.491 -0.139,-0.216 -0.028,-0.156 1.288,-1.878 0.157,-0.028 0.251,0.05 0.615,0.233 0.632,0.207 0.749,0.209 0.867,0.201 0.987,0.182 0.993,0.138 0.589,-0.857 0.468,-0.928 -0.598,-0.804 -0.634,-0.778 -0.593,-0.664 -0.544,-0.556 -0.485,-0.455 -0.499,-0.427 -0.166,-0.196 -0.05,-0.151 1.027,-2.033 0.152,-0.05 0.256,0.018 0.64,0.148 0.655,0.121 0.769,0.107 0.887,0.083 1.001,0.05 1.004,0.005 0.468,-0.929 0.341,-0.981 -0.701,-0.718 -0.731,-0.685 -0.676,-0.579 -0.612,-0.48 -0.542,-0.386 -0.552,-0.357 -0.191,-0.172 -0.069,-0.143 0.747,-2.152 0.144,-0.069 0.255,-0.017 0.655,0.062 0.664,0.033 0.777,0.003 0.89,-0.035 0.999,-0.085 0.995,-0.129 0.341,-0.983 0.207,-1.018 -0.79,-0.618 -0.817,-0.582 -0.747,-0.484 -0.671,-0.393 -0.588,-0.311 -0.594,-0.28 -0.212,-0.145 -0.088,-0.132 0.453,-2.232 0.133,-0.088 0.252,-0.051 0.656,-0.026 0.663,-0.057 0.772,-0.099 0.877,-0.154 0.978,-0.217 0.969,-0.261 0.207,-1.019 0.069,-1.037 -0.865,-0.507 -0.887,-0.468 -0.804,-0.38 -0.718,-0.3 -0.625,-0.229 -0.626,-0.199 -0.23,-0.115 -0.104,-0.12 0.152,-2.272 0.119,-0.105 0.244,-0.084 0.647,-0.113 0.65,-0.145 0.75,-0.202 0.849,-0.268 0.941,-0.346 0.925,-0.388 0.07,-1.037 -0.07,-1.037 -0.925,-0.388 -0.941,-0.346 -0.849,-0.268 -0.75,-0.202 -0.65,-0.145 -0.647,-0.113 -0.244,-0.084 -0.119,-0.105 -0.152,-2.272 0.104,-0.12 0.23,-0.115 0.626,-0.199 0.625,-0.229 0.718,-0.3 0.804,-0.38 0.887,-0.468 0.865,-0.507 -0.069,-1.037 -0.207,-1.019 -0.969,-0.261 -0.978,-0.217 -0.877,-0.154 -0.772,-0.099 -0.663,-0.057 -0.656,-0.026 -0.252,-0.051 -0.133,-0.088 -0.453,-2.232 0.088,-0.132 0.212,-0.145 0.594,-0.28 0.588,-0.311 0.671,-0.393 0.747,-0.484 0.817,-0.582 0.79,-0.618 -0.207,-1.018 -0.341,-0.983 -0.995,-0.129 -0.999,-0.085 -0.89,-0.035 -0.777,0.003 -0.664,0.033 -0.655,0.062 -0.255,-0.017 -0.144,-0.069 -0.747,-2.152 0.069,-0.143 0.191,-0.172 0.552,-0.357 0.542,-0.386 0.612,-0.48 0.676,-0.579 0.731,-0.685 0.701,-0.718 -0.341,-0.981 -0.468,-0.929 -1.004,0.005 -1.001,0.05 -0.887,0.083 -0.769,0.107 -0.655,0.121 -0.64,0.148 -0.256,0.018 -0.152,-0.05 -1.027,-2.033 0.05,-0.151 0.166,-0.196 0.499,-0.427 0.485,-0.455 0.544,-0.556 0.593,-0.664 0.634,-0.7775 0.598,-0.8047 -0.468,-0.9277 -0.589,-0.8575 -0.993,0.1387 -0.987,0.1816 -0.867,0.2012 -0.749,0.209 -0.632,0.207 -0.615,0.2325 -0.251,0.0507 -0.157,-0.0283 -1.288,-1.8779 0.028,-0.1563 0.139,-0.2158 0.437,-0.4912 0.421,-0.5146 0.464,-0.6241 0.499,-0.7373 0.524,-0.8545 0.487,-0.8779 -0.588,-0.8564 -0.697,-0.7715 -0.967,0.2695 -0.953,0.3125 -0.832,0.3145 -0.715,0.3066 -0.599,0.29 -0.579,0.3116 -0.241,0.0849 -0.16,-0.0088 -1.528,-1.6884 0.008,-0.1592 0.109,-0.2324 0.369,-0.544 0.347,-0.5674 0.377,-0.6797 0.397,-0.7978 0.406,-0.916 0.364,-0.9346 -0.697,-0.7715 -0.794,-0.6709 -0.922,0.3955 -0.902,0.4366 -0.7833,0.4228 -0.668,0.3994 -0.5547,0.3672 -0.5312,0.3857 -0.2285,0.1163 -0.1592,0.0136 -1.7393,-1.4707 -0.0136,-0.1582 0.0771,-0.2451 0.292,-0.5889 0.2695,-0.6084 0.2832,-0.7236 0.2862,-0.8428 0.2803,-0.9629 0.2373,-0.9746 -0.794,-0.6718 -0.876,-0.5596 -0.8613,0.5156 -0.8359,0.5527 -0.7207,0.5235 -0.6075,0.4844 -0.5019,0.4375 -0.4746,0.4541 -0.2119,0.1455 -0.1553,0.0342 -1.9189,-1.2247 -0.0352,-0.1562 0.043,-0.2529 0.2119,-0.6221 0.1855,-0.6387 0.1846,-0.7558 0.1709,-0.8731 0.1494,-0.9912 0.1055,-0.998 -0.877,-0.5596 -0.9424,-0.4375 -0.7851,0.625 -0.7549,0.6601 -0.6436,0.6143 -0.538,0.5615 -0.4385,0.5 -0.4111,0.5137 -0.1895,0.1719 -0.1494,0.0547 -2.0664,-0.958 -0.0547,-0.1495 0.0098,-0.2568 0.1259,-0.6445 0.0996,-0.6582 0.0811,-0.7735 0.0537,-0.8886 0.0156,-1.002 -0.0283,-1.0029 -0.9433,-0.4375 -0.9932,-0.3086 -0.6934,0.7246 -0.6611,0.7539 -0.5557,0.6953 -0.459,0.6279 -0.3671,0.5547 -0.3389,0.5635 -0.165,0.1963 -0.1416,0.0742 -2.1749,-0.6748 -0.0742,-0.1416 -0.0254,-0.2549 0.0401,-0.6562 0.0097,-0.6651 -0.0214,-0.7773 -0.0655,-0.8877 -0.1181,-0.9951 -0.1621,-0.9903 -0.9932,-0.3086 -1.0254,-0.1728 -0.5908,0.8105 -0.5547,0.836 -0.458,0.7627 -0.3711,0.6836 -0.29,0.5986 -0.2608,0.6035 -0.1377,0.2158 -0.1299,0.0928 -2.2451,-0.3789 -0.0928,-0.1299 -0.0595,-0.249 -0.0479,-0.6563 -0.0781,-0.6601 -0.126,-0.7676 -0.1826,-0.8711 -0.25,-0.9707 -0.292,-0.9599 -1.0254,-0.1729 -1.039,-0.0352 -0.4786,0.8819 -0.4375,0.9023 -0.3535,0.8174 -0.2754,0.7266 -0.209,0.6318 -0.1777,0.6328 -0.1074,0.2334 -0.1162,0.1084 L 60.7754,72.748 60.666,72.6318 60.5742,72.3926 60.4395,71.749 60.2734,71.1045 60.0469,70.3613 59.749,69.5215 59.3721,68.5928 58.9541,67.6807 57.915,67.6465 56.8809,67.75 l -0.3565,0.9385 -0.3135,0.9521 -0.2412,0.8565 -0.1767,0.7578 -0.1221,0.6533 -0.0918,0.6514 -0.0752,0.2451 -0.1016,0.123 -2.2656,0.2276 -0.123,-0.1006 -0.1231,-0.2246 -0.2197,-0.6201 -0.25,-0.6162 -0.3242,-0.7071 -0.4063,-0.792 -0.497,-0.8701 -0.5362,-0.8486 -1.0342,0.1045 -1.0117,0.2412 -0.2275,0.9765 -0.1846,0.9854 -0.124,0.8818 -0.0742,0.7744 -0.0342,0.6641 -0.0039,0.6572 -0.043,0.253 -0.083,0.1357 -2.2148,0.5273 -0.1358,-0.083 -0.1523,-0.207 -0.2998,-0.584 -0.3301,-0.5781 -0.416,-0.6572 -0.5078,-0.7305 -0.6094,-0.7969 -0.6436,-0.7695 -1.0117,0.2412 -0.9697,0.374 -0.0957,0.9991 -0.0518,1.0009 -0.0058,0.8897 0.0303,0.7773 0.0546,0.6631 0.083,0.6524 -0.0078,0.2558 -0.0644,0.1455 -2.125,0.8184 -0.1465,-0.0645 -0.1777,-0.1845 -0.375,-0.5391 -0.4043,-0.5293 -0.4991,-0.5957 -0.6015,-0.6563 -0.71,-0.708 -0.7402,-0.6767 -0.9707,0.374 -0.9112,0.499 0.0381,1.003 0.0821,0.999 0.1132,0.8828 0.1329,0.7666 0.1425,0.6494 0.17,0.6348 0.0263,0.2549 -0.0449,0.1533 -1.9971,1.0947 -0.1533,-0.0449 -0.2002,-0.1592 -0.4443,-0.4844 -0.4707,-0.4707 -0.5742,-0.5234 -0.6836,-0.5703 -0.7979,-0.6074 -0.8242,-0.5723 -0.9121,0.5 -0.8369,0.6162 0.1718,0.9893 0.2149,0.9785 0.2295,0.8603 0.2334,0.7412 0.2285,0.625 0.2529,0.6075 0.0596,0.249 -0.0234,0.1572 -1.834,1.3516 -0.1572,-0.0244 -0.2208,-0.1309 -0.5048,-0.4209 -0.5293,-0.4033 -0.6387,-0.4434 -0.7529,-0.4736 -0.8721,-0.4961 -0.8936,-0.4561 -0.8369,0.6162 -0.747,0.7227 0.3017,0.957 0.3438,0.9424 0.3418,0.8213 0.331,0.7041 0.3096,0.5889 0.331,0.5674 0.0928,0.2392 -0.0029,0.1592 -1.6367,1.583 -0.1592,-0.002 -0.2363,-0.1005 -0.5567,-0.3506 -0.5781,-0.3291 -0.6924,-0.3535 -0.8096,-0.3692 -0.9296,-0.375 -0.9463,-0.334 -0.7471,0.7227 -0.6445,0.8164 0.4267,0.9082 0.4658,0.8867 0.4493,0.7695 0.4209,0.6534 0.3857,0.542 0.4033,0.5185 0.124,0.2246 0.0186,0.1582 -1.4111,1.7871 -0.1582,0.0196 -0.2471,-0.0684 -0.5986,-0.2734 -0.6172,-0.2481 -0.7334,-0.2588 -0.8516,-0.2588 -0.9717,-0.247 -0.98239,-0.2051 -0.64356,0.8164 -0.53027,0.8945 0.54394,0.8428 0.58008,0.8174 0.54785,0.7021 0.50395,0.5918 0.4541,0.4864 0.4697,0.4599 0.1523,0.2061 0.0401,0.1543 -1.1612,1.9603 -0.1543,0.039 -0.25386,-0.034 -0.62891,-0.192 -0.64453,-0.164 -0.76172,-0.158 -0.87891,-0.143 -0.99511,-0.116 -1.00098,-0.071 -0.53027,0.894 -0.40528,0.957 0.65137,0.763 0.68359,0.733 0.63575,0.623 0.58007,0.519 0.51465,0.422 0.52637,0.392 0.17871,0.185 0.05957,0.148 -0.88867,2.096 -0.14844,0.06 -0.25586,0 -0.64941,-0.106 -0.66016,-0.077 -0.77637,-0.056 -0.88964,-0.023 -1.00196,0.018 -1.00195,0.062 -0.40527,0.957 -0.274418,1.003 0.747068,0.669 0.77539,0.635 0.71289,0.533 0.64356,0.437 0.56641,0.349 0.57421,0.319 0.20118,0.16 0.0791,0.137 -0.60157,2.197 -0.13867,0.079 -0.2539,0.034 -0.65723,-0.018 -0.66504,0.012 -0.77637,0.048 -0.88476,0.095 -0.991213,0.151 -0.984375,0.195 -0.274412,1.003 -0.13867,1.031 0.830074,0.563 0.853516,0.526 0.77734,0.433 0.69629,0.348 0.60742,0.27 0.61231,0.24 0.2207,0.13 0.09668,0.127 -0.30371,2.257 -0.12695,0.097 -0.24707,0.067 -0.65332,0.07 -0.65821,0.101 -0.762691,0.151 -0.864258,0.212 -0.961911,0.282 -0.9502,0.325 -0.13769,1.03 0,1.039 0.89746,0.449 0.916013,0.408 0.828125,0.325 0.736332,0.252 0.63769,0.186 0.63867,0.157 0.23633,0.1 0.11231,0.112 0,2.278 -0.11231,0.112 -0.23633,0.1 -0.63867,0.157 -0.63769,0.186 -0.736332,0.252 -0.828125,0.325 -0.916013,0.408 -0.89746,0.449 0,1.039 0.13769,1.03 0.9502,0.325 0.961911,0.282 0.864258,0.212 0.762691,0.151 0.65821,0.101 0.65332,0.07 0.24707,0.067 0.12695,0.097 0.30371,2.257 -0.09668,0.127 -0.2207,0.13 -0.61231,0.24 -0.60742,0.27 -0.69629,0.348 -0.77734,0.433 -0.853516,0.526 -0.830074,0.563 0.13867,1.031 0.274412,1.003 0.984375,0.195 0.991213,0.151 0.88476,0.095 0.77637,0.048 0.66504,0.012 0.65723,-0.018 0.2539,0.034 0.13867,0.079 0.60157,2.197 -0.0791,0.137 -0.20118,0.16 -0.57421,0.319 -0.56641,0.349 -0.64356,0.437 -0.71289,0.533 -0.77539,0.635 -0.747068,0.669 0.274418,1.003 0.40527,0.957 1.00195,0.062 1.00196,0.018 0.88964,-0.023 0.77637,-0.056 0.66016,-0.077 0.64941,-0.106 0.25586,0 0.14844,0.06 0.88867,2.096 -0.05957,0.148 -0.17871,0.185 -0.52637,0.392 -0.51465,0.422 -0.58007,0.519 -0.63575,0.623 -0.68359,0.733 -0.65137,0.763 0.40528,0.957 0.53027,0.894 1.00098,-0.071 0.99511,-0.116 0.87891,-0.143 0.76172,-0.158 0.64453,-0.164 0.62891,-0.192 0.25386,-0.034 0.1543,0.039 1.1612,1.96 -0.0401,0.155 -0.1523,0.206 -0.4697,0.46 -0.4541,0.486 -0.50395,0.592 -0.54785,0.702 -0.58008,0.817 -0.54394,0.843 0.53027,0.895 0.64356,0.816 0.98239,-0.205 0.9717,-0.247 0.8516,-0.259 0.7334,-0.259 0.6172,-0.248 0.5986,-0.273 0.2471,-0.069 0.1582,0.02 1.4111,1.787 -0.0186,0.158 -0.124,0.225 -0.4033,0.518 -0.3857,0.542 -0.4209,0.654 -0.4493,0.769 -0.4658,0.887 -0.4267,0.908 0.6445,0.817 0.7471,0.722 0.9463,-0.334 0.9296,-0.375 0.8096,-0.369 0.6924,-0.353 0.5781,-0.329 0.5567,-0.351 0.2363,-0.101 0.1592,-0.002 1.6367,1.583 0.0029,0.16 -0.0928,0.239 -0.331,0.567 -0.3096,0.589 -0.331,0.704 -0.3418,0.821 -0.3438,0.943 -0.3017,0.957 0.747,0.723 0.8369,0.616 0.8936,-0.456 0.8721,-0.496 0.7529,-0.474 0.6387,-0.443 0.5293,-0.404 0.5048,-0.421 0.2208,-0.13 0.1572,-0.025 1.834,1.352 0.0234,0.157 -0.0596,0.249 -0.2529,0.607 -0.2285,0.625 -0.2334,0.742 -0.2295,0.86 -0.2149,0.978 -0.1718,0.99 0.8369,0.616 0.9121,0.5 0.8242,-0.572 0.7979,-0.608 0.6836,-0.57 0.5742,-0.524 0.4707,-0.47 0.4443,-0.485 0.2002,-0.159 0.1533,-0.045 1.9971,1.095 0.0449,0.153 -0.0263,0.255 -0.17,0.635 -0.1425,0.649 -0.1329,0.767 -0.1132,0.883 -0.0821,0.999 -0.0381,1.003 0.9112,0.499 0.9707,0.374 0.7402,-0.677 0.71,-0.708 0.6015,-0.656 0.4991,-0.596 0.4043,-0.529 0.375,-0.539 0.1777,-0.185 0.1465,-0.064 2.125,0.818 0.0644,0.146 0.0078,0.255 -0.083,0.653 -0.0546,0.663 -0.0303,0.777 0.0058,0.89 0.0518,1.001 0.0957,0.999 0.9697,0.374 1.0117,0.241 0.6436,-0.769 0.6094,-0.797 0.5078,-0.731 0.416,-0.657 0.3301,-0.578 0.2998,-0.584 0.1523,-0.207 0.1358,-0.083 2.2148,0.527 0.083,0.136 0.043,0.253 0.0039,0.657 0.0342,0.664 0.0742,0.775 0.124,0.881 0.1846,0.986 0.2275,0.976 1.0117,0.242 1.0342,0.104 0.5362,-0.849 0.497,-0.87 0.4063,-0.792 0.3242,-0.707 0.25,-0.616 0.2197,-0.62 0.1231,-0.225 0.123,-0.1 2.2656,0.227 0.1016,0.123 0.0752,0.245 0.0918,0.652 0.1221,0.653 0.1767,0.758 0.2412,0.856 0.3135,0.953 0.3565,0.938 1.0341,0.104 z"
     id="path3344" />
  <path
     d="m -154.08973,-137.6584 -0.3975,-0.129 -0.3623,-0.209 -0.3105,-0.28 -0.2461,-0.338 -0.1699,-0.382 -0.087,-0.409 0,-0.418 0.087,-0.4092 0.1699,-0.3818 0.2461,-0.3379 0.3105,-0.2803 0.3623,-0.2089 0.3975,-0.129 0.416,-0.0439 0.416,0.0439 0.3975,0.129 0.3623,0.2089 0.3105,0.2803 0.2461,0.3379 0.1699,0.3818 0.087,0.4092 0,0.418 -0.087,0.409 -0.1699,0.382 -0.2461,0.338 -0.3105,0.28 -0.3623,0.209 -0.3975,0.129 -0.416,0.044 z m 1.3232,20.873 0.3819,-0.658 0.4902,-1.176 0.2461,-0.911 0.082,-0.607 0,-0.283 -0.0498,-0.389 0.0528,-0.75 0.2412,-0.399 2.2334,-0.444 0.375,0.276 0.3359,0.672 0.1025,0.38 0.1084,0.261 0.3077,0.529 0.5761,0.748 0.9033,0.899 0.6045,0.461 0.8721,-0.264 0.8037,-0.43 0.1016,-0.754 0.003,-1.274 -0.1211,-0.936 -0.1572,-0.592 -0.1074,-0.261 -0.1963,-0.341 -0.2373,-0.713 0.0693,-0.461 1.8936,-1.265 0.4521,0.112 0.5674,0.493 0.2402,0.311 0.2002,0.199 0.4873,0.372 0.8184,0.47 1.1777,0.485 0.7354,0.195 0.7051,-0.578 0.5781,-0.705 -0.1953,-0.735 -0.4854,-1.178 -0.4697,-0.818 -0.3721,-0.488 -0.1982,-0.2 -0.3115,-0.24 -0.4932,-0.568 -0.1113,-0.452 1.2646,-1.893 0.4609,-0.07 0.7129,0.238 0.3409,0.196 0.2607,0.107 0.5928,0.158 0.9355,0.121 1.2744,-0.003 0.7539,-0.102 0.4297,-0.803 0.2647,-0.873 -0.4619,-0.604 -0.8985,-0.903 -0.748,-0.577 -0.5293,-0.307 -0.2608,-0.109 -0.3798,-0.102 -0.6719,-0.336 -0.2764,-0.375 0.4443,-2.233 0.3985,-0.242 0.75,-0.052 0.3896,0.049 0.2823,0 0.6074,-0.082 0.9111,-0.246 1.1758,-0.49 0.6582,-0.382 0.0889,-0.907 -0.0889,-0.9072 -0.6582,-0.3819 -1.1758,-0.4902 -0.9111,-0.2461 -0.6074,-0.082 -0.2823,0 -0.3896,0.0498 -0.75,-0.0528 -0.3985,-0.2412 -0.4443,-2.2334 0.2764,-0.375 0.6719,-0.3359 0.3798,-0.1025 0.2608,-0.1084 0.5293,-0.3077 0.748,-0.5761 0.8985,-0.9033 0.4619,-0.6045 -0.2647,-0.8721 -0.4297,-0.8037 -0.7539,-0.1016 -1.2744,-0.003 -0.9355,0.1211 -0.5928,0.1572 -0.2607,0.1074 -0.3409,0.1963 -0.7129,0.2373 -0.4609,-0.0693 -1.2646,-1.8936 0.1113,-0.4521 0.4932,-0.5674 0.3115,-0.2402 0.1982,-0.2002 0.3721,-0.4873 0.4697,-0.8184 0.4854,-1.1777 0.1953,-0.7354 -0.5781,-0.7051 -0.7051,-0.5781 -0.7354,0.1953 -1.1777,0.4854 -0.8184,0.4697 -0.4873,0.3721 -0.2002,0.1982 -0.2402,0.3115 -0.5674,0.4932 -0.4521,0.1113 -1.8936,-1.2646 -0.0693,-0.4609 0.2373,-0.7129 0.1963,-0.3409 0.1074,-0.2607 0.1572,-0.5928 0.1211,-0.9355 -0.003,-1.2744 -0.1016,-0.7539 -0.8037,-0.42971 -0.8721,-0.2647 -0.6045,0.4619 -0.9033,0.89851 -0.5761,0.748 -0.3077,0.5293 -0.1084,0.2608 -0.1025,0.3798 -0.3359,0.6719 -0.375,0.2764 -2.2334,-0.4443 -0.2412,-0.3985 -0.0528,-0.75 0.0498,-0.3896 0,-0.2823 -0.082,-0.6074 -0.2461,-0.91111 -0.4902,-1.1758 -0.3819,-0.6582 -0.9072,-0.0889 -0.9072,0.0889 -0.3819,0.6582 -0.4902,1.1758 -0.2461,0.91111 -0.082,0.6074 0,0.2823 0.0498,0.3896 -0.0528,0.75 -0.2412,0.3985 -2.2334,0.4443 -0.375,-0.2764 -0.3359,-0.6719 -0.1025,-0.3798 -0.1084,-0.2608 -0.3077,-0.5293 -0.5761,-0.748 -0.9033,-0.89851 -0.6045,-0.4619 -0.8721,0.2647 -0.8037,0.42971 -0.1016,0.7539 -0.003,1.2744 0.1211,0.9355 0.1572,0.5928 0.1074,0.2607 0.1963,0.3409 0.2373,0.7129 -0.0693,0.4609 -1.8936,1.2646 -0.4521,-0.1113 -0.5674,-0.4932 -0.2402,-0.3115 -0.2002,-0.1982 -0.4873,-0.3721 -0.8184,-0.4697 -1.1777,-0.4854 -0.7354,-0.1953 -0.7051,0.5781 -0.5781,0.7051 0.1953,0.7354 0.4854,1.1777 0.4697,0.8184 0.3721,0.4873 0.1982,0.2002 0.3115,0.2402 0.4932,0.5674 0.1113,0.4521 -1.2646,1.8936 -0.4609,0.0693 -0.7129,-0.2373 -0.3409,-0.1963 -0.2607,-0.1074 -0.5928,-0.1572 -0.9355,-0.1211 -1.2744,0.003 -0.7539,0.1016 -0.4297,0.8037 -0.2647,0.8721 0.4619,0.6045 0.8985,0.9033 0.748,0.5761 0.5293,0.3077 0.2608,0.1084 0.3798,0.1025 0.6719,0.3359 0.2764,0.375 -0.4443,2.2334 -0.3985,0.2412 -0.75,0.0528 -0.3896,-0.0498 -0.2823,0 -0.6074,0.082 -0.9111,0.2461 -1.1758,0.4902 -0.6582,0.3819 -0.0889,0.9072 0.0889,0.907 0.6582,0.382 1.1758,0.49 0.9111,0.246 0.6074,0.082 0.2823,0 0.3896,-0.049 0.75,0.052 0.3985,0.242 0.4443,2.233 -0.2764,0.375 -0.6719,0.336 -0.3798,0.102 -0.2608,0.109 -0.5293,0.307 -0.748,0.577 -0.8985,0.903 -0.4619,0.604 0.2647,0.873 0.4297,0.803 0.7539,0.102 1.2744,0.003 0.9355,-0.121 0.5928,-0.158 0.2607,-0.107 0.3409,-0.196 0.7129,-0.238 0.4609,0.07 1.2646,1.893 -0.1113,0.452 -0.4932,0.568 -0.3115,0.24 -0.1982,0.2 -0.3721,0.488 -0.4697,0.818 -0.4854,1.178 -0.1953,0.735 0.5781,0.705 0.7051,0.578 0.7354,-0.195 1.1777,-0.485 0.8184,-0.47 0.4873,-0.372 0.2002,-0.199 0.2402,-0.311 0.5674,-0.493 0.4521,-0.112 1.8936,1.265 0.0693,0.461 -0.2373,0.713 -0.1963,0.341 -0.1074,0.261 -0.1572,0.592 -0.1211,0.936 0.003,1.274 0.1016,0.754 0.8037,0.43 0.8721,0.264 0.6045,-0.461 0.9033,-0.899 0.5761,-0.748 0.3077,-0.529 0.1084,-0.261 0.1025,-0.38 0.3359,-0.672 0.375,-0.276 2.2334,0.444 0.2412,0.399 0.0528,0.75 -0.0498,0.389 0,0.283 0.082,0.607 0.2461,0.911 0.4902,1.176 0.3819,0.658 0.9072,0.089 z"
     id="path6" />
</svg>
