  0
SECTION
  2
BLOCKS
  0
ENDSEC
  0
SECTION
  2
ENTITIES
  0
LINE
  8
0
 10
61.624987258628906
 20
-9.334434249554583
 11
61.83207344095759
 21
-8.315604896583066
  0
LINE
  8
0
 10
61.83207344095759
 20
-8.315604896583066
 11
61.90151523186847
 21
-7.27826417383913
  0
LINE
  8
0
 10
61.90151523186847
 20
-7.27826417383913
 11
61.03591251455272
 21
-6.7710051457106895
  0
LINE
  8
0
 10
61.03591251455272
 20
-6.7710051457106895
 11
60.149208966834415
 21
-6.3031454860159055
  0
LINE
  8
0
 10
60.149208966834415
 20
-6.3031454860159055
 11
59.34424224740034
 21
-5.923246040788298
  0
LINE
  8
0
 10
59.34424224740034
 20
-5.923246040788298
 11
58.62688667712387
 21
-5.623000389822194
  0
LINE
  8
0
 10
58.62688667712387
 20
-5.623000389822194
 11
58.00243476358729
 21
-5.393762473950991
  0
LINE
  8
0
 10
58.00243476358729
 20
-5.393762473950991
 11
57.375757666302896
 21
-5.194907085463669
  0
LINE
  8
0
 10
57.375757666302896
 20
-5.194907085463669
 11
57.14679433211634
 21
-5.079654653967438
  0
LINE
  8
0
 10
57.14679433211634
 20
-5.079654653967438
 11
57.0418955655744
 21
-4.95961014406268
  0
LINE
  8
0
 10
57.0418955655744
 20
-4.95961014406268
 11
57.193989912660044
 21
-2.687582624880985
  0
LINE
  8
0
 10
57.193989912660044
 20
-2.687582624880985
 11
57.31395308594895
 21
-2.582590850750533
  0
LINE
  8
0
 10
57.31395308594895
 20
-2.582590850750533
 11
57.55623513776637
 21
-2.4988845861373368
  0
LINE
  8
0
 10
57.55623513776637
 20
-2.4988845861373368
 11
58.2038255305186
 21
-2.3853313695183145
  0
LINE
  8
0
 10
58.2038255305186
 20
-2.3853313695183145
 11
58.85326018832412
 21
-2.2413701260000027
  0
LINE
  8
0
 10
58.85326018832412
 20
-2.2413701260000027
 11
59.604233973709064
 21
-2.0394175602936055
  0
LINE
  8
0
 10
59.604233973709064
 20
-2.0394175602936055
 11
60.45265400845952
 21
-1.770199335575602
  0
LINE
  8
0
 10
60.45265400845952
 20
-1.770199335575602
 11
61.39380552283247
 21
-1.4247001754382593
  0
LINE
  8
0
 10
61.39380552283247
 20
-1.4247001754382593
 11
62.319295901112135
 21
-1.0373407227439313
  0
LINE
  8
0
 10
62.319295901112135
 20
-1.0373407227439313
 11
62.388737692023
 21
-5.329070518200751e-15
  0
LINE
  8
0
 10
62.388737692023
 20
-5.329070518200751e-15
 11
62.319295901112085
 21
1.0373407227439264
  0
LINE
  8
0
 10
62.319295901112085
 20
1.0373407227439264
 11
61.39380552284979
 21
1.4247001754310162
  0
LINE
  8
0
 10
61.39380552284979
 20
1.4247001754310162
 11
60.45265400845627
 21
1.7701993355757717
  0
LINE
  8
0
 10
60.45265400845627
 20
1.7701993355757717
 11
59.60423397370877
 21
2.0394175602927564
  0
LINE
  8
0
 10
59.60423397370877
 20
2.0394175602927564
 11
58.853260188323844
 21
2.241370125999067
  0
LINE
  8
0
 10
58.853260188323844
 20
2.241370125999067
 11
58.20382553051986
 21
2.3853313695179157
  0
LINE
  8
0
 10
58.20382553051986
 20
2.3853313695179157
 11
57.55623513776796
 21
2.4988845861464606
  0
LINE
  8
0
 10
57.55623513776796
 20
2.4988845861464606
 11
57.31395308594926
 21
2.5825908507515205
  0
LINE
  8
0
 10
57.31395308594926
 20
2.5825908507515205
 11
57.19398991265979
 21
2.6875826248798598
  0
LINE
  8
0
 10
57.19398991265979
 20
2.6875826248798598
 11
57.041895565574805
 21
4.959610144061598
  0
LINE
  8
0
 10
57.041895565574805
 20
4.959610144061598
 11
57.14679433211591
 21
5.079654653968377
  0
LINE
  8
0
 10
57.14679433211591
 20
5.079654653968377
 11
57.3757576663001
 21
5.194907085472497
  0
LINE
  8
0
 10
57.3757576663001
 20
5.194907085472497
 11
58.0024347635861
 21
5.393762473950428
  0
LINE
  8
0
 10
58.0024347635861
 20
5.393762473950428
 11
58.626886677124276
 21
5.623000389821305
  0
LINE
  8
0
 10
58.626886677124276
 20
5.623000389821305
 11
59.34424224740074
 21
5.923246040787495
  0
LINE
  8
0
 10
59.34424224740074
 20
5.923246040787495
 11
60.14920896683762
 21
6.303145486016508
  0
LINE
  8
0
 10
60.14920896683762
 20
6.303145486016508
 11
61.035912514536534
 21
6.771005145701204
  0
LINE
  8
0
 10
61.035912514536534
 20
6.771005145701204
 11
61.90151523186851
 21
7.278264173839133
  0
LINE
  8
0
 10
61.90151523186851
 20
7.278264173839133
 11
61.83207344095766
 21
8.315604896583062
  0
LINE
  8
0
 10
61.83207344095766
 20
8.315604896583062
 11
61.62498725862892
 21
9.334434249554569
  0
LINE
  8
0
 10
61.62498725862892
 20
9.334434249554569
 11
60.656124617145345
 21
9.594981688190382
  0
LINE
  8
0
 10
60.656124617145345
 20
9.594981688190382
 11
59.67732000714726
 21
9.811954908087298
  0
LINE
  8
0
 10
59.67732000714726
 20
9.811954908087298
 11
58.80058673270586
 21
9.96568770669569
  0
LINE
  8
0
 10
58.80058673270586
 20
9.96568770669569
 11
58.02939587720355
 21
10.065743338822834
  0
LINE
  8
0
 10
58.02939587720355
 20
10.065743338822834
 11
57.36656765198607
 21
10.121858918188227
  0
LINE
  8
0
 10
57.36656765198607
 20
10.121858918188227
 11
56.709620229667046
 21
10.148083603117133
  0
LINE
  8
0
 10
56.709620229667046
 20
10.148083603117133
 11
56.458342989170646
 21
10.198749960556105
  0
LINE
  8
0
 10
56.458342989170646
 20
10.198749960556105
 11
56.325456154802986
 21
10.286815418211404
  0
LINE
  8
0
 10
56.325456154802986
 20
10.286815418211404
 11
55.871887240774285
 21
12.518298552488057
  0
LINE
  8
0
 10
55.871887240774285
 20
12.518298552488057
 11
55.95984967959357
 21
12.651253601047967
  0
LINE
  8
0
 10
55.95984967959357
 20
12.651253601047967
 11
56.17140844002177
 21
12.795995517072443
  0
LINE
  8
0
 10
56.17140844002177
 20
12.795995517072443
 11
56.76598917419422
 21
13.076604498290923
  0
LINE
  8
0
 10
56.76598917419422
 20
13.076604498290923
 11
57.35431498427442
 21
13.3870283304749
  0
LINE
  8
0
 10
57.35431498427442
 20
13.3870283304749
 11
58.02525111229635
 21
13.78020917594644
  0
LINE
  8
0
 10
58.02525111229635
 20
13.78020917594644
 11
58.77239986624129
 21
14.264010527086365
  0
LINE
  8
0
 10
58.77239986624129
 20
14.264010527086365
 11
59.58883220145106
 21
14.845881719607538
  0
LINE
  8
0
 10
59.58883220145106
 20
14.845881719607538
 11
60.379100556838004
 21
15.463988273814756
  0
LINE
  8
0
 10
60.379100556838004
 20
15.463988273814756
 11
60.172014374509324
 21
16.482817626786264
  0
LINE
  8
0
 10
60.172014374509324
 20
16.482817626786264
 11
59.83097925859241
 21
17.464954576045052
  0
LINE
  8
0
 10
59.83097925859241
 20
17.464954576045052
 11
58.83603373067767
 21
17.59404052541466
  0
LINE
  8
0
 10
58.83603373067767
 20
17.59404052541466
 11
57.837042816528744
 21
17.678615912814486
  0
LINE
  8
0
 10
57.837042816528744
 20
17.678615912814486
 11
56.94764162844605
 21
17.714119919881117
  0
LINE
  8
0
 10
56.94764162844605
 20
17.714119919881117
 11
56.16999562191266
 21
17.710493123303426
  0
LINE
  8
0
 10
56.16999562191266
 20
17.710493123303426
 11
55.505602014663374
 21
17.677761654672185
  0
LINE
  8
0
 10
55.505602014663374
 20
17.677761654672185
 11
54.85102080509187
 21
17.616189827777617
  0
LINE
  8
0
 10
54.85102080509187
 20
17.616189827777617
 11
54.59523242422731
 21
17.632912135701698
  0
LINE
  8
0
 10
54.59523242422731
 20
17.632912135701698
 11
54.451793297488905
 21
17.702479746705787
  0
LINE
  8
0
 10
54.451793297488905
 20
17.702479746705787
 11
53.70484376453257
 21
19.853597626681374
  0
LINE
  8
0
 10
53.70484376453257
 20
19.853597626681374
 11
53.77430018382544
 21
19.997090627903102
  0
LINE
  8
0
 10
53.77430018382544
 20
19.997090627903102
 11
53.964679099405885
 21
20.168739105527475
  0
LINE
  8
0
 10
53.964679099405885
 20
20.168739105527475
 11
54.51655316317758
 21
20.526094205568906
  0
LINE
  8
0
 10
54.51655316317758
 20
20.526094205568906
 11
55.05825418178124
 21
20.91216443342659
  0
LINE
  8
0
 10
55.05825418178124
 20
20.91216443342659
 11
55.67079799644932
 21
21.39126415190141
  0
LINE
  8
0
 10
55.67079799644932
 20
21.39126415190141
 11
56.346795897687876
 21
21.970333962379684
  0
LINE
  8
0
 10
56.346795897687876
 20
21.970333962379684
 11
57.07838776604507
 21
22.655833182522013
  0
LINE
  8
0
 10
57.07838776604507
 20
22.655833182522013
 11
57.779219401963275
 21
23.37375713669547
  0
LINE
  8
0
 10
57.779219401963275
 20
23.37375713669547
 11
57.438184286046386
 21
24.355894085954255
  0
LINE
  8
0
 10
57.438184286046386
 20
24.355894085954255
 11
56.96928601626415
 21
25.283812374373557
  0
LINE
  8
0
 10
56.96928601626415
 20
25.283812374373557
 11
55.966012428434546
 21
25.279133292652347
  0
LINE
  8
0
 10
55.966012428434546
 20
25.279133292652347
 11
54.96466222666429
 21
25.229801597763306
  0
LINE
  8
0
 10
54.96466222666429
 20
25.229801597763306
 11
54.07846451021194
 21
25.146443243440967
  0
LINE
  8
0
 10
54.07846451021194
 20
25.146443243440967
 11
53.30824046405684
 21
25.039198738429285
  0
LINE
  8
0
 10
53.30824046405684
 20
25.039198738429285
 11
52.65413759443689
 21
24.918204315634558
  0
LINE
  8
0
 10
52.65413759443689
 20
24.918204315634558
 11
52.01360361480502
 21
24.769934727626122
  0
LINE
  8
0
 10
52.01360361480502
 20
24.769934727626122
 11
51.757868643288575
 21
24.752414576054246
  0
LINE
  8
0
 10
51.757868643288575
 20
24.752414576054246
 11
51.60643689879419
 21
24.80224290474067
  0
LINE
  8
0
 10
51.60643689879419
 20
24.80224290474067
 11
50.579436079021406
 21
26.834608780886096
  0
LINE
  8
0
 10
50.579436079021406
 20
26.834608780886096
 11
50.62914702734011
 21
26.986079098763426
  0
LINE
  8
0
 10
50.62914702734011
 20
26.986079098763426
 11
50.79494878181412
 21
27.18157106683806
  0
LINE
  8
0
 10
50.79494878181412
 20
27.18157106683806
 11
51.294267969442934
 21
27.609295275476306
  0
LINE
  8
0
 10
51.294267969442934
 20
27.609295275476306
 11
51.77967752905991
 21
28.064122466645397
  0
LINE
  8
0
 10
51.77967752905991
 20
28.064122466645397
 11
52.32289817148996
 21
28.620591512297235
  0
LINE
  8
0
 10
52.32289817148996
 20
28.620591512297235
 11
52.915682021459844
 21
29.28459626762746
  0
LINE
  8
0
 10
52.915682021459844
 20
29.28459626762746
 11
53.54937814874189
 21
30.061490765567726
  0
LINE
  8
0
 10
53.54937814874189
 20
30.061490765567726
 11
54.14826670804547
 21
30.86642074973728
  0
LINE
  8
0
 10
54.14826670804547
 20
30.86642074973728
 11
53.6793684382632
 21
31.794339038156576
  0
LINE
  8
0
 10
53.6793684382632
 20
31.794339038156576
 11
53.090974515348144
 21
32.65147994189672
  0
LINE
  8
0
 10
53.090974515348144
 20
32.65147994189672
 11
52.097276308546554
 21
32.513119327408866
  0
LINE
  8
0
 10
52.097276308546554
 20
32.513119327408866
 11
51.111435937227995
 21
32.33076087549494
  0
LINE
  8
0
 10
51.111435937227995
 20
32.33076087549494
 11
50.24425591165048
 21
32.13002769159131
  0
LINE
  8
0
 10
50.24425591165048
 20
32.13002769159131
 11
49.49519849222425
 21
31.921079258878247
  0
LINE
  8
0
 10
49.49519849222425
 20
31.921079258878247
 11
48.863058841438
 21
31.713981030261223
  0
LINE
  8
0
 10
48.863058841438
 20
31.713981030261223
 11
48.24800243578683
 21
31.48165955544949
  0
LINE
  8
0
 10
48.24800243578683
 20
31.48165955544949
 11
47.99688447024368
 21
31.430209591901523
  0
LINE
  8
0
 10
47.99688447024368
 20
31.430209591901523
 11
47.840162411061314
 21
31.459409450564415
  0
LINE
  8
0
 10
47.840162411061314
 20
31.459409450564415
 11
46.55143715843101
 21
33.33675570567222
  0
LINE
  8
0
 10
46.55143715843101
 20
33.33675570567222
 11
46.58051554272514
 21
33.493500348794235
  0
LINE
  8
0
 10
46.58051554272514
 20
33.493500348794235
 11
46.7187813998562
 21
33.709347248517545
  0
LINE
  8
0
 10
46.7187813998562
 20
33.709347248517545
 11
47.15663534860979
 21
34.19980781711648
  0
LINE
  8
0
 10
47.15663534860979
 20
34.19980781711648
 11
47.57709130414917
 21
34.71527556959552
  0
LINE
  8
0
 10
47.57709130414917
 20
34.71527556959552
 11
48.04129498910789
 21
35.339183739121715
  0
LINE
  8
0
 10
48.04129498910789
 20
35.339183739121715
 11
48.540286545963085
 21
36.07627425871446
  0
LINE
  8
0
 10
48.540286545963085
 20
36.07627425871446
 11
49.06477860976609
 21
36.93070033373194
  0
LINE
  8
0
 10
49.06477860976609
 20
36.93070033373194
 11
49.55103691192625
 21
37.80827235326092
  0
LINE
  8
0
 10
49.55103691192625
 20
37.80827235326092
 11
48.96264298901126
 21
38.66541325700109
  0
LINE
  8
0
 10
48.96264298901126
 20
38.66541325700109
 11
48.265253316457276
 21
39.436481076328846
  0
LINE
  8
0
 10
48.265253316457276
 20
39.436481076328846
 11
47.29886305872515
 21
39.16690797751769
  0
LINE
  8
0
 10
47.29886305872515
 20
39.16690797751769
 11
46.34612486263947
 21
38.85477695947343
  0
LINE
  8
0
 10
46.34612486263947
 20
38.85477695947343
 11
45.51343737603711
 21
38.54025103441073
  0
LINE
  8
0
 10
45.51343737603711
 20
38.54025103441073
 11
44.79891353073491
 21
38.23332736372813
  0
LINE
  8
0
 10
44.79891353073491
 20
38.23332736372813
 11
44.20001764582629
 21
37.94382100208471
  0
LINE
  8
0
 10
44.20001764582629
 20
37.94382100208471
 11
43.62141451028563
 21
37.6315934226915
  0
LINE
  8
0
 10
43.62141451028563
 20
37.6315934226915
 11
43.379394756759986
 21
37.54713177298582
  0
LINE
  8
0
 10
43.379394756759986
 20
37.54713177298582
 11
43.22017909174856
 21
37.5551820894556
  0
LINE
  8
0
 10
43.22017909174856
 20
37.5551820894556
 11
41.6927267389244
 21
39.244007435128225
  0
LINE
  8
0
 10
41.6927267389244
 20
39.244007435128225
 11
41.70065365473734
 21
39.40322929162506
  0
LINE
  8
0
 10
41.70065365473734
 20
39.40322929162506
 11
41.80891625702936
 21
39.635579329957984
  0
LINE
  8
0
 10
41.80891625702936
 20
39.635579329957984
 11
42.17749145281929
 21
40.180023978051736
  0
LINE
  8
0
 10
42.17749145281929
 20
40.180023978051736
 11
42.525490757793676
 21
40.74693375758606
  0
LINE
  8
0
 10
42.525490757793676
 20
40.74693375758606
 11
42.90239375952578
 21
41.42714739492077
  0
LINE
  8
0
 10
42.90239375952578
 20
41.42714739492077
 11
43.29868850711288
 21
42.2241702809919
  0
LINE
  8
0
 10
43.29868850711288
 20
42.2241702809919
 11
43.70461693413283
 21
43.14088067953619
  0
LINE
  8
0
 10
43.70461693413283
 20
43.14088067953619
 11
44.06956768822792
 21
44.07543444094604
  0
LINE
  8
0
 10
44.06956768822792
 20
44.07543444094604
 11
43.37217801567394
 21
44.84650226027379
  0
LINE
  8
0
 10
43.37217801567394
 20
44.84650226027379
 11
42.5782375287091
 21
45.51773727168626
  0
LINE
  8
0
 10
42.5782375287091
 20
45.51773727168626
 11
41.656400477089946
 21
45.121762226886425
  0
LINE
  8
0
 10
41.656400477089946
 20
45.121762226886425
 11
40.753766091917065
 21
44.68542862812337
  0
LINE
  8
0
 10
40.753766091917065
 20
44.68542862812337
 11
39.970430472215
 21
44.26272268448559
  0
LINE
  8
0
 10
39.970430472215
 20
44.26272268448559
 11
39.30319089598363
 21
43.86330083600793
  0
LINE
  8
0
 10
39.30319089598363
 20
43.86330083600793
 11
38.74822608820696
 21
43.4965525892202
  0
LINE
  8
0
 10
38.74822608820696
 20
43.4965525892202
 11
38.21640140943788
 21
43.10999061379659
  0
LINE
  8
0
 10
38.21640140943788
 20
43.10999061379659
 11
37.98779871616497
 21
42.99402449807313
  0
LINE
  8
0
 10
37.98779871616497
 20
42.99402449807313
 11
37.8289306526385
 21
42.98078161426165
  0
LINE
  8
0
 10
37.8289306526385
 20
42.98078161426165
 11
36.09000862304265
 21
44.45094892219657
  0
LINE
  8
0
 10
36.09000862304265
 20
44.45094892219657
 11
36.076642614373924
 21
44.609806674267006
  0
LINE
  8
0
 10
36.076642614373924
 20
44.609806674267006
 11
36.15297001312423
 21
44.854513559271005
  0
LINE
  8
0
 10
36.15297001312423
 20
44.854513559271005
 11
36.4456892228499
 21
45.443226659216215
  0
LINE
  8
0
 10
36.4456892228499
 20
45.443226659216215
 11
36.71502182141777
 21
46.0514619473597
  0
LINE
  8
0
 10
36.71502182141777
 20
46.0514619473597
 11
36.997898296928355
 21
46.775842624030126
  0
LINE
  8
0
 10
36.997898296928355
 20
46.775842624030126
 11
37.28442434608827
 21
47.618574984295876
  0
LINE
  8
0
 10
37.28442434608827
 20
47.618574984295876
 11
37.564545333928365
 21
48.581210987587674
  0
LINE
  8
0
 10
37.564545333928365
 20
48.581210987587674
 11
37.80167598510568
 21
49.55606935686606
  0
LINE
  8
0
 10
37.80167598510568
 20
49.55606935686606
 11
37.00773549814092
 21
50.22730436827854
  0
LINE
  8
0
 10
37.00773549814092
 20
50.22730436827854
 11
36.131412083564
 21
50.78672836709526
  0
LINE
  8
0
 10
36.131412083564
 20
50.78672836709526
 11
35.27057844208262
 21
50.271417560361975
  0
LINE
  8
0
 10
35.27057844208262
 20
50.271417560361975
 11
34.43415539980976
 21
49.71866776428697
  0
LINE
  8
0
 10
34.43415539980976
 20
49.71866776428697
 11
33.71415028969916
 21
49.19532499965243
  0
LINE
  8
0
 10
33.71415028969916
 20
49.19532499965243
 11
33.106101888583666
 21
48.71053266572829
  0
LINE
  8
0
 10
33.106101888583666
 20
48.71053266572829
 11
32.60497151808107
 21
48.273087164948585
  0
LINE
  8
0
 10
32.60497151808107
 20
48.273087164948585
 11
32.12941572007537
 21
47.81908900110383
  0
LINE
  8
0
 10
32.12941572007537
 20
47.81908900110383
 11
31.91830950753234
 21
47.673687837444966
  0
LINE
  8
0
 10
31.91830950753234
 20
47.673687837444966
 11
31.76262404984811
 21
47.639388072927595
  0
LINE
  8
0
 10
31.76262404984811
 20
47.639388072927595
 11
29.843263448294532
 21
48.864662172685776
  0
LINE
  8
0
 10
29.843263448294532
 20
48.864662172685776
 11
29.808843031885488
 21
49.020320999980704
  0
LINE
  8
0
 10
29.808843031885488
 20
49.020320999980704
 11
29.851873162855146
 21
49.273017931495694
  0
LINE
  8
0
 10
29.851873162855146
 20
49.273017931495694
 11
30.063512805284358
 21
49.895493884076956
  0
LINE
  8
0
 10
30.063512805284358
 20
49.895493884076956
 11
30.24937245084367
 21
50.53420070770332
  0
LINE
  8
0
 10
30.24937245084367
 20
50.53420070770332
 11
30.433174462725777
 21
51.28982183337337
  0
LINE
  8
0
 10
30.433174462725777
 20
51.28982183337337
 11
30.604818749323314
 21
52.1632250889001
  0
LINE
  8
0
 10
30.604818749323314
 20
52.1632250889001
 11
30.754133532319365
 21
53.154608434655394
  0
LINE
  8
0
 10
30.754133532319365
 20
53.154608434655394
 11
30.85921247849091
 21
54.152375041107696
  0
LINE
  8
0
 10
30.85921247849091
 20
54.152375041107696
 11
29.982889063914012
 21
54.71179903992442
  0
LINE
  8
0
 10
29.982889063914012
 20
54.71179903992442
 11
29.039820733818615
 21
55.1494290916335
  0
LINE
  8
0
 10
29.039820733818615
 20
55.1494290916335
 11
28.255352099200802
 21
54.52397825652089
  0
LINE
  8
0
 10
28.255352099200802
 20
54.52397825652089
 11
27.500066388832554
 21
53.86467609633978
  0
LINE
  8
0
 10
27.500066388832554
 20
53.86467609633978
 11
26.856240296560568
 21
53.250035574741595
  0
LINE
  8
0
 10
26.856240296560568
 20
53.250035574741595
 11
26.318233708683785
 21
52.68852388605478
  0
LINE
  8
0
 10
26.318233708683785
 20
52.68852388605478
 11
25.879880458788886
 21
52.1881873566078
  0
LINE
  8
0
 10
25.879880458788886
 20
52.1881873566078
 11
25.46907984602811
 21
51.67485461233113
  0
LINE
  8
0
 10
25.46907984602811
 20
51.67485461233113
 11
25.27923730957899
 21
51.50261308794697
  0
LINE
  8
0
 10
25.27923730957899
 20
51.50261308794697
 11
25.129512668417636
 21
51.44786852283409
  0
LINE
  8
0
 10
25.129512668417636
 20
51.44786852283409
 11
23.06396453031155
 21
52.406384369078076
  0
LINE
  8
0
 10
23.06396453031155
 20
52.406384369078076
 11
23.009103939308442
 21
52.5560665361368
  0
LINE
  8
0
 10
23.009103939308442
 20
52.5560665361368
 11
23.018068928790893
 21
52.81224413143337
  0
LINE
  8
0
 10
23.018068928790893
 20
52.81224413143337
 11
23.14485228949066
 21
53.45737483853014
  0
LINE
  8
0
 10
23.14485228949066
 20
53.45737483853014
 11
23.243922312263308
 21
54.115155459240526
  0
LINE
  8
0
 10
23.243922312263308
 20
54.115155459240526
 11
23.32536990926055
 21
54.88853295702163
  0
LINE
  8
0
 10
23.32536990926055
 20
54.88853295702163
 11
23.379069436935055
 21
55.777021206023164
  0
LINE
  8
0
 10
23.379069436935055
 20
55.777021206023164
 11
23.394913489247166
 21
56.779460634950645
  0
LINE
  8
0
 10
23.394913489247166
 20
56.779460634950645
 11
23.36606559412917
 21
57.78233030984722
  0
LINE
  8
0
 10
23.36606559412917
 20
57.78233030984722
 11
22.422997264033775
 21
58.219960361556296
  0
LINE
  8
0
 10
22.422997264033775
 20
58.219960361556296
 11
21.430013095112127
 21
58.5279869475173
  0
LINE
  8
0
 10
21.430013095112127
 20
58.5279869475173
 11
20.73590832872704
 21
57.80355726899516
  0
LINE
  8
0
 10
20.73590832872704
 20
57.80355726899516
 11
20.075238041657965
 21
57.04946800737554
  0
LINE
  8
0
 10
20.075238041657965
 20
57.04946800737554
 11
19.519080059093714
 21
56.35449800348273
  0
LINE
  8
0
 10
19.519080059093714
 20
56.35449800348273
 11
19.060716024761923
 21
55.72628714942033
  0
LINE
  8
0
 10
19.060716024761923
 20
55.72628714942033
 11
18.692962319603872
 21
55.17198810852724
  0
LINE
  8
0
 10
18.692962319603872
 20
55.17198810852724
 11
18.35424763875478
 21
54.60848121880136
  0
LINE
  8
0
 10
18.35424763875478
 20
54.60848121880136
 11
18.189056522959955
 21
54.41247298777501
  0
LINE
  8
0
 10
18.189056522959955
 20
54.41247298777501
 11
18.047964538090046
 21
54.33826054012798
  0
LINE
  8
0
 10
18.047964538090046
 20
54.33826054012798
 11
15.8730886188897
 21
55.01291339487389
  0
LINE
  8
0
 10
15.8730886188897
 20
55.01291339487389
 11
15.798766841838646
 21
55.1539478198792
  0
LINE
  8
0
 10
15.798766841838646
 20
55.1539478198792
 11
15.77350670938419
 21
55.409034583700326
  0
LINE
  8
0
 10
15.77350670938419
 20
55.409034583700326
 11
15.813171336279277
 21
56.06530767256104
  0
LINE
  8
0
 10
15.813171336279277
 20
56.06530767256104
 11
15.823683829361867
 21
56.73042397959576
  0
LINE
  8
0
 10
15.823683829361867
 20
56.73042397959576
 11
15.801323577176303
 21
57.50775690971836
  0
LINE
  8
0
 10
15.801323577176303
 20
57.50775690971836
 11
15.736120076584255
 21
58.39547505834258
  0
LINE
  8
0
 10
15.736120076584255
 20
58.39547505834258
 11
15.61821066072356
 21
59.391082015084805
  0
LINE
  8
0
 10
15.61821066072356
 20
59.391082015084805
 11
15.455950715687816
 21
60.381158525318675
  0
LINE
  8
0
 10
15.455950715687816
 20
60.381158525318675
 11
14.462966546766179
 21
60.689185111279706
  0
LINE
  8
0
 10
14.462966546766179
 20
60.689185111279706
 11
13.43778636503691
 21
60.86211148976889
  0
LINE
  8
0
 10
13.43778636503691
 20
60.86211148976889
 11
12.846431782884347
 21
60.05163043261251
  0
LINE
  8
0
 10
12.846431782884347
 20
60.05163043261251
 11
12.292166596038774
 21
59.216210810292694
  0
LINE
  8
0
 10
12.292166596038774
 20
59.216210810292694
 11
11.83360137555674
 21
58.453313080288886
  0
LINE
  8
0
 10
11.83360137555674
 20
58.453313080288886
 11
11.463059411821437
 21
57.769613498424214
  0
LINE
  8
0
 10
11.463059411821437
 20
57.769613498424214
 11
11.172467824981029
 21
57.17124342560135
  0
LINE
  8
0
 10
11.172467824981029
 20
57.17124342560135
 11
10.911883447547673
 21
56.56761818422313
  0
LINE
  8
0
 10
10.911883447547673
 20
56.56761818422313
 11
10.774291591781955
 21
56.35134101808079
  0
LINE
  8
0
 10
10.774291591781955
 20
56.35134101808079
 11
10.644350053016016
 21
56.258985010786006
  0
LINE
  8
0
 10
10.644350053016016
 20
56.258985010786006
 11
8.398957065023314
 21
56.63773567785806
  0
LINE
  8
0
 10
8.398957065023314
 20
56.63773567785806
 11
8.306500375796505
 21
56.767605598154574
  0
LINE
  8
0
 10
8.306500375796505
 20
56.767605598154574
 11
8.247465889067218
 21
57.01704950115676
  0
LINE
  8
0
 10
8.247465889067218
 20
57.01704950115676
 11
8.199303965951007
 21
57.672753762963296
  0
LINE
  8
0
 10
8.199303965951007
 20
57.672753762963296
 11
8.121071333655436
 21
58.333336740066414
  0
LINE
  8
0
 10
8.121071333655436
 20
58.333336740066414
 11
7.995302251517041
 21
59.100753577977116
  0
LINE
  8
0
 10
7.995302251517041
 20
59.100753577977116
 11
7.812359280671203
 21
59.97186027483139
  0
LINE
  8
0
 10
7.812359280671203
 20
59.97186027483139
 11
7.562800492957065
 21
60.94286812965892
  0
LINE
  8
0
 10
7.562800492957065
 20
60.94286812965892
 11
7.270024030566731
 21
61.9024835364496
  0
LINE
  8
0
 10
7.270024030566731
 20
61.9024835364496
 11
6.244843848837483
 21
62.075409914938824
  0
LINE
  8
0
 10
6.244843848837483
 20
62.075409914938824
 11
5.2057620189305585
 21
62.110150210635425
  0
LINE
  8
0
 10
5.2057620189305585
 20
62.110150210635425
 11
4.7277103575384665
 21
61.22808082851036
  0
LINE
  8
0
 10
4.7277103575384665
 20
61.22808082851036
 11
4.2897411463064365
 21
60.32623892844209
  0
LINE
  8
0
 10
4.2897411463064365
 20
60.32623892844209
 11
3.9369517951297333
 21
59.509027400392576
  0
LINE
  8
0
 10
3.9369517951297333
 20
59.509027400392576
 11
3.660844232112078
 21
58.78203972596117
  0
LINE
  8
0
 10
3.660844232112078
 20
58.78203972596117
 11
3.4526003773407217
 21
58.15027654933369
  0
LINE
  8
0
 10
3.4526003773407217
 20
58.15027654933369
 11
3.27479643771176
 21
57.51730466303569
  0
LINE
  8
0
 10
3.27479643771176
 20
57.51730466303569
 11
3.1672591719008967
 21
57.28461803293086
  0
LINE
  8
0
 10
3.1672591719008967
 20
57.28461803293086
 11
3.0507868890765857
 21
57.17576656112644
  0
LINE
  8
0
 10
3.0507868890765857
 20
57.17576656112644
 11
0.7749459233565974
 21
57.25185622589799
  0
LINE
  8
0
 10
0.7749459233565974
 20
57.25185622589799
 11
0.666004213763628
 21
57.368244109681335
  0
LINE
  8
0
 10
0.666004213763628
 20
57.368244109681335
 11
0.5742488445737457
 21
57.60759381950606
  0
LINE
  8
0
 10
0.5742488445737457
 20
57.60759381950606
 11
0.43911982210522305
 21
58.25102819617256
  0
LINE
  8
0
 10
0.43911982210522305
 20
58.25102819617256
 11
0.2735381276081707
 21
58.89528972446818
  0
LINE
  8
0
 10
0.2735381276081707
 20
58.89528972446818
 11
0.04660456776722767
 21
59.639095898514014
  0
LINE
  8
0
 10
0.04660456776722767
 20
59.639095898514014
 11
-0.25081325168365337
 21
60.478046223956085
  0
LINE
  8
0
 10
-0.25081325168365337
 20
60.478046223956085
 11
-0.6275680287723195
 21
61.40712731869593
  0
LINE
  8
0
 10
-0.6275680287723195
 20
61.40712731869593
 11
-1.0456364056098741
 21
62.31915726237555
  0
LINE
  8
0
 10
-1.0456364056098741
 20
62.31915726237555
 11
-2.0847182355168004
 21
62.35389755807211
  0
LINE
  8
0
 10
-2.0847182355168004
 20
62.35389755807211
 11
-3.1191592737304124
 21
62.249831829576344
  0
LINE
  8
0
 10
-3.1191592737304124
 20
62.249831829576344
 11
-3.475377171139227
 21
61.31191467150327
  0
LINE
  8
0
 10
-3.475377171139227
 20
61.31191467150327
 11
-3.7892348358075942
 21
60.359743883758306
  0
LINE
  8
0
 10
-3.7892348358075942
 20
60.359743883758306
 11
-4.029952783349483
 21
59.50280171674123
  0
LINE
  8
0
 10
-4.029952783349483
 20
59.50280171674123
 11
-4.206698799646332
 21
58.745499062015966
  0
LINE
  8
0
 10
-4.206698799646332
 20
58.745499062015966
 11
-4.328878805826853
 21
58.091616610437555
  0
LINE
  8
0
 10
-4.328878805826853
 20
58.091616610437555
 11
-4.420729392136489
 21
57.44059347752612
  0
LINE
  8
0
 10
-4.420729392136489
 20
57.44059347752612
 11
-4.496293062936496
 21
57.19564968188548
  0
LINE
  8
0
 10
-4.496293062936496
 20
57.19564968188548
 11
-4.597217639172902
 21
57.07224520266452
  0
LINE
  8
0
 10
-4.597217639172902
 20
57.07224520266452
 11
-6.862894146671227
 21
56.84431604326511
  0
LINE
  8
0
 10
-6.862894146671227
 20
56.84431604326511
 11
-6.9863768092417935
 21
56.94514494599189
  0
LINE
  8
0
 10
-6.9863768092417935
 20
56.94514494599189
 11
-7.109215684155353
 21
57.170129261397044
  0
LINE
  8
0
 10
-7.109215684155353
 20
57.170129261397044
 11
-7.328900425368971
 21
57.78981165122865
  0
LINE
  8
0
 10
-7.328900425368971
 20
57.78981165122865
 11
-7.578876372806501
 21
58.40625486848148
  0
LINE
  8
0
 10
-7.578876372806501
 20
58.40625486848148
 11
-7.902924775598473
 21
59.11317713986552
  0
LINE
  8
0
 10
-7.902924775598473
 20
59.11317713986552
 11
-8.30951001562034
 21
59.90500000546277
  0
LINE
  8
0
 10
-8.30951001562034
 20
59.90500000546277
 11
-8.8067375841609
 21
60.77557486596895
  0
LINE
  8
0
 10
-8.8067375841609
 20
60.77557486596895
 11
-9.342637435356787
 21
61.62374415058618
  0
LINE
  8
0
 10
-9.342637435356787
 20
61.62374415058618
 11
-10.377078473570396
 21
61.51967842209038
  0
LINE
  8
0
 10
-10.377078473570396
 20
61.51967842209038
 11
-11.388419095257406
 21
61.278663724792594
  0
LINE
  8
0
 10
-11.388419095257406
 20
61.278663724792594
 11
-11.616446511864726
 21
60.30163594467699
  0
LINE
  8
0
 10
-11.616446511864726
 20
60.30163594467699
 11
-11.800591832507996
 21
59.31612777951998
  0
LINE
  8
0
 10
-11.800591832507996
 20
59.31612777951998
 11
-11.924942758938469
 21
58.434747126807096
  0
LINE
  8
0
 10
-11.924942758938469
 20
58.434747126807096
 11
-11.999173191666504
 21
57.66064357560239
  0
LINE
  8
0
 10
-11.999173191666504
 20
57.66064357560239
 11
-12.033109044151406
 21
56.99631039691221
  0
LINE
  8
0
 10
-12.033109044151406
 20
56.99631039691221
 11
-12.037367201253039
 21
56.33885354061719
  0
LINE
  8
0
 10
-12.037367201253039
 20
56.33885354061719
 11
-12.079608841546625
 21
56.08602360727676
  0
LINE
  8
0
 10
-12.079608841546625
 20
56.08602360727676
 11
-12.163184709741241
 21
55.95026827649446
  0
LINE
  8
0
 10
-12.163184709741241
 20
55.95026827649446
 11
-14.37826570806672
 21
55.42238769417332
  0
LINE
  8
0
 10
-14.37826570806672
 20
55.42238769417332
 11
-14.514085772575955
 21
55.5058583216857
  0
LINE
  8
0
 10
-14.514085772575955
 20
55.5058583216857
 11
-14.665816090580252
 21
55.712462392232894
  0
LINE
  8
0
 10
-14.665816090580252
 20
55.712462392232894
 11
-14.96613627112758
 21
56.297334548302516
  0
LINE
  8
0
 10
-14.96613627112758
 20
56.297334548302516
 11
-15.296045644801524
 21
56.874959010696884
  0
LINE
  8
0
 10
-15.296045644801524
 20
56.874959010696884
 11
-15.711426239119856
 21
57.532382334738955
  0
LINE
  8
0
 10
-15.711426239119856
 20
57.532382334738955
 11
-16.219923376472334
 21
58.26294764269617
  0
LINE
  8
0
 10
-16.219923376472334
 20
58.26294764269617
 11
-16.82875069872464
 21
59.05948083995866
  0
LINE
  8
0
 10
-16.82875069872464
 20
59.05948083995866
 11
-17.472918878738575
 21
59.82865386453599
  0
LINE
  8
0
 10
-17.472918878738575
 20
59.82865386453599
 11
-18.48425950042555
 21
59.58763916723821
  0
LINE
  8
0
 10
-18.48425950042555
 20
59.58763916723821
 11
-19.45445230823283
 21
59.21397641412138
  0
LINE
  8
0
 10
-19.45445230823283
 20
59.21397641412138
 11
-19.55022008938725
 21
58.215273095845674
  0
LINE
  8
0
 10
-19.55022008938725
 20
58.215273095845674
 11
-19.601366988396062
 21
57.21401396983097
  0
LINE
  8
0
 10
-19.601366988396062
 20
57.21401396983097
 11
-19.607131848487043
 21
56.32392309005024
  0
LINE
  8
0
 10
-19.607131848487043
 20
56.32392309005024
 11
-19.57752205381568
 21
55.54683253857618
  0
LINE
  8
0
 10
-19.57752205381568
 20
55.54683253857618
 11
-19.522608166513404
 21
54.88390367408632
  0
LINE
  8
0
 10
-19.522608166513404
 20
54.88390367408632
 11
-19.439197907492684
 21
54.231745427583725
  0
LINE
  8
0
 10
-19.439197907492684
 20
54.231745427583725
 11
-19.447363714208088
 21
53.975541112693634
  0
LINE
  8
0
 10
-19.447363714208088
 20
53.975541112693634
 11
-19.512099461013026
 21
53.82985748744391
  0
LINE
  8
0
 10
-19.512099461013026
 20
53.82985748744391
 11
-21.63705677727431
 21
53.01144552369827
  0
LINE
  8
0
 10
-21.63705677727431
 20
53.01144552369827
 11
-21.782790531453404
 21
53.076068340670844
  0
LINE
  8
0
 10
-21.782790531453404
 20
53.076068340670844
 11
-21.960704661429094
 21
53.260605311826616
  0
LINE
  8
0
 10
-21.960704661429094
 20
53.260605311826616
 11
-22.336301060573547
 21
53.80023017665332
  0
LINE
  8
0
 10
-22.336301060573547
 20
53.80023017665332
 11
-22.740256619894996
 21
54.32872816197361
  0
LINE
  8
0
 10
-22.740256619894996
 20
54.32872816197361
 11
-23.239556929193526
 21
54.924920803881555
  0
LINE
  8
0
 10
-23.239556929193526
 20
54.924920803881555
 11
-23.840891820414036
 21
55.58119159897082
  0
LINE
  8
0
 10
-23.840891820414036
 20
55.58119159897082
 11
-24.550454358389114
 21
56.289468979214234
  0
LINE
  8
0
 10
-24.550454358389114
 20
56.289468979214234
 11
-25.291395670788102
 21
56.965919832905996
  0
LINE
  8
0
 10
-25.291395670788102
 20
56.965919832905996
 11
-26.261588478595392
 21
56.59225707978924
  0
LINE
  8
0
 10
-26.261588478595392
 20
56.59225707978924
 11
-27.17332035888338
 21
56.092614291535135
  0
LINE
  8
0
 10
-27.17332035888338
 20
56.092614291535135
 11
-27.135119526261366
 21
55.09005731947357
  0
LINE
  8
0
 10
-27.135119526261366
 20
55.09005731947357
 11
-27.052355286011217
 21
54.09091472542517
  0
LINE
  8
0
 10
-27.052355286011217
 20
54.09091472542517
 11
-26.939431205697804
 21
53.207997311412925
  0
LINE
  8
0
 10
-26.939431205697804
 20
53.207997311412925
 11
-26.806509571114425
 21
52.441786958970184
  0
LINE
  8
0
 10
-26.806509571114425
 20
52.441786958970184
 11
-26.663725883644823
 21
51.79209238997253
  0
LINE
  8
0
 10
-26.663725883644823
 20
51.79209238997253
 11
-26.49413566654999
 21
51.15687053262113
  0
LINE
  8
0
 10
-26.49413566654999
 20
51.15687053262113
 11
-26.468079920672928
 21
50.90186380825018
  0
LINE
  8
0
 10
-26.468079920672928
 20
50.90186380825018
 11
-26.512820335152842
 21
50.748851616276916
  0
LINE
  8
0
 10
-26.512820335152842
 20
50.748851616276916
 11
-28.50973405570006
 21
49.654512851988365
  0
LINE
  8
0
 10
-28.50973405570006
 20
49.654512851988365
 11
-28.662780877253198
 21
49.69913466272131
  0
LINE
  8
0
 10
-28.662780877253198
 20
49.69913466272131
 11
-28.863703937336
 21
49.85831146786363
  0
LINE
  8
0
 10
-28.863703937336
 20
49.85831146786363
 11
-29.3078740284368
 21
50.34305942295062
  0
LINE
  8
0
 10
-29.3078740284368
 20
50.34305942295062
 11
-29.778667176879782
 21
50.812999872128444
  0
LINE
  8
0
 10
-29.778667176879782
 20
50.812999872128444
 11
-30.352977175310436
 21
51.337322760083346
  0
LINE
  8
0
 10
-30.352977175310436
 20
51.337322760083346
 11
-31.036418985019264
 21
51.90758787441895
  0
LINE
  8
0
 10
-31.036418985019264
 20
51.90758787441895
 11
-31.834054578417096
 21
52.514970211013456
  0
LINE
  8
0
 10
-31.834054578417096
 20
52.514970211013456
 11
-32.65854690792816
 21
53.08662761231017
  0
LINE
  8
0
 10
-32.65854690792816
 20
53.08662761231017
 11
-33.570278788216136
 21
52.586984824056024
  0
LINE
  8
0
 10
-33.570278788216136
 20
52.586984824056024
 11
-34.40727986398171
 21
51.970278138057644
  0
LINE
  8
0
 10
-34.40727986398171
 20
51.970278138057644
 11
-34.23579211234644
 21
50.98175816512777
  0
LINE
  8
0
 10
-34.23579211234644
 20
50.98175816512777
 11
-34.020593662665306
 21
50.0025618263066
  0
LINE
  8
0
 10
-34.020593662665306
 20
50.0025618263066
 11
-33.79099577483593
 21
49.142573560232584
  0
LINE
  8
0
 10
-33.79099577483593
 20
49.142573560232584
 11
-33.55713429005864
 21
48.40091644871238
  0
LINE
  8
0
 10
-33.55713429005864
 20
48.40091644871238
 11
-33.329028780707205
 21
47.77604999018224
  0
LINE
  8
0
 10
-33.329028780707205
 20
47.77604999018224
 11
-33.076284946979996
 21
47.16910007107515
  0
LINE
  8
0
 10
-33.076284946979996
 20
47.16910007107515
 11
-33.01647261391291
 21
46.91984153826094
  0
LINE
  8
0
 10
-33.01647261391291
 20
46.91984153826094
 11
-33.040419302311484
 21
46.76223128575485
  0
LINE
  8
0
 10
-33.040419302311484
 20
46.76223128575485
 11
-34.87365445449371
 21
45.411494222097474
  0
LINE
  8
0
 10
-34.87365445449371
 20
45.411494222097474
 11
-35.03128321926453
 21
45.43531874932114
  0
LINE
  8
0
 10
-35.03128321926453
 20
45.43531874932114
 11
-35.251629732687306
 21
45.56629487459128
  0
LINE
  8
0
 10
-35.251629732687306
 20
45.56629487459128
 11
-35.75644728994618
 21
45.98751558119614
  0
LINE
  8
0
 10
-35.75644728994618
 20
45.98751558119614
 11
-36.28567671262343
 21
46.39051239578283
  0
LINE
  8
0
 10
-36.28567671262343
 20
46.39051239578283
 11
-36.92474782465855
 21
46.8336089754277
  0
LINE
  8
0
 10
-36.92474782465855
 20
46.8336089754277
 11
-37.67810051757041
 21
47.30769201453449
  0
LINE
  8
0
 10
-37.67810051757041
 20
47.30769201453449
 11
-38.54957534033047
 21
47.803340555294405
  0
LINE
  8
0
 10
-38.54957534033047
 20
47.803340555294405
 11
-39.44290560180088
 21
48.26000326432701
  0
LINE
  8
0
 10
-39.44290560180088
 20
48.26000326432701
 11
-40.27990667756645
 21
47.64329657832865
  0
LINE
  8
0
 10
-40.27990667756645
 20
47.64329657832865
 11
-41.02724064478371
 21
46.9205311400078
  0
LINE
  8
0
 10
-41.02724064478371
 20
46.9205311400078
 11
-40.72552617712571
 21
45.96368832854499
  0
LINE
  8
0
 10
-40.72552617712571
 20
45.96368832854499
 11
-40.38173373944631
 21
45.021912026814896
  0
LINE
  8
0
 10
-40.38173373944631
 20
45.021912026814896
 11
-40.03955922384854
 21
44.20019941966071
  0
LINE
  8
0
 10
-40.03955922384854
 20
44.20019941966071
 11
-39.708931152613474
 21
43.49633043778829
  0
LINE
  8
0
 10
-39.708931152613474
 20
43.49633043778829
 11
-39.39957436959852
 21
42.9074428464815
  0
LINE
  8
0
 10
-39.39957436959852
 20
42.9074428464815
 11
-39.0681871389394
 21
42.339595901304094
  0
LINE
  8
0
 10
-39.0681871389394
 20
42.339595901304094
 11
-38.97568557118285
 21
42.100533584469765
  0
LINE
  8
0
 10
-38.97568557118285
 20
42.100533584469765
 11
-38.9784112042783
 21
41.94113783012065
  0
LINE
  8
0
 10
-38.9784112042783
 20
41.94113783012065
 11
-40.6152536633747
 21
40.35810640199499
  0
LINE
  8
0
 10
-40.6152536633747
 20
40.35810640199499
 11
-40.77465148232157
 21
40.36070849645667
  0
LINE
  8
0
 10
-40.77465148232157
 20
40.36070849645667
 11
-41.01048936033219
 21
40.461146669796285
  0
LINE
  8
0
 10
-41.01048936033219
 20
40.461146669796285
 11
-41.5669459024805
 21
40.81132343443075
  0
LINE
  8
0
 10
-41.5669459024805
 20
40.81132343443075
 11
-42.14516748780667
 21
41.140185126722834
  0
LINE
  8
0
 10
-42.14516748780667
 20
41.140185126722834
 11
-42.83759547431211
 21
41.494148329096745
  0
LINE
  8
0
 10
-42.83759547431211
 20
41.494148329096745
 11
-43.647415453774734
 21
41.86358926991063
  0
LINE
  8
0
 10
-43.647415453774734
 20
41.86358926991063
 11
-44.57717801703925
 21
42.23865915488395
  0
LINE
  8
0
 10
-44.57717801703925
 20
42.23865915488395
 11
-45.5234047107897
 21
42.572178014791305
  0
LINE
  8
0
 10
-45.5234047107897
 20
42.572178014791305
 11
-46.270738678006914
 21
41.849412576470414
  0
LINE
  8
0
 10
-46.270738678006914
 20
41.849412576470414
 11
-46.915069344326135
 21
41.03348615219648
  0
LINE
  8
0
 10
-46.915069344326135
 20
41.03348615219648
 11
-46.48851226246855
 21
40.12539538483933
  0
LINE
  8
0
 10
-46.48851226246855
 20
40.12539538483933
 11
-46.022260820985856
 21
39.23784514061579
  0
LINE
  8
0
 10
-46.022260820985856
 20
39.23784514061579
 11
-45.573615789956804
 21
38.46907167332282
  0
LINE
  8
0
 10
-45.573615789956804
 20
38.46907167332282
 11
-45.152121198027885
 21
37.81555137975467
  0
LINE
  8
0
 10
-45.152121198027885
 20
37.81555137975467
 11
-44.767033620471096
 21
37.27315136868911
  0
LINE
  8
0
 10
-44.767033620471096
 20
37.27315136868911
 11
-44.36291660586189
 21
36.754540639630626
  0
LINE
  8
0
 10
-44.36291660586189
 20
36.754540639630626
 11
-44.2393764960839
 21
36.52994061148357
  0
LINE
  8
0
 10
-44.2393764960839
 20
36.52994061148357
 11
-44.22083243488908
 21
36.37160377630395
  0
LINE
  8
0
 10
-44.22083243488908
 20
36.37160377630395
 11
-45.63207270843956
 21
34.5845272170476
  0
LINE
  8
0
 10
-45.63207270843956
 20
34.5845272170476
 11
-45.79039512370716
 21
34.565860444309976
  0
LINE
  8
0
 10
-45.79039512370716
 20
34.565860444309976
 11
-46.03751583378542
 21
34.63396834413642
  0
LINE
  8
0
 10
-46.03751583378542
 20
34.63396834413642
 11
-46.63568138064583
 21
34.906852254139736
  0
LINE
  8
0
 10
-46.63568138064583
 20
34.906852254139736
 11
-47.25257675073244
 21
35.15571027944738
  0
LINE
  8
0
 10
-47.25257675073244
 20
35.15571027944738
 11
-47.9860052178851
 21
35.41422362281843
  0
LINE
  8
0
 10
-47.9860052178851
 20
35.41422362281843
 11
-48.83784122717997
 21
35.672429782998364
  0
LINE
  8
0
 10
-48.83784122717997
 20
35.672429782998364
 11
-49.80929989598101
 21
35.92022788120218
  0
LINE
  8
0
 10
-49.80929989598101
 20
35.92022788120218
 11
-50.79153758424499
 21
36.124651240028015
  0
LINE
  8
0
 10
-50.79153758424499
 20
36.124651240028015
 11
-51.4358682505642
 21
35.308724815754076
  0
LINE
  8
0
 10
-51.4358682505642
 20
35.308724815754076
 11
-51.965697519980445
 21
34.4141976318979
  0
LINE
  8
0
 10
-51.965697519980445
 20
34.4141976318979
 11
-51.42190974515434
 21
33.57106380990295
  0
LINE
  8
0
 10
-51.42190974515434
 20
33.57106380990295
 11
-50.84151956788731
 21
32.75357797832059
  0
LINE
  8
0
 10
-50.84151956788731
 20
32.75357797832059
 11
-50.294410102634295
 21
32.051462431625275
  0
LINE
  8
0
 10
-50.294410102634295
 20
32.051462431625275
 11
-49.78957057098989
 21
31.459952911482286
  0
LINE
  8
0
 10
-49.78957057098989
 20
31.459952911482286
 11
-49.335624095835655
 21
30.97371962170512
  0
LINE
  8
0
 10
-49.335624095835655
 20
30.97371962170512
 11
-48.865988774975776
 21
30.513599729511714
  0
LINE
  8
0
 10
-48.865988774975776
 20
30.513599729511714
 11
-48.713614699362054
 21
30.307469982875087
  0
LINE
  8
0
 10
-48.713614699362054
 20
30.307469982875087
 11
-48.67413186308829
 21
30.153017591439813
  0
LINE
  8
0
 10
-48.67413186308829
 20
30.153017591439813
 11
-49.83458633497844
 21
28.19378632458935
  0
LINE
  8
0
 10
-49.83458633497844
 20
28.19378632458935
 11
-49.98900807931559
 21
28.154183793654145
  0
LINE
  8
0
 10
-49.98900807931559
 20
28.154183793654145
 11
-50.243001746535754
 21
28.188746032881493
  0
LINE
  8
0
 10
-50.243001746535754
 20
28.188746032881493
 11
-50.872202019753736
 21
28.379467468414923
  0
LINE
  8
0
 10
-50.872202019753736
 20
28.379467468414923
 11
-51.51676266210707
 21
28.543880949380952
  0
LINE
  8
0
 10
-51.51676266210707
 20
28.543880949380952
 11
-52.27810356153537
 21
28.702331257012393
  0
LINE
  8
0
 10
-52.27810356153537
 20
28.702331257012393
 11
-53.156754566896254
 21
28.844694941512948
  0
LINE
  8
0
 10
-53.156754566896254
 20
28.844694941512948
 11
-54.152573638274774
 21
28.96079929001436
  0
LINE
  8
0
 10
-54.152573638274774
 20
28.96079929001436
 11
-55.15329426623556
 21
29.032479208077532
  0
LINE
  8
0
 10
-55.15329426623556
 20
29.032479208077532
 11
-55.68312353565181
 21
28.137952024221352
  0
LINE
  8
0
 10
-55.68312353565181
 20
28.137952024221352
 11
-56.088996592300525
 21
27.180786939570638
  0
LINE
  8
0
 10
-56.088996592300525
 20
27.180786939570638
 11
-55.43768203023018
 21
26.41765580596558
  0
LINE
  8
0
 10
-55.43768203023018
 20
26.41765580596558
 11
-54.753510193641866
 21
25.68482244105558
  0
LINE
  8
0
 10
-54.753510193641866
 20
25.68482244105558
 11
-54.117699475533584
 21
25.061894083522116
  0
LINE
  8
0
 10
-54.117699475533584
 20
25.061894083522116
 11
-53.538523877575734
 21
24.54295083820438
  0
LINE
  8
0
 10
-53.538523877575734
 20
24.54295083820438
 11
-53.023819190427396
 21
24.121561114290753
  0
LINE
  8
0
 10
-53.023819190427396
 20
24.121561114290753
 11
-52.49704621674345
 21
23.72814290933907
  0
LINE
  8
0
 10
-52.49704621674345
 20
23.72814290933907
 11
-52.31855729428314
 21
23.5441618344249
  0
LINE
  8
0
 10
-52.31855729428314
 20
23.5441618344249
 11
-52.25884025507909
 21
23.396350093318187
  0
LINE
  8
0
 10
-52.25884025507909
 20
23.396350093318187
 11
-53.14780058776635
 21
21.299926647245595
  0
LINE
  8
0
 10
-53.14780058776635
 20
21.299926647245595
 11
-53.29556600148705
 21
21.240095066215556
  0
LINE
  8
0
 10
-53.29556600148705
 20
21.240095066215556
 11
-53.55190010284035
 21
21.240494880866006
  0
LINE
  8
0
 10
-53.55190010284035
 20
21.240494880866006
 11
-54.20090700863429
 21
21.34565041339417
  0
LINE
  8
0
 10
-54.20090700863429
 20
21.34565041339417
 11
-54.86163072332163
 21
21.42268538755573
  0
LINE
  8
0
 10
-54.86163072332163
 20
21.42268538755573
 11
-55.63729790863876
 21
21.478245109954116
  0
LINE
  8
0
 10
-55.63729790863876
 20
21.478245109954116
 11
-56.52708436205938
 21
21.502225835452727
  0
LINE
  8
0
 10
-56.52708436205938
 20
21.502225835452727
 11
-57.52949342109523
 21
21.484564549402165
  0
LINE
  8
0
 10
-57.52949342109523
 20
21.484564549402165
 11
-58.53083910543944
 21
21.422221896866763
  0
LINE
  8
0
 10
-58.53083910543944
 20
21.422221896866763
 11
-58.936712162088114
 21
20.465056812216005
  0
LINE
  8
0
 10
-58.936712162088114
 20
20.465056812216005
 11
-59.211386191657986
 21
19.462334460381932
  0
LINE
  8
0
 10
-59.211386191657986
 20
19.462334460381932
 11
-58.46416756613351
 21
18.792824108324876
  0
LINE
  8
0
 10
-58.46416756613351
 20
18.792824108324876
 11
-57.68842313285614
 21
18.157720638845202
  0
LINE
  8
0
 10
-57.68842313285614
 20
18.157720638845202
 11
-56.97525721921987
 21
17.62509564177122
  0
LINE
  8
0
 10
-56.97525721921987
 20
17.62509564177122
 11
-56.332080957215084
 21
17.18797922578542
  0
LINE
  8
0
 10
-56.332080957215084
 20
17.18797922578542
 11
-55.76580297540836
 21
16.83895277734148
  0
LINE
  8
0
 10
-55.76580297540836
 20
16.83895277734148
 11
-55.19129262509523
 21
16.519256816819126
  0
LINE
  8
0
 10
-55.19129262509523
 20
16.519256816819126
 11
-54.9898739948381
 21
16.360707560267862
  0
LINE
  8
0
 10
-54.9898739948381
 20
16.360707560267862
 11
-54.91098840468311
 21
16.22217417351148
  0
LINE
  8
0
 10
-54.91098840468311
 20
16.22217417351148
 11
-55.51259107997081
 21
14.025969274277118
  0
LINE
  8
0
 10
-55.51259107997081
 20
14.025969274277118
 11
-55.65106328576658
 21
13.946976339133156
  0
LINE
  8
0
 10
-55.65106328576658
 20
13.946976339133156
 11
-55.90516353314169
 21
13.913206594504798
  0
LINE
  8
0
 10
-55.90516353314169
 20
13.913206594504798
 11
-56.562395527902446
 21
13.930919721058565
  0
LINE
  8
0
 10
-56.562395527902446
 20
13.930919721058565
 11
-57.22749168458236
 21
13.919201497476736
  0
LINE
  8
0
 10
-57.22749168458236
 20
13.919201497476736
 11
-58.00364335649044
 21
13.870879170079638
  0
LINE
  8
0
 10
-58.00364335649044
 20
13.870879170079638
 11
-58.88868699763007
 21
13.776048999961661
  0
LINE
  8
0
 10
-58.88868699763007
 20
13.776048999961661
 11
-59.87979803091726
 21
13.624937245427105
  0
LINE
  8
0
 10
-59.87979803091726
 20
13.624937245427105
 11
-60.86389973418533
 21
13.42968452840448
  0
LINE
  8
0
 10
-60.86389973418533
 20
13.42968452840448
 11
-61.1385737637552
 21
12.426962176570438
  0
LINE
  8
0
 10
-61.1385737637552
 20
12.426962176570438
 11
-61.27714720168154
 21
11.39657616167646
  0
LINE
  8
0
 10
-61.27714720168154
 20
11.39657616167646
 11
-60.447358646777325
 21
10.832634019260873
  0
LINE
  8
0
 10
-60.447358646777325
 20
10.832634019260873
 11
-59.59388479460047
 21
10.306593881670269
  0
LINE
  8
0
 10
-59.59388479460047
 20
10.306593881670269
 11
-58.816090148060276
 21
9.873776950746679
  0
LINE
  8
0
 10
-58.816090148060276
 20
9.873776950746679
 11
-58.120390717641136
 21
9.526287716891554
  0
LINE
  8
0
 10
-58.120390717641136
 20
9.526287716891554
 11
-57.51264468517677
 21
9.255852929158378
  0
LINE
  8
0
 10
-57.51264468517677
 20
9.255852929158378
 11
-56.900649109046185
 21
9.015584195054615
  0
LINE
  8
0
 10
-56.900649109046185
 20
9.015584195054615
 11
-56.67989509122087
 21
8.885296072105508
  0
LINE
  8
0
 10
-56.67989509122087
 20
8.885296072105508
 11
-56.583248665340086
 21
8.75851317126804
  0
LINE
  8
0
 10
-56.583248665340086
 20
8.75851317126804
 11
-56.88675806923549
 21
6.501718147327809
  0
LINE
  8
0
 10
-56.88675806923549
 20
6.501718147327809
 11
-57.01346602731344
 21
6.404973488868949
  0
LINE
  8
0
 10
-57.01346602731344
 20
6.404973488868949
 11
-57.2607979957762
 21
6.337636806854694
  0
LINE
  8
0
 10
-57.2607979957762
 20
6.337636806854694
 11
-57.91452675898715
 21
6.267591436271072
  0
LINE
  8
0
 10
-57.91452675898715
 20
6.267591436271072
 11
-58.572126700987276
 21
6.167329126923292
  0
LINE
  8
0
 10
-58.572126700987276
 20
6.167329126923292
 11
-59.33491241451374
 21
6.015987062807887
  0
LINE
  8
0
 10
-59.33491241451374
 20
6.015987062807887
 11
-60.19941961862914
 21
5.804038243705648
  0
LINE
  8
0
 10
-60.19941961862914
 20
5.804038243705648
 11
-61.161546226298796
 21
5.522172613526671
  0
LINE
  8
0
 10
-61.161546226298796
 20
5.522172613526671
 11
-62.110842630282185
 21
5.197494121377746
  0
LINE
  8
0
 10
-62.110842630282185
 20
5.197494121377746
 11
-62.249416068208454
 21
4.167108106483735
  0
LINE
  8
0
 10
-62.249416068208454
 20
4.167108106483735
 11
-62.24941606820844
 21
3.127445691375916
  0
LINE
  8
0
 10
-62.24941606820844
 20
3.127445691375916
 11
-61.35186518034491
 21
2.6791353194932412
  0
LINE
  8
0
 10
-61.35186518034491
 20
2.6791353194932412
 11
-60.43589217037983
 21
2.271545712509135
  0
LINE
  8
0
 10
-60.43589217037983
 20
2.271545712509135
 11
-59.60734855482951
 21
1.94626047612189
  0
LINE
  8
0
 10
-59.60734855482951
 20
1.94626047612189
 11
-58.87154072881328
 21
1.694599378007763
  0
LINE
  8
0
 10
-58.87154072881328
 20
1.694599378007763
 11
-58.23317188803835
 21
1.5075821661791653
  0
LINE
  8
0
 10
-58.23317188803835
 20
1.5075821661791653
 11
-57.59461216164481
 21
1.3510282597461472
  0
LINE
  8
0
 10
-57.59461216164481
 20
1.3510282597461472
 11
-57.358462116929175
 21
1.251326265039809
  0
LINE
  8
0
 10
-57.358462116929175
 20
1.251326265039809
 11
-57.24577951308202
 21
1.1385562939902432
  0
LINE
  8
0
 10
-57.24577951308202
 20
1.1385562939902432
 11
-57.24577951308235
 21
-1.1385562939891778
  0
LINE
  8
0
 10
-57.24577951308235
 20
-1.1385562939891778
 11
-57.358462116928806
 21
-1.2513262650408143
  0
LINE
  8
0
 10
-57.358462116928806
 20
-1.2513262650408143
 11
-57.5946121616426
 21
-1.3510282597551844
  0
LINE
  8
0
 10
-57.5946121616426
 20
-1.3510282597551844
 11
-58.23317188803712
 21
-1.5075821661787243
  0
LINE
  8
0
 10
-58.23317188803712
 20
-1.5075821661787243
 11
-58.87154072881363
 21
-1.6945993780068904
  0
LINE
  8
0
 10
-58.87154072881363
 20
-1.6945993780068904
 11
-59.607348554829855
 21
-1.946260476121104
  0
LINE
  8
0
 10
-59.607348554829855
 20
-1.946260476121104
 11
-60.43589217038306
 21
-2.271545712509564
  0
LINE
  8
0
 10
-60.43589217038306
 20
-2.271545712509564
 11
-61.35186518032812
 21
-2.6791353194849004
  0
LINE
  8
0
 10
-61.35186518032812
 20
-2.6791353194849004
 11
-62.24941606820844
 21
-3.127445691375961
  0
LINE
  8
0
 10
-62.24941606820844
 20
-3.127445691375961
 11
-62.24941606820844
 21
-4.167108106483745
  0
LINE
  8
0
 10
-62.24941606820844
 20
-4.167108106483745
 11
-62.11084263028217
 21
-5.197494121377731
  0
LINE
  8
0
 10
-62.11084263028217
 20
-5.197494121377731
 11
-61.16154622631656
 21
-5.522172613520588
  0
LINE
  8
0
 10
-61.16154622631656
 20
-5.522172613520588
 11
-60.19941961862589
 21
-5.804038243705589
  0
LINE
  8
0
 10
-60.19941961862589
 20
-5.804038243705589
 11
-59.3349124145135
 21
-6.01598706280701
  0
LINE
  8
0
 10
-59.3349124145135
 20
-6.01598706280701
 11
-58.572126700987056
 21
-6.167329126922329
  0
LINE
  8
0
 10
-58.572126700987056
 20
-6.167329126922329
 11
-57.91452675898843
 21
-6.267591436270749
  0
LINE
  8
0
 10
-57.91452675898843
 20
-6.267591436270749
 11
-57.26079799577718
 21
-6.337636806863893
  0
LINE
  8
0
 10
-57.26079799577718
 20
-6.337636806863893
 11
-57.013466027313676
 21
-6.4049734888699446
  0
LINE
  8
0
 10
-57.013466027313676
 20
-6.4049734888699446
 11
-56.88675806923531
 21
-6.50171814732666
  0
LINE
  8
0
 10
-56.88675806923531
 20
-6.50171814732666
 11
-56.583248665340555
 21
-8.758513171266978
  0
LINE
  8
0
 10
-56.583248665340555
 20
-8.758513171266978
 11
-56.67989509122039
 21
-8.885296072106406
  0
LINE
  8
0
 10
-56.67989509122039
 20
-8.885296072106406
 11
-56.9006491090428
 21
-9.015584195063228
  0
LINE
  8
0
 10
-56.9006491090428
 20
-9.015584195063228
 11
-57.51264468517562
 21
-9.255852929157726
  0
LINE
  8
0
 10
-57.51264468517562
 20
-9.255852929157726
 11
-58.1203907176416
 21
-9.526287716890685
  0
LINE
  8
0
 10
-58.1203907176416
 20
-9.526287716890685
 11
-58.81609014806074
 21
-9.873776950745896
  0
LINE
  8
0
 10
-58.81609014806074
 20
-9.873776950745896
 11
-59.59388479460363
 21
-10.306593881671073
  0
LINE
  8
0
 10
-59.59388479460363
 20
-10.306593881671073
 11
-60.44735864676181
 21
-10.832634019250316
  0
LINE
  8
0
 10
-60.44735864676181
 20
-10.832634019250316
 11
-61.277147201681515
 21
-11.396576161676446
  0
LINE
  8
0
 10
-61.277147201681515
 20
-11.396576161676446
 11
-61.13857376375525
 21
-12.426962176570456
  0
LINE
  8
0
 10
-61.13857376375525
 20
-12.426962176570456
 11
-60.86389973418535
 21
-13.42968452840453
  0
LINE
  8
0
 10
-60.86389973418535
 20
-13.42968452840453
 11
-59.87979803093565
 21
-13.6249372454235
  0
LINE
  8
0
 10
-59.87979803093565
 20
-13.6249372454235
 11
-58.88868699762684
 21
-13.776048999961223
  0
LINE
  8
0
 10
-58.88868699762684
 20
-13.776048999961223
 11
-58.00364335649032
 21
-13.870879170078789
  0
LINE
  8
0
 10
-58.00364335649032
 20
-13.870879170078789
 11
-57.22749168458226
 21
-13.919201497475807
  0
LINE
  8
0
 10
-57.22749168458226
 20
-13.919201497475807
 11
-56.562395527903746
 21
-13.930919721058462
  0
LINE
  8
0
 10
-56.562395527903746
 20
-13.930919721058462
 11
-55.905163533141426
 21
-13.913206594514095
  0
LINE
  8
0
 10
-55.905163533141426
 20
-13.913206594514095
 11
-55.65106328576668
 21
-13.946976339134228
  0
LINE
  8
0
 10
-55.65106328576668
 20
-13.946976339134228
 11
-55.51259107997078
 21
-14.025969274276004
  0
LINE
  8
0
 10
-55.51259107997078
 20
-14.025969274276004
 11
-54.910988404683714
 21
-16.222174173510542
  0
LINE
  8
0
 10
-54.910988404683714
 20
-16.222174173510542
 11
-54.98987399483748
 21
-16.360707560268732
  0
LINE
  8
0
 10
-54.98987399483748
 20
-16.360707560268732
 11
-55.191292625090725
 21
-16.519256816827266
  0
LINE
  8
0
 10
-55.191292625090725
 20
-16.519256816827266
 11
-55.765802975407304
 21
-16.838952777340733
  0
LINE
  8
0
 10
-55.765802975407304
 20
-16.838952777340733
 11
-56.33208095721564
 21
-17.18797922578467
  0
LINE
  8
0
 10
-56.33208095721564
 20
-17.18797922578467
 11
-56.97525721922042
 21
-17.62509564177056
  0
LINE
  8
0
 10
-56.97525721922042
 20
-17.62509564177056
 11
-57.68842313285914
 21
-18.15772063884647
  0
LINE
  8
0
 10
-57.68842313285914
 20
-18.15772063884647
 11
-58.464167566119514
 21
-18.7928241083124
  0
LINE
  8
0
 10
-58.464167566119514
 20
-18.7928241083124
 11
-59.21138619165802
 21
-19.462334460381978
  0
LINE
  8
0
 10
-59.21138619165802
 20
-19.462334460381978
 11
-58.936712162088156
 21
-20.465056812216027
  0
LINE
  8
0
 10
-58.936712162088156
 20
-20.465056812216027
 11
-58.5308391054394
 21
-21.422221896866755
  0
LINE
  8
0
 10
-58.5308391054394
 20
-21.422221896866755
 11
-57.52949342111397
 21
-21.484564549401018
  0
LINE
  8
0
 10
-57.52949342111397
 20
-21.484564549401018
 11
-56.52708436205625
 21
-21.502225835451835
  0
LINE
  8
0
 10
-56.52708436205625
 20
-21.502225835451835
 11
-55.637297908638764
 21
-21.47824510995324
  0
LINE
  8
0
 10
-55.637297908638764
 20
-21.47824510995324
 11
-54.86163072332168
 21
-21.422685387554772
  0
LINE
  8
0
 10
-54.86163072332168
 20
-21.422685387554772
 11
-54.20090700863561
 21
-21.345650413394225
  0
LINE
  8
0
 10
-54.20090700863561
 20
-21.345650413394225
 11
-53.55190010283886
 21
-21.24049488087516
  0
LINE
  8
0
 10
-53.55190010283886
 20
-21.24049488087516
 11
-53.29556600148702
 21
-21.2400950662166
  0
LINE
  8
0
 10
-53.29556600148702
 20
-21.2400950662166
 11
-53.14780058776648
 21
-21.299926647244465
  0
LINE
  8
0
 10
-53.14780058776648
 20
-21.299926647244465
 11
-52.25884025507983
 21
-23.396350093317313
  0
LINE
  8
0
 10
-52.25884025507983
 20
-23.396350093317313
 11
-52.31855729428242
 21
-23.544161834425662
  0
LINE
  8
0
 10
-52.31855729428242
 20
-23.544161834425662
 11
-52.497046216737914
 21
-23.728142909346506
  0
LINE
  8
0
 10
-52.497046216737914
 20
-23.728142909346506
 11
-53.02381919042646
 21
-24.121561114289847
  0
LINE
  8
0
 10
-53.02381919042646
 20
-24.121561114289847
 11
-53.53852387757641
 21
-24.542950838203687
  0
LINE
  8
0
 10
-53.53852387757641
 20
-24.542950838203687
 11
-54.11769947553423
 21
-25.06189408352151
  0
LINE
  8
0
 10
-54.11769947553423
 20
-25.06189408352151
 11
-54.753510193644686
 21
-25.684822441057218
  0
LINE
  8
0
 10
-54.753510193644686
 20
-25.684822441057218
 11
-55.437682030218
 21
-26.417655805951327
  0
LINE
  8
0
 10
-55.437682030218
 20
-26.417655805951327
 11
-56.08899659230053
 21
-27.180786939570652
  0
LINE
  8
0
 10
-56.08899659230053
 20
-27.180786939570652
 11
-55.68312353565186
 21
-28.137952024221427
  0
LINE
  8
0
 10
-55.68312353565186
 20
-28.137952024221427
 11
-55.15329426623559
 21
-29.032479208077604
  0
LINE
  8
0
 10
-55.15329426623559
 20
-29.032479208077604
 11
-54.152573638293475
 21
-28.960799290015746
  0
LINE
  8
0
 10
-54.152573638293475
 20
-28.960799290015746
 11
-53.156754566893255
 21
-28.844694941511673
  0
LINE
  8
0
 10
-53.156754566893255
 20
-28.844694941511673
 11
-52.27810356153547
 21
-28.70233125701154
  0
LINE
  8
0
 10
-52.27810356153547
 20
-28.70233125701154
 11
-51.51676266210722
 21
-28.543880949380032
  0
LINE
  8
0
 10
-51.51676266210722
 20
-28.543880949380032
 11
-50.872202019755015
 21
-28.37946746841517
  0
LINE
  8
0
 10
-50.872202019755015
 20
-28.37946746841517
 11
-50.24300174653304
 21
-28.18874603289039
  0
LINE
  8
0
 10
-50.24300174653304
 20
-28.18874603289039
 11
-49.989008079315404
 21
-28.154183793655196
  0
LINE
  8
0
 10
-49.989008079315404
 20
-28.154183793655196
 11
-49.8345863349787
 21
-28.193786324588267
  0
LINE
  8
0
 10
-49.8345863349787
 20
-28.193786324588267
 11
-48.674131863089116
 21
-30.15301759143907
  0
LINE
  8
0
 10
-48.674131863089116
 20
-30.15301759143907
 11
-48.71361469936123
 21
-30.307469982875766
  0
LINE
  8
0
 10
-48.71361469936123
 20
-30.307469982875766
 11
-48.865988774969274
 21
-30.513599729518365
  0
LINE
  8
0
 10
-48.865988774969274
 20
-30.513599729518365
 11
-49.33562409583483
 21
-30.973719621704117
  0
LINE
  8
0
 10
-49.33562409583483
 20
-30.973719621704117
 11
-49.78957057099062
 21
-31.459952911481714
  0
LINE
  8
0
 10
-49.78957057099062
 20
-31.459952911481714
 11
-50.294410102635
 21
-32.05146243162477
  0
LINE
  8
0
 10
-50.294410102635
 20
-32.05146243162477
 11
-50.841519567889875
 21
-32.7535779783226
  0
LINE
  8
0
 10
-50.841519567889875
 20
-32.7535779783226
 11
-51.42190974514414
 21
-33.571063809887214
  0
LINE
  8
0
 10
-51.42190974514414
 20
-33.571063809887214
 11
-51.96569751998044
 21
-34.414197631897935
  0
LINE
  8
0
 10
-51.96569751998044
 20
-34.414197631897935
 11
-51.4358682505642
 21
-35.308724815754076
  0
LINE
  8
0
 10
-51.4358682505642
 20
-35.308724815754076
 11
-50.79153758424502
 21
-36.12465124002803
  0
LINE
  8
0
 10
-50.79153758424502
 20
-36.12465124002803
 11
-49.80929989599939
 21
-35.92022788120601
  0
LINE
  8
0
 10
-49.80929989599939
 20
-35.92022788120601
 11
-48.837841227177194
 21
-35.67242978299667
  0
LINE
  8
0
 10
-48.837841227177194
 20
-35.67242978299667
 11
-47.98600521788534
 21
-35.41422362281757
  0
LINE
  8
0
 10
-47.98600521788534
 20
-35.41422362281757
 11
-47.252576750732736
 21
-35.15571027944646
  0
LINE
  8
0
 10
-47.252576750732736
 20
-35.15571027944646
 11
-46.635681380647085
 21
-34.90685225414013
  0
LINE
  8
0
 10
-46.635681380647085
 20
-34.90685225414013
 11
-46.03751583378157
 21
-34.633968344144854
  0
LINE
  8
0
 10
-46.03751583378157
 20
-34.633968344144854
 11
-45.79039512370685
 21
-34.56586044431097
  0
LINE
  8
0
 10
-45.79039512370685
 20
-34.56586044431097
 11
-45.632072708439985
 21
-34.58452721704654
  0
LINE
  8
0
 10
-45.632072708439985
 20
-34.58452721704654
 11
-44.22083243489002
 21
-36.371603776303296
  0
LINE
  8
0
 10
-44.22083243489002
 20
-36.371603776303296
 11
-44.23937649608302
 21
-36.5299406114841
  0
LINE
  8
0
 10
-44.23937649608302
 20
-36.5299406114841
 11
-44.36291660585459
 21
-36.75454063963633
  0
LINE
  8
0
 10
-44.36291660585459
 20
-36.75454063963633
 11
-44.767033620470436
 21
-37.273151368687984
  0
LINE
  8
0
 10
-44.767033620470436
 20
-37.273151368687984
 11
-45.15212119802872
 21
-37.815551379754176
  0
LINE
  8
0
 10
-45.15212119802872
 20
-37.815551379754176
 11
-45.57361578995759
 21
-38.4690716733224
  0
LINE
  8
0
 10
-45.57361578995759
 20
-38.4690716733224
 11
-46.02226082098815
 21
-39.237845140618106
  0
LINE
  8
0
 10
-46.02226082098815
 20
-39.237845140618106
 11
-46.48851226246056
 21
-40.12539538482235
  0
LINE
  8
0
 10
-46.48851226246056
 20
-40.12539538482235
 11
-46.91506934432614
 21
-41.033486152196495
  0
LINE
  8
0
 10
-46.91506934432614
 20
-41.033486152196495
 11
-46.27073867800695
 21
-41.849412576470414
  0
LINE
  8
0
 10
-46.27073867800695
 20
-41.849412576470414
 11
-45.52340471078972
 21
-42.57217801479129
  0
LINE
  8
0
 10
-45.52340471078972
 20
-42.57217801479129
 11
-44.57717801705696
 21
-42.23865915489017
  0
LINE
  8
0
 10
-44.57717801705696
 20
-42.23865915489017
 11
-43.64741545377221
 21
-41.86358926990855
  0
LINE
  8
0
 10
-43.64741545377221
 20
-41.86358926990855
 11
-42.83759547431248
 21
-41.4941483290959
  0
LINE
  8
0
 10
-42.83759547431248
 20
-41.4941483290959
 11
-42.14516748780709
 21
-41.14018512672193
  0
LINE
  8
0
 10
-42.14516748780709
 20
-41.14018512672193
 11
-41.56694590248171
 21
-40.81132343443128
  0
LINE
  8
0
 10
-41.56694590248171
 20
-40.81132343443128
 11
-41.01048936032726
 21
-40.46114666980411
  0
LINE
  8
0
 10
-41.01048936032726
 20
-40.46114666980411
 11
-40.77465148232114
 21
-40.36070849645758
  0
LINE
  8
0
 10
-40.77465148232114
 20
-40.36070849645758
 11
-40.615253663375285
 21
-40.358106401993965
  0
LINE
  8
0
 10
-40.615253663375285
 20
-40.358106401993965
 11
-38.97841120427934
 21
-41.941137830120105
  0
LINE
  8
0
 10
-38.97841120427934
 20
-41.941137830120105
 11
-38.97568557118191
 21
-42.100533584470156
  0
LINE
  8
0
 10
-38.97568557118191
 20
-42.100533584470156
 11
-39.068187138931414
 21
-42.33959590130875
  0
LINE
  8
0
 10
-39.068187138931414
 20
-42.33959590130875
 11
-39.39957436959802
 21
-42.90744284648027
  0
LINE
  8
0
 10
-39.39957436959802
 20
-42.90744284648027
 11
-39.70893115261438
 21
-43.49633043778789
  0
LINE
  8
0
 10
-39.70893115261438
 20
-43.49633043778789
 11
-40.03955922384939
 21
-44.20019941966037
  0
LINE
  8
0
 10
-40.03955922384939
 20
-44.20019941966037
 11
-40.38173373944829
 21
-45.02191202681748
  0
LINE
  8
0
 10
-40.38173373944829
 20
-45.02191202681748
 11
-40.725526177120074
 21
-45.96368832852708
  0
LINE
  8
0
 10
-40.725526177120074
 20
-45.96368832852708
 11
-41.02724064478369
 21
-46.92053114000775
  0
LINE
  8
0
 10
-41.02724064478369
 20
-46.92053114000775
 11
-40.27990667756645
 21
-47.64329657832864
  0
LINE
  8
0
 10
-40.27990667756645
 20
-47.64329657832864
 11
-39.4429056018009
 21
-48.260003264327025
  0
LINE
  8
0
 10
-39.4429056018009
 20
-48.260003264327025
 11
-38.54957534034719
 21
-47.80334055530293
  0
LINE
  8
0
 10
-38.54957534034719
 20
-47.80334055530293
 11
-37.67810051756819
 21
-47.30769201453211
  0
LINE
  8
0
 10
-37.67810051756819
 20
-47.30769201453211
 11
-36.92474782465902
 21
-46.83360897542692
  0
LINE
  8
0
 10
-36.92474782465902
 20
-46.83360897542692
 11
-36.28567671262397
 21
-46.390512395782004
  0
LINE
  8
0
 10
-36.28567671262397
 20
-46.390512395782004
 11
-35.7564472899473
 21
-45.98751558119683
  0
LINE
  8
0
 10
-35.7564472899473
 20
-45.98751558119683
 11
-35.25162973268138
 21
-45.566294874598384
  0
LINE
  8
0
 10
-35.25162973268138
 20
-45.566294874598384
 11
-35.03128321926398
 21
-45.43531874932201
  0
LINE
  8
0
 10
-35.03128321926398
 20
-45.43531874932201
 11
-34.873654454494414
 21
-45.41149422209654
  0
LINE
  8
0
 10
-34.873654454494414
 20
-45.41149422209654
 11
-33.04041930231258
 21
-46.76223128575444
  0
LINE
  8
0
 10
-33.04041930231258
 20
-46.76223128575444
 11
-33.01647261391192
 21
-46.91984153826121
  0
LINE
  8
0
 10
-33.01647261391192
 20
-46.91984153826121
 11
-33.07628494697146
 21
-47.169100071078695
  0
LINE
  8
0
 10
-33.07628494697146
 20
-47.169100071078695
 11
-33.32902878070688
 21
-47.77604999018096
  0
LINE
  8
0
 10
-33.32902878070688
 20
-47.77604999018096
 11
-33.55713429005959
 21
-48.4009164487121
  0
LINE
  8
0
 10
-33.55713429005959
 20
-48.4009164487121
 11
-33.79099577483681
 21
-49.142573560232364
  0
LINE
  8
0
 10
-33.79099577483681
 20
-49.142573560232364
 11
-34.02059366266693
 21
-50.002561826309424
  0
LINE
  8
0
 10
-34.02059366266693
 20
-50.002561826309424
 11
-34.23579211234324
 21
-50.98175816510927
  0
LINE
  8
0
 10
-34.23579211234324
 20
-50.98175816510927
 11
-34.4072798639817
 21
-51.9702781380576
  0
LINE
  8
0
 10
-34.4072798639817
 20
-51.9702781380576
 11
-33.570278788216115
 21
-52.58698482405596
  0
LINE
  8
0
 10
-33.570278788216115
 20
-52.58698482405596
 11
-32.65854690792818
 21
-53.08662761231013
  0
LINE
  8
0
 10
-32.65854690792818
 20
-53.08662761231013
 11
-31.834054578432525
 21
-52.51497021102414
  0
LINE
  8
0
 10
-31.834054578432525
 20
-52.51497021102414
 11
-31.03641898501738
 21
-51.907587874416286
  0
LINE
  8
0
 10
-31.03641898501738
 20
-51.907587874416286
 11
-30.352977175311
 21
-51.337322760082635
  0
LINE
  8
0
 10
-30.352977175311
 20
-51.337322760082635
 11
-29.77866717688043
 21
-50.81299987212769
  0
LINE
  8
0
 10
-29.77866717688043
 20
-50.81299987212769
 11
-29.307874028437826
 21
-50.343059422951455
  0
LINE
  8
0
 10
-29.307874028437826
 20
-50.343059422951455
 11
-28.863703937329177
 21
-49.858311467869875
  0
LINE
  8
0
 10
-28.863703937329177
 20
-49.858311467869875
 11
-28.66278087725254
 21
-49.69913466272208
  0
LINE
  8
0
 10
-28.66278087725254
 20
-49.69913466272208
 11
-28.509734055700886
 21
-49.65451285198753
  0
LINE
  8
0
 10
-28.509734055700886
 20
-49.65451285198753
 11
-26.51282033515398
 21
-50.74885161627666
  0
LINE
  8
0
 10
-26.51282033515398
 20
-50.74885161627666
 11
-26.468079920671915
 21
-50.901863808250305
  0
LINE
  8
0
 10
-26.468079920671915
 20
-50.901863808250305
 11
-26.494135666541055
 21
-51.156870532623515
  0
LINE
  8
0
 10
-26.494135666541055
 20
-51.156870532623515
 11
-26.663725883644666
 21
-51.79209238997122
  0
LINE
  8
0
 10
-26.663725883644666
 20
-51.79209238997122
 11
-26.806509571115402
 21
-52.44178695897004
  0
LINE
  8
0
 10
-26.806509571115402
 20
-52.44178695897004
 11
-26.93943120569871
 21
-53.207997311412825
  0
LINE
  8
0
 10
-26.93943120569871
 20
-53.207997311412825
 11
-27.052355286012443
 21
-54.090914725428185
  0
LINE
  8
0
 10
-27.052355286012443
 20
-54.090914725428185
 11
-27.135119526260663
 21
-55.09005731945481
  0
LINE
  8
0
 10
-27.135119526260663
 20
-55.09005731945481
 11
-27.173320358883398
 21
-56.092614291535114
  0
LINE
  8
0
 10
-27.173320358883398
 20
-56.092614291535114
 11
-26.261588478595428
 21
-56.592257079789256
  0
LINE
  8
0
 10
-26.261588478595428
 20
-56.592257079789256
 11
-25.29139567078812
 21
-56.96591983290603
  0
LINE
  8
0
 10
-25.29139567078812
 20
-56.96591983290603
 11
-24.55045435840298
 21
-56.28946897922689
  0
LINE
  8
0
 10
-24.55045435840298
 20
-56.28946897922689
 11
-23.840891820412523
 21
-55.58119159896793
  0
LINE
  8
0
 10
-23.840891820412523
 20
-55.58119159896793
 11
-23.239556929194183
 21
-54.92492080388093
  0
LINE
  8
0
 10
-23.239556929194183
 20
-54.92492080388093
 11
-22.740256619895735
 21
-54.328728161972954
  0
LINE
  8
0
 10
-22.740256619895735
 20
-54.328728161972954
 11
-22.336301060574446
 21
-53.80023017665429
  0
LINE
  8
0
 10
-22.336301060574446
 20
-53.80023017665429
 11
-21.960704661421495
 21
-53.260605311831895
  0
LINE
  8
0
 10
-21.960704661421495
 20
-53.260605311831895
 11
-21.782790531452644
 21
-53.07606834067153
  0
LINE
  8
0
 10
-21.782790531452644
 20
-53.07606834067153
 11
-21.63705677727523
 21
-53.01144552369756
  0
LINE
  8
0
 10
-21.63705677727523
 20
-53.01144552369756
 11
-19.512099461014184
 21
-53.82985748744381
  0
LINE
  8
0
 10
-19.512099461014184
 20
-53.82985748744381
 11
-19.447363714207064
 21
-53.975541112693634
  0
LINE
  8
0
 10
-19.447363714207064
 20
-53.975541112693634
 11
-19.439197907483507
 21
-54.231745427584904
  0
LINE
  8
0
 10
-19.439197907483507
 20
-54.231745427584904
 11
-19.52260816651342
 21
-54.883903674085
  0
LINE
  8
0
 10
-19.52260816651342
 20
-54.883903674085
 11
-19.577522053816665
 21
-55.54683253857617
  0
LINE
  8
0
 10
-19.577522053816665
 20
-55.54683253857617
 11
-19.607131848487946
 21
-56.323923090050265
  0
LINE
  8
0
 10
-19.607131848487946
 20
-56.323923090050265
 11
-19.601366988396872
 21
-57.21401396983413
  0
LINE
  8
0
 10
-19.601366988396872
 20
-57.21401396983413
 11
-19.550220089389047
 21
-58.215273095826994
  0
LINE
  8
0
 10
-19.550220089389047
 20
-58.215273095826994
 11
-19.45445230823285
 21
-59.213976414121376
  0
LINE
  8
0
 10
-19.45445230823285
 20
-59.213976414121376
 11
-18.48425950042554
 21
-59.58763916723814
  0
LINE
  8
0
 10
-18.48425950042554
 20
-59.58763916723814
 11
-17.472918878738547
 21
-59.82865386453596
  0
LINE
  8
0
 10
-17.472918878738547
 20
-59.82865386453596
 11
-16.828750698736673
 21
-59.05948083997305
  0
LINE
  8
0
 10
-16.828750698736673
 20
-59.05948083997305
 11
-16.219923376471193
 21
-58.26294764269312
  0
LINE
  8
0
 10
-16.219923376471193
 20
-58.26294764269312
 11
-15.711426239120566
 21
-57.532382334738436
  0
LINE
  8
0
 10
-15.711426239120566
 20
-57.532382334738436
 11
-15.29604564480232
 21
-56.87495901069634
  0
LINE
  8
0
 10
-15.29604564480232
 20
-56.87495901069634
 11
-14.966136271128319
 21
-56.29733454830361
  0
LINE
  8
0
 10
-14.966136271128319
 20
-56.29733454830361
 11
-14.665816090571996
 21
-55.71246239223712
  0
LINE
  8
0
 10
-14.665816090571996
 20
-55.71246239223712
 11
-14.51408577257509
 21
-55.50585832168629
  0
LINE
  8
0
 10
-14.51408577257509
 20
-55.50585832168629
 11
-14.378265708067708
 21
-55.42238769417274
  0
LINE
  8
0
 10
-14.378265708067708
 20
-55.42238769417274
 11
-12.163184709742376
 21
-55.950268276494526
  0
LINE
  8
0
 10
-12.163184709742376
 20
-55.950268276494526
 11
-12.079608841545586
 21
-56.08602360727663
  0
LINE
  8
0
 10
-12.079608841545586
 20
-56.08602360727663
 11
-12.037367201243764
 21
-56.33885354061714
  0
LINE
  8
0
 10
-12.037367201243764
 20
-56.33885354061714
 11
-12.033109044151573
 21
-56.996310396910914
  0
LINE
  8
0
 10
-12.033109044151573
 20
-56.996310396910914
 11
-11.99917319166746
 21
-57.66064357560251
  0
LINE
  8
0
 10
-11.99917319166746
 20
-57.66064357560251
 11
-11.924942758939343
 21
-58.43474712680725
  0
LINE
  8
0
 10
-11.924942758939343
 20
-58.43474712680725
 11
-11.800591832508355
 21
-59.31612777952322
  0
LINE
  8
0
 10
-11.800591832508355
 20
-59.31612777952322
 11
-11.616446511868974
 21
-60.30163594465872
  0
LINE
  8
0
 10
-11.616446511868974
 20
-60.30163594465872
 11
-11.38841909525738
 21
-61.27866372479256
  0
LINE
  8
0
 10
-11.38841909525738
 20
-61.27866372479256
 11
-10.377078473570375
 21
-61.51967842209035
  0
LINE
  8
0
 10
-10.377078473570375
 20
-61.51967842209035
 11
-9.342637435356764
 21
-61.62374415058613
  0
LINE
  8
0
 10
-9.342637435356764
 20
-61.62374415058613
 11
-8.806737584170907
 21
-60.77557486598482
  0
LINE
  8
0
 10
-8.806737584170907
 20
-60.77557486598482
 11
-8.309510015619615
 21
-59.90500000545959
  0
LINE
  8
0
 10
-8.309510015619615
 20
-59.90500000545959
 11
-7.902924775599247
 21
-59.113177139865094
  0
LINE
  8
0
 10
-7.902924775599247
 20
-59.113177139865094
 11
-7.57887637280736
 21
-58.40625486848106
  0
LINE
  8
0
 10
-7.57887637280736
 20
-58.40625486848106
 11
-7.328900425369557
 21
-57.78981165122983
  0
LINE
  8
0
 10
-7.328900425369557
 20
-57.78981165122983
 11
-7.109215684146607
 21
-57.170129261400135
  0
LINE
  8
0
 10
-7.109215684146607
 20
-57.170129261400135
 11
-6.986376809240856
 21
-56.94514494599236
  0
LINE
  8
0
 10
-6.986376809240856
 20
-56.94514494599236
 11
-6.8628941466722795
 21
-56.84431604326467
  0
LINE
  8
0
 10
-6.8628941466722795
 20
-56.84431604326467
 11
-4.597217639174019
 21
-57.07224520266474
  0
LINE
  8
0
 10
-4.597217639174019
 20
-57.07224520266474
 11
-4.496293062935483
 21
-57.195649681885214
  0
LINE
  8
0
 10
-4.496293062935483
 20
-57.195649681885214
 11
-4.420729392127303
 21
-57.440593477524835
  0
LINE
  8
0
 10
-4.420729392127303
 20
-57.440593477524835
 11
-4.328878805827194
 21
-58.09161661043628
  0
LINE
  8
0
 10
-4.328878805827194
 20
-58.09161661043628
 11
-4.206698799647259
 21
-58.745499062016215
  0
LINE
  8
0
 10
-4.206698799647259
 20
-58.745499062016215
 11
-4.029952783350325
 21
-59.5028017167415
  0
LINE
  8
0
 10
-4.029952783350325
 20
-59.5028017167415
 11
-3.789234835807517
 21
-60.35974388376157
  0
LINE
  8
0
 10
-3.789234835807517
 20
-60.35974388376157
 11
-3.4753771711458716
 21
-61.311914671485724
  0
LINE
  8
0
 10
-3.4753771711458716
 20
-61.311914671485724
 11
-3.119159273730385
 21
-62.24983182957625
  0
LINE
  8
0
 10
-3.119159273730385
 20
-62.24983182957625
 11
-2.0847182355167746
 21
-62.35389755807204
  0
LINE
  8
0
 10
-2.0847182355167746
 20
-62.35389755807204
 11
-1.0456364056098573
 21
-62.319157262375576
  0
LINE
  8
0
 10
-1.0456364056098573
 20
-62.319157262375576
 11
-0.6275680287801204
 21
-61.40712731871299
  0
LINE
  8
0
 10
-0.6275680287801204
 20
-61.40712731871299
 11
-0.2508132516833593
 21
-60.47804622395284
  0
LINE
  8
0
 10
-0.2508132516833593
 20
-60.47804622395284
 11
0.046604567766405855
 21
-59.63909589851369
  0
LINE
  8
0
 10
0.046604567766405855
 20
-59.63909589851369
 11
0.273538127607262
 21
-58.89528972446786
  0
LINE
  8
0
 10
0.273538127607262
 20
-58.89528972446786
 11
0.4391198221047983
 21
-58.2510281961738
  0
LINE
  8
0
 10
0.4391198221047983
 20
-58.2510281961738
 11
0.5742488445828258
 21
-57.607593819507954
  0
LINE
  8
0
 10
0.5742488445828258
 20
-57.607593819507954
 11
0.6660042137646212
 21
-57.36824410968166
  0
LINE
  8
0
 10
0.6660042137646212
 20
-57.36824410968166
 11
0.7749459233554976
 21
-57.25185622589769
  0
LINE
  8
0
 10
0.7749459233554976
 20
-57.25185622589769
 11
3.050786889075507
 21
-57.1757665611268
  0
LINE
  8
0
 10
3.050786889075507
 20
-57.1757665611268
 11
3.1672591719018652
 21
-57.28461803293046
  0
LINE
  8
0
 10
3.1672591719018652
 20
-57.28461803293046
 11
3.2747964377206933
 21
-57.51730466303319
  0
LINE
  8
0
 10
3.2747964377206933
 20
-57.51730466303319
 11
3.4526003773402154
 21
-58.15027654933248
  0
LINE
  8
0
 10
3.4526003773402154
 20
-58.15027654933248
 11
3.6608442321111925
 21
-58.78203972596153
  0
LINE
  8
0
 10
3.6608442321111925
 20
-58.78203972596153
 11
3.9369517951289343
 21
-59.509027400392945
  0
LINE
  8
0
 10
3.9369517951289343
 20
-59.509027400392945
 11
4.289741146306947
 21
-60.326238928445306
  0
LINE
  8
0
 10
4.289741146306947
 20
-60.326238928445306
 11
4.727710357529543
 21
-61.22808082849386
  0
LINE
  8
0
 10
4.727710357529543
 20
-61.22808082849386
 11
5.205762018930574
 21
-62.11015021063541
  0
LINE
  8
0
 10
5.205762018930574
 20
-62.11015021063541
 11
6.244843848837494
 21
-62.07540991493884
  0
LINE
  8
0
 10
6.244843848837494
 20
-62.07540991493884
 11
7.270024030566749
 21
-61.90248353644962
  0
LINE
  8
0
 10
7.270024030566749
 20
-61.90248353644962
 11
7.562800492951607
 21
-60.942868129676874
  0
LINE
  8
0
 10
7.562800492951607
 20
-60.942868129676874
 11
7.812359280671062
 21
-59.97186027482814
  0
LINE
  8
0
 10
7.812359280671062
 20
-59.97186027482814
 11
7.995302251516182
 21
-59.1007535779769
  0
LINE
  8
0
 10
7.995302251516182
 20
-59.1007535779769
 11
8.121071333654495
 21
-58.33333674006623
  0
LINE
  8
0
 10
8.121071333654495
 20
-58.33333674006623
 11
8.199303965950751
 21
-57.67275376296458
  0
LINE
  8
0
 10
8.199303965950751
 20
-57.67275376296458
 11
8.24746588907647
 21
-57.01704950115743
  0
LINE
  8
0
 10
8.24746588907647
 20
-57.01704950115743
 11
8.306500375797533
 21
-56.76760559815478
  0
LINE
  8
0
 10
8.306500375797533
 20
-56.76760559815478
 11
8.398957065022183
 21
-56.637735677857926
  0
LINE
  8
0
 10
8.398957065022183
 20
-56.637735677857926
 11
10.644350053014996
 21
-56.2589850107865
  0
LINE
  8
0
 10
10.644350053014996
 20
-56.2589850107865
 11
10.77429159178286
 21
-56.35134101808027
  0
LINE
  8
0
 10
10.77429159178286
 20
-56.35134101808027
 11
10.911883447556194
 21
-56.56761818421946
  0
LINE
  8
0
 10
10.911883447556194
 20
-56.56761818421946
 11
11.172467824980366
 21
-57.17124342560022
  0
LINE
  8
0
 10
11.172467824980366
 20
-57.17124342560022
 11
11.463059411820609
 21
-57.769613498424704
  0
LINE
  8
0
 10
11.463059411820609
 20
-57.769613498424704
 11
11.833601375555997
 21
-58.453313080289355
  0
LINE
  8
0
 10
11.833601375555997
 20
-58.453313080289355
 11
12.29216659603971
 21
-59.21621081029582
  0
LINE
  8
0
 10
12.29216659603971
 20
-59.21621081029582
 11
12.846431782873303
 21
-60.05163043259735
  0
LINE
  8
0
 10
12.846431782873303
 20
-60.05163043259735
 11
13.437786365036931
 21
-60.86211148976891
  0
LINE
  8
0
 10
13.437786365036931
 20
-60.86211148976891
 11
14.46296654676618
 21
-60.689185111279684
  0
LINE
  8
0
 10
14.46296654676618
 20
-60.689185111279684
 11
15.45595071568783
 21
-60.38115852531867
  0
LINE
  8
0
 10
15.45595071568783
 20
-60.38115852531867
 11
15.618210660720546
 21
-59.39108201510333
  0
LINE
  8
0
 10
15.618210660720546
 20
-59.39108201510333
 11
15.736120076583681
 21
-58.39547505833938
  0
LINE
  8
0
 10
15.736120076583681
 20
-58.39547505833938
 11
15.801323577175427
 21
-57.507756909718275
  0
LINE
  8
0
 10
15.801323577175427
 20
-57.507756909718275
 11
15.82368382936091
 21
-56.730423979595706
  0
LINE
  8
0
 10
15.82368382936091
 20
-56.730423979595706
 11
15.813171336279195
 21
-56.065307672562355
  0
LINE
  8
0
 10
15.813171336279195
 20
-56.065307672562355
 11
15.773506709393452
 21
-55.409034583699764
  0
LINE
  8
0
 10
15.773506709393452
 20
-55.409034583699764
 11
15.798766841839694
 21
-55.153947819879264
  0
LINE
  8
0
 10
15.798766841839694
 20
-55.153947819879264
 11
15.873088618888564
 21
-55.0129133948739
  0
LINE
  8
0
 10
15.873088618888564
 20
-55.0129133948739
 11
18.0479645380891
 21
-54.33826054012862
  0
LINE
  8
0
 10
18.0479645380891
 20
-54.33826054012862
 11
18.189056522960783
 21
-54.41247298777438
  0
LINE
  8
0
 10
18.189056522960783
 20
-54.41247298777438
 11
18.35424763876274
 21
-54.60848121879659
  0
LINE
  8
0
 10
18.35424763876274
 20
-54.60848121879659
 11
18.692962319603065
 21
-55.17198810852621
  0
LINE
  8
0
 10
18.692962319603065
 20
-55.17198810852621
 11
19.060716024761167
 21
-55.726287149420926
  0
LINE
  8
0
 10
19.060716024761167
 20
-55.726287149420926
 11
19.519080059093042
 21
-56.35449800348331
  0
LINE
  8
0
 10
19.519080059093042
 20
-56.35449800348331
 11
20.07523804165931
 21
-57.04946800737851
  0
LINE
  8
0
 10
20.07523804165931
 20
-57.04946800737851
 11
20.73590832871407
 21
-57.8035572689816
  0
LINE
  8
0
 10
20.73590832871407
 20
-57.8035572689816
 11
21.43001309511214
 21
-58.527986947517306
  0
LINE
  8
0
 10
21.43001309511214
 20
-58.527986947517306
 11
22.422997264033786
 21
-58.219960361556275
  0
LINE
  8
0
 10
22.422997264033786
 20
-58.219960361556275
 11
23.366065594129186
 21
-57.7823303098472
  0
LINE
  8
0
 10
23.366065594129186
 20
-57.7823303098472
 11
23.394913489246647
 21
-56.779460634969396
  0
LINE
  8
0
 10
23.394913489246647
 20
-56.779460634969396
 11
23.37906943693406
 21
-55.777021206020066
  0
LINE
  8
0
 10
23.37906943693406
 20
-55.777021206020066
 11
23.325369909259674
 21
-54.88853295702166
  0
LINE
  8
0
 10
23.325369909259674
 20
-54.88853295702166
 11
23.243922312262352
 21
-54.1151554592406
  0
LINE
  8
0
 10
23.243922312262352
 20
-54.1151554592406
 11
23.144852289490753
 21
-53.45737483853145
  0
LINE
  8
0
 10
23.144852289490753
 20
-53.45737483853145
 11
23.018068928799995
 21
-52.81224413143158
  0
LINE
  8
0
 10
23.018068928799995
 20
-52.81224413143158
 11
23.009103939309487
 21
-52.556066536136726
  0
LINE
  8
0
 10
23.009103939309487
 20
-52.556066536136726
 11
23.063964530310425
 21
-52.406384369078246
  0
LINE
  8
0
 10
23.063964530310425
 20
-52.406384369078246
 11
25.129512668416787
 21
-51.44786852283485
  0
LINE
  8
0
 10
25.129512668416787
 20
-51.44786852283485
 11
25.279237309579724
 21
-51.50261308794623
  0
LINE
  8
0
 10
25.279237309579724
 20
-51.50261308794623
 11
25.46907984603536
 21
-51.67485461232535
  0
LINE
  8
0
 10
25.46907984603536
 20
-51.67485461232535
 11
25.879880458787948
 21
-52.18818735660688
  0
LINE
  8
0
 10
25.879880458787948
 20
-52.18818735660688
 11
26.318233708683117
 21
-52.68852388605547
  0
LINE
  8
0
 10
26.318233708683117
 20
-52.68852388605547
 11
26.85624029655998
 21
-53.250035574742256
  0
LINE
  8
0
 10
26.85624029655998
 20
-53.250035574742256
 11
27.50006638883428
 21
-53.86467609634255
  0
LINE
  8
0
 10
27.50006638883428
 20
-53.86467609634255
 11
28.25535209918615
 21
-54.52397825650918
  0
LINE
  8
0
 10
28.25535209918615
 20
-54.52397825650918
 11
29.03982073381865
 21
-55.14942909163352
  0
LINE
  8
0
 10
29.03982073381865
 20
-55.14942909163352
 11
29.982889063914048
 21
-54.71179903992445
  0
LINE
  8
0
 10
29.982889063914048
 20
-54.71179903992445
 11
30.859212478490925
 21
-54.152375041107675
  0
LINE
  8
0
 10
30.859212478490925
 20
-54.152375041107675
 11
30.75413353232135
 21
-53.15460843467405
  0
LINE
  8
0
 10
30.75413353232135
 20
-53.15460843467405
 11
30.604818749321915
 21
-52.163225088897164
  0
LINE
  8
0
 10
30.604818749321915
 20
-52.163225088897164
 11
30.4331744627249
 21
-51.289821833373516
  0
LINE
  8
0
 10
30.4331744627249
 20
-51.289821833373516
 11
30.249372450842728
 21
-50.53420070770351
  0
LINE
  8
0
 10
30.249372450842728
 20
-50.53420070770351
 11
30.06351280528462
 21
-49.895493884078235
  0
LINE
  8
0
 10
30.06351280528462
 20
-49.895493884078235
 11
29.85187316286392
 21
-49.273017931492696
  0
LINE
  8
0
 10
29.85187316286392
 20
-49.273017931492696
 11
29.808843031886514
 21
-49.0203209999805
  0
LINE
  8
0
 10
29.808843031886514
 20
-49.0203209999805
 11
29.843263448293435
 21
-48.864662172686096
  0
LINE
  8
0
 10
29.843263448293435
 20
-48.864662172686096
 11
31.762624049847364
 21
-47.63938807292846
  0
LINE
  8
0
 10
31.762624049847364
 20
-47.63938807292846
 11
31.918309507532964
 21
-47.673687837444135
  0
LINE
  8
0
 10
31.918309507532964
 20
-47.673687837444135
 11
32.12941572008178
 21
-47.81908900109714
  0
LINE
  8
0
 10
32.12941572008178
 20
-47.81908900109714
 11
32.604971518080006
 21
-48.2730871649478
  0
LINE
  8
0
 10
32.604971518080006
 20
-48.2730871649478
 11
33.10610188858308
 21
-48.71053266572906
  0
LINE
  8
0
 10
33.10610188858308
 20
-48.71053266572906
 11
33.71415028969866
 21
-49.19532499965317
  0
LINE
  8
0
 10
33.71415028969866
 20
-49.19532499965317
 11
34.434155399811836
 21
-49.71866776428949
  0
LINE
  8
0
 10
34.434155399811836
 20
-49.71866776428949
 11
35.27057844206653
 21
-50.27141756035233
  0
LINE
  8
0
 10
35.27057844206653
 20
-50.27141756035233
 11
36.131412083563994
 21
-50.78672836709523
  0
LINE
  8
0
 10
36.131412083563994
 20
-50.78672836709523
 11
37.007735498140896
 21
-50.227304368278496
  0
LINE
  8
0
 10
37.007735498140896
 20
-50.227304368278496
 11
37.801675985105696
 21
-49.55606935686603
  0
LINE
  8
0
 10
37.801675985105696
 20
-49.55606935686603
 11
37.56454533393283
 21
-48.581210987605886
  0
LINE
  8
0
 10
37.56454533393283
 20
-48.581210987605886
 11
37.284424346086496
 21
-47.61857498429315
  0
LINE
  8
0
 10
37.284424346086496
 20
-47.61857498429315
 11
36.99789829692752
 21
-46.77584262403038
  0
LINE
  8
0
 10
36.99789829692752
 20
-46.77584262403038
 11
36.715021821416876
 21
-46.05146194736001
  0
LINE
  8
0
 10
36.715021821416876
 20
-46.05146194736001
 11
36.44568922285034
 21
-45.44322665921745
  0
LINE
  8
0
 10
36.44568922285034
 20
-45.44322665921745
 11
36.15297001313254
 21
-44.85451355926687
  0
LINE
  8
0
 10
36.15297001313254
 20
-44.85451355926687
 11
36.07664261437492
 21
-44.60980667426665
  0
LINE
  8
0
 10
36.07664261437492
 20
-44.60980667426665
 11
36.09000862304161
 21
-44.450948922197014
  0
LINE
  8
0
 10
36.09000862304161
 20
-44.450948922197014
 11
37.82893065263789
 21
-42.980781614262604
  0
LINE
  8
0
 10
37.82893065263789
 20
-42.980781614262604
 11
37.987798716165486
 21
-42.99402449807221
  0
LINE
  8
0
 10
37.987798716165486
 20
-42.99402449807221
 11
38.21640140944335
 21
-43.109990613789094
  0
LINE
  8
0
 10
38.21640140944335
 20
-43.109990613789094
 11
38.74822608820582
 21
-43.49655258921956
  0
LINE
  8
0
 10
38.74822608820582
 20
-43.49655258921956
 11
39.30319089598317
 21
-43.86330083600877
  0
LINE
  8
0
 10
39.30319089598317
 20
-43.86330083600877
 11
39.97043047221462
 21
-44.26272268448638
  0
LINE
  8
0
 10
39.97043047221462
 20
-44.26272268448638
 11
40.75376609191946
 21
-44.68542862812557
  0
LINE
  8
0
 10
40.75376609191946
 20
-44.68542862812557
 11
41.65640047707272
 21
-45.121762226879
  0
LINE
  8
0
 10
41.65640047707272
 20
-45.121762226879
 11
42.57823752870913
 21
-45.51773727168626
  0
LINE
  8
0
 10
42.57823752870913
 20
-45.51773727168626
 11
43.37217801567391
 21
-44.846502260273766
  0
LINE
  8
0
 10
43.37217801567391
 20
-44.846502260273766
 11
44.06956768822793
 21
-44.075434440946026
  0
LINE
  8
0
 10
44.06956768822793
 20
-44.075434440946026
 11
43.70461693413967
 21
-43.14088067955365
  0
LINE
  8
0
 10
43.70461693413967
 20
-43.14088067955365
 11
43.29868850711076
 21
-42.22417028098943
  0
LINE
  8
0
 10
43.29868850711076
 20
-42.22417028098943
 11
42.90239375952498
 21
-41.427147394921136
  0
LINE
  8
0
 10
42.90239375952498
 20
-41.427147394921136
 11
42.52549075779283
 21
-40.7469337575865
  0
LINE
  8
0
 10
42.52549075779283
 20
-40.7469337575865
 11
42.17749145281989
 21
-40.18002397805291
  0
LINE
  8
0
 10
42.17749145281989
 20
-40.18002397805291
 11
41.80891625703705
 21
-39.635579329952776
  0
LINE
  8
0
 10
41.80891625703705
 20
-39.635579329952776
 11
41.700653654738275
 21
-39.403229291624584
  0
LINE
  8
0
 10
41.700653654738275
 20
-39.403229291624584
 11
41.692726738923426
 21
-39.244007435128815
  0
LINE
  8
0
 10
41.692726738923426
 20
-39.244007435128815
 11
43.22017909174808
 21
-37.55518208945662
  0
LINE
  8
0
 10
43.22017909174808
 20
-37.55518208945662
 11
43.37939475676038
 21
-37.54713177298485
  0
LINE
  8
0
 10
43.37939475676038
 20
-37.54713177298485
 11
43.62141451029005
 21
-37.631593422683345
  0
LINE
  8
0
 10
43.62141451029005
 20
-37.631593422683345
 11
44.200017645825085
 21
-37.94382100208424
  0
LINE
  8
0
 10
44.200017645825085
 20
-37.94382100208424
 11
44.798913530734566
 21
-38.233327363729025
  0
LINE
  8
0
 10
44.798913530734566
 20
-38.233327363729025
 11
45.513437376036826
 21
-38.54025103441156
  0
LINE
  8
0
 10
45.513437376036826
 20
-38.54025103441156
 11
46.34612486264215
 21
-38.8547769594753
  0
LINE
  8
0
 10
46.34612486264215
 20
-38.8547769594753
 11
47.2988630587071
 21
-39.16690797751263
  0
LINE
  8
0
 10
47.2988630587071
 20
-39.16690797751263
 11
48.2652533164573
 21
-39.43648107632883
  0
LINE
  8
0
 10
48.2652533164573
 20
-39.43648107632883
 11
48.96264298901133
 21
-38.66541325700104
  0
LINE
  8
0
 10
48.96264298901133
 20
-38.66541325700104
 11
49.551036911926325
 21
-37.80827235326088
  0
LINE
  8
0
 10
49.551036911926325
 20
-37.80827235326088
 11
49.06477860977523
 21
-36.9307003337483
  0
LINE
  8
0
 10
49.06477860977523
 20
-36.9307003337483
 11
48.54028654596068
 21
-36.07627425871225
  0
LINE
  8
0
 10
48.54028654596068
 20
-36.07627425871225
 11
48.04129498910718
 21
-35.33918373912214
  0
LINE
  8
0
 10
48.04129498910718
 20
-35.33918373912214
 11
47.57709130414842
 21
-34.71527556959602
  0
LINE
  8
0
 10
47.57709130414842
 20
-34.71527556959602
 11
47.15663534861057
 21
-34.19980781711752
  0
LINE
  8
0
 10
47.15663534861057
 20
-34.19980781711752
 11
46.71878139986315
 21
-33.70934724851132
  0
LINE
  8
0
 10
46.71878139986315
 20
-33.70934724851132
 11
46.58051554272603
 21
-33.49350034879359
  0
LINE
  8
0
 10
46.58051554272603
 20
-33.49350034879359
 11
46.55143715843016
 21
-33.336755705672886
  0
LINE
  8
0
 10
46.55143715843016
 20
-33.336755705672886
 11
47.840162411061
 21
-31.459409450565452
  0
LINE
  8
0
 10
47.840162411061
 20
-31.459409450565452
 11
47.99688447024396
 21
-31.430209591900454
  0
LINE
  8
0
 10
47.99688447024396
 20
-31.430209591900454
 11
48.24800243579015
 21
-31.481659555440768
  0
LINE
  8
0
 10
48.24800243579015
 20
-31.481659555440768
 11
48.86305884143676
 21
-31.71398103026086
  0
LINE
  8
0
 10
48.86305884143676
 20
-31.71398103026086
 11
49.495198492224056
 21
-31.921079258879132
  0
LINE
  8
0
 10
49.495198492224056
 20
-31.921079258879132
 11
50.24425591165034
 21
-32.13002769159213
  0
LINE
  8
0
 10
50.24425591165034
 20
-32.13002769159213
 11
51.11143593723092
 21
-32.330760875496395
  0
LINE
  8
0
 10
51.11143593723092
 20
-32.330760875496395
 11
52.097276308528
 21
-32.513119327406216
  0
LINE
  8
0
 10
52.097276308528
 20
-32.513119327406216
 11
53.09097451534817
 21
-32.651479941896646
  0
LINE
  8
0
 10
53.09097451534817
 20
-32.651479941896646
 11
53.67936843826313
 21
-31.794339038156508
  0
LINE
  8
0
 10
53.67936843826313
 20
-31.794339038156508
 11
54.14826670804542
 21
-30.86642074973723
  0
LINE
  8
0
 10
54.14826670804542
 20
-30.86642074973723
 11
53.54937814875311
 21
-30.061490765582754
  0
LINE
  8
0
 10
53.54937814875311
 20
-30.061490765582754
 11
52.91568202145715
 21
-29.284596267625634
  0
LINE
  8
0
 10
52.91568202145715
 20
-29.284596267625634
 11
52.32289817148929
 21
-28.620591512297793
  0
LINE
  8
0
 10
52.32289817148929
 20
-28.620591512297793
 11
51.77967752905921
 21
-28.064122466646033
  0
LINE
  8
0
 10
51.77967752905921
 20
-28.064122466646033
 11
51.294267969443816
 21
-27.609295275477265
  0
LINE
  8
0
 10
51.294267969443816
 20
-27.609295275477265
 11
50.79494878182015
 21
-27.181571066830998
  0
LINE
  8
0
 10
50.79494878182015
 20
-27.181571066830998
 11
50.629147027340885
 21
-26.986079098762705
  0
LINE
  8
0
 10
50.629147027340885
 20
-26.986079098762705
 11
50.579436079020624
 21
-26.834608780886906
  0
LINE
  8
0
 10
50.579436079020624
 20
-26.834608780886906
 11
51.606436898794
 21
-24.80224290474178
  0
LINE
  8
0
 10
51.606436898794
 20
-24.80224290474178
 11
51.7578686432887
 21
-24.752414576053194
  0
LINE
  8
0
 10
51.7578686432887
 20
-24.752414576053194
 11
52.013603614807124
 21
-24.769934727617073
  0
LINE
  8
0
 10
52.013603614807124
 20
-24.769934727617073
 11
52.65413759443559
 21
-24.91820431563441
  0
LINE
  8
0
 10
52.65413759443559
 20
-24.91820431563441
 11
53.308240464056745
 21
-25.039198738430226
  0
LINE
  8
0
 10
53.308240464056745
 20
-25.039198738430226
 11
54.07846451021189
 21
-25.146443243441833
  0
LINE
  8
0
 10
54.07846451021189
 20
-25.146443243441833
 11
54.964662226667365
 21
-25.229801597764393
  0
LINE
  8
0
 10
54.964662226667365
 20
-25.229801597764393
 11
55.966012428415794
 21
-25.27913329265223
  0
LINE
  8
0
 10
55.966012428415794
 20
-25.27913329265223
 11
56.9692860162641
 21
-25.28381237437351
  0
LINE
  8
0
 10
56.9692860162641
 20
-25.28381237437351
 11
57.438184286046344
 21
-24.35589408595427
  0
LINE
  8
0
 10
57.438184286046344
 20
-24.35589408595427
 11
57.779219401963466
 21
-23.373757136695556
  0
LINE
  8
0
 10
57.779219401963466
 20
-23.373757136695556
 11
57.07838776605817
 21
-22.655833182535456
  0
LINE
  8
0
 10
57.07838776605817
 20
-22.655833182535456
 11
56.346795897684935
 21
-21.970333962378273
  0
LINE
  8
0
 10
56.346795897684935
 20
-21.970333962378273
 11
55.67079799644871
 21
-21.39126415190209
  0
LINE
  8
0
 10
55.67079799644871
 20
-21.39126415190209
 11
55.058254181780605
 21
-20.912164433427353
  0
LINE
  8
0
 10
55.058254181780605
 20
-20.912164433427353
 11
54.51655316317858
 21
-20.526094205569777
  0
LINE
  8
0
 10
54.51655316317858
 20
-20.526094205569777
 11
53.9646790994109
 21
-20.16873910551971
  0
LINE
  8
0
 10
53.9646790994109
 20
-20.16873910551971
 11
53.774300183826085
 21
-19.997090627902324
  0
LINE
  8
0
 10
53.774300183826085
 20
-19.997090627902324
 11
53.704843764531894
 21
-19.853597626682323
  0
LINE
  8
0
 10
53.704843764531894
 20
-19.853597626682323
 11
54.45179329748884
 21
-17.702479746706956
  0
LINE
  8
0
 10
54.45179329748884
 20
-17.702479746706956
 11
54.59523242422728
 21
-17.632912135700682
  0
LINE
  8
0
 10
54.59523242422728
 20
-17.632912135700682
 11
54.85102080509273
 21
-17.616189827768412
  0
LINE
  8
0
 10
54.85102080509273
 20
-17.616189827768412
 11
55.50560201466205
 21
-17.677761654672253
  0
LINE
  8
0
 10
55.50560201466205
 20
-17.677761654672253
 11
56.169995621912676
 21
-17.710493123304413
  0
LINE
  8
0
 10
56.169995621912676
 20
-17.710493123304413
 11
56.94764162844609
 21
-17.714119919882027
  0
LINE
  8
0
 10
56.94764162844609
 20
-17.714119919882027
 11
57.83704281653191
 21
-17.678615912815197
  0
LINE
  8
0
 10
57.83704281653191
 20
-17.678615912815197
 11
58.836033730659054
 21
-17.594040525417086
  0
LINE
  8
0
 10
58.836033730659054
 20
-17.594040525417086
 11
59.83097925859241
 21
-17.464954576045077
  0
LINE
  8
0
 10
59.83097925859241
 20
-17.464954576045077
 11
60.172014374509274
 21
-16.48281762678628
  0
LINE
  8
0
 10
60.172014374509274
 20
-16.48281762678628
 11
60.37910055683796
 21
-15.463988273814767
  0
LINE
  8
0
 10
60.37910055683796
 20
-15.463988273814767
 11
59.58883220146584
 21
-14.845881719619115
  0
LINE
  8
0
 10
59.58883220146584
 20
-14.845881719619115
 11
58.77239986623819
 21
-14.26401052708536
  0
LINE
  8
0
 10
58.77239986623819
 20
-14.26401052708536
 11
58.02525111229584
 21
-13.7802091759472
  0
LINE
  8
0
 10
58.02525111229584
 20
-13.7802091759472
 11
57.35431498427389
 21
-13.387028330475745
  0
LINE
  8
0
 10
57.35431498427389
 20
-13.387028330475745
 11
56.76598917419531
 21
-13.076604498291655
  0
LINE
  8
0
 10
56.76598917419531
 20
-13.076604498291655
 11
56.17140844002571
 21
-12.795995517064082
  0
LINE
  8
0
 10
56.17140844002571
 20
-12.795995517064082
 11
55.959849679594114
 21
-12.651253601047113
  0
LINE
  8
0
 10
55.959849679594114
 20
-12.651253601047113
 11
55.87188724077373
 21
-12.518298552489092
  0
LINE
  8
0
 10
55.87188724077373
 20
-12.518298552489092
 11
56.325456154803085
 21
-10.286815418212571
  0
LINE
  8
0
 10
56.325456154803085
 20
-10.286815418212571
 11
56.458342989170475
 21
-10.198749960555103
  0
LINE
  8
0
 10
56.458342989170475
 20
-10.198749960555103
 11
56.709620229666676
 21
-10.148083603107892
  0
LINE
  8
0
 10
56.709620229666676
 20
-10.148083603107892
 11
57.36656765198477
 21
-10.121858918188472
  0
LINE
  8
0
 10
57.36656765198477
 20
-10.121858918188472
 11
58.029395877203704
 21
-10.065743338823815
  0
LINE
  8
0
 10
58.029395877203704
 20
-10.065743338823815
 11
58.80058673270603
 21
-9.965687706696585
  0
LINE
  8
0
 10
58.80058673270603
 20
-9.965687706696585
 11
59.67732000715049
 21
-9.811954908087582
  0
LINE
  8
0
 10
59.67732000715049
 20
-9.811954908087582
 11
60.65612461712721
 21
-9.59498168819527
  0
LINE
  8
0
 10
60.65612461712721
 20
-9.59498168819527
 11
61.624987258628906
 21
-9.334434249554583
  0
LINE
  8
0
 10
0.41582338163551874
 20
-1.9562952014676114
 11
1.2246467991473532e-16
 21
-2
  0
LINE
  8
0
 10
1.2246467991473532e-16
 20
-2
 11
-0.41582338163551785
 21
-1.9562952014676114
  0
LINE
  8
0
 10
-0.41582338163551785
 20
-1.9562952014676114
 11
-0.8134732861516002
 21
-1.827090915285202
  0
LINE
  8
0
 10
-0.8134732861516002
 20
-1.827090915285202
 11
-1.1755705045849467
 21
-1.6180339887498945
  0
LINE
  8
0
 10
-1.1755705045849467
 20
-1.6180339887498945
 11
-1.486289650954788
 21
-1.338261212717717
  0
LINE
  8
0
 10
-1.486289650954788
 20
-1.338261212717717
 11
-1.7320508075688772
 21
-1.0000000000000002
  0
LINE
  8
0
 10
-1.7320508075688772
 20
-1.0000000000000002
 11
-1.9021130325903073
 21
-0.6180339887498946
  0
LINE
  8
0
 10
-1.9021130325903073
 20
-0.6180339887498946
 11
-1.9890437907365468
 21
-0.20905692653530608
  0
LINE
  8
0
 10
-1.9890437907365468
 20
-0.20905692653530608
 11
-1.9890437907365466
 21
0.20905692653530836
  0
LINE
  8
0
 10
-1.9890437907365466
 20
0.20905692653530836
 11
-1.902113032590307
 21
0.618033988749895
  0
LINE
  8
0
 10
-1.902113032590307
 20
0.618033988749895
 11
-1.7320508075688767
 21
1.0000000000000009
  0
LINE
  8
0
 10
-1.7320508075688767
 20
1.0000000000000009
 11
-1.486289650954788
 21
1.338261212717717
  0
LINE
  8
0
 10
-1.486289650954788
 20
1.338261212717717
 11
-1.175570504584946
 21
1.618033988749895
  0
LINE
  8
0
 10
-1.175570504584946
 20
1.618033988749895
 11
-0.8134732861516005
 21
1.8270909152852017
  0
LINE
  8
0
 10
-0.8134732861516005
 20
1.8270909152852017
 11
-0.41582338163551824
 21
1.9562952014676114
  0
LINE
  8
0
 10
-0.41582338163551824
 20
1.9562952014676114
 11
1.0106430996148606e-15
 21
2
  0
LINE
  8
0
 10
1.0106430996148606e-15
 20
2
 11
0.4158233816355185
 21
1.9562952014676114
  0
LINE
  8
0
 10
0.4158233816355185
 20
1.9562952014676114
 11
0.8134732861516
 21
1.827090915285202
  0
LINE
  8
0
 10
0.8134732861516
 20
1.827090915285202
 11
1.1755705045849465
 21
1.618033988749895
  0
LINE
  8
0
 10
1.1755705045849465
 20
1.618033988749895
 11
1.486289650954789
 21
1.3382612127177158
  0
LINE
  8
0
 10
1.486289650954789
 20
1.3382612127177158
 11
1.7320508075688774
 21
0.9999999999999997
  0
LINE
  8
0
 10
1.7320508075688774
 20
0.9999999999999997
 11
1.9021130325903073
 21
0.6180339887498948
  0
LINE
  8
0
 10
1.9021130325903073
 20
0.6180339887498948
 11
1.9890437907365468
 21
0.20905692653530678
  0
LINE
  8
0
 10
1.9890437907365468
 20
0.20905692653530678
 11
1.9890437907365466
 21
-0.2090569265353068
  0
LINE
  8
0
 10
1.9890437907365466
 20
-0.2090569265353068
 11
1.902113032590307
 21
-0.6180339887498948
  0
LINE
  8
0
 10
1.902113032590307
 20
-0.6180339887498948
 11
1.7320508075688772
 21
-1.0000000000000002
  0
LINE
  8
0
 10
1.7320508075688772
 20
-1.0000000000000002
 11
1.4862896509547885
 21
-1.3382612127177165
  0
LINE
  8
0
 10
1.4862896509547885
 20
-1.3382612127177165
 11
1.1755705045849463
 21
-1.618033988749895
  0
LINE
  8
0
 10
1.1755705045849463
 20
-1.618033988749895
 11
0.8134732861516004
 21
-1.8270909152852017
  0
LINE
  8
0
 10
0.8134732861516004
 20
-1.8270909152852017
 11
0.41582338163551874
 21
-1.9562952014676114
  0
ENDSEC
  0
SECTION
  2
OBJECTS
  0
DICTIONARY
  0
ENDSEC
  0
EOF
