<?xml version="1.0" standalone="no"?>
<!DOCTYPE svg PUBLIC "-//W3C//DTD SVG 1.1//EN" "http://www.w3.org/Graphics/SVG/1.1/DTD/svg11.dtd">
<svg width="246" height="122" viewBox="28 -140 246 122" xmlns="http://www.w3.org/2000/svg" version="1.1">
<title>OpenSCAD Model</title>
<path d="
M 189,-123 L 203,-123 L 203,-120 L 210,-120 L 210,-126.667 L 213,-126.667
 L 213,-133.333 L 210,-133.333 L 210,-140 L 203,-140 L 203,-137 L 189,-137
 L 189,-140 L 170,-140 L 170,-120 L 189,-120 z
M 173.105,-130.845 L 172.699,-131.116 L 172.428,-131.522 L 172.333,-132 L 172.428,-132.478 L 172.699,-132.884
 L 173.105,-133.155 L 173.583,-133.25 L 174.062,-133.155 L 174.467,-132.884 L 174.738,-132.478 L 174.833,-132
 L 174.738,-131.522 L 174.467,-131.116 L 174.062,-130.845 L 173.583,-130.75 z
M 182.605,-130.845 L 182.199,-131.116 L 181.928,-131.522 L 181.833,-132 L 181.928,-132.478 L 182.199,-132.884
 L 182.605,-133.155 L 183.083,-133.25 L 183.562,-133.155 L 183.967,-132.884 L 184.238,-132.478 L 184.333,-132
 L 184.238,-131.522 L 183.967,-131.116 L 183.562,-130.845 L 183.083,-130.75 z
M 93,-104 L 107,-104 L 107,-101 L 121,-101 L 121,-136 L 109,-136
 L 108.698,-135.698 L 106.577,-137.82 L 96.6777,-127.92 L 98.799,-125.799 L 88.8995,-115.9 L 86.7782,-118.021
 L 76.8787,-108.121 L 79,-106 L 79,-101 L 93,-101 z
M 45,-104 L 59,-104 L 59,-101 L 73,-101 L 73,-136 L 61,-136
 L 60.6985,-135.698 L 58.5772,-137.82 L 48.6777,-127.92 L 50.799,-125.799 L 40.8995,-115.9 L 38.7782,-118.021
 L 28.8787,-108.121 L 31,-106 L 31,-101 L 45,-101 z
M 140,-104 L 154,-104 L 154,-101 L 168,-101 L 168,-136 L 156,-136
 L 155.698,-135.698 L 153.577,-137.82 L 143.678,-127.92 L 145.799,-125.799 L 135.899,-115.9 L 133.778,-118.021
 L 123.879,-108.121 L 126,-106 L 126,-101 L 140,-101 z
M 235,-135 L 215,-135 L 215,-125 L 235,-125 z
M 229.272,-130.845 L 228.866,-131.116 L 228.595,-131.522 L 228.5,-132 L 228.595,-132.478 L 228.866,-132.884
 L 229.272,-133.155 L 229.75,-133.25 L 230.228,-133.155 L 230.634,-132.884 L 230.905,-132.478 L 231,-132
 L 230.905,-131.522 L 230.634,-131.116 L 230.228,-130.845 L 229.75,-130.75 z
M 219.772,-130.845 L 219.366,-131.116 L 219.095,-131.522 L 219,-132 L 219.095,-132.478 L 219.366,-132.884
 L 219.772,-133.155 L 220.25,-133.25 L 220.728,-133.155 L 221.134,-132.884 L 221.405,-132.478 L 221.5,-132
 L 221.405,-131.522 L 221.134,-131.116 L 220.728,-130.845 L 220.25,-130.75 z
M 253,-120 L 253,-123 L 239,-123 L 239,-120 L 232,-120 L 232,-113
 L 229,-113 L 229,-99 L 232,-99 z
M 227,-120 L 217,-120 L 217,-100 L 227,-100 z
M 219.522,-113.595 L 219.116,-113.866 L 218.845,-114.272 L 218.75,-114.75 L 218.845,-115.228 L 219.116,-115.634
 L 219.522,-115.905 L 220,-116 L 220.478,-115.905 L 220.884,-115.634 L 221.155,-115.228 L 221.25,-114.75
 L 221.155,-114.272 L 220.884,-113.866 L 220.478,-113.595 L 220,-113.5 z
M 219.522,-104.095 L 219.116,-104.366 L 218.845,-104.772 L 218.75,-105.25 L 218.845,-105.728 L 219.116,-106.134
 L 219.522,-106.405 L 220,-106.5 L 220.478,-106.405 L 220.884,-106.134 L 221.155,-105.728 L 221.25,-105.25
 L 221.155,-104.772 L 220.884,-104.366 L 220.478,-104.095 L 220,-104 z
M 190,-101 L 204,-101 L 204,-98 L 214,-98 L 214,-104.667 L 211,-104.667
 L 211,-111.333 L 214,-111.333 L 214,-118 L 204,-118 L 204,-115 L 190,-115
 L 190,-118 L 171,-118 L 171,-98 L 190,-98 z
M 189.21,-105.69 L 188.399,-106.232 L 187.857,-107.043 L 187.667,-108 L 187.857,-108.957 L 188.399,-109.768
 L 189.21,-110.31 L 190.167,-110.5 L 191.123,-110.31 L 191.934,-109.768 L 192.476,-108.957 L 192.667,-108
 L 192.476,-107.043 L 191.934,-106.232 L 191.123,-105.69 L 190.167,-105.5 z
M 175.877,-105.69 L 175.066,-106.232 L 174.524,-107.043 L 174.333,-108 L 174.524,-108.957 L 175.066,-109.768
 L 175.877,-110.31 L 176.833,-110.5 L 177.79,-110.31 L 178.601,-109.768 L 179.143,-108.957 L 179.333,-108
 L 179.143,-107.043 L 178.601,-106.232 L 177.79,-105.69 L 176.833,-105.5 z
M 265,-89 L 262,-89 L 262,-103 L 265,-103 L 265,-110 L 258.333,-110
 L 258.333,-113 L 251.667,-113 L 251.667,-110 L 245,-110 L 245,-103 L 248,-103
 L 248,-89 L 245,-89 L 245,-70 L 265,-70 z
M 252.522,-81.9285 L 252.116,-82.1994 L 251.845,-82.605 L 251.75,-83.0833 L 251.845,-83.5617 L 252.116,-83.9672
 L 252.522,-84.2382 L 253,-84.3333 L 253.478,-84.2382 L 253.884,-83.9672 L 254.155,-83.5617 L 254.25,-83.0833
 L 254.155,-82.605 L 253.884,-82.1994 L 253.478,-81.9285 L 253,-81.8333 z
M 252.522,-72.4285 L 252.116,-72.6995 L 251.845,-73.105 L 251.75,-73.5833 L 251.845,-74.0617 L 252.116,-74.4672
 L 252.522,-74.7382 L 253,-74.8333 L 253.478,-74.7382 L 253.884,-74.4672 L 254.155,-74.0617 L 254.25,-73.5833
 L 254.155,-73.105 L 253.884,-72.6995 L 253.478,-72.4285 L 253,-72.3333 z
M 178,-89 L 175,-89 L 175,-96 L 168,-96 L 168,-99 L 154,-99
 L 154,-96 L 175,-75 L 178,-75 z
M 249.142,-55.8578 L 235,-84.1421 L 220.858,-98.2843 L 213.787,-91.2132 L 226.161,-78.8388 L 231.464,-66.4645
 L 206.716,-41.7157 L 220.858,-27.5736 z
M 219.849,-92.0029 L 219.444,-92.2738 L 219.173,-92.6794 L 219.078,-93.1577 L 219.173,-93.6361 L 219.444,-94.0416
 L 219.849,-94.3126 L 220.328,-94.4077 L 220.806,-94.3126 L 221.211,-94.0416 L 221.482,-93.6361 L 221.578,-93.1577
 L 221.482,-92.6794 L 221.211,-92.2738 L 220.806,-92.0029 L 220.328,-91.9077 z
M 226.567,-85.2854 L 226.161,-85.5563 L 225.89,-85.9619 L 225.795,-86.4402 L 225.89,-86.9186 L 226.161,-87.3241
 L 226.567,-87.5951 L 227.045,-87.6902 L 227.523,-87.5951 L 227.929,-87.3241 L 228.2,-86.9186 L 228.295,-86.4402
 L 228.2,-85.9619 L 227.929,-85.5563 L 227.523,-85.2854 L 227.045,-85.1902 z
M 231.686,-51.1911 L 230.875,-51.7331 L 230.333,-52.5441 L 230.143,-53.5009 L 230.333,-54.4576 L 230.875,-55.2686
 L 231.686,-55.8105 L 232.643,-56.0009 L 233.6,-55.8105 L 234.411,-55.2686 L 234.953,-54.4576 L 235.143,-53.5009
 L 234.953,-52.5441 L 234.411,-51.7331 L 233.6,-51.1911 L 232.643,-51.0008 z
M 219.901,-39.4061 L 219.09,-39.948 L 218.548,-40.759 L 218.358,-41.7157 L 218.548,-42.6724 L 219.09,-43.4835
 L 219.901,-44.0254 L 220.858,-44.2157 L 221.815,-44.0254 L 222.626,-43.4835 L 223.168,-42.6724 L 223.358,-41.7157
 L 223.168,-40.759 L 222.626,-39.948 L 221.815,-39.4061 L 220.858,-39.2157 z
M 91.985,-97.69 L 28.015,-97.69 L 28.015,-62.31 L 91.985,-62.31 z
M 57.625,-93.69 L 57.625,-95.69 L 62.375,-95.69 L 62.375,-93.69 z
M 29.64,-93.69 L 29.64,-95.69 L 34.39,-95.69 L 34.39,-93.69 z
M 85.61,-93.69 L 85.61,-95.69 L 90.36,-95.69 L 90.36,-93.69 z
M 67,-87.345 L 67,-90.345 L 81,-90.345 L 81,-87.345 z
M 39,-87.345 L 39,-90.345 L 53,-90.345 L 53,-87.345 z
M 57.7039,-74.4567 L 55.7574,-75.7574 L 54.4567,-77.7039 L 54.3978,-78 L 44.0075,-78 L 44.0075,-82
 L 54.3978,-82 L 54.4567,-82.2961 L 55.7574,-84.2426 L 57.7039,-85.5433 L 60,-86 L 62.2961,-85.5433
 L 64.2426,-84.2426 L 65.5433,-82.2961 L 65.6022,-82 L 75.9925,-82 L 75.9925,-78 L 65.6022,-78
 L 65.5433,-77.7039 L 64.2426,-75.7574 L 62.2961,-74.4567 L 60,-74 z
M 67,-69.655 L 67,-72.655 L 81,-72.655 L 81,-69.655 z
M 39,-69.655 L 39,-72.655 L 53,-72.655 L 53,-69.655 z
M 29.64,-64.31 L 29.64,-66.31 L 34.39,-66.31 L 34.39,-64.31 z
M 85.61,-64.31 L 85.61,-66.31 L 90.36,-66.31 L 90.36,-64.31 z
M 57.625,-64.31 L 57.625,-66.31 L 62.375,-66.31 L 62.375,-64.31 z
M 152.985,-97.69 L 97.015,-97.69 L 97.015,-62.31 L 152.985,-62.31 z
M 121.353,-93.0818 L 120.834,-93.4286 L 120.487,-93.9477 L 120.365,-94.56 L 120.487,-95.1723 L 120.834,-95.6913
 L 121.353,-96.0382 L 121.965,-96.16 L 122.577,-96.0382 L 123.096,-95.6913 L 123.443,-95.1723 L 123.565,-94.56
 L 123.443,-93.9477 L 123.096,-93.4286 L 122.577,-93.0818 L 121.965,-92.96 z
M 135.338,-93.0818 L 134.819,-93.4286 L 134.472,-93.9477 L 134.35,-94.56 L 134.472,-95.1723 L 134.819,-95.6913
 L 135.338,-96.0382 L 135.95,-96.16 L 136.562,-96.0382 L 137.081,-95.6913 L 137.428,-95.1723 L 137.55,-94.56
 L 137.428,-93.9477 L 137.081,-93.4286 L 136.562,-93.0818 L 135.95,-92.96 z
M 149.323,-93.0818 L 148.804,-93.4286 L 148.457,-93.9477 L 148.335,-94.56 L 148.457,-95.1723 L 148.804,-95.6913
 L 149.323,-96.0382 L 149.935,-96.16 L 150.547,-96.0382 L 151.066,-95.6913 L 151.413,-95.1723 L 151.535,-94.56
 L 151.413,-93.9477 L 151.066,-93.4286 L 150.547,-93.0818 L 149.935,-92.96 z
M 104,-87.345 L 104,-90.345 L 118,-90.345 L 118,-87.345 z
M 132,-87.345 L 132,-90.345 L 146,-90.345 L 146,-87.345 z
M 127.423,-83.1118 L 126.904,-83.4586 L 126.557,-83.9777 L 126.435,-84.59 L 126.557,-85.2023 L 126.904,-85.7214
 L 127.423,-86.0682 L 128.035,-86.19 L 128.647,-86.0682 L 129.166,-85.7214 L 129.513,-85.2023 L 129.635,-84.59
 L 129.513,-83.9777 L 129.166,-83.4586 L 128.647,-83.1118 L 128.035,-82.99 z
M 113.438,-83.1118 L 112.919,-83.4586 L 112.572,-83.9777 L 112.45,-84.59 L 112.572,-85.2023 L 112.919,-85.7214
 L 113.438,-86.0682 L 114.05,-86.19 L 114.662,-86.0682 L 115.181,-85.7214 L 115.528,-85.2023 L 115.65,-84.59
 L 115.528,-83.9777 L 115.181,-83.4586 L 114.662,-83.1118 L 114.05,-82.99 z
M 99.4527,-83.1118 L 98.9337,-83.4586 L 98.5868,-83.9777 L 98.465,-84.59 L 98.5868,-85.2023 L 98.9337,-85.7214
 L 99.4527,-86.0682 L 100.065,-86.19 L 100.677,-86.0682 L 101.196,-85.7214 L 101.543,-85.2023 L 101.665,-84.59
 L 101.543,-83.9777 L 101.196,-83.4586 L 100.677,-83.1118 L 100.065,-82.99 z
M 127.423,-73.7018 L 126.904,-74.0486 L 126.557,-74.5677 L 126.435,-75.18 L 126.557,-75.7923 L 126.904,-76.3114
 L 127.423,-76.6582 L 128.035,-76.78 L 128.647,-76.6582 L 129.166,-76.3114 L 129.513,-75.7923 L 129.635,-75.18
 L 129.513,-74.5677 L 129.166,-74.0486 L 128.647,-73.7018 L 128.035,-73.58 z
M 99.4527,-73.7018 L 98.9337,-74.0486 L 98.5868,-74.5677 L 98.465,-75.18 L 98.5868,-75.7923 L 98.9337,-76.3114
 L 99.4527,-76.6582 L 100.065,-76.78 L 100.677,-76.6582 L 101.196,-76.3114 L 101.543,-75.7923 L 101.665,-75.18
 L 101.543,-74.5677 L 101.196,-74.0486 L 100.677,-73.7018 L 100.065,-73.58 z
M 113.438,-73.7018 L 112.919,-74.0486 L 112.572,-74.5677 L 112.45,-75.18 L 112.572,-75.7923 L 112.919,-76.3114
 L 113.438,-76.6582 L 114.05,-76.78 L 114.662,-76.6582 L 115.181,-76.3114 L 115.528,-75.7923 L 115.65,-75.18
 L 115.528,-74.5677 L 115.181,-74.0486 L 114.662,-73.7018 L 114.05,-73.58 z
M 104,-69.655 L 104,-72.655 L 118,-72.655 L 118,-69.655 z
M 132,-69.655 L 132,-72.655 L 146,-72.655 L 146,-69.655 z
M 135.338,-63.7318 L 134.819,-64.0786 L 134.472,-64.5977 L 134.35,-65.21 L 134.472,-65.8223 L 134.819,-66.3414
 L 135.338,-66.6882 L 135.95,-66.81 L 136.562,-66.6882 L 137.081,-66.3414 L 137.428,-65.8223 L 137.55,-65.21
 L 137.428,-64.5977 L 137.081,-64.0786 L 136.562,-63.7318 L 135.95,-63.61 z
M 121.353,-63.7318 L 120.834,-64.0786 L 120.487,-64.5977 L 120.365,-65.21 L 120.487,-65.8223 L 120.834,-66.3414
 L 121.353,-66.6882 L 121.965,-66.81 L 122.577,-66.6882 L 123.096,-66.3414 L 123.443,-65.8223 L 123.565,-65.21
 L 123.443,-64.5977 L 123.096,-64.0786 L 122.577,-63.7318 L 121.965,-63.61 z
M 149.323,-63.7318 L 148.804,-64.0786 L 148.457,-64.5977 L 148.335,-65.21 L 148.457,-65.8223 L 148.804,-66.3414
 L 149.323,-66.6882 L 149.935,-66.81 L 150.547,-66.6882 L 151.066,-66.3414 L 151.413,-65.8223 L 151.535,-65.21
 L 151.413,-64.5977 L 151.066,-64.0786 L 150.547,-63.7318 L 149.935,-63.61 z
M 205,-93 L 205,-96 L 191,-96 L 191,-93 L 184,-93 L 184,-86
 L 181,-86 L 181,-72 L 184,-72 z
M 216.213,-28.7868 L 203.839,-41.1612 L 198.536,-53.5355 L 223.284,-78.2843 L 209.142,-92.4264 L 180.858,-64.1421
 L 195,-35.8579 L 209.142,-21.7157 z
M 208.185,-75.9746 L 207.374,-76.5165 L 206.832,-77.3275 L 206.642,-78.2843 L 206.832,-79.241 L 207.374,-80.052
 L 208.185,-80.5939 L 209.142,-80.7843 L 210.099,-80.5939 L 210.91,-80.052 L 211.452,-79.241 L 211.642,-78.2843
 L 211.452,-77.3275 L 210.91,-76.5165 L 210.099,-75.9746 L 209.142,-75.7843 z
M 196.4,-64.1894 L 195.589,-64.7314 L 195.047,-65.5424 L 194.857,-66.4991 L 195.047,-67.4559 L 195.589,-68.2669
 L 196.4,-68.8088 L 197.357,-68.9991 L 198.314,-68.8088 L 199.125,-68.2669 L 199.667,-67.4559 L 199.857,-66.4991
 L 199.667,-65.5424 L 199.125,-64.7314 L 198.314,-64.1894 L 197.357,-63.9991 z
M 202.477,-32.4049 L 202.071,-32.6759 L 201.8,-33.0814 L 201.705,-33.5598 L 201.8,-34.0381 L 202.071,-34.4437
 L 202.477,-34.7146 L 202.955,-34.8098 L 203.433,-34.7146 L 203.839,-34.4437 L 204.11,-34.0381 L 204.205,-33.5598
 L 204.11,-33.0814 L 203.839,-32.6759 L 203.433,-32.4049 L 202.955,-32.3098 z
M 209.194,-25.6874 L 208.789,-25.9584 L 208.518,-26.3639 L 208.422,-26.8423 L 208.518,-27.3206 L 208.789,-27.7262
 L 209.194,-27.9971 L 209.672,-28.0923 L 210.151,-27.9971 L 210.556,-27.7262 L 210.827,-27.3206 L 210.922,-26.8423
 L 210.827,-26.3639 L 210.556,-25.9584 L 210.151,-25.6874 L 209.672,-25.5923 z
M 179,-69 L 158,-90 L 155,-90 L 155,-76 L 158,-76 L 158,-69
 L 165,-69 L 165,-66 L 179,-66 z
M 191,-21 L 191,-33 L 190.698,-33.3015 L 192.82,-35.4229 L 182.92,-45.3223 L 180.799,-43.201
 L 170.9,-53.1005 L 173.021,-55.2218 L 163.121,-65.1213 L 161,-63 L 156,-63 L 156,-49
 L 159,-49 L 159,-35 L 156,-35 L 156,-21 z
M 256.364,-32.2218 L 254.243,-34.3432 L 264.142,-44.2426 L 266.263,-42.1213 L 273.335,-49.1924 L 268.62,-53.9064
 L 266.499,-51.7851 L 261.785,-56.4991 L 263.906,-58.6205 L 259.192,-63.3345 L 252.121,-56.2634 L 254.243,-54.1421
 L 244.343,-44.2426 L 242.222,-46.364 L 228.787,-32.9289 L 242.929,-18.7868 z
M 248.454,-37.1011 L 247.643,-37.643 L 247.101,-38.454 L 246.911,-39.4108 L 247.101,-40.3674 L 247.643,-41.1785
 L 248.454,-41.7204 L 249.411,-41.9107 L 250.367,-41.7204 L 251.178,-41.1785 L 251.72,-40.3674 L 251.911,-39.4108
 L 251.72,-38.454 L 251.179,-37.643 L 250.367,-37.1011 L 249.411,-36.9108 z
M 239.026,-27.673 L 238.215,-28.2149 L 237.673,-29.0259 L 237.483,-29.9827 L 237.673,-30.9394 L 238.215,-31.7504
 L 239.026,-32.2924 L 239.983,-32.4827 L 240.939,-32.2924 L 241.75,-31.7504 L 242.292,-30.9394 L 242.483,-29.9827
 L 242.292,-29.026 L 241.75,-28.2149 L 240.939,-27.673 L 239.983,-27.4827 z
M 91.985,-57.69 L 28.015,-57.69 L 28.015,-22.31 L 91.985,-22.31 z
M 29.64,-53.69 L 29.64,-55.69 L 34.39,-55.69 L 34.39,-53.69 z
M 85.61,-53.69 L 85.61,-55.69 L 90.36,-55.69 L 90.36,-53.69 z
M 57.625,-53.69 L 57.625,-55.69 L 62.375,-55.69 L 62.375,-53.69 z
M 39,-47.345 L 39,-50.345 L 53,-50.345 L 53,-47.345 z
M 67,-47.345 L 67,-50.345 L 81,-50.345 L 81,-47.345 z
M 57.7039,-34.4567 L 55.7574,-35.7574 L 54.4567,-37.7039 L 54.3978,-38 L 44.0075,-38 L 44.0075,-42
 L 54.3978,-42 L 54.4567,-42.2961 L 55.7574,-44.2426 L 57.7039,-45.5433 L 60,-46 L 62.2961,-45.5433
 L 64.2426,-44.2426 L 65.5433,-42.2961 L 65.6022,-42 L 75.9925,-42 L 75.9925,-38 L 65.6022,-38
 L 65.5433,-37.7039 L 64.2426,-35.7574 L 62.2961,-34.4567 L 60,-34 z
M 39,-29.655 L 39,-32.655 L 53,-32.655 L 53,-29.655 z
M 67,-29.655 L 67,-32.655 L 81,-32.655 L 81,-29.655 z
M 29.64,-24.31 L 29.64,-26.31 L 34.39,-26.31 L 34.39,-24.31 z
M 85.61,-24.31 L 85.61,-26.31 L 90.36,-26.31 L 90.36,-24.31 z
M 57.625,-24.31 L 57.625,-26.31 L 62.375,-26.31 L 62.375,-24.31 z
M 152.985,-57.69 L 97.015,-57.69 L 97.015,-22.31 L 152.985,-22.31 z
M 135.338,-53.0818 L 134.819,-53.4286 L 134.472,-53.9477 L 134.35,-54.56 L 134.472,-55.1723 L 134.819,-55.6913
 L 135.338,-56.0382 L 135.95,-56.16 L 136.562,-56.0382 L 137.081,-55.6913 L 137.428,-55.1723 L 137.55,-54.56
 L 137.428,-53.9477 L 137.081,-53.4286 L 136.562,-53.0818 L 135.95,-52.96 z
M 149.323,-53.0818 L 148.804,-53.4286 L 148.457,-53.9477 L 148.335,-54.56 L 148.457,-55.1723 L 148.804,-55.6913
 L 149.323,-56.0382 L 149.935,-56.16 L 150.547,-56.0382 L 151.066,-55.6913 L 151.413,-55.1723 L 151.535,-54.56
 L 151.413,-53.9477 L 151.066,-53.4286 L 150.547,-53.0818 L 149.935,-52.96 z
M 121.353,-53.0818 L 120.834,-53.4286 L 120.487,-53.9477 L 120.365,-54.56 L 120.487,-55.1723 L 120.834,-55.6913
 L 121.353,-56.0382 L 121.965,-56.16 L 122.577,-56.0382 L 123.096,-55.6913 L 123.443,-55.1723 L 123.565,-54.56
 L 123.443,-53.9477 L 123.096,-53.4286 L 122.577,-53.0818 L 121.965,-52.96 z
M 132,-47.345 L 132,-50.345 L 146,-50.345 L 146,-47.345 z
M 104,-47.345 L 104,-50.345 L 118,-50.345 L 118,-47.345 z
M 113.438,-43.1118 L 112.919,-43.4586 L 112.572,-43.9777 L 112.45,-44.59 L 112.572,-45.2023 L 112.919,-45.7214
 L 113.438,-46.0682 L 114.05,-46.19 L 114.662,-46.0682 L 115.181,-45.7214 L 115.528,-45.2023 L 115.65,-44.59
 L 115.528,-43.9777 L 115.181,-43.4586 L 114.662,-43.1118 L 114.05,-42.99 z
M 127.423,-43.1118 L 126.904,-43.4586 L 126.557,-43.9777 L 126.435,-44.59 L 126.557,-45.2023 L 126.904,-45.7214
 L 127.423,-46.0682 L 128.035,-46.19 L 128.647,-46.0682 L 129.166,-45.7214 L 129.513,-45.2023 L 129.635,-44.59
 L 129.513,-43.9777 L 129.166,-43.4586 L 128.647,-43.1118 L 128.035,-42.99 z
M 99.4527,-43.1118 L 98.9337,-43.4586 L 98.5868,-43.9777 L 98.465,-44.59 L 98.5868,-45.2023 L 98.9337,-45.7214
 L 99.4527,-46.0682 L 100.065,-46.19 L 100.677,-46.0682 L 101.196,-45.7214 L 101.543,-45.2023 L 101.665,-44.59
 L 101.543,-43.9777 L 101.196,-43.4586 L 100.677,-43.1118 L 100.065,-42.99 z
M 127.423,-33.7018 L 126.904,-34.0486 L 126.557,-34.5677 L 126.435,-35.18 L 126.557,-35.7923 L 126.904,-36.3114
 L 127.423,-36.6582 L 128.035,-36.78 L 128.647,-36.6582 L 129.166,-36.3114 L 129.513,-35.7923 L 129.635,-35.18
 L 129.513,-34.5677 L 129.166,-34.0486 L 128.647,-33.7018 L 128.035,-33.58 z
M 99.4527,-33.7018 L 98.9337,-34.0486 L 98.5868,-34.5677 L 98.465,-35.18 L 98.5868,-35.7923 L 98.9337,-36.3114
 L 99.4527,-36.6582 L 100.065,-36.78 L 100.677,-36.6582 L 101.196,-36.3114 L 101.543,-35.7923 L 101.665,-35.18
 L 101.543,-34.5677 L 101.196,-34.0486 L 100.677,-33.7018 L 100.065,-33.58 z
M 113.438,-33.7018 L 112.919,-34.0486 L 112.572,-34.5677 L 112.45,-35.18 L 112.572,-35.7923 L 112.919,-36.3114
 L 113.438,-36.6582 L 114.05,-36.78 L 114.662,-36.6582 L 115.181,-36.3114 L 115.528,-35.7923 L 115.65,-35.18
 L 115.528,-34.5677 L 115.181,-34.0486 L 114.662,-33.7018 L 114.05,-33.58 z
M 132,-29.655 L 132,-32.655 L 146,-32.655 L 146,-29.655 z
M 104,-29.655 L 104,-32.655 L 118,-32.655 L 118,-29.655 z
M 149.323,-23.7318 L 148.804,-24.0786 L 148.457,-24.5977 L 148.335,-25.21 L 148.457,-25.8223 L 148.804,-26.3414
 L 149.323,-26.6882 L 149.935,-26.81 L 150.547,-26.6882 L 151.066,-26.3414 L 151.413,-25.8223 L 151.535,-25.21
 L 151.413,-24.5977 L 151.066,-24.0786 L 150.547,-23.7318 L 149.935,-23.61 z
M 121.353,-23.7318 L 120.834,-24.0786 L 120.487,-24.5977 L 120.365,-25.21 L 120.487,-25.8223 L 120.834,-26.3414
 L 121.353,-26.6882 L 121.965,-26.81 L 122.577,-26.6882 L 123.096,-26.3414 L 123.443,-25.8223 L 123.565,-25.21
 L 123.443,-24.5977 L 123.096,-24.0786 L 122.577,-23.7318 L 121.965,-23.61 z
M 135.338,-23.7318 L 134.819,-24.0786 L 134.472,-24.5977 L 134.35,-25.21 L 134.472,-25.8223 L 134.819,-26.3414
 L 135.338,-26.6882 L 135.95,-26.81 L 136.562,-26.6882 L 137.081,-26.3414 L 137.428,-25.8223 L 137.55,-25.21
 L 137.428,-24.5977 L 137.081,-24.0786 L 136.562,-23.7318 L 135.95,-23.61 z
" stroke="black" fill="none" stroke-width="0.5"/></svg>
