G04 ( created by brdgerber.py ( brdgerber.py v0.1 2014-03-12 ) ) date 2021-04-12 03:08:51 EDT*
G04 Gerber Fmt 3.4, Leading zero omitted, Abs format*
%MOIN*%
%FSLAX34Y34*%
G01*
G70*
G90*
G04 APERTURE LIST*
%ADD10C,0.0400*%
%ADD14C,0.0080*%
%ADD13C,0.0050*%
%ADD28C,0.0000*%
%ADD31C,0.0047*%
%ADD21R,0.0629X0.0709*%
%ADD15C,0.0060*%
%ADD24C,0.0160*%
%ADD27R,0.0709X0.0629*%
%ADD29C,0.0059*%
%ADD26C,0.0012*%
%ADD25R,0.0472X0.0275*%
%ADD23C,0.0020*%
%ADD18C,0.0550*%
%ADD32R,0.0177X0.0787*%
%ADD22R,0.0260X0.0800*%
%ADD30R,0.0945X0.1575*%
%ADD39R,0.0600X0.0800*%
%ADD17R,0.0550X0.0550*%
%ADD35R,0.0800X0.0600*%
%ADD34C,0.1500*%
%ADD20C,0.0472*%
%ADD12R,0.0866X0.0236*%
%ADD33R,0.0787X0.0177*%
%ADD16C,0.0100*%
%ADD19C,0.0120*%
%ADD11C,0.0200*%
%ADD37R,0.0760X0.2100*%
%ADD36C,0.0471*%
%ADD38C,0.1200*%
G04 APERTURE END LIST*
G54D10*
D13*
G01X02408Y19734D02*
G01X02408Y17806D01*
D13*
G01X02408Y17806D02*
G01X00952Y17806D01*
D13*
G01X00952Y17806D02*
G01X00952Y19734D01*
D13*
G01X00952Y19734D02*
G01X02408Y19734D01*
D13*
G01X01418Y19458D02*
G01X01418Y19458D01*
G01X01418Y19461D01*
G01X01418Y19463D01*
G01X01418Y19466D01*
G01X01417Y19469D01*
G01X01417Y19472D01*
G01X01417Y19474D01*
G01X01416Y19477D01*
G01X01416Y19480D01*
G01X01415Y19482D01*
G01X01415Y19485D01*
G01X01414Y19488D01*
G01X01413Y19490D01*
G01X01412Y19493D01*
G01X01412Y19495D01*
G01X01411Y19498D01*
G01X01410Y19500D01*
G01X01408Y19503D01*
G01X01407Y19505D01*
G01X01406Y19508D01*
G01X01405Y19510D01*
G01X01404Y19513D01*
G01X01402Y19515D01*
G01X01401Y19517D01*
G01X01399Y19520D01*
G01X01398Y19522D01*
G01X01396Y19524D01*
G01X01395Y19526D01*
G01X01393Y19528D01*
G01X01391Y19531D01*
G01X01389Y19533D01*
G01X01387Y19535D01*
G01X01385Y19536D01*
G01X01384Y19538D01*
G01X01382Y19540D01*
G01X01380Y19542D01*
G01X01377Y19544D01*
G01X01375Y19546D01*
G01X01373Y19547D01*
G01X01371Y19549D01*
G01X01369Y19550D01*
G01X01366Y19552D01*
G01X01364Y19553D01*
G01X01362Y19555D01*
G01X01359Y19556D01*
G01X01357Y19557D01*
G01X01354Y19558D01*
G01X01352Y19559D01*
G01X01349Y19561D01*
G01X01347Y19562D01*
G01X01344Y19563D01*
G01X01342Y19563D01*
G01X01339Y19564D01*
G01X01337Y19565D01*
G01X01334Y19566D01*
G01X01331Y19566D01*
G01X01329Y19567D01*
G01X01326Y19567D01*
G01X01323Y19568D01*
G01X01321Y19568D01*
G01X01318Y19568D01*
G01X01315Y19569D01*
G01X01312Y19569D01*
G01X01310Y19569D01*
G01X01307Y19569D01*
G01X01304Y19569D01*
G01X01302Y19569D01*
G01X01299Y19569D01*
G01X01296Y19568D01*
G01X01293Y19568D01*
G01X01291Y19568D01*
G01X01288Y19567D01*
G01X01285Y19567D01*
G01X01283Y19566D01*
G01X01280Y19566D01*
G01X01277Y19565D01*
G01X01275Y19564D01*
G01X01272Y19563D01*
G01X01270Y19563D01*
G01X01267Y19562D01*
G01X01265Y19561D01*
G01X01262Y19559D01*
G01X01260Y19558D01*
G01X01257Y19557D01*
G01X01255Y19556D01*
G01X01252Y19555D01*
G01X01250Y19553D01*
G01X01248Y19552D01*
G01X01245Y19550D01*
G01X01243Y19549D01*
G01X01241Y19547D01*
G01X01239Y19546D01*
G01X01237Y19544D01*
G01X01234Y19542D01*
G01X01232Y19540D01*
G01X01230Y19538D01*
G01X01229Y19536D01*
G01X01227Y19535D01*
G01X01225Y19533D01*
G01X01223Y19531D01*
G01X01221Y19528D01*
G01X01219Y19526D01*
G01X01218Y19524D01*
G01X01216Y19522D01*
G01X01215Y19520D01*
G01X01213Y19517D01*
G01X01212Y19515D01*
G01X01210Y19513D01*
G01X01209Y19510D01*
G01X01208Y19508D01*
G01X01207Y19505D01*
G01X01206Y19503D01*
G01X01204Y19500D01*
G01X01203Y19498D01*
G01X01202Y19495D01*
G01X01202Y19493D01*
G01X01201Y19490D01*
G01X01200Y19488D01*
G01X01199Y19485D01*
G01X01199Y19482D01*
G01X01198Y19480D01*
G01X01198Y19477D01*
G01X01197Y19474D01*
G01X01197Y19472D01*
G01X01197Y19469D01*
G01X01196Y19466D01*
G01X01196Y19463D01*
G01X01196Y19461D01*
G01X01196Y19458D01*
G01X01196Y19455D01*
G01X01196Y19453D01*
G01X01196Y19450D01*
G01X01197Y19447D01*
G01X01197Y19444D01*
G01X01197Y19442D01*
G01X01198Y19439D01*
G01X01198Y19436D01*
G01X01199Y19434D01*
G01X01199Y19431D01*
G01X01200Y19428D01*
G01X01201Y19426D01*
G01X01202Y19423D01*
G01X01202Y19421D01*
G01X01203Y19418D01*
G01X01204Y19416D01*
G01X01206Y19413D01*
G01X01207Y19411D01*
G01X01208Y19408D01*
G01X01209Y19406D01*
G01X01210Y19403D01*
G01X01212Y19401D01*
G01X01213Y19399D01*
G01X01215Y19396D01*
G01X01216Y19394D01*
G01X01218Y19392D01*
G01X01219Y19390D01*
G01X01221Y19388D01*
G01X01223Y19385D01*
G01X01225Y19383D01*
G01X01227Y19381D01*
G01X01229Y19380D01*
G01X01230Y19378D01*
G01X01232Y19376D01*
G01X01234Y19374D01*
G01X01237Y19372D01*
G01X01239Y19370D01*
G01X01241Y19369D01*
G01X01243Y19367D01*
G01X01245Y19366D01*
G01X01248Y19364D01*
G01X01250Y19363D01*
G01X01252Y19361D01*
G01X01255Y19360D01*
G01X01257Y19359D01*
G01X01260Y19358D01*
G01X01262Y19357D01*
G01X01265Y19355D01*
G01X01267Y19354D01*
G01X01270Y19353D01*
G01X01272Y19353D01*
G01X01275Y19352D01*
G01X01277Y19351D01*
G01X01280Y19350D01*
G01X01283Y19350D01*
G01X01285Y19349D01*
G01X01288Y19349D01*
G01X01291Y19348D01*
G01X01293Y19348D01*
G01X01296Y19348D01*
G01X01299Y19347D01*
G01X01302Y19347D01*
G01X01304Y19347D01*
G01X01307Y19347D01*
G01X01310Y19347D01*
G01X01312Y19347D01*
G01X01315Y19347D01*
G01X01318Y19348D01*
G01X01321Y19348D01*
G01X01323Y19348D01*
G01X01326Y19349D01*
G01X01329Y19349D01*
G01X01331Y19350D01*
G01X01334Y19350D01*
G01X01337Y19351D01*
G01X01339Y19352D01*
G01X01342Y19353D01*
G01X01344Y19353D01*
G01X01347Y19354D01*
G01X01349Y19355D01*
G01X01352Y19357D01*
G01X01354Y19358D01*
G01X01357Y19359D01*
G01X01359Y19360D01*
G01X01362Y19361D01*
G01X01364Y19363D01*
G01X01366Y19364D01*
G01X01369Y19366D01*
G01X01371Y19367D01*
G01X01373Y19369D01*
G01X01375Y19370D01*
G01X01377Y19372D01*
G01X01380Y19374D01*
G01X01382Y19376D01*
G01X01384Y19378D01*
G01X01385Y19380D01*
G01X01387Y19381D01*
G01X01389Y19383D01*
G01X01391Y19385D01*
G01X01393Y19388D01*
G01X01395Y19390D01*
G01X01396Y19392D01*
G01X01398Y19394D01*
G01X01399Y19396D01*
G01X01401Y19399D01*
G01X01402Y19401D01*
G01X01404Y19403D01*
G01X01405Y19406D01*
G01X01406Y19408D01*
G01X01407Y19411D01*
G01X01408Y19413D01*
G01X01410Y19416D01*
G01X01411Y19418D01*
G01X01412Y19421D01*
G01X01412Y19423D01*
G01X01413Y19426D01*
G01X01414Y19428D01*
G01X01415Y19431D01*
G01X01415Y19434D01*
G01X01416Y19436D01*
G01X01416Y19439D01*
G01X01417Y19442D01*
G01X01417Y19444D01*
G01X01417Y19447D01*
G01X01418Y19450D01*
G01X01418Y19453D01*
G01X01418Y19455D01*
G01X01418Y19458D01*
D19*
G01X22800Y24000D02*
G01X22800Y25000D01*
D19*
G01X22800Y25000D02*
G01X24800Y25000D01*
D19*
G01X24800Y25000D02*
G01X24800Y24000D01*
D19*
G01X24800Y24000D02*
G01X22800Y24000D01*
D19*
G01X22325Y25327D02*
G01X22325Y25612D01*
D19*
G01X22325Y25571D02*
G01X22357Y25592D01*
G01X22422Y25612D01*
G01X22519Y25612D01*
G01X22584Y25592D01*
G01X22616Y25551D01*
G01X22616Y25327D01*
D19*
G01X22616Y25551D02*
G01X22649Y25592D01*
G01X22714Y25612D01*
G01X22811Y25612D01*
G01X22876Y25592D01*
G01X22908Y25551D01*
G01X22908Y25327D01*
D19*
G01X23524Y25612D02*
G01X23524Y25327D01*
D19*
G01X23233Y25612D02*
G01X23233Y25388D01*
G01X23265Y25347D01*
G01X23330Y25327D01*
G01X23427Y25327D01*
G01X23492Y25347D01*
G01X23524Y25368D01*
D19*
G01X23849Y25612D02*
G01X23849Y25184D01*
D19*
G01X23849Y25592D02*
G01X23914Y25612D01*
G01X24043Y25612D01*
G01X24108Y25592D01*
G01X24141Y25571D01*
G01X24173Y25531D01*
G01X24173Y25408D01*
G01X24141Y25368D01*
G01X24108Y25347D01*
G01X24043Y25327D01*
G01X23914Y25327D01*
G01X23849Y25347D01*
D19*
G01X24400Y25612D02*
G01X24530Y25327D01*
G01X24659Y25531D01*
G01X24789Y25327D01*
G01X24919Y25612D01*
D19*
G01X25178Y25327D02*
G01X25178Y25612D01*
D19*
G01X25178Y25531D02*
G01X25211Y25571D01*
G01X25243Y25592D01*
G01X25308Y25612D01*
G01X25373Y25612D01*
D19*
G01X14650Y13850D02*
G01X14650Y13850D01*
D19*
G01X14650Y12850D02*
G01X14650Y13850D01*
D19*
G01X14650Y13850D02*
G01X14650Y13850D01*
D19*
G01X14650Y13850D02*
G01X18650Y13850D01*
D19*
G01X18650Y13850D02*
G01X18650Y12850D01*
D19*
G01X18650Y12850D02*
G01X14650Y12850D01*
D19*
G01X15650Y12850D02*
G01X15650Y13850D01*
D19*
G01X14812Y14177D02*
G01X14812Y14462D01*
D19*
G01X14812Y14421D02*
G01X14845Y14442D01*
G01X14910Y14462D01*
G01X15008Y14462D01*
G01X15073Y14442D01*
G01X15105Y14401D01*
G01X15105Y14177D01*
D19*
G01X15105Y14401D02*
G01X15138Y14442D01*
G01X15203Y14462D01*
G01X15300Y14462D01*
G01X15365Y14442D01*
G01X15398Y14401D01*
G01X15398Y14177D01*
D19*
G01X15821Y14177D02*
G01X15756Y14197D01*
G01X15723Y14218D01*
G01X15691Y14258D01*
G01X15691Y14381D01*
G01X15723Y14421D01*
G01X15756Y14442D01*
G01X15821Y14462D01*
G01X15918Y14462D01*
G01X15983Y14442D01*
G01X16016Y14421D01*
G01X16048Y14381D01*
G01X16048Y14258D01*
G01X16016Y14218D01*
G01X15983Y14197D01*
G01X15918Y14177D01*
G01X15821Y14177D01*
D19*
G01X16243Y14462D02*
G01X16504Y14462D01*
D19*
G01X16341Y14605D02*
G01X16341Y14238D01*
G01X16374Y14197D01*
G01X16439Y14177D01*
G01X16504Y14177D01*
D19*
G01X16829Y14177D02*
G01X16764Y14197D01*
G01X16731Y14218D01*
G01X16699Y14258D01*
G01X16699Y14381D01*
G01X16731Y14421D01*
G01X16764Y14442D01*
G01X16829Y14462D01*
G01X16926Y14462D01*
G01X16991Y14442D01*
G01X17024Y14421D01*
G01X17057Y14381D01*
G01X17057Y14258D01*
G01X17024Y14218D01*
G01X16991Y14197D01*
G01X16926Y14177D01*
G01X16829Y14177D01*
D19*
G01X17187Y14136D02*
G01X17707Y14136D01*
D19*
G01X17870Y14177D02*
G01X17870Y14462D01*
D19*
G01X17870Y14605D02*
G01X17837Y14584D01*
G01X17870Y14564D01*
G01X17902Y14584D01*
G01X17870Y14605D01*
G01X17870Y14564D01*
D19*
G01X18195Y14462D02*
G01X18195Y14177D01*
D19*
G01X18195Y14421D02*
G01X18227Y14442D01*
G01X18292Y14462D01*
G01X18390Y14462D01*
G01X18455Y14442D01*
G01X18488Y14401D01*
G01X18488Y14177D01*
D19*
G01X24650Y16050D02*
G01X25650Y16050D01*
D19*
G01X25650Y16050D02*
G01X25650Y13050D01*
D19*
G01X25650Y13050D02*
G01X24650Y13050D01*
D19*
G01X24650Y13050D02*
G01X24650Y16050D01*
D19*
G01X25650Y15050D02*
G01X24650Y15050D01*
D19*
G01X26322Y13912D02*
G01X26039Y13912D01*
D19*
G01X25898Y13912D02*
G01X25918Y13879D01*
G01X25938Y13912D01*
G01X25918Y13946D01*
G01X25898Y13912D01*
G01X25938Y13912D01*
D19*
G01X25938Y14214D02*
G01X25918Y14248D01*
G01X25898Y14315D01*
G01X25898Y14483D01*
G01X25918Y14550D01*
G01X25938Y14584D01*
G01X25978Y14617D01*
G01X26019Y14617D01*
G01X26079Y14584D01*
G01X26322Y14181D01*
G01X26322Y14617D01*
D19*
G01X26301Y15221D02*
G01X26322Y15154D01*
G01X26322Y15020D01*
G01X26301Y14953D01*
G01X26281Y14919D01*
G01X26241Y14886D01*
G01X26120Y14886D01*
G01X26079Y14919D01*
G01X26059Y14953D01*
G01X26039Y15020D01*
G01X26039Y15154D01*
G01X26059Y15221D01*
D19*
G01X14900Y24100D02*
G01X14900Y25100D01*
D19*
G01X14900Y25100D02*
G01X17900Y25100D01*
D19*
G01X17900Y25100D02*
G01X17900Y24100D01*
D19*
G01X17900Y24100D02*
G01X14900Y24100D01*
D19*
G01X15900Y25100D02*
G01X15900Y24100D01*
D19*
G01X14369Y25428D02*
G01X14369Y25711D01*
D19*
G01X14369Y25671D02*
G01X14403Y25691D01*
G01X14470Y25711D01*
G01X14570Y25711D01*
G01X14638Y25691D01*
G01X14671Y25650D01*
G01X14671Y25428D01*
D19*
G01X14671Y25650D02*
G01X14705Y25691D01*
G01X14772Y25711D01*
G01X14872Y25711D01*
G01X14940Y25691D01*
G01X14973Y25650D01*
G01X14973Y25428D01*
D19*
G01X15410Y25428D02*
G01X15342Y25449D01*
G01X15309Y25469D01*
G01X15275Y25509D01*
G01X15275Y25630D01*
G01X15309Y25671D01*
G01X15342Y25691D01*
G01X15410Y25711D01*
G01X15510Y25711D01*
G01X15577Y25691D01*
G01X15611Y25671D01*
G01X15645Y25630D01*
G01X15645Y25509D01*
G01X15611Y25469D01*
G01X15577Y25449D01*
G01X15510Y25428D01*
G01X15410Y25428D01*
D19*
G01X15846Y25711D02*
G01X16115Y25711D01*
D19*
G01X15947Y25852D02*
G01X15947Y25489D01*
G01X15980Y25449D01*
G01X16048Y25428D01*
G01X16115Y25428D01*
D19*
G01X16450Y25428D02*
G01X16383Y25449D01*
G01X16350Y25469D01*
G01X16316Y25509D01*
G01X16316Y25630D01*
G01X16350Y25671D01*
G01X16383Y25691D01*
G01X16450Y25711D01*
G01X16551Y25711D01*
G01X16618Y25691D01*
G01X16652Y25671D01*
G01X16685Y25630D01*
G01X16685Y25509D01*
G01X16652Y25469D01*
G01X16618Y25449D01*
G01X16551Y25428D01*
G01X16450Y25428D01*
D19*
G01X16820Y25388D02*
G01X17357Y25388D01*
D19*
G01X17793Y25449D02*
G01X17726Y25428D01*
G01X17592Y25428D01*
G01X17525Y25449D01*
G01X17491Y25489D01*
G01X17491Y25650D01*
G01X17525Y25691D01*
G01X17592Y25711D01*
G01X17726Y25711D01*
G01X17793Y25691D01*
G01X17827Y25650D01*
G01X17827Y25610D01*
G01X17491Y25570D01*
D19*
G01X18129Y25711D02*
G01X18129Y25428D01*
D19*
G01X18129Y25671D02*
G01X18162Y25691D01*
G01X18230Y25711D01*
G01X18330Y25711D01*
G01X18397Y25691D01*
G01X18431Y25650D01*
G01X18431Y25428D01*
D15*
G01X07290Y18730D02*
G01X12110Y18730D01*
D15*
G01X07290Y21670D02*
G01X07286Y21670D01*
G01X07283Y21670D01*
G01X07279Y21670D01*
G01X07275Y21669D01*
G01X07272Y21669D01*
G01X07268Y21668D01*
G01X07264Y21668D01*
G01X07261Y21667D01*
G01X07257Y21666D01*
G01X07254Y21666D01*
G01X07250Y21665D01*
G01X07246Y21664D01*
G01X07243Y21662D01*
G01X07239Y21661D01*
G01X07236Y21660D01*
G01X07233Y21659D01*
G01X07229Y21657D01*
G01X07226Y21656D01*
G01X07223Y21654D01*
G01X07219Y21652D01*
G01X07216Y21651D01*
G01X07213Y21649D01*
G01X07210Y21647D01*
G01X07207Y21645D01*
G01X07204Y21643D01*
G01X07201Y21640D01*
G01X07198Y21638D01*
G01X07195Y21636D01*
G01X07192Y21634D01*
G01X07189Y21631D01*
G01X07187Y21629D01*
G01X07184Y21626D01*
G01X07181Y21623D01*
G01X07179Y21621D01*
G01X07176Y21618D01*
G01X07174Y21615D01*
G01X07172Y21612D01*
G01X07170Y21609D01*
G01X07167Y21606D01*
G01X07165Y21603D01*
G01X07163Y21600D01*
G01X07161Y21597D01*
G01X07159Y21594D01*
G01X07158Y21591D01*
G01X07156Y21587D01*
G01X07154Y21584D01*
G01X07153Y21581D01*
G01X07151Y21577D01*
G01X07150Y21574D01*
G01X07149Y21571D01*
G01X07148Y21567D01*
G01X07146Y21564D01*
G01X07145Y21560D01*
G01X07144Y21556D01*
G01X07144Y21553D01*
G01X07143Y21549D01*
G01X07142Y21546D01*
G01X07142Y21542D01*
G01X07141Y21538D01*
G01X07141Y21535D01*
G01X07140Y21531D01*
G01X07140Y21527D01*
G01X07140Y21524D01*
G01X07140Y21520D01*
D15*
G01X12260Y18880D02*
G01X12260Y18876D01*
G01X12260Y18873D01*
G01X12260Y18869D01*
G01X12259Y18865D01*
G01X12259Y18862D01*
G01X12258Y18858D01*
G01X12258Y18854D01*
G01X12257Y18851D01*
G01X12256Y18847D01*
G01X12256Y18844D01*
G01X12255Y18840D01*
G01X12254Y18836D01*
G01X12252Y18833D01*
G01X12251Y18829D01*
G01X12250Y18826D01*
G01X12249Y18823D01*
G01X12247Y18819D01*
G01X12246Y18816D01*
G01X12244Y18813D01*
G01X12242Y18809D01*
G01X12241Y18806D01*
G01X12239Y18803D01*
G01X12237Y18800D01*
G01X12235Y18797D01*
G01X12233Y18794D01*
G01X12230Y18791D01*
G01X12228Y18788D01*
G01X12226Y18785D01*
G01X12224Y18782D01*
G01X12221Y18779D01*
G01X12219Y18777D01*
G01X12216Y18774D01*
G01X12213Y18771D01*
G01X12211Y18769D01*
G01X12208Y18766D01*
G01X12205Y18764D01*
G01X12202Y18762D01*
G01X12199Y18760D01*
G01X12196Y18757D01*
G01X12193Y18755D01*
G01X12190Y18753D01*
G01X12187Y18751D01*
G01X12184Y18749D01*
G01X12181Y18748D01*
G01X12177Y18746D01*
G01X12174Y18744D01*
G01X12171Y18743D01*
G01X12167Y18741D01*
G01X12164Y18740D01*
G01X12161Y18739D01*
G01X12157Y18738D01*
G01X12154Y18736D01*
G01X12150Y18735D01*
G01X12146Y18734D01*
G01X12143Y18734D01*
G01X12139Y18733D01*
G01X12136Y18732D01*
G01X12132Y18732D01*
G01X12128Y18731D01*
G01X12125Y18731D01*
G01X12121Y18730D01*
G01X12117Y18730D01*
G01X12114Y18730D01*
G01X12110Y18730D01*
D15*
G01X07290Y18730D02*
G01X07286Y18730D01*
G01X07283Y18730D01*
G01X07279Y18730D01*
G01X07275Y18731D01*
G01X07272Y18731D01*
G01X07268Y18732D01*
G01X07264Y18732D01*
G01X07261Y18733D01*
G01X07257Y18734D01*
G01X07254Y18734D01*
G01X07250Y18735D01*
G01X07246Y18736D01*
G01X07243Y18738D01*
G01X07239Y18739D01*
G01X07236Y18740D01*
G01X07233Y18741D01*
G01X07229Y18743D01*
G01X07226Y18744D01*
G01X07223Y18746D01*
G01X07219Y18748D01*
G01X07216Y18749D01*
G01X07213Y18751D01*
G01X07210Y18753D01*
G01X07207Y18755D01*
G01X07204Y18757D01*
G01X07201Y18760D01*
G01X07198Y18762D01*
G01X07195Y18764D01*
G01X07192Y18766D01*
G01X07189Y18769D01*
G01X07187Y18771D01*
G01X07184Y18774D01*
G01X07181Y18777D01*
G01X07179Y18779D01*
G01X07176Y18782D01*
G01X07174Y18785D01*
G01X07172Y18788D01*
G01X07170Y18791D01*
G01X07167Y18794D01*
G01X07165Y18797D01*
G01X07163Y18800D01*
G01X07161Y18803D01*
G01X07159Y18806D01*
G01X07158Y18809D01*
G01X07156Y18813D01*
G01X07154Y18816D01*
G01X07153Y18819D01*
G01X07151Y18823D01*
G01X07150Y18826D01*
G01X07149Y18829D01*
G01X07148Y18833D01*
G01X07146Y18836D01*
G01X07145Y18840D01*
G01X07144Y18844D01*
G01X07144Y18847D01*
G01X07143Y18851D01*
G01X07142Y18854D01*
G01X07142Y18858D01*
G01X07141Y18862D01*
G01X07141Y18865D01*
G01X07140Y18869D01*
G01X07140Y18873D01*
G01X07140Y18876D01*
G01X07140Y18880D01*
D15*
G01X12260Y21520D02*
G01X12260Y21524D01*
G01X12260Y21527D01*
G01X12260Y21531D01*
G01X12259Y21535D01*
G01X12259Y21538D01*
G01X12258Y21542D01*
G01X12258Y21546D01*
G01X12257Y21549D01*
G01X12256Y21553D01*
G01X12256Y21556D01*
G01X12255Y21560D01*
G01X12254Y21564D01*
G01X12252Y21567D01*
G01X12251Y21571D01*
G01X12250Y21574D01*
G01X12249Y21577D01*
G01X12247Y21581D01*
G01X12246Y21584D01*
G01X12244Y21587D01*
G01X12242Y21591D01*
G01X12241Y21594D01*
G01X12239Y21597D01*
G01X12237Y21600D01*
G01X12235Y21603D01*
G01X12233Y21606D01*
G01X12230Y21609D01*
G01X12228Y21612D01*
G01X12226Y21615D01*
G01X12224Y21618D01*
G01X12221Y21621D01*
G01X12219Y21623D01*
G01X12216Y21626D01*
G01X12213Y21629D01*
G01X12211Y21631D01*
G01X12208Y21634D01*
G01X12205Y21636D01*
G01X12202Y21638D01*
G01X12199Y21640D01*
G01X12196Y21643D01*
G01X12193Y21645D01*
G01X12190Y21647D01*
G01X12187Y21649D01*
G01X12184Y21651D01*
G01X12181Y21652D01*
G01X12177Y21654D01*
G01X12174Y21656D01*
G01X12171Y21657D01*
G01X12167Y21659D01*
G01X12164Y21660D01*
G01X12161Y21661D01*
G01X12157Y21662D01*
G01X12154Y21664D01*
G01X12150Y21665D01*
G01X12146Y21666D01*
G01X12143Y21666D01*
G01X12139Y21667D01*
G01X12136Y21668D01*
G01X12132Y21668D01*
G01X12128Y21669D01*
G01X12125Y21669D01*
G01X12121Y21670D01*
G01X12117Y21670D01*
G01X12114Y21670D01*
G01X12110Y21670D01*
D15*
G01X12110Y21670D02*
G01X07290Y21670D01*
D15*
G01X07140Y21520D02*
G01X07140Y18880D01*
D15*
G01X12260Y18880D02*
G01X12260Y19700D01*
D15*
G01X12260Y19700D02*
G01X12260Y20700D01*
D15*
G01X12260Y20700D02*
G01X12260Y21520D01*
D23*
G01X12250Y21530D02*
G01X07150Y21530D01*
D15*
G01X12260Y19700D02*
G01X12235Y19701D01*
G01X12211Y19702D01*
G01X12187Y19705D01*
G01X12162Y19710D01*
G01X12139Y19715D01*
G01X12115Y19722D01*
G01X12092Y19729D01*
G01X12069Y19738D01*
G01X12046Y19748D01*
G01X12024Y19759D01*
G01X12003Y19771D01*
G01X11982Y19784D01*
G01X11962Y19798D01*
G01X11943Y19813D01*
G01X11924Y19830D01*
G01X11906Y19846D01*
G01X11890Y19864D01*
G01X11873Y19883D01*
G01X11858Y19902D01*
G01X11844Y19922D01*
G01X11831Y19943D01*
G01X11819Y19964D01*
G01X11808Y19986D01*
G01X11798Y20009D01*
G01X11789Y20032D01*
G01X11782Y20055D01*
G01X11775Y20079D01*
G01X11770Y20102D01*
G01X11765Y20127D01*
G01X11762Y20151D01*
G01X11761Y20175D01*
G01X11760Y20200D01*
G01X11761Y20225D01*
G01X11762Y20249D01*
G01X11765Y20273D01*
G01X11770Y20298D01*
G01X11775Y20321D01*
G01X11782Y20345D01*
G01X11789Y20368D01*
G01X11798Y20391D01*
G01X11808Y20414D01*
G01X11819Y20436D01*
G01X11831Y20457D01*
G01X11844Y20478D01*
G01X11858Y20498D01*
G01X11873Y20517D01*
G01X11890Y20536D01*
G01X11906Y20554D01*
G01X11924Y20570D01*
G01X11943Y20587D01*
G01X11962Y20602D01*
G01X11982Y20616D01*
G01X12003Y20629D01*
G01X12024Y20641D01*
G01X12046Y20652D01*
G01X12069Y20662D01*
G01X12092Y20671D01*
G01X12115Y20678D01*
G01X12139Y20685D01*
G01X12162Y20690D01*
G01X12187Y20695D01*
G01X12211Y20698D01*
G01X12235Y20699D01*
G01X12260Y20700D01*
D13*
G01X12050Y22520D02*
G01X11850Y22520D01*
D13*
G01X11850Y22520D02*
G01X11850Y22470D01*
D13*
G01X11850Y22470D02*
G01X12050Y22470D01*
D13*
G01X12050Y22470D02*
G01X12050Y22520D01*
D13*
G01X11550Y22520D02*
G01X11350Y22520D01*
D13*
G01X11350Y22520D02*
G01X11350Y22470D01*
D13*
G01X11350Y22470D02*
G01X11550Y22470D01*
D13*
G01X11550Y22470D02*
G01X11550Y22520D01*
D13*
G01X11050Y22520D02*
G01X10850Y22520D01*
D13*
G01X10850Y22520D02*
G01X10850Y22470D01*
D13*
G01X10850Y22470D02*
G01X11050Y22470D01*
D13*
G01X11050Y22470D02*
G01X11050Y22520D01*
D13*
G01X10550Y22520D02*
G01X10350Y22520D01*
D13*
G01X10350Y22520D02*
G01X10350Y22470D01*
D13*
G01X10350Y22470D02*
G01X10550Y22470D01*
D13*
G01X10550Y22470D02*
G01X10550Y22520D01*
D13*
G01X10050Y22520D02*
G01X09850Y22520D01*
D13*
G01X09850Y22520D02*
G01X09850Y22470D01*
D13*
G01X09850Y22470D02*
G01X10050Y22470D01*
D13*
G01X10050Y22470D02*
G01X10050Y22520D01*
D13*
G01X09550Y22520D02*
G01X09350Y22520D01*
D13*
G01X09350Y22520D02*
G01X09350Y22470D01*
D13*
G01X09350Y22470D02*
G01X09550Y22470D01*
D13*
G01X09550Y22470D02*
G01X09550Y22520D01*
D13*
G01X09050Y22520D02*
G01X08850Y22520D01*
D13*
G01X08850Y22520D02*
G01X08850Y22470D01*
D13*
G01X08850Y22470D02*
G01X09050Y22470D01*
D13*
G01X09050Y22470D02*
G01X09050Y22520D01*
D13*
G01X08550Y22520D02*
G01X08350Y22520D01*
D13*
G01X08350Y22520D02*
G01X08350Y22470D01*
D13*
G01X08350Y22470D02*
G01X08550Y22470D01*
D13*
G01X08550Y22470D02*
G01X08550Y22520D01*
D13*
G01X12050Y17930D02*
G01X11850Y17930D01*
D13*
G01X11850Y17930D02*
G01X11850Y17880D01*
D13*
G01X11850Y17880D02*
G01X12050Y17880D01*
D13*
G01X12050Y17880D02*
G01X12050Y17930D01*
D13*
G01X11550Y17930D02*
G01X11350Y17930D01*
D13*
G01X11350Y17930D02*
G01X11350Y17880D01*
D13*
G01X11350Y17880D02*
G01X11550Y17880D01*
D13*
G01X11550Y17880D02*
G01X11550Y17930D01*
D13*
G01X11050Y17930D02*
G01X10850Y17930D01*
D13*
G01X10850Y17930D02*
G01X10850Y17880D01*
D13*
G01X10850Y17880D02*
G01X11050Y17880D01*
D13*
G01X11050Y17880D02*
G01X11050Y17930D01*
D13*
G01X10550Y17930D02*
G01X10350Y17930D01*
D13*
G01X10350Y17930D02*
G01X10350Y17880D01*
D13*
G01X10350Y17880D02*
G01X10550Y17880D01*
D13*
G01X10550Y17880D02*
G01X10550Y17930D01*
D13*
G01X10050Y17930D02*
G01X09850Y17930D01*
D13*
G01X09850Y17930D02*
G01X09850Y17880D01*
D13*
G01X09850Y17880D02*
G01X10050Y17880D01*
D13*
G01X10050Y17880D02*
G01X10050Y17930D01*
D13*
G01X09550Y17930D02*
G01X09350Y17930D01*
D13*
G01X09350Y17930D02*
G01X09350Y17880D01*
D13*
G01X09350Y17880D02*
G01X09550Y17880D01*
D13*
G01X09550Y17880D02*
G01X09550Y17930D01*
D13*
G01X09050Y17930D02*
G01X08850Y17930D01*
D13*
G01X08850Y17930D02*
G01X08850Y17880D01*
D13*
G01X08850Y17880D02*
G01X09050Y17880D01*
D13*
G01X09050Y17880D02*
G01X09050Y17930D01*
D13*
G01X08550Y17930D02*
G01X08350Y17930D01*
D13*
G01X08350Y17930D02*
G01X08350Y17880D01*
D13*
G01X08350Y17880D02*
G01X08550Y17880D01*
D13*
G01X08550Y17880D02*
G01X08550Y17930D01*
D13*
G01X08050Y17930D02*
G01X07850Y17930D01*
D13*
G01X07850Y17930D02*
G01X07850Y17880D01*
D13*
G01X07850Y17880D02*
G01X08050Y17880D01*
D13*
G01X08050Y17880D02*
G01X08050Y17930D01*
D13*
G01X07550Y17930D02*
G01X07350Y17930D01*
D13*
G01X07350Y17930D02*
G01X07350Y17880D01*
D13*
G01X07350Y17880D02*
G01X07550Y17880D01*
D13*
G01X07550Y17880D02*
G01X07550Y17930D01*
D13*
G01X08050Y22520D02*
G01X07850Y22520D01*
D13*
G01X07850Y22520D02*
G01X07850Y22470D01*
D13*
G01X07850Y22470D02*
G01X08050Y22470D01*
D13*
G01X08050Y22470D02*
G01X08050Y22520D01*
D13*
G01X07550Y22520D02*
G01X07350Y22520D01*
D13*
G01X07350Y22520D02*
G01X07350Y22470D01*
D13*
G01X07350Y22470D02*
G01X07550Y22470D01*
D13*
G01X07550Y22470D02*
G01X07550Y22520D01*
D13*
G01X12750Y12850D02*
G01X11350Y12850D01*
D13*
G01X11350Y12850D02*
G01X11350Y13450D01*
D13*
G01X11350Y13450D02*
G01X12750Y13450D01*
D13*
G01X12750Y13450D02*
G01X12750Y12850D01*
D19*
G01X03700Y22700D02*
G01X03700Y23700D01*
D19*
G01X03700Y23700D02*
G01X05700Y23700D01*
D19*
G01X05700Y23700D02*
G01X05700Y22700D01*
D19*
G01X05700Y22700D02*
G01X03700Y22700D01*
D19*
G01X03030Y24027D02*
G01X03030Y24312D01*
D19*
G01X03030Y24271D02*
G01X03062Y24292D01*
G01X03127Y24312D01*
G01X03225Y24312D01*
G01X03289Y24292D01*
G01X03322Y24251D01*
G01X03322Y24027D01*
D19*
G01X03322Y24251D02*
G01X03354Y24292D01*
G01X03419Y24312D01*
G01X03516Y24312D01*
G01X03581Y24292D01*
G01X03614Y24251D01*
G01X03614Y24027D01*
D19*
G01X04035Y24027D02*
G01X03970Y24047D01*
G01X03938Y24068D01*
G01X03906Y24108D01*
G01X03906Y24231D01*
G01X03938Y24271D01*
G01X03970Y24292D01*
G01X04035Y24312D01*
G01X04133Y24312D01*
G01X04197Y24292D01*
G01X04230Y24271D01*
G01X04262Y24231D01*
G01X04262Y24108D01*
G01X04230Y24068D01*
G01X04197Y24047D01*
G01X04133Y24027D01*
G01X04035Y24027D01*
D19*
G01X04457Y24312D02*
G01X04716Y24312D01*
D19*
G01X04554Y24455D02*
G01X04554Y24088D01*
G01X04587Y24047D01*
G01X04651Y24027D01*
G01X04716Y24027D01*
D19*
G01X04943Y24312D02*
G01X04943Y23884D01*
D19*
G01X04943Y24292D02*
G01X05008Y24312D01*
G01X05138Y24312D01*
G01X05203Y24292D01*
G01X05235Y24271D01*
G01X05268Y24231D01*
G01X05268Y24108D01*
G01X05235Y24068D01*
G01X05203Y24047D01*
G01X05138Y24027D01*
G01X05008Y24027D01*
G01X04943Y24047D01*
D19*
G01X05494Y24312D02*
G01X05624Y24027D01*
G01X05754Y24231D01*
G01X05884Y24027D01*
G01X06013Y24312D01*
D19*
G01X06273Y24027D02*
G01X06273Y24312D01*
D19*
G01X06273Y24231D02*
G01X06305Y24271D01*
G01X06338Y24292D01*
G01X06402Y24312D01*
G01X06467Y24312D01*
D19*
G01X-04400Y20200D02*
G01X-03400Y20200D01*
D19*
G01X-03400Y20200D02*
G01X-03400Y17200D01*
D19*
G01X-03400Y17200D02*
G01X-04400Y17200D01*
D19*
G01X-04400Y17200D02*
G01X-04400Y20200D01*
D19*
G01X-03400Y19200D02*
G01X-04400Y19200D01*
D19*
G01X-02728Y17105D02*
G01X-03152Y17105D01*
G01X-02850Y17340D01*
G01X-03152Y17575D01*
G01X-02728Y17575D01*
D19*
G01X-03152Y18045D02*
G01X-03152Y18180D01*
G01X-03132Y18247D01*
G01X-03092Y18314D01*
G01X-03011Y18348D01*
G01X-02870Y18348D01*
G01X-02789Y18314D01*
G01X-02749Y18247D01*
G01X-02728Y18180D01*
G01X-02728Y18045D01*
G01X-02749Y17978D01*
G01X-02789Y17911D01*
G01X-02870Y17877D01*
G01X-03011Y17877D01*
G01X-03092Y17911D01*
G01X-03132Y17978D01*
G01X-03152Y18045D01*
D19*
G01X-03152Y18549D02*
G01X-03152Y18952D01*
D19*
G01X-02728Y18750D02*
G01X-03152Y18750D01*
D19*
G01X-03152Y19321D02*
G01X-03152Y19455D01*
G01X-03132Y19523D01*
G01X-03092Y19590D01*
G01X-03011Y19623D01*
G01X-02870Y19623D01*
G01X-02789Y19590D01*
G01X-02749Y19523D01*
G01X-02728Y19455D01*
G01X-02728Y19321D01*
G01X-02749Y19254D01*
G01X-02789Y19187D01*
G01X-02870Y19153D01*
G01X-03011Y19153D01*
G01X-03092Y19187D01*
G01X-03132Y19254D01*
G01X-03152Y19321D01*
D19*
G01X-02728Y20328D02*
G01X-02930Y20093D01*
D19*
G01X-02728Y19925D02*
G01X-03152Y19925D01*
G01X-03152Y20194D01*
G01X-03132Y20261D01*
G01X-03112Y20295D01*
G01X-03072Y20328D01*
G01X-03011Y20328D01*
G01X-02971Y20295D01*
G01X-02950Y20261D01*
G01X-02930Y20194D01*
G01X-02930Y19925D01*
D13*
G01X10250Y12850D02*
G01X08850Y12850D01*
D13*
G01X08850Y12850D02*
G01X08850Y13450D01*
D13*
G01X08850Y13450D02*
G01X10250Y13450D01*
D13*
G01X10250Y13450D02*
G01X10250Y12850D01*
D29*
G01X05305Y14325D02*
G01X05306Y14325D01*
G01X05307Y14326D01*
G01X05308Y14326D01*
G01X05309Y14327D01*
G01X05310Y14327D01*
G01X05311Y14327D01*
G01X05312Y14328D01*
G01X05313Y14328D01*
G01X05314Y14329D01*
G01X05315Y14329D01*
G01X05316Y14330D01*
G01X05316Y14330D01*
G01X05317Y14330D01*
G01X05318Y14331D01*
G01X05319Y14331D01*
G01X05320Y14332D01*
G01X05321Y14332D01*
G01X05322Y14333D01*
G01X05323Y14333D01*
G01X05324Y14333D01*
G01X05325Y14334D01*
G01X05326Y14334D01*
G01X05327Y14335D01*
G01X05328Y14335D01*
G01X05329Y14336D01*
G01X05330Y14336D01*
G01X05331Y14337D01*
G01X05331Y14337D01*
G01X05332Y14338D01*
G01X05333Y14338D01*
G01X05334Y14338D01*
G01X05335Y14339D01*
G01X05336Y14339D01*
G01X05337Y14340D01*
G01X05338Y14340D01*
G01X05339Y14341D01*
G01X05340Y14341D01*
G01X05341Y14342D01*
G01X05342Y14342D01*
G01X05343Y14343D01*
G01X05343Y14343D01*
G01X05344Y14344D01*
G01X05345Y14344D01*
G01X05346Y14345D01*
G01X05347Y14345D01*
G01X05348Y14346D01*
G01X05349Y14346D01*
G01X05350Y14347D01*
G01X05351Y14347D01*
G01X05352Y14348D01*
G01X05353Y14348D01*
G01X05353Y14349D01*
G01X05354Y14349D01*
G01X05355Y14350D01*
G01X05356Y14351D01*
G01X05357Y14351D01*
G01X05358Y14352D01*
G01X05359Y14352D01*
G01X05360Y14353D01*
G01X05361Y14353D01*
G01X05362Y14354D01*
G01X05362Y14354D01*
G01X05363Y14355D01*
G01X05364Y14355D01*
D29*
G01X05365Y14356D02*
G01X05513Y14235D01*
D29*
G01X05513Y14235D02*
G01X05615Y14337D01*
D29*
G01X05615Y14337D02*
G01X05494Y14485D01*
D29*
G01X05494Y14485D02*
G01X05495Y14487D01*
G01X05496Y14489D01*
G01X05497Y14490D01*
G01X05498Y14492D01*
G01X05499Y14494D01*
G01X05501Y14496D01*
G01X05502Y14498D01*
G01X05503Y14499D01*
G01X05504Y14501D01*
G01X05505Y14503D01*
G01X05506Y14505D01*
G01X05507Y14507D01*
G01X05508Y14509D01*
G01X05509Y14510D01*
G01X05510Y14512D01*
G01X05511Y14514D01*
G01X05512Y14516D01*
G01X05513Y14518D01*
G01X05513Y14520D01*
G01X05514Y14522D01*
G01X05515Y14524D01*
G01X05516Y14526D01*
G01X05517Y14527D01*
G01X05518Y14529D01*
G01X05519Y14531D01*
G01X05520Y14533D01*
G01X05521Y14535D01*
G01X05521Y14537D01*
G01X05522Y14539D01*
G01X05523Y14541D01*
G01X05524Y14543D01*
G01X05525Y14545D01*
G01X05526Y14547D01*
G01X05526Y14549D01*
G01X05527Y14551D01*
G01X05528Y14553D01*
G01X05529Y14554D01*
G01X05529Y14556D01*
G01X05530Y14558D01*
G01X05531Y14560D01*
G01X05532Y14562D01*
G01X05532Y14564D01*
G01X05533Y14566D01*
G01X05534Y14568D01*
G01X05534Y14570D01*
G01X05535Y14572D01*
G01X05536Y14574D01*
G01X05536Y14576D01*
G01X05537Y14578D01*
G01X05538Y14580D01*
G01X05538Y14582D01*
G01X05539Y14584D01*
G01X05539Y14586D01*
G01X05540Y14588D01*
G01X05541Y14590D01*
G01X05541Y14592D01*
G01X05542Y14594D01*
G01X05542Y14596D01*
G01X05543Y14599D01*
G01X05543Y14601D01*
G01X05544Y14603D01*
G01X05544Y14605D01*
G01X05545Y14607D01*
G01X05545Y14609D01*
D29*
G01X05545Y14609D02*
G01X05736Y14629D01*
D29*
G01X05736Y14629D02*
G01X05736Y14771D01*
D29*
G01X05736Y14771D02*
G01X05545Y14791D01*
D29*
G01X05545Y14791D02*
G01X05545Y14793D01*
G01X05544Y14795D01*
G01X05544Y14797D01*
G01X05543Y14799D01*
G01X05543Y14801D01*
G01X05542Y14803D01*
G01X05541Y14805D01*
G01X05541Y14807D01*
G01X05540Y14809D01*
G01X05540Y14811D01*
G01X05539Y14813D01*
G01X05539Y14815D01*
G01X05538Y14817D01*
G01X05537Y14819D01*
G01X05537Y14821D01*
G01X05536Y14823D01*
G01X05535Y14825D01*
G01X05535Y14827D01*
G01X05534Y14829D01*
G01X05533Y14831D01*
G01X05533Y14833D01*
G01X05532Y14835D01*
G01X05531Y14837D01*
G01X05531Y14839D01*
G01X05530Y14841D01*
G01X05529Y14843D01*
G01X05528Y14845D01*
G01X05528Y14847D01*
G01X05527Y14849D01*
G01X05526Y14851D01*
G01X05525Y14853D01*
G01X05525Y14855D01*
G01X05524Y14857D01*
G01X05523Y14859D01*
G01X05522Y14861D01*
G01X05521Y14863D01*
G01X05520Y14865D01*
G01X05520Y14867D01*
G01X05519Y14868D01*
G01X05518Y14870D01*
G01X05517Y14872D01*
G01X05516Y14874D01*
G01X05515Y14876D01*
G01X05514Y14878D01*
G01X05513Y14880D01*
G01X05512Y14882D01*
G01X05511Y14884D01*
G01X05510Y14885D01*
G01X05509Y14887D01*
G01X05509Y14889D01*
G01X05508Y14891D01*
G01X05507Y14893D01*
G01X05506Y14895D01*
G01X05505Y14897D01*
G01X05503Y14898D01*
G01X05502Y14900D01*
G01X05501Y14902D01*
G01X05500Y14904D01*
G01X05499Y14906D01*
G01X05498Y14907D01*
G01X05497Y14909D01*
G01X05496Y14911D01*
G01X05495Y14913D01*
G01X05494Y14915D01*
D29*
G01X05494Y14915D02*
G01X05615Y15063D01*
D29*
G01X05615Y15063D02*
G01X05513Y15165D01*
D29*
G01X05513Y15165D02*
G01X05365Y15044D01*
D29*
G01X05365Y15044D02*
G01X05363Y15045D01*
G01X05361Y15046D01*
G01X05360Y15047D01*
G01X05358Y15048D01*
G01X05356Y15049D01*
G01X05354Y15051D01*
G01X05352Y15052D01*
G01X05351Y15053D01*
G01X05349Y15054D01*
G01X05347Y15055D01*
G01X05345Y15056D01*
G01X05343Y15057D01*
G01X05341Y15058D01*
G01X05340Y15059D01*
G01X05338Y15060D01*
G01X05336Y15061D01*
G01X05334Y15062D01*
G01X05332Y15063D01*
G01X05330Y15063D01*
G01X05328Y15064D01*
G01X05326Y15065D01*
G01X05324Y15066D01*
G01X05323Y15067D01*
G01X05321Y15068D01*
G01X05319Y15069D01*
G01X05317Y15070D01*
G01X05315Y15071D01*
G01X05313Y15071D01*
G01X05311Y15072D01*
G01X05309Y15073D01*
G01X05307Y15074D01*
G01X05305Y15075D01*
G01X05303Y15076D01*
G01X05301Y15076D01*
G01X05299Y15077D01*
G01X05297Y15078D01*
G01X05296Y15079D01*
G01X05294Y15079D01*
G01X05292Y15080D01*
G01X05290Y15081D01*
G01X05288Y15082D01*
G01X05286Y15082D01*
G01X05284Y15083D01*
G01X05282Y15084D01*
G01X05280Y15084D01*
G01X05278Y15085D01*
G01X05276Y15086D01*
G01X05274Y15086D01*
G01X05272Y15087D01*
G01X05270Y15088D01*
G01X05268Y15088D01*
G01X05266Y15089D01*
G01X05264Y15089D01*
G01X05262Y15090D01*
G01X05260Y15091D01*
G01X05258Y15091D01*
G01X05256Y15092D01*
G01X05254Y15092D01*
G01X05251Y15093D01*
G01X05249Y15093D01*
G01X05247Y15094D01*
G01X05245Y15094D01*
G01X05243Y15095D01*
G01X05241Y15095D01*
D29*
G01X05241Y15095D02*
G01X05221Y15286D01*
D29*
G01X05221Y15286D02*
G01X05079Y15286D01*
D29*
G01X05079Y15286D02*
G01X05059Y15095D01*
D29*
G01X05059Y15095D02*
G01X05057Y15095D01*
G01X05055Y15094D01*
G01X05053Y15094D01*
G01X05051Y15093D01*
G01X05049Y15093D01*
G01X05047Y15092D01*
G01X05045Y15091D01*
G01X05043Y15091D01*
G01X05041Y15090D01*
G01X05039Y15090D01*
G01X05037Y15089D01*
G01X05035Y15089D01*
G01X05033Y15088D01*
G01X05031Y15087D01*
G01X05029Y15087D01*
G01X05027Y15086D01*
G01X05025Y15085D01*
G01X05023Y15085D01*
G01X05021Y15084D01*
G01X05019Y15083D01*
G01X05017Y15083D01*
G01X05015Y15082D01*
G01X05013Y15081D01*
G01X05011Y15081D01*
G01X05009Y15080D01*
G01X05007Y15079D01*
G01X05005Y15078D01*
G01X05003Y15078D01*
G01X05001Y15077D01*
G01X04999Y15076D01*
G01X04997Y15075D01*
G01X04995Y15075D01*
G01X04993Y15074D01*
G01X04991Y15073D01*
G01X04989Y15072D01*
G01X04987Y15071D01*
G01X04985Y15070D01*
G01X04983Y15070D01*
G01X04982Y15069D01*
G01X04980Y15068D01*
G01X04978Y15067D01*
G01X04976Y15066D01*
G01X04974Y15065D01*
G01X04972Y15064D01*
G01X04970Y15063D01*
G01X04968Y15062D01*
G01X04966Y15061D01*
G01X04965Y15060D01*
G01X04963Y15059D01*
G01X04961Y15059D01*
G01X04959Y15058D01*
G01X04957Y15057D01*
G01X04955Y15056D01*
G01X04953Y15055D01*
G01X04952Y15053D01*
G01X04950Y15052D01*
G01X04948Y15051D01*
G01X04946Y15050D01*
G01X04944Y15049D01*
G01X04943Y15048D01*
G01X04941Y15047D01*
G01X04939Y15046D01*
G01X04937Y15045D01*
G01X04935Y15044D01*
D29*
G01X04935Y15044D02*
G01X04787Y15165D01*
D29*
G01X04787Y15165D02*
G01X04685Y15063D01*
D29*
G01X04685Y15063D02*
G01X04806Y14915D01*
D29*
G01X04806Y14915D02*
G01X04805Y14913D01*
G01X04804Y14911D01*
G01X04803Y14910D01*
G01X04802Y14908D01*
G01X04801Y14906D01*
G01X04799Y14904D01*
G01X04798Y14902D01*
G01X04797Y14901D01*
G01X04796Y14899D01*
G01X04795Y14897D01*
G01X04794Y14895D01*
G01X04793Y14893D01*
G01X04792Y14891D01*
G01X04791Y14890D01*
G01X04790Y14888D01*
G01X04789Y14886D01*
G01X04788Y14884D01*
G01X04787Y14882D01*
G01X04787Y14880D01*
G01X04786Y14878D01*
G01X04785Y14876D01*
G01X04784Y14874D01*
G01X04783Y14873D01*
G01X04782Y14871D01*
G01X04781Y14869D01*
G01X04780Y14867D01*
G01X04779Y14865D01*
G01X04779Y14863D01*
G01X04778Y14861D01*
G01X04777Y14859D01*
G01X04776Y14857D01*
G01X04775Y14855D01*
G01X04774Y14853D01*
G01X04774Y14851D01*
G01X04773Y14849D01*
G01X04772Y14847D01*
G01X04771Y14846D01*
G01X04771Y14844D01*
G01X04770Y14842D01*
G01X04769Y14840D01*
G01X04768Y14838D01*
G01X04768Y14836D01*
G01X04767Y14834D01*
G01X04766Y14832D01*
G01X04766Y14830D01*
G01X04765Y14828D01*
G01X04764Y14826D01*
G01X04764Y14824D01*
G01X04763Y14822D01*
G01X04762Y14820D01*
G01X04762Y14818D01*
G01X04761Y14816D01*
G01X04761Y14814D01*
G01X04760Y14812D01*
G01X04759Y14810D01*
G01X04759Y14808D01*
G01X04758Y14806D01*
G01X04758Y14804D01*
G01X04757Y14801D01*
G01X04757Y14799D01*
G01X04756Y14797D01*
G01X04756Y14795D01*
G01X04755Y14793D01*
G01X04755Y14791D01*
D29*
G01X04755Y14791D02*
G01X04564Y14771D01*
D29*
G01X04564Y14771D02*
G01X04564Y14629D01*
D29*
G01X04564Y14629D02*
G01X04755Y14609D01*
D29*
G01X04755Y14609D02*
G01X04755Y14607D01*
G01X04756Y14605D01*
G01X04756Y14603D01*
G01X04757Y14601D01*
G01X04757Y14599D01*
G01X04758Y14597D01*
G01X04759Y14595D01*
G01X04759Y14593D01*
G01X04760Y14591D01*
G01X04760Y14589D01*
G01X04761Y14587D01*
G01X04761Y14585D01*
G01X04762Y14583D01*
G01X04763Y14581D01*
G01X04763Y14579D01*
G01X04764Y14577D01*
G01X04765Y14575D01*
G01X04765Y14573D01*
G01X04766Y14571D01*
G01X04767Y14569D01*
G01X04767Y14567D01*
G01X04768Y14565D01*
G01X04769Y14563D01*
G01X04769Y14561D01*
G01X04770Y14559D01*
G01X04771Y14557D01*
G01X04772Y14555D01*
G01X04772Y14553D01*
G01X04773Y14551D01*
G01X04774Y14549D01*
G01X04775Y14547D01*
G01X04775Y14545D01*
G01X04776Y14543D01*
G01X04777Y14541D01*
G01X04778Y14539D01*
G01X04779Y14537D01*
G01X04780Y14535D01*
G01X04780Y14533D01*
G01X04781Y14532D01*
G01X04782Y14530D01*
G01X04783Y14528D01*
G01X04784Y14526D01*
G01X04785Y14524D01*
G01X04786Y14522D01*
G01X04787Y14520D01*
G01X04788Y14518D01*
G01X04789Y14516D01*
G01X04790Y14515D01*
G01X04791Y14513D01*
G01X04791Y14511D01*
G01X04792Y14509D01*
G01X04793Y14507D01*
G01X04794Y14505D01*
G01X04795Y14503D01*
G01X04797Y14502D01*
G01X04798Y14500D01*
G01X04799Y14498D01*
G01X04800Y14496D01*
G01X04801Y14494D01*
G01X04802Y14493D01*
G01X04803Y14491D01*
G01X04804Y14489D01*
G01X04805Y14487D01*
G01X04806Y14485D01*
D29*
G01X04806Y14485D02*
G01X04685Y14337D01*
D29*
G01X04685Y14337D02*
G01X04787Y14235D01*
D29*
G01X04787Y14235D02*
G01X04935Y14356D01*
D29*
G01X04935Y14356D02*
G01X04936Y14355D01*
G01X04937Y14355D01*
G01X04938Y14354D01*
G01X04939Y14354D01*
G01X04939Y14353D01*
G01X04940Y14353D01*
G01X04941Y14352D01*
G01X04942Y14352D01*
G01X04943Y14351D01*
G01X04944Y14351D01*
G01X04945Y14350D01*
G01X04946Y14350D01*
G01X04947Y14349D01*
G01X04947Y14349D01*
G01X04948Y14348D01*
G01X04949Y14347D01*
G01X04950Y14347D01*
G01X04951Y14346D01*
G01X04952Y14346D01*
G01X04953Y14345D01*
G01X04954Y14345D01*
G01X04955Y14344D01*
G01X04956Y14344D01*
G01X04957Y14343D01*
G01X04957Y14343D01*
G01X04958Y14342D01*
G01X04959Y14342D01*
G01X04960Y14341D01*
G01X04961Y14341D01*
G01X04962Y14340D01*
G01X04963Y14340D01*
G01X04964Y14340D01*
G01X04965Y14339D01*
G01X04966Y14339D01*
G01X04967Y14338D01*
G01X04968Y14338D01*
G01X04969Y14337D01*
G01X04969Y14337D01*
G01X04970Y14336D01*
G01X04971Y14336D01*
G01X04972Y14335D01*
G01X04973Y14335D01*
G01X04974Y14334D01*
G01X04975Y14334D01*
G01X04976Y14334D01*
G01X04977Y14333D01*
G01X04978Y14333D01*
G01X04979Y14332D01*
G01X04980Y14332D01*
G01X04981Y14331D01*
G01X04982Y14331D01*
G01X04983Y14330D01*
G01X04984Y14330D01*
G01X04985Y14330D01*
G01X04985Y14329D01*
G01X04986Y14329D01*
G01X04987Y14328D01*
G01X04988Y14328D01*
G01X04989Y14328D01*
G01X04990Y14327D01*
G01X04991Y14327D01*
G01X04992Y14326D01*
G01X04993Y14326D01*
G01X04994Y14326D01*
D29*
G01X04995Y14325D02*
G01X05080Y14530D01*
D29*
G01X05080Y14530D02*
G01X05077Y14531D01*
G01X05074Y14533D01*
G01X05071Y14534D01*
G01X05068Y14536D01*
G01X05065Y14537D01*
G01X05062Y14539D01*
G01X05059Y14540D01*
G01X05056Y14542D01*
G01X05053Y14544D01*
G01X05050Y14546D01*
G01X05047Y14548D01*
G01X05044Y14549D01*
G01X05042Y14551D01*
G01X05039Y14553D01*
G01X05036Y14556D01*
G01X05034Y14558D01*
G01X05031Y14560D01*
G01X05029Y14562D01*
G01X05026Y14564D01*
G01X05024Y14567D01*
G01X05021Y14569D01*
G01X05019Y14571D01*
G01X05016Y14574D01*
G01X05014Y14576D01*
G01X05012Y14579D01*
G01X05010Y14581D01*
G01X05007Y14584D01*
G01X05005Y14587D01*
G01X05003Y14589D01*
G01X05001Y14592D01*
G01X04999Y14595D01*
G01X04997Y14598D01*
G01X04995Y14600D01*
G01X04994Y14603D01*
G01X04992Y14606D01*
G01X04990Y14609D01*
G01X04989Y14612D01*
G01X04987Y14615D01*
G01X04985Y14618D01*
G01X04984Y14621D01*
G01X04983Y14624D01*
G01X04981Y14627D01*
G01X04980Y14630D01*
G01X04979Y14633D01*
G01X04977Y14637D01*
G01X04976Y14640D01*
G01X04975Y14643D01*
G01X04974Y14646D01*
G01X04973Y14650D01*
G01X04972Y14653D01*
G01X04971Y14656D01*
G01X04971Y14659D01*
G01X04970Y14663D01*
G01X04969Y14666D01*
G01X04969Y14669D01*
G01X04968Y14673D01*
G01X04968Y14676D01*
G01X04967Y14679D01*
G01X04967Y14683D01*
G01X04967Y14686D01*
G01X04966Y14689D01*
G01X04966Y14693D01*
G01X04966Y14696D01*
G01X04966Y14700D01*
D29*
G01X04966Y14700D02*
G01X04966Y14712D01*
G01X04968Y14725D01*
G01X04970Y14737D01*
G01X04973Y14749D01*
G01X04976Y14761D01*
G01X04981Y14772D01*
G01X04986Y14784D01*
G01X04992Y14795D01*
G01X04999Y14805D01*
G01X05006Y14815D01*
G01X05014Y14824D01*
G01X05023Y14833D01*
G01X05032Y14841D01*
G01X05042Y14849D01*
G01X05052Y14856D01*
G01X05063Y14862D01*
G01X05074Y14868D01*
G01X05086Y14872D01*
G01X05098Y14876D01*
G01X05110Y14880D01*
G01X05122Y14882D01*
G01X05134Y14883D01*
G01X05146Y14884D01*
G01X05159Y14884D01*
G01X05171Y14883D01*
G01X05184Y14881D01*
G01X05196Y14878D01*
G01X05208Y14875D01*
G01X05219Y14870D01*
G01X05231Y14865D01*
G01X05242Y14860D01*
G01X05252Y14853D01*
G01X05262Y14846D01*
G01X05272Y14838D01*
G01X05281Y14829D01*
G01X05289Y14820D01*
G01X05297Y14811D01*
G01X05304Y14800D01*
G01X05311Y14790D01*
G01X05316Y14779D01*
G01X05321Y14767D01*
G01X05325Y14756D01*
G01X05329Y14744D01*
G01X05331Y14732D01*
G01X05333Y14719D01*
G01X05334Y14707D01*
G01X05334Y14695D01*
G01X05333Y14682D01*
G01X05332Y14670D01*
G01X05329Y14658D01*
G01X05326Y14646D01*
G01X05322Y14634D01*
G01X05317Y14623D01*
G01X05311Y14612D01*
G01X05305Y14601D01*
G01X05298Y14591D01*
G01X05290Y14581D01*
G01X05282Y14572D01*
G01X05273Y14563D01*
G01X05263Y14555D01*
G01X05253Y14548D01*
G01X05243Y14541D01*
G01X05232Y14535D01*
G01X05221Y14530D01*
D29*
G01X05220Y14530D02*
G01X05305Y14325D01*
D13*
G01X15600Y23100D02*
G01X16400Y23100D01*
D13*
G01X16550Y23050D02*
G01X15400Y23050D01*
D13*
G01X15300Y23000D02*
G01X16700Y23000D01*
D13*
G01X16850Y22950D02*
G01X15150Y22950D01*
D13*
G01X15050Y22900D02*
G01X16950Y22900D01*
D13*
G01X17000Y22850D02*
G01X15000Y22850D01*
D13*
G01X17950Y21200D02*
G01X17950Y21200D01*
G01X17949Y21248D01*
G01X17948Y21296D01*
G01X17945Y21343D01*
G01X17941Y21391D01*
G01X17935Y21439D01*
G01X17929Y21486D01*
G01X17921Y21533D01*
G01X17913Y21580D01*
G01X17903Y21627D01*
G01X17892Y21674D01*
G01X17879Y21720D01*
G01X17866Y21766D01*
G01X17852Y21812D01*
G01X17836Y21857D01*
G01X17819Y21902D01*
G01X17802Y21946D01*
G01X17783Y21990D01*
G01X17763Y22034D01*
G01X17742Y22077D01*
G01X17720Y22119D01*
G01X17697Y22161D01*
G01X17673Y22203D01*
G01X17647Y22243D01*
G01X17621Y22283D01*
G01X17594Y22323D01*
G01X17566Y22362D01*
G01X17537Y22400D01*
G01X17507Y22437D01*
G01X17477Y22474D01*
G01X17445Y22510D01*
G01X17412Y22545D01*
G01X17379Y22579D01*
G01X17345Y22612D01*
G01X17310Y22645D01*
G01X17274Y22677D01*
G01X17237Y22707D01*
G01X17200Y22737D01*
G01X17162Y22766D01*
G01X17123Y22794D01*
G01X17083Y22821D01*
G01X17043Y22847D01*
G01X17003Y22873D01*
G01X16961Y22897D01*
G01X16919Y22920D01*
G01X16877Y22942D01*
G01X16834Y22963D01*
G01X16790Y22983D01*
G01X16746Y23002D01*
G01X16702Y23019D01*
G01X16657Y23036D01*
G01X16612Y23052D01*
G01X16566Y23066D01*
G01X16520Y23079D01*
G01X16474Y23092D01*
G01X16427Y23103D01*
G01X16380Y23113D01*
G01X16333Y23121D01*
G01X16286Y23129D01*
G01X16239Y23135D01*
G01X16191Y23141D01*
G01X16143Y23145D01*
G01X16096Y23148D01*
G01X16048Y23149D01*
G01X16000Y23150D01*
G01X15952Y23149D01*
G01X15904Y23148D01*
G01X15857Y23145D01*
G01X15809Y23141D01*
G01X15761Y23135D01*
G01X15714Y23129D01*
G01X15667Y23121D01*
G01X15620Y23113D01*
G01X15573Y23103D01*
G01X15526Y23092D01*
G01X15480Y23079D01*
G01X15434Y23066D01*
G01X15388Y23052D01*
G01X15343Y23036D01*
G01X15298Y23019D01*
G01X15254Y23002D01*
G01X15210Y22983D01*
G01X15166Y22963D01*
G01X15123Y22942D01*
G01X15081Y22920D01*
G01X15039Y22897D01*
G01X14997Y22873D01*
G01X14957Y22847D01*
G01X14917Y22821D01*
G01X14877Y22794D01*
G01X14838Y22766D01*
G01X14800Y22737D01*
G01X14763Y22707D01*
G01X14726Y22677D01*
G01X14690Y22645D01*
G01X14655Y22612D01*
G01X14621Y22579D01*
G01X14588Y22545D01*
G01X14555Y22510D01*
G01X14523Y22474D01*
G01X14493Y22437D01*
G01X14463Y22400D01*
G01X14434Y22362D01*
G01X14406Y22323D01*
G01X14379Y22283D01*
G01X14353Y22243D01*
G01X14327Y22203D01*
G01X14303Y22161D01*
G01X14280Y22119D01*
G01X14258Y22077D01*
G01X14237Y22034D01*
G01X14217Y21990D01*
G01X14198Y21946D01*
G01X14181Y21902D01*
G01X14164Y21857D01*
G01X14148Y21812D01*
G01X14134Y21766D01*
G01X14121Y21720D01*
G01X14108Y21674D01*
G01X14097Y21627D01*
G01X14087Y21580D01*
G01X14079Y21533D01*
G01X14071Y21486D01*
G01X14065Y21439D01*
G01X14059Y21391D01*
G01X14055Y21343D01*
G01X14052Y21296D01*
G01X14051Y21248D01*
G01X14050Y21200D01*
G01X14051Y21152D01*
G01X14052Y21104D01*
G01X14055Y21057D01*
G01X14059Y21009D01*
G01X14065Y20961D01*
G01X14071Y20914D01*
G01X14079Y20867D01*
G01X14087Y20820D01*
G01X14097Y20773D01*
G01X14108Y20726D01*
G01X14121Y20680D01*
G01X14134Y20634D01*
G01X14148Y20588D01*
G01X14164Y20543D01*
G01X14181Y20498D01*
G01X14198Y20454D01*
G01X14217Y20410D01*
G01X14237Y20366D01*
G01X14258Y20323D01*
G01X14280Y20281D01*
G01X14303Y20239D01*
G01X14327Y20197D01*
G01X14353Y20157D01*
G01X14379Y20117D01*
G01X14406Y20077D01*
G01X14434Y20038D01*
G01X14463Y20000D01*
G01X14493Y19963D01*
G01X14523Y19926D01*
G01X14555Y19890D01*
G01X14588Y19855D01*
G01X14621Y19821D01*
G01X14655Y19788D01*
G01X14690Y19755D01*
G01X14726Y19723D01*
G01X14763Y19693D01*
G01X14800Y19663D01*
G01X14838Y19634D01*
G01X14877Y19606D01*
G01X14917Y19579D01*
G01X14957Y19553D01*
G01X14997Y19527D01*
G01X15039Y19503D01*
G01X15081Y19480D01*
G01X15123Y19458D01*
G01X15166Y19437D01*
G01X15210Y19417D01*
G01X15254Y19398D01*
G01X15298Y19381D01*
G01X15343Y19364D01*
G01X15388Y19348D01*
G01X15434Y19334D01*
G01X15480Y19321D01*
G01X15526Y19308D01*
G01X15573Y19297D01*
G01X15620Y19287D01*
G01X15667Y19279D01*
G01X15714Y19271D01*
G01X15761Y19265D01*
G01X15809Y19259D01*
G01X15857Y19255D01*
G01X15904Y19252D01*
G01X15952Y19251D01*
G01X16000Y19250D01*
G01X16048Y19251D01*
G01X16096Y19252D01*
G01X16143Y19255D01*
G01X16191Y19259D01*
G01X16239Y19265D01*
G01X16286Y19271D01*
G01X16333Y19279D01*
G01X16380Y19287D01*
G01X16427Y19297D01*
G01X16474Y19308D01*
G01X16520Y19321D01*
G01X16566Y19334D01*
G01X16612Y19348D01*
G01X16657Y19364D01*
G01X16702Y19381D01*
G01X16746Y19398D01*
G01X16790Y19417D01*
G01X16834Y19437D01*
G01X16877Y19458D01*
G01X16919Y19480D01*
G01X16961Y19503D01*
G01X17003Y19527D01*
G01X17043Y19553D01*
G01X17083Y19579D01*
G01X17123Y19606D01*
G01X17162Y19634D01*
G01X17200Y19663D01*
G01X17237Y19693D01*
G01X17274Y19723D01*
G01X17310Y19755D01*
G01X17345Y19788D01*
G01X17379Y19821D01*
G01X17412Y19855D01*
G01X17445Y19890D01*
G01X17477Y19926D01*
G01X17507Y19963D01*
G01X17537Y20000D01*
G01X17566Y20038D01*
G01X17594Y20077D01*
G01X17621Y20117D01*
G01X17647Y20157D01*
G01X17673Y20197D01*
G01X17697Y20239D01*
G01X17720Y20281D01*
G01X17742Y20323D01*
G01X17763Y20366D01*
G01X17783Y20410D01*
G01X17802Y20454D01*
G01X17819Y20498D01*
G01X17836Y20543D01*
G01X17852Y20588D01*
G01X17866Y20634D01*
G01X17879Y20680D01*
G01X17892Y20726D01*
G01X17903Y20773D01*
G01X17913Y20820D01*
G01X17921Y20867D01*
G01X17929Y20914D01*
G01X17935Y20961D01*
G01X17941Y21009D01*
G01X17945Y21057D01*
G01X17948Y21104D01*
G01X17949Y21152D01*
G01X17950Y21200D01*
D13*
G01X18050Y23250D02*
G01X13950Y23250D01*
D13*
G01X13950Y23250D02*
G01X13950Y19450D01*
D13*
G01X13950Y19450D02*
G01X14250Y19150D01*
D13*
G01X14250Y19150D02*
G01X17750Y19150D01*
D13*
G01X17750Y19150D02*
G01X18050Y19450D01*
D13*
G01X18050Y19450D02*
G01X18050Y23250D01*
D13*
G01X16000Y19400D02*
G01X16000Y19700D01*
D13*
G01X16150Y19550D02*
G01X15850Y19550D01*
D31*
G01X18380Y20881D02*
G01X18380Y20768D01*
D31*
G01X18380Y20825D02*
G01X18183Y20825D01*
G01X18211Y20806D01*
G01X18230Y20787D01*
G01X18239Y20768D01*
D31*
G01X18183Y21003D02*
G01X18183Y21022D01*
G01X18192Y21041D01*
G01X18201Y21050D01*
G01X18220Y21059D01*
G01X18258Y21069D01*
G01X18305Y21069D01*
G01X18342Y21059D01*
G01X18361Y21050D01*
G01X18370Y21041D01*
G01X18380Y21022D01*
G01X18380Y21003D01*
G01X18370Y20984D01*
G01X18361Y20975D01*
G01X18342Y20965D01*
G01X18305Y20956D01*
G01X18258Y20956D01*
G01X18220Y20965D01*
G01X18201Y20975D01*
G01X18192Y20984D01*
G01X18183Y21003D01*
D31*
G01X18183Y21191D02*
G01X18183Y21209D01*
G01X18192Y21228D01*
G01X18201Y21238D01*
G01X18220Y21247D01*
G01X18258Y21256D01*
G01X18305Y21256D01*
G01X18342Y21247D01*
G01X18361Y21238D01*
G01X18370Y21228D01*
G01X18380Y21209D01*
G01X18380Y21191D01*
G01X18370Y21172D01*
G01X18361Y21162D01*
G01X18342Y21153D01*
G01X18305Y21144D01*
G01X18258Y21144D01*
G01X18220Y21153D01*
G01X18201Y21162D01*
G01X18192Y21172D01*
G01X18183Y21191D01*
D31*
G01X18380Y21341D02*
G01X18248Y21341D01*
D31*
G01X18267Y21341D02*
G01X18258Y21350D01*
G01X18248Y21369D01*
G01X18248Y21397D01*
G01X18258Y21416D01*
G01X18277Y21425D01*
G01X18380Y21425D01*
D31*
G01X18277Y21425D02*
G01X18258Y21435D01*
G01X18248Y21453D01*
G01X18248Y21481D01*
G01X18258Y21500D01*
G01X18277Y21510D01*
G01X18380Y21510D01*
D31*
G01X18248Y21575D02*
G01X18248Y21650D01*
D31*
G01X18380Y21603D02*
G01X18211Y21603D01*
G01X18192Y21613D01*
G01X18183Y21632D01*
G01X18183Y21650D01*
D15*
G01X19960Y13970D02*
G01X19960Y14420D01*
D15*
G01X22140Y13970D02*
G01X22140Y14410D01*
D15*
G01X19960Y13970D02*
G01X22140Y13970D01*
D15*
G01X19490Y14850D02*
G01X19060Y14850D01*
D15*
G01X19480Y17060D02*
G01X19060Y17060D01*
D15*
G01X19060Y17070D02*
G01X19050Y14850D01*
D15*
G01X23030Y17050D02*
G01X23040Y14880D01*
D15*
G01X22340Y17480D02*
G01X19510Y17480D01*
D15*
G01X23030Y14870D02*
G01X22620Y14870D01*
D15*
G01X22580Y17230D02*
G01X22580Y14450D01*
D15*
G01X19500Y14430D02*
G01X22540Y14430D01*
D15*
G01X19500Y17480D02*
G01X19500Y14480D01*
D15*
G01X22170Y17930D02*
G01X19950Y17930D01*
D15*
G01X19950Y17930D02*
G01X19950Y17480D01*
D15*
G01X22350Y17476D02*
G01X22580Y17246D01*
D15*
G01X22170Y17928D02*
G01X22170Y17476D01*
D15*
G01X22580Y17050D02*
G01X23032Y17050D01*
D15*
G01X22365Y17068D02*
G01X22365Y17068D01*
G01X22365Y17073D01*
G01X22364Y17077D01*
G01X22364Y17082D01*
G01X22364Y17086D01*
G01X22363Y17091D01*
G01X22363Y17096D01*
G01X22362Y17100D01*
G01X22361Y17105D01*
G01X22360Y17109D01*
G01X22359Y17114D01*
G01X22358Y17118D01*
G01X22357Y17123D01*
G01X22355Y17127D01*
G01X22354Y17132D01*
G01X22352Y17136D01*
G01X22350Y17140D01*
G01X22348Y17144D01*
G01X22347Y17149D01*
G01X22345Y17153D01*
G01X22342Y17157D01*
G01X22340Y17161D01*
G01X22338Y17165D01*
G01X22335Y17169D01*
G01X22333Y17173D01*
G01X22330Y17177D01*
G01X22328Y17180D01*
G01X22325Y17184D01*
G01X22322Y17188D01*
G01X22319Y17191D01*
G01X22316Y17195D01*
G01X22313Y17198D01*
G01X22309Y17201D01*
G01X22306Y17205D01*
G01X22303Y17208D01*
G01X22299Y17211D01*
G01X22296Y17214D01*
G01X22292Y17217D01*
G01X22288Y17220D01*
G01X22285Y17222D01*
G01X22281Y17225D01*
G01X22277Y17227D01*
G01X22273Y17230D01*
G01X22269Y17232D01*
G01X22265Y17234D01*
G01X22261Y17237D01*
G01X22257Y17239D01*
G01X22252Y17240D01*
G01X22248Y17242D01*
G01X22244Y17244D01*
G01X22240Y17246D01*
G01X22235Y17247D01*
G01X22231Y17249D01*
G01X22226Y17250D01*
G01X22222Y17251D01*
G01X22217Y17252D01*
G01X22213Y17253D01*
G01X22208Y17254D01*
G01X22204Y17255D01*
G01X22199Y17255D01*
G01X22194Y17256D01*
G01X22190Y17256D01*
G01X22185Y17256D01*
G01X22181Y17257D01*
G01X22176Y17257D01*
G01X22171Y17257D01*
G01X22167Y17256D01*
G01X22162Y17256D01*
G01X22158Y17256D01*
G01X22153Y17255D01*
G01X22148Y17255D01*
G01X22144Y17254D01*
G01X22139Y17253D01*
G01X22135Y17252D01*
G01X22130Y17251D01*
G01X22126Y17250D01*
G01X22121Y17249D01*
G01X22117Y17247D01*
G01X22112Y17246D01*
G01X22108Y17244D01*
G01X22104Y17242D01*
G01X22100Y17240D01*
G01X22095Y17239D01*
G01X22091Y17237D01*
G01X22087Y17234D01*
G01X22083Y17232D01*
G01X22079Y17230D01*
G01X22075Y17227D01*
G01X22071Y17225D01*
G01X22067Y17222D01*
G01X22064Y17220D01*
G01X22060Y17217D01*
G01X22056Y17214D01*
G01X22053Y17211D01*
G01X22049Y17208D01*
G01X22046Y17205D01*
G01X22043Y17201D01*
G01X22039Y17198D01*
G01X22036Y17195D01*
G01X22033Y17191D01*
G01X22030Y17188D01*
G01X22027Y17184D01*
G01X22024Y17180D01*
G01X22022Y17177D01*
G01X22019Y17173D01*
G01X22017Y17169D01*
G01X22014Y17165D01*
G01X22012Y17161D01*
G01X22010Y17157D01*
G01X22007Y17153D01*
G01X22005Y17149D01*
G01X22004Y17144D01*
G01X22002Y17140D01*
G01X22000Y17136D01*
G01X21998Y17132D01*
G01X21997Y17127D01*
G01X21995Y17123D01*
G01X21994Y17118D01*
G01X21993Y17114D01*
G01X21992Y17109D01*
G01X21991Y17105D01*
G01X21990Y17100D01*
G01X21989Y17096D01*
G01X21989Y17091D01*
G01X21988Y17086D01*
G01X21988Y17082D01*
G01X21988Y17077D01*
G01X21987Y17073D01*
G01X21987Y17068D01*
G01X21987Y17063D01*
G01X21988Y17059D01*
G01X21988Y17054D01*
G01X21988Y17050D01*
G01X21989Y17045D01*
G01X21989Y17040D01*
G01X21990Y17036D01*
G01X21991Y17031D01*
G01X21992Y17027D01*
G01X21993Y17022D01*
G01X21994Y17018D01*
G01X21995Y17013D01*
G01X21997Y17009D01*
G01X21998Y17004D01*
G01X22000Y17000D01*
G01X22002Y16996D01*
G01X22004Y16992D01*
G01X22005Y16987D01*
G01X22007Y16983D01*
G01X22010Y16979D01*
G01X22012Y16975D01*
G01X22014Y16971D01*
G01X22017Y16967D01*
G01X22019Y16963D01*
G01X22022Y16959D01*
G01X22024Y16956D01*
G01X22027Y16952D01*
G01X22030Y16948D01*
G01X22033Y16945D01*
G01X22036Y16941D01*
G01X22039Y16938D01*
G01X22043Y16935D01*
G01X22046Y16931D01*
G01X22049Y16928D01*
G01X22053Y16925D01*
G01X22056Y16922D01*
G01X22060Y16919D01*
G01X22064Y16916D01*
G01X22067Y16914D01*
G01X22071Y16911D01*
G01X22075Y16909D01*
G01X22079Y16906D01*
G01X22083Y16904D01*
G01X22087Y16902D01*
G01X22091Y16899D01*
G01X22095Y16897D01*
G01X22100Y16896D01*
G01X22104Y16894D01*
G01X22108Y16892D01*
G01X22112Y16890D01*
G01X22117Y16889D01*
G01X22121Y16887D01*
G01X22126Y16886D01*
G01X22130Y16885D01*
G01X22135Y16884D01*
G01X22139Y16883D01*
G01X22144Y16882D01*
G01X22148Y16881D01*
G01X22153Y16881D01*
G01X22158Y16880D01*
G01X22162Y16880D01*
G01X22167Y16880D01*
G01X22171Y16879D01*
G01X22176Y16879D01*
G01X22181Y16879D01*
G01X22185Y16880D01*
G01X22190Y16880D01*
G01X22194Y16880D01*
G01X22199Y16881D01*
G01X22204Y16881D01*
G01X22208Y16882D01*
G01X22213Y16883D01*
G01X22217Y16884D01*
G01X22222Y16885D01*
G01X22226Y16886D01*
G01X22231Y16887D01*
G01X22235Y16889D01*
G01X22240Y16890D01*
G01X22244Y16892D01*
G01X22248Y16894D01*
G01X22252Y16896D01*
G01X22257Y16897D01*
G01X22261Y16899D01*
G01X22265Y16902D01*
G01X22269Y16904D01*
G01X22273Y16906D01*
G01X22277Y16909D01*
G01X22281Y16911D01*
G01X22285Y16914D01*
G01X22288Y16916D01*
G01X22292Y16919D01*
G01X22296Y16922D01*
G01X22299Y16925D01*
G01X22303Y16928D01*
G01X22306Y16931D01*
G01X22309Y16935D01*
G01X22313Y16938D01*
G01X22316Y16941D01*
G01X22319Y16945D01*
G01X22322Y16948D01*
G01X22325Y16952D01*
G01X22328Y16956D01*
G01X22330Y16959D01*
G01X22333Y16963D01*
G01X22335Y16967D01*
G01X22338Y16971D01*
G01X22340Y16975D01*
G01X22342Y16979D01*
G01X22345Y16983D01*
G01X22347Y16987D01*
G01X22348Y16992D01*
G01X22350Y16996D01*
G01X22352Y17000D01*
G01X22354Y17004D01*
G01X22355Y17009D01*
G01X22357Y17013D01*
G01X22358Y17018D01*
G01X22359Y17022D01*
G01X22360Y17027D01*
G01X22361Y17031D01*
G01X22362Y17036D01*
G01X22363Y17040D01*
G01X22363Y17045D01*
G01X22364Y17050D01*
G01X22364Y17054D01*
G01X22364Y17059D01*
G01X22365Y17063D01*
G01X22365Y17068D01*
D14*
G01X21312Y14605D02*
G01X21312Y14890D01*
D14*
G01X21712Y14748D02*
G01X21312Y14748D01*
D14*
G01X21750Y15390D02*
G01X21731Y15343D01*
G01X21693Y15295D01*
G01X21636Y15224D01*
G01X21617Y15176D01*
G01X21617Y15129D01*
D14*
G01X21712Y15152D02*
G01X21693Y15105D01*
G01X21655Y15057D01*
G01X21579Y15033D01*
G01X21445Y15033D01*
G01X21369Y15057D01*
G01X21331Y15105D01*
G01X21312Y15152D01*
G01X21312Y15248D01*
G01X21331Y15295D01*
G01X21369Y15343D01*
G01X21445Y15367D01*
G01X21579Y15367D01*
G01X21655Y15343D01*
G01X21693Y15295D01*
G01X21712Y15248D01*
G01X21712Y15152D01*
D14*
G01X21502Y15748D02*
G01X21502Y15581D01*
D14*
G01X21712Y15581D02*
G01X21312Y15581D01*
G01X21312Y15819D01*
D14*
G01X21712Y16010D02*
G01X21312Y16010D01*
G01X21312Y16200D01*
G01X21331Y16248D01*
G01X21350Y16271D01*
G01X21388Y16295D01*
G01X21445Y16295D01*
G01X21483Y16271D01*
G01X21502Y16248D01*
G01X21521Y16200D01*
G01X21521Y16010D01*
D14*
G01X21312Y16462D02*
G01X21312Y16771D01*
G01X21464Y16605D01*
G01X21464Y16676D01*
G01X21483Y16724D01*
G01X21502Y16748D01*
G01X21540Y16771D01*
G01X21636Y16771D01*
G01X21674Y16748D01*
G01X21693Y16724D01*
G01X21712Y16676D01*
G01X21712Y16533D01*
G01X21693Y16486D01*
G01X21674Y16462D01*
D14*
G01X21350Y16962D02*
G01X21331Y16986D01*
G01X21312Y17033D01*
G01X21312Y17152D01*
G01X21331Y17200D01*
G01X21350Y17224D01*
G01X21388Y17248D01*
G01X21426Y17248D01*
G01X21483Y17224D01*
G01X21712Y16938D01*
G01X21712Y17248D01*
D14*
G01X20462Y14200D02*
G01X20252Y14200D01*
G01X20214Y14176D01*
G01X20195Y14129D01*
G01X20195Y14033D01*
G01X20214Y13986D01*
D14*
G01X20443Y14200D02*
G01X20462Y14152D01*
G01X20462Y14033D01*
G01X20443Y13986D01*
G01X20405Y13962D01*
G01X20367Y13962D01*
G01X20329Y13986D01*
G01X20310Y14033D01*
G01X20310Y14152D01*
G01X20290Y14200D01*
D14*
G01X20195Y14367D02*
G01X20195Y14557D01*
D14*
G01X20062Y14438D02*
G01X20405Y14438D01*
G01X20443Y14462D01*
G01X20462Y14510D01*
G01X20462Y14557D01*
D14*
G01X20462Y14724D02*
G01X20195Y14724D01*
D14*
G01X20233Y14724D02*
G01X20214Y14748D01*
G01X20195Y14795D01*
G01X20195Y14867D01*
G01X20214Y14914D01*
G01X20252Y14938D01*
G01X20462Y14938D01*
D14*
G01X20252Y14938D02*
G01X20214Y14962D01*
G01X20195Y15010D01*
G01X20195Y15081D01*
G01X20214Y15129D01*
G01X20252Y15152D01*
G01X20462Y15152D01*
D14*
G01X20443Y15581D02*
G01X20462Y15533D01*
G01X20462Y15438D01*
G01X20443Y15390D01*
G01X20405Y15367D01*
G01X20252Y15367D01*
G01X20214Y15390D01*
G01X20195Y15438D01*
G01X20195Y15533D01*
G01X20214Y15581D01*
G01X20252Y15605D01*
G01X20290Y15605D01*
G01X20329Y15367D01*
D14*
G01X20195Y16033D02*
G01X20519Y16033D01*
G01X20557Y16010D01*
G01X20576Y15986D01*
G01X20595Y15938D01*
G01X20595Y15867D01*
G01X20576Y15819D01*
D14*
G01X20443Y16033D02*
G01X20462Y15986D01*
G01X20462Y15890D01*
G01X20443Y15843D01*
G01X20424Y15819D01*
G01X20386Y15795D01*
G01X20271Y15795D01*
G01X20233Y15819D01*
G01X20214Y15843D01*
G01X20195Y15890D01*
G01X20195Y15986D01*
G01X20214Y16033D01*
D14*
G01X20462Y16486D02*
G01X20252Y16486D01*
G01X20214Y16462D01*
G01X20195Y16414D01*
G01X20195Y16319D01*
G01X20214Y16271D01*
D14*
G01X20443Y16486D02*
G01X20462Y16438D01*
G01X20462Y16319D01*
G01X20443Y16271D01*
G01X20405Y16248D01*
G01X20367Y16248D01*
G01X20329Y16271D01*
G01X20310Y16319D01*
G01X20310Y16438D01*
G01X20290Y16486D01*
D14*
G01X20062Y16676D02*
G01X20062Y16986D01*
G01X20214Y16819D01*
G01X20214Y16890D01*
G01X20233Y16938D01*
G01X20252Y16962D01*
G01X20290Y16986D01*
G01X20386Y16986D01*
G01X20424Y16962D01*
G01X20443Y16938D01*
G01X20462Y16890D01*
G01X20462Y16748D01*
G01X20443Y16700D01*
G01X20424Y16676D01*
D14*
G01X20100Y17176D02*
G01X20081Y17200D01*
G01X20062Y17248D01*
G01X20062Y17367D01*
G01X20081Y17414D01*
G01X20100Y17438D01*
G01X20138Y17462D01*
G01X20176Y17462D01*
G01X20233Y17438D01*
G01X20462Y17152D01*
G01X20462Y17462D01*
D14*
G01X20233Y17748D02*
G01X20214Y17700D01*
G01X20195Y17676D01*
G01X20157Y17652D01*
G01X20138Y17652D01*
G01X20100Y17676D01*
G01X20081Y17700D01*
G01X20062Y17748D01*
G01X20062Y17843D01*
G01X20081Y17890D01*
G01X20100Y17914D01*
G01X20138Y17938D01*
G01X20157Y17938D01*
G01X20195Y17914D01*
G01X20214Y17890D01*
G01X20233Y17843D01*
G01X20233Y17748D01*
G01X20252Y17700D01*
G01X20271Y17676D01*
G01X20310Y17652D01*
G01X20386Y17652D01*
G01X20424Y17676D01*
G01X20443Y17700D01*
G01X20462Y17748D01*
G01X20462Y17843D01*
G01X20443Y17890D01*
G01X20424Y17914D01*
G01X20386Y17938D01*
G01X20310Y17938D01*
G01X20271Y17914D01*
G01X20252Y17890D01*
G01X20233Y17843D01*
D19*
G01X24650Y19900D02*
G01X25650Y19900D01*
D19*
G01X25650Y19900D02*
G01X25650Y16900D01*
D19*
G01X25650Y16900D02*
G01X24650Y16900D01*
D19*
G01X24650Y16900D02*
G01X24650Y19900D01*
D19*
G01X25650Y18900D02*
G01X24650Y18900D01*
D19*
G01X26301Y17729D02*
G01X26322Y17796D01*
G01X26322Y17930D01*
G01X26301Y17997D01*
G01X26261Y18031D01*
G01X26241Y18031D01*
G01X26200Y17997D01*
G01X26180Y17930D01*
G01X26180Y17829D01*
G01X26160Y17762D01*
G01X26120Y17729D01*
G01X26100Y17729D01*
G01X26059Y17762D01*
G01X26039Y17829D01*
G01X26039Y17930D01*
G01X26059Y17997D01*
D19*
G01X26301Y18601D02*
G01X26322Y18534D01*
G01X26322Y18400D01*
G01X26301Y18333D01*
G01X26261Y18299D01*
G01X26100Y18299D01*
G01X26059Y18333D01*
G01X26039Y18400D01*
G01X26039Y18534D01*
G01X26059Y18601D01*
G01X26100Y18635D01*
G01X26140Y18635D01*
G01X26180Y18299D01*
D19*
G01X26322Y18937D02*
G01X26039Y18937D01*
D19*
G01X26120Y18937D02*
G01X26079Y18971D01*
G01X26059Y19004D01*
G01X26039Y19071D01*
G01X26039Y19139D01*
D28*
G01X01700Y18750D02*
G01X01700Y18750D01*
D28*
G01X01700Y18750D02*
G01X01700Y18750D01*
D28*
G01X01700Y18750D02*
G01X01700Y18750D01*
G01X01700Y18750D01*
G01X01700Y18750D01*
G01X01700Y18750D01*
G01X01700Y18750D01*
G01X01700Y18750D01*
G01X01700Y18750D01*
G01X01700Y18750D01*
G01X01700Y18750D01*
G01X01700Y18750D01*
G01X01700Y18750D01*
G01X01700Y18750D01*
G01X01700Y18750D01*
G01X01700Y18750D01*
G01X01700Y18750D01*
D28*
G01X01700Y18750D02*
G01X01700Y18750D01*
G01X01700Y18750D01*
G01X01700Y18750D01*
G01X01700Y18750D01*
G01X01700Y18750D01*
G01X01700Y18750D01*
G01X01700Y18750D01*
G01X01700Y18750D01*
G01X01700Y18750D01*
G01X01700Y18750D01*
G01X01700Y18750D01*
D28*
G01X01700Y18750D02*
G01X01700Y18750D01*
D28*
G01X01700Y18750D02*
G01X01700Y18750D01*
G01X01700Y18750D01*
G01X01700Y18750D01*
G01X01700Y18750D01*
D28*
G01X01700Y18750D02*
G01X01700Y18750D01*
G01X01700Y18750D01*
G01X01700Y18750D01*
G01X01700Y18750D01*
G01X01700Y18750D01*
G01X01700Y18750D01*
G01X01700Y18750D01*
G01X01700Y18750D01*
G01X01700Y18750D01*
G01X01700Y18750D01*
G01X01700Y18750D01*
G01X01700Y18750D01*
D28*
G01X01700Y18750D02*
G01X01700Y18750D01*
G01X01700Y18750D01*
G01X01700Y18750D01*
G01X01700Y18750D01*
D13*
G01X14200Y15250D02*
G01X15100Y15250D01*
D13*
G01X15100Y15250D02*
G01X15100Y15900D01*
D13*
G01X14200Y16600D02*
G01X14200Y17250D01*
D13*
G01X14200Y17250D02*
G01X15100Y17250D01*
D13*
G01X15100Y17250D02*
G01X15100Y16600D01*
D13*
G01X14200Y15900D02*
G01X14200Y15250D01*
D13*
G01X14771Y15500D02*
G01X14571Y15500D01*
D13*
G01X14629Y15500D02*
G01X14600Y15514D01*
G01X14586Y15529D01*
G01X14571Y15557D01*
G01X14571Y15586D01*
D13*
G01X14800Y15614D02*
G01X14800Y15843D01*
D13*
G01X14771Y16071D02*
G01X14771Y15900D01*
D13*
G01X14771Y15986D02*
G01X14471Y15986D01*
G01X14514Y15957D01*
G01X14543Y15929D01*
G01X14557Y15900D01*
D13*
G01X14771Y16243D02*
G01X14757Y16214D01*
G01X14743Y16200D01*
G01X14714Y16186D01*
G01X14629Y16186D01*
G01X14600Y16200D01*
G01X14586Y16214D01*
G01X14571Y16243D01*
G01X14571Y16286D01*
G01X14586Y16314D01*
G01X14600Y16329D01*
G01X14629Y16343D01*
G01X14714Y16343D01*
G01X14743Y16329D01*
G01X14757Y16314D01*
G01X14771Y16286D01*
G01X14771Y16243D01*
D13*
G01X14771Y16471D02*
G01X14471Y16471D01*
D13*
G01X14771Y16600D02*
G01X14614Y16600D01*
G01X14586Y16586D01*
G01X14571Y16557D01*
G01X14571Y16514D01*
G01X14586Y16486D01*
G01X14600Y16471D01*
D13*
G01X14771Y16743D02*
G01X14571Y16743D01*
D13*
G01X14600Y16743D02*
G01X14586Y16757D01*
G01X14571Y16786D01*
G01X14571Y16829D01*
G01X14586Y16857D01*
G01X14614Y16871D01*
G01X14771Y16871D01*
D13*
G01X14614Y16871D02*
G01X14586Y16886D01*
G01X14571Y16914D01*
G01X14571Y16957D01*
G01X14586Y16986D01*
G01X14614Y17000D01*
G01X14771Y17000D01*
D15*
G01X25950Y23700D02*
G01X24950Y23700D01*
D15*
G01X24950Y23700D02*
G01X23950Y23700D01*
D15*
G01X23950Y23700D02*
G01X23950Y22700D01*
D15*
G01X23950Y22700D02*
G01X23950Y20700D01*
D15*
G01X23950Y20700D02*
G01X25950Y20700D01*
D15*
G01X25950Y20700D02*
G01X25950Y23700D01*
D15*
G01X24950Y22700D02*
G01X24950Y23700D01*
D15*
G01X24950Y22700D02*
G01X23950Y22700D01*
D23*
G01X21750Y24511D02*
G01X21760Y24504D01*
G01X21770Y24497D01*
G01X21780Y24490D01*
G01X21789Y24482D01*
G01X21799Y24475D01*
G01X21808Y24467D01*
G01X21818Y24460D01*
G01X21827Y24452D01*
G01X21836Y24443D01*
G01X21845Y24435D01*
G01X21854Y24427D01*
G01X21863Y24418D01*
G01X21871Y24410D01*
G01X21880Y24401D01*
G01X21888Y24392D01*
G01X21896Y24383D01*
G01X21904Y24374D01*
G01X21912Y24365D01*
G01X21920Y24356D01*
G01X21927Y24346D01*
G01X21935Y24336D01*
G01X21942Y24327D01*
G01X21949Y24317D01*
G01X21956Y24307D01*
G01X21963Y24297D01*
G01X21970Y24287D01*
G01X21977Y24277D01*
G01X21983Y24266D01*
G01X21989Y24256D01*
G01X21995Y24245D01*
G01X22001Y24235D01*
G01X22007Y24224D01*
G01X22013Y24213D01*
G01X22018Y24202D01*
G01X22023Y24191D01*
G01X22029Y24180D01*
G01X22034Y24169D01*
G01X22038Y24158D01*
G01X22043Y24147D01*
G01X22047Y24136D01*
G01X22052Y24124D01*
G01X22056Y24113D01*
G01X22060Y24101D01*
G01X22063Y24090D01*
G01X22067Y24078D01*
G01X22070Y24066D01*
G01X22074Y24055D01*
G01X22077Y24043D01*
G01X22079Y24031D01*
G01X22082Y24019D01*
G01X22085Y24007D01*
G01X22087Y23995D01*
G01X22089Y23983D01*
G01X22091Y23971D01*
G01X22093Y23959D01*
G01X22094Y23947D01*
G01X22096Y23935D01*
G01X22097Y23923D01*
G01X22098Y23911D01*
G01X22099Y23899D01*
G01X22100Y23887D01*
G01X22100Y23875D01*
G01X22100Y23862D01*
G01X22100Y23850D01*
D15*
G01X21750Y24750D02*
G01X22150Y24750D01*
D23*
G01X22100Y21150D02*
G01X22100Y21138D01*
G01X22100Y21126D01*
G01X22099Y21114D01*
G01X22099Y21101D01*
G01X22098Y21089D01*
G01X22097Y21077D01*
G01X22095Y21065D01*
G01X22094Y21053D01*
G01X22093Y21041D01*
G01X22091Y21029D01*
G01X22089Y21017D01*
G01X22087Y21005D01*
G01X22084Y20993D01*
G01X22082Y20981D01*
G01X22079Y20969D01*
G01X22076Y20957D01*
G01X22073Y20946D01*
G01X22070Y20934D01*
G01X22067Y20922D01*
G01X22063Y20911D01*
G01X22060Y20899D01*
G01X22056Y20888D01*
G01X22052Y20876D01*
G01X22047Y20865D01*
G01X22043Y20853D01*
G01X22038Y20842D01*
G01X22034Y20831D01*
G01X22029Y20820D01*
G01X22024Y20809D01*
G01X22018Y20798D01*
G01X22013Y20787D01*
G01X22007Y20776D01*
G01X22002Y20766D01*
G01X21996Y20755D01*
G01X21990Y20744D01*
G01X21983Y20734D01*
G01X21977Y20724D01*
G01X21970Y20713D01*
G01X21964Y20703D01*
G01X21957Y20693D01*
G01X21950Y20683D01*
G01X21943Y20674D01*
G01X21935Y20664D01*
G01X21928Y20654D01*
G01X21920Y20645D01*
G01X21913Y20635D01*
G01X21905Y20626D01*
G01X21897Y20617D01*
G01X21888Y20608D01*
G01X21880Y20599D01*
G01X21872Y20590D01*
G01X21863Y20582D01*
G01X21854Y20573D01*
G01X21846Y20565D01*
G01X21837Y20557D01*
G01X21828Y20549D01*
G01X21818Y20541D01*
G01X21809Y20533D01*
G01X21800Y20525D01*
G01X21790Y20518D01*
G01X21780Y20510D01*
G01X21771Y20503D01*
G01X21761Y20496D01*
G01X21751Y20489D01*
D15*
G01X21750Y20250D02*
G01X22150Y20250D01*
D23*
G01X20800Y21150D02*
G01X20800Y23850D01*
D23*
G01X20500Y21150D02*
G01X20500Y23850D01*
D23*
G01X21800Y23850D02*
G01X21800Y21150D01*
D15*
G01X20350Y20350D02*
G01X20350Y24650D01*
D15*
G01X20350Y20350D02*
G01X20350Y20348D01*
G01X20350Y20345D01*
G01X20350Y20343D01*
G01X20350Y20340D01*
G01X20351Y20338D01*
G01X20351Y20335D01*
G01X20351Y20333D01*
G01X20352Y20330D01*
G01X20352Y20328D01*
G01X20353Y20326D01*
G01X20354Y20323D01*
G01X20354Y20321D01*
G01X20355Y20319D01*
G01X20356Y20316D01*
G01X20357Y20314D01*
G01X20358Y20312D01*
G01X20359Y20309D01*
G01X20360Y20307D01*
G01X20361Y20305D01*
G01X20362Y20303D01*
G01X20363Y20301D01*
G01X20364Y20299D01*
G01X20366Y20297D01*
G01X20367Y20294D01*
G01X20368Y20292D01*
G01X20370Y20290D01*
G01X20371Y20288D01*
G01X20373Y20287D01*
G01X20374Y20285D01*
G01X20376Y20283D01*
G01X20378Y20281D01*
G01X20379Y20279D01*
G01X20381Y20278D01*
G01X20383Y20276D01*
G01X20385Y20274D01*
G01X20387Y20273D01*
G01X20388Y20271D01*
G01X20390Y20270D01*
G01X20392Y20268D01*
G01X20394Y20267D01*
G01X20397Y20266D01*
G01X20399Y20264D01*
G01X20401Y20263D01*
G01X20403Y20262D01*
G01X20405Y20261D01*
G01X20407Y20260D01*
G01X20409Y20259D01*
G01X20412Y20258D01*
G01X20414Y20257D01*
G01X20416Y20256D01*
G01X20419Y20255D01*
G01X20421Y20254D01*
G01X20423Y20254D01*
G01X20426Y20253D01*
G01X20428Y20252D01*
G01X20430Y20252D01*
G01X20433Y20251D01*
G01X20435Y20251D01*
G01X20438Y20251D01*
G01X20440Y20250D01*
G01X20443Y20250D01*
G01X20445Y20250D01*
G01X20448Y20250D01*
G01X20450Y20250D01*
D15*
G01X20450Y20250D02*
G01X20850Y20250D01*
D23*
G01X20800Y21150D02*
G01X20800Y21146D01*
G01X20800Y21143D01*
G01X20800Y21139D01*
G01X20800Y21136D01*
G01X20800Y21132D01*
G01X20800Y21129D01*
G01X20801Y21125D01*
G01X20801Y21122D01*
G01X20801Y21118D01*
G01X20801Y21115D01*
G01X20801Y21111D01*
G01X20802Y21108D01*
G01X20802Y21104D01*
G01X20802Y21101D01*
G01X20803Y21097D01*
G01X20803Y21094D01*
G01X20804Y21090D01*
G01X20804Y21087D01*
G01X20804Y21083D01*
G01X20805Y21080D01*
G01X20805Y21076D01*
G01X20806Y21073D01*
G01X20807Y21069D01*
G01X20807Y21066D01*
G01X20808Y21063D01*
G01X20808Y21059D01*
G01X20809Y21056D01*
G01X20810Y21052D01*
G01X20810Y21049D01*
G01X20811Y21045D01*
G01X20812Y21042D01*
G01X20813Y21038D01*
G01X20813Y21035D01*
G01X20814Y21032D01*
G01X20815Y21028D01*
G01X20816Y21025D01*
G01X20817Y21021D01*
G01X20818Y21018D01*
G01X20819Y21015D01*
G01X20820Y21011D01*
G01X20821Y21008D01*
G01X20822Y21004D01*
G01X20823Y21001D01*
G01X20824Y20998D01*
G01X20825Y20994D01*
G01X20826Y20991D01*
G01X20827Y20988D01*
G01X20828Y20984D01*
G01X20829Y20981D01*
G01X20831Y20978D01*
G01X20832Y20974D01*
G01X20833Y20971D01*
G01X20834Y20968D01*
G01X20836Y20965D01*
G01X20837Y20961D01*
G01X20838Y20958D01*
G01X20840Y20955D01*
G01X20841Y20952D01*
G01X20842Y20948D01*
G01X20844Y20945D01*
G01X20845Y20942D01*
G01X20847Y20939D01*
G01X20848Y20936D01*
G01X20850Y20932D01*
D23*
G01X21800Y21150D02*
G01X21800Y21146D01*
G01X21800Y21143D01*
G01X21800Y21139D01*
G01X21800Y21136D01*
G01X21800Y21132D01*
G01X21800Y21129D01*
G01X21799Y21125D01*
G01X21799Y21122D01*
G01X21799Y21118D01*
G01X21799Y21115D01*
G01X21799Y21111D01*
G01X21798Y21108D01*
G01X21798Y21104D01*
G01X21798Y21101D01*
G01X21797Y21097D01*
G01X21797Y21094D01*
G01X21796Y21090D01*
G01X21796Y21087D01*
G01X21796Y21083D01*
G01X21795Y21080D01*
G01X21795Y21076D01*
G01X21794Y21073D01*
G01X21793Y21069D01*
G01X21793Y21066D01*
G01X21792Y21063D01*
G01X21792Y21059D01*
G01X21791Y21056D01*
G01X21790Y21052D01*
G01X21790Y21049D01*
G01X21789Y21045D01*
G01X21788Y21042D01*
G01X21787Y21038D01*
G01X21787Y21035D01*
G01X21786Y21032D01*
G01X21785Y21028D01*
G01X21784Y21025D01*
G01X21783Y21021D01*
G01X21782Y21018D01*
G01X21781Y21015D01*
G01X21780Y21011D01*
G01X21779Y21008D01*
G01X21778Y21004D01*
G01X21777Y21001D01*
G01X21776Y20998D01*
G01X21775Y20994D01*
G01X21774Y20991D01*
G01X21773Y20988D01*
G01X21772Y20984D01*
G01X21771Y20981D01*
G01X21769Y20978D01*
G01X21768Y20974D01*
G01X21767Y20971D01*
G01X21766Y20968D01*
G01X21764Y20965D01*
G01X21763Y20961D01*
G01X21762Y20958D01*
G01X21760Y20955D01*
G01X21759Y20952D01*
G01X21758Y20948D01*
G01X21756Y20945D01*
G01X21755Y20942D01*
G01X21753Y20939D01*
G01X21752Y20936D01*
G01X21750Y20932D01*
D23*
G01X20500Y21150D02*
G01X20500Y21138D01*
G01X20500Y21126D01*
G01X20501Y21114D01*
G01X20502Y21101D01*
G01X20502Y21089D01*
G01X20503Y21077D01*
G01X20505Y21065D01*
G01X20506Y21053D01*
G01X20508Y21041D01*
G01X20509Y21029D01*
G01X20511Y21017D01*
G01X20513Y21005D01*
G01X20516Y20993D01*
G01X20518Y20981D01*
G01X20521Y20969D01*
G01X20524Y20958D01*
G01X20527Y20946D01*
G01X20530Y20934D01*
G01X20533Y20922D01*
G01X20537Y20911D01*
G01X20541Y20899D01*
G01X20545Y20888D01*
G01X20549Y20876D01*
G01X20553Y20865D01*
G01X20557Y20854D01*
G01X20562Y20842D01*
G01X20567Y20831D01*
G01X20572Y20820D01*
G01X20577Y20809D01*
G01X20582Y20798D01*
G01X20588Y20787D01*
G01X20593Y20776D01*
G01X20599Y20766D01*
G01X20605Y20755D01*
G01X20611Y20745D01*
G01X20617Y20734D01*
G01X20624Y20724D01*
G01X20630Y20714D01*
G01X20637Y20703D01*
G01X20644Y20693D01*
G01X20651Y20684D01*
G01X20658Y20674D01*
G01X20665Y20664D01*
G01X20673Y20654D01*
G01X20680Y20645D01*
G01X20688Y20636D01*
G01X20696Y20626D01*
G01X20704Y20617D01*
G01X20712Y20608D01*
G01X20721Y20599D01*
G01X20729Y20591D01*
G01X20738Y20582D01*
G01X20746Y20574D01*
G01X20755Y20565D01*
G01X20764Y20557D01*
G01X20773Y20549D01*
G01X20782Y20541D01*
G01X20792Y20533D01*
G01X20801Y20526D01*
G01X20811Y20518D01*
G01X20820Y20511D01*
G01X20830Y20504D01*
G01X20840Y20496D01*
G01X20850Y20490D01*
D23*
G01X20850Y24511D02*
G01X20840Y24504D01*
G01X20830Y24497D01*
G01X20820Y24490D01*
G01X20811Y24482D01*
G01X20801Y24475D01*
G01X20792Y24467D01*
G01X20782Y24460D01*
G01X20773Y24452D01*
G01X20764Y24444D01*
G01X20755Y24435D01*
G01X20746Y24427D01*
G01X20738Y24418D01*
G01X20729Y24410D01*
G01X20721Y24401D01*
G01X20712Y24392D01*
G01X20704Y24383D01*
G01X20696Y24374D01*
G01X20688Y24365D01*
G01X20680Y24356D01*
G01X20673Y24346D01*
G01X20665Y24337D01*
G01X20658Y24327D01*
G01X20651Y24317D01*
G01X20644Y24307D01*
G01X20637Y24297D01*
G01X20630Y24287D01*
G01X20624Y24277D01*
G01X20617Y24266D01*
G01X20611Y24256D01*
G01X20605Y24246D01*
G01X20599Y24235D01*
G01X20593Y24224D01*
G01X20588Y24213D01*
G01X20582Y24203D01*
G01X20577Y24192D01*
G01X20572Y24181D01*
G01X20567Y24170D01*
G01X20562Y24158D01*
G01X20558Y24147D01*
G01X20553Y24136D01*
G01X20549Y24124D01*
G01X20545Y24113D01*
G01X20541Y24101D01*
G01X20537Y24090D01*
G01X20534Y24078D01*
G01X20530Y24067D01*
G01X20527Y24055D01*
G01X20524Y24043D01*
G01X20521Y24031D01*
G01X20519Y24019D01*
G01X20516Y24008D01*
G01X20514Y23996D01*
G01X20512Y23984D01*
G01X20510Y23972D01*
G01X20508Y23960D01*
G01X20506Y23948D01*
G01X20505Y23936D01*
G01X20504Y23924D01*
G01X20503Y23911D01*
G01X20502Y23899D01*
G01X20501Y23887D01*
G01X20501Y23875D01*
G01X20500Y23863D01*
G01X20500Y23851D01*
D23*
G01X20850Y24067D02*
G01X20848Y24064D01*
G01X20847Y24061D01*
G01X20846Y24057D01*
G01X20844Y24054D01*
G01X20843Y24051D01*
G01X20841Y24048D01*
G01X20840Y24045D01*
G01X20839Y24041D01*
G01X20837Y24038D01*
G01X20836Y24035D01*
G01X20835Y24032D01*
G01X20833Y24028D01*
G01X20832Y24025D01*
G01X20831Y24022D01*
G01X20830Y24018D01*
G01X20828Y24015D01*
G01X20827Y24012D01*
G01X20826Y24008D01*
G01X20825Y24005D01*
G01X20824Y24002D01*
G01X20823Y23998D01*
G01X20822Y23995D01*
G01X20821Y23992D01*
G01X20820Y23988D01*
G01X20819Y23985D01*
G01X20818Y23982D01*
G01X20817Y23978D01*
G01X20816Y23975D01*
G01X20815Y23971D01*
G01X20815Y23968D01*
G01X20814Y23964D01*
G01X20813Y23961D01*
G01X20812Y23958D01*
G01X20811Y23954D01*
G01X20811Y23951D01*
G01X20810Y23947D01*
G01X20809Y23944D01*
G01X20809Y23940D01*
G01X20808Y23937D01*
G01X20807Y23933D01*
G01X20807Y23930D01*
G01X20806Y23927D01*
G01X20806Y23923D01*
G01X20805Y23920D01*
G01X20805Y23916D01*
G01X20804Y23913D01*
G01X20804Y23909D01*
G01X20804Y23906D01*
G01X20803Y23902D01*
G01X20803Y23899D01*
G01X20802Y23895D01*
G01X20802Y23892D01*
G01X20802Y23888D01*
G01X20802Y23885D01*
G01X20801Y23881D01*
G01X20801Y23878D01*
G01X20801Y23874D01*
G01X20801Y23871D01*
G01X20801Y23867D01*
G01X20801Y23864D01*
G01X20801Y23860D01*
G01X20800Y23857D01*
G01X20800Y23853D01*
G01X20800Y23850D01*
D23*
G01X21750Y24067D02*
G01X21752Y24064D01*
G01X21753Y24061D01*
G01X21754Y24057D01*
G01X21756Y24054D01*
G01X21757Y24051D01*
G01X21759Y24048D01*
G01X21760Y24045D01*
G01X21761Y24041D01*
G01X21763Y24038D01*
G01X21764Y24035D01*
G01X21765Y24032D01*
G01X21767Y24028D01*
G01X21768Y24025D01*
G01X21769Y24022D01*
G01X21770Y24018D01*
G01X21772Y24015D01*
G01X21773Y24012D01*
G01X21774Y24008D01*
G01X21775Y24005D01*
G01X21776Y24002D01*
G01X21777Y23998D01*
G01X21778Y23995D01*
G01X21779Y23992D01*
G01X21780Y23988D01*
G01X21781Y23985D01*
G01X21782Y23982D01*
G01X21783Y23978D01*
G01X21784Y23975D01*
G01X21785Y23971D01*
G01X21785Y23968D01*
G01X21786Y23964D01*
G01X21787Y23961D01*
G01X21788Y23958D01*
G01X21789Y23954D01*
G01X21789Y23951D01*
G01X21790Y23947D01*
G01X21791Y23944D01*
G01X21791Y23940D01*
G01X21792Y23937D01*
G01X21793Y23933D01*
G01X21793Y23930D01*
G01X21794Y23927D01*
G01X21794Y23923D01*
G01X21795Y23920D01*
G01X21795Y23916D01*
G01X21796Y23913D01*
G01X21796Y23909D01*
G01X21796Y23906D01*
G01X21797Y23902D01*
G01X21797Y23899D01*
G01X21798Y23895D01*
G01X21798Y23892D01*
G01X21798Y23888D01*
G01X21798Y23885D01*
G01X21799Y23881D01*
G01X21799Y23878D01*
G01X21799Y23874D01*
G01X21799Y23871D01*
G01X21799Y23867D01*
G01X21799Y23864D01*
G01X21799Y23860D01*
G01X21800Y23857D01*
G01X21800Y23853D01*
G01X21800Y23850D01*
D15*
G01X20450Y24750D02*
G01X20850Y24750D01*
D15*
G01X20450Y24750D02*
G01X20448Y24750D01*
G01X20445Y24750D01*
G01X20443Y24750D01*
G01X20440Y24750D01*
G01X20438Y24749D01*
G01X20435Y24749D01*
G01X20433Y24749D01*
G01X20430Y24748D01*
G01X20428Y24748D01*
G01X20426Y24747D01*
G01X20423Y24746D01*
G01X20421Y24746D01*
G01X20419Y24745D01*
G01X20416Y24744D01*
G01X20414Y24743D01*
G01X20412Y24742D01*
G01X20409Y24741D01*
G01X20407Y24740D01*
G01X20405Y24739D01*
G01X20403Y24738D01*
G01X20401Y24737D01*
G01X20399Y24736D01*
G01X20397Y24734D01*
G01X20394Y24733D01*
G01X20392Y24732D01*
G01X20390Y24730D01*
G01X20388Y24729D01*
G01X20387Y24727D01*
G01X20385Y24726D01*
G01X20383Y24724D01*
G01X20381Y24722D01*
G01X20379Y24721D01*
G01X20378Y24719D01*
G01X20376Y24717D01*
G01X20374Y24715D01*
G01X20373Y24713D01*
G01X20371Y24712D01*
G01X20370Y24710D01*
G01X20368Y24708D01*
G01X20367Y24706D01*
G01X20366Y24703D01*
G01X20364Y24701D01*
G01X20363Y24699D01*
G01X20362Y24697D01*
G01X20361Y24695D01*
G01X20360Y24693D01*
G01X20359Y24691D01*
G01X20358Y24688D01*
G01X20357Y24686D01*
G01X20356Y24684D01*
G01X20355Y24681D01*
G01X20354Y24679D01*
G01X20354Y24677D01*
G01X20353Y24674D01*
G01X20352Y24672D01*
G01X20352Y24670D01*
G01X20351Y24667D01*
G01X20351Y24665D01*
G01X20351Y24662D01*
G01X20350Y24660D01*
G01X20350Y24657D01*
G01X20350Y24655D01*
G01X20350Y24652D01*
G01X20350Y24650D01*
D23*
G01X22100Y23850D02*
G01X22100Y21150D01*
D15*
G01X22250Y20350D02*
G01X22250Y24650D01*
D15*
G01X22250Y20350D02*
G01X22250Y20348D01*
G01X22250Y20345D01*
G01X22250Y20343D01*
G01X22250Y20340D01*
G01X22249Y20338D01*
G01X22249Y20335D01*
G01X22249Y20333D01*
G01X22248Y20330D01*
G01X22248Y20328D01*
G01X22247Y20326D01*
G01X22246Y20323D01*
G01X22246Y20321D01*
G01X22245Y20319D01*
G01X22244Y20316D01*
G01X22243Y20314D01*
G01X22242Y20312D01*
G01X22241Y20309D01*
G01X22240Y20307D01*
G01X22239Y20305D01*
G01X22238Y20303D01*
G01X22237Y20301D01*
G01X22236Y20299D01*
G01X22234Y20297D01*
G01X22233Y20294D01*
G01X22232Y20292D01*
G01X22230Y20290D01*
G01X22229Y20288D01*
G01X22227Y20287D01*
G01X22226Y20285D01*
G01X22224Y20283D01*
G01X22222Y20281D01*
G01X22221Y20279D01*
G01X22219Y20278D01*
G01X22217Y20276D01*
G01X22215Y20274D01*
G01X22213Y20273D01*
G01X22212Y20271D01*
G01X22210Y20270D01*
G01X22208Y20268D01*
G01X22206Y20267D01*
G01X22203Y20266D01*
G01X22201Y20264D01*
G01X22199Y20263D01*
G01X22197Y20262D01*
G01X22195Y20261D01*
G01X22193Y20260D01*
G01X22191Y20259D01*
G01X22188Y20258D01*
G01X22186Y20257D01*
G01X22184Y20256D01*
G01X22181Y20255D01*
G01X22179Y20254D01*
G01X22177Y20254D01*
G01X22174Y20253D01*
G01X22172Y20252D01*
G01X22170Y20252D01*
G01X22167Y20251D01*
G01X22165Y20251D01*
G01X22162Y20251D01*
G01X22160Y20250D01*
G01X22157Y20250D01*
G01X22155Y20250D01*
G01X22152Y20250D01*
G01X22150Y20250D01*
D15*
G01X22150Y24750D02*
G01X22152Y24750D01*
G01X22155Y24750D01*
G01X22157Y24750D01*
G01X22160Y24750D01*
G01X22162Y24749D01*
G01X22165Y24749D01*
G01X22167Y24749D01*
G01X22170Y24748D01*
G01X22172Y24748D01*
G01X22174Y24747D01*
G01X22177Y24746D01*
G01X22179Y24746D01*
G01X22181Y24745D01*
G01X22184Y24744D01*
G01X22186Y24743D01*
G01X22188Y24742D01*
G01X22191Y24741D01*
G01X22193Y24740D01*
G01X22195Y24739D01*
G01X22197Y24738D01*
G01X22199Y24737D01*
G01X22201Y24736D01*
G01X22203Y24734D01*
G01X22206Y24733D01*
G01X22208Y24732D01*
G01X22210Y24730D01*
G01X22212Y24729D01*
G01X22213Y24727D01*
G01X22215Y24726D01*
G01X22217Y24724D01*
G01X22219Y24722D01*
G01X22221Y24721D01*
G01X22222Y24719D01*
G01X22224Y24717D01*
G01X22226Y24715D01*
G01X22227Y24713D01*
G01X22229Y24712D01*
G01X22230Y24710D01*
G01X22232Y24708D01*
G01X22233Y24706D01*
G01X22234Y24703D01*
G01X22236Y24701D01*
G01X22237Y24699D01*
G01X22238Y24697D01*
G01X22239Y24695D01*
G01X22240Y24693D01*
G01X22241Y24691D01*
G01X22242Y24688D01*
G01X22243Y24686D01*
G01X22244Y24684D01*
G01X22245Y24681D01*
G01X22246Y24679D01*
G01X22246Y24677D01*
G01X22247Y24674D01*
G01X22248Y24672D01*
G01X22248Y24670D01*
G01X22249Y24667D01*
G01X22249Y24665D01*
G01X22249Y24662D01*
G01X22250Y24660D01*
G01X22250Y24657D01*
G01X22250Y24655D01*
G01X22250Y24652D01*
G01X22250Y24650D01*
D15*
G01X21550Y22600D02*
G01X21050Y22600D01*
D15*
G01X21050Y22600D02*
G01X21050Y22400D01*
D15*
G01X21050Y22400D02*
G01X21550Y22400D01*
D15*
G01X21550Y22400D02*
G01X21550Y22600D01*
D15*
G01X21550Y22750D02*
G01X21300Y22750D01*
D15*
G01X21300Y22750D02*
G01X21050Y22750D01*
D23*
G01X21300Y22750D02*
G01X21300Y22900D01*
D15*
G01X21550Y22250D02*
G01X21300Y22250D01*
D15*
G01X21300Y22250D02*
G01X21050Y22250D01*
D23*
G01X21300Y22250D02*
G01X21300Y22100D01*
D13*
G01X-01350Y13450D02*
G01X-01350Y12550D01*
D13*
G01X-01350Y12550D02*
G01X-00700Y12550D01*
D13*
G01X00000Y13450D02*
G01X00650Y13450D01*
D13*
G01X00650Y13450D02*
G01X00650Y12550D01*
D13*
G01X00650Y12550D02*
G01X00000Y12550D01*
D13*
G01X-00700Y13450D02*
G01X-01350Y13450D01*
D13*
G01X-00757Y12879D02*
G01X-00757Y13079D01*
D13*
G01X-00757Y13021D02*
G01X-00743Y13050D01*
G01X-00729Y13064D01*
G01X-00700Y13079D01*
G01X-00671Y13079D01*
D13*
G01X-00643Y12850D02*
G01X-00414Y12850D01*
D13*
G01X-00214Y12879D02*
G01X-00214Y13179D01*
D13*
G01X-00214Y12893D02*
G01X-00243Y12879D01*
G01X-00300Y12879D01*
G01X-00329Y12893D01*
G01X-00343Y12907D01*
G01X-00357Y12936D01*
G01X-00357Y13021D01*
G01X-00343Y13050D01*
G01X-00329Y13064D01*
G01X-00300Y13079D01*
G01X-00243Y13079D01*
G01X-00214Y13064D01*
D13*
G01X00057Y12879D02*
G01X00057Y13036D01*
G01X00043Y13064D01*
G01X00014Y13079D01*
G01X-00043Y13079D01*
G01X-00071Y13064D01*
D13*
G01X00057Y12893D02*
G01X00029Y12879D01*
G01X-00043Y12879D01*
G01X-00071Y12893D01*
G01X-00086Y12921D01*
G01X-00086Y12950D01*
G01X-00071Y12979D01*
G01X-00043Y12993D01*
G01X00029Y12993D01*
G01X00057Y13007D01*
D13*
G01X02950Y13450D02*
G01X02950Y12550D01*
D13*
G01X02950Y12550D02*
G01X03600Y12550D01*
D13*
G01X04300Y13450D02*
G01X04950Y13450D01*
D13*
G01X04950Y13450D02*
G01X04950Y12550D01*
D13*
G01X04950Y12550D02*
G01X04300Y12550D01*
D13*
G01X03600Y13450D02*
G01X02950Y13450D01*
D13*
G01X03607Y12879D02*
G01X03607Y13079D01*
D13*
G01X03607Y13021D02*
G01X03621Y13050D01*
G01X03636Y13064D01*
G01X03664Y13079D01*
G01X03693Y13079D01*
D13*
G01X03721Y12850D02*
G01X03950Y12850D01*
D13*
G01X04150Y12893D02*
G01X04121Y12879D01*
G01X04064Y12879D01*
G01X04036Y12893D01*
G01X04021Y12907D01*
G01X04007Y12936D01*
G01X04007Y13021D01*
G01X04021Y13050D01*
G01X04036Y13064D01*
G01X04064Y13079D01*
G01X04121Y13079D01*
G01X04150Y13064D01*
D13*
G01X04321Y12879D02*
G01X04293Y12893D01*
G01X04279Y12921D01*
G01X04279Y13179D01*
M02*
