M48
;DRILL file {brdgerber.py (2021-04-12 03:08:55) date 2021-04-12 03:08:55}
;FORMAT={-:-/ absolute / inch / decimal}
FMAT,2
INCH,TZ
T3C00000.10000
T4C00000.03140
T1C00000.03200
T2C00000.02500
%
G90
G05
M72
T3
X00000.54400Y00001.87500
X00000.17000Y00002.24900
X-0000.20400Y00001.87500
X00000.17000Y00001.50100
X00000.00298Y00001.70798
X00000.33702Y00001.70798
X00000.33702Y00002.04202
X00000.00298Y00002.04202
T0
T4
X00002.44500Y00002.32000
X00002.54500Y00002.32000
X00002.44500Y00002.22000
X00002.54500Y00002.22000
X00002.44500Y00002.12000
X00002.54500Y00002.12000
T0
T1
X00002.33000Y00002.45000
X00002.43000Y00002.45000
X00001.51500Y00001.33500
X00001.61500Y00001.33500
X00001.71500Y00001.33500
X00001.81500Y00001.33500
X00002.51500Y00001.55500
X00002.51500Y00001.45500
X00002.51500Y00001.35500
X00001.54000Y00002.46000
X00001.64000Y00002.46000
X00001.74000Y00002.46000
X00000.42000Y00002.32000
X00000.52000Y00002.32000
X-0000.39000Y00001.97000
X-0000.39000Y00001.87000
X-0000.39000Y00001.77000
X00002.51500Y00001.94000
X00002.51500Y00001.84000
X00002.51500Y00001.74000
T0
T2
X00001.28000Y00002.01500
X00000.94000Y00002.39000
X00000.74000Y00001.56000
X00001.27500Y00001.78500
X00000.94500Y00001.63500
X00000.81500Y00001.43500
X00001.12000Y00002.39000
X00001.92000Y00001.39500
X00002.42000Y00001.62000
X00001.00500Y00002.39000
X00000.16500Y00002.02500
X00000.32000Y00002.37000
X00001.38000Y00001.75500
X00001.59000Y00001.77500
X00001.86000Y00001.42500
X00001.81000Y00001.46500
X00001.71000Y00001.75000
X00000.98500Y00002.45500
X00001.37000Y00002.33000
X00001.70000Y00001.86000
X00001.41500Y00001.34500
X00000.96500Y00001.52500
X00000.68500Y00001.35500
X00002.34500Y00001.36500
X00002.36000Y00001.24000
X00000.57000Y00001.99000
X00001.45000Y00001.99000
X00001.27500Y00002.27000
X00001.48000Y00002.34500
X00001.69000Y00001.55500
X00001.81500Y00001.61500
X00000.86500Y00001.51000
X00001.76500Y00001.66500
X00001.86000Y00001.74500
X00001.88500Y00002.20500
X00001.80500Y00001.71000
X00001.78000Y00001.95000
X00001.65500Y00002.15500
X00001.88000Y00001.95500
X00001.94500Y00001.92000
X00001.85500Y00002.44500
X00001.40000Y00002.45500
X00001.99500Y00001.63500
X00002.31000Y00002.28500
X00000.47000Y00001.42500
T0
M30
