G04 ( created by brdgerber.py ( brdgerber.py v0.1 2014-03-12 ) ) date 2021-04-12 03:08:53 EDT*
G04 Gerber Fmt 3.4, Leading zero omitted, Abs format*
%MOIN*%
%FSLAX34Y34*%
G01*
G70*
G90*
G04 APERTURE LIST*
%ADD21R,0.0800X0.0600*%
%ADD17R,0.0945X0.1575*%
%ADD23R,0.0760X0.2100*%
%ADD11R,0.0550X0.0550*%
%ADD10R,0.0866X0.0236*%
%ADD14R,0.0260X0.0800*%
%ADD20C,0.1500*%
%ADD12C,0.0550*%
%ADD25R,0.0600X0.0800*%
%ADD18R,0.0177X0.0787*%
%ADD19R,0.0787X0.0177*%
%ADD15R,0.0472X0.0275*%
%ADD13R,0.0629X0.0709*%
%ADD16R,0.0709X0.0629*%
%ADD24C,0.1200*%
%ADD22C,0.0471*%
G04 APERTURE END LIST*
G54D21*
D11*
X23300Y24500D03*
D12*
X24300Y24500D03*
D11*
X15150Y13350D03*
D12*
X16150Y13350D03*
D12*
X17150Y13350D03*
D12*
X18150Y13350D03*
D11*
X25150Y15550D03*
D12*
X25150Y14550D03*
D12*
X25150Y13550D03*
D11*
X15400Y24600D03*
D12*
X16400Y24600D03*
D12*
X17400Y24600D03*
D11*
X04200Y23200D03*
D12*
X05200Y23200D03*
D11*
X-03900Y19700D03*
D12*
X-03900Y18700D03*
D12*
X-03900Y17700D03*
D11*
X25150Y19400D03*
D12*
X25150Y18400D03*
D12*
X25150Y17400D03*
D20*
G01X05440Y18750D02*
G01X05440Y18750D01*
D20*
G01X01700Y22490D02*
G01X01700Y22490D01*
D20*
G01X-02040Y18750D02*
G01X-02040Y18750D01*
D20*
G01X01700Y15010D02*
G01X01700Y15010D01*
D22*
G01X24450Y23200D02*
G01X24450Y23200D01*
D22*
G01X25450Y23200D02*
G01X25450Y23200D01*
D22*
G01X24450Y22200D02*
G01X24450Y22200D01*
D22*
G01X25450Y22200D02*
G01X25450Y22200D01*
D22*
G01X24450Y21200D02*
G01X24450Y21200D01*
D22*
G01X25450Y21200D02*
G01X25450Y21200D01*
D24*
G01X00030Y17080D02*
G01X00030Y17080D01*
D24*
G01X03370Y17080D02*
G01X03370Y17080D01*
D24*
G01X03370Y20420D02*
G01X03370Y20420D01*
D24*
G01X00030Y20420D02*
G01X00030Y20420D01*
M02*
