G04 ( created by brdgerber.py ( brdgerber.py v0.1 2014-03-12 ) ) date 2021-04-12 03:08:53 EDT*
G04 Gerber Fmt 3.4, Leading zero omitted, Abs format*
%MOIN*%
%FSLAX34Y34*%
G01*
G70*
G90*
G04 APERTURE LIST*
%ADD16R,0.0709X0.0629*%
%ADD13R,0.0629X0.0709*%
%ADD23R,0.0760X0.2100*%
%ADD21R,0.0800X0.0600*%
%ADD18R,0.0177X0.0787*%
%ADD12C,0.0550*%
%ADD24C,0.1200*%
%ADD14R,0.0260X0.0800*%
%ADD20C,0.1500*%
%ADD22C,0.0471*%
%ADD25R,0.0600X0.0800*%
%ADD17R,0.0945X0.1575*%
%ADD15R,0.0472X0.0275*%
%ADD10R,0.0866X0.0236*%
%ADD19R,0.0787X0.0177*%
%ADD11R,0.0550X0.0550*%
G04 APERTURE END LIST*
G54D16*
D10*
X00677Y19000D03*
D10*
X02723Y19000D03*
D10*
X00677Y19500D03*
D10*
X00677Y18500D03*
D10*
X00677Y18000D03*
D10*
X02723Y19500D03*
D10*
X02723Y18500D03*
D10*
X02723Y18000D03*
G36*
G01X-02324Y21228D02*
G01X-02768Y20783D01*
G01X-02267Y20282D01*
G01X-01822Y20726D01*
G01X-02324Y21228D01*
G37*
G36*
G01X-01533Y22018D02*
G01X-01978Y21574D01*
G01X-01476Y21072D01*
G01X-01032Y21517D01*
G01X-01533Y22018D01*
G37*
D11*
X23300Y24500D03*
D12*
X24300Y24500D03*
D11*
X15150Y13350D03*
D12*
X16150Y13350D03*
D12*
X17150Y13350D03*
D12*
X18150Y13350D03*
G36*
G01X-01422Y16974D02*
G01X-01867Y17418D01*
G01X-02368Y16917D01*
G01X-01924Y16472D01*
G01X-01422Y16974D01*
G37*
G36*
G01X-00632Y16183D02*
G01X-01076Y16628D01*
G01X-01578Y16126D01*
G01X-01133Y15682D01*
G01X-00632Y16183D01*
G37*
D13*
X19209Y18450D03*
D13*
X18091Y18450D03*
D11*
X25150Y15550D03*
D12*
X25150Y14550D03*
D12*
X25150Y13550D03*
D11*
X15400Y24600D03*
D12*
X16400Y24600D03*
D12*
X17400Y24600D03*
D14*
X11950Y23000D03*
D14*
X11450Y23000D03*
D14*
X10950Y23000D03*
D14*
X10450Y23000D03*
D14*
X09950Y23000D03*
D14*
X09450Y23000D03*
D14*
X08950Y23000D03*
D14*
X08450Y23000D03*
D14*
X08450Y17400D03*
D14*
X08950Y17400D03*
D14*
X09450Y17400D03*
D14*
X09950Y17400D03*
D14*
X10450Y17400D03*
D14*
X10950Y17400D03*
D14*
X11450Y17400D03*
D14*
X11950Y17400D03*
D14*
X07950Y23000D03*
D14*
X07450Y23000D03*
D14*
X07950Y17400D03*
D14*
X07450Y17400D03*
D13*
X09041Y14150D03*
D13*
X10159Y14150D03*
D15*
X12778Y13150D03*
D15*
X11322Y13150D03*
D11*
X04200Y23200D03*
D12*
X05200Y23200D03*
D16*
X11250Y15409D03*
D16*
X11250Y14291D03*
D16*
X13301Y15459D03*
D16*
X13301Y14341D03*
D13*
X06409Y21500D03*
D13*
X05291Y21500D03*
D11*
X-03900Y19700D03*
D12*
X-03900Y18700D03*
D12*
X-03900Y17700D03*
D15*
X10278Y13150D03*
D15*
X08822Y13150D03*
D17*
X16000Y19625D03*
D17*
X16000Y22775D03*
D18*
X19957Y17846D03*
D18*
X20272Y17846D03*
D18*
X20587Y17846D03*
D18*
X20902Y17846D03*
D18*
X21217Y17846D03*
D18*
X21532Y17846D03*
D18*
X21847Y17846D03*
D18*
X22162Y17846D03*
D18*
X22160Y14080D03*
D18*
X19950Y14080D03*
D18*
X20270Y14080D03*
D18*
X20590Y14080D03*
D18*
X20900Y14080D03*
D18*
X21220Y14080D03*
D18*
X21530Y14080D03*
D18*
X21850Y14080D03*
D19*
X22950Y17062D03*
D19*
X22950Y16748D03*
D19*
X22950Y16432D03*
D19*
X22950Y16118D03*
D19*
X22950Y15802D03*
D19*
X22950Y15488D03*
D19*
X22950Y15172D03*
D19*
X22950Y14858D03*
D19*
X19170Y17060D03*
D19*
X19170Y16750D03*
D19*
X19170Y16430D03*
D19*
X19170Y16120D03*
D19*
X19170Y15810D03*
D19*
X19170Y15490D03*
D19*
X19170Y15170D03*
D19*
X19170Y14850D03*
D11*
X25150Y19400D03*
D12*
X25150Y18400D03*
D12*
X25150Y17400D03*
D13*
X21409Y13100D03*
D13*
X20291Y13100D03*
D20*
G01X05440Y18750D02*
G01X05440Y18750D01*
D20*
G01X01700Y22490D02*
G01X01700Y22490D01*
D20*
G01X-02040Y18750D02*
G01X-02040Y18750D01*
D20*
G01X01700Y15010D02*
G01X01700Y15010D01*
D21*
X14650Y15600D03*
D21*
X14650Y16900D03*
D16*
X19400Y23141D03*
D16*
X19400Y24259D03*
D22*
G01X24450Y23200D02*
G01X24450Y23200D01*
D22*
G01X25450Y23200D02*
G01X25450Y23200D01*
D22*
G01X24450Y22200D02*
G01X24450Y22200D01*
D22*
G01X25450Y22200D02*
G01X25450Y22200D01*
D22*
G01X24450Y21200D02*
G01X24450Y21200D01*
D22*
G01X25450Y21200D02*
G01X25450Y21200D01*
D16*
X19450Y21209D03*
D16*
X19450Y20091D03*
D23*
X21300Y24400D03*
D23*
X21300Y20600D03*
D24*
G01X00030Y17080D02*
G01X00030Y17080D01*
D24*
G01X03370Y17080D02*
G01X03370Y17080D01*
D24*
G01X03370Y20420D02*
G01X03370Y20420D01*
D24*
G01X00030Y20420D02*
G01X00030Y20420D01*
D25*
X-01000Y13000D03*
D25*
X00300Y13000D03*
D25*
X03300Y13000D03*
D25*
X04600Y13000D03*
M02*
