G04 ( created by brdgerber.py ( brdgerber.py v0.1 2014-03-12 ) ) date 2020-09-23 13:36:40 EDT*
G04 Gerber Fmt 3.4, Leading zero omitted, Abs format*
%MOIN*%
%FSLAX34Y34*%
G01*
G70*
G90*
G04 APERTURE LIST*
%ADD19C,0.1500*%
%ADD17C,0.0320*%
%ADD12C,0.0000*%
%ADD15R,0.0629X0.0709*%
%ADD13C,0.0080*%
%ADD11R,0.0236X0.0866*%
%ADD14C,0.0050*%
%ADD10C,0.0200*%
%ADD16C,0.0060*%
%ADD18C,0.0031*%
G04 APERTURE END LIST*
G54D19*
D11*
X-31150Y11527D03*
D11*
X-31150Y13573D03*
D11*
X-31650Y11527D03*
D11*
X-30650Y11527D03*
D11*
X-30150Y11527D03*
D11*
X-31650Y13573D03*
D11*
X-30650Y13573D03*
D11*
X-30150Y13573D03*
D15*
X-30391Y09150D03*
D15*
X-31509Y09150D03*
D17*
G01X-33210Y12062D02*
G01X-33390Y12062D01*
D17*
G01X-33210Y12554D02*
G01X-33390Y12554D01*
D17*
G01X-33210Y13046D02*
G01X-33390Y13046D01*
D17*
G01X-33210Y13538D02*
G01X-33390Y13538D01*
D15*
X-30341Y10050D03*
D15*
X-31459Y10050D03*
D19*
G01X-33440Y15449D02*
G01X-33440Y15449D01*
D19*
G01X-33449Y10160D02*
G01X-33449Y10160D01*
D19*
G01X-28160Y10151D02*
G01X-28160Y10151D01*
D19*
G01X-28151Y15440D02*
G01X-28151Y15440D01*
D10*
G01X-32100Y11100D02*
G01X-31650Y11550D01*
D10*
G01X-32050Y12900D02*
G01X-32700Y13550D01*
D10*
G01X-32700Y13550D02*
G01X-33300Y13550D01*
D10*
G01X-31150Y13050D02*
G01X-31300Y12900D01*
D10*
G01X-31150Y13550D02*
G01X-31150Y13050D01*
D10*
G01X-31300Y12900D02*
G01X-32050Y12900D01*
D10*
G01X-33300Y12050D02*
G01X-32550Y12050D01*
D10*
G01X-32550Y12050D02*
G01X-32300Y12300D01*
D10*
G01X-32300Y12300D02*
G01X-30550Y12300D01*
D10*
G01X-30550Y12300D02*
G01X-30150Y11900D01*
D10*
G01X-30150Y11900D02*
G01X-30150Y11550D01*
D10*
G01X-33300Y12550D02*
G01X-33500Y12550D01*
D10*
G01X-33500Y12550D02*
G01X-33800Y12250D01*
D10*
G01X-33800Y12250D02*
G01X-33800Y11650D01*
D10*
G01X-33800Y11650D02*
G01X-33600Y11450D01*
D10*
G01X-33600Y11450D02*
G01X-31750Y11450D01*
D10*
G01X-31750Y11450D02*
G01X-31650Y11550D01*
D10*
G01X-33300Y13050D02*
G01X-33000Y13050D01*
D10*
G01X-33000Y13050D02*
G01X-32550Y12600D01*
D10*
G01X-32550Y12600D02*
G01X-30850Y12600D01*
D10*
G01X-30850Y12600D02*
G01X-30650Y12800D01*
D10*
G01X-30650Y12800D02*
G01X-30650Y13550D01*
D10*
G01X-31150Y11550D02*
G01X-31150Y10950D01*
D10*
G01X-31150Y10950D02*
G01X-31450Y10650D01*
D10*
G01X-31450Y10650D02*
G01X-31450Y10100D01*
D10*
G01X-30150Y11550D02*
G01X-30150Y10300D01*
D10*
G01X-30150Y10300D02*
G01X-30350Y10100D01*
D10*
G01X-30350Y09150D02*
G01X-30100Y09150D01*
D10*
G01X-30100Y09150D02*
G01X-29750Y09500D01*
D10*
G01X-29750Y09500D02*
G01X-29750Y11150D01*
D10*
G01X-29750Y11150D02*
G01X-30150Y11550D01*
D10*
G01X-31450Y09150D02*
G01X-31850Y09150D01*
D10*
G01X-31850Y09150D02*
G01X-32100Y09400D01*
D10*
G01X-32100Y09400D02*
G01X-32100Y11100D01*
M02*
