G04 ( created by brdgerber.py ( brdgerber.py v0.1 2014-03-12 ) ) date 2020-09-23 13:36:39 EDT*
G04 Gerber Fmt 3.4, Leading zero omitted, Abs format*
%MOIN*%
%FSLAX34Y34*%
G01*
G70*
G90*
G04 APERTURE LIST*
%ADD19C,0.1500*%
%ADD17C,0.0320*%
%ADD12C,0.0000*%
%ADD15R,0.0629X0.0709*%
%ADD13C,0.0080*%
%ADD11R,0.0236X0.0866*%
%ADD14C,0.0050*%
%ADD10C,0.0200*%
%ADD16C,0.0060*%
%ADD18C,0.0031*%
G04 APERTURE END LIST*
G54D19*
D10*
G01X-35450Y10950D02*
G01X-35450Y10950D01*
G01X-35450Y10919D01*
G01X-35449Y10889D01*
G01X-35448Y10858D01*
G01X-35447Y10827D01*
G01X-35445Y10797D01*
G01X-35443Y10766D01*
G01X-35441Y10736D01*
G01X-35438Y10705D01*
G01X-35435Y10674D01*
G01X-35431Y10644D01*
G01X-35427Y10614D01*
G01X-35423Y10583D01*
G01X-35418Y10553D01*
G01X-35413Y10523D01*
G01X-35408Y10492D01*
G01X-35402Y10462D01*
G01X-35396Y10432D01*
G01X-35389Y10402D01*
G01X-35382Y10372D01*
G01X-35375Y10343D01*
G01X-35367Y10313D01*
G01X-35359Y10283D01*
G01X-35351Y10254D01*
G01X-35342Y10224D01*
G01X-35333Y10195D01*
G01X-35324Y10166D01*
G01X-35314Y10137D01*
G01X-35304Y10108D01*
G01X-35293Y10079D01*
G01X-35282Y10050D01*
G01X-35271Y10022D01*
G01X-35260Y09993D01*
G01X-35248Y09965D01*
G01X-35236Y09937D01*
G01X-35223Y09909D01*
G01X-35210Y09881D01*
G01X-35197Y09853D01*
G01X-35183Y09826D01*
G01X-35169Y09799D01*
G01X-35155Y09772D01*
G01X-35140Y09745D01*
G01X-35125Y09718D01*
G01X-35110Y09691D01*
G01X-35094Y09665D01*
G01X-35078Y09639D01*
G01X-35062Y09613D01*
G01X-35046Y09587D01*
G01X-35029Y09561D01*
G01X-35011Y09536D01*
G01X-34994Y09510D01*
G01X-34976Y09486D01*
G01X-34958Y09461D01*
G01X-34940Y09436D01*
G01X-34921Y09412D01*
G01X-34902Y09388D01*
G01X-34883Y09364D01*
G01X-34863Y09340D01*
G01X-34843Y09317D01*
G01X-34823Y09294D01*
G01X-34802Y09271D01*
G01X-34782Y09248D01*
G01X-34761Y09226D01*
G01X-34739Y09204D01*
G01X-34718Y09182D01*
G01X-34696Y09161D01*
G01X-34674Y09139D01*
G01X-34652Y09118D01*
G01X-34629Y09098D01*
G01X-34606Y09077D01*
G01X-34583Y09057D01*
G01X-34560Y09037D01*
G01X-34536Y09017D01*
G01X-34512Y08998D01*
G01X-34488Y08979D01*
G01X-34464Y08960D01*
G01X-34439Y08942D01*
G01X-34414Y08924D01*
G01X-34390Y08906D01*
G01X-34364Y08889D01*
G01X-34339Y08871D01*
G01X-34313Y08854D01*
G01X-34287Y08838D01*
G01X-34261Y08822D01*
G01X-34235Y08806D01*
G01X-34209Y08790D01*
G01X-34182Y08775D01*
G01X-34155Y08760D01*
G01X-34128Y08745D01*
G01X-34101Y08731D01*
G01X-34074Y08717D01*
G01X-34047Y08703D01*
G01X-34019Y08690D01*
G01X-33991Y08677D01*
G01X-33963Y08664D01*
G01X-33935Y08652D01*
G01X-33907Y08640D01*
G01X-33878Y08629D01*
G01X-33850Y08618D01*
G01X-33821Y08607D01*
G01X-33792Y08596D01*
G01X-33763Y08586D01*
G01X-33734Y08576D01*
G01X-33705Y08567D01*
G01X-33676Y08558D01*
G01X-33646Y08549D01*
G01X-33617Y08541D01*
G01X-33587Y08533D01*
G01X-33557Y08525D01*
G01X-33528Y08518D01*
G01X-33498Y08511D01*
G01X-33468Y08504D01*
G01X-33438Y08498D01*
G01X-33408Y08492D01*
G01X-33377Y08487D01*
G01X-33347Y08482D01*
G01X-33317Y08477D01*
G01X-33286Y08473D01*
G01X-33256Y08469D01*
G01X-33226Y08465D01*
G01X-33195Y08462D01*
G01X-33164Y08459D01*
G01X-33134Y08457D01*
G01X-33103Y08455D01*
G01X-33073Y08453D01*
G01X-33042Y08452D01*
G01X-33011Y08451D01*
G01X-32981Y08450D01*
G01X-32950Y08450D01*
D10*
G01X-28600Y08450D02*
G01X-28600Y08450D01*
G01X-28569Y08450D01*
G01X-28539Y08451D01*
G01X-28508Y08452D01*
G01X-28477Y08453D01*
G01X-28447Y08455D01*
G01X-28416Y08457D01*
G01X-28386Y08459D01*
G01X-28355Y08462D01*
G01X-28324Y08465D01*
G01X-28294Y08469D01*
G01X-28264Y08473D01*
G01X-28233Y08477D01*
G01X-28203Y08482D01*
G01X-28173Y08487D01*
G01X-28142Y08492D01*
G01X-28112Y08498D01*
G01X-28082Y08504D01*
G01X-28052Y08511D01*
G01X-28022Y08518D01*
G01X-27993Y08525D01*
G01X-27963Y08533D01*
G01X-27933Y08541D01*
G01X-27904Y08549D01*
G01X-27874Y08558D01*
G01X-27845Y08567D01*
G01X-27816Y08576D01*
G01X-27787Y08586D01*
G01X-27758Y08596D01*
G01X-27729Y08607D01*
G01X-27700Y08618D01*
G01X-27672Y08629D01*
G01X-27643Y08640D01*
G01X-27615Y08652D01*
G01X-27587Y08664D01*
G01X-27559Y08677D01*
G01X-27531Y08690D01*
G01X-27503Y08703D01*
G01X-27476Y08717D01*
G01X-27449Y08731D01*
G01X-27422Y08745D01*
G01X-27395Y08760D01*
G01X-27368Y08775D01*
G01X-27341Y08790D01*
G01X-27315Y08806D01*
G01X-27289Y08822D01*
G01X-27263Y08838D01*
G01X-27237Y08854D01*
G01X-27211Y08871D01*
G01X-27186Y08889D01*
G01X-27160Y08906D01*
G01X-27136Y08924D01*
G01X-27111Y08942D01*
G01X-27086Y08960D01*
G01X-27062Y08979D01*
G01X-27038Y08998D01*
G01X-27014Y09017D01*
G01X-26990Y09037D01*
G01X-26967Y09057D01*
G01X-26944Y09077D01*
G01X-26921Y09098D01*
G01X-26898Y09118D01*
G01X-26876Y09139D01*
G01X-26854Y09161D01*
G01X-26832Y09182D01*
G01X-26811Y09204D01*
G01X-26789Y09226D01*
G01X-26768Y09248D01*
G01X-26748Y09271D01*
G01X-26727Y09294D01*
G01X-26707Y09317D01*
G01X-26687Y09340D01*
G01X-26667Y09364D01*
G01X-26648Y09388D01*
G01X-26629Y09412D01*
G01X-26610Y09436D01*
G01X-26592Y09461D01*
G01X-26574Y09486D01*
G01X-26556Y09510D01*
G01X-26539Y09536D01*
G01X-26521Y09561D01*
G01X-26504Y09587D01*
G01X-26488Y09613D01*
G01X-26472Y09639D01*
G01X-26456Y09665D01*
G01X-26440Y09691D01*
G01X-26425Y09718D01*
G01X-26410Y09745D01*
G01X-26395Y09772D01*
G01X-26381Y09799D01*
G01X-26367Y09826D01*
G01X-26353Y09853D01*
G01X-26340Y09881D01*
G01X-26327Y09909D01*
G01X-26314Y09937D01*
G01X-26302Y09965D01*
G01X-26290Y09993D01*
G01X-26279Y10022D01*
G01X-26268Y10050D01*
G01X-26257Y10079D01*
G01X-26246Y10108D01*
G01X-26236Y10137D01*
G01X-26226Y10166D01*
G01X-26217Y10195D01*
G01X-26208Y10224D01*
G01X-26199Y10254D01*
G01X-26191Y10283D01*
G01X-26183Y10313D01*
G01X-26175Y10343D01*
G01X-26168Y10372D01*
G01X-26161Y10402D01*
G01X-26154Y10432D01*
G01X-26148Y10462D01*
G01X-26142Y10492D01*
G01X-26137Y10523D01*
G01X-26132Y10553D01*
G01X-26127Y10583D01*
G01X-26123Y10614D01*
G01X-26119Y10644D01*
G01X-26115Y10674D01*
G01X-26112Y10705D01*
G01X-26109Y10736D01*
G01X-26107Y10766D01*
G01X-26105Y10797D01*
G01X-26103Y10827D01*
G01X-26102Y10858D01*
G01X-26101Y10889D01*
G01X-26100Y10919D01*
G01X-26100Y10950D01*
D10*
G01X-26100Y14500D02*
G01X-26100Y14500D01*
G01X-26100Y14531D01*
G01X-26101Y14561D01*
G01X-26102Y14592D01*
G01X-26103Y14623D01*
G01X-26105Y14653D01*
G01X-26107Y14684D01*
G01X-26109Y14714D01*
G01X-26112Y14745D01*
G01X-26115Y14776D01*
G01X-26119Y14806D01*
G01X-26123Y14836D01*
G01X-26127Y14867D01*
G01X-26132Y14897D01*
G01X-26137Y14927D01*
G01X-26142Y14958D01*
G01X-26148Y14988D01*
G01X-26154Y15018D01*
G01X-26161Y15048D01*
G01X-26168Y15078D01*
G01X-26175Y15107D01*
G01X-26183Y15137D01*
G01X-26191Y15167D01*
G01X-26199Y15196D01*
G01X-26208Y15226D01*
G01X-26217Y15255D01*
G01X-26226Y15284D01*
G01X-26236Y15313D01*
G01X-26246Y15342D01*
G01X-26257Y15371D01*
G01X-26268Y15400D01*
G01X-26279Y15428D01*
G01X-26290Y15457D01*
G01X-26302Y15485D01*
G01X-26314Y15513D01*
G01X-26327Y15541D01*
G01X-26340Y15569D01*
G01X-26353Y15597D01*
G01X-26367Y15624D01*
G01X-26381Y15651D01*
G01X-26395Y15678D01*
G01X-26410Y15705D01*
G01X-26425Y15732D01*
G01X-26440Y15759D01*
G01X-26456Y15785D01*
G01X-26472Y15811D01*
G01X-26488Y15837D01*
G01X-26504Y15863D01*
G01X-26521Y15889D01*
G01X-26539Y15914D01*
G01X-26556Y15940D01*
G01X-26574Y15964D01*
G01X-26592Y15989D01*
G01X-26610Y16014D01*
G01X-26629Y16038D01*
G01X-26648Y16062D01*
G01X-26667Y16086D01*
G01X-26687Y16110D01*
G01X-26707Y16133D01*
G01X-26727Y16156D01*
G01X-26748Y16179D01*
G01X-26768Y16202D01*
G01X-26789Y16224D01*
G01X-26811Y16246D01*
G01X-26832Y16268D01*
G01X-26854Y16289D01*
G01X-26876Y16311D01*
G01X-26898Y16332D01*
G01X-26921Y16352D01*
G01X-26944Y16373D01*
G01X-26967Y16393D01*
G01X-26990Y16413D01*
G01X-27014Y16433D01*
G01X-27038Y16452D01*
G01X-27062Y16471D01*
G01X-27086Y16490D01*
G01X-27111Y16508D01*
G01X-27136Y16526D01*
G01X-27160Y16544D01*
G01X-27186Y16561D01*
G01X-27211Y16579D01*
G01X-27237Y16596D01*
G01X-27263Y16612D01*
G01X-27289Y16628D01*
G01X-27315Y16644D01*
G01X-27341Y16660D01*
G01X-27368Y16675D01*
G01X-27395Y16690D01*
G01X-27422Y16705D01*
G01X-27449Y16719D01*
G01X-27476Y16733D01*
G01X-27503Y16747D01*
G01X-27531Y16760D01*
G01X-27559Y16773D01*
G01X-27587Y16786D01*
G01X-27615Y16798D01*
G01X-27643Y16810D01*
G01X-27672Y16821D01*
G01X-27700Y16832D01*
G01X-27729Y16843D01*
G01X-27758Y16854D01*
G01X-27787Y16864D01*
G01X-27816Y16874D01*
G01X-27845Y16883D01*
G01X-27874Y16892D01*
G01X-27904Y16901D01*
G01X-27933Y16909D01*
G01X-27963Y16917D01*
G01X-27993Y16925D01*
G01X-28022Y16932D01*
G01X-28052Y16939D01*
G01X-28082Y16946D01*
G01X-28112Y16952D01*
G01X-28142Y16958D01*
G01X-28173Y16963D01*
G01X-28203Y16968D01*
G01X-28233Y16973D01*
G01X-28264Y16977D01*
G01X-28294Y16981D01*
G01X-28324Y16985D01*
G01X-28355Y16988D01*
G01X-28386Y16991D01*
G01X-28416Y16993D01*
G01X-28447Y16995D01*
G01X-28477Y16997D01*
G01X-28508Y16998D01*
G01X-28539Y16999D01*
G01X-28569Y17000D01*
G01X-28600Y17000D01*
D10*
G01X-32950Y17000D02*
G01X-32950Y17000D01*
G01X-32981Y17000D01*
G01X-33011Y16999D01*
G01X-33042Y16998D01*
G01X-33073Y16997D01*
G01X-33103Y16995D01*
G01X-33134Y16993D01*
G01X-33164Y16991D01*
G01X-33195Y16988D01*
G01X-33226Y16985D01*
G01X-33256Y16981D01*
G01X-33286Y16977D01*
G01X-33317Y16973D01*
G01X-33347Y16968D01*
G01X-33377Y16963D01*
G01X-33408Y16958D01*
G01X-33438Y16952D01*
G01X-33468Y16946D01*
G01X-33498Y16939D01*
G01X-33528Y16932D01*
G01X-33557Y16925D01*
G01X-33587Y16917D01*
G01X-33617Y16909D01*
G01X-33646Y16901D01*
G01X-33676Y16892D01*
G01X-33705Y16883D01*
G01X-33734Y16874D01*
G01X-33763Y16864D01*
G01X-33792Y16854D01*
G01X-33821Y16843D01*
G01X-33850Y16832D01*
G01X-33878Y16821D01*
G01X-33907Y16810D01*
G01X-33935Y16798D01*
G01X-33963Y16786D01*
G01X-33991Y16773D01*
G01X-34019Y16760D01*
G01X-34047Y16747D01*
G01X-34074Y16733D01*
G01X-34101Y16719D01*
G01X-34128Y16705D01*
G01X-34155Y16690D01*
G01X-34182Y16675D01*
G01X-34209Y16660D01*
G01X-34235Y16644D01*
G01X-34261Y16628D01*
G01X-34287Y16612D01*
G01X-34313Y16596D01*
G01X-34339Y16579D01*
G01X-34364Y16561D01*
G01X-34390Y16544D01*
G01X-34414Y16526D01*
G01X-34439Y16508D01*
G01X-34464Y16490D01*
G01X-34488Y16471D01*
G01X-34512Y16452D01*
G01X-34536Y16433D01*
G01X-34560Y16413D01*
G01X-34583Y16393D01*
G01X-34606Y16373D01*
G01X-34629Y16352D01*
G01X-34652Y16332D01*
G01X-34674Y16311D01*
G01X-34696Y16289D01*
G01X-34718Y16268D01*
G01X-34739Y16246D01*
G01X-34761Y16224D01*
G01X-34782Y16202D01*
G01X-34802Y16179D01*
G01X-34823Y16156D01*
G01X-34843Y16133D01*
G01X-34863Y16110D01*
G01X-34883Y16086D01*
G01X-34902Y16062D01*
G01X-34921Y16038D01*
G01X-34940Y16014D01*
G01X-34958Y15989D01*
G01X-34976Y15964D01*
G01X-34994Y15940D01*
G01X-35011Y15914D01*
G01X-35029Y15889D01*
G01X-35046Y15863D01*
G01X-35062Y15837D01*
G01X-35078Y15811D01*
G01X-35094Y15785D01*
G01X-35110Y15759D01*
G01X-35125Y15732D01*
G01X-35140Y15705D01*
G01X-35155Y15678D01*
G01X-35169Y15651D01*
G01X-35183Y15624D01*
G01X-35197Y15597D01*
G01X-35210Y15569D01*
G01X-35223Y15541D01*
G01X-35236Y15513D01*
G01X-35248Y15485D01*
G01X-35260Y15457D01*
G01X-35271Y15428D01*
G01X-35282Y15400D01*
G01X-35293Y15371D01*
G01X-35304Y15342D01*
G01X-35314Y15313D01*
G01X-35324Y15284D01*
G01X-35333Y15255D01*
G01X-35342Y15226D01*
G01X-35351Y15196D01*
G01X-35359Y15167D01*
G01X-35367Y15137D01*
G01X-35375Y15107D01*
G01X-35382Y15078D01*
G01X-35389Y15048D01*
G01X-35396Y15018D01*
G01X-35402Y14988D01*
G01X-35408Y14958D01*
G01X-35413Y14927D01*
G01X-35418Y14897D01*
G01X-35423Y14867D01*
G01X-35427Y14836D01*
G01X-35431Y14806D01*
G01X-35435Y14776D01*
G01X-35438Y14745D01*
G01X-35441Y14714D01*
G01X-35443Y14684D01*
G01X-35445Y14653D01*
G01X-35447Y14623D01*
G01X-35448Y14592D01*
G01X-35449Y14561D01*
G01X-35450Y14531D01*
G01X-35450Y14500D01*
D10*
G01X-26100Y14500D02*
G01X-26100Y10950D01*
D10*
G01X-35450Y14500D02*
G01X-35450Y10950D01*
D10*
G01X-32950Y08450D02*
G01X-28600Y08450D01*
D10*
G01X-32950Y17000D02*
G01X-28600Y17000D01*
M02*
