G04 ( created by brdgerber.py ( brdgerber.py v0.1 2014-03-12 ) ) date 2021-02-10 09:33:23 EST*
G04 Gerber Fmt 3.4, Leading zero omitted, Abs format*
%MOIN*%
%FSLAX34Y34*%
G01*
G70*
G90*
G04 APERTURE LIST*
%ADD17C,0.0200*%
%ADD10R,0.0800X0.0260*%
%ADD11C,0.0050*%
%ADD19C,0.0000*%
%ADD20C,0.0059*%
%ADD13C,0.0020*%
%ADD15C,0.0550*%
%ADD16C,0.0120*%
%ADD18C,0.0472*%
%ADD14R,0.0550X0.0550*%
%ADD12C,0.0060*%
G04 APERTURE END LIST*
G54D17*
D10*
X-04800Y05050D03*
D10*
X-04800Y04550D03*
D10*
X-04800Y04050D03*
D10*
X-04800Y03550D03*
D10*
X-04800Y03050D03*
D10*
X-04800Y02550D03*
D10*
X-04800Y02050D03*
D10*
X-04800Y01550D03*
D10*
X00800Y01550D03*
D10*
X00800Y02050D03*
D10*
X00800Y02550D03*
D10*
X00800Y03050D03*
D10*
X00800Y03550D03*
D10*
X00800Y04050D03*
D10*
X00800Y04550D03*
D10*
X00800Y05050D03*
D10*
X-04800Y01050D03*
D10*
X-04800Y00550D03*
D10*
X00800Y01050D03*
D10*
X00800Y00550D03*
D14*
X02000Y-04000D03*
D15*
X02000Y-03000D03*
D15*
X02000Y-02000D03*
D15*
X02000Y-01000D03*
D15*
X02000Y00000D03*
D15*
X02000Y01000D03*
D15*
X02000Y02000D03*
D15*
X02000Y03000D03*
D15*
X02000Y04000D03*
D15*
X02000Y05000D03*
D14*
X-06000Y05000D03*
D15*
X-06000Y04000D03*
D15*
X-06000Y03000D03*
D15*
X-06000Y02000D03*
D15*
X-06000Y01000D03*
D15*
X-06000Y00000D03*
D15*
X-06000Y-01000D03*
D15*
X-06000Y-02000D03*
D15*
X-06000Y-03000D03*
D15*
X-06000Y-04000D03*
D17*
G01X-05400Y-04000D02*
G01X-06000Y-04000D01*
D17*
G01X-04800Y-03400D02*
G01X-05400Y-04000D01*
D17*
G01X-04800Y00550D02*
G01X-04800Y-03400D01*
D17*
G01X-04800Y05050D02*
G01X-05950Y05050D01*
D17*
G01X-05950Y05050D02*
G01X-06000Y05000D01*
D17*
G01X00800Y05050D02*
G01X01950Y05050D01*
D17*
G01X01950Y05050D02*
G01X02000Y05000D01*
D17*
G01X00800Y04550D02*
G01X01450Y04550D01*
D17*
G01X01450Y04550D02*
G01X02000Y04000D01*
D17*
G01X00800Y04050D02*
G01X01400Y04050D01*
D17*
G01X01400Y04050D02*
G01X01500Y03950D01*
D17*
G01X01500Y03950D02*
G01X01500Y03800D01*
D17*
G01X01500Y03800D02*
G01X01800Y03500D01*
D17*
G01X01800Y03500D02*
G01X02050Y03500D01*
D17*
G01X02050Y03500D02*
G01X02000Y03450D01*
D17*
G01X02000Y03450D02*
G01X02000Y03000D01*
D17*
G01X00800Y03550D02*
G01X01250Y03550D01*
D17*
G01X01250Y03550D02*
G01X01500Y03300D01*
D17*
G01X01500Y03300D02*
G01X01500Y02500D01*
D17*
G01X01500Y02500D02*
G01X02000Y02000D01*
D17*
G01X00800Y03050D02*
G01X-01300Y03050D01*
D17*
G01X-01300Y03050D02*
G01X-01600Y02750D01*
D17*
G01X-01600Y02750D02*
G01X-01600Y-00550D01*
D18*
X-01600Y-00550D03*
D17*
G01X00800Y02550D02*
G01X-01150Y02550D01*
D17*
G01X-01150Y02550D02*
G01X-01300Y02400D01*
D17*
G01X-01300Y02400D02*
G01X-01300Y-00200D01*
D17*
G01X-01300Y-00200D02*
G01X-01150Y-00350D01*
D17*
G01X-01150Y-00350D02*
G01X-01150Y-01000D01*
D18*
X-01150Y-01000D03*
D17*
G01X00800Y02050D02*
G01X-00750Y02050D01*
D17*
G01X-00750Y02050D02*
G01X-01000Y01800D01*
D17*
G01X-01000Y01800D02*
G01X-01000Y00000D01*
D17*
G01X-01000Y00000D02*
G01X-00850Y-00150D01*
D17*
G01X-00850Y-00150D02*
G01X-00850Y-00650D01*
D17*
G01X-00850Y-00650D02*
G01X-00700Y-00800D01*
D17*
G01X-00700Y-00800D02*
G01X-00700Y-01450D01*
D18*
X-00700Y-01450D03*
D17*
G01X00800Y01550D02*
G01X-00500Y01550D01*
D17*
G01X-00500Y01550D02*
G01X-00700Y01350D01*
D17*
G01X-00700Y01350D02*
G01X-00700Y00150D01*
D17*
G01X-00700Y00150D02*
G01X-00550Y00000D01*
D17*
G01X-00550Y00000D02*
G01X-00550Y-00500D01*
D17*
G01X-00550Y-00500D02*
G01X-00350Y-00700D01*
D17*
G01X-00350Y-00700D02*
G01X-00350Y-01050D01*
D17*
G01X-00350Y-01050D02*
G01X-00250Y-01150D01*
D17*
G01X-00250Y-01150D02*
G01X-00250Y-02050D01*
D18*
X-00250Y-02050D03*
D17*
G01X00800Y01050D02*
G01X-00150Y01050D01*
D17*
G01X-00150Y01050D02*
G01X-00300Y00900D01*
D17*
G01X-00300Y00900D02*
G01X-00300Y00250D01*
D17*
G01X-00300Y00250D02*
G01X-00200Y00150D01*
D17*
G01X-00200Y00150D02*
G01X-00200Y-00400D01*
D17*
G01X-00200Y-00400D02*
G01X00000Y-00600D01*
D17*
G01X00000Y-00600D02*
G01X00000Y-00850D01*
D17*
G01X00000Y-00850D02*
G01X00250Y-01100D01*
D17*
G01X00250Y-01100D02*
G01X00250Y-02750D01*
D18*
X00250Y-02750D03*
D17*
G01X00800Y00550D02*
G01X00800Y-02800D01*
D17*
G01X00800Y-02800D02*
G01X02000Y-04000D01*
D17*
G01X-04800Y04550D02*
G01X-05600Y04550D01*
D17*
G01X-05600Y04550D02*
G01X-06000Y04150D01*
D17*
G01X-06000Y04150D02*
G01X-06000Y04000D01*
D17*
G01X-04800Y04050D02*
G01X-05450Y04050D01*
D17*
G01X-05450Y04050D02*
G01X-05500Y04000D01*
D17*
G01X-05500Y04000D02*
G01X-05500Y03800D01*
D17*
G01X-05500Y03800D02*
G01X-05800Y03500D01*
D17*
G01X-05800Y03500D02*
G01X-05800Y03200D01*
D17*
G01X-05800Y03200D02*
G01X-06000Y03000D01*
D17*
G01X-04800Y03550D02*
G01X-05300Y03550D01*
D17*
G01X-05300Y03550D02*
G01X-05500Y03350D01*
D17*
G01X-05500Y03350D02*
G01X-05500Y02800D01*
D17*
G01X-05500Y02800D02*
G01X-05800Y02500D01*
D17*
G01X-05800Y02500D02*
G01X-05800Y02200D01*
D17*
G01X-05800Y02200D02*
G01X-06000Y02000D01*
D17*
G01X-04800Y03050D02*
G01X-02450Y03050D01*
D17*
G01X-02450Y03050D02*
G01X-01900Y02500D01*
D17*
G01X-01900Y02500D02*
G01X-01900Y-00200D01*
D17*
G01X-01900Y-00200D02*
G01X-02050Y-00350D01*
D17*
G01X-02050Y-00350D02*
G01X-02050Y-01000D01*
D17*
G01X-02050Y-01000D02*
G01X-01850Y-01200D01*
D18*
X-01850Y-01200D03*
D17*
G01X-04800Y02550D02*
G01X-02500Y02550D01*
D17*
G01X-02500Y02550D02*
G01X-02200Y02250D01*
D17*
G01X-02200Y02250D02*
G01X-02200Y00000D01*
D17*
G01X-02200Y00000D02*
G01X-02400Y-00200D01*
D17*
G01X-02400Y-00200D02*
G01X-02400Y-01450D01*
D17*
G01X-02400Y-01450D02*
G01X-02150Y-01700D01*
D18*
X-02150Y-01700D03*
D17*
G01X-04800Y02050D02*
G01X-02700Y02050D01*
D17*
G01X-02700Y02050D02*
G01X-02500Y01850D01*
D17*
G01X-02500Y01850D02*
G01X-02500Y00150D01*
D17*
G01X-02500Y00150D02*
G01X-02700Y-00050D01*
D17*
G01X-02700Y-00050D02*
G01X-02700Y-01950D01*
D17*
G01X-02700Y-01950D02*
G01X-02300Y-02350D01*
D18*
X-02300Y-02350D03*
D17*
G01X-04800Y01550D02*
G01X-03250Y01550D01*
D17*
G01X-03250Y01550D02*
G01X-02850Y01150D01*
D17*
G01X-02850Y01150D02*
G01X-02850Y00250D01*
D17*
G01X-02850Y00250D02*
G01X-03050Y00050D01*
D17*
G01X-03050Y00050D02*
G01X-03050Y-02450D01*
D17*
G01X-03050Y-02450D02*
G01X-02550Y-02950D01*
D18*
X-02550Y-02950D03*
D17*
G01X-04800Y01050D02*
G01X-03450Y01050D01*
D17*
G01X-03450Y01050D02*
G01X-03350Y00950D01*
D17*
G01X-03350Y00950D02*
G01X-03350Y00100D01*
D17*
G01X-03350Y00100D02*
G01X-03400Y00050D01*
D17*
G01X-03400Y00050D02*
G01X-03400Y-03150D01*
D17*
G01X-03400Y-03150D02*
G01X-02850Y-03700D01*
D18*
X-02850Y-03700D03*
M02*
