G04 ( created by brdgerber.py ( brdgerber.py v0.1 2014-03-12 ) ) date 2021-02-10 09:33:23 EST*
G04 Gerber Fmt 3.4, Leading zero omitted, Abs format*
%MOIN*%
%FSLAX34Y34*%
G01*
G70*
G90*
G04 APERTURE LIST*
%ADD15C,0.0550*%
%ADD18C,0.0472*%
%ADD19C,0.0000*%
%ADD20C,0.0059*%
%ADD14R,0.0550X0.0550*%
%ADD16C,0.0120*%
%ADD10R,0.0800X0.0260*%
%ADD13C,0.0020*%
%ADD12C,0.0060*%
%ADD17C,0.0200*%
%ADD11C,0.0050*%
G04 APERTURE END LIST*
G54D15*
D14*
X02000Y-04000D03*
D15*
X02000Y-03000D03*
D15*
X02000Y-02000D03*
D15*
X02000Y-01000D03*
D15*
X02000Y00000D03*
D15*
X02000Y01000D03*
D15*
X02000Y02000D03*
D15*
X02000Y03000D03*
D15*
X02000Y04000D03*
D15*
X02000Y05000D03*
D14*
X-06000Y05000D03*
D15*
X-06000Y04000D03*
D15*
X-06000Y03000D03*
D15*
X-06000Y02000D03*
D15*
X-06000Y01000D03*
D15*
X-06000Y00000D03*
D15*
X-06000Y-01000D03*
D15*
X-06000Y-02000D03*
D15*
X-06000Y-03000D03*
D15*
X-06000Y-04000D03*
D17*
G01X-04300Y-03000D02*
G01X-06000Y-03000D01*
D18*
X-01600Y-00550D03*
D17*
G01X-01600Y-00550D02*
G01X-01400Y-00550D01*
D17*
G01X-01400Y-00550D02*
G01X00150Y01000D01*
D17*
G01X00150Y01000D02*
G01X02000Y01000D01*
D18*
X-01150Y-01000D03*
D17*
G01X-01150Y-01000D02*
G01X-01150Y-00800D01*
D17*
G01X-01150Y-00800D02*
G01X-00350Y00000D01*
D17*
G01X-00350Y00000D02*
G01X02000Y00000D01*
D18*
X-00700Y-01450D03*
D17*
G01X-00700Y-01450D02*
G01X-00200Y-01450D01*
D17*
G01X-00200Y-01450D02*
G01X00250Y-01000D01*
D17*
G01X00250Y-01000D02*
G01X02000Y-01000D01*
D18*
X-00250Y-02050D03*
D17*
G01X-00250Y-02050D02*
G01X01950Y-02050D01*
D17*
G01X01950Y-02050D02*
G01X02000Y-02000D01*
D18*
X00250Y-02750D03*
D17*
G01X00250Y-02750D02*
G01X00500Y-03000D01*
D17*
G01X00500Y-03000D02*
G01X02000Y-03000D01*
D18*
X-01850Y-01200D03*
D17*
G01X-01850Y-01200D02*
G01X-01900Y-01250D01*
D17*
G01X-01900Y-01250D02*
G01X-02850Y-01250D01*
D17*
G01X-02850Y-01250D02*
G01X-05100Y01000D01*
D17*
G01X-05100Y01000D02*
G01X-06000Y01000D01*
D18*
X-02150Y-01700D03*
D17*
G01X-02150Y-01700D02*
G01X-02200Y-01750D01*
D17*
G01X-02200Y-01750D02*
G01X-02950Y-01750D01*
D17*
G01X-02950Y-01750D02*
G01X-04700Y00000D01*
D17*
G01X-04700Y00000D02*
G01X-06000Y00000D01*
D18*
X-02300Y-02350D03*
D17*
G01X-02300Y-02350D02*
G01X-02400Y-02450D01*
D17*
G01X-02400Y-02450D02*
G01X-02950Y-02450D01*
D17*
G01X-02950Y-02450D02*
G01X-04400Y-01000D01*
D17*
G01X-04400Y-01000D02*
G01X-06000Y-01000D01*
D18*
X-02550Y-02950D03*
D17*
G01X-02550Y-02950D02*
G01X-02650Y-03050D01*
D17*
G01X-02650Y-03050D02*
G01X-03300Y-03050D01*
D17*
G01X-03300Y-03050D02*
G01X-04350Y-02000D01*
D17*
G01X-04350Y-02000D02*
G01X-06000Y-02000D01*
D18*
X-02850Y-03700D03*
D17*
G01X-02850Y-03700D02*
G01X-02900Y-03650D01*
D17*
G01X-02900Y-03650D02*
G01X-03650Y-03650D01*
D17*
G01X-03650Y-03650D02*
G01X-04300Y-03000D01*
M02*
