G04 ( created by brdgerber.py ( brdgerber.py v0.1 2014-03-12 ) ) date 2021-02-10 09:33:24 EST*
G04 Gerber Fmt 3.4, Leading zero omitted, Abs format*
%MOIN*%
%FSLAX34Y34*%
G01*
G70*
G90*
G04 APERTURE LIST*
%ADD20C,0.0059*%
%ADD18C,0.0472*%
%ADD13C,0.0020*%
%ADD14R,0.0550X0.0550*%
%ADD15C,0.0550*%
%ADD12C,0.0060*%
%ADD10R,0.0800X0.0260*%
%ADD17C,0.0200*%
%ADD16C,0.0120*%
%ADD11C,0.0050*%
%ADD19C,0.0000*%
G04 APERTURE END LIST*
G54D20*
D12*
G01X-00530Y00390D02*
G01X-00530Y05210D01*
D12*
G01X-03470Y00390D02*
G01X-03470Y00386D01*
G01X-03470Y00383D01*
G01X-03470Y00379D01*
G01X-03469Y00375D01*
G01X-03469Y00372D01*
G01X-03468Y00368D01*
G01X-03468Y00364D01*
G01X-03467Y00361D01*
G01X-03466Y00357D01*
G01X-03466Y00354D01*
G01X-03465Y00350D01*
G01X-03464Y00346D01*
G01X-03462Y00343D01*
G01X-03461Y00339D01*
G01X-03460Y00336D01*
G01X-03459Y00333D01*
G01X-03457Y00329D01*
G01X-03456Y00326D01*
G01X-03454Y00323D01*
G01X-03452Y00319D01*
G01X-03451Y00316D01*
G01X-03449Y00313D01*
G01X-03447Y00310D01*
G01X-03445Y00307D01*
G01X-03443Y00304D01*
G01X-03440Y00301D01*
G01X-03438Y00298D01*
G01X-03436Y00295D01*
G01X-03434Y00292D01*
G01X-03431Y00289D01*
G01X-03429Y00287D01*
G01X-03426Y00284D01*
G01X-03423Y00281D01*
G01X-03421Y00279D01*
G01X-03418Y00276D01*
G01X-03415Y00274D01*
G01X-03412Y00272D01*
G01X-03409Y00270D01*
G01X-03406Y00267D01*
G01X-03403Y00265D01*
G01X-03400Y00263D01*
G01X-03397Y00261D01*
G01X-03394Y00259D01*
G01X-03391Y00258D01*
G01X-03387Y00256D01*
G01X-03384Y00254D01*
G01X-03381Y00253D01*
G01X-03377Y00251D01*
G01X-03374Y00250D01*
G01X-03371Y00249D01*
G01X-03367Y00248D01*
G01X-03364Y00246D01*
G01X-03360Y00245D01*
G01X-03356Y00244D01*
G01X-03353Y00244D01*
G01X-03349Y00243D01*
G01X-03346Y00242D01*
G01X-03342Y00242D01*
G01X-03338Y00241D01*
G01X-03335Y00241D01*
G01X-03331Y00240D01*
G01X-03327Y00240D01*
G01X-03324Y00240D01*
G01X-03320Y00240D01*
D12*
G01X-00680Y05360D02*
G01X-00676Y05360D01*
G01X-00673Y05360D01*
G01X-00669Y05360D01*
G01X-00665Y05359D01*
G01X-00662Y05359D01*
G01X-00658Y05358D01*
G01X-00654Y05358D01*
G01X-00651Y05357D01*
G01X-00647Y05356D01*
G01X-00644Y05356D01*
G01X-00640Y05355D01*
G01X-00636Y05354D01*
G01X-00633Y05352D01*
G01X-00629Y05351D01*
G01X-00626Y05350D01*
G01X-00623Y05349D01*
G01X-00619Y05347D01*
G01X-00616Y05346D01*
G01X-00613Y05344D01*
G01X-00609Y05342D01*
G01X-00606Y05341D01*
G01X-00603Y05339D01*
G01X-00600Y05337D01*
G01X-00597Y05335D01*
G01X-00594Y05333D01*
G01X-00591Y05330D01*
G01X-00588Y05328D01*
G01X-00585Y05326D01*
G01X-00582Y05324D01*
G01X-00579Y05321D01*
G01X-00577Y05319D01*
G01X-00574Y05316D01*
G01X-00571Y05313D01*
G01X-00569Y05311D01*
G01X-00566Y05308D01*
G01X-00564Y05305D01*
G01X-00562Y05302D01*
G01X-00560Y05299D01*
G01X-00557Y05296D01*
G01X-00555Y05293D01*
G01X-00553Y05290D01*
G01X-00551Y05287D01*
G01X-00549Y05284D01*
G01X-00548Y05281D01*
G01X-00546Y05277D01*
G01X-00544Y05274D01*
G01X-00543Y05271D01*
G01X-00541Y05267D01*
G01X-00540Y05264D01*
G01X-00539Y05261D01*
G01X-00538Y05257D01*
G01X-00536Y05254D01*
G01X-00535Y05250D01*
G01X-00534Y05246D01*
G01X-00534Y05243D01*
G01X-00533Y05239D01*
G01X-00532Y05236D01*
G01X-00532Y05232D01*
G01X-00531Y05228D01*
G01X-00531Y05225D01*
G01X-00530Y05221D01*
G01X-00530Y05217D01*
G01X-00530Y05214D01*
G01X-00530Y05210D01*
D12*
G01X-00530Y00390D02*
G01X-00530Y00386D01*
G01X-00530Y00383D01*
G01X-00530Y00379D01*
G01X-00531Y00375D01*
G01X-00531Y00372D01*
G01X-00532Y00368D01*
G01X-00532Y00364D01*
G01X-00533Y00361D01*
G01X-00534Y00357D01*
G01X-00534Y00354D01*
G01X-00535Y00350D01*
G01X-00536Y00346D01*
G01X-00538Y00343D01*
G01X-00539Y00339D01*
G01X-00540Y00336D01*
G01X-00541Y00333D01*
G01X-00543Y00329D01*
G01X-00544Y00326D01*
G01X-00546Y00323D01*
G01X-00548Y00319D01*
G01X-00549Y00316D01*
G01X-00551Y00313D01*
G01X-00553Y00310D01*
G01X-00555Y00307D01*
G01X-00557Y00304D01*
G01X-00560Y00301D01*
G01X-00562Y00298D01*
G01X-00564Y00295D01*
G01X-00566Y00292D01*
G01X-00569Y00289D01*
G01X-00571Y00287D01*
G01X-00574Y00284D01*
G01X-00577Y00281D01*
G01X-00579Y00279D01*
G01X-00582Y00276D01*
G01X-00585Y00274D01*
G01X-00588Y00272D01*
G01X-00591Y00270D01*
G01X-00594Y00267D01*
G01X-00597Y00265D01*
G01X-00600Y00263D01*
G01X-00603Y00261D01*
G01X-00606Y00259D01*
G01X-00609Y00258D01*
G01X-00613Y00256D01*
G01X-00616Y00254D01*
G01X-00619Y00253D01*
G01X-00623Y00251D01*
G01X-00626Y00250D01*
G01X-00629Y00249D01*
G01X-00633Y00248D01*
G01X-00636Y00246D01*
G01X-00640Y00245D01*
G01X-00644Y00244D01*
G01X-00647Y00244D01*
G01X-00651Y00243D01*
G01X-00654Y00242D01*
G01X-00658Y00242D01*
G01X-00662Y00241D01*
G01X-00665Y00241D01*
G01X-00669Y00240D01*
G01X-00673Y00240D01*
G01X-00676Y00240D01*
G01X-00680Y00240D01*
D12*
G01X-03320Y05360D02*
G01X-03324Y05360D01*
G01X-03327Y05360D01*
G01X-03331Y05360D01*
G01X-03335Y05359D01*
G01X-03338Y05359D01*
G01X-03342Y05358D01*
G01X-03346Y05358D01*
G01X-03349Y05357D01*
G01X-03353Y05356D01*
G01X-03356Y05356D01*
G01X-03360Y05355D01*
G01X-03364Y05354D01*
G01X-03367Y05352D01*
G01X-03371Y05351D01*
G01X-03374Y05350D01*
G01X-03377Y05349D01*
G01X-03381Y05347D01*
G01X-03384Y05346D01*
G01X-03387Y05344D01*
G01X-03391Y05342D01*
G01X-03394Y05341D01*
G01X-03397Y05339D01*
G01X-03400Y05337D01*
G01X-03403Y05335D01*
G01X-03406Y05333D01*
G01X-03409Y05330D01*
G01X-03412Y05328D01*
G01X-03415Y05326D01*
G01X-03418Y05324D01*
G01X-03421Y05321D01*
G01X-03423Y05319D01*
G01X-03426Y05316D01*
G01X-03429Y05313D01*
G01X-03431Y05311D01*
G01X-03434Y05308D01*
G01X-03436Y05305D01*
G01X-03438Y05302D01*
G01X-03440Y05299D01*
G01X-03443Y05296D01*
G01X-03445Y05293D01*
G01X-03447Y05290D01*
G01X-03449Y05287D01*
G01X-03451Y05284D01*
G01X-03452Y05281D01*
G01X-03454Y05277D01*
G01X-03456Y05274D01*
G01X-03457Y05271D01*
G01X-03459Y05267D01*
G01X-03460Y05264D01*
G01X-03461Y05261D01*
G01X-03462Y05257D01*
G01X-03464Y05254D01*
G01X-03465Y05250D01*
G01X-03466Y05246D01*
G01X-03466Y05243D01*
G01X-03467Y05239D01*
G01X-03468Y05236D01*
G01X-03468Y05232D01*
G01X-03469Y05228D01*
G01X-03469Y05225D01*
G01X-03470Y05221D01*
G01X-03470Y05217D01*
G01X-03470Y05214D01*
G01X-03470Y05210D01*
D12*
G01X-03470Y05210D02*
G01X-03470Y00390D01*
D12*
G01X-03320Y00240D02*
G01X-00680Y00240D01*
D12*
G01X-00680Y05360D02*
G01X-01500Y05360D01*
D12*
G01X-01500Y05360D02*
G01X-02500Y05360D01*
D12*
G01X-02500Y05360D02*
G01X-03320Y05360D01*
D13*
G01X-03330Y05350D02*
G01X-03330Y00250D01*
D12*
G01X-01500Y05360D02*
G01X-01501Y05335D01*
G01X-01502Y05311D01*
G01X-01505Y05287D01*
G01X-01510Y05262D01*
G01X-01515Y05239D01*
G01X-01522Y05215D01*
G01X-01529Y05192D01*
G01X-01538Y05169D01*
G01X-01548Y05146D01*
G01X-01559Y05124D01*
G01X-01571Y05103D01*
G01X-01584Y05082D01*
G01X-01598Y05062D01*
G01X-01613Y05043D01*
G01X-01630Y05024D01*
G01X-01646Y05006D01*
G01X-01664Y04990D01*
G01X-01683Y04973D01*
G01X-01702Y04958D01*
G01X-01722Y04944D01*
G01X-01743Y04931D01*
G01X-01764Y04919D01*
G01X-01786Y04908D01*
G01X-01809Y04898D01*
G01X-01832Y04889D01*
G01X-01855Y04882D01*
G01X-01879Y04875D01*
G01X-01902Y04870D01*
G01X-01927Y04865D01*
G01X-01951Y04862D01*
G01X-01975Y04861D01*
G01X-02000Y04860D01*
G01X-02025Y04861D01*
G01X-02049Y04862D01*
G01X-02073Y04865D01*
G01X-02098Y04870D01*
G01X-02121Y04875D01*
G01X-02145Y04882D01*
G01X-02168Y04889D01*
G01X-02191Y04898D01*
G01X-02214Y04908D01*
G01X-02236Y04919D01*
G01X-02257Y04931D01*
G01X-02278Y04944D01*
G01X-02298Y04958D01*
G01X-02317Y04973D01*
G01X-02336Y04990D01*
G01X-02354Y05006D01*
G01X-02370Y05024D01*
G01X-02387Y05043D01*
G01X-02402Y05062D01*
G01X-02416Y05082D01*
G01X-02429Y05103D01*
G01X-02441Y05124D01*
G01X-02452Y05146D01*
G01X-02462Y05169D01*
G01X-02471Y05192D01*
G01X-02478Y05215D01*
G01X-02485Y05239D01*
G01X-02490Y05262D01*
G01X-02495Y05287D01*
G01X-02498Y05311D01*
G01X-02499Y05335D01*
G01X-02500Y05360D01*
D11*
G01X-04320Y05150D02*
G01X-04320Y04950D01*
D11*
G01X-04320Y04950D02*
G01X-04270Y04950D01*
D11*
G01X-04270Y04950D02*
G01X-04270Y05150D01*
D11*
G01X-04270Y05150D02*
G01X-04320Y05150D01*
D11*
G01X-04320Y04650D02*
G01X-04320Y04450D01*
D11*
G01X-04320Y04450D02*
G01X-04270Y04450D01*
D11*
G01X-04270Y04450D02*
G01X-04270Y04650D01*
D11*
G01X-04270Y04650D02*
G01X-04320Y04650D01*
D11*
G01X-04320Y04150D02*
G01X-04320Y03950D01*
D11*
G01X-04320Y03950D02*
G01X-04270Y03950D01*
D11*
G01X-04270Y03950D02*
G01X-04270Y04150D01*
D11*
G01X-04270Y04150D02*
G01X-04320Y04150D01*
D11*
G01X-04320Y03650D02*
G01X-04320Y03450D01*
D11*
G01X-04320Y03450D02*
G01X-04270Y03450D01*
D11*
G01X-04270Y03450D02*
G01X-04270Y03650D01*
D11*
G01X-04270Y03650D02*
G01X-04320Y03650D01*
D11*
G01X-04320Y03150D02*
G01X-04320Y02950D01*
D11*
G01X-04320Y02950D02*
G01X-04270Y02950D01*
D11*
G01X-04270Y02950D02*
G01X-04270Y03150D01*
D11*
G01X-04270Y03150D02*
G01X-04320Y03150D01*
D11*
G01X-04320Y02650D02*
G01X-04320Y02450D01*
D11*
G01X-04320Y02450D02*
G01X-04270Y02450D01*
D11*
G01X-04270Y02450D02*
G01X-04270Y02650D01*
D11*
G01X-04270Y02650D02*
G01X-04320Y02650D01*
D11*
G01X-04320Y02150D02*
G01X-04320Y01950D01*
D11*
G01X-04320Y01950D02*
G01X-04270Y01950D01*
D11*
G01X-04270Y01950D02*
G01X-04270Y02150D01*
D11*
G01X-04270Y02150D02*
G01X-04320Y02150D01*
D11*
G01X-04320Y01650D02*
G01X-04320Y01450D01*
D11*
G01X-04320Y01450D02*
G01X-04270Y01450D01*
D11*
G01X-04270Y01450D02*
G01X-04270Y01650D01*
D11*
G01X-04270Y01650D02*
G01X-04320Y01650D01*
D11*
G01X00270Y05150D02*
G01X00270Y04950D01*
D11*
G01X00270Y04950D02*
G01X00320Y04950D01*
D11*
G01X00320Y04950D02*
G01X00320Y05150D01*
D11*
G01X00320Y05150D02*
G01X00270Y05150D01*
D11*
G01X00270Y04650D02*
G01X00270Y04450D01*
D11*
G01X00270Y04450D02*
G01X00320Y04450D01*
D11*
G01X00320Y04450D02*
G01X00320Y04650D01*
D11*
G01X00320Y04650D02*
G01X00270Y04650D01*
D11*
G01X00270Y04150D02*
G01X00270Y03950D01*
D11*
G01X00270Y03950D02*
G01X00320Y03950D01*
D11*
G01X00320Y03950D02*
G01X00320Y04150D01*
D11*
G01X00320Y04150D02*
G01X00270Y04150D01*
D11*
G01X00270Y03650D02*
G01X00270Y03450D01*
D11*
G01X00270Y03450D02*
G01X00320Y03450D01*
D11*
G01X00320Y03450D02*
G01X00320Y03650D01*
D11*
G01X00320Y03650D02*
G01X00270Y03650D01*
D11*
G01X00270Y03150D02*
G01X00270Y02950D01*
D11*
G01X00270Y02950D02*
G01X00320Y02950D01*
D11*
G01X00320Y02950D02*
G01X00320Y03150D01*
D11*
G01X00320Y03150D02*
G01X00270Y03150D01*
D11*
G01X00270Y02650D02*
G01X00270Y02450D01*
D11*
G01X00270Y02450D02*
G01X00320Y02450D01*
D11*
G01X00320Y02450D02*
G01X00320Y02650D01*
D11*
G01X00320Y02650D02*
G01X00270Y02650D01*
D11*
G01X00270Y02150D02*
G01X00270Y01950D01*
D11*
G01X00270Y01950D02*
G01X00320Y01950D01*
D11*
G01X00320Y01950D02*
G01X00320Y02150D01*
D11*
G01X00320Y02150D02*
G01X00270Y02150D01*
D11*
G01X00270Y01650D02*
G01X00270Y01450D01*
D11*
G01X00270Y01450D02*
G01X00320Y01450D01*
D11*
G01X00320Y01450D02*
G01X00320Y01650D01*
D11*
G01X00320Y01650D02*
G01X00270Y01650D01*
D11*
G01X00270Y01150D02*
G01X00270Y00950D01*
D11*
G01X00270Y00950D02*
G01X00320Y00950D01*
D11*
G01X00320Y00950D02*
G01X00320Y01150D01*
D11*
G01X00320Y01150D02*
G01X00270Y01150D01*
D11*
G01X00270Y00650D02*
G01X00270Y00450D01*
D11*
G01X00270Y00450D02*
G01X00320Y00450D01*
D11*
G01X00320Y00450D02*
G01X00320Y00650D01*
D11*
G01X00320Y00650D02*
G01X00270Y00650D01*
D11*
G01X-04320Y01150D02*
G01X-04320Y00950D01*
D11*
G01X-04320Y00950D02*
G01X-04270Y00950D01*
D11*
G01X-04270Y00950D02*
G01X-04270Y01150D01*
D11*
G01X-04270Y01150D02*
G01X-04320Y01150D01*
D11*
G01X-04320Y00650D02*
G01X-04320Y00450D01*
D11*
G01X-04320Y00450D02*
G01X-04270Y00450D01*
D11*
G01X-04270Y00450D02*
G01X-04270Y00650D01*
D11*
G01X-04270Y00650D02*
G01X-04320Y00650D01*
D16*
G01X02500Y-04500D02*
G01X01500Y-04500D01*
D16*
G01X01500Y-04500D02*
G01X01500Y05500D01*
D16*
G01X01500Y05500D02*
G01X02500Y05500D01*
D16*
G01X02500Y05500D02*
G01X02500Y-04500D01*
D16*
G01X02500Y-03500D02*
G01X01500Y-03500D01*
D16*
G01X01153Y-03703D02*
G01X01173Y-03605D01*
G01X01173Y-03443D01*
G01X01153Y-03378D01*
G01X01132Y-03346D01*
G01X01092Y-03313D01*
G01X01051Y-03313D01*
G01X01010Y-03346D01*
G01X00990Y-03378D01*
G01X00969Y-03443D01*
G01X00949Y-03573D01*
G01X00929Y-03638D01*
G01X00908Y-03670D01*
G01X00868Y-03703D01*
G01X00827Y-03703D01*
G01X00786Y-03670D01*
G01X00766Y-03638D01*
G01X00745Y-03573D01*
G01X00745Y-03411D01*
G01X00766Y-03313D01*
D16*
G01X01173Y-03022D02*
G01X00745Y-03022D01*
D16*
G01X01173Y-02373D02*
G01X01173Y-02697D01*
G01X00745Y-02697D01*
D16*
G01X01010Y-02146D02*
G01X01010Y-01627D01*
D16*
G01X01173Y-00946D02*
G01X01173Y-01335D01*
D16*
G01X01173Y-01141D02*
G01X00745Y-01141D01*
G01X00806Y-01206D01*
G01X00847Y-01270D01*
G01X00868Y-01335D01*
D16*
G01X00745Y-00525D02*
G01X00745Y-00460D01*
G01X00766Y-00395D01*
G01X00786Y-00362D01*
G01X00827Y-00330D01*
G01X00908Y-00298D01*
G01X01010Y-00298D01*
G01X01092Y-00330D01*
G01X01132Y-00362D01*
G01X01153Y-00395D01*
G01X01173Y-00460D01*
G01X01173Y-00525D01*
G01X01153Y-00589D01*
G01X01132Y-00622D01*
G01X01092Y-00654D01*
G01X01010Y-00687D01*
G01X00908Y-00687D01*
G01X00827Y-00654D01*
G01X00786Y-00622D01*
G01X00766Y-00589D01*
G01X00745Y-00525D01*
D16*
G01X00762Y01914D02*
G01X01162Y02114D01*
G01X00762Y02314D01*
D16*
G01X01162Y02771D02*
G01X00952Y02771D01*
G01X00914Y02743D01*
G01X00895Y02686D01*
G01X00895Y02571D01*
G01X00914Y02514D01*
D16*
G01X01143Y02771D02*
G01X01162Y02714D01*
G01X01162Y02571D01*
G01X01143Y02514D01*
G01X01105Y02486D01*
G01X01067Y02486D01*
G01X01029Y02514D01*
G01X01010Y02571D01*
G01X01010Y02714D01*
G01X00990Y02771D01*
D16*
G01X01162Y03143D02*
G01X01143Y03086D01*
G01X01105Y03057D01*
G01X00762Y03057D01*
D16*
G01X00762Y03457D02*
G01X00857Y03457D01*
D16*
G01X00819Y03314D02*
G01X00857Y03457D01*
G01X00819Y03600D01*
D16*
G01X00933Y03371D02*
G01X00857Y03457D01*
G01X00933Y03543D01*
D16*
G01X00762Y03914D02*
G01X00857Y03914D01*
D16*
G01X00819Y03771D02*
G01X00857Y03914D01*
G01X00819Y04057D01*
D16*
G01X00933Y03829D02*
G01X00857Y03914D01*
G01X00933Y04000D01*
D16*
G01X-06500Y05500D02*
G01X-05500Y05500D01*
D16*
G01X-05500Y05500D02*
G01X-05500Y-04500D01*
D16*
G01X-05500Y-04500D02*
G01X-06500Y-04500D01*
D16*
G01X-06500Y-04500D02*
G01X-06500Y05500D01*
D16*
G01X-06500Y04500D02*
G01X-05500Y04500D01*
D16*
G01X-04847Y01298D02*
G01X-04827Y01395D01*
G01X-04827Y01557D01*
G01X-04847Y01622D01*
G01X-04868Y01654D01*
G01X-04908Y01687D01*
G01X-04949Y01687D01*
G01X-04990Y01654D01*
G01X-05010Y01622D01*
G01X-05031Y01557D01*
G01X-05051Y01427D01*
G01X-05071Y01362D01*
G01X-05092Y01330D01*
G01X-05132Y01298D01*
G01X-05173Y01298D01*
G01X-05214Y01330D01*
G01X-05234Y01362D01*
G01X-05255Y01427D01*
G01X-05255Y01589D01*
G01X-05234Y01687D01*
D16*
G01X-04827Y01978D02*
G01X-05255Y01978D01*
D16*
G01X-04827Y02627D02*
G01X-04827Y02303D01*
G01X-05255Y02303D01*
D16*
G01X-04990Y02854D02*
G01X-04990Y03373D01*
D16*
G01X-04827Y04054D02*
G01X-04827Y03665D01*
D16*
G01X-04827Y03859D02*
G01X-05255Y03859D01*
G01X-05194Y03795D01*
G01X-05153Y03730D01*
G01X-05132Y03665D01*
D16*
G01X-05255Y04476D02*
G01X-05255Y04540D01*
G01X-05234Y04605D01*
G01X-05214Y04638D01*
G01X-05173Y04670D01*
G01X-05092Y04703D01*
G01X-04990Y04703D01*
G01X-04908Y04670D01*
G01X-04868Y04638D01*
G01X-04847Y04605D01*
G01X-04827Y04540D01*
G01X-04827Y04476D01*
G01X-04847Y04411D01*
G01X-04868Y04378D01*
G01X-04908Y04346D01*
G01X-04990Y04313D01*
G01X-05092Y04313D01*
G01X-05173Y04346D01*
G01X-05214Y04378D01*
G01X-05234Y04411D01*
G01X-05255Y04476D01*
D16*
G01X-05238Y-03086D02*
G01X-04838Y-02886D01*
G01X-05238Y-02686D01*
D16*
G01X-04838Y-02229D02*
G01X-05048Y-02229D01*
G01X-05086Y-02257D01*
G01X-05105Y-02314D01*
G01X-05105Y-02429D01*
G01X-05086Y-02486D01*
D16*
G01X-04857Y-02229D02*
G01X-04838Y-02286D01*
G01X-04838Y-02429D01*
G01X-04857Y-02486D01*
G01X-04895Y-02514D01*
G01X-04933Y-02514D01*
G01X-04971Y-02486D01*
G01X-04990Y-02429D01*
G01X-04990Y-02286D01*
G01X-05010Y-02229D01*
D16*
G01X-04838Y-01857D02*
G01X-04857Y-01914D01*
G01X-04895Y-01943D01*
G01X-05238Y-01943D01*
D16*
G01X-05238Y-01543D02*
G01X-05143Y-01543D01*
D16*
G01X-05181Y-01686D02*
G01X-05143Y-01543D01*
G01X-05181Y-01400D01*
D16*
G01X-05067Y-01629D02*
G01X-05143Y-01543D01*
G01X-05067Y-01457D01*
D16*
G01X-05238Y-01086D02*
G01X-05143Y-01086D01*
D16*
G01X-05181Y-01229D02*
G01X-05143Y-01086D01*
G01X-05181Y-00943D01*
D16*
G01X-05067Y-01171D02*
G01X-05143Y-01086D01*
G01X-05067Y-01000D01*
D20*
G01X-00795Y-04075D02*
G01X-00794Y-04075D01*
G01X-00793Y-04074D01*
G01X-00792Y-04074D01*
G01X-00791Y-04073D01*
G01X-00790Y-04073D01*
G01X-00789Y-04073D01*
G01X-00788Y-04072D01*
G01X-00787Y-04072D01*
G01X-00786Y-04071D01*
G01X-00785Y-04071D01*
G01X-00784Y-04070D01*
G01X-00784Y-04070D01*
G01X-00783Y-04070D01*
G01X-00782Y-04069D01*
G01X-00781Y-04069D01*
G01X-00780Y-04068D01*
G01X-00779Y-04068D01*
G01X-00778Y-04067D01*
G01X-00777Y-04067D01*
G01X-00776Y-04067D01*
G01X-00775Y-04066D01*
G01X-00774Y-04066D01*
G01X-00773Y-04065D01*
G01X-00772Y-04065D01*
G01X-00771Y-04064D01*
G01X-00770Y-04064D01*
G01X-00769Y-04063D01*
G01X-00769Y-04063D01*
G01X-00768Y-04062D01*
G01X-00767Y-04062D01*
G01X-00766Y-04062D01*
G01X-00765Y-04061D01*
G01X-00764Y-04061D01*
G01X-00763Y-04060D01*
G01X-00762Y-04060D01*
G01X-00761Y-04059D01*
G01X-00760Y-04059D01*
G01X-00759Y-04058D01*
G01X-00758Y-04058D01*
G01X-00757Y-04057D01*
G01X-00757Y-04057D01*
G01X-00756Y-04056D01*
G01X-00755Y-04056D01*
G01X-00754Y-04055D01*
G01X-00753Y-04055D01*
G01X-00752Y-04054D01*
G01X-00751Y-04054D01*
G01X-00750Y-04053D01*
G01X-00749Y-04053D01*
G01X-00748Y-04052D01*
G01X-00747Y-04052D01*
G01X-00747Y-04051D01*
G01X-00746Y-04051D01*
G01X-00745Y-04050D01*
G01X-00744Y-04049D01*
G01X-00743Y-04049D01*
G01X-00742Y-04048D01*
G01X-00741Y-04048D01*
G01X-00740Y-04047D01*
G01X-00739Y-04047D01*
G01X-00738Y-04046D01*
G01X-00738Y-04046D01*
G01X-00737Y-04045D01*
G01X-00736Y-04045D01*
D20*
G01X-00735Y-04044D02*
G01X-00587Y-04165D01*
D20*
G01X-00587Y-04165D02*
G01X-00485Y-04063D01*
D20*
G01X-00485Y-04063D02*
G01X-00606Y-03915D01*
D20*
G01X-00606Y-03915D02*
G01X-00605Y-03913D01*
G01X-00604Y-03911D01*
G01X-00603Y-03910D01*
G01X-00602Y-03908D01*
G01X-00601Y-03906D01*
G01X-00599Y-03904D01*
G01X-00598Y-03902D01*
G01X-00597Y-03901D01*
G01X-00596Y-03899D01*
G01X-00595Y-03897D01*
G01X-00594Y-03895D01*
G01X-00593Y-03893D01*
G01X-00592Y-03891D01*
G01X-00591Y-03890D01*
G01X-00590Y-03888D01*
G01X-00589Y-03886D01*
G01X-00588Y-03884D01*
G01X-00587Y-03882D01*
G01X-00587Y-03880D01*
G01X-00586Y-03878D01*
G01X-00585Y-03876D01*
G01X-00584Y-03874D01*
G01X-00583Y-03873D01*
G01X-00582Y-03871D01*
G01X-00581Y-03869D01*
G01X-00580Y-03867D01*
G01X-00579Y-03865D01*
G01X-00579Y-03863D01*
G01X-00578Y-03861D01*
G01X-00577Y-03859D01*
G01X-00576Y-03857D01*
G01X-00575Y-03855D01*
G01X-00574Y-03853D01*
G01X-00574Y-03851D01*
G01X-00573Y-03849D01*
G01X-00572Y-03847D01*
G01X-00571Y-03846D01*
G01X-00571Y-03844D01*
G01X-00570Y-03842D01*
G01X-00569Y-03840D01*
G01X-00568Y-03838D01*
G01X-00568Y-03836D01*
G01X-00567Y-03834D01*
G01X-00566Y-03832D01*
G01X-00566Y-03830D01*
G01X-00565Y-03828D01*
G01X-00564Y-03826D01*
G01X-00564Y-03824D01*
G01X-00563Y-03822D01*
G01X-00562Y-03820D01*
G01X-00562Y-03818D01*
G01X-00561Y-03816D01*
G01X-00561Y-03814D01*
G01X-00560Y-03812D01*
G01X-00559Y-03810D01*
G01X-00559Y-03808D01*
G01X-00558Y-03806D01*
G01X-00558Y-03804D01*
G01X-00557Y-03801D01*
G01X-00557Y-03799D01*
G01X-00556Y-03797D01*
G01X-00556Y-03795D01*
G01X-00555Y-03793D01*
G01X-00555Y-03791D01*
D20*
G01X-00555Y-03791D02*
G01X-00364Y-03771D01*
D20*
G01X-00364Y-03771D02*
G01X-00364Y-03629D01*
D20*
G01X-00364Y-03629D02*
G01X-00555Y-03609D01*
D20*
G01X-00555Y-03609D02*
G01X-00555Y-03607D01*
G01X-00556Y-03605D01*
G01X-00556Y-03603D01*
G01X-00557Y-03601D01*
G01X-00557Y-03599D01*
G01X-00558Y-03597D01*
G01X-00559Y-03595D01*
G01X-00559Y-03593D01*
G01X-00560Y-03591D01*
G01X-00560Y-03589D01*
G01X-00561Y-03587D01*
G01X-00561Y-03585D01*
G01X-00562Y-03583D01*
G01X-00563Y-03581D01*
G01X-00563Y-03579D01*
G01X-00564Y-03577D01*
G01X-00565Y-03575D01*
G01X-00565Y-03573D01*
G01X-00566Y-03571D01*
G01X-00567Y-03569D01*
G01X-00567Y-03567D01*
G01X-00568Y-03565D01*
G01X-00569Y-03563D01*
G01X-00569Y-03561D01*
G01X-00570Y-03559D01*
G01X-00571Y-03557D01*
G01X-00572Y-03555D01*
G01X-00572Y-03553D01*
G01X-00573Y-03551D01*
G01X-00574Y-03549D01*
G01X-00575Y-03547D01*
G01X-00575Y-03545D01*
G01X-00576Y-03543D01*
G01X-00577Y-03541D01*
G01X-00578Y-03539D01*
G01X-00579Y-03537D01*
G01X-00580Y-03535D01*
G01X-00580Y-03533D01*
G01X-00581Y-03532D01*
G01X-00582Y-03530D01*
G01X-00583Y-03528D01*
G01X-00584Y-03526D01*
G01X-00585Y-03524D01*
G01X-00586Y-03522D01*
G01X-00587Y-03520D01*
G01X-00588Y-03518D01*
G01X-00589Y-03516D01*
G01X-00590Y-03515D01*
G01X-00591Y-03513D01*
G01X-00591Y-03511D01*
G01X-00592Y-03509D01*
G01X-00593Y-03507D01*
G01X-00594Y-03505D01*
G01X-00595Y-03503D01*
G01X-00597Y-03502D01*
G01X-00598Y-03500D01*
G01X-00599Y-03498D01*
G01X-00600Y-03496D01*
G01X-00601Y-03494D01*
G01X-00602Y-03493D01*
G01X-00603Y-03491D01*
G01X-00604Y-03489D01*
G01X-00605Y-03487D01*
G01X-00606Y-03485D01*
D20*
G01X-00606Y-03485D02*
G01X-00485Y-03337D01*
D20*
G01X-00485Y-03337D02*
G01X-00587Y-03235D01*
D20*
G01X-00587Y-03235D02*
G01X-00735Y-03356D01*
D20*
G01X-00735Y-03356D02*
G01X-00737Y-03355D01*
G01X-00739Y-03354D01*
G01X-00740Y-03353D01*
G01X-00742Y-03352D01*
G01X-00744Y-03351D01*
G01X-00746Y-03349D01*
G01X-00748Y-03348D01*
G01X-00749Y-03347D01*
G01X-00751Y-03346D01*
G01X-00753Y-03345D01*
G01X-00755Y-03344D01*
G01X-00757Y-03343D01*
G01X-00759Y-03342D01*
G01X-00760Y-03341D01*
G01X-00762Y-03340D01*
G01X-00764Y-03339D01*
G01X-00766Y-03338D01*
G01X-00768Y-03337D01*
G01X-00770Y-03337D01*
G01X-00772Y-03336D01*
G01X-00774Y-03335D01*
G01X-00776Y-03334D01*
G01X-00777Y-03333D01*
G01X-00779Y-03332D01*
G01X-00781Y-03331D01*
G01X-00783Y-03330D01*
G01X-00785Y-03329D01*
G01X-00787Y-03329D01*
G01X-00789Y-03328D01*
G01X-00791Y-03327D01*
G01X-00793Y-03326D01*
G01X-00795Y-03325D01*
G01X-00797Y-03324D01*
G01X-00799Y-03324D01*
G01X-00801Y-03323D01*
G01X-00803Y-03322D01*
G01X-00804Y-03321D01*
G01X-00806Y-03321D01*
G01X-00808Y-03320D01*
G01X-00810Y-03319D01*
G01X-00812Y-03318D01*
G01X-00814Y-03318D01*
G01X-00816Y-03317D01*
G01X-00818Y-03316D01*
G01X-00820Y-03316D01*
G01X-00822Y-03315D01*
G01X-00824Y-03314D01*
G01X-00826Y-03314D01*
G01X-00828Y-03313D01*
G01X-00830Y-03312D01*
G01X-00832Y-03312D01*
G01X-00834Y-03311D01*
G01X-00836Y-03311D01*
G01X-00838Y-03310D01*
G01X-00840Y-03309D01*
G01X-00842Y-03309D01*
G01X-00844Y-03308D01*
G01X-00846Y-03308D01*
G01X-00849Y-03307D01*
G01X-00851Y-03307D01*
G01X-00853Y-03306D01*
G01X-00855Y-03306D01*
G01X-00857Y-03305D01*
G01X-00859Y-03305D01*
D20*
G01X-00859Y-03305D02*
G01X-00879Y-03114D01*
D20*
G01X-00879Y-03114D02*
G01X-01021Y-03114D01*
D20*
G01X-01021Y-03114D02*
G01X-01041Y-03305D01*
D20*
G01X-01041Y-03305D02*
G01X-01043Y-03305D01*
G01X-01045Y-03306D01*
G01X-01047Y-03306D01*
G01X-01049Y-03307D01*
G01X-01051Y-03307D01*
G01X-01053Y-03308D01*
G01X-01055Y-03309D01*
G01X-01057Y-03309D01*
G01X-01059Y-03310D01*
G01X-01061Y-03310D01*
G01X-01063Y-03311D01*
G01X-01065Y-03311D01*
G01X-01067Y-03312D01*
G01X-01069Y-03313D01*
G01X-01071Y-03313D01*
G01X-01073Y-03314D01*
G01X-01075Y-03315D01*
G01X-01077Y-03315D01*
G01X-01079Y-03316D01*
G01X-01081Y-03317D01*
G01X-01083Y-03317D01*
G01X-01085Y-03318D01*
G01X-01087Y-03319D01*
G01X-01089Y-03319D01*
G01X-01091Y-03320D01*
G01X-01093Y-03321D01*
G01X-01095Y-03322D01*
G01X-01097Y-03322D01*
G01X-01099Y-03323D01*
G01X-01101Y-03324D01*
G01X-01103Y-03325D01*
G01X-01105Y-03325D01*
G01X-01107Y-03326D01*
G01X-01109Y-03327D01*
G01X-01111Y-03328D01*
G01X-01113Y-03329D01*
G01X-01115Y-03330D01*
G01X-01117Y-03330D01*
G01X-01118Y-03331D01*
G01X-01120Y-03332D01*
G01X-01122Y-03333D01*
G01X-01124Y-03334D01*
G01X-01126Y-03335D01*
G01X-01128Y-03336D01*
G01X-01130Y-03337D01*
G01X-01132Y-03338D01*
G01X-01134Y-03339D01*
G01X-01135Y-03340D01*
G01X-01137Y-03341D01*
G01X-01139Y-03341D01*
G01X-01141Y-03342D01*
G01X-01143Y-03343D01*
G01X-01145Y-03344D01*
G01X-01147Y-03345D01*
G01X-01148Y-03347D01*
G01X-01150Y-03348D01*
G01X-01152Y-03349D01*
G01X-01154Y-03350D01*
G01X-01156Y-03351D01*
G01X-01157Y-03352D01*
G01X-01159Y-03353D01*
G01X-01161Y-03354D01*
G01X-01163Y-03355D01*
G01X-01165Y-03356D01*
D20*
G01X-01165Y-03356D02*
G01X-01313Y-03235D01*
D20*
G01X-01313Y-03235D02*
G01X-01415Y-03337D01*
D20*
G01X-01415Y-03337D02*
G01X-01294Y-03485D01*
D20*
G01X-01294Y-03485D02*
G01X-01295Y-03487D01*
G01X-01296Y-03489D01*
G01X-01297Y-03490D01*
G01X-01298Y-03492D01*
G01X-01299Y-03494D01*
G01X-01301Y-03496D01*
G01X-01302Y-03498D01*
G01X-01303Y-03499D01*
G01X-01304Y-03501D01*
G01X-01305Y-03503D01*
G01X-01306Y-03505D01*
G01X-01307Y-03507D01*
G01X-01308Y-03509D01*
G01X-01309Y-03510D01*
G01X-01310Y-03512D01*
G01X-01311Y-03514D01*
G01X-01312Y-03516D01*
G01X-01313Y-03518D01*
G01X-01313Y-03520D01*
G01X-01314Y-03522D01*
G01X-01315Y-03524D01*
G01X-01316Y-03526D01*
G01X-01317Y-03527D01*
G01X-01318Y-03529D01*
G01X-01319Y-03531D01*
G01X-01320Y-03533D01*
G01X-01321Y-03535D01*
G01X-01321Y-03537D01*
G01X-01322Y-03539D01*
G01X-01323Y-03541D01*
G01X-01324Y-03543D01*
G01X-01325Y-03545D01*
G01X-01326Y-03547D01*
G01X-01326Y-03549D01*
G01X-01327Y-03551D01*
G01X-01328Y-03553D01*
G01X-01329Y-03554D01*
G01X-01329Y-03556D01*
G01X-01330Y-03558D01*
G01X-01331Y-03560D01*
G01X-01332Y-03562D01*
G01X-01332Y-03564D01*
G01X-01333Y-03566D01*
G01X-01334Y-03568D01*
G01X-01334Y-03570D01*
G01X-01335Y-03572D01*
G01X-01336Y-03574D01*
G01X-01336Y-03576D01*
G01X-01337Y-03578D01*
G01X-01338Y-03580D01*
G01X-01338Y-03582D01*
G01X-01339Y-03584D01*
G01X-01339Y-03586D01*
G01X-01340Y-03588D01*
G01X-01341Y-03590D01*
G01X-01341Y-03592D01*
G01X-01342Y-03594D01*
G01X-01342Y-03596D01*
G01X-01343Y-03599D01*
G01X-01343Y-03601D01*
G01X-01344Y-03603D01*
G01X-01344Y-03605D01*
G01X-01345Y-03607D01*
G01X-01345Y-03609D01*
D20*
G01X-01345Y-03609D02*
G01X-01536Y-03629D01*
D20*
G01X-01536Y-03629D02*
G01X-01536Y-03771D01*
D20*
G01X-01536Y-03771D02*
G01X-01345Y-03791D01*
D20*
G01X-01345Y-03791D02*
G01X-01345Y-03793D01*
G01X-01344Y-03795D01*
G01X-01344Y-03797D01*
G01X-01343Y-03799D01*
G01X-01343Y-03801D01*
G01X-01342Y-03803D01*
G01X-01341Y-03805D01*
G01X-01341Y-03807D01*
G01X-01340Y-03809D01*
G01X-01340Y-03811D01*
G01X-01339Y-03813D01*
G01X-01339Y-03815D01*
G01X-01338Y-03817D01*
G01X-01337Y-03819D01*
G01X-01337Y-03821D01*
G01X-01336Y-03823D01*
G01X-01335Y-03825D01*
G01X-01335Y-03827D01*
G01X-01334Y-03829D01*
G01X-01333Y-03831D01*
G01X-01333Y-03833D01*
G01X-01332Y-03835D01*
G01X-01331Y-03837D01*
G01X-01331Y-03839D01*
G01X-01330Y-03841D01*
G01X-01329Y-03843D01*
G01X-01328Y-03845D01*
G01X-01328Y-03847D01*
G01X-01327Y-03849D01*
G01X-01326Y-03851D01*
G01X-01325Y-03853D01*
G01X-01325Y-03855D01*
G01X-01324Y-03857D01*
G01X-01323Y-03859D01*
G01X-01322Y-03861D01*
G01X-01321Y-03863D01*
G01X-01320Y-03865D01*
G01X-01320Y-03867D01*
G01X-01319Y-03868D01*
G01X-01318Y-03870D01*
G01X-01317Y-03872D01*
G01X-01316Y-03874D01*
G01X-01315Y-03876D01*
G01X-01314Y-03878D01*
G01X-01313Y-03880D01*
G01X-01312Y-03882D01*
G01X-01311Y-03884D01*
G01X-01310Y-03885D01*
G01X-01309Y-03887D01*
G01X-01309Y-03889D01*
G01X-01308Y-03891D01*
G01X-01307Y-03893D01*
G01X-01306Y-03895D01*
G01X-01305Y-03897D01*
G01X-01303Y-03898D01*
G01X-01302Y-03900D01*
G01X-01301Y-03902D01*
G01X-01300Y-03904D01*
G01X-01299Y-03906D01*
G01X-01298Y-03907D01*
G01X-01297Y-03909D01*
G01X-01296Y-03911D01*
G01X-01295Y-03913D01*
G01X-01294Y-03915D01*
D20*
G01X-01294Y-03915D02*
G01X-01415Y-04063D01*
D20*
G01X-01415Y-04063D02*
G01X-01313Y-04165D01*
D20*
G01X-01313Y-04165D02*
G01X-01165Y-04044D01*
D20*
G01X-01165Y-04044D02*
G01X-01164Y-04045D01*
G01X-01163Y-04045D01*
G01X-01162Y-04046D01*
G01X-01161Y-04046D01*
G01X-01161Y-04047D01*
G01X-01160Y-04047D01*
G01X-01159Y-04048D01*
G01X-01158Y-04048D01*
G01X-01157Y-04049D01*
G01X-01156Y-04049D01*
G01X-01155Y-04050D01*
G01X-01154Y-04050D01*
G01X-01153Y-04051D01*
G01X-01153Y-04051D01*
G01X-01152Y-04052D01*
G01X-01151Y-04053D01*
G01X-01150Y-04053D01*
G01X-01149Y-04054D01*
G01X-01148Y-04054D01*
G01X-01147Y-04055D01*
G01X-01146Y-04055D01*
G01X-01145Y-04056D01*
G01X-01144Y-04056D01*
G01X-01143Y-04057D01*
G01X-01143Y-04057D01*
G01X-01142Y-04058D01*
G01X-01141Y-04058D01*
G01X-01140Y-04059D01*
G01X-01139Y-04059D01*
G01X-01138Y-04060D01*
G01X-01137Y-04060D01*
G01X-01136Y-04060D01*
G01X-01135Y-04061D01*
G01X-01134Y-04061D01*
G01X-01133Y-04062D01*
G01X-01132Y-04062D01*
G01X-01131Y-04063D01*
G01X-01131Y-04063D01*
G01X-01130Y-04064D01*
G01X-01129Y-04064D01*
G01X-01128Y-04065D01*
G01X-01127Y-04065D01*
G01X-01126Y-04066D01*
G01X-01125Y-04066D01*
G01X-01124Y-04066D01*
G01X-01123Y-04067D01*
G01X-01122Y-04067D01*
G01X-01121Y-04068D01*
G01X-01120Y-04068D01*
G01X-01119Y-04069D01*
G01X-01118Y-04069D01*
G01X-01117Y-04070D01*
G01X-01116Y-04070D01*
G01X-01115Y-04070D01*
G01X-01115Y-04071D01*
G01X-01114Y-04071D01*
G01X-01113Y-04072D01*
G01X-01112Y-04072D01*
G01X-01111Y-04072D01*
G01X-01110Y-04073D01*
G01X-01109Y-04073D01*
G01X-01108Y-04074D01*
G01X-01107Y-04074D01*
G01X-01106Y-04074D01*
D20*
G01X-01105Y-04075D02*
G01X-01020Y-03870D01*
D20*
G01X-01020Y-03870D02*
G01X-01023Y-03869D01*
G01X-01026Y-03867D01*
G01X-01029Y-03866D01*
G01X-01032Y-03864D01*
G01X-01035Y-03863D01*
G01X-01038Y-03861D01*
G01X-01041Y-03860D01*
G01X-01044Y-03858D01*
G01X-01047Y-03856D01*
G01X-01050Y-03854D01*
G01X-01053Y-03852D01*
G01X-01056Y-03851D01*
G01X-01058Y-03849D01*
G01X-01061Y-03847D01*
G01X-01064Y-03844D01*
G01X-01066Y-03842D01*
G01X-01069Y-03840D01*
G01X-01071Y-03838D01*
G01X-01074Y-03836D01*
G01X-01076Y-03833D01*
G01X-01079Y-03831D01*
G01X-01081Y-03829D01*
G01X-01084Y-03826D01*
G01X-01086Y-03824D01*
G01X-01088Y-03821D01*
G01X-01090Y-03819D01*
G01X-01093Y-03816D01*
G01X-01095Y-03813D01*
G01X-01097Y-03811D01*
G01X-01099Y-03808D01*
G01X-01101Y-03805D01*
G01X-01103Y-03802D01*
G01X-01105Y-03800D01*
G01X-01106Y-03797D01*
G01X-01108Y-03794D01*
G01X-01110Y-03791D01*
G01X-01111Y-03788D01*
G01X-01113Y-03785D01*
G01X-01115Y-03782D01*
G01X-01116Y-03779D01*
G01X-01117Y-03776D01*
G01X-01119Y-03773D01*
G01X-01120Y-03770D01*
G01X-01121Y-03767D01*
G01X-01123Y-03763D01*
G01X-01124Y-03760D01*
G01X-01125Y-03757D01*
G01X-01126Y-03754D01*
G01X-01127Y-03750D01*
G01X-01128Y-03747D01*
G01X-01129Y-03744D01*
G01X-01129Y-03741D01*
G01X-01130Y-03737D01*
G01X-01131Y-03734D01*
G01X-01131Y-03731D01*
G01X-01132Y-03727D01*
G01X-01132Y-03724D01*
G01X-01133Y-03721D01*
G01X-01133Y-03717D01*
G01X-01133Y-03714D01*
G01X-01134Y-03711D01*
G01X-01134Y-03707D01*
G01X-01134Y-03704D01*
G01X-01134Y-03700D01*
D20*
G01X-01134Y-03700D02*
G01X-01134Y-03688D01*
G01X-01132Y-03675D01*
G01X-01130Y-03663D01*
G01X-01127Y-03651D01*
G01X-01124Y-03639D01*
G01X-01119Y-03628D01*
G01X-01114Y-03616D01*
G01X-01108Y-03605D01*
G01X-01101Y-03595D01*
G01X-01094Y-03585D01*
G01X-01086Y-03576D01*
G01X-01077Y-03567D01*
G01X-01068Y-03559D01*
G01X-01058Y-03551D01*
G01X-01048Y-03544D01*
G01X-01037Y-03538D01*
G01X-01026Y-03532D01*
G01X-01014Y-03528D01*
G01X-01002Y-03524D01*
G01X-00990Y-03520D01*
G01X-00978Y-03518D01*
G01X-00966Y-03517D01*
G01X-00954Y-03516D01*
G01X-00941Y-03516D01*
G01X-00929Y-03517D01*
G01X-00916Y-03519D01*
G01X-00904Y-03522D01*
G01X-00892Y-03525D01*
G01X-00881Y-03530D01*
G01X-00869Y-03535D01*
G01X-00858Y-03540D01*
G01X-00848Y-03547D01*
G01X-00838Y-03554D01*
G01X-00828Y-03562D01*
G01X-00819Y-03571D01*
G01X-00811Y-03580D01*
G01X-00803Y-03589D01*
G01X-00796Y-03600D01*
G01X-00789Y-03610D01*
G01X-00784Y-03621D01*
G01X-00779Y-03633D01*
G01X-00775Y-03644D01*
G01X-00771Y-03656D01*
G01X-00769Y-03668D01*
G01X-00767Y-03681D01*
G01X-00766Y-03693D01*
G01X-00766Y-03705D01*
G01X-00767Y-03718D01*
G01X-00768Y-03730D01*
G01X-00771Y-03742D01*
G01X-00774Y-03754D01*
G01X-00778Y-03766D01*
G01X-00783Y-03777D01*
G01X-00789Y-03788D01*
G01X-00795Y-03799D01*
G01X-00802Y-03809D01*
G01X-00810Y-03819D01*
G01X-00818Y-03828D01*
G01X-00827Y-03837D01*
G01X-00837Y-03845D01*
G01X-00847Y-03852D01*
G01X-00857Y-03859D01*
G01X-00868Y-03865D01*
G01X-00879Y-03870D01*
D20*
G01X-00880Y-03870D02*
G01X-00795Y-04075D01*
M02*
