M48
;DRILL file {brdgerber.py (2021-02-10 09:33:28) date 2021-02-10 09:33:28}
;FORMAT={-:-/ absolute / inch / decimal}
FMAT,2
INCH,TZ
T1C00000.03200
T2C00000.02500
%
G90
G05
M72
T1
X00000.20000Y-0000.40000
X00000.20000Y-0000.30000
X00000.20000Y-0000.20000
X00000.20000Y-0000.10000
X00000.20000Y00000.00000
X00000.20000Y00000.10000
X00000.20000Y00000.20000
X00000.20000Y00000.30000
X00000.20000Y00000.40000
X00000.20000Y00000.50000
X-0000.60000Y00000.50000
X-0000.60000Y00000.40000
X-0000.60000Y00000.30000
X-0000.60000Y00000.20000
X-0000.60000Y00000.10000
X-0000.60000Y00000.00000
X-0000.60000Y-0000.10000
X-0000.60000Y-0000.20000
X-0000.60000Y-0000.30000
X-0000.60000Y-0000.40000
T0
T2
X-0000.16000Y-0000.05500
X-0000.11500Y-0000.10000
X-0000.07000Y-0000.14500
X-0000.02500Y-0000.20500
X00000.02500Y-0000.27500
X-0000.18500Y-0000.12000
X-0000.21500Y-0000.17000
X-0000.23000Y-0000.23500
X-0000.25500Y-0000.29500
X-0000.28500Y-0000.37000
T0
M30
