G04 ( created by brdgerber.py ( brdgerber.py v0.1 2014-03-12 ) ) date 2020-10-29 11:40:15 EDT*
G04 Gerber Fmt 3.4, Leading zero omitted, Abs format*
%MOIN*%
%FSLAX34Y34*%
G01*
G70*
G90*
G04 APERTURE LIST*
%ADD20C,0.0059*%
%ADD10R,0.0550X0.0550*%
%ADD14R,0.0590X0.0354*%
%ADD16R,0.0629X0.0709*%
%ADD13C,0.0120*%
%ADD12C,0.0000*%
%ADD15C,0.0050*%
%ADD19C,0.2440*%
%ADD17C,0.0060*%
%ADD11C,0.0550*%
%ADD18C,0.0200*%
G04 APERTURE END LIST*
G54D20*
D13*
G01X-02000Y-14500D02*
G01X-01000Y-14500D01*
D13*
G01X-01000Y-14500D02*
G01X-01000Y-16500D01*
D13*
G01X-01000Y-16500D02*
G01X-02000Y-16500D01*
D13*
G01X-02000Y-16500D02*
G01X-02000Y-14500D01*
D12*
G01X-00612Y-16213D02*
G01X-00184Y-16213D01*
D12*
G01X-00592Y-16213D02*
G01X-00612Y-16149D01*
G01X-00612Y-16019D01*
G01X-00592Y-15954D01*
G01X-00571Y-15922D01*
G01X-00531Y-15889D01*
G01X-00408Y-15889D01*
G01X-00368Y-15922D01*
G01X-00347Y-15954D01*
G01X-00327Y-16019D01*
G01X-00327Y-16149D01*
G01X-00347Y-16213D01*
D12*
G01X-00612Y-15662D02*
G01X-00327Y-15532D01*
G01X-00531Y-15403D01*
G01X-00327Y-15273D01*
G01X-00612Y-15143D01*
D12*
G01X-00327Y-14884D02*
G01X-00612Y-14884D01*
D12*
G01X-00531Y-14884D02*
G01X-00571Y-14851D01*
G01X-00592Y-14819D01*
G01X-00612Y-14754D01*
G01X-00612Y-14689D01*
D13*
G01X34000Y-16500D02*
G01X33000Y-16500D01*
D13*
G01X33000Y-16500D02*
G01X33000Y-14500D01*
D13*
G01X33000Y-14500D02*
G01X34000Y-14500D01*
D13*
G01X34000Y-14500D02*
G01X34000Y-16500D01*
D12*
G01X32388Y-16213D02*
G01X32816Y-16213D01*
D12*
G01X32408Y-16213D02*
G01X32388Y-16149D01*
G01X32388Y-16019D01*
G01X32408Y-15954D01*
G01X32429Y-15922D01*
G01X32469Y-15889D01*
G01X32592Y-15889D01*
G01X32632Y-15922D01*
G01X32653Y-15954D01*
G01X32673Y-16019D01*
G01X32673Y-16149D01*
G01X32653Y-16213D01*
D12*
G01X32388Y-15662D02*
G01X32673Y-15532D01*
G01X32469Y-15403D01*
G01X32673Y-15273D01*
G01X32388Y-15143D01*
D12*
G01X32673Y-14884D02*
G01X32388Y-14884D01*
D12*
G01X32469Y-14884D02*
G01X32429Y-14851D01*
G01X32408Y-14819D01*
G01X32388Y-14754D01*
G01X32388Y-14689D01*
D13*
G01X34000Y-23500D02*
G01X33000Y-23500D01*
D13*
G01X33000Y-23500D02*
G01X33000Y-21500D01*
D13*
G01X33000Y-21500D02*
G01X34000Y-21500D01*
D13*
G01X34000Y-21500D02*
G01X34000Y-23500D01*
D12*
G01X32653Y-24592D02*
G01X32673Y-24494D01*
G01X32673Y-24332D01*
G01X32653Y-24267D01*
G01X32632Y-24235D01*
G01X32592Y-24203D01*
G01X32551Y-24203D01*
G01X32510Y-24235D01*
G01X32490Y-24267D01*
G01X32469Y-24332D01*
G01X32449Y-24462D01*
G01X32429Y-24527D01*
G01X32408Y-24559D01*
G01X32368Y-24592D01*
G01X32327Y-24592D01*
G01X32286Y-24559D01*
G01X32266Y-24527D01*
G01X32245Y-24462D01*
G01X32245Y-24300D01*
G01X32266Y-24203D01*
D12*
G01X32673Y-23911D02*
G01X32245Y-23911D01*
D12*
G01X32266Y-23230D02*
G01X32245Y-23295D01*
G01X32245Y-23392D01*
G01X32266Y-23489D01*
G01X32306Y-23554D01*
G01X32347Y-23586D01*
G01X32429Y-23619D01*
G01X32490Y-23619D01*
G01X32571Y-23586D01*
G01X32612Y-23554D01*
G01X32653Y-23489D01*
G01X32673Y-23392D01*
G01X32673Y-23327D01*
G01X32653Y-23230D01*
G01X32632Y-23197D01*
G01X32490Y-23197D01*
G01X32490Y-23327D01*
D12*
G01X32510Y-22905D02*
G01X32510Y-22386D01*
D12*
G01X32245Y-21933D02*
G01X32245Y-21803D01*
G01X32266Y-21738D01*
G01X32306Y-21673D01*
G01X32388Y-21641D01*
G01X32531Y-21641D01*
G01X32612Y-21673D01*
G01X32653Y-21738D01*
G01X32673Y-21803D01*
G01X32673Y-21933D01*
G01X32653Y-21997D01*
G01X32612Y-22062D01*
G01X32531Y-22095D01*
G01X32388Y-22095D01*
G01X32306Y-22062D01*
G01X32266Y-21997D01*
G01X32245Y-21933D01*
D12*
G01X32245Y-21349D02*
G01X32592Y-21349D01*
G01X32632Y-21316D01*
G01X32653Y-21284D01*
G01X32673Y-21219D01*
G01X32673Y-21089D01*
G01X32653Y-21025D01*
G01X32632Y-20992D01*
G01X32592Y-20960D01*
G01X32245Y-20960D01*
D12*
G01X32245Y-20733D02*
G01X32245Y-20343D01*
D12*
G01X32673Y-20538D02*
G01X32245Y-20538D01*
D13*
G01X34000Y-20500D02*
G01X33000Y-20500D01*
D13*
G01X33000Y-20500D02*
G01X33000Y-17500D01*
D13*
G01X33000Y-17500D02*
G01X34000Y-17500D01*
D13*
G01X34000Y-17500D02*
G01X34000Y-20500D01*
D13*
G01X33000Y-19500D02*
G01X34000Y-19500D01*
D12*
G01X32248Y-19705D02*
G01X32248Y-19571D01*
G01X32268Y-19504D01*
G01X32308Y-19436D01*
G01X32389Y-19403D01*
G01X32530Y-19403D01*
G01X32611Y-19436D01*
G01X32651Y-19504D01*
G01X32672Y-19571D01*
G01X32672Y-19705D01*
G01X32651Y-19772D01*
G01X32611Y-19839D01*
G01X32530Y-19873D01*
G01X32389Y-19873D01*
G01X32308Y-19839D01*
G01X32268Y-19772D01*
G01X32248Y-19705D01*
D12*
G01X32248Y-19101D02*
G01X32591Y-19101D01*
G01X32631Y-19067D01*
G01X32651Y-19034D01*
G01X32672Y-18966D01*
G01X32672Y-18832D01*
G01X32651Y-18765D01*
G01X32631Y-18731D01*
G01X32591Y-18698D01*
G01X32248Y-18698D01*
D12*
G01X32248Y-18463D02*
G01X32248Y-18060D01*
D12*
G01X32672Y-18261D02*
G01X32248Y-18261D01*
D13*
G01X-02000Y-21500D02*
G01X-01000Y-21500D01*
D13*
G01X-01000Y-21500D02*
G01X-01000Y-23500D01*
D13*
G01X-01000Y-23500D02*
G01X-02000Y-23500D01*
D13*
G01X-02000Y-23500D02*
G01X-02000Y-21500D01*
D12*
G01X-00347Y-24008D02*
G01X-00327Y-23943D01*
G01X-00327Y-23813D01*
G01X-00347Y-23748D01*
G01X-00388Y-23716D01*
G01X-00408Y-23716D01*
G01X-00449Y-23748D01*
G01X-00469Y-23813D01*
G01X-00469Y-23911D01*
G01X-00490Y-23975D01*
G01X-00531Y-24008D01*
G01X-00551Y-24008D01*
G01X-00592Y-23975D01*
G01X-00612Y-23911D01*
G01X-00612Y-23813D01*
G01X-00592Y-23748D01*
D12*
G01X-00327Y-23424D02*
G01X-00612Y-23424D01*
D12*
G01X-00755Y-23424D02*
G01X-00734Y-23457D01*
G01X-00714Y-23424D01*
G01X-00734Y-23392D01*
G01X-00755Y-23424D01*
G01X-00714Y-23424D01*
D12*
G01X-00612Y-22808D02*
G01X-00266Y-22808D01*
G01X-00225Y-22841D01*
G01X-00204Y-22873D01*
G01X-00184Y-22938D01*
G01X-00184Y-23035D01*
G01X-00204Y-23100D01*
D12*
G01X-00347Y-22808D02*
G01X-00327Y-22873D01*
G01X-00327Y-23003D01*
G01X-00347Y-23068D01*
G01X-00368Y-23100D01*
G01X-00408Y-23132D01*
G01X-00531Y-23132D01*
G01X-00571Y-23100D01*
G01X-00592Y-23068D01*
G01X-00612Y-23003D01*
G01X-00612Y-22873D01*
G01X-00592Y-22808D01*
D12*
G01X-00490Y-22484D02*
G01X-00490Y-21965D01*
D12*
G01X-00327Y-21641D02*
G01X-00612Y-21641D01*
D12*
G01X-00755Y-21641D02*
G01X-00734Y-21673D01*
G01X-00714Y-21641D01*
G01X-00734Y-21608D01*
G01X-00755Y-21641D01*
G01X-00714Y-21641D01*
D12*
G01X-00612Y-21316D02*
G01X-00327Y-21316D01*
D12*
G01X-00571Y-21316D02*
G01X-00592Y-21284D01*
G01X-00612Y-21219D01*
G01X-00612Y-21122D01*
G01X-00592Y-21057D01*
G01X-00551Y-21025D01*
G01X-00327Y-21025D01*
D13*
G01X-02000Y-17500D02*
G01X-01000Y-17500D01*
D13*
G01X-01000Y-17500D02*
G01X-01000Y-20500D01*
D13*
G01X-01000Y-20500D02*
G01X-02000Y-20500D01*
D13*
G01X-02000Y-20500D02*
G01X-02000Y-17500D01*
D13*
G01X-01000Y-18500D02*
G01X-02000Y-18500D01*
D12*
G01X-00328Y-19369D02*
G01X-00752Y-19369D01*
D12*
G01X-00328Y-19034D02*
G01X-00752Y-19034D01*
G01X-00328Y-18631D01*
G01X-00752Y-18631D01*
D15*
G01X14884Y01616D02*
G01X12916Y01616D01*
D15*
G01X12916Y01616D02*
G01X12916Y03229D01*
D15*
G01X12916Y03229D02*
G01X12916Y03584D01*
D15*
G01X12916Y03584D02*
G01X13271Y03584D01*
D15*
G01X13271Y03584D02*
G01X14884Y03584D01*
D15*
G01X14884Y03584D02*
G01X14884Y01616D01*
D15*
G01X12916Y03229D02*
G01X13271Y03584D01*
D15*
G01X13271Y03584D02*
G01X13389Y03702D01*
D15*
G01X13389Y03702D02*
G01X13231Y03859D01*
D15*
G01X13231Y03859D02*
G01X12916Y03584D01*
D15*
G01X14577Y02600D02*
G01X14577Y02600D01*
G01X14577Y02617D01*
G01X14576Y02633D01*
G01X14575Y02650D01*
G01X14574Y02666D01*
G01X14572Y02683D01*
G01X14570Y02699D01*
G01X14567Y02716D01*
G01X14564Y02732D01*
G01X14561Y02748D01*
G01X14557Y02764D01*
G01X14552Y02781D01*
G01X14548Y02797D01*
G01X14543Y02812D01*
G01X14537Y02828D01*
G01X14532Y02844D01*
G01X14525Y02859D01*
G01X14519Y02874D01*
G01X14512Y02889D01*
G01X14505Y02904D01*
G01X14497Y02919D01*
G01X14489Y02934D01*
G01X14481Y02948D01*
G01X14472Y02962D01*
G01X14463Y02976D01*
G01X14454Y02990D01*
G01X14444Y03003D01*
G01X14434Y03017D01*
G01X14423Y03029D01*
G01X14413Y03042D01*
G01X14402Y03055D01*
G01X14390Y03067D01*
G01X14379Y03079D01*
G01X14367Y03090D01*
G01X14355Y03102D01*
G01X14342Y03113D01*
G01X14329Y03123D01*
G01X14317Y03134D01*
G01X14303Y03144D01*
G01X14290Y03154D01*
G01X14276Y03163D01*
G01X14262Y03172D01*
G01X14248Y03181D01*
G01X14234Y03189D01*
G01X14219Y03197D01*
G01X14204Y03205D01*
G01X14189Y03212D01*
G01X14174Y03219D01*
G01X14159Y03225D01*
G01X14144Y03232D01*
G01X14128Y03237D01*
G01X14112Y03243D01*
G01X14097Y03248D01*
G01X14081Y03252D01*
G01X14064Y03257D01*
G01X14048Y03261D01*
G01X14032Y03264D01*
G01X14016Y03267D01*
G01X13999Y03270D01*
G01X13983Y03272D01*
G01X13966Y03274D01*
G01X13950Y03275D01*
G01X13933Y03276D01*
G01X13917Y03277D01*
G01X13900Y03277D01*
G01X13883Y03277D01*
G01X13867Y03276D01*
G01X13850Y03275D01*
G01X13834Y03274D01*
G01X13817Y03272D01*
G01X13801Y03270D01*
G01X13784Y03267D01*
G01X13768Y03264D01*
G01X13752Y03261D01*
G01X13736Y03257D01*
G01X13719Y03252D01*
G01X13703Y03248D01*
G01X13688Y03243D01*
G01X13672Y03237D01*
G01X13656Y03232D01*
G01X13641Y03225D01*
G01X13626Y03219D01*
G01X13611Y03212D01*
G01X13596Y03205D01*
G01X13581Y03197D01*
G01X13566Y03189D01*
G01X13552Y03181D01*
G01X13538Y03172D01*
G01X13524Y03163D01*
G01X13510Y03154D01*
G01X13497Y03144D01*
G01X13483Y03134D01*
G01X13471Y03123D01*
G01X13458Y03113D01*
G01X13445Y03102D01*
G01X13433Y03090D01*
G01X13421Y03079D01*
G01X13410Y03067D01*
G01X13398Y03055D01*
G01X13387Y03042D01*
G01X13377Y03029D01*
G01X13366Y03017D01*
G01X13356Y03003D01*
G01X13346Y02990D01*
G01X13337Y02976D01*
G01X13328Y02962D01*
G01X13319Y02948D01*
G01X13311Y02934D01*
G01X13303Y02919D01*
G01X13295Y02904D01*
G01X13288Y02889D01*
G01X13281Y02874D01*
G01X13275Y02859D01*
G01X13268Y02844D01*
G01X13263Y02828D01*
G01X13257Y02812D01*
G01X13252Y02797D01*
G01X13248Y02781D01*
G01X13243Y02764D01*
G01X13239Y02748D01*
G01X13236Y02732D01*
G01X13233Y02716D01*
G01X13230Y02699D01*
G01X13228Y02683D01*
G01X13226Y02666D01*
G01X13225Y02650D01*
G01X13224Y02633D01*
G01X13223Y02617D01*
G01X13223Y02600D01*
G01X13223Y02583D01*
G01X13224Y02567D01*
G01X13225Y02550D01*
G01X13226Y02534D01*
G01X13228Y02517D01*
G01X13230Y02501D01*
G01X13233Y02484D01*
G01X13236Y02468D01*
G01X13239Y02452D01*
G01X13243Y02436D01*
G01X13248Y02419D01*
G01X13252Y02403D01*
G01X13257Y02388D01*
G01X13263Y02372D01*
G01X13268Y02356D01*
G01X13275Y02341D01*
G01X13281Y02326D01*
G01X13288Y02311D01*
G01X13295Y02296D01*
G01X13303Y02281D01*
G01X13311Y02266D01*
G01X13319Y02252D01*
G01X13328Y02238D01*
G01X13337Y02224D01*
G01X13346Y02210D01*
G01X13356Y02197D01*
G01X13366Y02183D01*
G01X13377Y02171D01*
G01X13387Y02158D01*
G01X13398Y02145D01*
G01X13410Y02133D01*
G01X13421Y02121D01*
G01X13433Y02110D01*
G01X13445Y02098D01*
G01X13458Y02087D01*
G01X13471Y02077D01*
G01X13483Y02066D01*
G01X13497Y02056D01*
G01X13510Y02046D01*
G01X13524Y02037D01*
G01X13538Y02028D01*
G01X13552Y02019D01*
G01X13566Y02011D01*
G01X13581Y02003D01*
G01X13596Y01995D01*
G01X13611Y01988D01*
G01X13626Y01981D01*
G01X13641Y01975D01*
G01X13656Y01968D01*
G01X13672Y01963D01*
G01X13688Y01957D01*
G01X13703Y01952D01*
G01X13719Y01948D01*
G01X13736Y01943D01*
G01X13752Y01939D01*
G01X13768Y01936D01*
G01X13784Y01933D01*
G01X13801Y01930D01*
G01X13817Y01928D01*
G01X13834Y01926D01*
G01X13850Y01925D01*
G01X13867Y01924D01*
G01X13883Y01923D01*
G01X13900Y01923D01*
G01X13917Y01923D01*
G01X13933Y01924D01*
G01X13950Y01925D01*
G01X13966Y01926D01*
G01X13983Y01928D01*
G01X13999Y01930D01*
G01X14016Y01933D01*
G01X14032Y01936D01*
G01X14048Y01939D01*
G01X14064Y01943D01*
G01X14081Y01948D01*
G01X14097Y01952D01*
G01X14112Y01957D01*
G01X14128Y01963D01*
G01X14144Y01968D01*
G01X14159Y01975D01*
G01X14174Y01981D01*
G01X14189Y01988D01*
G01X14204Y01995D01*
G01X14219Y02003D01*
G01X14234Y02011D01*
G01X14248Y02019D01*
G01X14262Y02028D01*
G01X14276Y02037D01*
G01X14290Y02046D01*
G01X14303Y02056D01*
G01X14317Y02066D01*
G01X14329Y02077D01*
G01X14342Y02087D01*
G01X14355Y02098D01*
G01X14367Y02110D01*
G01X14379Y02121D01*
G01X14390Y02133D01*
G01X14402Y02145D01*
G01X14413Y02158D01*
G01X14423Y02171D01*
G01X14434Y02183D01*
G01X14444Y02197D01*
G01X14454Y02210D01*
G01X14463Y02224D01*
G01X14472Y02238D01*
G01X14481Y02252D01*
G01X14489Y02266D01*
G01X14497Y02281D01*
G01X14505Y02296D01*
G01X14512Y02311D01*
G01X14519Y02326D01*
G01X14525Y02341D01*
G01X14532Y02356D01*
G01X14537Y02372D01*
G01X14543Y02388D01*
G01X14548Y02403D01*
G01X14552Y02419D01*
G01X14557Y02436D01*
G01X14561Y02452D01*
G01X14564Y02468D01*
G01X14567Y02484D01*
G01X14570Y02501D01*
G01X14572Y02517D01*
G01X14574Y02534D01*
G01X14575Y02550D01*
G01X14576Y02567D01*
G01X14577Y02583D01*
G01X14577Y02600D01*
D15*
G01X19784Y-42134D02*
G01X17816Y-42134D01*
D15*
G01X17816Y-42134D02*
G01X17816Y-40521D01*
D15*
G01X17816Y-40521D02*
G01X17816Y-40166D01*
D15*
G01X17816Y-40166D02*
G01X18171Y-40166D01*
D15*
G01X18171Y-40166D02*
G01X19784Y-40166D01*
D15*
G01X19784Y-40166D02*
G01X19784Y-42134D01*
D15*
G01X17816Y-40521D02*
G01X18171Y-40166D01*
D15*
G01X18171Y-40166D02*
G01X18289Y-40048D01*
D15*
G01X18289Y-40048D02*
G01X18131Y-39891D01*
D15*
G01X18131Y-39891D02*
G01X17816Y-40166D01*
D15*
G01X19477Y-41150D02*
G01X19477Y-41150D01*
G01X19477Y-41133D01*
G01X19476Y-41117D01*
G01X19475Y-41100D01*
G01X19474Y-41084D01*
G01X19472Y-41067D01*
G01X19470Y-41051D01*
G01X19467Y-41034D01*
G01X19464Y-41018D01*
G01X19461Y-41002D01*
G01X19457Y-40986D01*
G01X19452Y-40969D01*
G01X19448Y-40953D01*
G01X19443Y-40938D01*
G01X19437Y-40922D01*
G01X19432Y-40906D01*
G01X19425Y-40891D01*
G01X19419Y-40876D01*
G01X19412Y-40861D01*
G01X19405Y-40846D01*
G01X19397Y-40831D01*
G01X19389Y-40816D01*
G01X19381Y-40802D01*
G01X19372Y-40788D01*
G01X19363Y-40774D01*
G01X19354Y-40760D01*
G01X19344Y-40747D01*
G01X19334Y-40733D01*
G01X19323Y-40721D01*
G01X19313Y-40708D01*
G01X19302Y-40695D01*
G01X19290Y-40683D01*
G01X19279Y-40671D01*
G01X19267Y-40660D01*
G01X19255Y-40648D01*
G01X19242Y-40637D01*
G01X19229Y-40627D01*
G01X19217Y-40616D01*
G01X19203Y-40606D01*
G01X19190Y-40596D01*
G01X19176Y-40587D01*
G01X19162Y-40578D01*
G01X19148Y-40569D01*
G01X19134Y-40561D01*
G01X19119Y-40553D01*
G01X19104Y-40545D01*
G01X19089Y-40538D01*
G01X19074Y-40531D01*
G01X19059Y-40525D01*
G01X19044Y-40518D01*
G01X19028Y-40513D01*
G01X19012Y-40507D01*
G01X18997Y-40502D01*
G01X18981Y-40498D01*
G01X18964Y-40493D01*
G01X18948Y-40489D01*
G01X18932Y-40486D01*
G01X18916Y-40483D01*
G01X18899Y-40480D01*
G01X18883Y-40478D01*
G01X18866Y-40476D01*
G01X18850Y-40475D01*
G01X18833Y-40474D01*
G01X18817Y-40473D01*
G01X18800Y-40473D01*
G01X18783Y-40473D01*
G01X18767Y-40474D01*
G01X18750Y-40475D01*
G01X18734Y-40476D01*
G01X18717Y-40478D01*
G01X18701Y-40480D01*
G01X18684Y-40483D01*
G01X18668Y-40486D01*
G01X18652Y-40489D01*
G01X18636Y-40493D01*
G01X18619Y-40498D01*
G01X18603Y-40502D01*
G01X18588Y-40507D01*
G01X18572Y-40513D01*
G01X18556Y-40518D01*
G01X18541Y-40525D01*
G01X18526Y-40531D01*
G01X18511Y-40538D01*
G01X18496Y-40545D01*
G01X18481Y-40553D01*
G01X18466Y-40561D01*
G01X18452Y-40569D01*
G01X18438Y-40578D01*
G01X18424Y-40587D01*
G01X18410Y-40596D01*
G01X18397Y-40606D01*
G01X18383Y-40616D01*
G01X18371Y-40627D01*
G01X18358Y-40637D01*
G01X18345Y-40648D01*
G01X18333Y-40660D01*
G01X18321Y-40671D01*
G01X18310Y-40683D01*
G01X18298Y-40695D01*
G01X18287Y-40708D01*
G01X18277Y-40721D01*
G01X18266Y-40733D01*
G01X18256Y-40747D01*
G01X18246Y-40760D01*
G01X18237Y-40774D01*
G01X18228Y-40788D01*
G01X18219Y-40802D01*
G01X18211Y-40816D01*
G01X18203Y-40831D01*
G01X18195Y-40846D01*
G01X18188Y-40861D01*
G01X18181Y-40876D01*
G01X18175Y-40891D01*
G01X18168Y-40906D01*
G01X18163Y-40922D01*
G01X18157Y-40938D01*
G01X18152Y-40953D01*
G01X18148Y-40969D01*
G01X18143Y-40986D01*
G01X18139Y-41002D01*
G01X18136Y-41018D01*
G01X18133Y-41034D01*
G01X18130Y-41051D01*
G01X18128Y-41067D01*
G01X18126Y-41084D01*
G01X18125Y-41100D01*
G01X18124Y-41117D01*
G01X18123Y-41133D01*
G01X18123Y-41150D01*
G01X18123Y-41167D01*
G01X18124Y-41183D01*
G01X18125Y-41200D01*
G01X18126Y-41216D01*
G01X18128Y-41233D01*
G01X18130Y-41249D01*
G01X18133Y-41266D01*
G01X18136Y-41282D01*
G01X18139Y-41298D01*
G01X18143Y-41314D01*
G01X18148Y-41331D01*
G01X18152Y-41347D01*
G01X18157Y-41362D01*
G01X18163Y-41378D01*
G01X18168Y-41394D01*
G01X18175Y-41409D01*
G01X18181Y-41424D01*
G01X18188Y-41439D01*
G01X18195Y-41454D01*
G01X18203Y-41469D01*
G01X18211Y-41484D01*
G01X18219Y-41498D01*
G01X18228Y-41512D01*
G01X18237Y-41526D01*
G01X18246Y-41540D01*
G01X18256Y-41553D01*
G01X18266Y-41567D01*
G01X18277Y-41579D01*
G01X18287Y-41592D01*
G01X18298Y-41605D01*
G01X18310Y-41617D01*
G01X18321Y-41629D01*
G01X18333Y-41640D01*
G01X18345Y-41652D01*
G01X18358Y-41663D01*
G01X18371Y-41673D01*
G01X18383Y-41684D01*
G01X18397Y-41694D01*
G01X18410Y-41704D01*
G01X18424Y-41713D01*
G01X18438Y-41722D01*
G01X18452Y-41731D01*
G01X18466Y-41739D01*
G01X18481Y-41747D01*
G01X18496Y-41755D01*
G01X18511Y-41762D01*
G01X18526Y-41769D01*
G01X18541Y-41775D01*
G01X18556Y-41782D01*
G01X18572Y-41787D01*
G01X18588Y-41793D01*
G01X18603Y-41798D01*
G01X18619Y-41802D01*
G01X18636Y-41807D01*
G01X18652Y-41811D01*
G01X18668Y-41814D01*
G01X18684Y-41817D01*
G01X18701Y-41820D01*
G01X18717Y-41822D01*
G01X18734Y-41824D01*
G01X18750Y-41825D01*
G01X18767Y-41826D01*
G01X18783Y-41827D01*
G01X18800Y-41827D01*
G01X18817Y-41827D01*
G01X18833Y-41826D01*
G01X18850Y-41825D01*
G01X18866Y-41824D01*
G01X18883Y-41822D01*
G01X18899Y-41820D01*
G01X18916Y-41817D01*
G01X18932Y-41814D01*
G01X18948Y-41811D01*
G01X18964Y-41807D01*
G01X18981Y-41802D01*
G01X18997Y-41798D01*
G01X19012Y-41793D01*
G01X19028Y-41787D01*
G01X19044Y-41782D01*
G01X19059Y-41775D01*
G01X19074Y-41769D01*
G01X19089Y-41762D01*
G01X19104Y-41755D01*
G01X19119Y-41747D01*
G01X19134Y-41739D01*
G01X19148Y-41731D01*
G01X19162Y-41722D01*
G01X19176Y-41713D01*
G01X19190Y-41704D01*
G01X19203Y-41694D01*
G01X19217Y-41684D01*
G01X19229Y-41673D01*
G01X19242Y-41663D01*
G01X19255Y-41652D01*
G01X19267Y-41640D01*
G01X19279Y-41629D01*
G01X19290Y-41617D01*
G01X19302Y-41605D01*
G01X19313Y-41592D01*
G01X19323Y-41579D01*
G01X19334Y-41567D01*
G01X19344Y-41553D01*
G01X19354Y-41540D01*
G01X19363Y-41526D01*
G01X19372Y-41512D01*
G01X19381Y-41498D01*
G01X19389Y-41484D01*
G01X19397Y-41469D01*
G01X19405Y-41454D01*
G01X19412Y-41439D01*
G01X19419Y-41424D01*
G01X19425Y-41409D01*
G01X19432Y-41394D01*
G01X19437Y-41378D01*
G01X19443Y-41362D01*
G01X19448Y-41347D01*
G01X19452Y-41331D01*
G01X19457Y-41314D01*
G01X19461Y-41298D01*
G01X19464Y-41282D01*
G01X19467Y-41266D01*
G01X19470Y-41249D01*
G01X19472Y-41233D01*
G01X19474Y-41216D01*
G01X19475Y-41200D01*
G01X19476Y-41183D01*
G01X19477Y-41167D01*
G01X19477Y-41150D01*
D15*
G01X27134Y01666D02*
G01X25166Y01666D01*
D15*
G01X25166Y01666D02*
G01X25166Y03279D01*
D15*
G01X25166Y03279D02*
G01X25166Y03634D01*
D15*
G01X25166Y03634D02*
G01X25521Y03634D01*
D15*
G01X25521Y03634D02*
G01X27134Y03634D01*
D15*
G01X27134Y03634D02*
G01X27134Y01666D01*
D15*
G01X25166Y03279D02*
G01X25521Y03634D01*
D15*
G01X25521Y03634D02*
G01X25639Y03752D01*
D15*
G01X25639Y03752D02*
G01X25481Y03909D01*
D15*
G01X25481Y03909D02*
G01X25166Y03634D01*
D15*
G01X26827Y02650D02*
G01X26827Y02650D01*
G01X26827Y02667D01*
G01X26826Y02683D01*
G01X26825Y02700D01*
G01X26824Y02716D01*
G01X26822Y02733D01*
G01X26820Y02749D01*
G01X26817Y02766D01*
G01X26814Y02782D01*
G01X26811Y02798D01*
G01X26807Y02814D01*
G01X26802Y02831D01*
G01X26798Y02847D01*
G01X26793Y02862D01*
G01X26787Y02878D01*
G01X26782Y02894D01*
G01X26775Y02909D01*
G01X26769Y02924D01*
G01X26762Y02939D01*
G01X26755Y02954D01*
G01X26747Y02969D01*
G01X26739Y02984D01*
G01X26731Y02998D01*
G01X26722Y03012D01*
G01X26713Y03026D01*
G01X26704Y03040D01*
G01X26694Y03053D01*
G01X26684Y03067D01*
G01X26673Y03079D01*
G01X26663Y03092D01*
G01X26652Y03105D01*
G01X26640Y03117D01*
G01X26629Y03129D01*
G01X26617Y03140D01*
G01X26605Y03152D01*
G01X26592Y03163D01*
G01X26579Y03173D01*
G01X26567Y03184D01*
G01X26553Y03194D01*
G01X26540Y03204D01*
G01X26526Y03213D01*
G01X26512Y03222D01*
G01X26498Y03231D01*
G01X26484Y03239D01*
G01X26469Y03247D01*
G01X26454Y03255D01*
G01X26439Y03262D01*
G01X26424Y03269D01*
G01X26409Y03275D01*
G01X26394Y03282D01*
G01X26378Y03287D01*
G01X26362Y03293D01*
G01X26347Y03298D01*
G01X26331Y03302D01*
G01X26314Y03307D01*
G01X26298Y03311D01*
G01X26282Y03314D01*
G01X26266Y03317D01*
G01X26249Y03320D01*
G01X26233Y03322D01*
G01X26216Y03324D01*
G01X26200Y03325D01*
G01X26183Y03326D01*
G01X26167Y03327D01*
G01X26150Y03327D01*
G01X26133Y03327D01*
G01X26117Y03326D01*
G01X26100Y03325D01*
G01X26084Y03324D01*
G01X26067Y03322D01*
G01X26051Y03320D01*
G01X26034Y03317D01*
G01X26018Y03314D01*
G01X26002Y03311D01*
G01X25986Y03307D01*
G01X25969Y03302D01*
G01X25953Y03298D01*
G01X25938Y03293D01*
G01X25922Y03287D01*
G01X25906Y03282D01*
G01X25891Y03275D01*
G01X25876Y03269D01*
G01X25861Y03262D01*
G01X25846Y03255D01*
G01X25831Y03247D01*
G01X25816Y03239D01*
G01X25802Y03231D01*
G01X25788Y03222D01*
G01X25774Y03213D01*
G01X25760Y03204D01*
G01X25747Y03194D01*
G01X25733Y03184D01*
G01X25721Y03173D01*
G01X25708Y03163D01*
G01X25695Y03152D01*
G01X25683Y03140D01*
G01X25671Y03129D01*
G01X25660Y03117D01*
G01X25648Y03105D01*
G01X25637Y03092D01*
G01X25627Y03079D01*
G01X25616Y03067D01*
G01X25606Y03053D01*
G01X25596Y03040D01*
G01X25587Y03026D01*
G01X25578Y03012D01*
G01X25569Y02998D01*
G01X25561Y02984D01*
G01X25553Y02969D01*
G01X25545Y02954D01*
G01X25538Y02939D01*
G01X25531Y02924D01*
G01X25525Y02909D01*
G01X25518Y02894D01*
G01X25513Y02878D01*
G01X25507Y02862D01*
G01X25502Y02847D01*
G01X25498Y02831D01*
G01X25493Y02814D01*
G01X25489Y02798D01*
G01X25486Y02782D01*
G01X25483Y02766D01*
G01X25480Y02749D01*
G01X25478Y02733D01*
G01X25476Y02716D01*
G01X25475Y02700D01*
G01X25474Y02683D01*
G01X25473Y02667D01*
G01X25473Y02650D01*
G01X25473Y02633D01*
G01X25474Y02617D01*
G01X25475Y02600D01*
G01X25476Y02584D01*
G01X25478Y02567D01*
G01X25480Y02551D01*
G01X25483Y02534D01*
G01X25486Y02518D01*
G01X25489Y02502D01*
G01X25493Y02486D01*
G01X25498Y02469D01*
G01X25502Y02453D01*
G01X25507Y02438D01*
G01X25513Y02422D01*
G01X25518Y02406D01*
G01X25525Y02391D01*
G01X25531Y02376D01*
G01X25538Y02361D01*
G01X25545Y02346D01*
G01X25553Y02331D01*
G01X25561Y02316D01*
G01X25569Y02302D01*
G01X25578Y02288D01*
G01X25587Y02274D01*
G01X25596Y02260D01*
G01X25606Y02247D01*
G01X25616Y02233D01*
G01X25627Y02221D01*
G01X25637Y02208D01*
G01X25648Y02195D01*
G01X25660Y02183D01*
G01X25671Y02171D01*
G01X25683Y02160D01*
G01X25695Y02148D01*
G01X25708Y02137D01*
G01X25721Y02127D01*
G01X25733Y02116D01*
G01X25747Y02106D01*
G01X25760Y02096D01*
G01X25774Y02087D01*
G01X25788Y02078D01*
G01X25802Y02069D01*
G01X25816Y02061D01*
G01X25831Y02053D01*
G01X25846Y02045D01*
G01X25861Y02038D01*
G01X25876Y02031D01*
G01X25891Y02025D01*
G01X25906Y02018D01*
G01X25922Y02013D01*
G01X25938Y02007D01*
G01X25953Y02002D01*
G01X25969Y01998D01*
G01X25986Y01993D01*
G01X26002Y01989D01*
G01X26018Y01986D01*
G01X26034Y01983D01*
G01X26051Y01980D01*
G01X26067Y01978D01*
G01X26084Y01976D01*
G01X26100Y01975D01*
G01X26117Y01974D01*
G01X26133Y01973D01*
G01X26150Y01973D01*
G01X26167Y01973D01*
G01X26183Y01974D01*
G01X26200Y01975D01*
G01X26216Y01976D01*
G01X26233Y01978D01*
G01X26249Y01980D01*
G01X26266Y01983D01*
G01X26282Y01986D01*
G01X26298Y01989D01*
G01X26314Y01993D01*
G01X26331Y01998D01*
G01X26347Y02002D01*
G01X26362Y02007D01*
G01X26378Y02013D01*
G01X26394Y02018D01*
G01X26409Y02025D01*
G01X26424Y02031D01*
G01X26439Y02038D01*
G01X26454Y02045D01*
G01X26469Y02053D01*
G01X26484Y02061D01*
G01X26498Y02069D01*
G01X26512Y02078D01*
G01X26526Y02087D01*
G01X26540Y02096D01*
G01X26553Y02106D01*
G01X26567Y02116D01*
G01X26579Y02127D01*
G01X26592Y02137D01*
G01X26605Y02148D01*
G01X26617Y02160D01*
G01X26629Y02171D01*
G01X26640Y02183D01*
G01X26652Y02195D01*
G01X26663Y02208D01*
G01X26673Y02221D01*
G01X26684Y02233D01*
G01X26694Y02247D01*
G01X26704Y02260D01*
G01X26713Y02274D01*
G01X26722Y02288D01*
G01X26731Y02302D01*
G01X26739Y02316D01*
G01X26747Y02331D01*
G01X26755Y02346D01*
G01X26762Y02361D01*
G01X26769Y02376D01*
G01X26775Y02391D01*
G01X26782Y02406D01*
G01X26787Y02422D01*
G01X26793Y02438D01*
G01X26798Y02453D01*
G01X26802Y02469D01*
G01X26807Y02486D01*
G01X26811Y02502D01*
G01X26814Y02518D01*
G01X26817Y02534D01*
G01X26820Y02551D01*
G01X26822Y02567D01*
G01X26824Y02584D01*
G01X26825Y02600D01*
G01X26826Y02617D01*
G01X26827Y02633D01*
G01X26827Y02650D01*
D15*
G01X26284Y-37284D02*
G01X24316Y-37284D01*
D15*
G01X24316Y-37284D02*
G01X24316Y-35671D01*
D15*
G01X24316Y-35671D02*
G01X24316Y-35316D01*
D15*
G01X24316Y-35316D02*
G01X24671Y-35316D01*
D15*
G01X24671Y-35316D02*
G01X26284Y-35316D01*
D15*
G01X26284Y-35316D02*
G01X26284Y-37284D01*
D15*
G01X24316Y-35671D02*
G01X24671Y-35316D01*
D15*
G01X24671Y-35316D02*
G01X24789Y-35198D01*
D15*
G01X24789Y-35198D02*
G01X24631Y-35041D01*
D15*
G01X24631Y-35041D02*
G01X24316Y-35316D01*
D15*
G01X25977Y-36300D02*
G01X25977Y-36300D01*
G01X25977Y-36283D01*
G01X25976Y-36267D01*
G01X25975Y-36250D01*
G01X25974Y-36234D01*
G01X25972Y-36217D01*
G01X25970Y-36201D01*
G01X25967Y-36184D01*
G01X25964Y-36168D01*
G01X25961Y-36152D01*
G01X25957Y-36136D01*
G01X25952Y-36119D01*
G01X25948Y-36103D01*
G01X25943Y-36088D01*
G01X25937Y-36072D01*
G01X25932Y-36056D01*
G01X25925Y-36041D01*
G01X25919Y-36026D01*
G01X25912Y-36011D01*
G01X25905Y-35996D01*
G01X25897Y-35981D01*
G01X25889Y-35966D01*
G01X25881Y-35952D01*
G01X25872Y-35938D01*
G01X25863Y-35924D01*
G01X25854Y-35910D01*
G01X25844Y-35897D01*
G01X25834Y-35883D01*
G01X25823Y-35871D01*
G01X25813Y-35858D01*
G01X25802Y-35845D01*
G01X25790Y-35833D01*
G01X25779Y-35821D01*
G01X25767Y-35810D01*
G01X25755Y-35798D01*
G01X25742Y-35787D01*
G01X25729Y-35777D01*
G01X25717Y-35766D01*
G01X25703Y-35756D01*
G01X25690Y-35746D01*
G01X25676Y-35737D01*
G01X25662Y-35728D01*
G01X25648Y-35719D01*
G01X25634Y-35711D01*
G01X25619Y-35703D01*
G01X25604Y-35695D01*
G01X25589Y-35688D01*
G01X25574Y-35681D01*
G01X25559Y-35675D01*
G01X25544Y-35668D01*
G01X25528Y-35663D01*
G01X25512Y-35657D01*
G01X25497Y-35652D01*
G01X25481Y-35648D01*
G01X25464Y-35643D01*
G01X25448Y-35639D01*
G01X25432Y-35636D01*
G01X25416Y-35633D01*
G01X25399Y-35630D01*
G01X25383Y-35628D01*
G01X25366Y-35626D01*
G01X25350Y-35625D01*
G01X25333Y-35624D01*
G01X25317Y-35623D01*
G01X25300Y-35623D01*
G01X25283Y-35623D01*
G01X25267Y-35624D01*
G01X25250Y-35625D01*
G01X25234Y-35626D01*
G01X25217Y-35628D01*
G01X25201Y-35630D01*
G01X25184Y-35633D01*
G01X25168Y-35636D01*
G01X25152Y-35639D01*
G01X25136Y-35643D01*
G01X25119Y-35648D01*
G01X25103Y-35652D01*
G01X25088Y-35657D01*
G01X25072Y-35663D01*
G01X25056Y-35668D01*
G01X25041Y-35675D01*
G01X25026Y-35681D01*
G01X25011Y-35688D01*
G01X24996Y-35695D01*
G01X24981Y-35703D01*
G01X24966Y-35711D01*
G01X24952Y-35719D01*
G01X24938Y-35728D01*
G01X24924Y-35737D01*
G01X24910Y-35746D01*
G01X24897Y-35756D01*
G01X24883Y-35766D01*
G01X24871Y-35777D01*
G01X24858Y-35787D01*
G01X24845Y-35798D01*
G01X24833Y-35810D01*
G01X24821Y-35821D01*
G01X24810Y-35833D01*
G01X24798Y-35845D01*
G01X24787Y-35858D01*
G01X24777Y-35871D01*
G01X24766Y-35883D01*
G01X24756Y-35897D01*
G01X24746Y-35910D01*
G01X24737Y-35924D01*
G01X24728Y-35938D01*
G01X24719Y-35952D01*
G01X24711Y-35966D01*
G01X24703Y-35981D01*
G01X24695Y-35996D01*
G01X24688Y-36011D01*
G01X24681Y-36026D01*
G01X24675Y-36041D01*
G01X24668Y-36056D01*
G01X24663Y-36072D01*
G01X24657Y-36088D01*
G01X24652Y-36103D01*
G01X24648Y-36119D01*
G01X24643Y-36136D01*
G01X24639Y-36152D01*
G01X24636Y-36168D01*
G01X24633Y-36184D01*
G01X24630Y-36201D01*
G01X24628Y-36217D01*
G01X24626Y-36234D01*
G01X24625Y-36250D01*
G01X24624Y-36267D01*
G01X24623Y-36283D01*
G01X24623Y-36300D01*
G01X24623Y-36317D01*
G01X24624Y-36333D01*
G01X24625Y-36350D01*
G01X24626Y-36366D01*
G01X24628Y-36383D01*
G01X24630Y-36399D01*
G01X24633Y-36416D01*
G01X24636Y-36432D01*
G01X24639Y-36448D01*
G01X24643Y-36464D01*
G01X24648Y-36481D01*
G01X24652Y-36497D01*
G01X24657Y-36512D01*
G01X24663Y-36528D01*
G01X24668Y-36544D01*
G01X24675Y-36559D01*
G01X24681Y-36574D01*
G01X24688Y-36589D01*
G01X24695Y-36604D01*
G01X24703Y-36619D01*
G01X24711Y-36634D01*
G01X24719Y-36648D01*
G01X24728Y-36662D01*
G01X24737Y-36676D01*
G01X24746Y-36690D01*
G01X24756Y-36703D01*
G01X24766Y-36717D01*
G01X24777Y-36729D01*
G01X24787Y-36742D01*
G01X24798Y-36755D01*
G01X24810Y-36767D01*
G01X24821Y-36779D01*
G01X24833Y-36790D01*
G01X24845Y-36802D01*
G01X24858Y-36813D01*
G01X24871Y-36823D01*
G01X24883Y-36834D01*
G01X24897Y-36844D01*
G01X24910Y-36854D01*
G01X24924Y-36863D01*
G01X24938Y-36872D01*
G01X24952Y-36881D01*
G01X24966Y-36889D01*
G01X24981Y-36897D01*
G01X24996Y-36905D01*
G01X25011Y-36912D01*
G01X25026Y-36919D01*
G01X25041Y-36925D01*
G01X25056Y-36932D01*
G01X25072Y-36937D01*
G01X25088Y-36943D01*
G01X25103Y-36948D01*
G01X25119Y-36952D01*
G01X25136Y-36957D01*
G01X25152Y-36961D01*
G01X25168Y-36964D01*
G01X25184Y-36967D01*
G01X25201Y-36970D01*
G01X25217Y-36972D01*
G01X25234Y-36974D01*
G01X25250Y-36975D01*
G01X25267Y-36976D01*
G01X25283Y-36977D01*
G01X25300Y-36977D01*
G01X25317Y-36977D01*
G01X25333Y-36976D01*
G01X25350Y-36975D01*
G01X25366Y-36974D01*
G01X25383Y-36972D01*
G01X25399Y-36970D01*
G01X25416Y-36967D01*
G01X25432Y-36964D01*
G01X25448Y-36961D01*
G01X25464Y-36957D01*
G01X25481Y-36952D01*
G01X25497Y-36948D01*
G01X25512Y-36943D01*
G01X25528Y-36937D01*
G01X25544Y-36932D01*
G01X25559Y-36925D01*
G01X25574Y-36919D01*
G01X25589Y-36912D01*
G01X25604Y-36905D01*
G01X25619Y-36897D01*
G01X25634Y-36889D01*
G01X25648Y-36881D01*
G01X25662Y-36872D01*
G01X25676Y-36863D01*
G01X25690Y-36854D01*
G01X25703Y-36844D01*
G01X25717Y-36834D01*
G01X25729Y-36823D01*
G01X25742Y-36813D01*
G01X25755Y-36802D01*
G01X25767Y-36790D01*
G01X25779Y-36779D01*
G01X25790Y-36767D01*
G01X25802Y-36755D01*
G01X25813Y-36742D01*
G01X25823Y-36729D01*
G01X25834Y-36717D01*
G01X25844Y-36703D01*
G01X25854Y-36690D01*
G01X25863Y-36676D01*
G01X25872Y-36662D01*
G01X25881Y-36648D01*
G01X25889Y-36634D01*
G01X25897Y-36619D01*
G01X25905Y-36604D01*
G01X25912Y-36589D01*
G01X25919Y-36574D01*
G01X25925Y-36559D01*
G01X25932Y-36544D01*
G01X25937Y-36528D01*
G01X25943Y-36512D01*
G01X25948Y-36497D01*
G01X25952Y-36481D01*
G01X25957Y-36464D01*
G01X25961Y-36448D01*
G01X25964Y-36432D01*
G01X25967Y-36416D01*
G01X25970Y-36399D01*
G01X25972Y-36383D01*
G01X25974Y-36366D01*
G01X25975Y-36350D01*
G01X25976Y-36333D01*
G01X25977Y-36317D01*
G01X25977Y-36300D01*
D15*
G01X31984Y-06534D02*
G01X30016Y-06534D01*
D15*
G01X30016Y-06534D02*
G01X30016Y-04921D01*
D15*
G01X30016Y-04921D02*
G01X30016Y-04566D01*
D15*
G01X30016Y-04566D02*
G01X30371Y-04566D01*
D15*
G01X30371Y-04566D02*
G01X31984Y-04566D01*
D15*
G01X31984Y-04566D02*
G01X31984Y-06534D01*
D15*
G01X30016Y-04921D02*
G01X30371Y-04566D01*
D15*
G01X30371Y-04566D02*
G01X30489Y-04448D01*
D15*
G01X30489Y-04448D02*
G01X30331Y-04291D01*
D15*
G01X30331Y-04291D02*
G01X30016Y-04566D01*
D15*
G01X31677Y-05550D02*
G01X31677Y-05550D01*
G01X31677Y-05533D01*
G01X31676Y-05517D01*
G01X31675Y-05500D01*
G01X31674Y-05484D01*
G01X31672Y-05467D01*
G01X31670Y-05451D01*
G01X31667Y-05434D01*
G01X31664Y-05418D01*
G01X31661Y-05402D01*
G01X31657Y-05386D01*
G01X31652Y-05369D01*
G01X31648Y-05353D01*
G01X31643Y-05338D01*
G01X31637Y-05322D01*
G01X31632Y-05306D01*
G01X31625Y-05291D01*
G01X31619Y-05276D01*
G01X31612Y-05261D01*
G01X31605Y-05246D01*
G01X31597Y-05231D01*
G01X31589Y-05216D01*
G01X31581Y-05202D01*
G01X31572Y-05188D01*
G01X31563Y-05174D01*
G01X31554Y-05160D01*
G01X31544Y-05147D01*
G01X31534Y-05133D01*
G01X31523Y-05121D01*
G01X31513Y-05108D01*
G01X31502Y-05095D01*
G01X31490Y-05083D01*
G01X31479Y-05071D01*
G01X31467Y-05060D01*
G01X31455Y-05048D01*
G01X31442Y-05037D01*
G01X31429Y-05027D01*
G01X31417Y-05016D01*
G01X31403Y-05006D01*
G01X31390Y-04996D01*
G01X31376Y-04987D01*
G01X31362Y-04978D01*
G01X31348Y-04969D01*
G01X31334Y-04961D01*
G01X31319Y-04953D01*
G01X31304Y-04945D01*
G01X31289Y-04938D01*
G01X31274Y-04931D01*
G01X31259Y-04925D01*
G01X31244Y-04918D01*
G01X31228Y-04913D01*
G01X31212Y-04907D01*
G01X31197Y-04902D01*
G01X31181Y-04898D01*
G01X31164Y-04893D01*
G01X31148Y-04889D01*
G01X31132Y-04886D01*
G01X31116Y-04883D01*
G01X31099Y-04880D01*
G01X31083Y-04878D01*
G01X31066Y-04876D01*
G01X31050Y-04875D01*
G01X31033Y-04874D01*
G01X31017Y-04873D01*
G01X31000Y-04873D01*
G01X30983Y-04873D01*
G01X30967Y-04874D01*
G01X30950Y-04875D01*
G01X30934Y-04876D01*
G01X30917Y-04878D01*
G01X30901Y-04880D01*
G01X30884Y-04883D01*
G01X30868Y-04886D01*
G01X30852Y-04889D01*
G01X30836Y-04893D01*
G01X30819Y-04898D01*
G01X30803Y-04902D01*
G01X30788Y-04907D01*
G01X30772Y-04913D01*
G01X30756Y-04918D01*
G01X30741Y-04925D01*
G01X30726Y-04931D01*
G01X30711Y-04938D01*
G01X30696Y-04945D01*
G01X30681Y-04953D01*
G01X30666Y-04961D01*
G01X30652Y-04969D01*
G01X30638Y-04978D01*
G01X30624Y-04987D01*
G01X30610Y-04996D01*
G01X30597Y-05006D01*
G01X30583Y-05016D01*
G01X30571Y-05027D01*
G01X30558Y-05037D01*
G01X30545Y-05048D01*
G01X30533Y-05060D01*
G01X30521Y-05071D01*
G01X30510Y-05083D01*
G01X30498Y-05095D01*
G01X30487Y-05108D01*
G01X30477Y-05121D01*
G01X30466Y-05133D01*
G01X30456Y-05147D01*
G01X30446Y-05160D01*
G01X30437Y-05174D01*
G01X30428Y-05188D01*
G01X30419Y-05202D01*
G01X30411Y-05216D01*
G01X30403Y-05231D01*
G01X30395Y-05246D01*
G01X30388Y-05261D01*
G01X30381Y-05276D01*
G01X30375Y-05291D01*
G01X30368Y-05306D01*
G01X30363Y-05322D01*
G01X30357Y-05338D01*
G01X30352Y-05353D01*
G01X30348Y-05369D01*
G01X30343Y-05386D01*
G01X30339Y-05402D01*
G01X30336Y-05418D01*
G01X30333Y-05434D01*
G01X30330Y-05451D01*
G01X30328Y-05467D01*
G01X30326Y-05484D01*
G01X30325Y-05500D01*
G01X30324Y-05517D01*
G01X30323Y-05533D01*
G01X30323Y-05550D01*
G01X30323Y-05567D01*
G01X30324Y-05583D01*
G01X30325Y-05600D01*
G01X30326Y-05616D01*
G01X30328Y-05633D01*
G01X30330Y-05649D01*
G01X30333Y-05666D01*
G01X30336Y-05682D01*
G01X30339Y-05698D01*
G01X30343Y-05714D01*
G01X30348Y-05731D01*
G01X30352Y-05747D01*
G01X30357Y-05762D01*
G01X30363Y-05778D01*
G01X30368Y-05794D01*
G01X30375Y-05809D01*
G01X30381Y-05824D01*
G01X30388Y-05839D01*
G01X30395Y-05854D01*
G01X30403Y-05869D01*
G01X30411Y-05884D01*
G01X30419Y-05898D01*
G01X30428Y-05912D01*
G01X30437Y-05926D01*
G01X30446Y-05940D01*
G01X30456Y-05953D01*
G01X30466Y-05967D01*
G01X30477Y-05979D01*
G01X30487Y-05992D01*
G01X30498Y-06005D01*
G01X30510Y-06017D01*
G01X30521Y-06029D01*
G01X30533Y-06040D01*
G01X30545Y-06052D01*
G01X30558Y-06063D01*
G01X30571Y-06073D01*
G01X30583Y-06084D01*
G01X30597Y-06094D01*
G01X30610Y-06104D01*
G01X30624Y-06113D01*
G01X30638Y-06122D01*
G01X30652Y-06131D01*
G01X30666Y-06139D01*
G01X30681Y-06147D01*
G01X30696Y-06155D01*
G01X30711Y-06162D01*
G01X30726Y-06169D01*
G01X30741Y-06175D01*
G01X30756Y-06182D01*
G01X30772Y-06187D01*
G01X30788Y-06193D01*
G01X30803Y-06198D01*
G01X30819Y-06202D01*
G01X30836Y-06207D01*
G01X30852Y-06211D01*
G01X30868Y-06214D01*
G01X30884Y-06217D01*
G01X30901Y-06220D01*
G01X30917Y-06222D01*
G01X30934Y-06224D01*
G01X30950Y-06225D01*
G01X30967Y-06226D01*
G01X30983Y-06227D01*
G01X31000Y-06227D01*
G01X31017Y-06227D01*
G01X31033Y-06226D01*
G01X31050Y-06225D01*
G01X31066Y-06224D01*
G01X31083Y-06222D01*
G01X31099Y-06220D01*
G01X31116Y-06217D01*
G01X31132Y-06214D01*
G01X31148Y-06211D01*
G01X31164Y-06207D01*
G01X31181Y-06202D01*
G01X31197Y-06198D01*
G01X31212Y-06193D01*
G01X31228Y-06187D01*
G01X31244Y-06182D01*
G01X31259Y-06175D01*
G01X31274Y-06169D01*
G01X31289Y-06162D01*
G01X31304Y-06155D01*
G01X31319Y-06147D01*
G01X31334Y-06139D01*
G01X31348Y-06131D01*
G01X31362Y-06122D01*
G01X31376Y-06113D01*
G01X31390Y-06104D01*
G01X31403Y-06094D01*
G01X31417Y-06084D01*
G01X31429Y-06073D01*
G01X31442Y-06063D01*
G01X31455Y-06052D01*
G01X31467Y-06040D01*
G01X31479Y-06029D01*
G01X31490Y-06017D01*
G01X31502Y-06005D01*
G01X31513Y-05992D01*
G01X31523Y-05979D01*
G01X31534Y-05967D01*
G01X31544Y-05953D01*
G01X31554Y-05940D01*
G01X31563Y-05926D01*
G01X31572Y-05912D01*
G01X31581Y-05898D01*
G01X31589Y-05884D01*
G01X31597Y-05869D01*
G01X31605Y-05854D01*
G01X31612Y-05839D01*
G01X31619Y-05824D01*
G01X31625Y-05809D01*
G01X31632Y-05794D01*
G01X31637Y-05778D01*
G01X31643Y-05762D01*
G01X31648Y-05747D01*
G01X31652Y-05731D01*
G01X31657Y-05714D01*
G01X31661Y-05698D01*
G01X31664Y-05682D01*
G01X31667Y-05666D01*
G01X31670Y-05649D01*
G01X31672Y-05633D01*
G01X31674Y-05616D01*
G01X31675Y-05600D01*
G01X31676Y-05583D01*
G01X31677Y-05567D01*
G01X31677Y-05550D01*
D15*
G01X28016Y-13016D02*
G01X29984Y-13016D01*
D15*
G01X29984Y-13016D02*
G01X29984Y-14629D01*
D15*
G01X29984Y-14629D02*
G01X29984Y-14984D01*
D15*
G01X29984Y-14984D02*
G01X29629Y-14984D01*
D15*
G01X29629Y-14984D02*
G01X28016Y-14984D01*
D15*
G01X28016Y-14984D02*
G01X28016Y-13016D01*
D15*
G01X29984Y-14629D02*
G01X29629Y-14984D01*
D15*
G01X29629Y-14984D02*
G01X29511Y-15102D01*
D15*
G01X29511Y-15102D02*
G01X29669Y-15259D01*
D15*
G01X29669Y-15259D02*
G01X29984Y-14984D01*
D15*
G01X29677Y-14000D02*
G01X29677Y-14000D01*
G01X29677Y-13983D01*
G01X29676Y-13967D01*
G01X29675Y-13950D01*
G01X29674Y-13934D01*
G01X29672Y-13917D01*
G01X29670Y-13901D01*
G01X29667Y-13884D01*
G01X29664Y-13868D01*
G01X29661Y-13852D01*
G01X29657Y-13836D01*
G01X29652Y-13819D01*
G01X29648Y-13803D01*
G01X29643Y-13788D01*
G01X29637Y-13772D01*
G01X29632Y-13756D01*
G01X29625Y-13741D01*
G01X29619Y-13726D01*
G01X29612Y-13711D01*
G01X29605Y-13696D01*
G01X29597Y-13681D01*
G01X29589Y-13666D01*
G01X29581Y-13652D01*
G01X29572Y-13638D01*
G01X29563Y-13624D01*
G01X29554Y-13610D01*
G01X29544Y-13597D01*
G01X29534Y-13583D01*
G01X29523Y-13571D01*
G01X29513Y-13558D01*
G01X29502Y-13545D01*
G01X29490Y-13533D01*
G01X29479Y-13521D01*
G01X29467Y-13510D01*
G01X29455Y-13498D01*
G01X29442Y-13487D01*
G01X29429Y-13477D01*
G01X29417Y-13466D01*
G01X29403Y-13456D01*
G01X29390Y-13446D01*
G01X29376Y-13437D01*
G01X29362Y-13428D01*
G01X29348Y-13419D01*
G01X29334Y-13411D01*
G01X29319Y-13403D01*
G01X29304Y-13395D01*
G01X29289Y-13388D01*
G01X29274Y-13381D01*
G01X29259Y-13375D01*
G01X29244Y-13368D01*
G01X29228Y-13363D01*
G01X29212Y-13357D01*
G01X29197Y-13352D01*
G01X29181Y-13348D01*
G01X29164Y-13343D01*
G01X29148Y-13339D01*
G01X29132Y-13336D01*
G01X29116Y-13333D01*
G01X29099Y-13330D01*
G01X29083Y-13328D01*
G01X29066Y-13326D01*
G01X29050Y-13325D01*
G01X29033Y-13324D01*
G01X29017Y-13323D01*
G01X29000Y-13323D01*
G01X28983Y-13323D01*
G01X28967Y-13324D01*
G01X28950Y-13325D01*
G01X28934Y-13326D01*
G01X28917Y-13328D01*
G01X28901Y-13330D01*
G01X28884Y-13333D01*
G01X28868Y-13336D01*
G01X28852Y-13339D01*
G01X28836Y-13343D01*
G01X28819Y-13348D01*
G01X28803Y-13352D01*
G01X28788Y-13357D01*
G01X28772Y-13363D01*
G01X28756Y-13368D01*
G01X28741Y-13375D01*
G01X28726Y-13381D01*
G01X28711Y-13388D01*
G01X28696Y-13395D01*
G01X28681Y-13403D01*
G01X28666Y-13411D01*
G01X28652Y-13419D01*
G01X28638Y-13428D01*
G01X28624Y-13437D01*
G01X28610Y-13446D01*
G01X28597Y-13456D01*
G01X28583Y-13466D01*
G01X28571Y-13477D01*
G01X28558Y-13487D01*
G01X28545Y-13498D01*
G01X28533Y-13510D01*
G01X28521Y-13521D01*
G01X28510Y-13533D01*
G01X28498Y-13545D01*
G01X28487Y-13558D01*
G01X28477Y-13571D01*
G01X28466Y-13583D01*
G01X28456Y-13597D01*
G01X28446Y-13610D01*
G01X28437Y-13624D01*
G01X28428Y-13638D01*
G01X28419Y-13652D01*
G01X28411Y-13666D01*
G01X28403Y-13681D01*
G01X28395Y-13696D01*
G01X28388Y-13711D01*
G01X28381Y-13726D01*
G01X28375Y-13741D01*
G01X28368Y-13756D01*
G01X28363Y-13772D01*
G01X28357Y-13788D01*
G01X28352Y-13803D01*
G01X28348Y-13819D01*
G01X28343Y-13836D01*
G01X28339Y-13852D01*
G01X28336Y-13868D01*
G01X28333Y-13884D01*
G01X28330Y-13901D01*
G01X28328Y-13917D01*
G01X28326Y-13934D01*
G01X28325Y-13950D01*
G01X28324Y-13967D01*
G01X28323Y-13983D01*
G01X28323Y-14000D01*
G01X28323Y-14017D01*
G01X28324Y-14033D01*
G01X28325Y-14050D01*
G01X28326Y-14066D01*
G01X28328Y-14083D01*
G01X28330Y-14099D01*
G01X28333Y-14116D01*
G01X28336Y-14132D01*
G01X28339Y-14148D01*
G01X28343Y-14164D01*
G01X28348Y-14181D01*
G01X28352Y-14197D01*
G01X28357Y-14212D01*
G01X28363Y-14228D01*
G01X28368Y-14244D01*
G01X28375Y-14259D01*
G01X28381Y-14274D01*
G01X28388Y-14289D01*
G01X28395Y-14304D01*
G01X28403Y-14319D01*
G01X28411Y-14334D01*
G01X28419Y-14348D01*
G01X28428Y-14362D01*
G01X28437Y-14376D01*
G01X28446Y-14390D01*
G01X28456Y-14403D01*
G01X28466Y-14417D01*
G01X28477Y-14429D01*
G01X28487Y-14442D01*
G01X28498Y-14455D01*
G01X28510Y-14467D01*
G01X28521Y-14479D01*
G01X28533Y-14490D01*
G01X28545Y-14502D01*
G01X28558Y-14513D01*
G01X28571Y-14523D01*
G01X28583Y-14534D01*
G01X28597Y-14544D01*
G01X28610Y-14554D01*
G01X28624Y-14563D01*
G01X28638Y-14572D01*
G01X28652Y-14581D01*
G01X28666Y-14589D01*
G01X28681Y-14597D01*
G01X28696Y-14605D01*
G01X28711Y-14612D01*
G01X28726Y-14619D01*
G01X28741Y-14625D01*
G01X28756Y-14632D01*
G01X28772Y-14637D01*
G01X28788Y-14643D01*
G01X28803Y-14648D01*
G01X28819Y-14652D01*
G01X28836Y-14657D01*
G01X28852Y-14661D01*
G01X28868Y-14664D01*
G01X28884Y-14667D01*
G01X28901Y-14670D01*
G01X28917Y-14672D01*
G01X28934Y-14674D01*
G01X28950Y-14675D01*
G01X28967Y-14676D01*
G01X28983Y-14677D01*
G01X29000Y-14677D01*
G01X29017Y-14677D01*
G01X29033Y-14676D01*
G01X29050Y-14675D01*
G01X29066Y-14674D01*
G01X29083Y-14672D01*
G01X29099Y-14670D01*
G01X29116Y-14667D01*
G01X29132Y-14664D01*
G01X29148Y-14661D01*
G01X29164Y-14657D01*
G01X29181Y-14652D01*
G01X29197Y-14648D01*
G01X29212Y-14643D01*
G01X29228Y-14637D01*
G01X29244Y-14632D01*
G01X29259Y-14625D01*
G01X29274Y-14619D01*
G01X29289Y-14612D01*
G01X29304Y-14605D01*
G01X29319Y-14597D01*
G01X29334Y-14589D01*
G01X29348Y-14581D01*
G01X29362Y-14572D01*
G01X29376Y-14563D01*
G01X29390Y-14554D01*
G01X29403Y-14544D01*
G01X29417Y-14534D01*
G01X29429Y-14523D01*
G01X29442Y-14513D01*
G01X29455Y-14502D01*
G01X29467Y-14490D01*
G01X29479Y-14479D01*
G01X29490Y-14467D01*
G01X29502Y-14455D01*
G01X29513Y-14442D01*
G01X29523Y-14429D01*
G01X29534Y-14417D01*
G01X29544Y-14403D01*
G01X29554Y-14390D01*
G01X29563Y-14376D01*
G01X29572Y-14362D01*
G01X29581Y-14348D01*
G01X29589Y-14334D01*
G01X29597Y-14319D01*
G01X29605Y-14304D01*
G01X29612Y-14289D01*
G01X29619Y-14274D01*
G01X29625Y-14259D01*
G01X29632Y-14244D01*
G01X29637Y-14228D01*
G01X29643Y-14212D01*
G01X29648Y-14197D01*
G01X29652Y-14181D01*
G01X29657Y-14164D01*
G01X29661Y-14148D01*
G01X29664Y-14132D01*
G01X29667Y-14116D01*
G01X29670Y-14099D01*
G01X29672Y-14083D01*
G01X29674Y-14066D01*
G01X29675Y-14050D01*
G01X29676Y-14033D01*
G01X29677Y-14017D01*
G01X29677Y-14000D01*
D15*
G01X27734Y-28134D02*
G01X25766Y-28134D01*
D15*
G01X25766Y-28134D02*
G01X25766Y-26521D01*
D15*
G01X25766Y-26521D02*
G01X25766Y-26166D01*
D15*
G01X25766Y-26166D02*
G01X26121Y-26166D01*
D15*
G01X26121Y-26166D02*
G01X27734Y-26166D01*
D15*
G01X27734Y-26166D02*
G01X27734Y-28134D01*
D15*
G01X25766Y-26521D02*
G01X26121Y-26166D01*
D15*
G01X26121Y-26166D02*
G01X26239Y-26048D01*
D15*
G01X26239Y-26048D02*
G01X26081Y-25891D01*
D15*
G01X26081Y-25891D02*
G01X25766Y-26166D01*
D15*
G01X27427Y-27150D02*
G01X27427Y-27150D01*
G01X27427Y-27133D01*
G01X27426Y-27117D01*
G01X27425Y-27100D01*
G01X27424Y-27084D01*
G01X27422Y-27067D01*
G01X27420Y-27051D01*
G01X27417Y-27034D01*
G01X27414Y-27018D01*
G01X27411Y-27002D01*
G01X27407Y-26986D01*
G01X27402Y-26969D01*
G01X27398Y-26953D01*
G01X27393Y-26938D01*
G01X27387Y-26922D01*
G01X27382Y-26906D01*
G01X27375Y-26891D01*
G01X27369Y-26876D01*
G01X27362Y-26861D01*
G01X27355Y-26846D01*
G01X27347Y-26831D01*
G01X27339Y-26816D01*
G01X27331Y-26802D01*
G01X27322Y-26788D01*
G01X27313Y-26774D01*
G01X27304Y-26760D01*
G01X27294Y-26747D01*
G01X27284Y-26733D01*
G01X27273Y-26721D01*
G01X27263Y-26708D01*
G01X27252Y-26695D01*
G01X27240Y-26683D01*
G01X27229Y-26671D01*
G01X27217Y-26660D01*
G01X27205Y-26648D01*
G01X27192Y-26637D01*
G01X27179Y-26627D01*
G01X27167Y-26616D01*
G01X27153Y-26606D01*
G01X27140Y-26596D01*
G01X27126Y-26587D01*
G01X27112Y-26578D01*
G01X27098Y-26569D01*
G01X27084Y-26561D01*
G01X27069Y-26553D01*
G01X27054Y-26545D01*
G01X27039Y-26538D01*
G01X27024Y-26531D01*
G01X27009Y-26525D01*
G01X26994Y-26518D01*
G01X26978Y-26513D01*
G01X26962Y-26507D01*
G01X26947Y-26502D01*
G01X26931Y-26498D01*
G01X26914Y-26493D01*
G01X26898Y-26489D01*
G01X26882Y-26486D01*
G01X26866Y-26483D01*
G01X26849Y-26480D01*
G01X26833Y-26478D01*
G01X26816Y-26476D01*
G01X26800Y-26475D01*
G01X26783Y-26474D01*
G01X26767Y-26473D01*
G01X26750Y-26473D01*
G01X26733Y-26473D01*
G01X26717Y-26474D01*
G01X26700Y-26475D01*
G01X26684Y-26476D01*
G01X26667Y-26478D01*
G01X26651Y-26480D01*
G01X26634Y-26483D01*
G01X26618Y-26486D01*
G01X26602Y-26489D01*
G01X26586Y-26493D01*
G01X26569Y-26498D01*
G01X26553Y-26502D01*
G01X26538Y-26507D01*
G01X26522Y-26513D01*
G01X26506Y-26518D01*
G01X26491Y-26525D01*
G01X26476Y-26531D01*
G01X26461Y-26538D01*
G01X26446Y-26545D01*
G01X26431Y-26553D01*
G01X26416Y-26561D01*
G01X26402Y-26569D01*
G01X26388Y-26578D01*
G01X26374Y-26587D01*
G01X26360Y-26596D01*
G01X26347Y-26606D01*
G01X26333Y-26616D01*
G01X26321Y-26627D01*
G01X26308Y-26637D01*
G01X26295Y-26648D01*
G01X26283Y-26660D01*
G01X26271Y-26671D01*
G01X26260Y-26683D01*
G01X26248Y-26695D01*
G01X26237Y-26708D01*
G01X26227Y-26721D01*
G01X26216Y-26733D01*
G01X26206Y-26747D01*
G01X26196Y-26760D01*
G01X26187Y-26774D01*
G01X26178Y-26788D01*
G01X26169Y-26802D01*
G01X26161Y-26816D01*
G01X26153Y-26831D01*
G01X26145Y-26846D01*
G01X26138Y-26861D01*
G01X26131Y-26876D01*
G01X26125Y-26891D01*
G01X26118Y-26906D01*
G01X26113Y-26922D01*
G01X26107Y-26938D01*
G01X26102Y-26953D01*
G01X26098Y-26969D01*
G01X26093Y-26986D01*
G01X26089Y-27002D01*
G01X26086Y-27018D01*
G01X26083Y-27034D01*
G01X26080Y-27051D01*
G01X26078Y-27067D01*
G01X26076Y-27084D01*
G01X26075Y-27100D01*
G01X26074Y-27117D01*
G01X26073Y-27133D01*
G01X26073Y-27150D01*
G01X26073Y-27167D01*
G01X26074Y-27183D01*
G01X26075Y-27200D01*
G01X26076Y-27216D01*
G01X26078Y-27233D01*
G01X26080Y-27249D01*
G01X26083Y-27266D01*
G01X26086Y-27282D01*
G01X26089Y-27298D01*
G01X26093Y-27314D01*
G01X26098Y-27331D01*
G01X26102Y-27347D01*
G01X26107Y-27362D01*
G01X26113Y-27378D01*
G01X26118Y-27394D01*
G01X26125Y-27409D01*
G01X26131Y-27424D01*
G01X26138Y-27439D01*
G01X26145Y-27454D01*
G01X26153Y-27469D01*
G01X26161Y-27484D01*
G01X26169Y-27498D01*
G01X26178Y-27512D01*
G01X26187Y-27526D01*
G01X26196Y-27540D01*
G01X26206Y-27553D01*
G01X26216Y-27567D01*
G01X26227Y-27579D01*
G01X26237Y-27592D01*
G01X26248Y-27605D01*
G01X26260Y-27617D01*
G01X26271Y-27629D01*
G01X26283Y-27640D01*
G01X26295Y-27652D01*
G01X26308Y-27663D01*
G01X26321Y-27673D01*
G01X26333Y-27684D01*
G01X26347Y-27694D01*
G01X26360Y-27704D01*
G01X26374Y-27713D01*
G01X26388Y-27722D01*
G01X26402Y-27731D01*
G01X26416Y-27739D01*
G01X26431Y-27747D01*
G01X26446Y-27755D01*
G01X26461Y-27762D01*
G01X26476Y-27769D01*
G01X26491Y-27775D01*
G01X26506Y-27782D01*
G01X26522Y-27787D01*
G01X26538Y-27793D01*
G01X26553Y-27798D01*
G01X26569Y-27802D01*
G01X26586Y-27807D01*
G01X26602Y-27811D01*
G01X26618Y-27814D01*
G01X26634Y-27817D01*
G01X26651Y-27820D01*
G01X26667Y-27822D01*
G01X26684Y-27824D01*
G01X26700Y-27825D01*
G01X26717Y-27826D01*
G01X26733Y-27827D01*
G01X26750Y-27827D01*
G01X26767Y-27827D01*
G01X26783Y-27826D01*
G01X26800Y-27825D01*
G01X26816Y-27824D01*
G01X26833Y-27822D01*
G01X26849Y-27820D01*
G01X26866Y-27817D01*
G01X26882Y-27814D01*
G01X26898Y-27811D01*
G01X26914Y-27807D01*
G01X26931Y-27802D01*
G01X26947Y-27798D01*
G01X26962Y-27793D01*
G01X26978Y-27787D01*
G01X26994Y-27782D01*
G01X27009Y-27775D01*
G01X27024Y-27769D01*
G01X27039Y-27762D01*
G01X27054Y-27755D01*
G01X27069Y-27747D01*
G01X27084Y-27739D01*
G01X27098Y-27731D01*
G01X27112Y-27722D01*
G01X27126Y-27713D01*
G01X27140Y-27704D01*
G01X27153Y-27694D01*
G01X27167Y-27684D01*
G01X27179Y-27673D01*
G01X27192Y-27663D01*
G01X27205Y-27652D01*
G01X27217Y-27640D01*
G01X27229Y-27629D01*
G01X27240Y-27617D01*
G01X27252Y-27605D01*
G01X27263Y-27592D01*
G01X27273Y-27579D01*
G01X27284Y-27567D01*
G01X27294Y-27553D01*
G01X27304Y-27540D01*
G01X27313Y-27526D01*
G01X27322Y-27512D01*
G01X27331Y-27498D01*
G01X27339Y-27484D01*
G01X27347Y-27469D01*
G01X27355Y-27454D01*
G01X27362Y-27439D01*
G01X27369Y-27424D01*
G01X27375Y-27409D01*
G01X27382Y-27394D01*
G01X27387Y-27378D01*
G01X27393Y-27362D01*
G01X27398Y-27347D01*
G01X27402Y-27331D01*
G01X27407Y-27314D01*
G01X27411Y-27298D01*
G01X27414Y-27282D01*
G01X27417Y-27266D01*
G01X27420Y-27249D01*
G01X27422Y-27233D01*
G01X27424Y-27216D01*
G01X27425Y-27200D01*
G01X27426Y-27183D01*
G01X27427Y-27167D01*
G01X27427Y-27150D01*
D15*
G01X07034Y-42084D02*
G01X05066Y-42084D01*
D15*
G01X05066Y-42084D02*
G01X05066Y-40471D01*
D15*
G01X05066Y-40471D02*
G01X05066Y-40116D01*
D15*
G01X05066Y-40116D02*
G01X05421Y-40116D01*
D15*
G01X05421Y-40116D02*
G01X07034Y-40116D01*
D15*
G01X07034Y-40116D02*
G01X07034Y-42084D01*
D15*
G01X05066Y-40471D02*
G01X05421Y-40116D01*
D15*
G01X05421Y-40116D02*
G01X05539Y-39998D01*
D15*
G01X05539Y-39998D02*
G01X05381Y-39841D01*
D15*
G01X05381Y-39841D02*
G01X05066Y-40116D01*
D15*
G01X06727Y-41100D02*
G01X06727Y-41100D01*
G01X06727Y-41083D01*
G01X06726Y-41067D01*
G01X06725Y-41050D01*
G01X06724Y-41034D01*
G01X06722Y-41017D01*
G01X06720Y-41001D01*
G01X06717Y-40984D01*
G01X06714Y-40968D01*
G01X06711Y-40952D01*
G01X06707Y-40936D01*
G01X06702Y-40919D01*
G01X06698Y-40903D01*
G01X06693Y-40888D01*
G01X06687Y-40872D01*
G01X06682Y-40856D01*
G01X06675Y-40841D01*
G01X06669Y-40826D01*
G01X06662Y-40811D01*
G01X06655Y-40796D01*
G01X06647Y-40781D01*
G01X06639Y-40766D01*
G01X06631Y-40752D01*
G01X06622Y-40738D01*
G01X06613Y-40724D01*
G01X06604Y-40710D01*
G01X06594Y-40697D01*
G01X06584Y-40683D01*
G01X06573Y-40671D01*
G01X06563Y-40658D01*
G01X06552Y-40645D01*
G01X06540Y-40633D01*
G01X06529Y-40621D01*
G01X06517Y-40610D01*
G01X06505Y-40598D01*
G01X06492Y-40587D01*
G01X06479Y-40577D01*
G01X06467Y-40566D01*
G01X06453Y-40556D01*
G01X06440Y-40546D01*
G01X06426Y-40537D01*
G01X06412Y-40528D01*
G01X06398Y-40519D01*
G01X06384Y-40511D01*
G01X06369Y-40503D01*
G01X06354Y-40495D01*
G01X06339Y-40488D01*
G01X06324Y-40481D01*
G01X06309Y-40475D01*
G01X06294Y-40468D01*
G01X06278Y-40463D01*
G01X06262Y-40457D01*
G01X06247Y-40452D01*
G01X06231Y-40448D01*
G01X06214Y-40443D01*
G01X06198Y-40439D01*
G01X06182Y-40436D01*
G01X06166Y-40433D01*
G01X06149Y-40430D01*
G01X06133Y-40428D01*
G01X06116Y-40426D01*
G01X06100Y-40425D01*
G01X06083Y-40424D01*
G01X06067Y-40423D01*
G01X06050Y-40423D01*
G01X06033Y-40423D01*
G01X06017Y-40424D01*
G01X06000Y-40425D01*
G01X05984Y-40426D01*
G01X05967Y-40428D01*
G01X05951Y-40430D01*
G01X05934Y-40433D01*
G01X05918Y-40436D01*
G01X05902Y-40439D01*
G01X05886Y-40443D01*
G01X05869Y-40448D01*
G01X05853Y-40452D01*
G01X05838Y-40457D01*
G01X05822Y-40463D01*
G01X05806Y-40468D01*
G01X05791Y-40475D01*
G01X05776Y-40481D01*
G01X05761Y-40488D01*
G01X05746Y-40495D01*
G01X05731Y-40503D01*
G01X05716Y-40511D01*
G01X05702Y-40519D01*
G01X05688Y-40528D01*
G01X05674Y-40537D01*
G01X05660Y-40546D01*
G01X05647Y-40556D01*
G01X05633Y-40566D01*
G01X05621Y-40577D01*
G01X05608Y-40587D01*
G01X05595Y-40598D01*
G01X05583Y-40610D01*
G01X05571Y-40621D01*
G01X05560Y-40633D01*
G01X05548Y-40645D01*
G01X05537Y-40658D01*
G01X05527Y-40671D01*
G01X05516Y-40683D01*
G01X05506Y-40697D01*
G01X05496Y-40710D01*
G01X05487Y-40724D01*
G01X05478Y-40738D01*
G01X05469Y-40752D01*
G01X05461Y-40766D01*
G01X05453Y-40781D01*
G01X05445Y-40796D01*
G01X05438Y-40811D01*
G01X05431Y-40826D01*
G01X05425Y-40841D01*
G01X05418Y-40856D01*
G01X05413Y-40872D01*
G01X05407Y-40888D01*
G01X05402Y-40903D01*
G01X05398Y-40919D01*
G01X05393Y-40936D01*
G01X05389Y-40952D01*
G01X05386Y-40968D01*
G01X05383Y-40984D01*
G01X05380Y-41001D01*
G01X05378Y-41017D01*
G01X05376Y-41034D01*
G01X05375Y-41050D01*
G01X05374Y-41067D01*
G01X05373Y-41083D01*
G01X05373Y-41100D01*
G01X05373Y-41117D01*
G01X05374Y-41133D01*
G01X05375Y-41150D01*
G01X05376Y-41166D01*
G01X05378Y-41183D01*
G01X05380Y-41199D01*
G01X05383Y-41216D01*
G01X05386Y-41232D01*
G01X05389Y-41248D01*
G01X05393Y-41264D01*
G01X05398Y-41281D01*
G01X05402Y-41297D01*
G01X05407Y-41312D01*
G01X05413Y-41328D01*
G01X05418Y-41344D01*
G01X05425Y-41359D01*
G01X05431Y-41374D01*
G01X05438Y-41389D01*
G01X05445Y-41404D01*
G01X05453Y-41419D01*
G01X05461Y-41434D01*
G01X05469Y-41448D01*
G01X05478Y-41462D01*
G01X05487Y-41476D01*
G01X05496Y-41490D01*
G01X05506Y-41503D01*
G01X05516Y-41517D01*
G01X05527Y-41529D01*
G01X05537Y-41542D01*
G01X05548Y-41555D01*
G01X05560Y-41567D01*
G01X05571Y-41579D01*
G01X05583Y-41590D01*
G01X05595Y-41602D01*
G01X05608Y-41613D01*
G01X05621Y-41623D01*
G01X05633Y-41634D01*
G01X05647Y-41644D01*
G01X05660Y-41654D01*
G01X05674Y-41663D01*
G01X05688Y-41672D01*
G01X05702Y-41681D01*
G01X05716Y-41689D01*
G01X05731Y-41697D01*
G01X05746Y-41705D01*
G01X05761Y-41712D01*
G01X05776Y-41719D01*
G01X05791Y-41725D01*
G01X05806Y-41732D01*
G01X05822Y-41737D01*
G01X05838Y-41743D01*
G01X05853Y-41748D01*
G01X05869Y-41752D01*
G01X05886Y-41757D01*
G01X05902Y-41761D01*
G01X05918Y-41764D01*
G01X05934Y-41767D01*
G01X05951Y-41770D01*
G01X05967Y-41772D01*
G01X05984Y-41774D01*
G01X06000Y-41775D01*
G01X06017Y-41776D01*
G01X06033Y-41777D01*
G01X06050Y-41777D01*
G01X06067Y-41777D01*
G01X06083Y-41776D01*
G01X06100Y-41775D01*
G01X06116Y-41774D01*
G01X06133Y-41772D01*
G01X06149Y-41770D01*
G01X06166Y-41767D01*
G01X06182Y-41764D01*
G01X06198Y-41761D01*
G01X06214Y-41757D01*
G01X06231Y-41752D01*
G01X06247Y-41748D01*
G01X06262Y-41743D01*
G01X06278Y-41737D01*
G01X06294Y-41732D01*
G01X06309Y-41725D01*
G01X06324Y-41719D01*
G01X06339Y-41712D01*
G01X06354Y-41705D01*
G01X06369Y-41697D01*
G01X06384Y-41689D01*
G01X06398Y-41681D01*
G01X06412Y-41672D01*
G01X06426Y-41663D01*
G01X06440Y-41654D01*
G01X06453Y-41644D01*
G01X06467Y-41634D01*
G01X06479Y-41623D01*
G01X06492Y-41613D01*
G01X06505Y-41602D01*
G01X06517Y-41590D01*
G01X06529Y-41579D01*
G01X06540Y-41567D01*
G01X06552Y-41555D01*
G01X06563Y-41542D01*
G01X06573Y-41529D01*
G01X06584Y-41517D01*
G01X06594Y-41503D01*
G01X06604Y-41490D01*
G01X06613Y-41476D01*
G01X06622Y-41462D01*
G01X06631Y-41448D01*
G01X06639Y-41434D01*
G01X06647Y-41419D01*
G01X06655Y-41404D01*
G01X06662Y-41389D01*
G01X06669Y-41374D01*
G01X06675Y-41359D01*
G01X06682Y-41344D01*
G01X06687Y-41328D01*
G01X06693Y-41312D01*
G01X06698Y-41297D01*
G01X06702Y-41281D01*
G01X06707Y-41264D01*
G01X06711Y-41248D01*
G01X06714Y-41232D01*
G01X06717Y-41216D01*
G01X06720Y-41199D01*
G01X06722Y-41183D01*
G01X06724Y-41166D01*
G01X06725Y-41150D01*
G01X06726Y-41133D01*
G01X06727Y-41117D01*
G01X06727Y-41100D01*
D15*
G01X02884Y-35534D02*
G01X00916Y-35534D01*
D15*
G01X00916Y-35534D02*
G01X00916Y-33921D01*
D15*
G01X00916Y-33921D02*
G01X00916Y-33566D01*
D15*
G01X00916Y-33566D02*
G01X01271Y-33566D01*
D15*
G01X01271Y-33566D02*
G01X02884Y-33566D01*
D15*
G01X02884Y-33566D02*
G01X02884Y-35534D01*
D15*
G01X00916Y-33921D02*
G01X01271Y-33566D01*
D15*
G01X01271Y-33566D02*
G01X01389Y-33448D01*
D15*
G01X01389Y-33448D02*
G01X01231Y-33291D01*
D15*
G01X01231Y-33291D02*
G01X00916Y-33566D01*
D15*
G01X02577Y-34550D02*
G01X02577Y-34550D01*
G01X02577Y-34533D01*
G01X02576Y-34517D01*
G01X02575Y-34500D01*
G01X02574Y-34484D01*
G01X02572Y-34467D01*
G01X02570Y-34451D01*
G01X02567Y-34434D01*
G01X02564Y-34418D01*
G01X02561Y-34402D01*
G01X02557Y-34386D01*
G01X02552Y-34369D01*
G01X02548Y-34353D01*
G01X02543Y-34338D01*
G01X02537Y-34322D01*
G01X02532Y-34306D01*
G01X02525Y-34291D01*
G01X02519Y-34276D01*
G01X02512Y-34261D01*
G01X02505Y-34246D01*
G01X02497Y-34231D01*
G01X02489Y-34216D01*
G01X02481Y-34202D01*
G01X02472Y-34188D01*
G01X02463Y-34174D01*
G01X02454Y-34160D01*
G01X02444Y-34147D01*
G01X02434Y-34133D01*
G01X02423Y-34121D01*
G01X02413Y-34108D01*
G01X02402Y-34095D01*
G01X02390Y-34083D01*
G01X02379Y-34071D01*
G01X02367Y-34060D01*
G01X02355Y-34048D01*
G01X02342Y-34037D01*
G01X02329Y-34027D01*
G01X02317Y-34016D01*
G01X02303Y-34006D01*
G01X02290Y-33996D01*
G01X02276Y-33987D01*
G01X02262Y-33978D01*
G01X02248Y-33969D01*
G01X02234Y-33961D01*
G01X02219Y-33953D01*
G01X02204Y-33945D01*
G01X02189Y-33938D01*
G01X02174Y-33931D01*
G01X02159Y-33925D01*
G01X02144Y-33918D01*
G01X02128Y-33913D01*
G01X02112Y-33907D01*
G01X02097Y-33902D01*
G01X02081Y-33898D01*
G01X02064Y-33893D01*
G01X02048Y-33889D01*
G01X02032Y-33886D01*
G01X02016Y-33883D01*
G01X01999Y-33880D01*
G01X01983Y-33878D01*
G01X01966Y-33876D01*
G01X01950Y-33875D01*
G01X01933Y-33874D01*
G01X01917Y-33873D01*
G01X01900Y-33873D01*
G01X01883Y-33873D01*
G01X01867Y-33874D01*
G01X01850Y-33875D01*
G01X01834Y-33876D01*
G01X01817Y-33878D01*
G01X01801Y-33880D01*
G01X01784Y-33883D01*
G01X01768Y-33886D01*
G01X01752Y-33889D01*
G01X01736Y-33893D01*
G01X01719Y-33898D01*
G01X01703Y-33902D01*
G01X01688Y-33907D01*
G01X01672Y-33913D01*
G01X01656Y-33918D01*
G01X01641Y-33925D01*
G01X01626Y-33931D01*
G01X01611Y-33938D01*
G01X01596Y-33945D01*
G01X01581Y-33953D01*
G01X01566Y-33961D01*
G01X01552Y-33969D01*
G01X01538Y-33978D01*
G01X01524Y-33987D01*
G01X01510Y-33996D01*
G01X01497Y-34006D01*
G01X01483Y-34016D01*
G01X01471Y-34027D01*
G01X01458Y-34037D01*
G01X01445Y-34048D01*
G01X01433Y-34060D01*
G01X01421Y-34071D01*
G01X01410Y-34083D01*
G01X01398Y-34095D01*
G01X01387Y-34108D01*
G01X01377Y-34121D01*
G01X01366Y-34133D01*
G01X01356Y-34147D01*
G01X01346Y-34160D01*
G01X01337Y-34174D01*
G01X01328Y-34188D01*
G01X01319Y-34202D01*
G01X01311Y-34216D01*
G01X01303Y-34231D01*
G01X01295Y-34246D01*
G01X01288Y-34261D01*
G01X01281Y-34276D01*
G01X01275Y-34291D01*
G01X01268Y-34306D01*
G01X01263Y-34322D01*
G01X01257Y-34338D01*
G01X01252Y-34353D01*
G01X01248Y-34369D01*
G01X01243Y-34386D01*
G01X01239Y-34402D01*
G01X01236Y-34418D01*
G01X01233Y-34434D01*
G01X01230Y-34451D01*
G01X01228Y-34467D01*
G01X01226Y-34484D01*
G01X01225Y-34500D01*
G01X01224Y-34517D01*
G01X01223Y-34533D01*
G01X01223Y-34550D01*
G01X01223Y-34567D01*
G01X01224Y-34583D01*
G01X01225Y-34600D01*
G01X01226Y-34616D01*
G01X01228Y-34633D01*
G01X01230Y-34649D01*
G01X01233Y-34666D01*
G01X01236Y-34682D01*
G01X01239Y-34698D01*
G01X01243Y-34714D01*
G01X01248Y-34731D01*
G01X01252Y-34747D01*
G01X01257Y-34762D01*
G01X01263Y-34778D01*
G01X01268Y-34794D01*
G01X01275Y-34809D01*
G01X01281Y-34824D01*
G01X01288Y-34839D01*
G01X01295Y-34854D01*
G01X01303Y-34869D01*
G01X01311Y-34884D01*
G01X01319Y-34898D01*
G01X01328Y-34912D01*
G01X01337Y-34926D01*
G01X01346Y-34940D01*
G01X01356Y-34953D01*
G01X01366Y-34967D01*
G01X01377Y-34979D01*
G01X01387Y-34992D01*
G01X01398Y-35005D01*
G01X01410Y-35017D01*
G01X01421Y-35029D01*
G01X01433Y-35040D01*
G01X01445Y-35052D01*
G01X01458Y-35063D01*
G01X01471Y-35073D01*
G01X01483Y-35084D01*
G01X01497Y-35094D01*
G01X01510Y-35104D01*
G01X01524Y-35113D01*
G01X01538Y-35122D01*
G01X01552Y-35131D01*
G01X01566Y-35139D01*
G01X01581Y-35147D01*
G01X01596Y-35155D01*
G01X01611Y-35162D01*
G01X01626Y-35169D01*
G01X01641Y-35175D01*
G01X01656Y-35182D01*
G01X01672Y-35187D01*
G01X01688Y-35193D01*
G01X01703Y-35198D01*
G01X01719Y-35202D01*
G01X01736Y-35207D01*
G01X01752Y-35211D01*
G01X01768Y-35214D01*
G01X01784Y-35217D01*
G01X01801Y-35220D01*
G01X01817Y-35222D01*
G01X01834Y-35224D01*
G01X01850Y-35225D01*
G01X01867Y-35226D01*
G01X01883Y-35227D01*
G01X01900Y-35227D01*
G01X01917Y-35227D01*
G01X01933Y-35226D01*
G01X01950Y-35225D01*
G01X01966Y-35224D01*
G01X01983Y-35222D01*
G01X01999Y-35220D01*
G01X02016Y-35217D01*
G01X02032Y-35214D01*
G01X02048Y-35211D01*
G01X02064Y-35207D01*
G01X02081Y-35202D01*
G01X02097Y-35198D01*
G01X02112Y-35193D01*
G01X02128Y-35187D01*
G01X02144Y-35182D01*
G01X02159Y-35175D01*
G01X02174Y-35169D01*
G01X02189Y-35162D01*
G01X02204Y-35155D01*
G01X02219Y-35147D01*
G01X02234Y-35139D01*
G01X02248Y-35131D01*
G01X02262Y-35122D01*
G01X02276Y-35113D01*
G01X02290Y-35104D01*
G01X02303Y-35094D01*
G01X02317Y-35084D01*
G01X02329Y-35073D01*
G01X02342Y-35063D01*
G01X02355Y-35052D01*
G01X02367Y-35040D01*
G01X02379Y-35029D01*
G01X02390Y-35017D01*
G01X02402Y-35005D01*
G01X02413Y-34992D01*
G01X02423Y-34979D01*
G01X02434Y-34967D01*
G01X02444Y-34953D01*
G01X02454Y-34940D01*
G01X02463Y-34926D01*
G01X02472Y-34912D01*
G01X02481Y-34898D01*
G01X02489Y-34884D01*
G01X02497Y-34869D01*
G01X02505Y-34854D01*
G01X02512Y-34839D01*
G01X02519Y-34824D01*
G01X02525Y-34809D01*
G01X02532Y-34794D01*
G01X02537Y-34778D01*
G01X02543Y-34762D01*
G01X02548Y-34747D01*
G01X02552Y-34731D01*
G01X02557Y-34714D01*
G01X02561Y-34698D01*
G01X02564Y-34682D01*
G01X02567Y-34666D01*
G01X02570Y-34649D01*
G01X02572Y-34633D01*
G01X02574Y-34616D01*
G01X02575Y-34600D01*
G01X02576Y-34583D01*
G01X02577Y-34567D01*
G01X02577Y-34550D01*
D15*
G01X02166Y-26216D02*
G01X04134Y-26216D01*
D15*
G01X04134Y-26216D02*
G01X04134Y-27829D01*
D15*
G01X04134Y-27829D02*
G01X04134Y-28184D01*
D15*
G01X04134Y-28184D02*
G01X03779Y-28184D01*
D15*
G01X03779Y-28184D02*
G01X02166Y-28184D01*
D15*
G01X02166Y-28184D02*
G01X02166Y-26216D01*
D15*
G01X04134Y-27829D02*
G01X03779Y-28184D01*
D15*
G01X03779Y-28184D02*
G01X03661Y-28302D01*
D15*
G01X03661Y-28302D02*
G01X03819Y-28459D01*
D15*
G01X03819Y-28459D02*
G01X04134Y-28184D01*
D15*
G01X03827Y-27200D02*
G01X03827Y-27200D01*
G01X03827Y-27183D01*
G01X03826Y-27167D01*
G01X03825Y-27150D01*
G01X03824Y-27134D01*
G01X03822Y-27117D01*
G01X03820Y-27101D01*
G01X03817Y-27084D01*
G01X03814Y-27068D01*
G01X03811Y-27052D01*
G01X03807Y-27036D01*
G01X03802Y-27019D01*
G01X03798Y-27003D01*
G01X03793Y-26988D01*
G01X03787Y-26972D01*
G01X03782Y-26956D01*
G01X03775Y-26941D01*
G01X03769Y-26926D01*
G01X03762Y-26911D01*
G01X03755Y-26896D01*
G01X03747Y-26881D01*
G01X03739Y-26866D01*
G01X03731Y-26852D01*
G01X03722Y-26838D01*
G01X03713Y-26824D01*
G01X03704Y-26810D01*
G01X03694Y-26797D01*
G01X03684Y-26783D01*
G01X03673Y-26771D01*
G01X03663Y-26758D01*
G01X03652Y-26745D01*
G01X03640Y-26733D01*
G01X03629Y-26721D01*
G01X03617Y-26710D01*
G01X03605Y-26698D01*
G01X03592Y-26687D01*
G01X03579Y-26677D01*
G01X03567Y-26666D01*
G01X03553Y-26656D01*
G01X03540Y-26646D01*
G01X03526Y-26637D01*
G01X03512Y-26628D01*
G01X03498Y-26619D01*
G01X03484Y-26611D01*
G01X03469Y-26603D01*
G01X03454Y-26595D01*
G01X03439Y-26588D01*
G01X03424Y-26581D01*
G01X03409Y-26575D01*
G01X03394Y-26568D01*
G01X03378Y-26563D01*
G01X03362Y-26557D01*
G01X03347Y-26552D01*
G01X03331Y-26548D01*
G01X03314Y-26543D01*
G01X03298Y-26539D01*
G01X03282Y-26536D01*
G01X03266Y-26533D01*
G01X03249Y-26530D01*
G01X03233Y-26528D01*
G01X03216Y-26526D01*
G01X03200Y-26525D01*
G01X03183Y-26524D01*
G01X03167Y-26523D01*
G01X03150Y-26523D01*
G01X03133Y-26523D01*
G01X03117Y-26524D01*
G01X03100Y-26525D01*
G01X03084Y-26526D01*
G01X03067Y-26528D01*
G01X03051Y-26530D01*
G01X03034Y-26533D01*
G01X03018Y-26536D01*
G01X03002Y-26539D01*
G01X02986Y-26543D01*
G01X02969Y-26548D01*
G01X02953Y-26552D01*
G01X02938Y-26557D01*
G01X02922Y-26563D01*
G01X02906Y-26568D01*
G01X02891Y-26575D01*
G01X02876Y-26581D01*
G01X02861Y-26588D01*
G01X02846Y-26595D01*
G01X02831Y-26603D01*
G01X02816Y-26611D01*
G01X02802Y-26619D01*
G01X02788Y-26628D01*
G01X02774Y-26637D01*
G01X02760Y-26646D01*
G01X02747Y-26656D01*
G01X02733Y-26666D01*
G01X02721Y-26677D01*
G01X02708Y-26687D01*
G01X02695Y-26698D01*
G01X02683Y-26710D01*
G01X02671Y-26721D01*
G01X02660Y-26733D01*
G01X02648Y-26745D01*
G01X02637Y-26758D01*
G01X02627Y-26771D01*
G01X02616Y-26783D01*
G01X02606Y-26797D01*
G01X02596Y-26810D01*
G01X02587Y-26824D01*
G01X02578Y-26838D01*
G01X02569Y-26852D01*
G01X02561Y-26866D01*
G01X02553Y-26881D01*
G01X02545Y-26896D01*
G01X02538Y-26911D01*
G01X02531Y-26926D01*
G01X02525Y-26941D01*
G01X02518Y-26956D01*
G01X02513Y-26972D01*
G01X02507Y-26988D01*
G01X02502Y-27003D01*
G01X02498Y-27019D01*
G01X02493Y-27036D01*
G01X02489Y-27052D01*
G01X02486Y-27068D01*
G01X02483Y-27084D01*
G01X02480Y-27101D01*
G01X02478Y-27117D01*
G01X02476Y-27134D01*
G01X02475Y-27150D01*
G01X02474Y-27167D01*
G01X02473Y-27183D01*
G01X02473Y-27200D01*
G01X02473Y-27217D01*
G01X02474Y-27233D01*
G01X02475Y-27250D01*
G01X02476Y-27266D01*
G01X02478Y-27283D01*
G01X02480Y-27299D01*
G01X02483Y-27316D01*
G01X02486Y-27332D01*
G01X02489Y-27348D01*
G01X02493Y-27364D01*
G01X02498Y-27381D01*
G01X02502Y-27397D01*
G01X02507Y-27412D01*
G01X02513Y-27428D01*
G01X02518Y-27444D01*
G01X02525Y-27459D01*
G01X02531Y-27474D01*
G01X02538Y-27489D01*
G01X02545Y-27504D01*
G01X02553Y-27519D01*
G01X02561Y-27534D01*
G01X02569Y-27548D01*
G01X02578Y-27562D01*
G01X02587Y-27576D01*
G01X02596Y-27590D01*
G01X02606Y-27603D01*
G01X02616Y-27617D01*
G01X02627Y-27629D01*
G01X02637Y-27642D01*
G01X02648Y-27655D01*
G01X02660Y-27667D01*
G01X02671Y-27679D01*
G01X02683Y-27690D01*
G01X02695Y-27702D01*
G01X02708Y-27713D01*
G01X02721Y-27723D01*
G01X02733Y-27734D01*
G01X02747Y-27744D01*
G01X02760Y-27754D01*
G01X02774Y-27763D01*
G01X02788Y-27772D01*
G01X02802Y-27781D01*
G01X02816Y-27789D01*
G01X02831Y-27797D01*
G01X02846Y-27805D01*
G01X02861Y-27812D01*
G01X02876Y-27819D01*
G01X02891Y-27825D01*
G01X02906Y-27832D01*
G01X02922Y-27837D01*
G01X02938Y-27843D01*
G01X02953Y-27848D01*
G01X02969Y-27852D01*
G01X02986Y-27857D01*
G01X03002Y-27861D01*
G01X03018Y-27864D01*
G01X03034Y-27867D01*
G01X03051Y-27870D01*
G01X03067Y-27872D01*
G01X03084Y-27874D01*
G01X03100Y-27875D01*
G01X03117Y-27876D01*
G01X03133Y-27877D01*
G01X03150Y-27877D01*
G01X03167Y-27877D01*
G01X03183Y-27876D01*
G01X03200Y-27875D01*
G01X03216Y-27874D01*
G01X03233Y-27872D01*
G01X03249Y-27870D01*
G01X03266Y-27867D01*
G01X03282Y-27864D01*
G01X03298Y-27861D01*
G01X03314Y-27857D01*
G01X03331Y-27852D01*
G01X03347Y-27848D01*
G01X03362Y-27843D01*
G01X03378Y-27837D01*
G01X03394Y-27832D01*
G01X03409Y-27825D01*
G01X03424Y-27819D01*
G01X03439Y-27812D01*
G01X03454Y-27805D01*
G01X03469Y-27797D01*
G01X03484Y-27789D01*
G01X03498Y-27781D01*
G01X03512Y-27772D01*
G01X03526Y-27763D01*
G01X03540Y-27754D01*
G01X03553Y-27744D01*
G01X03567Y-27734D01*
G01X03579Y-27723D01*
G01X03592Y-27713D01*
G01X03605Y-27702D01*
G01X03617Y-27690D01*
G01X03629Y-27679D01*
G01X03640Y-27667D01*
G01X03652Y-27655D01*
G01X03663Y-27642D01*
G01X03673Y-27629D01*
G01X03684Y-27617D01*
G01X03694Y-27603D01*
G01X03704Y-27590D01*
G01X03713Y-27576D01*
G01X03722Y-27562D01*
G01X03731Y-27548D01*
G01X03739Y-27534D01*
G01X03747Y-27519D01*
G01X03755Y-27504D01*
G01X03762Y-27489D01*
G01X03769Y-27474D01*
G01X03775Y-27459D01*
G01X03782Y-27444D01*
G01X03787Y-27428D01*
G01X03793Y-27412D01*
G01X03798Y-27397D01*
G01X03802Y-27381D01*
G01X03807Y-27364D01*
G01X03811Y-27348D01*
G01X03814Y-27332D01*
G01X03817Y-27316D01*
G01X03820Y-27299D01*
G01X03822Y-27283D01*
G01X03824Y-27266D01*
G01X03825Y-27250D01*
G01X03826Y-27233D01*
G01X03827Y-27217D01*
G01X03827Y-27200D01*
D15*
G01X04616Y-12716D02*
G01X06584Y-12716D01*
D15*
G01X06584Y-12716D02*
G01X06584Y-14329D01*
D15*
G01X06584Y-14329D02*
G01X06584Y-14684D01*
D15*
G01X06584Y-14684D02*
G01X06229Y-14684D01*
D15*
G01X06229Y-14684D02*
G01X04616Y-14684D01*
D15*
G01X04616Y-14684D02*
G01X04616Y-12716D01*
D15*
G01X06584Y-14329D02*
G01X06229Y-14684D01*
D15*
G01X06229Y-14684D02*
G01X06111Y-14802D01*
D15*
G01X06111Y-14802D02*
G01X06269Y-14959D01*
D15*
G01X06269Y-14959D02*
G01X06584Y-14684D01*
D15*
G01X06277Y-13700D02*
G01X06277Y-13700D01*
G01X06277Y-13683D01*
G01X06276Y-13667D01*
G01X06275Y-13650D01*
G01X06274Y-13634D01*
G01X06272Y-13617D01*
G01X06270Y-13601D01*
G01X06267Y-13584D01*
G01X06264Y-13568D01*
G01X06261Y-13552D01*
G01X06257Y-13536D01*
G01X06252Y-13519D01*
G01X06248Y-13503D01*
G01X06243Y-13488D01*
G01X06237Y-13472D01*
G01X06232Y-13456D01*
G01X06225Y-13441D01*
G01X06219Y-13426D01*
G01X06212Y-13411D01*
G01X06205Y-13396D01*
G01X06197Y-13381D01*
G01X06189Y-13366D01*
G01X06181Y-13352D01*
G01X06172Y-13338D01*
G01X06163Y-13324D01*
G01X06154Y-13310D01*
G01X06144Y-13297D01*
G01X06134Y-13283D01*
G01X06123Y-13271D01*
G01X06113Y-13258D01*
G01X06102Y-13245D01*
G01X06090Y-13233D01*
G01X06079Y-13221D01*
G01X06067Y-13210D01*
G01X06055Y-13198D01*
G01X06042Y-13187D01*
G01X06029Y-13177D01*
G01X06017Y-13166D01*
G01X06003Y-13156D01*
G01X05990Y-13146D01*
G01X05976Y-13137D01*
G01X05962Y-13128D01*
G01X05948Y-13119D01*
G01X05934Y-13111D01*
G01X05919Y-13103D01*
G01X05904Y-13095D01*
G01X05889Y-13088D01*
G01X05874Y-13081D01*
G01X05859Y-13075D01*
G01X05844Y-13068D01*
G01X05828Y-13063D01*
G01X05812Y-13057D01*
G01X05797Y-13052D01*
G01X05781Y-13048D01*
G01X05764Y-13043D01*
G01X05748Y-13039D01*
G01X05732Y-13036D01*
G01X05716Y-13033D01*
G01X05699Y-13030D01*
G01X05683Y-13028D01*
G01X05666Y-13026D01*
G01X05650Y-13025D01*
G01X05633Y-13024D01*
G01X05617Y-13023D01*
G01X05600Y-13023D01*
G01X05583Y-13023D01*
G01X05567Y-13024D01*
G01X05550Y-13025D01*
G01X05534Y-13026D01*
G01X05517Y-13028D01*
G01X05501Y-13030D01*
G01X05484Y-13033D01*
G01X05468Y-13036D01*
G01X05452Y-13039D01*
G01X05436Y-13043D01*
G01X05419Y-13048D01*
G01X05403Y-13052D01*
G01X05388Y-13057D01*
G01X05372Y-13063D01*
G01X05356Y-13068D01*
G01X05341Y-13075D01*
G01X05326Y-13081D01*
G01X05311Y-13088D01*
G01X05296Y-13095D01*
G01X05281Y-13103D01*
G01X05266Y-13111D01*
G01X05252Y-13119D01*
G01X05238Y-13128D01*
G01X05224Y-13137D01*
G01X05210Y-13146D01*
G01X05197Y-13156D01*
G01X05183Y-13166D01*
G01X05171Y-13177D01*
G01X05158Y-13187D01*
G01X05145Y-13198D01*
G01X05133Y-13210D01*
G01X05121Y-13221D01*
G01X05110Y-13233D01*
G01X05098Y-13245D01*
G01X05087Y-13258D01*
G01X05077Y-13271D01*
G01X05066Y-13283D01*
G01X05056Y-13297D01*
G01X05046Y-13310D01*
G01X05037Y-13324D01*
G01X05028Y-13338D01*
G01X05019Y-13352D01*
G01X05011Y-13366D01*
G01X05003Y-13381D01*
G01X04995Y-13396D01*
G01X04988Y-13411D01*
G01X04981Y-13426D01*
G01X04975Y-13441D01*
G01X04968Y-13456D01*
G01X04963Y-13472D01*
G01X04957Y-13488D01*
G01X04952Y-13503D01*
G01X04948Y-13519D01*
G01X04943Y-13536D01*
G01X04939Y-13552D01*
G01X04936Y-13568D01*
G01X04933Y-13584D01*
G01X04930Y-13601D01*
G01X04928Y-13617D01*
G01X04926Y-13634D01*
G01X04925Y-13650D01*
G01X04924Y-13667D01*
G01X04923Y-13683D01*
G01X04923Y-13700D01*
G01X04923Y-13717D01*
G01X04924Y-13733D01*
G01X04925Y-13750D01*
G01X04926Y-13766D01*
G01X04928Y-13783D01*
G01X04930Y-13799D01*
G01X04933Y-13816D01*
G01X04936Y-13832D01*
G01X04939Y-13848D01*
G01X04943Y-13864D01*
G01X04948Y-13881D01*
G01X04952Y-13897D01*
G01X04957Y-13912D01*
G01X04963Y-13928D01*
G01X04968Y-13944D01*
G01X04975Y-13959D01*
G01X04981Y-13974D01*
G01X04988Y-13989D01*
G01X04995Y-14004D01*
G01X05003Y-14019D01*
G01X05011Y-14034D01*
G01X05019Y-14048D01*
G01X05028Y-14062D01*
G01X05037Y-14076D01*
G01X05046Y-14090D01*
G01X05056Y-14103D01*
G01X05066Y-14117D01*
G01X05077Y-14129D01*
G01X05087Y-14142D01*
G01X05098Y-14155D01*
G01X05110Y-14167D01*
G01X05121Y-14179D01*
G01X05133Y-14190D01*
G01X05145Y-14202D01*
G01X05158Y-14213D01*
G01X05171Y-14223D01*
G01X05183Y-14234D01*
G01X05197Y-14244D01*
G01X05210Y-14254D01*
G01X05224Y-14263D01*
G01X05238Y-14272D01*
G01X05252Y-14281D01*
G01X05266Y-14289D01*
G01X05281Y-14297D01*
G01X05296Y-14305D01*
G01X05311Y-14312D01*
G01X05326Y-14319D01*
G01X05341Y-14325D01*
G01X05356Y-14332D01*
G01X05372Y-14337D01*
G01X05388Y-14343D01*
G01X05403Y-14348D01*
G01X05419Y-14352D01*
G01X05436Y-14357D01*
G01X05452Y-14361D01*
G01X05468Y-14364D01*
G01X05484Y-14367D01*
G01X05501Y-14370D01*
G01X05517Y-14372D01*
G01X05534Y-14374D01*
G01X05550Y-14375D01*
G01X05567Y-14376D01*
G01X05583Y-14377D01*
G01X05600Y-14377D01*
G01X05617Y-14377D01*
G01X05633Y-14376D01*
G01X05650Y-14375D01*
G01X05666Y-14374D01*
G01X05683Y-14372D01*
G01X05699Y-14370D01*
G01X05716Y-14367D01*
G01X05732Y-14364D01*
G01X05748Y-14361D01*
G01X05764Y-14357D01*
G01X05781Y-14352D01*
G01X05797Y-14348D01*
G01X05812Y-14343D01*
G01X05828Y-14337D01*
G01X05844Y-14332D01*
G01X05859Y-14325D01*
G01X05874Y-14319D01*
G01X05889Y-14312D01*
G01X05904Y-14305D01*
G01X05919Y-14297D01*
G01X05934Y-14289D01*
G01X05948Y-14281D01*
G01X05962Y-14272D01*
G01X05976Y-14263D01*
G01X05990Y-14254D01*
G01X06003Y-14244D01*
G01X06017Y-14234D01*
G01X06029Y-14223D01*
G01X06042Y-14213D01*
G01X06055Y-14202D01*
G01X06067Y-14190D01*
G01X06079Y-14179D01*
G01X06090Y-14167D01*
G01X06102Y-14155D01*
G01X06113Y-14142D01*
G01X06123Y-14129D01*
G01X06134Y-14117D01*
G01X06144Y-14103D01*
G01X06154Y-14090D01*
G01X06163Y-14076D01*
G01X06172Y-14062D01*
G01X06181Y-14048D01*
G01X06189Y-14034D01*
G01X06197Y-14019D01*
G01X06205Y-14004D01*
G01X06212Y-13989D01*
G01X06219Y-13974D01*
G01X06225Y-13959D01*
G01X06232Y-13944D01*
G01X06237Y-13928D01*
G01X06243Y-13912D01*
G01X06248Y-13897D01*
G01X06252Y-13881D01*
G01X06257Y-13864D01*
G01X06261Y-13848D01*
G01X06264Y-13832D01*
G01X06267Y-13816D01*
G01X06270Y-13799D01*
G01X06272Y-13783D01*
G01X06274Y-13766D01*
G01X06275Y-13750D01*
G01X06276Y-13733D01*
G01X06277Y-13717D01*
G01X06277Y-13700D01*
D15*
G01X06316Y-04566D02*
G01X08284Y-04566D01*
D15*
G01X08284Y-04566D02*
G01X08284Y-06179D01*
D15*
G01X08284Y-06179D02*
G01X08284Y-06534D01*
D15*
G01X08284Y-06534D02*
G01X07929Y-06534D01*
D15*
G01X07929Y-06534D02*
G01X06316Y-06534D01*
D15*
G01X06316Y-06534D02*
G01X06316Y-04566D01*
D15*
G01X08284Y-06179D02*
G01X07929Y-06534D01*
D15*
G01X07929Y-06534D02*
G01X07811Y-06652D01*
D15*
G01X07811Y-06652D02*
G01X07969Y-06809D01*
D15*
G01X07969Y-06809D02*
G01X08284Y-06534D01*
D15*
G01X07977Y-05550D02*
G01X07977Y-05550D01*
G01X07977Y-05533D01*
G01X07976Y-05517D01*
G01X07975Y-05500D01*
G01X07974Y-05484D01*
G01X07972Y-05467D01*
G01X07970Y-05451D01*
G01X07967Y-05434D01*
G01X07964Y-05418D01*
G01X07961Y-05402D01*
G01X07957Y-05386D01*
G01X07952Y-05369D01*
G01X07948Y-05353D01*
G01X07943Y-05338D01*
G01X07937Y-05322D01*
G01X07932Y-05306D01*
G01X07925Y-05291D01*
G01X07919Y-05276D01*
G01X07912Y-05261D01*
G01X07905Y-05246D01*
G01X07897Y-05231D01*
G01X07889Y-05216D01*
G01X07881Y-05202D01*
G01X07872Y-05188D01*
G01X07863Y-05174D01*
G01X07854Y-05160D01*
G01X07844Y-05147D01*
G01X07834Y-05133D01*
G01X07823Y-05121D01*
G01X07813Y-05108D01*
G01X07802Y-05095D01*
G01X07790Y-05083D01*
G01X07779Y-05071D01*
G01X07767Y-05060D01*
G01X07755Y-05048D01*
G01X07742Y-05037D01*
G01X07729Y-05027D01*
G01X07717Y-05016D01*
G01X07703Y-05006D01*
G01X07690Y-04996D01*
G01X07676Y-04987D01*
G01X07662Y-04978D01*
G01X07648Y-04969D01*
G01X07634Y-04961D01*
G01X07619Y-04953D01*
G01X07604Y-04945D01*
G01X07589Y-04938D01*
G01X07574Y-04931D01*
G01X07559Y-04925D01*
G01X07544Y-04918D01*
G01X07528Y-04913D01*
G01X07512Y-04907D01*
G01X07497Y-04902D01*
G01X07481Y-04898D01*
G01X07464Y-04893D01*
G01X07448Y-04889D01*
G01X07432Y-04886D01*
G01X07416Y-04883D01*
G01X07399Y-04880D01*
G01X07383Y-04878D01*
G01X07366Y-04876D01*
G01X07350Y-04875D01*
G01X07333Y-04874D01*
G01X07317Y-04873D01*
G01X07300Y-04873D01*
G01X07283Y-04873D01*
G01X07267Y-04874D01*
G01X07250Y-04875D01*
G01X07234Y-04876D01*
G01X07217Y-04878D01*
G01X07201Y-04880D01*
G01X07184Y-04883D01*
G01X07168Y-04886D01*
G01X07152Y-04889D01*
G01X07136Y-04893D01*
G01X07119Y-04898D01*
G01X07103Y-04902D01*
G01X07088Y-04907D01*
G01X07072Y-04913D01*
G01X07056Y-04918D01*
G01X07041Y-04925D01*
G01X07026Y-04931D01*
G01X07011Y-04938D01*
G01X06996Y-04945D01*
G01X06981Y-04953D01*
G01X06966Y-04961D01*
G01X06952Y-04969D01*
G01X06938Y-04978D01*
G01X06924Y-04987D01*
G01X06910Y-04996D01*
G01X06897Y-05006D01*
G01X06883Y-05016D01*
G01X06871Y-05027D01*
G01X06858Y-05037D01*
G01X06845Y-05048D01*
G01X06833Y-05060D01*
G01X06821Y-05071D01*
G01X06810Y-05083D01*
G01X06798Y-05095D01*
G01X06787Y-05108D01*
G01X06777Y-05121D01*
G01X06766Y-05133D01*
G01X06756Y-05147D01*
G01X06746Y-05160D01*
G01X06737Y-05174D01*
G01X06728Y-05188D01*
G01X06719Y-05202D01*
G01X06711Y-05216D01*
G01X06703Y-05231D01*
G01X06695Y-05246D01*
G01X06688Y-05261D01*
G01X06681Y-05276D01*
G01X06675Y-05291D01*
G01X06668Y-05306D01*
G01X06663Y-05322D01*
G01X06657Y-05338D01*
G01X06652Y-05353D01*
G01X06648Y-05369D01*
G01X06643Y-05386D01*
G01X06639Y-05402D01*
G01X06636Y-05418D01*
G01X06633Y-05434D01*
G01X06630Y-05451D01*
G01X06628Y-05467D01*
G01X06626Y-05484D01*
G01X06625Y-05500D01*
G01X06624Y-05517D01*
G01X06623Y-05533D01*
G01X06623Y-05550D01*
G01X06623Y-05567D01*
G01X06624Y-05583D01*
G01X06625Y-05600D01*
G01X06626Y-05616D01*
G01X06628Y-05633D01*
G01X06630Y-05649D01*
G01X06633Y-05666D01*
G01X06636Y-05682D01*
G01X06639Y-05698D01*
G01X06643Y-05714D01*
G01X06648Y-05731D01*
G01X06652Y-05747D01*
G01X06657Y-05762D01*
G01X06663Y-05778D01*
G01X06668Y-05794D01*
G01X06675Y-05809D01*
G01X06681Y-05824D01*
G01X06688Y-05839D01*
G01X06695Y-05854D01*
G01X06703Y-05869D01*
G01X06711Y-05884D01*
G01X06719Y-05898D01*
G01X06728Y-05912D01*
G01X06737Y-05926D01*
G01X06746Y-05940D01*
G01X06756Y-05953D01*
G01X06766Y-05967D01*
G01X06777Y-05979D01*
G01X06787Y-05992D01*
G01X06798Y-06005D01*
G01X06810Y-06017D01*
G01X06821Y-06029D01*
G01X06833Y-06040D01*
G01X06845Y-06052D01*
G01X06858Y-06063D01*
G01X06871Y-06073D01*
G01X06883Y-06084D01*
G01X06897Y-06094D01*
G01X06910Y-06104D01*
G01X06924Y-06113D01*
G01X06938Y-06122D01*
G01X06952Y-06131D01*
G01X06966Y-06139D01*
G01X06981Y-06147D01*
G01X06996Y-06155D01*
G01X07011Y-06162D01*
G01X07026Y-06169D01*
G01X07041Y-06175D01*
G01X07056Y-06182D01*
G01X07072Y-06187D01*
G01X07088Y-06193D01*
G01X07103Y-06198D01*
G01X07119Y-06202D01*
G01X07136Y-06207D01*
G01X07152Y-06211D01*
G01X07168Y-06214D01*
G01X07184Y-06217D01*
G01X07201Y-06220D01*
G01X07217Y-06222D01*
G01X07234Y-06224D01*
G01X07250Y-06225D01*
G01X07267Y-06226D01*
G01X07283Y-06227D01*
G01X07300Y-06227D01*
G01X07317Y-06227D01*
G01X07333Y-06226D01*
G01X07350Y-06225D01*
G01X07366Y-06224D01*
G01X07383Y-06222D01*
G01X07399Y-06220D01*
G01X07416Y-06217D01*
G01X07432Y-06214D01*
G01X07448Y-06211D01*
G01X07464Y-06207D01*
G01X07481Y-06202D01*
G01X07497Y-06198D01*
G01X07512Y-06193D01*
G01X07528Y-06187D01*
G01X07544Y-06182D01*
G01X07559Y-06175D01*
G01X07574Y-06169D01*
G01X07589Y-06162D01*
G01X07604Y-06155D01*
G01X07619Y-06147D01*
G01X07634Y-06139D01*
G01X07648Y-06131D01*
G01X07662Y-06122D01*
G01X07676Y-06113D01*
G01X07690Y-06104D01*
G01X07703Y-06094D01*
G01X07717Y-06084D01*
G01X07729Y-06073D01*
G01X07742Y-06063D01*
G01X07755Y-06052D01*
G01X07767Y-06040D01*
G01X07779Y-06029D01*
G01X07790Y-06017D01*
G01X07802Y-06005D01*
G01X07813Y-05992D01*
G01X07823Y-05979D01*
G01X07834Y-05967D01*
G01X07844Y-05953D01*
G01X07854Y-05940D01*
G01X07863Y-05926D01*
G01X07872Y-05912D01*
G01X07881Y-05898D01*
G01X07889Y-05884D01*
G01X07897Y-05869D01*
G01X07905Y-05854D01*
G01X07912Y-05839D01*
G01X07919Y-05824D01*
G01X07925Y-05809D01*
G01X07932Y-05794D01*
G01X07937Y-05778D01*
G01X07943Y-05762D01*
G01X07948Y-05747D01*
G01X07952Y-05731D01*
G01X07957Y-05714D01*
G01X07961Y-05698D01*
G01X07964Y-05682D01*
G01X07967Y-05666D01*
G01X07970Y-05649D01*
G01X07972Y-05633D01*
G01X07974Y-05616D01*
G01X07975Y-05600D01*
G01X07976Y-05583D01*
G01X07977Y-05567D01*
G01X07977Y-05550D01*
D15*
G01X09066Y-18566D02*
G01X11034Y-18566D01*
D15*
G01X11034Y-18566D02*
G01X11034Y-20179D01*
D15*
G01X11034Y-20179D02*
G01X11034Y-20534D01*
D15*
G01X11034Y-20534D02*
G01X10679Y-20534D01*
D15*
G01X10679Y-20534D02*
G01X09066Y-20534D01*
D15*
G01X09066Y-20534D02*
G01X09066Y-18566D01*
D15*
G01X11034Y-20179D02*
G01X10679Y-20534D01*
D15*
G01X10679Y-20534D02*
G01X10561Y-20652D01*
D15*
G01X10561Y-20652D02*
G01X10719Y-20809D01*
D15*
G01X10719Y-20809D02*
G01X11034Y-20534D01*
D15*
G01X10727Y-19550D02*
G01X10727Y-19550D01*
G01X10727Y-19533D01*
G01X10726Y-19517D01*
G01X10725Y-19500D01*
G01X10724Y-19484D01*
G01X10722Y-19467D01*
G01X10720Y-19451D01*
G01X10717Y-19434D01*
G01X10714Y-19418D01*
G01X10711Y-19402D01*
G01X10707Y-19386D01*
G01X10702Y-19369D01*
G01X10698Y-19353D01*
G01X10693Y-19338D01*
G01X10687Y-19322D01*
G01X10682Y-19306D01*
G01X10675Y-19291D01*
G01X10669Y-19276D01*
G01X10662Y-19261D01*
G01X10655Y-19246D01*
G01X10647Y-19231D01*
G01X10639Y-19216D01*
G01X10631Y-19202D01*
G01X10622Y-19188D01*
G01X10613Y-19174D01*
G01X10604Y-19160D01*
G01X10594Y-19147D01*
G01X10584Y-19133D01*
G01X10573Y-19121D01*
G01X10563Y-19108D01*
G01X10552Y-19095D01*
G01X10540Y-19083D01*
G01X10529Y-19071D01*
G01X10517Y-19060D01*
G01X10505Y-19048D01*
G01X10492Y-19037D01*
G01X10479Y-19027D01*
G01X10467Y-19016D01*
G01X10453Y-19006D01*
G01X10440Y-18996D01*
G01X10426Y-18987D01*
G01X10412Y-18978D01*
G01X10398Y-18969D01*
G01X10384Y-18961D01*
G01X10369Y-18953D01*
G01X10354Y-18945D01*
G01X10339Y-18938D01*
G01X10324Y-18931D01*
G01X10309Y-18925D01*
G01X10294Y-18918D01*
G01X10278Y-18913D01*
G01X10262Y-18907D01*
G01X10247Y-18902D01*
G01X10231Y-18898D01*
G01X10214Y-18893D01*
G01X10198Y-18889D01*
G01X10182Y-18886D01*
G01X10166Y-18883D01*
G01X10149Y-18880D01*
G01X10133Y-18878D01*
G01X10116Y-18876D01*
G01X10100Y-18875D01*
G01X10083Y-18874D01*
G01X10067Y-18873D01*
G01X10050Y-18873D01*
G01X10033Y-18873D01*
G01X10017Y-18874D01*
G01X10000Y-18875D01*
G01X09984Y-18876D01*
G01X09967Y-18878D01*
G01X09951Y-18880D01*
G01X09934Y-18883D01*
G01X09918Y-18886D01*
G01X09902Y-18889D01*
G01X09886Y-18893D01*
G01X09869Y-18898D01*
G01X09853Y-18902D01*
G01X09838Y-18907D01*
G01X09822Y-18913D01*
G01X09806Y-18918D01*
G01X09791Y-18925D01*
G01X09776Y-18931D01*
G01X09761Y-18938D01*
G01X09746Y-18945D01*
G01X09731Y-18953D01*
G01X09716Y-18961D01*
G01X09702Y-18969D01*
G01X09688Y-18978D01*
G01X09674Y-18987D01*
G01X09660Y-18996D01*
G01X09647Y-19006D01*
G01X09633Y-19016D01*
G01X09621Y-19027D01*
G01X09608Y-19037D01*
G01X09595Y-19048D01*
G01X09583Y-19060D01*
G01X09571Y-19071D01*
G01X09560Y-19083D01*
G01X09548Y-19095D01*
G01X09537Y-19108D01*
G01X09527Y-19121D01*
G01X09516Y-19133D01*
G01X09506Y-19147D01*
G01X09496Y-19160D01*
G01X09487Y-19174D01*
G01X09478Y-19188D01*
G01X09469Y-19202D01*
G01X09461Y-19216D01*
G01X09453Y-19231D01*
G01X09445Y-19246D01*
G01X09438Y-19261D01*
G01X09431Y-19276D01*
G01X09425Y-19291D01*
G01X09418Y-19306D01*
G01X09413Y-19322D01*
G01X09407Y-19338D01*
G01X09402Y-19353D01*
G01X09398Y-19369D01*
G01X09393Y-19386D01*
G01X09389Y-19402D01*
G01X09386Y-19418D01*
G01X09383Y-19434D01*
G01X09380Y-19451D01*
G01X09378Y-19467D01*
G01X09376Y-19484D01*
G01X09375Y-19500D01*
G01X09374Y-19517D01*
G01X09373Y-19533D01*
G01X09373Y-19550D01*
G01X09373Y-19567D01*
G01X09374Y-19583D01*
G01X09375Y-19600D01*
G01X09376Y-19616D01*
G01X09378Y-19633D01*
G01X09380Y-19649D01*
G01X09383Y-19666D01*
G01X09386Y-19682D01*
G01X09389Y-19698D01*
G01X09393Y-19714D01*
G01X09398Y-19731D01*
G01X09402Y-19747D01*
G01X09407Y-19762D01*
G01X09413Y-19778D01*
G01X09418Y-19794D01*
G01X09425Y-19809D01*
G01X09431Y-19824D01*
G01X09438Y-19839D01*
G01X09445Y-19854D01*
G01X09453Y-19869D01*
G01X09461Y-19884D01*
G01X09469Y-19898D01*
G01X09478Y-19912D01*
G01X09487Y-19926D01*
G01X09496Y-19940D01*
G01X09506Y-19953D01*
G01X09516Y-19967D01*
G01X09527Y-19979D01*
G01X09537Y-19992D01*
G01X09548Y-20005D01*
G01X09560Y-20017D01*
G01X09571Y-20029D01*
G01X09583Y-20040D01*
G01X09595Y-20052D01*
G01X09608Y-20063D01*
G01X09621Y-20073D01*
G01X09633Y-20084D01*
G01X09647Y-20094D01*
G01X09660Y-20104D01*
G01X09674Y-20113D01*
G01X09688Y-20122D01*
G01X09702Y-20131D01*
G01X09716Y-20139D01*
G01X09731Y-20147D01*
G01X09746Y-20155D01*
G01X09761Y-20162D01*
G01X09776Y-20169D01*
G01X09791Y-20175D01*
G01X09806Y-20182D01*
G01X09822Y-20187D01*
G01X09838Y-20193D01*
G01X09853Y-20198D01*
G01X09869Y-20202D01*
G01X09886Y-20207D01*
G01X09902Y-20211D01*
G01X09918Y-20214D01*
G01X09934Y-20217D01*
G01X09951Y-20220D01*
G01X09967Y-20222D01*
G01X09984Y-20224D01*
G01X10000Y-20225D01*
G01X10017Y-20226D01*
G01X10033Y-20227D01*
G01X10050Y-20227D01*
G01X10067Y-20227D01*
G01X10083Y-20226D01*
G01X10100Y-20225D01*
G01X10116Y-20224D01*
G01X10133Y-20222D01*
G01X10149Y-20220D01*
G01X10166Y-20217D01*
G01X10182Y-20214D01*
G01X10198Y-20211D01*
G01X10214Y-20207D01*
G01X10231Y-20202D01*
G01X10247Y-20198D01*
G01X10262Y-20193D01*
G01X10278Y-20187D01*
G01X10294Y-20182D01*
G01X10309Y-20175D01*
G01X10324Y-20169D01*
G01X10339Y-20162D01*
G01X10354Y-20155D01*
G01X10369Y-20147D01*
G01X10384Y-20139D01*
G01X10398Y-20131D01*
G01X10412Y-20122D01*
G01X10426Y-20113D01*
G01X10440Y-20104D01*
G01X10453Y-20094D01*
G01X10467Y-20084D01*
G01X10479Y-20073D01*
G01X10492Y-20063D01*
G01X10505Y-20052D01*
G01X10517Y-20040D01*
G01X10529Y-20029D01*
G01X10540Y-20017D01*
G01X10552Y-20005D01*
G01X10563Y-19992D01*
G01X10573Y-19979D01*
G01X10584Y-19967D01*
G01X10594Y-19953D01*
G01X10604Y-19940D01*
G01X10613Y-19926D01*
G01X10622Y-19912D01*
G01X10631Y-19898D01*
G01X10639Y-19884D01*
G01X10647Y-19869D01*
G01X10655Y-19854D01*
G01X10662Y-19839D01*
G01X10669Y-19824D01*
G01X10675Y-19809D01*
G01X10682Y-19794D01*
G01X10687Y-19778D01*
G01X10693Y-19762D01*
G01X10698Y-19747D01*
G01X10702Y-19731D01*
G01X10707Y-19714D01*
G01X10711Y-19698D01*
G01X10714Y-19682D01*
G01X10717Y-19666D01*
G01X10720Y-19649D01*
G01X10722Y-19633D01*
G01X10724Y-19616D01*
G01X10725Y-19600D01*
G01X10726Y-19583D01*
G01X10727Y-19567D01*
G01X10727Y-19550D01*
D15*
G01X23634Y-20534D02*
G01X21666Y-20534D01*
D15*
G01X21666Y-20534D02*
G01X21666Y-18921D01*
D15*
G01X21666Y-18921D02*
G01X21666Y-18566D01*
D15*
G01X21666Y-18566D02*
G01X22021Y-18566D01*
D15*
G01X22021Y-18566D02*
G01X23634Y-18566D01*
D15*
G01X23634Y-18566D02*
G01X23634Y-20534D01*
D15*
G01X21666Y-18921D02*
G01X22021Y-18566D01*
D15*
G01X22021Y-18566D02*
G01X22139Y-18448D01*
D15*
G01X22139Y-18448D02*
G01X21981Y-18291D01*
D15*
G01X21981Y-18291D02*
G01X21666Y-18566D01*
D15*
G01X23327Y-19550D02*
G01X23327Y-19550D01*
G01X23327Y-19533D01*
G01X23326Y-19517D01*
G01X23325Y-19500D01*
G01X23324Y-19484D01*
G01X23322Y-19467D01*
G01X23320Y-19451D01*
G01X23317Y-19434D01*
G01X23314Y-19418D01*
G01X23311Y-19402D01*
G01X23307Y-19386D01*
G01X23302Y-19369D01*
G01X23298Y-19353D01*
G01X23293Y-19338D01*
G01X23287Y-19322D01*
G01X23282Y-19306D01*
G01X23275Y-19291D01*
G01X23269Y-19276D01*
G01X23262Y-19261D01*
G01X23255Y-19246D01*
G01X23247Y-19231D01*
G01X23239Y-19216D01*
G01X23231Y-19202D01*
G01X23222Y-19188D01*
G01X23213Y-19174D01*
G01X23204Y-19160D01*
G01X23194Y-19147D01*
G01X23184Y-19133D01*
G01X23173Y-19121D01*
G01X23163Y-19108D01*
G01X23152Y-19095D01*
G01X23140Y-19083D01*
G01X23129Y-19071D01*
G01X23117Y-19060D01*
G01X23105Y-19048D01*
G01X23092Y-19037D01*
G01X23079Y-19027D01*
G01X23067Y-19016D01*
G01X23053Y-19006D01*
G01X23040Y-18996D01*
G01X23026Y-18987D01*
G01X23012Y-18978D01*
G01X22998Y-18969D01*
G01X22984Y-18961D01*
G01X22969Y-18953D01*
G01X22954Y-18945D01*
G01X22939Y-18938D01*
G01X22924Y-18931D01*
G01X22909Y-18925D01*
G01X22894Y-18918D01*
G01X22878Y-18913D01*
G01X22862Y-18907D01*
G01X22847Y-18902D01*
G01X22831Y-18898D01*
G01X22814Y-18893D01*
G01X22798Y-18889D01*
G01X22782Y-18886D01*
G01X22766Y-18883D01*
G01X22749Y-18880D01*
G01X22733Y-18878D01*
G01X22716Y-18876D01*
G01X22700Y-18875D01*
G01X22683Y-18874D01*
G01X22667Y-18873D01*
G01X22650Y-18873D01*
G01X22633Y-18873D01*
G01X22617Y-18874D01*
G01X22600Y-18875D01*
G01X22584Y-18876D01*
G01X22567Y-18878D01*
G01X22551Y-18880D01*
G01X22534Y-18883D01*
G01X22518Y-18886D01*
G01X22502Y-18889D01*
G01X22486Y-18893D01*
G01X22469Y-18898D01*
G01X22453Y-18902D01*
G01X22438Y-18907D01*
G01X22422Y-18913D01*
G01X22406Y-18918D01*
G01X22391Y-18925D01*
G01X22376Y-18931D01*
G01X22361Y-18938D01*
G01X22346Y-18945D01*
G01X22331Y-18953D01*
G01X22316Y-18961D01*
G01X22302Y-18969D01*
G01X22288Y-18978D01*
G01X22274Y-18987D01*
G01X22260Y-18996D01*
G01X22247Y-19006D01*
G01X22233Y-19016D01*
G01X22221Y-19027D01*
G01X22208Y-19037D01*
G01X22195Y-19048D01*
G01X22183Y-19060D01*
G01X22171Y-19071D01*
G01X22160Y-19083D01*
G01X22148Y-19095D01*
G01X22137Y-19108D01*
G01X22127Y-19121D01*
G01X22116Y-19133D01*
G01X22106Y-19147D01*
G01X22096Y-19160D01*
G01X22087Y-19174D01*
G01X22078Y-19188D01*
G01X22069Y-19202D01*
G01X22061Y-19216D01*
G01X22053Y-19231D01*
G01X22045Y-19246D01*
G01X22038Y-19261D01*
G01X22031Y-19276D01*
G01X22025Y-19291D01*
G01X22018Y-19306D01*
G01X22013Y-19322D01*
G01X22007Y-19338D01*
G01X22002Y-19353D01*
G01X21998Y-19369D01*
G01X21993Y-19386D01*
G01X21989Y-19402D01*
G01X21986Y-19418D01*
G01X21983Y-19434D01*
G01X21980Y-19451D01*
G01X21978Y-19467D01*
G01X21976Y-19484D01*
G01X21975Y-19500D01*
G01X21974Y-19517D01*
G01X21973Y-19533D01*
G01X21973Y-19550D01*
G01X21973Y-19567D01*
G01X21974Y-19583D01*
G01X21975Y-19600D01*
G01X21976Y-19616D01*
G01X21978Y-19633D01*
G01X21980Y-19649D01*
G01X21983Y-19666D01*
G01X21986Y-19682D01*
G01X21989Y-19698D01*
G01X21993Y-19714D01*
G01X21998Y-19731D01*
G01X22002Y-19747D01*
G01X22007Y-19762D01*
G01X22013Y-19778D01*
G01X22018Y-19794D01*
G01X22025Y-19809D01*
G01X22031Y-19824D01*
G01X22038Y-19839D01*
G01X22045Y-19854D01*
G01X22053Y-19869D01*
G01X22061Y-19884D01*
G01X22069Y-19898D01*
G01X22078Y-19912D01*
G01X22087Y-19926D01*
G01X22096Y-19940D01*
G01X22106Y-19953D01*
G01X22116Y-19967D01*
G01X22127Y-19979D01*
G01X22137Y-19992D01*
G01X22148Y-20005D01*
G01X22160Y-20017D01*
G01X22171Y-20029D01*
G01X22183Y-20040D01*
G01X22195Y-20052D01*
G01X22208Y-20063D01*
G01X22221Y-20073D01*
G01X22233Y-20084D01*
G01X22247Y-20094D01*
G01X22260Y-20104D01*
G01X22274Y-20113D01*
G01X22288Y-20122D01*
G01X22302Y-20131D01*
G01X22316Y-20139D01*
G01X22331Y-20147D01*
G01X22346Y-20155D01*
G01X22361Y-20162D01*
G01X22376Y-20169D01*
G01X22391Y-20175D01*
G01X22406Y-20182D01*
G01X22422Y-20187D01*
G01X22438Y-20193D01*
G01X22453Y-20198D01*
G01X22469Y-20202D01*
G01X22486Y-20207D01*
G01X22502Y-20211D01*
G01X22518Y-20214D01*
G01X22534Y-20217D01*
G01X22551Y-20220D01*
G01X22567Y-20222D01*
G01X22584Y-20224D01*
G01X22600Y-20225D01*
G01X22617Y-20226D01*
G01X22633Y-20227D01*
G01X22650Y-20227D01*
G01X22667Y-20227D01*
G01X22683Y-20226D01*
G01X22700Y-20225D01*
G01X22716Y-20224D01*
G01X22733Y-20222D01*
G01X22749Y-20220D01*
G01X22766Y-20217D01*
G01X22782Y-20214D01*
G01X22798Y-20211D01*
G01X22814Y-20207D01*
G01X22831Y-20202D01*
G01X22847Y-20198D01*
G01X22862Y-20193D01*
G01X22878Y-20187D01*
G01X22894Y-20182D01*
G01X22909Y-20175D01*
G01X22924Y-20169D01*
G01X22939Y-20162D01*
G01X22954Y-20155D01*
G01X22969Y-20147D01*
G01X22984Y-20139D01*
G01X22998Y-20131D01*
G01X23012Y-20122D01*
G01X23026Y-20113D01*
G01X23040Y-20104D01*
G01X23053Y-20094D01*
G01X23067Y-20084D01*
G01X23079Y-20073D01*
G01X23092Y-20063D01*
G01X23105Y-20052D01*
G01X23117Y-20040D01*
G01X23129Y-20029D01*
G01X23140Y-20017D01*
G01X23152Y-20005D01*
G01X23163Y-19992D01*
G01X23173Y-19979D01*
G01X23184Y-19967D01*
G01X23194Y-19953D01*
G01X23204Y-19940D01*
G01X23213Y-19926D01*
G01X23222Y-19912D01*
G01X23231Y-19898D01*
G01X23239Y-19884D01*
G01X23247Y-19869D01*
G01X23255Y-19854D01*
G01X23262Y-19839D01*
G01X23269Y-19824D01*
G01X23275Y-19809D01*
G01X23282Y-19794D01*
G01X23287Y-19778D01*
G01X23293Y-19762D01*
G01X23298Y-19747D01*
G01X23302Y-19731D01*
G01X23307Y-19714D01*
G01X23311Y-19698D01*
G01X23314Y-19682D01*
G01X23317Y-19666D01*
G01X23320Y-19649D01*
G01X23322Y-19633D01*
G01X23324Y-19616D01*
G01X23325Y-19600D01*
G01X23326Y-19583D01*
G01X23327Y-19567D01*
G01X23327Y-19550D01*
D15*
G01X11416Y-08466D02*
G01X13384Y-08466D01*
D15*
G01X13384Y-08466D02*
G01X13384Y-10079D01*
D15*
G01X13384Y-10079D02*
G01X13384Y-10434D01*
D15*
G01X13384Y-10434D02*
G01X13029Y-10434D01*
D15*
G01X13029Y-10434D02*
G01X11416Y-10434D01*
D15*
G01X11416Y-10434D02*
G01X11416Y-08466D01*
D15*
G01X13384Y-10079D02*
G01X13029Y-10434D01*
D15*
G01X13029Y-10434D02*
G01X12911Y-10552D01*
D15*
G01X12911Y-10552D02*
G01X13069Y-10709D01*
D15*
G01X13069Y-10709D02*
G01X13384Y-10434D01*
D15*
G01X13077Y-09450D02*
G01X13077Y-09450D01*
G01X13077Y-09433D01*
G01X13076Y-09417D01*
G01X13075Y-09400D01*
G01X13074Y-09384D01*
G01X13072Y-09367D01*
G01X13070Y-09351D01*
G01X13067Y-09334D01*
G01X13064Y-09318D01*
G01X13061Y-09302D01*
G01X13057Y-09286D01*
G01X13052Y-09269D01*
G01X13048Y-09253D01*
G01X13043Y-09238D01*
G01X13037Y-09222D01*
G01X13032Y-09206D01*
G01X13025Y-09191D01*
G01X13019Y-09176D01*
G01X13012Y-09161D01*
G01X13005Y-09146D01*
G01X12997Y-09131D01*
G01X12989Y-09116D01*
G01X12981Y-09102D01*
G01X12972Y-09088D01*
G01X12963Y-09074D01*
G01X12954Y-09060D01*
G01X12944Y-09047D01*
G01X12934Y-09033D01*
G01X12923Y-09021D01*
G01X12913Y-09008D01*
G01X12902Y-08995D01*
G01X12890Y-08983D01*
G01X12879Y-08971D01*
G01X12867Y-08960D01*
G01X12855Y-08948D01*
G01X12842Y-08937D01*
G01X12829Y-08927D01*
G01X12817Y-08916D01*
G01X12803Y-08906D01*
G01X12790Y-08896D01*
G01X12776Y-08887D01*
G01X12762Y-08878D01*
G01X12748Y-08869D01*
G01X12734Y-08861D01*
G01X12719Y-08853D01*
G01X12704Y-08845D01*
G01X12689Y-08838D01*
G01X12674Y-08831D01*
G01X12659Y-08825D01*
G01X12644Y-08818D01*
G01X12628Y-08813D01*
G01X12612Y-08807D01*
G01X12597Y-08802D01*
G01X12581Y-08798D01*
G01X12564Y-08793D01*
G01X12548Y-08789D01*
G01X12532Y-08786D01*
G01X12516Y-08783D01*
G01X12499Y-08780D01*
G01X12483Y-08778D01*
G01X12466Y-08776D01*
G01X12450Y-08775D01*
G01X12433Y-08774D01*
G01X12417Y-08773D01*
G01X12400Y-08773D01*
G01X12383Y-08773D01*
G01X12367Y-08774D01*
G01X12350Y-08775D01*
G01X12334Y-08776D01*
G01X12317Y-08778D01*
G01X12301Y-08780D01*
G01X12284Y-08783D01*
G01X12268Y-08786D01*
G01X12252Y-08789D01*
G01X12236Y-08793D01*
G01X12219Y-08798D01*
G01X12203Y-08802D01*
G01X12188Y-08807D01*
G01X12172Y-08813D01*
G01X12156Y-08818D01*
G01X12141Y-08825D01*
G01X12126Y-08831D01*
G01X12111Y-08838D01*
G01X12096Y-08845D01*
G01X12081Y-08853D01*
G01X12066Y-08861D01*
G01X12052Y-08869D01*
G01X12038Y-08878D01*
G01X12024Y-08887D01*
G01X12010Y-08896D01*
G01X11997Y-08906D01*
G01X11983Y-08916D01*
G01X11971Y-08927D01*
G01X11958Y-08937D01*
G01X11945Y-08948D01*
G01X11933Y-08960D01*
G01X11921Y-08971D01*
G01X11910Y-08983D01*
G01X11898Y-08995D01*
G01X11887Y-09008D01*
G01X11877Y-09021D01*
G01X11866Y-09033D01*
G01X11856Y-09047D01*
G01X11846Y-09060D01*
G01X11837Y-09074D01*
G01X11828Y-09088D01*
G01X11819Y-09102D01*
G01X11811Y-09116D01*
G01X11803Y-09131D01*
G01X11795Y-09146D01*
G01X11788Y-09161D01*
G01X11781Y-09176D01*
G01X11775Y-09191D01*
G01X11768Y-09206D01*
G01X11763Y-09222D01*
G01X11757Y-09238D01*
G01X11752Y-09253D01*
G01X11748Y-09269D01*
G01X11743Y-09286D01*
G01X11739Y-09302D01*
G01X11736Y-09318D01*
G01X11733Y-09334D01*
G01X11730Y-09351D01*
G01X11728Y-09367D01*
G01X11726Y-09384D01*
G01X11725Y-09400D01*
G01X11724Y-09417D01*
G01X11723Y-09433D01*
G01X11723Y-09450D01*
G01X11723Y-09467D01*
G01X11724Y-09483D01*
G01X11725Y-09500D01*
G01X11726Y-09516D01*
G01X11728Y-09533D01*
G01X11730Y-09549D01*
G01X11733Y-09566D01*
G01X11736Y-09582D01*
G01X11739Y-09598D01*
G01X11743Y-09614D01*
G01X11748Y-09631D01*
G01X11752Y-09647D01*
G01X11757Y-09662D01*
G01X11763Y-09678D01*
G01X11768Y-09694D01*
G01X11775Y-09709D01*
G01X11781Y-09724D01*
G01X11788Y-09739D01*
G01X11795Y-09754D01*
G01X11803Y-09769D01*
G01X11811Y-09784D01*
G01X11819Y-09798D01*
G01X11828Y-09812D01*
G01X11837Y-09826D01*
G01X11846Y-09840D01*
G01X11856Y-09853D01*
G01X11866Y-09867D01*
G01X11877Y-09879D01*
G01X11887Y-09892D01*
G01X11898Y-09905D01*
G01X11910Y-09917D01*
G01X11921Y-09929D01*
G01X11933Y-09940D01*
G01X11945Y-09952D01*
G01X11958Y-09963D01*
G01X11971Y-09973D01*
G01X11983Y-09984D01*
G01X11997Y-09994D01*
G01X12010Y-10004D01*
G01X12024Y-10013D01*
G01X12038Y-10022D01*
G01X12052Y-10031D01*
G01X12066Y-10039D01*
G01X12081Y-10047D01*
G01X12096Y-10055D01*
G01X12111Y-10062D01*
G01X12126Y-10069D01*
G01X12141Y-10075D01*
G01X12156Y-10082D01*
G01X12172Y-10087D01*
G01X12188Y-10093D01*
G01X12203Y-10098D01*
G01X12219Y-10102D01*
G01X12236Y-10107D01*
G01X12252Y-10111D01*
G01X12268Y-10114D01*
G01X12284Y-10117D01*
G01X12301Y-10120D01*
G01X12317Y-10122D01*
G01X12334Y-10124D01*
G01X12350Y-10125D01*
G01X12367Y-10126D01*
G01X12383Y-10127D01*
G01X12400Y-10127D01*
G01X12417Y-10127D01*
G01X12433Y-10126D01*
G01X12450Y-10125D01*
G01X12466Y-10124D01*
G01X12483Y-10122D01*
G01X12499Y-10120D01*
G01X12516Y-10117D01*
G01X12532Y-10114D01*
G01X12548Y-10111D01*
G01X12564Y-10107D01*
G01X12581Y-10102D01*
G01X12597Y-10098D01*
G01X12612Y-10093D01*
G01X12628Y-10087D01*
G01X12644Y-10082D01*
G01X12659Y-10075D01*
G01X12674Y-10069D01*
G01X12689Y-10062D01*
G01X12704Y-10055D01*
G01X12719Y-10047D01*
G01X12734Y-10039D01*
G01X12748Y-10031D01*
G01X12762Y-10022D01*
G01X12776Y-10013D01*
G01X12790Y-10004D01*
G01X12803Y-09994D01*
G01X12817Y-09984D01*
G01X12829Y-09973D01*
G01X12842Y-09963D01*
G01X12855Y-09952D01*
G01X12867Y-09940D01*
G01X12879Y-09929D01*
G01X12890Y-09917D01*
G01X12902Y-09905D01*
G01X12913Y-09892D01*
G01X12923Y-09879D01*
G01X12934Y-09867D01*
G01X12944Y-09853D01*
G01X12954Y-09840D01*
G01X12963Y-09826D01*
G01X12972Y-09812D01*
G01X12981Y-09798D01*
G01X12989Y-09784D01*
G01X12997Y-09769D01*
G01X13005Y-09754D01*
G01X13012Y-09739D01*
G01X13019Y-09724D01*
G01X13025Y-09709D01*
G01X13032Y-09694D01*
G01X13037Y-09678D01*
G01X13043Y-09662D01*
G01X13048Y-09647D01*
G01X13052Y-09631D01*
G01X13057Y-09614D01*
G01X13061Y-09598D01*
G01X13064Y-09582D01*
G01X13067Y-09566D01*
G01X13070Y-09549D01*
G01X13072Y-09533D01*
G01X13074Y-09516D01*
G01X13075Y-09500D01*
G01X13076Y-09483D01*
G01X13077Y-09467D01*
G01X13077Y-09450D01*
D15*
G01X25184Y-09784D02*
G01X23216Y-09784D01*
D15*
G01X23216Y-09784D02*
G01X23216Y-08171D01*
D15*
G01X23216Y-08171D02*
G01X23216Y-07816D01*
D15*
G01X23216Y-07816D02*
G01X23571Y-07816D01*
D15*
G01X23571Y-07816D02*
G01X25184Y-07816D01*
D15*
G01X25184Y-07816D02*
G01X25184Y-09784D01*
D15*
G01X23216Y-08171D02*
G01X23571Y-07816D01*
D15*
G01X23571Y-07816D02*
G01X23689Y-07698D01*
D15*
G01X23689Y-07698D02*
G01X23531Y-07541D01*
D15*
G01X23531Y-07541D02*
G01X23216Y-07816D01*
D15*
G01X24877Y-08800D02*
G01X24877Y-08800D01*
G01X24877Y-08783D01*
G01X24876Y-08767D01*
G01X24875Y-08750D01*
G01X24874Y-08734D01*
G01X24872Y-08717D01*
G01X24870Y-08701D01*
G01X24867Y-08684D01*
G01X24864Y-08668D01*
G01X24861Y-08652D01*
G01X24857Y-08636D01*
G01X24852Y-08619D01*
G01X24848Y-08603D01*
G01X24843Y-08588D01*
G01X24837Y-08572D01*
G01X24832Y-08556D01*
G01X24825Y-08541D01*
G01X24819Y-08526D01*
G01X24812Y-08511D01*
G01X24805Y-08496D01*
G01X24797Y-08481D01*
G01X24789Y-08466D01*
G01X24781Y-08452D01*
G01X24772Y-08438D01*
G01X24763Y-08424D01*
G01X24754Y-08410D01*
G01X24744Y-08397D01*
G01X24734Y-08383D01*
G01X24723Y-08371D01*
G01X24713Y-08358D01*
G01X24702Y-08345D01*
G01X24690Y-08333D01*
G01X24679Y-08321D01*
G01X24667Y-08310D01*
G01X24655Y-08298D01*
G01X24642Y-08287D01*
G01X24629Y-08277D01*
G01X24617Y-08266D01*
G01X24603Y-08256D01*
G01X24590Y-08246D01*
G01X24576Y-08237D01*
G01X24562Y-08228D01*
G01X24548Y-08219D01*
G01X24534Y-08211D01*
G01X24519Y-08203D01*
G01X24504Y-08195D01*
G01X24489Y-08188D01*
G01X24474Y-08181D01*
G01X24459Y-08175D01*
G01X24444Y-08168D01*
G01X24428Y-08163D01*
G01X24412Y-08157D01*
G01X24397Y-08152D01*
G01X24381Y-08148D01*
G01X24364Y-08143D01*
G01X24348Y-08139D01*
G01X24332Y-08136D01*
G01X24316Y-08133D01*
G01X24299Y-08130D01*
G01X24283Y-08128D01*
G01X24266Y-08126D01*
G01X24250Y-08125D01*
G01X24233Y-08124D01*
G01X24217Y-08123D01*
G01X24200Y-08123D01*
G01X24183Y-08123D01*
G01X24167Y-08124D01*
G01X24150Y-08125D01*
G01X24134Y-08126D01*
G01X24117Y-08128D01*
G01X24101Y-08130D01*
G01X24084Y-08133D01*
G01X24068Y-08136D01*
G01X24052Y-08139D01*
G01X24036Y-08143D01*
G01X24019Y-08148D01*
G01X24003Y-08152D01*
G01X23988Y-08157D01*
G01X23972Y-08163D01*
G01X23956Y-08168D01*
G01X23941Y-08175D01*
G01X23926Y-08181D01*
G01X23911Y-08188D01*
G01X23896Y-08195D01*
G01X23881Y-08203D01*
G01X23866Y-08211D01*
G01X23852Y-08219D01*
G01X23838Y-08228D01*
G01X23824Y-08237D01*
G01X23810Y-08246D01*
G01X23797Y-08256D01*
G01X23783Y-08266D01*
G01X23771Y-08277D01*
G01X23758Y-08287D01*
G01X23745Y-08298D01*
G01X23733Y-08310D01*
G01X23721Y-08321D01*
G01X23710Y-08333D01*
G01X23698Y-08345D01*
G01X23687Y-08358D01*
G01X23677Y-08371D01*
G01X23666Y-08383D01*
G01X23656Y-08397D01*
G01X23646Y-08410D01*
G01X23637Y-08424D01*
G01X23628Y-08438D01*
G01X23619Y-08452D01*
G01X23611Y-08466D01*
G01X23603Y-08481D01*
G01X23595Y-08496D01*
G01X23588Y-08511D01*
G01X23581Y-08526D01*
G01X23575Y-08541D01*
G01X23568Y-08556D01*
G01X23563Y-08572D01*
G01X23557Y-08588D01*
G01X23552Y-08603D01*
G01X23548Y-08619D01*
G01X23543Y-08636D01*
G01X23539Y-08652D01*
G01X23536Y-08668D01*
G01X23533Y-08684D01*
G01X23530Y-08701D01*
G01X23528Y-08717D01*
G01X23526Y-08734D01*
G01X23525Y-08750D01*
G01X23524Y-08767D01*
G01X23523Y-08783D01*
G01X23523Y-08800D01*
G01X23523Y-08817D01*
G01X23524Y-08833D01*
G01X23525Y-08850D01*
G01X23526Y-08866D01*
G01X23528Y-08883D01*
G01X23530Y-08899D01*
G01X23533Y-08916D01*
G01X23536Y-08932D01*
G01X23539Y-08948D01*
G01X23543Y-08964D01*
G01X23548Y-08981D01*
G01X23552Y-08997D01*
G01X23557Y-09012D01*
G01X23563Y-09028D01*
G01X23568Y-09044D01*
G01X23575Y-09059D01*
G01X23581Y-09074D01*
G01X23588Y-09089D01*
G01X23595Y-09104D01*
G01X23603Y-09119D01*
G01X23611Y-09134D01*
G01X23619Y-09148D01*
G01X23628Y-09162D01*
G01X23637Y-09176D01*
G01X23646Y-09190D01*
G01X23656Y-09203D01*
G01X23666Y-09217D01*
G01X23677Y-09229D01*
G01X23687Y-09242D01*
G01X23698Y-09255D01*
G01X23710Y-09267D01*
G01X23721Y-09279D01*
G01X23733Y-09290D01*
G01X23745Y-09302D01*
G01X23758Y-09313D01*
G01X23771Y-09323D01*
G01X23783Y-09334D01*
G01X23797Y-09344D01*
G01X23810Y-09354D01*
G01X23824Y-09363D01*
G01X23838Y-09372D01*
G01X23852Y-09381D01*
G01X23866Y-09389D01*
G01X23881Y-09397D01*
G01X23896Y-09405D01*
G01X23911Y-09412D01*
G01X23926Y-09419D01*
G01X23941Y-09425D01*
G01X23956Y-09432D01*
G01X23972Y-09437D01*
G01X23988Y-09443D01*
G01X24003Y-09448D01*
G01X24019Y-09452D01*
G01X24036Y-09457D01*
G01X24052Y-09461D01*
G01X24068Y-09464D01*
G01X24084Y-09467D01*
G01X24101Y-09470D01*
G01X24117Y-09472D01*
G01X24134Y-09474D01*
G01X24150Y-09475D01*
G01X24167Y-09476D01*
G01X24183Y-09477D01*
G01X24200Y-09477D01*
G01X24217Y-09477D01*
G01X24233Y-09476D01*
G01X24250Y-09475D01*
G01X24266Y-09474D01*
G01X24283Y-09472D01*
G01X24299Y-09470D01*
G01X24316Y-09467D01*
G01X24332Y-09464D01*
G01X24348Y-09461D01*
G01X24364Y-09457D01*
G01X24381Y-09452D01*
G01X24397Y-09448D01*
G01X24412Y-09443D01*
G01X24428Y-09437D01*
G01X24444Y-09432D01*
G01X24459Y-09425D01*
G01X24474Y-09419D01*
G01X24489Y-09412D01*
G01X24504Y-09405D01*
G01X24519Y-09397D01*
G01X24534Y-09389D01*
G01X24548Y-09381D01*
G01X24562Y-09372D01*
G01X24576Y-09363D01*
G01X24590Y-09354D01*
G01X24603Y-09344D01*
G01X24617Y-09334D01*
G01X24629Y-09323D01*
G01X24642Y-09313D01*
G01X24655Y-09302D01*
G01X24667Y-09290D01*
G01X24679Y-09279D01*
G01X24690Y-09267D01*
G01X24702Y-09255D01*
G01X24713Y-09242D01*
G01X24723Y-09229D01*
G01X24734Y-09217D01*
G01X24744Y-09203D01*
G01X24754Y-09190D01*
G01X24763Y-09176D01*
G01X24772Y-09162D01*
G01X24781Y-09148D01*
G01X24789Y-09134D01*
G01X24797Y-09119D01*
G01X24805Y-09104D01*
G01X24812Y-09089D01*
G01X24819Y-09074D01*
G01X24825Y-09059D01*
G01X24832Y-09044D01*
G01X24837Y-09028D01*
G01X24843Y-09012D01*
G01X24848Y-08997D01*
G01X24852Y-08981D01*
G01X24857Y-08964D01*
G01X24861Y-08948D01*
G01X24864Y-08932D01*
G01X24867Y-08916D01*
G01X24870Y-08899D01*
G01X24872Y-08883D01*
G01X24874Y-08866D01*
G01X24875Y-08850D01*
G01X24876Y-08833D01*
G01X24877Y-08817D01*
G01X24877Y-08800D01*
D15*
G01X19666Y-29366D02*
G01X21634Y-29366D01*
D15*
G01X21634Y-29366D02*
G01X21634Y-30979D01*
D15*
G01X21634Y-30979D02*
G01X21634Y-31334D01*
D15*
G01X21634Y-31334D02*
G01X21279Y-31334D01*
D15*
G01X21279Y-31334D02*
G01X19666Y-31334D01*
D15*
G01X19666Y-31334D02*
G01X19666Y-29366D01*
D15*
G01X21634Y-30979D02*
G01X21279Y-31334D01*
D15*
G01X21279Y-31334D02*
G01X21161Y-31452D01*
D15*
G01X21161Y-31452D02*
G01X21319Y-31609D01*
D15*
G01X21319Y-31609D02*
G01X21634Y-31334D01*
D15*
G01X21327Y-30350D02*
G01X21327Y-30350D01*
G01X21327Y-30333D01*
G01X21326Y-30317D01*
G01X21325Y-30300D01*
G01X21324Y-30284D01*
G01X21322Y-30267D01*
G01X21320Y-30251D01*
G01X21317Y-30234D01*
G01X21314Y-30218D01*
G01X21311Y-30202D01*
G01X21307Y-30186D01*
G01X21302Y-30169D01*
G01X21298Y-30153D01*
G01X21293Y-30138D01*
G01X21287Y-30122D01*
G01X21282Y-30106D01*
G01X21275Y-30091D01*
G01X21269Y-30076D01*
G01X21262Y-30061D01*
G01X21255Y-30046D01*
G01X21247Y-30031D01*
G01X21239Y-30016D01*
G01X21231Y-30002D01*
G01X21222Y-29988D01*
G01X21213Y-29974D01*
G01X21204Y-29960D01*
G01X21194Y-29947D01*
G01X21184Y-29933D01*
G01X21173Y-29921D01*
G01X21163Y-29908D01*
G01X21152Y-29895D01*
G01X21140Y-29883D01*
G01X21129Y-29871D01*
G01X21117Y-29860D01*
G01X21105Y-29848D01*
G01X21092Y-29837D01*
G01X21079Y-29827D01*
G01X21067Y-29816D01*
G01X21053Y-29806D01*
G01X21040Y-29796D01*
G01X21026Y-29787D01*
G01X21012Y-29778D01*
G01X20998Y-29769D01*
G01X20984Y-29761D01*
G01X20969Y-29753D01*
G01X20954Y-29745D01*
G01X20939Y-29738D01*
G01X20924Y-29731D01*
G01X20909Y-29725D01*
G01X20894Y-29718D01*
G01X20878Y-29713D01*
G01X20862Y-29707D01*
G01X20847Y-29702D01*
G01X20831Y-29698D01*
G01X20814Y-29693D01*
G01X20798Y-29689D01*
G01X20782Y-29686D01*
G01X20766Y-29683D01*
G01X20749Y-29680D01*
G01X20733Y-29678D01*
G01X20716Y-29676D01*
G01X20700Y-29675D01*
G01X20683Y-29674D01*
G01X20667Y-29673D01*
G01X20650Y-29673D01*
G01X20633Y-29673D01*
G01X20617Y-29674D01*
G01X20600Y-29675D01*
G01X20584Y-29676D01*
G01X20567Y-29678D01*
G01X20551Y-29680D01*
G01X20534Y-29683D01*
G01X20518Y-29686D01*
G01X20502Y-29689D01*
G01X20486Y-29693D01*
G01X20469Y-29698D01*
G01X20453Y-29702D01*
G01X20438Y-29707D01*
G01X20422Y-29713D01*
G01X20406Y-29718D01*
G01X20391Y-29725D01*
G01X20376Y-29731D01*
G01X20361Y-29738D01*
G01X20346Y-29745D01*
G01X20331Y-29753D01*
G01X20316Y-29761D01*
G01X20302Y-29769D01*
G01X20288Y-29778D01*
G01X20274Y-29787D01*
G01X20260Y-29796D01*
G01X20247Y-29806D01*
G01X20233Y-29816D01*
G01X20221Y-29827D01*
G01X20208Y-29837D01*
G01X20195Y-29848D01*
G01X20183Y-29860D01*
G01X20171Y-29871D01*
G01X20160Y-29883D01*
G01X20148Y-29895D01*
G01X20137Y-29908D01*
G01X20127Y-29921D01*
G01X20116Y-29933D01*
G01X20106Y-29947D01*
G01X20096Y-29960D01*
G01X20087Y-29974D01*
G01X20078Y-29988D01*
G01X20069Y-30002D01*
G01X20061Y-30016D01*
G01X20053Y-30031D01*
G01X20045Y-30046D01*
G01X20038Y-30061D01*
G01X20031Y-30076D01*
G01X20025Y-30091D01*
G01X20018Y-30106D01*
G01X20013Y-30122D01*
G01X20007Y-30138D01*
G01X20002Y-30153D01*
G01X19998Y-30169D01*
G01X19993Y-30186D01*
G01X19989Y-30202D01*
G01X19986Y-30218D01*
G01X19983Y-30234D01*
G01X19980Y-30251D01*
G01X19978Y-30267D01*
G01X19976Y-30284D01*
G01X19975Y-30300D01*
G01X19974Y-30317D01*
G01X19973Y-30333D01*
G01X19973Y-30350D01*
G01X19973Y-30367D01*
G01X19974Y-30383D01*
G01X19975Y-30400D01*
G01X19976Y-30416D01*
G01X19978Y-30433D01*
G01X19980Y-30449D01*
G01X19983Y-30466D01*
G01X19986Y-30482D01*
G01X19989Y-30498D01*
G01X19993Y-30514D01*
G01X19998Y-30531D01*
G01X20002Y-30547D01*
G01X20007Y-30562D01*
G01X20013Y-30578D01*
G01X20018Y-30594D01*
G01X20025Y-30609D01*
G01X20031Y-30624D01*
G01X20038Y-30639D01*
G01X20045Y-30654D01*
G01X20053Y-30669D01*
G01X20061Y-30684D01*
G01X20069Y-30698D01*
G01X20078Y-30712D01*
G01X20087Y-30726D01*
G01X20096Y-30740D01*
G01X20106Y-30753D01*
G01X20116Y-30767D01*
G01X20127Y-30779D01*
G01X20137Y-30792D01*
G01X20148Y-30805D01*
G01X20160Y-30817D01*
G01X20171Y-30829D01*
G01X20183Y-30840D01*
G01X20195Y-30852D01*
G01X20208Y-30863D01*
G01X20221Y-30873D01*
G01X20233Y-30884D01*
G01X20247Y-30894D01*
G01X20260Y-30904D01*
G01X20274Y-30913D01*
G01X20288Y-30922D01*
G01X20302Y-30931D01*
G01X20316Y-30939D01*
G01X20331Y-30947D01*
G01X20346Y-30955D01*
G01X20361Y-30962D01*
G01X20376Y-30969D01*
G01X20391Y-30975D01*
G01X20406Y-30982D01*
G01X20422Y-30987D01*
G01X20438Y-30993D01*
G01X20453Y-30998D01*
G01X20469Y-31002D01*
G01X20486Y-31007D01*
G01X20502Y-31011D01*
G01X20518Y-31014D01*
G01X20534Y-31017D01*
G01X20551Y-31020D01*
G01X20567Y-31022D01*
G01X20584Y-31024D01*
G01X20600Y-31025D01*
G01X20617Y-31026D01*
G01X20633Y-31027D01*
G01X20650Y-31027D01*
G01X20667Y-31027D01*
G01X20683Y-31026D01*
G01X20700Y-31025D01*
G01X20716Y-31024D01*
G01X20733Y-31022D01*
G01X20749Y-31020D01*
G01X20766Y-31017D01*
G01X20782Y-31014D01*
G01X20798Y-31011D01*
G01X20814Y-31007D01*
G01X20831Y-31002D01*
G01X20847Y-30998D01*
G01X20862Y-30993D01*
G01X20878Y-30987D01*
G01X20894Y-30982D01*
G01X20909Y-30975D01*
G01X20924Y-30969D01*
G01X20939Y-30962D01*
G01X20954Y-30955D01*
G01X20969Y-30947D01*
G01X20984Y-30939D01*
G01X20998Y-30931D01*
G01X21012Y-30922D01*
G01X21026Y-30913D01*
G01X21040Y-30904D01*
G01X21053Y-30894D01*
G01X21067Y-30884D01*
G01X21079Y-30873D01*
G01X21092Y-30863D01*
G01X21105Y-30852D01*
G01X21117Y-30840D01*
G01X21129Y-30829D01*
G01X21140Y-30817D01*
G01X21152Y-30805D01*
G01X21163Y-30792D01*
G01X21173Y-30779D01*
G01X21184Y-30767D01*
G01X21194Y-30753D01*
G01X21204Y-30740D01*
G01X21213Y-30726D01*
G01X21222Y-30712D01*
G01X21231Y-30698D01*
G01X21239Y-30684D01*
G01X21247Y-30669D01*
G01X21255Y-30654D01*
G01X21262Y-30639D01*
G01X21269Y-30624D01*
G01X21275Y-30609D01*
G01X21282Y-30594D01*
G01X21287Y-30578D01*
G01X21293Y-30562D01*
G01X21298Y-30547D01*
G01X21302Y-30531D01*
G01X21307Y-30514D01*
G01X21311Y-30498D01*
G01X21314Y-30482D01*
G01X21317Y-30466D01*
G01X21320Y-30449D01*
G01X21322Y-30433D01*
G01X21324Y-30416D01*
G01X21325Y-30400D01*
G01X21326Y-30383D01*
G01X21327Y-30367D01*
G01X21327Y-30350D01*
D15*
G01X12966Y-31466D02*
G01X14934Y-31466D01*
D15*
G01X14934Y-31466D02*
G01X14934Y-33079D01*
D15*
G01X14934Y-33079D02*
G01X14934Y-33434D01*
D15*
G01X14934Y-33434D02*
G01X14579Y-33434D01*
D15*
G01X14579Y-33434D02*
G01X12966Y-33434D01*
D15*
G01X12966Y-33434D02*
G01X12966Y-31466D01*
D15*
G01X14934Y-33079D02*
G01X14579Y-33434D01*
D15*
G01X14579Y-33434D02*
G01X14461Y-33552D01*
D15*
G01X14461Y-33552D02*
G01X14619Y-33709D01*
D15*
G01X14619Y-33709D02*
G01X14934Y-33434D01*
D15*
G01X14627Y-32450D02*
G01X14627Y-32450D01*
G01X14627Y-32433D01*
G01X14626Y-32417D01*
G01X14625Y-32400D01*
G01X14624Y-32384D01*
G01X14622Y-32367D01*
G01X14620Y-32351D01*
G01X14617Y-32334D01*
G01X14614Y-32318D01*
G01X14611Y-32302D01*
G01X14607Y-32286D01*
G01X14602Y-32269D01*
G01X14598Y-32253D01*
G01X14593Y-32238D01*
G01X14587Y-32222D01*
G01X14582Y-32206D01*
G01X14575Y-32191D01*
G01X14569Y-32176D01*
G01X14562Y-32161D01*
G01X14555Y-32146D01*
G01X14547Y-32131D01*
G01X14539Y-32116D01*
G01X14531Y-32102D01*
G01X14522Y-32088D01*
G01X14513Y-32074D01*
G01X14504Y-32060D01*
G01X14494Y-32047D01*
G01X14484Y-32033D01*
G01X14473Y-32021D01*
G01X14463Y-32008D01*
G01X14452Y-31995D01*
G01X14440Y-31983D01*
G01X14429Y-31971D01*
G01X14417Y-31960D01*
G01X14405Y-31948D01*
G01X14392Y-31937D01*
G01X14379Y-31927D01*
G01X14367Y-31916D01*
G01X14353Y-31906D01*
G01X14340Y-31896D01*
G01X14326Y-31887D01*
G01X14312Y-31878D01*
G01X14298Y-31869D01*
G01X14284Y-31861D01*
G01X14269Y-31853D01*
G01X14254Y-31845D01*
G01X14239Y-31838D01*
G01X14224Y-31831D01*
G01X14209Y-31825D01*
G01X14194Y-31818D01*
G01X14178Y-31813D01*
G01X14162Y-31807D01*
G01X14147Y-31802D01*
G01X14131Y-31798D01*
G01X14114Y-31793D01*
G01X14098Y-31789D01*
G01X14082Y-31786D01*
G01X14066Y-31783D01*
G01X14049Y-31780D01*
G01X14033Y-31778D01*
G01X14016Y-31776D01*
G01X14000Y-31775D01*
G01X13983Y-31774D01*
G01X13967Y-31773D01*
G01X13950Y-31773D01*
G01X13933Y-31773D01*
G01X13917Y-31774D01*
G01X13900Y-31775D01*
G01X13884Y-31776D01*
G01X13867Y-31778D01*
G01X13851Y-31780D01*
G01X13834Y-31783D01*
G01X13818Y-31786D01*
G01X13802Y-31789D01*
G01X13786Y-31793D01*
G01X13769Y-31798D01*
G01X13753Y-31802D01*
G01X13738Y-31807D01*
G01X13722Y-31813D01*
G01X13706Y-31818D01*
G01X13691Y-31825D01*
G01X13676Y-31831D01*
G01X13661Y-31838D01*
G01X13646Y-31845D01*
G01X13631Y-31853D01*
G01X13616Y-31861D01*
G01X13602Y-31869D01*
G01X13588Y-31878D01*
G01X13574Y-31887D01*
G01X13560Y-31896D01*
G01X13547Y-31906D01*
G01X13533Y-31916D01*
G01X13521Y-31927D01*
G01X13508Y-31937D01*
G01X13495Y-31948D01*
G01X13483Y-31960D01*
G01X13471Y-31971D01*
G01X13460Y-31983D01*
G01X13448Y-31995D01*
G01X13437Y-32008D01*
G01X13427Y-32021D01*
G01X13416Y-32033D01*
G01X13406Y-32047D01*
G01X13396Y-32060D01*
G01X13387Y-32074D01*
G01X13378Y-32088D01*
G01X13369Y-32102D01*
G01X13361Y-32116D01*
G01X13353Y-32131D01*
G01X13345Y-32146D01*
G01X13338Y-32161D01*
G01X13331Y-32176D01*
G01X13325Y-32191D01*
G01X13318Y-32206D01*
G01X13313Y-32222D01*
G01X13307Y-32238D01*
G01X13302Y-32253D01*
G01X13298Y-32269D01*
G01X13293Y-32286D01*
G01X13289Y-32302D01*
G01X13286Y-32318D01*
G01X13283Y-32334D01*
G01X13280Y-32351D01*
G01X13278Y-32367D01*
G01X13276Y-32384D01*
G01X13275Y-32400D01*
G01X13274Y-32417D01*
G01X13273Y-32433D01*
G01X13273Y-32450D01*
G01X13273Y-32467D01*
G01X13274Y-32483D01*
G01X13275Y-32500D01*
G01X13276Y-32516D01*
G01X13278Y-32533D01*
G01X13280Y-32549D01*
G01X13283Y-32566D01*
G01X13286Y-32582D01*
G01X13289Y-32598D01*
G01X13293Y-32614D01*
G01X13298Y-32631D01*
G01X13302Y-32647D01*
G01X13307Y-32662D01*
G01X13313Y-32678D01*
G01X13318Y-32694D01*
G01X13325Y-32709D01*
G01X13331Y-32724D01*
G01X13338Y-32739D01*
G01X13345Y-32754D01*
G01X13353Y-32769D01*
G01X13361Y-32784D01*
G01X13369Y-32798D01*
G01X13378Y-32812D01*
G01X13387Y-32826D01*
G01X13396Y-32840D01*
G01X13406Y-32853D01*
G01X13416Y-32867D01*
G01X13427Y-32879D01*
G01X13437Y-32892D01*
G01X13448Y-32905D01*
G01X13460Y-32917D01*
G01X13471Y-32929D01*
G01X13483Y-32940D01*
G01X13495Y-32952D01*
G01X13508Y-32963D01*
G01X13521Y-32973D01*
G01X13533Y-32984D01*
G01X13547Y-32994D01*
G01X13560Y-33004D01*
G01X13574Y-33013D01*
G01X13588Y-33022D01*
G01X13602Y-33031D01*
G01X13616Y-33039D01*
G01X13631Y-33047D01*
G01X13646Y-33055D01*
G01X13661Y-33062D01*
G01X13676Y-33069D01*
G01X13691Y-33075D01*
G01X13706Y-33082D01*
G01X13722Y-33087D01*
G01X13738Y-33093D01*
G01X13753Y-33098D01*
G01X13769Y-33102D01*
G01X13786Y-33107D01*
G01X13802Y-33111D01*
G01X13818Y-33114D01*
G01X13834Y-33117D01*
G01X13851Y-33120D01*
G01X13867Y-33122D01*
G01X13884Y-33124D01*
G01X13900Y-33125D01*
G01X13917Y-33126D01*
G01X13933Y-33127D01*
G01X13950Y-33127D01*
G01X13967Y-33127D01*
G01X13983Y-33126D01*
G01X14000Y-33125D01*
G01X14016Y-33124D01*
G01X14033Y-33122D01*
G01X14049Y-33120D01*
G01X14066Y-33117D01*
G01X14082Y-33114D01*
G01X14098Y-33111D01*
G01X14114Y-33107D01*
G01X14131Y-33102D01*
G01X14147Y-33098D01*
G01X14162Y-33093D01*
G01X14178Y-33087D01*
G01X14194Y-33082D01*
G01X14209Y-33075D01*
G01X14224Y-33069D01*
G01X14239Y-33062D01*
G01X14254Y-33055D01*
G01X14269Y-33047D01*
G01X14284Y-33039D01*
G01X14298Y-33031D01*
G01X14312Y-33022D01*
G01X14326Y-33013D01*
G01X14340Y-33004D01*
G01X14353Y-32994D01*
G01X14367Y-32984D01*
G01X14379Y-32973D01*
G01X14392Y-32963D01*
G01X14405Y-32952D01*
G01X14417Y-32940D01*
G01X14429Y-32929D01*
G01X14440Y-32917D01*
G01X14452Y-32905D01*
G01X14463Y-32892D01*
G01X14473Y-32879D01*
G01X14484Y-32867D01*
G01X14494Y-32853D01*
G01X14504Y-32840D01*
G01X14513Y-32826D01*
G01X14522Y-32812D01*
G01X14531Y-32798D01*
G01X14539Y-32784D01*
G01X14547Y-32769D01*
G01X14555Y-32754D01*
G01X14562Y-32739D01*
G01X14569Y-32724D01*
G01X14575Y-32709D01*
G01X14582Y-32694D01*
G01X14587Y-32678D01*
G01X14593Y-32662D01*
G01X14598Y-32647D01*
G01X14602Y-32631D01*
G01X14607Y-32614D01*
G01X14611Y-32598D01*
G01X14614Y-32582D01*
G01X14617Y-32566D01*
G01X14620Y-32549D01*
G01X14622Y-32533D01*
G01X14624Y-32516D01*
G01X14625Y-32500D01*
G01X14626Y-32483D01*
G01X14627Y-32467D01*
G01X14627Y-32450D01*
D15*
G01X08066Y-28516D02*
G01X10034Y-28516D01*
D15*
G01X10034Y-28516D02*
G01X10034Y-30129D01*
D15*
G01X10034Y-30129D02*
G01X10034Y-30484D01*
D15*
G01X10034Y-30484D02*
G01X09679Y-30484D01*
D15*
G01X09679Y-30484D02*
G01X08066Y-30484D01*
D15*
G01X08066Y-30484D02*
G01X08066Y-28516D01*
D15*
G01X10034Y-30129D02*
G01X09679Y-30484D01*
D15*
G01X09679Y-30484D02*
G01X09561Y-30602D01*
D15*
G01X09561Y-30602D02*
G01X09719Y-30759D01*
D15*
G01X09719Y-30759D02*
G01X10034Y-30484D01*
D15*
G01X09727Y-29500D02*
G01X09727Y-29500D01*
G01X09727Y-29483D01*
G01X09726Y-29467D01*
G01X09725Y-29450D01*
G01X09724Y-29434D01*
G01X09722Y-29417D01*
G01X09720Y-29401D01*
G01X09717Y-29384D01*
G01X09714Y-29368D01*
G01X09711Y-29352D01*
G01X09707Y-29336D01*
G01X09702Y-29319D01*
G01X09698Y-29303D01*
G01X09693Y-29288D01*
G01X09687Y-29272D01*
G01X09682Y-29256D01*
G01X09675Y-29241D01*
G01X09669Y-29226D01*
G01X09662Y-29211D01*
G01X09655Y-29196D01*
G01X09647Y-29181D01*
G01X09639Y-29166D01*
G01X09631Y-29152D01*
G01X09622Y-29138D01*
G01X09613Y-29124D01*
G01X09604Y-29110D01*
G01X09594Y-29097D01*
G01X09584Y-29083D01*
G01X09573Y-29071D01*
G01X09563Y-29058D01*
G01X09552Y-29045D01*
G01X09540Y-29033D01*
G01X09529Y-29021D01*
G01X09517Y-29010D01*
G01X09505Y-28998D01*
G01X09492Y-28987D01*
G01X09479Y-28977D01*
G01X09467Y-28966D01*
G01X09453Y-28956D01*
G01X09440Y-28946D01*
G01X09426Y-28937D01*
G01X09412Y-28928D01*
G01X09398Y-28919D01*
G01X09384Y-28911D01*
G01X09369Y-28903D01*
G01X09354Y-28895D01*
G01X09339Y-28888D01*
G01X09324Y-28881D01*
G01X09309Y-28875D01*
G01X09294Y-28868D01*
G01X09278Y-28863D01*
G01X09262Y-28857D01*
G01X09247Y-28852D01*
G01X09231Y-28848D01*
G01X09214Y-28843D01*
G01X09198Y-28839D01*
G01X09182Y-28836D01*
G01X09166Y-28833D01*
G01X09149Y-28830D01*
G01X09133Y-28828D01*
G01X09116Y-28826D01*
G01X09100Y-28825D01*
G01X09083Y-28824D01*
G01X09067Y-28823D01*
G01X09050Y-28823D01*
G01X09033Y-28823D01*
G01X09017Y-28824D01*
G01X09000Y-28825D01*
G01X08984Y-28826D01*
G01X08967Y-28828D01*
G01X08951Y-28830D01*
G01X08934Y-28833D01*
G01X08918Y-28836D01*
G01X08902Y-28839D01*
G01X08886Y-28843D01*
G01X08869Y-28848D01*
G01X08853Y-28852D01*
G01X08838Y-28857D01*
G01X08822Y-28863D01*
G01X08806Y-28868D01*
G01X08791Y-28875D01*
G01X08776Y-28881D01*
G01X08761Y-28888D01*
G01X08746Y-28895D01*
G01X08731Y-28903D01*
G01X08716Y-28911D01*
G01X08702Y-28919D01*
G01X08688Y-28928D01*
G01X08674Y-28937D01*
G01X08660Y-28946D01*
G01X08647Y-28956D01*
G01X08633Y-28966D01*
G01X08621Y-28977D01*
G01X08608Y-28987D01*
G01X08595Y-28998D01*
G01X08583Y-29010D01*
G01X08571Y-29021D01*
G01X08560Y-29033D01*
G01X08548Y-29045D01*
G01X08537Y-29058D01*
G01X08527Y-29071D01*
G01X08516Y-29083D01*
G01X08506Y-29097D01*
G01X08496Y-29110D01*
G01X08487Y-29124D01*
G01X08478Y-29138D01*
G01X08469Y-29152D01*
G01X08461Y-29166D01*
G01X08453Y-29181D01*
G01X08445Y-29196D01*
G01X08438Y-29211D01*
G01X08431Y-29226D01*
G01X08425Y-29241D01*
G01X08418Y-29256D01*
G01X08413Y-29272D01*
G01X08407Y-29288D01*
G01X08402Y-29303D01*
G01X08398Y-29319D01*
G01X08393Y-29336D01*
G01X08389Y-29352D01*
G01X08386Y-29368D01*
G01X08383Y-29384D01*
G01X08380Y-29401D01*
G01X08378Y-29417D01*
G01X08376Y-29434D01*
G01X08375Y-29450D01*
G01X08374Y-29467D01*
G01X08373Y-29483D01*
G01X08373Y-29500D01*
G01X08373Y-29517D01*
G01X08374Y-29533D01*
G01X08375Y-29550D01*
G01X08376Y-29566D01*
G01X08378Y-29583D01*
G01X08380Y-29599D01*
G01X08383Y-29616D01*
G01X08386Y-29632D01*
G01X08389Y-29648D01*
G01X08393Y-29664D01*
G01X08398Y-29681D01*
G01X08402Y-29697D01*
G01X08407Y-29712D01*
G01X08413Y-29728D01*
G01X08418Y-29744D01*
G01X08425Y-29759D01*
G01X08431Y-29774D01*
G01X08438Y-29789D01*
G01X08445Y-29804D01*
G01X08453Y-29819D01*
G01X08461Y-29834D01*
G01X08469Y-29848D01*
G01X08478Y-29862D01*
G01X08487Y-29876D01*
G01X08496Y-29890D01*
G01X08506Y-29903D01*
G01X08516Y-29917D01*
G01X08527Y-29929D01*
G01X08537Y-29942D01*
G01X08548Y-29955D01*
G01X08560Y-29967D01*
G01X08571Y-29979D01*
G01X08583Y-29990D01*
G01X08595Y-30002D01*
G01X08608Y-30013D01*
G01X08621Y-30023D01*
G01X08633Y-30034D01*
G01X08647Y-30044D01*
G01X08660Y-30054D01*
G01X08674Y-30063D01*
G01X08688Y-30072D01*
G01X08702Y-30081D01*
G01X08716Y-30089D01*
G01X08731Y-30097D01*
G01X08746Y-30105D01*
G01X08761Y-30112D01*
G01X08776Y-30119D01*
G01X08791Y-30125D01*
G01X08806Y-30132D01*
G01X08822Y-30137D01*
G01X08838Y-30143D01*
G01X08853Y-30148D01*
G01X08869Y-30152D01*
G01X08886Y-30157D01*
G01X08902Y-30161D01*
G01X08918Y-30164D01*
G01X08934Y-30167D01*
G01X08951Y-30170D01*
G01X08967Y-30172D01*
G01X08984Y-30174D01*
G01X09000Y-30175D01*
G01X09017Y-30176D01*
G01X09033Y-30177D01*
G01X09050Y-30177D01*
G01X09067Y-30177D01*
G01X09083Y-30176D01*
G01X09100Y-30175D01*
G01X09116Y-30174D01*
G01X09133Y-30172D01*
G01X09149Y-30170D01*
G01X09166Y-30167D01*
G01X09182Y-30164D01*
G01X09198Y-30161D01*
G01X09214Y-30157D01*
G01X09231Y-30152D01*
G01X09247Y-30148D01*
G01X09262Y-30143D01*
G01X09278Y-30137D01*
G01X09294Y-30132D01*
G01X09309Y-30125D01*
G01X09324Y-30119D01*
G01X09339Y-30112D01*
G01X09354Y-30105D01*
G01X09369Y-30097D01*
G01X09384Y-30089D01*
G01X09398Y-30081D01*
G01X09412Y-30072D01*
G01X09426Y-30063D01*
G01X09440Y-30054D01*
G01X09453Y-30044D01*
G01X09467Y-30034D01*
G01X09479Y-30023D01*
G01X09492Y-30013D01*
G01X09505Y-30002D01*
G01X09517Y-29990D01*
G01X09529Y-29979D01*
G01X09540Y-29967D01*
G01X09552Y-29955D01*
G01X09563Y-29942D01*
G01X09573Y-29929D01*
G01X09584Y-29917D01*
G01X09594Y-29903D01*
G01X09604Y-29890D01*
G01X09613Y-29876D01*
G01X09622Y-29862D01*
G01X09631Y-29848D01*
G01X09639Y-29834D01*
G01X09647Y-29819D01*
G01X09655Y-29804D01*
G01X09662Y-29789D01*
G01X09669Y-29774D01*
G01X09675Y-29759D01*
G01X09682Y-29744D01*
G01X09687Y-29728D01*
G01X09693Y-29712D01*
G01X09698Y-29697D01*
G01X09702Y-29681D01*
G01X09707Y-29664D01*
G01X09711Y-29648D01*
G01X09714Y-29632D01*
G01X09717Y-29616D01*
G01X09720Y-29599D01*
G01X09722Y-29583D01*
G01X09724Y-29566D01*
G01X09725Y-29550D01*
G01X09726Y-29533D01*
G01X09727Y-29517D01*
G01X09727Y-29500D01*
D15*
G01X19984Y-06934D02*
G01X18016Y-06934D01*
D15*
G01X18016Y-06934D02*
G01X18016Y-05321D01*
D15*
G01X18016Y-05321D02*
G01X18016Y-04966D01*
D15*
G01X18016Y-04966D02*
G01X18371Y-04966D01*
D15*
G01X18371Y-04966D02*
G01X19984Y-04966D01*
D15*
G01X19984Y-04966D02*
G01X19984Y-06934D01*
D15*
G01X18016Y-05321D02*
G01X18371Y-04966D01*
D15*
G01X18371Y-04966D02*
G01X18489Y-04848D01*
D15*
G01X18489Y-04848D02*
G01X18331Y-04691D01*
D15*
G01X18331Y-04691D02*
G01X18016Y-04966D01*
D15*
G01X19677Y-05950D02*
G01X19677Y-05950D01*
G01X19677Y-05933D01*
G01X19676Y-05917D01*
G01X19675Y-05900D01*
G01X19674Y-05884D01*
G01X19672Y-05867D01*
G01X19670Y-05851D01*
G01X19667Y-05834D01*
G01X19664Y-05818D01*
G01X19661Y-05802D01*
G01X19657Y-05786D01*
G01X19652Y-05769D01*
G01X19648Y-05753D01*
G01X19643Y-05738D01*
G01X19637Y-05722D01*
G01X19632Y-05706D01*
G01X19625Y-05691D01*
G01X19619Y-05676D01*
G01X19612Y-05661D01*
G01X19605Y-05646D01*
G01X19597Y-05631D01*
G01X19589Y-05616D01*
G01X19581Y-05602D01*
G01X19572Y-05588D01*
G01X19563Y-05574D01*
G01X19554Y-05560D01*
G01X19544Y-05547D01*
G01X19534Y-05533D01*
G01X19523Y-05521D01*
G01X19513Y-05508D01*
G01X19502Y-05495D01*
G01X19490Y-05483D01*
G01X19479Y-05471D01*
G01X19467Y-05460D01*
G01X19455Y-05448D01*
G01X19442Y-05437D01*
G01X19429Y-05427D01*
G01X19417Y-05416D01*
G01X19403Y-05406D01*
G01X19390Y-05396D01*
G01X19376Y-05387D01*
G01X19362Y-05378D01*
G01X19348Y-05369D01*
G01X19334Y-05361D01*
G01X19319Y-05353D01*
G01X19304Y-05345D01*
G01X19289Y-05338D01*
G01X19274Y-05331D01*
G01X19259Y-05325D01*
G01X19244Y-05318D01*
G01X19228Y-05313D01*
G01X19212Y-05307D01*
G01X19197Y-05302D01*
G01X19181Y-05298D01*
G01X19164Y-05293D01*
G01X19148Y-05289D01*
G01X19132Y-05286D01*
G01X19116Y-05283D01*
G01X19099Y-05280D01*
G01X19083Y-05278D01*
G01X19066Y-05276D01*
G01X19050Y-05275D01*
G01X19033Y-05274D01*
G01X19017Y-05273D01*
G01X19000Y-05273D01*
G01X18983Y-05273D01*
G01X18967Y-05274D01*
G01X18950Y-05275D01*
G01X18934Y-05276D01*
G01X18917Y-05278D01*
G01X18901Y-05280D01*
G01X18884Y-05283D01*
G01X18868Y-05286D01*
G01X18852Y-05289D01*
G01X18836Y-05293D01*
G01X18819Y-05298D01*
G01X18803Y-05302D01*
G01X18788Y-05307D01*
G01X18772Y-05313D01*
G01X18756Y-05318D01*
G01X18741Y-05325D01*
G01X18726Y-05331D01*
G01X18711Y-05338D01*
G01X18696Y-05345D01*
G01X18681Y-05353D01*
G01X18666Y-05361D01*
G01X18652Y-05369D01*
G01X18638Y-05378D01*
G01X18624Y-05387D01*
G01X18610Y-05396D01*
G01X18597Y-05406D01*
G01X18583Y-05416D01*
G01X18571Y-05427D01*
G01X18558Y-05437D01*
G01X18545Y-05448D01*
G01X18533Y-05460D01*
G01X18521Y-05471D01*
G01X18510Y-05483D01*
G01X18498Y-05495D01*
G01X18487Y-05508D01*
G01X18477Y-05521D01*
G01X18466Y-05533D01*
G01X18456Y-05547D01*
G01X18446Y-05560D01*
G01X18437Y-05574D01*
G01X18428Y-05588D01*
G01X18419Y-05602D01*
G01X18411Y-05616D01*
G01X18403Y-05631D01*
G01X18395Y-05646D01*
G01X18388Y-05661D01*
G01X18381Y-05676D01*
G01X18375Y-05691D01*
G01X18368Y-05706D01*
G01X18363Y-05722D01*
G01X18357Y-05738D01*
G01X18352Y-05753D01*
G01X18348Y-05769D01*
G01X18343Y-05786D01*
G01X18339Y-05802D01*
G01X18336Y-05818D01*
G01X18333Y-05834D01*
G01X18330Y-05851D01*
G01X18328Y-05867D01*
G01X18326Y-05884D01*
G01X18325Y-05900D01*
G01X18324Y-05917D01*
G01X18323Y-05933D01*
G01X18323Y-05950D01*
G01X18323Y-05967D01*
G01X18324Y-05983D01*
G01X18325Y-06000D01*
G01X18326Y-06016D01*
G01X18328Y-06033D01*
G01X18330Y-06049D01*
G01X18333Y-06066D01*
G01X18336Y-06082D01*
G01X18339Y-06098D01*
G01X18343Y-06114D01*
G01X18348Y-06131D01*
G01X18352Y-06147D01*
G01X18357Y-06162D01*
G01X18363Y-06178D01*
G01X18368Y-06194D01*
G01X18375Y-06209D01*
G01X18381Y-06224D01*
G01X18388Y-06239D01*
G01X18395Y-06254D01*
G01X18403Y-06269D01*
G01X18411Y-06284D01*
G01X18419Y-06298D01*
G01X18428Y-06312D01*
G01X18437Y-06326D01*
G01X18446Y-06340D01*
G01X18456Y-06353D01*
G01X18466Y-06367D01*
G01X18477Y-06379D01*
G01X18487Y-06392D01*
G01X18498Y-06405D01*
G01X18510Y-06417D01*
G01X18521Y-06429D01*
G01X18533Y-06440D01*
G01X18545Y-06452D01*
G01X18558Y-06463D01*
G01X18571Y-06473D01*
G01X18583Y-06484D01*
G01X18597Y-06494D01*
G01X18610Y-06504D01*
G01X18624Y-06513D01*
G01X18638Y-06522D01*
G01X18652Y-06531D01*
G01X18666Y-06539D01*
G01X18681Y-06547D01*
G01X18696Y-06555D01*
G01X18711Y-06562D01*
G01X18726Y-06569D01*
G01X18741Y-06575D01*
G01X18756Y-06582D01*
G01X18772Y-06587D01*
G01X18788Y-06593D01*
G01X18803Y-06598D01*
G01X18819Y-06602D01*
G01X18836Y-06607D01*
G01X18852Y-06611D01*
G01X18868Y-06614D01*
G01X18884Y-06617D01*
G01X18901Y-06620D01*
G01X18917Y-06622D01*
G01X18934Y-06624D01*
G01X18950Y-06625D01*
G01X18967Y-06626D01*
G01X18983Y-06627D01*
G01X19000Y-06627D01*
G01X19017Y-06627D01*
G01X19033Y-06626D01*
G01X19050Y-06625D01*
G01X19066Y-06624D01*
G01X19083Y-06622D01*
G01X19099Y-06620D01*
G01X19116Y-06617D01*
G01X19132Y-06614D01*
G01X19148Y-06611D01*
G01X19164Y-06607D01*
G01X19181Y-06602D01*
G01X19197Y-06598D01*
G01X19212Y-06593D01*
G01X19228Y-06587D01*
G01X19244Y-06582D01*
G01X19259Y-06575D01*
G01X19274Y-06569D01*
G01X19289Y-06562D01*
G01X19304Y-06555D01*
G01X19319Y-06547D01*
G01X19334Y-06539D01*
G01X19348Y-06531D01*
G01X19362Y-06522D01*
G01X19376Y-06513D01*
G01X19390Y-06504D01*
G01X19403Y-06494D01*
G01X19417Y-06484D01*
G01X19429Y-06473D01*
G01X19442Y-06463D01*
G01X19455Y-06452D01*
G01X19467Y-06440D01*
G01X19479Y-06429D01*
G01X19490Y-06417D01*
G01X19502Y-06405D01*
G01X19513Y-06392D01*
G01X19523Y-06379D01*
G01X19534Y-06367D01*
G01X19544Y-06353D01*
G01X19554Y-06340D01*
G01X19563Y-06326D01*
G01X19572Y-06312D01*
G01X19581Y-06298D01*
G01X19589Y-06284D01*
G01X19597Y-06269D01*
G01X19605Y-06254D01*
G01X19612Y-06239D01*
G01X19619Y-06224D01*
G01X19625Y-06209D01*
G01X19632Y-06194D01*
G01X19637Y-06178D01*
G01X19643Y-06162D01*
G01X19648Y-06147D01*
G01X19652Y-06131D01*
G01X19657Y-06114D01*
G01X19661Y-06098D01*
G01X19664Y-06082D01*
G01X19667Y-06066D01*
G01X19670Y-06049D01*
G01X19672Y-06033D01*
G01X19674Y-06016D01*
G01X19675Y-06000D01*
G01X19676Y-05983D01*
G01X19677Y-05967D01*
G01X19677Y-05950D01*
D12*
G01X-01000Y04000D02*
G01X-01000Y04000D01*
D12*
G01X-01000Y04000D02*
G01X-01000Y04000D01*
G01X-01000Y04000D01*
G01X-01000Y04000D01*
G01X-01000Y04000D01*
G01X-01000Y04000D01*
G01X-01000Y04000D01*
D12*
G01X-01000Y04000D02*
G01X-01000Y04000D01*
G01X-01000Y04000D01*
G01X-01000Y04000D01*
G01X-01000Y04000D01*
G01X-01000Y04000D01*
G01X-01000Y04000D01*
G01X-01000Y04000D01*
G01X-01000Y04000D01*
G01X-01000Y04000D01*
G01X-01000Y04000D01*
G01X-01000Y04000D01*
G01X-01000Y04000D01*
G01X-01000Y04000D01*
G01X-01000Y04000D01*
G01X-01000Y04000D01*
G01X-01000Y04000D01*
D12*
G01X-01000Y04000D02*
G01X-01000Y04000D01*
G01X-01000Y04000D01*
G01X-01000Y04000D01*
D12*
G01X-01000Y04000D02*
G01X-01000Y04000D01*
G01X-01000Y04000D01*
G01X-01000Y04000D01*
G01X-01000Y04000D01*
G01X-01000Y04000D01*
G01X-01000Y04000D01*
G01X-01000Y04000D01*
G01X-01000Y04000D01*
G01X-01000Y04000D01*
G01X-01000Y04000D01*
G01X-01000Y04000D01*
G01X-01000Y04000D01*
D20*
G01X28962Y-43475D02*
G01X28964Y-43474D01*
G01X28966Y-43473D01*
G01X28969Y-43472D01*
G01X28971Y-43471D01*
G01X28973Y-43470D01*
G01X28975Y-43469D01*
G01X28978Y-43468D01*
G01X28980Y-43467D01*
G01X28982Y-43466D01*
G01X28984Y-43465D01*
G01X28987Y-43464D01*
G01X28989Y-43463D01*
G01X28991Y-43462D01*
G01X28993Y-43461D01*
G01X28995Y-43460D01*
G01X28998Y-43459D01*
G01X29000Y-43458D01*
G01X29002Y-43457D01*
G01X29004Y-43456D01*
G01X29006Y-43455D01*
G01X29009Y-43454D01*
G01X29011Y-43453D01*
G01X29013Y-43452D01*
G01X29015Y-43451D01*
G01X29017Y-43450D01*
G01X29019Y-43449D01*
G01X29022Y-43448D01*
G01X29024Y-43447D01*
G01X29026Y-43446D01*
G01X29028Y-43445D01*
G01X29030Y-43444D01*
G01X29032Y-43442D01*
G01X29035Y-43441D01*
G01X29037Y-43440D01*
G01X29039Y-43439D01*
G01X29041Y-43438D01*
G01X29043Y-43437D01*
G01X29045Y-43436D01*
G01X29048Y-43435D01*
G01X29050Y-43433D01*
G01X29052Y-43432D01*
G01X29054Y-43431D01*
G01X29056Y-43430D01*
G01X29058Y-43429D01*
G01X29060Y-43428D01*
G01X29062Y-43426D01*
G01X29065Y-43425D01*
G01X29067Y-43424D01*
G01X29069Y-43423D01*
G01X29071Y-43422D01*
G01X29073Y-43420D01*
G01X29075Y-43419D01*
G01X29077Y-43418D01*
G01X29079Y-43417D01*
G01X29081Y-43415D01*
G01X29083Y-43414D01*
G01X29086Y-43413D01*
G01X29088Y-43412D01*
G01X29090Y-43410D01*
G01X29092Y-43409D01*
G01X29094Y-43408D01*
G01X29096Y-43407D01*
G01X29098Y-43405D01*
G01X29100Y-43404D01*
D20*
G01X29102Y-43403D02*
G01X29448Y-43685D01*
D20*
G01X29448Y-43685D02*
G01X29685Y-43448D01*
D20*
G01X29685Y-43448D02*
G01X29403Y-43102D01*
D20*
G01X29403Y-43102D02*
G01X29406Y-43098D01*
G01X29408Y-43094D01*
G01X29411Y-43090D01*
G01X29413Y-43085D01*
G01X29416Y-43081D01*
G01X29418Y-43077D01*
G01X29421Y-43073D01*
G01X29423Y-43068D01*
G01X29425Y-43064D01*
G01X29428Y-43060D01*
G01X29430Y-43056D01*
G01X29432Y-43051D01*
G01X29435Y-43047D01*
G01X29437Y-43043D01*
G01X29439Y-43038D01*
G01X29442Y-43034D01*
G01X29444Y-43030D01*
G01X29446Y-43025D01*
G01X29448Y-43021D01*
G01X29450Y-43017D01*
G01X29453Y-43012D01*
G01X29455Y-43008D01*
G01X29457Y-43004D01*
G01X29459Y-42999D01*
G01X29461Y-42995D01*
G01X29463Y-42990D01*
G01X29465Y-42986D01*
G01X29467Y-42981D01*
G01X29469Y-42977D01*
G01X29471Y-42972D01*
G01X29473Y-42968D01*
G01X29475Y-42963D01*
G01X29476Y-42959D01*
G01X29478Y-42954D01*
G01X29480Y-42950D01*
G01X29482Y-42945D01*
G01X29484Y-42941D01*
G01X29485Y-42936D01*
G01X29487Y-42932D01*
G01X29489Y-42927D01*
G01X29490Y-42922D01*
G01X29492Y-42918D01*
G01X29494Y-42913D01*
G01X29495Y-42909D01*
G01X29497Y-42904D01*
G01X29498Y-42899D01*
G01X29500Y-42895D01*
G01X29501Y-42890D01*
G01X29503Y-42885D01*
G01X29504Y-42881D01*
G01X29506Y-42876D01*
G01X29507Y-42871D01*
G01X29509Y-42867D01*
G01X29510Y-42862D01*
G01X29511Y-42857D01*
G01X29513Y-42853D01*
G01X29514Y-42848D01*
G01X29515Y-42843D01*
G01X29516Y-42839D01*
G01X29518Y-42834D01*
G01X29519Y-42829D01*
G01X29520Y-42824D01*
G01X29521Y-42820D01*
G01X29522Y-42815D01*
D20*
G01X29523Y-42813D02*
G01X29967Y-42767D01*
D20*
G01X29967Y-42767D02*
G01X29967Y-42433D01*
D20*
G01X29967Y-42433D02*
G01X29523Y-42387D01*
D20*
G01X29523Y-42387D02*
G01X29522Y-42382D01*
G01X29521Y-42377D01*
G01X29520Y-42373D01*
G01X29518Y-42368D01*
G01X29517Y-42363D01*
G01X29516Y-42359D01*
G01X29515Y-42354D01*
G01X29513Y-42349D01*
G01X29512Y-42344D01*
G01X29511Y-42340D01*
G01X29509Y-42335D01*
G01X29508Y-42330D01*
G01X29507Y-42326D01*
G01X29505Y-42321D01*
G01X29504Y-42316D01*
G01X29502Y-42312D01*
G01X29501Y-42307D01*
G01X29499Y-42302D01*
G01X29498Y-42298D01*
G01X29496Y-42293D01*
G01X29495Y-42289D01*
G01X29493Y-42284D01*
G01X29491Y-42279D01*
G01X29490Y-42275D01*
G01X29488Y-42270D01*
G01X29486Y-42266D01*
G01X29485Y-42261D01*
G01X29483Y-42256D01*
G01X29481Y-42252D01*
G01X29479Y-42247D01*
G01X29477Y-42243D01*
G01X29476Y-42238D01*
G01X29474Y-42234D01*
G01X29472Y-42229D01*
G01X29470Y-42225D01*
G01X29468Y-42220D01*
G01X29466Y-42216D01*
G01X29464Y-42211D01*
G01X29462Y-42207D01*
G01X29460Y-42203D01*
G01X29458Y-42198D01*
G01X29456Y-42194D01*
G01X29454Y-42189D01*
G01X29451Y-42185D01*
G01X29449Y-42181D01*
G01X29447Y-42176D01*
G01X29445Y-42172D01*
G01X29443Y-42167D01*
G01X29440Y-42163D01*
G01X29438Y-42159D01*
G01X29436Y-42154D01*
G01X29434Y-42150D01*
G01X29431Y-42146D01*
G01X29429Y-42142D01*
G01X29427Y-42137D01*
G01X29424Y-42133D01*
G01X29422Y-42129D01*
G01X29419Y-42125D01*
G01X29417Y-42120D01*
G01X29414Y-42116D01*
G01X29412Y-42112D01*
G01X29409Y-42108D01*
G01X29407Y-42104D01*
G01X29404Y-42100D01*
D20*
G01X29403Y-42098D02*
G01X29685Y-41752D01*
D20*
G01X29685Y-41752D02*
G01X29448Y-41515D01*
D20*
G01X29448Y-41515D02*
G01X29102Y-41797D01*
D20*
G01X29102Y-41797D02*
G01X29098Y-41794D01*
G01X29094Y-41792D01*
G01X29090Y-41789D01*
G01X29085Y-41787D01*
G01X29081Y-41784D01*
G01X29077Y-41782D01*
G01X29073Y-41779D01*
G01X29068Y-41777D01*
G01X29064Y-41775D01*
G01X29060Y-41772D01*
G01X29056Y-41770D01*
G01X29051Y-41768D01*
G01X29047Y-41765D01*
G01X29043Y-41763D01*
G01X29038Y-41761D01*
G01X29034Y-41758D01*
G01X29030Y-41756D01*
G01X29025Y-41754D01*
G01X29021Y-41752D01*
G01X29017Y-41750D01*
G01X29012Y-41747D01*
G01X29008Y-41745D01*
G01X29004Y-41743D01*
G01X28999Y-41741D01*
G01X28995Y-41739D01*
G01X28990Y-41737D01*
G01X28986Y-41735D01*
G01X28981Y-41733D01*
G01X28977Y-41731D01*
G01X28972Y-41729D01*
G01X28968Y-41727D01*
G01X28963Y-41725D01*
G01X28959Y-41724D01*
G01X28954Y-41722D01*
G01X28950Y-41720D01*
G01X28945Y-41718D01*
G01X28941Y-41716D01*
G01X28936Y-41715D01*
G01X28932Y-41713D01*
G01X28927Y-41711D01*
G01X28922Y-41710D01*
G01X28918Y-41708D01*
G01X28913Y-41706D01*
G01X28909Y-41705D01*
G01X28904Y-41703D01*
G01X28899Y-41702D01*
G01X28895Y-41700D01*
G01X28890Y-41699D01*
G01X28885Y-41697D01*
G01X28881Y-41696D01*
G01X28876Y-41694D01*
G01X28871Y-41693D01*
G01X28867Y-41691D01*
G01X28862Y-41690D01*
G01X28857Y-41689D01*
G01X28853Y-41687D01*
G01X28848Y-41686D01*
G01X28843Y-41685D01*
G01X28839Y-41684D01*
G01X28834Y-41682D01*
G01X28829Y-41681D01*
G01X28824Y-41680D01*
G01X28820Y-41679D01*
G01X28815Y-41678D01*
D20*
G01X28813Y-41677D02*
G01X28767Y-41233D01*
D20*
G01X28767Y-41233D02*
G01X28433Y-41233D01*
D20*
G01X28433Y-41233D02*
G01X28387Y-41677D01*
D20*
G01X28387Y-41677D02*
G01X28382Y-41678D01*
G01X28377Y-41679D01*
G01X28373Y-41680D01*
G01X28368Y-41682D01*
G01X28363Y-41683D01*
G01X28359Y-41684D01*
G01X28354Y-41685D01*
G01X28349Y-41687D01*
G01X28344Y-41688D01*
G01X28340Y-41689D01*
G01X28335Y-41691D01*
G01X28330Y-41692D01*
G01X28326Y-41693D01*
G01X28321Y-41695D01*
G01X28316Y-41696D01*
G01X28312Y-41698D01*
G01X28307Y-41699D01*
G01X28302Y-41701D01*
G01X28298Y-41702D01*
G01X28293Y-41704D01*
G01X28289Y-41705D01*
G01X28284Y-41707D01*
G01X28279Y-41709D01*
G01X28275Y-41710D01*
G01X28270Y-41712D01*
G01X28266Y-41714D01*
G01X28261Y-41715D01*
G01X28256Y-41717D01*
G01X28252Y-41719D01*
G01X28247Y-41721D01*
G01X28243Y-41723D01*
G01X28238Y-41724D01*
G01X28234Y-41726D01*
G01X28229Y-41728D01*
G01X28225Y-41730D01*
G01X28220Y-41732D01*
G01X28216Y-41734D01*
G01X28211Y-41736D01*
G01X28207Y-41738D01*
G01X28203Y-41740D01*
G01X28198Y-41742D01*
G01X28194Y-41744D01*
G01X28189Y-41746D01*
G01X28185Y-41749D01*
G01X28181Y-41751D01*
G01X28176Y-41753D01*
G01X28172Y-41755D01*
G01X28167Y-41757D01*
G01X28163Y-41760D01*
G01X28159Y-41762D01*
G01X28154Y-41764D01*
G01X28150Y-41766D01*
G01X28146Y-41769D01*
G01X28142Y-41771D01*
G01X28137Y-41773D01*
G01X28133Y-41776D01*
G01X28129Y-41778D01*
G01X28125Y-41781D01*
G01X28120Y-41783D01*
G01X28116Y-41786D01*
G01X28112Y-41788D01*
G01X28108Y-41791D01*
G01X28104Y-41793D01*
G01X28100Y-41796D01*
D20*
G01X28098Y-41797D02*
G01X27752Y-41515D01*
D20*
G01X27752Y-41515D02*
G01X27515Y-41752D01*
D20*
G01X27515Y-41752D02*
G01X27797Y-42098D01*
D20*
G01X27797Y-42098D02*
G01X27794Y-42102D01*
G01X27792Y-42106D01*
G01X27789Y-42110D01*
G01X27787Y-42115D01*
G01X27784Y-42119D01*
G01X27782Y-42123D01*
G01X27779Y-42127D01*
G01X27777Y-42132D01*
G01X27775Y-42136D01*
G01X27772Y-42140D01*
G01X27770Y-42144D01*
G01X27768Y-42149D01*
G01X27765Y-42153D01*
G01X27763Y-42157D01*
G01X27761Y-42162D01*
G01X27758Y-42166D01*
G01X27756Y-42170D01*
G01X27754Y-42175D01*
G01X27752Y-42179D01*
G01X27750Y-42183D01*
G01X27747Y-42188D01*
G01X27745Y-42192D01*
G01X27743Y-42196D01*
G01X27741Y-42201D01*
G01X27739Y-42205D01*
G01X27737Y-42210D01*
G01X27735Y-42214D01*
G01X27733Y-42219D01*
G01X27731Y-42223D01*
G01X27729Y-42228D01*
G01X27727Y-42232D01*
G01X27725Y-42237D01*
G01X27724Y-42241D01*
G01X27722Y-42246D01*
G01X27720Y-42250D01*
G01X27718Y-42255D01*
G01X27716Y-42259D01*
G01X27715Y-42264D01*
G01X27713Y-42268D01*
G01X27711Y-42273D01*
G01X27710Y-42278D01*
G01X27708Y-42282D01*
G01X27706Y-42287D01*
G01X27705Y-42291D01*
G01X27703Y-42296D01*
G01X27702Y-42301D01*
G01X27700Y-42305D01*
G01X27699Y-42310D01*
G01X27697Y-42315D01*
G01X27696Y-42319D01*
G01X27694Y-42324D01*
G01X27693Y-42329D01*
G01X27691Y-42333D01*
G01X27690Y-42338D01*
G01X27689Y-42343D01*
G01X27687Y-42347D01*
G01X27686Y-42352D01*
G01X27685Y-42357D01*
G01X27684Y-42361D01*
G01X27682Y-42366D01*
G01X27681Y-42371D01*
G01X27680Y-42376D01*
G01X27679Y-42380D01*
G01X27678Y-42385D01*
D20*
G01X27677Y-42387D02*
G01X27233Y-42433D01*
D20*
G01X27233Y-42433D02*
G01X27233Y-42767D01*
D20*
G01X27233Y-42767D02*
G01X27677Y-42813D01*
D20*
G01X27677Y-42813D02*
G01X27678Y-42818D01*
G01X27679Y-42823D01*
G01X27680Y-42827D01*
G01X27682Y-42832D01*
G01X27683Y-42837D01*
G01X27684Y-42841D01*
G01X27685Y-42846D01*
G01X27687Y-42851D01*
G01X27688Y-42856D01*
G01X27689Y-42860D01*
G01X27691Y-42865D01*
G01X27692Y-42870D01*
G01X27693Y-42874D01*
G01X27695Y-42879D01*
G01X27696Y-42884D01*
G01X27698Y-42888D01*
G01X27699Y-42893D01*
G01X27701Y-42898D01*
G01X27702Y-42902D01*
G01X27704Y-42907D01*
G01X27705Y-42911D01*
G01X27707Y-42916D01*
G01X27709Y-42921D01*
G01X27710Y-42925D01*
G01X27712Y-42930D01*
G01X27714Y-42934D01*
G01X27715Y-42939D01*
G01X27717Y-42944D01*
G01X27719Y-42948D01*
G01X27721Y-42953D01*
G01X27723Y-42957D01*
G01X27724Y-42962D01*
G01X27726Y-42966D01*
G01X27728Y-42971D01*
G01X27730Y-42975D01*
G01X27732Y-42980D01*
G01X27734Y-42984D01*
G01X27736Y-42989D01*
G01X27738Y-42993D01*
G01X27740Y-42997D01*
G01X27742Y-43002D01*
G01X27744Y-43006D01*
G01X27746Y-43011D01*
G01X27749Y-43015D01*
G01X27751Y-43019D01*
G01X27753Y-43024D01*
G01X27755Y-43028D01*
G01X27757Y-43033D01*
G01X27760Y-43037D01*
G01X27762Y-43041D01*
G01X27764Y-43046D01*
G01X27766Y-43050D01*
G01X27769Y-43054D01*
G01X27771Y-43058D01*
G01X27773Y-43063D01*
G01X27776Y-43067D01*
G01X27778Y-43071D01*
G01X27781Y-43075D01*
G01X27783Y-43080D01*
G01X27786Y-43084D01*
G01X27788Y-43088D01*
G01X27791Y-43092D01*
G01X27793Y-43096D01*
G01X27796Y-43100D01*
D20*
G01X27797Y-43102D02*
G01X27515Y-43448D01*
D20*
G01X27515Y-43448D02*
G01X27752Y-43685D01*
D20*
G01X27752Y-43685D02*
G01X28098Y-43403D01*
D20*
G01X28098Y-43403D02*
G01X28100Y-43404D01*
G01X28102Y-43406D01*
G01X28104Y-43407D01*
G01X28106Y-43408D01*
G01X28108Y-43409D01*
G01X28110Y-43411D01*
G01X28112Y-43412D01*
G01X28115Y-43413D01*
G01X28117Y-43414D01*
G01X28119Y-43416D01*
G01X28121Y-43417D01*
G01X28123Y-43418D01*
G01X28125Y-43419D01*
G01X28127Y-43420D01*
G01X28129Y-43422D01*
G01X28131Y-43423D01*
G01X28133Y-43424D01*
G01X28136Y-43425D01*
G01X28138Y-43426D01*
G01X28140Y-43428D01*
G01X28142Y-43429D01*
G01X28144Y-43430D01*
G01X28146Y-43431D01*
G01X28148Y-43432D01*
G01X28150Y-43434D01*
G01X28153Y-43435D01*
G01X28155Y-43436D01*
G01X28157Y-43437D01*
G01X28159Y-43438D01*
G01X28161Y-43439D01*
G01X28163Y-43440D01*
G01X28165Y-43441D01*
G01X28168Y-43443D01*
G01X28170Y-43444D01*
G01X28172Y-43445D01*
G01X28174Y-43446D01*
G01X28176Y-43447D01*
G01X28178Y-43448D01*
G01X28181Y-43449D01*
G01X28183Y-43450D01*
G01X28185Y-43451D01*
G01X28187Y-43452D01*
G01X28189Y-43453D01*
G01X28192Y-43454D01*
G01X28194Y-43455D01*
G01X28196Y-43456D01*
G01X28198Y-43458D01*
G01X28200Y-43459D01*
G01X28203Y-43460D01*
G01X28205Y-43461D01*
G01X28207Y-43462D01*
G01X28209Y-43463D01*
G01X28211Y-43464D01*
G01X28214Y-43465D01*
G01X28216Y-43466D01*
G01X28218Y-43467D01*
G01X28220Y-43468D01*
G01X28222Y-43469D01*
G01X28225Y-43469D01*
G01X28227Y-43470D01*
G01X28229Y-43471D01*
G01X28231Y-43472D01*
G01X28234Y-43473D01*
G01X28236Y-43474D01*
D20*
G01X28238Y-43475D02*
G01X28436Y-42997D01*
D20*
G01X28436Y-42997D02*
G01X28429Y-42994D01*
G01X28421Y-42991D01*
G01X28414Y-42987D01*
G01X28407Y-42984D01*
G01X28400Y-42980D01*
G01X28393Y-42977D01*
G01X28386Y-42973D01*
G01X28380Y-42969D01*
G01X28373Y-42965D01*
G01X28366Y-42960D01*
G01X28360Y-42956D01*
G01X28353Y-42951D01*
G01X28347Y-42947D01*
G01X28340Y-42942D01*
G01X28334Y-42937D01*
G01X28328Y-42932D01*
G01X28322Y-42927D01*
G01X28316Y-42922D01*
G01X28310Y-42917D01*
G01X28304Y-42911D01*
G01X28298Y-42906D01*
G01X28293Y-42900D01*
G01X28287Y-42895D01*
G01X28282Y-42889D01*
G01X28277Y-42883D01*
G01X28272Y-42877D01*
G01X28267Y-42871D01*
G01X28262Y-42865D01*
G01X28257Y-42858D01*
G01X28252Y-42852D01*
G01X28248Y-42846D01*
G01X28243Y-42839D01*
G01X28239Y-42832D01*
G01X28235Y-42826D01*
G01X28230Y-42819D01*
G01X28226Y-42812D01*
G01X28223Y-42805D01*
G01X28219Y-42798D01*
G01X28215Y-42791D01*
G01X28212Y-42784D01*
G01X28209Y-42777D01*
G01X28205Y-42770D01*
G01X28202Y-42762D01*
G01X28199Y-42755D01*
G01X28197Y-42748D01*
G01X28194Y-42740D01*
G01X28191Y-42733D01*
G01X28189Y-42725D01*
G01X28187Y-42717D01*
G01X28185Y-42710D01*
G01X28183Y-42702D01*
G01X28181Y-42695D01*
G01X28179Y-42687D01*
G01X28178Y-42679D01*
G01X28176Y-42671D01*
G01X28175Y-42663D01*
G01X28174Y-42656D01*
G01X28173Y-42648D01*
G01X28172Y-42640D01*
G01X28172Y-42632D01*
G01X28171Y-42624D01*
G01X28171Y-42616D01*
G01X28171Y-42608D01*
G01X28170Y-42600D01*
D20*
G01X28170Y-42600D02*
G01X28171Y-42571D01*
G01X28174Y-42542D01*
G01X28179Y-42514D01*
G01X28186Y-42485D01*
G01X28194Y-42458D01*
G01X28205Y-42431D01*
G01X28217Y-42404D01*
G01X28231Y-42379D01*
G01X28247Y-42355D01*
G01X28264Y-42331D01*
G01X28283Y-42309D01*
G01X28303Y-42289D01*
G01X28325Y-42269D01*
G01X28348Y-42252D01*
G01X28372Y-42235D01*
G01X28397Y-42221D01*
G01X28423Y-42208D01*
G01X28450Y-42197D01*
G01X28477Y-42188D01*
G01X28506Y-42180D01*
G01X28534Y-42175D01*
G01X28563Y-42172D01*
G01X28592Y-42170D01*
G01X28621Y-42171D01*
G01X28650Y-42173D01*
G01X28678Y-42177D01*
G01X28707Y-42183D01*
G01X28735Y-42192D01*
G01X28762Y-42202D01*
G01X28788Y-42213D01*
G01X28814Y-42227D01*
G01X28839Y-42242D01*
G01X28862Y-42259D01*
G01X28885Y-42278D01*
G01X28906Y-42298D01*
G01X28925Y-42319D01*
G01X28944Y-42341D01*
G01X28960Y-42365D01*
G01X28975Y-42390D01*
G01X28989Y-42416D01*
G01X29000Y-42442D01*
G01X29010Y-42470D01*
G01X29018Y-42498D01*
G01X29024Y-42526D01*
G01X29028Y-42555D01*
G01X29030Y-42584D01*
G01X29030Y-42613D01*
G01X29028Y-42642D01*
G01X29024Y-42670D01*
G01X29018Y-42699D01*
G01X29011Y-42727D01*
G01X29001Y-42754D01*
G01X28990Y-42781D01*
G01X28977Y-42807D01*
G01X28962Y-42832D01*
G01X28946Y-42856D01*
G01X28928Y-42878D01*
G01X28908Y-42900D01*
G01X28887Y-42920D01*
G01X28865Y-42939D01*
G01X28842Y-42956D01*
G01X28817Y-42971D01*
G01X28792Y-42985D01*
G01X28765Y-42997D01*
D20*
G01X28764Y-42997D02*
G01X28962Y-43475D01*
M02*
