G04 ( created by brdgerber.py ( brdgerber.py v0.1 2014-03-12 ) ) date 2020-10-03 00:10:20 EDT*
G04 Gerber Fmt 3.4, Leading zero omitted, Abs format*
%MOIN*%
%FSLAX34Y34*%
G01*
G70*
G90*
G04 APERTURE LIST*
%ADD11C,0.1500*%
%ADD13R,0.0866X0.0236*%
%ADD12C,0.0000*%
%ADD19C,0.0024*%
%ADD14C,0.0080*%
%ADD15C,0.0050*%
%ADD10C,0.0200*%
%ADD20C,0.0100*%
%ADD17C,0.0060*%
%ADD18C,0.0600*%
%ADD16R,0.0709X0.0629*%
G04 APERTURE END LIST*
G54D11*
D12*
G01X-33150Y11400D02*
G01X-33150Y11400D01*
D12*
G01X-33150Y11400D02*
G01X-33150Y11400D01*
D12*
G01X-33150Y11400D02*
G01X-33150Y11400D01*
G01X-33150Y11400D01*
G01X-33150Y11400D01*
G01X-33150Y11400D01*
G01X-33150Y11400D01*
G01X-33150Y11400D01*
G01X-33150Y11400D01*
G01X-33150Y11400D01*
G01X-33150Y11400D01*
G01X-33150Y11400D01*
G01X-33150Y11400D01*
G01X-33150Y11400D01*
G01X-33150Y11400D01*
G01X-33150Y11400D01*
G01X-33150Y11400D01*
D12*
G01X-33150Y11400D02*
G01X-33150Y11400D01*
G01X-33150Y11400D01*
G01X-33150Y11400D01*
G01X-33150Y11400D01*
G01X-33150Y11400D01*
G01X-33150Y11400D01*
G01X-33150Y11400D01*
G01X-33150Y11400D01*
G01X-33150Y11400D01*
G01X-33150Y11400D01*
G01X-33150Y11400D01*
D12*
G01X-33150Y11400D02*
G01X-33150Y11400D01*
D12*
G01X-33150Y11400D02*
G01X-33150Y11400D01*
G01X-33150Y11400D01*
G01X-33150Y11400D01*
G01X-33150Y11400D01*
D12*
G01X-33150Y11400D02*
G01X-33150Y11400D01*
G01X-33150Y11400D01*
G01X-33150Y11400D01*
G01X-33150Y11400D01*
G01X-33150Y11400D01*
G01X-33150Y11400D01*
G01X-33150Y11400D01*
G01X-33150Y11400D01*
G01X-33150Y11400D01*
G01X-33150Y11400D01*
G01X-33150Y11400D01*
G01X-33150Y11400D01*
D12*
G01X-33150Y11400D02*
G01X-33150Y11400D01*
G01X-33150Y11400D01*
G01X-33150Y11400D01*
G01X-33150Y11400D01*
D15*
G01X-32442Y12384D02*
G01X-32442Y10456D01*
D15*
G01X-32442Y10456D02*
G01X-33898Y10456D01*
D15*
G01X-33898Y10456D02*
G01X-33898Y12384D01*
D15*
G01X-33898Y12384D02*
G01X-32442Y12384D01*
D15*
G01X-33432Y12108D02*
G01X-33432Y12108D01*
G01X-33432Y12111D01*
G01X-33432Y12113D01*
G01X-33432Y12116D01*
G01X-33433Y12119D01*
G01X-33433Y12122D01*
G01X-33433Y12124D01*
G01X-33434Y12127D01*
G01X-33434Y12130D01*
G01X-33435Y12132D01*
G01X-33435Y12135D01*
G01X-33436Y12138D01*
G01X-33437Y12140D01*
G01X-33438Y12143D01*
G01X-33438Y12145D01*
G01X-33439Y12148D01*
G01X-33440Y12150D01*
G01X-33442Y12153D01*
G01X-33443Y12155D01*
G01X-33444Y12158D01*
G01X-33445Y12160D01*
G01X-33446Y12163D01*
G01X-33448Y12165D01*
G01X-33449Y12167D01*
G01X-33451Y12170D01*
G01X-33452Y12172D01*
G01X-33454Y12174D01*
G01X-33455Y12176D01*
G01X-33457Y12178D01*
G01X-33459Y12181D01*
G01X-33461Y12183D01*
G01X-33463Y12185D01*
G01X-33465Y12186D01*
G01X-33466Y12188D01*
G01X-33468Y12190D01*
G01X-33470Y12192D01*
G01X-33473Y12194D01*
G01X-33475Y12196D01*
G01X-33477Y12197D01*
G01X-33479Y12199D01*
G01X-33481Y12200D01*
G01X-33484Y12202D01*
G01X-33486Y12203D01*
G01X-33488Y12205D01*
G01X-33491Y12206D01*
G01X-33493Y12207D01*
G01X-33496Y12208D01*
G01X-33498Y12209D01*
G01X-33501Y12211D01*
G01X-33503Y12212D01*
G01X-33506Y12213D01*
G01X-33508Y12213D01*
G01X-33511Y12214D01*
G01X-33513Y12215D01*
G01X-33516Y12216D01*
G01X-33519Y12216D01*
G01X-33521Y12217D01*
G01X-33524Y12217D01*
G01X-33527Y12218D01*
G01X-33529Y12218D01*
G01X-33532Y12218D01*
G01X-33535Y12219D01*
G01X-33538Y12219D01*
G01X-33540Y12219D01*
G01X-33543Y12219D01*
G01X-33546Y12219D01*
G01X-33548Y12219D01*
G01X-33551Y12219D01*
G01X-33554Y12218D01*
G01X-33557Y12218D01*
G01X-33559Y12218D01*
G01X-33562Y12217D01*
G01X-33565Y12217D01*
G01X-33567Y12216D01*
G01X-33570Y12216D01*
G01X-33573Y12215D01*
G01X-33575Y12214D01*
G01X-33578Y12213D01*
G01X-33580Y12213D01*
G01X-33583Y12212D01*
G01X-33585Y12211D01*
G01X-33588Y12209D01*
G01X-33590Y12208D01*
G01X-33593Y12207D01*
G01X-33595Y12206D01*
G01X-33598Y12205D01*
G01X-33600Y12203D01*
G01X-33602Y12202D01*
G01X-33605Y12200D01*
G01X-33607Y12199D01*
G01X-33609Y12197D01*
G01X-33611Y12196D01*
G01X-33613Y12194D01*
G01X-33616Y12192D01*
G01X-33618Y12190D01*
G01X-33620Y12188D01*
G01X-33621Y12186D01*
G01X-33623Y12185D01*
G01X-33625Y12183D01*
G01X-33627Y12181D01*
G01X-33629Y12178D01*
G01X-33631Y12176D01*
G01X-33632Y12174D01*
G01X-33634Y12172D01*
G01X-33635Y12170D01*
G01X-33637Y12167D01*
G01X-33638Y12165D01*
G01X-33640Y12163D01*
G01X-33641Y12160D01*
G01X-33642Y12158D01*
G01X-33643Y12155D01*
G01X-33644Y12153D01*
G01X-33646Y12150D01*
G01X-33647Y12148D01*
G01X-33648Y12145D01*
G01X-33648Y12143D01*
G01X-33649Y12140D01*
G01X-33650Y12138D01*
G01X-33651Y12135D01*
G01X-33651Y12132D01*
G01X-33652Y12130D01*
G01X-33652Y12127D01*
G01X-33653Y12124D01*
G01X-33653Y12122D01*
G01X-33653Y12119D01*
G01X-33654Y12116D01*
G01X-33654Y12113D01*
G01X-33654Y12111D01*
G01X-33654Y12108D01*
G01X-33654Y12105D01*
G01X-33654Y12103D01*
G01X-33654Y12100D01*
G01X-33653Y12097D01*
G01X-33653Y12094D01*
G01X-33653Y12092D01*
G01X-33652Y12089D01*
G01X-33652Y12086D01*
G01X-33651Y12084D01*
G01X-33651Y12081D01*
G01X-33650Y12078D01*
G01X-33649Y12076D01*
G01X-33648Y12073D01*
G01X-33648Y12071D01*
G01X-33647Y12068D01*
G01X-33646Y12066D01*
G01X-33644Y12063D01*
G01X-33643Y12061D01*
G01X-33642Y12058D01*
G01X-33641Y12056D01*
G01X-33640Y12053D01*
G01X-33638Y12051D01*
G01X-33637Y12049D01*
G01X-33635Y12046D01*
G01X-33634Y12044D01*
G01X-33632Y12042D01*
G01X-33631Y12040D01*
G01X-33629Y12038D01*
G01X-33627Y12035D01*
G01X-33625Y12033D01*
G01X-33623Y12031D01*
G01X-33621Y12030D01*
G01X-33620Y12028D01*
G01X-33618Y12026D01*
G01X-33616Y12024D01*
G01X-33613Y12022D01*
G01X-33611Y12020D01*
G01X-33609Y12019D01*
G01X-33607Y12017D01*
G01X-33605Y12016D01*
G01X-33602Y12014D01*
G01X-33600Y12013D01*
G01X-33598Y12011D01*
G01X-33595Y12010D01*
G01X-33593Y12009D01*
G01X-33590Y12008D01*
G01X-33588Y12007D01*
G01X-33585Y12005D01*
G01X-33583Y12004D01*
G01X-33580Y12003D01*
G01X-33578Y12003D01*
G01X-33575Y12002D01*
G01X-33573Y12001D01*
G01X-33570Y12000D01*
G01X-33567Y12000D01*
G01X-33565Y11999D01*
G01X-33562Y11999D01*
G01X-33559Y11998D01*
G01X-33557Y11998D01*
G01X-33554Y11998D01*
G01X-33551Y11997D01*
G01X-33548Y11997D01*
G01X-33546Y11997D01*
G01X-33543Y11997D01*
G01X-33540Y11997D01*
G01X-33538Y11997D01*
G01X-33535Y11997D01*
G01X-33532Y11998D01*
G01X-33529Y11998D01*
G01X-33527Y11998D01*
G01X-33524Y11999D01*
G01X-33521Y11999D01*
G01X-33519Y12000D01*
G01X-33516Y12000D01*
G01X-33513Y12001D01*
G01X-33511Y12002D01*
G01X-33508Y12003D01*
G01X-33506Y12003D01*
G01X-33503Y12004D01*
G01X-33501Y12005D01*
G01X-33498Y12007D01*
G01X-33496Y12008D01*
G01X-33493Y12009D01*
G01X-33491Y12010D01*
G01X-33488Y12011D01*
G01X-33486Y12013D01*
G01X-33484Y12014D01*
G01X-33481Y12016D01*
G01X-33479Y12017D01*
G01X-33477Y12019D01*
G01X-33475Y12020D01*
G01X-33473Y12022D01*
G01X-33470Y12024D01*
G01X-33468Y12026D01*
G01X-33466Y12028D01*
G01X-33465Y12030D01*
G01X-33463Y12031D01*
G01X-33461Y12033D01*
G01X-33459Y12035D01*
G01X-33457Y12038D01*
G01X-33455Y12040D01*
G01X-33454Y12042D01*
G01X-33452Y12044D01*
G01X-33451Y12046D01*
G01X-33449Y12049D01*
G01X-33448Y12051D01*
G01X-33446Y12053D01*
G01X-33445Y12056D01*
G01X-33444Y12058D01*
G01X-33443Y12061D01*
G01X-33442Y12063D01*
G01X-33440Y12066D01*
G01X-33439Y12068D01*
G01X-33438Y12071D01*
G01X-33438Y12073D01*
G01X-33437Y12076D01*
G01X-33436Y12078D01*
G01X-33435Y12081D01*
G01X-33435Y12084D01*
G01X-33434Y12086D01*
G01X-33434Y12089D01*
G01X-33433Y12092D01*
G01X-33433Y12094D01*
G01X-33433Y12097D01*
G01X-33432Y12100D01*
G01X-33432Y12103D01*
G01X-33432Y12105D01*
G01X-33432Y12108D01*
D17*
G01X-35200Y15600D02*
G01X-35200Y16600D01*
D17*
G01X-35200Y16600D02*
G01X-34200Y16600D01*
D17*
G01X-34200Y16600D02*
G01X-31200Y16600D01*
D17*
G01X-31200Y16600D02*
G01X-31200Y15600D01*
D17*
G01X-31200Y15600D02*
G01X-34200Y15600D01*
D17*
G01X-34200Y15600D02*
G01X-35200Y15600D01*
D17*
G01X-34200Y15600D02*
G01X-34200Y16600D01*
D19*
G01X-34700Y15350D02*
G01X-34950Y15100D01*
D19*
G01X-34950Y15100D02*
G01X-34450Y15100D01*
D19*
G01X-34450Y15100D02*
G01X-34700Y15350D01*
M02*
