G04 ( created by brdgerber.py ( brdgerber.py v0.1 2014-03-12 ) ) date 2020-10-03 00:10:21 EDT*
G04 Gerber Fmt 3.4, Leading zero omitted, Abs format*
%MOIN*%
%FSLAX34Y34*%
G01*
G70*
G90*
G04 APERTURE LIST*
%ADD11C,0.1500*%
%ADD13R,0.0866X0.0236*%
%ADD12C,0.0000*%
%ADD19C,0.0024*%
%ADD14C,0.0080*%
%ADD15C,0.0050*%
%ADD10C,0.0200*%
%ADD20C,0.0100*%
%ADD17C,0.0060*%
%ADD18C,0.0600*%
%ADD16R,0.0709X0.0629*%
G04 APERTURE END LIST*
G54D11*
D10*
G01X-37500Y09200D02*
G01X-37500Y09200D01*
G01X-37500Y09169D01*
G01X-37499Y09139D01*
G01X-37498Y09108D01*
G01X-37497Y09077D01*
G01X-37495Y09047D01*
G01X-37493Y09016D01*
G01X-37491Y08986D01*
G01X-37488Y08955D01*
G01X-37485Y08924D01*
G01X-37481Y08894D01*
G01X-37477Y08864D01*
G01X-37473Y08833D01*
G01X-37468Y08803D01*
G01X-37463Y08773D01*
G01X-37458Y08742D01*
G01X-37452Y08712D01*
G01X-37446Y08682D01*
G01X-37439Y08652D01*
G01X-37432Y08622D01*
G01X-37425Y08593D01*
G01X-37417Y08563D01*
G01X-37409Y08533D01*
G01X-37401Y08504D01*
G01X-37392Y08474D01*
G01X-37383Y08445D01*
G01X-37374Y08416D01*
G01X-37364Y08387D01*
G01X-37354Y08358D01*
G01X-37343Y08329D01*
G01X-37332Y08300D01*
G01X-37321Y08272D01*
G01X-37310Y08243D01*
G01X-37298Y08215D01*
G01X-37286Y08187D01*
G01X-37273Y08159D01*
G01X-37260Y08131D01*
G01X-37247Y08103D01*
G01X-37233Y08076D01*
G01X-37219Y08049D01*
G01X-37205Y08022D01*
G01X-37190Y07995D01*
G01X-37175Y07968D01*
G01X-37160Y07941D01*
G01X-37144Y07915D01*
G01X-37128Y07889D01*
G01X-37112Y07863D01*
G01X-37096Y07837D01*
G01X-37079Y07811D01*
G01X-37061Y07786D01*
G01X-37044Y07760D01*
G01X-37026Y07736D01*
G01X-37008Y07711D01*
G01X-36990Y07686D01*
G01X-36971Y07662D01*
G01X-36952Y07638D01*
G01X-36933Y07614D01*
G01X-36913Y07590D01*
G01X-36893Y07567D01*
G01X-36873Y07544D01*
G01X-36852Y07521D01*
G01X-36832Y07498D01*
G01X-36811Y07476D01*
G01X-36789Y07454D01*
G01X-36768Y07432D01*
G01X-36746Y07411D01*
G01X-36724Y07389D01*
G01X-36702Y07368D01*
G01X-36679Y07348D01*
G01X-36656Y07327D01*
G01X-36633Y07307D01*
G01X-36610Y07287D01*
G01X-36586Y07267D01*
G01X-36562Y07248D01*
G01X-36538Y07229D01*
G01X-36514Y07210D01*
G01X-36489Y07192D01*
G01X-36464Y07174D01*
G01X-36440Y07156D01*
G01X-36414Y07139D01*
G01X-36389Y07121D01*
G01X-36363Y07104D01*
G01X-36337Y07088D01*
G01X-36311Y07072D01*
G01X-36285Y07056D01*
G01X-36259Y07040D01*
G01X-36232Y07025D01*
G01X-36205Y07010D01*
G01X-36178Y06995D01*
G01X-36151Y06981D01*
G01X-36124Y06967D01*
G01X-36097Y06953D01*
G01X-36069Y06940D01*
G01X-36041Y06927D01*
G01X-36013Y06914D01*
G01X-35985Y06902D01*
G01X-35957Y06890D01*
G01X-35928Y06879D01*
G01X-35900Y06868D01*
G01X-35871Y06857D01*
G01X-35842Y06846D01*
G01X-35813Y06836D01*
G01X-35784Y06826D01*
G01X-35755Y06817D01*
G01X-35726Y06808D01*
G01X-35696Y06799D01*
G01X-35667Y06791D01*
G01X-35637Y06783D01*
G01X-35607Y06775D01*
G01X-35578Y06768D01*
G01X-35548Y06761D01*
G01X-35518Y06754D01*
G01X-35488Y06748D01*
G01X-35458Y06742D01*
G01X-35427Y06737D01*
G01X-35397Y06732D01*
G01X-35367Y06727D01*
G01X-35336Y06723D01*
G01X-35306Y06719D01*
G01X-35276Y06715D01*
G01X-35245Y06712D01*
G01X-35214Y06709D01*
G01X-35184Y06707D01*
G01X-35153Y06705D01*
G01X-35123Y06703D01*
G01X-35092Y06702D01*
G01X-35061Y06701D01*
G01X-35031Y06700D01*
G01X-35000Y06700D01*
D10*
G01X-31450Y06700D02*
G01X-31450Y06700D01*
G01X-31419Y06700D01*
G01X-31389Y06701D01*
G01X-31358Y06702D01*
G01X-31327Y06703D01*
G01X-31297Y06705D01*
G01X-31266Y06707D01*
G01X-31236Y06709D01*
G01X-31205Y06712D01*
G01X-31174Y06715D01*
G01X-31144Y06719D01*
G01X-31114Y06723D01*
G01X-31083Y06727D01*
G01X-31053Y06732D01*
G01X-31023Y06737D01*
G01X-30992Y06742D01*
G01X-30962Y06748D01*
G01X-30932Y06754D01*
G01X-30902Y06761D01*
G01X-30872Y06768D01*
G01X-30843Y06775D01*
G01X-30813Y06783D01*
G01X-30783Y06791D01*
G01X-30754Y06799D01*
G01X-30724Y06808D01*
G01X-30695Y06817D01*
G01X-30666Y06826D01*
G01X-30637Y06836D01*
G01X-30608Y06846D01*
G01X-30579Y06857D01*
G01X-30550Y06868D01*
G01X-30522Y06879D01*
G01X-30493Y06890D01*
G01X-30465Y06902D01*
G01X-30437Y06914D01*
G01X-30409Y06927D01*
G01X-30381Y06940D01*
G01X-30353Y06953D01*
G01X-30326Y06967D01*
G01X-30299Y06981D01*
G01X-30272Y06995D01*
G01X-30245Y07010D01*
G01X-30218Y07025D01*
G01X-30191Y07040D01*
G01X-30165Y07056D01*
G01X-30139Y07072D01*
G01X-30113Y07088D01*
G01X-30087Y07104D01*
G01X-30061Y07121D01*
G01X-30036Y07139D01*
G01X-30010Y07156D01*
G01X-29986Y07174D01*
G01X-29961Y07192D01*
G01X-29936Y07210D01*
G01X-29912Y07229D01*
G01X-29888Y07248D01*
G01X-29864Y07267D01*
G01X-29840Y07287D01*
G01X-29817Y07307D01*
G01X-29794Y07327D01*
G01X-29771Y07348D01*
G01X-29748Y07368D01*
G01X-29726Y07389D01*
G01X-29704Y07411D01*
G01X-29682Y07432D01*
G01X-29661Y07454D01*
G01X-29639Y07476D01*
G01X-29618Y07498D01*
G01X-29598Y07521D01*
G01X-29577Y07544D01*
G01X-29557Y07567D01*
G01X-29537Y07590D01*
G01X-29517Y07614D01*
G01X-29498Y07638D01*
G01X-29479Y07662D01*
G01X-29460Y07686D01*
G01X-29442Y07711D01*
G01X-29424Y07736D01*
G01X-29406Y07760D01*
G01X-29389Y07786D01*
G01X-29371Y07811D01*
G01X-29354Y07837D01*
G01X-29338Y07863D01*
G01X-29322Y07889D01*
G01X-29306Y07915D01*
G01X-29290Y07941D01*
G01X-29275Y07968D01*
G01X-29260Y07995D01*
G01X-29245Y08022D01*
G01X-29231Y08049D01*
G01X-29217Y08076D01*
G01X-29203Y08103D01*
G01X-29190Y08131D01*
G01X-29177Y08159D01*
G01X-29164Y08187D01*
G01X-29152Y08215D01*
G01X-29140Y08243D01*
G01X-29129Y08272D01*
G01X-29118Y08300D01*
G01X-29107Y08329D01*
G01X-29096Y08358D01*
G01X-29086Y08387D01*
G01X-29076Y08416D01*
G01X-29067Y08445D01*
G01X-29058Y08474D01*
G01X-29049Y08504D01*
G01X-29041Y08533D01*
G01X-29033Y08563D01*
G01X-29025Y08593D01*
G01X-29018Y08622D01*
G01X-29011Y08652D01*
G01X-29004Y08682D01*
G01X-28998Y08712D01*
G01X-28992Y08742D01*
G01X-28987Y08773D01*
G01X-28982Y08803D01*
G01X-28977Y08833D01*
G01X-28973Y08864D01*
G01X-28969Y08894D01*
G01X-28965Y08924D01*
G01X-28962Y08955D01*
G01X-28959Y08986D01*
G01X-28957Y09016D01*
G01X-28955Y09047D01*
G01X-28953Y09077D01*
G01X-28952Y09108D01*
G01X-28951Y09139D01*
G01X-28950Y09169D01*
G01X-28950Y09200D01*
D10*
G01X-31450Y06700D02*
G01X-35000Y06700D01*
D10*
G01X-37500Y13550D02*
G01X-37500Y09200D01*
D10*
G01X-28950Y13550D02*
G01X-28950Y09200D01*
D10*
G01X-31450Y17550D02*
G01X-35000Y17550D01*
D10*
G01X-28950Y13550D02*
G01X-28950Y15100D01*
D10*
G01X-35000Y17550D02*
G01X-35000Y17550D01*
G01X-35031Y17550D01*
G01X-35061Y17549D01*
G01X-35092Y17548D01*
G01X-35123Y17547D01*
G01X-35153Y17545D01*
G01X-35184Y17543D01*
G01X-35214Y17541D01*
G01X-35245Y17538D01*
G01X-35276Y17535D01*
G01X-35306Y17531D01*
G01X-35336Y17527D01*
G01X-35367Y17523D01*
G01X-35397Y17518D01*
G01X-35427Y17513D01*
G01X-35458Y17508D01*
G01X-35488Y17502D01*
G01X-35518Y17496D01*
G01X-35548Y17489D01*
G01X-35578Y17482D01*
G01X-35607Y17475D01*
G01X-35637Y17467D01*
G01X-35667Y17459D01*
G01X-35696Y17451D01*
G01X-35726Y17442D01*
G01X-35755Y17433D01*
G01X-35784Y17424D01*
G01X-35813Y17414D01*
G01X-35842Y17404D01*
G01X-35871Y17393D01*
G01X-35900Y17382D01*
G01X-35928Y17371D01*
G01X-35957Y17360D01*
G01X-35985Y17348D01*
G01X-36013Y17336D01*
G01X-36041Y17323D01*
G01X-36069Y17310D01*
G01X-36097Y17297D01*
G01X-36124Y17283D01*
G01X-36151Y17269D01*
G01X-36178Y17255D01*
G01X-36205Y17240D01*
G01X-36232Y17225D01*
G01X-36259Y17210D01*
G01X-36285Y17194D01*
G01X-36311Y17178D01*
G01X-36337Y17162D01*
G01X-36363Y17146D01*
G01X-36389Y17129D01*
G01X-36414Y17111D01*
G01X-36440Y17094D01*
G01X-36464Y17076D01*
G01X-36489Y17058D01*
G01X-36514Y17040D01*
G01X-36538Y17021D01*
G01X-36562Y17002D01*
G01X-36586Y16983D01*
G01X-36610Y16963D01*
G01X-36633Y16943D01*
G01X-36656Y16923D01*
G01X-36679Y16902D01*
G01X-36702Y16882D01*
G01X-36724Y16861D01*
G01X-36746Y16839D01*
G01X-36768Y16818D01*
G01X-36789Y16796D01*
G01X-36811Y16774D01*
G01X-36832Y16752D01*
G01X-36852Y16729D01*
G01X-36873Y16706D01*
G01X-36893Y16683D01*
G01X-36913Y16660D01*
G01X-36933Y16636D01*
G01X-36952Y16612D01*
G01X-36971Y16588D01*
G01X-36990Y16564D01*
G01X-37008Y16539D01*
G01X-37026Y16514D01*
G01X-37044Y16490D01*
G01X-37061Y16464D01*
G01X-37079Y16439D01*
G01X-37096Y16413D01*
G01X-37112Y16387D01*
G01X-37128Y16361D01*
G01X-37144Y16335D01*
G01X-37160Y16309D01*
G01X-37175Y16282D01*
G01X-37190Y16255D01*
G01X-37205Y16228D01*
G01X-37219Y16201D01*
G01X-37233Y16174D01*
G01X-37247Y16147D01*
G01X-37260Y16119D01*
G01X-37273Y16091D01*
G01X-37286Y16063D01*
G01X-37298Y16035D01*
G01X-37310Y16007D01*
G01X-37321Y15978D01*
G01X-37332Y15950D01*
G01X-37343Y15921D01*
G01X-37354Y15892D01*
G01X-37364Y15863D01*
G01X-37374Y15834D01*
G01X-37383Y15805D01*
G01X-37392Y15776D01*
G01X-37401Y15746D01*
G01X-37409Y15717D01*
G01X-37417Y15687D01*
G01X-37425Y15657D01*
G01X-37432Y15628D01*
G01X-37439Y15598D01*
G01X-37446Y15568D01*
G01X-37452Y15538D01*
G01X-37458Y15508D01*
G01X-37463Y15477D01*
G01X-37468Y15447D01*
G01X-37473Y15417D01*
G01X-37477Y15386D01*
G01X-37481Y15356D01*
G01X-37485Y15326D01*
G01X-37488Y15295D01*
G01X-37491Y15264D01*
G01X-37493Y15234D01*
G01X-37495Y15203D01*
G01X-37497Y15173D01*
G01X-37498Y15142D01*
G01X-37499Y15111D01*
G01X-37500Y15081D01*
G01X-37500Y15050D01*
D10*
G01X-37500Y13550D02*
G01X-37500Y15050D01*
D10*
G01X-28950Y15050D02*
G01X-28950Y15050D01*
G01X-28950Y15081D01*
G01X-28951Y15111D01*
G01X-28952Y15142D01*
G01X-28953Y15173D01*
G01X-28955Y15203D01*
G01X-28957Y15234D01*
G01X-28959Y15264D01*
G01X-28962Y15295D01*
G01X-28965Y15326D01*
G01X-28969Y15356D01*
G01X-28973Y15386D01*
G01X-28977Y15417D01*
G01X-28982Y15447D01*
G01X-28987Y15477D01*
G01X-28992Y15508D01*
G01X-28998Y15538D01*
G01X-29004Y15568D01*
G01X-29011Y15598D01*
G01X-29018Y15628D01*
G01X-29025Y15657D01*
G01X-29033Y15687D01*
G01X-29041Y15717D01*
G01X-29049Y15746D01*
G01X-29058Y15776D01*
G01X-29067Y15805D01*
G01X-29076Y15834D01*
G01X-29086Y15863D01*
G01X-29096Y15892D01*
G01X-29107Y15921D01*
G01X-29118Y15950D01*
G01X-29129Y15978D01*
G01X-29140Y16007D01*
G01X-29152Y16035D01*
G01X-29164Y16063D01*
G01X-29177Y16091D01*
G01X-29190Y16119D01*
G01X-29203Y16147D01*
G01X-29217Y16174D01*
G01X-29231Y16201D01*
G01X-29245Y16228D01*
G01X-29260Y16255D01*
G01X-29275Y16282D01*
G01X-29290Y16309D01*
G01X-29306Y16335D01*
G01X-29322Y16361D01*
G01X-29338Y16387D01*
G01X-29354Y16413D01*
G01X-29371Y16439D01*
G01X-29389Y16464D01*
G01X-29406Y16490D01*
G01X-29424Y16514D01*
G01X-29442Y16539D01*
G01X-29460Y16564D01*
G01X-29479Y16588D01*
G01X-29498Y16612D01*
G01X-29517Y16636D01*
G01X-29537Y16660D01*
G01X-29557Y16683D01*
G01X-29577Y16706D01*
G01X-29598Y16729D01*
G01X-29618Y16752D01*
G01X-29639Y16774D01*
G01X-29661Y16796D01*
G01X-29682Y16818D01*
G01X-29704Y16839D01*
G01X-29726Y16861D01*
G01X-29748Y16882D01*
G01X-29771Y16902D01*
G01X-29794Y16923D01*
G01X-29817Y16943D01*
G01X-29840Y16963D01*
G01X-29864Y16983D01*
G01X-29888Y17002D01*
G01X-29912Y17021D01*
G01X-29936Y17040D01*
G01X-29961Y17058D01*
G01X-29986Y17076D01*
G01X-30010Y17094D01*
G01X-30036Y17111D01*
G01X-30061Y17129D01*
G01X-30087Y17146D01*
G01X-30113Y17162D01*
G01X-30139Y17178D01*
G01X-30165Y17194D01*
G01X-30191Y17210D01*
G01X-30218Y17225D01*
G01X-30245Y17240D01*
G01X-30272Y17255D01*
G01X-30299Y17269D01*
G01X-30326Y17283D01*
G01X-30353Y17297D01*
G01X-30381Y17310D01*
G01X-30409Y17323D01*
G01X-30437Y17336D01*
G01X-30465Y17348D01*
G01X-30493Y17360D01*
G01X-30522Y17371D01*
G01X-30550Y17382D01*
G01X-30579Y17393D01*
G01X-30608Y17404D01*
G01X-30637Y17414D01*
G01X-30666Y17424D01*
G01X-30695Y17433D01*
G01X-30724Y17442D01*
G01X-30754Y17451D01*
G01X-30783Y17459D01*
G01X-30813Y17467D01*
G01X-30843Y17475D01*
G01X-30872Y17482D01*
G01X-30902Y17489D01*
G01X-30932Y17496D01*
G01X-30962Y17502D01*
G01X-30992Y17508D01*
G01X-31023Y17513D01*
G01X-31053Y17518D01*
G01X-31083Y17523D01*
G01X-31114Y17527D01*
G01X-31144Y17531D01*
G01X-31174Y17535D01*
G01X-31205Y17538D01*
G01X-31236Y17541D01*
G01X-31266Y17543D01*
G01X-31297Y17545D01*
G01X-31327Y17547D01*
G01X-31358Y17548D01*
G01X-31389Y17549D01*
G01X-31419Y17550D01*
G01X-31450Y17550D01*
M02*
