G04 ( created by brdgerber.py ( brdgerber.py v0.1 2014-03-12 ) ) date 2021-04-17 02:52:41 EDT*
G04 Gerber Fmt 3.4, Leading zero omitted, Abs format*
%MOIN*%
%FSLAX34Y34*%
G01*
G70*
G90*
G04 APERTURE LIST*
%ADD23R,0.0760X0.2100*%
%ADD11R,0.0550X0.0550*%
%ADD20C,0.1500*%
%ADD25R,0.0600X0.0800*%
%ADD18R,0.0177X0.0787*%
%ADD10R,0.0866X0.0236*%
%ADD21R,0.0800X0.0600*%
%ADD24C,0.1200*%
%ADD19R,0.0787X0.0177*%
%ADD26C,0.1600*%
%ADD14R,0.0260X0.0800*%
%ADD13R,0.0629X0.0709*%
%ADD22C,0.0471*%
%ADD16R,0.0709X0.0629*%
%ADD15R,0.0472X0.0275*%
%ADD17R,0.0945X0.1575*%
%ADD12C,0.0550*%
G04 APERTURE END LIST*
G54D23*
D11*
X23600Y24950D03*
D12*
X24600Y24950D03*
D11*
X15450Y13800D03*
D12*
X16450Y13800D03*
D12*
X17450Y13800D03*
D12*
X18450Y13800D03*
D11*
X25450Y16000D03*
D12*
X25450Y15000D03*
D12*
X25450Y14000D03*
D11*
X15700Y25050D03*
D12*
X16700Y25050D03*
D12*
X17700Y25050D03*
D11*
X05950Y24700D03*
D12*
X06950Y24700D03*
D11*
X-03600Y20150D03*
D12*
X-03600Y19150D03*
D12*
X-03600Y18150D03*
D11*
X25450Y19850D03*
D12*
X25450Y18850D03*
D12*
X25450Y17850D03*
D20*
G01X05740Y19200D02*
G01X05740Y19200D01*
D20*
G01X02000Y22940D02*
G01X02000Y22940D01*
D20*
G01X-01740Y19200D02*
G01X-01740Y19200D01*
D20*
G01X02000Y15460D02*
G01X02000Y15460D01*
D22*
G01X24750Y23650D02*
G01X24750Y23650D01*
D22*
G01X25750Y23650D02*
G01X25750Y23650D01*
D22*
G01X24750Y22650D02*
G01X24750Y22650D01*
D22*
G01X25750Y22650D02*
G01X25750Y22650D01*
D22*
G01X24750Y21650D02*
G01X24750Y21650D01*
D22*
G01X25750Y21650D02*
G01X25750Y21650D01*
D24*
G01X00330Y17530D02*
G01X00330Y17530D01*
D24*
G01X03670Y17530D02*
G01X03670Y17530D01*
D24*
G01X03670Y20870D02*
G01X03670Y20870D01*
D24*
G01X00330Y20870D02*
G01X00330Y20870D01*
D26*
X02000Y11000D03*
D26*
X11000Y11000D03*
D26*
X02000Y27000D03*
D26*
X21000Y27000D03*
D26*
X11000Y27000D03*
D26*
X21000Y11000D03*
M02*
