M48
;DRILL file {brdgerber.py (2021-04-17 02:52:45) date 2021-04-17 02:52:45}
;FORMAT={-:-/ absolute / inch / decimal}
FMAT,2
INCH,TZ
T4C00000.03140
T3C00000.10000
T5C00000.12000
T1C00000.03200
T2C00000.02500
%
G90
G05
M72
T4
X00002.47500Y00002.36500
X00002.57500Y00002.36500
X00002.47500Y00002.26500
X00002.57500Y00002.26500
X00002.47500Y00002.16500
X00002.57500Y00002.16500
T0
T3
X00000.57400Y00001.92000
X00000.20000Y00002.29400
X-0000.17400Y00001.92000
X00000.20000Y00001.54600
X00000.03298Y00001.75298
X00000.36702Y00001.75298
X00000.36702Y00002.08702
X00000.03298Y00002.08702
T0
T5
X00000.20000Y00001.10000
X00001.10000Y00001.10000
X00000.20000Y00002.70000
X00002.10000Y00002.70000
X00001.10000Y00002.70000
X00002.10000Y00001.10000
T0
T1
X00002.36000Y00002.49500
X00002.46000Y00002.49500
X00001.54500Y00001.38000
X00001.64500Y00001.38000
X00001.74500Y00001.38000
X00001.84500Y00001.38000
X00002.54500Y00001.60000
X00002.54500Y00001.50000
X00002.54500Y00001.40000
X00001.57000Y00002.50500
X00001.67000Y00002.50500
X00001.77000Y00002.50500
X00000.59500Y00002.47000
X00000.69500Y00002.47000
X-0000.36000Y00002.01500
X-0000.36000Y00001.91500
X-0000.36000Y00001.81500
X00002.54500Y00001.98500
X00002.54500Y00001.88500
X00002.54500Y00001.78500
T0
T2
X00001.31000Y00002.06000
X00000.97000Y00002.43500
X00000.77000Y00001.60500
X00001.30500Y00001.83000
X00000.97500Y00001.68000
X00000.84500Y00001.48000
X00001.15000Y00002.43500
X00001.95000Y00001.44000
X00002.45000Y00001.66500
X00001.03500Y00002.43500
X00000.19500Y00002.07000
X00000.35000Y00002.41500
X00001.41000Y00001.80000
X00001.62000Y00001.82000
X00001.89000Y00001.47000
X00001.84000Y00001.51000
X00001.74000Y00001.79500
X00001.01500Y00002.50000
X00001.40000Y00002.37500
X00001.73000Y00001.90500
X00001.44500Y00001.39000
X00000.99500Y00001.57000
X00000.71500Y00001.40000
X00002.37500Y00001.41000
X00002.39000Y00001.28500
X00000.60000Y00002.03500
X00001.48000Y00002.03500
X00001.30500Y00002.31500
X00001.51000Y00002.39000
X00001.72000Y00001.60000
X00001.84500Y00001.66000
X00000.89500Y00001.55500
X00001.79500Y00001.71000
X00001.89000Y00001.79000
X00001.91500Y00002.25000
X00001.83500Y00001.75500
X00001.81000Y00001.99500
X00001.68500Y00002.20000
X00001.91000Y00002.00000
X00001.97500Y00001.96500
X00001.88500Y00002.49000
X00001.43000Y00002.50000
X00002.02500Y00001.68000
X00002.34000Y00002.33000
X00000.50000Y00001.47000
T0
M30
