G04 ( created by brdgerber.py ( brdgerber.py v0.1 2014-03-12 ) ) date 2021-04-17 02:52:42 EDT*
G04 Gerber Fmt 3.4, Leading zero omitted, Abs format*
%MOIN*%
%FSLAX34Y34*%
G01*
G70*
G90*
G04 APERTURE LIST*
%ADD23R,0.0760X0.2100*%
%ADD19R,0.0787X0.0177*%
%ADD18R,0.0177X0.0787*%
%ADD13R,0.0629X0.0709*%
%ADD10R,0.0866X0.0236*%
%ADD22C,0.0471*%
%ADD12C,0.0550*%
%ADD24C,0.1200*%
%ADD15R,0.0472X0.0275*%
%ADD21R,0.0800X0.0600*%
%ADD11R,0.0550X0.0550*%
%ADD25R,0.0600X0.0800*%
%ADD14R,0.0260X0.0800*%
%ADD20C,0.1500*%
%ADD17R,0.0945X0.1575*%
%ADD26C,0.1600*%
%ADD16R,0.0709X0.0629*%
G04 APERTURE END LIST*
G54D23*
D10*
X00977Y19450D03*
D10*
X03023Y19450D03*
D10*
X00977Y19950D03*
D10*
X00977Y18950D03*
D10*
X00977Y18450D03*
D10*
X03023Y19950D03*
D10*
X03023Y18950D03*
D10*
X03023Y18450D03*
G36*
G01X-02024Y21678D02*
G01X-02468Y21233D01*
G01X-01967Y20732D01*
G01X-01522Y21176D01*
G01X-02024Y21678D01*
G37*
G36*
G01X-01233Y22468D02*
G01X-01678Y22024D01*
G01X-01176Y21522D01*
G01X-00732Y21967D01*
G01X-01233Y22468D01*
G37*
D11*
X23600Y24950D03*
D12*
X24600Y24950D03*
D11*
X15450Y13800D03*
D12*
X16450Y13800D03*
D12*
X17450Y13800D03*
D12*
X18450Y13800D03*
G36*
G01X-01122Y17424D02*
G01X-01567Y17868D01*
G01X-02068Y17367D01*
G01X-01624Y16922D01*
G01X-01122Y17424D01*
G37*
G36*
G01X-00332Y16633D02*
G01X-00776Y17078D01*
G01X-01278Y16576D01*
G01X-00833Y16132D01*
G01X-00332Y16633D01*
G37*
D13*
X19509Y18900D03*
D13*
X18391Y18900D03*
D11*
X25450Y16000D03*
D12*
X25450Y15000D03*
D12*
X25450Y14000D03*
D11*
X15700Y25050D03*
D12*
X16700Y25050D03*
D12*
X17700Y25050D03*
D14*
X12250Y23450D03*
D14*
X11750Y23450D03*
D14*
X11250Y23450D03*
D14*
X10750Y23450D03*
D14*
X10250Y23450D03*
D14*
X09750Y23450D03*
D14*
X09250Y23450D03*
D14*
X08750Y23450D03*
D14*
X08750Y17850D03*
D14*
X09250Y17850D03*
D14*
X09750Y17850D03*
D14*
X10250Y17850D03*
D14*
X10750Y17850D03*
D14*
X11250Y17850D03*
D14*
X11750Y17850D03*
D14*
X12250Y17850D03*
D14*
X08250Y23450D03*
D14*
X07750Y23450D03*
D14*
X08250Y17850D03*
D14*
X07750Y17850D03*
D13*
X09341Y14600D03*
D13*
X10459Y14600D03*
D15*
X13078Y13600D03*
D15*
X11622Y13600D03*
D11*
X05950Y24700D03*
D12*
X06950Y24700D03*
D16*
X11550Y15859D03*
D16*
X11550Y14741D03*
D16*
X13601Y15909D03*
D16*
X13601Y14791D03*
D13*
X06709Y21950D03*
D13*
X05591Y21950D03*
D11*
X-03600Y20150D03*
D12*
X-03600Y19150D03*
D12*
X-03600Y18150D03*
D15*
X10578Y13600D03*
D15*
X09122Y13600D03*
D17*
X16300Y20075D03*
D17*
X16300Y23225D03*
D18*
X20257Y18296D03*
D18*
X20572Y18296D03*
D18*
X20887Y18296D03*
D18*
X21202Y18296D03*
D18*
X21517Y18296D03*
D18*
X21832Y18296D03*
D18*
X22147Y18296D03*
D18*
X22462Y18296D03*
D18*
X22460Y14530D03*
D18*
X20250Y14530D03*
D18*
X20570Y14530D03*
D18*
X20890Y14530D03*
D18*
X21200Y14530D03*
D18*
X21520Y14530D03*
D18*
X21830Y14530D03*
D18*
X22150Y14530D03*
D19*
X23250Y17512D03*
D19*
X23250Y17198D03*
D19*
X23250Y16882D03*
D19*
X23250Y16568D03*
D19*
X23250Y16252D03*
D19*
X23250Y15938D03*
D19*
X23250Y15622D03*
D19*
X23250Y15308D03*
D19*
X19470Y17510D03*
D19*
X19470Y17200D03*
D19*
X19470Y16880D03*
D19*
X19470Y16570D03*
D19*
X19470Y16260D03*
D19*
X19470Y15940D03*
D19*
X19470Y15620D03*
D19*
X19470Y15300D03*
D11*
X25450Y19850D03*
D12*
X25450Y18850D03*
D12*
X25450Y17850D03*
D13*
X21709Y13550D03*
D13*
X20591Y13550D03*
D20*
G01X05740Y19200D02*
G01X05740Y19200D01*
D20*
G01X02000Y22940D02*
G01X02000Y22940D01*
D20*
G01X-01740Y19200D02*
G01X-01740Y19200D01*
D20*
G01X02000Y15460D02*
G01X02000Y15460D01*
D21*
X14950Y16050D03*
D21*
X14950Y17350D03*
D16*
X19700Y23591D03*
D16*
X19700Y24709D03*
D22*
G01X24750Y23650D02*
G01X24750Y23650D01*
D22*
G01X25750Y23650D02*
G01X25750Y23650D01*
D22*
G01X24750Y22650D02*
G01X24750Y22650D01*
D22*
G01X25750Y22650D02*
G01X25750Y22650D01*
D22*
G01X24750Y21650D02*
G01X24750Y21650D01*
D22*
G01X25750Y21650D02*
G01X25750Y21650D01*
D16*
X19750Y21659D03*
D16*
X19750Y20541D03*
D23*
X21600Y24850D03*
D23*
X21600Y21050D03*
D24*
G01X00330Y17530D02*
G01X00330Y17530D01*
D24*
G01X03670Y17530D02*
G01X03670Y17530D01*
D24*
G01X03670Y20870D02*
G01X03670Y20870D01*
D24*
G01X00330Y20870D02*
G01X00330Y20870D01*
D25*
X-00700Y13450D03*
D25*
X00600Y13450D03*
D25*
X03600Y13450D03*
D25*
X04900Y13450D03*
D26*
X02000Y11000D03*
D26*
X11000Y11000D03*
D26*
X02000Y27000D03*
D26*
X21000Y27000D03*
D26*
X11000Y27000D03*
D26*
X21000Y11000D03*
M02*
